G04 ================== begin FILE IDENTIFICATION RECORD ==================*
G04 Layout Name:  Lay-51943_B3.brd*
G04 Film Name:    L3_IN_1.art*
G04 File Format:  Gerber RS274X*
G04 File Origin:  Cadence Allegro 17.4-S021*
G04 Origin Date:  Wed Apr 24 10:44:52 2024*
G04 *
G04 Layer:  MANUFACTURING/L3*
G04 Layer:  DRAWING FORMAT/FILM_TITLE_BLOCK*
G04 Layer:  BOARD GEOMETRY/OUTLINE*
G04 Layer:  ETCH/L3_INT_1*
G04 Layer:  PIN/L3_INT_1*
G04 Layer:  VIA CLASS/L3_INT_1*
G04 *
G04 Offset:    (0.00 0.00)*
G04 Mirror:    No*
G04 Mode:      Positive*
G04 Rotation:  0*
G04 FullContactRelief:  No*
G04 UndefLineWidth:     8.00*
G04 ================== end FILE IDENTIFICATION RECORD ====================*
%FSLAX55Y55*MOIN*%
%IR0*IPPOS*OFA0.00000B0.00000*MIA0B0*SFA1.00000B1.00000*%
%ADD11C,.02*%
%ADD10C,.016*%
%ADD12C,.056*%
%ADD13C,.156*%
%ADD14C,.01*%
%ADD15C,.012*%
%ADD16C,.015*%
%ADD17C,.018*%
%ADD18C,.0032*%
%ADD19C,.008*%
%ADD20C,.006*%
%ADD21C,.0036*%
%ADD22C,.0045*%
%ADD23C,.0029*%
%ADD26C,.02404*%
%ADD24C,.02604*%
%ADD25C,.06604*%
%ADD27C,.09699*%
G75*
%LPD*%
G75*
G36*
G01X191658Y238555D02*
X288281D01*
Y1973D01*
X252959D01*
X252820Y2112D01*
X201265D01*
X198649Y4728D01*
Y11246D01*
X200541Y13138D01*
X250135D01*
X258598Y21601D01*
Y22718D01*
X266867Y30987D01*
G03X267190Y31766I-778J779D01*
G01Y76548D01*
G02X267764Y76908I400J0D01*
G03X268331Y76778I567J1171D01*
G03Y79382I0J1302D01*
G03X267764Y79252I0J-1301D01*
G02X267190Y79612I-174J360D01*
G01Y92712D01*
G02X267777Y93065I400J0D01*
G03X268388Y92913I611J1150D01*
G03X269221Y93215I-1J1302D01*
G02X269488Y93206I128J-154D01*
G03X270387Y92845I900J941D01*
G03X271689Y94147I0J1302D01*
G03X271158Y95196I-1302J0D01*
G02Y95841I237J322D01*
G03X271689Y96890I-771J1049D01*
G03X270387Y98192I-1302J0D01*
G03X269526Y97867I0J-1303D01*
G02X269260Y97868I-132J150D01*
G03X268387Y98204I-873J-966D01*
G03X267777Y98052I0J-1302D01*
G02X267190Y98406I-187J353D01*
G01Y99069D01*
G03X266867Y99848I-1101J0D01*
G01X264968Y101746D01*
Y108240D01*
X265780Y109051D01*
X265831Y109065D01*
G03X266557Y109572I-338J1257D01*
G02X267217Y109565I328J-230D01*
G03X268298Y108988I1081J724D01*
G03X269316Y109478I0J1302D01*
G02X269952Y109463I312J-250D01*
G03X271007Y108924I1055J763D01*
G03Y111528I0J1302D01*
G03X269989Y111038I0J-1302D01*
G02X269353Y111053I-312J250D01*
G03X268298Y111592I-1055J-763D01*
G03X267234Y111040I0J-1301D01*
G02X266574Y111047I-328J230D01*
G03X265493Y111624I-1081J-724D01*
G03X264236Y110660I0J-1302D01*
G01X264222Y110609D01*
X263088Y109475D01*
G03X262766Y108696I779J-778D01*
G01Y101290D01*
G03X263088Y100511I1101J-1D01*
G01X264986Y98613D01*
Y57472D01*
G02X264315Y57178I-400J0D01*
G03X263433Y57523I-883J-957D01*
G03Y54919I0J-1302D01*
G03X264315Y55264I-1J1302D01*
G02X264986Y54970I271J-294D01*
G01Y32222D01*
X259281Y26517D01*
G02X258598Y26799I-283J282D01*
G01Y34201D01*
G02X258787Y34401I200J0D01*
G03X259559Y34707I-69J1300D01*
G02X259829Y34697I130J-152D01*
G03X260741Y34324I912J928D01*
G03Y36928I0J1302D01*
G03X259900Y36620I0J-1302D01*
G02X259630Y36630I-130J152D01*
G03X258787Y37001I-912J-929D01*
G02X258598Y37201I11J200D01*
G01Y39223D01*
G02X258791Y39423I200J0D01*
G03X259585Y39730I-47J1301D01*
G02X259855Y39720I130J-152D01*
G03X260767Y39347I912J928D01*
G03Y41951I0J1302D01*
G03X259926Y41643I0J-1302D01*
G02X259656Y41653I-130J152D01*
G03X258791Y42025I-912J-929D01*
G02X258598Y42225I7J200D01*
G01Y78340D01*
X249428Y87510D01*
Y108778D01*
X252946Y112296D01*
X255121D01*
G03X256216Y111699I1095J706D01*
G03X257028Y111984I-1J1302D01*
G02X257307Y111955I125J-157D01*
G03X258306Y111488I999J835D01*
G03X259199Y111842I0J1303D01*
G02X259479Y111836I137J-145D01*
G03X260412Y111443I932J909D01*
G03X261586Y112182I0J1302D01*
G01X261641Y112296D01*
X270074D01*
X271815Y114036D01*
X277268D01*
X277527Y113778D01*
X277403Y113637D01*
G03X277080Y112778I979J-858D01*
G03X278382Y111476I1302J0D01*
G03X279295Y111850I0J1301D01*
G02X279574I140J-143D01*
G03X280482Y111482I907J934D01*
G03X281784Y112784I0J1302D01*
G03X280937Y114004I-1302J0D01*
G01X280896Y114019D01*
X278557Y116359D01*
G03X278167Y116561I-514J-514D01*
G02X277953Y117238I69J394D01*
G01X278374Y117659D01*
X278451Y117663D01*
G03X279302Y118043I-70J1300D01*
G02X279582Y118046I142J-141D01*
G03X280481Y117686I899J943D01*
G03X281783Y118988I0J1302D01*
G03X280668Y120276I-1301J0D01*
G01X280602Y120286D01*
X278756Y122133D01*
G03X278242Y122346I-514J-514D01*
G01X275273D01*
Y126304D01*
X276618D01*
X277244Y125678D01*
X277231Y125580D01*
G03X277220Y125412I1291J-169D01*
G03X278522Y124110I1302J0D01*
G03X279415Y124464I0J1303D01*
G02X279695Y124459I137J-145D01*
G03X280622Y124071I927J913D01*
G03Y126675I0J1302D01*
G01X280610D01*
X280526Y126674D01*
X278970Y128231D01*
G02X279047Y128857I283J283D01*
G03X279226Y128985I-665J1119D01*
G02X279746I260J-304D01*
G03X280592Y128673I846J991D01*
G03Y131277I0J1302D01*
G03X279746Y130965I0J-1303D01*
G02X279226I-260J304D01*
G03X278380Y131277I-846J-991D01*
G03X277512Y130945I0J-1301D01*
G02X277233Y130958I-133J149D01*
G03X276282Y131370I-950J-890D01*
G03X275816Y131284I-1J-1302D01*
G02X275273Y131657I-143J373D01*
G01Y135440D01*
X280591D01*
G03X281105Y135653I0J727D01*
G01X282346Y136894D01*
X282442Y136882D01*
G03X282599Y136873I153J1293D01*
G03X281297Y138175I0J1302D01*
G03X281306Y138018I1302J-4D01*
G01X281318Y137922D01*
X280333Y136937D01*
G02X279792Y137467I-181J357D01*
G03X279921Y138032I-1173J565D01*
G03X278619Y139334I-1302J0D01*
G03X277965Y139158I0J-1303D01*
G02X277690Y139233I-101J173D01*
G03X276554Y139899I-1136J-636D01*
G03X275880Y139711I0J-1302D01*
G02X275273Y140053I-207J342D01*
G01Y141970D01*
X277210D01*
G03X277724Y142182I1J726D01*
G01X278453Y142911D01*
X278549Y142899D01*
G03X278706Y142890I153J1293D01*
G03X280008Y144192I0J1302D01*
G03X279076Y145440I-1302J0D01*
G02X278906Y146107I113J384D01*
G01X280580Y147781D01*
X280655Y147786D01*
G03X281873Y149085I-84J1299D01*
G03X280571Y150387I-1302J0D01*
G03X279691Y150044I1J-1302D01*
G02X279176Y150022I-271J295D01*
G03X278382Y150292I-794J-1032D01*
G03X277080Y148990I0J-1302D01*
G03X277133Y148623I1302J1D01*
G01X277166Y148510D01*
X276477Y147820D01*
X275273D01*
Y152042D01*
G02X275865Y152392I400J-1D01*
G03X276491Y152232I625J1142D01*
G03X277462Y152667I0J1301D01*
G02X278017Y152708I299J-266D01*
G03X278850Y152406I834J1000D01*
G03Y155010I0J1302D01*
G03X277879Y154575I0J-1301D01*
G02X277324Y154534I-299J266D01*
G03X276491Y154836I-834J-1000D01*
G03X275865Y154676I-1J-1302D01*
G02X275273Y155026I-192J351D01*
G01Y158708D01*
G02X275936Y159009I400J0D01*
G03X276793Y158687I857J979D01*
G03X277602Y158969I0J1301D01*
G02X277881Y158938I124J-157D01*
G03X278243Y158631I1009J823D01*
G02X278226Y157928I-199J-347D01*
G03X277516Y156768I593J-1160D01*
G03X280120I1302J0D01*
G03X279466Y157897I-1301J0D01*
G02X279483Y158600I199J347D01*
G03X280193Y159760I-593J1160D01*
G03X278891Y161062I-1302J0D01*
G03X278082Y160780I0J-1301D01*
G02X277803Y160811I-124J157D01*
G03X276793Y161291I-1010J-823D01*
G03X275683Y160670I0J-1303D01*
G02X275060Y160596I-341J209D01*
G01X273204Y162452D01*
Y171170D01*
X276568Y174534D01*
Y176675D01*
X273552Y179691D01*
G02X273688Y180345I283J282D01*
G03X274511Y181556I-479J1211D01*
G03X271907I-1302J0D01*
G03X271916Y181399I1302J-4D01*
G01X271928Y181303D01*
X271431Y180805D01*
X270717D01*
G02X270319Y181246I0J400D01*
G03X270326Y181380I-1295J135D01*
G03X269643Y182525I-1301J0D01*
G02X269551Y183160I191J352D01*
G01X269803Y183412D01*
G03X270126Y184191I-778J779D01*
G01Y189258D01*
G03X270326Y189952I-1102J693D01*
G03X267722I-1302J0D01*
G03X267922Y189258I1302J-1D01*
G01Y184647D01*
X261686Y178410D01*
X249951D01*
G03X249172Y178088I-1J-1101D01*
G01X245618Y174534D01*
X241546D01*
X234665Y167653D01*
X229694D01*
X227323Y170024D01*
Y172699D01*
X228165Y173541D01*
Y178052D01*
X229045Y178932D01*
G02X229728Y178627I284J-282D01*
G03X237486Y182227I4841J-273D01*
G02X237727Y182946I241J319D01*
G01X238028D01*
X242541Y187459D01*
Y188002D01*
X243323Y188783D01*
X243419Y188771D01*
G03X243576Y188762I153J1293D01*
G03X244878Y190064I0J1302D01*
G03X244490Y190991I-1301J0D01*
G02X244498Y191568I281J285D01*
G03X244910Y192518I-889J950D01*
G03X243608Y193820I-1302J0D01*
G03X243098Y193716I0J-1302D01*
G02X242541Y194084I-157J368D01*
G01Y196478D01*
G02X242901Y196876I400J0D01*
G03X244073Y198171I-129J1295D01*
G03X242771Y199473I-1302J0D01*
G03X242525Y199450I-2J-1302D01*
G01X242421Y199429D01*
X240705Y201145D01*
X238717D01*
X236117Y203745D01*
Y209250D01*
X240400Y213533D01*
Y216985D01*
G02X240845Y217382I400J0D01*
G03X240993Y217374I144J1294D01*
G03X241927Y217769I0J1302D01*
G02X242533Y217732I287J-278D01*
G03X243571Y217216I1038J786D01*
G03Y219820I0J1302D01*
G03X243414Y219811I-4J-1302D01*
G01X243318Y219799D01*
X241350Y221767D01*
G03X240836Y221980I-514J-514D01*
G01X233921D01*
G03X233407Y221767I0J-727D01*
G01X232820Y221179D01*
X224956D01*
Y223223D01*
G03X225532Y224303I-726J1081D01*
G03X222928I-1302J0D01*
G03X223504Y223223I1302J1D01*
G01Y221179D01*
X222659D01*
X217592Y226246D01*
Y228696D01*
G03X217380Y229210I-726J1D01*
G01X215470Y231119D01*
Y234624D01*
G03X215258Y235138I-726J1D01*
G01X214186Y236209D01*
X214182Y236285D01*
G03X212882Y237512I-1300J-75D01*
G03X211687Y236727I0J-1302D01*
G02X211424Y236623I-183J79D01*
G03X210906Y236730I-517J-1195D01*
G03X210003Y236366I0J-1302D01*
G02X209434Y236381I-277J289D01*
G03X208483Y236794I-951J-888D01*
G03Y234190I0J-1302D01*
G03X209386Y234554I0J1302D01*
G02X209955Y234539I277J-289D01*
G03X210906Y234126I951J888D01*
G03X212101Y234911I0J1302D01*
G02X212364Y235015I183J-79D01*
G03X212882Y234908I517J1195D01*
G03X213238Y234958I-1J1302D01*
G01X213351Y234990D01*
X214018Y234323D01*
Y230818D01*
G03X214230Y230304I726J-1D01*
G01X214748Y229786D01*
G02X214591Y229124I-283J-283D01*
G03X213696Y227887I407J-1237D01*
G03X213705Y227730I1302J-4D01*
G01X213717Y227634D01*
X213380Y227296D01*
X209364D01*
Y228403D01*
G03X209099Y229040I-901J-1D01*
G01X204500Y233640D01*
Y234511D01*
G03X204942Y235489I-861J978D01*
G03X203640Y236791I-1302J0D01*
G03X203275Y236739I-1J-1302D01*
G02X202795Y236967I-112J384D01*
G03X201595Y237763I-1200J-507D01*
G03X200637Y237342I1J-1302D01*
G02X200357Y237327I-148J135D01*
G03X199497Y237652I-861J-977D01*
G03X198520Y237210I0J-1301D01*
G02X198239Y237191I-150J132D01*
G03X197392Y237504I-847J-990D01*
G03X196472Y237124I-1J-1302D01*
G02X196191Y237122I-142J141D01*
G03X195279Y237495I-912J-928D01*
G03Y234891I0J-1302D01*
G03X196199Y235271I1J1302D01*
G02X196480Y235273I142J-141D01*
G03X197392Y234900I912J928D01*
G03X198369Y235342I0J1301D01*
G02X198650Y235361I150J-132D01*
G03X199497Y235048I847J990D01*
G03X200455Y235469I-1J1302D01*
G02X200735Y235484I148J-135D01*
G03X201595Y235159I861J977D01*
G03X201960Y235211I1J1302D01*
G02X202440Y234983I112J-384D01*
G03X202696Y234592I1200J506D01*
G01Y233267D01*
G03X202961Y232630I901J1D01*
G01X205561Y230029D01*
G02X205484Y229403I-282J-283D01*
G03X204850Y228285I669J-1118D01*
G03X204930Y227834I1302J-2D01*
G02X204555Y227296I-375J-138D01*
G01X197595D01*
X196812Y226513D01*
X196187Y227139D01*
X196199Y227235D01*
G03X196208Y227392I-1293J153D01*
G03X194906Y226090I-1302J0D01*
G03X195063Y226099I4J1302D01*
G01X195159Y226111D01*
X195808Y225463D01*
Y218147D01*
X194231Y216570D01*
X190823D01*
X190779Y216594D01*
G03X190166Y216747I-612J-1149D01*
G03X189553Y216594I-1J-1302D01*
G01X189509Y216570D01*
X185972D01*
X185928Y216593D01*
G03X185320Y216744I-609J-1151D01*
G03X184712Y216593I1J-1302D01*
G01X184668Y216570D01*
X181354D01*
X181310Y216593D01*
G03X180698Y216746I-612J-1149D01*
G03X180086Y216593I0J-1302D01*
G01X180042Y216570D01*
X176569D01*
X176525Y216593D01*
G03X175917Y216744I-609J-1151D01*
G03X175309Y216593I1J-1302D01*
G01X175265Y216570D01*
X171819D01*
X171775Y216593D01*
G03X171167Y216744I-609J-1151D01*
G03X169957Y215922I0J-1302D01*
G01X169941Y215883D01*
X169840Y215782D01*
Y213049D01*
X170016Y212873D01*
X170031Y212837D01*
G03X171231Y212040I1200J505D01*
G03X171408Y212052I1J1302D01*
G01X171506Y212066D01*
X172332Y211240D01*
Y210656D01*
G03X172521Y210199I647J0D01*
G01X172626Y210094D01*
Y203061D01*
X173414Y202273D01*
Y187133D01*
X170575Y184294D01*
X143871D01*
X138089Y178512D01*
X95735D01*
G02X95452Y179195I0J400D01*
G01X105867Y189609D01*
G03X106080Y190123I-514J514D01*
G01Y192022D01*
G02X106746Y192320I400J0D01*
G03X107615Y191988I869J971D01*
G03X108917Y193290I0J1302D01*
G03X107850Y194571I-1302J0D01*
G01X107789Y194582D01*
X107604Y194767D01*
X107857Y195021D01*
X133653D01*
X142064Y203432D01*
Y212650D01*
G02X142248Y212849I200J0D01*
G03Y215445I-104J1298D01*
G02X142064Y215644I16J199D01*
G01Y223950D01*
X137188Y228826D01*
Y229497D01*
X130392Y236294D01*
X129721D01*
X129360Y236654D01*
X37476D01*
X31035Y230213D01*
Y147771D01*
X27165Y143901D01*
G02X26513Y144029I-283J282D01*
G03X25312Y144828I-1201J-503D01*
G03X24010Y143526I0J-1302D01*
G03X24809Y142325I1302J0D01*
G02X24937Y141673I-154J-369D01*
G01X18155Y134891D01*
G02X17472Y135174I-283J283D01*
G01Y138988D01*
G03X18048Y140068I-726J1081D01*
G03X17472Y141148I-1302J-1D01*
G01Y175308D01*
G02X18004Y175686I400J0D01*
G03X18431Y175614I427J1230D01*
G03Y178218I0J1302D01*
G03X18004Y178146I0J-1302D01*
G02X17472Y178524I-132J378D01*
G01Y191522D01*
G03X17260Y192036I-726J1D01*
G01X15922Y193374D01*
X15934Y193470D01*
G03X15943Y193627I-1293J153D01*
G03X15368Y194707I-1302J0D01*
G01Y228082D01*
G03X15155Y228596I-727J0D01*
G01X10148Y233603D01*
X10160Y233699D01*
G03X10169Y233856I-1293J153D01*
G03X8867Y232554I-1302J0D01*
G03X9024Y232563I4J1302D01*
G01X9120Y232575D01*
X13914Y227781D01*
Y194707D01*
G03X13339Y193627I727J-1080D01*
G03X14641Y192325I1302J0D01*
G03X14798Y192334I4J1302D01*
G01X14894Y192346D01*
X16020Y191221D01*
Y141148D01*
G03X15444Y140068I726J-1081D01*
G03X16020Y138988I1302J1D01*
G01Y90073D01*
G03X15444Y88993I726J-1081D01*
G03X16365Y87748I1302J0D01*
G01X16506Y87705D01*
Y75610D01*
G02X15942Y75245I-400J0D01*
G03X15408Y75360I-535J-1187D01*
G03Y72756I0J-1302D01*
G03X15942Y72871I-1J1302D01*
G02X16506Y72506I164J-365D01*
G01Y36242D01*
X16482Y36197D01*
G03X16322Y35573I1142J-625D01*
G03X16482Y34949I1302J1D01*
G01X16506Y34904D01*
Y32657D01*
X10994Y27146D01*
G03X10782Y26632I514J-513D01*
G01Y11440D01*
X9209Y9868D01*
X9113Y9880D01*
G03X8956Y9889I-153J-1293D01*
G03X10258Y8587I0J-1302D01*
G03X10249Y8744I-1302J4D01*
G01X10237Y8840D01*
X12022Y10625D01*
G03X12234Y11139I-514J513D01*
G01Y26331D01*
X16900Y30997D01*
X18036Y29861D01*
Y25860D01*
X30495Y13401D01*
X42839D01*
X45204Y11036D01*
Y3150D01*
X44027Y1973D01*
X1925D01*
Y238555D01*
X169394D01*
G02X169780Y238049I0J-400D01*
G03X169733Y237702I1255J-347D01*
G03X170098Y236798I1302J0D01*
G02X170133Y236283I-287J-278D01*
G03X169880Y235512I1048J-771D01*
G03X172484I1302J0D01*
G03X172119Y236416I-1302J0D01*
G02X172084Y236931I287J278D01*
G03X172337Y237702I-1048J771D01*
G03X172290Y238049I-1302J0D01*
G02X172676Y238555I386J106D01*
G01X174356D01*
G02X174735Y238026I0J-400D01*
G03X174666Y237608I1232J-418D01*
G03X174982Y236758I1301J0D01*
G02X174964Y236479I-152J-130D01*
G03X174534Y235512I872J-967D01*
G03X177138I1302J0D01*
G03X176822Y236362I-1301J0D01*
G02X176840Y236641I152J130D01*
G03X177270Y237608I-872J967D01*
G03X177201Y238026I-1301J0D01*
G02X177580Y238555I379J129D01*
G01X178941D01*
G02X179320Y238027I0J-400D01*
G03X179252Y237611I1234J-415D01*
G03X179608Y236716I1303J0D01*
G02X179603Y236437I-145J-137D01*
G03X179217Y235511I916J-925D01*
G03X181821I1302J0D01*
G03X181465Y236406I-1303J0D01*
G02X181470Y236685I145J137D01*
G03X181856Y237611I-916J925D01*
G03X181788Y238027I-1302J1D01*
G02X182167Y238555I379J128D01*
G01X183567D01*
G02X183946Y238027I0J-400D01*
G03X183877Y237609I1232J-418D01*
G03X184300Y236649I1301J0D01*
G02X184315Y236369I-135J-148D01*
G03X183993Y235512I979J-857D01*
G03X186597I1302J0D01*
G03X186174Y236472I-1301J0D01*
G02X186159Y236752I135J148D01*
G03X186481Y237609I-979J857D01*
G03X186412Y238027I-1301J0D01*
G02X186791Y238555I379J128D01*
G01X188408D01*
G02X188790Y238036I0J-400D01*
G03X188731Y237650I1243J-387D01*
G03X189111Y236730I1302J-1D01*
G02X189114Y236451I-142J-141D01*
G03X188752Y235550I940J-901D01*
G03X191356I1302J0D01*
G03X190976Y236470I-1302J1D01*
G02X190973Y236749I142J141D01*
G03X191335Y237650I-940J901D01*
G03X191276Y238036I-1302J-1D01*
G02X191658Y238555I382J119D01*
G37*
G36*
G01X36346Y135321D02*
X48937D01*
X50076Y134182D01*
Y125598D01*
X49607Y125130D01*
G03X49168Y124068I1062J-1061D01*
G01Y120570D01*
X44157Y115559D01*
Y98282D01*
X34047Y88172D01*
Y73100D01*
X40114Y67033D01*
Y45984D01*
X52246Y33852D01*
Y27328D01*
X51073Y26156D01*
X46453D01*
G02X46064Y26649I0J400D01*
G03X46100Y26954I-1266J304D01*
G03X45616Y27967I-1302J0D01*
G02X45603Y28579I251J311D01*
G03X46047Y29558I-857J979D01*
G03X44745Y30860I-1302J0D01*
G03X43688Y30318I0J-1302D01*
G02X43044Y30310I-325J233D01*
G03X42005Y30827I-1039J-786D01*
G03X40703Y29525I0J-1302D01*
G03X41132Y28559I1302J0D01*
G02X41127Y27961I-268J-297D01*
G03X40682Y26981I857J-980D01*
G03X40723Y26655I1302J-2D01*
G02X40336Y26156I-387J-99D01*
G01X39448D01*
X33680Y31923D01*
Y36336D01*
G02X33876Y36536I200J0D01*
G03X34998Y37223I-26J1302D01*
G02X35704I353J-189D01*
G03X36851Y36536I1147J614D01*
G03Y39140I0J1302D01*
G03X35704Y38453I0J-1301D01*
G02X34998I-353J189D01*
G03X33876Y39140I-1148J-615D01*
G02X33680Y39340I4J200D01*
G01Y40157D01*
G02X34046Y40556I400J0D01*
G03X35083Y41238I-110J1297D01*
G02X35789I353J-189D01*
G03X36936Y40551I1147J614D01*
G03Y43155I0J1302D01*
G03X35789Y42468I0J-1301D01*
G02X35083I-353J189D01*
G03X34046Y43150I-1147J-615D01*
G02X33680Y43549I34J399D01*
G01Y63356D01*
X26787Y70249D01*
Y95432D01*
X34875Y103520D01*
Y133850D01*
X36346Y135321D01*
G37*
G36*
G01X39557Y235792D02*
X130184D01*
X132166Y233810D01*
G02X131903Y233128I-283J-283D01*
G03X130663Y231827I63J-1301D01*
G03X131965Y230525I1302J0D01*
G03X133266Y231765I0J1303D01*
G02X133948Y232028I399J-20D01*
G01X136687Y229289D01*
Y223093D01*
G03Y221369I977J-862D01*
G01Y215492D01*
G03Y213158I577J-1167D01*
G01Y200465D01*
X133741Y197519D01*
X122484D01*
X115878Y204125D01*
X115865Y204180D01*
G03X114898Y205147I-1267J-300D01*
G01X114843Y205160D01*
X114279Y205724D01*
X90819D01*
X90361Y206182D01*
X90612Y206490D01*
G03X91325Y206278I712J1090D01*
G03X90023Y207580I0J1302D01*
G03X90025Y207506I1302J-2D01*
G02X89343Y207200I-399J-23D01*
G01X78510Y218033D01*
Y224722D01*
X78512Y224734D01*
G03X78575Y225759I-8239J1021D01*
G03X78512Y226784I-8302J4D01*
G01X78510Y226796D01*
Y227607D01*
X78322Y227795D01*
X78308Y227848D01*
G03X70273Y234061I-8035J-2089D01*
G03X65499Y232551I0J-8302D01*
G01X61362D01*
X56527Y227716D01*
X56397Y227785D01*
G03X55787Y227937I-610J-1150D01*
G03X54485Y226635I0J-1302D01*
G03X54637Y226025I1302J0D01*
G01X54706Y225895D01*
X48002Y219191D01*
Y216143D01*
G02X47803Y215943I-200J0D01*
G03X46508Y214641I7J-1302D01*
G03X46820Y213796I1302J1D01*
G02X46795Y213512I-152J-130D01*
G03X46322Y212508I829J-1004D01*
G03X47607Y211206I1302J0D01*
G02X48002Y210806I-5J-400D01*
G01Y210293D01*
G02X47622Y209893I-400J0D01*
G03Y207293I64J-1300D01*
G02X48002Y206893I-20J-400D01*
G01Y205869D01*
G02X47523Y205477I-400J0D01*
G03X47267Y205502I-254J-1277D01*
G03Y202898I0J-1302D01*
G03X47523Y202923I2J1302D01*
G02X48002Y202531I79J-392D01*
G01Y165579D01*
G02X47601Y165179I-400J0D01*
G03X46294Y163877I-5J-1302D01*
G03X47596Y162575I1302J0D01*
G03X48003Y162640I1J1302D01*
G02X48528Y162260I125J-380D01*
G01Y158700D01*
X47160Y157332D01*
X37692D01*
X36291Y158733D01*
G02X36409Y159381I283J283D01*
G03X37177Y160568I-533J1187D01*
G03X36714Y161563I-1301J0D01*
G02X36703Y162165I258J306D01*
G03X37128Y163127I-876J962D01*
G03X34524I-1302J0D01*
G03X34987Y162132I1301J0D01*
G02X34998Y161530I-258J-306D01*
G03X34688Y161102I877J-962D01*
G02X34040Y160984I-365J165D01*
G01X33905Y161119D01*
Y230140D01*
X39557Y235792D01*
G37*
G36*
G01X213746Y110201D02*
X223689D01*
X253883Y80007D01*
Y26986D01*
X246098Y19201D01*
X230020D01*
G02X229620Y19608I0J400D01*
G01Y19629D01*
G03X227016I-1302J0D01*
G01Y19608D01*
G02X226616Y19201I-400J-7D01*
G01X210840D01*
G02X210441Y19574I0J400D01*
G03X207843I-1299J-87D01*
G02X207444Y19201I-399J27D01*
G01X194443D01*
X161075Y52569D01*
X161101Y52679D01*
G03X161138Y52986I-1265J308D01*
G03X159836Y54288I-1302J0D01*
G03X159529Y54251I1J-1302D01*
G01X159419Y54225D01*
X157096Y56548D01*
X129007D01*
X126167Y59388D01*
X107441D01*
X106724Y58671D01*
X106583Y58793D01*
G03X105596Y59163I-987J-1131D01*
G03X104094Y57661I0J-1502D01*
G03X105423Y56169I1502J0D01*
G01X105600Y56148D01*
Y55270D01*
G02X105414Y55070I-200J0D01*
G03Y52074I103J-1498D01*
G02X105600Y51874I-14J-200D01*
G01Y51026D01*
G02X105407Y50826I-200J0D01*
G03Y47824I54J-1501D01*
G02X105600Y47624I-7J-200D01*
G01Y44186D01*
X95646Y34232D01*
G02X95021Y34307I-283J283D01*
G03X94799Y34591I-1285J-776D01*
G01X94273Y35116D01*
G02X94347Y35740I283J283D01*
G03X94970Y36851I-679J1111D01*
G03X93668Y38153I-1302J0D01*
G03X92557Y37530I0J-1302D01*
G02X91924Y37465I-341J208D01*
G03X90828Y37940I-1096J-1027D01*
G01X80360D01*
G03X79298Y37500I0J-1502D01*
G01X77737Y35938D01*
X73204D01*
X71798Y37344D01*
Y47059D01*
X73082Y48343D01*
X90774D01*
G02X91155Y47821I0J-400D01*
G03X91093Y47425I1240J-397D01*
G03X93697I1302J0D01*
G03X93635Y47821I-1302J-1D01*
G02X94016Y48343I381J122D01*
G01X96291D01*
X97815Y49867D01*
Y58450D01*
X97831Y58488D01*
G03X97938Y59004I-1195J517D01*
G03X97831Y59520I-1302J-1D01*
G01X97815Y59558D01*
Y66038D01*
G02X98436Y66371I400J0D01*
G03X99154Y66155I718J1085D01*
G03X100456Y67457I0J1302D01*
G03X100369Y67926I-1302J1D01*
G02X100742Y68470I373J144D01*
G01X123939D01*
G02X124240Y67806I0J-400D01*
G03X123919Y66950I981J-856D01*
G03X126523I1302J0D01*
G03X126202Y67806I-1302J0D01*
G02X126503Y68470I301J264D01*
G01X127828D01*
G03X128342Y68682I1J726D01*
G01X129569Y69910D01*
X145369D01*
X145392Y69904D01*
G03X145698Y69868I304J1266D01*
G03X146004Y69904I2J1302D01*
G01X146027Y69910D01*
X158383D01*
G02X158783Y69490I0J-400D01*
G03X158781Y69426I1300J-73D01*
G03X161385I1302J0D01*
G03X161383Y69490I-1302J-9D01*
G02X161783Y69910I400J20D01*
G01X171262D01*
X177535Y63636D01*
X177523Y63540D01*
G03X177514Y63383I1293J-153D01*
G03X178816Y62081I1302J0D01*
G03X179890Y62647I0J1302D01*
G02X180503Y62703I330J-226D01*
G01X180924Y62282D01*
Y58823D01*
G03X182175Y57572I1251J0D01*
G03X182291Y57577I4J1251D01*
G01X182385Y57586D01*
X189013Y50957D01*
X189001Y50861D01*
G03X188992Y50704I1293J-153D01*
G03X190294Y49402I1302J0D01*
G03X191595Y50659I0J1302D01*
G02X192278Y50928I400J-14D01*
G01X196131Y47075D01*
X196071Y46948D01*
G03X195947Y46394I1178J-555D01*
G03X197249Y45092I1302J0D01*
G03X197803Y45216I-1J1302D01*
G01X197930Y45276D01*
X198452Y44754D01*
Y41666D01*
G03X198526Y41346I726J-1D01*
G01X198546Y41305D01*
Y40990D01*
X198391Y40954D01*
G03X197379Y39685I290J-1269D01*
G03X197700Y38829I1302J0D01*
G02X197684Y38550I-151J-131D01*
G03X197259Y37588I876J-962D01*
G03X197594Y36716I1302J0D01*
G02X197582Y36437I-149J-133D01*
G03X197173Y35489I894J-948D01*
G03X199777I1302J0D01*
G03X199442Y36361I-1302J0D01*
G02X199454Y36640I149J133D01*
G03X199863Y37588I-894J948D01*
G03X199542Y38444I-1302J0D01*
G02X199558Y38723I151J131D01*
G03X199570Y38734I-874J965D01*
G01X199711Y38866D01*
X203556Y35021D01*
X203565Y35009D01*
G03X203831Y34743I1044J778D01*
G01X203843Y34734D01*
X205279Y33298D01*
X235157D01*
X236242Y34383D01*
X236296Y34396D01*
G03X236838Y34678I-313J1264D01*
G02X237384Y34659I263J-302D01*
G03X238307Y34275I923J917D01*
G03X239609Y35577I0J1302D01*
G03X238942Y36714I-1303J0D01*
G01X238839Y36771D01*
Y59914D01*
X235577Y63176D01*
X217587D01*
X217453Y63310D01*
X213318D01*
X211542Y65087D01*
Y77218D01*
G02X212201Y77523I400J0D01*
G03X212980Y77236I779J914D01*
G03Y79640I0J1202D01*
G03X212201Y79353I0J-1201D01*
G02X211542Y79658I-259J305D01*
G01Y81502D01*
G02X212226Y81783I400J0D01*
G03X213081Y81426I855J845D01*
G03Y83830I0J1202D01*
G03X212226Y83473I0J-1202D01*
G02X211542Y83754I-284J281D01*
G01Y85810D01*
G02X212180Y86131I400J0D01*
G03X212895Y85895I715J965D01*
G03Y88299I0J1202D01*
G03X212180Y88063I0J-1201D01*
G02X211542Y88384I-238J321D01*
G01Y107996D01*
X213746Y110201D01*
G37*
G36*
G01X213165Y162944D02*
X214023D01*
G02X214404Y162423I0J-400D01*
G03X214348Y162061I1146J-363D01*
G03X214613Y161308I1202J0D01*
G02X214604Y160796I-312J-251D01*
G03X214312Y160011I909J-785D01*
G03X214518Y159338I1202J0D01*
G02X214462Y158824I-331J-224D01*
G03X214087Y157952I826J-872D01*
G03X215289Y156750I1202J0D01*
G03X216172Y157137I0J1201D01*
G02X216682Y157202I294J-272D01*
G03X217329Y157013I647J1013D01*
G03X217538Y157031I2J1202D01*
G02X218007Y156637I69J-394D01*
G01Y153240D01*
X216501D01*
G03X215722Y152917I0J-1101D01*
G01X214522Y151717D01*
G03X214375Y151534I780J-777D01*
G02X213840Y151404I-336J217D01*
G03X213242Y151563I-597J-1043D01*
G01X213220D01*
G02X212822Y152046I-7J400D01*
G03X212848Y152295I-1176J249D01*
G03X212814Y152581I-1202J2D01*
G02X213200Y153076I388J95D01*
G03X214396Y154278I-6J1202D01*
G03X211992I-1202J0D01*
G03X212026Y153992I1202J-2D01*
G02X211640Y153497I-388J-95D01*
G03X210810Y153159I6J-1202D01*
G02X210294Y153125I-278J287D01*
G03X209577Y153362I-717J-966D01*
G03X208704Y152986I0J-1201D01*
G02X208193Y152928I-290J275D01*
G03X207530Y153127I-662J-1003D01*
G03X206746Y152836I0J-1202D01*
G02X206247Y152818I-261J303D01*
G03X205531Y153054I-715J-966D01*
G03X204776Y152787I0J-1201D01*
G02X204274I-251J311D01*
G03X203521Y153052I-753J-937D01*
G03X203404Y153046I3J-1202D01*
G02X202993Y153590I-38J398D01*
G03X203076Y154029I-1119J439D01*
G03X201874Y155231I-1202J0D01*
G03X201110Y154957I0J-1202D01*
G02X200609Y154950I-255J308D01*
G03X199869Y155205I-740J-946D01*
G03X199190Y154995I0J-1203D01*
G02X198691Y155031I-227J329D01*
G03X197874Y155352I-818J-881D01*
G03X197190Y155139I-1J-1202D01*
G02X196692Y155173I-228J329D01*
G03X195878Y155491I-814J-883D01*
G03X194980Y155088I0J-1202D01*
G02X194454Y155025I-299J266D01*
G03X193770Y155238I-683J-989D01*
G03X193086Y155024I1J-1202D01*
G02X192559Y155088I-227J329D01*
G03X191661Y155491I-898J-799D01*
G03Y153087I0J-1202D01*
G03X192345Y153301I-1J1202D01*
G02X192872Y153237I227J-329D01*
G03X194668I898J799D01*
G02X195194Y153300I299J-266D01*
G03X195878Y153087I683J989D01*
G03X196562Y153300I1J1202D01*
G02X197060Y153266I228J-329D01*
G03X197874Y152948I814J883D01*
G03X198553Y153158I0J1203D01*
G02X199052Y153122I227J-329D01*
G03X199869Y152801I818J881D01*
G03X200633Y153075I0J1202D01*
G02X201134Y153082I255J-308D01*
G03X201874Y152827I740J946D01*
G03X201991Y152833I-3J1202D01*
G02X202402Y152289I38J-398D01*
G03X202319Y151877I1119J-440D01*
G02X201909Y151486I-400J9D01*
G01X201878D01*
G03X201096Y151197I0J-1202D01*
G02X200595Y151181I-260J303D01*
G03X199871Y151423I-723J-960D01*
G03X199205Y151222I-1J-1202D01*
G02X198707Y151265I-222J333D01*
G03X197878Y151597I-829J-869D01*
G03X197107Y151318I-1J-1202D01*
G02X196608Y151307I-256J307D01*
G03X195878Y151554I-730J-955D01*
G03X195262Y151384I0J-1201D01*
G02X194767Y151452I-205J344D01*
G03X193896Y151826I-871J-827D01*
G03X192954Y151371I0J-1203D01*
G02X192396Y151303I-313J248D01*
G03X191661Y151554I-735J-951D01*
G03Y149150I0J-1202D01*
G03X192603Y149605I0J1203D01*
G02X193161Y149673I313J-248D01*
G03X193896Y149422I735J951D01*
G03X194512Y149592I0J1201D01*
G02X195007Y149524I205J-344D01*
G03X195878Y149150I871J827D01*
G03X196649Y149429I1J1202D01*
G02X197148Y149440I256J-307D01*
G03X197878Y149193I730J955D01*
G03X198544Y149394I1J1202D01*
G02X199042Y149351I222J-333D01*
G03X199871Y149019I829J869D01*
G03X200653Y149308I0J1202D01*
G02X201154Y149324I260J-303D01*
G03X201878Y149082I723J960D01*
G03X203080Y150257I0J1202D01*
G02X203490Y150648I400J-9D01*
G01X203521D01*
G03X204276Y150915I0J1201D01*
G02X204778I251J-311D01*
G03X205531Y150650I753J937D01*
G03X206315Y150941I0J1202D01*
G02X206814Y150959I261J-303D01*
G03X207530Y150723I715J966D01*
G03X208403Y151099I0J1201D01*
G02X208914Y151157I290J-275D01*
G03X209577Y150958I662J1003D01*
G03X210413Y151296I0J1203D01*
G02X210929Y151330I278J-287D01*
G03X211646Y151093I717J966D01*
G01X211668D01*
G02X212066Y150610I7J-400D01*
G03X212040Y150361I1176J-249D01*
G03X213242Y149159I1202J0D01*
G03X214092Y149511I0J1202D01*
G02X214606Y149554I282J-283D01*
G03X215301Y149333I695J982D01*
G03X215975Y149540I0J1201D01*
G02X216473Y149500I224J-331D01*
G03X217297Y149173I824J875D01*
G03X217530Y149196I-1J1202D01*
G02X218007Y148803I77J-393D01*
G01Y148078D01*
G02X217507Y147691I-400J0D01*
G03X217206Y147729I-300J-1164D01*
G03X216505Y147504I-1J-1202D01*
G02X216003Y147532I-234J325D01*
G03X215196Y147844I-808J-890D01*
G03X213994Y146642I0J-1202D01*
G03X214419Y145725I1202J0D01*
G02X214478Y145177I-259J-305D01*
G03X214230Y144446I953J-731D01*
G03X214257Y144192I1202J-1D01*
G02X213866Y143708I-391J-84D01*
G01X209104D01*
G02X208712Y144184I1J400D01*
G03X208734Y144414I-1180J229D01*
G03X208477Y145156I-1202J-1D01*
G02X208482Y145656I315J247D01*
G03X208751Y146414I-933J758D01*
G03X206347I-1202J0D01*
G03X206604Y145672I1202J1D01*
G02X206599Y145172I-315J-247D01*
G03X206330Y144414I933J-758D01*
G03X206352Y144184I1202J-1D01*
G02X205960Y143708I-393J-76D01*
G01X205185D01*
G02X204793Y144184I1J400D01*
G03X204815Y144414I-1180J229D01*
G03X204552Y145164I-1201J0D01*
G02Y145664I313J250D01*
G03X204815Y146414I-938J750D01*
G03X202411I-1202J0D01*
G03X202674Y145664I1201J0D01*
G02Y145164I-313J-250D01*
G03X202411Y144414I938J-750D01*
G03X202433Y144184I1202J-1D01*
G02X202041Y143708I-393J-76D01*
G01X201141D01*
G02X200754Y144208I0J400D01*
G03X200792Y144507I-1164J300D01*
G03X200606Y145150I-1202J1D01*
G02X200708Y145687I338J214D01*
G03X201202Y146658I-707J971D01*
G03X200000Y147860I-1202J0D01*
G03X199058Y147405I0J-1203D01*
G02X198503Y147335I-313J248D01*
G03X197775Y147580I-727J-957D01*
G03X196959Y147261I0J-1203D01*
G02X196457Y147228I-271J294D01*
G03X195762Y147449I-695J-982D01*
G03X194930Y147114I0J-1201D01*
G02X194432Y147069I-277J289D01*
G03X193770Y147268I-662J-1002D01*
G03X193125Y147080I0J-1202D01*
G02X192598Y147167I-215J338D01*
G03X191661Y147617I-938J-752D01*
G03Y145213I0J-1202D01*
G03X192306Y145401I0J1202D01*
G02X192833Y145314I215J-338D01*
G03X193770Y144864I938J752D01*
G03X194602Y145199I0J1201D01*
G02X195100Y145244I277J-289D01*
G03X195762Y145045I662J1002D01*
G03X196578Y145364I0J1203D01*
G02X197080Y145397I271J-294D01*
G03X197775Y145176I695J982D01*
G03X197954Y145189I3J1202D01*
G02X198407Y144722I60J-395D01*
G03X198388Y144507I1183J-213D01*
G03X198426Y144208I1202J1D01*
G02X198039Y143708I-387J-100D01*
G01X196167D01*
X196144Y143714D01*
G03X195855Y143749I-288J-1167D01*
G03X195566Y143714I-1J-1202D01*
G01X195543Y143708D01*
X194395D01*
G03X193672Y143950I-723J-959D01*
G03X192780Y143554I0J-1203D01*
G02X192278Y143479I-297J268D01*
G03X191661Y143649I-616J-1032D01*
G03X190459Y142447I0J-1202D01*
G03X191519Y141253I1202J0D01*
G02X191754Y140573I-47J-397D01*
G01X186536Y135355D01*
Y132598D01*
X186376Y132566D01*
G03X185415Y131388I242J-1178D01*
G03X186376Y130210I1202J0D01*
G01X186536Y130178D01*
Y103707D01*
X178573Y95744D01*
X140022D01*
G02X139721Y96407I0J400D01*
G03X140041Y97262I-982J855D01*
G03X137437I-1302J0D01*
G03X137757Y96407I1302J0D01*
G02X137456Y95744I-301J-263D01*
G01X119111D01*
X119064Y95879D01*
G03X116602I-1231J-422D01*
G01X116555Y95744D01*
X115346D01*
X115299Y95879D01*
G03X112837I-1231J-422D01*
G01X112790Y95744D01*
X101824D01*
X101780Y95767D01*
G03X101172Y95918I-609J-1151D01*
G03X100564Y95767I1J-1302D01*
G01X100520Y95744D01*
X88981D01*
X76989Y83752D01*
X76986D01*
X75082Y81848D01*
X68387D01*
X66571Y83664D01*
Y92458D01*
X70655Y96541D01*
G03X70868Y97055I-514J514D01*
G01Y100352D01*
X73259Y102744D01*
G02X73845Y102723I283J-283D01*
G03X74830Y102272I985J850D01*
G03X76132Y103574I0J1302D01*
G03X76130Y103641I-1302J-5D01*
G02X76432Y104049I400J20D01*
G03X77414Y105311I-320J1262D01*
G03X77031Y106233I-1301J0D01*
G02Y106516I141J141D01*
G01X81408Y110893D01*
X162124D01*
X167594Y116363D01*
Y128663D01*
G02X168152Y129031I400J0D01*
G03X168666Y128925I515J1196D01*
G03Y131529I0J1302D01*
G03X168152Y131423I1J-1302D01*
G02X167594Y131791I-158J368D01*
G01Y134666D01*
G02X168001Y135066I400J0D01*
G01X168024D01*
G03X169226Y136268I0J1202D01*
G03X168373Y137418I-1202J0D01*
G02X168206Y138084I116J383D01*
G01X183890Y153768D01*
X185271D01*
X189388Y157885D01*
X190355D01*
X190403Y157753D01*
G03X191532Y156963I1129J412D01*
G03X192495Y157445I0J1203D01*
G02X193068Y157516I321J-239D01*
G03X193827Y157246I759J932D01*
G03X194383Y157382I1J1202D01*
G01X194513Y157450D01*
X194772Y157191D01*
X195265D01*
X195309Y157167D01*
G03X195878Y157024I569J1059D01*
G03X196447Y157167I0J1202D01*
G01X196491Y157191D01*
X197488D01*
X197517Y157182D01*
G03X197876Y157127I359J1147D01*
G03X198577Y157353I-1J1202D01*
G02X199076Y157327I233J-325D01*
G03X199874Y157024I798J899D01*
G03X201076Y158226I0J1202D01*
G03X200739Y159061I-1203J0D01*
G02X200692Y159558I287J278D01*
G03X200889Y160218I-1005J659D01*
G03X200613Y160984I-1201J0D01*
G02X200607Y161485I309J254D01*
G03X200862Y162226I-947J740D01*
G03X200842Y162443I-1202J-1D01*
G01X200823Y162546D01*
X201221Y162944D01*
X202277D01*
G02X202671Y162474I0J-400D01*
G03X202652Y162264I1183J-213D01*
G03X205056I1202J0D01*
G03X205037Y162474I-1202J-3D01*
G02X205431Y162944I394J70D01*
G01X209567D01*
X210402Y162109D01*
X210410Y162040D01*
G03X210618Y161495I1193J143D01*
G02X210573Y160983I-328J-229D01*
G03X210221Y160134I850J-850D01*
G03X210498Y159366I1203J0D01*
G02X210507Y158867I-308J-255D01*
G03X210258Y158134I954J-733D01*
G03X212662I1202J0D01*
G03X212385Y158902I-1203J0D01*
G02X212376Y159401I308J255D01*
G03X212625Y160134I-954J733D01*
G03X212409Y160821I-1202J0D01*
G02X212454Y161333I328J229D01*
G03X212806Y162182I-850J850D01*
G03X212775Y162454I-1202J1D01*
G02X213165Y162944I390J90D01*
G37*
G36*
G01X92971Y171023D02*
X126310D01*
X130072Y167261D01*
X129941Y167119D01*
G03X129860Y167023I877J-822D01*
G02X129220I-320J240D01*
G03X127300I-960J-723D01*
G02X126660I-320J240D01*
G03X125700Y167502I-960J-723D01*
G03Y165098I0J-1202D01*
G03X126660Y165577I0J1202D01*
G02X127300I320J-240D01*
G03X129220I960J723D01*
G02X129860I320J-240D01*
G03X130323Y165206I960J723D01*
G01X130440Y165152D01*
Y161148D01*
X130323Y161094D01*
G03Y158906I496J-1094D01*
G01X130440Y158852D01*
Y135948D01*
X130323Y135894D01*
G03Y133706I496J-1094D01*
G01X130440Y133652D01*
Y133324D01*
X133401Y130363D01*
G02X133183Y129686I-283J-282D01*
G03X132420Y129223I198J-1186D01*
G02X131780I-320J240D01*
G03X130820Y129702I-960J-723D01*
G03X129860Y129223I0J-1202D01*
G02X129220I-320J240D01*
G03X127300I-960J-723D01*
G02X126660I-320J240D01*
G03X125700Y129702I-960J-723D01*
G03Y127298I0J-1202D01*
G03X126660Y127777I0J1202D01*
G02X127300I320J-240D01*
G03X129220I960J723D01*
G02X129860I320J-240D01*
G03X130820Y127298I960J723D01*
G03X131780Y127777I0J1202D01*
G02X132420I320J-240D01*
G03X133380Y127298I960J723D01*
G03X134582Y128500I0J1202D01*
G03X134494Y128951I-1202J0D01*
G02X134865Y129501I371J150D01*
G01X139419D01*
G02X139807Y129004I0J-400D01*
G03X139771Y128711I1166J-292D01*
G03X140973Y127509I1202J0D01*
G03X141933Y127987I0J1203D01*
G02X142584Y127970I319J-240D01*
G03X143582Y127438I998J670D01*
G03X144560Y127941I0J1202D01*
G02X145206Y127947I325J-233D01*
G03X146170Y127463I964J718D01*
G03X147207Y128057I0J1202D01*
G02X147877Y128088I345J-202D01*
G03X148854Y127587I977J702D01*
G03X150056Y128789I0J1202D01*
G03X150033Y129023I-1202J0D01*
G02X150425Y129501I392J78D01*
G01X153303D01*
X153991Y128813D01*
Y128458D01*
X153983Y128430D01*
G03X153932Y128085I1151J-346D01*
G03X153983Y127740I1202J1D01*
G01X153991Y127712D01*
Y126981D01*
G02X153567Y126582I-400J0D01*
G03X153489Y126584I-72J-1300D01*
G03Y123980I0J-1302D01*
G03X153751Y124007I-2J1302D01*
G01X153771Y124011D01*
X153991D01*
Y123690D01*
X152997Y122696D01*
X91977D01*
X82372Y132302D01*
Y148305D01*
X86068Y152001D01*
G03X86280Y152515I-514J513D01*
G01Y164332D01*
X92971Y171023D01*
G37*
G36*
G01X79949Y205531D02*
X89096D01*
X99606Y195021D01*
X101528D01*
Y194389D01*
X91528Y184388D01*
G02X90870Y184534I-282J283D01*
G03X90027Y185331I-1222J-449D01*
G02X89861Y185997I117J383D01*
G01X94660Y190795D01*
G03X94808Y191010I-515J513D01*
G03X95448Y192131I-662J1121D01*
G03X92844I-1302J0D01*
G03X93038Y191447I1303J0D01*
G01X93122Y191312D01*
X80322Y178512D01*
X80160D01*
X79820Y178852D01*
X79985Y179017D01*
X80015Y179032D01*
G03X80748Y180203I-569J1171D01*
G03X79446Y181505I-1302J0D01*
G03X78604Y181196I0J-1302D01*
G02X78011Y181283I-258J306D01*
G03X77076Y181864I-1090J-712D01*
G01X76900Y181885D01*
Y202482D01*
X79949Y205531D01*
G37*
G36*
G01X127028Y55081D02*
X156863D01*
G02X156802Y54288I-72J-393D01*
G03X155534Y52986I34J-1302D01*
G03X156836Y51684I1302J0D01*
G03X157983Y52371I0J1301D01*
G02X158689I353J-189D01*
G03X159836Y51684I1147J614D01*
G03X160175Y51729I0J1302D01*
G01X160286Y51759D01*
X181398Y30647D01*
Y23337D01*
X181250Y23297D01*
G03X180287Y22040I339J-1257D01*
G03X181035Y20862I1302J0D01*
G01X181066Y20847D01*
X181398Y20515D01*
Y17692D01*
X181218Y17673D01*
G03Y15083I132J-1295D01*
G01X181398Y15064D01*
Y14152D01*
X179925Y12679D01*
X169299D01*
X166354Y15624D01*
Y24041D01*
X156676Y33719D01*
X145646D01*
G03X143308I-1169J-573D01*
G01X104285D01*
X102707Y35297D01*
Y40452D01*
X104811Y42556D01*
X114503D01*
X116382Y44435D01*
X116523Y44316D01*
G03X117495Y43959I972J1145D01*
G03X118997Y45461I0J1502D01*
G03X118640Y46433I-1502J0D01*
G01X118521Y46574D01*
X127028Y55081D01*
G37*
G36*
G01X250407Y176208D02*
X261065D01*
G02X261348Y175525I0J-400D01*
G01X260357Y174534D01*
X249699D01*
G02X249417Y175217I0J400D01*
G01X250407Y176208D01*
G37*
G36*
G01X275273Y120892D02*
X277914D01*
G02X277884Y120167I-183J-356D01*
G03X277079Y118963I498J-1204D01*
G03X277127Y118611I1302J-2D01*
G01X277159Y118498D01*
X276209Y117548D01*
X275273D01*
Y120892D01*
G37*
%LPC*%
G75*
G36*
G01X34989Y3810D02*
G03X34712Y3772I-119J-161D01*
G02X33684Y3269I-1028J799D01*
G02Y5873I0J1302D01*
G02X34460Y5616I-1J-1302D01*
G03X34737Y5654I119J161D01*
G02X35765Y6157I1028J-799D01*
G02Y3553I0J-1302D01*
G02X34989Y3810I1J1302D01*
G37*
G36*
G01X4153Y45099D02*
X8421Y49367D01*
X8409Y49463D01*
G02X8400Y49620I1293J153D01*
G02X9702Y48318I1302J0D01*
G02X9545Y48327I-4J1302D01*
G01X9449Y48339D01*
X5394Y44284D01*
Y37410D01*
G03X5954Y37044I400J0D01*
G02X6478Y37154I524J-1193D01*
G02Y34550I0J-1302D01*
G02X5954Y34660I0J1303D01*
G03X5394Y34294I-160J-366D01*
G01Y9148D01*
G02X5697Y8312I-999J-835D01*
G02X3093I-1302J0D01*
G02X3828Y9484I1302J0D01*
G01X3940Y9539D01*
Y44585D01*
G02X4153Y45099I727J0D01*
G37*
G36*
G01X282707Y76096D02*
G03X282700Y76376I-146J136D01*
G02X282306Y77309I908J933D01*
G02X284910I1302J0D01*
G02X284561Y76422I-1302J0D01*
G03X284568Y76142I146J-136D01*
G02X284962Y75209I-908J-933D01*
G02X282358I-1302J0D01*
G02X282707Y76096I1302J0D01*
G37*
G36*
G01X275351Y94915D02*
G03X275347Y95478I-286J279D01*
G02X274964Y96400I918J922D01*
G02X277568I1302J0D01*
G02X277197Y95490I-1302J0D01*
G03X277201Y94927I286J-279D01*
G02X277584Y94005I-918J-922D01*
G02X274980I-1302J0D01*
G02X275351Y94915I1302J0D01*
G37*
G36*
G01X279607Y132271D02*
G03X279327Y132261I-135J-148D01*
G02X278382Y131854I-946J895D01*
G02Y134458I0J1302D01*
G02X279256Y134121I0J-1302D01*
G03X279536Y134131I135J148D01*
G02X280481Y134538I946J-895D01*
G02Y131934I0J-1302D01*
G02X279607Y132271I0J1302D01*
G37*
G36*
G01X279447Y163527D02*
G03X279170Y163561I-156J-125D01*
G02X278379Y163293I-791J1033D01*
G02Y165897I0J1302D01*
G02X279396Y165408I0J-1302D01*
G03X279673Y165374I156J125D01*
G02X280464Y165642I791J-1033D01*
G02Y163038I0J-1302D01*
G02X279447Y163527I0J1302D01*
G37*
G36*
G01X28210Y181860D02*
G03X27690Y181922I-296J-270D01*
G02X26962Y181699I-729J1079D01*
G02Y184303I0J1302D01*
G02X27923Y183879I0J-1301D01*
G03X28443Y183817I296J270D01*
G02X29171Y184040I729J-1079D01*
G02Y181436I0J-1302D01*
G02X28210Y181860I0J1301D01*
G37*
G36*
G01X27361Y232782D02*
G03X26841Y232819I-282J-284D01*
G02X26067Y232564I-774J1047D01*
G02Y235168I0J1302D01*
G02X26982Y234792I0J-1301D01*
G03X27502Y234755I282J284D01*
G02X28276Y235010I774J-1047D01*
G02Y232406I0J-1302D01*
G02X27361Y232782I0J1301D01*
G37*
G36*
G01X231931Y233318D02*
G03X231722Y233504I-199J-14D01*
G02X231662Y233503I-52J1301D01*
G02Y236107I0J1302D01*
G02X232961Y234895I0J-1302D01*
G03X233170Y234709I199J14D01*
G02X233230Y234710I52J-1301D01*
G02Y232106I0J-1302D01*
G02X231931Y233318I0J1302D01*
G37*
G36*
G01X226705Y234837D02*
G03X226910Y235027I5J200D01*
G02X228210Y236266I1300J-63D01*
G02Y233662I0J-1302D01*
G01X228176D01*
G03X227971Y233472I-5J-200D01*
G02X226671Y232233I-1300J63D01*
G02Y234837I0J1302D01*
G01X226705D01*
G37*
G36*
G01X219405Y234687D02*
G03X218843Y234747I-311J-252D01*
G02X218027Y234459I-817J1014D01*
G02Y237063I0J1302D01*
G02X219040Y236579I0J-1302D01*
G03X219602Y236519I311J252D01*
G02X220418Y236807I817J-1014D01*
G02Y234203I0J-1302D01*
G02X219405Y234687I0J1302D01*
G37*
G36*
G01X119457Y216629D02*
G03X118905Y216784I-351J-191D01*
G02X118252Y216609I-652J1127D01*
G02Y219213I0J1302D01*
G02X119396Y218532I0J-1301D01*
G03X119948Y218377I351J191D01*
G02X120601Y218552I652J-1127D01*
G02X121903Y217250I0J-1302D01*
G02X121465Y216276I-1302J0D01*
G03X121441Y215701I266J-299D01*
G02X121801Y214803I-942J-899D01*
G02X119197I-1302J0D01*
G02X119635Y215777I1302J0D01*
G03X119659Y216352I-266J299D01*
G02X119457Y216629I942J899D01*
G37*
G36*
G01X82308Y218015D02*
G03X81747Y217892I-221J-334D01*
G02X80640Y217275I-1107J685D01*
G02Y219879I0J1302D01*
G02X81358Y219663I0J-1301D01*
G03X81919Y219786I221J334D01*
G02X83026Y220403I1107J-685D01*
G02Y217799I0J-1302D01*
G02X82308Y218015I0J1301D01*
G37*
G36*
G01X126165Y221173D02*
G02X125600Y222246I736J1073D01*
G02X128204I1302J0D01*
G02X127690Y221209I-1303J0D01*
G03X127705Y220561I242J-319D01*
G02X128270Y219488I-736J-1073D01*
G02X125666I-1302J0D01*
G02X126180Y220525I1303J0D01*
G03X126165Y221173I-242J319D01*
G37*
G36*
G01X199724Y29189D02*
G03X199125Y29242I-323J-236D01*
G02X198225Y28881I-900J941D01*
G02Y31485I0J1302D01*
G02X199276Y30952I0J-1303D01*
G03X199875Y30899I323J236D01*
G02X200775Y31260I900J-941D01*
G02Y28656I0J-1302D01*
G02X199724Y29189I0J1303D01*
G37*
G36*
G01X225769Y71610D02*
G03X225237Y71639I-282J-283D01*
G02X224423Y71353I-814J1015D01*
G02Y73957I0J1302D01*
G02X225342Y73578I1J-1302D01*
G03X225874Y73549I282J283D01*
G02X226688Y73835I814J-1015D01*
G02Y71231I0J-1302D01*
G02X225769Y71610I-1J1302D01*
G37*
G36*
G01X219644Y73642D02*
G03X219629Y73922I-150J132D01*
G02X219206Y74882I878J960D01*
G02X221810I1302J0D01*
G02X221488Y74025I-1301J0D01*
G03X221503Y73745I150J-132D01*
G02X221926Y72785I-878J-960D01*
G02X219322I-1302J0D01*
G02X219644Y73642I1301J0D01*
G37*
G36*
G01X158269Y58806D02*
G02X157122Y58119I-1147J614D01*
G02Y60723I0J1302D01*
G02X158269Y60036I0J-1301D01*
G03X158975I353J189D01*
G02X160122Y60723I1147J-614D01*
G02Y58119I0J-1302D01*
G02X158975Y58806I0J1301D01*
G03X158269I-353J-189D01*
G37*
G36*
G01X228992Y79729D02*
G03X229523Y79735I262J302D01*
G02X230329Y80045I806J-893D01*
G02X231531Y78843I0J-1202D01*
G02X230995Y77842I-1203J0D01*
G03X230996Y77175I221J-333D01*
G02X231583Y76087I-715J-1088D01*
G02X228979I-1302J0D01*
G02X229604Y77199I1302J0D01*
G03X229629Y77866I-208J342D01*
G02X229541Y77936I703J974D01*
G03X229010Y77930I-262J-302D01*
G02X228204Y77620I-806J893D01*
G02Y80024I0J1202D01*
G02X228992Y79729I-1J-1202D01*
G37*
G36*
G01X206680Y158782D02*
G03X206695Y159318I-289J276D01*
G02X206406Y160100I913J782D01*
G02X208810I1202J0D01*
G02X208477Y159269I-1203J0D01*
G03X208462Y158733I289J-276D01*
G02X208751Y157951I-913J-782D01*
G02X206347I-1202J0D01*
G02X206680Y158782I1203J0D01*
G37*
G36*
G01X117060Y129223D02*
G02X118980I960J-723D01*
G03X119620I320J240D01*
G02X120580Y129702I960J-723D01*
G02Y127298I0J-1202D01*
G02X119620Y127777I0J1202D01*
G03X118980I-320J-240D01*
G02X117060I-960J723D01*
G03X116420I-320J-240D01*
G02X115460Y127298I-960J723D01*
G02Y129702I0J1202D01*
G02X116420Y129223I0J-1202D01*
G03X117060I320J240D01*
G37*
G36*
G01X111300Y134077D02*
G02X110340Y133598I-960J723D01*
G02Y136002I0J1202D01*
G02X111300Y135523I0J-1202D01*
G03X111940I320J240D01*
G02X112900Y136002I960J-723D01*
G02Y133598I0J-1202D01*
G02X111940Y134077I0J1202D01*
G03X111300I-320J-240D01*
G37*
G36*
G01X124100D02*
G02X123140Y133598I-960J723D01*
G02Y136002I0J1202D01*
G02X124100Y135523I0J-1202D01*
G03X124740I320J240D01*
G02X125700Y136002I960J-723D01*
G02Y133598I0J-1202D01*
G02X124740Y134077I0J1202D01*
G03X124100I-320J-240D01*
G37*
G36*
G01X124740Y141823D02*
G02X126660I960J-723D01*
G03X127300I320J240D01*
G02X128260Y142302I960J-723D01*
G02Y139898I0J-1202D01*
G02X127300Y140377I0J1202D01*
G03X126660I-320J-240D01*
G02X124740I-960J723D01*
G03X124100I-320J-240D01*
G02X122180I-960J723D01*
G03X121540I-320J-240D01*
G02X119620I-960J723D01*
G03X118980I-320J-240D01*
G02X117060I-960J723D01*
G03X116420I-320J-240D01*
G02X114500I-960J723D01*
G03X113860I-320J-240D01*
G02X111940I-960J723D01*
G03X111300I-320J-240D01*
G02X110340Y139898I-960J723D01*
G02Y142302I0J1202D01*
G02X111300Y141823I0J-1202D01*
G03X111940I320J240D01*
G02X113860I960J-723D01*
G03X114500I320J240D01*
G02X116420I960J-723D01*
G03X117060I320J240D01*
G02X118980I960J-723D01*
G03X119620I320J240D01*
G02X121540I960J-723D01*
G03X122180I320J240D01*
G02X124100I960J-723D01*
G03X124740I320J240D01*
G37*
G36*
G01Y154423D02*
G02X126660I960J-723D01*
G03X127300I320J240D01*
G02X128260Y154902I960J-723D01*
G02Y152498I0J-1202D01*
G02X127300Y152977I0J1202D01*
G03X126660I-320J-240D01*
G02X124740I-960J723D01*
G03X124100I-320J-240D01*
G02X122180I-960J723D01*
G03X121540I-320J-240D01*
G02X119620I-960J723D01*
G03X118980I-320J-240D01*
G02X117060I-960J723D01*
G03X116420I-320J-240D01*
G02X114500I-960J723D01*
G03X113860I-320J-240D01*
G02X111940I-960J723D01*
G03X111300I-320J-240D01*
G02X110340Y152498I-960J723D01*
G02Y154902I0J1202D01*
G02X111300Y154423I0J-1202D01*
G03X111940I320J240D01*
G02X113860I960J-723D01*
G03X114500I320J240D01*
G02X116420I960J-723D01*
G03X117060I320J240D01*
G02X118980I960J-723D01*
G03X119620I320J240D01*
G02X121540I960J-723D01*
G03X122180I320J240D01*
G02X124100I960J-723D01*
G03X124740I320J240D01*
G37*
G36*
G01X111300Y159277D02*
G02X110340Y158798I-960J723D01*
G02Y161202I0J1202D01*
G02X111300Y160723I0J-1202D01*
G03X111940I320J240D01*
G02X112900Y161202I960J-723D01*
G02Y158798I0J-1202D01*
G02X111940Y159277I0J1202D01*
G03X111300I-320J-240D01*
G37*
G36*
G01X124100D02*
G02X123140Y158798I-960J723D01*
G02Y161202I0J1202D01*
G02X124100Y160723I0J-1202D01*
G03X124740I320J240D01*
G02X125700Y161202I960J-723D01*
G02Y158798I0J-1202D01*
G02X124740Y159277I0J1202D01*
G03X124100I-320J-240D01*
G37*
G36*
G01X117060Y167023D02*
G02X118980I960J-723D01*
G03X119620I320J240D01*
G02X120580Y167502I960J-723D01*
G02Y165098I0J-1202D01*
G02X119620Y165577I0J1202D01*
G03X118980I-320J-240D01*
G02X117060I-960J723D01*
G03X116420I-320J-240D01*
G02X115460Y165098I-960J723D01*
G02Y167502I0J1202D01*
G02X116420Y167023I0J-1202D01*
G03X117060I320J240D01*
G37*
G36*
G01X113536Y35757D02*
G03X113259Y35794I-157J-123D01*
G02X112476Y35532I-783J1039D01*
G02Y38136I0J1302D01*
G02X113499Y37640I0J-1303D01*
G03X113776Y37603I157J123D01*
G02X114559Y37865I783J-1039D01*
G02X115534Y37426I0J-1302D01*
G03X115812Y37406I149J133D01*
G02X116654Y37715I842J-993D01*
G02Y35111I0J-1302D01*
G02X115679Y35550I0J1302D01*
G03X115401Y35570I-149J-133D01*
G02X114559Y35261I-842J993D01*
G02X113536Y35757I0J1303D01*
G37*
G36*
G01X158126Y36567D02*
G02X156979Y35880I-1147J614D01*
G02Y38484I0J1302D01*
G02X158126Y37797I0J-1301D01*
G03X158832I353J189D01*
G02X159979Y38484I1147J-614D01*
G02Y35880I0J-1302D01*
G02X158832Y36567I0J1301D01*
G03X158126I-353J-189D01*
G37*
G36*
G01X158054Y42932D02*
G02X156907Y42245I-1147J614D01*
G02Y44849I0J1302D01*
G02X158054Y44162I0J-1301D01*
G03X158760I353J189D01*
G02X159907Y44849I1147J-614D01*
G02Y42245I0J-1302D01*
G02X158760Y42932I0J1301D01*
G03X158054I-353J-189D01*
G37*
G54D26*
X223888Y82688D03*
X242274Y78086D03*
X234297Y80708D03*
X236115Y90376D03*
X186132Y142477D03*
X186094Y152320D03*
X211492Y146414D03*
X203414Y158267D03*
X110340Y137950D03*
X118020D03*
Y131650D03*
X128236Y131693D03*
X110340Y156850D03*
X118020D03*
Y163150D03*
G54D24*
X20189Y10646D03*
X12722Y34184D03*
X12173Y53815D03*
X9195Y67728D03*
X279789Y60027D03*
X11889Y106861D03*
X260285Y101721D03*
X276282D03*
X8926Y120520D03*
X13687Y128252D03*
X10082Y158101D03*
X7101Y171873D03*
X12945Y179859D03*
X103387Y183787D03*
X119949Y192301D03*
X116161D03*
X166979Y187813D03*
X5321Y206010D03*
X10648Y209602D03*
X7932Y223205D03*
X18262Y227622D03*
X193658Y223819D03*
X16279Y233235D03*
X107547Y209250D03*
X97962Y209134D03*
X126379Y200964D03*
X130979D03*
X89546Y228596D03*
X86459Y218843D03*
X91687Y219143D03*
X95881Y219295D03*
X100768Y219124D03*
X126679Y214372D03*
X180759Y37591D03*
X204691Y30171D03*
X231894Y28974D03*
X248065Y35784D03*
X246174Y22836D03*
X237761Y30121D03*
X251116Y35784D03*
X96151Y44159D03*
X181649Y48174D03*
X247960Y40807D03*
X251379Y40833D03*
X138108Y67004D03*
X167181Y62992D03*
X233021Y94047D03*
X147636Y102246D03*
X182151Y101801D03*
Y112716D03*
X126182Y125142D03*
X82014Y183937D03*
X172199Y17374D03*
X137009Y38348D03*
G54D25*
X40623Y8668D03*
G54D27*
X180529Y124318D03*
%LPD*%
G75*
G54D10*
X3966Y3938D03*
X2780Y21388D03*
X2875Y12662D03*
X4395Y8312D03*
X2875Y36886D03*
X6671Y42994D03*
X2780Y50248D03*
X2875Y68858D03*
Y61182D03*
X3507Y86522D03*
X2724Y80008D03*
X5037Y98680D03*
X2991Y104287D03*
X4358Y92827D03*
X6785Y113891D03*
X6837Y109581D03*
X3201Y119938D03*
X3096Y113749D03*
X5113Y142342D03*
X3201Y128578D03*
X2834Y134409D03*
X7130Y158241D03*
X5190Y150142D03*
X3254Y145868D03*
X2886Y156014D03*
X2938Y174149D03*
X2833Y163741D03*
Y189078D03*
X2938Y181509D03*
X3044Y211525D03*
Y202956D03*
X2938Y196490D03*
X3097Y220041D03*
X4463Y236809D03*
X2992Y230502D03*
X11536Y3785D03*
X20559Y3250D03*
X8037Y3884D03*
X17199Y19242D03*
X16658Y5986D03*
X8956Y8587D03*
X7605Y26849D03*
X7520Y22834D03*
X17072Y28498D03*
Y24060D03*
X17624Y35573D03*
X14682Y54046D03*
X9221Y54146D03*
X11789Y40712D03*
X9026Y41235D03*
X14289Y47142D03*
X9702Y49620D03*
X10848Y73982D03*
X11689Y86522D03*
X16746Y88993D03*
X14424Y106998D03*
X13066Y96310D03*
X11995Y122843D03*
X20567Y138723D03*
X12760Y141348D03*
X12989Y133778D03*
X7942Y130873D03*
X16746Y140068D03*
X23931Y133956D03*
X13829Y158008D03*
X12836Y149683D03*
X20231Y189219D03*
X21140Y181993D03*
X14641Y193627D03*
X12761Y208545D03*
X7934Y209594D03*
X20685Y233123D03*
X8353Y237230D03*
X8867Y233856D03*
X27277Y3463D03*
X29361Y33691D03*
X27231Y33769D03*
X37125Y86568D03*
X37330Y84368D03*
X25981Y133499D03*
X28438Y132142D03*
X28434Y129741D03*
X38162Y237597D03*
X31162D03*
X49685Y27565D03*
X49674Y29672D03*
X57952Y73958D03*
X48412Y113873D03*
X48347Y110914D03*
X48831Y132967D03*
Y130450D03*
X47614Y161713D03*
X52162Y237597D03*
X45162D03*
X75442Y38746D03*
X73436Y36836D03*
X73443Y38836D03*
X75490Y36746D03*
X73243Y46539D03*
X75404Y45829D03*
X67745Y49828D03*
X70083Y83803D03*
X67727Y83899D03*
X64364Y74131D03*
X67782Y86178D03*
X70073D03*
X62434Y107361D03*
X76112Y105311D03*
X65718Y99829D03*
X75049Y120576D03*
X71576Y209252D03*
X73180Y237756D03*
X66124D03*
X60434Y237731D03*
X93737Y33213D03*
X87224Y51397D03*
X80600Y53537D03*
X86251Y142619D03*
X86277Y140279D03*
X83989Y142593D03*
X84015Y140253D03*
X86251Y144855D03*
X83989Y144829D03*
X84241Y178896D03*
X89470Y180719D03*
X78104Y184151D03*
X87162Y237597D03*
X80162D03*
X107449Y36278D03*
X104978Y36337D03*
X96355Y50728D03*
X109159Y71684D03*
X101172Y94616D03*
X94146Y192131D03*
X110598Y201287D03*
X110721Y229407D03*
X108797Y221968D03*
X108162Y237597D03*
X101162D03*
X94162D03*
X122248Y17778D03*
X122534Y13137D03*
X122781Y70770D03*
X125700Y137950D03*
X123140Y128500D03*
X125700Y156850D03*
X123140Y166300D03*
X113116Y201746D03*
X114598Y203880D03*
X122162Y237597D03*
X115162D03*
X141737Y10048D03*
Y12731D03*
X138760Y23622D03*
X135263D03*
X144382Y24268D03*
X130578Y49888D03*
X130637Y52359D03*
X130205Y93575D03*
X146015Y131872D03*
X143713Y150811D03*
X143445Y153729D03*
X132413Y193584D03*
X133836Y199665D03*
X143162Y237597D03*
X136162D03*
X129162D03*
X157883Y9068D03*
X158405Y14515D03*
X163056Y10249D03*
X152174Y23448D03*
X160608Y23040D03*
X158576Y114646D03*
X148812Y137969D03*
X146287Y141067D03*
X148685Y131871D03*
X151435Y128722D03*
X148787Y156975D03*
X146238Y153784D03*
X148627Y163151D03*
X146391Y163146D03*
X148276Y205445D03*
X152398Y231428D03*
X157162Y237597D03*
X150162D03*
X179718Y9592D03*
X175498Y14466D03*
X177498D03*
X179627Y14492D03*
X178816Y63383D03*
X170803Y173038D03*
X180354Y164635D03*
X166007Y178093D03*
X167134Y171629D03*
X169526Y176159D03*
X178221Y167184D03*
X171168Y210964D03*
X171152Y217542D03*
X175877D03*
X180601D03*
X171231Y213342D03*
X171167Y215442D03*
X171152Y233412D03*
X175877D03*
X180601D03*
X178309Y237756D03*
X173677Y237604D03*
X164162Y237597D03*
X193681Y9523D03*
X181589Y22040D03*
X197301Y50944D03*
X197196Y53042D03*
X190294Y50704D03*
X182175Y97041D03*
X195809Y140475D03*
X195758Y138475D03*
X184208Y160605D03*
X193827Y158448D03*
X186262Y158628D03*
X183006Y163158D03*
X194961Y208731D03*
X185326Y217542D03*
X190050D03*
X194774D03*
X194906Y227392D03*
X185326Y233412D03*
X190050D03*
X194774D03*
X192790Y237120D03*
X187933Y237406D03*
X182956Y237536D03*
X212369Y37654D03*
X204609Y38181D03*
Y35787D03*
X204716Y40279D03*
X212316Y39864D03*
X213082Y80588D03*
X212980Y84845D03*
X215234Y140427D03*
X211492Y142414D03*
X207726Y140258D03*
X207772Y138258D03*
X207743Y142258D03*
X211585Y138317D03*
X203511Y140293D03*
X199911Y138455D03*
X199831Y142452D03*
X199942Y140455D03*
X203406Y142307D03*
X203700Y138301D03*
X211766Y140309D03*
X211492Y144414D03*
X203748Y160239D03*
X215225Y154345D03*
X215301Y150535D03*
X207490Y162163D03*
X211742Y164178D03*
X211604Y162182D03*
X199276Y164235D03*
X199226Y166235D03*
X207428Y164283D03*
X207533Y166347D03*
X211141Y205349D03*
X206649Y208136D03*
X203746Y228241D03*
X214998Y227887D03*
X204224Y215423D03*
X204320Y213325D03*
X199216Y234252D03*
X203598Y237589D03*
X212097Y233679D03*
X207742Y233527D03*
X212882Y236210D03*
X203640Y235489D03*
X220551Y37636D03*
X215714Y35519D03*
X220683Y39977D03*
X225287Y40318D03*
X220187Y82628D03*
X225530Y104968D03*
X216399Y105420D03*
X223317Y136552D03*
X219629Y138532D03*
X215503Y138443D03*
X219345Y140755D03*
X215517Y142407D03*
X221117Y142708D03*
X219117Y142742D03*
X223094Y138821D03*
X221307Y154493D03*
X217247Y154311D03*
X219302Y150438D03*
X221295Y150263D03*
X219216Y146385D03*
X221210Y146540D03*
X219245Y154403D03*
X221360Y158199D03*
X219360Y158176D03*
X228558Y173329D03*
X231706Y169711D03*
X219316Y164131D03*
X223141Y165894D03*
X221329Y161949D03*
X219316Y166131D03*
X215550Y162061D03*
X215544Y164132D03*
X226496Y210947D03*
X226270Y222642D03*
X222215Y223576D03*
X224230Y224303D03*
X228845Y216177D03*
X229890Y233449D03*
X224199Y233500D03*
X221471Y233417D03*
X217079Y233836D03*
X223720Y237493D03*
X230720D03*
X235983Y35660D03*
X233121Y37382D03*
X241201Y35731D03*
X243857D03*
X241319Y38248D03*
X243975D03*
X233069Y39556D03*
X241306Y40728D03*
X243936Y40596D03*
X237469Y58619D03*
X234610Y78732D03*
X243666Y123204D03*
X243424Y177936D03*
X236131Y166672D03*
X238809Y166720D03*
X245653Y173011D03*
X244859Y184603D03*
X242318Y185891D03*
X243608Y192518D03*
X243576Y190064D03*
X239803Y203406D03*
X243616Y195560D03*
X242771Y198171D03*
X240261Y198192D03*
X233264Y222850D03*
X241930Y215064D03*
X248555Y222036D03*
X242119Y228136D03*
X249119D03*
X240993Y218676D03*
X243571Y218518D03*
X237720Y237493D03*
X244720D03*
X242225Y232446D03*
X249225D03*
X263867Y88964D03*
X263835Y86095D03*
X266194Y107389D03*
X266130Y104839D03*
X256956Y106277D03*
X266972Y124618D03*
X265493Y110322D03*
X266501Y160125D03*
X251569Y151089D03*
X257279Y161591D03*
X255487Y174748D03*
X267106Y175497D03*
X259439Y161591D03*
X263364Y181860D03*
X264390Y186117D03*
Y191225D03*
X258704Y196640D03*
X263463Y196055D03*
X255313Y203077D03*
X253689Y215119D03*
X261569Y224141D03*
X250372Y237440D03*
X257372D03*
X264372D03*
X265880Y232026D03*
X270680Y5086D03*
X280162Y4704D03*
X280634Y36444D03*
X274350Y28943D03*
X273739Y44084D03*
X272974Y54254D03*
X280009Y48748D03*
X271868Y85999D03*
X274418Y85967D03*
X274417Y82397D03*
X271867Y82429D03*
X270816Y107389D03*
X270912Y104456D03*
X276282Y112745D03*
Y119044D03*
X276423Y125343D03*
X278522Y125412D03*
X278381Y118963D03*
X280482Y112784D03*
X280622Y125373D03*
X280481Y118988D03*
X278382Y112778D03*
X276427Y141091D03*
X276282Y133217D03*
X282599Y138175D03*
X268171Y141243D03*
X276282Y156839D03*
Y148965D03*
X268599Y160017D03*
X269765Y156736D03*
X267612Y156895D03*
X280571Y149085D03*
X278382Y148990D03*
X276427Y144296D03*
X278706Y144192D03*
X276282Y164713D03*
X279700Y173299D03*
X269337Y175577D03*
X273209Y181556D03*
X269024Y181380D03*
Y189952D03*
X276814Y207574D03*
X283814D03*
X268569Y224141D03*
X276814Y214574D03*
X283814D03*
X271372Y237440D03*
X277339Y237492D03*
X284339D03*
X271609Y231921D03*
X287273Y5086D03*
X285208Y28561D03*
X285897Y43931D03*
X286891Y54177D03*
X286121Y66492D03*
X286016Y59237D03*
G54D20*
G01X-512188Y-348210D02*
X-511721Y-348543D01*
X-511196Y-348743D01*
X-510730D01*
X-510263Y-348543D01*
X-509913Y-348210D01*
X-509738Y-347743D01*
X-509855Y-347276D01*
X-510146Y-346876D01*
X-510671Y-346610D01*
X-511371Y-346476D01*
X-511780Y-346210D01*
X-511955Y-345743D01*
X-511838Y-345276D01*
X-511546Y-344943D01*
X-511138Y-344743D01*
X-510730D01*
X-510321Y-344876D01*
X-509971Y-345210D01*
G01X-507388Y-348743D02*
Y-344743D01*
G01X-504938D02*
Y-348743D01*
G01Y-346743D02*
X-507388D01*
G01X-500196Y-348743D02*
X-502530D01*
Y-344743D01*
X-500196D01*
G01X-501130Y-346676D02*
X-502530D01*
G01X-495396Y-348743D02*
X-497730D01*
Y-344743D01*
X-495396D01*
G01X-496330Y-346676D02*
X-497730D01*
G01X-491763Y-344743D02*
Y-348743D01*
G01X-493105Y-344743D02*
X-490421D01*
G01X-510086Y-355983D02*
X-509616Y-356718D01*
X-508990Y-357138D01*
X-508285Y-357243D01*
X-507658Y-357138D01*
X-507031Y-356613D01*
X-506640Y-355983D01*
X-506561Y-355353D01*
X-506718Y-354618D01*
X-507266Y-354093D01*
X-507815Y-353883D01*
X-508520D01*
G01X-507815D02*
X-507345Y-353568D01*
X-506953Y-353043D01*
X-506796Y-352413D01*
X-506953Y-351783D01*
X-507345Y-351258D01*
X-508050Y-350943D01*
X-508755Y-351048D01*
X-509460Y-351468D01*
G01X-495763Y-357243D02*
X-496390Y-357138D01*
X-496938Y-356718D01*
X-497408Y-356088D01*
X-497721Y-355353D01*
X-497878Y-354513D01*
Y-353673D01*
X-497721Y-352833D01*
X-497408Y-352098D01*
X-496938Y-351468D01*
X-496390Y-351048D01*
X-495763Y-350943D01*
X-495136Y-351048D01*
X-494588Y-351468D01*
X-494118Y-352098D01*
X-493805Y-352833D01*
X-493648Y-353673D01*
Y-354513D01*
X-493805Y-355353D01*
X-494118Y-356088D01*
X-494588Y-356718D01*
X-495136Y-357138D01*
X-495763Y-357243D01*
G01X-490951D02*
Y-350943D01*
X-487975D01*
G01X-489071Y-353988D02*
X-490951D01*
G01X-476863Y-357243D02*
Y-350943D01*
X-477803Y-352203D01*
G01Y-357243D02*
X-475923D01*
G01X-472051Y-351993D02*
X-471581Y-351363D01*
X-471033Y-351048D01*
X-470406Y-350943D01*
X-469623Y-351153D01*
X-469075Y-351678D01*
X-468918Y-352308D01*
X-468996Y-352938D01*
X-469310Y-353463D01*
X-470876Y-354513D01*
X-471581Y-355248D01*
X-472051Y-356298D01*
X-472208Y-357243D01*
X-468918D01*
G01X-503963Y-329743D02*
X-504430Y-329676D01*
X-504838Y-329410D01*
X-505188Y-329010D01*
X-505421Y-328543D01*
X-505538Y-328010D01*
Y-327476D01*
X-505421Y-326943D01*
X-505188Y-326476D01*
X-504838Y-326076D01*
X-504430Y-325810D01*
X-503963Y-325743D01*
X-503496Y-325810D01*
X-503088Y-326076D01*
X-502738Y-326476D01*
X-502505Y-326943D01*
X-502388Y-327476D01*
Y-328010D01*
X-502505Y-328543D01*
X-502738Y-329010D01*
X-503088Y-329410D01*
X-503496Y-329676D01*
X-503963Y-329743D01*
G01X-500330D02*
Y-325743D01*
X-498871D01*
X-498405Y-325943D01*
X-498113Y-326210D01*
X-497996Y-326743D01*
X-498113Y-327276D01*
X-498463Y-327610D01*
X-498871Y-327810D01*
X-500330D01*
G01X-498871D02*
X-497996Y-329743D01*
G01X-490263Y-325743D02*
X-488863D01*
G01X-489563D02*
Y-329743D01*
G01X-490263D02*
X-488863D01*
G01X-486105D02*
Y-325743D01*
X-483421Y-329743D01*
Y-325743D01*
G01X-476330Y-329743D02*
Y-325743D01*
X-474930D01*
X-474463Y-325943D01*
X-474113Y-326410D01*
X-473996Y-326943D01*
X-474113Y-327476D01*
X-474405Y-327876D01*
X-474930Y-328076D01*
X-476330D01*
G01X-471821Y-329743D02*
X-470363Y-325743D01*
X-468905Y-329743D01*
G01X-469430Y-328343D02*
X-471296D01*
G01X-466730Y-329743D02*
Y-325743D01*
X-465271D01*
X-464805Y-325943D01*
X-464513Y-326210D01*
X-464396Y-326743D01*
X-464513Y-327276D01*
X-464863Y-327610D01*
X-465271Y-327810D01*
X-466730D01*
G01X-465271D02*
X-464396Y-329743D01*
G01X-460763Y-325743D02*
Y-329743D01*
G01X-462105Y-325743D02*
X-459421D01*
G01X-452913D02*
X-452096Y-329743D01*
X-451163Y-325743D01*
X-450230Y-329743D01*
X-449413Y-325743D01*
G01X-447063D02*
X-445663D01*
G01X-446363D02*
Y-329743D01*
G01X-447063D02*
X-445663D01*
G01X-441563Y-325743D02*
Y-329743D01*
G01X-442905Y-325743D02*
X-440221D01*
G01X-437988Y-329743D02*
Y-325743D01*
G01X-435538D02*
Y-329743D01*
G01Y-327743D02*
X-437988D01*
G01X-431963Y-329743D02*
X-432430Y-329676D01*
X-432838Y-329410D01*
X-433188Y-329010D01*
X-433421Y-328543D01*
X-433538Y-328010D01*
Y-327476D01*
X-433421Y-326943D01*
X-433188Y-326476D01*
X-432838Y-326076D01*
X-432430Y-325810D01*
X-431963Y-325743D01*
X-431496Y-325810D01*
X-431088Y-326076D01*
X-430738Y-326476D01*
X-430505Y-326943D01*
X-430388Y-327476D01*
Y-328010D01*
X-430505Y-328543D01*
X-430738Y-329010D01*
X-431088Y-329410D01*
X-431496Y-329676D01*
X-431963Y-329743D01*
G01X-428446Y-325743D02*
Y-328610D01*
X-428213Y-329210D01*
X-427746Y-329610D01*
X-427163Y-329743D01*
X-426580Y-329610D01*
X-426113Y-329210D01*
X-425880Y-328610D01*
Y-325743D01*
G01X-422363D02*
Y-329743D01*
G01X-423705Y-325743D02*
X-421021D01*
G01X-412763D02*
Y-329743D01*
G01X-414105Y-325743D02*
X-411421D01*
G01X-409188Y-329743D02*
Y-325743D01*
G01X-406738D02*
Y-329743D01*
G01Y-327743D02*
X-409188D01*
G01X-401996Y-329743D02*
X-404330D01*
Y-325743D01*
X-401996D01*
G01X-402930Y-327676D02*
X-404330D01*
G01X-392280Y-326076D02*
X-392630Y-325876D01*
X-393038Y-325743D01*
X-393505D01*
X-394030Y-325943D01*
X-394438Y-326276D01*
X-394730Y-326676D01*
X-394963Y-327343D01*
X-395021Y-327943D01*
X-394905Y-328543D01*
X-394730Y-328943D01*
X-394380Y-329343D01*
X-393971Y-329610D01*
X-393563Y-329743D01*
X-393155D01*
X-392746Y-329610D01*
X-392396Y-329410D01*
X-392105Y-329143D01*
G01X-388763Y-329743D02*
X-389230Y-329676D01*
X-389638Y-329410D01*
X-389988Y-329010D01*
X-390221Y-328543D01*
X-390338Y-328010D01*
Y-327476D01*
X-390221Y-326943D01*
X-389988Y-326476D01*
X-389638Y-326076D01*
X-389230Y-325810D01*
X-388763Y-325743D01*
X-388296Y-325810D01*
X-387888Y-326076D01*
X-387538Y-326476D01*
X-387305Y-326943D01*
X-387188Y-327476D01*
Y-328010D01*
X-387305Y-328543D01*
X-387538Y-329010D01*
X-387888Y-329410D01*
X-388296Y-329676D01*
X-388763Y-329743D01*
G01X-385305D02*
Y-325743D01*
X-382621Y-329743D01*
Y-325743D01*
G01X-380388Y-329210D02*
X-379921Y-329543D01*
X-379396Y-329743D01*
X-378930D01*
X-378463Y-329543D01*
X-378113Y-329210D01*
X-377938Y-328743D01*
X-378055Y-328276D01*
X-378346Y-327876D01*
X-378871Y-327610D01*
X-379571Y-327476D01*
X-379980Y-327210D01*
X-380155Y-326743D01*
X-380038Y-326276D01*
X-379746Y-325943D01*
X-379338Y-325743D01*
X-378930D01*
X-378521Y-325876D01*
X-378171Y-326210D01*
G01X-373196Y-329743D02*
X-375530D01*
Y-325743D01*
X-373196D01*
G01X-374130Y-327676D02*
X-375530D01*
G01X-370905Y-329743D02*
Y-325743D01*
X-368221Y-329743D01*
Y-325743D01*
G01X-364763D02*
Y-329743D01*
G01X-366105Y-325743D02*
X-363421D01*
G01X-355163Y-329743D02*
X-355630Y-329676D01*
X-356038Y-329410D01*
X-356388Y-329010D01*
X-356621Y-328543D01*
X-356738Y-328010D01*
Y-327476D01*
X-356621Y-326943D01*
X-356388Y-326476D01*
X-356038Y-326076D01*
X-355630Y-325810D01*
X-355163Y-325743D01*
X-354696Y-325810D01*
X-354288Y-326076D01*
X-353938Y-326476D01*
X-353705Y-326943D01*
X-353588Y-327476D01*
Y-328010D01*
X-353705Y-328543D01*
X-353938Y-329010D01*
X-354288Y-329410D01*
X-354696Y-329676D01*
X-355163Y-329743D01*
G01X-351471D02*
Y-325743D01*
X-349255D01*
G01X-350071Y-327676D02*
X-351471D01*
G01X-504305Y-337743D02*
Y-333743D01*
X-501621Y-337743D01*
Y-333743D01*
G01X-499388Y-337743D02*
X-496938Y-333743D01*
G01X-499388D02*
X-496938Y-337743D01*
G01X-494530D02*
Y-333743D01*
X-493130D01*
X-492663Y-333943D01*
X-492313Y-334410D01*
X-492196Y-334943D01*
X-492313Y-335476D01*
X-492605Y-335876D01*
X-493130Y-336076D01*
X-494530D01*
G01X-488563Y-337876D02*
X-488680Y-337810D01*
Y-337676D01*
X-488563Y-337610D01*
X-488446Y-337676D01*
Y-337810D01*
X-488563Y-337876D01*
G01X-503496Y-311610D02*
X-503263Y-311410D01*
X-503088Y-311076D01*
X-502971Y-310610D01*
X-503088Y-310210D01*
X-503321Y-309943D01*
X-503730Y-309743D01*
X-505305D01*
Y-313743D01*
X-503380D01*
X-502971Y-313476D01*
X-502738Y-313076D01*
X-502621Y-312610D01*
X-502738Y-312143D01*
X-503088Y-311743D01*
X-503496Y-311610D01*
X-505305D01*
G01X-497996Y-313743D02*
X-500330D01*
Y-309743D01*
X-497996D01*
G01X-498930Y-311676D02*
X-500330D01*
G01X-490846Y-309743D02*
Y-312610D01*
X-490613Y-313210D01*
X-490146Y-313610D01*
X-489563Y-313743D01*
X-488980Y-313610D01*
X-488513Y-313210D01*
X-488280Y-312610D01*
Y-309743D01*
G01X-485988Y-313210D02*
X-485521Y-313543D01*
X-484996Y-313743D01*
X-484530D01*
X-484063Y-313543D01*
X-483713Y-313210D01*
X-483538Y-312743D01*
X-483655Y-312276D01*
X-483946Y-311876D01*
X-484471Y-311610D01*
X-485171Y-311476D01*
X-485580Y-311210D01*
X-485755Y-310743D01*
X-485638Y-310276D01*
X-485346Y-309943D01*
X-484938Y-309743D01*
X-484530D01*
X-484121Y-309876D01*
X-483771Y-310210D01*
G01X-478796Y-313743D02*
X-481130D01*
Y-309743D01*
X-478796D01*
G01X-479730Y-311676D02*
X-481130D01*
G01X-476446Y-313743D02*
Y-309743D01*
X-475280D01*
X-474813Y-309943D01*
X-474463Y-310210D01*
X-474171Y-310610D01*
X-473938Y-311076D01*
X-473880Y-311743D01*
X-473938Y-312410D01*
X-474171Y-312876D01*
X-474463Y-313276D01*
X-474813Y-313543D01*
X-475280Y-313743D01*
X-476446D01*
G01X-466671D02*
Y-309743D01*
X-464455D01*
G01X-465271Y-311676D02*
X-466671D01*
G01X-460763Y-313743D02*
X-461230Y-313676D01*
X-461638Y-313410D01*
X-461988Y-313010D01*
X-462221Y-312543D01*
X-462338Y-312010D01*
Y-311476D01*
X-462221Y-310943D01*
X-461988Y-310476D01*
X-461638Y-310076D01*
X-461230Y-309810D01*
X-460763Y-309743D01*
X-460296Y-309810D01*
X-459888Y-310076D01*
X-459538Y-310476D01*
X-459305Y-310943D01*
X-459188Y-311476D01*
Y-312010D01*
X-459305Y-312543D01*
X-459538Y-313010D01*
X-459888Y-313410D01*
X-460296Y-313676D01*
X-460763Y-313743D01*
G01X-457130D02*
Y-309743D01*
X-455671D01*
X-455205Y-309943D01*
X-454913Y-310210D01*
X-454796Y-310743D01*
X-454913Y-311276D01*
X-455263Y-311610D01*
X-455671Y-311810D01*
X-457130D01*
G01X-455671D02*
X-454796Y-313743D01*
G01X-445196D02*
X-447530D01*
Y-309743D01*
X-445196D01*
G01X-446130Y-311676D02*
X-447530D01*
G01X-442905Y-313743D02*
Y-309743D01*
X-440221Y-313743D01*
Y-309743D01*
G01X-436413Y-311743D02*
X-435246D01*
Y-312943D01*
X-435596Y-313343D01*
X-436005Y-313610D01*
X-436588Y-313743D01*
X-437171Y-313610D01*
X-437580Y-313343D01*
X-437930Y-312943D01*
X-438163Y-312476D01*
X-438280Y-311943D01*
Y-311476D01*
X-438163Y-311076D01*
X-437930Y-310610D01*
X-437580Y-310210D01*
X-437230Y-309943D01*
X-436763Y-309743D01*
X-436355D01*
X-435888Y-309876D01*
X-435538Y-310143D01*
G01X-432663Y-309743D02*
X-431263D01*
G01X-431963D02*
Y-313743D01*
G01X-432663D02*
X-431263D01*
G01X-428505D02*
Y-309743D01*
X-425821Y-313743D01*
Y-309743D01*
G01X-421196Y-313743D02*
X-423530D01*
Y-309743D01*
X-421196D01*
G01X-422130Y-311676D02*
X-423530D01*
G01X-416396Y-313743D02*
X-418730D01*
Y-309743D01*
X-416396D01*
G01X-417330Y-311676D02*
X-418730D01*
G01X-413930Y-313743D02*
Y-309743D01*
X-412471D01*
X-412005Y-309943D01*
X-411713Y-310210D01*
X-411596Y-310743D01*
X-411713Y-311276D01*
X-412063Y-311610D01*
X-412471Y-311810D01*
X-413930D01*
G01X-412471D02*
X-411596Y-313743D01*
G01X-408663Y-309743D02*
X-407263D01*
G01X-407963D02*
Y-313743D01*
G01X-408663D02*
X-407263D01*
G01X-404505D02*
Y-309743D01*
X-401821Y-313743D01*
Y-309743D01*
G01X-398013Y-311743D02*
X-396846D01*
Y-312943D01*
X-397196Y-313343D01*
X-397605Y-313610D01*
X-398188Y-313743D01*
X-398771Y-313610D01*
X-399180Y-313343D01*
X-399530Y-312943D01*
X-399763Y-312476D01*
X-399880Y-311943D01*
Y-311476D01*
X-399763Y-311076D01*
X-399530Y-310610D01*
X-399180Y-310210D01*
X-398830Y-309943D01*
X-398363Y-309743D01*
X-397955D01*
X-397488Y-309876D01*
X-397138Y-310143D01*
G01X-390046Y-313743D02*
Y-309743D01*
X-388880D01*
X-388413Y-309943D01*
X-388063Y-310210D01*
X-387771Y-310610D01*
X-387538Y-311076D01*
X-387480Y-311743D01*
X-387538Y-312410D01*
X-387771Y-312876D01*
X-388063Y-313276D01*
X-388413Y-313543D01*
X-388880Y-313743D01*
X-390046D01*
G01X-382796D02*
X-385130D01*
Y-309743D01*
X-382796D01*
G01X-383730Y-311676D02*
X-385130D01*
G01X-380388Y-313210D02*
X-379921Y-313543D01*
X-379396Y-313743D01*
X-378930D01*
X-378463Y-313543D01*
X-378113Y-313210D01*
X-377938Y-312743D01*
X-378055Y-312276D01*
X-378346Y-311876D01*
X-378871Y-311610D01*
X-379571Y-311476D01*
X-379980Y-311210D01*
X-380155Y-310743D01*
X-380038Y-310276D01*
X-379746Y-309943D01*
X-379338Y-309743D01*
X-378930D01*
X-378521Y-309876D01*
X-378171Y-310210D01*
G01X-375063Y-309743D02*
X-373663D01*
G01X-374363D02*
Y-313743D01*
G01X-375063D02*
X-373663D01*
G01X-369213Y-311743D02*
X-368046D01*
Y-312943D01*
X-368396Y-313343D01*
X-368805Y-313610D01*
X-369388Y-313743D01*
X-369971Y-313610D01*
X-370380Y-313343D01*
X-370730Y-312943D01*
X-370963Y-312476D01*
X-371080Y-311943D01*
Y-311476D01*
X-370963Y-311076D01*
X-370730Y-310610D01*
X-370380Y-310210D01*
X-370030Y-309943D01*
X-369563Y-309743D01*
X-369155D01*
X-368688Y-309876D01*
X-368338Y-310143D01*
G01X-366105Y-313743D02*
Y-309743D01*
X-363421Y-313743D01*
Y-309743D01*
G01X-505130Y-321743D02*
Y-317743D01*
X-503730D01*
X-503263Y-317943D01*
X-502913Y-318410D01*
X-502796Y-318943D01*
X-502913Y-319476D01*
X-503205Y-319876D01*
X-503730Y-320076D01*
X-505130D01*
G01X-500330Y-321743D02*
Y-317743D01*
X-498871D01*
X-498405Y-317943D01*
X-498113Y-318210D01*
X-497996Y-318743D01*
X-498113Y-319276D01*
X-498463Y-319610D01*
X-498871Y-319810D01*
X-500330D01*
G01X-498871D02*
X-497996Y-321743D01*
G01X-494363D02*
X-494830Y-321676D01*
X-495238Y-321410D01*
X-495588Y-321010D01*
X-495821Y-320543D01*
X-495938Y-320010D01*
Y-319476D01*
X-495821Y-318943D01*
X-495588Y-318476D01*
X-495238Y-318076D01*
X-494830Y-317810D01*
X-494363Y-317743D01*
X-493896Y-317810D01*
X-493488Y-318076D01*
X-493138Y-318476D01*
X-492905Y-318943D01*
X-492788Y-319476D01*
Y-320010D01*
X-492905Y-320543D01*
X-493138Y-321010D01*
X-493488Y-321410D01*
X-493896Y-321676D01*
X-494363Y-321743D01*
G01X-488280Y-318076D02*
X-488630Y-317876D01*
X-489038Y-317743D01*
X-489505D01*
X-490030Y-317943D01*
X-490438Y-318276D01*
X-490730Y-318676D01*
X-490963Y-319343D01*
X-491021Y-319943D01*
X-490905Y-320543D01*
X-490730Y-320943D01*
X-490380Y-321343D01*
X-489971Y-321610D01*
X-489563Y-321743D01*
X-489155D01*
X-488746Y-321610D01*
X-488396Y-321410D01*
X-488105Y-321143D01*
G01X-486046Y-317743D02*
Y-320610D01*
X-485813Y-321210D01*
X-485346Y-321610D01*
X-484763Y-321743D01*
X-484180Y-321610D01*
X-483713Y-321210D01*
X-483480Y-320610D01*
Y-317743D01*
G01X-481130Y-321743D02*
Y-317743D01*
X-479671D01*
X-479205Y-317943D01*
X-478913Y-318210D01*
X-478796Y-318743D01*
X-478913Y-319276D01*
X-479263Y-319610D01*
X-479671Y-319810D01*
X-481130D01*
G01X-479671D02*
X-478796Y-321743D01*
G01X-473996D02*
X-476330D01*
Y-317743D01*
X-473996D01*
G01X-474930Y-319676D02*
X-476330D01*
G01X-471880Y-321743D02*
Y-317743D01*
X-470363Y-321076D01*
X-468846Y-317743D01*
Y-321743D01*
G01X-464396D02*
X-466730D01*
Y-317743D01*
X-464396D01*
G01X-465330Y-319676D02*
X-466730D01*
G01X-462105Y-321743D02*
Y-317743D01*
X-459421Y-321743D01*
Y-317743D01*
G01X-455963D02*
Y-321743D01*
G01X-457305Y-317743D02*
X-454621D01*
G01X-446363Y-321743D02*
X-446830Y-321676D01*
X-447238Y-321410D01*
X-447588Y-321010D01*
X-447821Y-320543D01*
X-447938Y-320010D01*
Y-319476D01*
X-447821Y-318943D01*
X-447588Y-318476D01*
X-447238Y-318076D01*
X-446830Y-317810D01*
X-446363Y-317743D01*
X-445896Y-317810D01*
X-445488Y-318076D01*
X-445138Y-318476D01*
X-444905Y-318943D01*
X-444788Y-319476D01*
Y-320010D01*
X-444905Y-320543D01*
X-445138Y-321010D01*
X-445488Y-321410D01*
X-445896Y-321676D01*
X-446363Y-321743D01*
G01X-442730D02*
Y-317743D01*
X-441271D01*
X-440805Y-317943D01*
X-440513Y-318210D01*
X-440396Y-318743D01*
X-440513Y-319276D01*
X-440863Y-319610D01*
X-441271Y-319810D01*
X-442730D01*
G01X-441271D02*
X-440396Y-321743D01*
G01X-433480D02*
Y-317743D01*
X-431963Y-321076D01*
X-430446Y-317743D01*
Y-321743D01*
G01X-428621D02*
X-427163Y-317743D01*
X-425705Y-321743D01*
G01X-426230Y-320343D02*
X-428096D01*
G01X-423705Y-321743D02*
Y-317743D01*
X-421021Y-321743D01*
Y-317743D01*
G01X-418846D02*
Y-320610D01*
X-418613Y-321210D01*
X-418146Y-321610D01*
X-417563Y-321743D01*
X-416980Y-321610D01*
X-416513Y-321210D01*
X-416280Y-320610D01*
Y-317743D01*
G01X-413871Y-321743D02*
Y-317743D01*
X-411655D01*
G01X-412471Y-319676D02*
X-413871D01*
G01X-409421Y-321743D02*
X-407963Y-317743D01*
X-406505Y-321743D01*
G01X-407030Y-320343D02*
X-408896D01*
G01X-401880Y-318076D02*
X-402230Y-317876D01*
X-402638Y-317743D01*
X-403105D01*
X-403630Y-317943D01*
X-404038Y-318276D01*
X-404330Y-318676D01*
X-404563Y-319343D01*
X-404621Y-319943D01*
X-404505Y-320543D01*
X-404330Y-320943D01*
X-403980Y-321343D01*
X-403571Y-321610D01*
X-403163Y-321743D01*
X-402755D01*
X-402346Y-321610D01*
X-401996Y-321410D01*
X-401705Y-321143D01*
G01X-398363Y-317743D02*
Y-321743D01*
G01X-399705Y-317743D02*
X-397021D01*
G01X-394846D02*
Y-320610D01*
X-394613Y-321210D01*
X-394146Y-321610D01*
X-393563Y-321743D01*
X-392980Y-321610D01*
X-392513Y-321210D01*
X-392280Y-320610D01*
Y-317743D01*
G01X-389930Y-321743D02*
Y-317743D01*
X-388471D01*
X-388005Y-317943D01*
X-387713Y-318210D01*
X-387596Y-318743D01*
X-387713Y-319276D01*
X-388063Y-319610D01*
X-388471Y-319810D01*
X-389930D01*
G01X-388471D02*
X-387596Y-321743D01*
G01X-382796D02*
X-385130D01*
Y-317743D01*
X-382796D01*
G01X-383730Y-319676D02*
X-385130D01*
G01X-375063Y-317743D02*
X-373663D01*
G01X-374363D02*
Y-321743D01*
G01X-375063D02*
X-373663D01*
G01X-370905D02*
Y-317743D01*
X-368221Y-321743D01*
Y-317743D01*
G01X-361713D02*
X-360896Y-321743D01*
X-359963Y-317743D01*
X-359030Y-321743D01*
X-358213Y-317743D01*
G01X-356388Y-321743D02*
Y-317743D01*
G01X-353938D02*
Y-321743D01*
G01Y-319743D02*
X-356388D01*
G01X-350363Y-321743D02*
X-350830Y-321676D01*
X-351238Y-321410D01*
X-351588Y-321010D01*
X-351821Y-320543D01*
X-351938Y-320010D01*
Y-319476D01*
X-351821Y-318943D01*
X-351588Y-318476D01*
X-351238Y-318076D01*
X-350830Y-317810D01*
X-350363Y-317743D01*
X-349896Y-317810D01*
X-349488Y-318076D01*
X-349138Y-318476D01*
X-348905Y-318943D01*
X-348788Y-319476D01*
Y-320010D01*
X-348905Y-320543D01*
X-349138Y-321010D01*
X-349488Y-321410D01*
X-349896Y-321676D01*
X-350363Y-321743D01*
G01X-346730Y-317743D02*
Y-321743D01*
X-344396D01*
G01X-339596D02*
X-341930D01*
Y-317743D01*
X-339596D01*
G01X-340530Y-319676D02*
X-341930D01*
G01X-504963Y-293743D02*
Y-297743D01*
G01X-506305Y-293743D02*
X-503621D01*
G01X-501388Y-297743D02*
Y-293743D01*
G01X-498938D02*
Y-297743D01*
G01Y-295743D02*
X-501388D01*
G01X-496063Y-293743D02*
X-494663D01*
G01X-495363D02*
Y-297743D01*
G01X-496063D02*
X-494663D01*
G01X-491788Y-297210D02*
X-491321Y-297543D01*
X-490796Y-297743D01*
X-490330D01*
X-489863Y-297543D01*
X-489513Y-297210D01*
X-489338Y-296743D01*
X-489455Y-296276D01*
X-489746Y-295876D01*
X-490271Y-295610D01*
X-490971Y-295476D01*
X-491380Y-295210D01*
X-491555Y-294743D01*
X-491438Y-294276D01*
X-491146Y-293943D01*
X-490738Y-293743D01*
X-490330D01*
X-489921Y-293876D01*
X-489571Y-294210D01*
G01X-482246Y-297743D02*
Y-293743D01*
X-481080D01*
X-480613Y-293943D01*
X-480263Y-294210D01*
X-479971Y-294610D01*
X-479738Y-295076D01*
X-479680Y-295743D01*
X-479738Y-296410D01*
X-479971Y-296876D01*
X-480263Y-297276D01*
X-480613Y-297543D01*
X-481080Y-297743D01*
X-482246D01*
G01X-476163D02*
X-476630Y-297676D01*
X-477038Y-297410D01*
X-477388Y-297010D01*
X-477621Y-296543D01*
X-477738Y-296010D01*
Y-295476D01*
X-477621Y-294943D01*
X-477388Y-294476D01*
X-477038Y-294076D01*
X-476630Y-293810D01*
X-476163Y-293743D01*
X-475696Y-293810D01*
X-475288Y-294076D01*
X-474938Y-294476D01*
X-474705Y-294943D01*
X-474588Y-295476D01*
Y-296010D01*
X-474705Y-296543D01*
X-474938Y-297010D01*
X-475288Y-297410D01*
X-475696Y-297676D01*
X-476163Y-297743D01*
G01X-470080Y-294076D02*
X-470430Y-293876D01*
X-470838Y-293743D01*
X-471305D01*
X-471830Y-293943D01*
X-472238Y-294276D01*
X-472530Y-294676D01*
X-472763Y-295343D01*
X-472821Y-295943D01*
X-472705Y-296543D01*
X-472530Y-296943D01*
X-472180Y-297343D01*
X-471771Y-297610D01*
X-471363Y-297743D01*
X-470955D01*
X-470546Y-297610D01*
X-470196Y-297410D01*
X-469905Y-297143D01*
G01X-467846Y-293743D02*
Y-296610D01*
X-467613Y-297210D01*
X-467146Y-297610D01*
X-466563Y-297743D01*
X-465980Y-297610D01*
X-465513Y-297210D01*
X-465280Y-296610D01*
Y-293743D01*
G01X-463280Y-297743D02*
Y-293743D01*
X-461763Y-297076D01*
X-460246Y-293743D01*
Y-297743D01*
G01X-455796D02*
X-458130D01*
Y-293743D01*
X-455796D01*
G01X-456730Y-295676D02*
X-458130D01*
G01X-453505Y-297743D02*
Y-293743D01*
X-450821Y-297743D01*
Y-293743D01*
G01X-447363D02*
Y-297743D01*
G01X-448705Y-293743D02*
X-446021D01*
G01X-436480Y-294076D02*
X-436830Y-293876D01*
X-437238Y-293743D01*
X-437705D01*
X-438230Y-293943D01*
X-438638Y-294276D01*
X-438930Y-294676D01*
X-439163Y-295343D01*
X-439221Y-295943D01*
X-439105Y-296543D01*
X-438930Y-296943D01*
X-438580Y-297343D01*
X-438171Y-297610D01*
X-437763Y-297743D01*
X-437355D01*
X-436946Y-297610D01*
X-436596Y-297410D01*
X-436305Y-297143D01*
G01X-432963Y-297743D02*
X-433430Y-297676D01*
X-433838Y-297410D01*
X-434188Y-297010D01*
X-434421Y-296543D01*
X-434538Y-296010D01*
Y-295476D01*
X-434421Y-294943D01*
X-434188Y-294476D01*
X-433838Y-294076D01*
X-433430Y-293810D01*
X-432963Y-293743D01*
X-432496Y-293810D01*
X-432088Y-294076D01*
X-431738Y-294476D01*
X-431505Y-294943D01*
X-431388Y-295476D01*
Y-296010D01*
X-431505Y-296543D01*
X-431738Y-297010D01*
X-432088Y-297410D01*
X-432496Y-297676D01*
X-432963Y-297743D01*
G01X-429505D02*
Y-293743D01*
X-426821Y-297743D01*
Y-293743D01*
G01X-423363D02*
Y-297743D01*
G01X-424705Y-293743D02*
X-422021D01*
G01X-420021Y-297743D02*
X-418563Y-293743D01*
X-417105Y-297743D01*
G01X-417630Y-296343D02*
X-419496D01*
G01X-414463Y-293743D02*
X-413063D01*
G01X-413763D02*
Y-297743D01*
G01X-414463D02*
X-413063D01*
G01X-410305D02*
Y-293743D01*
X-407621Y-297743D01*
Y-293743D01*
G01X-405388Y-297210D02*
X-404921Y-297543D01*
X-404396Y-297743D01*
X-403930D01*
X-403463Y-297543D01*
X-403113Y-297210D01*
X-402938Y-296743D01*
X-403055Y-296276D01*
X-403346Y-295876D01*
X-403871Y-295610D01*
X-404571Y-295476D01*
X-404980Y-295210D01*
X-405155Y-294743D01*
X-405038Y-294276D01*
X-404746Y-293943D01*
X-404338Y-293743D01*
X-403930D01*
X-403521Y-293876D01*
X-403171Y-294210D01*
G01X-395263Y-293743D02*
X-393863D01*
G01X-394563D02*
Y-297743D01*
G01X-395263D02*
X-393863D01*
G01X-391105D02*
Y-293743D01*
X-388421Y-297743D01*
Y-293743D01*
G01X-386071Y-297743D02*
Y-293743D01*
X-383855D01*
G01X-384671Y-295676D02*
X-386071D01*
G01X-380163Y-297743D02*
X-380630Y-297676D01*
X-381038Y-297410D01*
X-381388Y-297010D01*
X-381621Y-296543D01*
X-381738Y-296010D01*
Y-295476D01*
X-381621Y-294943D01*
X-381388Y-294476D01*
X-381038Y-294076D01*
X-380630Y-293810D01*
X-380163Y-293743D01*
X-379696Y-293810D01*
X-379288Y-294076D01*
X-378938Y-294476D01*
X-378705Y-294943D01*
X-378588Y-295476D01*
Y-296010D01*
X-378705Y-296543D01*
X-378938Y-297010D01*
X-379288Y-297410D01*
X-379696Y-297676D01*
X-380163Y-297743D01*
G01X-376530D02*
Y-293743D01*
X-375071D01*
X-374605Y-293943D01*
X-374313Y-294210D01*
X-374196Y-294743D01*
X-374313Y-295276D01*
X-374663Y-295610D01*
X-375071Y-295810D01*
X-376530D01*
G01X-375071D02*
X-374196Y-297743D01*
G01X-372080D02*
Y-293743D01*
X-370563Y-297076D01*
X-369046Y-293743D01*
Y-297743D01*
G01X-367221D02*
X-365763Y-293743D01*
X-364305Y-297743D01*
G01X-364830Y-296343D02*
X-366696D01*
G01X-360963Y-293743D02*
Y-297743D01*
G01X-362305Y-293743D02*
X-359621D01*
G01X-356863D02*
X-355463D01*
G01X-356163D02*
Y-297743D01*
G01X-356863D02*
X-355463D01*
G01X-351363D02*
X-351830Y-297676D01*
X-352238Y-297410D01*
X-352588Y-297010D01*
X-352821Y-296543D01*
X-352938Y-296010D01*
Y-295476D01*
X-352821Y-294943D01*
X-352588Y-294476D01*
X-352238Y-294076D01*
X-351830Y-293810D01*
X-351363Y-293743D01*
X-350896Y-293810D01*
X-350488Y-294076D01*
X-350138Y-294476D01*
X-349905Y-294943D01*
X-349788Y-295476D01*
Y-296010D01*
X-349905Y-296543D01*
X-350138Y-297010D01*
X-350488Y-297410D01*
X-350896Y-297676D01*
X-351363Y-297743D01*
G01X-347905D02*
Y-293743D01*
X-345221Y-297743D01*
Y-293743D01*
G01X-505130Y-305743D02*
Y-301743D01*
X-503730D01*
X-503263Y-301943D01*
X-502913Y-302410D01*
X-502796Y-302943D01*
X-502913Y-303476D01*
X-503205Y-303876D01*
X-503730Y-304076D01*
X-505130D01*
G01X-500330Y-305743D02*
Y-301743D01*
X-498871D01*
X-498405Y-301943D01*
X-498113Y-302210D01*
X-497996Y-302743D01*
X-498113Y-303276D01*
X-498463Y-303610D01*
X-498871Y-303810D01*
X-500330D01*
G01X-498871D02*
X-497996Y-305743D01*
G01X-494363D02*
X-494830Y-305676D01*
X-495238Y-305410D01*
X-495588Y-305010D01*
X-495821Y-304543D01*
X-495938Y-304010D01*
Y-303476D01*
X-495821Y-302943D01*
X-495588Y-302476D01*
X-495238Y-302076D01*
X-494830Y-301810D01*
X-494363Y-301743D01*
X-493896Y-301810D01*
X-493488Y-302076D01*
X-493138Y-302476D01*
X-492905Y-302943D01*
X-492788Y-303476D01*
Y-304010D01*
X-492905Y-304543D01*
X-493138Y-305010D01*
X-493488Y-305410D01*
X-493896Y-305676D01*
X-494363Y-305743D01*
G01X-490730D02*
Y-301743D01*
X-489330D01*
X-488863Y-301943D01*
X-488513Y-302410D01*
X-488396Y-302943D01*
X-488513Y-303476D01*
X-488805Y-303876D01*
X-489330Y-304076D01*
X-490730D01*
G01X-485930Y-305743D02*
Y-301743D01*
X-484471D01*
X-484005Y-301943D01*
X-483713Y-302210D01*
X-483596Y-302743D01*
X-483713Y-303276D01*
X-484063Y-303610D01*
X-484471Y-303810D01*
X-485930D01*
G01X-484471D02*
X-483596Y-305743D01*
G01X-480663Y-301743D02*
X-479263D01*
G01X-479963D02*
Y-305743D01*
G01X-480663D02*
X-479263D01*
G01X-473996D02*
X-476330D01*
Y-301743D01*
X-473996D01*
G01X-474930Y-303676D02*
X-476330D01*
G01X-470363Y-301743D02*
Y-305743D01*
G01X-471705Y-301743D02*
X-469021D01*
G01X-467021Y-305743D02*
X-465563Y-301743D01*
X-464105Y-305743D01*
G01X-464630Y-304343D02*
X-466496D01*
G01X-461930Y-305743D02*
Y-301743D01*
X-460471D01*
X-460005Y-301943D01*
X-459713Y-302210D01*
X-459596Y-302743D01*
X-459713Y-303276D01*
X-460063Y-303610D01*
X-460471Y-303810D01*
X-461930D01*
G01X-460471D02*
X-459596Y-305743D01*
G01X-455963D02*
Y-303943D01*
X-457130Y-301743D01*
G01X-454796D02*
X-455963Y-303943D01*
G01X-446363Y-301743D02*
Y-305743D01*
G01X-447705Y-301743D02*
X-445021D01*
G01X-441563Y-305743D02*
X-442030Y-305676D01*
X-442438Y-305410D01*
X-442788Y-305010D01*
X-443021Y-304543D01*
X-443138Y-304010D01*
Y-303476D01*
X-443021Y-302943D01*
X-442788Y-302476D01*
X-442438Y-302076D01*
X-442030Y-301810D01*
X-441563Y-301743D01*
X-441096Y-301810D01*
X-440688Y-302076D01*
X-440338Y-302476D01*
X-440105Y-302943D01*
X-439988Y-303476D01*
Y-304010D01*
X-440105Y-304543D01*
X-440338Y-305010D01*
X-440688Y-305410D01*
X-441096Y-305676D01*
X-441563Y-305743D01*
G01X-433305D02*
Y-301743D01*
X-430621Y-305743D01*
Y-301743D01*
G01X-428388Y-305743D02*
X-425938Y-301743D01*
G01X-428388D02*
X-425938Y-305743D01*
G01X-423530D02*
Y-301743D01*
X-422130D01*
X-421663Y-301943D01*
X-421313Y-302410D01*
X-421196Y-302943D01*
X-421313Y-303476D01*
X-421605Y-303876D01*
X-422130Y-304076D01*
X-423530D01*
G01X-414221Y-305743D02*
X-412763Y-301743D01*
X-411305Y-305743D01*
G01X-411830Y-304343D02*
X-413696D01*
G01X-409305Y-305743D02*
Y-301743D01*
X-406621Y-305743D01*
Y-301743D01*
G01X-404446Y-305743D02*
Y-301743D01*
X-403280D01*
X-402813Y-301943D01*
X-402463Y-302210D01*
X-402171Y-302610D01*
X-401938Y-303076D01*
X-401880Y-303743D01*
X-401938Y-304410D01*
X-402171Y-304876D01*
X-402463Y-305276D01*
X-402813Y-305543D01*
X-403280Y-305743D01*
X-404446D01*
G01X-394788Y-305210D02*
X-394321Y-305543D01*
X-393796Y-305743D01*
X-393330D01*
X-392863Y-305543D01*
X-392513Y-305210D01*
X-392338Y-304743D01*
X-392455Y-304276D01*
X-392746Y-303876D01*
X-393271Y-303610D01*
X-393971Y-303476D01*
X-394380Y-303210D01*
X-394555Y-302743D01*
X-394438Y-302276D01*
X-394146Y-301943D01*
X-393738Y-301743D01*
X-393330D01*
X-392921Y-301876D01*
X-392571Y-302210D01*
G01X-389988Y-305743D02*
Y-301743D01*
G01X-387538D02*
Y-305743D01*
G01Y-303743D02*
X-389988D01*
G01X-385421Y-305743D02*
X-383963Y-301743D01*
X-382505Y-305743D01*
G01X-383030Y-304343D02*
X-384896D01*
G01X-380330Y-301743D02*
Y-305743D01*
X-377996D01*
G01X-375530Y-301743D02*
Y-305743D01*
X-373196D01*
G01X-366105D02*
Y-301743D01*
X-363421Y-305743D01*
Y-301743D01*
G01X-359963Y-305743D02*
X-360430Y-305676D01*
X-360838Y-305410D01*
X-361188Y-305010D01*
X-361421Y-304543D01*
X-361538Y-304010D01*
Y-303476D01*
X-361421Y-302943D01*
X-361188Y-302476D01*
X-360838Y-302076D01*
X-360430Y-301810D01*
X-359963Y-301743D01*
X-359496Y-301810D01*
X-359088Y-302076D01*
X-358738Y-302476D01*
X-358505Y-302943D01*
X-358388Y-303476D01*
Y-304010D01*
X-358505Y-304543D01*
X-358738Y-305010D01*
X-359088Y-305410D01*
X-359496Y-305676D01*
X-359963Y-305743D01*
G01X-355163Y-301743D02*
Y-305743D01*
G01X-356505Y-301743D02*
X-353821D01*
G01X-512071Y-279076D02*
X-511663Y-278610D01*
X-511313Y-278343D01*
X-510846Y-278210D01*
X-510438Y-278343D01*
X-510146Y-278610D01*
X-509913Y-279010D01*
X-509855Y-279476D01*
X-509913Y-279876D01*
X-510146Y-280276D01*
X-510496Y-280610D01*
X-510905Y-280743D01*
X-511371Y-280610D01*
X-511780Y-280210D01*
X-512013Y-279610D01*
X-512071Y-278943D01*
X-511955Y-278076D01*
X-511780Y-277610D01*
X-511488Y-277143D01*
X-511080Y-276810D01*
X-510671Y-276743D01*
X-510263Y-276876D01*
X-509971Y-277210D01*
G01X-507446Y-280143D02*
X-507096Y-280476D01*
X-506688Y-280676D01*
X-506163Y-280743D01*
X-505638Y-280610D01*
X-505230Y-280343D01*
X-504938Y-279876D01*
X-504880Y-279343D01*
X-504996Y-278810D01*
X-505288Y-278476D01*
X-505696Y-278210D01*
X-506105Y-278143D01*
X-506513Y-278210D01*
X-507038Y-278476D01*
X-506863Y-276743D01*
X-505288D01*
G01X-501363D02*
X-501830Y-276876D01*
X-502180Y-277210D01*
X-502413Y-277610D01*
X-502588Y-278143D01*
X-502646Y-278743D01*
X-502588Y-279343D01*
X-502413Y-279876D01*
X-502180Y-280276D01*
X-501830Y-280610D01*
X-501363Y-280743D01*
X-500896Y-280610D01*
X-500546Y-280276D01*
X-500313Y-279876D01*
X-500138Y-279343D01*
X-500080Y-278743D01*
X-500138Y-278143D01*
X-500313Y-277610D01*
X-500546Y-277210D01*
X-500896Y-276876D01*
X-501363Y-276743D01*
G01X-496563Y-280743D02*
Y-276743D01*
X-497263Y-277543D01*
G01Y-280743D02*
X-495863D01*
G01X-488713Y-276743D02*
X-487896Y-280743D01*
X-486963Y-276743D01*
X-486030Y-280743D01*
X-485213Y-276743D01*
G01X-482863D02*
X-481463D01*
G01X-482163D02*
Y-280743D01*
G01X-482863D02*
X-481463D01*
G01X-478530Y-276743D02*
Y-280743D01*
X-476196D01*
G01X-473730Y-276743D02*
Y-280743D01*
X-471396D01*
G01X-468463Y-276743D02*
X-467063D01*
G01X-467763D02*
Y-280743D01*
G01X-468463D02*
X-467063D01*
G01X-464421D02*
X-462963Y-276743D01*
X-461505Y-280743D01*
G01X-462030Y-279343D02*
X-463896D01*
G01X-459680Y-280743D02*
Y-276743D01*
X-458163Y-280076D01*
X-456646Y-276743D01*
Y-280743D01*
G01X-447280Y-277076D02*
X-447630Y-276876D01*
X-448038Y-276743D01*
X-448505D01*
X-449030Y-276943D01*
X-449438Y-277276D01*
X-449730Y-277676D01*
X-449963Y-278343D01*
X-450021Y-278943D01*
X-449905Y-279543D01*
X-449730Y-279943D01*
X-449380Y-280343D01*
X-448971Y-280610D01*
X-448563Y-280743D01*
X-448155D01*
X-447746Y-280610D01*
X-447396Y-280410D01*
X-447105Y-280143D01*
G01X-445221Y-280743D02*
X-443763Y-276743D01*
X-442305Y-280743D01*
G01X-442830Y-279343D02*
X-444696D01*
G01X-440305Y-280743D02*
Y-276743D01*
X-437621Y-280743D01*
Y-276743D01*
G01X-435505Y-280743D02*
Y-276743D01*
X-432821Y-280743D01*
Y-276743D01*
G01X-429363Y-280743D02*
X-429830Y-280676D01*
X-430238Y-280410D01*
X-430588Y-280010D01*
X-430821Y-279543D01*
X-430938Y-279010D01*
Y-278476D01*
X-430821Y-277943D01*
X-430588Y-277476D01*
X-430238Y-277076D01*
X-429830Y-276810D01*
X-429363Y-276743D01*
X-428896Y-276810D01*
X-428488Y-277076D01*
X-428138Y-277476D01*
X-427905Y-277943D01*
X-427788Y-278476D01*
Y-279010D01*
X-427905Y-279543D01*
X-428138Y-280010D01*
X-428488Y-280410D01*
X-428896Y-280676D01*
X-429363Y-280743D01*
G01X-425905D02*
Y-276743D01*
X-423221Y-280743D01*
Y-276743D01*
G01X-416246Y-280743D02*
Y-276743D01*
X-415080D01*
X-414613Y-276943D01*
X-414263Y-277210D01*
X-413971Y-277610D01*
X-413738Y-278076D01*
X-413680Y-278743D01*
X-413738Y-279410D01*
X-413971Y-279876D01*
X-414263Y-280276D01*
X-414613Y-280543D01*
X-415080Y-280743D01*
X-416246D01*
G01X-411330D02*
Y-276743D01*
X-409871D01*
X-409405Y-276943D01*
X-409113Y-277210D01*
X-408996Y-277743D01*
X-409113Y-278276D01*
X-409463Y-278610D01*
X-409871Y-278810D01*
X-411330D01*
G01X-409871D02*
X-408996Y-280743D01*
G01X-406063Y-276743D02*
X-404663D01*
G01X-405363D02*
Y-280743D01*
G01X-406063D02*
X-404663D01*
G01X-402021Y-276743D02*
X-400563Y-280743D01*
X-399105Y-276743D01*
G01X-394596Y-280743D02*
X-396930D01*
Y-276743D01*
X-394596D01*
G01X-395530Y-278676D02*
X-396930D01*
G01X-387913Y-276743D02*
X-387096Y-280743D01*
X-386163Y-276743D01*
X-385230Y-280743D01*
X-384413Y-276743D01*
G01X-380196Y-280743D02*
X-382530D01*
Y-276743D01*
X-380196D01*
G01X-381130Y-278676D02*
X-382530D01*
G01X-377788Y-280210D02*
X-377321Y-280543D01*
X-376796Y-280743D01*
X-376330D01*
X-375863Y-280543D01*
X-375513Y-280210D01*
X-375338Y-279743D01*
X-375455Y-279276D01*
X-375746Y-278876D01*
X-376271Y-278610D01*
X-376971Y-278476D01*
X-377380Y-278210D01*
X-377555Y-277743D01*
X-377438Y-277276D01*
X-377146Y-276943D01*
X-376738Y-276743D01*
X-376330D01*
X-375921Y-276876D01*
X-375571Y-277210D01*
G01X-371763Y-276743D02*
Y-280743D01*
G01X-373105Y-276743D02*
X-370421D01*
G01X-512421Y-287743D02*
X-510963Y-283743D01*
X-509505Y-287743D01*
G01X-510030Y-286343D02*
X-511896D01*
G01X-507446Y-283743D02*
Y-286610D01*
X-507213Y-287210D01*
X-506746Y-287610D01*
X-506163Y-287743D01*
X-505580Y-287610D01*
X-505113Y-287210D01*
X-504880Y-286610D01*
Y-283743D01*
G01X-502588Y-287210D02*
X-502121Y-287543D01*
X-501596Y-287743D01*
X-501130D01*
X-500663Y-287543D01*
X-500313Y-287210D01*
X-500138Y-286743D01*
X-500255Y-286276D01*
X-500546Y-285876D01*
X-501071Y-285610D01*
X-501771Y-285476D01*
X-502180Y-285210D01*
X-502355Y-284743D01*
X-502238Y-284276D01*
X-501946Y-283943D01*
X-501538Y-283743D01*
X-501130D01*
X-500721Y-283876D01*
X-500371Y-284210D01*
G01X-496563Y-283743D02*
Y-287743D01*
G01X-497905Y-283743D02*
X-495221D01*
G01X-492463D02*
X-491063D01*
G01X-491763D02*
Y-287743D01*
G01X-492463D02*
X-491063D01*
G01X-488305D02*
Y-283743D01*
X-485621Y-287743D01*
Y-283743D01*
G01X-482163Y-287876D02*
X-482280Y-287810D01*
Y-287676D01*
X-482163Y-287610D01*
X-482046Y-287676D01*
Y-287810D01*
X-482163Y-287876D01*
G01X-472563Y-283743D02*
Y-287743D01*
G01X-473905Y-283743D02*
X-471221D01*
G01X-466596Y-287743D02*
X-468930D01*
Y-283743D01*
X-466596D01*
G01X-467530Y-285676D02*
X-468930D01*
G01X-464188Y-287743D02*
X-461738Y-283743D01*
G01X-464188D02*
X-461738Y-287743D01*
G01X-459621D02*
X-458163Y-283743D01*
X-456705Y-287743D01*
G01X-457230Y-286343D02*
X-459096D01*
G01X-454588Y-287210D02*
X-454121Y-287543D01*
X-453596Y-287743D01*
X-453130D01*
X-452663Y-287543D01*
X-452313Y-287210D01*
X-452138Y-286743D01*
X-452255Y-286276D01*
X-452546Y-285876D01*
X-453071Y-285610D01*
X-453771Y-285476D01*
X-454180Y-285210D01*
X-454355Y-284743D01*
X-454238Y-284276D01*
X-453946Y-283943D01*
X-453538Y-283743D01*
X-453130D01*
X-452721Y-283876D01*
X-452371Y-284210D01*
G01X-443880Y-287743D02*
X-443763Y-286876D01*
X-443588Y-286143D01*
X-443355Y-285476D01*
X-443063Y-284743D01*
X-442596Y-283743D01*
X-444930D01*
G01X-438963Y-287743D02*
X-438555Y-287676D01*
X-438088Y-287476D01*
X-437796Y-287143D01*
X-437680Y-286676D01*
X-437796Y-286210D01*
X-438146Y-285810D01*
X-438671Y-285610D01*
X-439255D01*
X-439605Y-285476D01*
X-439896Y-285143D01*
X-440013Y-284676D01*
X-439838Y-284210D01*
X-439430Y-283876D01*
X-438963Y-283743D01*
X-438496Y-283876D01*
X-438088Y-284210D01*
X-437913Y-284676D01*
X-438030Y-285143D01*
X-438321Y-285476D01*
X-438671Y-285610D01*
X-439255D01*
X-439780Y-285810D01*
X-440130Y-286210D01*
X-440246Y-286676D01*
X-440130Y-287143D01*
X-439838Y-287476D01*
X-439371Y-287676D01*
X-438963Y-287743D01*
G01X-434280D02*
X-434163Y-286876D01*
X-433988Y-286143D01*
X-433755Y-285476D01*
X-433463Y-284743D01*
X-432996Y-283743D01*
X-435330D01*
G01X-430646Y-286943D02*
X-430296Y-287410D01*
X-429830Y-287676D01*
X-429305Y-287743D01*
X-428838Y-287676D01*
X-428371Y-287343D01*
X-428080Y-286943D01*
X-428021Y-286543D01*
X-428138Y-286076D01*
X-428546Y-285743D01*
X-428955Y-285610D01*
X-429480D01*
G01X-428955D02*
X-428605Y-285410D01*
X-428313Y-285076D01*
X-428196Y-284676D01*
X-428313Y-284276D01*
X-428605Y-283943D01*
X-429130Y-283743D01*
X-429655Y-283810D01*
X-430180Y-284076D01*
G01X-425846Y-287143D02*
X-425496Y-287476D01*
X-425088Y-287676D01*
X-424563Y-287743D01*
X-424038Y-287610D01*
X-423630Y-287343D01*
X-423338Y-286876D01*
X-423280Y-286343D01*
X-423396Y-285810D01*
X-423688Y-285476D01*
X-424096Y-285210D01*
X-424505Y-285143D01*
X-424913Y-285210D01*
X-425438Y-285476D01*
X-425263Y-283743D01*
X-423688D01*
G01X-416246D02*
Y-286610D01*
X-416013Y-287210D01*
X-415546Y-287610D01*
X-414963Y-287743D01*
X-414380Y-287610D01*
X-413913Y-287210D01*
X-413680Y-286610D01*
Y-283743D01*
G01X-411388Y-287210D02*
X-410921Y-287543D01*
X-410396Y-287743D01*
X-409930D01*
X-409463Y-287543D01*
X-409113Y-287210D01*
X-408938Y-286743D01*
X-409055Y-286276D01*
X-409346Y-285876D01*
X-409871Y-285610D01*
X-410571Y-285476D01*
X-410980Y-285210D01*
X-411155Y-284743D01*
X-411038Y-284276D01*
X-410746Y-283943D01*
X-410338Y-283743D01*
X-409930D01*
X-409521Y-283876D01*
X-409171Y-284210D01*
G01X-406821Y-287743D02*
X-405363Y-283743D01*
X-403905Y-287743D01*
G01X-404430Y-286343D02*
X-406296D01*
G01X-509560Y-271743D02*
Y-264243D01*
X-505266Y-271743D01*
Y-264243D01*
G01X-501873Y-271743D02*
X-497953Y-264243D01*
G01X-501873D02*
X-497953Y-271743D01*
G01X-494280D02*
Y-264243D01*
X-492040D01*
X-491293Y-264618D01*
X-490733Y-265493D01*
X-490546Y-266493D01*
X-490733Y-267493D01*
X-491200Y-268243D01*
X-492040Y-268618D01*
X-494280D01*
G01X-479373Y-270743D02*
X-478626Y-271368D01*
X-477786Y-271743D01*
X-477040D01*
X-476293Y-271368D01*
X-475733Y-270743D01*
X-475453Y-269868D01*
X-475640Y-268993D01*
X-476106Y-268243D01*
X-476946Y-267743D01*
X-478066Y-267493D01*
X-478720Y-266993D01*
X-479000Y-266118D01*
X-478813Y-265243D01*
X-478346Y-264618D01*
X-477693Y-264243D01*
X-477040D01*
X-476386Y-264493D01*
X-475826Y-265118D01*
G01X-468046Y-271743D02*
X-471780D01*
Y-264243D01*
X-468046D01*
G01X-469540Y-267868D02*
X-471780D01*
G01X-464840Y-271743D02*
Y-264243D01*
X-462413Y-270493D01*
X-459986Y-264243D01*
Y-271743D01*
G01X-456033Y-264243D02*
X-453793D01*
G01X-454913D02*
Y-271743D01*
G01X-456033D02*
X-453793D01*
G01X-445360Y-264868D02*
X-445920Y-264493D01*
X-446573Y-264243D01*
X-447320D01*
X-448160Y-264618D01*
X-448813Y-265243D01*
X-449280Y-265993D01*
X-449653Y-267243D01*
X-449746Y-268368D01*
X-449560Y-269493D01*
X-449280Y-270243D01*
X-448720Y-270993D01*
X-448066Y-271493D01*
X-447413Y-271743D01*
X-446760D01*
X-446106Y-271493D01*
X-445546Y-271118D01*
X-445080Y-270618D01*
G01X-439913Y-271743D02*
X-440660Y-271618D01*
X-441313Y-271118D01*
X-441873Y-270368D01*
X-442246Y-269493D01*
X-442433Y-268493D01*
Y-267493D01*
X-442246Y-266493D01*
X-441873Y-265618D01*
X-441313Y-264868D01*
X-440660Y-264368D01*
X-439913Y-264243D01*
X-439166Y-264368D01*
X-438513Y-264868D01*
X-437953Y-265618D01*
X-437580Y-266493D01*
X-437393Y-267493D01*
Y-268493D01*
X-437580Y-269493D01*
X-437953Y-270368D01*
X-438513Y-271118D01*
X-439166Y-271618D01*
X-439913Y-271743D01*
G01X-434560D02*
Y-264243D01*
X-430266Y-271743D01*
Y-264243D01*
G01X-426966Y-271743D02*
Y-264243D01*
X-425100D01*
X-424353Y-264618D01*
X-423793Y-265118D01*
X-423326Y-265868D01*
X-422953Y-266743D01*
X-422860Y-267993D01*
X-422953Y-269243D01*
X-423326Y-270118D01*
X-423793Y-270868D01*
X-424353Y-271368D01*
X-425100Y-271743D01*
X-426966D01*
G01X-419466Y-264243D02*
Y-269618D01*
X-419093Y-270743D01*
X-418346Y-271493D01*
X-417413Y-271743D01*
X-416480Y-271493D01*
X-415733Y-270743D01*
X-415360Y-269618D01*
Y-264243D01*
G01X-407860Y-264868D02*
X-408420Y-264493D01*
X-409073Y-264243D01*
X-409820D01*
X-410660Y-264618D01*
X-411313Y-265243D01*
X-411780Y-265993D01*
X-412153Y-267243D01*
X-412246Y-268368D01*
X-412060Y-269493D01*
X-411780Y-270243D01*
X-411220Y-270993D01*
X-410566Y-271493D01*
X-409913Y-271743D01*
X-409260D01*
X-408606Y-271493D01*
X-408046Y-271118D01*
X-407580Y-270618D01*
G01X-402413Y-264243D02*
Y-271743D01*
G01X-404560Y-264243D02*
X-400266D01*
G01X-394913Y-271743D02*
X-395660Y-271618D01*
X-396313Y-271118D01*
X-396873Y-270368D01*
X-397246Y-269493D01*
X-397433Y-268493D01*
Y-267493D01*
X-397246Y-266493D01*
X-396873Y-265618D01*
X-396313Y-264868D01*
X-395660Y-264368D01*
X-394913Y-264243D01*
X-394166Y-264368D01*
X-393513Y-264868D01*
X-392953Y-265618D01*
X-392580Y-266493D01*
X-392393Y-267493D01*
Y-268493D01*
X-392580Y-269493D01*
X-392953Y-270368D01*
X-393513Y-271118D01*
X-394166Y-271618D01*
X-394913Y-271743D01*
G01X-389280D02*
Y-264243D01*
X-386946D01*
X-386200Y-264618D01*
X-385733Y-265118D01*
X-385546Y-266118D01*
X-385733Y-267118D01*
X-386293Y-267743D01*
X-386946Y-268118D01*
X-389280D01*
G01X-386946D02*
X-385546Y-271743D01*
G01X-381873Y-270743D02*
X-381126Y-271368D01*
X-380286Y-271743D01*
X-379540D01*
X-378793Y-271368D01*
X-378233Y-270743D01*
X-377953Y-269868D01*
X-378140Y-268993D01*
X-378606Y-268243D01*
X-379446Y-267743D01*
X-380566Y-267493D01*
X-381220Y-266993D01*
X-381500Y-266118D01*
X-381313Y-265243D01*
X-380846Y-264618D01*
X-380193Y-264243D01*
X-379540D01*
X-378886Y-264493D01*
X-378326Y-265118D01*
G01X-462071Y-348743D02*
Y-344743D01*
X-459855D01*
G01X-460671Y-346676D02*
X-462071D01*
G01X-456863Y-344743D02*
X-455463D01*
G01X-456163D02*
Y-348743D01*
G01X-456863D02*
X-455463D01*
G01X-452530Y-344743D02*
Y-348743D01*
X-450196D01*
G01X-448080D02*
Y-344743D01*
X-446563Y-348076D01*
X-445046Y-344743D01*
Y-348743D01*
G01X-439930Y-350943D02*
Y-357243D01*
X-436796D01*
G01X-433786Y-355983D02*
X-433316Y-356718D01*
X-432690Y-357138D01*
X-431985Y-357243D01*
X-431358Y-357138D01*
X-430731Y-356613D01*
X-430340Y-355983D01*
X-430261Y-355353D01*
X-430418Y-354618D01*
X-430966Y-354093D01*
X-431515Y-353883D01*
X-432220D01*
G01X-431515D02*
X-431045Y-353568D01*
X-430653Y-353043D01*
X-430496Y-352413D01*
X-430653Y-351783D01*
X-431045Y-351258D01*
X-431750Y-350943D01*
X-432455Y-351048D01*
X-433160Y-351468D01*
G01X-428113Y-359343D02*
X-423413D01*
G01X-420403Y-350943D02*
X-418523D01*
G01X-419463D02*
Y-357243D01*
G01X-420403D02*
X-418523D01*
G01X-414965D02*
Y-350943D01*
X-411361Y-357243D01*
Y-350943D01*
G01X-406863Y-357243D02*
Y-350943D01*
X-407803Y-352203D01*
G01Y-357243D02*
X-405923D01*
G01X-335071Y-353410D02*
X-334721Y-353010D01*
X-334313Y-352810D01*
X-333846Y-352743D01*
X-333263Y-352876D01*
X-332855Y-353210D01*
X-332738Y-353610D01*
X-332796Y-354010D01*
X-333030Y-354343D01*
X-334196Y-355010D01*
X-334721Y-355476D01*
X-335071Y-356143D01*
X-335188Y-356743D01*
X-332738D01*
G01X-328463D02*
Y-352743D01*
X-330621Y-355610D01*
X-327705D01*
G01X-325121Y-355410D02*
X-323605D01*
G01X-319563Y-352743D02*
X-320030Y-352876D01*
X-320380Y-353210D01*
X-320613Y-353610D01*
X-320788Y-354143D01*
X-320846Y-354743D01*
X-320788Y-355343D01*
X-320613Y-355876D01*
X-320380Y-356276D01*
X-320030Y-356610D01*
X-319563Y-356743D01*
X-319096Y-356610D01*
X-318746Y-356276D01*
X-318513Y-355876D01*
X-318338Y-355343D01*
X-318280Y-354743D01*
X-318338Y-354143D01*
X-318513Y-353610D01*
X-318746Y-353210D01*
X-319096Y-352876D01*
X-319563Y-352743D01*
G01X-314063Y-356743D02*
Y-352743D01*
X-316221Y-355610D01*
X-313305D01*
G01X-310721Y-355410D02*
X-309205D01*
G01X-306271Y-353410D02*
X-305921Y-353010D01*
X-305513Y-352810D01*
X-305046Y-352743D01*
X-304463Y-352876D01*
X-304055Y-353210D01*
X-303938Y-353610D01*
X-303996Y-354010D01*
X-304230Y-354343D01*
X-305396Y-355010D01*
X-305921Y-355476D01*
X-306271Y-356143D01*
X-306388Y-356743D01*
X-303938D01*
G01X-299663D02*
Y-352743D01*
X-301821Y-355610D01*
X-298905D01*
G01X-337246Y-348743D02*
Y-344743D01*
X-336080D01*
X-335613Y-344943D01*
X-335263Y-345210D01*
X-334971Y-345610D01*
X-334738Y-346076D01*
X-334680Y-346743D01*
X-334738Y-347410D01*
X-334971Y-347876D01*
X-335263Y-348276D01*
X-335613Y-348543D01*
X-336080Y-348743D01*
X-337246D01*
G01X-332621D02*
X-331163Y-344743D01*
X-329705Y-348743D01*
G01X-330230Y-347343D02*
X-332096D01*
G01X-326363Y-344743D02*
Y-348743D01*
G01X-327705Y-344743D02*
X-325021D01*
G01X-320396Y-348743D02*
X-322730D01*
Y-344743D01*
X-320396D01*
G01X-321330Y-346676D02*
X-322730D01*
G01X-327713Y-334576D02*
X-324213D01*
G01X-322913D02*
X-319413D01*
G01X-318113D02*
X-314613D01*
G01X-305480Y-329576D02*
X-305830Y-329376D01*
X-306238Y-329243D01*
X-306705D01*
X-307230Y-329443D01*
X-307638Y-329776D01*
X-307930Y-330176D01*
X-308163Y-330843D01*
X-308221Y-331443D01*
X-308105Y-332043D01*
X-307930Y-332443D01*
X-307580Y-332843D01*
X-307171Y-333110D01*
X-306763Y-333243D01*
X-306355D01*
X-305946Y-333110D01*
X-305596Y-332910D01*
X-305305Y-332643D01*
G01X-301963Y-333243D02*
X-302430Y-333176D01*
X-302838Y-332910D01*
X-303188Y-332510D01*
X-303421Y-332043D01*
X-303538Y-331510D01*
Y-330976D01*
X-303421Y-330443D01*
X-303188Y-329976D01*
X-302838Y-329576D01*
X-302430Y-329310D01*
X-301963Y-329243D01*
X-301496Y-329310D01*
X-301088Y-329576D01*
X-300738Y-329976D01*
X-300505Y-330443D01*
X-300388Y-330976D01*
Y-331510D01*
X-300505Y-332043D01*
X-300738Y-332510D01*
X-301088Y-332910D01*
X-301496Y-333176D01*
X-301963Y-333243D01*
G01X-298680D02*
Y-329243D01*
X-297163Y-332576D01*
X-295646Y-329243D01*
Y-333243D01*
G01X-293530D02*
Y-329243D01*
X-292130D01*
X-291663Y-329443D01*
X-291313Y-329910D01*
X-291196Y-330443D01*
X-291313Y-330976D01*
X-291605Y-331376D01*
X-292130Y-331576D01*
X-293530D01*
G01X-289021Y-333243D02*
X-287563Y-329243D01*
X-286105Y-333243D01*
G01X-286630Y-331843D02*
X-288496D01*
G01X-284105Y-333243D02*
Y-329243D01*
X-281421Y-333243D01*
Y-329243D01*
G01X-277963Y-333243D02*
Y-331443D01*
X-279130Y-329243D01*
G01X-276796D02*
X-277963Y-331443D01*
G01X-267080Y-329576D02*
X-267430Y-329376D01*
X-267838Y-329243D01*
X-268305D01*
X-268830Y-329443D01*
X-269238Y-329776D01*
X-269530Y-330176D01*
X-269763Y-330843D01*
X-269821Y-331443D01*
X-269705Y-332043D01*
X-269530Y-332443D01*
X-269180Y-332843D01*
X-268771Y-333110D01*
X-268363Y-333243D01*
X-267955D01*
X-267546Y-333110D01*
X-267196Y-332910D01*
X-266905Y-332643D01*
G01X-263563Y-333243D02*
X-264030Y-333176D01*
X-264438Y-332910D01*
X-264788Y-332510D01*
X-265021Y-332043D01*
X-265138Y-331510D01*
Y-330976D01*
X-265021Y-330443D01*
X-264788Y-329976D01*
X-264438Y-329576D01*
X-264030Y-329310D01*
X-263563Y-329243D01*
X-263096Y-329310D01*
X-262688Y-329576D01*
X-262338Y-329976D01*
X-262105Y-330443D01*
X-261988Y-330976D01*
Y-331510D01*
X-262105Y-332043D01*
X-262338Y-332510D01*
X-262688Y-332910D01*
X-263096Y-333176D01*
X-263563Y-333243D01*
G01X-260105D02*
Y-329243D01*
X-257421Y-333243D01*
Y-329243D01*
G01X-255071Y-333243D02*
Y-329243D01*
X-252855D01*
G01X-253671Y-331176D02*
X-255071D01*
G01X-249863Y-329243D02*
X-248463D01*
G01X-249163D02*
Y-333243D01*
G01X-249863D02*
X-248463D01*
G01X-245646D02*
Y-329243D01*
X-244480D01*
X-244013Y-329443D01*
X-243663Y-329710D01*
X-243371Y-330110D01*
X-243138Y-330576D01*
X-243080Y-331243D01*
X-243138Y-331910D01*
X-243371Y-332376D01*
X-243663Y-332776D01*
X-244013Y-333043D01*
X-244480Y-333243D01*
X-245646D01*
G01X-238396D02*
X-240730D01*
Y-329243D01*
X-238396D01*
G01X-239330Y-331176D02*
X-240730D01*
G01X-236105Y-333243D02*
Y-329243D01*
X-233421Y-333243D01*
Y-329243D01*
G01X-229963D02*
Y-333243D01*
G01X-231305Y-329243D02*
X-228621D01*
G01X-225863D02*
X-224463D01*
G01X-225163D02*
Y-333243D01*
G01X-225863D02*
X-224463D01*
G01X-221821D02*
X-220363Y-329243D01*
X-218905Y-333243D01*
G01X-219430Y-331843D02*
X-221296D01*
G01X-216730Y-329243D02*
Y-333243D01*
X-214396D01*
G01X-327713Y-318076D02*
X-324213D01*
G01X-322913D02*
X-319413D01*
G01X-318113D02*
X-314613D01*
G01X-305480Y-313076D02*
X-305830Y-312876D01*
X-306238Y-312743D01*
X-306705D01*
X-307230Y-312943D01*
X-307638Y-313276D01*
X-307930Y-313676D01*
X-308163Y-314343D01*
X-308221Y-314943D01*
X-308105Y-315543D01*
X-307930Y-315943D01*
X-307580Y-316343D01*
X-307171Y-316610D01*
X-306763Y-316743D01*
X-306355D01*
X-305946Y-316610D01*
X-305596Y-316410D01*
X-305305Y-316143D01*
G01X-301963Y-316743D02*
X-302430Y-316676D01*
X-302838Y-316410D01*
X-303188Y-316010D01*
X-303421Y-315543D01*
X-303538Y-315010D01*
Y-314476D01*
X-303421Y-313943D01*
X-303188Y-313476D01*
X-302838Y-313076D01*
X-302430Y-312810D01*
X-301963Y-312743D01*
X-301496Y-312810D01*
X-301088Y-313076D01*
X-300738Y-313476D01*
X-300505Y-313943D01*
X-300388Y-314476D01*
Y-315010D01*
X-300505Y-315543D01*
X-300738Y-316010D01*
X-301088Y-316410D01*
X-301496Y-316676D01*
X-301963Y-316743D01*
G01X-298680D02*
Y-312743D01*
X-297163Y-316076D01*
X-295646Y-312743D01*
Y-316743D01*
G01X-293530D02*
Y-312743D01*
X-292130D01*
X-291663Y-312943D01*
X-291313Y-313410D01*
X-291196Y-313943D01*
X-291313Y-314476D01*
X-291605Y-314876D01*
X-292130Y-315076D01*
X-293530D01*
G01X-289021Y-316743D02*
X-287563Y-312743D01*
X-286105Y-316743D01*
G01X-286630Y-315343D02*
X-288496D01*
G01X-284105Y-316743D02*
Y-312743D01*
X-281421Y-316743D01*
Y-312743D01*
G01X-277963Y-316743D02*
Y-314943D01*
X-279130Y-312743D01*
G01X-276796D02*
X-277963Y-314943D01*
G01X-269063Y-312743D02*
X-267663D01*
G01X-268363D02*
Y-316743D01*
G01X-269063D02*
X-267663D01*
G01X-264905D02*
Y-312743D01*
X-262221Y-316743D01*
Y-312743D01*
G01X-258763D02*
Y-316743D01*
G01X-260105Y-312743D02*
X-257421D01*
G01X-252796Y-316743D02*
X-255130D01*
Y-312743D01*
X-252796D01*
G01X-253730Y-314676D02*
X-255130D01*
G01X-250330Y-316743D02*
Y-312743D01*
X-248871D01*
X-248405Y-312943D01*
X-248113Y-313210D01*
X-247996Y-313743D01*
X-248113Y-314276D01*
X-248463Y-314610D01*
X-248871Y-314810D01*
X-250330D01*
G01X-248871D02*
X-247996Y-316743D01*
G01X-245705D02*
Y-312743D01*
X-243021Y-316743D01*
Y-312743D01*
G01X-241021Y-316743D02*
X-239563Y-312743D01*
X-238105Y-316743D01*
G01X-238630Y-315343D02*
X-240496D01*
G01X-235930Y-312743D02*
Y-316743D01*
X-233596D01*
G01X-327713Y-302076D02*
X-324213D01*
G01X-322913D02*
X-319413D01*
G01X-318113D02*
X-314613D01*
G01X-305480Y-297076D02*
X-305830Y-296876D01*
X-306238Y-296743D01*
X-306705D01*
X-307230Y-296943D01*
X-307638Y-297276D01*
X-307930Y-297676D01*
X-308163Y-298343D01*
X-308221Y-298943D01*
X-308105Y-299543D01*
X-307930Y-299943D01*
X-307580Y-300343D01*
X-307171Y-300610D01*
X-306763Y-300743D01*
X-306355D01*
X-305946Y-300610D01*
X-305596Y-300410D01*
X-305305Y-300143D01*
G01X-301963Y-300743D02*
X-302430Y-300676D01*
X-302838Y-300410D01*
X-303188Y-300010D01*
X-303421Y-299543D01*
X-303538Y-299010D01*
Y-298476D01*
X-303421Y-297943D01*
X-303188Y-297476D01*
X-302838Y-297076D01*
X-302430Y-296810D01*
X-301963Y-296743D01*
X-301496Y-296810D01*
X-301088Y-297076D01*
X-300738Y-297476D01*
X-300505Y-297943D01*
X-300388Y-298476D01*
Y-299010D01*
X-300505Y-299543D01*
X-300738Y-300010D01*
X-301088Y-300410D01*
X-301496Y-300676D01*
X-301963Y-300743D01*
G01X-298680D02*
Y-296743D01*
X-297163Y-300076D01*
X-295646Y-296743D01*
Y-300743D01*
G01X-293530D02*
Y-296743D01*
X-292130D01*
X-291663Y-296943D01*
X-291313Y-297410D01*
X-291196Y-297943D01*
X-291313Y-298476D01*
X-291605Y-298876D01*
X-292130Y-299076D01*
X-293530D01*
G01X-289021Y-300743D02*
X-287563Y-296743D01*
X-286105Y-300743D01*
G01X-286630Y-299343D02*
X-288496D01*
G01X-284105Y-300743D02*
Y-296743D01*
X-281421Y-300743D01*
Y-296743D01*
G01X-277963Y-300743D02*
Y-298943D01*
X-279130Y-296743D01*
G01X-276796D02*
X-277963Y-298943D01*
G01X-269530Y-300743D02*
Y-296743D01*
X-268130D01*
X-267663Y-296943D01*
X-267313Y-297410D01*
X-267196Y-297943D01*
X-267313Y-298476D01*
X-267605Y-298876D01*
X-268130Y-299076D01*
X-269530D01*
G01X-264846Y-296743D02*
Y-299610D01*
X-264613Y-300210D01*
X-264146Y-300610D01*
X-263563Y-300743D01*
X-262980Y-300610D01*
X-262513Y-300210D01*
X-262280Y-299610D01*
Y-296743D01*
G01X-258296Y-298610D02*
X-258063Y-298410D01*
X-257888Y-298076D01*
X-257771Y-297610D01*
X-257888Y-297210D01*
X-258121Y-296943D01*
X-258530Y-296743D01*
X-260105D01*
Y-300743D01*
X-258180D01*
X-257771Y-300476D01*
X-257538Y-300076D01*
X-257421Y-299610D01*
X-257538Y-299143D01*
X-257888Y-298743D01*
X-258296Y-298610D01*
X-260105D01*
G01X-255130Y-296743D02*
Y-300743D01*
X-252796D01*
G01X-249863Y-296743D02*
X-248463D01*
G01X-249163D02*
Y-300743D01*
G01X-249863D02*
X-248463D01*
G01X-243080Y-297076D02*
X-243430Y-296876D01*
X-243838Y-296743D01*
X-244305D01*
X-244830Y-296943D01*
X-245238Y-297276D01*
X-245530Y-297676D01*
X-245763Y-298343D01*
X-245821Y-298943D01*
X-245705Y-299543D01*
X-245530Y-299943D01*
X-245180Y-300343D01*
X-244771Y-300610D01*
X-244363Y-300743D01*
X-243955D01*
X-243546Y-300610D01*
X-243196Y-300410D01*
X-242905Y-300143D01*
G01X-337305Y-268743D02*
Y-264743D01*
X-334621Y-268743D01*
Y-264743D01*
G01X-332621Y-268743D02*
X-331163Y-264743D01*
X-329705Y-268743D01*
G01X-330230Y-267343D02*
X-332096D01*
G01X-327880Y-268743D02*
Y-264743D01*
X-326363Y-268076D01*
X-324846Y-264743D01*
Y-268743D01*
G01X-320396D02*
X-322730D01*
Y-264743D01*
X-320396D01*
G01X-321330Y-266676D02*
X-322730D01*
G01X-322208Y-300243D02*
X-318918Y-293943D01*
G01X-322208D02*
X-318918Y-300243D01*
G01X-287305Y-348743D02*
Y-344743D01*
X-284621Y-348743D01*
Y-344743D01*
G01X-282446D02*
Y-347610D01*
X-282213Y-348210D01*
X-281746Y-348610D01*
X-281163Y-348743D01*
X-280580Y-348610D01*
X-280113Y-348210D01*
X-279880Y-347610D01*
Y-344743D01*
G01X-277880Y-348743D02*
Y-344743D01*
X-276363Y-348076D01*
X-274846Y-344743D01*
Y-348743D01*
G01X-271096Y-346610D02*
X-270863Y-346410D01*
X-270688Y-346076D01*
X-270571Y-345610D01*
X-270688Y-345210D01*
X-270921Y-344943D01*
X-271330Y-344743D01*
X-272905D01*
Y-348743D01*
X-270980D01*
X-270571Y-348476D01*
X-270338Y-348076D01*
X-270221Y-347610D01*
X-270338Y-347143D01*
X-270688Y-346743D01*
X-271096Y-346610D01*
X-272905D01*
G01X-265596Y-348743D02*
X-267930D01*
Y-344743D01*
X-265596D01*
G01X-266530Y-346676D02*
X-267930D01*
G01X-263130Y-348743D02*
Y-344743D01*
X-261671D01*
X-261205Y-344943D01*
X-260913Y-345210D01*
X-260796Y-345743D01*
X-260913Y-346276D01*
X-261263Y-346610D01*
X-261671Y-346810D01*
X-263130D01*
G01X-261671D02*
X-260796Y-348743D01*
G01X-252363Y-355743D02*
Y-349443D01*
X-253303Y-350703D01*
G01Y-355743D02*
X-251423D01*
G01X-246220D02*
X-246063Y-354378D01*
X-245828Y-353223D01*
X-245515Y-352173D01*
X-245123Y-351018D01*
X-244496Y-349443D01*
X-247630D01*
G01X-239763D02*
X-240390Y-349653D01*
X-240860Y-350178D01*
X-241173Y-350808D01*
X-241408Y-351648D01*
X-241486Y-352593D01*
X-241408Y-353538D01*
X-241173Y-354378D01*
X-240860Y-355008D01*
X-240390Y-355533D01*
X-239763Y-355743D01*
X-239136Y-355533D01*
X-238666Y-355008D01*
X-238353Y-354378D01*
X-238118Y-353538D01*
X-238040Y-352593D01*
X-238118Y-351648D01*
X-238353Y-350808D01*
X-238666Y-350178D01*
X-239136Y-349653D01*
X-239763Y-349443D01*
G01X-234481Y-353643D02*
X-232445D01*
G01X-228886Y-354798D02*
X-228416Y-355323D01*
X-227868Y-355638D01*
X-227163Y-355743D01*
X-226458Y-355533D01*
X-225910Y-355113D01*
X-225518Y-354378D01*
X-225440Y-353538D01*
X-225596Y-352698D01*
X-225988Y-352173D01*
X-226536Y-351753D01*
X-227085Y-351648D01*
X-227633Y-351753D01*
X-228338Y-352173D01*
X-228103Y-349443D01*
X-225988D01*
G01X-220863Y-355743D02*
Y-349443D01*
X-221803Y-350703D01*
G01Y-355743D02*
X-219923D01*
G01X-215895Y-355008D02*
X-215346Y-355533D01*
X-214720Y-355743D01*
X-214093Y-355533D01*
X-213545Y-354903D01*
X-213153Y-353958D01*
X-212996Y-353013D01*
Y-351858D01*
X-213153Y-350913D01*
X-213545Y-350073D01*
X-214015Y-349653D01*
X-214563Y-349443D01*
X-215190Y-349653D01*
X-215660Y-350073D01*
X-215973Y-350703D01*
X-216130Y-351543D01*
X-215973Y-352278D01*
X-215581Y-353013D01*
X-215111Y-353433D01*
X-214563Y-353538D01*
X-213936Y-353328D01*
X-213466Y-352803D01*
X-212996Y-351858D01*
G01X-207323Y-355743D02*
Y-349443D01*
X-210221Y-353958D01*
X-206305D01*
G01X-203686Y-354483D02*
X-203216Y-355218D01*
X-202590Y-355638D01*
X-201885Y-355743D01*
X-201258Y-355638D01*
X-200631Y-355113D01*
X-200240Y-354483D01*
X-200161Y-353853D01*
X-200318Y-353118D01*
X-200866Y-352593D01*
X-201415Y-352383D01*
X-202120D01*
G01X-201415D02*
X-200945Y-352068D01*
X-200553Y-351543D01*
X-200396Y-350913D01*
X-200553Y-350283D01*
X-200945Y-349758D01*
X-201650Y-349443D01*
X-202355Y-349548D01*
X-203060Y-349968D01*
G01X-165730Y-355743D02*
Y-349443D01*
X-163771D01*
X-163145Y-349758D01*
X-162753Y-350178D01*
X-162596Y-351018D01*
X-162753Y-351858D01*
X-163223Y-352383D01*
X-163771Y-352698D01*
X-165730D01*
G01X-163771D02*
X-162596Y-355743D01*
G01X-156296D02*
X-159430D01*
Y-349443D01*
X-156296D01*
G01X-157550Y-352488D02*
X-159430D01*
G01X-153521Y-349443D02*
X-151563Y-355743D01*
X-149605Y-349443D01*
G01X-138336Y-352383D02*
X-138023Y-352068D01*
X-137788Y-351543D01*
X-137631Y-350808D01*
X-137788Y-350178D01*
X-138101Y-349758D01*
X-138650Y-349443D01*
X-140765D01*
Y-355743D01*
X-138180D01*
X-137631Y-355323D01*
X-137318Y-354693D01*
X-137161Y-353958D01*
X-137318Y-353223D01*
X-137788Y-352593D01*
X-138336Y-352383D01*
X-140765D01*
G01X-134386Y-354483D02*
X-133916Y-355218D01*
X-133290Y-355638D01*
X-132585Y-355743D01*
X-131958Y-355638D01*
X-131331Y-355113D01*
X-130940Y-354483D01*
X-130861Y-353853D01*
X-131018Y-353118D01*
X-131566Y-352593D01*
X-132115Y-352383D01*
X-132820D01*
G01X-132115D02*
X-131645Y-352068D01*
X-131253Y-351543D01*
X-131096Y-350913D01*
X-131253Y-350283D01*
X-131645Y-349758D01*
X-132350Y-349443D01*
X-133055Y-349548D01*
X-133760Y-349968D01*
G01X-265789Y-280289D02*
Y-273989D01*
X-263752Y-279239D01*
X-261715Y-273989D01*
Y-280289D01*
G01X-255729Y-274514D02*
X-256199Y-274199D01*
X-256747Y-273989D01*
X-257374D01*
X-258079Y-274304D01*
X-258627Y-274829D01*
X-259019Y-275459D01*
X-259332Y-276509D01*
X-259410Y-277454D01*
X-259254Y-278399D01*
X-259019Y-279029D01*
X-258549Y-279659D01*
X-258000Y-280079D01*
X-257452Y-280289D01*
X-256904D01*
X-256355Y-280079D01*
X-255885Y-279764D01*
X-255494Y-279344D01*
G01X-252092Y-273989D02*
X-250212D01*
G01X-251152D02*
Y-280289D01*
G01X-252092D02*
X-250212D01*
G01X-246889D02*
Y-273989D01*
X-244852Y-279239D01*
X-242815Y-273989D01*
Y-280289D01*
G01X-240197D02*
X-236907Y-273989D01*
G01X-240197D02*
X-236907Y-280289D01*
G01X-233584Y-279554D02*
X-233035Y-280079D01*
X-232409Y-280289D01*
X-231782Y-280079D01*
X-231234Y-279449D01*
X-230842Y-278504D01*
X-230685Y-277559D01*
Y-276404D01*
X-230842Y-275459D01*
X-231234Y-274619D01*
X-231704Y-274199D01*
X-232252Y-273989D01*
X-232879Y-274199D01*
X-233349Y-274619D01*
X-233662Y-275249D01*
X-233819Y-276089D01*
X-233662Y-276824D01*
X-233270Y-277559D01*
X-232800Y-277979D01*
X-232252Y-278084D01*
X-231625Y-277874D01*
X-231155Y-277349D01*
X-230685Y-276404D01*
G01X-227675Y-279029D02*
X-227205Y-279764D01*
X-226579Y-280184D01*
X-225874Y-280289D01*
X-225247Y-280184D01*
X-224620Y-279659D01*
X-224229Y-279029D01*
X-224150Y-278399D01*
X-224307Y-277664D01*
X-224855Y-277139D01*
X-225404Y-276929D01*
X-226109D01*
G01X-225404D02*
X-224934Y-276614D01*
X-224542Y-276089D01*
X-224385Y-275459D01*
X-224542Y-274829D01*
X-224934Y-274304D01*
X-225639Y-273989D01*
X-226344Y-274094D01*
X-227049Y-274514D01*
G01X-220670Y-278189D02*
X-218634D01*
G01X-214997Y-279449D02*
X-214370Y-279974D01*
X-213665Y-280289D01*
X-213039D01*
X-212412Y-279974D01*
X-211942Y-279449D01*
X-211707Y-278714D01*
X-211864Y-277979D01*
X-212255Y-277349D01*
X-212960Y-276929D01*
X-213900Y-276719D01*
X-214449Y-276299D01*
X-214684Y-275564D01*
X-214527Y-274829D01*
X-214135Y-274304D01*
X-213587Y-273989D01*
X-213039D01*
X-212490Y-274199D01*
X-212020Y-274724D01*
G01X-207052Y-280289D02*
X-207679Y-280184D01*
X-208227Y-279764D01*
X-208697Y-279134D01*
X-209010Y-278399D01*
X-209167Y-277559D01*
Y-276719D01*
X-209010Y-275879D01*
X-208697Y-275144D01*
X-208227Y-274514D01*
X-207679Y-274094D01*
X-207052Y-273989D01*
X-206425Y-274094D01*
X-205877Y-274514D01*
X-205407Y-275144D01*
X-205094Y-275879D01*
X-204937Y-276719D01*
Y-277559D01*
X-205094Y-278399D01*
X-205407Y-279134D01*
X-205877Y-279764D01*
X-206425Y-280184D01*
X-207052Y-280289D01*
G01X-202789D02*
Y-273989D01*
X-200752Y-279239D01*
X-198715Y-273989D01*
Y-280289D01*
G54D11*
G01X-515713Y-360743D02*
Y-260743D01*
X-115713D01*
G01D02*
Y-360743D01*
X-515713D01*
G01X73895Y208052D02*
X73896Y208053D01*
Y210882D01*
X71896Y212882D01*
X56980D01*
X54980Y210882D01*
Y145350D01*
X61698Y138632D01*
Y116097D01*
X54548Y108947D01*
Y69923D01*
X70297Y54174D01*
Y36722D01*
X72582Y34437D01*
X78359D01*
X80360Y36438D01*
X90828D01*
X93737Y33529D01*
Y33213D01*
G01X77875Y210030D02*
X77586Y210319D01*
Y212002D01*
X74085Y215503D01*
X53256D01*
X50396Y212643D01*
Y147756D01*
X51577Y146575D01*
Y124976D01*
X50669Y124068D01*
Y115965D01*
X52048Y114586D01*
Y65798D01*
X67745Y50101D01*
Y49828D01*
X20154Y155059D03*
X24344Y155096D03*
X24419Y159306D03*
X20210D03*
X20289Y163395D03*
X24442Y163246D03*
X19836Y210715D03*
X24045D03*
X23970Y206505D03*
X19780Y206468D03*
X24068Y214655D03*
X19915Y214804D03*
X28427Y159148D03*
X28558Y155108D03*
Y163320D03*
X28184Y206517D03*
X28053Y210557D03*
X28184Y214729D03*
X73895Y208052D03*
X87785Y199875D03*
X84923Y203429D03*
X87710Y203411D03*
X84605Y199950D03*
X77875Y210030D03*
G54D21*
G01X17624Y35573D02*
Y88115D01*
X16746Y88993D01*
G01X195809Y140475D02*
Y140337D01*
X193203Y137731D01*
G01X194247Y137116D02*
X194494Y137211D01*
X195758Y138475D01*
G01X202328Y133591D02*
Y139863D01*
X202879Y140414D01*
X203390D01*
X203511Y140293D01*
G01X199942Y140455D02*
X197179Y137692D01*
G01X207772Y138258D02*
Y130302D01*
X207142Y129672D01*
G01X205833Y129452D02*
X206732Y130351D01*
Y137487D01*
X206492Y137727D01*
Y138789D01*
X207726Y140023D01*
Y140258D01*
G01X199911Y138455D02*
X198201Y136745D01*
G01X203406Y142307D02*
X203720D01*
X205632Y140395D01*
Y137686D01*
X205872Y137446D01*
Y131002D01*
X204373Y129503D01*
G01X202731Y129843D02*
X203513Y130625D01*
G01X205012Y132124D02*
Y137406D01*
X204122Y138296D01*
X203892D01*
X203887Y138301D01*
X203700D01*
G01X199844Y133210D02*
X201468Y134834D01*
Y140815D01*
X199831Y142452D01*
G01X208156Y128564D02*
X208490Y128898D01*
Y137164D01*
X209302Y137976D01*
Y140664D01*
X207743Y142223D01*
Y142258D01*
G01X209483Y133624D02*
X209272Y133835D01*
Y136984D01*
X210161Y137873D01*
Y138704D01*
X211766Y140309D01*
G01X210121Y135513D02*
X210815Y134819D01*
G54D12*
X27329Y8089D03*
G54D22*
G01X9702Y49620D02*
X4667Y44585D01*
Y8584D01*
X4395Y8312D01*
G01X8956Y8587D02*
X11508Y11139D01*
Y26632D01*
X17624Y32748D01*
Y35573D01*
G01X16746Y88993D02*
Y140068D01*
G01D02*
Y191522D01*
X14641Y193627D01*
G01D02*
Y228082D01*
X8867Y233856D01*
G01X80600Y53537D02*
X73883D01*
X56415Y71005D01*
Y107115D01*
X65877Y116577D01*
Y137035D01*
X56904Y146008D01*
Y207104D01*
X59944Y210144D01*
X71216D01*
X71576Y209784D01*
Y209252D01*
G01X94146Y192131D02*
Y191309D01*
X67166Y164329D01*
Y114889D01*
X57437Y105160D01*
Y74473D01*
X57952Y73958D01*
G01X87224Y51397D02*
X80810Y57811D01*
X77139D01*
X58503Y76447D01*
Y100833D01*
X77225Y119555D01*
Y171880D01*
X84241Y178896D01*
G01X96355Y50728D02*
X93530D01*
X66347Y77911D01*
Y81394D01*
X63915Y83826D01*
Y92184D01*
X68320Y96589D01*
Y108826D01*
X78380Y118886D01*
Y169057D01*
X86398Y177075D01*
Y180602D01*
X88086Y182290D01*
X90457D01*
X102255Y194088D01*
Y200217D01*
X105918Y203880D01*
X114598D01*
G01X89470Y180719D02*
Y178327D01*
X82445Y171302D01*
Y153173D01*
X79491Y150219D01*
Y118510D01*
X70141Y109160D01*
Y97055D01*
X65388Y92302D01*
Y83820D01*
X71344Y77864D01*
X87261D01*
X95929Y69196D01*
X127828D01*
X131936Y73304D01*
X168895D01*
X178816Y63383D01*
G01X110598Y201287D02*
X110207D01*
X104247Y195327D01*
Y191150D01*
X84177Y171080D01*
Y153136D01*
X80668Y149627D01*
Y120486D01*
X81668Y119486D01*
Y115523D01*
X80646Y114501D01*
Y111695D01*
X76112Y107161D01*
Y105311D01*
G01X113116Y201746D02*
Y201307D01*
X105353Y193544D01*
Y190123D01*
X85554Y170324D01*
Y152515D01*
X81645Y148606D01*
Y124413D01*
X90739Y115319D01*
X107093D01*
X109488Y117714D01*
X155508D01*
X158576Y114646D01*
G01X146015Y131872D02*
X144884Y130741D01*
X135843D01*
X134770Y131814D01*
Y170313D01*
X144578Y180121D01*
X161264D01*
X163292Y178093D01*
X166007D01*
G01X167134Y171629D02*
X163956D01*
X159465Y176120D01*
X149965D01*
X149392Y175547D01*
Y175009D01*
X150454Y173947D01*
Y173409D01*
X149917Y172872D01*
X149379D01*
X148317Y173934D01*
X147779D01*
X147242Y173397D01*
Y172859D01*
X148304Y171797D01*
Y171259D01*
X147767Y170722D01*
X147229D01*
X146167Y171784D01*
X145629D01*
X144704Y170859D01*
X140711D01*
X137779Y167927D01*
Y139400D01*
X138159Y139020D01*
X138992D01*
X139372Y139400D01*
Y144440D01*
X139752Y144820D01*
X140512D01*
X140892Y144440D01*
Y140200D01*
X141272Y139820D01*
X141939D01*
X142338Y140219D01*
Y142138D01*
X142875Y142675D01*
X145907D01*
X146287Y142295D01*
Y141067D01*
G01X148685Y131871D02*
X147006Y133550D01*
X137134D01*
X135907Y134777D01*
Y169439D01*
X140991Y174523D01*
X141841D01*
X143286Y173078D01*
X143824D01*
X144361Y173615D01*
Y174153D01*
X142916Y175598D01*
Y176136D01*
X145600Y178820D01*
X160565D01*
X163091Y176294D01*
X169391D01*
X169526Y176159D01*
G01X170803Y173038D02*
X167904D01*
X167524Y173418D01*
Y174619D01*
X167144Y174999D01*
X166384D01*
X166004Y174619D01*
Y173418D01*
X165624Y173038D01*
X164447D01*
X160165Y177320D01*
X149565D01*
X147978Y175733D01*
X147440D01*
X146195Y176978D01*
X145657D01*
X145120Y176441D01*
Y175903D01*
X146365Y174658D01*
Y174120D01*
X144244Y171999D01*
X140212D01*
X136776Y168563D01*
Y135900D01*
X137156Y135520D01*
X138785D01*
X139165Y135900D01*
Y136371D01*
X139545Y136751D01*
X147594D01*
X148812Y137969D01*
G01X178221Y167184D02*
X175396Y170009D01*
X162276D01*
X160715Y171570D01*
Y173271D01*
X159566Y174420D01*
X153065D01*
X148174Y169529D01*
X140867D01*
X138711Y167373D01*
Y148618D01*
X139031Y148298D01*
X141209D01*
X142363Y147144D01*
X144533D01*
X144913Y147524D01*
Y148658D01*
X144533Y149038D01*
X142801D01*
X142276Y149563D01*
Y152083D01*
X142597Y152404D01*
X144015D01*
X145395Y153784D01*
X146238D01*
G01X143445Y153729D02*
X145004Y155288D01*
X160324D01*
X161901Y153711D01*
X163078D01*
X163458Y154091D01*
Y156437D01*
X163838Y156817D01*
X164598D01*
X164978Y156437D01*
Y154091D01*
X165358Y153711D01*
X169055D01*
X169435Y154091D01*
Y155894D01*
X169815Y156274D01*
X170575D01*
X170955Y155894D01*
Y154091D01*
X171335Y153711D01*
X172095D01*
X172475Y154091D01*
Y155894D01*
X172855Y156274D01*
X173615D01*
X173995Y155894D01*
Y154091D01*
X174375Y153711D01*
X175135D01*
X175515Y154091D01*
Y155894D01*
X175895Y156274D01*
X176781D01*
X177161Y155894D01*
Y152700D01*
X177541Y152320D01*
X178301D01*
X178681Y152700D01*
Y155894D01*
X179061Y156274D01*
X181602D01*
X183956Y158628D01*
X186262D01*
G01X180354Y164635D02*
X176847D01*
X176467Y165015D01*
Y166440D01*
X176087Y166820D01*
X175327D01*
X174947Y166440D01*
Y165015D01*
X174567Y164635D01*
X173945D01*
X173565Y165015D01*
Y168340D01*
X173185Y168720D01*
X169814D01*
X169434Y168340D01*
Y166700D01*
X169054Y166320D01*
X168294D01*
X167914Y166700D01*
Y168340D01*
X167534Y168720D01*
X163696D01*
X163316Y168340D01*
Y165030D01*
X162936Y164650D01*
X162176D01*
X161796Y165030D01*
Y167716D01*
X161346Y168166D01*
X154444D01*
X154409Y168131D01*
X140987D01*
X139701Y166845D01*
Y156647D01*
X140093Y156255D01*
X140704D01*
X141084Y156635D01*
Y158140D01*
X141464Y158520D01*
X142224D01*
X142604Y158140D01*
Y156635D01*
X142984Y156255D01*
X143744D01*
X144124Y156635D01*
Y158140D01*
X144504Y158520D01*
X145264D01*
X145644Y158140D01*
Y157355D01*
X146024Y156975D01*
X148787D01*
G01X193827Y158448D02*
X192493Y159782D01*
X189584D01*
X186524Y156722D01*
X184503D01*
X179101Y151320D01*
X177733D01*
X177353Y150940D01*
Y149200D01*
X176973Y148820D01*
X176213D01*
X175833Y149200D01*
Y150940D01*
X175453Y151320D01*
X174693D01*
X174313Y150940D01*
Y149200D01*
X173933Y148820D01*
X173173D01*
X172793Y149200D01*
Y150940D01*
X172413Y151320D01*
X171136D01*
X170756Y150940D01*
Y147700D01*
X170376Y147320D01*
X165945D01*
X165565Y147700D01*
Y151816D01*
X165185Y152196D01*
X145098D01*
X143713Y150811D01*
G01X184208Y160605D02*
X181779D01*
X181193Y160019D01*
Y157973D01*
X180813Y157593D01*
X180053D01*
X179673Y157973D01*
Y159837D01*
X179293Y160217D01*
X178533D01*
X178153Y159837D01*
Y157973D01*
X177773Y157593D01*
X177013D01*
X176633Y157973D01*
Y159837D01*
X176253Y160217D01*
X175493D01*
X175113Y159837D01*
Y157973D01*
X174733Y157593D01*
X173973D01*
X173593Y157973D01*
Y159837D01*
X173213Y160217D01*
X172453D01*
X172073Y159837D01*
Y157973D01*
X171693Y157593D01*
X170933D01*
X170553Y157973D01*
Y159837D01*
X170173Y160217D01*
X167032D01*
X166652Y159837D01*
Y158796D01*
X166272Y158416D01*
X165512D01*
X165132Y158796D01*
Y159837D01*
X164752Y160217D01*
X163992D01*
X163612Y159837D01*
Y158796D01*
X163232Y158416D01*
X162472D01*
X162092Y158796D01*
Y159837D01*
X161712Y160217D01*
X160952D01*
X160572Y159837D01*
Y158796D01*
X160192Y158416D01*
X159432D01*
X159052Y158796D01*
Y159837D01*
X158672Y160217D01*
X157958D01*
X157725Y159984D01*
Y158918D01*
X157345Y158538D01*
X153240D01*
X148627Y163151D01*
G01X183006Y163158D02*
X181868Y162020D01*
X178831D01*
X178451Y162400D01*
Y162763D01*
X178071Y163143D01*
X177342D01*
X176931Y162732D01*
Y162400D01*
X176551Y162020D01*
X175791D01*
X175411Y162400D01*
Y162740D01*
X175031Y163120D01*
X174271D01*
X173891Y162740D01*
Y162400D01*
X173511Y162020D01*
X172499D01*
X172119Y162400D01*
Y166460D01*
X171729Y166850D01*
X170979D01*
X170599Y166470D01*
Y162400D01*
X170219Y162020D01*
X166801D01*
X166421Y162400D01*
Y166940D01*
X166041Y167320D01*
X165281D01*
X164901Y166940D01*
Y162400D01*
X164508Y162007D01*
X155331D01*
X152285Y165053D01*
X146998D01*
X146391Y164446D01*
Y163146D01*
G01X193203Y137731D02*
Y54768D01*
X197027Y50944D01*
X197301D01*
G01X197196Y53042D02*
X194247Y55991D01*
Y137116D01*
G01X190294Y50704D02*
X182175Y58823D01*
G01X194961Y208731D02*
X196763Y210533D01*
Y225535D01*
X194906Y227392D01*
G01X212369Y37654D02*
X210851D01*
X205836Y42669D01*
X205349D01*
X202931Y45087D01*
Y55666D01*
X200909Y57688D01*
Y132172D01*
G01X197179Y137692D02*
Y55424D01*
X199178Y53425D01*
Y41666D01*
X201865Y38979D01*
Y38531D01*
X204609Y35787D01*
G01X207142Y129672D02*
Y61218D01*
X215601Y52759D01*
Y45491D01*
X220683Y40409D01*
Y39977D01*
G01X220551Y37636D02*
X220175D01*
X218137Y39674D01*
Y40671D01*
X218221Y40755D01*
Y41263D01*
X217710Y41774D01*
X217203D01*
X217118Y41689D01*
X216610D01*
X216099Y42200D01*
Y42709D01*
X216183Y42793D01*
Y43301D01*
X215672Y43812D01*
X215165D01*
X215112Y43759D01*
X214474D01*
X212445Y45788D01*
Y51096D01*
X205833Y57708D01*
Y129452D01*
G01X198201Y136745D02*
Y56640D01*
X200399Y54442D01*
Y42391D01*
X204609Y38181D01*
G01X204373Y129503D02*
Y57725D01*
X207954Y54144D01*
Y44949D01*
X210224Y42679D01*
X212844D01*
X214051Y41472D01*
Y37182D01*
X215714Y35519D01*
G01X212316Y39864D02*
X211174D01*
X206529Y44509D01*
Y53589D01*
X202731Y57387D01*
Y129843D01*
G01X204716Y40279D02*
X201754Y43241D01*
Y55148D01*
X199844Y57058D01*
Y133210D01*
G01X225287Y40318D02*
X218877Y46728D01*
Y51482D01*
X208156Y62203D01*
Y128564D01*
G01X233069Y39556D02*
X230584Y42041D01*
X225095D01*
X220143Y46993D01*
Y52171D01*
X209483Y62831D01*
Y133624D01*
G01X210815Y134819D02*
Y64786D01*
X223496Y52105D01*
Y45286D01*
X225515Y43267D01*
X232223D01*
X234594Y40896D01*
Y38923D01*
X233121Y37450D01*
Y37382D01*
G01X278382Y112778D02*
Y113950D01*
X277569Y114763D01*
X230442D01*
X213046Y132159D01*
Y139773D01*
X213481Y140208D01*
Y141030D01*
X212097Y142414D01*
X211492D01*
G01X211742Y164178D02*
X211766Y164202D01*
X212066D01*
X213392Y165528D01*
Y184127D01*
X215878Y186613D01*
Y218750D01*
X212862Y221766D01*
Y225751D01*
X214998Y227887D01*
G01X212882Y236210D02*
X213158D01*
X214744Y234624D01*
Y230818D01*
X216866Y228696D01*
Y165449D01*
X215549Y164132D01*
X215544D01*
G01X280482Y112784D02*
Y113406D01*
X278043Y115845D01*
X231536D01*
X213994Y133387D01*
Y139187D01*
X215234Y140427D01*
G01X278381Y118963D02*
Y118693D01*
X276510Y116822D01*
X273042D01*
X272682Y117182D01*
Y118554D01*
X272322Y118914D01*
X271602D01*
X271242Y118554D01*
Y117316D01*
X270882Y116956D01*
X270162D01*
X269802Y117316D01*
Y118554D01*
X269442Y118914D01*
X268722D01*
X268362Y118554D01*
Y117338D01*
X268002Y116978D01*
X252169D01*
X251719Y117428D01*
Y117727D01*
X251269Y118177D01*
X250369D01*
X249919Y117727D01*
Y117428D01*
X249469Y116978D01*
X248569D01*
X248119Y117428D01*
Y117994D01*
X247669Y118444D01*
X246769D01*
X246319Y117994D01*
Y117428D01*
X245869Y116978D01*
X232092D01*
X216929Y132141D01*
Y137017D01*
X215503Y138443D01*
G01X215517Y142407D02*
X217826Y140098D01*
Y133596D01*
X232534Y118888D01*
X239198D01*
X240796Y120486D01*
X256832D01*
X257965Y121619D01*
X269937D01*
X270647Y122329D01*
Y123324D01*
X271097Y123774D01*
X272907D01*
X273357Y123324D01*
Y122108D01*
X273846Y121619D01*
X278242D01*
X280481Y119380D01*
Y118988D01*
G01X282599Y138175D02*
X280591Y136167D01*
X225631D01*
G01X223078Y134980D02*
X244561D01*
X245506Y134035D01*
Y132318D01*
X246435Y131389D01*
X247737D01*
X248097Y131749D01*
Y133589D01*
X248457Y133949D01*
X249177D01*
X249537Y133589D01*
Y131749D01*
X249897Y131389D01*
X250617D01*
X250977Y131749D01*
Y133589D01*
X251337Y133949D01*
X252057D01*
X252417Y133589D01*
Y131749D01*
X252777Y131389D01*
X253497D01*
X253857Y131749D01*
Y133589D01*
X254217Y133949D01*
X254937D01*
X255297Y133589D01*
Y131749D01*
X255657Y131389D01*
X267086D01*
X270485Y127990D01*
X278183D01*
X280622Y125551D01*
Y125373D01*
G01X221117Y142708D02*
X222750Y141075D01*
X224074D01*
X225219Y142220D01*
X251755D01*
X254408Y144873D01*
X273800D01*
X274377Y144296D01*
X276427D01*
G01X221177Y134470D02*
X222286Y133361D01*
X232650D01*
X233010Y133001D01*
Y129860D01*
X233370Y129500D01*
X234090D01*
X234450Y129860D01*
Y133001D01*
X234810Y133361D01*
X236919D01*
X237279Y133001D01*
Y130639D01*
X237639Y130279D01*
X238359D01*
X238719Y130639D01*
Y133001D01*
X239079Y133361D01*
X239799D01*
X240159Y133001D01*
Y130639D01*
X240519Y130279D01*
X241239D01*
X241599Y130639D01*
Y133001D01*
X241959Y133361D01*
X242917D01*
X246151Y130127D01*
X266208D01*
X269305Y127030D01*
Y126401D01*
X269755Y125951D01*
X271130D01*
X271580Y126401D01*
Y126630D01*
X271980Y127030D01*
X276919D01*
X278433Y125516D01*
Y125501D01*
X278522Y125412D01*
G01X221887Y140164D02*
X252056D01*
X255610Y143718D01*
X272423D01*
X273445Y142696D01*
X277210D01*
X278706Y144192D01*
G01X226028Y137529D02*
X267811D01*
X268171Y137889D01*
Y141243D01*
G01X221210Y146540D02*
X222655Y145095D01*
X251014D01*
X253013Y147094D01*
X276778D01*
X278382Y148698D01*
Y148990D01*
G01X219302Y150438D02*
Y149938D01*
X221302Y147938D01*
X252147D01*
X256484Y152275D01*
X265304D01*
X269765Y156736D01*
G01X267612Y156895D02*
Y156593D01*
X265043Y154024D01*
X256700D01*
X251769Y149093D01*
X222465D01*
X221295Y150263D01*
G01X219216Y146385D02*
X221572Y144029D01*
X251546D01*
X253596Y146079D01*
X277851D01*
X280571Y148799D01*
Y149085D01*
G01X266501Y160125D02*
X266275Y159899D01*
X260454D01*
X258971Y158416D01*
X228435D01*
X226629Y156610D01*
X221452D01*
X219245Y154403D01*
G01X221307Y154493D02*
X222556Y155742D01*
X257793D01*
X260557Y158506D01*
X267088D01*
X268599Y160017D01*
G01X257279Y161591D02*
X255460Y159772D01*
X222933D01*
X221360Y158199D01*
G01X219360Y158176D02*
X221745Y160561D01*
X225190D01*
X227839Y163210D01*
X258176D01*
X259439Y161947D01*
Y161591D01*
G01X224230Y224303D02*
Y220760D01*
X218677Y215207D01*
Y170325D01*
X217744Y169392D01*
Y164058D01*
X215849Y162163D01*
X215652D01*
X215550Y162061D01*
G01X219316Y164131D02*
X221742Y166557D01*
Y180904D01*
X230252Y189414D01*
X234014D01*
X242771Y198171D01*
G01X219316Y166131D02*
X220676Y167491D01*
Y181207D01*
X230214Y190745D01*
X232814D01*
X240261Y198192D01*
G01X223141Y165894D02*
X225207Y167960D01*
Y180264D01*
X231818Y186875D01*
X237965D01*
X243608Y192518D01*
G01X221329Y161949D02*
X226451Y167071D01*
Y179777D01*
X232325Y185651D01*
X239163D01*
X243576Y190064D01*
G01X226496Y210947D02*
X228636D01*
X236365Y218676D01*
X240993D01*
G01X228845Y216177D02*
X233921Y221253D01*
X240836D01*
X243571Y218518D01*
G01X237469Y58619D02*
X235983Y57133D01*
Y35660D01*
G01X238809Y166720D02*
X240208Y168119D01*
X259728D01*
X267106Y175497D01*
G01X269337Y175577D02*
Y174613D01*
X261565Y166841D01*
X242982D01*
X240955Y164814D01*
X237989D01*
X236131Y166672D01*
G01X267106Y175497D02*
Y179462D01*
X269024Y181380D01*
G01X269337Y175577D02*
Y177684D01*
X273209Y181556D01*
G54D13*
X280273Y15759D03*
Y225759D03*
G54D23*
G01X171231Y213342D02*
X172978Y211595D01*
Y210656D01*
X196926Y186708D01*
Y166523D01*
X198314Y165135D01*
X198376D01*
X199276Y164235D01*
G01X199226Y166235D02*
X198770D01*
X198026Y166979D01*
Y187164D01*
X174078Y211112D01*
Y212212D01*
X172939Y213351D01*
Y215123D01*
X172620Y215442D01*
X171167D01*
G01X207428Y164283D02*
X206846D01*
X204948Y166181D01*
Y193498D01*
X201294Y197152D01*
Y214140D01*
X202379Y215280D01*
X202381D01*
X202524Y215423D01*
X204224D01*
G01X207533Y166347D02*
X207141Y165955D01*
X206730D01*
X206048Y166637D01*
Y193954D01*
X202394Y197608D01*
Y213700D01*
X202851Y214180D01*
X203465D01*
X204320Y213325D01*
G54D14*
G01X-515713Y-340743D02*
X-115713D01*
G01X-515713Y-310743D02*
Y-290743D01*
X-115713D01*
G01X-465713Y-360743D02*
Y-340743D01*
G01X-340213Y-360743D02*
Y-340743D01*
G01X-340713Y-290743D02*
Y-260743D01*
G01X-290713Y-360743D02*
Y-340743D01*
G01X163056Y10249D02*
X163845Y11038D01*
Y23110D01*
X159583Y27372D01*
X147486D01*
X144382Y24268D01*
G54D15*
G01X181589Y22040D02*
Y21882D01*
X186286Y17185D01*
X251507D01*
X266088Y31766D01*
Y99069D01*
X263867Y101290D01*
Y108696D01*
X265493Y110322D01*
G01X251569Y151089D02*
X250520Y152138D01*
X216501D01*
X215301Y150938D01*
Y150535D01*
G01X245653Y173011D02*
X249951Y177309D01*
X262142D01*
X269024Y184191D01*
Y189952D01*
G54D16*
G01X64364Y74131D02*
X62154Y76341D01*
Y96265D01*
X65718Y99829D01*
G01X95872Y35086D02*
X98616Y32342D01*
X131627D01*
X135263Y28706D01*
Y23622D01*
G01X138760D02*
X135263D01*
G01X182175Y58823D02*
Y97041D01*
G01X206649Y208136D02*
Y207706D01*
X209006Y205349D01*
X211141D01*
G54D17*
G01X266972Y124618D02*
X263684Y127906D01*
X248368D01*
X243666Y123204D01*
G54D18*
G01X200909Y132172D02*
X202328Y133591D01*
G01X203513Y130625D02*
X205012Y132124D01*
G01X211585Y138317D02*
Y138146D01*
X210121Y136682D01*
Y135513D01*
G01X225631Y136167D02*
X225246Y136552D01*
X223317D01*
G01X219345Y140755D02*
X221808Y138292D01*
Y136250D01*
X223078Y134980D01*
G01X219629Y138532D02*
X221098Y137063D01*
Y134549D01*
X221177Y134470D01*
G01X219117Y142742D02*
X219275D01*
X221853Y140164D01*
X221887D01*
G01X223094Y138821D02*
X224736D01*
X226028Y137529D01*
G54D19*
G01X290282Y237556D02*
G03X287282Y240556I-3000J0D01*
G01X2977D01*
G03X-23Y237556I0J-3000D01*
G01Y2972D01*
G03X2977Y-28I3000J0D01*
G01X287282D01*
G03X290282Y2972I0J3000D01*
G01Y237556D01*
G01X193681Y9523D02*
X192536Y10668D01*
X188607D01*
X187590Y9651D01*
Y5635D01*
X184327Y2372D01*
X56858D01*
X43475Y15755D01*
X30193D01*
X19324Y26624D01*
Y133019D01*
X21961Y135656D01*
X24636D01*
X25981Y134311D01*
Y133499D01*
G01X179718Y9592D02*
X180493Y10367D01*
X185490D01*
X186290Y9567D01*
Y6174D01*
X183788Y3672D01*
X57397D01*
X44014Y17055D01*
X30733D01*
X20624Y27164D01*
Y132480D01*
X22100Y133956D01*
X23931D01*
G01X29361Y33691D02*
X29008Y33338D01*
Y28407D01*
X32161Y25254D01*
X55888D01*
X57466Y26832D01*
X76041D01*
X77619Y25254D01*
X115705D01*
X121116Y19843D01*
Y18910D01*
X122248Y17778D01*
G01X27231Y33769D02*
X27708Y33292D01*
Y27867D01*
X31621Y23954D01*
X56428D01*
X58006Y25532D01*
X75502D01*
X77080Y23954D01*
X113805D01*
X120015Y17744D01*
Y15657D01*
X121402Y14270D01*
Y14269D01*
X122534Y13137D01*
G01X28438Y132142D02*
X28430D01*
X26734Y130446D01*
Y128852D01*
X31748Y123838D01*
Y104674D01*
X24231Y97157D01*
Y68676D01*
X30850Y62057D01*
Y44812D01*
X24231Y38193D01*
Y26460D01*
X29714Y20977D01*
X43155D01*
X59160Y4972D01*
X81769D01*
X83256Y6459D01*
X145394D01*
X150377Y11442D01*
X157083D01*
X157883Y10642D01*
Y9068D01*
G01X28434Y129741D02*
Y128991D01*
X33048Y124377D01*
Y104134D01*
X25531Y96617D01*
Y69215D01*
X32150Y62596D01*
Y44273D01*
X25531Y37654D01*
Y26999D01*
X30253Y22277D01*
X43695D01*
X59475Y6497D01*
X80740D01*
X82002Y7759D01*
X144855D01*
X149838Y12742D01*
X156632D01*
X158405Y14515D01*
G01X37125Y86568D02*
X35630Y85073D01*
Y73951D01*
X41296Y68285D01*
Y46422D01*
X59243Y28475D01*
X77332D01*
X79242Y26565D01*
X116799D01*
X132264Y11100D01*
X140685D01*
X141737Y10048D01*
G01Y12731D02*
X140137D01*
X139806Y12400D01*
X132803D01*
X117338Y27865D01*
X79782D01*
X77872Y29775D01*
X59782D01*
X42596Y46961D01*
Y68824D01*
X36930Y74490D01*
Y83968D01*
X37330Y84368D01*
G01X48347Y110914D02*
Y108916D01*
X45371Y105940D01*
Y48924D01*
X63058Y31237D01*
X78249D01*
X80321Y29165D01*
X118113D01*
X131326Y15952D01*
X153059D01*
X155887Y18780D01*
Y21042D01*
X157885Y23040D01*
X160608D01*
G01X48412Y113873D02*
X50148Y112137D01*
Y108877D01*
X46671Y105400D01*
Y49463D01*
X63597Y32537D01*
X78788D01*
X80860Y30465D01*
X118653D01*
X131866Y17252D01*
X152520D01*
X154587Y19319D01*
Y21035D01*
X152174Y23448D01*
G01X62434Y107361D02*
Y107961D01*
X75049Y120576D01*
G01X101172Y94616D02*
Y94410D01*
X109159Y86423D01*
Y71684D01*
G01X122781Y70770D02*
Y86151D01*
X130205Y93575D01*
G01X203640Y235489D02*
X203598Y235447D01*
Y233267D01*
X208462Y228403D01*
Y223296D01*
X214520Y217238D01*
Y202333D01*
X209790Y197603D01*
Y163996D01*
X211604Y162182D01*
M02*
