G04 ================== begin FILE IDENTIFICATION RECORD ==================*
G04 Layout Name:  Lay-51943_B3.brd*
G04 Film Name:    L6_SS.art*
G04 File Format:  Gerber RS274X*
G04 File Origin:  Cadence Allegro 17.4-S021*
G04 Origin Date:  Wed Apr 24 10:44:52 2024*
G04 *
G04 Layer:  MANUFACTURING/SECONDARY_SIDE*
G04 Layer:  DRAWING FORMAT/FILM_TITLE_BLOCK*
G04 Layer:  BOARD GEOMETRY/OUTLINE*
G04 Layer:  ETCH/BOTTOM*
G04 Layer:  PIN/BOTTOM*
G04 Layer:  VIA CLASS/BOTTOM*
G04 *
G04 Offset:    (0.00 0.00)*
G04 Mirror:    No*
G04 Mode:      Positive*
G04 Rotation:  0*
G04 FullContactRelief:  No*
G04 UndefLineWidth:     8.00*
G04 ================== end FILE IDENTIFICATION RECORD ====================*
%FSLAX55Y55*MOIN*%
%IR0*IPPOS*OFA0.00000B0.00000*MIA0B0*SFA1.00000B1.00000*%
%ADD11C,.02*%
%ADD10C,.016*%
%ADD21R,.027X.008*%
%ADD22R,.008X.027*%
%ADD17R,.012X.012*%
%ADD12C,.056*%
%ADD13R,.02X.018*%
%ADD16R,.018X.02*%
%ADD20R,.027X.014*%
%ADD24R,.018X.024*%
%ADD23R,.014X.027*%
%ADD18R,.024X.018*%
%ADD15R,.032X.039*%
%ADD19R,.039X.032*%
%ADD14C,.17323*%
%ADD25C,.01*%
%ADD26C,.012*%
%ADD27C,.015*%
%ADD28C,.018*%
%ADD29C,.004*%
%ADD30C,.0041*%
%ADD31C,.0032*%
%ADD32C,.005*%
%ADD33C,.008*%
%ADD34C,.006*%
%ADD35C,.0034*%
%ADD36C,.0044*%
%ADD37C,.0036*%
%ADD38C,.0046*%
%ADD40C,.02404*%
%ADD39C,.02604*%
G75*
%LPD*%
G75*
G36*
G01X1925Y164977D02*
X27212D01*
X29506Y162683D01*
Y150525D01*
X21706Y142725D01*
Y134696D01*
X22642Y133760D01*
X22654Y133700D01*
G03X23675Y132679I1277J256D01*
G01X23735Y132667D01*
X27298Y129104D01*
X27311Y129082D01*
G03X27775Y128618I1123J659D01*
G01X27797Y128605D01*
X29505Y126897D01*
Y35192D01*
G02X29312Y34992I-200J0D01*
G03X28471Y34642I48J-1301D01*
G02X28188Y34652I-137J146D01*
G03X27231Y35071I-957J-883D01*
G03Y32467I0J-1302D01*
G03X28121Y32818I1J1302D01*
G02X28404Y32808I137J-146D01*
G03X29312Y32390I957J883D01*
G02X29505Y32190I-7J-200D01*
G01Y15954D01*
X33672Y11788D01*
Y7039D01*
X33047Y6414D01*
G03X32782Y5777I636J-638D01*
G01Y5514D01*
X32729Y5456D01*
G03X32382Y4571I955J-885D01*
G03X33684Y3269I1302J0D01*
G03X34712Y3772I0J1302D01*
G02X34989Y3810I158J-123D01*
G03X35765Y3553I777J1045D01*
G03X37067Y4855I0J1302D01*
G03X36666Y5794I-1302J-1D01*
G01Y5827D01*
G03X36774Y6255I-794J428D01*
G01Y8202D01*
G02X37116Y8343I200J0D01*
G01X37372Y8087D01*
X37384Y8027D01*
G03X39982Y5429I3239J641D01*
G01X40042Y5417D01*
X42627Y2832D01*
X223458D01*
X233362Y12736D01*
Y13042D01*
X245749Y25429D01*
X259973D01*
X268078Y33534D01*
Y54487D01*
X269454Y55863D01*
X288281D01*
Y1973D01*
X1925D01*
Y164977D01*
G37*
G36*
G01Y238555D02*
X169394D01*
G02X169780Y238049I0J-400D01*
G03X169733Y237702I1255J-347D01*
G03X170212Y236693I1302J0D01*
G02X170231Y236402I-127J-154D01*
G03X170097Y236231I954J-886D01*
G01X169419D01*
X160273Y227085D01*
X154175D01*
X153501Y227759D01*
X130136D01*
X129065Y228830D01*
X112414D01*
G02X112016Y229272I0J400D01*
G03X112023Y229407I-1295J135D01*
G03X109419I-1302J0D01*
G03X109426Y229272I1302J0D01*
G02X109028Y228830I-398J-42D01*
G01X90835D01*
X90792Y228972D01*
G03X88300I-1246J-375D01*
G01X88257Y228830D01*
X86551D01*
X72634Y214913D01*
X53980D01*
X32997Y235896D01*
G03X32487Y236108I-511J-510D01*
G01X14833D01*
G03X14323Y235896I1J-722D01*
G01X4811Y226384D01*
G03X4600Y225874I511J-510D01*
G01Y207094D01*
G03X4019Y206010I721J-1084D01*
G03X6623I1302J0D01*
G03X6042Y207094I-1302J0D01*
G01Y225575D01*
X15132Y234664D01*
X15616D01*
Y234361D01*
X15531Y234301D01*
G03X14977Y233235I749J-1066D01*
G03X17581I1302J0D01*
G03X17316Y234023I-1302J1D01*
G02X17634Y234664I319J241D01*
G01X24412D01*
G02X24801Y234171I0J-400D01*
G03X24765Y233866I1266J-304D01*
G03X25490Y232699I1302J0D01*
G01X25602Y232644D01*
Y230035D01*
G03X25866Y229398I901J0D01*
G01X27972Y227291D01*
Y217299D01*
G03X28237Y216662I901J1D01*
G01X33941Y210957D01*
Y210097D01*
X52217Y191821D01*
Y181728D01*
X50535Y180046D01*
X29245D01*
X29164Y180127D01*
Y181424D01*
X29338Y181447D01*
G03X30473Y182738I-167J1291D01*
G03X29171Y184040I-1302J0D01*
G03X28443Y183817I1J-1302D01*
G02X27923Y183879I-224J332D01*
G03X26962Y184303I-961J-877D01*
G03X25660Y183001I0J-1302D01*
G03X26060Y182062I1302J0D01*
G01Y179215D01*
G03X26325Y178578I901J1D01*
G01X26494Y178408D01*
X21095Y173009D01*
X9013D01*
X1925Y180097D01*
Y238555D01*
G37*
G36*
G01X208354Y145154D02*
X208876D01*
Y144980D01*
X209728D01*
X210288Y144419D01*
X210292Y144343D01*
G03X210514Y143716I1200J72D01*
G01X210551Y143663D01*
Y143165D01*
X210514Y143112D01*
G03X210290Y142414I978J-699D01*
G03X210551Y141666I1202J0D01*
G01Y138932D01*
X210527Y138888D01*
G03X210383Y138317I1058J-571D01*
G03X210527Y137746I1202J0D01*
G01X210551Y137702D01*
Y136913D01*
X210527Y136868D01*
G03Y135734I1061J-567D01*
G01X210551Y135689D01*
Y114214D01*
X189946Y93609D01*
X173462D01*
X159683Y107388D01*
X83436D01*
X63288Y127535D01*
Y135204D01*
X63483Y135398D01*
X64900D01*
X83444Y116854D01*
G02X83135Y116172I-283J-283D01*
G03X83049Y116175I-88J-1299D01*
G03Y113571I0J-1302D01*
G03X83961Y113944I0J1301D01*
G02X84241I140J-143D01*
G03X85153Y113571I912J928D01*
G03X86046Y113926I0J1301D01*
G02X86320Y113927I138J-145D01*
G03X86531Y113767I888J952D01*
G01X89111Y111187D01*
X171915D01*
X178627Y117899D01*
G03X186949Y126221I1903J6419D01*
G01X196025Y135297D01*
X196077Y135311D01*
G03X196882Y136037I-316J1160D01*
G01X196897Y136076D01*
X197958Y137137D01*
X200755D01*
X201621Y136271D01*
Y135841D01*
X201258Y135477D01*
G03X201110Y135283I636J-639D01*
G03X200989Y135187I184J-357D01*
G01X200929Y135116D01*
X200578D01*
Y133538D01*
X200929D01*
X200989Y133467D01*
G03X201295Y133326I305J260D01*
G01X201621D01*
Y130337D01*
X177640Y106356D01*
Y97622D01*
X179715Y95547D01*
X182899D01*
X183575Y96223D01*
Y98152D01*
X181114Y100613D01*
Y102641D01*
X207363Y128890D01*
Y136656D01*
G02X207765Y137056I400J0D01*
G01X207772D01*
G03X208974Y138258I0J1202D01*
G03X208693Y139030I-1201J0D01*
G02X208682Y139529I307J256D01*
G03X208928Y140258I-957J729D01*
G03X208671Y141000I-1202J-1D01*
G02X208676Y141500I315J247D01*
G03X208945Y142258I-933J758D01*
G03X207743Y143460I-1202J0D01*
G03X207468Y143428I1J-1202D01*
G02X206977Y143818I-91J390D01*
G01Y144862D01*
X208062D01*
X208354Y145154D01*
G37*
G36*
G01X99605Y174108D02*
X127389D01*
X130448Y171049D01*
Y170712D01*
X129551D01*
G03X129150Y170311I0J-401D01*
G01Y168311D01*
G03X129417Y167933I401J0D01*
G01X129550Y167885D01*
Y167632D01*
G02X128927Y167300I-400J0D01*
G03X128260Y167502I-667J-1000D01*
G03X127544Y167265I1J-1202D01*
G02X126906Y167587I-238J321D01*
G01Y167948D01*
X127038Y167996D01*
G03X127306Y168374I-134J379D01*
G01Y170374D01*
G03X126904Y170776I-402J0D01*
G01X125104D01*
G03X124726Y170509I0J-401D01*
G01X124679Y170376D01*
X123950D01*
Y168372D01*
X124679D01*
X124726Y168239D01*
G03X124970Y167996I378J135D01*
G01X125102Y167948D01*
Y167343D01*
G03X124498Y166300I599J-1043D01*
G03X125700Y165098I1202J0D01*
G03X126660Y165577I0J1202D01*
G02X127300I320J-240D01*
G03X129220I960J723D01*
G02X129860I320J-240D01*
G03X130330Y165203I960J724D01*
G01X130448Y165150D01*
Y161150D01*
X130330Y161097D01*
G03Y158903I489J-1097D01*
G01X130448Y158850D01*
Y143125D01*
X132204Y141369D01*
X132190Y141270D01*
G03X132178Y141100I1190J-169D01*
G03X133380Y139898I1202J0D01*
G03X133550Y139910I1J1202D01*
G01X133649Y139924D01*
X133681Y139892D01*
X135802D01*
X137522Y138172D01*
X142394D01*
X142414Y137995D01*
G03X143608Y136929I1194J136D01*
G03X144802Y137989I0J1202D01*
G01X144810Y138058D01*
X144980Y138228D01*
X145701D01*
G03X146007Y138370I0J401D01*
G01X146067Y138440D01*
X146418D01*
Y139862D01*
X146571Y139899D01*
G03X147489Y141067I-284J1168D01*
G03X146813Y142148I-1202J0D01*
G01X146701Y142202D01*
Y143096D01*
X146880Y143115D01*
G03X147718Y143592I-126J1195D01*
G02X148348Y143607I321J-239D01*
G03X148836Y143252I928J763D01*
G01X148963Y143202D01*
Y141959D01*
G03X149365Y141557I402J0D01*
G01X152667D01*
G03X153069Y141959I0J402D01*
G01Y143159D01*
G03X153002Y143381I-401J0D01*
G01X152968Y143432D01*
Y143630D01*
X152993Y143675D01*
G03X153142Y144254I-1053J580D01*
G03X151940Y145456I-1202J0D01*
G03X150970Y144964I0J-1202D01*
G02X150305Y144993I-323J236D01*
G03X149277Y145572I-1028J-623D01*
G03X148313Y145088I0J-1202D01*
G02X147683Y145073I-321J239D01*
G03X146880Y145505I-928J-763D01*
G01X146701Y145524D01*
Y149276D01*
X146880Y149295D01*
G03X147683Y149727I-125J1195D01*
G02X148313Y149712I309J-254D01*
G03X148419Y149588I965J717D01*
G01X148476Y149530D01*
Y149339D01*
X148443Y149288D01*
G03X148376Y149066I334J-222D01*
G01Y147866D01*
G03X148778Y147464I402J0D01*
G01X152080D01*
G03X152482Y147866I0J402D01*
G01Y149292D01*
X152582Y149350D01*
G03X153181Y150390I-603J1040D01*
G03X151979Y151592I-1202J0D01*
G03X150975Y151051I0J-1202D01*
G02X150300Y151061I-334J220D01*
G03X149277Y151632I-1023J-631D01*
G03X148348Y151193I0J-1202D01*
G02X147718Y151208I-309J254D01*
G03X146880Y151685I-964J-718D01*
G01X146701Y151704D01*
Y152668D01*
X146806Y152725D01*
G03Y154843I-567J1059D01*
G01X146701Y154900D01*
Y161977D01*
X146828Y162026D01*
G03X147232Y162287I-437J1120D01*
G02X147790Y162288I280J-286D01*
G03X148627Y161949I837J864D01*
G03X149573Y162410I0J1201D01*
G02X150214Y162395I315J-247D01*
G03X151193Y161891I979J699D01*
G03X152395Y163093I0J1202D01*
G03X151501Y164255I-1202J0D01*
G01X151352Y164294D01*
Y167677D01*
X151353Y167685D01*
G03X151354Y167718I-400J29D01*
G01Y169127D01*
X152556D01*
X152607Y169003D01*
G03X153719Y168258I1112J457D01*
G03X153760Y168259I-9J1202D01*
G02X154174Y167859I14J-400D01*
G01Y161442D01*
X155133Y160483D01*
X155101Y160370D01*
G03X155055Y160040I1156J-329D01*
G03X155948Y158879I1201J0D01*
G01X156096Y158839D01*
Y157953D01*
X155991Y157896D01*
G03Y155778I567J-1059D01*
G01X156096Y155721D01*
Y153329D01*
X157661Y151764D01*
Y142797D01*
X154957Y140093D01*
Y139154D01*
G02X154327Y138827I-400J0D01*
G03X153635Y139046I-692J-984D01*
G03Y136642I0J-1202D01*
G03X154327Y136861I0J1203D01*
G02X154957Y136534I230J-327D01*
G01Y135985D01*
X155567Y135375D01*
X155491Y135242D01*
G03X155332Y134645I1043J-597D01*
G03X156534Y133443I1202J0D01*
G03X157131Y133602I0J1202D01*
G01X157264Y133678D01*
X157452Y133490D01*
Y124607D01*
X154384Y121539D01*
X140000D01*
X136869Y124670D01*
X127882D01*
G02X127483Y125087I1J400D01*
G03X127484Y125142I-1301J51D01*
G03X124880I-1302J0D01*
G03X124881Y125087I1302J-4D01*
G02X124482Y124670I-400J-17D01*
G01X93124D01*
X82704Y135090D01*
Y157207D01*
X99605Y174108D01*
G37*
G36*
G01X104860Y42201D02*
X107526D01*
Y42142D01*
X110686D01*
X111056Y41772D01*
Y39733D01*
X110985Y39662D01*
Y38375D01*
X111572Y37788D01*
X111460Y37648D01*
G03X111174Y36834I1015J-814D01*
G03X111474Y36002I1302J-1D01*
G01Y29866D01*
X100008D01*
X97238Y32636D01*
Y34282D01*
G03X96945Y34990I-1002J0D01*
G01X96290Y35645D01*
Y38304D01*
X96853Y38866D01*
X99046D01*
Y39019D01*
X100544D01*
X101438Y39913D01*
Y42142D01*
X104860D01*
Y42201D01*
G37*
G36*
G01X121118Y63654D02*
X122032D01*
X123677Y62009D01*
Y55722D01*
X123568D01*
Y52516D01*
X123677D01*
Y49758D01*
X123648D01*
Y46552D01*
X123677D01*
Y43560D01*
X121103Y40986D01*
X113018D01*
X112257Y41747D01*
Y42718D01*
X111630Y43345D01*
X110730D01*
Y43546D01*
X107526D01*
Y43345D01*
X104860D01*
Y43548D01*
X101654D01*
Y43345D01*
X100865D01*
X99435Y41915D01*
Y40628D01*
X98863Y40056D01*
X96861D01*
X96361Y40556D01*
Y41137D01*
X98535Y43311D01*
G03X98746Y43821I-511J510D01*
G01Y50380D01*
X100830Y52463D01*
Y54892D01*
X101014D01*
Y56896D01*
X100830D01*
Y58005D01*
X99400Y59435D01*
Y62832D01*
X100023Y63456D01*
X103556D01*
Y63654D01*
X106284D01*
Y63602D01*
X109488D01*
Y63654D01*
X112126D01*
Y63620D01*
X115330D01*
Y63654D01*
X117912D01*
Y63648D01*
X121118D01*
Y63654D01*
G37*
G36*
G01X110578Y73023D02*
X132043D01*
X133903Y71163D01*
Y40914D01*
X135854Y38963D01*
X135804Y38840D01*
G03X135707Y38348I1205J-493D01*
G03X137009Y37046I1302J0D01*
G03X137501Y37143I-1J1302D01*
G01X137624Y37193D01*
X137908Y36909D01*
X148206D01*
X153998Y31117D01*
Y23967D01*
X152608Y22578D01*
X145492D01*
G02X145231Y23281I0J400D01*
G03X145684Y24268I-849J987D01*
G03X144382Y25570I-1302J0D01*
G03X143125Y24606I0J-1302D01*
G02X142456Y24428I-386J105D01*
G01X137390Y29493D01*
G03X136880Y29704I-510J-511D01*
G01X135525D01*
X135363Y29866D01*
X115810D01*
Y34770D01*
G02X116315Y35156I400J0D01*
G03X116654Y35111I339J1257D01*
G03X117922Y36117I0J1302D01*
G01X117935Y36173D01*
X118944Y37182D01*
X120089D01*
G03X120590Y37683I0J501D01*
G01Y38828D01*
X124822Y43060D01*
Y46552D01*
X125052D01*
Y49758D01*
X124822D01*
Y52516D01*
X124972D01*
Y55722D01*
X124822D01*
Y63904D01*
X123606Y65120D01*
X99292D01*
X97398Y67014D01*
Y72416D01*
X98005Y73023D01*
X107740D01*
G02X108073Y72402I0J-400D01*
G03X107857Y71684I1085J-718D01*
G03X110461I1302J0D01*
G03X110245Y72402I-1301J0D01*
G02X110578Y73023I333J221D01*
G37*
G36*
G01X214993Y144928D02*
X216203D01*
X217981Y143151D01*
X217953Y143040D01*
G03X217915Y142742I1164J-300D01*
G03X218270Y141890I1202J1D01*
G02X218327Y141393I-282J-284D01*
G03X218143Y140755I1018J-639D01*
G03X218599Y139812I1203J0D01*
G02X218670Y139257I-248J-314D01*
G03X218427Y138532I960J-725D01*
G03X218750Y137712I1202J0D01*
G02X218789Y137214I-292J-273D01*
G03X218580Y136537I992J-677D01*
G03X218857Y135769I1203J0D01*
G02X218703Y135442I-154J-127D01*
G01X218542D01*
Y133862D01*
X218894D01*
X218954Y133792D01*
G03X219260Y133650I306J259D01*
G01X220460D01*
G03X220862Y134052I0J402D01*
G01Y135252D01*
G03X220795Y135474I-401J0D01*
G01X220762Y135524D01*
Y135838D01*
X220793Y135887D01*
G03X220984Y136537I-1011J650D01*
G03X220661Y137357I-1202J0D01*
G02X220622Y137855I292J273D01*
G03X220831Y138532I-992J677D01*
G03X220375Y139475I-1203J0D01*
G02X220304Y140030I248J314D01*
G03X220490Y140388I-959J725D01*
G01X220534Y140528D01*
X220811D01*
X221240Y140099D01*
X221754D01*
G02X222089Y139480I0J-400D01*
G03X221892Y138821I1004J-659D01*
G03X222337Y137887I1203J0D01*
G02X222393Y137321I-252J-311D01*
G03X222115Y136552I925J-769D01*
G03X224519I1202J0D01*
G03X224074Y137486I-1203J0D01*
G02X224018Y138052I252J311D01*
G03X224296Y138821I-925J769D01*
G03X224099Y139480I-1201J0D01*
G02X224434Y140099I335J219D01*
G01X228663D01*
X237636Y131127D01*
G02X237196Y130476I-283J-283D01*
G03X240727Y126945I-2627J-6158D01*
G02X241377Y127385I368J157D01*
G01X244484Y124278D01*
Y106036D01*
X235856Y97408D01*
X213061D01*
X202888Y87235D01*
X173783D01*
X172142Y88876D01*
Y91290D01*
X172947Y92095D01*
X192938D01*
X214736Y113893D01*
Y121142D01*
X214914Y121162D01*
G03Y127475I-348J3157D01*
G01X214736Y127495D01*
Y134862D01*
G02X215194Y135258I400J0D01*
G03X215368Y135245I176J1189D01*
G03X216570Y136447I0J1202D01*
G03X216355Y137132I-1202J-1D01*
G02X216389Y137631I329J228D01*
G03X216705Y138443I-885J812D01*
G03X216332Y139313I-1201J0D01*
G02X216265Y139809I276J290D01*
G03X216436Y140427I-1031J618D01*
G03X216270Y141037I-1202J0D01*
G02X216340Y141531I344J203D01*
G03X216719Y142407I-823J876D01*
G03X215517Y143609I-1202J0D01*
G03X215231Y143575I-2J-1202D01*
G02X214736Y143963I-95J388D01*
G01Y144671D01*
X214993Y144928D01*
G37*
G36*
G01X199181Y154932D02*
X200302D01*
X200612Y154622D01*
Y153018D01*
X200356D01*
Y151438D01*
X200612D01*
Y148067D01*
X200438Y147893D01*
X199857D01*
X199838Y147912D01*
X199258D01*
X198813Y147467D01*
Y146848D01*
X198811Y146833D01*
G03X198798Y146658I1189J-176D01*
G03X198811Y146483I1202J1D01*
G01X198813Y146468D01*
Y146017D01*
X199490Y145340D01*
X200910D01*
Y145204D01*
X202216D01*
X202410Y145011D01*
Y143851D01*
X202024Y143465D01*
X200480D01*
X200434Y143492D01*
G03X199831Y143654I-603J-1041D01*
G03X199257Y143508I0J-1201D01*
G01X199213Y143484D01*
X198949D01*
X198311Y142846D01*
Y141705D01*
X198176Y141570D01*
X196306D01*
X196270Y141585D01*
G03X195809Y141677I-461J-1109D01*
G03X194607Y140475I0J-1202D01*
G03X194646Y140171I1202J0D01*
G01X194675Y140060D01*
X194348Y139733D01*
X193380D01*
X193109Y140004D01*
Y141144D01*
X193457Y141492D01*
X193921D01*
X194028Y141599D01*
X194071Y141614D01*
G03X194874Y142748I-399J1134D01*
G03X194820Y143104I-1202J0D01*
G01X194811Y143133D01*
Y143252D01*
X195060Y143500D01*
X196017D01*
G03X196288Y143606I0J399D01*
G01X196345Y143658D01*
X196590D01*
X196644Y143712D01*
X196734D01*
Y143802D01*
X196764Y143832D01*
Y145583D01*
G03X196964Y146247I-1002J664D01*
G03X196793Y146866I-1202J1D01*
G01X196764Y146913D01*
Y147196D01*
X196752Y147208D01*
Y149428D01*
X196977Y149653D01*
Y149864D01*
X196992Y149900D01*
G03X197080Y150352I-1114J451D01*
G03X196992Y150804I-1202J1D01*
G01X196977Y150840D01*
Y151084D01*
X197286Y151393D01*
X198466D01*
X198930Y151857D01*
Y153574D01*
X198951Y153616D01*
G03X199076Y154150I-1078J534D01*
G03X198996Y154580I-1202J-1D01*
G01X198950Y154701D01*
X199181Y154932D01*
G37*
G36*
G01X191658Y238555D02*
X213249D01*
G02X213613Y237989I0J-400D01*
G03X213572Y237845I456J-208D01*
G03X213343Y237691I281J-664D01*
G01X213141Y237490D01*
X213044Y237502D01*
G03X212882Y237512I-161J-1292D01*
G03X211687Y236727I0J-1302D01*
G02X211424Y236623I-183J79D01*
G03X210906Y236730I-517J-1195D01*
G03X209937Y236297I0J-1301D01*
G01X209877Y236231D01*
X209555D01*
G03X207411I-1072J-739D01*
G01X204710D01*
G03X203640Y236791I-1070J-742D01*
G03X203275Y236739I-1J-1302D01*
G02X202795Y236967I-112J384D01*
G03X201595Y237763I-1200J-507D01*
G03X200637Y237342I1J-1302D01*
G02X200357Y237327I-148J135D01*
G03X199497Y237652I-861J-977D01*
G03X198520Y237210I0J-1301D01*
G02X198239Y237191I-150J132D01*
G03X197392Y237504I-847J-990D01*
G03X196472Y237124I-1J-1302D01*
G02X196191Y237122I-142J141D01*
G03X195279Y237495I-912J-928D01*
G03X193993Y236399I0J-1302D01*
G01X193966Y236231D01*
X192402D01*
X191300Y237333D01*
X191317Y237434D01*
G03X191335Y237650I-1284J216D01*
G03X191276Y238036I-1302J-1D01*
G02X191658Y238555I382J119D01*
G37*
G36*
G01X208262Y156874D02*
X207910D01*
Y154952D01*
X207836Y154892D01*
G03X207749Y154794I253J-312D01*
G02X207271Y154631I-339J212D01*
G03X207132Y154656I-139J-376D01*
G01X205930D01*
G03X205625Y154515I0J-401D01*
G01X205565Y154444D01*
X205214D01*
Y152866D01*
X205565D01*
X205625Y152795D01*
G03X205930Y152654I305J260D01*
G01X206151D01*
X206176Y152483D01*
G03X206344Y152121I694J102D01*
G03X206328Y151926I1186J-195D01*
G01Y151925D01*
G03X208732I1202J0D01*
G03X208710Y152156I-1202J2D01*
G01X208689Y152261D01*
X209432Y153003D01*
X209462Y153018D01*
G03X209595Y153120I-172J363D01*
G01X209655Y153190D01*
X210006D01*
Y154792D01*
X210514Y155300D01*
Y156639D01*
X210762Y156887D01*
X212026D01*
X212180Y156732D01*
Y155109D01*
X211902Y154830D01*
Y153616D01*
X212373Y153145D01*
Y151191D01*
G03X212190Y150942I869J-830D01*
G01X212176Y150917D01*
X212125Y150866D01*
Y150806D01*
X212113Y150773D01*
G03X212040Y150361I1129J-412D01*
G01Y150360D01*
G03X212069Y150098I1202J0D01*
G01X212093Y149991D01*
X211762Y149660D01*
X210252D01*
Y149670D01*
X208674D01*
Y149596D01*
X208210Y149132D01*
Y145861D01*
X207910Y145561D01*
X207802Y145585D01*
G03X207532Y145616I-271J-1171D01*
G01X207529D01*
G03X207110Y145540I2J-1202D01*
G01X206990Y145494D01*
X206649Y145835D01*
Y146950D01*
X206252Y147347D01*
Y147496D01*
X206300D01*
Y149502D01*
X206056D01*
X205633Y149924D01*
X203527D01*
X203079Y150372D01*
X203070Y150440D01*
G03X202783Y151075I-1192J-156D01*
G01Y153195D01*
X203378Y153790D01*
Y155098D01*
X203696D01*
Y157090D01*
X203827Y157138D01*
G03X204106Y157284I-413J1129D01*
G01X205484D01*
X206896Y158696D01*
X208185D01*
X208383Y158498D01*
Y157011D01*
X208331Y156954D01*
G03X208322Y156944I294J-274D01*
G01X208262Y156874D01*
G37*
G36*
G01X216089Y238555D02*
X288281D01*
Y180652D01*
X274835D01*
G02X274453Y181170I0J400D01*
G03X274511Y181556I-1244J384D01*
G03X271907I-1302J0D01*
G03X271965Y181170I1302J-2D01*
G02X271583Y180652I-382J-118D01*
G01X270694D01*
G02X270302Y181129I0J400D01*
G03X270326Y181380I-1278J249D01*
G03X267722I-1302J0D01*
G03X267746Y181129I1302J-2D01*
G02X267354Y180652I-392J-77D01*
G01X263186D01*
X257528Y174994D01*
Y173923D01*
X252634D01*
X249269Y177288D01*
X241633D01*
G02X241235Y177725I0J400D01*
G03X234786Y171661I-6666J628D01*
G02X235199Y171262I13J-400D01*
G01Y170406D01*
X232752Y167959D01*
X228623D01*
X223730Y172852D01*
X218224D01*
X212871Y178205D01*
Y199003D01*
X217306Y203438D01*
X230305D01*
X238411Y211544D01*
Y230320D01*
X232500Y236231D01*
X228511D01*
X228489Y236236D01*
G03X228210Y236266I-278J-1272D01*
G03X227931Y236236I-1J-1302D01*
G01X227909Y236231D01*
X221499D01*
G03X220418Y236807I-1081J-726D01*
G03X219602Y236519I1J-1302D01*
G02X219040Y236579I-251J312D01*
G03X218027Y237063I-1013J-818D01*
G03X216862Y236342I0J-1302D01*
G01X216806Y236231D01*
X215770D01*
Y237781D01*
G03X215725Y237989I-501J0D01*
G02X216089Y238555I364J166D01*
G37*
G36*
G01X260947Y100599D02*
X275534D01*
X276395Y99738D01*
Y93905D01*
X275821Y93331D01*
X271126D01*
X270179Y92384D01*
Y77324D01*
X263446Y70591D01*
X218525D01*
X217368Y71748D01*
Y73931D01*
X217632D01*
X217685Y73894D01*
G03X217699Y73884I298J403D01*
G01X217788Y73825D01*
Y73584D01*
X219366D01*
Y73837D01*
G03X219477Y73900I-190J464D01*
G01X219651D01*
X219705Y73857D01*
G03X220508Y73580I803J1025D01*
G03Y76184I0J1302D01*
G03X219749Y75940I0J-1302D01*
G01X219697Y75902D01*
X219483D01*
X219435Y75931D01*
G03X219177Y76002I-258J-433D01*
G01X218590D01*
G02X218307Y76685I0J400D01*
G01X218840Y77218D01*
X221260D01*
X226731Y82689D01*
Y86055D01*
X227994Y87318D01*
X245142D01*
X258294Y100470D01*
X259925D01*
X259950Y100463D01*
G03X260285Y100419I336J1258D01*
G03X260903Y100575I0J1302D01*
G01X260947Y100599D01*
G37*
G36*
G01X229881Y147310D02*
X230449D01*
X251568Y126191D01*
Y109899D01*
X255812Y105655D01*
X255825Y105632D01*
G03X256311Y105146I1131J645D01*
G01X256334Y105133D01*
X258457Y103010D01*
X260132D01*
X260775Y102367D01*
X264348D01*
X264703Y102012D01*
Y101100D01*
X258215D01*
X257872Y100757D01*
X252596D01*
X245193Y108160D01*
Y124420D01*
X228484Y141129D01*
X224605D01*
G02X224278Y141760I0J400D01*
G03X224499Y142454I-981J695D01*
G03X223297Y143656I-1202J0D01*
G03X222580Y143419I0J-1203D01*
G02X222036Y143483I-238J321D01*
G03X221117Y143910I-919J-775D01*
G03X220383Y143660I0J-1203D01*
G02X219883Y143668I-245J316D01*
G03X219117Y143944I-766J-925D01*
G03X218331Y143651I0J-1201D01*
G01X216797Y145185D01*
Y146923D01*
X217161Y147287D01*
X217386Y147062D01*
X217638D01*
G02X218032Y146593I0J-400D01*
G03X218014Y146385I1184J-207D01*
G03X219216Y145183I1202J0D01*
G03X220037Y145507I0J1202D01*
G02X220535Y145546I273J-292D01*
G03X221210Y145338I676J994D01*
G03X221942Y145587I0J1202D01*
G02X222463Y145557I243J-318D01*
G03X223297Y145221I834J867D01*
G03X223497Y145238I-1J1202D01*
G01X223513Y145240D01*
X225960D01*
Y145592D01*
X226031Y145652D01*
G03X226172Y145958I-260J305D01*
G01Y147062D01*
X229633D01*
X229881Y147310D01*
G37*
G36*
G01X240570Y175385D02*
X245773D01*
X246674Y174484D01*
Y164954D01*
X229384Y147664D01*
X221637D01*
X221605Y147675D01*
G03X221210Y147742I-396J-1135D01*
G03X220815Y147675I1J-1202D01*
G01X220783Y147664D01*
X217635D01*
X216690Y148609D01*
Y149162D01*
G03X216654Y149329I-401J1D01*
G01X216636Y149369D01*
Y151206D01*
X217033Y151603D01*
X217165Y151528D01*
G03X217362Y151476I197J347D01*
G01X217833D01*
G02X218200Y150917I0J-400D01*
G03X218100Y150438I1102J-480D01*
G03X219302Y149236I1202J0D01*
G03X219968Y149437I1J1202D01*
G02X220465Y149393I221J-333D01*
G03X221295Y149061I829J870D01*
G03X222124Y149393I0J1201D01*
G02X222624Y149435I276J-290D01*
G03X223297Y149229I673J996D01*
G03X224358Y149866I0J1202D01*
G01X226178D01*
Y150218D01*
X226249Y150278D01*
G03X226390Y150584I-260J305D01*
G01Y151784D01*
G03X225989Y152186I-402J0D01*
G01X224789D01*
G03X224567Y152119I0J-401D01*
G01X224517Y152086D01*
X224372D01*
G02X224089Y152768I0J400D01*
G01X237226Y165905D01*
G02X237814Y165880I282J-283D01*
G03X238809Y165418I995J840D01*
G03Y168022I0J1302D01*
G03X238629Y168010I-4J-1302D01*
G02X238174Y168406I-55J396D01*
G01Y172711D01*
G03X240570Y175385I-3606J5642D01*
G37*
G36*
G01X240436Y45489D02*
X240515Y45568D01*
X245406D01*
X246090Y44884D01*
Y31313D01*
X245669Y30892D01*
X240857D01*
X240436Y31313D01*
Y45489D01*
G37*
G36*
G01X247221Y45673D02*
X251615D01*
X252273Y45015D01*
Y31103D01*
X252036Y30866D01*
X247118D01*
X246826Y31158D01*
Y45278D01*
X247221Y45673D01*
G37*
G36*
G01X253036Y45804D02*
X259506D01*
X260190Y45120D01*
Y41931D01*
X260611Y41510D01*
X261266D01*
X262028Y40748D01*
Y34830D01*
X261782Y34584D01*
X260979D01*
G03X260868Y34572I-2J-501D01*
G01X260846Y34567D01*
X260610D01*
X260190Y34147D01*
Y31051D01*
X259637Y30498D01*
X253799D01*
X253010Y31287D01*
Y45305D01*
X253036Y45331D01*
Y45804D01*
G37*
G36*
G01X260488Y107707D02*
X261190Y108409D01*
X275534D01*
X276267Y107676D01*
Y103914D01*
X275279Y102926D01*
X261285D01*
X260488Y103723D01*
Y107707D01*
G37*
G36*
G01X261093Y111086D02*
X261635Y111628D01*
X275056D01*
X275534Y111150D01*
Y109588D01*
X275024Y109078D01*
X261380D01*
X261093Y109365D01*
Y111086D01*
G37*
%LPC*%
G75*
G36*
G01X10800Y190162D02*
X10999D01*
G02X13902Y187160I-101J-3002D01*
G02X10899Y184158I-3003J1D01*
G02X7897Y187160I0J3002D01*
G02X10800Y190162I2952J50D01*
G37*
G36*
G01X109556Y162764D02*
G02X109958Y163166I402J0D01*
G01X113260D01*
G02X113662Y162764I0J-402D01*
G01Y161564D01*
G02X113595Y161342I-401J0D01*
G01X113562Y161291D01*
Y161004D01*
G02X114102Y160000I-663J-1004D01*
G02X112900Y158798I-1202J0D01*
G02X111940Y159277I0J1202D01*
G03X111300I-320J-240D01*
G02X110340Y158798I-960J723D01*
G02X109138Y160000I0J1202D01*
G02X109656Y160989I1203J0D01*
G01Y161291D01*
X109623Y161342D01*
G02X109556Y161564I334J222D01*
G01Y162764D01*
G37*
G36*
G01X117060Y129223D02*
G02X118980I960J-723D01*
G03X119620I320J240D01*
G02X120580Y129702I960J-723D01*
G02Y127298I0J-1202D01*
G02X119620Y127777I0J1202D01*
G03X118980I-320J-240D01*
G02X118946Y127734I-960J724D01*
G01X118900Y127679D01*
Y127459D01*
X118929Y127411D01*
G02X119000Y127153I-433J-258D01*
G01Y125953D01*
G02X118499Y125452I-501J0D01*
G01X117299D01*
G02X116977Y125569I0J502D01*
G03X116719I-129J-153D01*
G02X116397Y125452I-322J385D01*
G01X115197D01*
G02X114696Y125953I0J501D01*
G01Y127572D01*
G02X114258Y128500I764J928D01*
G02X115460Y129702I1202J0D01*
G02X116420Y129223I0J-1202D01*
G03X117060I320J240D01*
G37*
G36*
G01X129860D02*
G02X130820Y129702I960J-723D01*
G02X131780Y129223I0J-1202D01*
G03X132420I320J240D01*
G02X133380Y129702I960J-723D01*
G02X134582Y128500I0J-1202D01*
G02X134306Y127733I-1202J-1D01*
G01Y126096D01*
G02X133804Y125594I-502J0D01*
G01X132604D01*
G02X132282Y125712I1J502D01*
G03X132024I-129J-153D01*
G02X131702Y125594I-323J384D01*
G01X130502D01*
G02X130000Y126096I0J502D01*
G01Y127621D01*
G02X129860Y127777I821J878D01*
G03X129220I-320J-240D01*
G02X127300I-960J723D01*
G03X126660I-320J-240D01*
G02X125700Y127298I-960J723D01*
G02Y129702I0J1202D01*
G02X126660Y129223I0J-1202D01*
G03X127300I320J240D01*
G02X129220I960J-723D01*
G03X129860I320J240D01*
G37*
G36*
G01X147454Y128946D02*
X147734Y129227D01*
X147749Y129262D01*
G02X148854Y129991I1105J-473D01*
G02X150056Y128789I0J-1202D01*
G02X149660Y127897I-1203J0D01*
G03X149635Y127628I134J-148D01*
G02X149717Y127468I-398J-305D01*
G01X149760Y127326D01*
X150390D01*
Y125320D01*
X149760D01*
X149717Y125178D01*
G02X149237Y124822I-480J146D01*
G01X147435D01*
X147379Y124771D01*
G02X147153Y124672I-266J299D01*
G01X145455D01*
G02X145178Y124826I40J398D01*
G01X145118Y124904D01*
X142858D01*
G02X142538Y125019I-1J501D01*
G03X142026I-256J-307D01*
G02X141706Y124904I-319J386D01*
G01X139906D01*
G02X139404Y125405I-1J501D01*
G01Y127405D01*
G02X139690Y127858I502J0D01*
G01X139804Y127912D01*
Y128428D01*
X139800Y128450D01*
G02X139771Y128711I1173J262D01*
G02X140973Y129913I1202J0D01*
G02X141971Y129381I0J-1202D01*
G03X142622Y129364I332J223D01*
G02X143582Y129842I960J-725D01*
G02X144546Y129358I0J-1202D01*
G03X145192Y129364I321J239D01*
G02X146170Y129867I978J-699D01*
G02X147270Y129149I0J-1202D01*
G01X147286Y129114D01*
X147454Y128946D01*
G37*
G36*
G01X111300Y134077D02*
G02X110340Y133598I-960J723D01*
G02Y136002I0J1202D01*
G02X111300Y135523I0J-1202D01*
G03X111940I320J240D01*
G02X112900Y136002I960J-723D01*
G02Y133598I0J-1202D01*
G02X111940Y134077I0J1202D01*
G03X111300I-320J-240D01*
G37*
G36*
G01X139987Y134636D02*
G02X139884Y135123I1100J487D01*
G02X141086Y136325I1202J0D01*
G02X142085Y135791I0J-1201D01*
G03X142735Y135770I333J222D01*
G02X143689Y136241I954J-731D01*
G02X144891Y135039I0J-1202D01*
G02X144814Y134615I-1202J-1D01*
G03X145188Y134074I374J-141D01*
G01X147065D01*
G03X147452Y134573I-1J400D01*
G02X147415Y134871I1165J296D01*
G02X148617Y136073I1202J0D01*
G02X149639Y135504I0J-1202D01*
G03X150309Y135490I340J211D01*
G02X151303Y136015I993J-677D01*
G02Y133611I0J-1202D01*
G02X151051Y133638I1J1202D01*
G01X150945Y133661D01*
X150400Y133116D01*
G02X150078Y132957I-396J397D01*
G03X149770Y132388I53J-397D01*
G02X149887Y131871I-1084J-517D01*
G02X148685Y130669I-1202J0D01*
G02X147683Y131207I0J1202D01*
G03X147016I-333J-221D01*
G02X146015Y130670I-1001J664D01*
G02X144813Y131872I0J1202D01*
G02X144926Y132382I1202J1D01*
G03X144564Y132952I-362J170D01*
G01X142417D01*
G03X142035Y132430I-1J-400D01*
G02X142092Y132066I-1145J-366D01*
G02X139688I-1202J0D01*
G02X139745Y132430I1202J-2D01*
G03X139363Y132952I-381J122D01*
G01X139108D01*
X139048Y132873D01*
G02X138864Y132738I-320J243D01*
G01X138732Y132691D01*
Y132389D01*
X138864Y132342D01*
G02X139130Y131964I-136J-378D01*
G01Y130164D01*
G02X138729Y129762I-401J-1D01*
G01X136729D01*
G02X136328Y130164I1J402D01*
G01Y130502D01*
X131586D01*
G02X131189Y130667I1J562D01*
G01X130663Y131193D01*
X129335D01*
X129277Y131093D01*
G02X128236Y130491I-1041J599D01*
G02Y132895I0J1202D01*
G02X128427Y132880I2J-1202D01*
G01X128528Y132864D01*
X128699Y133034D01*
G02X128942Y133185I441J-438D01*
G01X129079Y133230D01*
Y133595D01*
G02X129379Y133984I402J0D01*
G03X129662Y134478I-102J387D01*
G02X129618Y134800I1158J322D01*
G02X130820Y136002I1202J0D01*
G02X131780Y135523I0J-1202D01*
G03X132420I320J240D01*
G02X133380Y136002I960J-723D01*
G02X134582Y134800I0J-1202D01*
G02X134413Y134186I-1202J1D01*
G03X134468Y133921I172J-103D01*
G02X134635Y133595I-235J-326D01*
G01Y131626D01*
X136328D01*
Y131964D01*
G02X136594Y132342I402J0D01*
G01X136726Y132389D01*
Y132691D01*
X136594Y132738D01*
G02X136328Y133116I136J378D01*
G01Y134916D01*
G02X136729Y135318I401J1D01*
G01X138729D01*
G02X139130Y134916I-1J-402D01*
G01Y134074D01*
X139621D01*
G03X139987Y134636I0J400D01*
G37*
G36*
G01X126834Y135966D02*
Y136330D01*
X128412D01*
Y135978D01*
X128483Y135918D01*
G02X128624Y135612I-260J-305D01*
G01Y134412D01*
G02X128223Y134010I-401J-1D01*
G01X126606D01*
G02X125700Y133598I-906J790D01*
G02X124740Y134077I0J1202D01*
G03X124100I-320J-240D01*
G02X123140Y133598I-960J723D01*
G02Y136002I0J1202D01*
G02X124100Y135523I0J-1202D01*
G03X124740I320J240D01*
G02X125700Y136002I960J-723D01*
G02X126120Y135926I-1J-1202D01*
G01X126154Y135914D01*
X126758D01*
G02X126834Y135966I263J-303D01*
G37*
G36*
G01X114733Y143692D02*
G02X115135Y144094I402J0D01*
G01X118437D01*
G02X118839Y143692I0J-402D01*
G01Y142492D01*
G02X118772Y142270I-401J0D01*
G03X118808Y142008I167J-111D01*
G02X118980Y141823I-789J-906D01*
G03X119620I320J240D01*
G02X121540I960J-723D01*
G03X122180I320J240D01*
G02X124100I960J-723D01*
G03X124740I320J240D01*
G02X124912Y142008I961J-721D01*
G01Y143548D01*
G02X125314Y143950I402J0D01*
G01X128616D01*
G02X129018Y143548I0J-402D01*
G01Y142033D01*
G02X129462Y141100I-758J-933D01*
G02X128260Y139898I-1202J0D01*
G02X127300Y140377I0J1202D01*
G03X126660I-320J-240D01*
G02X124740I-960J723D01*
G03X124100I-320J-240D01*
G02X122180I-960J723D01*
G03X121540I-320J-240D01*
G02X119620I-960J723D01*
G03X118980I-320J-240D01*
G02X117060I-960J723D01*
G03X116420I-320J-240D01*
G02X114500I-960J723D01*
G03X113860I-320J-240D01*
G02X111940I-960J723D01*
G03X111300I-320J-240D01*
G02X110340Y139898I-960J723D01*
G02Y142302I0J1202D01*
G02X111300Y141823I0J-1202D01*
G03X111940I320J240D01*
G02X113860I960J-723D01*
G03X114500I320J240D01*
G02X114733Y142057I960J-723D01*
G01Y143692D01*
G37*
G36*
G01X124740Y154423D02*
G02X126660I960J-723D01*
G03X127300I320J240D01*
G02X128260Y154902I960J-723D01*
G02X129462Y153700I0J-1202D01*
G02X129071Y152812I-1202J-1D01*
G01X129006Y152753D01*
Y152539D01*
X129039Y152488D01*
G02X129106Y152266I-334J-222D01*
G01Y151066D01*
G02X128704Y150664I-402J0D01*
G01X125402D01*
G02X125000Y151066I0J402D01*
G01Y152723D01*
G02X124740Y152977I700J977D01*
G03X124100I-320J-240D01*
G02X122180I-960J723D01*
G03X121540I-320J-240D01*
G02X119620I-960J723D01*
G03X118980I-320J-240D01*
G02X117060I-960J723D01*
G03X116420I-320J-240D01*
G02X114500I-960J723D01*
G03X113860I-320J-240D01*
G02X111940I-960J723D01*
G03X111300I-320J-240D01*
G02X110340Y152498I-960J723D01*
G02Y154902I0J1202D01*
G02X111300Y154423I0J-1202D01*
G03X111940I320J240D01*
G02X113860I960J-723D01*
G03X114500I320J240D01*
G02X116420I960J-723D01*
G03X117060I320J240D01*
G02X118980I960J-723D01*
G03X119620I320J240D01*
G02X121540I960J-723D01*
G03X122180I320J240D01*
G02X124100I960J-723D01*
G03X124740I320J240D01*
G37*
G36*
G01X150322Y159744D02*
G02X150724Y160146I402J0D01*
G01X154026D01*
G02X154428Y159744I0J-402D01*
G01Y158119D01*
G02X154941Y157134I-689J-985D01*
G02X153739Y155932I-1202J0D01*
G02X152816Y156364I0J1202D01*
G03X152191Y156350I-307J-256D01*
G02X151986Y156141I-954J731D01*
G01Y154555D01*
G02X151845Y154249I-401J-1D01*
G01X151774Y154189D01*
Y153838D01*
X150196D01*
Y154189D01*
X150125Y154249D01*
G02X149984Y154555I260J305D01*
G01Y155755D01*
G02X150050Y155977I401J1D01*
G01X150084Y156027D01*
Y156301D01*
X149787D01*
X149727Y156226D01*
G02X148787Y155773I-940J749D01*
G02Y158177I0J1202D01*
G02X149672Y157788I0J-1201D01*
G03X150283Y157814I295J270D01*
G02X150367Y157910I945J-742D01*
G01X150422Y157968D01*
Y158271D01*
X150389Y158322D01*
G02X150322Y158544I334J222D01*
G01Y159744D01*
G37*
G36*
G01X124100Y159277D02*
G02X123140Y158798I-960J723D01*
G02Y161202I0J1202D01*
G02X124100Y160723I0J-1202D01*
G03X124740I320J240D01*
G02X125700Y161202I960J-723D01*
G02Y158798I0J-1202D01*
G02X124740Y159277I0J1202D01*
G03X124100I-320J-240D01*
G37*
G36*
G01X116485Y169916D02*
X116532Y170049D01*
G02X116910Y170316I378J-134D01*
G01X118710D01*
G02X119112Y169914I0J-402D01*
G01Y167914D01*
G02X118982Y167618I-402J0D01*
G03X118945Y167068I270J-294D01*
G02X118980Y167023I-931J-760D01*
G03X119620I320J240D01*
G02X120580Y167502I960J-723D01*
G02Y165098I0J-1202D01*
G02X119620Y165577I0J1202D01*
G03X118980I-320J-240D01*
G02X117060I-960J723D01*
G03X116420I-320J-240D01*
G02X115460Y165098I-960J723D01*
G02X114260Y166225I0J1202D01*
G01X114221Y166265D01*
G02X113956Y166902I636J638D01*
G01Y167488D01*
X113824Y167536D01*
G02X113556Y167914I134J379D01*
G01Y169914D01*
G02X113958Y170316I402J0D01*
G01X115758D01*
G02X116136Y170049I0J-401D01*
G01X116183Y169916D01*
X116485D01*
G37*
G36*
G01X242686Y191014D02*
G03X242694Y191591I-273J292D01*
G02X242306Y192518I913J927D01*
G02X244910I1302J0D01*
G02X244498Y191568I-1301J0D01*
G03X244490Y190991I273J-292D01*
G02X244878Y190064I-913J-927D01*
G02X242274I-1302J0D01*
G02X242686Y191014I1301J0D01*
G37*
G36*
G01X241804Y197300D02*
G03X241214Y197305I-297J-268D01*
G02X240261Y196890I-953J887D01*
G02Y199494I0J1302D01*
G02X241228Y199063I-1J-1302D01*
G03X241818Y199058I297J268D01*
G02X242771Y199473I953J-887D01*
G02Y196869I0J-1302D01*
G02X241804Y197300I1J1302D01*
G37*
G36*
G01X242533Y217732D02*
G03X241927Y217769I-319J-241D01*
G02X240993Y217374I-934J907D01*
G02Y219978I0J1302D01*
G02X242031Y219462I0J-1302D01*
G03X242637Y219425I319J241D01*
G02X243571Y219820I934J-907D01*
G02Y217216I0J-1302D01*
G02X242533Y217732I0J1302D01*
G37*
G36*
G01X256858Y234866D02*
X257057D01*
G02X259960Y231864I-101J-3002D01*
G02X256957Y228862I-3003J1D01*
G02X253955Y231864I0J3002D01*
G02X256858Y234866I2952J50D01*
G37*
G36*
G01X261110Y91277D02*
Y92677D01*
G02X261612Y93178I502J-1D01*
G01X264312D01*
G02X264814Y92677I1J-501D01*
G01Y91277D01*
G02X264312Y90776I-502J1D01*
G01X261612D01*
G02X261110Y91277I-1J501D01*
G37*
G36*
G01X227300Y79614D02*
Y81205D01*
G02X227701Y81606I401J0D01*
G01X228901D01*
G02X229207Y81465I1J-401D01*
G01X229267Y81394D01*
X229618D01*
Y79816D01*
X229255D01*
G02X229202Y79740I-353J190D01*
G01Y79494D01*
X229232Y79446D01*
G02X229406Y78822I-1028J-623D01*
G02X227002I-1202J0D01*
G02X227300Y79614I1201J0D01*
G37*
G36*
G01X233565Y79326D02*
G03X233487Y79820I-347J198D01*
G02X233095Y80708I810J888D01*
G02X235499I1202J0D01*
G02X235492Y80577I-1202J-1D01*
G03X235889Y80134I398J-43D01*
G01X240594D01*
G02X240996Y79732I0J-402D01*
G01Y78988D01*
X241476D01*
X241530Y79030D01*
G02X242274Y79288I744J-944D01*
G02Y76884I0J-1202D01*
G02X241479Y77184I0J1203D01*
G01X240340D01*
G02X239892Y77304I0J896D01*
G01X239846Y77330D01*
X235842D01*
G02X235523Y77488I0J401D01*
G03X235057Y77616I-317J-243D01*
G02X234610Y77530I-447J1116D01*
G02X233408Y78732I0J1202D01*
G02X233565Y79326I1202J0D01*
G37*
G36*
G01X228120Y76900D02*
G02X228511Y76713I0J-502D01*
G03X229165Y76758I311J251D01*
G02X230281Y77389I1116J-671D01*
G02Y74785I0J-1302D01*
G02X229317Y75211I-1J1302D01*
G03X228622Y74942I-295J-269D01*
G01Y73999D01*
G02X228336Y73546I-502J0D01*
G01X228222Y73492D01*
Y73065D01*
G02X227985Y72419I-1002J1D01*
G02X226688Y71231I-1297J114D01*
G02X225386Y72533I0J1302D01*
G02X225834Y73515I1302J-1D01*
G03X225878Y73761I-132J150D01*
G02X225822Y73944I443J236D01*
G03X225391Y74298I-398J-45D01*
G02X225350Y74296I-45J501D01*
G02X224848Y74799I1J503D01*
G01Y75599D01*
G02X225350Y76102I502J1D01*
G02X225391Y76100I-4J-503D01*
G03X225822Y76454I33J399D01*
G02X226320Y76900I498J-55D01*
G01X228120D01*
G37*
G36*
G01X263154Y87874D02*
G02X262565Y88964I714J1090D01*
G02X265169I1302J0D01*
G02X264555Y87859I-1301J0D01*
G03X264548Y87185I212J-339D01*
G02X265137Y86095I-714J-1090D01*
G02X262533I-1302J0D01*
G02X263147Y87200I1301J0D01*
G03X263154Y87874I-212J339D01*
G37*
G54D40*
X110340Y137950D03*
X118020D03*
Y131650D03*
X133380Y137950D03*
X155134Y128085D03*
X148812Y137969D03*
X110340Y156850D03*
X118020D03*
X155130Y149811D03*
X155134Y144376D03*
X118020Y163150D03*
X229573Y131779D03*
G54D39*
X4395Y8312D03*
X8956Y8587D03*
X20189Y10646D03*
X6478Y35852D03*
X17624Y35573D03*
X12722Y34184D03*
X9702Y49620D03*
X12173Y53815D03*
X9195Y67728D03*
X16746Y88993D03*
X15408Y74058D03*
X11889Y106861D03*
X8926Y120520D03*
X16746Y140068D03*
X13687Y128252D03*
X10082Y158101D03*
X18431Y176916D03*
X14641Y193627D03*
X12945Y179859D03*
X10648Y209602D03*
X7932Y223205D03*
X18262Y227622D03*
X8867Y233856D03*
X131965Y231827D03*
X75049Y120576D03*
X80113Y116145D03*
X153489Y125282D03*
X144477Y33146D03*
X125221Y66950D03*
X122781Y70770D03*
X225530Y104968D03*
X216399Y105420D03*
X269024Y189952D03*
%LPD*%
G75*
G54D10*
X3966Y3938D03*
X2780Y21388D03*
X2875Y12662D03*
X4395Y8312D03*
X2875Y36886D03*
X6478Y35852D03*
X6671Y42994D03*
X2780Y50248D03*
X2875Y68858D03*
Y61182D03*
X3507Y86522D03*
X2724Y80008D03*
X5037Y98680D03*
X2991Y104287D03*
X4358Y92827D03*
X6785Y113891D03*
X6837Y109581D03*
X3201Y119938D03*
X3096Y113749D03*
X5113Y142342D03*
X3201Y128578D03*
X2834Y134409D03*
X7130Y158241D03*
X5190Y150142D03*
X3254Y145868D03*
X2886Y156014D03*
X2938Y174149D03*
X2833Y163741D03*
X7101Y171873D03*
X2833Y189078D03*
X2938Y181509D03*
X3044Y211525D03*
Y202956D03*
X2938Y196490D03*
X5321Y206010D03*
X3097Y220041D03*
X4463Y236809D03*
X2992Y230502D03*
X11536Y3785D03*
X20559Y3250D03*
X8037Y3884D03*
X17199Y19242D03*
X16658Y5986D03*
X8956Y8587D03*
X20189Y10646D03*
X22493Y32258D03*
X7605Y26849D03*
X7520Y22834D03*
X17072Y28498D03*
Y24060D03*
X17624Y35573D03*
X12722Y34184D03*
X14682Y54046D03*
X9221Y54146D03*
X11789Y40712D03*
X9026Y41235D03*
X14289Y47142D03*
X9702Y49620D03*
X12173Y53815D03*
X10848Y73982D03*
X9195Y67728D03*
X22518Y76100D03*
X22354Y87915D03*
X11689Y86522D03*
X16746Y88993D03*
X15408Y74058D03*
X14424Y106998D03*
X13066Y96310D03*
X11889Y106861D03*
X11995Y122843D03*
X8926Y120520D03*
X20567Y138723D03*
X22904Y130863D03*
X12760Y141348D03*
X12989Y133778D03*
X7942Y130873D03*
X16746Y140068D03*
X23931Y133956D03*
X13687Y128252D03*
X13829Y158008D03*
X12836Y149683D03*
X10082Y158101D03*
X18431Y176916D03*
X20231Y189219D03*
X21140Y181993D03*
X14641Y193627D03*
X12945Y179859D03*
X12761Y208545D03*
X7934Y209594D03*
X10648Y209602D03*
X7932Y223205D03*
X18262Y227622D03*
X20685Y233123D03*
X8353Y237230D03*
X8867Y233856D03*
X16279Y233235D03*
X27277Y3463D03*
X33684Y4571D03*
X35765Y4855D03*
X36851Y37838D03*
X33851D03*
X29361Y33691D03*
X27231Y33769D03*
X36936Y41853D03*
X33936D03*
X37125Y86568D03*
X37330Y84368D03*
X25981Y133499D03*
X28438Y132142D03*
X28434Y129741D03*
X35875Y160568D03*
X25312Y143526D03*
X29586Y143487D03*
X35826Y163127D03*
X29171Y182738D03*
X26962Y183001D03*
X38162Y237597D03*
X31162D03*
X26067Y233866D03*
X28276Y233708D03*
X55639Y15432D03*
X49685Y27565D03*
X49674Y29672D03*
X42005Y29525D03*
X44745Y29558D03*
X41984Y26981D03*
X44798Y26954D03*
X59163Y46654D03*
X59189Y42078D03*
X59163Y44418D03*
X56901Y44392D03*
X56927Y42052D03*
X56901Y46628D03*
X54973Y56715D03*
X57952Y73958D03*
X49414Y57817D03*
X49528Y59914D03*
X43093Y89073D03*
X48412Y113873D03*
X48347Y110914D03*
X48831Y132967D03*
Y130450D03*
X58626Y157359D03*
X47737Y155364D03*
X47676Y153245D03*
X47614Y161713D03*
X47596Y163877D03*
X58996Y171692D03*
X57620Y210253D03*
X47624Y212508D03*
X47267Y204200D03*
X47686Y208593D03*
X55787Y226635D03*
X47810Y214641D03*
X52162Y237597D03*
X45162D03*
X75442Y38746D03*
X73436Y36836D03*
X73443Y38836D03*
X75490Y36746D03*
X64482Y49884D03*
X73243Y46539D03*
X75404Y45829D03*
X67745Y49828D03*
X61448Y69074D03*
X74987Y65017D03*
X75144Y62325D03*
X70083Y83803D03*
X67727Y83899D03*
X60104Y81219D03*
X64364Y74131D03*
X64204Y81307D03*
X67782Y86178D03*
X70073D03*
X62434Y107361D03*
X65262Y103345D03*
X74830Y103574D03*
X76112Y105311D03*
X66077Y96657D03*
X65718Y99829D03*
X75049Y120576D03*
X73030Y138217D03*
X68797Y142198D03*
X64087Y132967D03*
X64240Y130863D03*
X65508Y157415D03*
X60808Y157333D03*
X69692Y174834D03*
X69662Y178023D03*
X65930Y182125D03*
X72099Y180100D03*
X63139Y208121D03*
X60623Y196223D03*
X71576Y209252D03*
X73180Y237756D03*
X66124D03*
X60434Y237731D03*
X79997Y21120D03*
X91510Y12754D03*
X80048Y11158D03*
X89748Y32673D03*
X80479Y33252D03*
X93737Y33213D03*
X93668Y36851D03*
X87224Y51397D03*
X92395Y47425D03*
X80600Y53537D03*
X87710Y68984D03*
X88010Y64176D03*
X87995Y60151D03*
X92686Y79523D03*
X85296Y89529D03*
X80113Y116145D03*
X87208Y114879D03*
X85153Y114873D03*
X83049D03*
X83633Y125531D03*
X85816D03*
X85842Y123453D03*
X86251Y142619D03*
X86277Y140279D03*
X83989Y142593D03*
X84015Y140253D03*
X86251Y144855D03*
X83989Y144829D03*
X89647Y184086D03*
X84241Y178896D03*
X89470Y180719D03*
X78104Y184151D03*
X82014Y183937D03*
X79446Y180203D03*
X76921Y180571D03*
X91325Y207580D03*
X89546Y228596D03*
X86459Y218843D03*
X91687Y219143D03*
X83026Y219101D03*
X80640Y218577D03*
X87162Y237597D03*
X80162D03*
X103661Y10875D03*
X103554Y15627D03*
X103446Y20129D03*
X105661Y10875D03*
X105554Y15627D03*
X105446Y20129D03*
X107449Y36278D03*
X104978Y36337D03*
X96355Y50728D03*
X96151Y44159D03*
X96274Y54128D03*
X94772Y58013D03*
X96636Y59004D03*
X99154Y67457D03*
X107088Y71334D03*
X109159Y71684D03*
X98571Y79573D03*
X100182Y83321D03*
X101172Y94616D03*
X110414Y112700D03*
X100523Y117259D03*
X97941Y119679D03*
X97973Y117194D03*
X100458Y119647D03*
X102958D03*
X103023Y117259D03*
X110598Y115183D03*
X110340Y141100D03*
Y134800D03*
Y137950D03*
Y153700D03*
Y160000D03*
Y156850D03*
X94146Y192131D03*
X107615Y193290D03*
X103387Y183787D03*
X110598Y201287D03*
X107289Y202260D03*
X107547Y209250D03*
X97962Y209134D03*
X95881Y219295D03*
X100768Y219124D03*
X110721Y229407D03*
X108797Y221968D03*
X108162Y237597D03*
X101162D03*
X94162D03*
X122248Y17778D03*
X122534Y13137D03*
X117614Y11105D03*
X125171Y26353D03*
X116654Y36413D03*
X114559Y36563D03*
X127423Y26327D03*
X112476Y36834D03*
X125221Y66950D03*
X122781Y70770D03*
X114244Y70780D03*
X116715Y70721D03*
X113980Y90250D03*
X118333Y90103D03*
X113980Y85368D03*
X118332Y85339D03*
X114068Y95456D03*
X117833D03*
X126182Y125142D03*
X126539Y113954D03*
X128537Y114060D03*
X121956Y120409D03*
X119747D03*
X116592D03*
X114401Y120442D03*
X115460Y141100D03*
X120580D03*
X125700D03*
X118020Y137950D03*
X125700Y134800D03*
X118020Y131650D03*
X115460Y128500D03*
X120580D03*
X125700D03*
X128236Y131693D03*
X125700Y137950D03*
X123140Y128500D03*
Y141100D03*
X128260D03*
Y128500D03*
X118020Y141100D03*
X112900D03*
Y134800D03*
X123140D03*
X118020Y128500D03*
X115460Y153700D03*
X120580D03*
X125700D03*
X118020Y156850D03*
X125700Y160000D03*
Y156850D03*
X123140Y153700D03*
X128260D03*
X112900D03*
X118020D03*
X112900Y160000D03*
X123140D03*
X115460Y166300D03*
X120580D03*
X125700D03*
X118020Y163150D03*
X123140Y166300D03*
X128260D03*
X118020D03*
X119949Y192301D03*
X116161D03*
X113116Y201746D03*
X114598Y203880D03*
X126379Y200964D03*
X126968Y219488D03*
X118252Y217911D03*
X120499Y214803D03*
X126902Y222246D03*
X126679Y214372D03*
X120601Y217250D03*
X122162Y237597D03*
X115162D03*
X141518Y20489D03*
X138494Y20988D03*
X136074Y21015D03*
X141737Y10048D03*
X143737Y10011D03*
X141737Y12731D03*
X128905Y11260D03*
X144477Y33146D03*
X130105Y26300D03*
X137009Y38348D03*
X138760Y23622D03*
X135263D03*
X144382Y24268D03*
X132525Y26523D03*
X130578Y49888D03*
X130637Y52359D03*
X145698Y71170D03*
X138108Y67004D03*
X143155Y71409D03*
X146013Y87959D03*
X142365Y79400D03*
X138885Y94299D03*
X130205Y93575D03*
X138739Y97262D03*
X139211Y115725D03*
X132720Y113927D03*
X130537Y114032D03*
X133380Y141100D03*
X130820Y134800D03*
X133380D03*
X130820Y128500D03*
X143608Y138131D03*
X143689Y135039D03*
X143582Y128640D03*
X140890Y132066D03*
X146015Y131872D03*
X143663Y140967D03*
X133380Y137950D03*
Y128500D03*
X141086Y135123D03*
X140973Y128711D03*
X133380Y156850D03*
X140969Y153904D03*
X130820Y160000D03*
X143564Y159878D03*
X143713Y150811D03*
X143649Y144053D03*
X143445Y153729D03*
X141321Y159910D03*
X133380Y160000D03*
X130820Y166300D03*
X133380Y163150D03*
X143888Y166158D03*
X141026Y162886D03*
X133380Y166300D03*
X141343Y166478D03*
X132413Y193584D03*
X133836Y199665D03*
X130979Y200964D03*
X137264Y214325D03*
X137663Y222231D03*
X139160Y218101D03*
X139671Y214211D03*
X142144Y214147D03*
X143162Y237597D03*
X136162D03*
X129162D03*
X131965Y231827D03*
X157883Y9068D03*
X160034Y9142D03*
X158405Y14515D03*
X163056Y10249D03*
X159979Y37182D03*
X156979D03*
X149646Y29391D03*
X150100Y23537D03*
X152174Y23448D03*
X151645Y29316D03*
X160608Y23040D03*
X159836Y52986D03*
X156836D03*
X159907Y43547D03*
X156907D03*
X160122Y59421D03*
X157122D03*
X160083Y69426D03*
X146614Y90834D03*
X148368Y87707D03*
X158657Y82624D03*
X158689Y80139D03*
X153074Y82559D03*
X155817Y82591D03*
X153009Y79913D03*
X155784Y80042D03*
X159978Y75212D03*
X147636Y102246D03*
X148662Y93264D03*
X153604Y114326D03*
X158576Y114646D03*
X153489Y125282D03*
X151303Y134813D03*
X148617Y134871D03*
X148854Y128789D03*
X158842Y128563D03*
X156534Y134645D03*
X158883Y140844D03*
X155134Y128085D03*
X156458Y137820D03*
X159167Y137966D03*
X148812Y137969D03*
X146287Y141067D03*
X148685Y131871D03*
X148812Y140858D03*
X151435Y128722D03*
X146170Y128665D03*
X158936Y131449D03*
X153635Y137844D03*
X161577Y137739D03*
X151234Y157078D03*
X158905Y153934D03*
X161291Y150777D03*
X155130Y149811D03*
X155134Y144376D03*
X161310Y144007D03*
X149277Y144370D03*
Y150430D03*
X156257Y160040D03*
X156559Y156837D03*
X158740Y157084D03*
X148787Y156975D03*
X146238Y153784D03*
X148734Y153866D03*
X151940Y144254D03*
X146754Y144310D03*
Y150490D03*
X151979Y150390D03*
X161484Y156977D03*
X153739Y157134D03*
X158943Y150746D03*
X158871Y144142D03*
X159008Y166095D03*
X149186Y166413D03*
X155504Y166841D03*
X153719Y169460D03*
X148627Y163151D03*
X146391Y163146D03*
X152292Y166605D03*
X146212Y166283D03*
X158957Y163332D03*
X151193Y163093D03*
X148276Y205445D03*
X152398Y231428D03*
X157162Y237597D03*
X150162D03*
X171932Y9881D03*
X172199Y17374D03*
X179718Y9592D03*
X175498Y14466D03*
X177498D03*
X179627Y14492D03*
X167181Y62992D03*
X178816Y63383D03*
Y78686D03*
X174286Y90834D03*
X164093Y87952D03*
X170090Y87794D03*
X168666Y130227D03*
X168024Y136268D03*
X167270Y139489D03*
X166573Y143879D03*
X172416Y147418D03*
X169036Y149613D03*
X168410Y158419D03*
X167226Y152124D03*
Y155274D03*
X163808Y150747D03*
X163921Y143964D03*
X168543Y164693D03*
X170803Y173038D03*
X180354Y164635D03*
X166007Y178093D03*
X167134Y171629D03*
X169526Y176159D03*
X178221Y167184D03*
X166979Y187813D03*
X171168Y210964D03*
X175993Y211242D03*
X171152Y217542D03*
X175877D03*
X180601D03*
X171231Y213342D03*
X171167Y215442D03*
X175954Y213342D03*
X175917Y215442D03*
X180634Y213344D03*
X180698Y215444D03*
X171152Y233412D03*
X175877D03*
X180601D03*
X178309Y237756D03*
X173677Y237604D03*
X164162Y237597D03*
X180519Y235511D03*
X180554Y237611D03*
X175836Y235512D03*
X175968Y237608D03*
X171182Y235512D03*
X171035Y237702D03*
X181350Y16378D03*
X193681Y9523D03*
X183173Y17610D03*
X183288Y25858D03*
X180759Y37591D03*
X183046Y23688D03*
X181589Y22040D03*
X181649Y48174D03*
X197249Y46394D03*
X197328Y48683D03*
X197301Y50944D03*
X197196Y53042D03*
X190294Y50704D03*
X182151Y101801D03*
X182175Y97041D03*
X182151Y112716D03*
X191661Y142447D03*
X195761Y136471D03*
X186617Y131388D03*
X186132Y142477D03*
X191823Y138488D03*
X191830Y136384D03*
X193672Y142748D03*
X195809Y140475D03*
X195758Y138475D03*
X195855Y142547D03*
X191661Y146415D03*
Y150352D03*
Y154289D03*
X191532Y158165D03*
X195878Y158226D03*
Y154289D03*
Y150352D03*
X195762Y146247D03*
X186094Y152320D03*
X193770Y154036D03*
Y146066D03*
X193896Y150624D03*
X184208Y160605D03*
X193827Y158448D03*
X186262Y158628D03*
X197876Y158329D03*
X197874Y154150D03*
X197878Y150395D03*
X197775Y146378D03*
X195470Y168292D03*
X191801Y168168D03*
Y166000D03*
X191651Y161976D03*
X186617Y173252D03*
X193759Y161892D03*
X195794Y162096D03*
X183006Y163158D03*
X195267Y164239D03*
X195270Y166292D03*
X180649Y211133D03*
X185481Y211245D03*
X190082Y211248D03*
X194890Y211247D03*
X194961Y208731D03*
X185326Y217542D03*
X190050D03*
X194774D03*
X194906Y227392D03*
X185415Y213344D03*
X185320Y215442D03*
X190198Y213345D03*
X190166Y215445D03*
X194884Y215444D03*
X194979Y213346D03*
X193658Y223819D03*
X185326Y233412D03*
X190050D03*
X194774D03*
X192790Y237120D03*
X187933Y237406D03*
X182956Y237536D03*
X197392Y236202D03*
X195279Y236193D03*
X190054Y235550D03*
X190033Y237650D03*
X185295Y235512D03*
X185179Y237609D03*
X209142Y19487D03*
X199142Y14836D03*
X204691Y30171D03*
X212565Y35327D03*
X200775Y29958D03*
X198561Y37588D03*
X198475Y35489D03*
X212369Y37654D03*
X204609Y38181D03*
Y35787D03*
X198225Y30183D03*
X214017Y46416D03*
X204667Y46058D03*
X209559Y46053D03*
X204521Y48158D03*
X204716Y40279D03*
X204568Y50258D03*
X210768Y47899D03*
X212316Y39864D03*
X214054Y48603D03*
X198681Y39685D03*
X213081Y82628D03*
X212980Y78438D03*
X212895Y87097D03*
X213082Y80588D03*
X212980Y84845D03*
X211587Y136301D03*
X215368Y136447D03*
X203723Y136301D03*
X215234Y140427D03*
X211492Y142414D03*
X207726Y140258D03*
X207772Y138258D03*
X207743Y142258D03*
X211585Y138317D03*
X203511Y140293D03*
X199911Y138455D03*
X199831Y142452D03*
X199942Y140455D03*
X203406Y142307D03*
X203700Y138301D03*
X211766Y140309D03*
X199747Y136303D03*
X201874Y154029D03*
X211492Y146414D03*
X203613D03*
X200000Y146658D03*
X215196Y146642D03*
X201878Y150284D03*
X207530Y151925D03*
X213242Y150361D03*
X213194Y154278D03*
X215289Y157952D03*
X211460Y158134D03*
X203414Y158267D03*
X199874Y158226D03*
X215432Y144446D03*
X211492Y144414D03*
X203748Y160239D03*
X215225Y154345D03*
X207549Y157951D03*
Y146414D03*
X205531Y151852D03*
X203521Y151850D03*
X209577Y152160D03*
X211646Y152295D03*
X207608Y160100D03*
X211423Y160134D03*
X199687Y160218D03*
X207532Y144414D03*
X215301Y150535D03*
X203613Y144414D03*
X199871Y150221D03*
X199869Y154003D03*
X199590Y144507D03*
X199857Y168157D03*
X203526Y168339D03*
X211728Y168354D03*
X207490Y162163D03*
X211751Y166178D03*
X211742Y164178D03*
X203674Y166344D03*
X203854Y162264D03*
X199660Y162226D03*
X211604Y162182D03*
X199276Y164235D03*
X199226Y166235D03*
X207428Y164283D03*
X207533Y166347D03*
X211161Y207758D03*
X211065Y211392D03*
X199450Y211194D03*
X204275Y211225D03*
X211141Y205349D03*
X206649Y208136D03*
X199499Y217542D03*
X204223Y217528D03*
X203746Y228241D03*
X214425Y222707D03*
X206601Y213367D03*
X206152Y228285D03*
X214998Y227887D03*
X204224Y215423D03*
X204320Y213325D03*
X199602Y215391D03*
X199570Y213291D03*
X199216Y234252D03*
X203598Y237589D03*
X212097Y233679D03*
X207742Y233527D03*
X208483Y235492D03*
X210906Y235428D03*
X201595Y236461D03*
X199497Y236350D03*
X212882Y236210D03*
X203640Y235489D03*
X228318Y19629D03*
X220439Y35358D03*
X225163Y35691D03*
X231894Y28974D03*
X220551Y37636D03*
X215685Y37978D03*
X215714Y35519D03*
X225181Y38004D03*
X225163Y46053D03*
X217179Y46424D03*
X221890Y48604D03*
X225150Y48334D03*
X228313Y48071D03*
X220683Y39977D03*
X225287Y40318D03*
X231188Y50888D03*
X228148Y50595D03*
X215870Y40134D03*
X217167Y48583D03*
X221892Y50773D03*
X225074Y50602D03*
X226688Y72533D03*
X220624Y72785D03*
X224423Y72655D03*
X220508Y74882D03*
X228204Y78822D03*
X230281Y76087D03*
X223888Y82688D03*
X230329Y78843D03*
X220187Y82628D03*
X225530Y104968D03*
X216399Y105420D03*
X219782Y136537D03*
X229573Y131779D03*
X223297Y142454D03*
X223317Y136552D03*
X219629Y138532D03*
X215503Y138443D03*
X219345Y140755D03*
X215517Y142407D03*
X221117Y142708D03*
X219117Y142742D03*
X223094Y138821D03*
X223297Y154293D03*
Y146423D03*
Y150431D03*
X223572Y158369D03*
X221307Y154493D03*
X217247Y154311D03*
X219302Y150438D03*
X221295Y150263D03*
X219216Y146385D03*
X221210Y146540D03*
X215514Y160011D03*
X219245Y154403D03*
X221360Y158199D03*
X219360Y158176D03*
X217329Y158215D03*
X217206Y146527D03*
X217297Y150375D03*
X223539Y161908D03*
X223281Y168068D03*
X219316Y168131D03*
X215517D03*
X228558Y173329D03*
X231706Y169711D03*
X219316Y164131D03*
X223141Y165894D03*
X221329Y161949D03*
X219316Y166131D03*
X215468D03*
X215550Y162061D03*
X219329Y161970D03*
X215544Y164132D03*
X232550Y210924D03*
X226496Y210947D03*
X226270Y222642D03*
X222215Y223576D03*
X225908Y216561D03*
X226060Y213637D03*
X221501Y215279D03*
X224230Y224303D03*
X221629Y213095D03*
X228845Y216177D03*
X229890Y233449D03*
X224199Y233500D03*
X221471Y233417D03*
X217079Y233836D03*
X223720Y237493D03*
X230720D03*
X220418Y235505D03*
X218027Y235761D03*
X228210Y234964D03*
X231662Y234805D03*
X226671Y233535D03*
X248065Y35784D03*
X233037Y35283D03*
X246174Y22836D03*
X238307Y35577D03*
X237761Y30121D03*
X235983Y35660D03*
X233121Y37382D03*
X241201Y35731D03*
X243857D03*
X241319Y38248D03*
X243975D03*
X247960Y40807D03*
X233037Y46171D03*
X233096Y48413D03*
X233069Y39556D03*
X241306Y40728D03*
X243936Y40596D03*
X237469Y58619D03*
X242274Y78086D03*
X234297Y80708D03*
X236115Y90376D03*
X234610Y78732D03*
X233021Y94047D03*
X239248Y111454D03*
X243666Y123204D03*
X243424Y177936D03*
X248687Y164735D03*
X236131Y166672D03*
X238809Y166720D03*
X245653Y173011D03*
X244859Y184603D03*
X242318Y185891D03*
X243608Y192518D03*
X243576Y190064D03*
X239803Y203406D03*
X243616Y195560D03*
X242771Y198171D03*
X240261Y198192D03*
X233264Y222850D03*
X241930Y215064D03*
X248555Y222036D03*
X242119Y228136D03*
X249119D03*
X240993Y218676D03*
X243571Y218518D03*
X237720Y237493D03*
X244720D03*
X242225Y232446D03*
X249225D03*
X233230Y233408D03*
X253622Y21989D03*
X251116Y35784D03*
X256718Y35706D03*
X258718Y35701D03*
X260741Y35626D03*
X251379Y40833D03*
X256744Y40729D03*
X258744Y40724D03*
X260767Y40649D03*
X263433Y56221D03*
X263867Y88964D03*
X263835Y86095D03*
X266194Y107389D03*
X266130Y104839D03*
X256956Y106277D03*
X260285Y101721D03*
X258901Y125477D03*
X260412Y119044D03*
Y112745D03*
X266972Y124618D03*
X255618Y122013D03*
X255723Y124111D03*
X256216Y113001D03*
X258306Y112790D03*
X253512Y125145D03*
X255993Y118934D03*
X258312Y119057D03*
X265493Y110322D03*
X260412Y141091D03*
Y133217D03*
X258312Y141135D03*
X256038Y141249D03*
X265971Y141307D03*
X258312Y133242D03*
X265876Y133146D03*
X260412Y148965D03*
X265512Y156839D03*
X258161Y149022D03*
X256067Y149181D03*
X266034Y148926D03*
X266501Y160125D03*
X251569Y151089D03*
X254791Y164735D03*
X257279Y161591D03*
X257544Y165195D03*
X251096Y164868D03*
X260412Y164713D03*
X255487Y174748D03*
X267106Y175497D03*
X259439Y161591D03*
X263364Y181860D03*
X264390Y186117D03*
Y191225D03*
X258704Y196640D03*
X263463Y196055D03*
X255313Y203077D03*
X253689Y215119D03*
X261569Y224141D03*
X250372Y237440D03*
X257372D03*
X264372D03*
X265880Y232026D03*
X270680Y5086D03*
X280162Y4704D03*
X280634Y36444D03*
X274350Y28943D03*
X273739Y44084D03*
X272974Y54254D03*
X280009Y48748D03*
X279789Y60027D03*
X271868Y85999D03*
X274418Y85967D03*
X274417Y82397D03*
X271867Y82429D03*
X283660Y75209D03*
X283608Y77309D03*
X268331Y78080D03*
X270816Y107389D03*
X270912Y104456D03*
X268387Y96902D03*
X268388Y94215D03*
X270387Y96890D03*
Y94147D03*
X276266Y96400D03*
X276282Y94005D03*
Y101721D03*
Y112745D03*
Y119044D03*
X276423Y125343D03*
X278522Y125412D03*
X278381Y118963D03*
X280482Y112784D03*
X280622Y125373D03*
X280481Y118988D03*
X278382Y112778D03*
X268298Y110290D03*
X271007Y110226D03*
X276427Y141091D03*
X276282Y133217D03*
X282599Y138175D03*
X270497Y141435D03*
X276554Y138597D03*
X280481Y133236D03*
X278619Y138032D03*
X268171Y141243D03*
X278382Y133156D03*
X267976Y133086D03*
X276282Y130068D03*
X278380Y129975D03*
X280592D03*
X276282Y156839D03*
Y148965D03*
X268599Y160017D03*
X276793Y159989D03*
X278818Y156768D03*
X271182Y153690D03*
X278850Y153708D03*
X276491Y153534D03*
X269765Y156736D03*
X267612Y156895D03*
X268253Y148958D03*
X280571Y149085D03*
X278382Y148990D03*
X270352Y148878D03*
X276427Y144296D03*
X278706Y144192D03*
X278891Y159760D03*
X276282Y164713D03*
X279700Y173299D03*
X272031Y175673D03*
X274147Y176489D03*
X269337Y175577D03*
X278379Y164595D03*
X280464Y164340D03*
X273209Y181556D03*
X269024Y181380D03*
Y189952D03*
X276814Y207574D03*
X283814D03*
X268569Y224141D03*
X276814Y214574D03*
X283814D03*
X271372Y237440D03*
X277339Y237492D03*
X284339D03*
X271609Y231921D03*
X287273Y5086D03*
X285208Y28561D03*
X285897Y43931D03*
X286891Y54177D03*
X286121Y66492D03*
X286016Y59237D03*
G54D20*
X123944Y212502D03*
Y224116D03*
X134714Y212502D03*
Y224116D03*
X262962Y91977D03*
Y172883D03*
X273732Y91977D03*
Y172883D03*
G54D11*
G01X-515713Y-360743D02*
Y-260743D01*
X-115713D01*
G01D02*
Y-360743D01*
X-515713D01*
G01X55639Y15432D02*
Y24286D01*
X73066Y41713D01*
X78897D01*
X82718Y45534D01*
Y51365D01*
X94986Y63633D01*
Y80449D01*
X97858Y83321D01*
X100182D01*
G01X207433Y172704D02*
Y174272D01*
X190136Y191569D01*
X146032D01*
X143266Y188803D01*
X92007D01*
X73895Y206915D01*
Y208052D01*
G01X77875Y210030D02*
X81185Y206720D01*
X87959D01*
X98188Y196491D01*
X192046D01*
X209886Y178651D01*
Y170558D01*
G01X174286Y90834D02*
X194866D01*
X204344Y100312D01*
X234842D01*
X239248Y104718D01*
Y111454D01*
X22605Y55292D03*
X22549Y51045D03*
X22684Y59381D03*
X22609Y103980D03*
X22569Y108271D03*
X22648Y112360D03*
X20154Y155059D03*
X24344Y155096D03*
X24419Y159306D03*
X20210D03*
X20289Y163395D03*
X24442Y163246D03*
X10899Y187160D03*
X19836Y210715D03*
X24045D03*
X23970Y206505D03*
X19780Y206468D03*
X24068Y214655D03*
X19915Y214804D03*
X25953Y55292D03*
X25878Y51082D03*
X28932Y51169D03*
X28801Y55209D03*
X25976Y59232D03*
X28932Y59381D03*
X25618Y108234D03*
X25543Y104024D03*
X28278Y108188D03*
X28409Y104148D03*
Y112360D03*
X25416Y112286D03*
X28427Y159148D03*
X28558Y155108D03*
Y163320D03*
X28184Y206517D03*
X28053Y210557D03*
X28184Y214729D03*
X66659Y66612D03*
X75113Y154579D03*
Y158673D03*
X71788Y154460D03*
X71844Y158707D03*
X75113Y162850D03*
X71923Y162796D03*
X73895Y208052D03*
X80356Y154417D03*
Y158392D03*
Y162788D03*
X87785Y199875D03*
X84923Y203429D03*
X87710Y203411D03*
X84605Y199950D03*
X77875Y210030D03*
X105517Y53572D03*
X105461Y49325D03*
X109427Y49474D03*
X109483Y53721D03*
X105596Y57661D03*
X109562Y57810D03*
X113379Y45387D03*
X117495Y45461D03*
X117700Y53563D03*
X117831Y49523D03*
X113617Y49511D03*
X113692Y53721D03*
X121647Y57661D03*
X117831Y57735D03*
X113715Y57661D03*
X256957Y231864D03*
G54D30*
G01X150295Y168476D02*
X150053Y168718D01*
G01X166159Y141853D02*
Y143465D01*
X166573Y143879D01*
G54D12*
X27329Y8089D03*
X40623Y8668D03*
X56398Y118481D03*
X56714Y129677D03*
X135594Y91303D03*
X135830Y77875D03*
G54D21*
X123944Y214372D03*
Y215947D03*
Y217522D03*
Y219096D03*
Y220671D03*
Y222246D03*
X134714Y214372D03*
Y215947D03*
Y217522D03*
Y219096D03*
Y220671D03*
Y222246D03*
X262962Y93847D03*
Y95422D03*
Y96997D03*
Y98572D03*
Y100147D03*
Y101721D03*
Y103296D03*
Y104871D03*
Y106446D03*
Y108021D03*
Y109595D03*
Y111170D03*
Y112745D03*
Y114320D03*
Y115895D03*
Y125343D03*
Y123769D03*
Y122194D03*
Y120619D03*
Y119044D03*
Y117469D03*
Y131643D03*
Y130068D03*
Y128493D03*
Y126918D03*
Y133217D03*
Y134792D03*
Y136367D03*
Y137942D03*
Y139517D03*
Y141091D03*
Y142666D03*
Y159989D03*
Y158414D03*
Y156839D03*
Y144241D03*
Y145816D03*
Y147391D03*
Y148965D03*
Y150540D03*
Y152115D03*
Y153690D03*
Y155265D03*
Y171013D03*
Y169438D03*
Y167863D03*
Y166288D03*
Y164713D03*
Y163139D03*
Y161564D03*
X273732Y93847D03*
Y95422D03*
Y96997D03*
Y98572D03*
Y100147D03*
Y101721D03*
Y103296D03*
Y104871D03*
Y106446D03*
Y108021D03*
Y109595D03*
Y111170D03*
Y112745D03*
Y114320D03*
Y115895D03*
Y125343D03*
Y117469D03*
Y119044D03*
Y120619D03*
Y122194D03*
Y123769D03*
Y126918D03*
Y128493D03*
Y130068D03*
Y131643D03*
Y133217D03*
Y134792D03*
Y136367D03*
Y137942D03*
Y139517D03*
Y141091D03*
Y142666D03*
Y156839D03*
Y158414D03*
Y159989D03*
Y144241D03*
Y145816D03*
Y147391D03*
Y148965D03*
Y150540D03*
Y152115D03*
Y153690D03*
Y155265D03*
Y161564D03*
Y163139D03*
Y164713D03*
Y166288D03*
Y167863D03*
Y169438D03*
Y171013D03*
G54D31*
G01X137729Y131064D02*
X131586D01*
X130381Y132269D01*
Y132595D01*
G01X151303Y134813D02*
X150003Y133513D01*
X138232D01*
X137729Y134016D01*
G01X151193Y163093D02*
X150791Y163495D01*
Y167980D01*
X150295Y168476D01*
G01X165619Y153243D02*
X166738Y152124D01*
X167226D01*
G01X193926Y175625D02*
Y170581D01*
X193889Y170544D01*
Y167074D01*
X194671Y166292D01*
X195270D01*
G01X195267Y164239D02*
X193061Y166445D01*
Y169942D01*
X192010Y170993D01*
G54D13*
X29587Y140685D03*
Y137733D03*
X25339Y140832D03*
Y137880D03*
X38177Y159024D03*
Y156072D03*
X33110Y159193D03*
Y156241D03*
X98044Y37968D03*
Y40920D03*
X114331Y38798D03*
Y41750D03*
X137729Y134016D03*
Y131064D03*
X140833Y140904D03*
Y143856D03*
X215514Y207992D03*
Y210944D03*
X219831Y210955D03*
Y208003D03*
X230350Y210924D03*
Y207972D03*
X224103Y210987D03*
Y208035D03*
G54D22*
X179026Y220092D03*
X177452D03*
X175877D03*
X174302D03*
X172727D03*
X171152D03*
X179026Y230862D03*
X177452D03*
X175877D03*
X174302D03*
X172727D03*
X171152D03*
X183751Y220092D03*
X182176D03*
X180601D03*
X196349D03*
X194774D03*
X193200D03*
X191625D03*
X190050D03*
X188475D03*
X186900D03*
X185326D03*
X183751Y230862D03*
X182176D03*
X180601D03*
X196349D03*
X194774D03*
X193200D03*
X191625D03*
X190050D03*
X188475D03*
X186900D03*
X185326D03*
X198391Y32733D03*
X199966D03*
X201541D03*
X203116D03*
X204691D03*
X206265D03*
X207840D03*
X209415D03*
X210990D03*
X212565D03*
X214139D03*
X198391Y43503D03*
X199966D03*
X201541D03*
X203116D03*
X204691D03*
X206265D03*
X207840D03*
X209415D03*
X210990D03*
X212565D03*
X214139D03*
X213672Y220092D03*
X212097D03*
X210522D03*
X208948D03*
X207373D03*
X205798D03*
X204223D03*
X202648D03*
X201074D03*
X199499D03*
X197924D03*
X213672Y230862D03*
X212097D03*
X210522D03*
X208948D03*
X207373D03*
X205798D03*
X204223D03*
X202648D03*
X201074D03*
X199499D03*
X197924D03*
X215714Y32733D03*
X217289D03*
X218864D03*
X220439D03*
X222013D03*
X223588D03*
X225163D03*
X226738D03*
X228313D03*
X229887D03*
X231462D03*
X215714Y43503D03*
X217289D03*
X218864D03*
X220439D03*
X222013D03*
X223588D03*
X225163D03*
X226738D03*
X228313D03*
X229887D03*
X231462D03*
X230995Y220092D03*
X229420D03*
X227845D03*
X226270D03*
X224696D03*
X223121D03*
X221546D03*
X219971D03*
X218396D03*
X216822D03*
X215247D03*
X230995Y230862D03*
X229420D03*
X227845D03*
X226270D03*
X224696D03*
X223121D03*
X221546D03*
X219971D03*
X218396D03*
X216822D03*
X215247D03*
X247210Y32733D03*
X248785D03*
X233037D03*
X234612D03*
X236187D03*
X237761D03*
X239336D03*
X240911D03*
X242486D03*
X244061D03*
X245635D03*
X247210Y43503D03*
X248785D03*
X233037D03*
X234612D03*
X236187D03*
X237761D03*
X239336D03*
X240911D03*
X242486D03*
X244061D03*
X245635D03*
X232570Y220092D03*
Y230862D03*
X250360Y32733D03*
X251935D03*
X253509D03*
X255084D03*
X256659D03*
X258234D03*
X259809D03*
X250360Y43503D03*
X251935D03*
X253509D03*
X255084D03*
X256659D03*
X258234D03*
X259809D03*
G54D32*
G01X48522Y166782D02*
Y169782D01*
X48922Y169182D01*
G01Y166782D02*
X48122D01*
G01X45589D02*
X45522Y167432D01*
X45422Y167982D01*
X45289Y168482D01*
X45122Y169032D01*
X44855Y169782D01*
X46189D01*
G01X42522D02*
X42789Y169682D01*
X42989Y169432D01*
X43122Y169132D01*
X43222Y168732D01*
X43255Y168282D01*
X43222Y167832D01*
X43122Y167432D01*
X42989Y167132D01*
X42789Y166882D01*
X42522Y166782D01*
X42255Y166882D01*
X42055Y167132D01*
X41922Y167432D01*
X41822Y167832D01*
X41789Y168282D01*
X41822Y168732D01*
X41922Y169132D01*
X42055Y169432D01*
X42255Y169682D01*
X42522Y169782D01*
G01X39955Y167782D02*
X39089D01*
G01X37255Y167232D02*
X37055Y166982D01*
X36822Y166832D01*
X36522Y166782D01*
X36222Y166882D01*
X35989Y167082D01*
X35822Y167432D01*
X35789Y167832D01*
X35855Y168232D01*
X36022Y168482D01*
X36255Y168682D01*
X36489Y168732D01*
X36722Y168682D01*
X37022Y168482D01*
X36922Y169782D01*
X36022D01*
G01X33522Y166782D02*
Y169782D01*
X33922Y169182D01*
G01Y166782D02*
X33122D01*
G01X31089Y167132D02*
X30855Y166882D01*
X30589Y166782D01*
X30322Y166882D01*
X30089Y167182D01*
X29922Y167632D01*
X29855Y168082D01*
Y168632D01*
X29922Y169082D01*
X30089Y169482D01*
X30289Y169682D01*
X30522Y169782D01*
X30789Y169682D01*
X30989Y169482D01*
X31122Y169182D01*
X31189Y168782D01*
X31122Y168432D01*
X30955Y168082D01*
X30755Y167882D01*
X30522Y167832D01*
X30255Y167932D01*
X30055Y168182D01*
X29855Y168632D01*
G01X27122Y166782D02*
Y169782D01*
X28355Y167632D01*
X26689D01*
G01X25255Y167382D02*
X25055Y167032D01*
X24789Y166832D01*
X24489Y166782D01*
X24222Y166832D01*
X23955Y167082D01*
X23789Y167382D01*
X23755Y167682D01*
X23822Y168032D01*
X24055Y168282D01*
X24289Y168382D01*
X24589D01*
G01X24289D02*
X24089Y168532D01*
X23922Y168782D01*
X23855Y169082D01*
X23922Y169382D01*
X24089Y169632D01*
X24389Y169782D01*
X24689Y169732D01*
X24989Y169532D01*
G01X19189Y166782D02*
Y169782D01*
X18355D01*
X18089Y169632D01*
X17922Y169432D01*
X17855Y169032D01*
X17922Y168632D01*
X18122Y168382D01*
X18355Y168232D01*
X19189D01*
G01X18355D02*
X17855Y166782D01*
G01X14855D02*
X16189D01*
Y169782D01*
X14855D01*
G01X15389Y168332D02*
X16189D01*
G01X13355Y169782D02*
X12522Y166782D01*
X11689Y169782D01*
G01X6255Y168382D02*
X6122Y168532D01*
X6022Y168782D01*
X5955Y169132D01*
X6022Y169432D01*
X6155Y169632D01*
X6389Y169782D01*
X7289D01*
Y166782D01*
X6189D01*
X5955Y166982D01*
X5822Y167282D01*
X5755Y167632D01*
X5822Y167982D01*
X6022Y168282D01*
X6255Y168382D01*
X7289D01*
G01X4255Y167382D02*
X4055Y167032D01*
X3789Y166832D01*
X3489Y166782D01*
X3222Y166832D01*
X2955Y167082D01*
X2789Y167382D01*
X2755Y167682D01*
X2822Y168032D01*
X3055Y168282D01*
X3289Y168382D01*
X3589D01*
G01X3289D02*
X3089Y168532D01*
X2922Y168782D01*
X2855Y169082D01*
X2922Y169382D01*
X3089Y169632D01*
X3389Y169782D01*
X3689Y169732D01*
X3989Y169532D01*
G54D14*
X70273Y15759D03*
Y225759D03*
X280273Y15759D03*
Y225759D03*
G54D23*
X169282Y220092D03*
Y230862D03*
X196521Y32733D03*
Y43503D03*
X234440Y220092D03*
Y230862D03*
X261679Y32733D03*
Y43503D03*
G54D33*
G01X290282Y237556D02*
G03X287282Y240556I-3000J0D01*
G01X2977D01*
G03X-23Y237556I0J-3000D01*
G01Y2972D01*
G03X2977Y-28I3000J0D01*
G01X287282D01*
G03X290282Y2972I0J3000D01*
G01Y237556D01*
G01X33684Y4571D02*
Y5777D01*
X34573Y6666D01*
Y31411D01*
X30851Y35133D01*
Y132368D01*
X25339Y137880D01*
G01X35765Y4855D02*
Y6147D01*
X35873Y6255D01*
Y31950D01*
X32151Y35672D01*
Y132907D01*
X29587Y135471D01*
Y137733D01*
G01X79997Y21120D02*
Y18564D01*
X83690Y14871D01*
Y8575D01*
X79377Y4262D01*
X58537D01*
X38636Y24163D01*
Y70443D01*
X33995Y75084D01*
Y153302D01*
X33110Y154187D01*
Y156241D01*
G01X80048Y11158D02*
X80017Y11189D01*
Y14509D01*
X80639Y15131D01*
X81590D01*
X82390Y14331D01*
Y9114D01*
X78838Y5562D01*
X59076D01*
X39936Y24702D01*
Y70982D01*
X35295Y75623D01*
Y153190D01*
X38177Y156072D01*
G01X47737Y155364D02*
X47269Y154896D01*
X44147D01*
X39270Y150019D01*
Y81500D01*
X66059Y54711D01*
Y51461D01*
X64482Y49884D01*
G01X67745Y49828D02*
Y50619D01*
X67359Y51005D01*
Y55251D01*
X40570Y82040D01*
Y149480D01*
X44677Y153587D01*
X47334D01*
X47676Y153245D01*
G01X25339Y140832D02*
Y143499D01*
X25312Y143526D01*
G01X29587Y140685D02*
Y143486D01*
X29586Y143487D01*
G01X38177Y159024D02*
X37419D01*
X35875Y160568D01*
G01X35826Y163127D02*
Y162926D01*
X33110Y160210D01*
Y159193D01*
G01X159978Y75212D02*
Y73998D01*
X160921Y73055D01*
X164808D01*
X165608Y73855D01*
Y78869D01*
X144375Y100102D01*
X83726D01*
X60105Y123723D01*
X53975D01*
X50531Y127167D01*
Y139970D01*
X52420Y141859D01*
Y168885D01*
X45300Y176005D01*
X30172D01*
X26962Y179215D01*
Y183001D01*
G01X29171Y182738D02*
X28262Y181829D01*
Y179754D01*
X30711Y177305D01*
X45840D01*
X53720Y169425D01*
Y141320D01*
X51831Y139431D01*
Y127707D01*
X54515Y125023D01*
X60644D01*
X84265Y101402D01*
X144915D01*
X167029Y79288D01*
Y73266D01*
X165397Y71634D01*
X160883D01*
X160083Y70834D01*
Y69426D01*
G01X26067Y233866D02*
X26503Y233430D01*
Y230035D01*
X28874Y227664D01*
Y217299D01*
X55626Y190547D01*
Y141931D01*
X61087Y136470D01*
Y126623D01*
X83569Y104141D01*
X157054D01*
X166513Y94682D01*
Y88784D01*
X165681Y87952D01*
X164093D01*
G01X170090Y87794D02*
X168614D01*
X167813Y88595D01*
Y95221D01*
X157593Y105441D01*
X84108D01*
X62387Y127162D01*
Y137010D01*
X56926Y142471D01*
Y191086D01*
X30174Y217838D01*
Y228203D01*
X27803Y230574D01*
Y233235D01*
X28276Y233708D01*
G01X49414Y57817D02*
X50504D01*
X51973Y56348D01*
Y40374D01*
X54878Y37469D01*
X63375D01*
X67239Y41333D01*
Y45648D01*
X68040Y46449D01*
X73153D01*
X73243Y46539D01*
G01X59163Y46654D02*
X65139D01*
X65939Y45854D01*
Y41872D01*
X62836Y38769D01*
X55418D01*
X53273Y40914D01*
Y56888D01*
X50247Y59914D01*
X49528D01*
G01X74987Y65017D02*
X75422Y64582D01*
X76554D01*
X77789Y65817D01*
Y68582D01*
X69084Y77287D01*
X58246D01*
X44215Y91318D01*
Y145166D01*
X49437Y150388D01*
Y160456D01*
X48180Y161713D01*
X47614D01*
G01X75144Y62325D02*
X76100Y63281D01*
X77092D01*
X79089Y65278D01*
Y69121D01*
X69623Y78587D01*
X58785D01*
X45515Y91857D01*
Y144626D01*
X50737Y149848D01*
Y160996D01*
X47856Y163877D01*
X47596D01*
G01X47624Y212508D02*
X47717Y212601D01*
X50309D01*
X62508Y200402D01*
Y141984D01*
X90609Y113883D01*
X108968D01*
X110151Y112700D01*
X110414D01*
G01X110598Y115183D02*
X91148D01*
X63808Y142523D01*
Y201154D01*
X50321Y214641D01*
X47810D01*
G01X47267Y204200D02*
X47454Y204387D01*
Y208360D01*
X47686Y208592D01*
Y208593D01*
G01X62434Y107361D02*
X62890Y106905D01*
X71429D01*
X74760Y103574D01*
X74830D01*
G01X139211Y115725D02*
X137441D01*
X136253Y116913D01*
Y121419D01*
X134230Y123442D01*
X92149D01*
X78313Y137278D01*
Y179070D01*
X79446Y180203D01*
G01X76921Y180571D02*
X77013Y180479D01*
Y136739D01*
X91610Y122142D01*
X133690D01*
X134901Y120931D01*
Y115623D01*
X133205Y113927D01*
X132720D01*
G01X210063Y169519D02*
Y161293D01*
X209681Y160911D01*
Y160188D01*
G01X123944Y222246D02*
X126902D01*
G01X123944Y214372D02*
X126679D01*
G01X135594Y91303D02*
X136011D01*
X138885Y94177D01*
Y94299D01*
G01X134714Y222246D02*
X137648D01*
X137663Y222231D01*
G01X134714Y214372D02*
X137217D01*
X137264Y214325D01*
G01X171152Y220092D02*
Y217542D01*
G01X175877Y220092D02*
Y217542D01*
G01X171152Y230862D02*
Y233412D01*
G01X175877Y230862D02*
Y233412D01*
G01X183046Y23688D02*
X180759Y25975D01*
Y37591D01*
G01X194686Y156248D02*
Y155481D01*
X195878Y154289D01*
G01X194698Y148378D02*
Y149172D01*
X195878Y150352D01*
G01X194686Y156248D02*
Y157034D01*
X195878Y158226D01*
G01X195417Y144502D02*
Y145902D01*
X195762Y146247D01*
G01D02*
Y146531D01*
X194698Y147595D01*
Y148378D01*
G01X195271Y152478D02*
Y151912D01*
X195878Y151305D01*
Y150352D01*
G01X195271Y152478D02*
Y153682D01*
X195878Y154289D01*
G01X180601Y220092D02*
Y217542D01*
G01X185326Y220092D02*
Y217542D01*
G01X190050Y220092D02*
Y217542D01*
G01X194774Y220092D02*
Y217542D01*
G01X180601Y230862D02*
Y233412D01*
G01X185326Y230862D02*
Y233412D01*
G01X190050Y230862D02*
Y233412D01*
G01X194774Y230862D02*
Y233412D01*
G01X204691Y32733D02*
Y30171D01*
G01X212565Y32733D02*
Y35327D01*
G01X204667Y46058D02*
Y45795D01*
X204691Y45771D01*
Y43503D01*
G01X209415D02*
Y45909D01*
X209559Y46053D01*
G01X201674Y152228D02*
Y153829D01*
X201874Y154029D01*
G01X201674Y152228D02*
Y150488D01*
X201878Y150284D01*
G01X209228Y156084D02*
X209681Y156537D01*
Y158086D01*
G01D02*
X209729Y158134D01*
X211460D01*
G01X209228Y156084D02*
X209076Y155932D01*
Y154367D01*
X208689Y153980D01*
G01X205528Y145289D02*
X204403Y146414D01*
X203613D01*
G01X207530Y151925D02*
X207549Y151944D01*
Y152254D01*
X208689Y153394D01*
Y153980D01*
G01X213304Y144068D02*
X212958Y144414D01*
X211492D01*
G01X205528Y143187D02*
X204962D01*
X203735Y144414D01*
X203613D01*
G01X201425Y165732D02*
Y166589D01*
X199857Y168157D01*
G01X205617Y161367D02*
X206413Y162163D01*
X207490D01*
G01X199660Y162226D02*
X198674D01*
X197319Y163581D01*
G01X201425Y163630D02*
X201660D01*
X203026Y162264D01*
X203854D01*
G01X199499Y220092D02*
Y217542D01*
G01X204223Y220092D02*
Y217528D01*
G01Y230862D02*
Y228718D01*
X203746Y228241D01*
G01X214425Y222707D02*
X213672Y221954D01*
Y220092D01*
G01X206601Y213367D02*
X208948Y215714D01*
Y220092D01*
G01X206152Y228285D02*
X205798Y228639D01*
Y230862D01*
G01X212097Y220092D02*
Y215640D01*
X211863Y215406D01*
G01X199499Y230862D02*
Y233969D01*
X199216Y234252D01*
G01X212097Y230862D02*
Y233679D01*
G01X207742Y233527D02*
Y233328D01*
X207373Y232959D01*
Y230862D01*
G01X220439Y32733D02*
Y35358D01*
G01X225163Y32733D02*
Y35691D01*
G01Y43503D02*
Y46053D01*
G01X217289Y43503D02*
Y46314D01*
X217179Y46424D01*
G01X226270Y220092D02*
Y222642D01*
G01X222215Y223576D02*
X221546Y222907D01*
Y220092D01*
G01X229420Y230862D02*
Y232979D01*
X229890Y233449D01*
G01X224696Y230862D02*
Y233003D01*
X224199Y233500D01*
G01X221546Y230862D02*
Y233342D01*
X221471Y233417D01*
G01X216822Y230862D02*
Y233579D01*
X217079Y233836D01*
G01X233037Y32733D02*
Y35283D01*
G01X239336Y32733D02*
Y34548D01*
X238307Y35577D01*
G01X237761Y32733D02*
Y30121D01*
G01X233037Y43503D02*
Y46171D01*
G01X232570Y220092D02*
Y222156D01*
X233264Y222850D01*
G01X262962Y119044D02*
X260412D01*
G01X262962Y112745D02*
X260412D01*
G01X262962Y141091D02*
X260412D01*
G01X262962Y133217D02*
X260412D01*
G01X258901Y125477D02*
X259039D01*
X260480Y126918D01*
X262962D01*
G01Y148965D02*
X260412D01*
G01X262962Y156839D02*
X265512D01*
G01X262962Y164713D02*
X260412D01*
G01X273732Y112745D02*
X276282D01*
G01X273732Y119044D02*
X276282D01*
G01X273732Y125343D02*
X276423D01*
G01X273732Y141091D02*
X276427D01*
G01X273732Y133217D02*
X276282D01*
G01X273732Y156839D02*
X276282D01*
G01X273732Y148965D02*
X276282D01*
G01X273732Y164713D02*
X276282D01*
G54D15*
X109128Y40144D03*
X103257Y40145D03*
X109128Y45544D03*
X103257Y45545D03*
X107886Y67004D03*
Y61604D03*
X101954Y61458D03*
Y66858D03*
X119515Y67050D03*
Y61650D03*
X113728Y67023D03*
Y61623D03*
G54D24*
X227220Y75199D03*
X223480D03*
G54D34*
G01X-514851Y-354618D02*
X-514303Y-353883D01*
X-513833Y-353463D01*
X-513206Y-353253D01*
X-512658Y-353463D01*
X-512266Y-353883D01*
X-511953Y-354513D01*
X-511875Y-355248D01*
X-511953Y-355878D01*
X-512266Y-356508D01*
X-512736Y-357033D01*
X-513285Y-357243D01*
X-513911Y-357033D01*
X-514460Y-356403D01*
X-514773Y-355458D01*
X-514851Y-354408D01*
X-514695Y-353043D01*
X-514460Y-352308D01*
X-514068Y-351573D01*
X-513520Y-351048D01*
X-512971Y-350943D01*
X-512423Y-351153D01*
X-512031Y-351678D01*
G01X-500763Y-357243D02*
X-501390Y-357138D01*
X-501938Y-356718D01*
X-502408Y-356088D01*
X-502721Y-355353D01*
X-502878Y-354513D01*
Y-353673D01*
X-502721Y-352833D01*
X-502408Y-352098D01*
X-501938Y-351468D01*
X-501390Y-351048D01*
X-500763Y-350943D01*
X-500136Y-351048D01*
X-499588Y-351468D01*
X-499118Y-352098D01*
X-498805Y-352833D01*
X-498648Y-353673D01*
Y-354513D01*
X-498805Y-355353D01*
X-499118Y-356088D01*
X-499588Y-356718D01*
X-500136Y-357138D01*
X-500763Y-357243D01*
G01X-495951D02*
Y-350943D01*
X-492975D01*
G01X-494071Y-353988D02*
X-495951D01*
G01X-481863Y-357243D02*
Y-350943D01*
X-482803Y-352203D01*
G01Y-357243D02*
X-480923D01*
G01X-477051Y-351993D02*
X-476581Y-351363D01*
X-476033Y-351048D01*
X-475406Y-350943D01*
X-474623Y-351153D01*
X-474075Y-351678D01*
X-473918Y-352308D01*
X-473996Y-352938D01*
X-474310Y-353463D01*
X-475876Y-354513D01*
X-476581Y-355248D01*
X-477051Y-356298D01*
X-477208Y-357243D01*
X-473918D01*
G01X-512188Y-348210D02*
X-511721Y-348543D01*
X-511196Y-348743D01*
X-510730D01*
X-510263Y-348543D01*
X-509913Y-348210D01*
X-509738Y-347743D01*
X-509855Y-347276D01*
X-510146Y-346876D01*
X-510671Y-346610D01*
X-511371Y-346476D01*
X-511780Y-346210D01*
X-511955Y-345743D01*
X-511838Y-345276D01*
X-511546Y-344943D01*
X-511138Y-344743D01*
X-510730D01*
X-510321Y-344876D01*
X-509971Y-345210D01*
G01X-507388Y-348743D02*
Y-344743D01*
G01X-504938D02*
Y-348743D01*
G01Y-346743D02*
X-507388D01*
G01X-500196Y-348743D02*
X-502530D01*
Y-344743D01*
X-500196D01*
G01X-501130Y-346676D02*
X-502530D01*
G01X-495396Y-348743D02*
X-497730D01*
Y-344743D01*
X-495396D01*
G01X-496330Y-346676D02*
X-497730D01*
G01X-491763Y-344743D02*
Y-348743D01*
G01X-493105Y-344743D02*
X-490421D01*
G01X-503963Y-329743D02*
X-504430Y-329676D01*
X-504838Y-329410D01*
X-505188Y-329010D01*
X-505421Y-328543D01*
X-505538Y-328010D01*
Y-327476D01*
X-505421Y-326943D01*
X-505188Y-326476D01*
X-504838Y-326076D01*
X-504430Y-325810D01*
X-503963Y-325743D01*
X-503496Y-325810D01*
X-503088Y-326076D01*
X-502738Y-326476D01*
X-502505Y-326943D01*
X-502388Y-327476D01*
Y-328010D01*
X-502505Y-328543D01*
X-502738Y-329010D01*
X-503088Y-329410D01*
X-503496Y-329676D01*
X-503963Y-329743D01*
G01X-500330D02*
Y-325743D01*
X-498871D01*
X-498405Y-325943D01*
X-498113Y-326210D01*
X-497996Y-326743D01*
X-498113Y-327276D01*
X-498463Y-327610D01*
X-498871Y-327810D01*
X-500330D01*
G01X-498871D02*
X-497996Y-329743D01*
G01X-490263Y-325743D02*
X-488863D01*
G01X-489563D02*
Y-329743D01*
G01X-490263D02*
X-488863D01*
G01X-486105D02*
Y-325743D01*
X-483421Y-329743D01*
Y-325743D01*
G01X-476330Y-329743D02*
Y-325743D01*
X-474930D01*
X-474463Y-325943D01*
X-474113Y-326410D01*
X-473996Y-326943D01*
X-474113Y-327476D01*
X-474405Y-327876D01*
X-474930Y-328076D01*
X-476330D01*
G01X-471821Y-329743D02*
X-470363Y-325743D01*
X-468905Y-329743D01*
G01X-469430Y-328343D02*
X-471296D01*
G01X-466730Y-329743D02*
Y-325743D01*
X-465271D01*
X-464805Y-325943D01*
X-464513Y-326210D01*
X-464396Y-326743D01*
X-464513Y-327276D01*
X-464863Y-327610D01*
X-465271Y-327810D01*
X-466730D01*
G01X-465271D02*
X-464396Y-329743D01*
G01X-460763Y-325743D02*
Y-329743D01*
G01X-462105Y-325743D02*
X-459421D01*
G01X-452913D02*
X-452096Y-329743D01*
X-451163Y-325743D01*
X-450230Y-329743D01*
X-449413Y-325743D01*
G01X-447063D02*
X-445663D01*
G01X-446363D02*
Y-329743D01*
G01X-447063D02*
X-445663D01*
G01X-441563Y-325743D02*
Y-329743D01*
G01X-442905Y-325743D02*
X-440221D01*
G01X-437988Y-329743D02*
Y-325743D01*
G01X-435538D02*
Y-329743D01*
G01Y-327743D02*
X-437988D01*
G01X-431963Y-329743D02*
X-432430Y-329676D01*
X-432838Y-329410D01*
X-433188Y-329010D01*
X-433421Y-328543D01*
X-433538Y-328010D01*
Y-327476D01*
X-433421Y-326943D01*
X-433188Y-326476D01*
X-432838Y-326076D01*
X-432430Y-325810D01*
X-431963Y-325743D01*
X-431496Y-325810D01*
X-431088Y-326076D01*
X-430738Y-326476D01*
X-430505Y-326943D01*
X-430388Y-327476D01*
Y-328010D01*
X-430505Y-328543D01*
X-430738Y-329010D01*
X-431088Y-329410D01*
X-431496Y-329676D01*
X-431963Y-329743D01*
G01X-428446Y-325743D02*
Y-328610D01*
X-428213Y-329210D01*
X-427746Y-329610D01*
X-427163Y-329743D01*
X-426580Y-329610D01*
X-426113Y-329210D01*
X-425880Y-328610D01*
Y-325743D01*
G01X-422363D02*
Y-329743D01*
G01X-423705Y-325743D02*
X-421021D01*
G01X-412763D02*
Y-329743D01*
G01X-414105Y-325743D02*
X-411421D01*
G01X-409188Y-329743D02*
Y-325743D01*
G01X-406738D02*
Y-329743D01*
G01Y-327743D02*
X-409188D01*
G01X-401996Y-329743D02*
X-404330D01*
Y-325743D01*
X-401996D01*
G01X-402930Y-327676D02*
X-404330D01*
G01X-392280Y-326076D02*
X-392630Y-325876D01*
X-393038Y-325743D01*
X-393505D01*
X-394030Y-325943D01*
X-394438Y-326276D01*
X-394730Y-326676D01*
X-394963Y-327343D01*
X-395021Y-327943D01*
X-394905Y-328543D01*
X-394730Y-328943D01*
X-394380Y-329343D01*
X-393971Y-329610D01*
X-393563Y-329743D01*
X-393155D01*
X-392746Y-329610D01*
X-392396Y-329410D01*
X-392105Y-329143D01*
G01X-388763Y-329743D02*
X-389230Y-329676D01*
X-389638Y-329410D01*
X-389988Y-329010D01*
X-390221Y-328543D01*
X-390338Y-328010D01*
Y-327476D01*
X-390221Y-326943D01*
X-389988Y-326476D01*
X-389638Y-326076D01*
X-389230Y-325810D01*
X-388763Y-325743D01*
X-388296Y-325810D01*
X-387888Y-326076D01*
X-387538Y-326476D01*
X-387305Y-326943D01*
X-387188Y-327476D01*
Y-328010D01*
X-387305Y-328543D01*
X-387538Y-329010D01*
X-387888Y-329410D01*
X-388296Y-329676D01*
X-388763Y-329743D01*
G01X-385305D02*
Y-325743D01*
X-382621Y-329743D01*
Y-325743D01*
G01X-380388Y-329210D02*
X-379921Y-329543D01*
X-379396Y-329743D01*
X-378930D01*
X-378463Y-329543D01*
X-378113Y-329210D01*
X-377938Y-328743D01*
X-378055Y-328276D01*
X-378346Y-327876D01*
X-378871Y-327610D01*
X-379571Y-327476D01*
X-379980Y-327210D01*
X-380155Y-326743D01*
X-380038Y-326276D01*
X-379746Y-325943D01*
X-379338Y-325743D01*
X-378930D01*
X-378521Y-325876D01*
X-378171Y-326210D01*
G01X-373196Y-329743D02*
X-375530D01*
Y-325743D01*
X-373196D01*
G01X-374130Y-327676D02*
X-375530D01*
G01X-370905Y-329743D02*
Y-325743D01*
X-368221Y-329743D01*
Y-325743D01*
G01X-364763D02*
Y-329743D01*
G01X-366105Y-325743D02*
X-363421D01*
G01X-355163Y-329743D02*
X-355630Y-329676D01*
X-356038Y-329410D01*
X-356388Y-329010D01*
X-356621Y-328543D01*
X-356738Y-328010D01*
Y-327476D01*
X-356621Y-326943D01*
X-356388Y-326476D01*
X-356038Y-326076D01*
X-355630Y-325810D01*
X-355163Y-325743D01*
X-354696Y-325810D01*
X-354288Y-326076D01*
X-353938Y-326476D01*
X-353705Y-326943D01*
X-353588Y-327476D01*
Y-328010D01*
X-353705Y-328543D01*
X-353938Y-329010D01*
X-354288Y-329410D01*
X-354696Y-329676D01*
X-355163Y-329743D01*
G01X-351471D02*
Y-325743D01*
X-349255D01*
G01X-350071Y-327676D02*
X-351471D01*
G01X-504305Y-337743D02*
Y-333743D01*
X-501621Y-337743D01*
Y-333743D01*
G01X-499388Y-337743D02*
X-496938Y-333743D01*
G01X-499388D02*
X-496938Y-337743D01*
G01X-494530D02*
Y-333743D01*
X-493130D01*
X-492663Y-333943D01*
X-492313Y-334410D01*
X-492196Y-334943D01*
X-492313Y-335476D01*
X-492605Y-335876D01*
X-493130Y-336076D01*
X-494530D01*
G01X-488563Y-337876D02*
X-488680Y-337810D01*
Y-337676D01*
X-488563Y-337610D01*
X-488446Y-337676D01*
Y-337810D01*
X-488563Y-337876D01*
G01X-503496Y-311610D02*
X-503263Y-311410D01*
X-503088Y-311076D01*
X-502971Y-310610D01*
X-503088Y-310210D01*
X-503321Y-309943D01*
X-503730Y-309743D01*
X-505305D01*
Y-313743D01*
X-503380D01*
X-502971Y-313476D01*
X-502738Y-313076D01*
X-502621Y-312610D01*
X-502738Y-312143D01*
X-503088Y-311743D01*
X-503496Y-311610D01*
X-505305D01*
G01X-497996Y-313743D02*
X-500330D01*
Y-309743D01*
X-497996D01*
G01X-498930Y-311676D02*
X-500330D01*
G01X-490846Y-309743D02*
Y-312610D01*
X-490613Y-313210D01*
X-490146Y-313610D01*
X-489563Y-313743D01*
X-488980Y-313610D01*
X-488513Y-313210D01*
X-488280Y-312610D01*
Y-309743D01*
G01X-485988Y-313210D02*
X-485521Y-313543D01*
X-484996Y-313743D01*
X-484530D01*
X-484063Y-313543D01*
X-483713Y-313210D01*
X-483538Y-312743D01*
X-483655Y-312276D01*
X-483946Y-311876D01*
X-484471Y-311610D01*
X-485171Y-311476D01*
X-485580Y-311210D01*
X-485755Y-310743D01*
X-485638Y-310276D01*
X-485346Y-309943D01*
X-484938Y-309743D01*
X-484530D01*
X-484121Y-309876D01*
X-483771Y-310210D01*
G01X-478796Y-313743D02*
X-481130D01*
Y-309743D01*
X-478796D01*
G01X-479730Y-311676D02*
X-481130D01*
G01X-476446Y-313743D02*
Y-309743D01*
X-475280D01*
X-474813Y-309943D01*
X-474463Y-310210D01*
X-474171Y-310610D01*
X-473938Y-311076D01*
X-473880Y-311743D01*
X-473938Y-312410D01*
X-474171Y-312876D01*
X-474463Y-313276D01*
X-474813Y-313543D01*
X-475280Y-313743D01*
X-476446D01*
G01X-466671D02*
Y-309743D01*
X-464455D01*
G01X-465271Y-311676D02*
X-466671D01*
G01X-460763Y-313743D02*
X-461230Y-313676D01*
X-461638Y-313410D01*
X-461988Y-313010D01*
X-462221Y-312543D01*
X-462338Y-312010D01*
Y-311476D01*
X-462221Y-310943D01*
X-461988Y-310476D01*
X-461638Y-310076D01*
X-461230Y-309810D01*
X-460763Y-309743D01*
X-460296Y-309810D01*
X-459888Y-310076D01*
X-459538Y-310476D01*
X-459305Y-310943D01*
X-459188Y-311476D01*
Y-312010D01*
X-459305Y-312543D01*
X-459538Y-313010D01*
X-459888Y-313410D01*
X-460296Y-313676D01*
X-460763Y-313743D01*
G01X-457130D02*
Y-309743D01*
X-455671D01*
X-455205Y-309943D01*
X-454913Y-310210D01*
X-454796Y-310743D01*
X-454913Y-311276D01*
X-455263Y-311610D01*
X-455671Y-311810D01*
X-457130D01*
G01X-455671D02*
X-454796Y-313743D01*
G01X-445196D02*
X-447530D01*
Y-309743D01*
X-445196D01*
G01X-446130Y-311676D02*
X-447530D01*
G01X-442905Y-313743D02*
Y-309743D01*
X-440221Y-313743D01*
Y-309743D01*
G01X-436413Y-311743D02*
X-435246D01*
Y-312943D01*
X-435596Y-313343D01*
X-436005Y-313610D01*
X-436588Y-313743D01*
X-437171Y-313610D01*
X-437580Y-313343D01*
X-437930Y-312943D01*
X-438163Y-312476D01*
X-438280Y-311943D01*
Y-311476D01*
X-438163Y-311076D01*
X-437930Y-310610D01*
X-437580Y-310210D01*
X-437230Y-309943D01*
X-436763Y-309743D01*
X-436355D01*
X-435888Y-309876D01*
X-435538Y-310143D01*
G01X-432663Y-309743D02*
X-431263D01*
G01X-431963D02*
Y-313743D01*
G01X-432663D02*
X-431263D01*
G01X-428505D02*
Y-309743D01*
X-425821Y-313743D01*
Y-309743D01*
G01X-421196Y-313743D02*
X-423530D01*
Y-309743D01*
X-421196D01*
G01X-422130Y-311676D02*
X-423530D01*
G01X-416396Y-313743D02*
X-418730D01*
Y-309743D01*
X-416396D01*
G01X-417330Y-311676D02*
X-418730D01*
G01X-413930Y-313743D02*
Y-309743D01*
X-412471D01*
X-412005Y-309943D01*
X-411713Y-310210D01*
X-411596Y-310743D01*
X-411713Y-311276D01*
X-412063Y-311610D01*
X-412471Y-311810D01*
X-413930D01*
G01X-412471D02*
X-411596Y-313743D01*
G01X-408663Y-309743D02*
X-407263D01*
G01X-407963D02*
Y-313743D01*
G01X-408663D02*
X-407263D01*
G01X-404505D02*
Y-309743D01*
X-401821Y-313743D01*
Y-309743D01*
G01X-398013Y-311743D02*
X-396846D01*
Y-312943D01*
X-397196Y-313343D01*
X-397605Y-313610D01*
X-398188Y-313743D01*
X-398771Y-313610D01*
X-399180Y-313343D01*
X-399530Y-312943D01*
X-399763Y-312476D01*
X-399880Y-311943D01*
Y-311476D01*
X-399763Y-311076D01*
X-399530Y-310610D01*
X-399180Y-310210D01*
X-398830Y-309943D01*
X-398363Y-309743D01*
X-397955D01*
X-397488Y-309876D01*
X-397138Y-310143D01*
G01X-390046Y-313743D02*
Y-309743D01*
X-388880D01*
X-388413Y-309943D01*
X-388063Y-310210D01*
X-387771Y-310610D01*
X-387538Y-311076D01*
X-387480Y-311743D01*
X-387538Y-312410D01*
X-387771Y-312876D01*
X-388063Y-313276D01*
X-388413Y-313543D01*
X-388880Y-313743D01*
X-390046D01*
G01X-382796D02*
X-385130D01*
Y-309743D01*
X-382796D01*
G01X-383730Y-311676D02*
X-385130D01*
G01X-380388Y-313210D02*
X-379921Y-313543D01*
X-379396Y-313743D01*
X-378930D01*
X-378463Y-313543D01*
X-378113Y-313210D01*
X-377938Y-312743D01*
X-378055Y-312276D01*
X-378346Y-311876D01*
X-378871Y-311610D01*
X-379571Y-311476D01*
X-379980Y-311210D01*
X-380155Y-310743D01*
X-380038Y-310276D01*
X-379746Y-309943D01*
X-379338Y-309743D01*
X-378930D01*
X-378521Y-309876D01*
X-378171Y-310210D01*
G01X-375063Y-309743D02*
X-373663D01*
G01X-374363D02*
Y-313743D01*
G01X-375063D02*
X-373663D01*
G01X-369213Y-311743D02*
X-368046D01*
Y-312943D01*
X-368396Y-313343D01*
X-368805Y-313610D01*
X-369388Y-313743D01*
X-369971Y-313610D01*
X-370380Y-313343D01*
X-370730Y-312943D01*
X-370963Y-312476D01*
X-371080Y-311943D01*
Y-311476D01*
X-370963Y-311076D01*
X-370730Y-310610D01*
X-370380Y-310210D01*
X-370030Y-309943D01*
X-369563Y-309743D01*
X-369155D01*
X-368688Y-309876D01*
X-368338Y-310143D01*
G01X-366105Y-313743D02*
Y-309743D01*
X-363421Y-313743D01*
Y-309743D01*
G01X-505130Y-321743D02*
Y-317743D01*
X-503730D01*
X-503263Y-317943D01*
X-502913Y-318410D01*
X-502796Y-318943D01*
X-502913Y-319476D01*
X-503205Y-319876D01*
X-503730Y-320076D01*
X-505130D01*
G01X-500330Y-321743D02*
Y-317743D01*
X-498871D01*
X-498405Y-317943D01*
X-498113Y-318210D01*
X-497996Y-318743D01*
X-498113Y-319276D01*
X-498463Y-319610D01*
X-498871Y-319810D01*
X-500330D01*
G01X-498871D02*
X-497996Y-321743D01*
G01X-494363D02*
X-494830Y-321676D01*
X-495238Y-321410D01*
X-495588Y-321010D01*
X-495821Y-320543D01*
X-495938Y-320010D01*
Y-319476D01*
X-495821Y-318943D01*
X-495588Y-318476D01*
X-495238Y-318076D01*
X-494830Y-317810D01*
X-494363Y-317743D01*
X-493896Y-317810D01*
X-493488Y-318076D01*
X-493138Y-318476D01*
X-492905Y-318943D01*
X-492788Y-319476D01*
Y-320010D01*
X-492905Y-320543D01*
X-493138Y-321010D01*
X-493488Y-321410D01*
X-493896Y-321676D01*
X-494363Y-321743D01*
G01X-488280Y-318076D02*
X-488630Y-317876D01*
X-489038Y-317743D01*
X-489505D01*
X-490030Y-317943D01*
X-490438Y-318276D01*
X-490730Y-318676D01*
X-490963Y-319343D01*
X-491021Y-319943D01*
X-490905Y-320543D01*
X-490730Y-320943D01*
X-490380Y-321343D01*
X-489971Y-321610D01*
X-489563Y-321743D01*
X-489155D01*
X-488746Y-321610D01*
X-488396Y-321410D01*
X-488105Y-321143D01*
G01X-486046Y-317743D02*
Y-320610D01*
X-485813Y-321210D01*
X-485346Y-321610D01*
X-484763Y-321743D01*
X-484180Y-321610D01*
X-483713Y-321210D01*
X-483480Y-320610D01*
Y-317743D01*
G01X-481130Y-321743D02*
Y-317743D01*
X-479671D01*
X-479205Y-317943D01*
X-478913Y-318210D01*
X-478796Y-318743D01*
X-478913Y-319276D01*
X-479263Y-319610D01*
X-479671Y-319810D01*
X-481130D01*
G01X-479671D02*
X-478796Y-321743D01*
G01X-473996D02*
X-476330D01*
Y-317743D01*
X-473996D01*
G01X-474930Y-319676D02*
X-476330D01*
G01X-471880Y-321743D02*
Y-317743D01*
X-470363Y-321076D01*
X-468846Y-317743D01*
Y-321743D01*
G01X-464396D02*
X-466730D01*
Y-317743D01*
X-464396D01*
G01X-465330Y-319676D02*
X-466730D01*
G01X-462105Y-321743D02*
Y-317743D01*
X-459421Y-321743D01*
Y-317743D01*
G01X-455963D02*
Y-321743D01*
G01X-457305Y-317743D02*
X-454621D01*
G01X-446363Y-321743D02*
X-446830Y-321676D01*
X-447238Y-321410D01*
X-447588Y-321010D01*
X-447821Y-320543D01*
X-447938Y-320010D01*
Y-319476D01*
X-447821Y-318943D01*
X-447588Y-318476D01*
X-447238Y-318076D01*
X-446830Y-317810D01*
X-446363Y-317743D01*
X-445896Y-317810D01*
X-445488Y-318076D01*
X-445138Y-318476D01*
X-444905Y-318943D01*
X-444788Y-319476D01*
Y-320010D01*
X-444905Y-320543D01*
X-445138Y-321010D01*
X-445488Y-321410D01*
X-445896Y-321676D01*
X-446363Y-321743D01*
G01X-442730D02*
Y-317743D01*
X-441271D01*
X-440805Y-317943D01*
X-440513Y-318210D01*
X-440396Y-318743D01*
X-440513Y-319276D01*
X-440863Y-319610D01*
X-441271Y-319810D01*
X-442730D01*
G01X-441271D02*
X-440396Y-321743D01*
G01X-433480D02*
Y-317743D01*
X-431963Y-321076D01*
X-430446Y-317743D01*
Y-321743D01*
G01X-428621D02*
X-427163Y-317743D01*
X-425705Y-321743D01*
G01X-426230Y-320343D02*
X-428096D01*
G01X-423705Y-321743D02*
Y-317743D01*
X-421021Y-321743D01*
Y-317743D01*
G01X-418846D02*
Y-320610D01*
X-418613Y-321210D01*
X-418146Y-321610D01*
X-417563Y-321743D01*
X-416980Y-321610D01*
X-416513Y-321210D01*
X-416280Y-320610D01*
Y-317743D01*
G01X-413871Y-321743D02*
Y-317743D01*
X-411655D01*
G01X-412471Y-319676D02*
X-413871D01*
G01X-409421Y-321743D02*
X-407963Y-317743D01*
X-406505Y-321743D01*
G01X-407030Y-320343D02*
X-408896D01*
G01X-401880Y-318076D02*
X-402230Y-317876D01*
X-402638Y-317743D01*
X-403105D01*
X-403630Y-317943D01*
X-404038Y-318276D01*
X-404330Y-318676D01*
X-404563Y-319343D01*
X-404621Y-319943D01*
X-404505Y-320543D01*
X-404330Y-320943D01*
X-403980Y-321343D01*
X-403571Y-321610D01*
X-403163Y-321743D01*
X-402755D01*
X-402346Y-321610D01*
X-401996Y-321410D01*
X-401705Y-321143D01*
G01X-398363Y-317743D02*
Y-321743D01*
G01X-399705Y-317743D02*
X-397021D01*
G01X-394846D02*
Y-320610D01*
X-394613Y-321210D01*
X-394146Y-321610D01*
X-393563Y-321743D01*
X-392980Y-321610D01*
X-392513Y-321210D01*
X-392280Y-320610D01*
Y-317743D01*
G01X-389930Y-321743D02*
Y-317743D01*
X-388471D01*
X-388005Y-317943D01*
X-387713Y-318210D01*
X-387596Y-318743D01*
X-387713Y-319276D01*
X-388063Y-319610D01*
X-388471Y-319810D01*
X-389930D01*
G01X-388471D02*
X-387596Y-321743D01*
G01X-382796D02*
X-385130D01*
Y-317743D01*
X-382796D01*
G01X-383730Y-319676D02*
X-385130D01*
G01X-375063Y-317743D02*
X-373663D01*
G01X-374363D02*
Y-321743D01*
G01X-375063D02*
X-373663D01*
G01X-370905D02*
Y-317743D01*
X-368221Y-321743D01*
Y-317743D01*
G01X-361713D02*
X-360896Y-321743D01*
X-359963Y-317743D01*
X-359030Y-321743D01*
X-358213Y-317743D01*
G01X-356388Y-321743D02*
Y-317743D01*
G01X-353938D02*
Y-321743D01*
G01Y-319743D02*
X-356388D01*
G01X-350363Y-321743D02*
X-350830Y-321676D01*
X-351238Y-321410D01*
X-351588Y-321010D01*
X-351821Y-320543D01*
X-351938Y-320010D01*
Y-319476D01*
X-351821Y-318943D01*
X-351588Y-318476D01*
X-351238Y-318076D01*
X-350830Y-317810D01*
X-350363Y-317743D01*
X-349896Y-317810D01*
X-349488Y-318076D01*
X-349138Y-318476D01*
X-348905Y-318943D01*
X-348788Y-319476D01*
Y-320010D01*
X-348905Y-320543D01*
X-349138Y-321010D01*
X-349488Y-321410D01*
X-349896Y-321676D01*
X-350363Y-321743D01*
G01X-346730Y-317743D02*
Y-321743D01*
X-344396D01*
G01X-339596D02*
X-341930D01*
Y-317743D01*
X-339596D01*
G01X-340530Y-319676D02*
X-341930D01*
G01X-504963Y-293743D02*
Y-297743D01*
G01X-506305Y-293743D02*
X-503621D01*
G01X-501388Y-297743D02*
Y-293743D01*
G01X-498938D02*
Y-297743D01*
G01Y-295743D02*
X-501388D01*
G01X-496063Y-293743D02*
X-494663D01*
G01X-495363D02*
Y-297743D01*
G01X-496063D02*
X-494663D01*
G01X-491788Y-297210D02*
X-491321Y-297543D01*
X-490796Y-297743D01*
X-490330D01*
X-489863Y-297543D01*
X-489513Y-297210D01*
X-489338Y-296743D01*
X-489455Y-296276D01*
X-489746Y-295876D01*
X-490271Y-295610D01*
X-490971Y-295476D01*
X-491380Y-295210D01*
X-491555Y-294743D01*
X-491438Y-294276D01*
X-491146Y-293943D01*
X-490738Y-293743D01*
X-490330D01*
X-489921Y-293876D01*
X-489571Y-294210D01*
G01X-482246Y-297743D02*
Y-293743D01*
X-481080D01*
X-480613Y-293943D01*
X-480263Y-294210D01*
X-479971Y-294610D01*
X-479738Y-295076D01*
X-479680Y-295743D01*
X-479738Y-296410D01*
X-479971Y-296876D01*
X-480263Y-297276D01*
X-480613Y-297543D01*
X-481080Y-297743D01*
X-482246D01*
G01X-476163D02*
X-476630Y-297676D01*
X-477038Y-297410D01*
X-477388Y-297010D01*
X-477621Y-296543D01*
X-477738Y-296010D01*
Y-295476D01*
X-477621Y-294943D01*
X-477388Y-294476D01*
X-477038Y-294076D01*
X-476630Y-293810D01*
X-476163Y-293743D01*
X-475696Y-293810D01*
X-475288Y-294076D01*
X-474938Y-294476D01*
X-474705Y-294943D01*
X-474588Y-295476D01*
Y-296010D01*
X-474705Y-296543D01*
X-474938Y-297010D01*
X-475288Y-297410D01*
X-475696Y-297676D01*
X-476163Y-297743D01*
G01X-470080Y-294076D02*
X-470430Y-293876D01*
X-470838Y-293743D01*
X-471305D01*
X-471830Y-293943D01*
X-472238Y-294276D01*
X-472530Y-294676D01*
X-472763Y-295343D01*
X-472821Y-295943D01*
X-472705Y-296543D01*
X-472530Y-296943D01*
X-472180Y-297343D01*
X-471771Y-297610D01*
X-471363Y-297743D01*
X-470955D01*
X-470546Y-297610D01*
X-470196Y-297410D01*
X-469905Y-297143D01*
G01X-467846Y-293743D02*
Y-296610D01*
X-467613Y-297210D01*
X-467146Y-297610D01*
X-466563Y-297743D01*
X-465980Y-297610D01*
X-465513Y-297210D01*
X-465280Y-296610D01*
Y-293743D01*
G01X-463280Y-297743D02*
Y-293743D01*
X-461763Y-297076D01*
X-460246Y-293743D01*
Y-297743D01*
G01X-455796D02*
X-458130D01*
Y-293743D01*
X-455796D01*
G01X-456730Y-295676D02*
X-458130D01*
G01X-453505Y-297743D02*
Y-293743D01*
X-450821Y-297743D01*
Y-293743D01*
G01X-447363D02*
Y-297743D01*
G01X-448705Y-293743D02*
X-446021D01*
G01X-436480Y-294076D02*
X-436830Y-293876D01*
X-437238Y-293743D01*
X-437705D01*
X-438230Y-293943D01*
X-438638Y-294276D01*
X-438930Y-294676D01*
X-439163Y-295343D01*
X-439221Y-295943D01*
X-439105Y-296543D01*
X-438930Y-296943D01*
X-438580Y-297343D01*
X-438171Y-297610D01*
X-437763Y-297743D01*
X-437355D01*
X-436946Y-297610D01*
X-436596Y-297410D01*
X-436305Y-297143D01*
G01X-432963Y-297743D02*
X-433430Y-297676D01*
X-433838Y-297410D01*
X-434188Y-297010D01*
X-434421Y-296543D01*
X-434538Y-296010D01*
Y-295476D01*
X-434421Y-294943D01*
X-434188Y-294476D01*
X-433838Y-294076D01*
X-433430Y-293810D01*
X-432963Y-293743D01*
X-432496Y-293810D01*
X-432088Y-294076D01*
X-431738Y-294476D01*
X-431505Y-294943D01*
X-431388Y-295476D01*
Y-296010D01*
X-431505Y-296543D01*
X-431738Y-297010D01*
X-432088Y-297410D01*
X-432496Y-297676D01*
X-432963Y-297743D01*
G01X-429505D02*
Y-293743D01*
X-426821Y-297743D01*
Y-293743D01*
G01X-423363D02*
Y-297743D01*
G01X-424705Y-293743D02*
X-422021D01*
G01X-420021Y-297743D02*
X-418563Y-293743D01*
X-417105Y-297743D01*
G01X-417630Y-296343D02*
X-419496D01*
G01X-414463Y-293743D02*
X-413063D01*
G01X-413763D02*
Y-297743D01*
G01X-414463D02*
X-413063D01*
G01X-410305D02*
Y-293743D01*
X-407621Y-297743D01*
Y-293743D01*
G01X-405388Y-297210D02*
X-404921Y-297543D01*
X-404396Y-297743D01*
X-403930D01*
X-403463Y-297543D01*
X-403113Y-297210D01*
X-402938Y-296743D01*
X-403055Y-296276D01*
X-403346Y-295876D01*
X-403871Y-295610D01*
X-404571Y-295476D01*
X-404980Y-295210D01*
X-405155Y-294743D01*
X-405038Y-294276D01*
X-404746Y-293943D01*
X-404338Y-293743D01*
X-403930D01*
X-403521Y-293876D01*
X-403171Y-294210D01*
G01X-395263Y-293743D02*
X-393863D01*
G01X-394563D02*
Y-297743D01*
G01X-395263D02*
X-393863D01*
G01X-391105D02*
Y-293743D01*
X-388421Y-297743D01*
Y-293743D01*
G01X-386071Y-297743D02*
Y-293743D01*
X-383855D01*
G01X-384671Y-295676D02*
X-386071D01*
G01X-380163Y-297743D02*
X-380630Y-297676D01*
X-381038Y-297410D01*
X-381388Y-297010D01*
X-381621Y-296543D01*
X-381738Y-296010D01*
Y-295476D01*
X-381621Y-294943D01*
X-381388Y-294476D01*
X-381038Y-294076D01*
X-380630Y-293810D01*
X-380163Y-293743D01*
X-379696Y-293810D01*
X-379288Y-294076D01*
X-378938Y-294476D01*
X-378705Y-294943D01*
X-378588Y-295476D01*
Y-296010D01*
X-378705Y-296543D01*
X-378938Y-297010D01*
X-379288Y-297410D01*
X-379696Y-297676D01*
X-380163Y-297743D01*
G01X-376530D02*
Y-293743D01*
X-375071D01*
X-374605Y-293943D01*
X-374313Y-294210D01*
X-374196Y-294743D01*
X-374313Y-295276D01*
X-374663Y-295610D01*
X-375071Y-295810D01*
X-376530D01*
G01X-375071D02*
X-374196Y-297743D01*
G01X-372080D02*
Y-293743D01*
X-370563Y-297076D01*
X-369046Y-293743D01*
Y-297743D01*
G01X-367221D02*
X-365763Y-293743D01*
X-364305Y-297743D01*
G01X-364830Y-296343D02*
X-366696D01*
G01X-360963Y-293743D02*
Y-297743D01*
G01X-362305Y-293743D02*
X-359621D01*
G01X-356863D02*
X-355463D01*
G01X-356163D02*
Y-297743D01*
G01X-356863D02*
X-355463D01*
G01X-351363D02*
X-351830Y-297676D01*
X-352238Y-297410D01*
X-352588Y-297010D01*
X-352821Y-296543D01*
X-352938Y-296010D01*
Y-295476D01*
X-352821Y-294943D01*
X-352588Y-294476D01*
X-352238Y-294076D01*
X-351830Y-293810D01*
X-351363Y-293743D01*
X-350896Y-293810D01*
X-350488Y-294076D01*
X-350138Y-294476D01*
X-349905Y-294943D01*
X-349788Y-295476D01*
Y-296010D01*
X-349905Y-296543D01*
X-350138Y-297010D01*
X-350488Y-297410D01*
X-350896Y-297676D01*
X-351363Y-297743D01*
G01X-347905D02*
Y-293743D01*
X-345221Y-297743D01*
Y-293743D01*
G01X-505130Y-305743D02*
Y-301743D01*
X-503730D01*
X-503263Y-301943D01*
X-502913Y-302410D01*
X-502796Y-302943D01*
X-502913Y-303476D01*
X-503205Y-303876D01*
X-503730Y-304076D01*
X-505130D01*
G01X-500330Y-305743D02*
Y-301743D01*
X-498871D01*
X-498405Y-301943D01*
X-498113Y-302210D01*
X-497996Y-302743D01*
X-498113Y-303276D01*
X-498463Y-303610D01*
X-498871Y-303810D01*
X-500330D01*
G01X-498871D02*
X-497996Y-305743D01*
G01X-494363D02*
X-494830Y-305676D01*
X-495238Y-305410D01*
X-495588Y-305010D01*
X-495821Y-304543D01*
X-495938Y-304010D01*
Y-303476D01*
X-495821Y-302943D01*
X-495588Y-302476D01*
X-495238Y-302076D01*
X-494830Y-301810D01*
X-494363Y-301743D01*
X-493896Y-301810D01*
X-493488Y-302076D01*
X-493138Y-302476D01*
X-492905Y-302943D01*
X-492788Y-303476D01*
Y-304010D01*
X-492905Y-304543D01*
X-493138Y-305010D01*
X-493488Y-305410D01*
X-493896Y-305676D01*
X-494363Y-305743D01*
G01X-490730D02*
Y-301743D01*
X-489330D01*
X-488863Y-301943D01*
X-488513Y-302410D01*
X-488396Y-302943D01*
X-488513Y-303476D01*
X-488805Y-303876D01*
X-489330Y-304076D01*
X-490730D01*
G01X-485930Y-305743D02*
Y-301743D01*
X-484471D01*
X-484005Y-301943D01*
X-483713Y-302210D01*
X-483596Y-302743D01*
X-483713Y-303276D01*
X-484063Y-303610D01*
X-484471Y-303810D01*
X-485930D01*
G01X-484471D02*
X-483596Y-305743D01*
G01X-480663Y-301743D02*
X-479263D01*
G01X-479963D02*
Y-305743D01*
G01X-480663D02*
X-479263D01*
G01X-473996D02*
X-476330D01*
Y-301743D01*
X-473996D01*
G01X-474930Y-303676D02*
X-476330D01*
G01X-470363Y-301743D02*
Y-305743D01*
G01X-471705Y-301743D02*
X-469021D01*
G01X-467021Y-305743D02*
X-465563Y-301743D01*
X-464105Y-305743D01*
G01X-464630Y-304343D02*
X-466496D01*
G01X-461930Y-305743D02*
Y-301743D01*
X-460471D01*
X-460005Y-301943D01*
X-459713Y-302210D01*
X-459596Y-302743D01*
X-459713Y-303276D01*
X-460063Y-303610D01*
X-460471Y-303810D01*
X-461930D01*
G01X-460471D02*
X-459596Y-305743D01*
G01X-455963D02*
Y-303943D01*
X-457130Y-301743D01*
G01X-454796D02*
X-455963Y-303943D01*
G01X-446363Y-301743D02*
Y-305743D01*
G01X-447705Y-301743D02*
X-445021D01*
G01X-441563Y-305743D02*
X-442030Y-305676D01*
X-442438Y-305410D01*
X-442788Y-305010D01*
X-443021Y-304543D01*
X-443138Y-304010D01*
Y-303476D01*
X-443021Y-302943D01*
X-442788Y-302476D01*
X-442438Y-302076D01*
X-442030Y-301810D01*
X-441563Y-301743D01*
X-441096Y-301810D01*
X-440688Y-302076D01*
X-440338Y-302476D01*
X-440105Y-302943D01*
X-439988Y-303476D01*
Y-304010D01*
X-440105Y-304543D01*
X-440338Y-305010D01*
X-440688Y-305410D01*
X-441096Y-305676D01*
X-441563Y-305743D01*
G01X-433305D02*
Y-301743D01*
X-430621Y-305743D01*
Y-301743D01*
G01X-428388Y-305743D02*
X-425938Y-301743D01*
G01X-428388D02*
X-425938Y-305743D01*
G01X-423530D02*
Y-301743D01*
X-422130D01*
X-421663Y-301943D01*
X-421313Y-302410D01*
X-421196Y-302943D01*
X-421313Y-303476D01*
X-421605Y-303876D01*
X-422130Y-304076D01*
X-423530D01*
G01X-414221Y-305743D02*
X-412763Y-301743D01*
X-411305Y-305743D01*
G01X-411830Y-304343D02*
X-413696D01*
G01X-409305Y-305743D02*
Y-301743D01*
X-406621Y-305743D01*
Y-301743D01*
G01X-404446Y-305743D02*
Y-301743D01*
X-403280D01*
X-402813Y-301943D01*
X-402463Y-302210D01*
X-402171Y-302610D01*
X-401938Y-303076D01*
X-401880Y-303743D01*
X-401938Y-304410D01*
X-402171Y-304876D01*
X-402463Y-305276D01*
X-402813Y-305543D01*
X-403280Y-305743D01*
X-404446D01*
G01X-394788Y-305210D02*
X-394321Y-305543D01*
X-393796Y-305743D01*
X-393330D01*
X-392863Y-305543D01*
X-392513Y-305210D01*
X-392338Y-304743D01*
X-392455Y-304276D01*
X-392746Y-303876D01*
X-393271Y-303610D01*
X-393971Y-303476D01*
X-394380Y-303210D01*
X-394555Y-302743D01*
X-394438Y-302276D01*
X-394146Y-301943D01*
X-393738Y-301743D01*
X-393330D01*
X-392921Y-301876D01*
X-392571Y-302210D01*
G01X-389988Y-305743D02*
Y-301743D01*
G01X-387538D02*
Y-305743D01*
G01Y-303743D02*
X-389988D01*
G01X-385421Y-305743D02*
X-383963Y-301743D01*
X-382505Y-305743D01*
G01X-383030Y-304343D02*
X-384896D01*
G01X-380330Y-301743D02*
Y-305743D01*
X-377996D01*
G01X-375530Y-301743D02*
Y-305743D01*
X-373196D01*
G01X-366105D02*
Y-301743D01*
X-363421Y-305743D01*
Y-301743D01*
G01X-359963Y-305743D02*
X-360430Y-305676D01*
X-360838Y-305410D01*
X-361188Y-305010D01*
X-361421Y-304543D01*
X-361538Y-304010D01*
Y-303476D01*
X-361421Y-302943D01*
X-361188Y-302476D01*
X-360838Y-302076D01*
X-360430Y-301810D01*
X-359963Y-301743D01*
X-359496Y-301810D01*
X-359088Y-302076D01*
X-358738Y-302476D01*
X-358505Y-302943D01*
X-358388Y-303476D01*
Y-304010D01*
X-358505Y-304543D01*
X-358738Y-305010D01*
X-359088Y-305410D01*
X-359496Y-305676D01*
X-359963Y-305743D01*
G01X-355163Y-301743D02*
Y-305743D01*
G01X-356505Y-301743D02*
X-353821D01*
G01X-512071Y-279076D02*
X-511663Y-278610D01*
X-511313Y-278343D01*
X-510846Y-278210D01*
X-510438Y-278343D01*
X-510146Y-278610D01*
X-509913Y-279010D01*
X-509855Y-279476D01*
X-509913Y-279876D01*
X-510146Y-280276D01*
X-510496Y-280610D01*
X-510905Y-280743D01*
X-511371Y-280610D01*
X-511780Y-280210D01*
X-512013Y-279610D01*
X-512071Y-278943D01*
X-511955Y-278076D01*
X-511780Y-277610D01*
X-511488Y-277143D01*
X-511080Y-276810D01*
X-510671Y-276743D01*
X-510263Y-276876D01*
X-509971Y-277210D01*
G01X-507446Y-280143D02*
X-507096Y-280476D01*
X-506688Y-280676D01*
X-506163Y-280743D01*
X-505638Y-280610D01*
X-505230Y-280343D01*
X-504938Y-279876D01*
X-504880Y-279343D01*
X-504996Y-278810D01*
X-505288Y-278476D01*
X-505696Y-278210D01*
X-506105Y-278143D01*
X-506513Y-278210D01*
X-507038Y-278476D01*
X-506863Y-276743D01*
X-505288D01*
G01X-501363D02*
X-501830Y-276876D01*
X-502180Y-277210D01*
X-502413Y-277610D01*
X-502588Y-278143D01*
X-502646Y-278743D01*
X-502588Y-279343D01*
X-502413Y-279876D01*
X-502180Y-280276D01*
X-501830Y-280610D01*
X-501363Y-280743D01*
X-500896Y-280610D01*
X-500546Y-280276D01*
X-500313Y-279876D01*
X-500138Y-279343D01*
X-500080Y-278743D01*
X-500138Y-278143D01*
X-500313Y-277610D01*
X-500546Y-277210D01*
X-500896Y-276876D01*
X-501363Y-276743D01*
G01X-496563Y-280743D02*
Y-276743D01*
X-497263Y-277543D01*
G01Y-280743D02*
X-495863D01*
G01X-488713Y-276743D02*
X-487896Y-280743D01*
X-486963Y-276743D01*
X-486030Y-280743D01*
X-485213Y-276743D01*
G01X-482863D02*
X-481463D01*
G01X-482163D02*
Y-280743D01*
G01X-482863D02*
X-481463D01*
G01X-478530Y-276743D02*
Y-280743D01*
X-476196D01*
G01X-473730Y-276743D02*
Y-280743D01*
X-471396D01*
G01X-468463Y-276743D02*
X-467063D01*
G01X-467763D02*
Y-280743D01*
G01X-468463D02*
X-467063D01*
G01X-464421D02*
X-462963Y-276743D01*
X-461505Y-280743D01*
G01X-462030Y-279343D02*
X-463896D01*
G01X-459680Y-280743D02*
Y-276743D01*
X-458163Y-280076D01*
X-456646Y-276743D01*
Y-280743D01*
G01X-447280Y-277076D02*
X-447630Y-276876D01*
X-448038Y-276743D01*
X-448505D01*
X-449030Y-276943D01*
X-449438Y-277276D01*
X-449730Y-277676D01*
X-449963Y-278343D01*
X-450021Y-278943D01*
X-449905Y-279543D01*
X-449730Y-279943D01*
X-449380Y-280343D01*
X-448971Y-280610D01*
X-448563Y-280743D01*
X-448155D01*
X-447746Y-280610D01*
X-447396Y-280410D01*
X-447105Y-280143D01*
G01X-445221Y-280743D02*
X-443763Y-276743D01*
X-442305Y-280743D01*
G01X-442830Y-279343D02*
X-444696D01*
G01X-440305Y-280743D02*
Y-276743D01*
X-437621Y-280743D01*
Y-276743D01*
G01X-435505Y-280743D02*
Y-276743D01*
X-432821Y-280743D01*
Y-276743D01*
G01X-429363Y-280743D02*
X-429830Y-280676D01*
X-430238Y-280410D01*
X-430588Y-280010D01*
X-430821Y-279543D01*
X-430938Y-279010D01*
Y-278476D01*
X-430821Y-277943D01*
X-430588Y-277476D01*
X-430238Y-277076D01*
X-429830Y-276810D01*
X-429363Y-276743D01*
X-428896Y-276810D01*
X-428488Y-277076D01*
X-428138Y-277476D01*
X-427905Y-277943D01*
X-427788Y-278476D01*
Y-279010D01*
X-427905Y-279543D01*
X-428138Y-280010D01*
X-428488Y-280410D01*
X-428896Y-280676D01*
X-429363Y-280743D01*
G01X-425905D02*
Y-276743D01*
X-423221Y-280743D01*
Y-276743D01*
G01X-416246Y-280743D02*
Y-276743D01*
X-415080D01*
X-414613Y-276943D01*
X-414263Y-277210D01*
X-413971Y-277610D01*
X-413738Y-278076D01*
X-413680Y-278743D01*
X-413738Y-279410D01*
X-413971Y-279876D01*
X-414263Y-280276D01*
X-414613Y-280543D01*
X-415080Y-280743D01*
X-416246D01*
G01X-411330D02*
Y-276743D01*
X-409871D01*
X-409405Y-276943D01*
X-409113Y-277210D01*
X-408996Y-277743D01*
X-409113Y-278276D01*
X-409463Y-278610D01*
X-409871Y-278810D01*
X-411330D01*
G01X-409871D02*
X-408996Y-280743D01*
G01X-406063Y-276743D02*
X-404663D01*
G01X-405363D02*
Y-280743D01*
G01X-406063D02*
X-404663D01*
G01X-402021Y-276743D02*
X-400563Y-280743D01*
X-399105Y-276743D01*
G01X-394596Y-280743D02*
X-396930D01*
Y-276743D01*
X-394596D01*
G01X-395530Y-278676D02*
X-396930D01*
G01X-387913Y-276743D02*
X-387096Y-280743D01*
X-386163Y-276743D01*
X-385230Y-280743D01*
X-384413Y-276743D01*
G01X-380196Y-280743D02*
X-382530D01*
Y-276743D01*
X-380196D01*
G01X-381130Y-278676D02*
X-382530D01*
G01X-377788Y-280210D02*
X-377321Y-280543D01*
X-376796Y-280743D01*
X-376330D01*
X-375863Y-280543D01*
X-375513Y-280210D01*
X-375338Y-279743D01*
X-375455Y-279276D01*
X-375746Y-278876D01*
X-376271Y-278610D01*
X-376971Y-278476D01*
X-377380Y-278210D01*
X-377555Y-277743D01*
X-377438Y-277276D01*
X-377146Y-276943D01*
X-376738Y-276743D01*
X-376330D01*
X-375921Y-276876D01*
X-375571Y-277210D01*
G01X-371763Y-276743D02*
Y-280743D01*
G01X-373105Y-276743D02*
X-370421D01*
G01X-512421Y-287743D02*
X-510963Y-283743D01*
X-509505Y-287743D01*
G01X-510030Y-286343D02*
X-511896D01*
G01X-507446Y-283743D02*
Y-286610D01*
X-507213Y-287210D01*
X-506746Y-287610D01*
X-506163Y-287743D01*
X-505580Y-287610D01*
X-505113Y-287210D01*
X-504880Y-286610D01*
Y-283743D01*
G01X-502588Y-287210D02*
X-502121Y-287543D01*
X-501596Y-287743D01*
X-501130D01*
X-500663Y-287543D01*
X-500313Y-287210D01*
X-500138Y-286743D01*
X-500255Y-286276D01*
X-500546Y-285876D01*
X-501071Y-285610D01*
X-501771Y-285476D01*
X-502180Y-285210D01*
X-502355Y-284743D01*
X-502238Y-284276D01*
X-501946Y-283943D01*
X-501538Y-283743D01*
X-501130D01*
X-500721Y-283876D01*
X-500371Y-284210D01*
G01X-496563Y-283743D02*
Y-287743D01*
G01X-497905Y-283743D02*
X-495221D01*
G01X-492463D02*
X-491063D01*
G01X-491763D02*
Y-287743D01*
G01X-492463D02*
X-491063D01*
G01X-488305D02*
Y-283743D01*
X-485621Y-287743D01*
Y-283743D01*
G01X-482163Y-287876D02*
X-482280Y-287810D01*
Y-287676D01*
X-482163Y-287610D01*
X-482046Y-287676D01*
Y-287810D01*
X-482163Y-287876D01*
G01X-472563Y-283743D02*
Y-287743D01*
G01X-473905Y-283743D02*
X-471221D01*
G01X-466596Y-287743D02*
X-468930D01*
Y-283743D01*
X-466596D01*
G01X-467530Y-285676D02*
X-468930D01*
G01X-464188Y-287743D02*
X-461738Y-283743D01*
G01X-464188D02*
X-461738Y-287743D01*
G01X-459621D02*
X-458163Y-283743D01*
X-456705Y-287743D01*
G01X-457230Y-286343D02*
X-459096D01*
G01X-454588Y-287210D02*
X-454121Y-287543D01*
X-453596Y-287743D01*
X-453130D01*
X-452663Y-287543D01*
X-452313Y-287210D01*
X-452138Y-286743D01*
X-452255Y-286276D01*
X-452546Y-285876D01*
X-453071Y-285610D01*
X-453771Y-285476D01*
X-454180Y-285210D01*
X-454355Y-284743D01*
X-454238Y-284276D01*
X-453946Y-283943D01*
X-453538Y-283743D01*
X-453130D01*
X-452721Y-283876D01*
X-452371Y-284210D01*
G01X-443880Y-287743D02*
X-443763Y-286876D01*
X-443588Y-286143D01*
X-443355Y-285476D01*
X-443063Y-284743D01*
X-442596Y-283743D01*
X-444930D01*
G01X-438963Y-287743D02*
X-438555Y-287676D01*
X-438088Y-287476D01*
X-437796Y-287143D01*
X-437680Y-286676D01*
X-437796Y-286210D01*
X-438146Y-285810D01*
X-438671Y-285610D01*
X-439255D01*
X-439605Y-285476D01*
X-439896Y-285143D01*
X-440013Y-284676D01*
X-439838Y-284210D01*
X-439430Y-283876D01*
X-438963Y-283743D01*
X-438496Y-283876D01*
X-438088Y-284210D01*
X-437913Y-284676D01*
X-438030Y-285143D01*
X-438321Y-285476D01*
X-438671Y-285610D01*
X-439255D01*
X-439780Y-285810D01*
X-440130Y-286210D01*
X-440246Y-286676D01*
X-440130Y-287143D01*
X-439838Y-287476D01*
X-439371Y-287676D01*
X-438963Y-287743D01*
G01X-434280D02*
X-434163Y-286876D01*
X-433988Y-286143D01*
X-433755Y-285476D01*
X-433463Y-284743D01*
X-432996Y-283743D01*
X-435330D01*
G01X-430646Y-286943D02*
X-430296Y-287410D01*
X-429830Y-287676D01*
X-429305Y-287743D01*
X-428838Y-287676D01*
X-428371Y-287343D01*
X-428080Y-286943D01*
X-428021Y-286543D01*
X-428138Y-286076D01*
X-428546Y-285743D01*
X-428955Y-285610D01*
X-429480D01*
G01X-428955D02*
X-428605Y-285410D01*
X-428313Y-285076D01*
X-428196Y-284676D01*
X-428313Y-284276D01*
X-428605Y-283943D01*
X-429130Y-283743D01*
X-429655Y-283810D01*
X-430180Y-284076D01*
G01X-425846Y-287143D02*
X-425496Y-287476D01*
X-425088Y-287676D01*
X-424563Y-287743D01*
X-424038Y-287610D01*
X-423630Y-287343D01*
X-423338Y-286876D01*
X-423280Y-286343D01*
X-423396Y-285810D01*
X-423688Y-285476D01*
X-424096Y-285210D01*
X-424505Y-285143D01*
X-424913Y-285210D01*
X-425438Y-285476D01*
X-425263Y-283743D01*
X-423688D01*
G01X-416246D02*
Y-286610D01*
X-416013Y-287210D01*
X-415546Y-287610D01*
X-414963Y-287743D01*
X-414380Y-287610D01*
X-413913Y-287210D01*
X-413680Y-286610D01*
Y-283743D01*
G01X-411388Y-287210D02*
X-410921Y-287543D01*
X-410396Y-287743D01*
X-409930D01*
X-409463Y-287543D01*
X-409113Y-287210D01*
X-408938Y-286743D01*
X-409055Y-286276D01*
X-409346Y-285876D01*
X-409871Y-285610D01*
X-410571Y-285476D01*
X-410980Y-285210D01*
X-411155Y-284743D01*
X-411038Y-284276D01*
X-410746Y-283943D01*
X-410338Y-283743D01*
X-409930D01*
X-409521Y-283876D01*
X-409171Y-284210D01*
G01X-406821Y-287743D02*
X-405363Y-283743D01*
X-403905Y-287743D01*
G01X-404430Y-286343D02*
X-406296D01*
G01X-509560Y-271743D02*
Y-264243D01*
X-505266Y-271743D01*
Y-264243D01*
G01X-501873Y-271743D02*
X-497953Y-264243D01*
G01X-501873D02*
X-497953Y-271743D01*
G01X-494280D02*
Y-264243D01*
X-492040D01*
X-491293Y-264618D01*
X-490733Y-265493D01*
X-490546Y-266493D01*
X-490733Y-267493D01*
X-491200Y-268243D01*
X-492040Y-268618D01*
X-494280D01*
G01X-479373Y-270743D02*
X-478626Y-271368D01*
X-477786Y-271743D01*
X-477040D01*
X-476293Y-271368D01*
X-475733Y-270743D01*
X-475453Y-269868D01*
X-475640Y-268993D01*
X-476106Y-268243D01*
X-476946Y-267743D01*
X-478066Y-267493D01*
X-478720Y-266993D01*
X-479000Y-266118D01*
X-478813Y-265243D01*
X-478346Y-264618D01*
X-477693Y-264243D01*
X-477040D01*
X-476386Y-264493D01*
X-475826Y-265118D01*
G01X-468046Y-271743D02*
X-471780D01*
Y-264243D01*
X-468046D01*
G01X-469540Y-267868D02*
X-471780D01*
G01X-464840Y-271743D02*
Y-264243D01*
X-462413Y-270493D01*
X-459986Y-264243D01*
Y-271743D01*
G01X-456033Y-264243D02*
X-453793D01*
G01X-454913D02*
Y-271743D01*
G01X-456033D02*
X-453793D01*
G01X-445360Y-264868D02*
X-445920Y-264493D01*
X-446573Y-264243D01*
X-447320D01*
X-448160Y-264618D01*
X-448813Y-265243D01*
X-449280Y-265993D01*
X-449653Y-267243D01*
X-449746Y-268368D01*
X-449560Y-269493D01*
X-449280Y-270243D01*
X-448720Y-270993D01*
X-448066Y-271493D01*
X-447413Y-271743D01*
X-446760D01*
X-446106Y-271493D01*
X-445546Y-271118D01*
X-445080Y-270618D01*
G01X-439913Y-271743D02*
X-440660Y-271618D01*
X-441313Y-271118D01*
X-441873Y-270368D01*
X-442246Y-269493D01*
X-442433Y-268493D01*
Y-267493D01*
X-442246Y-266493D01*
X-441873Y-265618D01*
X-441313Y-264868D01*
X-440660Y-264368D01*
X-439913Y-264243D01*
X-439166Y-264368D01*
X-438513Y-264868D01*
X-437953Y-265618D01*
X-437580Y-266493D01*
X-437393Y-267493D01*
Y-268493D01*
X-437580Y-269493D01*
X-437953Y-270368D01*
X-438513Y-271118D01*
X-439166Y-271618D01*
X-439913Y-271743D01*
G01X-434560D02*
Y-264243D01*
X-430266Y-271743D01*
Y-264243D01*
G01X-426966Y-271743D02*
Y-264243D01*
X-425100D01*
X-424353Y-264618D01*
X-423793Y-265118D01*
X-423326Y-265868D01*
X-422953Y-266743D01*
X-422860Y-267993D01*
X-422953Y-269243D01*
X-423326Y-270118D01*
X-423793Y-270868D01*
X-424353Y-271368D01*
X-425100Y-271743D01*
X-426966D01*
G01X-419466Y-264243D02*
Y-269618D01*
X-419093Y-270743D01*
X-418346Y-271493D01*
X-417413Y-271743D01*
X-416480Y-271493D01*
X-415733Y-270743D01*
X-415360Y-269618D01*
Y-264243D01*
G01X-407860Y-264868D02*
X-408420Y-264493D01*
X-409073Y-264243D01*
X-409820D01*
X-410660Y-264618D01*
X-411313Y-265243D01*
X-411780Y-265993D01*
X-412153Y-267243D01*
X-412246Y-268368D01*
X-412060Y-269493D01*
X-411780Y-270243D01*
X-411220Y-270993D01*
X-410566Y-271493D01*
X-409913Y-271743D01*
X-409260D01*
X-408606Y-271493D01*
X-408046Y-271118D01*
X-407580Y-270618D01*
G01X-402413Y-264243D02*
Y-271743D01*
G01X-404560Y-264243D02*
X-400266D01*
G01X-394913Y-271743D02*
X-395660Y-271618D01*
X-396313Y-271118D01*
X-396873Y-270368D01*
X-397246Y-269493D01*
X-397433Y-268493D01*
Y-267493D01*
X-397246Y-266493D01*
X-396873Y-265618D01*
X-396313Y-264868D01*
X-395660Y-264368D01*
X-394913Y-264243D01*
X-394166Y-264368D01*
X-393513Y-264868D01*
X-392953Y-265618D01*
X-392580Y-266493D01*
X-392393Y-267493D01*
Y-268493D01*
X-392580Y-269493D01*
X-392953Y-270368D01*
X-393513Y-271118D01*
X-394166Y-271618D01*
X-394913Y-271743D01*
G01X-389280D02*
Y-264243D01*
X-386946D01*
X-386200Y-264618D01*
X-385733Y-265118D01*
X-385546Y-266118D01*
X-385733Y-267118D01*
X-386293Y-267743D01*
X-386946Y-268118D01*
X-389280D01*
G01X-386946D02*
X-385546Y-271743D01*
G01X-381873Y-270743D02*
X-381126Y-271368D01*
X-380286Y-271743D01*
X-379540D01*
X-378793Y-271368D01*
X-378233Y-270743D01*
X-377953Y-269868D01*
X-378140Y-268993D01*
X-378606Y-268243D01*
X-379446Y-267743D01*
X-380566Y-267493D01*
X-381220Y-266993D01*
X-381500Y-266118D01*
X-381313Y-265243D01*
X-380846Y-264618D01*
X-380193Y-264243D01*
X-379540D01*
X-378886Y-264493D01*
X-378326Y-265118D01*
G01X-462071Y-348743D02*
Y-344743D01*
X-459855D01*
G01X-460671Y-346676D02*
X-462071D01*
G01X-456863Y-344743D02*
X-455463D01*
G01X-456163D02*
Y-348743D01*
G01X-456863D02*
X-455463D01*
G01X-452530Y-344743D02*
Y-348743D01*
X-450196D01*
G01X-448080D02*
Y-344743D01*
X-446563Y-348076D01*
X-445046Y-344743D01*
Y-348743D01*
G01X-442508Y-356403D02*
X-441881Y-356928D01*
X-441176Y-357243D01*
X-440550D01*
X-439923Y-356928D01*
X-439453Y-356403D01*
X-439218Y-355668D01*
X-439375Y-354933D01*
X-439766Y-354303D01*
X-440471Y-353883D01*
X-441411Y-353673D01*
X-441960Y-353253D01*
X-442195Y-352518D01*
X-442038Y-351783D01*
X-441646Y-351258D01*
X-441098Y-350943D01*
X-440550D01*
X-440001Y-351153D01*
X-439531Y-351678D01*
G01X-432996Y-357243D02*
X-436130D01*
Y-350943D01*
X-432996D01*
G01X-434250Y-353988D02*
X-436130D01*
G01X-426540Y-351468D02*
X-427010Y-351153D01*
X-427558Y-350943D01*
X-428185D01*
X-428890Y-351258D01*
X-429438Y-351783D01*
X-429830Y-352413D01*
X-430143Y-353463D01*
X-430221Y-354408D01*
X-430065Y-355353D01*
X-429830Y-355983D01*
X-429360Y-356613D01*
X-428811Y-357033D01*
X-428263Y-357243D01*
X-427715D01*
X-427166Y-357033D01*
X-426696Y-356718D01*
X-426305Y-356298D01*
G01X-421963Y-357243D02*
X-422590Y-357138D01*
X-423138Y-356718D01*
X-423608Y-356088D01*
X-423921Y-355353D01*
X-424078Y-354513D01*
Y-353673D01*
X-423921Y-352833D01*
X-423608Y-352098D01*
X-423138Y-351468D01*
X-422590Y-351048D01*
X-421963Y-350943D01*
X-421336Y-351048D01*
X-420788Y-351468D01*
X-420318Y-352098D01*
X-420005Y-352833D01*
X-419848Y-353673D01*
Y-354513D01*
X-420005Y-355353D01*
X-420318Y-356088D01*
X-420788Y-356718D01*
X-421336Y-357138D01*
X-421963Y-357243D01*
G01X-417465D02*
Y-350943D01*
X-413861Y-357243D01*
Y-350943D01*
G01X-411086Y-357243D02*
Y-350943D01*
X-409520D01*
X-408893Y-351258D01*
X-408423Y-351678D01*
X-408031Y-352308D01*
X-407718Y-353043D01*
X-407640Y-354093D01*
X-407718Y-355143D01*
X-408031Y-355878D01*
X-408423Y-356508D01*
X-408893Y-356928D01*
X-409520Y-357243D01*
X-411086D01*
G01X-405021D02*
X-403063Y-350943D01*
X-401105Y-357243D01*
G01X-401810Y-355038D02*
X-404316D01*
G01X-398330Y-357243D02*
Y-350943D01*
X-396371D01*
X-395745Y-351258D01*
X-395353Y-351678D01*
X-395196Y-352518D01*
X-395353Y-353358D01*
X-395823Y-353883D01*
X-396371Y-354198D01*
X-398330D01*
G01X-396371D02*
X-395196Y-357243D01*
G01X-390463D02*
Y-354408D01*
X-392030Y-350943D01*
G01X-388896D02*
X-390463Y-354408D01*
G01X-379508Y-356403D02*
X-378881Y-356928D01*
X-378176Y-357243D01*
X-377550D01*
X-376923Y-356928D01*
X-376453Y-356403D01*
X-376218Y-355668D01*
X-376375Y-354933D01*
X-376766Y-354303D01*
X-377471Y-353883D01*
X-378411Y-353673D01*
X-378960Y-353253D01*
X-379195Y-352518D01*
X-379038Y-351783D01*
X-378646Y-351258D01*
X-378098Y-350943D01*
X-377550D01*
X-377001Y-351153D01*
X-376531Y-351678D01*
G01X-372503Y-350943D02*
X-370623D01*
G01X-371563D02*
Y-357243D01*
G01X-372503D02*
X-370623D01*
G01X-366986D02*
Y-350943D01*
X-365420D01*
X-364793Y-351258D01*
X-364323Y-351678D01*
X-363931Y-352308D01*
X-363618Y-353043D01*
X-363540Y-354093D01*
X-363618Y-355143D01*
X-363931Y-355878D01*
X-364323Y-356508D01*
X-364793Y-356928D01*
X-365420Y-357243D01*
X-366986D01*
G01X-357396D02*
X-360530D01*
Y-350943D01*
X-357396D01*
G01X-358650Y-353988D02*
X-360530D01*
G01X-335071Y-353410D02*
X-334721Y-353010D01*
X-334313Y-352810D01*
X-333846Y-352743D01*
X-333263Y-352876D01*
X-332855Y-353210D01*
X-332738Y-353610D01*
X-332796Y-354010D01*
X-333030Y-354343D01*
X-334196Y-355010D01*
X-334721Y-355476D01*
X-335071Y-356143D01*
X-335188Y-356743D01*
X-332738D01*
G01X-328463D02*
Y-352743D01*
X-330621Y-355610D01*
X-327705D01*
G01X-325121Y-355410D02*
X-323605D01*
G01X-319563Y-352743D02*
X-320030Y-352876D01*
X-320380Y-353210D01*
X-320613Y-353610D01*
X-320788Y-354143D01*
X-320846Y-354743D01*
X-320788Y-355343D01*
X-320613Y-355876D01*
X-320380Y-356276D01*
X-320030Y-356610D01*
X-319563Y-356743D01*
X-319096Y-356610D01*
X-318746Y-356276D01*
X-318513Y-355876D01*
X-318338Y-355343D01*
X-318280Y-354743D01*
X-318338Y-354143D01*
X-318513Y-353610D01*
X-318746Y-353210D01*
X-319096Y-352876D01*
X-319563Y-352743D01*
G01X-314063Y-356743D02*
Y-352743D01*
X-316221Y-355610D01*
X-313305D01*
G01X-310721Y-355410D02*
X-309205D01*
G01X-306271Y-353410D02*
X-305921Y-353010D01*
X-305513Y-352810D01*
X-305046Y-352743D01*
X-304463Y-352876D01*
X-304055Y-353210D01*
X-303938Y-353610D01*
X-303996Y-354010D01*
X-304230Y-354343D01*
X-305396Y-355010D01*
X-305921Y-355476D01*
X-306271Y-356143D01*
X-306388Y-356743D01*
X-303938D01*
G01X-299663D02*
Y-352743D01*
X-301821Y-355610D01*
X-298905D01*
G01X-337246Y-348743D02*
Y-344743D01*
X-336080D01*
X-335613Y-344943D01*
X-335263Y-345210D01*
X-334971Y-345610D01*
X-334738Y-346076D01*
X-334680Y-346743D01*
X-334738Y-347410D01*
X-334971Y-347876D01*
X-335263Y-348276D01*
X-335613Y-348543D01*
X-336080Y-348743D01*
X-337246D01*
G01X-332621D02*
X-331163Y-344743D01*
X-329705Y-348743D01*
G01X-330230Y-347343D02*
X-332096D01*
G01X-326363Y-344743D02*
Y-348743D01*
G01X-327705Y-344743D02*
X-325021D01*
G01X-320396Y-348743D02*
X-322730D01*
Y-344743D01*
X-320396D01*
G01X-321330Y-346676D02*
X-322730D01*
G01X-327713Y-334576D02*
X-324213D01*
G01X-322913D02*
X-319413D01*
G01X-318113D02*
X-314613D01*
G01X-305480Y-329576D02*
X-305830Y-329376D01*
X-306238Y-329243D01*
X-306705D01*
X-307230Y-329443D01*
X-307638Y-329776D01*
X-307930Y-330176D01*
X-308163Y-330843D01*
X-308221Y-331443D01*
X-308105Y-332043D01*
X-307930Y-332443D01*
X-307580Y-332843D01*
X-307171Y-333110D01*
X-306763Y-333243D01*
X-306355D01*
X-305946Y-333110D01*
X-305596Y-332910D01*
X-305305Y-332643D01*
G01X-301963Y-333243D02*
X-302430Y-333176D01*
X-302838Y-332910D01*
X-303188Y-332510D01*
X-303421Y-332043D01*
X-303538Y-331510D01*
Y-330976D01*
X-303421Y-330443D01*
X-303188Y-329976D01*
X-302838Y-329576D01*
X-302430Y-329310D01*
X-301963Y-329243D01*
X-301496Y-329310D01*
X-301088Y-329576D01*
X-300738Y-329976D01*
X-300505Y-330443D01*
X-300388Y-330976D01*
Y-331510D01*
X-300505Y-332043D01*
X-300738Y-332510D01*
X-301088Y-332910D01*
X-301496Y-333176D01*
X-301963Y-333243D01*
G01X-298680D02*
Y-329243D01*
X-297163Y-332576D01*
X-295646Y-329243D01*
Y-333243D01*
G01X-293530D02*
Y-329243D01*
X-292130D01*
X-291663Y-329443D01*
X-291313Y-329910D01*
X-291196Y-330443D01*
X-291313Y-330976D01*
X-291605Y-331376D01*
X-292130Y-331576D01*
X-293530D01*
G01X-289021Y-333243D02*
X-287563Y-329243D01*
X-286105Y-333243D01*
G01X-286630Y-331843D02*
X-288496D01*
G01X-284105Y-333243D02*
Y-329243D01*
X-281421Y-333243D01*
Y-329243D01*
G01X-277963Y-333243D02*
Y-331443D01*
X-279130Y-329243D01*
G01X-276796D02*
X-277963Y-331443D01*
G01X-267080Y-329576D02*
X-267430Y-329376D01*
X-267838Y-329243D01*
X-268305D01*
X-268830Y-329443D01*
X-269238Y-329776D01*
X-269530Y-330176D01*
X-269763Y-330843D01*
X-269821Y-331443D01*
X-269705Y-332043D01*
X-269530Y-332443D01*
X-269180Y-332843D01*
X-268771Y-333110D01*
X-268363Y-333243D01*
X-267955D01*
X-267546Y-333110D01*
X-267196Y-332910D01*
X-266905Y-332643D01*
G01X-263563Y-333243D02*
X-264030Y-333176D01*
X-264438Y-332910D01*
X-264788Y-332510D01*
X-265021Y-332043D01*
X-265138Y-331510D01*
Y-330976D01*
X-265021Y-330443D01*
X-264788Y-329976D01*
X-264438Y-329576D01*
X-264030Y-329310D01*
X-263563Y-329243D01*
X-263096Y-329310D01*
X-262688Y-329576D01*
X-262338Y-329976D01*
X-262105Y-330443D01*
X-261988Y-330976D01*
Y-331510D01*
X-262105Y-332043D01*
X-262338Y-332510D01*
X-262688Y-332910D01*
X-263096Y-333176D01*
X-263563Y-333243D01*
G01X-260105D02*
Y-329243D01*
X-257421Y-333243D01*
Y-329243D01*
G01X-255071Y-333243D02*
Y-329243D01*
X-252855D01*
G01X-253671Y-331176D02*
X-255071D01*
G01X-249863Y-329243D02*
X-248463D01*
G01X-249163D02*
Y-333243D01*
G01X-249863D02*
X-248463D01*
G01X-245646D02*
Y-329243D01*
X-244480D01*
X-244013Y-329443D01*
X-243663Y-329710D01*
X-243371Y-330110D01*
X-243138Y-330576D01*
X-243080Y-331243D01*
X-243138Y-331910D01*
X-243371Y-332376D01*
X-243663Y-332776D01*
X-244013Y-333043D01*
X-244480Y-333243D01*
X-245646D01*
G01X-238396D02*
X-240730D01*
Y-329243D01*
X-238396D01*
G01X-239330Y-331176D02*
X-240730D01*
G01X-236105Y-333243D02*
Y-329243D01*
X-233421Y-333243D01*
Y-329243D01*
G01X-229963D02*
Y-333243D01*
G01X-231305Y-329243D02*
X-228621D01*
G01X-225863D02*
X-224463D01*
G01X-225163D02*
Y-333243D01*
G01X-225863D02*
X-224463D01*
G01X-221821D02*
X-220363Y-329243D01*
X-218905Y-333243D01*
G01X-219430Y-331843D02*
X-221296D01*
G01X-216730Y-329243D02*
Y-333243D01*
X-214396D01*
G01X-327713Y-318076D02*
X-324213D01*
G01X-322913D02*
X-319413D01*
G01X-318113D02*
X-314613D01*
G01X-305480Y-313076D02*
X-305830Y-312876D01*
X-306238Y-312743D01*
X-306705D01*
X-307230Y-312943D01*
X-307638Y-313276D01*
X-307930Y-313676D01*
X-308163Y-314343D01*
X-308221Y-314943D01*
X-308105Y-315543D01*
X-307930Y-315943D01*
X-307580Y-316343D01*
X-307171Y-316610D01*
X-306763Y-316743D01*
X-306355D01*
X-305946Y-316610D01*
X-305596Y-316410D01*
X-305305Y-316143D01*
G01X-301963Y-316743D02*
X-302430Y-316676D01*
X-302838Y-316410D01*
X-303188Y-316010D01*
X-303421Y-315543D01*
X-303538Y-315010D01*
Y-314476D01*
X-303421Y-313943D01*
X-303188Y-313476D01*
X-302838Y-313076D01*
X-302430Y-312810D01*
X-301963Y-312743D01*
X-301496Y-312810D01*
X-301088Y-313076D01*
X-300738Y-313476D01*
X-300505Y-313943D01*
X-300388Y-314476D01*
Y-315010D01*
X-300505Y-315543D01*
X-300738Y-316010D01*
X-301088Y-316410D01*
X-301496Y-316676D01*
X-301963Y-316743D01*
G01X-298680D02*
Y-312743D01*
X-297163Y-316076D01*
X-295646Y-312743D01*
Y-316743D01*
G01X-293530D02*
Y-312743D01*
X-292130D01*
X-291663Y-312943D01*
X-291313Y-313410D01*
X-291196Y-313943D01*
X-291313Y-314476D01*
X-291605Y-314876D01*
X-292130Y-315076D01*
X-293530D01*
G01X-289021Y-316743D02*
X-287563Y-312743D01*
X-286105Y-316743D01*
G01X-286630Y-315343D02*
X-288496D01*
G01X-284105Y-316743D02*
Y-312743D01*
X-281421Y-316743D01*
Y-312743D01*
G01X-277963Y-316743D02*
Y-314943D01*
X-279130Y-312743D01*
G01X-276796D02*
X-277963Y-314943D01*
G01X-269063Y-312743D02*
X-267663D01*
G01X-268363D02*
Y-316743D01*
G01X-269063D02*
X-267663D01*
G01X-264905D02*
Y-312743D01*
X-262221Y-316743D01*
Y-312743D01*
G01X-258763D02*
Y-316743D01*
G01X-260105Y-312743D02*
X-257421D01*
G01X-252796Y-316743D02*
X-255130D01*
Y-312743D01*
X-252796D01*
G01X-253730Y-314676D02*
X-255130D01*
G01X-250330Y-316743D02*
Y-312743D01*
X-248871D01*
X-248405Y-312943D01*
X-248113Y-313210D01*
X-247996Y-313743D01*
X-248113Y-314276D01*
X-248463Y-314610D01*
X-248871Y-314810D01*
X-250330D01*
G01X-248871D02*
X-247996Y-316743D01*
G01X-245705D02*
Y-312743D01*
X-243021Y-316743D01*
Y-312743D01*
G01X-241021Y-316743D02*
X-239563Y-312743D01*
X-238105Y-316743D01*
G01X-238630Y-315343D02*
X-240496D01*
G01X-235930Y-312743D02*
Y-316743D01*
X-233596D01*
G01X-327713Y-302076D02*
X-324213D01*
G01X-322913D02*
X-319413D01*
G01X-318113D02*
X-314613D01*
G01X-305480Y-297076D02*
X-305830Y-296876D01*
X-306238Y-296743D01*
X-306705D01*
X-307230Y-296943D01*
X-307638Y-297276D01*
X-307930Y-297676D01*
X-308163Y-298343D01*
X-308221Y-298943D01*
X-308105Y-299543D01*
X-307930Y-299943D01*
X-307580Y-300343D01*
X-307171Y-300610D01*
X-306763Y-300743D01*
X-306355D01*
X-305946Y-300610D01*
X-305596Y-300410D01*
X-305305Y-300143D01*
G01X-301963Y-300743D02*
X-302430Y-300676D01*
X-302838Y-300410D01*
X-303188Y-300010D01*
X-303421Y-299543D01*
X-303538Y-299010D01*
Y-298476D01*
X-303421Y-297943D01*
X-303188Y-297476D01*
X-302838Y-297076D01*
X-302430Y-296810D01*
X-301963Y-296743D01*
X-301496Y-296810D01*
X-301088Y-297076D01*
X-300738Y-297476D01*
X-300505Y-297943D01*
X-300388Y-298476D01*
Y-299010D01*
X-300505Y-299543D01*
X-300738Y-300010D01*
X-301088Y-300410D01*
X-301496Y-300676D01*
X-301963Y-300743D01*
G01X-298680D02*
Y-296743D01*
X-297163Y-300076D01*
X-295646Y-296743D01*
Y-300743D01*
G01X-293530D02*
Y-296743D01*
X-292130D01*
X-291663Y-296943D01*
X-291313Y-297410D01*
X-291196Y-297943D01*
X-291313Y-298476D01*
X-291605Y-298876D01*
X-292130Y-299076D01*
X-293530D01*
G01X-289021Y-300743D02*
X-287563Y-296743D01*
X-286105Y-300743D01*
G01X-286630Y-299343D02*
X-288496D01*
G01X-284105Y-300743D02*
Y-296743D01*
X-281421Y-300743D01*
Y-296743D01*
G01X-277963Y-300743D02*
Y-298943D01*
X-279130Y-296743D01*
G01X-276796D02*
X-277963Y-298943D01*
G01X-269530Y-300743D02*
Y-296743D01*
X-268130D01*
X-267663Y-296943D01*
X-267313Y-297410D01*
X-267196Y-297943D01*
X-267313Y-298476D01*
X-267605Y-298876D01*
X-268130Y-299076D01*
X-269530D01*
G01X-264846Y-296743D02*
Y-299610D01*
X-264613Y-300210D01*
X-264146Y-300610D01*
X-263563Y-300743D01*
X-262980Y-300610D01*
X-262513Y-300210D01*
X-262280Y-299610D01*
Y-296743D01*
G01X-258296Y-298610D02*
X-258063Y-298410D01*
X-257888Y-298076D01*
X-257771Y-297610D01*
X-257888Y-297210D01*
X-258121Y-296943D01*
X-258530Y-296743D01*
X-260105D01*
Y-300743D01*
X-258180D01*
X-257771Y-300476D01*
X-257538Y-300076D01*
X-257421Y-299610D01*
X-257538Y-299143D01*
X-257888Y-298743D01*
X-258296Y-298610D01*
X-260105D01*
G01X-255130Y-296743D02*
Y-300743D01*
X-252796D01*
G01X-249863Y-296743D02*
X-248463D01*
G01X-249163D02*
Y-300743D01*
G01X-249863D02*
X-248463D01*
G01X-243080Y-297076D02*
X-243430Y-296876D01*
X-243838Y-296743D01*
X-244305D01*
X-244830Y-296943D01*
X-245238Y-297276D01*
X-245530Y-297676D01*
X-245763Y-298343D01*
X-245821Y-298943D01*
X-245705Y-299543D01*
X-245530Y-299943D01*
X-245180Y-300343D01*
X-244771Y-300610D01*
X-244363Y-300743D01*
X-243955D01*
X-243546Y-300610D01*
X-243196Y-300410D01*
X-242905Y-300143D01*
G01X-337305Y-268743D02*
Y-264743D01*
X-334621Y-268743D01*
Y-264743D01*
G01X-332621Y-268743D02*
X-331163Y-264743D01*
X-329705Y-268743D01*
G01X-330230Y-267343D02*
X-332096D01*
G01X-327880Y-268743D02*
Y-264743D01*
X-326363Y-268076D01*
X-324846Y-264743D01*
Y-268743D01*
G01X-320396D02*
X-322730D01*
Y-264743D01*
X-320396D01*
G01X-321330Y-266676D02*
X-322730D01*
G01X-322208Y-300243D02*
X-318918Y-293943D01*
G01X-322208D02*
X-318918Y-300243D01*
G01X-287305Y-348743D02*
Y-344743D01*
X-284621Y-348743D01*
Y-344743D01*
G01X-282446D02*
Y-347610D01*
X-282213Y-348210D01*
X-281746Y-348610D01*
X-281163Y-348743D01*
X-280580Y-348610D01*
X-280113Y-348210D01*
X-279880Y-347610D01*
Y-344743D01*
G01X-277880Y-348743D02*
Y-344743D01*
X-276363Y-348076D01*
X-274846Y-344743D01*
Y-348743D01*
G01X-271096Y-346610D02*
X-270863Y-346410D01*
X-270688Y-346076D01*
X-270571Y-345610D01*
X-270688Y-345210D01*
X-270921Y-344943D01*
X-271330Y-344743D01*
X-272905D01*
Y-348743D01*
X-270980D01*
X-270571Y-348476D01*
X-270338Y-348076D01*
X-270221Y-347610D01*
X-270338Y-347143D01*
X-270688Y-346743D01*
X-271096Y-346610D01*
X-272905D01*
G01X-265596Y-348743D02*
X-267930D01*
Y-344743D01*
X-265596D01*
G01X-266530Y-346676D02*
X-267930D01*
G01X-263130Y-348743D02*
Y-344743D01*
X-261671D01*
X-261205Y-344943D01*
X-260913Y-345210D01*
X-260796Y-345743D01*
X-260913Y-346276D01*
X-261263Y-346610D01*
X-261671Y-346810D01*
X-263130D01*
G01X-261671D02*
X-260796Y-348743D01*
G01X-252363Y-355743D02*
Y-349443D01*
X-253303Y-350703D01*
G01Y-355743D02*
X-251423D01*
G01X-246220D02*
X-246063Y-354378D01*
X-245828Y-353223D01*
X-245515Y-352173D01*
X-245123Y-351018D01*
X-244496Y-349443D01*
X-247630D01*
G01X-239763D02*
X-240390Y-349653D01*
X-240860Y-350178D01*
X-241173Y-350808D01*
X-241408Y-351648D01*
X-241486Y-352593D01*
X-241408Y-353538D01*
X-241173Y-354378D01*
X-240860Y-355008D01*
X-240390Y-355533D01*
X-239763Y-355743D01*
X-239136Y-355533D01*
X-238666Y-355008D01*
X-238353Y-354378D01*
X-238118Y-353538D01*
X-238040Y-352593D01*
X-238118Y-351648D01*
X-238353Y-350808D01*
X-238666Y-350178D01*
X-239136Y-349653D01*
X-239763Y-349443D01*
G01X-234481Y-353643D02*
X-232445D01*
G01X-228886Y-354798D02*
X-228416Y-355323D01*
X-227868Y-355638D01*
X-227163Y-355743D01*
X-226458Y-355533D01*
X-225910Y-355113D01*
X-225518Y-354378D01*
X-225440Y-353538D01*
X-225596Y-352698D01*
X-225988Y-352173D01*
X-226536Y-351753D01*
X-227085Y-351648D01*
X-227633Y-351753D01*
X-228338Y-352173D01*
X-228103Y-349443D01*
X-225988D01*
G01X-220863Y-355743D02*
Y-349443D01*
X-221803Y-350703D01*
G01Y-355743D02*
X-219923D01*
G01X-215895Y-355008D02*
X-215346Y-355533D01*
X-214720Y-355743D01*
X-214093Y-355533D01*
X-213545Y-354903D01*
X-213153Y-353958D01*
X-212996Y-353013D01*
Y-351858D01*
X-213153Y-350913D01*
X-213545Y-350073D01*
X-214015Y-349653D01*
X-214563Y-349443D01*
X-215190Y-349653D01*
X-215660Y-350073D01*
X-215973Y-350703D01*
X-216130Y-351543D01*
X-215973Y-352278D01*
X-215581Y-353013D01*
X-215111Y-353433D01*
X-214563Y-353538D01*
X-213936Y-353328D01*
X-213466Y-352803D01*
X-212996Y-351858D01*
G01X-207323Y-355743D02*
Y-349443D01*
X-210221Y-353958D01*
X-206305D01*
G01X-203686Y-354483D02*
X-203216Y-355218D01*
X-202590Y-355638D01*
X-201885Y-355743D01*
X-201258Y-355638D01*
X-200631Y-355113D01*
X-200240Y-354483D01*
X-200161Y-353853D01*
X-200318Y-353118D01*
X-200866Y-352593D01*
X-201415Y-352383D01*
X-202120D01*
G01X-201415D02*
X-200945Y-352068D01*
X-200553Y-351543D01*
X-200396Y-350913D01*
X-200553Y-350283D01*
X-200945Y-349758D01*
X-201650Y-349443D01*
X-202355Y-349548D01*
X-203060Y-349968D01*
G01X-165730Y-355743D02*
Y-349443D01*
X-163771D01*
X-163145Y-349758D01*
X-162753Y-350178D01*
X-162596Y-351018D01*
X-162753Y-351858D01*
X-163223Y-352383D01*
X-163771Y-352698D01*
X-165730D01*
G01X-163771D02*
X-162596Y-355743D01*
G01X-156296D02*
X-159430D01*
Y-349443D01*
X-156296D01*
G01X-157550Y-352488D02*
X-159430D01*
G01X-153521Y-349443D02*
X-151563Y-355743D01*
X-149605Y-349443D01*
G01X-138336Y-352383D02*
X-138023Y-352068D01*
X-137788Y-351543D01*
X-137631Y-350808D01*
X-137788Y-350178D01*
X-138101Y-349758D01*
X-138650Y-349443D01*
X-140765D01*
Y-355743D01*
X-138180D01*
X-137631Y-355323D01*
X-137318Y-354693D01*
X-137161Y-353958D01*
X-137318Y-353223D01*
X-137788Y-352593D01*
X-138336Y-352383D01*
X-140765D01*
G01X-134386Y-354483D02*
X-133916Y-355218D01*
X-133290Y-355638D01*
X-132585Y-355743D01*
X-131958Y-355638D01*
X-131331Y-355113D01*
X-130940Y-354483D01*
X-130861Y-353853D01*
X-131018Y-353118D01*
X-131566Y-352593D01*
X-132115Y-352383D01*
X-132820D01*
G01X-132115D02*
X-131645Y-352068D01*
X-131253Y-351543D01*
X-131096Y-350913D01*
X-131253Y-350283D01*
X-131645Y-349758D01*
X-132350Y-349443D01*
X-133055Y-349548D01*
X-133760Y-349968D01*
G01X-265789Y-280289D02*
Y-273989D01*
X-263752Y-279239D01*
X-261715Y-273989D01*
Y-280289D01*
G01X-255729Y-274514D02*
X-256199Y-274199D01*
X-256747Y-273989D01*
X-257374D01*
X-258079Y-274304D01*
X-258627Y-274829D01*
X-259019Y-275459D01*
X-259332Y-276509D01*
X-259410Y-277454D01*
X-259254Y-278399D01*
X-259019Y-279029D01*
X-258549Y-279659D01*
X-258000Y-280079D01*
X-257452Y-280289D01*
X-256904D01*
X-256355Y-280079D01*
X-255885Y-279764D01*
X-255494Y-279344D01*
G01X-252092Y-273989D02*
X-250212D01*
G01X-251152D02*
Y-280289D01*
G01X-252092D02*
X-250212D01*
G01X-246889D02*
Y-273989D01*
X-244852Y-279239D01*
X-242815Y-273989D01*
Y-280289D01*
G01X-240197D02*
X-236907Y-273989D01*
G01X-240197D02*
X-236907Y-280289D01*
G01X-233584Y-279554D02*
X-233035Y-280079D01*
X-232409Y-280289D01*
X-231782Y-280079D01*
X-231234Y-279449D01*
X-230842Y-278504D01*
X-230685Y-277559D01*
Y-276404D01*
X-230842Y-275459D01*
X-231234Y-274619D01*
X-231704Y-274199D01*
X-232252Y-273989D01*
X-232879Y-274199D01*
X-233349Y-274619D01*
X-233662Y-275249D01*
X-233819Y-276089D01*
X-233662Y-276824D01*
X-233270Y-277559D01*
X-232800Y-277979D01*
X-232252Y-278084D01*
X-231625Y-277874D01*
X-231155Y-277349D01*
X-230685Y-276404D01*
G01X-227675Y-279029D02*
X-227205Y-279764D01*
X-226579Y-280184D01*
X-225874Y-280289D01*
X-225247Y-280184D01*
X-224620Y-279659D01*
X-224229Y-279029D01*
X-224150Y-278399D01*
X-224307Y-277664D01*
X-224855Y-277139D01*
X-225404Y-276929D01*
X-226109D01*
G01X-225404D02*
X-224934Y-276614D01*
X-224542Y-276089D01*
X-224385Y-275459D01*
X-224542Y-274829D01*
X-224934Y-274304D01*
X-225639Y-273989D01*
X-226344Y-274094D01*
X-227049Y-274514D01*
G01X-220670Y-278189D02*
X-218634D01*
G01X-214997Y-279449D02*
X-214370Y-279974D01*
X-213665Y-280289D01*
X-213039D01*
X-212412Y-279974D01*
X-211942Y-279449D01*
X-211707Y-278714D01*
X-211864Y-277979D01*
X-212255Y-277349D01*
X-212960Y-276929D01*
X-213900Y-276719D01*
X-214449Y-276299D01*
X-214684Y-275564D01*
X-214527Y-274829D01*
X-214135Y-274304D01*
X-213587Y-273989D01*
X-213039D01*
X-212490Y-274199D01*
X-212020Y-274724D01*
G01X-207052Y-280289D02*
X-207679Y-280184D01*
X-208227Y-279764D01*
X-208697Y-279134D01*
X-209010Y-278399D01*
X-209167Y-277559D01*
Y-276719D01*
X-209010Y-275879D01*
X-208697Y-275144D01*
X-208227Y-274514D01*
X-207679Y-274094D01*
X-207052Y-273989D01*
X-206425Y-274094D01*
X-205877Y-274514D01*
X-205407Y-275144D01*
X-205094Y-275879D01*
X-204937Y-276719D01*
Y-277559D01*
X-205094Y-278399D01*
X-205407Y-279134D01*
X-205877Y-279764D01*
X-206425Y-280184D01*
X-207052Y-280289D01*
G01X-202789D02*
Y-273989D01*
X-200752Y-279239D01*
X-198715Y-273989D01*
Y-280289D01*
G01X206531Y153655D02*
X206870Y153316D01*
Y152585D01*
X207530Y151925D01*
G01X203748Y160239D02*
X203728Y160259D01*
X203102D01*
X202431Y160930D01*
X201833D01*
X201425Y161338D01*
G01X207400Y170704D02*
Y169185D01*
X209000Y167585D01*
Y161692D01*
X207608Y160300D01*
Y160100D01*
G01X217499Y165599D02*
X216000D01*
X215468Y166131D01*
G01X221261Y163888D02*
X221247D01*
X219329Y161970D01*
G54D25*
G01X-515713Y-340743D02*
X-115713D01*
G01X-515713Y-310743D02*
Y-290743D01*
X-115713D01*
G01X-465713Y-360743D02*
Y-340743D01*
G01X-340213Y-360743D02*
Y-340743D01*
G01X-340713Y-290743D02*
Y-260743D01*
G01X-290713Y-360743D02*
Y-340743D01*
G01X91510Y12754D02*
X96237Y17481D01*
Y34282D01*
X93668Y36851D01*
G01X112476Y36834D02*
Y16243D01*
X117614Y11105D01*
G01X118889Y38583D02*
X118824D01*
X116654Y36413D01*
G01X114331Y38798D02*
Y36791D01*
X114559Y36563D01*
G01X115735Y143092D02*
Y141375D01*
X115460Y141100D01*
G01X125914Y142948D02*
Y141314D01*
X125700Y141100D01*
G01X127623Y135012D02*
X125912D01*
X125700Y134800D01*
G01X115797Y126553D02*
Y128163D01*
X115460Y128500D01*
G01X127623Y137114D02*
X126536D01*
X125700Y137950D01*
G01X117837Y143092D02*
Y141283D01*
X118020Y141100D01*
G01X117899Y126553D02*
Y128379D01*
X118020Y128500D01*
G01X126002Y151666D02*
Y153398D01*
X125700Y153700D01*
G01X114858Y168914D02*
Y166902D01*
X115460Y166300D01*
G01X126004Y169374D02*
Y166604D01*
X125700Y166300D01*
G01X110558Y162164D02*
Y160218D01*
X110340Y160000D01*
G01X123052Y169374D02*
Y166388D01*
X123140Y166300D01*
G01X112660Y162164D02*
Y160240D01*
X112900Y160000D01*
G01X117810Y168914D02*
Y166510D01*
X118020Y166300D01*
G01X145101Y139230D02*
X144707D01*
X143608Y138131D01*
G01X131102Y126696D02*
Y128218D01*
X130820Y128500D01*
G01X143758Y126405D02*
Y128464D01*
X143582Y128640D01*
G01X133333Y132595D02*
Y134753D01*
X133380Y134800D01*
G01X128016Y142948D02*
Y141344D01*
X128260Y141100D01*
G01X133204Y126696D02*
Y128324D01*
X133380Y128500D01*
G01X140806Y126405D02*
Y128544D01*
X140973Y128711D01*
G01X140616Y156213D02*
Y154257D01*
X140969Y153904D01*
G01X140659Y148634D02*
Y153594D01*
X140969Y153904D01*
G01X128104Y151666D02*
Y153544D01*
X128260Y153700D01*
G01X130451Y169311D02*
Y166669D01*
X130820Y166300D01*
G01X144178Y162191D02*
Y160492D01*
X143564Y159878D01*
G01X133403Y169311D02*
Y166323D01*
X133380Y166300D01*
G01X141343Y166478D02*
Y165719D01*
X142769Y164293D01*
X144178D01*
G01X147203Y139230D02*
Y139249D01*
X148812Y140858D01*
G01X163221Y136584D02*
X162732D01*
X161577Y137739D01*
G01X151324Y159144D02*
Y157168D01*
X151234Y157078D01*
G01X150985Y155155D02*
Y156829D01*
X151234Y157078D01*
G01X161390Y148859D02*
Y150678D01*
X161291Y150777D01*
G01X149965Y142559D02*
Y143682D01*
X149277Y144370D01*
G01X149378Y148466D02*
Y150329D01*
X149277Y150430D01*
G01X150985Y153053D02*
X149547D01*
X148734Y153866D01*
G01X152067Y142559D02*
Y144127D01*
X151940Y144254D01*
G01X151480Y148466D02*
Y149891D01*
X151979Y150390D01*
G01X153426Y159144D02*
Y157447D01*
X153739Y157134D01*
G01X159288Y148859D02*
Y150401D01*
X158943Y150746D01*
G01X160826Y165628D02*
X159475D01*
X159008Y166095D01*
G01X155507Y165033D02*
Y166838D01*
X155504Y166841D01*
G01X153405Y165033D02*
Y165492D01*
X152292Y166605D01*
G01X147101Y168718D02*
Y167172D01*
X146212Y166283D01*
G01X160826Y163526D02*
X159151D01*
X158957Y163332D01*
G01X165323Y136584D02*
X167708D01*
X168024Y136268D01*
G01X163517Y153243D02*
Y151038D01*
X163808Y150747D01*
G01X195761Y136471D02*
X196017D01*
X197623Y138077D01*
Y140202D01*
G01X191661Y142447D02*
Y140561D01*
X191641Y140541D01*
G01X195505Y160180D02*
Y158599D01*
X195878Y158226D01*
G01X195470Y168292D02*
X195839D01*
X197319Y166812D01*
Y165683D01*
G01X186617Y173252D02*
X188876Y170993D01*
X189058D01*
G01X214919Y82537D02*
X213172D01*
X213081Y82628D01*
G01X214888Y78374D02*
X213044D01*
X212980Y78438D01*
G01X214888Y80476D02*
X213194D01*
X213082Y80588D01*
G01X212980Y84845D02*
X213186Y84639D01*
X214919D01*
G01X203723Y136301D02*
X203356D01*
X201895Y134840D01*
Y134327D01*
G01X199793D02*
Y136257D01*
X199747Y136303D01*
G01X209463Y148353D02*
X211397D01*
X211407Y148343D01*
G01X213304Y146170D02*
X214724D01*
X215196Y146642D01*
G01X209665Y146297D02*
X211375D01*
X211492Y146414D01*
G01X213498Y156187D02*
Y158244D01*
X213558Y158304D01*
G01D02*
X214937D01*
X215289Y157952D01*
G01X201425Y159236D02*
X200415Y158226D01*
X199874D01*
G01X205617Y159265D02*
X204619Y158267D01*
X203414D01*
G01X201642Y156100D02*
X201874Y155868D01*
Y154029D01*
G01X202024Y148546D02*
X201878Y148692D01*
Y150284D01*
G01X211492Y146414D02*
X213060D01*
X213304Y146170D01*
G01X213558Y158304D02*
X211630D01*
X211460Y158134D01*
G01X202024Y148546D02*
Y147328D01*
X201700Y147004D01*
Y146522D01*
G01X203613Y146414D02*
X201808D01*
X201700Y146522D01*
G01X201642Y156100D02*
Y156458D01*
X199874Y158226D01*
G01X201425Y159236D02*
X202445D01*
X203414Y158267D01*
G01X213194Y154278D02*
X213281Y154365D01*
Y154574D01*
X213498Y154791D01*
Y156187D01*
G01X213587Y148562D02*
Y150016D01*
X213242Y150361D01*
G01X204246Y148499D02*
X204199Y148546D01*
X202024D01*
G01X204246Y148499D02*
Y147047D01*
X203613Y146414D01*
G01X211407Y148343D02*
X213368D01*
X213587Y148562D01*
G01X211407Y148343D02*
Y146499D01*
X211492Y146414D01*
G01X213194Y154278D02*
X213590Y153882D01*
Y150709D01*
X213242Y150361D01*
G01X201700Y146522D02*
X200136D01*
X200000Y146658D01*
G01X197607Y160180D02*
Y158598D01*
X197876Y158329D01*
G01X197638Y156248D02*
X197874Y156012D01*
Y154150D01*
G01X197373Y152478D02*
X197874Y152979D01*
Y154150D01*
G01X209665Y144195D02*
X207751D01*
X207532Y144414D01*
G01X213566Y168597D02*
X215051D01*
X215517Y168131D01*
G01X205687Y168218D02*
X203647D01*
X203526Y168339D01*
G01X205298Y170704D02*
Y169586D01*
X205687Y169197D01*
Y168218D01*
G01X215514Y160011D02*
X215393Y160132D01*
X213832D01*
X213558Y160406D01*
G01X209681Y160188D02*
X211369D01*
X211423Y160134D01*
G01X199687Y160218D02*
X199648Y160179D01*
X197608D01*
X197607Y160180D01*
G01X206649Y208136D02*
Y210388D01*
X209324Y213063D01*
Y214020D01*
X210710Y215406D01*
X211863D01*
G01X227220Y75199D02*
Y73065D01*
X226688Y72533D01*
G01X218577Y72799D02*
X220610D01*
X220624Y72785D01*
G01X223480Y75199D02*
Y73598D01*
X224423Y72655D01*
G01X218577Y74901D02*
X220489D01*
X220508Y74882D01*
G01X228301Y80605D02*
Y78919D01*
X228204Y78822D01*
G01X222859Y84505D02*
Y83717D01*
X223888Y82688D01*
G01X230403Y80605D02*
Y78917D01*
X230329Y78843D01*
G01X220757Y84505D02*
Y83198D01*
X220187Y82628D01*
G01X219860Y134652D02*
Y136459D01*
X219782Y136537D01*
G01X215432Y144446D02*
X216219D01*
X217430Y143235D01*
Y134980D01*
X217758Y134652D01*
G01X223297Y154293D02*
Y153332D01*
X222443Y152478D01*
X217962D01*
G01X223572Y158369D02*
Y157175D01*
X222619Y156222D01*
X219258D01*
G01X225171Y146558D02*
X223432D01*
X223297Y146423D01*
G01X225389Y151184D02*
X224050D01*
X223297Y150431D01*
G01X217156Y156222D02*
X217247Y156131D01*
Y154311D01*
G01X215860Y152478D02*
X215225Y153113D01*
Y154345D01*
G01X218420Y160043D02*
X217329Y158952D01*
Y158215D01*
G01X215689Y148562D02*
Y150147D01*
X215301Y150535D01*
G01X225171Y144456D02*
X218257D01*
X217206Y145507D01*
Y146527D01*
G01X225389Y149082D02*
X227849D01*
X242140Y163373D01*
Y169498D01*
X245653Y173011D01*
G01X217297Y150375D02*
Y149449D01*
X218340Y148406D01*
X224713D01*
X225389Y149082D01*
G01X223539Y161908D02*
Y160896D01*
X222686Y160043D01*
X220522D01*
G01X223281Y168068D02*
X221955D01*
X221261Y167374D01*
Y165990D01*
G01X217499Y167701D02*
X217929Y168131D01*
X219316D01*
G01X239694Y78732D02*
X240340Y78086D01*
X242274D01*
G01X236742Y78732D02*
X234610D01*
G01X237741Y94042D02*
X235165D01*
X235160Y94047D01*
G01D02*
X233021D01*
G01X262962Y101721D02*
X260285D01*
G01X266972Y124618D02*
Y126477D01*
X264956Y128493D01*
X262962D01*
G01X273732Y101721D02*
X276282D01*
G54D16*
X101913Y55894D03*
X98961D03*
X126004Y169374D03*
X123052D03*
X114858Y168914D03*
X117810D03*
X143331Y67049D03*
X140379D03*
X144611Y79106D03*
X144612Y74747D03*
X143758Y126405D03*
X140806D03*
X133333Y132595D03*
X130381D03*
X143568Y156213D03*
X140616D03*
X143611Y148634D03*
X140659D03*
X130451Y169311D03*
X133403D03*
X147563Y79106D03*
X147564Y74747D03*
X148337Y126323D03*
X151289D03*
X150053Y168718D03*
X147101D03*
X194698Y148378D03*
X197650D03*
X194686Y156248D03*
X197638D03*
X189058Y170993D03*
X192010D03*
X201642Y156100D03*
X204594D03*
X204246Y148499D03*
X207198D03*
X239694Y78732D03*
X236742D03*
G54D35*
G01X171231Y213342D02*
X171898D01*
X174302Y215746D01*
Y220092D01*
G01X171167Y215442D02*
X171687Y214922D01*
X172204D01*
X173288Y216006D01*
Y217476D01*
X173194Y217702D01*
X172727Y218169D01*
Y220092D01*
G01X175954Y213342D02*
X176227D01*
X179026Y216141D01*
Y220092D01*
G01X175917Y215442D02*
X176244Y215115D01*
X176726D01*
X178126Y216515D01*
Y218295D01*
X177452Y218969D01*
Y220092D01*
G01X175836Y235512D02*
X176790D01*
X178126Y234176D01*
Y232658D01*
X177452Y231984D01*
Y230862D01*
G01X175968Y237608D02*
X179026Y234550D01*
Y230862D01*
G01X171182Y235512D02*
X171988D01*
X173402Y234098D01*
Y232693D01*
X172727Y232018D01*
Y230862D01*
G01X171035Y237702D02*
X171071D01*
X174302Y234471D01*
Y230862D01*
G01X180634Y213344D02*
X180677D01*
X183751Y216418D01*
Y220092D01*
G01X180698Y215444D02*
X181503D01*
X182851Y216792D01*
Y218296D01*
X182176Y218971D01*
Y220092D01*
G01X185415Y213344D02*
Y213457D01*
X188475Y216517D01*
Y220092D01*
G01X185320Y215442D02*
X186126D01*
X187508Y216824D01*
Y218385D01*
X186900Y218993D01*
Y220092D01*
G01X190198Y213345D02*
X190224D01*
X193200Y216321D01*
Y220092D01*
G01X190166Y215445D02*
X191050D01*
X192272Y216667D01*
Y218328D01*
X191625Y218975D01*
Y220092D01*
G01X194884Y215444D02*
X196349Y216909D01*
Y220092D01*
G01X194979Y213346D02*
X196835D01*
X197249Y213760D01*
Y218295D01*
X197924Y218970D01*
Y220092D01*
G01X180519Y235511D02*
X180633Y235625D01*
X181267D01*
X182851Y234041D01*
Y232683D01*
X182176Y232008D01*
Y230862D01*
G01X180554Y237611D02*
X183751Y234414D01*
Y230862D01*
G01X190054Y235550D02*
X190092Y235512D01*
X190898D01*
X192300Y234110D01*
Y232700D01*
X191625Y232025D01*
Y230862D01*
G01X193200D02*
Y234483D01*
X190033Y237650D01*
G01X185295Y235512D02*
X186180D01*
X187575Y234117D01*
Y232658D01*
X186900Y231983D01*
Y230862D01*
G01X185179Y237609D02*
X185356D01*
X188475Y234490D01*
Y230862D01*
G01X204224Y215423D02*
X205798Y216997D01*
Y220092D01*
G01X204320Y213325D02*
Y213439D01*
X206698Y215817D01*
Y218295D01*
X207373Y218970D01*
Y220092D01*
G01X199602Y215391D02*
X201074Y216863D01*
Y220092D01*
G01X199570Y213291D02*
X201236D01*
X201974Y214029D01*
Y218295D01*
X202648Y218969D01*
Y220092D01*
G54D26*
G01X207400Y170704D02*
Y172671D01*
X207433Y172704D01*
G01X209886Y170558D02*
X210063Y170381D01*
Y169519D01*
G01X122534Y13137D02*
X123207Y13810D01*
X131076D01*
X136820Y8066D01*
X150616D01*
X154041Y11491D01*
X161610D01*
X172159Y22040D01*
X181589D01*
G01X148337Y126323D02*
Y128272D01*
X148854Y128789D01*
G01X205528Y143187D02*
Y130543D01*
X194654Y119669D01*
G01X164057Y141853D02*
Y143828D01*
X163921Y143964D01*
G01X239248Y111454D02*
X231410D01*
X223529Y119335D01*
Y126290D01*
X217758Y132061D01*
Y134652D01*
G01X235160Y91945D02*
Y91331D01*
X236115Y90376D01*
G01X237741Y91940D02*
X237679D01*
X236115Y90376D01*
G54D17*
X110558Y162164D03*
X125914Y142948D03*
X128016D03*
X115735Y143092D03*
X117837D03*
X115797Y126553D03*
X117899D03*
X127623Y135012D03*
Y137114D03*
X126002Y151666D03*
X128104D03*
X112660Y162164D03*
X145101Y139230D03*
X131102Y126696D03*
X133204D03*
X144178Y162191D03*
Y164293D03*
X147203Y139230D03*
X149965Y142559D03*
X152067D03*
X150985Y155155D03*
Y153053D03*
X149378Y148466D03*
X151480D03*
X161390Y148859D03*
X159288D03*
X151324Y159144D03*
X153426D03*
X155507Y165033D03*
X153405D03*
X160826Y165628D03*
Y163526D03*
X166159Y141853D03*
X164057D03*
X165323Y136584D03*
X163221D03*
X165619Y153243D03*
X163517D03*
X197623Y140202D03*
Y142304D03*
X191641Y140541D03*
X193743D03*
X195417Y144502D03*
X197519D03*
X195505Y160180D03*
X197607D03*
X195271Y152478D03*
X197373D03*
X197319Y165683D03*
Y163581D03*
X214919Y82537D03*
Y84639D03*
X214888Y78374D03*
Y80476D03*
X205528Y143187D03*
X201895Y134327D03*
X199793D03*
X213558Y158304D03*
Y160406D03*
X205528Y145289D03*
X213587Y148562D03*
X205617Y159265D03*
X201425Y159236D03*
X213304Y146170D03*
Y144068D03*
X209681Y158086D03*
Y160188D03*
X208689Y153980D03*
X210791D03*
X211407Y148343D03*
Y150445D03*
X213498Y156187D03*
X211396D03*
X209228Y156084D03*
X207126D03*
X209463Y148353D03*
Y150455D03*
X209665Y146297D03*
Y144195D03*
X201700Y146522D03*
Y144420D03*
X201674Y152228D03*
X199572D03*
X202024Y148546D03*
X199922D03*
X206531Y153655D03*
X204429D03*
X205298Y170704D03*
X207400D03*
X213566Y168597D03*
Y166495D03*
X201425Y165732D03*
Y163630D03*
X205617Y161367D03*
X201425Y161338D03*
X205687Y166116D03*
Y168218D03*
X211863Y213304D03*
Y215406D03*
X214669Y235079D03*
Y237181D03*
X218577Y72799D03*
X228301Y80605D03*
X230403D03*
X218577Y74901D03*
X222859Y84505D03*
X220757D03*
X219860Y134652D03*
X217758D03*
X220522Y160043D03*
X218420D03*
X215689Y148562D03*
X217962Y152478D03*
X215860D03*
X219258Y156222D03*
X217156D03*
X225389Y151184D03*
Y149082D03*
X225171Y146558D03*
Y144456D03*
X221261Y165990D03*
Y163888D03*
X217499Y167701D03*
Y165599D03*
X215421Y213330D03*
Y215432D03*
X235160Y94047D03*
Y91945D03*
X237741Y94042D03*
Y91940D03*
G54D36*
G01X57620Y210253D02*
X32487Y235386D01*
X14833D01*
X5321Y225874D01*
Y206010D01*
G01X91687Y219143D02*
X90166Y220664D01*
X80455D01*
X68032Y208241D01*
Y142963D01*
X68797Y142198D01*
G01X71576Y209252D02*
X71987D01*
X76087Y213352D01*
X82998D01*
X85376Y210974D01*
X111546D01*
X115304Y207216D01*
X146962D01*
X165352Y225606D01*
X215381D01*
X215991Y226216D01*
X228789D01*
X230995Y224010D01*
Y220092D01*
G01X87224Y51397D02*
X89918Y48703D01*
Y38375D01*
X86032Y34489D01*
Y9817D01*
X90983Y4866D01*
X166917D01*
X171932Y9881D01*
G01X96151Y44159D02*
Y43277D01*
X86972Y34098D01*
Y10207D01*
X91373Y5806D01*
X163158D01*
X169358Y12006D01*
X227517D01*
X236187Y20676D01*
Y32733D01*
G01X96274Y54128D02*
X98025Y52377D01*
Y43821D01*
X87990Y33786D01*
Y10519D01*
X91763Y6746D01*
X162416D01*
X168616Y12946D01*
X227127D01*
X234612Y20431D01*
Y32733D01*
G01X263433Y56221D02*
X264588D01*
X265723Y55086D01*
Y32856D01*
X261811Y28944D01*
X247360D01*
X222342Y3926D01*
X90409D01*
X85092Y9243D01*
Y28639D01*
X80479Y33252D01*
G01X89546Y228596D02*
X90907Y227235D01*
X126763D01*
X129805Y224193D01*
Y221020D01*
X131729Y219096D01*
X134714D01*
G01X126968Y219488D02*
X128482Y217974D01*
Y212521D01*
X126046Y210085D01*
X117981D01*
X114093Y213973D01*
X91329D01*
X86459Y218843D01*
G01X118252Y217911D02*
X117945Y217604D01*
X93226D01*
X91687Y219143D01*
G01X80640Y218577D02*
Y217040D01*
X85285Y212395D01*
X113438D01*
X116705Y209128D01*
X138888D01*
X142144Y212384D01*
Y214147D01*
G01X274147Y176489D02*
X274727Y177069D01*
X279029D01*
X286137Y169961D01*
Y73181D01*
X275161Y62205D01*
X182751D01*
X172444Y51898D01*
Y41393D01*
X152907Y21856D01*
X144007D01*
X136880Y28983D01*
X127801D01*
X125171Y26353D01*
G01X119949Y192301D02*
X116161D01*
G01X114598Y203880D02*
X115088Y203390D01*
X204084D01*
X210460Y209766D01*
X212595D01*
X213552Y210723D01*
Y214421D01*
X214563Y215432D01*
X215421D01*
G01X123944Y220671D02*
X125785D01*
X126968Y219488D01*
G01X123944Y219096D02*
X119437D01*
X118252Y217911D01*
G01X123944Y215947D02*
X121643D01*
X120499Y214803D01*
G01X120601Y217250D02*
X121575D01*
X121847Y217522D01*
X123944D01*
G01X268599Y160017D02*
Y163389D01*
X265346Y166642D01*
Y176491D01*
X267804Y178949D01*
X280562D01*
X288017Y171494D01*
Y72401D01*
X275941Y60325D01*
X184961D01*
X174699Y50063D01*
Y40745D01*
X153785Y19831D01*
X142176D01*
X141518Y20489D01*
G01X138494Y20988D02*
Y20225D01*
X139828Y18891D01*
X158609D01*
X175704Y35986D01*
Y49737D01*
X184264Y58297D01*
X234859D01*
X239336Y53820D01*
Y43503D01*
G01X136074Y21015D02*
X139138Y17951D01*
X158999D01*
X176644Y35596D01*
Y49347D01*
X184654Y57357D01*
X234069D01*
X237761Y53665D01*
Y43503D01*
G01X132525Y26523D02*
Y22414D01*
X137928Y17011D01*
X159389D01*
X177584Y35206D01*
Y48957D01*
X184939Y56312D01*
X233427D01*
X236187Y53552D01*
Y43503D01*
G01X127423Y26327D02*
Y26185D01*
X137537Y16071D01*
X159779D01*
X178524Y34816D01*
Y48153D01*
X185572Y55201D01*
X232730D01*
X234868Y53063D01*
Y47920D01*
X234612Y47664D01*
Y43503D01*
G01X130105Y26300D02*
Y26860D01*
X131288Y28043D01*
X136490D01*
X143729Y20804D01*
X153427D01*
X173759Y41136D01*
Y51873D01*
X183151Y61265D01*
X275551D01*
X287077Y72791D01*
Y170352D01*
X279420Y178009D01*
X273331D01*
X272031Y176709D01*
Y175673D01*
G01X282599Y138175D02*
X285180Y135594D01*
Y73555D01*
X274770Y63145D01*
X182191D01*
X167303Y48257D01*
X146918D01*
X137009Y38348D01*
G01X138108Y67004D02*
X140334D01*
X140379Y67049D01*
G01X144612Y74747D02*
X143155Y73290D01*
Y71409D01*
G01X144611Y79106D02*
X142659D01*
X142365Y79400D01*
G01X130381Y132595D02*
X129138D01*
X128236Y131693D01*
G01X143611Y148634D02*
Y150709D01*
X143713Y150811D01*
G01X143568Y156213D02*
Y153852D01*
X143445Y153729D01*
G01X134714Y219096D02*
X138165D01*
X139160Y218101D01*
G01X139671Y214211D02*
Y214786D01*
X138198Y216259D01*
X136874D01*
X136562Y215947D01*
X134714D01*
G01X142144Y214147D02*
Y218241D01*
X139714Y220671D01*
X134714D01*
G01X146013Y87959D02*
Y85107D01*
X150549Y80571D01*
Y73514D01*
X157280Y66783D01*
X270932D01*
X283118Y78969D01*
Y134080D01*
X281079Y136119D01*
Y142027D01*
X283118Y144066D01*
Y165969D01*
X281224Y167863D01*
X273732D01*
G01X148368Y87707D02*
Y84083D01*
X151489Y80962D01*
Y73904D01*
X157670Y67723D01*
X270136D01*
X282178Y79765D01*
Y133689D01*
X280139Y135728D01*
Y142816D01*
X282178Y144855D01*
Y165579D01*
X281469Y166288D01*
X273732D01*
G01X147564Y74747D02*
Y72889D01*
X155550Y64903D01*
X273354D01*
X283660Y75209D01*
G01X283608Y77309D02*
X272142Y65843D01*
X156714D01*
X149609Y72948D01*
Y77060D01*
X147563Y79106D01*
G01X166979Y187813D02*
X187911D01*
X193926Y181798D01*
Y175625D01*
G01X194906Y227392D02*
X195577Y226721D01*
X211300D01*
X213672Y229093D01*
Y230862D01*
G01X193658Y223819D02*
X209201D01*
X210522Y222498D01*
Y220092D01*
G01X198561Y37588D02*
X201541Y34608D01*
Y32733D01*
G01X198475Y35489D02*
X199966Y33998D01*
Y32733D01*
G01X212369Y37654D02*
X210990Y36275D01*
Y32733D01*
G01X204609Y38181D02*
X207840Y34950D01*
Y32733D01*
G01X204716Y40279D02*
Y40224D01*
X209415Y35525D01*
Y32733D01*
G01X204609Y35787D02*
X206265Y34131D01*
Y32733D01*
G01X198681Y39685D02*
Y39618D01*
X203108Y35191D01*
Y32741D01*
X203116Y32733D01*
G01X198225Y30183D02*
X198391Y30349D01*
Y32733D01*
G01X212565Y43503D02*
Y45965D01*
X212497Y46033D01*
Y47046D01*
X214054Y48603D01*
G01X204521Y48158D02*
X204717D01*
X206265Y46610D01*
Y43503D01*
G01X204568Y50258D02*
X205141D01*
X207840Y47559D01*
Y43503D01*
G01X210768Y47899D02*
X210879D01*
X211390Y47388D01*
Y45319D01*
X210990Y44919D01*
Y43503D01*
G01X212316Y39864D02*
X214139Y38041D01*
Y32733D01*
G01X197249Y46394D02*
X198391Y45252D01*
Y43503D01*
G01X197328Y48683D02*
X199966Y46045D01*
Y43503D01*
G01X197301Y50944D02*
X201541Y46704D01*
Y43503D01*
G01X197196Y53042D02*
X197649D01*
X203116Y47575D01*
Y43503D01*
G01X205687Y166116D02*
X203902D01*
X203674Y166344D01*
G01X214669Y237181D02*
X213853D01*
X212882Y236210D01*
G01X220551Y37636D02*
X222013Y36174D01*
Y32733D01*
G01X220683Y39977D02*
X223588Y37072D01*
Y32733D01*
G01X225287Y40318D02*
X228313Y37292D01*
Y32733D01*
G01X215685Y37978D02*
X217289Y36374D01*
Y32733D01*
G01X215870Y40134D02*
X218864Y37140D01*
Y32733D01*
G01X215714D02*
Y35519D01*
G01X233069Y39556D02*
X229887Y36374D01*
Y32733D01*
G01X225181Y38004D02*
X226738Y36447D01*
Y32733D01*
G01X214139Y43503D02*
Y46294D01*
X214017Y46416D01*
G01X221890Y48604D02*
Y48451D01*
X220439Y47000D01*
Y43503D01*
G01X225150Y48334D02*
Y48190D01*
X223588Y46628D01*
Y43503D01*
G01X228313D02*
Y48071D01*
G01X231188Y50888D02*
Y50383D01*
X229887Y49082D01*
Y43503D01*
G01X228148Y50595D02*
X226738Y49185D01*
Y43503D01*
G01X217167Y48583D02*
X217006D01*
X215659Y47236D01*
Y45408D01*
X215714Y45353D01*
Y43503D01*
G01X221892Y50773D02*
X221787Y50668D01*
Y50651D01*
X218864Y47728D01*
Y43503D01*
G01X225074Y50602D02*
X223630Y49158D01*
Y48000D01*
X222013Y46383D01*
Y43503D01*
G01X230350Y210924D02*
Y213204D01*
X230842Y213696D01*
Y216826D01*
X229420Y218248D01*
Y220092D01*
G01X230350Y210924D02*
X232550D01*
G01X215421Y213330D02*
Y211037D01*
X215514Y210944D01*
G01D02*
X219820D01*
X219831Y210955D01*
G01X221629Y213095D02*
Y212872D01*
X219831Y211074D01*
Y210955D01*
G01X226496Y210947D02*
X225117D01*
X225077Y210987D01*
X224103D01*
G01D02*
Y214844D01*
X221553Y217394D01*
X221337D01*
X219971Y218760D01*
Y220092D01*
G01X215421Y215432D02*
Y217040D01*
X215247Y217214D01*
Y220092D01*
G01X225908Y216561D02*
Y216753D01*
X224696Y217965D01*
Y220092D01*
G01X226060Y213637D02*
Y214259D01*
X223121Y217198D01*
Y220092D01*
G01X221501Y215279D02*
Y215456D01*
X218396Y218561D01*
Y220092D01*
G01X224230Y224303D02*
X223273Y225260D01*
X218716D01*
X216822Y223366D01*
Y220092D01*
G01X214998Y227887D02*
X215119Y227766D01*
X221603D01*
X223121Y229284D01*
Y230862D01*
G01X228845Y216177D02*
Y216497D01*
X227845Y217497D01*
Y220092D01*
G01X214669Y235079D02*
Y233259D01*
X215247Y232681D01*
Y230862D01*
G01X227845D02*
Y232420D01*
X228245Y232820D01*
Y234929D01*
X228210Y234964D01*
G01X231662Y234805D02*
Y233003D01*
X230995Y232336D01*
Y230862D01*
G01X226671Y233535D02*
X226270Y233134D01*
Y230862D01*
G01X235983Y35660D02*
X234612Y34289D01*
Y32733D01*
G01X233121Y37382D02*
X232867D01*
X231462Y35977D01*
Y32733D01*
G01X233096Y48413D02*
X232835Y48152D01*
X232493D01*
X231462Y47121D01*
Y43503D01*
G01X237469Y58619D02*
X278381D01*
X279789Y60027D01*
G01X233230Y233408D02*
X232570Y232748D01*
Y230862D01*
G01X255618Y122013D02*
X255837Y121794D01*
X261086D01*
X261486Y122194D01*
X262962D01*
G01X255723Y124111D02*
X256214D01*
X257424Y122901D01*
X260350D01*
X261218Y123769D01*
X262962D01*
G01X256216Y113001D02*
Y115379D01*
X256732Y115895D01*
X262962D01*
G01X258306Y112790D02*
X259836Y114320D01*
X262962D01*
G01X253512Y125145D02*
X254030Y125663D01*
X256513D01*
X258256Y123920D01*
X259851D01*
X261274Y125343D01*
X262962D01*
G01X255993Y118934D02*
Y118451D01*
X256975Y117469D01*
X262962D01*
G01X258312Y119057D02*
Y119095D01*
X259836Y120619D01*
X262962D01*
G01X258312Y141135D02*
Y141141D01*
X259837Y142666D01*
X262962D01*
G01X256038Y141249D02*
X256048D01*
X257780Y139517D01*
X262962D01*
G01X265971Y141307D02*
Y138630D01*
X265283Y137942D01*
X262962D01*
G01X268171Y141243D02*
Y139267D01*
X265271Y136367D01*
X262962D01*
G01X258312Y133242D02*
Y133998D01*
X259106Y134792D01*
X262962D01*
G01X265876Y133146D02*
X264373Y131643D01*
X262962D01*
G01X267976Y133086D02*
X264958Y130068D01*
X262962D01*
G01X268599Y160017D02*
Y159604D01*
X267409Y158414D01*
X262962D01*
G01X269765Y156736D02*
Y156258D01*
X267197Y153690D01*
X262962D01*
G01X267612Y156895D02*
Y156789D01*
X266088Y155265D01*
X262962D01*
G01X258161Y149022D02*
X259679Y150540D01*
X262962D01*
G01X256067Y149181D02*
X259001Y152115D01*
X262962D01*
G01X268253Y148958D02*
X268234D01*
X265092Y145816D01*
X262962D01*
G01X266034Y148926D02*
X264499Y147391D01*
X262962D01*
G01X270352Y148878D02*
X270338Y148864D01*
Y147523D01*
X267056Y144241D01*
X262962D01*
G01X254791Y164735D02*
Y165062D01*
X255264Y165535D01*
Y166139D01*
X256988Y167863D01*
X262962D01*
G01X257544Y165195D02*
X258698D01*
X259791Y166288D01*
X262962D01*
G01X251096Y164868D02*
X255666Y169438D01*
X262962D01*
G01X257279Y161591D02*
X257332Y161538D01*
Y161146D01*
X258489Y159989D01*
X262962D01*
G01X248687Y164735D02*
Y165277D01*
X254423Y171013D01*
X262962D01*
G01X266501Y160125D02*
X265062Y161564D01*
X262962D01*
G01X259439Y161591D02*
X260987Y163139D01*
X262962D01*
G01X278522Y125412D02*
Y124909D01*
X277382Y123769D01*
X273732D01*
G01X278381Y118963D02*
Y118348D01*
X277502Y117469D01*
X273732D01*
G01X280482Y112784D02*
Y112828D01*
X277415Y115895D01*
X273732D01*
G01X280622Y125373D02*
Y125361D01*
X277455Y122194D01*
X273732D01*
G01X280481Y118988D02*
Y119104D01*
X278966Y120619D01*
X273732D01*
G01X278382Y112778D02*
Y113297D01*
X277359Y114320D01*
X273732D01*
G01X270497Y141435D02*
X270721Y141211D01*
Y140574D01*
X271778Y139517D01*
X273732D01*
G01X276554Y138597D02*
X275899Y137942D01*
X273732D01*
G01X280481Y133236D02*
Y133492D01*
X279181Y134792D01*
X273732D01*
G01X278619Y138032D02*
X278539D01*
X276874Y136367D01*
X273732D01*
G01X278382Y133156D02*
X276869Y131643D01*
X273732D01*
G01Y130068D02*
X276282D01*
G01X278380Y129975D02*
Y129485D01*
X277388Y128493D01*
X273732D01*
G01X280592Y129975D02*
Y129338D01*
X278172Y126918D01*
X273732D01*
G01X278818Y156768D02*
X277315Y155265D01*
X273732D01*
G01Y153690D02*
X271182D01*
G01X278850Y153708D02*
Y152560D01*
X276830Y150540D01*
X273732D01*
G01X276491Y153534D02*
Y152815D01*
X275791Y152115D01*
X273732D01*
G01X280571Y149085D02*
Y148225D01*
X278162Y145816D01*
X273732D01*
G01X278382Y148990D02*
Y148427D01*
X277346Y147391D01*
X273732D01*
G01X276427Y144296D02*
X276372Y144241D01*
X273732D01*
G01X278706Y144192D02*
X277180Y142666D01*
X273732D01*
G01X278891Y159760D02*
Y159536D01*
X277769Y158414D01*
X273732D01*
G01Y169438D02*
X271945D01*
X271505Y169878D01*
Y175147D01*
X272031Y175673D01*
G01X274147Y176489D02*
Y175537D01*
X275802Y173882D01*
Y171883D01*
X274932Y171013D01*
X273732D01*
G01X269337Y175577D02*
Y170606D01*
X272080Y167863D01*
X273732D01*
G01X278379Y164595D02*
X276923Y163139D01*
X273732D01*
G01Y159989D02*
X276793D01*
G01X280464Y164340D02*
Y163990D01*
X278038Y161564D01*
X273732D01*
G01X267106Y175497D02*
Y171285D01*
X272103Y166288D01*
X273732D01*
G54D27*
G01X138739Y97262D02*
X137549Y98452D01*
X71302D01*
X69925Y99829D01*
X65718D01*
G01X128905Y11260D02*
X126049Y8404D01*
X92359D01*
X89460Y11303D01*
Y28936D01*
X93737Y33213D01*
G01X96636Y59004D02*
Y58925D01*
X98961Y56600D01*
Y55894D01*
G01X114559Y36563D02*
Y23712D01*
X118166Y20105D01*
X128733D01*
X138790Y10048D01*
X141737D01*
G01X143331Y67049D02*
X145698Y69416D01*
Y71170D01*
G01X211141Y205349D02*
X206632Y200840D01*
X135011D01*
X133836Y199665D01*
G01X194654Y119669D02*
X179606Y104621D01*
Y99610D01*
X182175Y97041D01*
G01X181649Y48174D02*
X185512Y44311D01*
Y23077D01*
X183170Y20735D01*
Y17613D01*
X183173Y17610D01*
G01X215514Y207992D02*
X211395D01*
X211161Y207758D01*
G01X211863Y213304D02*
Y212190D01*
X211065Y211392D01*
G01X211141Y205349D02*
X217177D01*
X219831Y208003D01*
G01X260285Y101721D02*
X254398D01*
X246244Y109875D01*
Y126995D01*
X228783Y144456D01*
X225171D01*
G01X219831Y208003D02*
X224071D01*
X224103Y208035D01*
G01D02*
X230287D01*
X230350Y207972D01*
G54D18*
X118889Y38583D03*
Y42323D03*
G54D37*
G01X211751Y166178D02*
X211798Y166131D01*
X213202D01*
X213566Y166495D01*
G54D28*
G01X146614Y90834D02*
X144838D01*
X139919Y85915D01*
X127577D01*
X125647Y87845D01*
X107115D01*
X105431Y89529D01*
X85296D01*
G01X209142Y19487D02*
X207265Y17610D01*
X183173D01*
G01X243666Y123204D02*
Y115872D01*
X239248Y111454D01*
G54D19*
X126970Y54119D03*
X121570D03*
X127050Y48155D03*
X121650D03*
G54D38*
G01X193759Y161892D02*
Y162467D01*
X192710Y163516D01*
X190513D01*
X190232Y163235D01*
Y162036D01*
X189916Y161720D01*
X189266D01*
X188940Y162046D01*
Y163056D01*
X188480Y163516D01*
X187069D01*
X181871Y168714D01*
X166612D01*
X164228Y171098D01*
X143761D01*
X137421Y164758D01*
Y142265D01*
X137881Y141805D01*
X138747D01*
X139207Y142265D01*
Y143396D01*
X139667Y143856D01*
X140833D01*
G01Y140904D02*
X140896Y140967D01*
X143663D01*
G01X140833Y140904D02*
X139121D01*
X139120Y140905D01*
X137508D01*
X136521Y141892D01*
Y165131D01*
X143388Y171998D01*
X164601D01*
X166985Y169614D01*
X182244D01*
X187442Y164416D01*
X193116D01*
X195436Y162096D01*
X195794D01*
G01X143649Y144053D02*
X142781Y143185D01*
X141504D01*
X140833Y143856D01*
G01X193672Y142748D02*
X193523D01*
X192362Y143909D01*
X181055D01*
X170161Y133015D01*
X160046D01*
X157138Y135923D01*
Y137144D01*
X156462Y137820D01*
X156458D01*
G01X193770Y146066D02*
Y145269D01*
X193310Y144809D01*
X180682D01*
X169788Y133915D01*
X160420D01*
X160006Y134329D01*
Y135479D01*
X159546Y135939D01*
X158396D01*
X158038Y136297D01*
Y137505D01*
X158499Y137966D01*
X159167D01*
G01X156559Y156837D02*
X157024Y157302D01*
Y158925D01*
X159884Y161785D01*
X180188D01*
X189156Y152817D01*
X192639D01*
X193770Y154036D01*
G01X158740Y157084D02*
X157924Y157900D01*
Y158551D01*
X158452Y159079D01*
X159383D01*
X159692Y159388D01*
Y160320D01*
X160257Y160885D01*
X179815D01*
X188783Y151917D01*
X193032D01*
X193879Y151100D01*
X193896Y150624D01*
G54D29*
G01X195279Y236193D02*
X196866Y234606D01*
Y232579D01*
X196349Y232062D01*
Y230862D01*
G01X208483Y235492D02*
X209647Y234328D01*
Y232763D01*
X208948Y232064D01*
Y230862D01*
G01X210906Y235428D02*
X210522Y235044D01*
Y230862D01*
G01X197392Y236202D02*
X197716Y235878D01*
Y233057D01*
X197924Y232849D01*
Y230862D01*
G01X201595Y236461D02*
X201586Y236452D01*
X202286Y234763D01*
X202648Y233889D01*
Y230862D01*
G01X199497Y236350D02*
Y236349D01*
X201566Y234280D01*
Y232570D01*
X201074Y232078D01*
Y230862D01*
G01X220418Y235505D02*
X219971Y235058D01*
Y230862D01*
G01X218027Y235761D02*
X219051Y234737D01*
Y232753D01*
X218396Y232098D01*
Y230862D01*
M02*
