G04 ================== begin FILE IDENTIFICATION RECORD ==================*
G04 Layout Name:  Lay-51943_B3.brd*
G04 Film Name:    psm*
G04 File Format:  Gerber RS274X*
G04 File Origin:  Cadence Allegro 17.4-S021*
G04 Origin Date:  Wed Apr 24 10:44:52 2024*
G04 *
G04 Layer:  VIA CLASS/SOLDERMASK_TOP*
G04 Layer:  PIN/SOLDERMASK_TOP*
G04 Layer:  PACKAGE GEOMETRY/SOLDERMASK_TOP*
G04 Layer:  DRAWING FORMAT/FILM_TITLE_BLOCK*
G04 Layer:  BOARD GEOMETRY/OUTLINE*
G04 Layer:  BOARD GEOMETRY/SOLDERMASK_TOP*
G04 *
G04 Offset:    (0.00 0.00)*
G04 Mirror:    No*
G04 Mode:      Positive*
G04 Rotation:  0*
G04 FullContactRelief:  No*
G04 UndefLineWidth:     8.00*
G04 ================== end FILE IDENTIFICATION RECORD ====================*
%FSLAX55Y55*MOIN*%
%IR0*IPPOS*OFA0.00000B0.00000*MIA0B0*SFA1.00000B1.00000*%
%ADD29R,.102X.039*%
%ADD35C,.02*%
%ADD59C,.014*%
%ADD53C,.024*%
%ADD52C,.016*%
%ADD20C,.034*%
%ADD49C,.018*%
%ADD23C,.054*%
%ADD51C,.019*%
%ADD16C,.029*%
%ADD11C,.039*%
%ADD60C,.0374*%
%ADD15R,.016X.016*%
%ADD63R,.044X.044*%
%ADD42R,.071X.071*%
%ADD57C,.0709*%
%ADD14R,.067X.067*%
%AMMACRO54*
4,1,8,-.0187,-.01142,
-.0187,.01142,
-.00098,.01142,
-.00098,.00276,
.00099,.00276,
.00099,.01142,
.0187,.01142,
.0187,-.01142,
-.0187,-.01142,
0.0*
%
%ADD54MACRO54*%
%AMMACRO34*
4,1,12,-.02756,-.00886,
-.02756,.00886,
-.01654,.00886,
-.01654,-.00394,
-.00551,-.00394,
-.00551,.00886,
.00551,.00886,
.00551,-.00394,
.01654,-.00394,
.01654,.00886,
.02756,.00886,
.02756,-.00886,
-.02756,-.00886,
0.0*
%
%ADD34MACRO34*%
%ADD30R,.014X.022*%
%ADD13R,.024X.022*%
%ADD56R,.015X.023*%
%ADD10R,.022X.024*%
%ADD40O,.015X.036*%
%ADD41O,.036X.015*%
%ADD39R,.022X.028*%
%ADD46R,.039X.012*%
%ADD38R,.028X.022*%
%ADD25R,.037X.032*%
%ADD44R,.012X.039*%
%ADD26R,.032X.037*%
%ADD22R,.036X.043*%
%ADD12R,.014X.029*%
%ADD55R,.067X.04*%
%ADD24R,.043X.036*%
%ADD17R,.018X.035*%
%ADD48R,.032X.039*%
%ADD19R,.11X.11*%
%ADD18R,.035X.018*%
%ADD58R,.052X.039*%
%ADD45R,.052X.083*%
%ADD21O,.064X.039*%
%ADD61R,.051X.059*%
%ADD43R,.039X.052*%
%ADD27O,.039X.064*%
%ADD50R,.048X.028*%
%ADD33O,.049X.039*%
%ADD32O,.039X.049*%
%ADD36R,.038X.075*%
%ADD37R,.079X.047*%
%ADD62R,.047X.079*%
%ADD31C,.17716*%
%ADD47R,.189X.189*%
%AMMACRO28*
4,1,12,.02756,.00886,
.02756,-.00886,
.01654,-.00886,
.01654,.00394,
.00551,.00394,
.00551,-.00886,
-.00551,-.00886,
-.00551,.00394,
-.01654,.00394,
-.01654,-.00886,
-.02756,-.00886,
-.02756,.00886,
.02756,.00886,
0.0*
%
%ADD28MACRO28*%
%ADD64C,.01*%
%ADD65C,.008*%
%ADD66C,.006*%
G75*
%LPD*%
G75*
G54D10*
X7130Y160467D03*
Y164807D03*
X7101Y169025D03*
X9221Y56346D03*
X12173D03*
X9199Y60686D03*
X12151D03*
X9195Y65000D03*
X12147D03*
X8937Y109581D03*
X11889D03*
X8926Y118302D03*
X11878D03*
X8885Y113891D03*
X11837D03*
X10082Y160467D03*
Y164807D03*
X10053Y169025D03*
X7934Y211999D03*
X10886D03*
X7962Y216385D03*
X10914D03*
X7932Y220603D03*
X10884D03*
X41901Y212192D03*
Y207812D03*
Y203522D03*
Y216492D03*
X57862Y31734D03*
X54910D03*
X44042Y56767D03*
X46994D03*
X44042Y52367D03*
X46994D03*
X44042Y47987D03*
X46994D03*
X44042Y61067D03*
X46994D03*
X43295Y102274D03*
X46247D03*
X43295Y106614D03*
X46247D03*
X43295Y110914D03*
X46247D03*
X43295Y115234D03*
X46247D03*
X57996Y159977D03*
X42598Y156544D03*
X45550D03*
X42598Y152204D03*
X45550D03*
X42562Y161070D03*
X45514D03*
X42598Y165234D03*
X45550D03*
X57986Y164357D03*
X57997Y168712D03*
X44853Y212192D03*
Y207812D03*
Y203522D03*
Y216492D03*
X61448Y71274D03*
X64400D03*
X67362Y103594D03*
X70314D03*
X60948Y159977D03*
X60938Y164357D03*
X60949Y168712D03*
X65490Y184325D03*
X68442D03*
X65490Y188291D03*
X68442D03*
X65490Y192257D03*
X68442D03*
X65490Y208121D03*
X68442D03*
X65490Y200189D03*
X68442D03*
X65490Y196223D03*
X68442D03*
X65490Y212087D03*
X68442D03*
X65490Y204155D03*
X68442D03*
X84399Y30845D03*
X87351D03*
X93319Y50997D03*
X90367D03*
X91978Y55197D03*
X89026D03*
X91797Y87923D03*
X88845D03*
X94224Y155932D03*
X97176D03*
X94252Y151552D03*
X97204D03*
X94225Y160179D03*
X97177D03*
X94213Y164409D03*
X97165D03*
X101887Y194197D03*
X104839D03*
X101829Y202260D03*
X104781D03*
X101826Y209931D03*
X104778D03*
Y198033D03*
X101826D03*
X104778Y205965D03*
X101826D03*
X120450Y188560D03*
X123402D03*
X120877Y200964D03*
X123829D03*
X114598Y220956D03*
X111646D03*
X139209Y37385D03*
X142161D03*
Y33146D03*
X139209D03*
X140406Y67004D03*
X143358D03*
X140477Y87959D03*
X143429D03*
X140442Y83722D03*
X143394D03*
X145162Y101337D03*
X142210D03*
X145324Y190108D03*
Y194408D03*
Y185728D03*
Y202938D03*
Y198698D03*
X132380Y222231D03*
X129428D03*
X148276Y190108D03*
Y194408D03*
Y185728D03*
Y202938D03*
Y198698D03*
X169321Y64041D03*
X172273D03*
X213447Y108055D03*
X206022Y230587D03*
X203070D03*
X216399Y108055D03*
X229895Y102405D03*
X226943D03*
X234011Y111334D03*
X236963D03*
X245525Y221967D03*
X242573D03*
X265535Y101586D03*
X262583D03*
X257865Y122308D03*
X260817D03*
X256113Y116529D03*
X259065D03*
X251166Y222036D03*
X254118D03*
X270919Y101606D03*
X273871D03*
G54D11*
X22751Y15212D03*
X30149Y16711D03*
X34949Y29341D03*
X51520Y36187D03*
X59202Y38568D03*
X58615Y50753D03*
X58513Y179235D03*
Y185422D03*
X58476Y193892D03*
X66211Y27964D03*
X77573Y25327D03*
X74893Y51546D03*
X75025Y41825D03*
X75412Y68728D03*
Y68719D03*
X68967Y79136D03*
X61078Y103762D03*
X63707Y125382D03*
X60309Y203560D03*
X60385Y212442D03*
X81849Y7331D03*
X81842D03*
X84176Y53537D03*
Y71458D03*
Y59357D03*
X84086Y82649D03*
X81948Y89489D03*
X84076Y82642D03*
X87493Y101934D03*
X82990Y122627D03*
X86095Y182327D03*
X93721Y182301D03*
X96579Y82941D03*
X96721Y88598D03*
X96723Y88612D03*
X97895Y101750D03*
X96388Y122627D03*
X99479Y182329D03*
X110598Y198032D03*
X111304Y207385D03*
X114116Y6158D03*
X119909Y19576D03*
X119868Y14400D03*
X114120Y6138D03*
X118719Y99588D03*
X121348Y117159D03*
X127107Y184985D03*
X128287Y231827D03*
X145878Y21496D03*
X143513Y6762D03*
X143512Y15276D03*
X135581Y101132D03*
X131156Y122462D03*
X137703Y231827D03*
X159540Y17238D03*
X150797Y26446D03*
X148952Y68801D03*
X148963Y68802D03*
X158662Y87442D03*
X157155Y109070D03*
X150106Y122378D03*
X152610Y186905D03*
X150459Y211813D03*
X152611Y200011D03*
X150249Y220303D03*
X147119Y231827D03*
X176415Y10718D03*
X168095Y20827D03*
X166634Y37439D03*
X175025Y87525D03*
X191970Y220580D03*
X202397Y225202D03*
X207397D03*
X212397D03*
X221201Y31441D03*
X217397Y225202D03*
X242638Y167943D03*
X246938D03*
X257304Y17385D03*
X265996Y81738D03*
X264102Y95101D03*
X251238Y167943D03*
X255538D03*
X259838D03*
X264138D03*
X281901Y161172D03*
X272787Y163722D03*
G54D20*
X9887Y187244D03*
X48808Y93280D03*
X259913Y231876D03*
G54D21*
X37273Y17432D03*
Y25032D03*
X84196Y13430D03*
Y21030D03*
X84219Y21013D03*
Y13413D03*
X103128Y105742D03*
Y113342D03*
X125615Y15450D03*
Y23050D03*
X114813Y105702D03*
Y113302D03*
X153753Y15881D03*
Y8281D03*
X155782Y68392D03*
Y75992D03*
G54D12*
X9173Y19323D03*
X11142D03*
X13110D03*
X15079D03*
X9173Y30445D03*
X15079D03*
X13110D03*
X11142D03*
G54D30*
X58910Y66493D03*
X56941D03*
Y58815D03*
X54973Y66493D03*
Y58815D03*
X60879Y66493D03*
X62847D03*
X74195Y108978D03*
X76164D03*
Y116656D03*
X72226Y108978D03*
X70258D03*
X78132D03*
Y116656D03*
X145739Y106648D03*
X143771D03*
X147708D03*
X149677D03*
X151645D03*
X149677Y114326D03*
X151645D03*
X174879Y68838D03*
X176848D03*
X178816D03*
X172910D03*
X170942D03*
X176848Y76516D03*
X178816D03*
G54D31*
X70273Y15759D03*
Y225759D03*
X280273Y15759D03*
Y225759D03*
G54D22*
X39710Y38686D03*
Y33286D03*
X45563Y38656D03*
Y33256D03*
X273187Y89632D03*
Y95032D03*
G54D40*
X83183Y195718D03*
X89089D03*
X87120D03*
X85152D03*
X87120Y207580D03*
X85152D03*
X83183D03*
X89089D03*
G54D13*
X8920Y13639D03*
Y10687D03*
X13360Y13567D03*
Y10615D03*
X17568Y13598D03*
Y10646D03*
X9026Y38804D03*
Y35852D03*
X22819Y74000D03*
Y71048D03*
X18139Y74058D03*
Y71106D03*
X22137Y125332D03*
X16771Y125300D03*
X22137Y128284D03*
X16771Y128252D03*
X21140Y176916D03*
X15663Y176907D03*
X21140Y179868D03*
X24789Y191881D03*
Y188929D03*
X15663Y179859D03*
X20685Y227622D03*
X15401Y227560D03*
X20685Y230574D03*
X15401Y230512D03*
X25846Y39318D03*
Y36366D03*
X30196Y39242D03*
Y36290D03*
X27048Y71060D03*
Y74012D03*
X31408Y71040D03*
Y73992D03*
X30092Y89422D03*
X25822Y89474D03*
X30092Y92374D03*
X25822Y92426D03*
X30640Y125327D03*
X26380Y125315D03*
X29586Y140989D03*
Y138037D03*
X30640Y128279D03*
X25312Y141035D03*
Y138083D03*
X26380Y128267D03*
X29911Y176959D03*
X25541Y176917D03*
X29911Y179911D03*
X25541Y179869D03*
X29019Y191899D03*
Y188947D03*
X29433Y227623D03*
X25123Y227681D03*
X29433Y230575D03*
X25123Y230633D03*
X54132Y76099D03*
Y79051D03*
X64364Y79183D03*
Y76231D03*
X60104Y79119D03*
Y76167D03*
X73130Y96661D03*
Y99613D03*
X68852Y96657D03*
Y99609D03*
X76043Y140508D03*
Y137556D03*
X72099Y177786D03*
Y174834D03*
X76409D03*
Y177786D03*
X66080Y178023D03*
Y175071D03*
X74138Y186503D03*
Y189455D03*
X77813Y62258D03*
Y65210D03*
X78650Y99669D03*
Y96717D03*
X80413Y140474D03*
Y137522D03*
X80719Y174834D03*
Y177786D03*
X89647Y189451D03*
Y186499D03*
X82014Y189488D03*
Y186536D03*
X78104Y186503D03*
Y189455D03*
X86036Y186503D03*
Y189455D03*
X93968Y186503D03*
Y189455D03*
X87315Y213791D03*
Y216743D03*
X78806Y213791D03*
Y216743D03*
X91687Y213884D03*
Y216836D03*
X83026Y213791D03*
Y216743D03*
X101734Y189525D03*
Y186573D03*
X97934Y186503D03*
Y189455D03*
X95881Y216843D03*
Y213891D03*
X100768Y216843D03*
Y213891D03*
X132450Y12340D03*
Y9388D03*
X134921Y29200D03*
Y26248D03*
X138760Y29174D03*
Y26222D03*
X142628Y29173D03*
Y26221D03*
X145975Y94295D03*
Y97247D03*
X141625Y94299D03*
Y97251D03*
X147954Y9928D03*
Y12880D03*
X146384Y29160D03*
Y26208D03*
X152033Y97261D03*
Y94309D03*
X174399Y17374D03*
Y20326D03*
X178780Y17387D03*
Y20339D03*
X173951Y57061D03*
Y60013D03*
X169591Y57017D03*
Y59969D03*
X180549Y59883D03*
Y56931D03*
X185574Y20474D03*
Y17522D03*
X201305Y34734D03*
Y37686D03*
X223797Y221520D03*
Y218568D03*
X228824Y221793D03*
Y218841D03*
X248203Y171825D03*
Y174777D03*
X256134Y23602D03*
Y26554D03*
X267409Y72730D03*
Y75682D03*
X262615Y171848D03*
Y174800D03*
X258390Y174739D03*
Y171787D03*
X252614Y174748D03*
Y171796D03*
X261295Y187765D03*
Y190717D03*
X277346Y168518D03*
Y171470D03*
X273060Y168442D03*
Y171394D03*
X281498Y171501D03*
Y168549D03*
X268773Y171369D03*
Y168417D03*
X269024Y184072D03*
Y187024D03*
X273209Y184071D03*
Y187023D03*
X282288Y184171D03*
Y187123D03*
X278054Y184092D03*
Y187044D03*
G54D32*
X69220Y53525D03*
X63220D03*
X73146Y82517D03*
X79146D03*
X87937Y93047D03*
X93937D03*
X179982Y41608D03*
X173982D03*
G54D50*
X128923Y194372D03*
Y190632D03*
Y198112D03*
X139323Y194372D03*
Y190632D03*
Y198112D03*
X238893Y19096D03*
X250113D03*
Y22836D03*
Y26576D03*
X238893D03*
G54D41*
X92067Y204602D03*
Y202633D03*
X80205Y204602D03*
Y202633D03*
Y200665D03*
Y198696D03*
X92067Y200665D03*
Y198696D03*
G54D14*
X12126Y24884D03*
G54D23*
X43093Y85230D03*
X55787Y230607D03*
X156077Y231827D03*
X280634Y32470D03*
G54D33*
X70159Y60413D03*
Y66413D03*
X64076Y117214D03*
Y111214D03*
X137973Y15072D03*
Y9072D03*
X136973Y105503D03*
Y111503D03*
X164769Y74481D03*
Y68481D03*
X169661Y32331D03*
Y26331D03*
G54D24*
X52474Y19004D03*
X57908D03*
X94776Y12588D03*
X94896Y19028D03*
X108998Y18672D03*
X109008Y12756D03*
X100176Y12588D03*
X100296Y19028D03*
X110756Y87138D03*
X105356D03*
X110706Y93448D03*
X105306D03*
X114398Y18672D03*
X114408Y12756D03*
X121500Y87264D03*
X126900D03*
X121426Y93274D03*
X126826D03*
X157969Y34108D03*
X152569D03*
X158028Y56134D03*
X152628D03*
X157969Y40508D03*
X152569D03*
X158028Y62534D03*
X152628D03*
X247018Y43684D03*
X241618D03*
X253287Y32302D03*
X258687D03*
X253220Y43691D03*
X258620D03*
G54D42*
X86136Y201649D03*
G54D15*
X12876Y38470D03*
Y36368D03*
X18141Y37376D03*
Y39478D03*
X9702Y51420D03*
X11804D03*
X16987Y91078D03*
X9201Y103606D03*
X11303D03*
X16987Y93180D03*
X17060Y142551D03*
Y144653D03*
X8731Y155408D03*
X10833D03*
X16781Y193473D03*
X8385Y205973D03*
X10487D03*
X16781Y195575D03*
X66997Y142198D03*
X60586Y154659D03*
X62688D03*
X66997Y144300D03*
X90530Y35565D03*
Y37667D03*
X90536Y47425D03*
Y45323D03*
X90541Y40489D03*
Y42591D03*
X90336Y64176D03*
X92438D03*
X90343Y60525D03*
X92445D03*
X124450Y30249D03*
Y28147D03*
X126588Y30263D03*
Y28161D03*
X127118Y123366D03*
Y121264D03*
X128843Y30274D03*
Y28172D03*
X131316Y30259D03*
Y28157D03*
X205398Y233638D03*
X203296D03*
X214800Y234054D03*
Y236156D03*
X231894Y26568D03*
X233996D03*
X248757Y201390D03*
Y199288D03*
X249020Y215119D03*
X244400Y215064D03*
X246502D03*
X258756Y106277D03*
Y104175D03*
X261361Y125244D03*
X263463D03*
X261310Y193953D03*
X261288Y181860D03*
Y183962D03*
X261310Y196055D03*
X251446Y199280D03*
Y201382D03*
X251122Y215119D03*
X273906Y106968D03*
Y104866D03*
G54D60*
X190531Y178354D03*
X214567Y124318D03*
G54D51*
X155865Y125077D03*
Y169720D03*
X170730Y136548D03*
X169917Y143249D03*
X169607Y138709D03*
X170079Y132558D03*
X170901Y130312D03*
X170730Y158249D03*
X169607Y156088D03*
X171198Y149310D03*
X169917Y151548D03*
X171198Y145487D03*
X170079Y162239D03*
X170901Y164485D03*
X216686Y101513D03*
X264334Y194097D03*
X254103Y199311D03*
G54D43*
X89376Y223807D03*
Y233807D03*
X102773Y223807D03*
Y233807D03*
G54D61*
X249029Y184603D03*
Y193265D03*
X255329D03*
Y184603D03*
G54D25*
X45735Y18546D03*
Y23664D03*
X86977Y107121D03*
Y112239D03*
X95845Y107083D03*
Y112201D03*
X121100Y105661D03*
Y110779D03*
X132061Y16856D03*
Y21974D03*
X130803Y105791D03*
Y110909D03*
X152322Y45744D03*
Y50862D03*
G54D34*
X71912Y116656D03*
X145425Y114326D03*
X172596Y76516D03*
G54D16*
X21501Y39588D03*
Y35588D03*
X20457Y89812D03*
Y93812D03*
X20430Y141170D03*
Y145170D03*
X20231Y191831D03*
Y195831D03*
X24906Y195840D03*
X39977Y56430D03*
X40005Y48346D03*
Y52346D03*
X25786Y42964D03*
X29786D03*
X27186Y67503D03*
X31186D03*
X39977Y60430D03*
X25943Y95823D03*
X29943D03*
X39398Y102543D03*
Y106543D03*
X26507Y121436D03*
X30507D03*
X39358Y114735D03*
Y110735D03*
X38481Y152885D03*
Y156885D03*
X25392Y145975D03*
X29392D03*
X38582Y160862D03*
Y164862D03*
X26177Y172435D03*
X30177D03*
X28906Y195840D03*
X37680Y211924D03*
X37653Y203801D03*
Y207801D03*
X37680Y215924D03*
X25178Y224106D03*
X29178D03*
X71266Y140687D03*
Y144687D03*
X76476Y144539D03*
X77037Y171141D03*
X90664Y152154D03*
Y156154D03*
X80476Y144539D03*
X90585Y160074D03*
X81037Y171141D03*
X90585Y164074D03*
X123017Y192933D03*
Y196933D03*
X244941Y200747D03*
X240941D03*
G54D52*
X153489Y125282D03*
X153719Y169460D03*
X168666Y130227D03*
X168024Y136268D03*
X172416Y147418D03*
X169036Y149613D03*
X168410Y158419D03*
X168543Y164693D03*
X171168Y210964D03*
X175993Y211242D03*
X171231Y213342D03*
X171167Y215442D03*
X175954Y213342D03*
X175917Y215442D03*
X180634Y213344D03*
X180698Y215444D03*
X178309Y237756D03*
X173677Y237604D03*
X180519Y235511D03*
X180554Y237611D03*
X175836Y235512D03*
X175968Y237608D03*
X171182Y235512D03*
X171035Y237702D03*
X197249Y46394D03*
X197328Y48683D03*
X197301Y50944D03*
X197196Y53042D03*
X180649Y211133D03*
X185481Y211245D03*
X190082Y211248D03*
X194890Y211247D03*
X194906Y227392D03*
X185415Y213344D03*
X185320Y215442D03*
X190198Y213345D03*
X190166Y215445D03*
X194884Y215444D03*
X194979Y213346D03*
X193658Y223819D03*
X192790Y237120D03*
X187933Y237406D03*
X182956Y237536D03*
X197392Y236202D03*
X195279Y236193D03*
X190054Y235550D03*
X190033Y237650D03*
X185295Y235512D03*
X185179Y237609D03*
X198561Y37588D03*
X198475Y35489D03*
X212369Y37654D03*
X204609Y38181D03*
Y35787D03*
X198225Y30183D03*
X214017Y46416D03*
X204521Y48158D03*
X204716Y40279D03*
X204568Y50258D03*
X210768Y47899D03*
X212316Y39864D03*
X214054Y48603D03*
X198681Y39685D03*
X199450Y211194D03*
X204275Y211225D03*
X204224Y215423D03*
X204320Y213325D03*
X199602Y215391D03*
X199570Y213291D03*
X203598Y237589D03*
X212097Y233679D03*
X207742Y233527D03*
X208483Y235492D03*
X210906Y235428D03*
X201595Y236461D03*
X199497Y236350D03*
X220551Y37636D03*
X215685Y37978D03*
X215714Y35519D03*
X225181Y38004D03*
X221890Y48604D03*
X225150Y48334D03*
X228313Y48071D03*
X220683Y39977D03*
X225287Y40318D03*
X231188Y50888D03*
X228148Y50595D03*
X215870Y40134D03*
X217167Y48583D03*
X221892Y50773D03*
X225074Y50602D03*
X225908Y216561D03*
X226060Y213637D03*
X221501Y215279D03*
X221629Y213095D03*
X228845Y216177D03*
X224199Y233500D03*
X221471Y233417D03*
X217079Y233836D03*
X220418Y235505D03*
X218027Y235761D03*
X228210Y234964D03*
X231662Y234805D03*
X226671Y233535D03*
X235983Y35660D03*
X233121Y37382D03*
X233096Y48413D03*
X233069Y39556D03*
X248687Y164735D03*
X233230Y233408D03*
X266972Y124618D03*
X255618Y122013D03*
X255723Y124111D03*
X256216Y113001D03*
X258306Y112790D03*
X253512Y125145D03*
X255993Y118934D03*
X258312Y119057D03*
Y141135D03*
X256038Y141249D03*
X265971Y141307D03*
X258312Y133242D03*
X265876Y133146D03*
X258161Y149022D03*
X256067Y149181D03*
X266034Y148926D03*
X266501Y160125D03*
X254791Y164735D03*
X257544Y165195D03*
X251096Y164868D03*
X267106Y175497D03*
X259439Y161591D03*
X276282Y101721D03*
X278522Y125412D03*
X278381Y118963D03*
X280482Y112784D03*
X280622Y125373D03*
X280481Y118988D03*
X278382Y112778D03*
X282599Y138175D03*
X270497Y141435D03*
X276554Y138597D03*
X280481Y133236D03*
X278619Y138032D03*
X268171Y141243D03*
X278382Y133156D03*
X267976Y133086D03*
X276282Y130068D03*
X278380Y129975D03*
X280592D03*
X268599Y160017D03*
X276793Y159989D03*
X278818Y156768D03*
X271182Y153690D03*
X278850Y153708D03*
X276491Y153534D03*
X269765Y156736D03*
X267612Y156895D03*
X268253Y148958D03*
X280571Y149085D03*
X278382Y148990D03*
X270352Y148878D03*
X276427Y144296D03*
X278706Y144192D03*
X278891Y159760D03*
X272031Y175673D03*
X274147Y176489D03*
X269337Y175577D03*
X278379Y164595D03*
X280464Y164340D03*
G54D62*
X242689Y208241D03*
X252531D03*
G54D17*
X21558Y47550D03*
X24117D03*
Y63102D03*
X21558D03*
X21492Y100502D03*
X24051D03*
Y116054D03*
X21492D03*
X20581Y151512D03*
X23140D03*
Y167064D03*
X20581D03*
X20184Y202773D03*
X22743D03*
Y218325D03*
X20184D03*
X26677Y47550D03*
X29236D03*
X26677Y63102D03*
X29236D03*
X26611Y100502D03*
X29170D03*
X26611Y116054D03*
X29170D03*
X25700Y151512D03*
X28259D03*
X25700Y167064D03*
X28259D03*
X25303Y202773D03*
X27862D03*
X25303Y218325D03*
X27862D03*
X72195Y150919D03*
X74754D03*
Y166471D03*
X72195D03*
X77314Y150919D03*
X79873D03*
X77314Y166471D03*
X79873D03*
G54D26*
X48292Y11509D03*
X53410D03*
X64057Y37627D03*
X69175D03*
X73719Y76410D03*
X78837D03*
X109291Y99568D03*
X104173D03*
X123442Y99838D03*
X128560D03*
G54D44*
X103027Y39784D03*
X110901D03*
X109326D03*
X107751D03*
X106176D03*
X104602D03*
X107751Y66950D03*
X104602D03*
X106176D03*
X103027D03*
X110901D03*
X109326D03*
X123499Y39784D03*
X120350D03*
X117200D03*
X121924D03*
X118775D03*
X115625D03*
X114050D03*
X112476D03*
X123499Y66950D03*
X121924D03*
X112476D03*
X118775D03*
X120350D03*
X114050D03*
X115625D03*
X117200D03*
G54D53*
X163154Y188604D03*
X190273Y34350D03*
X190112Y38894D03*
X190098Y43413D03*
X189985Y47929D03*
X213442Y103324D03*
X208707Y103334D03*
X220779Y103414D03*
X232734Y206439D03*
X226276Y197354D03*
X221939Y209110D03*
X231790Y201974D03*
X223817Y204644D03*
X228001Y201883D03*
X230379Y197675D03*
X223040Y226242D03*
X223088Y230547D03*
X227632Y230438D03*
X232209Y230566D03*
X235025Y102559D03*
X236818Y230470D03*
G54D35*
G01X-515713Y-360743D02*
Y-260743D01*
X-115713D01*
G01D02*
Y-360743D01*
X-515713D01*
X73895Y208052D03*
X77875Y210030D03*
G54D36*
X94080Y27604D03*
X100654D03*
X105351Y78387D03*
X111925D03*
G54D27*
X52915Y26302D03*
X60515D03*
X62884Y44244D03*
X70484D03*
X76775Y124969D03*
X69175D03*
X127320Y6892D03*
X119720D03*
X127230D03*
X119630D03*
X136166Y120364D03*
X143766D03*
X155301Y27322D03*
X162901D03*
X163452Y83372D03*
X171052D03*
X190393Y12401D03*
X182793D03*
G54D45*
X109303Y27425D03*
X117253D03*
X120692Y78465D03*
X128642D03*
X136302Y59301D03*
X144252D03*
X136207Y45407D03*
X144157D03*
G54D18*
X17621Y51487D03*
Y54046D03*
Y56606D03*
Y59165D03*
X17555Y104439D03*
Y106998D03*
Y109558D03*
Y112117D03*
X16644Y160568D03*
Y155449D03*
Y158008D03*
Y163127D03*
X16247Y211829D03*
Y206710D03*
Y209269D03*
Y214388D03*
X33173Y51487D03*
Y54046D03*
Y59165D03*
Y56606D03*
X33107Y104439D03*
Y106998D03*
Y112117D03*
Y109558D03*
X32196Y155449D03*
Y158008D03*
Y160568D03*
Y163127D03*
X31799Y206710D03*
Y209269D03*
Y211829D03*
Y214388D03*
X68258Y159975D03*
Y154856D03*
Y157415D03*
Y162534D03*
X83810Y154856D03*
Y157415D03*
Y159975D03*
Y162534D03*
G54D54*
X177806Y35441D03*
G54D63*
X273302Y72741D03*
Y78741D03*
G54D64*
G01X-515713Y-340743D02*
X-115713D01*
G01X-515713Y-310743D02*
Y-290743D01*
X-115713D01*
G01X-465713Y-360743D02*
Y-340743D01*
G01X-340213Y-360743D02*
Y-340743D01*
G01X-340713Y-290743D02*
Y-260743D01*
G01X-290713Y-360743D02*
Y-340743D01*
G54D28*
X61193Y58815D03*
G54D37*
X83313Y37126D03*
Y46968D03*
G54D19*
X25397Y55326D03*
X25331Y108278D03*
X24420Y159288D03*
X24023Y210549D03*
X76034Y158695D03*
G54D55*
X179775Y31858D03*
G54D46*
X99680Y47855D03*
Y49430D03*
Y55729D03*
Y51005D03*
Y52580D03*
Y44706D03*
Y54154D03*
Y46280D03*
Y43131D03*
Y58879D03*
Y57304D03*
Y63603D03*
Y62028D03*
Y60454D03*
X126846Y43131D03*
Y44706D03*
Y47855D03*
Y46280D03*
Y55729D03*
Y54154D03*
Y52580D03*
Y51005D03*
Y49430D03*
Y63603D03*
Y62028D03*
Y60454D03*
Y58879D03*
Y57304D03*
G54D65*
G01X290282Y237556D02*
G03X287282Y240556I-3000J0D01*
G01X2977D01*
G03X-23Y237556I0J-3000D01*
G01Y2972D01*
G03X2977Y-28I3000J0D01*
G01X287282D01*
G03X290282Y2972I0J3000D01*
G01Y237556D01*
G54D47*
X113263Y53367D03*
G54D38*
X92686Y73641D03*
Y77381D03*
X98571Y73733D03*
Y77473D03*
X262783Y106235D03*
Y109975D03*
G54D56*
X176822Y28275D03*
X178791D03*
X180759D03*
Y35441D03*
X182728Y28275D03*
Y35441D03*
G54D29*
X58910Y62654D03*
X74195Y112817D03*
X147708Y110487D03*
X174879Y72677D03*
G54D66*
G01X-508520Y-357243D02*
X-508363Y-355878D01*
X-508128Y-354723D01*
X-507815Y-353673D01*
X-507423Y-352518D01*
X-506796Y-350943D01*
X-509930D01*
G01X-495763Y-357243D02*
X-496390Y-357138D01*
X-496938Y-356718D01*
X-497408Y-356088D01*
X-497721Y-355353D01*
X-497878Y-354513D01*
Y-353673D01*
X-497721Y-352833D01*
X-497408Y-352098D01*
X-496938Y-351468D01*
X-496390Y-351048D01*
X-495763Y-350943D01*
X-495136Y-351048D01*
X-494588Y-351468D01*
X-494118Y-352098D01*
X-493805Y-352833D01*
X-493648Y-353673D01*
Y-354513D01*
X-493805Y-355353D01*
X-494118Y-356088D01*
X-494588Y-356718D01*
X-495136Y-357138D01*
X-495763Y-357243D01*
G01X-490951D02*
Y-350943D01*
X-487975D01*
G01X-489071Y-353988D02*
X-490951D01*
G01X-476863Y-357243D02*
Y-350943D01*
X-477803Y-352203D01*
G01Y-357243D02*
X-475923D01*
G01X-472051Y-351993D02*
X-471581Y-351363D01*
X-471033Y-351048D01*
X-470406Y-350943D01*
X-469623Y-351153D01*
X-469075Y-351678D01*
X-468918Y-352308D01*
X-468996Y-352938D01*
X-469310Y-353463D01*
X-470876Y-354513D01*
X-471581Y-355248D01*
X-472051Y-356298D01*
X-472208Y-357243D01*
X-468918D01*
G01X-512188Y-348210D02*
X-511721Y-348543D01*
X-511196Y-348743D01*
X-510730D01*
X-510263Y-348543D01*
X-509913Y-348210D01*
X-509738Y-347743D01*
X-509855Y-347276D01*
X-510146Y-346876D01*
X-510671Y-346610D01*
X-511371Y-346476D01*
X-511780Y-346210D01*
X-511955Y-345743D01*
X-511838Y-345276D01*
X-511546Y-344943D01*
X-511138Y-344743D01*
X-510730D01*
X-510321Y-344876D01*
X-509971Y-345210D01*
G01X-507388Y-348743D02*
Y-344743D01*
G01X-504938D02*
Y-348743D01*
G01Y-346743D02*
X-507388D01*
G01X-500196Y-348743D02*
X-502530D01*
Y-344743D01*
X-500196D01*
G01X-501130Y-346676D02*
X-502530D01*
G01X-495396Y-348743D02*
X-497730D01*
Y-344743D01*
X-495396D01*
G01X-496330Y-346676D02*
X-497730D01*
G01X-491763Y-344743D02*
Y-348743D01*
G01X-493105Y-344743D02*
X-490421D01*
G01X-503963Y-329743D02*
X-504430Y-329676D01*
X-504838Y-329410D01*
X-505188Y-329010D01*
X-505421Y-328543D01*
X-505538Y-328010D01*
Y-327476D01*
X-505421Y-326943D01*
X-505188Y-326476D01*
X-504838Y-326076D01*
X-504430Y-325810D01*
X-503963Y-325743D01*
X-503496Y-325810D01*
X-503088Y-326076D01*
X-502738Y-326476D01*
X-502505Y-326943D01*
X-502388Y-327476D01*
Y-328010D01*
X-502505Y-328543D01*
X-502738Y-329010D01*
X-503088Y-329410D01*
X-503496Y-329676D01*
X-503963Y-329743D01*
G01X-500330D02*
Y-325743D01*
X-498871D01*
X-498405Y-325943D01*
X-498113Y-326210D01*
X-497996Y-326743D01*
X-498113Y-327276D01*
X-498463Y-327610D01*
X-498871Y-327810D01*
X-500330D01*
G01X-498871D02*
X-497996Y-329743D01*
G01X-490263Y-325743D02*
X-488863D01*
G01X-489563D02*
Y-329743D01*
G01X-490263D02*
X-488863D01*
G01X-486105D02*
Y-325743D01*
X-483421Y-329743D01*
Y-325743D01*
G01X-476330Y-329743D02*
Y-325743D01*
X-474930D01*
X-474463Y-325943D01*
X-474113Y-326410D01*
X-473996Y-326943D01*
X-474113Y-327476D01*
X-474405Y-327876D01*
X-474930Y-328076D01*
X-476330D01*
G01X-471821Y-329743D02*
X-470363Y-325743D01*
X-468905Y-329743D01*
G01X-469430Y-328343D02*
X-471296D01*
G01X-466730Y-329743D02*
Y-325743D01*
X-465271D01*
X-464805Y-325943D01*
X-464513Y-326210D01*
X-464396Y-326743D01*
X-464513Y-327276D01*
X-464863Y-327610D01*
X-465271Y-327810D01*
X-466730D01*
G01X-465271D02*
X-464396Y-329743D01*
G01X-460763Y-325743D02*
Y-329743D01*
G01X-462105Y-325743D02*
X-459421D01*
G01X-452913D02*
X-452096Y-329743D01*
X-451163Y-325743D01*
X-450230Y-329743D01*
X-449413Y-325743D01*
G01X-447063D02*
X-445663D01*
G01X-446363D02*
Y-329743D01*
G01X-447063D02*
X-445663D01*
G01X-441563Y-325743D02*
Y-329743D01*
G01X-442905Y-325743D02*
X-440221D01*
G01X-437988Y-329743D02*
Y-325743D01*
G01X-435538D02*
Y-329743D01*
G01Y-327743D02*
X-437988D01*
G01X-431963Y-329743D02*
X-432430Y-329676D01*
X-432838Y-329410D01*
X-433188Y-329010D01*
X-433421Y-328543D01*
X-433538Y-328010D01*
Y-327476D01*
X-433421Y-326943D01*
X-433188Y-326476D01*
X-432838Y-326076D01*
X-432430Y-325810D01*
X-431963Y-325743D01*
X-431496Y-325810D01*
X-431088Y-326076D01*
X-430738Y-326476D01*
X-430505Y-326943D01*
X-430388Y-327476D01*
Y-328010D01*
X-430505Y-328543D01*
X-430738Y-329010D01*
X-431088Y-329410D01*
X-431496Y-329676D01*
X-431963Y-329743D01*
G01X-428446Y-325743D02*
Y-328610D01*
X-428213Y-329210D01*
X-427746Y-329610D01*
X-427163Y-329743D01*
X-426580Y-329610D01*
X-426113Y-329210D01*
X-425880Y-328610D01*
Y-325743D01*
G01X-422363D02*
Y-329743D01*
G01X-423705Y-325743D02*
X-421021D01*
G01X-412763D02*
Y-329743D01*
G01X-414105Y-325743D02*
X-411421D01*
G01X-409188Y-329743D02*
Y-325743D01*
G01X-406738D02*
Y-329743D01*
G01Y-327743D02*
X-409188D01*
G01X-401996Y-329743D02*
X-404330D01*
Y-325743D01*
X-401996D01*
G01X-402930Y-327676D02*
X-404330D01*
G01X-392280Y-326076D02*
X-392630Y-325876D01*
X-393038Y-325743D01*
X-393505D01*
X-394030Y-325943D01*
X-394438Y-326276D01*
X-394730Y-326676D01*
X-394963Y-327343D01*
X-395021Y-327943D01*
X-394905Y-328543D01*
X-394730Y-328943D01*
X-394380Y-329343D01*
X-393971Y-329610D01*
X-393563Y-329743D01*
X-393155D01*
X-392746Y-329610D01*
X-392396Y-329410D01*
X-392105Y-329143D01*
G01X-388763Y-329743D02*
X-389230Y-329676D01*
X-389638Y-329410D01*
X-389988Y-329010D01*
X-390221Y-328543D01*
X-390338Y-328010D01*
Y-327476D01*
X-390221Y-326943D01*
X-389988Y-326476D01*
X-389638Y-326076D01*
X-389230Y-325810D01*
X-388763Y-325743D01*
X-388296Y-325810D01*
X-387888Y-326076D01*
X-387538Y-326476D01*
X-387305Y-326943D01*
X-387188Y-327476D01*
Y-328010D01*
X-387305Y-328543D01*
X-387538Y-329010D01*
X-387888Y-329410D01*
X-388296Y-329676D01*
X-388763Y-329743D01*
G01X-385305D02*
Y-325743D01*
X-382621Y-329743D01*
Y-325743D01*
G01X-380388Y-329210D02*
X-379921Y-329543D01*
X-379396Y-329743D01*
X-378930D01*
X-378463Y-329543D01*
X-378113Y-329210D01*
X-377938Y-328743D01*
X-378055Y-328276D01*
X-378346Y-327876D01*
X-378871Y-327610D01*
X-379571Y-327476D01*
X-379980Y-327210D01*
X-380155Y-326743D01*
X-380038Y-326276D01*
X-379746Y-325943D01*
X-379338Y-325743D01*
X-378930D01*
X-378521Y-325876D01*
X-378171Y-326210D01*
G01X-373196Y-329743D02*
X-375530D01*
Y-325743D01*
X-373196D01*
G01X-374130Y-327676D02*
X-375530D01*
G01X-370905Y-329743D02*
Y-325743D01*
X-368221Y-329743D01*
Y-325743D01*
G01X-364763D02*
Y-329743D01*
G01X-366105Y-325743D02*
X-363421D01*
G01X-355163Y-329743D02*
X-355630Y-329676D01*
X-356038Y-329410D01*
X-356388Y-329010D01*
X-356621Y-328543D01*
X-356738Y-328010D01*
Y-327476D01*
X-356621Y-326943D01*
X-356388Y-326476D01*
X-356038Y-326076D01*
X-355630Y-325810D01*
X-355163Y-325743D01*
X-354696Y-325810D01*
X-354288Y-326076D01*
X-353938Y-326476D01*
X-353705Y-326943D01*
X-353588Y-327476D01*
Y-328010D01*
X-353705Y-328543D01*
X-353938Y-329010D01*
X-354288Y-329410D01*
X-354696Y-329676D01*
X-355163Y-329743D01*
G01X-351471D02*
Y-325743D01*
X-349255D01*
G01X-350071Y-327676D02*
X-351471D01*
G01X-504305Y-337743D02*
Y-333743D01*
X-501621Y-337743D01*
Y-333743D01*
G01X-499388Y-337743D02*
X-496938Y-333743D01*
G01X-499388D02*
X-496938Y-337743D01*
G01X-494530D02*
Y-333743D01*
X-493130D01*
X-492663Y-333943D01*
X-492313Y-334410D01*
X-492196Y-334943D01*
X-492313Y-335476D01*
X-492605Y-335876D01*
X-493130Y-336076D01*
X-494530D01*
G01X-488563Y-337876D02*
X-488680Y-337810D01*
Y-337676D01*
X-488563Y-337610D01*
X-488446Y-337676D01*
Y-337810D01*
X-488563Y-337876D01*
G01X-503496Y-311610D02*
X-503263Y-311410D01*
X-503088Y-311076D01*
X-502971Y-310610D01*
X-503088Y-310210D01*
X-503321Y-309943D01*
X-503730Y-309743D01*
X-505305D01*
Y-313743D01*
X-503380D01*
X-502971Y-313476D01*
X-502738Y-313076D01*
X-502621Y-312610D01*
X-502738Y-312143D01*
X-503088Y-311743D01*
X-503496Y-311610D01*
X-505305D01*
G01X-497996Y-313743D02*
X-500330D01*
Y-309743D01*
X-497996D01*
G01X-498930Y-311676D02*
X-500330D01*
G01X-490846Y-309743D02*
Y-312610D01*
X-490613Y-313210D01*
X-490146Y-313610D01*
X-489563Y-313743D01*
X-488980Y-313610D01*
X-488513Y-313210D01*
X-488280Y-312610D01*
Y-309743D01*
G01X-485988Y-313210D02*
X-485521Y-313543D01*
X-484996Y-313743D01*
X-484530D01*
X-484063Y-313543D01*
X-483713Y-313210D01*
X-483538Y-312743D01*
X-483655Y-312276D01*
X-483946Y-311876D01*
X-484471Y-311610D01*
X-485171Y-311476D01*
X-485580Y-311210D01*
X-485755Y-310743D01*
X-485638Y-310276D01*
X-485346Y-309943D01*
X-484938Y-309743D01*
X-484530D01*
X-484121Y-309876D01*
X-483771Y-310210D01*
G01X-478796Y-313743D02*
X-481130D01*
Y-309743D01*
X-478796D01*
G01X-479730Y-311676D02*
X-481130D01*
G01X-476446Y-313743D02*
Y-309743D01*
X-475280D01*
X-474813Y-309943D01*
X-474463Y-310210D01*
X-474171Y-310610D01*
X-473938Y-311076D01*
X-473880Y-311743D01*
X-473938Y-312410D01*
X-474171Y-312876D01*
X-474463Y-313276D01*
X-474813Y-313543D01*
X-475280Y-313743D01*
X-476446D01*
G01X-466671D02*
Y-309743D01*
X-464455D01*
G01X-465271Y-311676D02*
X-466671D01*
G01X-460763Y-313743D02*
X-461230Y-313676D01*
X-461638Y-313410D01*
X-461988Y-313010D01*
X-462221Y-312543D01*
X-462338Y-312010D01*
Y-311476D01*
X-462221Y-310943D01*
X-461988Y-310476D01*
X-461638Y-310076D01*
X-461230Y-309810D01*
X-460763Y-309743D01*
X-460296Y-309810D01*
X-459888Y-310076D01*
X-459538Y-310476D01*
X-459305Y-310943D01*
X-459188Y-311476D01*
Y-312010D01*
X-459305Y-312543D01*
X-459538Y-313010D01*
X-459888Y-313410D01*
X-460296Y-313676D01*
X-460763Y-313743D01*
G01X-457130D02*
Y-309743D01*
X-455671D01*
X-455205Y-309943D01*
X-454913Y-310210D01*
X-454796Y-310743D01*
X-454913Y-311276D01*
X-455263Y-311610D01*
X-455671Y-311810D01*
X-457130D01*
G01X-455671D02*
X-454796Y-313743D01*
G01X-445196D02*
X-447530D01*
Y-309743D01*
X-445196D01*
G01X-446130Y-311676D02*
X-447530D01*
G01X-442905Y-313743D02*
Y-309743D01*
X-440221Y-313743D01*
Y-309743D01*
G01X-436413Y-311743D02*
X-435246D01*
Y-312943D01*
X-435596Y-313343D01*
X-436005Y-313610D01*
X-436588Y-313743D01*
X-437171Y-313610D01*
X-437580Y-313343D01*
X-437930Y-312943D01*
X-438163Y-312476D01*
X-438280Y-311943D01*
Y-311476D01*
X-438163Y-311076D01*
X-437930Y-310610D01*
X-437580Y-310210D01*
X-437230Y-309943D01*
X-436763Y-309743D01*
X-436355D01*
X-435888Y-309876D01*
X-435538Y-310143D01*
G01X-432663Y-309743D02*
X-431263D01*
G01X-431963D02*
Y-313743D01*
G01X-432663D02*
X-431263D01*
G01X-428505D02*
Y-309743D01*
X-425821Y-313743D01*
Y-309743D01*
G01X-421196Y-313743D02*
X-423530D01*
Y-309743D01*
X-421196D01*
G01X-422130Y-311676D02*
X-423530D01*
G01X-416396Y-313743D02*
X-418730D01*
Y-309743D01*
X-416396D01*
G01X-417330Y-311676D02*
X-418730D01*
G01X-413930Y-313743D02*
Y-309743D01*
X-412471D01*
X-412005Y-309943D01*
X-411713Y-310210D01*
X-411596Y-310743D01*
X-411713Y-311276D01*
X-412063Y-311610D01*
X-412471Y-311810D01*
X-413930D01*
G01X-412471D02*
X-411596Y-313743D01*
G01X-408663Y-309743D02*
X-407263D01*
G01X-407963D02*
Y-313743D01*
G01X-408663D02*
X-407263D01*
G01X-404505D02*
Y-309743D01*
X-401821Y-313743D01*
Y-309743D01*
G01X-398013Y-311743D02*
X-396846D01*
Y-312943D01*
X-397196Y-313343D01*
X-397605Y-313610D01*
X-398188Y-313743D01*
X-398771Y-313610D01*
X-399180Y-313343D01*
X-399530Y-312943D01*
X-399763Y-312476D01*
X-399880Y-311943D01*
Y-311476D01*
X-399763Y-311076D01*
X-399530Y-310610D01*
X-399180Y-310210D01*
X-398830Y-309943D01*
X-398363Y-309743D01*
X-397955D01*
X-397488Y-309876D01*
X-397138Y-310143D01*
G01X-390046Y-313743D02*
Y-309743D01*
X-388880D01*
X-388413Y-309943D01*
X-388063Y-310210D01*
X-387771Y-310610D01*
X-387538Y-311076D01*
X-387480Y-311743D01*
X-387538Y-312410D01*
X-387771Y-312876D01*
X-388063Y-313276D01*
X-388413Y-313543D01*
X-388880Y-313743D01*
X-390046D01*
G01X-382796D02*
X-385130D01*
Y-309743D01*
X-382796D01*
G01X-383730Y-311676D02*
X-385130D01*
G01X-380388Y-313210D02*
X-379921Y-313543D01*
X-379396Y-313743D01*
X-378930D01*
X-378463Y-313543D01*
X-378113Y-313210D01*
X-377938Y-312743D01*
X-378055Y-312276D01*
X-378346Y-311876D01*
X-378871Y-311610D01*
X-379571Y-311476D01*
X-379980Y-311210D01*
X-380155Y-310743D01*
X-380038Y-310276D01*
X-379746Y-309943D01*
X-379338Y-309743D01*
X-378930D01*
X-378521Y-309876D01*
X-378171Y-310210D01*
G01X-375063Y-309743D02*
X-373663D01*
G01X-374363D02*
Y-313743D01*
G01X-375063D02*
X-373663D01*
G01X-369213Y-311743D02*
X-368046D01*
Y-312943D01*
X-368396Y-313343D01*
X-368805Y-313610D01*
X-369388Y-313743D01*
X-369971Y-313610D01*
X-370380Y-313343D01*
X-370730Y-312943D01*
X-370963Y-312476D01*
X-371080Y-311943D01*
Y-311476D01*
X-370963Y-311076D01*
X-370730Y-310610D01*
X-370380Y-310210D01*
X-370030Y-309943D01*
X-369563Y-309743D01*
X-369155D01*
X-368688Y-309876D01*
X-368338Y-310143D01*
G01X-366105Y-313743D02*
Y-309743D01*
X-363421Y-313743D01*
Y-309743D01*
G01X-505130Y-321743D02*
Y-317743D01*
X-503730D01*
X-503263Y-317943D01*
X-502913Y-318410D01*
X-502796Y-318943D01*
X-502913Y-319476D01*
X-503205Y-319876D01*
X-503730Y-320076D01*
X-505130D01*
G01X-500330Y-321743D02*
Y-317743D01*
X-498871D01*
X-498405Y-317943D01*
X-498113Y-318210D01*
X-497996Y-318743D01*
X-498113Y-319276D01*
X-498463Y-319610D01*
X-498871Y-319810D01*
X-500330D01*
G01X-498871D02*
X-497996Y-321743D01*
G01X-494363D02*
X-494830Y-321676D01*
X-495238Y-321410D01*
X-495588Y-321010D01*
X-495821Y-320543D01*
X-495938Y-320010D01*
Y-319476D01*
X-495821Y-318943D01*
X-495588Y-318476D01*
X-495238Y-318076D01*
X-494830Y-317810D01*
X-494363Y-317743D01*
X-493896Y-317810D01*
X-493488Y-318076D01*
X-493138Y-318476D01*
X-492905Y-318943D01*
X-492788Y-319476D01*
Y-320010D01*
X-492905Y-320543D01*
X-493138Y-321010D01*
X-493488Y-321410D01*
X-493896Y-321676D01*
X-494363Y-321743D01*
G01X-488280Y-318076D02*
X-488630Y-317876D01*
X-489038Y-317743D01*
X-489505D01*
X-490030Y-317943D01*
X-490438Y-318276D01*
X-490730Y-318676D01*
X-490963Y-319343D01*
X-491021Y-319943D01*
X-490905Y-320543D01*
X-490730Y-320943D01*
X-490380Y-321343D01*
X-489971Y-321610D01*
X-489563Y-321743D01*
X-489155D01*
X-488746Y-321610D01*
X-488396Y-321410D01*
X-488105Y-321143D01*
G01X-486046Y-317743D02*
Y-320610D01*
X-485813Y-321210D01*
X-485346Y-321610D01*
X-484763Y-321743D01*
X-484180Y-321610D01*
X-483713Y-321210D01*
X-483480Y-320610D01*
Y-317743D01*
G01X-481130Y-321743D02*
Y-317743D01*
X-479671D01*
X-479205Y-317943D01*
X-478913Y-318210D01*
X-478796Y-318743D01*
X-478913Y-319276D01*
X-479263Y-319610D01*
X-479671Y-319810D01*
X-481130D01*
G01X-479671D02*
X-478796Y-321743D01*
G01X-473996D02*
X-476330D01*
Y-317743D01*
X-473996D01*
G01X-474930Y-319676D02*
X-476330D01*
G01X-471880Y-321743D02*
Y-317743D01*
X-470363Y-321076D01*
X-468846Y-317743D01*
Y-321743D01*
G01X-464396D02*
X-466730D01*
Y-317743D01*
X-464396D01*
G01X-465330Y-319676D02*
X-466730D01*
G01X-462105Y-321743D02*
Y-317743D01*
X-459421Y-321743D01*
Y-317743D01*
G01X-455963D02*
Y-321743D01*
G01X-457305Y-317743D02*
X-454621D01*
G01X-446363Y-321743D02*
X-446830Y-321676D01*
X-447238Y-321410D01*
X-447588Y-321010D01*
X-447821Y-320543D01*
X-447938Y-320010D01*
Y-319476D01*
X-447821Y-318943D01*
X-447588Y-318476D01*
X-447238Y-318076D01*
X-446830Y-317810D01*
X-446363Y-317743D01*
X-445896Y-317810D01*
X-445488Y-318076D01*
X-445138Y-318476D01*
X-444905Y-318943D01*
X-444788Y-319476D01*
Y-320010D01*
X-444905Y-320543D01*
X-445138Y-321010D01*
X-445488Y-321410D01*
X-445896Y-321676D01*
X-446363Y-321743D01*
G01X-442730D02*
Y-317743D01*
X-441271D01*
X-440805Y-317943D01*
X-440513Y-318210D01*
X-440396Y-318743D01*
X-440513Y-319276D01*
X-440863Y-319610D01*
X-441271Y-319810D01*
X-442730D01*
G01X-441271D02*
X-440396Y-321743D01*
G01X-433480D02*
Y-317743D01*
X-431963Y-321076D01*
X-430446Y-317743D01*
Y-321743D01*
G01X-428621D02*
X-427163Y-317743D01*
X-425705Y-321743D01*
G01X-426230Y-320343D02*
X-428096D01*
G01X-423705Y-321743D02*
Y-317743D01*
X-421021Y-321743D01*
Y-317743D01*
G01X-418846D02*
Y-320610D01*
X-418613Y-321210D01*
X-418146Y-321610D01*
X-417563Y-321743D01*
X-416980Y-321610D01*
X-416513Y-321210D01*
X-416280Y-320610D01*
Y-317743D01*
G01X-413871Y-321743D02*
Y-317743D01*
X-411655D01*
G01X-412471Y-319676D02*
X-413871D01*
G01X-409421Y-321743D02*
X-407963Y-317743D01*
X-406505Y-321743D01*
G01X-407030Y-320343D02*
X-408896D01*
G01X-401880Y-318076D02*
X-402230Y-317876D01*
X-402638Y-317743D01*
X-403105D01*
X-403630Y-317943D01*
X-404038Y-318276D01*
X-404330Y-318676D01*
X-404563Y-319343D01*
X-404621Y-319943D01*
X-404505Y-320543D01*
X-404330Y-320943D01*
X-403980Y-321343D01*
X-403571Y-321610D01*
X-403163Y-321743D01*
X-402755D01*
X-402346Y-321610D01*
X-401996Y-321410D01*
X-401705Y-321143D01*
G01X-398363Y-317743D02*
Y-321743D01*
G01X-399705Y-317743D02*
X-397021D01*
G01X-394846D02*
Y-320610D01*
X-394613Y-321210D01*
X-394146Y-321610D01*
X-393563Y-321743D01*
X-392980Y-321610D01*
X-392513Y-321210D01*
X-392280Y-320610D01*
Y-317743D01*
G01X-389930Y-321743D02*
Y-317743D01*
X-388471D01*
X-388005Y-317943D01*
X-387713Y-318210D01*
X-387596Y-318743D01*
X-387713Y-319276D01*
X-388063Y-319610D01*
X-388471Y-319810D01*
X-389930D01*
G01X-388471D02*
X-387596Y-321743D01*
G01X-382796D02*
X-385130D01*
Y-317743D01*
X-382796D01*
G01X-383730Y-319676D02*
X-385130D01*
G01X-375063Y-317743D02*
X-373663D01*
G01X-374363D02*
Y-321743D01*
G01X-375063D02*
X-373663D01*
G01X-370905D02*
Y-317743D01*
X-368221Y-321743D01*
Y-317743D01*
G01X-361713D02*
X-360896Y-321743D01*
X-359963Y-317743D01*
X-359030Y-321743D01*
X-358213Y-317743D01*
G01X-356388Y-321743D02*
Y-317743D01*
G01X-353938D02*
Y-321743D01*
G01Y-319743D02*
X-356388D01*
G01X-350363Y-321743D02*
X-350830Y-321676D01*
X-351238Y-321410D01*
X-351588Y-321010D01*
X-351821Y-320543D01*
X-351938Y-320010D01*
Y-319476D01*
X-351821Y-318943D01*
X-351588Y-318476D01*
X-351238Y-318076D01*
X-350830Y-317810D01*
X-350363Y-317743D01*
X-349896Y-317810D01*
X-349488Y-318076D01*
X-349138Y-318476D01*
X-348905Y-318943D01*
X-348788Y-319476D01*
Y-320010D01*
X-348905Y-320543D01*
X-349138Y-321010D01*
X-349488Y-321410D01*
X-349896Y-321676D01*
X-350363Y-321743D01*
G01X-346730Y-317743D02*
Y-321743D01*
X-344396D01*
G01X-339596D02*
X-341930D01*
Y-317743D01*
X-339596D01*
G01X-340530Y-319676D02*
X-341930D01*
G01X-504963Y-293743D02*
Y-297743D01*
G01X-506305Y-293743D02*
X-503621D01*
G01X-501388Y-297743D02*
Y-293743D01*
G01X-498938D02*
Y-297743D01*
G01Y-295743D02*
X-501388D01*
G01X-496063Y-293743D02*
X-494663D01*
G01X-495363D02*
Y-297743D01*
G01X-496063D02*
X-494663D01*
G01X-491788Y-297210D02*
X-491321Y-297543D01*
X-490796Y-297743D01*
X-490330D01*
X-489863Y-297543D01*
X-489513Y-297210D01*
X-489338Y-296743D01*
X-489455Y-296276D01*
X-489746Y-295876D01*
X-490271Y-295610D01*
X-490971Y-295476D01*
X-491380Y-295210D01*
X-491555Y-294743D01*
X-491438Y-294276D01*
X-491146Y-293943D01*
X-490738Y-293743D01*
X-490330D01*
X-489921Y-293876D01*
X-489571Y-294210D01*
G01X-482246Y-297743D02*
Y-293743D01*
X-481080D01*
X-480613Y-293943D01*
X-480263Y-294210D01*
X-479971Y-294610D01*
X-479738Y-295076D01*
X-479680Y-295743D01*
X-479738Y-296410D01*
X-479971Y-296876D01*
X-480263Y-297276D01*
X-480613Y-297543D01*
X-481080Y-297743D01*
X-482246D01*
G01X-476163D02*
X-476630Y-297676D01*
X-477038Y-297410D01*
X-477388Y-297010D01*
X-477621Y-296543D01*
X-477738Y-296010D01*
Y-295476D01*
X-477621Y-294943D01*
X-477388Y-294476D01*
X-477038Y-294076D01*
X-476630Y-293810D01*
X-476163Y-293743D01*
X-475696Y-293810D01*
X-475288Y-294076D01*
X-474938Y-294476D01*
X-474705Y-294943D01*
X-474588Y-295476D01*
Y-296010D01*
X-474705Y-296543D01*
X-474938Y-297010D01*
X-475288Y-297410D01*
X-475696Y-297676D01*
X-476163Y-297743D01*
G01X-470080Y-294076D02*
X-470430Y-293876D01*
X-470838Y-293743D01*
X-471305D01*
X-471830Y-293943D01*
X-472238Y-294276D01*
X-472530Y-294676D01*
X-472763Y-295343D01*
X-472821Y-295943D01*
X-472705Y-296543D01*
X-472530Y-296943D01*
X-472180Y-297343D01*
X-471771Y-297610D01*
X-471363Y-297743D01*
X-470955D01*
X-470546Y-297610D01*
X-470196Y-297410D01*
X-469905Y-297143D01*
G01X-467846Y-293743D02*
Y-296610D01*
X-467613Y-297210D01*
X-467146Y-297610D01*
X-466563Y-297743D01*
X-465980Y-297610D01*
X-465513Y-297210D01*
X-465280Y-296610D01*
Y-293743D01*
G01X-463280Y-297743D02*
Y-293743D01*
X-461763Y-297076D01*
X-460246Y-293743D01*
Y-297743D01*
G01X-455796D02*
X-458130D01*
Y-293743D01*
X-455796D01*
G01X-456730Y-295676D02*
X-458130D01*
G01X-453505Y-297743D02*
Y-293743D01*
X-450821Y-297743D01*
Y-293743D01*
G01X-447363D02*
Y-297743D01*
G01X-448705Y-293743D02*
X-446021D01*
G01X-436480Y-294076D02*
X-436830Y-293876D01*
X-437238Y-293743D01*
X-437705D01*
X-438230Y-293943D01*
X-438638Y-294276D01*
X-438930Y-294676D01*
X-439163Y-295343D01*
X-439221Y-295943D01*
X-439105Y-296543D01*
X-438930Y-296943D01*
X-438580Y-297343D01*
X-438171Y-297610D01*
X-437763Y-297743D01*
X-437355D01*
X-436946Y-297610D01*
X-436596Y-297410D01*
X-436305Y-297143D01*
G01X-432963Y-297743D02*
X-433430Y-297676D01*
X-433838Y-297410D01*
X-434188Y-297010D01*
X-434421Y-296543D01*
X-434538Y-296010D01*
Y-295476D01*
X-434421Y-294943D01*
X-434188Y-294476D01*
X-433838Y-294076D01*
X-433430Y-293810D01*
X-432963Y-293743D01*
X-432496Y-293810D01*
X-432088Y-294076D01*
X-431738Y-294476D01*
X-431505Y-294943D01*
X-431388Y-295476D01*
Y-296010D01*
X-431505Y-296543D01*
X-431738Y-297010D01*
X-432088Y-297410D01*
X-432496Y-297676D01*
X-432963Y-297743D01*
G01X-429505D02*
Y-293743D01*
X-426821Y-297743D01*
Y-293743D01*
G01X-423363D02*
Y-297743D01*
G01X-424705Y-293743D02*
X-422021D01*
G01X-420021Y-297743D02*
X-418563Y-293743D01*
X-417105Y-297743D01*
G01X-417630Y-296343D02*
X-419496D01*
G01X-414463Y-293743D02*
X-413063D01*
G01X-413763D02*
Y-297743D01*
G01X-414463D02*
X-413063D01*
G01X-410305D02*
Y-293743D01*
X-407621Y-297743D01*
Y-293743D01*
G01X-405388Y-297210D02*
X-404921Y-297543D01*
X-404396Y-297743D01*
X-403930D01*
X-403463Y-297543D01*
X-403113Y-297210D01*
X-402938Y-296743D01*
X-403055Y-296276D01*
X-403346Y-295876D01*
X-403871Y-295610D01*
X-404571Y-295476D01*
X-404980Y-295210D01*
X-405155Y-294743D01*
X-405038Y-294276D01*
X-404746Y-293943D01*
X-404338Y-293743D01*
X-403930D01*
X-403521Y-293876D01*
X-403171Y-294210D01*
G01X-395263Y-293743D02*
X-393863D01*
G01X-394563D02*
Y-297743D01*
G01X-395263D02*
X-393863D01*
G01X-391105D02*
Y-293743D01*
X-388421Y-297743D01*
Y-293743D01*
G01X-386071Y-297743D02*
Y-293743D01*
X-383855D01*
G01X-384671Y-295676D02*
X-386071D01*
G01X-380163Y-297743D02*
X-380630Y-297676D01*
X-381038Y-297410D01*
X-381388Y-297010D01*
X-381621Y-296543D01*
X-381738Y-296010D01*
Y-295476D01*
X-381621Y-294943D01*
X-381388Y-294476D01*
X-381038Y-294076D01*
X-380630Y-293810D01*
X-380163Y-293743D01*
X-379696Y-293810D01*
X-379288Y-294076D01*
X-378938Y-294476D01*
X-378705Y-294943D01*
X-378588Y-295476D01*
Y-296010D01*
X-378705Y-296543D01*
X-378938Y-297010D01*
X-379288Y-297410D01*
X-379696Y-297676D01*
X-380163Y-297743D01*
G01X-376530D02*
Y-293743D01*
X-375071D01*
X-374605Y-293943D01*
X-374313Y-294210D01*
X-374196Y-294743D01*
X-374313Y-295276D01*
X-374663Y-295610D01*
X-375071Y-295810D01*
X-376530D01*
G01X-375071D02*
X-374196Y-297743D01*
G01X-372080D02*
Y-293743D01*
X-370563Y-297076D01*
X-369046Y-293743D01*
Y-297743D01*
G01X-367221D02*
X-365763Y-293743D01*
X-364305Y-297743D01*
G01X-364830Y-296343D02*
X-366696D01*
G01X-360963Y-293743D02*
Y-297743D01*
G01X-362305Y-293743D02*
X-359621D01*
G01X-356863D02*
X-355463D01*
G01X-356163D02*
Y-297743D01*
G01X-356863D02*
X-355463D01*
G01X-351363D02*
X-351830Y-297676D01*
X-352238Y-297410D01*
X-352588Y-297010D01*
X-352821Y-296543D01*
X-352938Y-296010D01*
Y-295476D01*
X-352821Y-294943D01*
X-352588Y-294476D01*
X-352238Y-294076D01*
X-351830Y-293810D01*
X-351363Y-293743D01*
X-350896Y-293810D01*
X-350488Y-294076D01*
X-350138Y-294476D01*
X-349905Y-294943D01*
X-349788Y-295476D01*
Y-296010D01*
X-349905Y-296543D01*
X-350138Y-297010D01*
X-350488Y-297410D01*
X-350896Y-297676D01*
X-351363Y-297743D01*
G01X-347905D02*
Y-293743D01*
X-345221Y-297743D01*
Y-293743D01*
G01X-505130Y-305743D02*
Y-301743D01*
X-503730D01*
X-503263Y-301943D01*
X-502913Y-302410D01*
X-502796Y-302943D01*
X-502913Y-303476D01*
X-503205Y-303876D01*
X-503730Y-304076D01*
X-505130D01*
G01X-500330Y-305743D02*
Y-301743D01*
X-498871D01*
X-498405Y-301943D01*
X-498113Y-302210D01*
X-497996Y-302743D01*
X-498113Y-303276D01*
X-498463Y-303610D01*
X-498871Y-303810D01*
X-500330D01*
G01X-498871D02*
X-497996Y-305743D01*
G01X-494363D02*
X-494830Y-305676D01*
X-495238Y-305410D01*
X-495588Y-305010D01*
X-495821Y-304543D01*
X-495938Y-304010D01*
Y-303476D01*
X-495821Y-302943D01*
X-495588Y-302476D01*
X-495238Y-302076D01*
X-494830Y-301810D01*
X-494363Y-301743D01*
X-493896Y-301810D01*
X-493488Y-302076D01*
X-493138Y-302476D01*
X-492905Y-302943D01*
X-492788Y-303476D01*
Y-304010D01*
X-492905Y-304543D01*
X-493138Y-305010D01*
X-493488Y-305410D01*
X-493896Y-305676D01*
X-494363Y-305743D01*
G01X-490730D02*
Y-301743D01*
X-489330D01*
X-488863Y-301943D01*
X-488513Y-302410D01*
X-488396Y-302943D01*
X-488513Y-303476D01*
X-488805Y-303876D01*
X-489330Y-304076D01*
X-490730D01*
G01X-485930Y-305743D02*
Y-301743D01*
X-484471D01*
X-484005Y-301943D01*
X-483713Y-302210D01*
X-483596Y-302743D01*
X-483713Y-303276D01*
X-484063Y-303610D01*
X-484471Y-303810D01*
X-485930D01*
G01X-484471D02*
X-483596Y-305743D01*
G01X-480663Y-301743D02*
X-479263D01*
G01X-479963D02*
Y-305743D01*
G01X-480663D02*
X-479263D01*
G01X-473996D02*
X-476330D01*
Y-301743D01*
X-473996D01*
G01X-474930Y-303676D02*
X-476330D01*
G01X-470363Y-301743D02*
Y-305743D01*
G01X-471705Y-301743D02*
X-469021D01*
G01X-467021Y-305743D02*
X-465563Y-301743D01*
X-464105Y-305743D01*
G01X-464630Y-304343D02*
X-466496D01*
G01X-461930Y-305743D02*
Y-301743D01*
X-460471D01*
X-460005Y-301943D01*
X-459713Y-302210D01*
X-459596Y-302743D01*
X-459713Y-303276D01*
X-460063Y-303610D01*
X-460471Y-303810D01*
X-461930D01*
G01X-460471D02*
X-459596Y-305743D01*
G01X-455963D02*
Y-303943D01*
X-457130Y-301743D01*
G01X-454796D02*
X-455963Y-303943D01*
G01X-446363Y-301743D02*
Y-305743D01*
G01X-447705Y-301743D02*
X-445021D01*
G01X-441563Y-305743D02*
X-442030Y-305676D01*
X-442438Y-305410D01*
X-442788Y-305010D01*
X-443021Y-304543D01*
X-443138Y-304010D01*
Y-303476D01*
X-443021Y-302943D01*
X-442788Y-302476D01*
X-442438Y-302076D01*
X-442030Y-301810D01*
X-441563Y-301743D01*
X-441096Y-301810D01*
X-440688Y-302076D01*
X-440338Y-302476D01*
X-440105Y-302943D01*
X-439988Y-303476D01*
Y-304010D01*
X-440105Y-304543D01*
X-440338Y-305010D01*
X-440688Y-305410D01*
X-441096Y-305676D01*
X-441563Y-305743D01*
G01X-433305D02*
Y-301743D01*
X-430621Y-305743D01*
Y-301743D01*
G01X-428388Y-305743D02*
X-425938Y-301743D01*
G01X-428388D02*
X-425938Y-305743D01*
G01X-423530D02*
Y-301743D01*
X-422130D01*
X-421663Y-301943D01*
X-421313Y-302410D01*
X-421196Y-302943D01*
X-421313Y-303476D01*
X-421605Y-303876D01*
X-422130Y-304076D01*
X-423530D01*
G01X-414221Y-305743D02*
X-412763Y-301743D01*
X-411305Y-305743D01*
G01X-411830Y-304343D02*
X-413696D01*
G01X-409305Y-305743D02*
Y-301743D01*
X-406621Y-305743D01*
Y-301743D01*
G01X-404446Y-305743D02*
Y-301743D01*
X-403280D01*
X-402813Y-301943D01*
X-402463Y-302210D01*
X-402171Y-302610D01*
X-401938Y-303076D01*
X-401880Y-303743D01*
X-401938Y-304410D01*
X-402171Y-304876D01*
X-402463Y-305276D01*
X-402813Y-305543D01*
X-403280Y-305743D01*
X-404446D01*
G01X-394788Y-305210D02*
X-394321Y-305543D01*
X-393796Y-305743D01*
X-393330D01*
X-392863Y-305543D01*
X-392513Y-305210D01*
X-392338Y-304743D01*
X-392455Y-304276D01*
X-392746Y-303876D01*
X-393271Y-303610D01*
X-393971Y-303476D01*
X-394380Y-303210D01*
X-394555Y-302743D01*
X-394438Y-302276D01*
X-394146Y-301943D01*
X-393738Y-301743D01*
X-393330D01*
X-392921Y-301876D01*
X-392571Y-302210D01*
G01X-389988Y-305743D02*
Y-301743D01*
G01X-387538D02*
Y-305743D01*
G01Y-303743D02*
X-389988D01*
G01X-385421Y-305743D02*
X-383963Y-301743D01*
X-382505Y-305743D01*
G01X-383030Y-304343D02*
X-384896D01*
G01X-380330Y-301743D02*
Y-305743D01*
X-377996D01*
G01X-375530Y-301743D02*
Y-305743D01*
X-373196D01*
G01X-366105D02*
Y-301743D01*
X-363421Y-305743D01*
Y-301743D01*
G01X-359963Y-305743D02*
X-360430Y-305676D01*
X-360838Y-305410D01*
X-361188Y-305010D01*
X-361421Y-304543D01*
X-361538Y-304010D01*
Y-303476D01*
X-361421Y-302943D01*
X-361188Y-302476D01*
X-360838Y-302076D01*
X-360430Y-301810D01*
X-359963Y-301743D01*
X-359496Y-301810D01*
X-359088Y-302076D01*
X-358738Y-302476D01*
X-358505Y-302943D01*
X-358388Y-303476D01*
Y-304010D01*
X-358505Y-304543D01*
X-358738Y-305010D01*
X-359088Y-305410D01*
X-359496Y-305676D01*
X-359963Y-305743D01*
G01X-355163Y-301743D02*
Y-305743D01*
G01X-356505Y-301743D02*
X-353821D01*
G01X-512071Y-279076D02*
X-511663Y-278610D01*
X-511313Y-278343D01*
X-510846Y-278210D01*
X-510438Y-278343D01*
X-510146Y-278610D01*
X-509913Y-279010D01*
X-509855Y-279476D01*
X-509913Y-279876D01*
X-510146Y-280276D01*
X-510496Y-280610D01*
X-510905Y-280743D01*
X-511371Y-280610D01*
X-511780Y-280210D01*
X-512013Y-279610D01*
X-512071Y-278943D01*
X-511955Y-278076D01*
X-511780Y-277610D01*
X-511488Y-277143D01*
X-511080Y-276810D01*
X-510671Y-276743D01*
X-510263Y-276876D01*
X-509971Y-277210D01*
G01X-507446Y-280143D02*
X-507096Y-280476D01*
X-506688Y-280676D01*
X-506163Y-280743D01*
X-505638Y-280610D01*
X-505230Y-280343D01*
X-504938Y-279876D01*
X-504880Y-279343D01*
X-504996Y-278810D01*
X-505288Y-278476D01*
X-505696Y-278210D01*
X-506105Y-278143D01*
X-506513Y-278210D01*
X-507038Y-278476D01*
X-506863Y-276743D01*
X-505288D01*
G01X-501363D02*
X-501830Y-276876D01*
X-502180Y-277210D01*
X-502413Y-277610D01*
X-502588Y-278143D01*
X-502646Y-278743D01*
X-502588Y-279343D01*
X-502413Y-279876D01*
X-502180Y-280276D01*
X-501830Y-280610D01*
X-501363Y-280743D01*
X-500896Y-280610D01*
X-500546Y-280276D01*
X-500313Y-279876D01*
X-500138Y-279343D01*
X-500080Y-278743D01*
X-500138Y-278143D01*
X-500313Y-277610D01*
X-500546Y-277210D01*
X-500896Y-276876D01*
X-501363Y-276743D01*
G01X-496563Y-280743D02*
Y-276743D01*
X-497263Y-277543D01*
G01Y-280743D02*
X-495863D01*
G01X-488713Y-276743D02*
X-487896Y-280743D01*
X-486963Y-276743D01*
X-486030Y-280743D01*
X-485213Y-276743D01*
G01X-482863D02*
X-481463D01*
G01X-482163D02*
Y-280743D01*
G01X-482863D02*
X-481463D01*
G01X-478530Y-276743D02*
Y-280743D01*
X-476196D01*
G01X-473730Y-276743D02*
Y-280743D01*
X-471396D01*
G01X-468463Y-276743D02*
X-467063D01*
G01X-467763D02*
Y-280743D01*
G01X-468463D02*
X-467063D01*
G01X-464421D02*
X-462963Y-276743D01*
X-461505Y-280743D01*
G01X-462030Y-279343D02*
X-463896D01*
G01X-459680Y-280743D02*
Y-276743D01*
X-458163Y-280076D01*
X-456646Y-276743D01*
Y-280743D01*
G01X-447280Y-277076D02*
X-447630Y-276876D01*
X-448038Y-276743D01*
X-448505D01*
X-449030Y-276943D01*
X-449438Y-277276D01*
X-449730Y-277676D01*
X-449963Y-278343D01*
X-450021Y-278943D01*
X-449905Y-279543D01*
X-449730Y-279943D01*
X-449380Y-280343D01*
X-448971Y-280610D01*
X-448563Y-280743D01*
X-448155D01*
X-447746Y-280610D01*
X-447396Y-280410D01*
X-447105Y-280143D01*
G01X-445221Y-280743D02*
X-443763Y-276743D01*
X-442305Y-280743D01*
G01X-442830Y-279343D02*
X-444696D01*
G01X-440305Y-280743D02*
Y-276743D01*
X-437621Y-280743D01*
Y-276743D01*
G01X-435505Y-280743D02*
Y-276743D01*
X-432821Y-280743D01*
Y-276743D01*
G01X-429363Y-280743D02*
X-429830Y-280676D01*
X-430238Y-280410D01*
X-430588Y-280010D01*
X-430821Y-279543D01*
X-430938Y-279010D01*
Y-278476D01*
X-430821Y-277943D01*
X-430588Y-277476D01*
X-430238Y-277076D01*
X-429830Y-276810D01*
X-429363Y-276743D01*
X-428896Y-276810D01*
X-428488Y-277076D01*
X-428138Y-277476D01*
X-427905Y-277943D01*
X-427788Y-278476D01*
Y-279010D01*
X-427905Y-279543D01*
X-428138Y-280010D01*
X-428488Y-280410D01*
X-428896Y-280676D01*
X-429363Y-280743D01*
G01X-425905D02*
Y-276743D01*
X-423221Y-280743D01*
Y-276743D01*
G01X-416246Y-280743D02*
Y-276743D01*
X-415080D01*
X-414613Y-276943D01*
X-414263Y-277210D01*
X-413971Y-277610D01*
X-413738Y-278076D01*
X-413680Y-278743D01*
X-413738Y-279410D01*
X-413971Y-279876D01*
X-414263Y-280276D01*
X-414613Y-280543D01*
X-415080Y-280743D01*
X-416246D01*
G01X-411330D02*
Y-276743D01*
X-409871D01*
X-409405Y-276943D01*
X-409113Y-277210D01*
X-408996Y-277743D01*
X-409113Y-278276D01*
X-409463Y-278610D01*
X-409871Y-278810D01*
X-411330D01*
G01X-409871D02*
X-408996Y-280743D01*
G01X-406063Y-276743D02*
X-404663D01*
G01X-405363D02*
Y-280743D01*
G01X-406063D02*
X-404663D01*
G01X-402021Y-276743D02*
X-400563Y-280743D01*
X-399105Y-276743D01*
G01X-394596Y-280743D02*
X-396930D01*
Y-276743D01*
X-394596D01*
G01X-395530Y-278676D02*
X-396930D01*
G01X-387913Y-276743D02*
X-387096Y-280743D01*
X-386163Y-276743D01*
X-385230Y-280743D01*
X-384413Y-276743D01*
G01X-380196Y-280743D02*
X-382530D01*
Y-276743D01*
X-380196D01*
G01X-381130Y-278676D02*
X-382530D01*
G01X-377788Y-280210D02*
X-377321Y-280543D01*
X-376796Y-280743D01*
X-376330D01*
X-375863Y-280543D01*
X-375513Y-280210D01*
X-375338Y-279743D01*
X-375455Y-279276D01*
X-375746Y-278876D01*
X-376271Y-278610D01*
X-376971Y-278476D01*
X-377380Y-278210D01*
X-377555Y-277743D01*
X-377438Y-277276D01*
X-377146Y-276943D01*
X-376738Y-276743D01*
X-376330D01*
X-375921Y-276876D01*
X-375571Y-277210D01*
G01X-371763Y-276743D02*
Y-280743D01*
G01X-373105Y-276743D02*
X-370421D01*
G01X-512421Y-287743D02*
X-510963Y-283743D01*
X-509505Y-287743D01*
G01X-510030Y-286343D02*
X-511896D01*
G01X-507446Y-283743D02*
Y-286610D01*
X-507213Y-287210D01*
X-506746Y-287610D01*
X-506163Y-287743D01*
X-505580Y-287610D01*
X-505113Y-287210D01*
X-504880Y-286610D01*
Y-283743D01*
G01X-502588Y-287210D02*
X-502121Y-287543D01*
X-501596Y-287743D01*
X-501130D01*
X-500663Y-287543D01*
X-500313Y-287210D01*
X-500138Y-286743D01*
X-500255Y-286276D01*
X-500546Y-285876D01*
X-501071Y-285610D01*
X-501771Y-285476D01*
X-502180Y-285210D01*
X-502355Y-284743D01*
X-502238Y-284276D01*
X-501946Y-283943D01*
X-501538Y-283743D01*
X-501130D01*
X-500721Y-283876D01*
X-500371Y-284210D01*
G01X-496563Y-283743D02*
Y-287743D01*
G01X-497905Y-283743D02*
X-495221D01*
G01X-492463D02*
X-491063D01*
G01X-491763D02*
Y-287743D01*
G01X-492463D02*
X-491063D01*
G01X-488305D02*
Y-283743D01*
X-485621Y-287743D01*
Y-283743D01*
G01X-482163Y-287876D02*
X-482280Y-287810D01*
Y-287676D01*
X-482163Y-287610D01*
X-482046Y-287676D01*
Y-287810D01*
X-482163Y-287876D01*
G01X-472563Y-283743D02*
Y-287743D01*
G01X-473905Y-283743D02*
X-471221D01*
G01X-466596Y-287743D02*
X-468930D01*
Y-283743D01*
X-466596D01*
G01X-467530Y-285676D02*
X-468930D01*
G01X-464188Y-287743D02*
X-461738Y-283743D01*
G01X-464188D02*
X-461738Y-287743D01*
G01X-459621D02*
X-458163Y-283743D01*
X-456705Y-287743D01*
G01X-457230Y-286343D02*
X-459096D01*
G01X-454588Y-287210D02*
X-454121Y-287543D01*
X-453596Y-287743D01*
X-453130D01*
X-452663Y-287543D01*
X-452313Y-287210D01*
X-452138Y-286743D01*
X-452255Y-286276D01*
X-452546Y-285876D01*
X-453071Y-285610D01*
X-453771Y-285476D01*
X-454180Y-285210D01*
X-454355Y-284743D01*
X-454238Y-284276D01*
X-453946Y-283943D01*
X-453538Y-283743D01*
X-453130D01*
X-452721Y-283876D01*
X-452371Y-284210D01*
G01X-443880Y-287743D02*
X-443763Y-286876D01*
X-443588Y-286143D01*
X-443355Y-285476D01*
X-443063Y-284743D01*
X-442596Y-283743D01*
X-444930D01*
G01X-438963Y-287743D02*
X-438555Y-287676D01*
X-438088Y-287476D01*
X-437796Y-287143D01*
X-437680Y-286676D01*
X-437796Y-286210D01*
X-438146Y-285810D01*
X-438671Y-285610D01*
X-439255D01*
X-439605Y-285476D01*
X-439896Y-285143D01*
X-440013Y-284676D01*
X-439838Y-284210D01*
X-439430Y-283876D01*
X-438963Y-283743D01*
X-438496Y-283876D01*
X-438088Y-284210D01*
X-437913Y-284676D01*
X-438030Y-285143D01*
X-438321Y-285476D01*
X-438671Y-285610D01*
X-439255D01*
X-439780Y-285810D01*
X-440130Y-286210D01*
X-440246Y-286676D01*
X-440130Y-287143D01*
X-439838Y-287476D01*
X-439371Y-287676D01*
X-438963Y-287743D01*
G01X-434280D02*
X-434163Y-286876D01*
X-433988Y-286143D01*
X-433755Y-285476D01*
X-433463Y-284743D01*
X-432996Y-283743D01*
X-435330D01*
G01X-430646Y-286943D02*
X-430296Y-287410D01*
X-429830Y-287676D01*
X-429305Y-287743D01*
X-428838Y-287676D01*
X-428371Y-287343D01*
X-428080Y-286943D01*
X-428021Y-286543D01*
X-428138Y-286076D01*
X-428546Y-285743D01*
X-428955Y-285610D01*
X-429480D01*
G01X-428955D02*
X-428605Y-285410D01*
X-428313Y-285076D01*
X-428196Y-284676D01*
X-428313Y-284276D01*
X-428605Y-283943D01*
X-429130Y-283743D01*
X-429655Y-283810D01*
X-430180Y-284076D01*
G01X-425846Y-287143D02*
X-425496Y-287476D01*
X-425088Y-287676D01*
X-424563Y-287743D01*
X-424038Y-287610D01*
X-423630Y-287343D01*
X-423338Y-286876D01*
X-423280Y-286343D01*
X-423396Y-285810D01*
X-423688Y-285476D01*
X-424096Y-285210D01*
X-424505Y-285143D01*
X-424913Y-285210D01*
X-425438Y-285476D01*
X-425263Y-283743D01*
X-423688D01*
G01X-416246D02*
Y-286610D01*
X-416013Y-287210D01*
X-415546Y-287610D01*
X-414963Y-287743D01*
X-414380Y-287610D01*
X-413913Y-287210D01*
X-413680Y-286610D01*
Y-283743D01*
G01X-411388Y-287210D02*
X-410921Y-287543D01*
X-410396Y-287743D01*
X-409930D01*
X-409463Y-287543D01*
X-409113Y-287210D01*
X-408938Y-286743D01*
X-409055Y-286276D01*
X-409346Y-285876D01*
X-409871Y-285610D01*
X-410571Y-285476D01*
X-410980Y-285210D01*
X-411155Y-284743D01*
X-411038Y-284276D01*
X-410746Y-283943D01*
X-410338Y-283743D01*
X-409930D01*
X-409521Y-283876D01*
X-409171Y-284210D01*
G01X-406821Y-287743D02*
X-405363Y-283743D01*
X-403905Y-287743D01*
G01X-404430Y-286343D02*
X-406296D01*
G01X-509560Y-271743D02*
Y-264243D01*
X-505266Y-271743D01*
Y-264243D01*
G01X-501873Y-271743D02*
X-497953Y-264243D01*
G01X-501873D02*
X-497953Y-271743D01*
G01X-494280D02*
Y-264243D01*
X-492040D01*
X-491293Y-264618D01*
X-490733Y-265493D01*
X-490546Y-266493D01*
X-490733Y-267493D01*
X-491200Y-268243D01*
X-492040Y-268618D01*
X-494280D01*
G01X-479373Y-270743D02*
X-478626Y-271368D01*
X-477786Y-271743D01*
X-477040D01*
X-476293Y-271368D01*
X-475733Y-270743D01*
X-475453Y-269868D01*
X-475640Y-268993D01*
X-476106Y-268243D01*
X-476946Y-267743D01*
X-478066Y-267493D01*
X-478720Y-266993D01*
X-479000Y-266118D01*
X-478813Y-265243D01*
X-478346Y-264618D01*
X-477693Y-264243D01*
X-477040D01*
X-476386Y-264493D01*
X-475826Y-265118D01*
G01X-468046Y-271743D02*
X-471780D01*
Y-264243D01*
X-468046D01*
G01X-469540Y-267868D02*
X-471780D01*
G01X-464840Y-271743D02*
Y-264243D01*
X-462413Y-270493D01*
X-459986Y-264243D01*
Y-271743D01*
G01X-456033Y-264243D02*
X-453793D01*
G01X-454913D02*
Y-271743D01*
G01X-456033D02*
X-453793D01*
G01X-445360Y-264868D02*
X-445920Y-264493D01*
X-446573Y-264243D01*
X-447320D01*
X-448160Y-264618D01*
X-448813Y-265243D01*
X-449280Y-265993D01*
X-449653Y-267243D01*
X-449746Y-268368D01*
X-449560Y-269493D01*
X-449280Y-270243D01*
X-448720Y-270993D01*
X-448066Y-271493D01*
X-447413Y-271743D01*
X-446760D01*
X-446106Y-271493D01*
X-445546Y-271118D01*
X-445080Y-270618D01*
G01X-439913Y-271743D02*
X-440660Y-271618D01*
X-441313Y-271118D01*
X-441873Y-270368D01*
X-442246Y-269493D01*
X-442433Y-268493D01*
Y-267493D01*
X-442246Y-266493D01*
X-441873Y-265618D01*
X-441313Y-264868D01*
X-440660Y-264368D01*
X-439913Y-264243D01*
X-439166Y-264368D01*
X-438513Y-264868D01*
X-437953Y-265618D01*
X-437580Y-266493D01*
X-437393Y-267493D01*
Y-268493D01*
X-437580Y-269493D01*
X-437953Y-270368D01*
X-438513Y-271118D01*
X-439166Y-271618D01*
X-439913Y-271743D01*
G01X-434560D02*
Y-264243D01*
X-430266Y-271743D01*
Y-264243D01*
G01X-426966Y-271743D02*
Y-264243D01*
X-425100D01*
X-424353Y-264618D01*
X-423793Y-265118D01*
X-423326Y-265868D01*
X-422953Y-266743D01*
X-422860Y-267993D01*
X-422953Y-269243D01*
X-423326Y-270118D01*
X-423793Y-270868D01*
X-424353Y-271368D01*
X-425100Y-271743D01*
X-426966D01*
G01X-419466Y-264243D02*
Y-269618D01*
X-419093Y-270743D01*
X-418346Y-271493D01*
X-417413Y-271743D01*
X-416480Y-271493D01*
X-415733Y-270743D01*
X-415360Y-269618D01*
Y-264243D01*
G01X-407860Y-264868D02*
X-408420Y-264493D01*
X-409073Y-264243D01*
X-409820D01*
X-410660Y-264618D01*
X-411313Y-265243D01*
X-411780Y-265993D01*
X-412153Y-267243D01*
X-412246Y-268368D01*
X-412060Y-269493D01*
X-411780Y-270243D01*
X-411220Y-270993D01*
X-410566Y-271493D01*
X-409913Y-271743D01*
X-409260D01*
X-408606Y-271493D01*
X-408046Y-271118D01*
X-407580Y-270618D01*
G01X-402413Y-264243D02*
Y-271743D01*
G01X-404560Y-264243D02*
X-400266D01*
G01X-394913Y-271743D02*
X-395660Y-271618D01*
X-396313Y-271118D01*
X-396873Y-270368D01*
X-397246Y-269493D01*
X-397433Y-268493D01*
Y-267493D01*
X-397246Y-266493D01*
X-396873Y-265618D01*
X-396313Y-264868D01*
X-395660Y-264368D01*
X-394913Y-264243D01*
X-394166Y-264368D01*
X-393513Y-264868D01*
X-392953Y-265618D01*
X-392580Y-266493D01*
X-392393Y-267493D01*
Y-268493D01*
X-392580Y-269493D01*
X-392953Y-270368D01*
X-393513Y-271118D01*
X-394166Y-271618D01*
X-394913Y-271743D01*
G01X-389280D02*
Y-264243D01*
X-386946D01*
X-386200Y-264618D01*
X-385733Y-265118D01*
X-385546Y-266118D01*
X-385733Y-267118D01*
X-386293Y-267743D01*
X-386946Y-268118D01*
X-389280D01*
G01X-386946D02*
X-385546Y-271743D01*
G01X-381873Y-270743D02*
X-381126Y-271368D01*
X-380286Y-271743D01*
X-379540D01*
X-378793Y-271368D01*
X-378233Y-270743D01*
X-377953Y-269868D01*
X-378140Y-268993D01*
X-378606Y-268243D01*
X-379446Y-267743D01*
X-380566Y-267493D01*
X-381220Y-266993D01*
X-381500Y-266118D01*
X-381313Y-265243D01*
X-380846Y-264618D01*
X-380193Y-264243D01*
X-379540D01*
X-378886Y-264493D01*
X-378326Y-265118D01*
G01X-462071Y-348743D02*
Y-344743D01*
X-459855D01*
G01X-460671Y-346676D02*
X-462071D01*
G01X-456863Y-344743D02*
X-455463D01*
G01X-456163D02*
Y-348743D01*
G01X-456863D02*
X-455463D01*
G01X-452530Y-344743D02*
Y-348743D01*
X-450196D01*
G01X-448080D02*
Y-344743D01*
X-446563Y-348076D01*
X-445046Y-344743D01*
Y-348743D01*
G01X-457430Y-357243D02*
Y-350943D01*
X-455550D01*
X-454923Y-351258D01*
X-454453Y-351993D01*
X-454296Y-352833D01*
X-454453Y-353673D01*
X-454845Y-354303D01*
X-455550Y-354618D01*
X-457430D01*
G01X-451130Y-357243D02*
Y-350943D01*
X-449171D01*
X-448545Y-351258D01*
X-448153Y-351678D01*
X-447996Y-352518D01*
X-448153Y-353358D01*
X-448623Y-353883D01*
X-449171Y-354198D01*
X-451130D01*
G01X-449171D02*
X-447996Y-357243D01*
G01X-444203Y-350943D02*
X-442323D01*
G01X-443263D02*
Y-357243D01*
G01X-444203D02*
X-442323D01*
G01X-439000D02*
Y-350943D01*
X-436963Y-356193D01*
X-434926Y-350943D01*
Y-357243D01*
G01X-432621D02*
X-430663Y-350943D01*
X-428705Y-357243D01*
G01X-429410Y-355038D02*
X-431916D01*
G01X-425930Y-357243D02*
Y-350943D01*
X-423971D01*
X-423345Y-351258D01*
X-422953Y-351678D01*
X-422796Y-352518D01*
X-422953Y-353358D01*
X-423423Y-353883D01*
X-423971Y-354198D01*
X-425930D01*
G01X-423971D02*
X-422796Y-357243D01*
G01X-418063D02*
Y-354408D01*
X-419630Y-350943D01*
G01X-416496D02*
X-418063Y-354408D01*
G01X-407108Y-356403D02*
X-406481Y-356928D01*
X-405776Y-357243D01*
X-405150D01*
X-404523Y-356928D01*
X-404053Y-356403D01*
X-403818Y-355668D01*
X-403975Y-354933D01*
X-404366Y-354303D01*
X-405071Y-353883D01*
X-406011Y-353673D01*
X-406560Y-353253D01*
X-406795Y-352518D01*
X-406638Y-351783D01*
X-406246Y-351258D01*
X-405698Y-350943D01*
X-405150D01*
X-404601Y-351153D01*
X-404131Y-351678D01*
G01X-399163Y-357243D02*
X-399790Y-357138D01*
X-400338Y-356718D01*
X-400808Y-356088D01*
X-401121Y-355353D01*
X-401278Y-354513D01*
Y-353673D01*
X-401121Y-352833D01*
X-400808Y-352098D01*
X-400338Y-351468D01*
X-399790Y-351048D01*
X-399163Y-350943D01*
X-398536Y-351048D01*
X-397988Y-351468D01*
X-397518Y-352098D01*
X-397205Y-352833D01*
X-397048Y-353673D01*
Y-354513D01*
X-397205Y-355353D01*
X-397518Y-356088D01*
X-397988Y-356718D01*
X-398536Y-357138D01*
X-399163Y-357243D01*
G01X-394430Y-350943D02*
Y-357243D01*
X-391296D01*
G01X-388286D02*
Y-350943D01*
X-386720D01*
X-386093Y-351258D01*
X-385623Y-351678D01*
X-385231Y-352308D01*
X-384918Y-353043D01*
X-384840Y-354093D01*
X-384918Y-355143D01*
X-385231Y-355878D01*
X-385623Y-356508D01*
X-386093Y-356928D01*
X-386720Y-357243D01*
X-388286D01*
G01X-378696D02*
X-381830D01*
Y-350943D01*
X-378696D01*
G01X-379950Y-353988D02*
X-381830D01*
G01X-375530Y-357243D02*
Y-350943D01*
X-373571D01*
X-372945Y-351258D01*
X-372553Y-351678D01*
X-372396Y-352518D01*
X-372553Y-353358D01*
X-373023Y-353883D01*
X-373571Y-354198D01*
X-375530D01*
G01X-373571D02*
X-372396Y-357243D01*
G01X-369700D02*
Y-350943D01*
X-367663Y-356193D01*
X-365626Y-350943D01*
Y-357243D01*
G01X-363321D02*
X-361363Y-350943D01*
X-359405Y-357243D01*
G01X-360110Y-355038D02*
X-362616D01*
G01X-356708Y-356403D02*
X-356081Y-356928D01*
X-355376Y-357243D01*
X-354750D01*
X-354123Y-356928D01*
X-353653Y-356403D01*
X-353418Y-355668D01*
X-353575Y-354933D01*
X-353966Y-354303D01*
X-354671Y-353883D01*
X-355611Y-353673D01*
X-356160Y-353253D01*
X-356395Y-352518D01*
X-356238Y-351783D01*
X-355846Y-351258D01*
X-355298Y-350943D01*
X-354750D01*
X-354201Y-351153D01*
X-353731Y-351678D01*
G01X-350486Y-357243D02*
Y-350943D01*
G01X-347510D02*
X-350486Y-354828D01*
G01X-347040Y-357243D02*
X-349155Y-353043D01*
G01X-335071Y-353410D02*
X-334721Y-353010D01*
X-334313Y-352810D01*
X-333846Y-352743D01*
X-333263Y-352876D01*
X-332855Y-353210D01*
X-332738Y-353610D01*
X-332796Y-354010D01*
X-333030Y-354343D01*
X-334196Y-355010D01*
X-334721Y-355476D01*
X-335071Y-356143D01*
X-335188Y-356743D01*
X-332738D01*
G01X-328463D02*
Y-352743D01*
X-330621Y-355610D01*
X-327705D01*
G01X-325121Y-355410D02*
X-323605D01*
G01X-319563Y-352743D02*
X-320030Y-352876D01*
X-320380Y-353210D01*
X-320613Y-353610D01*
X-320788Y-354143D01*
X-320846Y-354743D01*
X-320788Y-355343D01*
X-320613Y-355876D01*
X-320380Y-356276D01*
X-320030Y-356610D01*
X-319563Y-356743D01*
X-319096Y-356610D01*
X-318746Y-356276D01*
X-318513Y-355876D01*
X-318338Y-355343D01*
X-318280Y-354743D01*
X-318338Y-354143D01*
X-318513Y-353610D01*
X-318746Y-353210D01*
X-319096Y-352876D01*
X-319563Y-352743D01*
G01X-314063Y-356743D02*
Y-352743D01*
X-316221Y-355610D01*
X-313305D01*
G01X-310721Y-355410D02*
X-309205D01*
G01X-306271Y-353410D02*
X-305921Y-353010D01*
X-305513Y-352810D01*
X-305046Y-352743D01*
X-304463Y-352876D01*
X-304055Y-353210D01*
X-303938Y-353610D01*
X-303996Y-354010D01*
X-304230Y-354343D01*
X-305396Y-355010D01*
X-305921Y-355476D01*
X-306271Y-356143D01*
X-306388Y-356743D01*
X-303938D01*
G01X-299663D02*
Y-352743D01*
X-301821Y-355610D01*
X-298905D01*
G01X-337246Y-348743D02*
Y-344743D01*
X-336080D01*
X-335613Y-344943D01*
X-335263Y-345210D01*
X-334971Y-345610D01*
X-334738Y-346076D01*
X-334680Y-346743D01*
X-334738Y-347410D01*
X-334971Y-347876D01*
X-335263Y-348276D01*
X-335613Y-348543D01*
X-336080Y-348743D01*
X-337246D01*
G01X-332621D02*
X-331163Y-344743D01*
X-329705Y-348743D01*
G01X-330230Y-347343D02*
X-332096D01*
G01X-326363Y-344743D02*
Y-348743D01*
G01X-327705Y-344743D02*
X-325021D01*
G01X-320396Y-348743D02*
X-322730D01*
Y-344743D01*
X-320396D01*
G01X-321330Y-346676D02*
X-322730D01*
G01X-327713Y-334576D02*
X-324213D01*
G01X-322913D02*
X-319413D01*
G01X-318113D02*
X-314613D01*
G01X-305480Y-329576D02*
X-305830Y-329376D01*
X-306238Y-329243D01*
X-306705D01*
X-307230Y-329443D01*
X-307638Y-329776D01*
X-307930Y-330176D01*
X-308163Y-330843D01*
X-308221Y-331443D01*
X-308105Y-332043D01*
X-307930Y-332443D01*
X-307580Y-332843D01*
X-307171Y-333110D01*
X-306763Y-333243D01*
X-306355D01*
X-305946Y-333110D01*
X-305596Y-332910D01*
X-305305Y-332643D01*
G01X-301963Y-333243D02*
X-302430Y-333176D01*
X-302838Y-332910D01*
X-303188Y-332510D01*
X-303421Y-332043D01*
X-303538Y-331510D01*
Y-330976D01*
X-303421Y-330443D01*
X-303188Y-329976D01*
X-302838Y-329576D01*
X-302430Y-329310D01*
X-301963Y-329243D01*
X-301496Y-329310D01*
X-301088Y-329576D01*
X-300738Y-329976D01*
X-300505Y-330443D01*
X-300388Y-330976D01*
Y-331510D01*
X-300505Y-332043D01*
X-300738Y-332510D01*
X-301088Y-332910D01*
X-301496Y-333176D01*
X-301963Y-333243D01*
G01X-298680D02*
Y-329243D01*
X-297163Y-332576D01*
X-295646Y-329243D01*
Y-333243D01*
G01X-293530D02*
Y-329243D01*
X-292130D01*
X-291663Y-329443D01*
X-291313Y-329910D01*
X-291196Y-330443D01*
X-291313Y-330976D01*
X-291605Y-331376D01*
X-292130Y-331576D01*
X-293530D01*
G01X-289021Y-333243D02*
X-287563Y-329243D01*
X-286105Y-333243D01*
G01X-286630Y-331843D02*
X-288496D01*
G01X-284105Y-333243D02*
Y-329243D01*
X-281421Y-333243D01*
Y-329243D01*
G01X-277963Y-333243D02*
Y-331443D01*
X-279130Y-329243D01*
G01X-276796D02*
X-277963Y-331443D01*
G01X-267080Y-329576D02*
X-267430Y-329376D01*
X-267838Y-329243D01*
X-268305D01*
X-268830Y-329443D01*
X-269238Y-329776D01*
X-269530Y-330176D01*
X-269763Y-330843D01*
X-269821Y-331443D01*
X-269705Y-332043D01*
X-269530Y-332443D01*
X-269180Y-332843D01*
X-268771Y-333110D01*
X-268363Y-333243D01*
X-267955D01*
X-267546Y-333110D01*
X-267196Y-332910D01*
X-266905Y-332643D01*
G01X-263563Y-333243D02*
X-264030Y-333176D01*
X-264438Y-332910D01*
X-264788Y-332510D01*
X-265021Y-332043D01*
X-265138Y-331510D01*
Y-330976D01*
X-265021Y-330443D01*
X-264788Y-329976D01*
X-264438Y-329576D01*
X-264030Y-329310D01*
X-263563Y-329243D01*
X-263096Y-329310D01*
X-262688Y-329576D01*
X-262338Y-329976D01*
X-262105Y-330443D01*
X-261988Y-330976D01*
Y-331510D01*
X-262105Y-332043D01*
X-262338Y-332510D01*
X-262688Y-332910D01*
X-263096Y-333176D01*
X-263563Y-333243D01*
G01X-260105D02*
Y-329243D01*
X-257421Y-333243D01*
Y-329243D01*
G01X-255071Y-333243D02*
Y-329243D01*
X-252855D01*
G01X-253671Y-331176D02*
X-255071D01*
G01X-249863Y-329243D02*
X-248463D01*
G01X-249163D02*
Y-333243D01*
G01X-249863D02*
X-248463D01*
G01X-245646D02*
Y-329243D01*
X-244480D01*
X-244013Y-329443D01*
X-243663Y-329710D01*
X-243371Y-330110D01*
X-243138Y-330576D01*
X-243080Y-331243D01*
X-243138Y-331910D01*
X-243371Y-332376D01*
X-243663Y-332776D01*
X-244013Y-333043D01*
X-244480Y-333243D01*
X-245646D01*
G01X-238396D02*
X-240730D01*
Y-329243D01*
X-238396D01*
G01X-239330Y-331176D02*
X-240730D01*
G01X-236105Y-333243D02*
Y-329243D01*
X-233421Y-333243D01*
Y-329243D01*
G01X-229963D02*
Y-333243D01*
G01X-231305Y-329243D02*
X-228621D01*
G01X-225863D02*
X-224463D01*
G01X-225163D02*
Y-333243D01*
G01X-225863D02*
X-224463D01*
G01X-221821D02*
X-220363Y-329243D01*
X-218905Y-333243D01*
G01X-219430Y-331843D02*
X-221296D01*
G01X-216730Y-329243D02*
Y-333243D01*
X-214396D01*
G01X-327713Y-318076D02*
X-324213D01*
G01X-322913D02*
X-319413D01*
G01X-318113D02*
X-314613D01*
G01X-305480Y-313076D02*
X-305830Y-312876D01*
X-306238Y-312743D01*
X-306705D01*
X-307230Y-312943D01*
X-307638Y-313276D01*
X-307930Y-313676D01*
X-308163Y-314343D01*
X-308221Y-314943D01*
X-308105Y-315543D01*
X-307930Y-315943D01*
X-307580Y-316343D01*
X-307171Y-316610D01*
X-306763Y-316743D01*
X-306355D01*
X-305946Y-316610D01*
X-305596Y-316410D01*
X-305305Y-316143D01*
G01X-301963Y-316743D02*
X-302430Y-316676D01*
X-302838Y-316410D01*
X-303188Y-316010D01*
X-303421Y-315543D01*
X-303538Y-315010D01*
Y-314476D01*
X-303421Y-313943D01*
X-303188Y-313476D01*
X-302838Y-313076D01*
X-302430Y-312810D01*
X-301963Y-312743D01*
X-301496Y-312810D01*
X-301088Y-313076D01*
X-300738Y-313476D01*
X-300505Y-313943D01*
X-300388Y-314476D01*
Y-315010D01*
X-300505Y-315543D01*
X-300738Y-316010D01*
X-301088Y-316410D01*
X-301496Y-316676D01*
X-301963Y-316743D01*
G01X-298680D02*
Y-312743D01*
X-297163Y-316076D01*
X-295646Y-312743D01*
Y-316743D01*
G01X-293530D02*
Y-312743D01*
X-292130D01*
X-291663Y-312943D01*
X-291313Y-313410D01*
X-291196Y-313943D01*
X-291313Y-314476D01*
X-291605Y-314876D01*
X-292130Y-315076D01*
X-293530D01*
G01X-289021Y-316743D02*
X-287563Y-312743D01*
X-286105Y-316743D01*
G01X-286630Y-315343D02*
X-288496D01*
G01X-284105Y-316743D02*
Y-312743D01*
X-281421Y-316743D01*
Y-312743D01*
G01X-277963Y-316743D02*
Y-314943D01*
X-279130Y-312743D01*
G01X-276796D02*
X-277963Y-314943D01*
G01X-269063Y-312743D02*
X-267663D01*
G01X-268363D02*
Y-316743D01*
G01X-269063D02*
X-267663D01*
G01X-264905D02*
Y-312743D01*
X-262221Y-316743D01*
Y-312743D01*
G01X-258763D02*
Y-316743D01*
G01X-260105Y-312743D02*
X-257421D01*
G01X-252796Y-316743D02*
X-255130D01*
Y-312743D01*
X-252796D01*
G01X-253730Y-314676D02*
X-255130D01*
G01X-250330Y-316743D02*
Y-312743D01*
X-248871D01*
X-248405Y-312943D01*
X-248113Y-313210D01*
X-247996Y-313743D01*
X-248113Y-314276D01*
X-248463Y-314610D01*
X-248871Y-314810D01*
X-250330D01*
G01X-248871D02*
X-247996Y-316743D01*
G01X-245705D02*
Y-312743D01*
X-243021Y-316743D01*
Y-312743D01*
G01X-241021Y-316743D02*
X-239563Y-312743D01*
X-238105Y-316743D01*
G01X-238630Y-315343D02*
X-240496D01*
G01X-235930Y-312743D02*
Y-316743D01*
X-233596D01*
G01X-327713Y-302076D02*
X-324213D01*
G01X-322913D02*
X-319413D01*
G01X-318113D02*
X-314613D01*
G01X-305480Y-297076D02*
X-305830Y-296876D01*
X-306238Y-296743D01*
X-306705D01*
X-307230Y-296943D01*
X-307638Y-297276D01*
X-307930Y-297676D01*
X-308163Y-298343D01*
X-308221Y-298943D01*
X-308105Y-299543D01*
X-307930Y-299943D01*
X-307580Y-300343D01*
X-307171Y-300610D01*
X-306763Y-300743D01*
X-306355D01*
X-305946Y-300610D01*
X-305596Y-300410D01*
X-305305Y-300143D01*
G01X-301963Y-300743D02*
X-302430Y-300676D01*
X-302838Y-300410D01*
X-303188Y-300010D01*
X-303421Y-299543D01*
X-303538Y-299010D01*
Y-298476D01*
X-303421Y-297943D01*
X-303188Y-297476D01*
X-302838Y-297076D01*
X-302430Y-296810D01*
X-301963Y-296743D01*
X-301496Y-296810D01*
X-301088Y-297076D01*
X-300738Y-297476D01*
X-300505Y-297943D01*
X-300388Y-298476D01*
Y-299010D01*
X-300505Y-299543D01*
X-300738Y-300010D01*
X-301088Y-300410D01*
X-301496Y-300676D01*
X-301963Y-300743D01*
G01X-298680D02*
Y-296743D01*
X-297163Y-300076D01*
X-295646Y-296743D01*
Y-300743D01*
G01X-293530D02*
Y-296743D01*
X-292130D01*
X-291663Y-296943D01*
X-291313Y-297410D01*
X-291196Y-297943D01*
X-291313Y-298476D01*
X-291605Y-298876D01*
X-292130Y-299076D01*
X-293530D01*
G01X-289021Y-300743D02*
X-287563Y-296743D01*
X-286105Y-300743D01*
G01X-286630Y-299343D02*
X-288496D01*
G01X-284105Y-300743D02*
Y-296743D01*
X-281421Y-300743D01*
Y-296743D01*
G01X-277963Y-300743D02*
Y-298943D01*
X-279130Y-296743D01*
G01X-276796D02*
X-277963Y-298943D01*
G01X-269530Y-300743D02*
Y-296743D01*
X-268130D01*
X-267663Y-296943D01*
X-267313Y-297410D01*
X-267196Y-297943D01*
X-267313Y-298476D01*
X-267605Y-298876D01*
X-268130Y-299076D01*
X-269530D01*
G01X-264846Y-296743D02*
Y-299610D01*
X-264613Y-300210D01*
X-264146Y-300610D01*
X-263563Y-300743D01*
X-262980Y-300610D01*
X-262513Y-300210D01*
X-262280Y-299610D01*
Y-296743D01*
G01X-258296Y-298610D02*
X-258063Y-298410D01*
X-257888Y-298076D01*
X-257771Y-297610D01*
X-257888Y-297210D01*
X-258121Y-296943D01*
X-258530Y-296743D01*
X-260105D01*
Y-300743D01*
X-258180D01*
X-257771Y-300476D01*
X-257538Y-300076D01*
X-257421Y-299610D01*
X-257538Y-299143D01*
X-257888Y-298743D01*
X-258296Y-298610D01*
X-260105D01*
G01X-255130Y-296743D02*
Y-300743D01*
X-252796D01*
G01X-249863Y-296743D02*
X-248463D01*
G01X-249163D02*
Y-300743D01*
G01X-249863D02*
X-248463D01*
G01X-243080Y-297076D02*
X-243430Y-296876D01*
X-243838Y-296743D01*
X-244305D01*
X-244830Y-296943D01*
X-245238Y-297276D01*
X-245530Y-297676D01*
X-245763Y-298343D01*
X-245821Y-298943D01*
X-245705Y-299543D01*
X-245530Y-299943D01*
X-245180Y-300343D01*
X-244771Y-300610D01*
X-244363Y-300743D01*
X-243955D01*
X-243546Y-300610D01*
X-243196Y-300410D01*
X-242905Y-300143D01*
G01X-337305Y-268743D02*
Y-264743D01*
X-334621Y-268743D01*
Y-264743D01*
G01X-332621Y-268743D02*
X-331163Y-264743D01*
X-329705Y-268743D01*
G01X-330230Y-267343D02*
X-332096D01*
G01X-327880Y-268743D02*
Y-264743D01*
X-326363Y-268076D01*
X-324846Y-264743D01*
Y-268743D01*
G01X-320396D02*
X-322730D01*
Y-264743D01*
X-320396D01*
G01X-321330Y-266676D02*
X-322730D01*
G01X-322208Y-300243D02*
X-318918Y-293943D01*
G01X-322208D02*
X-318918Y-300243D01*
G01X-287305Y-348743D02*
Y-344743D01*
X-284621Y-348743D01*
Y-344743D01*
G01X-282446D02*
Y-347610D01*
X-282213Y-348210D01*
X-281746Y-348610D01*
X-281163Y-348743D01*
X-280580Y-348610D01*
X-280113Y-348210D01*
X-279880Y-347610D01*
Y-344743D01*
G01X-277880Y-348743D02*
Y-344743D01*
X-276363Y-348076D01*
X-274846Y-344743D01*
Y-348743D01*
G01X-271096Y-346610D02*
X-270863Y-346410D01*
X-270688Y-346076D01*
X-270571Y-345610D01*
X-270688Y-345210D01*
X-270921Y-344943D01*
X-271330Y-344743D01*
X-272905D01*
Y-348743D01*
X-270980D01*
X-270571Y-348476D01*
X-270338Y-348076D01*
X-270221Y-347610D01*
X-270338Y-347143D01*
X-270688Y-346743D01*
X-271096Y-346610D01*
X-272905D01*
G01X-265596Y-348743D02*
X-267930D01*
Y-344743D01*
X-265596D01*
G01X-266530Y-346676D02*
X-267930D01*
G01X-263130Y-348743D02*
Y-344743D01*
X-261671D01*
X-261205Y-344943D01*
X-260913Y-345210D01*
X-260796Y-345743D01*
X-260913Y-346276D01*
X-261263Y-346610D01*
X-261671Y-346810D01*
X-263130D01*
G01X-261671D02*
X-260796Y-348743D01*
G01X-252363Y-355743D02*
Y-349443D01*
X-253303Y-350703D01*
G01Y-355743D02*
X-251423D01*
G01X-246220D02*
X-246063Y-354378D01*
X-245828Y-353223D01*
X-245515Y-352173D01*
X-245123Y-351018D01*
X-244496Y-349443D01*
X-247630D01*
G01X-239763D02*
X-240390Y-349653D01*
X-240860Y-350178D01*
X-241173Y-350808D01*
X-241408Y-351648D01*
X-241486Y-352593D01*
X-241408Y-353538D01*
X-241173Y-354378D01*
X-240860Y-355008D01*
X-240390Y-355533D01*
X-239763Y-355743D01*
X-239136Y-355533D01*
X-238666Y-355008D01*
X-238353Y-354378D01*
X-238118Y-353538D01*
X-238040Y-352593D01*
X-238118Y-351648D01*
X-238353Y-350808D01*
X-238666Y-350178D01*
X-239136Y-349653D01*
X-239763Y-349443D01*
G01X-234481Y-353643D02*
X-232445D01*
G01X-228886Y-354798D02*
X-228416Y-355323D01*
X-227868Y-355638D01*
X-227163Y-355743D01*
X-226458Y-355533D01*
X-225910Y-355113D01*
X-225518Y-354378D01*
X-225440Y-353538D01*
X-225596Y-352698D01*
X-225988Y-352173D01*
X-226536Y-351753D01*
X-227085Y-351648D01*
X-227633Y-351753D01*
X-228338Y-352173D01*
X-228103Y-349443D01*
X-225988D01*
G01X-220863Y-355743D02*
Y-349443D01*
X-221803Y-350703D01*
G01Y-355743D02*
X-219923D01*
G01X-215895Y-355008D02*
X-215346Y-355533D01*
X-214720Y-355743D01*
X-214093Y-355533D01*
X-213545Y-354903D01*
X-213153Y-353958D01*
X-212996Y-353013D01*
Y-351858D01*
X-213153Y-350913D01*
X-213545Y-350073D01*
X-214015Y-349653D01*
X-214563Y-349443D01*
X-215190Y-349653D01*
X-215660Y-350073D01*
X-215973Y-350703D01*
X-216130Y-351543D01*
X-215973Y-352278D01*
X-215581Y-353013D01*
X-215111Y-353433D01*
X-214563Y-353538D01*
X-213936Y-353328D01*
X-213466Y-352803D01*
X-212996Y-351858D01*
G01X-207323Y-355743D02*
Y-349443D01*
X-210221Y-353958D01*
X-206305D01*
G01X-203686Y-354483D02*
X-203216Y-355218D01*
X-202590Y-355638D01*
X-201885Y-355743D01*
X-201258Y-355638D01*
X-200631Y-355113D01*
X-200240Y-354483D01*
X-200161Y-353853D01*
X-200318Y-353118D01*
X-200866Y-352593D01*
X-201415Y-352383D01*
X-202120D01*
G01X-201415D02*
X-200945Y-352068D01*
X-200553Y-351543D01*
X-200396Y-350913D01*
X-200553Y-350283D01*
X-200945Y-349758D01*
X-201650Y-349443D01*
X-202355Y-349548D01*
X-203060Y-349968D01*
G01X-165730Y-355743D02*
Y-349443D01*
X-163771D01*
X-163145Y-349758D01*
X-162753Y-350178D01*
X-162596Y-351018D01*
X-162753Y-351858D01*
X-163223Y-352383D01*
X-163771Y-352698D01*
X-165730D01*
G01X-163771D02*
X-162596Y-355743D01*
G01X-156296D02*
X-159430D01*
Y-349443D01*
X-156296D01*
G01X-157550Y-352488D02*
X-159430D01*
G01X-153521Y-349443D02*
X-151563Y-355743D01*
X-149605Y-349443D01*
G01X-138336Y-352383D02*
X-138023Y-352068D01*
X-137788Y-351543D01*
X-137631Y-350808D01*
X-137788Y-350178D01*
X-138101Y-349758D01*
X-138650Y-349443D01*
X-140765D01*
Y-355743D01*
X-138180D01*
X-137631Y-355323D01*
X-137318Y-354693D01*
X-137161Y-353958D01*
X-137318Y-353223D01*
X-137788Y-352593D01*
X-138336Y-352383D01*
X-140765D01*
G01X-134386Y-354483D02*
X-133916Y-355218D01*
X-133290Y-355638D01*
X-132585Y-355743D01*
X-131958Y-355638D01*
X-131331Y-355113D01*
X-130940Y-354483D01*
X-130861Y-353853D01*
X-131018Y-353118D01*
X-131566Y-352593D01*
X-132115Y-352383D01*
X-132820D01*
G01X-132115D02*
X-131645Y-352068D01*
X-131253Y-351543D01*
X-131096Y-350913D01*
X-131253Y-350283D01*
X-131645Y-349758D01*
X-132350Y-349443D01*
X-133055Y-349548D01*
X-133760Y-349968D01*
G01X-265789Y-280289D02*
Y-273989D01*
X-263752Y-279239D01*
X-261715Y-273989D01*
Y-280289D01*
G01X-255729Y-274514D02*
X-256199Y-274199D01*
X-256747Y-273989D01*
X-257374D01*
X-258079Y-274304D01*
X-258627Y-274829D01*
X-259019Y-275459D01*
X-259332Y-276509D01*
X-259410Y-277454D01*
X-259254Y-278399D01*
X-259019Y-279029D01*
X-258549Y-279659D01*
X-258000Y-280079D01*
X-257452Y-280289D01*
X-256904D01*
X-256355Y-280079D01*
X-255885Y-279764D01*
X-255494Y-279344D01*
G01X-252092Y-273989D02*
X-250212D01*
G01X-251152D02*
Y-280289D01*
G01X-252092D02*
X-250212D01*
G01X-246889D02*
Y-273989D01*
X-244852Y-279239D01*
X-242815Y-273989D01*
Y-280289D01*
G01X-240197D02*
X-236907Y-273989D01*
G01X-240197D02*
X-236907Y-280289D01*
G01X-233584Y-279554D02*
X-233035Y-280079D01*
X-232409Y-280289D01*
X-231782Y-280079D01*
X-231234Y-279449D01*
X-230842Y-278504D01*
X-230685Y-277559D01*
Y-276404D01*
X-230842Y-275459D01*
X-231234Y-274619D01*
X-231704Y-274199D01*
X-232252Y-273989D01*
X-232879Y-274199D01*
X-233349Y-274619D01*
X-233662Y-275249D01*
X-233819Y-276089D01*
X-233662Y-276824D01*
X-233270Y-277559D01*
X-232800Y-277979D01*
X-232252Y-278084D01*
X-231625Y-277874D01*
X-231155Y-277349D01*
X-230685Y-276404D01*
G01X-227675Y-279029D02*
X-227205Y-279764D01*
X-226579Y-280184D01*
X-225874Y-280289D01*
X-225247Y-280184D01*
X-224620Y-279659D01*
X-224229Y-279029D01*
X-224150Y-278399D01*
X-224307Y-277664D01*
X-224855Y-277139D01*
X-225404Y-276929D01*
X-226109D01*
G01X-225404D02*
X-224934Y-276614D01*
X-224542Y-276089D01*
X-224385Y-275459D01*
X-224542Y-274829D01*
X-224934Y-274304D01*
X-225639Y-273989D01*
X-226344Y-274094D01*
X-227049Y-274514D01*
G01X-220670Y-278189D02*
X-218634D01*
G01X-214997Y-279449D02*
X-214370Y-279974D01*
X-213665Y-280289D01*
X-213039D01*
X-212412Y-279974D01*
X-211942Y-279449D01*
X-211707Y-278714D01*
X-211864Y-277979D01*
X-212255Y-277349D01*
X-212960Y-276929D01*
X-213900Y-276719D01*
X-214449Y-276299D01*
X-214684Y-275564D01*
X-214527Y-274829D01*
X-214135Y-274304D01*
X-213587Y-273989D01*
X-213039D01*
X-212490Y-274199D01*
X-212020Y-274724D01*
G01X-207052Y-280289D02*
X-207679Y-280184D01*
X-208227Y-279764D01*
X-208697Y-279134D01*
X-209010Y-278399D01*
X-209167Y-277559D01*
Y-276719D01*
X-209010Y-275879D01*
X-208697Y-275144D01*
X-208227Y-274514D01*
X-207679Y-274094D01*
X-207052Y-273989D01*
X-206425Y-274094D01*
X-205877Y-274514D01*
X-205407Y-275144D01*
X-205094Y-275879D01*
X-204937Y-276719D01*
Y-277559D01*
X-205094Y-278399D01*
X-205407Y-279134D01*
X-205877Y-279764D01*
X-206425Y-280184D01*
X-207052Y-280289D01*
G01X-202789D02*
Y-273989D01*
X-200752Y-279239D01*
X-198715Y-273989D01*
Y-280289D01*
G54D48*
X110721Y226156D03*
X115821D03*
X113271Y233650D03*
G54D39*
X89870Y68984D03*
X93610D03*
X132934Y214325D03*
X129194D03*
X230605Y19629D03*
X234345D03*
G54D57*
X180529Y124318D03*
Y178354D03*
X234569Y124318D03*
Y178354D03*
G54D58*
X199142Y23339D03*
X215806Y23341D03*
X209142Y23339D03*
X225806Y23341D03*
G54D49*
X116748Y142676D03*
Y130077D03*
X119307Y139526D03*
Y133227D03*
X121866Y142676D03*
Y130077D03*
X126984Y142676D03*
Y130077D03*
Y136376D03*
X111630Y142676D03*
Y136376D03*
X119307Y142676D03*
Y130077D03*
X124425Y136376D03*
X114189Y142676D03*
Y136376D03*
X124425Y142676D03*
X111630Y139526D03*
X124425Y130077D03*
X126984Y139526D03*
Y133227D03*
X119307Y136376D03*
X121866D03*
X116748Y133227D03*
X114189D03*
Y139526D03*
X116748D03*
X121866D03*
X124425D03*
Y133227D03*
X121866D03*
X111630Y130077D03*
Y133227D03*
X114189Y130077D03*
X116748Y136376D03*
Y152124D03*
X119307Y155274D03*
X121866Y152124D03*
X126984D03*
Y158424D03*
X111630Y152124D03*
Y158424D03*
X119307Y152124D03*
X124425Y158424D03*
X114189Y152124D03*
Y158424D03*
X124425Y152124D03*
X111630Y155274D03*
X126984D03*
X119307Y158424D03*
X121866D03*
X114189Y155274D03*
X116748D03*
X121866D03*
X124425D03*
X116748Y158424D03*
Y164723D03*
X119307Y161573D03*
X121866Y164723D03*
X126984D03*
X119307D03*
X124425D03*
X126984Y161573D03*
X124425D03*
X121866D03*
X116748D03*
X114189D03*
X111630D03*
Y164723D03*
X114189D03*
X132102Y130077D03*
Y136376D03*
X134661Y139526D03*
Y133227D03*
X142339Y139526D03*
Y133227D03*
X144898Y130077D03*
Y136376D03*
X129543Y142676D03*
Y130077D03*
X134661D03*
Y136376D03*
X142339Y130077D03*
Y136376D03*
X134661Y142676D03*
X142339D03*
X132102D03*
X144898D03*
X132102Y139526D03*
X144898D03*
X132102Y133227D03*
X144898D03*
X129543D03*
Y136376D03*
Y139526D03*
X132102Y158424D03*
X134661Y155274D03*
X142339D03*
X144898Y158424D03*
X129543Y152124D03*
X134661Y158424D03*
X142339D03*
X134661Y152124D03*
X142339D03*
X129543Y158424D03*
Y155274D03*
X132102Y152124D03*
X144898D03*
X132102Y155274D03*
X144898D03*
X132102Y164723D03*
X134661Y161573D03*
X142339D03*
X144898Y164723D03*
X129543D03*
X134661D03*
X142339D03*
X132102Y161573D03*
X144898D03*
X129543D03*
X150016Y142676D03*
Y130077D03*
Y136376D03*
X155134Y142676D03*
Y130077D03*
X157693Y139526D03*
Y133227D03*
X160252Y142676D03*
Y130077D03*
X152575Y136376D03*
X157693Y142676D03*
Y130077D03*
X162811Y142676D03*
Y136376D03*
X147457Y142676D03*
Y130077D03*
X152575Y142676D03*
X150016Y139526D03*
X152575Y130077D03*
X150016Y133227D03*
X157693Y136376D03*
X155134D03*
X160252Y133227D03*
X162811D03*
Y139526D03*
X160252D03*
X155134D03*
X152575D03*
Y133227D03*
X155134D03*
X162811Y130077D03*
X160252Y136376D03*
X147457Y133227D03*
Y136376D03*
Y139526D03*
X150016Y152124D03*
Y158424D03*
X155134Y152124D03*
X157693Y155274D03*
X160252Y152124D03*
X152575Y158424D03*
X157693Y152124D03*
X162811D03*
Y158424D03*
X147457Y152124D03*
X152575D03*
X150016Y155274D03*
X157693Y158424D03*
X155134D03*
X162811Y155274D03*
X160252D03*
X155134D03*
X152575D03*
X160252Y158424D03*
X147457D03*
Y155274D03*
X150016Y164723D03*
X155134D03*
X157693Y161573D03*
X160252Y164723D03*
X157693D03*
X147457D03*
X152575D03*
X150016Y161573D03*
X152575D03*
X155134D03*
X160252D03*
X162811D03*
Y164723D03*
X147457Y161573D03*
X165370Y136376D03*
Y139526D03*
Y142676D03*
Y130077D03*
Y133227D03*
Y158424D03*
Y155274D03*
Y152124D03*
Y161573D03*
Y164723D03*
G54D59*
X187864Y132635D03*
X197706Y136572D03*
X193769D03*
X191801Y140509D03*
X187864Y142478D03*
X197706D03*
X187864Y140509D03*
X189832D03*
Y138541D03*
X187864D03*
X189832Y142478D03*
X197706Y138541D03*
Y140509D03*
X193769Y134604D03*
X191801Y132635D03*
X197706Y134604D03*
X195738Y132635D03*
Y134604D03*
X193769Y132635D03*
X197706D03*
X189832Y136572D03*
Y134604D03*
X187864Y136572D03*
Y134604D03*
X193769Y138541D03*
Y140509D03*
X191801Y134604D03*
X189832Y132635D03*
X191801Y144446D03*
X195738Y148383D03*
X191801D03*
X195738Y152320D03*
X191801D03*
X187864D03*
X195738Y156257D03*
X191801D03*
Y160194D03*
X197706Y152320D03*
Y156257D03*
Y160194D03*
Y144446D03*
Y148383D03*
X193769Y144446D03*
X195738D03*
X193769Y148383D03*
Y152320D03*
X187864Y146415D03*
X189832D03*
Y144446D03*
X187864D03*
X189832Y156257D03*
X187864D03*
X189832Y154289D03*
X187864D03*
X189832Y150352D03*
X187864D03*
X189832Y148383D03*
X187864D03*
X189832Y152320D03*
Y160194D03*
X193769D03*
X195738D03*
X193769Y156257D03*
X187864Y158226D03*
Y160194D03*
X189832Y158226D03*
X187864Y172005D03*
X197706Y168068D03*
X193769D03*
X189832D03*
X191801Y164131D03*
X197706Y162163D03*
X193769Y164131D03*
X189832Y166100D03*
X193769D03*
X187864Y162163D03*
Y166100D03*
X189832Y164131D03*
X187864D03*
X189832Y162163D03*
X197706Y170037D03*
Y172005D03*
Y164131D03*
Y166100D03*
X187864Y168068D03*
Y170037D03*
X189832D03*
Y172005D03*
X193769Y170037D03*
Y172005D03*
X195738Y170037D03*
Y172005D03*
X191801Y170037D03*
Y172005D03*
X214581Y72785D03*
Y62943D03*
Y64911D03*
Y66880D03*
Y68848D03*
Y70817D03*
Y74754D03*
Y76722D03*
Y86565D03*
Y88533D03*
Y78691D03*
Y82628D03*
Y80659D03*
Y84596D03*
X213455Y136572D03*
X209518D03*
X205580D03*
X201643D03*
X213455Y142478D03*
Y140509D03*
Y138541D03*
X209518Y134604D03*
X213455D03*
X211486D03*
Y132635D03*
X213455D03*
X209518D03*
X207549Y134604D03*
X205580Y142478D03*
X201643Y138541D03*
Y140509D03*
Y142478D03*
X199675Y134604D03*
X205580Y138541D03*
Y140509D03*
X209518Y138541D03*
Y140509D03*
Y142478D03*
X207549Y136572D03*
X201643Y134604D03*
X199675Y132635D03*
X205580Y134604D03*
X203612Y132635D03*
Y134604D03*
X201643Y132635D03*
X205580D03*
X207549D03*
X213455Y146415D03*
X209518D03*
X205580D03*
X201643D03*
X213455Y148383D03*
X201643D03*
X207549Y150352D03*
X213455Y152320D03*
X201643D03*
X207549Y154289D03*
X213455Y156257D03*
X201643D03*
X213455Y158226D03*
X209518D03*
X205580D03*
X201643D03*
X205580Y160194D03*
X211486Y154289D03*
X209518D03*
X205580D03*
X203612D03*
X211486Y156257D03*
X209518D03*
X207549D03*
X205580D03*
X211486Y148383D03*
X209518D03*
X207549D03*
X205580D03*
X203612D03*
X211486Y150352D03*
X209518D03*
X205580D03*
X203612D03*
Y156257D03*
X201643Y160194D03*
X213455D03*
Y144446D03*
X201643D03*
X199675Y156257D03*
Y148383D03*
Y152320D03*
X209518Y144446D03*
X205580D03*
X209518Y160194D03*
X213455Y168068D03*
X209518D03*
X205580D03*
X201643D03*
Y164131D03*
X205580Y162163D03*
X201643D03*
X213455Y164131D03*
Y166100D03*
X209518Y164131D03*
Y162163D03*
Y166100D03*
X207549Y168068D03*
X213455Y170037D03*
Y172005D03*
X211486Y170037D03*
X209518D03*
X211486Y172005D03*
X209518D03*
X201643Y166100D03*
X203612Y170037D03*
Y172005D03*
X201643Y170037D03*
Y172005D03*
X199675Y170037D03*
Y172005D03*
X205580Y170037D03*
Y172005D03*
X207549Y170037D03*
Y172005D03*
X205580Y164131D03*
Y166100D03*
X213455Y162163D03*
X222455Y70817D03*
X230329D03*
X232297D03*
Y72785D03*
X216549D03*
Y62943D03*
Y64911D03*
Y66880D03*
Y68848D03*
Y70817D03*
X218518Y72785D03*
Y62943D03*
Y64911D03*
Y66880D03*
Y68848D03*
Y70817D03*
X220486Y62943D03*
Y64911D03*
Y66880D03*
X222455Y62943D03*
Y64911D03*
Y66880D03*
X224423Y62943D03*
Y64911D03*
Y66880D03*
X226392Y62943D03*
Y64911D03*
Y66880D03*
X228360Y62943D03*
Y64911D03*
Y66880D03*
Y70817D03*
X230329Y62943D03*
Y64911D03*
Y66880D03*
X232297Y62943D03*
Y64911D03*
Y66880D03*
X226392Y70817D03*
X222455Y72785D03*
X224423Y70817D03*
X216549Y74754D03*
Y76722D03*
Y78691D03*
Y84596D03*
Y88533D03*
X218518Y74754D03*
Y76722D03*
Y84596D03*
Y86565D03*
Y88533D03*
X220486Y84596D03*
Y86565D03*
Y88533D03*
X222455Y76722D03*
Y78691D03*
Y84596D03*
Y86565D03*
Y88533D03*
X224423Y84596D03*
Y86565D03*
Y88533D03*
X226392Y84596D03*
Y86565D03*
Y88533D03*
X228360Y84596D03*
Y86565D03*
Y88533D03*
X230329Y84596D03*
Y86565D03*
Y88533D03*
X232297Y74754D03*
Y80659D03*
Y84596D03*
Y86565D03*
Y88533D03*
X216549Y80659D03*
Y86565D03*
X222455Y74754D03*
X224423Y80659D03*
X228360D03*
X232297Y76722D03*
X216549Y82628D03*
X218518D03*
X230329Y80659D03*
X232297Y78691D03*
X222455Y80659D03*
X226392D03*
X218518D03*
Y78691D03*
X227234Y132635D03*
X221329Y136572D03*
X217392D03*
X223297Y140509D03*
X217392Y142478D03*
Y140509D03*
Y138541D03*
X221329D03*
X219360Y132635D03*
X225266D03*
Y134604D03*
X221329Y132635D03*
Y134604D03*
X223297D03*
Y132635D03*
X219360Y134604D03*
X217392D03*
X215423D03*
X217392Y132635D03*
X215423D03*
X227234Y134604D03*
X225266Y136572D03*
X227234D03*
X225266Y138541D03*
X227234D03*
Y140509D03*
X225266D03*
X221329D03*
X227234Y142478D03*
X225266D03*
X223297Y144446D03*
Y148383D03*
Y152320D03*
Y156257D03*
Y160194D03*
X217392Y156257D03*
X215423D03*
Y152320D03*
X217392Y160194D03*
Y144446D03*
Y148383D03*
X215423D03*
X217392Y152320D03*
X221329Y156257D03*
X227234Y160194D03*
Y158226D03*
X225266Y160194D03*
Y158226D03*
X219360Y160194D03*
X221329D03*
X219360Y156257D03*
Y144446D03*
X221329D03*
X225266D03*
X227234D03*
Y146415D03*
X225266D03*
X227234Y148383D03*
X225266D03*
X221329D03*
X219360D03*
X227234Y150352D03*
X225266D03*
X227234Y152320D03*
X225266D03*
X221329D03*
X219360D03*
X227234Y154289D03*
X225266D03*
Y156257D03*
X227234D03*
X217392Y168068D03*
X223297Y164131D03*
X221329Y168068D03*
X227234Y172005D03*
X217392Y162163D03*
X215423Y170037D03*
Y172005D03*
X227234Y162163D03*
X225266D03*
X227234Y164131D03*
X225266D03*
X227234Y166100D03*
X225266D03*
X227234Y168068D03*
X225266D03*
X221329Y164131D03*
Y166100D03*
X217392Y170037D03*
Y166100D03*
Y164131D03*
Y172005D03*
X221329Y170037D03*
X219360Y172005D03*
X223297D03*
X221329D03*
X219360Y170037D03*
X227234D03*
X225266D03*
Y172005D03*
X223297Y170037D03*
X234266Y62943D03*
Y64911D03*
Y66880D03*
X236234Y72785D03*
Y62943D03*
Y64911D03*
Y66880D03*
Y68848D03*
Y70817D03*
X238203Y72785D03*
Y62943D03*
Y64911D03*
Y66880D03*
Y68848D03*
Y70817D03*
X240171Y72785D03*
Y62943D03*
Y64911D03*
Y66880D03*
Y68848D03*
Y70817D03*
X234266Y82628D03*
Y84596D03*
Y86565D03*
Y88533D03*
X236234Y74754D03*
Y76722D03*
Y80659D03*
Y84596D03*
Y88533D03*
X238203Y74754D03*
Y76722D03*
Y88533D03*
X240171Y74754D03*
Y76722D03*
Y86565D03*
Y88533D03*
X236234Y82628D03*
X240171Y78691D03*
X236234Y86565D03*
Y78691D03*
X238203D03*
Y80659D03*
Y82628D03*
Y84596D03*
Y86565D03*
X240171Y80659D03*
Y82628D03*
Y84596D03*
M02*
