M48
;Layer_Color=9474304
;FILE_FORMAT=4:4
METRIC,LZ
;TYPE=PLATED
T01F00S00C0.2032
T02F00S00C0.2540
T03F00S00C1.0160
T04F00S00C2.6924
%
T01
X00010132Y00010074
X00020472Y00009937
X0002936Y00009685
X0004237Y00015276
X00052278Y00008326
X00069342Y00008867
X00085616Y00011681
X00090901Y00012403
X00051339Y00027112
X00043744Y00048946
X00043421Y00061184
Y00072456
X00044823Y00090427
X00032372Y00086898
X00030003Y0010348
X00022984Y00104808
X00017003Y00109276
X00016513Y00091135
X00007361Y00093762
X0000712Y00127701
X00024701Y00126106
X0002348Y00137602
X00030978Y00136761
X00037351Y00137348
X00036353Y00119812
X00057191Y00082006
X00069225Y00085844
X00074635Y00085646
X0008604Y0009618
X0009366
X00093876Y00106378
X00086256
X00106751Y00075065
X00106698Y00068603
X00113845Y00068534
X00113711Y00075148
X0012623Y00075438
X00126258Y00070086
X00141382Y00039268
X00144653Y00106883
X00150399Y00106949
X00150332Y00112893
Y00118572
X00144587Y00118506
Y00112827
X00163843Y00126777
X00172131Y00126634
X00186096Y0011828
X00191585Y00116477
X00191681Y00098486
X00191803Y00093406
X00186586Y00093635
X00186604Y00098715
X00204475Y00084531
X00228018Y00083061
X0023815Y00084432
X00237975Y00093673
X00244282Y00112235
X002448Y0012892
X00244594Y00137556
X00245514Y00149941
X00240779Y00147424
X00223566Y00152855
X00223604Y00163078
X00222842Y00175291
X0025191Y00171412
X00272062Y00181259
X00290238Y00179852
X00296514Y00179702
X00311922Y00179827
X0031812Y00170124
X00350853Y00170261
X00363672Y0018145
X00370131Y00180843
X00331876Y00133063
X00331726Y00126787
X00348061Y00097475
X0036703Y00084262
X00366789Y00061712
X00352509Y00060071
X00351833Y00053381
X00345686Y00053449
X00343626Y00060071
X00336672Y00067439
X00330525Y00066873
X00323713Y00066942
X00317993Y00067008
X00310568Y00045227
X00311295Y00033439
X00298798Y00028278
X00327477Y00028672
X0036007Y00025593
X0036515Y00025499
X0036007Y00032408
X00359514Y00052113
X00267891Y00051199
X00262811
X00263086Y00039764
X00268166
X00268437Y00027694
X00263357
X00232494Y00032466
X0020338Y00028412
X00203251Y00053716
X00204782Y00136055
X00221607Y00130619
X00234742Y00120531
X00266702Y00092367
X00272979Y00092217
X00285748Y0009363
X00291038Y00092941
X0029636Y0009256
X00190924Y00158377
X00190525Y00165214
X00156136Y00175519
X0013969Y00144127
X0012557Y00146926
X00125859Y00152253
X00007361Y00155473
Y0017497
X00023414Y001721
X00019375Y00068268
X00019159Y0005807
X0000712Y00054397
X00007361Y00032233
X00011222Y00021184
X00022807Y00021882
X00401081Y00023104
X00406545Y00023292
X00414221Y00026104
X00402407Y00036939
X00408003Y00058593
X0038658Y00059629
X00381312Y00059855
X00380159Y00074724
X00385237Y00074534
X00398785Y00094513
X00406405
X00406222Y00110681
X00398602
X00398422Y00134656
X00406042
X00406768Y00151
X00399148
X00406669Y00176413
X00424698Y00160071
X00454251Y00161064
X00461447Y00122433
X00483405Y00128859
X00501203Y00129469
X00500936Y00134798
X00501272Y00123726
X00501071Y00117912
X00519913Y00117058
X00519542Y00122392
X00519661Y00127726
X00535409Y00121735
X00532338Y00117046
X00543971Y00117559
X00543756Y00123523
X00551663Y00123472
X00551693Y00117988
X00563659Y00123525
X00563664Y00129035
X00571746Y001286
X00571939Y00122839
X00571972Y00117046
X00579973Y00122171
X00579554Y00128582
X00587276Y00129327
X00592122Y0012304
X00591972Y00117346
X00592054Y00100543
X00592186Y00095021
X00591972Y0008969
X00599455Y00090647
X00605358Y00090437
X00612709Y00090828
X00613009Y00097221
X00612976Y0010352
X00619656Y00103185
X00619755Y00097221
X00619455Y00090828
X00630144Y00090962
X00637893
X00638561Y00103787
X00629877Y00103721
X00652188Y00103523
X00657268Y0010351
X00662407Y0010332
X00662341Y00090561
X00657202Y00090752
X00652122Y00090764
X00644258Y00055923
X0062534Y00058075
X00603971Y00076578
X00589069Y00073665
X00579986Y00049929
X00571972Y00090726
X00572018Y00096601
X00572287Y00102479
X00560593Y00101613
X00560258Y00095667
X00559973Y0008988
X00547972Y00090289
X00547898Y00096535
X00548368Y00102011
X00539341Y00101326
X00539476Y00095712
X00539973Y00089802
X00519765Y0009097
Y00097051
X00520037Y0010238
X00504708Y00100871
X00504403Y00095545
X00504185Y00090213
X0050355Y00076736
X00510027Y00076164
X00519974Y00076705
X00531279Y00049568
X00505879Y00037755
X00492008Y0002426
X00456542Y00024435
X00456311Y00036881
X00450903Y00036815
X00445823
X00437444Y00044201
X00436766Y00025169
X00460687Y00041671
X00465318Y00044801
X00461295Y00056053
X00464995Y00060239
X0046561Y0006575
X00459186Y00095552
X0060323Y00148963
X00669178Y00142872
X00693412Y00137876
X00695356Y00112044
X00711281Y00123891
X00726237Y00111656
X00728762Y00137681
X00726539Y00150533
X00710723Y0015254
X00726806Y00168961
X00712869Y00092639
X00724487Y00072616
X00696907Y00073586
X00687586Y0001299
X0071167Y00012019
X00729732Y0001299
X00720555Y00191102
X00720423Y00196436
X00697078Y00209359
X00690601Y00209441
X00690603Y00218509
X0069708Y00218427
X00701815Y00238844
X00701774Y00244927
X00701815Y00258442
X00688175Y00265389
X00687931Y00272839
X00688416Y00280045
X00681535Y00280208
X00674411Y00280289
X00676191Y00272839
X00676029Y00266362
X00661182Y00258442
X00652727Y00270015
X00650847Y00287094
X00656156Y00286558
X00661505Y00286443
Y00302443
X00656171Y00302476
X00650281Y00302164
X00649328Y00309984
X00649595Y00315313
X00643979Y00317939
X00657667Y00318783
X00656171Y00338506
X00661505Y00338442
X00675384Y00338262
X00680717Y0033811
X00681213Y00358828
X00675625Y00358991
X00687121Y00359316
X00702183Y00358442
X00702506Y00352108
X00707751Y00350672
X0071786Y00351036
X0071248Y00338491
X00707149Y00338287
X00701815Y00338442
Y00330444
X00707144Y00330208
X00712762
X00712838Y00318519
X00707504Y00318618
X00702173Y00318442
X00701815Y00302443
X00707146Y00302237
X0071248Y00302301
X00712483Y00286542
X00707149Y00286527
X00701815Y00286443
X00678167Y00316601
X00661505Y00358442
X00656171Y00358554
X00650395Y00358844
X00650469Y00378991
X00655787Y00378587
X00661505Y00378442
X00675785Y00378343
X00681421Y00378424
X00686752Y00378221
X00688861Y00390444
X00685262Y00398181
X00679793Y00398584
X00674459Y00398442
X00676971Y00406789
X006823Y00406514
X00703113Y00406443
X00708442Y00405862
X00708256Y00398262
X00701815Y00398442
X00702346Y00390047
X00708337Y00390489
X00707149Y00378506
X00701815Y00378442
X00712709Y00378747
X00707972Y00366319
X00702183Y00366583
X00701815Y00418442
X00707141Y00418142
X00712437Y00417495
X00710496Y00440251
X00696392Y00448353
X00691017Y00446281
X00684174Y00446037
X00678508Y00445834
X00683379Y00460776
X00694009Y00461223
X00669003Y00461996
X00671609Y00472808
Y00485783
X00669254Y00498051
X00657167Y00499537
X00648553Y00515887
X00644428Y00546473
X00614561Y00546334
X00612181Y00555508
X00618729Y00555107
X00631388Y00564043
X00664444Y00569389
X00682224
X00703166Y00545089
X00720946
Y00527309
X00703166
X00683379Y00482549
X00618741Y00482834
X00618823Y00489067
X00618843Y00496794
X00616697Y00503425
X00610321Y00503479
X00609158Y00516722
X00590735Y00535818
X00575358Y00535877
X00574251Y00542709
X00573865Y00550136
X00581325Y00549161
X00562671Y0054688
X00562996Y00541332
X00564484Y00567954
X00569603Y00569801
X00574784Y00565582
X00592549Y0056611
X00544698Y00565747
X00536163Y00537007
X00536407Y00527776
X00536357Y00521658
X00524947Y00528737
X00524825Y00542023
X00519031Y00541917
X00518917Y00536583
X00518787Y00547245
X00518785Y00552592
X00506786Y00552628
X00507048Y00547164
X00506966Y0054183
X00506661Y00536504
X00495079Y00536638
X00495305Y0054197
X00495064Y00547299
X00494784Y00552628
X00482785
X0048308Y00547301
X00483161Y00541967
X00482867Y00536641
X0047118Y00536633
X00471012Y00541965
X00470771Y00547294
X00470787Y00552628
X00458785
X00459031Y00547299
X00458869Y00541965
X00458907Y00536349
X00447081Y00536626
X00446982Y0054196
X00446888Y00547294
X00446786Y00552628
X00434785
X00434823Y00547294
X00434985Y0054196
X00434825Y0053592
X00495259Y00530248
X0049195Y00568571
X0049512Y00577647
X00496552Y00427533
X00496044Y00422453
X00496037Y00417238
X00497375Y00411795
X00492206Y00411277
X00486852Y0041149
X0048655Y0040181
X00492379Y00402529
X00497589Y00401965
X00502663Y00402227
X00507738Y00401965
X00507263Y00407025
X00507195Y00412125
X00506219Y00417228
X00506092Y00422308
X00507695Y0042719
X00517015Y00427652
X0051739Y00422585
X00527192Y00422593
X00526926Y0041735
X00527083Y00411965
X00527383Y00406725
X00527233Y00401267
X00537167Y00401731
X00537073Y00406811
X00537533Y00412013
X00537883Y00417083
X00537906Y00422163
X00537848Y0042769
X00547472Y00427124
X00547347Y00422044
X0054754Y00416966
X00547555Y00411706
X00547464Y00406499
X00546893Y00401269
X00552074Y00401937
X00557233Y00401838
X00562313Y00401897
X00567931Y00402328
X00567848Y00411317
X00562234Y00411422
X00557154Y00411475
X00557121Y00416964
Y00422044
Y00427124
X00567192Y00426964
X00566837Y00421442
X00567233Y00391975
X00562178Y00392483
X00556941Y00392255
X00551866Y00392021
X0054673Y00392107
X00541571Y00391937
X00537639Y003869
X00532384Y00386558
X00527185Y00385961
X00522107Y00385775
X00517002Y0038577
X00512828Y00381792
X00507731Y00381632
X00502668Y00382074
X00497589Y00381965
X00492554Y00382656
X00486877Y00381965
Y00391965
X00492234Y00391323
X00497589Y00391965
X00502658Y00391612
X00507726Y00391239
X00512818Y00391305
X0051673Y00402069
X00517578Y00407078
X00517848Y00412222
X00487233Y00421711
Y00427218
X00474066Y00440131
X00464894Y00414492
X00467947Y00408008
X00473164Y00402986
X00472737Y00386964
X00472834Y00361963
X00486877Y00361886
X00491985Y00362651
X0049753Y00362141
X00497413Y00356878
X00497284Y00351798
X00497291Y00346707
X00487307Y00346487
X00487289Y00351831
X00486877Y00371965
X00492234Y00371079
X00497294Y00371539
X00502407Y00371871
X00508058Y00372582
X00507017Y00367119
X00507629Y00361899
X00507911Y00356827
X00507832Y00351747
X00507416Y00346281
X00517515Y00346276
X00517456Y00351356
X00516976Y00356415
X0051671Y00361531
X00517235Y00366883
Y00371963
X00527233
X0052719Y00366883
X00527726Y00361406
X00527682Y00356326
X00527799Y00351246
X00537484Y00351396
X00537489Y00346276
X00547093Y00346646
X00547436Y00351716
X00546753Y00356756
X00547472Y00361785
X00547256Y00366964
X00546656Y00372542
X00551762Y0037225
X00556867Y00371889
X00561932Y00372283
X00567233Y00371986
Y00361904
X00561696Y00362549
X00556616Y00362636
X00557195Y00357589
X00557916Y00351942
X00558305Y00346875
X00567284Y00346913
X00566717Y00352677
X00567233Y00382166
X00562148Y00381739
X00557085Y00382184
X00551993Y00382024
X00546923Y0038243
X00541693Y00381988
X00537248Y00371963
Y00366883
Y00361803
X00537944Y00356456
X00583174Y0033479
X0061897Y00313009
X00607748Y00283164
X00572905Y0026669
X00549712Y00267838
X00540812Y00221297
X00541028Y00215577
X00541284Y00209946
X00541287Y00204765
X00541028Y00199304
X00560149Y00190271
X00560443Y00184945
X00570093Y00184615
X00575846Y00184305
X00584972Y00193332
X00585094Y00200332
X00579697Y00200279
X00595968Y0020005
X00595173Y00205069
X00615434Y0019841
X0059979Y00229626
X00591932Y00238951
X00568734Y00210099
X00559333Y00209946
X00454251Y00199934
X00442745Y0023079
X00432087Y00223068
X00416855Y00223469
X00403047Y00209936
X00403129Y00203624
X0039575Y00203378
X00395834Y00209852
X00388866Y00209771
X00388701Y0020305
X00406403Y0019111
X00376913Y00222847
X0037766Y00236962
X00375054Y00259776
X00390213Y00290459
X00402841Y00291272
X00403517Y00326621
X00403756Y00333952
X00397655Y00342069
X00397462Y00350134
X00390291Y00350195
X00378041Y00350512
Y0035785
X00379222Y00366771
X00372814Y00366618
X00385986Y00366476
X00394099Y00366786
X00403591Y00366192
X00409786Y00365849
X00416418Y0036574
X00429666Y00368785
X0042941Y00380088
X00424813Y00386466
Y00394467
X0042782Y00402455
X00428158Y00418391
X00424579Y00436009
X00433898Y00439588
X00430654Y00447515
X00421716Y00452427
X00424185Y00477116
X00403939Y00421952
X00403809Y00414934
X00396951Y00406573
X00397718Y00398437
X00403258Y00399064
X00410228Y00398793
X00403677Y00391063
X00403774Y00382966
X00409738Y00383045
X00416131Y00382968
X00394089Y00380591
X00386085Y00382062
X00379222Y00382163
X00372814Y00382316
X00377843Y00390891
X00377977Y00398788
X00384193Y00399049
X00390555Y00399192
X00384089Y00414327
X00377571Y00414475
X00378991Y0042276
X0038688Y00423248
X00395039Y00423847
X00390505Y00430499
X0045274Y00424719
X00458158Y00418244
X00424924Y00354373
X00426839Y00346192
X0042847Y00330848
X00410464Y00349928
X00404343Y00350505
X00403621Y00357815
X00377546Y00342644
X00377718Y00335023
X00378148Y00327195
X00384703Y00327025
X00394099Y00325407
X00389921Y00318287
X00474066Y00333797
X00462722Y0028637
Y00258646
X00462783Y00246555
X00681761Y00246202
X00686841Y00246172
Y00239205
X00681764Y00239377
X00670281Y0022604
X00670199Y00218752
X00681619Y00198394
X00639044Y00383837
X00637037Y00418031
X00631723Y00418498
X00648429Y00418158
X00653763Y00418031
X00653547Y00410512
X00659034
X00661505Y00418442
X00648995Y00443931
X00624017Y00439519
X00618355Y00452029
X00622Y00468963
X00615546Y00472234
X00606633Y0042354
X00599831Y00423418
X00588592Y00431137
X00580596Y00440327
X00376679Y00521901
X00361104Y00544005
X00354823Y00544167
X00348709Y00544457
X00353525Y00554048
X00349722Y00564538
X00322389Y00564576
X00322557Y00557571
X00321823Y00544576
X00306126Y00545671
X00306385Y00551886
X00300418Y00553565
X00276403Y0056387
X00256009Y00556646
X00243596Y0055708
X00232943Y00556694
X00219664Y00555932
X00210944Y00556588
X00204884Y00555257
X00181861Y00531571
X00160431Y00528699
X00146413Y00534114
X00121181Y00529897
X00121023Y00539841
X00121496Y00545259
X00120117Y00518739
X00154041Y00498478
X00167521Y00462669
X00177Y00452249
X00177076Y0044415
X0018319Y00457525
X00195438Y00458722
X00201851Y00457787
X00198443Y00467815
X00208374Y00467271
X00214031Y00454467
X00227312Y00459097
X00227762Y0046765
X00239189Y00488084
X002734Y00491028
X00272572Y00513811
X00280977Y0051134
X00287373Y00512506
X00291137Y00517926
X00273228Y00531566
X00248882Y00531272
X00232024Y00527324
X00262661Y0046689
X00295107Y00488516
X00304729
X00336387Y00491774
X00340002Y0050722
X00332745Y0051052
X00321061
X00319336Y00422473
X00325839
X00332341
X00338844
Y00414472
Y00406471
X00332341
X00319336
X00312834
X00319336Y0039847
Y00390469
X00325839
X00312834
X00306332
X00299829
X00293327
X00286824
X00280322
Y0039847
Y00406471
X00286824
X00299829Y00414472
Y00422473
X00306332
X00312834
X00293327
X00299829Y0039847
X00338844
X0035812Y00390987
X00364409Y00390543
X00371503Y00390682
X00365089Y00383131
X00364927Y00365966
X00364962Y00358127
X00371627Y00358381
X00364823Y00350924
X00365028Y0034307
X00358417Y00343284
X00357919Y00335519
X0035813Y00326997
X00364757Y00326817
X0037133Y0032688
X00370937Y00335026
X00338844Y00342463
X00332341
X00319336
X00312834
X00319336Y00350464
Y00358465
X00325839
X00338844
Y00350464
Y00326461
X00332341
X00325839
X00319336
X00312834
X00306332
X00299829
X00293327
X00299829Y00334462
Y00350464
Y00358465
X00306332
X00312834
X00293327
X00286824
X00280322
Y00350464
Y00342463
X00286824
X00290637Y00305994
X00296202Y0030591
X00304216
X00309827
X00320561Y00317932
X00325778Y00334571
X00326542Y00289783
X00331622Y00289712
X00337167Y00289446
X00321468Y00289514
X00353654Y00294013
X00352455Y00247117
X00352826Y00239591
X00330779Y00237752
X00299354Y00242529
X00289791
X00289568Y00229306
X00300624Y00228933
X00300622Y00216832
X00289568Y00216906
X00254521Y00211707
X00250429Y00202187
X00235481Y00202059
X0021671Y00227475
X00178044Y00218963
X00172225
X00172143Y00212159
X00178128Y00211915
X00163137Y00206591
X00152723Y00206367
X00147256Y00187924
X00163543Y00188364
X00167894Y0024558
X00166982Y00253637
X00165824Y00262567
X00160691Y0027161
X00193383Y00267561
X00190127Y00263149
X00191768Y00302687
X00204173Y00295176
X00211003Y00291849
X00216347
X00221567Y00291864
X00218097Y00313642
X00218031Y0031892
X00212486
X00213456Y00356314
X00219202Y0035638
X00219136Y00362323
Y00368003
X00213391Y00367937
Y00362257
X00185555Y00351142
X00174803Y00361254
X00162839Y00337807
X00163228Y00332463
X00124089Y00331414
Y00337807
X00123025Y00289308
X0012286Y00281793
X00109515Y00226317
X00094356Y00219954
X00094877Y00214366
X00056838Y00223375
X00042593Y00226113
X00029748Y00219837
X00008966
X00011128Y00235852
X00012852Y00250718
X00007656Y0026496
X00017424Y00278407
X00017292Y00289354
X00007922Y00288994
X00008189Y00304714
X00022731Y00306192
X00030526Y00312092
X00034823Y00325831
X0003305Y00339867
X00032469Y00359095
X00042593Y00355844
X00052299Y00352427
X00060843Y00340319
X0006605Y00339159
X00072291Y00335712
X00072281Y00329613
X00058235Y00332463
X00020231Y00332489
X00008189Y00326659
X00007257Y0034147
X00013045Y0036162
X00008324Y00370576
X00013241Y00381432
X00032662Y00380266
X00035184Y00401411
X00025667Y00401648
X00018169Y00402003
X00007389Y00396347
X00007254Y00415973
X00007521Y0044241
X00018095Y00436628
X00007521Y00461104
X00007254Y00480329
X00007521Y00499156
X0000779Y00515579
X00013574Y00523336
X00020211Y0053244
X00027104Y0053246
X00032471Y00529775
X0000779Y00537345
X00007925Y00558975
X00020206Y00567012
X00046444Y00578231
X00037247Y00491884
X00051445Y00480687
X00053754Y00462333
X00068542Y00464894
X00074153Y00464226
X00046873Y00449438
X00032939Y00456913
X00091056Y00414414
X00091181Y00407914
X00120998Y00410822
X00120952Y00416319
X0012131Y00394696
X00121156Y00389313
X00148968Y00399763
X00154511Y00399697
X00166449Y00399905
X00149908Y00436169
X00075207Y00364528
X00064351Y00364627
X00036695Y00271846
X00030257Y00271498
X00033246Y00244699
X00027612Y00187985
X00039195Y00188178
X00057254Y00193365
X00006977Y00203291
X00257035Y00240396
X00255387Y00297909
X00255222Y00303974
X00261572
X00261737Y00297909
X0024891Y00297744
X00248829Y00304056
X00280977Y00292636
X0028051Y00286329
X00277322Y00182148
X00361665Y00201747
X00370931Y00223487
X00372458Y0023079
X00364711Y00406161
X00359014Y00406242
X00358265Y00413802
X0035907Y00422925
X00365534Y00422112
X00371437Y0042243
X00371892Y00414462
X00141757Y00575724
X0013255Y00603568
X0011477
X0009699
X0007921
X0007188Y00593689
X00066269Y00594091
X00052598Y00592203
X00041407Y00592488
X00022581Y00594065
X00021275Y00602635
X00011394Y00601566
X00007658Y00585546
X00153561Y00603908
X00168013Y00603971
X00185936
X0020367Y00603568
X0022145
X0023923
X0025701
X0027479
X0029257
X0031035
X0032813
X0034591
X0036369
X00335249Y00588912
X0028129Y00582765
X00227505Y00580705
X00387149Y00587898
X0038147Y00603568
X0039925
X0041703
X00434487Y00603834
X00434861Y00598272
X00434785Y00592938
X00446786
X00446682Y00598272
X00447017Y00603595
X00441198Y00603585
X00452963Y00603971
X00458666Y00603603
X00458577Y00598269
X00458785Y00592938
X00470787
X00470708Y00598272
X00470413Y00603598
X00464767Y00603413
X00477408Y00603082
X00482742Y00603702
X00482796Y00598368
X00482785Y00592938
X00494784
X00496067Y00600001
X00501434Y00600024
X00506781Y006004
X0051211Y00600682
X00517304Y00598213
X00517197Y00603547
X00529605Y00598221
X0053576Y00598058
X00540779Y00600045
X00538785Y00593616
X00527723Y0059323
X00523685Y00579915
X00517573Y00579803
X00506067Y00595071
X00489745Y00602356
X00553847Y00598904
X0055992Y00598254
X00562595Y0059295
X00569524Y00593161
X00575803Y0059325
X00579712Y0059688
X00583979Y00593032
X0058848Y00596476
X00592463Y00592927
X00586087Y00603303
X00603867
X00621647
X00636003Y00603169
X0063309Y00590484
X00632821Y00579537
X00615041
X0061531Y00590484
X00653783Y00603169
X00671563
X00675394Y00589417
X00689945Y00589151
X00689343Y00603169
X007045Y00603301
X0072228
X00568307Y00603303
X00551439Y00594015
X00546153Y00578904
T02
X00057333Y00129725
X00065788Y00129819
X00073546Y0013004
X00073213Y00140302
X00065979Y00140513
X00057475
X00057676Y00150899
X00066038Y0015052
X00073546Y00150899
X00268272Y0014653
X00278346Y00146909
X00278145Y00136523
X00268072Y00136144
X00267929Y00125357
X00278003Y00125735
X00288646Y00125829
X00299349Y00125859
X00299016Y00136121
X00288836Y00136523
X00288895Y0014653
X00299349Y00146718
X00309042Y0014653
X00298496Y00115542
X00288041Y00115354
X00204163Y0039229
Y00402387
Y00413553
X00190845Y0041371
X00182743Y00413573
X00182542Y00403187
X00190845Y00403101
Y00392702
X001824Y00392399
X00072596Y00394045
X00072263Y00404307
X00062083Y00404708
X00062141Y00414716
X00072596Y00414904
X00051592Y00415094
X00051392Y00404708
X0005125Y00393921
X00061892Y00394015
X00064615Y00285278
X00057584Y00285466
X00057384Y00275079
X00065128Y00274986
X00071884Y00274869
X00072217Y00264607
X00064938Y00264292
X00057485Y0026418
X00072217Y00285466
X00071646Y00524624
X00071313Y00534886
X00061133Y00535287
X00061191Y00545295
X00071646Y00545483
X00050642Y00545673
X00050442Y00535287
X000503Y005245
X00060942Y00524594
X00187752Y00528523
X00197861Y00533547
X00215763Y00516781
X00222842Y00516735
X00223032Y00507754
X00214955Y00507944
T03
X00069474Y00020617
X00103241Y00022088
X00143309Y00301013
X00144112Y00329451
X00344467Y00231981
X00345067Y00197874
T04
X00178552Y00040099
X00711952
Y00573499
X00178552
M30
