%TF.GenerationSoftware,Altium Limited,Altium Designer,25.7.1 (20)*%
G04 Layer_Physical_Order=6*
G04 Layer_Color=16711680*
%FSLAX45Y45*%
%MOMM*%
%TF.SameCoordinates,1AA72D45-9F13-4BD8-B423-63960E99F270*%
%TF.FilePolarity,Positive*%
%TF.FileFunction,Copper,L6,Bot,Signal*%
%TF.Part,Single*%
G01*
G75*
%TA.AperFunction,SMDPad,CuDef*%
%ADD23R,0.30480X0.30480*%
%ADD41R,0.45720X0.60960*%
%ADD50R,0.45720X0.50800*%
%ADD51R,0.50800X0.45720*%
%ADD52R,0.99060X0.81280*%
%ADD53R,0.81280X0.99060*%
%ADD55R,0.30480X0.30480*%
%ADD58R,0.60960X0.45720*%
%TA.AperFunction,Conductor*%
%ADD60C,0.20320*%
%ADD61C,0.08128*%
%ADD62C,0.11176*%
%ADD63C,0.25400*%
%ADD64C,0.38100*%
%ADD65C,0.30480*%
%ADD66C,0.08636*%
%ADD69C,0.10414*%
%ADD70C,0.50800*%
%ADD71C,0.09144*%
%ADD73C,0.11684*%
%ADD75C,0.10160*%
%ADD76C,0.45720*%
%TA.AperFunction,ComponentPad*%
%ADD77C,4.40004*%
%TA.AperFunction,ViaPad*%
%ADD78C,0.40640*%
%ADD79C,0.50800*%
%TA.AperFunction,TestPad*%
%ADD80C,1.42240*%
%ADD81C,0.40640*%
%TA.AperFunction,SMDPad,CuDef*%
%ADD85R,0.68580X0.20320*%
%ADD86R,0.68580X0.35560*%
%ADD87R,0.35560X0.68580*%
%ADD88R,0.20320X0.68580*%
%ADD89C,1.52400*%
%TA.AperFunction,Conductor*%
%ADD90C,0.15240*%
%TA.AperFunction,NonConductor*%
%ADD91C,0.12700*%
G36*
X5426136Y6052525D02*
X5426182Y6049157D01*
X5424671Y6038851D01*
X5421097Y6036462D01*
X5415059Y6030425D01*
X5413850Y6030925D01*
X5401724D01*
X5390521Y6026285D01*
X5381947Y6017711D01*
X5381409Y6016411D01*
X5375329Y6007134D01*
X5366078Y6010060D01*
X5363659Y6011062D01*
X5351534D01*
X5340331Y6006422D01*
X5334887Y6000979D01*
X5320387D01*
X5313318Y6008048D01*
X5302115Y6012688D01*
X5289990D01*
X5278787Y6008048D01*
X5271718Y6000979D01*
X5197299D01*
X5190306Y6007971D01*
X5179103Y6012612D01*
X5166977D01*
X5164277Y6011493D01*
X5152768Y6012753D01*
X5149438Y6018047D01*
X5146937Y6024086D01*
X5138363Y6032660D01*
X5127160Y6037301D01*
X5115034D01*
X5103832Y6032660D01*
X5095258Y6024087D01*
X5085074Y6029841D01*
X5073871Y6034481D01*
X5061745D01*
X5050542Y6029841D01*
X5041968Y6021267D01*
X5031607Y6026082D01*
X5020404Y6030722D01*
X5008278D01*
X4997075Y6026082D01*
X4995688Y6024695D01*
X4987624Y6018178D01*
X4979095Y6024695D01*
X4977936Y6025853D01*
X4966734Y6030493D01*
X4954608D01*
X4943405Y6025853D01*
X4934831Y6017279D01*
X4930191Y6006076D01*
Y6000979D01*
X4885627D01*
X4857242Y6029364D01*
X4857902Y6030958D01*
Y6043084D01*
X4856153Y6047308D01*
X4864134Y6060008D01*
X5420050D01*
X5426136Y6052525D01*
D02*
G37*
G36*
X7322922Y5883521D02*
X7310222Y5878977D01*
X7289164Y5904635D01*
X7252808Y5934472D01*
X7211330Y5956643D01*
X7166323Y5970295D01*
X7119518Y5974905D01*
X7072713Y5970295D01*
X7027707Y5956643D01*
X6986229Y5934472D01*
X6949873Y5904635D01*
X6920036Y5868280D01*
X6897866Y5826801D01*
X6884213Y5781795D01*
X6879603Y5734990D01*
X6884213Y5688185D01*
X6897866Y5643178D01*
X6920036Y5601700D01*
X6949873Y5565344D01*
X6986229Y5535508D01*
X7027707Y5513337D01*
X7072713Y5499684D01*
X7119518Y5495075D01*
X7166323Y5499684D01*
X7211330Y5513337D01*
X7252808Y5535508D01*
X7289164Y5565344D01*
X7310222Y5591003D01*
X7322922Y5586458D01*
Y4589272D01*
X6976830D01*
X6968834Y4601972D01*
X6970573Y4606171D01*
Y4618296D01*
X6965932Y4629499D01*
X6957358Y4638073D01*
X6946156Y4642714D01*
X6934030D01*
X6922827Y4638073D01*
X6914253Y4629499D01*
X6909613Y4618296D01*
Y4606171D01*
X6911352Y4601972D01*
X6903356Y4589272D01*
X6872872D01*
X6864274Y4601701D01*
Y4613826D01*
X6859633Y4625029D01*
X6851059Y4633603D01*
X6839857Y4638243D01*
X6827731D01*
X6816528Y4633603D01*
X6807954Y4625029D01*
X6803314Y4613826D01*
Y4601701D01*
X6794715Y4589272D01*
X6685509D01*
X6541795Y4445559D01*
Y4418355D01*
X6417488D01*
X6332017Y4503826D01*
X6136251D01*
X6127723Y4513237D01*
X6129462Y4530896D01*
X6126179Y4564224D01*
X6116458Y4596271D01*
X6100671Y4625805D01*
X6079426Y4651693D01*
X6053538Y4672938D01*
X6024004Y4688725D01*
X5991957Y4698446D01*
X5958629Y4701729D01*
X5925301Y4698446D01*
X5893254Y4688725D01*
X5863719Y4672938D01*
X5837831Y4651693D01*
X5816586Y4625805D01*
X5800799Y4596271D01*
X5791078Y4564224D01*
X5787796Y4530896D01*
X5791078Y4497568D01*
X5800799Y4465521D01*
X5816586Y4435986D01*
X5837831Y4410098D01*
X5863719Y4388853D01*
X5893254Y4373066D01*
X5925301Y4363345D01*
X5958629Y4360063D01*
X5965229Y4360713D01*
X5974639Y4352184D01*
Y4329024D01*
X5912485Y4266870D01*
X5807608D01*
X5683326Y4391152D01*
X5543474D01*
X5407508Y4527118D01*
Y5055387D01*
X5520157Y5168036D01*
X5850331D01*
X6056224Y5373929D01*
Y5850839D01*
X5906084Y6000979D01*
X5623866D01*
X5616467Y6008378D01*
X5605264Y6013018D01*
X5593139D01*
X5581936Y6008378D01*
X5578250Y6004692D01*
X5564309Y6006307D01*
X5555736Y6014880D01*
X5544533Y6019521D01*
X5532407D01*
X5521204Y6014880D01*
X5512630Y6006306D01*
X5510424Y6000979D01*
X5478577D01*
Y6050508D01*
X5486303Y6060008D01*
X7322922D01*
Y5883521D01*
D02*
G37*
G36*
X4315596Y6047308D02*
X4314393Y6044405D01*
Y6032279D01*
X4319034Y6021076D01*
X4323151Y6016959D01*
X4327579Y6012416D01*
X4323764Y6000979D01*
X4303827D01*
X4071518Y5768670D01*
X3916629D01*
X3899510Y5785790D01*
X3306039D01*
X3278835Y5812993D01*
X2849120D01*
X2843378Y5821587D01*
Y5833712D01*
X2838737Y5844915D01*
X2830163Y5853489D01*
X2818960Y5858129D01*
X2806835D01*
X2795632Y5853489D01*
X2787058Y5844915D01*
X2782418Y5833712D01*
Y5821587D01*
X2776676Y5812993D01*
X2305533D01*
Y5813112D01*
X2300892Y5824315D01*
X2292318Y5832889D01*
X2281115Y5837530D01*
X2268990D01*
X2257787Y5832889D01*
X2249213Y5824315D01*
X2244573Y5813112D01*
Y5812993D01*
X2198980D01*
X2012853Y5626867D01*
X2002541Y5634515D01*
X2007171Y5643178D01*
X2020824Y5688185D01*
X2025434Y5734990D01*
X2020824Y5781795D01*
X2007171Y5826801D01*
X1985001Y5868280D01*
X1955164Y5904635D01*
X1918808Y5934472D01*
X1877330Y5956643D01*
X1832323Y5970295D01*
X1785518Y5974905D01*
X1738713Y5970295D01*
X1693707Y5956643D01*
X1652229Y5934472D01*
X1615873Y5904635D01*
X1586036Y5868280D01*
X1563866Y5826801D01*
X1550213Y5781795D01*
X1545603Y5734990D01*
X1550213Y5688185D01*
X1563866Y5643178D01*
X1586036Y5601700D01*
X1615873Y5565344D01*
X1652229Y5535508D01*
X1693707Y5513337D01*
X1738713Y5499684D01*
X1785518Y5495075D01*
X1832323Y5499684D01*
X1877330Y5513337D01*
X1885993Y5517968D01*
X1893642Y5507655D01*
X1845488Y5459501D01*
X1368476D01*
X837108Y5990869D01*
X831899Y5994350D01*
X825754Y5995572D01*
X377342D01*
X371198Y5994350D01*
X365989Y5990869D01*
X124384Y5749265D01*
X120903Y5744056D01*
X119681Y5737911D01*
Y5259706D01*
X118472Y5259205D01*
X109898Y5250631D01*
X105258Y5239428D01*
Y5227302D01*
X109898Y5216100D01*
X118472Y5207526D01*
X129675Y5202885D01*
X141800D01*
X153003Y5207526D01*
X161577Y5216100D01*
X166218Y5227302D01*
Y5239428D01*
X161577Y5250631D01*
X153003Y5259205D01*
X151794Y5259706D01*
Y5731260D01*
X382017Y5961483D01*
X389602Y5960436D01*
X393205Y5947119D01*
X388231Y5942146D01*
X383591Y5930943D01*
Y5918817D01*
X388231Y5907615D01*
X396805Y5899041D01*
X408008Y5894400D01*
X420134D01*
X431336Y5899041D01*
X439910Y5907615D01*
X444551Y5918817D01*
Y5930943D01*
X439910Y5942146D01*
X431336Y5950720D01*
X431242Y5950759D01*
X433768Y5963459D01*
X625538D01*
X633775Y5950759D01*
X632206Y5946970D01*
Y5934845D01*
X636846Y5923642D01*
X645420Y5915068D01*
X653042Y5911911D01*
Y5843601D01*
X653042Y5843600D01*
X654619Y5835672D01*
X659110Y5828950D01*
X713266Y5774795D01*
Y5520107D01*
X713266Y5520106D01*
X714843Y5512177D01*
X719334Y5505456D01*
X862686Y5362104D01*
Y5337175D01*
X1326896Y4872965D01*
Y4616602D01*
X1284173Y4573880D01*
X740322D01*
X739157Y4575045D01*
Y4610586D01*
X740348Y4611776D01*
X747590D01*
X758793Y4616417D01*
X767367Y4624991D01*
X772008Y4636194D01*
Y4648319D01*
X767367Y4659522D01*
X758793Y4668096D01*
X747590Y4672736D01*
X735465D01*
X724262Y4668096D01*
X724233Y4668067D01*
X711258Y4666203D01*
X702685Y4674776D01*
X691482Y4679417D01*
X679356D01*
X668153Y4674776D01*
X659579Y4666202D01*
X654939Y4654999D01*
Y4642874D01*
X659579Y4631671D01*
X664701Y4626549D01*
Y4552773D01*
X664701Y4552772D01*
X666278Y4544844D01*
X670769Y4538122D01*
X675074Y4533817D01*
X536397Y4395140D01*
X229514D01*
X49479Y4575175D01*
Y6060008D01*
X4307110D01*
X4315596Y6047308D01*
D02*
G37*
G36*
X3313963Y4345356D02*
Y4334231D01*
X3283560D01*
Y4268191D01*
X3293322D01*
Y4239955D01*
X3285702Y4238439D01*
X3284228Y4241997D01*
X3275654Y4250571D01*
X3264451Y4255211D01*
X3252325D01*
X3241123Y4250571D01*
X3232549Y4241997D01*
X3232332Y4241475D01*
X3223328Y4239649D01*
X3221804Y4241150D01*
Y4269791D01*
X3231566D01*
Y4335831D01*
X3170606D01*
Y4328211D01*
X3148990D01*
Y4277411D01*
X3170606D01*
Y4269791D01*
X3180368D01*
Y4252339D01*
X3176099Y4250571D01*
X3167525Y4241997D01*
X3162884Y4230794D01*
Y4218668D01*
X3167525Y4207466D01*
X3176099Y4198892D01*
X3187301Y4194251D01*
X3199427D01*
X3210630Y4198892D01*
X3219204Y4207466D01*
X3221752Y4213618D01*
X3230000D01*
X3232549Y4207466D01*
X3241123Y4198892D01*
X3252325Y4194251D01*
X3264451D01*
X3275654Y4198892D01*
X3284228Y4207466D01*
X3286776Y4213618D01*
X3295024D01*
X3297573Y4207466D01*
X3306147Y4198892D01*
X3313963Y4195654D01*
Y4093789D01*
X3306147Y4090551D01*
X3297573Y4081977D01*
X3292932Y4070774D01*
Y4058648D01*
X3297573Y4047446D01*
X3306147Y4038872D01*
X3313963Y4035634D01*
Y3636086D01*
X3358360Y3591689D01*
X3357956Y3590714D01*
Y3578588D01*
X3362597Y3567386D01*
X3371171Y3558812D01*
X3382373Y3554171D01*
X3394499D01*
X3395474Y3554575D01*
X3396082Y3553968D01*
X3449955D01*
X3493643Y3510280D01*
X3617747D01*
Y3503176D01*
X3622388Y3491973D01*
X3630962Y3483399D01*
X3642165Y3478759D01*
X3654290D01*
X3665493Y3483399D01*
X3674067Y3491973D01*
X3678707Y3503176D01*
Y3510419D01*
X3682582Y3514293D01*
X3709010D01*
Y3517163D01*
X3719551D01*
Y3553333D01*
X3722337D01*
X3733540Y3557973D01*
X3742114Y3566547D01*
X3746754Y3577750D01*
Y3589876D01*
X3742114Y3601079D01*
X3733540Y3609653D01*
X3726790Y3612449D01*
Y3635705D01*
X3734199D01*
X3745401Y3640346D01*
X3753975Y3648920D01*
X3756370Y3654700D01*
X3764618D01*
X3766380Y3650444D01*
X3774954Y3641870D01*
X3786157Y3637229D01*
X3786835D01*
Y3598850D01*
X3832555D01*
Y3601720D01*
X3840226D01*
Y3598850D01*
X3885946D01*
Y3644570D01*
X3885946Y3644570D01*
X3887395Y3651590D01*
X3890340Y3658700D01*
Y3670826D01*
X3885700Y3682028D01*
X3877126Y3690602D01*
X3865923Y3695243D01*
X3853797D01*
X3842595Y3690602D01*
X3834021Y3682028D01*
X3830320Y3673095D01*
X3824095Y3673648D01*
X3822526Y3674191D01*
X3818060Y3684975D01*
X3809486Y3693549D01*
X3798283Y3698189D01*
X3786157D01*
X3774954Y3693549D01*
X3766380Y3684975D01*
X3763986Y3679195D01*
X3755738D01*
X3753975Y3683451D01*
X3745401Y3692025D01*
X3734199Y3696665D01*
X3726790D01*
Y3792677D01*
X3734199D01*
X3745401Y3797318D01*
X3753975Y3805892D01*
X3755738Y3810148D01*
X3763986D01*
X3766380Y3804368D01*
X3769517Y3801230D01*
X3771925Y3794608D01*
X3771925Y3794607D01*
X3771925D01*
X3771925Y3794607D01*
Y3748888D01*
X3817645D01*
Y3751758D01*
X3825316D01*
Y3748888D01*
X3871036D01*
Y3791845D01*
X3878116Y3794778D01*
X3886690Y3803352D01*
X3891331Y3814554D01*
Y3826680D01*
X3886690Y3837883D01*
X3878116Y3846457D01*
X3866914Y3851097D01*
X3854788D01*
X3843585Y3846457D01*
X3835011Y3837883D01*
X3830371Y3826680D01*
Y3825742D01*
X3830320Y3825704D01*
X3827329Y3826486D01*
X3822116Y3829106D01*
X3818060Y3838899D01*
X3809486Y3847473D01*
X3798283Y3852113D01*
X3786157D01*
X3774954Y3847473D01*
X3766380Y3838899D01*
X3764618Y3834643D01*
X3756370D01*
X3753975Y3840423D01*
X3745401Y3848997D01*
X3734199Y3853637D01*
X3726790D01*
Y3878705D01*
X3732295Y3880985D01*
X3740869Y3889559D01*
X3745509Y3900762D01*
Y3912888D01*
X3740869Y3924090D01*
X3732295Y3932664D01*
X3726790Y3934945D01*
Y4114890D01*
X3736181Y4118780D01*
X3742577Y4125176D01*
X3747219Y4126643D01*
X3752123Y4125228D01*
X3758444Y4118907D01*
X3769647Y4114267D01*
X3781773D01*
X3792976Y4118907D01*
X3801550Y4127481D01*
X3803869Y4133081D01*
X3812117D01*
X3815047Y4126008D01*
X3823621Y4117434D01*
X3834824Y4112793D01*
X3846949D01*
X3858152Y4117434D01*
X3866726Y4126008D01*
X3871366Y4137211D01*
Y4149336D01*
X3866726Y4160539D01*
X3858152Y4169113D01*
X3846949Y4173753D01*
X3843322D01*
Y4267403D01*
X3842410Y4269605D01*
Y4296537D01*
X3875559D01*
X3879207Y4287730D01*
X3887781Y4279156D01*
X3898984Y4274515D01*
X3911109D01*
X3916604Y4268543D01*
Y4101338D01*
X3941117Y4076824D01*
X3939032Y4071790D01*
Y4059664D01*
X3943672Y4048462D01*
X3952246Y4039888D01*
X3963449Y4035247D01*
X3965423D01*
Y4012491D01*
X3959917Y4010211D01*
X3951343Y4001637D01*
X3946703Y3990434D01*
Y3978308D01*
X3951343Y3967105D01*
X3959917Y3958531D01*
X3965423Y3956251D01*
Y3895268D01*
X4005174Y3855517D01*
Y3627755D01*
X3936492Y3559073D01*
Y3520443D01*
X3928872Y3518927D01*
X3928753Y3519214D01*
X3920179Y3527788D01*
X3908976Y3532429D01*
X3896850D01*
X3885648Y3527788D01*
X3877074Y3519214D01*
X3872433Y3508012D01*
Y3495886D01*
X3877074Y3484683D01*
X3885648Y3476109D01*
X3896850Y3471469D01*
X3908976D01*
X3920179Y3476109D01*
X3928753Y3484683D01*
X3928872Y3484971D01*
X3936492Y3483455D01*
Y3284550D01*
X3934925D01*
X3923722Y3279910D01*
X3915148Y3271336D01*
X3910508Y3260133D01*
Y3248007D01*
X3915148Y3236805D01*
X3923722Y3228231D01*
X3934925Y3223590D01*
X3936492D01*
Y3194628D01*
X3935627Y3194228D01*
X3925925Y3198014D01*
X3925044Y3200140D01*
X3916470Y3208714D01*
X3905268Y3213354D01*
X3893142D01*
X3881939Y3208714D01*
X3873365Y3200140D01*
X3868725Y3188937D01*
Y3176811D01*
X3870028Y3173665D01*
X3865794Y3167329D01*
X3804246D01*
X3801364Y3173755D01*
X3801364Y3174949D01*
Y3183915D01*
X3820439D01*
Y3234715D01*
X3801364D01*
Y3244875D01*
X3801364Y3244875D01*
X3801365D01*
X3801364Y3244876D01*
X3804023Y3251394D01*
X3807315Y3254686D01*
X3811956Y3265889D01*
Y3278015D01*
X3807315Y3289217D01*
X3798741Y3297791D01*
X3787539Y3302432D01*
X3775413D01*
X3764210Y3297791D01*
X3755636Y3289217D01*
X3750996Y3278015D01*
X3743620Y3278606D01*
X3742087Y3278958D01*
X3739142Y3286068D01*
X3730568Y3294642D01*
X3719365Y3299282D01*
X3707239D01*
X3696037Y3294642D01*
X3687463Y3286068D01*
X3684427Y3278739D01*
X3676179D01*
X3673407Y3285433D01*
X3664833Y3294007D01*
X3653630Y3298647D01*
X3641504D01*
X3630301Y3294007D01*
X3621727Y3285433D01*
X3618819Y3278410D01*
X3610682Y3278680D01*
X3607138Y3287236D01*
X3598564Y3295810D01*
X3587361Y3300451D01*
X3575236D01*
X3564033Y3295810D01*
X3555459Y3287236D01*
X3550818Y3276033D01*
Y3263908D01*
X3553749Y3256833D01*
Y3246958D01*
X3544037D01*
Y3175838D01*
X3610077D01*
Y3185998D01*
X3619017D01*
Y3175838D01*
X3685057D01*
Y3243165D01*
X3692677Y3246322D01*
X3696037Y3242963D01*
X3707239Y3238322D01*
X3719365D01*
X3727704Y3241776D01*
X3734643Y3238121D01*
X3735324Y3237313D01*
Y3174949D01*
X3735324Y3173755D01*
X3732442Y3167329D01*
X3240047D01*
X3236087Y3173256D01*
Y3185381D01*
X3231447Y3196584D01*
X3222873Y3205158D01*
X3211670Y3209798D01*
X3199544D01*
X3188341Y3205158D01*
X3179767Y3196584D01*
X3175127Y3185381D01*
Y3173256D01*
X3171167Y3167329D01*
X2339277D01*
X2101266Y3405341D01*
Y3684143D01*
X2120544Y3703422D01*
X2518639D01*
X2616657Y3801440D01*
Y4260037D01*
X2779674Y4423054D01*
X3236265D01*
X3313963Y4345356D01*
D02*
G37*
G36*
X6266104Y4432605D02*
Y4190543D01*
X5826938Y3751377D01*
X5630041D01*
X5625381Y3753307D01*
X5613255D01*
X5608595Y3751377D01*
X5528513D01*
X5503139Y3776751D01*
Y3841344D01*
X5508169Y3846374D01*
X5513959Y3850792D01*
X5545929D01*
X5549086Y3843172D01*
X5545015Y3839102D01*
X5540375Y3827899D01*
Y3815774D01*
X5545015Y3804571D01*
X5553589Y3795997D01*
X5564792Y3791356D01*
X5576918D01*
X5588121Y3795997D01*
X5589257Y3797133D01*
X5599332Y3796431D01*
X5604212Y3791552D01*
X5615414Y3786911D01*
X5627540D01*
X5638743Y3791552D01*
X5644124Y3796933D01*
X5653712Y3797169D01*
X5655062Y3795819D01*
X5666265Y3791179D01*
X5678391D01*
X5689594Y3795819D01*
X5698168Y3804393D01*
X5698447Y3805066D01*
X5705476Y3807383D01*
X5705475Y3807384D01*
X5705476Y3807384D01*
X5745455D01*
Y3817925D01*
X5748325D01*
Y3863645D01*
X5702605D01*
Y3861503D01*
X5691454D01*
X5683526Y3859926D01*
X5679315Y3857112D01*
X5674458Y3863031D01*
X6032442Y4221015D01*
X6039915Y4219529D01*
X6040493Y4218134D01*
X6049067Y4209560D01*
X6060270Y4204919D01*
X6072396D01*
X6083598Y4209560D01*
X6092172Y4218134D01*
X6096813Y4229336D01*
Y4241462D01*
X6092172Y4252665D01*
X6083598Y4261239D01*
X6072396Y4265879D01*
X6060270D01*
X6056540Y4264334D01*
X6050204Y4268568D01*
Y4387071D01*
X6053538Y4388853D01*
X6079426Y4410098D01*
X6100671Y4435986D01*
X6111096Y4455490D01*
X6243218D01*
X6266104Y4432605D01*
D02*
G37*
G36*
X5293512Y4026560D02*
Y3988105D01*
X5292115D01*
Y3985235D01*
X5281574D01*
Y3945255D01*
X5292115D01*
Y3942385D01*
X5292986D01*
Y3934663D01*
X5278425D01*
Y3906921D01*
X5276952Y3905595D01*
X5269332Y3908989D01*
Y3926408D01*
X5223612D01*
Y3923538D01*
X5213071D01*
Y3883558D01*
X5223612D01*
Y3880688D01*
X5238586D01*
Y3876370D01*
X5242193Y3867664D01*
X5241366Y3865669D01*
Y3853543D01*
X5246007Y3842341D01*
X5254581Y3833767D01*
X5265783Y3829126D01*
X5277909D01*
X5289112Y3833767D01*
X5297686Y3842341D01*
X5302326Y3853543D01*
Y3865669D01*
X5300377Y3870374D01*
X5314103Y3884100D01*
X5317339Y3888943D01*
X5324145D01*
Y3891813D01*
X5334686D01*
Y3931793D01*
X5339661Y3937352D01*
X5347640Y3945331D01*
Y3979342D01*
X5353939Y3985641D01*
X5386045D01*
X5390032Y3981653D01*
Y3947871D01*
X5390032D01*
X5389835Y3940333D01*
X5382895Y3933393D01*
Y3902558D01*
X5394858Y3890594D01*
Y3840913D01*
X5391091Y3837146D01*
X5389743Y3833892D01*
X5388559Y3832708D01*
Y3831033D01*
X5386451Y3825943D01*
Y3813818D01*
X5387807Y3810544D01*
X5379288Y3802024D01*
X5350332D01*
Y3798722D01*
X5340934D01*
Y3802278D01*
X5300955D01*
Y3798722D01*
X5299177D01*
X5289118Y3788664D01*
Y3705581D01*
X5281414Y3697876D01*
X5277960Y3699307D01*
X5265834D01*
X5258231Y3696158D01*
X5249469Y3704920D01*
Y3733241D01*
X5242378Y3740332D01*
X5240528Y3747186D01*
X5240529Y3747186D01*
X5240528D01*
X5240528Y3747186D01*
Y3797986D01*
X5234457D01*
X5223662Y3808781D01*
X5170170D01*
X5158765Y3820185D01*
Y3823988D01*
X5154125Y3835190D01*
X5151272Y3838043D01*
Y3891864D01*
X5166385Y3906977D01*
Y3940251D01*
X5174386D01*
Y3990637D01*
X5184565Y3994853D01*
X5185437Y3995725D01*
X5219878D01*
X5255743Y4031590D01*
X5288483D01*
X5293512Y4026560D01*
D02*
G37*
G36*
X5096129Y3928110D02*
Y3887292D01*
X5089703D01*
Y3847313D01*
X5096129D01*
Y3761613D01*
X5091709Y3757193D01*
X5076952D01*
X5076469Y3757676D01*
X5061737D01*
X5050434Y3746373D01*
Y3732684D01*
X5050104Y3731887D01*
Y3719762D01*
X5050434Y3718964D01*
Y3709543D01*
X5067630Y3692347D01*
X5103774D01*
Y3688969D01*
X5136820D01*
X5141798Y3683991D01*
Y3654527D01*
X5131994Y3644722D01*
X5093667D01*
X5093557Y3644832D01*
X5082354Y3649472D01*
X5070229D01*
X5059927Y3645205D01*
X5053889D01*
X5037684Y3629000D01*
Y3600018D01*
X5034255Y3596589D01*
X4986634D01*
X4980196Y3599256D01*
X4968070D01*
X4956867Y3594616D01*
X4948293Y3586042D01*
X4943653Y3574839D01*
Y3562713D01*
X4945455Y3558361D01*
X4937023Y3549929D01*
X4912436D01*
X4905553Y3556813D01*
Y3585769D01*
X4914392Y3594608D01*
X4926178D01*
X4928791Y3597221D01*
X4937119Y3600671D01*
X4945693Y3609245D01*
X4950333Y3620448D01*
Y3632573D01*
X4948784Y3636314D01*
Y3639312D01*
X4957674Y3648202D01*
X4987036D01*
Y3649624D01*
X4993970D01*
X4995418Y3651072D01*
X4997577D01*
Y3653231D01*
X4998390Y3654044D01*
Y3697730D01*
X4998779Y3698119D01*
X5003419Y3709322D01*
Y3721448D01*
X4998779Y3732651D01*
X4998390Y3733040D01*
Y3736650D01*
X4998390Y3739490D01*
X4998009Y3744112D01*
X4998009Y3744113D01*
Y3794912D01*
X4998009Y3794912D01*
X4998009D01*
X5002388Y3800485D01*
X5003800Y3801897D01*
Y3807396D01*
X5006365Y3813589D01*
Y3825715D01*
X5003800Y3831908D01*
Y3838245D01*
X5011649Y3846093D01*
X5041621D01*
X5053406Y3857879D01*
Y3901228D01*
X5057064Y3910058D01*
Y3922184D01*
X5053818Y3930020D01*
X5059782Y3935984D01*
X5088255D01*
X5096129Y3928110D01*
D02*
G37*
G36*
X6390411Y3205963D02*
Y2792146D01*
X6565392Y2617165D01*
X6607937D01*
X6624269Y2600833D01*
X6715023D01*
X6724040Y2591816D01*
Y2564765D01*
X6635369D01*
Y2559939D01*
X6416523D01*
X6228486Y2747975D01*
Y3160979D01*
X5804078Y3585388D01*
X5690638D01*
X5689122Y3593008D01*
X5689594Y3593203D01*
X5698168Y3601777D01*
X5702808Y3612980D01*
Y3625106D01*
X5698168Y3636308D01*
X5689594Y3644882D01*
X5678391Y3649523D01*
X5666265D01*
X5655062Y3644882D01*
X5651599Y3641419D01*
X5642795Y3642760D01*
X5634222Y3651334D01*
X5623019Y3655974D01*
X5610893D01*
X5599690Y3651334D01*
X5591988Y3643632D01*
X5583422Y3652198D01*
X5572219Y3656838D01*
X5560093D01*
X5548890Y3652198D01*
X5546165Y3649473D01*
X5507228Y3688410D01*
Y3732555D01*
X5512381Y3737709D01*
X5518793Y3741656D01*
X5528513Y3737630D01*
X5528514Y3737630D01*
X5535194D01*
X5540285Y3730010D01*
X5538191Y3724953D01*
Y3712827D01*
X5542831Y3701625D01*
X5551405Y3693051D01*
X5562608Y3688410D01*
X5574733D01*
X5585936Y3693051D01*
X5590575Y3697689D01*
X5600750Y3698291D01*
X5602053Y3696988D01*
X5613255Y3692347D01*
X5625381D01*
X5636584Y3696988D01*
X5639396Y3699800D01*
X5646488Y3702589D01*
X5649315Y3699763D01*
X5655062Y3694016D01*
X5666265Y3689375D01*
X5678391D01*
X5689594Y3694016D01*
X5692318Y3696740D01*
X5699938Y3693583D01*
Y3689883D01*
X5739917D01*
Y3700424D01*
X5742788D01*
Y3737630D01*
X5826938D01*
X5836658Y3741656D01*
X5836658Y3741657D01*
X5837387Y3742385D01*
X5853989D01*
X6390411Y3205963D01*
D02*
G37*
G36*
X5306085Y3683254D02*
X5327599D01*
X5342001Y3668852D01*
Y3662764D01*
X5346641Y3651561D01*
X5348580Y3649623D01*
Y3637231D01*
X5346641Y3635292D01*
X5342001Y3624090D01*
Y3611964D01*
X5346641Y3600761D01*
X5348580Y3598823D01*
Y3530205D01*
X5344363Y3520026D01*
Y3507900D01*
X5348580Y3497721D01*
Y3478876D01*
X5344414Y3468819D01*
Y3456694D01*
X5348580Y3446637D01*
Y2901747D01*
X4825213Y2378380D01*
X4406519D01*
X4056532Y2728366D01*
X2116773D01*
X1605932Y3239208D01*
Y3432700D01*
X1613052Y3439820D01*
X1649044D01*
X2141792Y2947072D01*
X2140762Y2942860D01*
X2132398Y2939410D01*
X2131771Y2939848D01*
X2127294Y2944325D01*
X2116092Y2948965D01*
X2103966D01*
X2092763Y2944325D01*
X2084189Y2935751D01*
X2079549Y2924548D01*
Y2912423D01*
X2084189Y2901220D01*
X2092763Y2892646D01*
X2103966Y2888005D01*
X2116092D01*
X2127294Y2892646D01*
X2131771Y2897123D01*
X2136750Y2900604D01*
X2141728Y2897123D01*
X2146205Y2892646D01*
X2157408Y2888005D01*
X2169533D01*
X2180736Y2892646D01*
X2188477Y2900387D01*
X2264004Y2824861D01*
X4367225D01*
X4537759Y2995395D01*
X4552704Y2990861D01*
X4586029Y2987579D01*
X4619353Y2990861D01*
X4651398Y3000582D01*
X4680929Y3016367D01*
X4706815Y3037610D01*
X4728058Y3063495D01*
X4743843Y3093027D01*
X4753563Y3125071D01*
X4756845Y3158396D01*
X4753563Y3191720D01*
X4749030Y3206665D01*
X4978959Y3436595D01*
X4978976D01*
X4990179Y3441235D01*
X4998753Y3449809D01*
X5003394Y3461012D01*
Y3461029D01*
X5026355Y3483991D01*
X5100904D01*
Y3482848D01*
X5121758Y3461995D01*
Y3447988D01*
X5114067Y3440297D01*
X5110847Y3435477D01*
X5105857D01*
Y3432607D01*
X5095316D01*
Y3392627D01*
X5105857D01*
Y3389757D01*
X5121758D01*
Y3311271D01*
X4512640Y2702154D01*
Y2480310D01*
X4565345Y2427605D01*
X4646219D01*
X4663389Y2444775D01*
Y2493772D01*
X4600880Y2556281D01*
Y2607793D01*
X5267604Y3274517D01*
Y3479094D01*
X5271931Y3481984D01*
X5284056D01*
X5295259Y3486625D01*
X5303833Y3495199D01*
X5308473Y3506402D01*
Y3518527D01*
X5303833Y3529730D01*
X5295259Y3538304D01*
X5295211Y3538545D01*
X5302664Y3545999D01*
X5307305Y3557202D01*
Y3569327D01*
X5302664Y3580530D01*
X5294746Y3588448D01*
X5303096Y3596799D01*
X5307736Y3608002D01*
Y3620127D01*
X5303096Y3631330D01*
X5294522Y3639904D01*
X5283319Y3644544D01*
X5271194D01*
X5265420Y3642153D01*
X5257800Y3647245D01*
Y3674542D01*
X5256971Y3675371D01*
X5259982Y3683136D01*
X5260758Y3683457D01*
X5263492D01*
X5268569Y3685560D01*
X5275225D01*
X5276153Y3685176D01*
X5278888Y3685176D01*
X5281414Y3684130D01*
X5283939Y3685176D01*
X5286674Y3685176D01*
X5288608Y3687109D01*
X5289847Y3687623D01*
X5306085D01*
Y3683254D01*
D02*
G37*
G36*
X5497508Y3678690D02*
X5497508Y3678690D01*
X5536445Y3639752D01*
X5538381Y3638951D01*
X5535676Y3632421D01*
Y3620295D01*
X5540316Y3609092D01*
X5546427Y3602982D01*
X5546742Y3593788D01*
X5546108Y3593154D01*
X5541467Y3581951D01*
Y3569825D01*
X5546108Y3558623D01*
X5554682Y3550049D01*
X5555546Y3549691D01*
X5557334Y3540702D01*
X5553321Y3536690D01*
X5548681Y3525487D01*
Y3513361D01*
X5553321Y3502158D01*
X5561895Y3493585D01*
X5562373Y3491182D01*
X5557207Y3486017D01*
X5552567Y3474814D01*
Y3462688D01*
X5557207Y3451485D01*
X5558754Y3449938D01*
X5559929Y3447802D01*
X5557054Y3440862D01*
X5551627D01*
Y3400882D01*
X5562168D01*
Y3398012D01*
X5607888D01*
Y3443732D01*
X5607888D01*
X5608500Y3451099D01*
X5608887Y3451485D01*
X5613527Y3462688D01*
Y3474814D01*
X5608887Y3486017D01*
X5600313Y3494590D01*
X5599835Y3496993D01*
X5605000Y3502158D01*
X5609641Y3513361D01*
Y3525487D01*
X5605000Y3536690D01*
X5596426Y3545264D01*
X5595562Y3545622D01*
X5593774Y3554610D01*
X5597787Y3558623D01*
X5601337Y3567193D01*
X5609467Y3569839D01*
X5620080Y3559226D01*
X5646572D01*
X5648033Y3556323D01*
X5648908Y3551606D01*
X5641332Y3544030D01*
X5636692Y3532827D01*
Y3520702D01*
X5641332Y3509499D01*
X5649906Y3500925D01*
X5650726Y3500585D01*
X5652289Y3491690D01*
X5646996Y3486398D01*
X5642356Y3475195D01*
Y3463069D01*
X5646996Y3451866D01*
X5655570Y3443292D01*
X5666773Y3438652D01*
X5678899D01*
X5690102Y3443292D01*
X5698676Y3451866D01*
X5703316Y3463069D01*
Y3475195D01*
X5698676Y3486398D01*
X5690102Y3494972D01*
X5689282Y3495311D01*
X5687719Y3504207D01*
X5693011Y3509499D01*
X5697652Y3520702D01*
Y3532827D01*
X5693011Y3544030D01*
X5685436Y3551606D01*
X5686310Y3556323D01*
X5687772Y3559226D01*
X5810799D01*
X6210478Y3159547D01*
Y2694026D01*
X5991327Y2474874D01*
X5412334D01*
X5153939Y2216480D01*
X4414672D01*
X4372991Y2258162D01*
Y2319477D01*
X4393438Y2339924D01*
X4901209D01*
X4934763Y2373478D01*
X5454879Y2893593D01*
Y3077665D01*
X5471620Y3079869D01*
X5491227Y3087991D01*
X5508064Y3100910D01*
X5520984Y3117747D01*
X5529106Y3137354D01*
X5531876Y3158396D01*
X5529106Y3179437D01*
X5520984Y3199044D01*
X5508064Y3215881D01*
X5491227Y3228801D01*
X5471620Y3236922D01*
X5454879Y3239126D01*
Y3433265D01*
X5461215Y3437499D01*
X5464869Y3435985D01*
X5476994D01*
X5488197Y3440625D01*
X5496771Y3449199D01*
X5501411Y3460402D01*
Y3472528D01*
X5496771Y3483731D01*
X5491220Y3489282D01*
X5491626Y3491324D01*
X5500200Y3499898D01*
X5504840Y3511101D01*
Y3523226D01*
X5500200Y3534429D01*
X5491626Y3543003D01*
X5490706Y3547630D01*
X5493367Y3550291D01*
X5498008Y3561494D01*
Y3573620D01*
X5493367Y3584823D01*
X5493268Y3584922D01*
X5494470Y3594497D01*
X5500556Y3600583D01*
X5505196Y3611786D01*
Y3623912D01*
X5500556Y3635115D01*
X5491982Y3643689D01*
X5480779Y3648329D01*
X5468653D01*
X5462499Y3645780D01*
X5454879Y3650871D01*
Y3675355D01*
X5461406Y3681882D01*
X5496185D01*
X5497508Y3678690D01*
D02*
G37*
G36*
X6999148Y2823921D02*
Y2784246D01*
X6986194Y2771292D01*
X6639636D01*
X6632346Y2778582D01*
Y2822296D01*
X6646113Y2836062D01*
X6987007D01*
X6999148Y2823921D01*
D02*
G37*
G36*
X7017766Y2735682D02*
Y2640127D01*
X6992671Y2615032D01*
X6637223D01*
X6616979Y2635275D01*
Y2736469D01*
X6634810Y2754300D01*
X6999148D01*
X7017766Y2735682D01*
D02*
G37*
G36*
X7021017Y2534056D02*
Y2385898D01*
X7006438Y2371319D01*
X6887185D01*
X6863131Y2347265D01*
Y1964741D01*
X6692113Y1793723D01*
X5551119D01*
X5521731Y1823110D01*
Y1868702D01*
X5528394Y1873736D01*
X5531313Y1872792D01*
X5532450Y1871460D01*
Y1869796D01*
X5572430D01*
Y1872887D01*
X5580050Y1877416D01*
X5584953Y1876572D01*
X5595425Y1872234D01*
X5607550D01*
X5618753Y1876874D01*
X5627327Y1885448D01*
X5631967Y1896651D01*
Y1908777D01*
X5627327Y1919980D01*
X5618753Y1928554D01*
X5607550Y1933194D01*
X5595425D01*
X5585294Y1928998D01*
X5577840Y1928597D01*
X5577840Y1928597D01*
X5577839Y1928597D01*
X5536445D01*
X5533288Y1936217D01*
X5559120Y1962048D01*
X5620588D01*
X5759552Y2101012D01*
Y2186508D01*
X5791632Y2218588D01*
X6227191D01*
X6554795Y2546193D01*
X6635369D01*
X6645089Y2550219D01*
X6645421Y2551019D01*
X6724040D01*
X6733761Y2555045D01*
X6734126Y2555926D01*
X6999148D01*
X7021017Y2534056D01*
D02*
G37*
G36*
X3401720Y1808251D02*
Y1039927D01*
X3453267Y988380D01*
X3450133Y980813D01*
Y968688D01*
X3454773Y957485D01*
X3463347Y948911D01*
X3474550Y944270D01*
X3486676D01*
X3494242Y947405D01*
X3503447Y938200D01*
X3765017D01*
X3912133Y791083D01*
Y606273D01*
X3877771Y571910D01*
X3665013D01*
X3656205Y580718D01*
X3660522Y587178D01*
X3661824Y586638D01*
X3673950D01*
X3685153Y591279D01*
X3693727Y599853D01*
X3698367Y611056D01*
Y623181D01*
X3693727Y634384D01*
X3685153Y642958D01*
X3673950Y647598D01*
X3661824D01*
X3650621Y642958D01*
X3642047Y634384D01*
X3637407Y623181D01*
Y611056D01*
X3637946Y609753D01*
X3631487Y605437D01*
X3488690Y748233D01*
X3483481Y751714D01*
X3477336Y752936D01*
X3445176D01*
X3438804Y759308D01*
X2940165D01*
Y895150D01*
X2942654Y897012D01*
X2947785Y899159D01*
X2957533Y895121D01*
X2969659D01*
X2980861Y899762D01*
X2989435Y908336D01*
X2992598Y915970D01*
X3024327Y947699D01*
X3061005D01*
Y984377D01*
X3171063Y1094435D01*
Y1183208D01*
X3176854D01*
Y1264488D01*
X3171063D01*
Y1334694D01*
X3174822D01*
Y1415974D01*
X3171063D01*
Y1623873D01*
X3140177Y1654759D01*
X2522601D01*
X2474493Y1702867D01*
Y1840078D01*
X2489911Y1855495D01*
X2755771D01*
X2757287Y1847875D01*
X2755957Y1847324D01*
X2747383Y1838750D01*
X2742743Y1827548D01*
Y1815422D01*
X2747383Y1804219D01*
X2755957Y1795645D01*
X2767160Y1791005D01*
X2779286D01*
X2790488Y1795645D01*
X2799062Y1804219D01*
X2803703Y1815422D01*
Y1827548D01*
X2799062Y1838750D01*
X2790488Y1847324D01*
X2789159Y1847875D01*
X2790674Y1855495D01*
X3354476D01*
X3401720Y1808251D01*
D02*
G37*
G36*
X3141980Y1575740D02*
Y1415974D01*
X3139262D01*
Y1334694D01*
X3141980D01*
Y1264488D01*
X3141294D01*
Y1183208D01*
X3141980D01*
Y1107135D01*
X3076600Y1041756D01*
X2871241D01*
X2851912Y1061085D01*
Y1085748D01*
X2835986Y1101674D01*
X2813075D01*
Y1106729D01*
X2731795D01*
Y1101674D01*
X2663952D01*
Y1106754D01*
X2582672D01*
Y1101674D01*
X2562555D01*
X2526233Y1065352D01*
Y1032662D01*
X2511704Y1018134D01*
X2460854D01*
X2448154Y1030834D01*
Y1048791D01*
X2501773Y1102411D01*
X2505254Y1107620D01*
X2506476Y1113765D01*
Y1278081D01*
X2561666Y1333271D01*
Y1395019D01*
X2566289D01*
Y1445819D01*
X2561666D01*
Y1474038D01*
X2525344Y1510360D01*
Y1596644D01*
X2541956Y1613256D01*
X2549576Y1612544D01*
Y1612544D01*
X2630856D01*
Y1617523D01*
X2700249D01*
Y1616253D01*
X2781529D01*
Y1617523D01*
X2848635D01*
Y1616735D01*
X2929915D01*
Y1617523D01*
X2995625D01*
Y1617421D01*
X3076905D01*
Y1617523D01*
X3100197D01*
X3141980Y1575740D01*
D02*
G37*
G36*
X2731795Y1071169D02*
X2811958D01*
X2821407Y1061720D01*
Y1009929D01*
X2819603Y1008126D01*
Y975436D01*
X2836557Y958482D01*
X2831635Y953560D01*
X2826995Y942358D01*
Y930232D01*
X2831635Y919029D01*
X2834167Y916497D01*
Y759308D01*
X2540787D01*
X2470429Y829666D01*
X2468312Y831783D01*
Y871474D01*
X2466538Y880394D01*
X2461485Y887955D01*
X2446350Y903090D01*
Y906094D01*
Y973633D01*
X2458708Y985990D01*
X2458739Y985999D01*
X2460650Y987908D01*
X2465243D01*
X2465502Y987984D01*
X2465502Y987983D01*
Y987984D01*
X2465502Y987984D01*
X2516302D01*
Y991794D01*
X2554402D01*
X2577109Y1014501D01*
Y1066227D01*
Y1071118D01*
X2582587D01*
X2582672Y1071194D01*
X2663952D01*
Y1072617D01*
X2731795D01*
Y1071169D01*
D02*
G37*
G36*
X6251270Y1140765D02*
Y796061D01*
X6240577Y785368D01*
X6118352D01*
X6107659Y796061D01*
Y1156132D01*
X6109665Y1158138D01*
X6233897D01*
X6251270Y1140765D01*
D02*
G37*
G36*
X6408318Y1144092D02*
Y790727D01*
X6402299Y784708D01*
X6277381D01*
X6269965Y792124D01*
Y1150772D01*
X6279998Y1160805D01*
X6391605D01*
X6408318Y1144092D01*
D02*
G37*
G36*
X6609410Y1146759D02*
Y1065759D01*
X6620104Y1055065D01*
X6636741D01*
X6656095Y1035710D01*
Y885393D01*
X6649415Y878713D01*
X6620078D01*
X6609410Y868045D01*
Y789407D01*
X6595364Y775360D01*
X6447079D01*
X6427038Y795401D01*
Y1151458D01*
X6427699Y1152119D01*
Y1164133D01*
X6592037D01*
X6609410Y1146759D01*
D02*
G37*
G36*
X750037Y4132859D02*
Y3824046D01*
X551917Y3625926D01*
Y3421990D01*
X578783Y3395123D01*
X582592Y3385928D01*
X591166Y3377354D01*
X600361Y3373545D01*
X750011Y3223895D01*
Y886943D01*
X740291D01*
X729088Y882302D01*
X725213Y878428D01*
X718273Y875779D01*
X715315Y878486D01*
X709517Y884283D01*
X698314Y888924D01*
X686189D01*
X674986Y884283D01*
X666412Y875709D01*
X661772Y864507D01*
Y852381D01*
X666412Y841178D01*
X674986Y832604D01*
X686189Y827964D01*
X698314D01*
X709517Y832604D01*
X713392Y836479D01*
X720332Y839127D01*
X723290Y836421D01*
X729088Y830623D01*
X740291Y825983D01*
X750011D01*
Y405943D01*
X858020Y297934D01*
Y178609D01*
X841508Y162097D01*
X837017Y155376D01*
X835440Y147447D01*
X835440Y147446D01*
Y139202D01*
X830318Y134080D01*
X825678Y122877D01*
Y110752D01*
X830318Y99549D01*
X838892Y90975D01*
X850095Y86335D01*
X862221D01*
X873423Y90975D01*
X881997Y99549D01*
X888997Y100941D01*
X891750Y98189D01*
X902952Y93548D01*
X915078D01*
X926281Y98189D01*
X934855Y106763D01*
X939495Y117965D01*
Y130091D01*
X934855Y141294D01*
X929733Y146416D01*
Y149915D01*
X930899Y151660D01*
X932477Y159588D01*
X932476Y159589D01*
Y213522D01*
X939517Y216437D01*
X953088Y202866D01*
X956668Y189506D01*
X967368Y170971D01*
X982501Y155838D01*
X1001036Y145138D01*
X1014396Y141558D01*
X1083310Y72644D01*
X5676417D01*
X5927979Y324206D01*
Y331978D01*
X6242609Y646608D01*
X6603898D01*
X6809765Y852475D01*
Y1384681D01*
X6844716Y1419631D01*
X7322922D01*
Y541514D01*
X7315302Y538787D01*
X7289164Y570635D01*
X7252808Y600472D01*
X7211330Y622643D01*
X7166323Y636295D01*
X7119518Y640905D01*
X7072713Y636295D01*
X7027707Y622643D01*
X6986229Y600472D01*
X6949873Y570635D01*
X6920036Y534280D01*
X6897866Y492801D01*
X6884213Y447795D01*
X6879603Y400990D01*
X6884213Y354185D01*
X6897866Y309178D01*
X6920036Y267700D01*
X6949873Y231344D01*
X6986229Y201508D01*
X7027707Y179337D01*
X7072713Y165684D01*
X7119518Y161075D01*
X7166323Y165684D01*
X7211330Y179337D01*
X7252808Y201508D01*
X7289164Y231344D01*
X7315302Y263193D01*
X7322922Y260466D01*
Y50825D01*
X49479D01*
Y4191127D01*
X691769D01*
X750037Y4132859D01*
D02*
G37*
%LPC*%
G36*
X6527292Y5980003D02*
X6518561D01*
X6517247Y5979459D01*
X6515851Y5979734D01*
X6501223Y5976792D01*
X6500042Y5975999D01*
X6498619Y5975993D01*
X6484858Y5970225D01*
X6483856Y5969215D01*
X6482463Y5968928D01*
X6470109Y5960561D01*
X6469326Y5959373D01*
X6468017Y5958818D01*
X6457555Y5948179D01*
X6457022Y5946860D01*
X6455847Y5946057D01*
X6447688Y5933564D01*
X6447426Y5932166D01*
X6446432Y5931147D01*
X6440896Y5917292D01*
X6440914Y5915869D01*
X6440142Y5914675D01*
X6437446Y5899999D01*
X6437744Y5898608D01*
X6437222Y5897285D01*
X6437346Y5889947D01*
Y5882552D01*
X6437884Y5881251D01*
X6437610Y5879870D01*
X6440538Y5865148D01*
X6441320Y5863978D01*
Y5862569D01*
X6447064Y5848702D01*
X6448060Y5847706D01*
X6448335Y5846325D01*
X6456674Y5833845D01*
X6457844Y5833063D01*
X6458383Y5831762D01*
X6468997Y5821148D01*
X6470298Y5820609D01*
X6471080Y5819438D01*
X6483561Y5811099D01*
X6484941Y5810825D01*
X6485937Y5809829D01*
X6499805Y5804085D01*
X6501213D01*
X6502384Y5803303D01*
X6517105Y5800374D01*
X6518486Y5800649D01*
X6519787Y5800110D01*
X6534797D01*
X6536098Y5800649D01*
X6537479Y5800374D01*
X6552200Y5803303D01*
X6553371Y5804085D01*
X6554779D01*
X6568647Y5809829D01*
X6569642Y5810825D01*
X6571023Y5811099D01*
X6583503Y5819438D01*
X6584286Y5820609D01*
X6585587Y5821148D01*
X6596201Y5831762D01*
X6596740Y5833063D01*
X6597910Y5833845D01*
X6606249Y5846325D01*
X6606524Y5847706D01*
X6607519Y5848702D01*
X6613264Y5862569D01*
Y5863977D01*
X6614046Y5865148D01*
X6616974Y5879870D01*
X6616700Y5881251D01*
X6617238Y5882552D01*
Y5897403D01*
X6616711Y5898677D01*
X6616985Y5900028D01*
X6614180Y5914450D01*
X6613419Y5915600D01*
X6613431Y5916978D01*
X6607923Y5930600D01*
X6606957Y5931582D01*
X6606705Y5932938D01*
X6598698Y5945257D01*
X6597562Y5946038D01*
X6597056Y5947320D01*
X6586844Y5957884D01*
X6585580Y5958433D01*
X6584838Y5959595D01*
X6572797Y5968015D01*
X6571451Y5968312D01*
X6570501Y5969312D01*
X6557075Y5975278D01*
X6555696Y5975313D01*
X6554573Y5976112D01*
X6540254Y5979405D01*
X6538895Y5979176D01*
X6537640Y5979746D01*
X6530298Y5979995D01*
X6530063Y5979907D01*
X6529831Y5980003D01*
X6528562Y5979477D01*
X6527292Y5980003D01*
D02*
G37*
G36*
X6127869Y5585562D02*
X6115744D01*
X6104541Y5580921D01*
X6095967Y5572347D01*
X6091326Y5561144D01*
Y5549019D01*
X6095967Y5537816D01*
X6104541Y5529242D01*
X6115744Y5524602D01*
X6127869D01*
X6139072Y5529242D01*
X6146510Y5536680D01*
X6153619Y5536921D01*
X6160589Y5535876D01*
X6161448Y5533803D01*
X6170022Y5525229D01*
X6181225Y5520588D01*
X6193350D01*
X6204553Y5525229D01*
X6213127Y5533803D01*
X6217768Y5545006D01*
Y5557131D01*
X6213127Y5568334D01*
X6204553Y5576908D01*
X6193350Y5581548D01*
X6181225D01*
X6170022Y5576908D01*
X6162584Y5569470D01*
X6155475Y5569229D01*
X6148505Y5570274D01*
X6147646Y5572347D01*
X6139072Y5580921D01*
X6127869Y5585562D01*
D02*
G37*
G36*
X6109276Y5065268D02*
X6097151D01*
X6085948Y5060628D01*
X6077374Y5052054D01*
X6072734Y5040851D01*
Y5028725D01*
X6077374Y5017522D01*
X6085948Y5008948D01*
X6097151Y5004308D01*
X6109276D01*
X6120479Y5008948D01*
X6127715Y5016184D01*
X6136080Y5016686D01*
X6142154Y5015963D01*
X6149702Y5008415D01*
X6160905Y5003775D01*
X6173030D01*
X6184233Y5008415D01*
X6192807Y5016989D01*
X6197448Y5028192D01*
Y5040317D01*
X6192807Y5051520D01*
X6184233Y5060094D01*
X6173030Y5064735D01*
X6160905D01*
X6149702Y5060094D01*
X6142466Y5052859D01*
X6134101Y5052357D01*
X6128027Y5053080D01*
X6120479Y5060628D01*
X6109276Y5065268D01*
D02*
G37*
G36*
X6194290Y4921148D02*
X6182165D01*
X6170962Y4916508D01*
X6162388Y4907934D01*
X6157747Y4896731D01*
Y4884606D01*
X6162388Y4873403D01*
X6168536Y4867255D01*
X6169601Y4858620D01*
X6168199Y4852227D01*
X6161575Y4845602D01*
X6156935Y4834400D01*
Y4822274D01*
X6161575Y4811071D01*
X6170149Y4802497D01*
X6181352Y4797857D01*
X6193477D01*
X6204680Y4802497D01*
X6213254Y4811071D01*
X6217895Y4822274D01*
Y4834400D01*
X6213254Y4845602D01*
X6207106Y4851751D01*
X6206041Y4860385D01*
X6207443Y4866779D01*
X6214067Y4873403D01*
X6218707Y4884606D01*
Y4896731D01*
X6214067Y4907934D01*
X6205493Y4916508D01*
X6194290Y4921148D01*
D02*
G37*
G36*
X6839857Y4855972D02*
X6827731D01*
X6816528Y4851332D01*
X6807954Y4842758D01*
X6803314Y4831555D01*
Y4819429D01*
X6807954Y4808226D01*
X6816528Y4799652D01*
X6827731Y4795012D01*
X6839857D01*
X6851059Y4799652D01*
X6859633Y4808226D01*
X6864274Y4819429D01*
Y4831555D01*
X6859633Y4842758D01*
X6851059Y4851332D01*
X6839857Y4855972D01*
D02*
G37*
G36*
X231869Y5971134D02*
X219743D01*
X208540Y5966493D01*
X199966Y5957919D01*
X195326Y5946716D01*
Y5934591D01*
X199966Y5923388D01*
X208540Y5914814D01*
X219743Y5910174D01*
X231869D01*
X243072Y5914814D01*
X251646Y5923388D01*
X256286Y5934591D01*
Y5946716D01*
X251646Y5957919D01*
X243072Y5966493D01*
X231869Y5971134D01*
D02*
G37*
G36*
X3358558Y5919597D02*
X3346432D01*
X3335230Y5914957D01*
X3326656Y5906383D01*
X3322015Y5895180D01*
Y5883054D01*
X3326656Y5871851D01*
X3335230Y5863277D01*
X3346432Y5858637D01*
X3358558D01*
X3369761Y5863277D01*
X3378335Y5871851D01*
X3382975Y5883054D01*
Y5895180D01*
X3378335Y5906383D01*
X3369761Y5914957D01*
X3358558Y5919597D01*
D02*
G37*
G36*
X470502Y5812790D02*
X458376D01*
X447173Y5808150D01*
X438599Y5799576D01*
X433959Y5788373D01*
Y5776247D01*
X438599Y5765044D01*
X447173Y5756470D01*
X458376Y5751830D01*
X470502D01*
X481705Y5756470D01*
X490279Y5765044D01*
X494919Y5776247D01*
Y5788373D01*
X490279Y5799576D01*
X481705Y5808150D01*
X470502Y5812790D01*
D02*
G37*
G36*
X208120Y5700598D02*
X195994D01*
X184791Y5695958D01*
X176217Y5687384D01*
X171577Y5676181D01*
Y5664055D01*
X176217Y5652853D01*
X184791Y5644279D01*
X195994Y5639638D01*
X208120D01*
X219323Y5644279D01*
X227897Y5652853D01*
X232537Y5664055D01*
Y5676181D01*
X227897Y5687384D01*
X219323Y5695958D01*
X208120Y5700598D01*
D02*
G37*
G36*
X277106Y5355082D02*
X264981D01*
X253778Y5350442D01*
X245204Y5341868D01*
X240563Y5330665D01*
Y5318539D01*
X245204Y5307336D01*
X253778Y5298762D01*
X264981Y5294122D01*
X277106D01*
X288309Y5298762D01*
X296883Y5307336D01*
X301523Y5318539D01*
Y5330665D01*
X296883Y5341868D01*
X288309Y5350442D01*
X277106Y5355082D01*
D02*
G37*
G36*
X378528Y4949317D02*
X366403D01*
X355200Y4944677D01*
X346626Y4936103D01*
X341986Y4924900D01*
Y4912774D01*
X346626Y4901571D01*
X355200Y4892997D01*
X366403Y4888357D01*
X378528D01*
X389731Y4892997D01*
X398305Y4901571D01*
X402946Y4912774D01*
Y4924900D01*
X398305Y4936103D01*
X389731Y4944677D01*
X378528Y4949317D01*
D02*
G37*
G36*
X277419Y4844522D02*
X268688D01*
X267374Y4843977D01*
X265978Y4844252D01*
X251350Y4841310D01*
X250169Y4840517D01*
X248746Y4840511D01*
X234985Y4834743D01*
X233983Y4833733D01*
X232590Y4833447D01*
X220236Y4825079D01*
X219453Y4823891D01*
X218144Y4823336D01*
X207682Y4812697D01*
X207148Y4811378D01*
X205974Y4810575D01*
X197815Y4798083D01*
X197552Y4796685D01*
X196559Y4795666D01*
X191023Y4781810D01*
X191041Y4780387D01*
X190268Y4779193D01*
X187573Y4764518D01*
X187871Y4763126D01*
X187349Y4761803D01*
X187472Y4754465D01*
Y4747070D01*
X188011Y4745769D01*
X187736Y4744388D01*
X190665Y4729667D01*
X191447Y4728496D01*
Y4727088D01*
X197191Y4713220D01*
X198187Y4712225D01*
X198461Y4710844D01*
X206800Y4698363D01*
X207971Y4697581D01*
X208510Y4696280D01*
X219124Y4685666D01*
X220425Y4685127D01*
X221207Y4683957D01*
X233687Y4675618D01*
X235068Y4675343D01*
X236064Y4674348D01*
X249931Y4668603D01*
X251340D01*
X252511Y4667821D01*
X267232Y4664893D01*
X268613Y4665167D01*
X269914Y4664629D01*
X284924D01*
X286225Y4665167D01*
X287605Y4664893D01*
X302327Y4667821D01*
X303498Y4668603D01*
X304906D01*
X318774Y4674348D01*
X319769Y4675343D01*
X321150Y4675618D01*
X333630Y4683957D01*
X334412Y4685127D01*
X335713Y4685666D01*
X346327Y4696280D01*
X346866Y4697581D01*
X348037Y4698363D01*
X356376Y4710844D01*
X356651Y4712225D01*
X357646Y4713220D01*
X363390Y4727088D01*
Y4728496D01*
X364173Y4729666D01*
X367101Y4744388D01*
X366827Y4745769D01*
X367365Y4747070D01*
Y4761921D01*
X366838Y4763195D01*
X367112Y4764546D01*
X364307Y4778969D01*
X363546Y4780118D01*
X363558Y4781497D01*
X358050Y4795118D01*
X357084Y4796101D01*
X356832Y4797456D01*
X348825Y4809775D01*
X347689Y4810556D01*
X347183Y4811838D01*
X336971Y4822402D01*
X335706Y4822951D01*
X334965Y4824114D01*
X322924Y4832533D01*
X321578Y4832831D01*
X320628Y4833830D01*
X307201Y4839796D01*
X305823Y4839831D01*
X304700Y4840631D01*
X290381Y4843923D01*
X289022Y4843694D01*
X287767Y4844265D01*
X280424Y4844514D01*
X280190Y4844425D01*
X279958Y4844521D01*
X278689Y4843996D01*
X277419Y4844522D01*
D02*
G37*
G36*
X335450Y4599610D02*
X323324D01*
X312122Y4594969D01*
X303548Y4586395D01*
X298907Y4575193D01*
Y4563067D01*
X303548Y4551864D01*
X312122Y4543290D01*
X323324Y4538650D01*
X335450D01*
X346653Y4543290D01*
X355227Y4551864D01*
X359867Y4563067D01*
Y4575193D01*
X355227Y4586395D01*
X346653Y4594969D01*
X335450Y4599610D01*
D02*
G37*
G36*
X474794Y4524858D02*
X462669D01*
X451466Y4520217D01*
X442892Y4511643D01*
X438252Y4500440D01*
Y4488315D01*
X442892Y4477112D01*
X451466Y4468538D01*
X462669Y4463898D01*
X474794D01*
X485997Y4468538D01*
X494571Y4477112D01*
X499212Y4488315D01*
Y4500440D01*
X494571Y4511643D01*
X485997Y4520217D01*
X474794Y4524858D01*
D02*
G37*
G36*
X3023438Y4324147D02*
X2962478D01*
Y4316527D01*
X2948457D01*
Y4324147D01*
X2887497D01*
Y4258107D01*
X2897259D01*
Y4240023D01*
X2897259Y4240022D01*
X2898836Y4232093D01*
X2902788Y4226179D01*
Y4218668D01*
X2907429Y4207466D01*
X2916003Y4198892D01*
X2927205Y4194251D01*
X2939331D01*
X2950534Y4198892D01*
X2959108Y4207466D01*
X2961656Y4213618D01*
X2969904D01*
X2972453Y4207466D01*
X2981027Y4198892D01*
X2992229Y4194251D01*
X3004355D01*
X3015558Y4198892D01*
X3024132Y4207466D01*
X3026680Y4213618D01*
X3034928D01*
X3037477Y4207466D01*
X3046051Y4198892D01*
X3057253Y4194251D01*
X3069379D01*
X3080582Y4198892D01*
X3089156Y4207466D01*
X3093796Y4218668D01*
Y4230794D01*
X3089156Y4241997D01*
X3080582Y4250571D01*
X3069379Y4255211D01*
X3057253D01*
X3046051Y4250571D01*
X3037477Y4241997D01*
X3034928Y4235844D01*
X3026680D01*
X3024132Y4241997D01*
X3015642Y4250487D01*
X3015650Y4250972D01*
X3017277Y4258107D01*
X3023438D01*
Y4324147D01*
D02*
G37*
G36*
X2885008Y4142537D02*
X2839288D01*
Y4139667D01*
X2831617D01*
Y4142537D01*
X2785897D01*
Y4096817D01*
X2785897Y4096817D01*
X2784980Y4089577D01*
X2777381Y4081977D01*
X2772740Y4070774D01*
Y4058648D01*
X2777381Y4047446D01*
X2785955Y4038872D01*
X2797157Y4034231D01*
X2809283D01*
X2820486Y4038872D01*
X2829060Y4047446D01*
X2831608Y4053598D01*
X2839856D01*
X2842405Y4047446D01*
X2850979Y4038872D01*
X2862181Y4034231D01*
X2874307D01*
X2885510Y4038872D01*
X2894084Y4047446D01*
X2898724Y4058648D01*
Y4070774D01*
X2894084Y4081977D01*
X2886320Y4089740D01*
X2885008Y4096817D01*
X2885009Y4096817D01*
X2885008Y4096817D01*
Y4142537D01*
D02*
G37*
G36*
X3004355Y4175201D02*
X2992229D01*
X2981027Y4170561D01*
X2972453Y4161987D01*
X2967812Y4150784D01*
Y4138658D01*
X2972453Y4127456D01*
X2981027Y4118882D01*
X2992229Y4114241D01*
X3004355D01*
X3015558Y4118882D01*
X3024132Y4127456D01*
X3028772Y4138658D01*
Y4150784D01*
X3024132Y4161987D01*
X3015558Y4170561D01*
X3004355Y4175201D01*
D02*
G37*
G36*
X3199427Y4095191D02*
X3187301D01*
X3176099Y4090551D01*
X3167525Y4081977D01*
X3164976Y4075824D01*
X3156728D01*
X3154180Y4081977D01*
X3145606Y4090551D01*
X3134403Y4095191D01*
X3122277D01*
X3111075Y4090551D01*
X3102501Y4081977D01*
X3097860Y4070774D01*
Y4058648D01*
X3102501Y4047446D01*
X3111075Y4038872D01*
X3122277Y4034231D01*
X3134403D01*
X3145606Y4038872D01*
X3154180Y4047446D01*
X3156728Y4053598D01*
X3164976D01*
X3167525Y4047446D01*
X3176099Y4038872D01*
X3187301Y4034231D01*
X3199427D01*
X3210630Y4038872D01*
X3219204Y4047446D01*
X3223844Y4058648D01*
Y4070774D01*
X3219204Y4081977D01*
X3210630Y4090551D01*
X3199427Y4095191D01*
D02*
G37*
G36*
X3920465Y4065829D02*
X3874745D01*
Y4062959D01*
X3867074D01*
Y4065829D01*
X3821354D01*
Y4020109D01*
X3821354D01*
X3820975Y4012645D01*
X3816088Y4007758D01*
X3814433Y4003762D01*
X3806185D01*
X3805614Y4005142D01*
X3797040Y4013716D01*
X3785837Y4018356D01*
X3773711D01*
X3762508Y4013716D01*
X3753934Y4005142D01*
X3749294Y3993939D01*
Y3981813D01*
X3753934Y3970611D01*
X3762508Y3962037D01*
X3773711Y3957396D01*
X3785837D01*
X3797040Y3962037D01*
X3805614Y3970611D01*
X3807265Y3974598D01*
X3814885Y3973082D01*
Y3964508D01*
X3812743D01*
Y3918788D01*
X3815613D01*
Y3908247D01*
X3855593D01*
Y3918788D01*
X3858463D01*
Y3964350D01*
X3859193Y3964653D01*
X3867767Y3973227D01*
X3869912Y3978404D01*
X3878160D01*
X3879715Y3974649D01*
X3888289Y3966075D01*
X3899492Y3961435D01*
X3911618D01*
X3922820Y3966075D01*
X3931394Y3974649D01*
X3936035Y3985852D01*
Y3997978D01*
X3931394Y4009180D01*
X3922821Y4017754D01*
X3920465Y4020109D01*
Y4065829D01*
D02*
G37*
G36*
X3004355Y4015181D02*
X2992229D01*
X2981027Y4010541D01*
X2972453Y4001967D01*
X2967812Y3990764D01*
Y3978638D01*
X2972453Y3967436D01*
X2981027Y3958862D01*
X2992229Y3954221D01*
X3004355D01*
X3015558Y3958862D01*
X3024132Y3967436D01*
X3028772Y3978638D01*
Y3990764D01*
X3024132Y4001967D01*
X3015558Y4010541D01*
X3004355Y4015181D01*
D02*
G37*
G36*
X2809283D02*
X2797157D01*
X2785955Y4010541D01*
X2777381Y4001967D01*
X2772740Y3990764D01*
Y3978638D01*
X2777381Y3967436D01*
X2785955Y3958862D01*
X2797157Y3954221D01*
X2809283D01*
X2820486Y3958862D01*
X2829060Y3967436D01*
X2833700Y3978638D01*
Y3990764D01*
X2829060Y4001967D01*
X2820486Y4010541D01*
X2809283Y4015181D01*
D02*
G37*
G36*
X3264451Y3935171D02*
X3252325D01*
X3241123Y3930531D01*
X3232549Y3921957D01*
X3230000Y3915804D01*
X3221752D01*
X3219204Y3921957D01*
X3210630Y3930531D01*
X3199427Y3935171D01*
X3187301D01*
X3176099Y3930531D01*
X3167525Y3921957D01*
X3164976Y3915804D01*
X3156728D01*
X3154180Y3921957D01*
X3145606Y3930531D01*
X3134403Y3935171D01*
X3122277D01*
X3111075Y3930531D01*
X3102501Y3921957D01*
X3099952Y3915804D01*
X3091704D01*
X3089156Y3921957D01*
X3080582Y3930531D01*
X3069379Y3935171D01*
X3057253D01*
X3046051Y3930531D01*
X3037477Y3921957D01*
X3034928Y3915804D01*
X3026680D01*
X3024132Y3921957D01*
X3015558Y3930531D01*
X3004355Y3935171D01*
X2992229D01*
X2981027Y3930531D01*
X2972453Y3921957D01*
X2969904Y3915804D01*
X2961656D01*
X2959108Y3921957D01*
X2950534Y3930531D01*
X2939331Y3935171D01*
X2927205D01*
X2916003Y3930531D01*
X2907429Y3921957D01*
X2904880Y3915804D01*
X2896632D01*
X2894084Y3921957D01*
X2885510Y3930531D01*
X2874307Y3935171D01*
X2862181D01*
X2850979Y3930531D01*
X2842405Y3921957D01*
X2839856Y3915804D01*
X2831608D01*
X2829060Y3921957D01*
X2820486Y3930531D01*
X2809283Y3935171D01*
X2797157D01*
X2785955Y3930531D01*
X2777381Y3921957D01*
X2772740Y3910754D01*
Y3898628D01*
X2777381Y3887426D01*
X2785955Y3878852D01*
X2797157Y3874211D01*
X2809283D01*
X2820486Y3878852D01*
X2829060Y3887426D01*
X2831608Y3893578D01*
X2839856D01*
X2842405Y3887426D01*
X2850979Y3878852D01*
X2862181Y3874211D01*
X2874307D01*
X2885510Y3878852D01*
X2894084Y3887426D01*
X2896632Y3893578D01*
X2904880D01*
X2907429Y3887426D01*
X2916003Y3878852D01*
X2927205Y3874211D01*
X2939331D01*
X2950534Y3878852D01*
X2959108Y3887426D01*
X2961656Y3893578D01*
X2969904D01*
X2972453Y3887426D01*
X2981027Y3878852D01*
X2992229Y3874211D01*
X3004355D01*
X3015558Y3878852D01*
X3024132Y3887426D01*
X3026680Y3893578D01*
X3034928D01*
X3037477Y3887426D01*
X3046051Y3878852D01*
X3057253Y3874211D01*
X3069379D01*
X3080582Y3878852D01*
X3089156Y3887426D01*
X3091704Y3893578D01*
X3099952D01*
X3102501Y3887426D01*
X3111075Y3878852D01*
X3122277Y3874211D01*
X3134403D01*
X3145606Y3878852D01*
X3154180Y3887426D01*
X3156728Y3893578D01*
X3164976D01*
X3167525Y3887426D01*
X3173414Y3881536D01*
X3178175Y3875887D01*
Y3830168D01*
X3223895D01*
Y3833038D01*
X3231566D01*
Y3830168D01*
X3277286D01*
Y3875887D01*
X3277286Y3875887D01*
X3277286D01*
X3277286Y3875888D01*
X3279424Y3882622D01*
X3284228Y3887426D01*
X3288868Y3898628D01*
Y3910754D01*
X3284228Y3921957D01*
X3275654Y3930531D01*
X3264451Y3935171D01*
D02*
G37*
G36*
X3946949Y3836391D02*
X3934823D01*
X3923621Y3831750D01*
X3915047Y3823176D01*
X3910406Y3811973D01*
Y3799848D01*
X3915047Y3788645D01*
X3923621Y3780071D01*
X3934823Y3775431D01*
X3946949D01*
X3958152Y3780071D01*
X3966726Y3788645D01*
X3971366Y3799848D01*
Y3811973D01*
X3966726Y3823176D01*
X3958152Y3831750D01*
X3946949Y3836391D01*
D02*
G37*
G36*
X3016504Y3658108D02*
X2970784D01*
Y3655238D01*
X2963113D01*
Y3658108D01*
X2917393D01*
Y3612388D01*
X2912363Y3606851D01*
X2907429Y3601917D01*
X2904880Y3595764D01*
X2896632D01*
X2894084Y3601917D01*
X2885510Y3610491D01*
X2874307Y3615131D01*
X2862181D01*
X2850979Y3610491D01*
X2842405Y3601917D01*
X2839856Y3595764D01*
X2831608D01*
X2829060Y3601917D01*
X2820486Y3610491D01*
X2809283Y3615131D01*
X2797157D01*
X2785955Y3610491D01*
X2777381Y3601917D01*
X2772740Y3590714D01*
Y3578588D01*
X2777381Y3567386D01*
X2785955Y3558812D01*
X2797157Y3554171D01*
X2809283D01*
X2820486Y3558812D01*
X2829060Y3567386D01*
X2831608Y3573538D01*
X2839856D01*
X2842405Y3567386D01*
X2850979Y3558812D01*
X2862181Y3554171D01*
X2874307D01*
X2885510Y3558812D01*
X2894084Y3567386D01*
X2896632Y3573538D01*
X2904880D01*
X2907429Y3567386D01*
X2916003Y3558812D01*
X2927205Y3554171D01*
X2939331D01*
X2950534Y3558812D01*
X2959108Y3567386D01*
X2961656Y3573538D01*
X2969904D01*
X2972453Y3567386D01*
X2981027Y3558812D01*
X2992229Y3554171D01*
X3004355D01*
X3015558Y3558812D01*
X3024132Y3567386D01*
X3026680Y3573538D01*
X3034928D01*
X3037477Y3567386D01*
X3046051Y3558812D01*
X3057253Y3554171D01*
X3069379D01*
X3080582Y3558812D01*
X3089156Y3567386D01*
X3091704Y3573538D01*
X3099952D01*
X3102501Y3567386D01*
X3111075Y3558812D01*
X3122277Y3554171D01*
X3134403D01*
X3145606Y3558812D01*
X3154180Y3567386D01*
X3156728Y3573538D01*
X3164976D01*
X3167525Y3567386D01*
X3176099Y3558812D01*
X3187301Y3554171D01*
X3199427D01*
X3210630Y3558812D01*
X3219204Y3567386D01*
X3221752Y3573538D01*
X3230000D01*
X3232549Y3567386D01*
X3241123Y3558812D01*
X3252325Y3554171D01*
X3264451D01*
X3275654Y3558812D01*
X3284228Y3567386D01*
X3288868Y3578588D01*
Y3590714D01*
X3284228Y3601917D01*
X3275654Y3610491D01*
X3275051Y3610741D01*
Y3654450D01*
X3229331D01*
Y3651580D01*
X3221660D01*
Y3654450D01*
X3175940D01*
Y3610332D01*
X3167525Y3601917D01*
X3164976Y3595764D01*
X3156728D01*
X3154180Y3601917D01*
X3145606Y3610491D01*
X3134403Y3615131D01*
X3122277D01*
X3111075Y3610491D01*
X3102501Y3601917D01*
X3099952Y3595764D01*
X3091704D01*
X3089156Y3601917D01*
X3080582Y3610491D01*
X3069379Y3615131D01*
X3057253D01*
X3046051Y3610491D01*
X3037477Y3601917D01*
X3034928Y3595764D01*
X3026680D01*
X3024132Y3601917D01*
X3019882Y3606167D01*
X3016504Y3612388D01*
Y3658108D01*
D02*
G37*
G36*
X3947051Y3698342D02*
X3934925D01*
X3923722Y3693701D01*
X3915148Y3685127D01*
X3910508Y3673924D01*
Y3661799D01*
X3915148Y3650596D01*
X3923722Y3642022D01*
X3934925Y3637382D01*
X3947051D01*
X3958253Y3642022D01*
X3966827Y3650596D01*
X3971468Y3661799D01*
Y3673924D01*
X3966827Y3685127D01*
X3958253Y3693701D01*
X3947051Y3698342D01*
D02*
G37*
G36*
X3786472Y3535604D02*
X3774346D01*
X3763143Y3530963D01*
X3754569Y3522389D01*
X3749929Y3511187D01*
Y3499061D01*
X3754569Y3487858D01*
X3763143Y3479284D01*
X3774346Y3474644D01*
X3786472D01*
X3797675Y3479284D01*
X3806249Y3487858D01*
X3810889Y3499061D01*
Y3511187D01*
X3806249Y3522389D01*
X3797675Y3530963D01*
X3786472Y3535604D01*
D02*
G37*
G36*
X3394499Y3535121D02*
X3382373D01*
X3371171Y3530481D01*
X3362597Y3521907D01*
X3357956Y3510704D01*
Y3498578D01*
X3362597Y3487376D01*
X3371171Y3478802D01*
X3382373Y3474161D01*
X3394499D01*
X3405702Y3478802D01*
X3414276Y3487376D01*
X3418916Y3498578D01*
Y3510704D01*
X3414276Y3521907D01*
X3405702Y3530481D01*
X3394499Y3535121D01*
D02*
G37*
G36*
X3004355D02*
X2992229D01*
X2981027Y3530481D01*
X2972453Y3521907D01*
X2967812Y3510704D01*
Y3498578D01*
X2972453Y3487376D01*
X2981027Y3478802D01*
X2992229Y3474161D01*
X3004355D01*
X3015558Y3478802D01*
X3024132Y3487376D01*
X3028772Y3498578D01*
Y3510704D01*
X3024132Y3521907D01*
X3015558Y3530481D01*
X3004355Y3535121D01*
D02*
G37*
G36*
X2809283D02*
X2797157D01*
X2785955Y3530481D01*
X2777381Y3521907D01*
X2772740Y3510704D01*
Y3498578D01*
X2777381Y3487376D01*
X2785955Y3478802D01*
X2797157Y3474161D01*
X2809283D01*
X2820486Y3478802D01*
X2829060Y3487376D01*
X2833700Y3498578D01*
Y3510704D01*
X2829060Y3521907D01*
X2820486Y3530481D01*
X2809283Y3535121D01*
D02*
G37*
G36*
X3262198Y3463417D02*
X3222219D01*
Y3452876D01*
X3219348D01*
Y3450734D01*
X3209995D01*
X3199427Y3455111D01*
X3187301D01*
X3176099Y3450471D01*
X3167525Y3441897D01*
X3164976Y3435744D01*
X3156728D01*
X3154180Y3441897D01*
X3145606Y3450471D01*
X3134403Y3455111D01*
X3122277D01*
X3111075Y3450471D01*
X3102501Y3441897D01*
X3097860Y3430694D01*
Y3418568D01*
X3102501Y3407366D01*
X3111075Y3398792D01*
X3122277Y3394151D01*
X3134403D01*
X3145606Y3398792D01*
X3154180Y3407366D01*
X3156728Y3413518D01*
X3164976D01*
X3167525Y3407366D01*
X3176099Y3398792D01*
X3187301Y3394151D01*
X3199427D01*
X3210630Y3398792D01*
X3213856Y3402018D01*
X3219349Y3407156D01*
X3265068D01*
Y3452876D01*
X3262198D01*
Y3463417D01*
D02*
G37*
G36*
X3394499Y3455111D02*
X3382373D01*
X3371171Y3450471D01*
X3362597Y3441897D01*
X3360048Y3435744D01*
X3351800D01*
X3349252Y3441897D01*
X3340678Y3450471D01*
X3329475Y3455111D01*
X3317349D01*
X3306147Y3450471D01*
X3297573Y3441897D01*
X3292932Y3430694D01*
Y3418568D01*
X3296786Y3409264D01*
X3293338Y3401644D01*
X3281782D01*
Y3382920D01*
X3280689D01*
X3270580Y3378733D01*
X3266811Y3374964D01*
X3263841Y3376193D01*
X3251716D01*
X3240513Y3371553D01*
X3231939Y3362979D01*
X3227299Y3351776D01*
Y3339651D01*
X3231939Y3328448D01*
X3240513Y3319874D01*
X3251716Y3315233D01*
X3263841D01*
X3275044Y3319874D01*
X3283618Y3328448D01*
X3286582Y3335604D01*
X3342742D01*
Y3343224D01*
X3356762D01*
Y3335604D01*
X3417722D01*
Y3401644D01*
X3417723D01*
X3415062Y3409264D01*
X3418916Y3418568D01*
Y3430694D01*
X3414276Y3441897D01*
X3405702Y3450471D01*
X3394499Y3455111D01*
D02*
G37*
G36*
X2874307D02*
X2862181D01*
X2850979Y3450471D01*
X2842405Y3441897D01*
X2839856Y3435744D01*
X2831608D01*
X2829060Y3441897D01*
X2820486Y3450471D01*
X2809283Y3455111D01*
X2797157D01*
X2785955Y3450471D01*
X2777381Y3441897D01*
X2772740Y3430694D01*
Y3418568D01*
X2777381Y3407366D01*
X2785955Y3398792D01*
X2797157Y3394151D01*
X2809283D01*
X2820486Y3398792D01*
X2829060Y3407366D01*
X2831608Y3413518D01*
X2839856D01*
X2842405Y3407366D01*
X2850979Y3398792D01*
X2862181Y3394151D01*
X2874307D01*
X2885510Y3398792D01*
X2894084Y3407366D01*
X2898724Y3418568D01*
Y3430694D01*
X2894084Y3441897D01*
X2885510Y3450471D01*
X2874307Y3455111D01*
D02*
G37*
G36*
X3590231Y3463315D02*
X3578106D01*
X3566903Y3458675D01*
X3558329Y3450101D01*
X3553689Y3438898D01*
Y3426773D01*
X3558329Y3415570D01*
X3566903Y3406996D01*
X3578106Y3402355D01*
X3590231D01*
X3601434Y3406996D01*
X3610008Y3415570D01*
X3612765Y3422225D01*
X3620909Y3421974D01*
X3624445Y3413436D01*
X3633019Y3404862D01*
X3644222Y3400222D01*
X3656348D01*
X3667550Y3404862D01*
X3676124Y3413436D01*
X3680765Y3424639D01*
Y3436765D01*
X3676124Y3447967D01*
X3667550Y3456541D01*
X3656348Y3461182D01*
X3644222D01*
X3633019Y3456541D01*
X3624445Y3447967D01*
X3621689Y3441313D01*
X3613545Y3441563D01*
X3610008Y3450101D01*
X3601434Y3458675D01*
X3590231Y3463315D01*
D02*
G37*
G36*
X3781519Y3456915D02*
X3769393D01*
X3758190Y3452274D01*
X3749616Y3443700D01*
X3744976Y3432497D01*
Y3420372D01*
X3749616Y3409169D01*
X3758190Y3400595D01*
X3769393Y3395955D01*
X3781519D01*
X3792722Y3400595D01*
X3801296Y3409169D01*
X3805936Y3420372D01*
Y3432497D01*
X3801296Y3443700D01*
X3792722Y3452274D01*
X3781519Y3456915D01*
D02*
G37*
G36*
X3585253Y3385668D02*
X3573127D01*
X3561925Y3381027D01*
X3553351Y3372453D01*
X3548710Y3361250D01*
Y3349125D01*
X3553351Y3337922D01*
X3561925Y3329348D01*
X3573127Y3324708D01*
X3585253D01*
X3596456Y3329348D01*
X3605030Y3337922D01*
X3609670Y3349125D01*
Y3361250D01*
X3605030Y3372453D01*
X3596456Y3381027D01*
X3585253Y3385668D01*
D02*
G37*
G36*
X3715428Y3380740D02*
X3703302D01*
X3692100Y3376100D01*
X3683526Y3367526D01*
X3678885Y3356323D01*
Y3344197D01*
X3683526Y3332994D01*
X3692100Y3324420D01*
X3703302Y3319780D01*
X3715428D01*
X3726631Y3324420D01*
X3735205Y3332994D01*
X3739459Y3343265D01*
X3743296Y3343745D01*
X3743353Y3343745D01*
X3747079Y3343265D01*
X3751344Y3332969D01*
X3759918Y3324395D01*
X3771120Y3319755D01*
X3783246D01*
X3794449Y3324395D01*
X3803023Y3332969D01*
X3807663Y3344172D01*
Y3356297D01*
X3803023Y3367500D01*
X3794449Y3376074D01*
X3783246Y3380715D01*
X3771120D01*
X3759918Y3376074D01*
X3751344Y3367500D01*
X3747090Y3357230D01*
X3743253Y3356749D01*
X3743195Y3356750D01*
X3739470Y3357230D01*
X3735205Y3367526D01*
X3726631Y3376100D01*
X3715428Y3380740D01*
D02*
G37*
G36*
X3004355Y3375101D02*
X2992229D01*
X2981027Y3370461D01*
X2972453Y3361887D01*
X2967812Y3350684D01*
Y3338558D01*
X2972453Y3327356D01*
X2981027Y3318782D01*
X2992229Y3314141D01*
X3004355D01*
X3015558Y3318782D01*
X3024132Y3327356D01*
X3028772Y3338558D01*
Y3350684D01*
X3024132Y3361887D01*
X3015558Y3370461D01*
X3004355Y3375101D01*
D02*
G37*
G36*
X3069379Y3295091D02*
X3057253D01*
X3046051Y3290451D01*
X3037477Y3281877D01*
X3034928Y3275724D01*
X3026680D01*
X3024132Y3281877D01*
X3015558Y3290451D01*
X3004355Y3295091D01*
X2992229D01*
X2981027Y3290451D01*
X2972453Y3281877D01*
X2969904Y3275724D01*
X2961656D01*
X2959108Y3281877D01*
X2950534Y3290451D01*
X2939331Y3295091D01*
X2927205D01*
X2916003Y3290451D01*
X2907429Y3281877D01*
X2902788Y3270674D01*
Y3258548D01*
X2907429Y3247346D01*
X2916003Y3238772D01*
X2916428Y3238595D01*
Y3189757D01*
X2967227D01*
Y3189757D01*
X2969819D01*
Y3189757D01*
X3020619D01*
Y3240557D01*
X3023691Y3246905D01*
X3024132Y3247346D01*
X3026680Y3253498D01*
X3034928D01*
X3037477Y3247346D01*
X3046051Y3238772D01*
X3057253Y3234131D01*
X3069379D01*
X3080582Y3238772D01*
X3089156Y3247346D01*
X3093796Y3258548D01*
Y3270674D01*
X3089156Y3281877D01*
X3080582Y3290451D01*
X3069379Y3295091D01*
D02*
G37*
G36*
X3394499D02*
X3382373D01*
X3371171Y3290451D01*
X3362597Y3281877D01*
X3360048Y3275724D01*
X3351800D01*
X3349252Y3281877D01*
X3340678Y3290451D01*
X3329475Y3295091D01*
X3317349D01*
X3306147Y3290451D01*
X3297573Y3281877D01*
X3295024Y3275724D01*
X3286776D01*
X3284228Y3281877D01*
X3275654Y3290451D01*
X3264451Y3295091D01*
X3252325D01*
X3241123Y3290451D01*
X3232549Y3281877D01*
X3230000Y3275724D01*
X3221752D01*
X3219204Y3281877D01*
X3210630Y3290451D01*
X3199427Y3295091D01*
X3187301D01*
X3176099Y3290451D01*
X3167525Y3281877D01*
X3162884Y3270674D01*
Y3258548D01*
X3167525Y3247346D01*
X3176099Y3238772D01*
X3187301Y3234131D01*
X3199427D01*
X3210630Y3238772D01*
X3219204Y3247346D01*
X3221752Y3253498D01*
X3230000D01*
X3232549Y3247346D01*
X3241123Y3238772D01*
X3252325Y3234131D01*
X3264451D01*
X3275654Y3238772D01*
X3284228Y3247346D01*
X3286776Y3253498D01*
X3295024D01*
X3297573Y3247346D01*
X3305175Y3239743D01*
Y3193390D01*
X3355974D01*
Y3193389D01*
X3358566D01*
Y3193390D01*
X3409366D01*
Y3242435D01*
X3414276Y3247346D01*
X3418916Y3258548D01*
Y3270674D01*
X3414276Y3281877D01*
X3405702Y3290451D01*
X3394499Y3295091D01*
D02*
G37*
G36*
X1923737Y3057347D02*
X1911612D01*
X1900409Y3052707D01*
X1891835Y3044133D01*
X1887195Y3032930D01*
Y3020804D01*
X1891835Y3009602D01*
X1900409Y3001028D01*
X1911612Y2996387D01*
X1923737D01*
X1934940Y3001028D01*
X1943514Y3009602D01*
X1948155Y3020804D01*
Y3032930D01*
X1943514Y3044133D01*
X1934940Y3052707D01*
X1923737Y3057347D01*
D02*
G37*
G36*
X2047791Y2982239D02*
X2035665D01*
X2024463Y2977599D01*
X2015889Y2969025D01*
X2011248Y2957822D01*
Y2945697D01*
X2015889Y2934494D01*
X2024463Y2925920D01*
X2035665Y2921279D01*
X2047791D01*
X2058994Y2925920D01*
X2067568Y2934494D01*
X2072208Y2945697D01*
Y2957822D01*
X2067568Y2969025D01*
X2058994Y2977599D01*
X2047791Y2982239D01*
D02*
G37*
G36*
X5837801Y3378378D02*
X5825676D01*
X5814473Y3373737D01*
X5805899Y3365163D01*
X5801258Y3353961D01*
Y3341835D01*
X5805899Y3330632D01*
X5814473Y3322058D01*
X5825676Y3317418D01*
X5837801D01*
X5849004Y3322058D01*
X5857578Y3330632D01*
X5862218Y3341835D01*
Y3353961D01*
X5857578Y3365163D01*
X5849004Y3373737D01*
X5837801Y3378378D01*
D02*
G37*
G36*
X5958629Y3329203D02*
X5925306Y3325921D01*
X5893264Y3316201D01*
X5873590Y3305686D01*
X5863733Y3300417D01*
X5837850Y3279175D01*
X5816608Y3253291D01*
X5800823Y3223761D01*
X5791103Y3191718D01*
X5787821Y3158396D01*
X5791103Y3125073D01*
X5800823Y3093030D01*
X5816608Y3063500D01*
X5837850Y3037616D01*
X5863733Y3016374D01*
X5873590Y3011105D01*
X5893264Y3000590D01*
X5925306Y2990870D01*
X5958629Y2987588D01*
X5991951Y2990870D01*
X6023994Y3000590D01*
X6053524Y3016374D01*
X6079408Y3037616D01*
X6100650Y3063500D01*
X6116434Y3093030D01*
X6126154Y3125073D01*
X6129436Y3158396D01*
X6126154Y3191718D01*
X6116434Y3223761D01*
X6100650Y3253291D01*
X6079408Y3279175D01*
X6053524Y3300417D01*
X6023994Y3316201D01*
X5991951Y3325921D01*
X5958629Y3329203D01*
D02*
G37*
G36*
X5503182Y2708859D02*
X5491056D01*
X5479853Y2704219D01*
X5471279Y2695645D01*
X5466639Y2684442D01*
Y2672316D01*
X5471279Y2661114D01*
X5479853Y2652540D01*
X5491056Y2647899D01*
X5503182D01*
X5514384Y2652540D01*
X5522958Y2661114D01*
X5527599Y2672316D01*
Y2684442D01*
X5522958Y2695645D01*
X5514384Y2704219D01*
X5503182Y2708859D01*
D02*
G37*
G36*
X5735109Y2697378D02*
X5722983D01*
X5711781Y2692738D01*
X5703207Y2684164D01*
X5698566Y2672961D01*
Y2660836D01*
X5703207Y2649633D01*
X5711781Y2641059D01*
X5722983Y2636418D01*
X5735109D01*
X5746312Y2641059D01*
X5754886Y2649633D01*
X5759526Y2660836D01*
Y2672961D01*
X5754886Y2684164D01*
X5746312Y2692738D01*
X5735109Y2697378D01*
D02*
G37*
G36*
X6724269Y2364867D02*
X6635369D01*
Y2308987D01*
X6724269D01*
Y2364867D01*
D02*
G37*
G36*
X6708869Y2290877D02*
X6696743D01*
X6685540Y2286236D01*
X6676966Y2277662D01*
X6672326Y2266460D01*
Y2254334D01*
X6676966Y2243131D01*
X6685540Y2234557D01*
X6696743Y2229917D01*
X6708869D01*
X6720072Y2234557D01*
X6728646Y2243131D01*
X6733286Y2254334D01*
Y2266460D01*
X6728646Y2277662D01*
X6720072Y2286236D01*
X6708869Y2290877D01*
D02*
G37*
G36*
X6708056Y2218004D02*
X6695930D01*
X6684728Y2213364D01*
X6676154Y2204790D01*
X6671513Y2193587D01*
Y2181461D01*
X6676154Y2170259D01*
X6684728Y2161685D01*
X6695930Y2157044D01*
X6708056D01*
X6719259Y2161685D01*
X6727833Y2170259D01*
X6732473Y2181461D01*
Y2193587D01*
X6727833Y2204790D01*
X6719259Y2213364D01*
X6708056Y2218004D01*
D02*
G37*
G36*
X5822290Y2070938D02*
X5776570D01*
Y2025499D01*
X5771126Y2020056D01*
X5766486Y2008853D01*
Y1996727D01*
X5771126Y1985524D01*
X5779700Y1976950D01*
X5790903Y1972310D01*
X5803029D01*
X5814231Y1976950D01*
X5822805Y1985524D01*
X5827446Y1996727D01*
Y2008853D01*
X5823599Y2018140D01*
X5822971Y2021536D01*
X5827023Y2028088D01*
X5832831D01*
Y2068068D01*
X5822290D01*
Y2070938D01*
D02*
G37*
G36*
X5957791Y2081174D02*
X5945665D01*
X5934462Y2076534D01*
X5925888Y2067960D01*
X5921248Y2056757D01*
Y2044632D01*
X5925888Y2033429D01*
X5934462Y2024855D01*
X5935534Y2019465D01*
X5933839Y2017770D01*
X5929198Y2006567D01*
Y1994441D01*
X5933839Y1983238D01*
X5942413Y1974664D01*
X5953615Y1970024D01*
X5965741D01*
X5975731Y1974162D01*
X5980443Y1972278D01*
X5983351Y1970295D01*
Y1967484D01*
X6044311D01*
Y1975104D01*
X6058332D01*
Y1967484D01*
X6093506D01*
X6097292Y1964955D01*
X6105220Y1963378D01*
X6131956D01*
X6137078Y1958256D01*
X6148281Y1953616D01*
X6160407D01*
X6171609Y1958256D01*
X6180183Y1966830D01*
X6184824Y1978033D01*
Y1990158D01*
X6180183Y2001361D01*
X6171609Y2009935D01*
X6160407Y2014576D01*
X6148281D01*
X6137078Y2009935D01*
X6131956Y2004814D01*
X6119292D01*
Y2033524D01*
X6058332D01*
Y2025904D01*
X6044311D01*
Y2033524D01*
X5985855D01*
X5980228Y2039850D01*
X5982208Y2044632D01*
Y2056757D01*
X5977568Y2067960D01*
X5968994Y2076534D01*
X5957791Y2081174D01*
D02*
G37*
G36*
X5804992Y1951406D02*
X5738952D01*
Y1935185D01*
X5731332Y1932028D01*
X5729735Y1933626D01*
X5719214D01*
X5711774Y1926186D01*
Y1895345D01*
X5719214Y1887906D01*
X5729735D01*
X5731332Y1889503D01*
X5738952Y1886347D01*
Y1870126D01*
X5736024Y1863719D01*
X5732620Y1860315D01*
X5727979Y1849112D01*
Y1836987D01*
X5732620Y1825784D01*
X5741194Y1817210D01*
X5752397Y1812569D01*
X5764522D01*
X5775725Y1817210D01*
X5784299Y1825784D01*
X5788939Y1836987D01*
Y1840809D01*
X5793506Y1847643D01*
X5795280Y1856562D01*
Y1870126D01*
X5804992D01*
Y1951406D01*
D02*
G37*
G36*
X5855784Y1963801D02*
X5843659D01*
X5832456Y1959161D01*
X5823882Y1950587D01*
X5819242Y1939384D01*
Y1927258D01*
X5823882Y1916055D01*
X5832456Y1907481D01*
X5843659Y1902841D01*
X5855784D01*
X5866987Y1907481D01*
X5875561Y1916055D01*
X5880202Y1927258D01*
Y1939384D01*
X5875561Y1950587D01*
X5866987Y1959161D01*
X5855784Y1963801D01*
D02*
G37*
G36*
X3125284Y1828749D02*
X3113159D01*
X3101956Y1824109D01*
X3093382Y1815535D01*
X3088742Y1804332D01*
Y1792206D01*
X3093382Y1781004D01*
X3101956Y1772430D01*
X3113159Y1767789D01*
X3125284D01*
X3136487Y1772430D01*
X3145061Y1781004D01*
X3149702Y1792206D01*
Y1804332D01*
X3145061Y1815535D01*
X3136487Y1824109D01*
X3125284Y1828749D01*
D02*
G37*
G36*
X3187260Y1731721D02*
X3175135D01*
X3163932Y1727081D01*
X3155358Y1718507D01*
X3150718Y1707304D01*
Y1695178D01*
X3155358Y1683976D01*
X3163932Y1675402D01*
X3175135Y1670761D01*
X3187260D01*
X3198463Y1675402D01*
X3207037Y1683976D01*
X3211678Y1695178D01*
Y1707304D01*
X3207037Y1718507D01*
X3198463Y1727081D01*
X3187260Y1731721D01*
D02*
G37*
G36*
X3676363Y873100D02*
X3664237D01*
X3653034Y868459D01*
X3644460Y859885D01*
X3639820Y848682D01*
Y836557D01*
X3644460Y825354D01*
X3653034Y816780D01*
X3664237Y812140D01*
X3676363D01*
X3687566Y816780D01*
X3696140Y825354D01*
X3700780Y836557D01*
Y848682D01*
X3696140Y859885D01*
X3687566Y868459D01*
X3676363Y873100D01*
D02*
G37*
G36*
X262730Y4046957D02*
X250604D01*
X239401Y4042316D01*
X230827Y4033742D01*
X226187Y4022539D01*
Y4010414D01*
X230827Y3999211D01*
X239401Y3990637D01*
X250604Y3985997D01*
X262730D01*
X273933Y3990637D01*
X282507Y3999211D01*
X287147Y4010414D01*
Y4022539D01*
X282507Y4033742D01*
X273933Y4042316D01*
X262730Y4046957D01*
D02*
G37*
G36*
X431995Y3588918D02*
X419870D01*
X408667Y3584278D01*
X400093Y3575704D01*
X395453Y3564501D01*
Y3552376D01*
X400093Y3541173D01*
X408667Y3532599D01*
X419870Y3527958D01*
X431995D01*
X443198Y3532599D01*
X451772Y3541173D01*
X456413Y3552376D01*
Y3564501D01*
X451772Y3575704D01*
X443198Y3584278D01*
X431995Y3588918D01*
D02*
G37*
G36*
X354297Y3288792D02*
X342171D01*
X330968Y3284152D01*
X322394Y3275578D01*
X317754Y3264375D01*
Y3252249D01*
X322394Y3241046D01*
X330968Y3232472D01*
X342171Y3227832D01*
X354297D01*
X365500Y3232472D01*
X374074Y3241046D01*
X378714Y3252249D01*
Y3264375D01*
X374074Y3275578D01*
X365500Y3284152D01*
X354297Y3288792D01*
D02*
G37*
G36*
X233367Y3092399D02*
X221242D01*
X210039Y3087759D01*
X201465Y3079185D01*
X196825Y3067982D01*
Y3055856D01*
X201465Y3044654D01*
X210039Y3036080D01*
X221242Y3031439D01*
X233367D01*
X244570Y3036080D01*
X253144Y3044654D01*
X257785Y3055856D01*
Y3067982D01*
X253144Y3079185D01*
X244570Y3087759D01*
X233367Y3092399D01*
D02*
G37*
G36*
X308628Y2745461D02*
X296502D01*
X285299Y2740820D01*
X276725Y2732246D01*
X272085Y2721043D01*
Y2708918D01*
X276725Y2697715D01*
X285299Y2689141D01*
X296502Y2684501D01*
X308628D01*
X319830Y2689141D01*
X328404Y2697715D01*
X333045Y2708918D01*
Y2721043D01*
X328404Y2732246D01*
X319830Y2740820D01*
X308628Y2745461D01*
D02*
G37*
G36*
X431995Y2291613D02*
X419870D01*
X408667Y2286973D01*
X400093Y2278399D01*
X395453Y2267196D01*
Y2255071D01*
X400093Y2243868D01*
X408667Y2235294D01*
X419870Y2230653D01*
X431995D01*
X443198Y2235294D01*
X451772Y2243868D01*
X456413Y2255071D01*
Y2267196D01*
X451772Y2278399D01*
X443198Y2286973D01*
X431995Y2291613D01*
D02*
G37*
G36*
X398010Y1912264D02*
X385885D01*
X374682Y1907624D01*
X366108Y1899050D01*
X361467Y1887847D01*
Y1875722D01*
X366108Y1864519D01*
X374682Y1855945D01*
X385885Y1851304D01*
X398010D01*
X409213Y1855945D01*
X417787Y1864519D01*
X422427Y1875722D01*
Y1887847D01*
X417787Y1899050D01*
X409213Y1907624D01*
X398010Y1912264D01*
D02*
G37*
G36*
X240200Y1751482D02*
X228074D01*
X216872Y1746842D01*
X208298Y1738268D01*
X203657Y1727065D01*
Y1714940D01*
X208298Y1703737D01*
X216872Y1695163D01*
X228074Y1690522D01*
X240200D01*
X251403Y1695163D01*
X259977Y1703737D01*
X264617Y1714940D01*
Y1727065D01*
X259977Y1738268D01*
X251403Y1746842D01*
X240200Y1751482D01*
D02*
G37*
G36*
X315841Y1398092D02*
X303716D01*
X292513Y1393452D01*
X283939Y1384878D01*
X279298Y1373675D01*
Y1361549D01*
X283939Y1350347D01*
X292513Y1341773D01*
X303716Y1337132D01*
X315841D01*
X327044Y1341773D01*
X335618Y1350347D01*
X340258Y1361549D01*
Y1373675D01*
X335618Y1384878D01*
X327044Y1393452D01*
X315841Y1398092D01*
D02*
G37*
G36*
X253078Y1291539D02*
X240952D01*
X229749Y1286899D01*
X221175Y1278325D01*
X216535Y1267122D01*
Y1254996D01*
X221175Y1243794D01*
X229749Y1235220D01*
X240952Y1230579D01*
X253078D01*
X264281Y1235220D01*
X272855Y1243794D01*
X277495Y1254996D01*
Y1267122D01*
X272855Y1278325D01*
X264281Y1286899D01*
X253078Y1291539D01*
D02*
G37*
G36*
X171188Y941832D02*
X159063D01*
X147860Y937192D01*
X139286Y928618D01*
X134645Y917415D01*
Y905289D01*
X139286Y894086D01*
X147860Y885512D01*
X159063Y880872D01*
X171188D01*
X182391Y885512D01*
X190965Y894086D01*
X195605Y905289D01*
Y917415D01*
X190965Y928618D01*
X182391Y937192D01*
X171188Y941832D01*
D02*
G37*
G36*
X454297Y934745D02*
X442171D01*
X430968Y930105D01*
X422394Y921531D01*
X417754Y910328D01*
Y898203D01*
X422394Y887000D01*
X430968Y878426D01*
X442171Y873785D01*
X454297D01*
X465499Y878426D01*
X474073Y887000D01*
X478714Y898203D01*
Y910328D01*
X474073Y921531D01*
X465499Y930105D01*
X454297Y934745D01*
D02*
G37*
G36*
X329786Y899465D02*
X317660D01*
X306457Y894824D01*
X297883Y886250D01*
X293243Y875048D01*
Y862922D01*
X297883Y851719D01*
X306457Y843145D01*
X317660Y838505D01*
X329786D01*
X340989Y843145D01*
X349563Y851719D01*
X354203Y862922D01*
Y875048D01*
X349563Y886250D01*
X340989Y894824D01*
X329786Y899465D01*
D02*
G37*
G36*
X519448Y301600D02*
X507322D01*
X496119Y296959D01*
X487545Y288385D01*
X482905Y277182D01*
Y265057D01*
X487545Y253854D01*
X496119Y245280D01*
X507322Y240640D01*
X519448D01*
X530650Y245280D01*
X539224Y253854D01*
X543865Y265057D01*
Y277182D01*
X539224Y288385D01*
X530650Y296959D01*
X519448Y301600D01*
D02*
G37*
G36*
X234129Y249301D02*
X222004D01*
X210801Y244661D01*
X202227Y236087D01*
X197587Y224884D01*
Y212758D01*
X202227Y201555D01*
X210801Y192981D01*
X222004Y188341D01*
X234129D01*
X245332Y192981D01*
X253906Y201555D01*
X258547Y212758D01*
Y224884D01*
X253906Y236087D01*
X245332Y244661D01*
X234129Y249301D01*
D02*
G37*
G36*
X118280Y242316D02*
X106154D01*
X94952Y237676D01*
X86378Y229102D01*
X81737Y217899D01*
Y205773D01*
X86378Y194570D01*
X94952Y185996D01*
X106154Y181356D01*
X118280D01*
X129483Y185996D01*
X138057Y194570D01*
X142697Y205773D01*
Y217899D01*
X138057Y229102D01*
X129483Y237676D01*
X118280Y242316D01*
D02*
G37*
%LPD*%
D23*
X5607812Y2147138D02*
D03*
X5661203D02*
D03*
X5852820Y2048078D02*
D03*
X5799430D02*
D03*
X5268544Y4336593D02*
D03*
X5215153D02*
D03*
X5548452Y4065803D02*
D03*
X5601843D02*
D03*
X5479085Y3774186D02*
D03*
X5425694D02*
D03*
X5483428Y3873652D02*
D03*
X5536819D02*
D03*
X5516347Y3968750D02*
D03*
X5569737D02*
D03*
X5354676Y3911803D02*
D03*
X5301285D02*
D03*
X5370043Y3967861D02*
D03*
X5423433D02*
D03*
X5261585Y3965245D02*
D03*
X5314975D02*
D03*
X5075326Y3412617D02*
D03*
X5128717D02*
D03*
X5531637Y3420872D02*
D03*
X5585028D02*
D03*
X5017567Y3671062D02*
D03*
X4964176D02*
D03*
X5069713Y3867302D02*
D03*
X5123104D02*
D03*
X5019802Y4069283D02*
D03*
X4966411D02*
D03*
X5013858Y3873652D02*
D03*
X4960468D02*
D03*
X3739540Y3537153D02*
D03*
X3686150D02*
D03*
X3897071Y4192549D02*
D03*
X3950462D02*
D03*
X3863086Y3621710D02*
D03*
X3809695D02*
D03*
X3254426Y3853028D02*
D03*
X3201035D02*
D03*
X3383966Y3218790D02*
D03*
X3330575D02*
D03*
X3252191Y3631590D02*
D03*
X3198800D02*
D03*
X3848176Y3771748D02*
D03*
X3794785D02*
D03*
X4046499Y3781730D02*
D03*
X4099890D02*
D03*
X4146398Y3469945D02*
D03*
X4199788D02*
D03*
X2862148Y4119677D02*
D03*
X2808757D02*
D03*
X2993644Y3635248D02*
D03*
X2940253D02*
D03*
X3897605Y4042969D02*
D03*
X3844214D02*
D03*
X2995219Y3215157D02*
D03*
X2941828D02*
D03*
X5078603Y3773780D02*
D03*
X5131994D02*
D03*
X5193081Y3903548D02*
D03*
X5246472D02*
D03*
X4153916Y3893083D02*
D03*
X4207307D02*
D03*
X4921656Y3570453D02*
D03*
X4868266D02*
D03*
D41*
X5771972Y1910766D02*
D03*
X5676976D02*
D03*
D50*
X2514194Y1420419D02*
D03*
X2589174D02*
D03*
X3641192Y1703756D02*
D03*
X3566211D02*
D03*
X3673704Y2010004D02*
D03*
X3748684D02*
D03*
X3748710Y1899285D02*
D03*
X3673729D02*
D03*
X5122291Y3965651D02*
D03*
X5197272D02*
D03*
X5020894Y3769512D02*
D03*
X4945913D02*
D03*
X3201086Y4302811D02*
D03*
X3126105D02*
D03*
X3843325Y3209315D02*
D03*
X3768344D02*
D03*
X3652037Y3211398D02*
D03*
X3577057D02*
D03*
X2992958Y4291127D02*
D03*
X2917977D02*
D03*
X6088812Y2000504D02*
D03*
X6013831D02*
D03*
X3572231Y3968521D02*
D03*
X3647211D02*
D03*
X3648304Y3776015D02*
D03*
X3573323D02*
D03*
X3389020Y4301211D02*
D03*
X3314040D02*
D03*
X4945609Y3969410D02*
D03*
X5020589D02*
D03*
X5263413Y3772586D02*
D03*
X5188433D02*
D03*
X3736950Y4286148D02*
D03*
X3811930D02*
D03*
X4802657Y4343933D02*
D03*
X4877638D02*
D03*
X3387242Y3368624D02*
D03*
X3312262D02*
D03*
D51*
X2490902Y1040079D02*
D03*
Y965098D02*
D03*
X2904592Y986180D02*
D03*
Y1061161D02*
D03*
X3577742Y3654654D02*
D03*
Y3579673D02*
D03*
X5474640Y5283708D02*
D03*
Y5358689D02*
D03*
X5584292Y5358968D02*
D03*
Y5283987D02*
D03*
X5851474Y5283200D02*
D03*
Y5358181D02*
D03*
X5692800Y5359781D02*
D03*
Y5284800D02*
D03*
X752094Y3499129D02*
D03*
Y3574110D02*
D03*
X644195Y3577844D02*
D03*
Y3502863D02*
D03*
X970280Y3964940D02*
D03*
Y4039921D02*
D03*
X841578Y4044213D02*
D03*
Y3969233D02*
D03*
D52*
X3088462Y1375334D02*
D03*
X3225622D02*
D03*
X3090494Y1223848D02*
D03*
X3227654D02*
D03*
D53*
X2772435Y1157529D02*
D03*
Y1020369D02*
D03*
X3036265Y1566621D02*
D03*
Y1703781D02*
D03*
X2889275Y1565935D02*
D03*
Y1703095D02*
D03*
X2740889Y1565453D02*
D03*
Y1702613D02*
D03*
X2623312Y1157554D02*
D03*
Y1020394D02*
D03*
X2590216Y1698904D02*
D03*
Y1561744D02*
D03*
D55*
X5458739Y2044802D02*
D03*
Y1991411D02*
D03*
X5459527Y2150542D02*
D03*
Y2097151D02*
D03*
X5552440Y1849806D02*
D03*
Y1903197D02*
D03*
X5620614Y4163466D02*
D03*
Y4216857D02*
D03*
X5425161Y4229684D02*
D03*
Y4283075D02*
D03*
X5525059Y4206926D02*
D03*
Y4260317D02*
D03*
X5472278Y5472684D02*
D03*
Y5419293D02*
D03*
X5116779Y4156913D02*
D03*
Y4210304D02*
D03*
X5220995Y3637661D02*
D03*
Y3691052D02*
D03*
X5012487Y4155669D02*
D03*
Y4209059D02*
D03*
X5020208Y3615233D02*
D03*
Y3561842D02*
D03*
X5223256Y4099433D02*
D03*
Y4046042D02*
D03*
X5116779Y4098696D02*
D03*
Y4045306D02*
D03*
X5418506Y3660038D02*
D03*
Y3713429D02*
D03*
X5973648Y2336114D02*
D03*
Y2389505D02*
D03*
X5326482Y4069486D02*
D03*
Y4016096D02*
D03*
X5424957Y4075024D02*
D03*
Y4021633D02*
D03*
X5370322Y3822014D02*
D03*
Y3768623D02*
D03*
X5320944Y3822268D02*
D03*
Y3768877D02*
D03*
X5326075Y3663264D02*
D03*
Y3716655D02*
D03*
X5725465Y3787394D02*
D03*
Y3840785D02*
D03*
X5123764Y3668979D02*
D03*
Y3722370D02*
D03*
X3835603Y3888257D02*
D03*
Y3941648D02*
D03*
X3662705Y4173753D02*
D03*
Y4120363D02*
D03*
X4085565Y4154272D02*
D03*
Y4207662D02*
D03*
X6039206Y2335987D02*
D03*
Y2389378D02*
D03*
X5719928Y3669894D02*
D03*
Y3723284D02*
D03*
X5225034Y4273448D02*
D03*
Y4220058D02*
D03*
X5453177Y6025109D02*
D03*
Y5971718D02*
D03*
X3242208Y3483407D02*
D03*
Y3430016D02*
D03*
X5381904Y5472024D02*
D03*
Y5418633D02*
D03*
D58*
X3020365Y1075715D02*
D03*
Y980719D02*
D03*
D60*
X5907862Y5643474D02*
X5925490Y5661101D01*
X5907862Y5591048D02*
Y5643474D01*
X4467860Y5864606D02*
Y5929376D01*
X4947844Y5526278D02*
Y5591048D01*
X897077Y3891737D02*
X970280Y3964940D01*
X897077Y1921535D02*
Y3891737D01*
Y1921535D02*
X1014959Y1803654D01*
Y628142D02*
Y1803654D01*
Y628142D02*
X1501115Y141986D01*
X2003069D01*
X2093290Y232207D01*
Y364719D01*
X2072970Y385039D02*
X2093290Y364719D01*
X2048815Y385039D02*
X2072970D01*
X2033016Y369240D02*
X2048815Y385039D01*
X2033016Y284912D02*
Y369240D01*
Y284912D02*
X2033803Y284124D01*
X3528263Y2392807D02*
Y2395906D01*
X3455264Y2319807D02*
X3528263Y2392807D01*
X3444672Y2319807D02*
X3455264D01*
X3496843Y5645760D02*
X3497224Y5645379D01*
X3422320Y5645760D02*
X3496843D01*
X2798420Y2863291D02*
X2805100D01*
X2768371Y2893339D02*
X2798420Y2863291D01*
X2302053Y2893339D02*
X2768371D01*
X1588287Y3607105D02*
X2302053Y2893339D01*
X1588287Y3607105D02*
Y5090922D01*
X1278433Y5400777D02*
X1588287Y5090922D01*
X1212596Y5400777D02*
X1278433D01*
X1210234Y5398414D02*
X1212596Y5400777D01*
X6953377Y3784422D02*
X7018147D01*
X6953377Y2864434D02*
X7018147D01*
X5326482Y4069486D02*
Y4087851D01*
X5336184Y4097553D01*
Y4306494D01*
X6615049Y2864434D02*
X6679819D01*
X1209980Y4108221D02*
X1224356D01*
X1256284Y4076294D01*
Y3820566D02*
Y4076294D01*
X1123645Y3687928D02*
X1256284Y3820566D01*
X1123645Y2320188D02*
Y3687928D01*
Y2320188D02*
X1480033Y1963801D01*
X1755318D01*
X1976425Y1742694D01*
Y1672463D02*
Y1742694D01*
X1945056Y1641094D02*
X1976425Y1672463D01*
X1916303Y1641094D02*
X1945056D01*
X1905254Y1652143D02*
X1916303Y1641094D01*
X4975885Y3819652D02*
Y3843858D01*
X4960468Y3859276D02*
X4975885Y3843858D01*
X4960468Y3859276D02*
Y3873652D01*
X5719724Y1105687D02*
Y1170457D01*
X6953377Y3584423D02*
X7021830D01*
X4707865Y5864606D02*
Y5929376D01*
X5199736Y767055D02*
Y832129D01*
X5627853Y5591048D02*
Y5662549D01*
X5644845Y5679542D01*
X4945913Y3789680D02*
X4975885Y3819652D01*
X4945913Y3769512D02*
Y3789680D01*
X4964176Y3706622D02*
X4972939Y3715385D01*
X4964176Y3671062D02*
Y3706622D01*
X6615049Y3384423D02*
X6679819D01*
X4587850Y5864606D02*
Y5929376D01*
X3148762Y5645760D02*
X3223895D01*
X5919724Y1105687D02*
Y1173455D01*
X911809Y4079138D02*
X951027Y4039921D01*
X970280D01*
X4347845Y5864606D02*
Y5929376D01*
X5919724Y832129D02*
Y896899D01*
X6953377Y3384423D02*
X7018147D01*
X5187848Y5525922D02*
Y5591048D01*
X1606906Y2716098D02*
X1814881D01*
X1899488Y2631491D01*
X1901266D01*
X841578Y4044213D02*
Y4070045D01*
X910565Y4139032D01*
Y4144137D01*
X5267858Y5864606D02*
Y5917870D01*
X5277231Y5927242D01*
Y5932297D01*
X5243474Y4119651D02*
X5270830D01*
X5223256Y4099433D02*
X5243474Y4119651D01*
X5599735Y832129D02*
Y898804D01*
X5372481Y3668827D02*
X5409717D01*
X5418506Y3660038D01*
X5123104Y3823106D02*
X5128285Y3817925D01*
X5123104Y3823106D02*
Y3867302D01*
X4827854Y5864606D02*
Y5929376D01*
X6615049Y4184421D02*
X6679819D01*
X5157445Y4122217D02*
X5178476D01*
X5122748Y4156913D02*
X5157445Y4122217D01*
X5116779Y4156913D02*
X5122748D01*
X6679819Y3984422D02*
X6744589D01*
X5747842Y5591048D02*
Y5655818D01*
X4168546Y2234692D02*
X4208882D01*
X4230014Y2255825D01*
Y2405634D01*
X3989756Y2645893D02*
X4230014Y2405634D01*
X2123237Y2645893D02*
X3989756D01*
X1552194Y3216935D02*
X2123237Y2645893D01*
X1552194Y3216935D02*
Y3467049D01*
X1413485Y3605759D02*
X1552194Y3467049D01*
X1413485Y3605759D02*
Y4840605D01*
X733984Y5520106D02*
X1413485Y4840605D01*
X733984Y5520106D02*
Y5783377D01*
X673760Y5843600D02*
X733984Y5783377D01*
X673760Y5843600D02*
Y5929833D01*
X662686Y5940908D02*
X673760Y5929833D01*
X5387848Y5864606D02*
Y5936158D01*
X752094Y3441675D02*
Y3499129D01*
Y3441675D02*
X817220Y3376549D01*
Y906780D02*
Y3376549D01*
Y906780D02*
X911758Y812241D01*
Y159588D02*
Y812241D01*
X909015Y156845D02*
X911758Y159588D01*
X909015Y124028D02*
Y156845D01*
X6615049Y3584423D02*
X6679819D01*
X1989734Y4549089D02*
X2018513Y4577867D01*
X1989734Y3487572D02*
Y4549089D01*
Y3487572D02*
X2341169Y3136138D01*
X3410026D01*
X3461410Y3084754D01*
Y2970301D02*
Y3084754D01*
Y2970301D02*
X3491586Y2940126D01*
X3536544D01*
X5827852Y5918378D02*
X5839790Y5930316D01*
X5827852Y5864606D02*
Y5918378D01*
X5012487Y4155669D02*
X5046904Y4121252D01*
X5071948D01*
X4945913Y3749624D02*
Y3769512D01*
Y3749624D02*
X4972939Y3722599D01*
Y3715385D02*
Y3722599D01*
X5327701Y4017315D02*
X5371668D01*
X5326482Y4016096D02*
X5327701Y4017315D01*
X5719724Y832129D02*
Y907263D01*
X5307863Y5479847D02*
Y5591048D01*
X5248250Y5420233D02*
X5307863Y5479847D01*
X5326482Y3976751D02*
Y4016096D01*
X5314975Y3965245D02*
X5326482Y3976751D01*
X5695239Y5931611D02*
X5707863Y5918987D01*
Y5864606D02*
Y5918987D01*
X5067859Y5526278D02*
Y5591048D01*
X3371672Y2894457D02*
X3383991D01*
X3427070Y2937535D01*
Y3072359D01*
X3396310Y3103118D02*
X3427070Y3072359D01*
X2327478Y3103118D02*
X3396310D01*
X1956714Y3473882D02*
X2327478Y3103118D01*
X1956714Y3473882D02*
Y4584878D01*
X1954378Y4587215D02*
X1956714Y4584878D01*
X6615049Y3024429D02*
X6679819D01*
X3485896Y5445760D02*
X3487090Y5444566D01*
X3422320Y5445760D02*
X3485896D01*
X4945609Y3989375D02*
X4975885Y4019652D01*
X4945609Y3969410D02*
Y3989375D01*
X4347845Y5526278D02*
Y5591048D01*
X6616776Y3224428D02*
X6679819D01*
X6580175Y3187827D02*
X6616776Y3224428D01*
X6576670Y3187827D02*
X6580175D01*
X5227853Y5808142D02*
Y5864606D01*
Y5808142D02*
X5236845Y5799150D01*
X643509Y3646272D02*
X644195Y3645586D01*
Y3577844D02*
Y3645586D01*
X841578Y3917061D02*
Y3969233D01*
Y3917061D02*
X864057Y3894582D01*
Y1907845D02*
Y3894582D01*
Y1907845D02*
X981939Y1789963D01*
Y614451D02*
Y1789963D01*
Y614451D02*
X1487424Y108966D01*
X2016760D01*
X2126310Y218516D01*
Y378435D01*
X2032508Y472237D02*
X2126310Y378435D01*
X2032508Y472237D02*
Y537159D01*
X6953377Y4184421D02*
X7018147D01*
X5076952Y4271899D02*
X5116779Y4232072D01*
Y4210304D02*
Y4232072D01*
X5319725Y1166800D02*
X5323383Y1170457D01*
X5319725Y1105687D02*
Y1166800D01*
X5625948Y5929503D02*
X5627853Y5927598D01*
Y5864606D02*
Y5927598D01*
X1258595Y1522527D02*
X1276858D01*
X1353718Y1445666D01*
Y1039927D02*
Y1445666D01*
Y1039927D02*
X1408201Y985444D01*
X1596619D01*
X1675435Y1064260D01*
Y1165403D01*
X1655115Y1185723D02*
X1675435Y1165403D01*
X1503324Y1185723D02*
X1655115D01*
X5060671Y5950712D02*
X5067859Y5943524D01*
Y5864606D02*
Y5943524D01*
X5301285Y3896919D02*
Y3911803D01*
X5272329Y3867963D02*
X5301285Y3896919D01*
X5272329Y3860089D02*
Y3867963D01*
X5271846Y3859606D02*
X5272329Y3860089D01*
X1211809Y5298948D02*
Y5298973D01*
X1205916Y5293055D02*
X1211809Y5298948D01*
X1205916Y5192141D02*
Y5293055D01*
X1201166Y5187391D02*
X1205916Y5192141D01*
X5172354Y3719627D02*
X5192420D01*
X5220995Y3691052D01*
X5399735Y832129D02*
Y898017D01*
X5123104Y3907968D02*
X5128184Y3913048D01*
X5123104Y3867302D02*
Y3907968D01*
X4947844Y5864606D02*
Y5929376D01*
X3148762Y5445760D02*
X3218231D01*
X6039714Y765785D02*
Y832129D01*
X4960468Y3904234D02*
X4975885Y3919652D01*
X4960468Y3873652D02*
Y3904234D01*
X752069Y3645281D02*
X752094Y3645256D01*
Y3574110D02*
Y3645256D01*
X4587850Y5526278D02*
Y5591048D01*
X644195Y3502863D02*
X784200Y3362858D01*
Y893089D02*
Y3362858D01*
Y893089D02*
X878738Y798551D01*
Y170028D02*
Y798551D01*
X856158Y147447D02*
X878738Y170028D01*
X856158Y116815D02*
Y147447D01*
X5301285Y3911803D02*
X5311115Y3921633D01*
Y3961384D01*
X5314975Y3965245D01*
X4066692Y1764132D02*
Y1799895D01*
X4087012Y1820215D01*
X4201668D01*
X4243121Y1861668D01*
Y2014626D01*
X3681425Y2576322D02*
X4243121Y2014626D01*
X2140915Y2576322D02*
X3681425D01*
X1540942Y3176295D02*
X2140915Y2576322D01*
X1385265Y3176295D02*
X1540942D01*
X1317092Y3244469D02*
X1385265Y3176295D01*
X1317092Y3244469D02*
Y3542259D01*
X1365072Y3590239D01*
Y4304106D01*
X1164920Y4504258D02*
X1365072Y4304106D01*
X780644Y4504258D02*
X1164920D01*
X718439Y4566463D02*
X780644Y4504258D01*
X718439Y4566463D02*
Y4619168D01*
X741528Y4642256D01*
X5381904Y5472024D02*
X5387848Y5477967D01*
Y5591048D01*
X1214958Y5452593D02*
X1278738D01*
X1621307Y5110023D01*
Y3620795D02*
Y5110023D01*
Y3620795D02*
X2315743Y2926359D01*
X2809773D01*
X5507863Y5933618D02*
X5514391Y5940146D01*
X5507863Y5864606D02*
Y5933618D01*
X6953377Y3984422D02*
X7018147D01*
X1638427Y1267765D02*
X1678483Y1307821D01*
Y1390371D01*
X998042Y2070811D02*
X1678483Y1390371D01*
X998042Y2070811D02*
Y3811194D01*
X1121918Y3935070D01*
X1201217D01*
X1213104Y3946957D01*
X1209523Y4163187D02*
X1216127D01*
X1289304Y4090010D01*
Y3806850D02*
Y4090010D01*
X1156665Y3674212D02*
X1289304Y3806850D01*
X1156665Y2333879D02*
Y3674212D01*
Y2333879D02*
X1493723Y1996821D01*
X1769008D01*
X2009445Y1756385D01*
Y1658772D02*
Y1756385D01*
X1958721Y1608049D02*
X2009445Y1658772D01*
X1933524Y1608049D02*
X1958721D01*
X1909242Y1583766D02*
X1933524Y1608049D01*
X5427853Y5591048D02*
Y5638343D01*
X5446979Y5657469D01*
X5172354Y3668827D02*
X5175453D01*
X5206619Y3637661D01*
X5220995D01*
X6053582Y904367D02*
X6079719Y878230D01*
Y832129D02*
Y878230D01*
X4945609Y3949929D02*
X4975885Y3919652D01*
X4945609Y3949929D02*
Y3969410D01*
X1202868Y3901821D02*
X1211555Y3893134D01*
X1135380Y3901821D02*
X1202868D01*
X1031062Y3797503D02*
X1135380Y3901821D01*
X1031062Y2084527D02*
Y3797503D01*
Y2084527D02*
X1711503Y1404087D01*
Y1296238D02*
Y1404087D01*
Y1296238D02*
X1721307Y1286434D01*
Y1266342D02*
Y1286434D01*
X5175733Y5798033D02*
X5187848Y5810148D01*
Y5864606D01*
X706780Y5924880D02*
X718795Y5936894D01*
X706780Y5857291D02*
Y5924880D01*
Y5857291D02*
X767004Y5797067D01*
Y5533796D02*
Y5797067D01*
Y5533796D02*
X1446505Y4854296D01*
Y3619475D02*
Y4854296D01*
Y3619475D02*
X1585214Y3480765D01*
Y3230626D02*
Y3480765D01*
Y3230626D02*
X2136927Y2678913D01*
X4003446D01*
X4263034Y2419325D01*
Y2251024D02*
Y2419325D01*
Y2251024D02*
X4283380Y2230679D01*
X4320870D01*
X1858670Y1180516D02*
X1860956Y1182802D01*
X1728800Y1180516D02*
X1858670D01*
X1708455Y1160170D02*
X1728800Y1180516D01*
X1708455Y1050569D02*
Y1160170D01*
X1610309Y952424D02*
X1708455Y1050569D01*
X1394485Y952424D02*
X1610309D01*
X1320698Y1026211D02*
X1394485Y952424D01*
X1320698Y1026211D02*
Y1431950D01*
X1283386Y1469263D02*
X1320698Y1431950D01*
X1255700Y1469263D02*
X1283386D01*
X5199736Y1105687D02*
Y1163295D01*
X5199126Y1163904D02*
X5199736Y1163295D01*
X5199126Y1163904D02*
Y1170584D01*
X4827854Y5526278D02*
Y5591048D01*
X4591863Y660476D02*
Y955523D01*
Y660476D02*
X4649953Y602386D01*
X4707865Y5526278D02*
Y5591048D01*
X6953377Y3024429D02*
X7018147D01*
X6953377Y3184423D02*
X7021728D01*
X6615049Y3784422D02*
X6679819D01*
X685419Y4552772D02*
Y4648937D01*
Y4552772D02*
X766953Y4471238D01*
X1151204D01*
X1332052Y4290390D01*
Y3603930D02*
Y4290390D01*
X1284072Y3555949D02*
X1332052Y3603930D01*
X1284072Y3230753D02*
Y3555949D01*
Y3230753D02*
X1371549Y3143275D01*
X1527251D01*
X2127225Y2543302D01*
X3667709D01*
X4207027Y2003984D01*
Y1876628D02*
Y2003984D01*
X4186707Y1856308D02*
X4207027Y1876628D01*
X4087978Y1856308D02*
X4186707D01*
X4064025Y1880260D02*
X4087978Y1856308D01*
X4064025Y1880260D02*
Y1911096D01*
X5516931Y1179881D02*
X5519725Y1177087D01*
Y1105687D02*
Y1177087D01*
X4467860Y5526278D02*
Y5591048D01*
D61*
X4877638Y4343933D02*
X4904334Y4317238D01*
Y4228414D02*
Y4317238D01*
Y4228414D02*
X4960366Y4172382D01*
X3818077Y4280002D02*
X3830676Y4267403D01*
Y4153484D02*
Y4267403D01*
Y4153484D02*
X3840886Y4143273D01*
X4235729Y3864661D02*
X4248125D01*
X4207307Y3893083D02*
X4235729Y3864661D01*
X4945228Y4224528D02*
X4960442D01*
X4925365Y4244391D02*
X4945228Y4224528D01*
X4925365Y4244391D02*
Y4332529D01*
X4926305Y4333469D01*
Y4461586D01*
D62*
X5959729Y1105687D02*
Y1211377D01*
X5966231Y1217879D01*
Y1348511D01*
X5911926Y1402817D02*
X5966231Y1348511D01*
X4714113Y1402817D02*
X5911926D01*
X4535094Y1223797D02*
X4714113Y1402817D01*
X4535094Y885038D02*
Y1223797D01*
X4058971Y408915D02*
X4535094Y885038D01*
X3494024Y408915D02*
X4058971D01*
X3237128Y665810D02*
X3494024Y408915D01*
X3237128Y665810D02*
Y669417D01*
X6600419Y3064434D02*
X6679819D01*
X6561709Y3025724D02*
X6600419Y3064434D01*
X6561709Y3024759D02*
Y3025724D01*
X6953377Y4264431D02*
X7143674D01*
X7191781Y4216324D01*
Y3659988D02*
Y4216324D01*
X7139991Y3608197D02*
X7191781Y3659988D01*
X7139991Y3458134D02*
Y3608197D01*
Y3458134D02*
X7191781Y3406343D01*
Y2006524D02*
Y3406343D01*
X6882257Y1696999D02*
X7191781Y2006524D01*
X3995496Y1696999D02*
X6882257D01*
X3824529Y1867967D02*
X3995496Y1696999D01*
X3824529Y1867967D02*
Y2047215D01*
X3709314Y2162429D02*
X3824529Y2047215D01*
X3709314Y2162429D02*
Y2234870D01*
X5239715Y1105687D02*
Y1184605D01*
X5200396Y1223924D02*
X5239715Y1184605D01*
X5195418Y1223924D02*
X5200396D01*
X6596431Y3824427D02*
X6679819D01*
X6557874Y3785870D02*
X6596431Y3824427D01*
X6953377Y3944442D02*
X7044385D01*
X7082561Y3982618D01*
X7071462Y1489634D02*
X7107225Y1525397D01*
X6032297Y1489634D02*
X7071462D01*
X5173904Y4225849D02*
X5179695Y4220058D01*
X5225034D01*
X5399735Y1105687D02*
Y1197407D01*
X5437556Y1235227D01*
X6462928Y4344441D02*
X6679819D01*
X6317234Y4198747D02*
X6462928Y4344441D01*
X6317234Y4184980D02*
Y4198747D01*
X6953377Y4104437D02*
X7062749D01*
X7124370Y4166057D01*
Y4174947D01*
X6912000Y4224426D02*
X6953377D01*
X6785077Y4351350D02*
X6912000Y4224426D01*
X6785077Y4351350D02*
Y4458335D01*
X6548196Y3544443D02*
X6679819D01*
X6504203Y3588436D02*
X6548196Y3544443D01*
X6503949Y3588436D02*
X6504203D01*
X5759729Y1105687D02*
Y1250010D01*
X5795543Y1285824D01*
X5879719Y1105687D02*
Y1197585D01*
X5905906Y1223772D01*
X5914593D01*
X5921223Y1230401D01*
X3611042Y5395265D02*
Y5440045D01*
X3528339Y5312562D02*
X3611042Y5395265D01*
X2964891Y5312562D02*
X3528339D01*
X2881909Y5395544D02*
X2964891Y5312562D01*
X2166823Y5395544D02*
X2881909D01*
X2048840Y5513527D02*
X2166823Y5395544D01*
X2048840Y5513527D02*
Y5552567D01*
X2044751Y845312D02*
X2161921Y728142D01*
Y235483D02*
Y728142D01*
Y235483D02*
X2296973Y100432D01*
X5648071D01*
X6283528Y735889D01*
X6650584D01*
X6749948Y835254D01*
Y1399896D01*
X6721119Y1428725D02*
X6749948Y1399896D01*
X6691782Y1428725D02*
X6721119D01*
X3422320Y5605755D02*
X3549320D01*
X3611042Y5544033D01*
Y5440045D02*
Y5544033D01*
X6679819Y3944442D02*
X6759219D01*
X6797929Y3983152D01*
Y3985844D01*
X5959729Y519659D02*
Y832129D01*
X5769610Y329540D02*
X5959729Y519659D01*
X4283431Y329540D02*
X5769610D01*
X4125951Y172060D02*
X4283431Y329540D01*
X2331364Y172060D02*
X4125951D01*
X2235530Y267894D02*
X2331364Y172060D01*
X2235530Y267894D02*
Y858876D01*
X2490419Y1113765D01*
Y1331087D01*
X2445944Y1375562D02*
X2490419Y1331087D01*
X6679819Y4024427D02*
X6792773D01*
X6822999Y4054653D01*
Y4065143D01*
X6679819Y3704438D02*
X6733921D01*
X6813728Y3784244D01*
X6814210D01*
X5039716Y771576D02*
Y832129D01*
X5035499Y767359D02*
X5039716Y771576D01*
X5119726Y832129D02*
Y879754D01*
X5044034Y955446D02*
X5119726Y879754D01*
X6953377Y3704438D02*
X7065899D01*
X7127088Y3765626D01*
Y3787470D01*
X5867857Y5591048D02*
Y5690565D01*
X5811825Y5746598D02*
X5867857Y5690565D01*
X5486756Y5746598D02*
X5811825D01*
X5471262Y5731104D02*
X5486756Y5746598D01*
X4200525Y5731104D02*
X5471262D01*
X3733419Y5263998D02*
X4200525Y5731104D01*
X2929306Y5263998D02*
X3733419D01*
X2833853Y5359451D02*
X2929306Y5263998D01*
X2169135Y5359451D02*
X2833853D01*
X2108733Y5419852D02*
X2169135Y5359451D01*
X1933194Y5419852D02*
X2108733D01*
X1829054Y5315712D02*
X1933194Y5419852D01*
X1818615Y5315712D02*
X1829054D01*
X6953377Y3664433D02*
X7020433D01*
X7021830Y3665830D01*
X5319725Y832129D02*
Y903046D01*
X5200371Y1022401D02*
X5319725Y903046D01*
X5200371Y1022401D02*
Y1023798D01*
X6527749Y2984424D02*
X6679819D01*
X6502806Y3009367D02*
X6527749Y2984424D01*
X6502806Y3009367D02*
Y3021635D01*
X6903745Y3544443D02*
X6953377D01*
X6876898Y3571291D02*
X6903745Y3544443D01*
X6876898Y3571291D02*
Y3587471D01*
X6871208Y3593160D02*
X6876898Y3587471D01*
X6679819Y4104437D02*
X6733159D01*
X6769710Y4067886D01*
X1728597Y3631971D02*
X1748028Y3612540D01*
X1728597Y3631971D02*
Y5290033D01*
X2044141Y5605577D01*
X2290801D01*
X2329434Y5566943D01*
X5472278Y5361051D02*
X5474640Y5358689D01*
X5472278Y5361051D02*
Y5419293D01*
X6953377Y3504438D02*
X7008419D01*
X7025056Y3521075D01*
X5559730Y832129D02*
Y944067D01*
X5483682Y1020115D02*
X5559730Y944067D01*
X5519725Y832129D02*
Y924611D01*
X5478983Y965352D02*
X5519725Y924611D01*
X6953377Y3864432D02*
X7005676D01*
X7023456Y3882212D01*
Y3900475D01*
X6679819Y3344443D02*
X6715658D01*
X6753835Y3382620D01*
X3509975Y5565750D02*
X3535248Y5540477D01*
X3422320Y5565750D02*
X3509975D01*
X5359730Y1105687D02*
Y1141654D01*
X5369890Y1151814D01*
Y1204366D01*
X5356911Y1217346D02*
X5369890Y1204366D01*
X5354091Y1217346D02*
X5356911D01*
X5797118Y5968797D02*
X5798007Y5967908D01*
Y5914339D02*
Y5967908D01*
X5787847Y5904179D02*
X5798007Y5914339D01*
X5787847Y5864606D02*
Y5904179D01*
X6953377Y3624428D02*
X7040956D01*
X7079717Y3663188D01*
X6679819Y3904437D02*
X6787388D01*
X6852615Y3969664D01*
Y3981806D01*
X5467858Y5517947D02*
Y5591048D01*
Y5517947D02*
X5472278Y5513527D01*
Y5472684D02*
Y5513527D01*
X6953377Y3304438D02*
X7018147D01*
X6911416Y4264431D02*
X6953377D01*
X6841744Y4334104D02*
X6911416Y4264431D01*
X6841744Y4334104D02*
Y4460367D01*
X5584012Y5358689D02*
X5584292Y5358968D01*
X5474640Y5358689D02*
X5584012D01*
X5450484Y5472684D02*
X5472278D01*
X5424805Y5447005D02*
X5450484Y5472684D01*
X5424805Y5353075D02*
Y5447005D01*
X5400497Y5328768D02*
X5424805Y5353075D01*
X5346268Y5328768D02*
X5400497D01*
X5184318Y5166817D02*
X5346268Y5328768D01*
X2923819Y5166817D02*
X5184318D01*
X2911373Y5179263D02*
X2923819Y5166817D01*
X5747842Y5864606D02*
Y5922315D01*
X5758028Y5932500D01*
X5827852Y5544210D02*
Y5591048D01*
Y5544210D02*
X5863971Y5508092D01*
Y5428590D02*
Y5508092D01*
X5851474Y5416093D02*
X5863971Y5428590D01*
X5851474Y5358181D02*
Y5416093D01*
X6079719Y1105687D02*
Y1367739D01*
X5966003Y1481455D02*
X6079719Y1367739D01*
X4680890Y1481455D02*
X5966003D01*
X4463466Y1264031D02*
X4680890Y1481455D01*
X4463466Y914756D02*
Y1264031D01*
X4029253Y480543D02*
X4463466Y914756D01*
X3552215Y480543D02*
X4029253D01*
X3518332Y514426D02*
X3552215Y480543D01*
X3518332Y514426D02*
Y533806D01*
X3648304Y3828720D02*
X3650894Y3831311D01*
X3648304Y3776015D02*
Y3828720D01*
X5547843Y5552161D02*
Y5591048D01*
Y5552161D02*
X5626710Y5473294D01*
Y5468798D02*
Y5473294D01*
X5679719Y832129D02*
Y942340D01*
X5605932Y1016127D02*
X5679719Y942340D01*
X6629654Y4144442D02*
X6679819D01*
X6590335Y4105123D02*
X6629654Y4144442D01*
X6679819Y3504438D02*
X6738772D01*
X6756248Y3521913D01*
Y3589909D01*
X5079721Y832129D02*
Y864260D01*
X5041849Y902132D02*
X5079721Y864260D01*
X2951074Y4885157D02*
X3047289D01*
X5679719Y1105687D02*
Y1185062D01*
X5719394Y1224737D01*
Y1228395D01*
X6943776Y1649247D02*
X7205548Y1911020D01*
X3951554Y1649247D02*
X6943776D01*
X3748710Y1852092D02*
X3951554Y1649247D01*
X3748710Y1852092D02*
Y1899285D01*
X6953377Y2904439D02*
X7045503D01*
X7071487Y2878455D01*
Y2865272D02*
Y2878455D01*
X6636944Y3184423D02*
X6679819D01*
X6600800Y3148279D02*
X6636944Y3184423D01*
X6560287Y3148279D02*
X6600800D01*
X6516014Y3192551D02*
X6560287Y3148279D01*
X6452946Y3192551D02*
X6516014D01*
X6439789Y3179394D02*
X6452946Y3192551D01*
X6953377Y3224428D02*
X7066153D01*
X7127621Y3285896D01*
Y3302076D01*
X5879719Y832129D02*
Y914527D01*
X5915406Y950214D01*
X5921858D01*
X6679819Y3304438D02*
X6730517D01*
X6807175Y3381096D01*
X6953377Y3744443D02*
X7045173D01*
X7071487Y3770757D01*
Y3785057D01*
X2329434Y5566943D02*
X2368525Y5527853D01*
X2996387D01*
X3004185Y5535651D01*
X3034284Y5565750D01*
X3148762D01*
X5507863Y5591048D02*
Y5674208D01*
X5555971Y5722315D01*
X5671718D01*
X5696026Y5698007D01*
X5839714Y832129D02*
Y924611D01*
X5920537Y1005434D01*
X5639714Y832129D02*
Y919531D01*
X5602580Y956666D02*
X5639714Y919531D01*
X6599276Y4224426D02*
X6679819D01*
X6555156Y4180307D02*
X6599276Y4224426D01*
X6537630Y4180307D02*
X6555156D01*
X6953377Y3104439D02*
X7047941D01*
X7128383Y3184881D01*
Y3185185D01*
X5279720Y1105687D02*
Y1208710D01*
X5211166Y1277264D02*
X5279720Y1208710D01*
X5196611Y1277264D02*
X5211166D01*
X5999734Y525882D02*
Y832129D01*
X5779516Y305664D02*
X5999734Y525882D01*
X4302277Y305664D02*
X5779516D01*
X4144797Y148184D02*
X4302277Y305664D01*
X2321458Y148184D02*
X4144797D01*
X2209673Y259969D02*
X2321458Y148184D01*
X2209673Y259969D02*
Y866800D01*
X2442820Y1099947D01*
Y1122350D01*
X6953377Y4024427D02*
X7055917D01*
X7084416Y4052926D01*
Y4058615D01*
X6896811Y4449445D02*
X6910172Y4462805D01*
X6896811Y4315612D02*
Y4449445D01*
Y4315612D02*
X6907987Y4304436D01*
X6953377D01*
X5407787Y6000445D02*
X5432450Y6025109D01*
X5453177D01*
X6910172Y4462805D02*
Y4489120D01*
X6943192Y4522140D01*
X7097852D01*
X7292340Y4327652D01*
Y1849603D02*
Y4327652D01*
X6999580Y1556842D02*
X7292340Y1849603D01*
X4652620Y1556842D02*
X6999580D01*
X4414063Y1318285D02*
X4652620Y1556842D01*
X4414063Y1045566D02*
Y1318285D01*
X3897630Y529133D02*
X4414063Y1045566D01*
X3651301Y529133D02*
X3897630D01*
X3467430Y713003D02*
X3651301Y529133D01*
X3335299Y713003D02*
X3467430D01*
X3305251Y682955D02*
X3335299Y713003D01*
X3305251Y668731D02*
Y682955D01*
X6679819Y3664433D02*
X6783807D01*
X6867169Y3747795D01*
Y3781857D01*
X6867525Y3782212D01*
X5467858Y5864606D02*
Y5910809D01*
X5453177Y5925490D02*
X5467858Y5910809D01*
X5453177Y5925490D02*
Y5971718D01*
X6953377Y4064432D02*
X7031126D01*
X5599735Y1105687D02*
Y1194511D01*
X5636590Y1231367D01*
Y1235253D01*
X2196643Y5559323D02*
X2320341Y5435625D01*
X2898546D01*
X2997302Y5336870D01*
X3202153D01*
X3264027Y5398745D01*
Y5537251D01*
X3225571Y5575706D02*
X3264027Y5537251D01*
X5427853Y5819673D02*
Y5864606D01*
X5367604Y5759425D02*
X5427853Y5819673D01*
X4968240Y5759425D02*
X5367604D01*
X4951197Y5776468D02*
X4968240Y5759425D01*
X6642329Y3104439D02*
X6679819D01*
X6632169Y3094279D02*
X6642329Y3104439D01*
X6498844Y3094279D02*
X6632169D01*
X6493281Y3099841D02*
X6498844Y3094279D01*
X5839714Y1105687D02*
Y1247394D01*
X5872759Y1280439D01*
Y1293266D01*
X5587848Y5557215D02*
Y5591048D01*
Y5557215D02*
X5622544Y5522519D01*
X5628030D01*
X5692800Y5457749D01*
Y5359781D02*
Y5457749D01*
X6953377Y3344443D02*
X7033057D01*
X7071487Y3382874D01*
X6521577Y2944444D02*
X6679819D01*
X6508471Y2931338D02*
X6521577Y2944444D01*
X6508471Y2870937D02*
Y2931338D01*
X5787847Y5525135D02*
Y5591048D01*
Y5525135D02*
X5813247Y5499735D01*
Y5491607D02*
Y5499735D01*
X3061259Y5456707D02*
X3090316Y5485765D01*
X3148762D01*
X3095498Y5525770D02*
X3148762D01*
X3088589Y5518861D02*
X3095498Y5525770D01*
X3063850Y5518861D02*
X3088589D01*
X5479720Y1105687D02*
Y1152677D01*
X5478323Y1154074D02*
X5479720Y1152677D01*
X5478323Y1154074D02*
Y1200506D01*
X5512537Y1234719D01*
X5516626D01*
X5159731Y1105687D02*
Y1209116D01*
X5020869Y1347978D02*
X5159731Y1209116D01*
X5009363Y1347978D02*
X5020869D01*
X6953377Y4144442D02*
X7034428D01*
X7071411Y4181424D01*
X5119726Y1105687D02*
Y1186993D01*
X5012030Y1294689D02*
X5119726Y1186993D01*
X3565068Y1702613D02*
X3566211Y1703756D01*
X3508527Y1702613D02*
X3565068D01*
X3195523Y5605755D02*
X3225571Y5575706D01*
X3148762Y5605755D02*
X3195523D01*
X3346501Y5565750D02*
X3422320D01*
X3297631Y5614619D02*
X3346501Y5565750D01*
X3297631Y5614619D02*
Y5695213D01*
X3220364Y5772480D02*
X3297631Y5695213D01*
X2309622Y5772480D02*
X3220364D01*
X2275053Y5807050D02*
X2309622Y5772480D01*
X5359730Y832129D02*
Y922096D01*
X5394757Y957123D01*
X6953377Y4224426D02*
X7149897D01*
X7167905Y4206418D01*
Y3680028D02*
Y4206418D01*
X7116115Y3628238D02*
X7167905Y3680028D01*
X7116115Y3448202D02*
Y3628238D01*
Y3448202D02*
X7167905Y3396412D01*
Y2026742D02*
Y3396412D01*
X6862039Y1720875D02*
X7167905Y2026742D01*
X4005402Y1720875D02*
X6862039D01*
X3848405Y1877873D02*
X4005402Y1720875D01*
X3848405Y1877873D02*
Y2057146D01*
X3769131Y2136419D02*
X3848405Y2057146D01*
X3769131Y2136419D02*
Y2228469D01*
X6953377Y3424428D02*
X7091782D01*
X7124802Y3391408D01*
Y3384906D02*
Y3391408D01*
X6953377Y4344441D02*
X6983857D01*
X7005955Y4366539D01*
Y4417314D01*
X6963918Y4459351D02*
X7005955Y4417314D01*
X6963918Y4459351D02*
Y4483532D01*
X5692800Y5359781D02*
X5717540D01*
X5718556Y5358765D01*
X5753583D01*
X5667858Y5824525D02*
Y5864606D01*
X5629300Y5785968D02*
X5667858Y5824525D01*
X5464607Y5785968D02*
X5629300D01*
X5461533Y5789041D02*
X5464607Y5785968D01*
X6953377Y2944444D02*
X7046925D01*
X7124827Y2866542D01*
Y2865425D02*
Y2866542D01*
X5439715Y832129D02*
Y966953D01*
X5393411Y1013257D02*
X5439715Y966953D01*
X6953377Y3464433D02*
X7033184D01*
X7075475Y3506724D01*
X7077507D01*
X5907862Y5864606D02*
Y5912510D01*
X5924626Y5929274D01*
X6635521Y3144444D02*
X6679819D01*
X6613474Y3122397D02*
X6635521Y3144444D01*
X6539154Y3122397D02*
X6613474D01*
X6508420Y3153131D02*
X6539154Y3122397D01*
X6495948Y3153131D02*
X6508420D01*
X5667858Y5517540D02*
Y5591048D01*
Y5517540D02*
X5742508Y5442890D01*
Y5427091D02*
Y5442890D01*
X6679819Y3744443D02*
X6718859D01*
X6757848Y3783432D01*
X6579210Y3864432D02*
X6679819D01*
X6504686Y3789909D02*
X6579210Y3864432D01*
X3595141Y521132D02*
X3611855Y504419D01*
X3906723D01*
X4437939Y1035634D01*
Y1272311D01*
X4698594Y1532966D01*
X7009486D01*
X7316216Y1839697D01*
Y4356659D01*
X7126859Y4546016D02*
X7316216Y4356659D01*
X6802806Y4546016D02*
X7126859D01*
X6740373Y4483583D02*
X6802806Y4546016D01*
X6740373Y4233418D02*
Y4483583D01*
Y4233418D02*
X6822999Y4150792D01*
Y4065143D02*
Y4150792D01*
X3644087Y3905428D02*
X3647211Y3908552D01*
Y3968521D01*
X5639714Y1105687D02*
Y1178839D01*
X5680786Y1219911D01*
Y1249324D01*
X5717464Y1286002D01*
X5959729Y832129D02*
Y871652D01*
X5994552Y906475D01*
X135738Y5233365D02*
Y5737911D01*
X377342Y5979516D01*
X825754D01*
X1464132Y5341137D01*
X5279720Y832129D02*
Y888441D01*
X5197653Y970509D02*
X5279720Y888441D01*
X3422320Y5485765D02*
X3469259D01*
X3477184Y5493690D01*
X3510813D01*
X3548228Y5456276D01*
Y5441671D02*
Y5456276D01*
X6494501Y4304436D02*
X6679819D01*
X6370371Y4180307D02*
X6494501Y4304436D01*
X3179928Y670077D02*
X3246730Y736879D01*
X3477336D01*
X3658362Y555854D01*
X3884422D01*
X4380662Y1052093D01*
Y1318920D01*
X4642460Y1580718D01*
X6989674D01*
X7268464Y1859509D01*
Y4317721D01*
X7087921Y4498264D02*
X7268464Y4317721D01*
X6978650Y4498264D02*
X7087921D01*
X6963918Y4483532D02*
X6978650Y4498264D01*
X5039716Y1105687D02*
Y1150112D01*
X5010709Y1179119D02*
X5039716Y1150112D01*
X5799734Y832129D02*
Y947928D01*
X5722874Y1024788D02*
X5799734Y947928D01*
Y1105687D02*
Y1221715D01*
X6953377Y2984424D02*
X7049135D01*
X7071462Y3006750D01*
Y3022371D01*
X5851474Y5358181D02*
X5907354D01*
X6953377Y3824427D02*
X7032066D01*
X7083374Y3875735D01*
Y3904894D01*
X5584292Y5358968D02*
Y5361991D01*
X5629961Y5407660D01*
Y5413324D01*
X6039714Y1105687D02*
Y1363802D01*
X5945937Y1457579D02*
X6039714Y1363802D01*
X4690796Y1457579D02*
X5945937D01*
X4487342Y1254125D02*
X4690796Y1457579D01*
X4487342Y904850D02*
Y1254125D01*
X4039159Y456667D02*
X4487342Y904850D01*
X3534689Y456667D02*
X4039159D01*
X3456864Y534492D02*
X3534689Y456667D01*
X5079721Y1105687D02*
Y1170254D01*
X5012715Y1237259D02*
X5079721Y1170254D01*
X5239715Y832129D02*
Y867639D01*
X5197653Y909701D02*
X5239715Y867639D01*
X5159527Y832333D02*
X5159731Y832129D01*
X5159527Y832333D02*
Y894563D01*
X5047082Y1007008D02*
X5159527Y894563D01*
X5047082Y1007008D02*
Y1008710D01*
X4240276Y124308D02*
X4367657Y251689D01*
X2311552Y124308D02*
X4240276D01*
X2185797Y250063D02*
X2311552Y124308D01*
X2185797Y250063D02*
Y876732D01*
X2284501Y975436D01*
Y1237767D01*
X2216074Y1306195D02*
X2284501Y1237767D01*
X6566205Y4064432D02*
X6679819D01*
X6536817Y4093820D02*
X6566205Y4064432D01*
X6536817Y4093820D02*
Y4103776D01*
X6535471Y4105123D02*
X6536817Y4103776D01*
X6679819Y3464433D02*
X6738468D01*
X6812128Y3538093D01*
Y3588283D01*
X5559730Y1105687D02*
Y1213002D01*
X5633974Y1287247D01*
Y1287678D01*
X5636641Y1290345D01*
X3748684Y2010004D02*
X3800653Y1958035D01*
Y1853590D02*
Y1958035D01*
Y1853590D02*
X3981120Y1673123D01*
X6912991D01*
X7204227Y1964360D01*
X5759729Y832129D02*
Y926465D01*
X5720182Y966013D02*
X5759729Y926465D01*
X6600419Y2904439D02*
X6679819D01*
X6561557Y2865577D02*
X6600419Y2904439D01*
X6888607Y3904437D02*
X6953377D01*
Y3064434D02*
X7086321D01*
X7124802Y3025953D01*
Y3023006D02*
Y3025953D01*
X5867857Y5864606D02*
Y5902046D01*
X5884799Y5918987D01*
Y5964758D01*
X5707863Y5537022D02*
Y5591048D01*
Y5537022D02*
X5738647Y5506237D01*
Y5501361D02*
Y5506237D01*
X3480613Y974750D02*
X3732301Y1226439D01*
X4250080D01*
X4628236Y1604594D01*
X6979742D01*
X7244156Y1869008D01*
Y3444799D01*
X7178599Y3510356D02*
X7244156Y3444799D01*
X3636721Y1814500D02*
Y1862277D01*
X3673729Y1899285D01*
X6581877Y3424428D02*
X6679819D01*
X6561709Y3404260D02*
X6581877Y3424428D01*
X6561709Y3385058D02*
Y3404260D01*
X5479720Y832129D02*
Y902894D01*
X6953377Y3264433D02*
X7046239D01*
X7071436Y3289630D01*
Y3302076D01*
X3616655Y2017471D02*
X3624123Y2010004D01*
X3673704D01*
X5999734Y1105687D02*
Y1360932D01*
X5929630Y1431036D02*
X5999734Y1360932D01*
X4698035Y1431036D02*
X5929630D01*
X4511218Y1244219D02*
X4698035Y1431036D01*
X4511218Y894944D02*
Y1244219D01*
X4049065Y432791D02*
X4511218Y894944D01*
X3503955Y432791D02*
X4049065D01*
X3366719Y570027D02*
X3503955Y432791D01*
X3366719Y570027D02*
Y674395D01*
X3257779Y3345713D02*
X3280689Y3368624D01*
X3312262D01*
X4926305Y4461586D02*
Y4618380D01*
X4773524Y4771161D02*
X4926305Y4618380D01*
X4241851Y4771161D02*
X4773524D01*
X6528079Y4264431D02*
X6679819D01*
X6484290Y4220642D02*
X6528079Y4264431D01*
X6484290Y4181577D02*
Y4220642D01*
X6600444Y3624428D02*
X6679819D01*
X6561709Y3585693D02*
X6600444Y3624428D01*
X6561709Y3585540D02*
Y3585693D01*
X5439715Y1105687D02*
Y1175588D01*
X6953377Y3144444D02*
X7046087D01*
X7075043Y3173400D01*
Y3186176D01*
X5347843Y5591048D02*
Y5652160D01*
X5314290Y5685714D02*
X5347843Y5652160D01*
X4919497Y5685714D02*
X5314290D01*
D63*
X5352618Y5472024D02*
X5381904D01*
X5317414Y5436819D02*
X5352618Y5472024D01*
X5317414Y5412511D02*
Y5436819D01*
X5249469Y5344566D02*
X5317414Y5412511D01*
X5249469Y5287366D02*
Y5344566D01*
X5142687Y4045306D02*
X5167300Y4020693D01*
X5116779Y4045306D02*
X5142687D01*
X3897605Y3999865D02*
X3905555Y3991915D01*
X3897605Y3999865D02*
Y4042969D01*
X3778428Y3908908D02*
X3799078Y3888257D01*
X3835603D01*
X3792220Y3821633D02*
X3794785Y3819068D01*
Y3771748D02*
Y3819068D01*
X2904592Y935203D02*
X2910383Y929411D01*
X2904592Y935203D02*
Y986180D01*
X5424957Y4075024D02*
X5431917Y4068064D01*
X5471566D01*
X5474640Y4064991D01*
X5026584Y3886378D02*
Y3916121D01*
X5013858Y3873652D02*
X5026584Y3886378D01*
X4097376Y3830447D02*
X4099890Y3827932D01*
Y3781730D02*
Y3827932D01*
X2993644Y3589299D02*
X2998292Y3584651D01*
X2993644Y3589299D02*
Y3635248D01*
X5454574Y3713429D02*
X5466563Y3725418D01*
X5418506Y3713429D02*
X5454574D01*
X3254426Y3900729D02*
X3258388Y3904691D01*
X3254426Y3853028D02*
Y3900729D01*
X2995219Y3261538D02*
X2998292Y3264611D01*
X2995219Y3215157D02*
Y3261538D01*
X5520741Y4019372D02*
Y4038092D01*
X5548452Y4065803D01*
X3573323Y3901999D02*
X3581197Y3909873D01*
X3573323Y3776015D02*
Y3901999D01*
X5412308Y3719627D02*
X5418506Y3713429D01*
X5372481Y3719627D02*
X5412308D01*
X3193364Y4224731D02*
X3201086Y4232453D01*
Y4302811D01*
X3739540Y3537636D02*
X3780409Y3578504D01*
X3739540Y3537153D02*
Y3537636D01*
X5370068Y3768877D02*
X5370322Y3768623D01*
X5320944Y3768877D02*
X5370068D01*
X3868801Y4232478D02*
X3897071Y4204208D01*
Y4192549D02*
Y4204208D01*
X5416931Y3819881D02*
X5425770Y3828720D01*
Y3909314D01*
X5415712Y3919372D02*
X5425770Y3909314D01*
X3383966Y3260141D02*
X3388436Y3264611D01*
X3383966Y3218790D02*
Y3260141D01*
X3835603Y3984168D02*
X3841928Y3990492D01*
X3835603Y3941648D02*
Y3984168D01*
X5569737Y3968750D02*
X5655107D01*
X5679313Y3992956D01*
Y4023284D01*
X5676976Y1870100D02*
X5700928Y1846148D01*
X5676976Y1870100D02*
Y1910766D01*
X2857475Y413283D02*
X2987980Y282778D01*
X2857475Y413283D02*
Y936295D01*
X5517617Y3696589D02*
Y3722497D01*
Y3696589D02*
X5544312Y3669894D01*
X5719928D01*
X4260367Y3469945D02*
X4268394Y3461918D01*
X4199788Y3469945D02*
X4260367D01*
X3848176Y3807943D02*
X3860851Y3820617D01*
X3848176Y3771748D02*
Y3807943D01*
X3950386Y4238473D02*
X3950462Y4238396D01*
Y4192549D02*
Y4238396D01*
X4038092Y4149344D02*
X4043020Y4154272D01*
X4085565D01*
X5416931Y3819881D02*
X5425694Y3811118D01*
Y3774186D02*
Y3811118D01*
X5371668Y4017315D02*
X5375986Y4021633D01*
X5424957D01*
X5172354Y3719627D02*
X5188433Y3735705D01*
Y3772586D01*
X5518658Y3920211D02*
Y3966439D01*
X5516347Y3968750D02*
X5518658Y3966439D01*
X5012487Y4209059D02*
Y4237736D01*
X4974895Y4275328D02*
X5012487Y4237736D01*
X4965522Y4275328D02*
X4974895D01*
X5462880Y4283075D02*
X5474716Y4271239D01*
X5425161Y4283075D02*
X5462880D01*
X5370322Y3721786D02*
X5372481Y3719627D01*
X5370322Y3721786D02*
Y3768623D01*
X4868266Y3570453D02*
X4868774Y3570961D01*
Y3618865D01*
X5423433Y4020109D02*
X5424957Y4021633D01*
X5423433Y3967861D02*
Y4020109D01*
X2379751Y936727D02*
X2445004Y871474D01*
Y444729D02*
Y871474D01*
X2324938Y324663D02*
X2445004Y444729D01*
X3193364Y3424631D02*
X3198749Y3430016D01*
X3242208D01*
X5459984Y4021633D02*
X5468925Y4012692D01*
X5424957Y4021633D02*
X5459984D01*
X5415509Y2150542D02*
X5459527D01*
X5410276Y2155774D02*
X5415509Y2150542D01*
X4798035Y4343933D02*
X4802657D01*
X4740656Y4401312D02*
X4798035Y4343933D01*
X5077384Y4019652D02*
X5091125D01*
X5116779Y4045306D01*
X5225034Y4273448D02*
Y4298315D01*
X5215153Y4308196D02*
X5225034Y4298315D01*
X5215153Y4308196D02*
Y4336593D01*
X5423433Y3932403D02*
Y3967861D01*
X5417922Y3926891D02*
X5423433Y3932403D01*
X5417922Y3921582D02*
Y3926891D01*
X5415712Y3919372D02*
X5417922Y3921582D01*
X5170145Y4276522D02*
X5173218Y4273448D01*
X5225034D01*
X5536819Y3873652D02*
X5650636D01*
X5672328Y3895344D01*
Y3919753D01*
X5271897Y3668827D02*
X5277460Y3663264D01*
X5326075D01*
X5467299Y3889781D02*
Y3921074D01*
Y3889781D02*
X5483428Y3873652D01*
X6150940Y4305960D02*
X6240170Y4395191D01*
X6150940Y4150385D02*
Y4305960D01*
X5787949Y3787394D02*
X6150940Y4150385D01*
X5725465Y3787394D02*
X5787949D01*
X3859860Y3664763D02*
X3863086Y3661537D01*
Y3621710D02*
Y3661537D01*
X3323412Y3264611D02*
X3330575Y3257448D01*
Y3218790D02*
Y3257448D01*
X5535981Y4271239D02*
X5571211D01*
X5525059Y4260317D02*
X5535981Y4271239D01*
X5019802Y4029100D02*
X5026635Y4022268D01*
X5019802Y4029100D02*
Y4069283D01*
X3626917Y4173753D02*
X3662705D01*
X3590696Y4209974D02*
X3626917Y4173753D01*
X3590696Y4209974D02*
Y4229252D01*
X5583047Y3468751D02*
X5585028Y3466770D01*
Y3420872D02*
Y3466770D01*
X5369357Y4069486D02*
X5370728Y4068115D01*
X5326482Y4069486D02*
X5369357D01*
X5128717Y3412617D02*
Y3425647D01*
X5165827Y3462757D01*
X5175148D01*
X3387242Y3423437D02*
X3388436Y3424631D01*
X3387242Y3368624D02*
Y3423437D01*
X5708294Y3770224D02*
X5725465Y3787394D01*
X5546420Y3770224D02*
X5708294D01*
X5519928Y3796716D02*
X5546420Y3770224D01*
X5519928Y3796716D02*
Y3820236D01*
X5412842Y2099462D02*
X5415153Y2097151D01*
X5459527D01*
X3714369Y4224299D02*
X3736950Y4246880D01*
Y4286148D01*
X3648227Y3509239D02*
X3676142Y3537153D01*
X3686150D01*
X6679819Y3264433D02*
X6730467D01*
X6781673Y3213227D01*
Y3166008D02*
Y3213227D01*
X3572231Y3918839D02*
X3581197Y3909873D01*
X3572231Y3918839D02*
Y3968521D01*
X6953377Y2584425D02*
X7018147D01*
X5593334Y2099462D02*
X5607812Y2113940D01*
Y2147138D01*
X5604078Y1849806D02*
X5604434Y1849450D01*
X5552440Y1849806D02*
X5604078D01*
X3193364Y3504641D02*
X3214599Y3483407D01*
X3242208D01*
X5074158Y3462807D02*
X5075326Y3461639D01*
Y3412617D02*
Y3461639D01*
X5369509Y3716655D02*
X5372481Y3719627D01*
X5326075Y3716655D02*
X5369509D01*
X5620614Y4216857D02*
Y4252011D01*
X5638241Y4269638D01*
X5671922D01*
X5523306Y3429203D02*
X5531637Y3420872D01*
X5523306Y3429203D02*
Y3638880D01*
X5492547Y3669640D02*
X5523306Y3638880D01*
X5472557Y3669640D02*
X5492547D01*
X3252191Y3590849D02*
X3258388Y3584651D01*
X3252191Y3590849D02*
Y3631590D01*
X5019802Y4069283D02*
X5019827Y4069258D01*
X5071643D01*
X5072634Y4070248D01*
X2933268Y3264611D02*
X2941828Y3256051D01*
Y3215157D02*
Y3256051D01*
X3792220Y3667709D02*
X3809695Y3650234D01*
Y3621710D02*
Y3650234D01*
X5131994Y3773780D02*
X5187239D01*
X5188433Y3772586D01*
X2992958Y4230065D02*
X2998292Y4224731D01*
X2992958Y4230065D02*
Y4291127D01*
X3647110Y4061612D02*
X3662705Y4077208D01*
Y4120363D01*
X3647567Y3268167D02*
X3652037Y3263697D01*
Y3211398D02*
Y3263697D01*
X5123764Y3722370D02*
X5126507Y3719627D01*
X5172354D01*
X5167300Y4020693D02*
X5197907D01*
X5223256Y4046042D01*
X2917977Y4240022D02*
X2933268Y4224731D01*
X2917977Y4240022D02*
Y4291127D01*
X4104640Y3499282D02*
X4133977Y3469945D01*
X4146398D01*
X5959678Y2000504D02*
X6013831D01*
X4037736Y3829660D02*
X4046499Y3820897D01*
Y3781730D02*
Y3820897D01*
X3126105Y4226966D02*
X3128340Y4224731D01*
X3126105Y4226966D02*
Y4302811D01*
X3388436Y4224731D02*
X3389020Y4225315D01*
Y4301211D01*
X5410276Y1993036D02*
X5411902Y1991411D01*
X5458739D01*
X5080584Y3725824D02*
X5084039Y3722370D01*
X5123764D01*
X3841928Y3990492D02*
X3844214Y3992778D01*
Y4042969D01*
X5077384Y4019652D02*
X5122291Y3974744D01*
Y3965651D02*
Y3974744D01*
X5128184Y3913048D02*
Y3959758D01*
X5122291Y3965651D02*
X5128184Y3959758D01*
X5128285Y3777488D02*
Y3817925D01*
Y3777488D02*
X5131994Y3773780D01*
X5026584Y3916121D02*
Y3963416D01*
X5020589Y3969410D02*
X5026584Y3963416D01*
X2963596Y925601D02*
X3018714Y980719D01*
X3020365D01*
X2862148Y4070807D02*
X2868244Y4064711D01*
X2862148Y4070807D02*
Y4119677D01*
X5661203Y2127123D02*
X5687339Y2100986D01*
X5661203Y2127123D02*
Y2147138D01*
X3193364Y3904691D02*
X3201035Y3897020D01*
Y3853028D02*
Y3897020D01*
X2803220Y4064711D02*
X2808757Y4070248D01*
Y4119677D01*
X5601843Y4065803D02*
X5656809D01*
X5678475Y4087470D01*
Y4113174D01*
X4966411Y4029126D02*
X4975885Y4019652D01*
X4966411Y4029126D02*
Y4069283D01*
X6105220Y1984096D02*
X6154344D01*
X6088812Y2000504D02*
X6105220Y1984096D01*
X5420131Y3768623D02*
X5425694Y3774186D01*
X5370322Y3768623D02*
X5420131D01*
X4153916Y3837076D02*
X4161307Y3829685D01*
X4153916Y3837076D02*
Y3893083D01*
X5020208Y3507867D02*
Y3561842D01*
X4979416Y3467075D02*
X5020208Y3507867D01*
X4972914Y3467075D02*
X4979416D01*
X3577057Y3265729D02*
X3581298Y3269971D01*
X3577057Y3211398D02*
Y3265729D01*
X5758459Y1843049D02*
X5771972Y1856562D01*
Y1910766D01*
X5796966Y2002790D02*
X5799430Y2005254D01*
Y2048078D01*
X5973648Y2389505D02*
X5973775Y2389378D01*
X6039206D01*
X5123764Y3722370D02*
Y3734613D01*
X5131994Y3742842D01*
Y3773780D01*
X6611823Y2584425D02*
X6679819D01*
X5672328Y3821659D02*
X5691454Y3840785D01*
X5725465D01*
X5601005Y1903197D02*
X5601487Y1902714D01*
X5552440Y1903197D02*
X5601005D01*
X5469230Y3824300D02*
X5479085Y3814445D01*
Y3774186D02*
Y3814445D01*
X5412867Y2047646D02*
X5415712Y2044802D01*
X5458739D01*
X3193364Y3584651D02*
X3198800Y3590087D01*
Y3631590D01*
X5672328Y3719855D02*
X5675757Y3723284D01*
X5719928D01*
X3314040Y4234104D02*
X3323412Y4224731D01*
X3314040Y4234104D02*
Y4301211D01*
X5850941Y2003323D02*
X5852820Y2005203D01*
Y2048078D01*
X5919318Y2389505D02*
X5973648D01*
X4039387Y4219524D02*
X4051249Y4207662D01*
X4085565D01*
X2933268Y3584651D02*
X2940253Y3591636D01*
Y3635248D01*
D64*
X2272868Y735686D02*
X2381504Y844321D01*
X2272868Y287807D02*
Y735686D01*
Y287807D02*
X2346503Y214173D01*
X3202229D01*
X3274771Y286715D01*
X5361635Y5370068D02*
X5381904Y5390337D01*
Y5418633D01*
X4653102Y448081D02*
X4653178Y448005D01*
X4653102Y448081D02*
Y527380D01*
X4712589Y586867D01*
Y1126211D01*
X4614469Y1224331D02*
X4712589Y1126211D01*
X5364074Y5277764D02*
X5370017Y5283708D01*
X5474640D01*
X5719928Y3669894D02*
X5811672D01*
X6255182Y3226384D01*
Y2791536D02*
Y3226384D01*
Y2791536D02*
X6462293Y2584425D01*
X6611823D01*
X5849874Y5284800D02*
X5851474Y5283200D01*
X5692800Y5284800D02*
X5849874D01*
X4562577Y2530805D02*
X4627829Y2465553D01*
X4562577Y2530805D02*
Y2658085D01*
X4944796Y3040304D01*
X1669821Y2536368D02*
X1776679D01*
X1811655Y2501392D01*
X3494329D01*
X3524555Y2471166D01*
X5516880Y5216576D02*
X5584292Y5283987D01*
X5363566Y5216576D02*
X5516880D01*
X2514194Y1420419D02*
Y1438351D01*
X2455139Y1497406D02*
X2514194Y1438351D01*
X2455139Y1497406D02*
Y1499413D01*
X5691988Y5283987D02*
X5692800Y5284800D01*
X5584292Y5283987D02*
X5691988D01*
X3525850Y255930D02*
X3600704D01*
X3270402Y511378D02*
X3525850Y255930D01*
X3002001Y511378D02*
X3270402D01*
X2910383Y602996D02*
X3002001Y511378D01*
X2910383Y602996D02*
Y929411D01*
X3701313Y1763878D02*
Y1808429D01*
X3641192Y1703756D02*
X3701313Y1763878D01*
X3400019Y5072202D02*
X3429864Y5102047D01*
X5249037D01*
X5363566Y5216576D01*
D65*
X5973648Y2320519D02*
X5997905Y2296262D01*
X5973648Y2320519D02*
Y2336114D01*
X5336184Y4306494D02*
Y4328389D01*
X5331689Y4332884D02*
X5336184Y4328389D01*
X5268544Y4386555D02*
X5269382Y4387393D01*
X5268544Y4336593D02*
Y4386555D01*
X4944796Y3040304D02*
X5220995Y3316503D01*
Y3637661D01*
X4373423Y560527D02*
X4612945D01*
X4105478Y292583D02*
X4373423Y560527D01*
X3913226Y292583D02*
X4105478D01*
X3826231Y205588D02*
X3913226Y292583D01*
X3475812Y205588D02*
X3826231D01*
X3329915Y351485D02*
X3475812Y205588D01*
X3130042Y351485D02*
X3329915D01*
X3112948Y334391D02*
X3130042Y351485D01*
X3768344Y3258820D02*
X3781476Y3271952D01*
X3768344Y3209315D02*
Y3258820D01*
X5531637Y3355061D02*
Y3420872D01*
Y3355061D02*
X5678221Y3208477D01*
Y3031820D02*
Y3208477D01*
Y3031820D02*
X5878398Y2831643D01*
X6077483D01*
X5997905Y2296262D02*
X6037631Y2335987D01*
X6039206D01*
D66*
X5107864Y5509031D02*
Y5591048D01*
X5070475Y5471643D02*
X5107864Y5509031D01*
X4507865Y5864606D02*
Y5893105D01*
X4524985Y5910224D01*
Y5948782D01*
X4491050Y5982716D02*
X4524985Y5948782D01*
X4466819Y5982716D02*
X4491050D01*
X5027854Y5562549D02*
Y5591048D01*
X5010709Y5545404D02*
X5027854Y5562549D01*
X5010709Y5430215D02*
Y5545404D01*
X5000193Y5419700D02*
X5010709Y5430215D01*
X4953051Y5419700D02*
X5000193D01*
X4907864Y5495265D02*
Y5591048D01*
X4832274Y5419674D02*
X4907864Y5495265D01*
X4831613Y5419674D02*
X4832274D01*
X4667860Y5864606D02*
Y5954827D01*
X4586656Y6036031D02*
X4667860Y5954827D01*
X4747844Y5563133D02*
Y5591048D01*
Y5563133D02*
X4763287Y5547690D01*
Y5508041D02*
Y5547690D01*
X4728185Y5472938D02*
X4763287Y5508041D01*
X4707712Y5472938D02*
X4728185D01*
X4987849Y5510200D02*
Y5591048D01*
X4950638Y5472989D02*
X4987849Y5510200D01*
X4787849Y5500243D02*
Y5591048D01*
X4710125Y5422519D02*
X4787849Y5500243D01*
X4710125Y5419649D02*
Y5422519D01*
X4867859Y5562676D02*
Y5591048D01*
Y5562676D02*
X4884293Y5546242D01*
Y5504053D02*
Y5546242D01*
X4853254Y5473014D02*
X4884293Y5504053D01*
X4830801Y5473014D02*
X4853254D01*
X4387850Y5864606D02*
Y5893968D01*
X4404995Y5911113D01*
Y5946800D01*
X4369079Y5982716D02*
X4404995Y5946800D01*
X4348607Y5982716D02*
X4369079D01*
X4547845Y5490693D02*
Y5591048D01*
X4476750Y5419598D02*
X4547845Y5490693D01*
X4469816Y5419598D02*
X4476750D01*
X4787849Y5864606D02*
Y5956757D01*
X4708627Y6035980D02*
X4787849Y5956757D01*
X4704131Y6035980D02*
X4708627D01*
X4507865Y5562524D02*
Y5591048D01*
Y5562524D02*
X4524985Y5545404D01*
Y5500192D02*
Y5545404D01*
X4489425Y5464632D02*
X4524985Y5500192D01*
X4477182Y5464632D02*
X4489425D01*
X4468876Y5472938D02*
X4477182Y5464632D01*
X5147843Y5562524D02*
Y5591048D01*
X5130724Y5545404D02*
X5147843Y5562524D01*
X5130724Y5437048D02*
Y5545404D01*
X5111979Y5418303D02*
X5130724Y5437048D01*
X5069662Y5418303D02*
X5111979D01*
X5267858Y5562549D02*
Y5591048D01*
X5250713Y5545404D02*
X5267858Y5562549D01*
X5250713Y5482463D02*
Y5545404D01*
X5190312Y5422062D02*
X5250713Y5482463D01*
X5190312Y5419166D02*
Y5422062D01*
X4627855Y5864606D02*
Y5893714D01*
X4645000Y5910859D01*
Y5945353D01*
X4604766Y5985586D02*
X4645000Y5945353D01*
X4588662Y5985586D02*
X4604766D01*
X4585767Y5982691D02*
X4588662Y5985586D01*
X4427855Y5864606D02*
Y5956275D01*
X4345788Y6038342D02*
X4427855Y5956275D01*
X4344873Y6038342D02*
X4345788D01*
X4667860Y5497728D02*
Y5591048D01*
X4589780Y5419649D02*
X4667860Y5497728D01*
X4588688Y5419649D02*
X4589780D01*
X4427855Y5480660D02*
Y5591048D01*
X4366793Y5419598D02*
X4427855Y5480660D01*
X4349852Y5419598D02*
X4366793D01*
X4827422Y6037021D02*
X4907864Y5956579D01*
Y5864606D02*
Y5956579D01*
X4387850Y5542204D02*
Y5591048D01*
Y5542204D02*
X4399712Y5530342D01*
X4402099Y5524602D01*
Y5487264D02*
Y5524602D01*
X4374566Y5459730D02*
X4402099Y5487264D01*
X4361434Y5459730D02*
X4374566D01*
X4348226Y5472938D02*
X4361434Y5459730D01*
X4867859Y5864606D02*
Y5894146D01*
X4885004Y5911291D01*
Y5947105D01*
X4849393Y5982716D02*
X4885004Y5947105D01*
X4828921Y5982716D02*
X4849393D01*
X4827956Y5983681D02*
X4828921Y5982716D01*
X4547845Y5864606D02*
Y5958281D01*
X4470171Y6035954D02*
X4547845Y5958281D01*
X4747844Y5864606D02*
Y5893079D01*
X4764989Y5910224D01*
Y5947283D01*
X4729556Y5982716D02*
X4764989Y5947283D01*
X4707077Y5982716D02*
X4729556D01*
X5227853Y5512435D02*
Y5591048D01*
X5187874Y5472455D02*
X5227853Y5512435D01*
X4627855Y5562575D02*
Y5591048D01*
Y5562575D02*
X4645000Y5545430D01*
Y5507228D02*
Y5545430D01*
X4610760Y5472989D02*
X4645000Y5507228D01*
X4590313Y5472989D02*
X4610760D01*
D69*
X3811930Y4286148D02*
X3818077Y4280002D01*
D70*
X5331689Y4332884D02*
Y4538447D01*
X4878553Y4991583D02*
X5331689Y4538447D01*
X2494559Y4991583D02*
X4878553D01*
X2234743Y5251399D02*
X2494559Y4991583D01*
X2062683Y5251399D02*
X2234743D01*
X1978609Y5335473D02*
X2062683Y5251399D01*
X1877517Y5256352D02*
Y5285232D01*
Y5256352D02*
X2337562Y4796307D01*
X3639541D01*
X3709797Y4866564D01*
X4830039D01*
X5269382Y4427220D01*
Y4387393D02*
Y4427220D01*
X6077483Y2660548D02*
Y2831643D01*
X5965571Y2548636D02*
X6077483Y2660548D01*
X5190922Y2548636D02*
X5965571D01*
X4950181Y2307895D02*
X5190922Y2548636D01*
X4427449Y2307895D02*
X4950181D01*
X2486177Y2117065D02*
X2545207D01*
X2413229Y2044116D02*
X2486177Y2117065D01*
X2413229Y1616989D02*
Y2044116D01*
X2101621Y1305382D02*
X2413229Y1616989D01*
X2101621Y1157275D02*
Y1305382D01*
X2004568Y1060221D02*
X2101621Y1157275D01*
X1856461Y1060221D02*
X2004568D01*
X1413815Y617576D02*
X1856461Y1060221D01*
X1413815Y392684D02*
Y617576D01*
D71*
X5415915Y4220439D02*
X5425161Y4229684D01*
X5380253Y4220439D02*
X5415915D01*
X5379060Y4221632D02*
X5380253Y4220439D01*
D73*
X3577742Y3654654D02*
X3594786Y3637610D01*
X3627222D01*
X3649269Y3659657D01*
X4964659Y4117950D02*
X4973752D01*
X4905731Y4176878D02*
X4964659Y4117950D01*
X4761611Y4176878D02*
X4905731D01*
X4629582Y4308907D02*
X4761611Y4176878D01*
X4242003Y4308907D02*
X4629582D01*
X4181450Y4369460D02*
X4242003Y4308907D01*
X3642639Y4369460D02*
X4181450D01*
X3468218Y4195039D02*
X3642639Y4369460D01*
X3468218Y3604768D02*
Y4195039D01*
Y3604768D02*
X3493287Y3579698D01*
X3534232D01*
X3534258Y3579673D01*
X3577742D01*
X4026459Y3505048D02*
X4043426D01*
X4014749Y3493338D02*
X4026459Y3505048D01*
X4014749Y3462655D02*
Y3493338D01*
Y3462655D02*
X4023843Y3453562D01*
X4053053D01*
X4064737Y3441878D01*
Y3412668D02*
Y3441878D01*
Y3412668D02*
X4075252Y3402152D01*
X4313199D01*
X4589907Y3678860D01*
X4910658D01*
X4922342Y3690544D01*
Y3710788D01*
X4893615Y3882263D02*
X4922342Y3913226D01*
X4805147Y3882263D02*
X4893615D01*
X4577359Y4110050D02*
X4805147Y3882263D01*
X4061638Y4110050D02*
X4577359D01*
X3988994Y4037406D02*
X4061638Y4110050D01*
X3988994Y3996182D02*
Y4037406D01*
X3977183Y3984371D02*
X3988994Y3996182D01*
X3974617Y3501339D02*
X3974719D01*
X3991889Y3484169D01*
Y3453155D02*
Y3484169D01*
Y3453155D02*
X4065753Y3379292D01*
X4322674D01*
X4599381Y3656000D01*
X4886579D01*
X4916068Y3626510D01*
X4919853D01*
X3548126Y3654654D02*
X3577742D01*
X3536442Y3642970D02*
X3548126Y3654654D01*
X3536442Y3614242D02*
Y3642970D01*
X3524758Y3602558D02*
X3536442Y3614242D01*
X3502762Y3602558D02*
X3524758D01*
X3491078Y3614242D02*
X3502762Y3602558D01*
X3491078Y3614242D02*
Y4185564D01*
X3652114Y4346600D01*
X4171975D01*
X4232529Y4286047D01*
X4620108D01*
X4752137Y4154018D01*
X4787976D01*
X4799660Y4142334D01*
Y4116680D02*
Y4142334D01*
Y4116680D02*
X4807941Y4108399D01*
X4824451D01*
X4832477Y4116426D01*
Y4146880D01*
X4839614Y4154018D01*
X4895418D01*
X4922063Y4127373D01*
Y4112768D02*
Y4127373D01*
X3579343Y3581273D02*
X3649624D01*
X3577742Y3579673D02*
X3579343Y3581273D01*
X4925111Y3838651D02*
X4925543Y3826561D01*
X4903597Y3859403D02*
X4925111Y3838651D01*
X4795672Y3859403D02*
X4903597D01*
X4567885Y4087190D02*
X4795672Y3859403D01*
X4071112Y4087190D02*
X4567885D01*
X4056761Y4072839D02*
X4071112Y4087190D01*
X4056761Y4049166D02*
Y4072839D01*
X4048912Y4041318D02*
X4056761Y4049166D01*
X4025265Y4041318D02*
X4048912D01*
X4011854Y4027907D02*
X4025265Y4041318D01*
X4011854Y4011371D02*
Y4027907D01*
Y4011371D02*
X4032580Y3990645D01*
D75*
X5147843Y5864606D02*
Y5941492D01*
X5138649Y5963691D02*
X5147843Y5941492D01*
X5120869Y6006592D02*
X5138649Y5963691D01*
X5120869Y6006592D02*
X5121097Y6006821D01*
X5347843Y5864606D02*
Y5970829D01*
X5357597Y5980582D01*
X5587848Y5864606D02*
Y5971184D01*
X5599201Y5982538D01*
X4987849Y5864606D02*
Y5895086D01*
X5000981Y5908218D01*
Y5959704D01*
X4960671Y6000013D02*
X5000981Y5959704D01*
X5107864Y5864606D02*
Y5895492D01*
X5120361Y5907989D01*
Y5951423D01*
X5067808Y6003976D02*
X5120361Y5951423D01*
X5067808Y6003976D02*
Y6004001D01*
X5307863Y5864606D02*
Y5895137D01*
X5325618Y5912891D01*
Y5952642D01*
X5296052Y5982208D02*
X5325618Y5952642D01*
X5547843Y5864606D02*
Y5896000D01*
X5564480Y5912637D01*
Y5963031D01*
X5538470Y5989041D02*
X5564480Y5963031D01*
X5027854Y5864606D02*
Y5915076D01*
X5022571Y5920359D02*
X5027854Y5915076D01*
X5022571Y5920359D02*
Y5992012D01*
X5014341Y6000242D02*
X5022571Y5992012D01*
D76*
X6077483Y2831643D02*
X6189701Y2943860D01*
Y3130093D01*
X4653178Y448005D02*
X5265115D01*
X5312791Y495681D01*
X2167103Y2274748D02*
X2678532D01*
X2721305Y2231974D01*
X3192018D01*
X3241040Y2182952D01*
X3554527D01*
X3679469Y2307895D01*
X3724580D01*
D77*
X7119518Y400990D02*
D03*
X1785518D02*
D03*
Y5734990D02*
D03*
X7119518D02*
D03*
D78*
X2519096Y1714119D02*
D03*
X2504288Y2021865D02*
D03*
X2489098Y2977439D02*
D03*
X2488819Y5312715D02*
D03*
X2488286Y3040558D02*
D03*
X247015Y1261059D02*
D03*
X2455139Y1499413D02*
D03*
X2448001Y1289202D02*
D03*
X2445944Y1375562D02*
D03*
X2442820Y1122350D02*
D03*
X2435962Y5570804D02*
D03*
X2407793Y1474241D02*
D03*
X2392299Y6035675D02*
D03*
X2391893Y4880839D02*
D03*
X2381504Y844321D02*
D03*
X2379751Y936727D02*
D03*
X2354809Y2020595D02*
D03*
X2347417Y1205306D02*
D03*
X234798Y1376020D02*
D03*
X234137Y1721002D02*
D03*
X2329434Y5566943D02*
D03*
X2324938Y324663D02*
D03*
X2320239Y5273243D02*
D03*
X229845Y1048080D02*
D03*
X2280183Y830605D02*
D03*
X2277618Y4676496D02*
D03*
X228067Y218821D02*
D03*
X2275053Y5807050D02*
D03*
X2273122Y4590974D02*
D03*
X227305Y3061919D02*
D03*
X225806Y5940654D02*
D03*
X2236038Y1630782D02*
D03*
X2235657Y1528547D02*
D03*
X2228418Y1752905D02*
D03*
X2216074Y1306195D02*
D03*
X2215667Y2918638D02*
D03*
X2214499Y6035675D02*
D03*
X2196643Y5559323D02*
D03*
X2192020Y3563798D02*
D03*
X2191360Y3680028D02*
D03*
Y3623234D02*
D03*
X2180971Y3136417D02*
D03*
X2180311Y3189199D02*
D03*
X2167103Y2274748D02*
D03*
X2163470Y2918485D02*
D03*
X2140306Y4544670D02*
D03*
X2134565Y3563137D02*
D03*
X2133905Y3679368D02*
D03*
Y3622573D02*
D03*
X2124862Y3189199D02*
D03*
X212750Y6026353D02*
D03*
X2110029Y2918485D02*
D03*
X2109445Y5565877D02*
D03*
X2083740Y4672711D02*
D03*
X2048840Y5552567D02*
D03*
X2047824Y1360551D02*
D03*
X2044751Y845312D02*
D03*
X204724Y99365D02*
D03*
X2041728Y2951759D02*
D03*
X2036699Y6035675D02*
D03*
X2033803Y284124D02*
D03*
X2032508Y537159D02*
D03*
X2018513Y4577867D02*
D03*
X202311Y3324885D02*
D03*
X202108Y5324399D02*
D03*
X202057Y5670118D02*
D03*
X1984426Y4678147D02*
D03*
X1954378Y4587215D02*
D03*
X1933829Y2675611D02*
D03*
X193751Y682676D02*
D03*
X1918030Y934060D02*
D03*
X1917675Y3026867D02*
D03*
X1916811Y984860D02*
D03*
X1915846Y1164768D02*
D03*
X191592Y580695D02*
D03*
X1909242Y1583766D02*
D03*
X1905254Y1652143D02*
D03*
X1901266Y2631491D02*
D03*
X1866036Y987146D02*
D03*
X1865859Y936346D02*
D03*
X1860956Y1182802D02*
D03*
X1859356Y6039714D02*
D03*
X1855546Y3511423D02*
D03*
X1831899Y4575251D02*
D03*
X1818615Y5315712D02*
D03*
X181686Y4020033D02*
D03*
X180950Y4366285D02*
D03*
X1781277Y2119147D02*
D03*
X1780438Y2189632D02*
D03*
X1770761Y4441495D02*
D03*
X1769999Y4522495D02*
D03*
X1748028Y3612540D02*
D03*
X174244Y2784069D02*
D03*
X172923Y2893543D02*
D03*
X1722247Y2189632D02*
D03*
X1721434Y2121586D02*
D03*
X1721307Y1266342D02*
D03*
X170028Y1092759D02*
D03*
X1680134Y6039714D02*
D03*
X1678940Y2455799D02*
D03*
X1675206Y4626686D02*
D03*
X1669821Y2536368D02*
D03*
X1664487Y3999052D02*
D03*
X1658239Y2625674D02*
D03*
X165125Y911352D02*
D03*
X1638427Y1267765D02*
D03*
X1635430Y1883639D02*
D03*
X1632280Y3324631D02*
D03*
X1631366Y2065909D02*
D03*
X1628394Y3378073D02*
D03*
X1606906Y2716098D02*
D03*
X1604315Y5286985D02*
D03*
X1561363Y1755191D02*
D03*
X1545107Y3996969D02*
D03*
X1540408Y4984775D02*
D03*
X1535608Y6039079D02*
D03*
X1527226Y2063674D02*
D03*
X1503985Y1069492D02*
D03*
X1503324Y1185723D02*
D03*
Y1128928D02*
D03*
X1499083Y4361688D02*
D03*
X1489685Y3997630D02*
D03*
X1472565Y1879244D02*
D03*
X1464132Y5341137D02*
D03*
X1446530Y1068832D02*
D03*
X1445870Y1185062D02*
D03*
Y1128268D02*
D03*
X1417574Y5757240D02*
D03*
X1413815Y392684D02*
D03*
X1396898Y1441272D02*
D03*
X135738Y5233365D02*
D03*
X1325499Y6035675D02*
D03*
X132410Y3814318D02*
D03*
X130454Y3616198D02*
D03*
X128524Y2507183D02*
D03*
X1262583Y700862D02*
D03*
X1262304Y754380D02*
D03*
X1258595Y1522527D02*
D03*
X1255700Y1469263D02*
D03*
X1240892Y3378073D02*
D03*
Y3314141D02*
D03*
X1230249Y2893085D02*
D03*
X1228598Y2817927D02*
D03*
X1214958Y5452593D02*
D03*
X1213104Y3946957D02*
D03*
X1211809Y5298973D02*
D03*
X1211555Y3893134D02*
D03*
X1210234Y5398414D02*
D03*
X1209980Y4108221D02*
D03*
X1209523Y4163187D02*
D03*
X1201166Y5187391D02*
D03*
X1147699Y6035675D02*
D03*
X1138453Y685343D02*
D03*
X1137107Y751484D02*
D03*
X113944Y6015660D02*
D03*
X112217Y211836D02*
D03*
X111277Y2358517D02*
D03*
X1095146Y2263165D02*
D03*
X1067511Y750646D02*
D03*
X1066978Y686029D02*
D03*
X101321Y100736D02*
D03*
X969899Y6035675D02*
D03*
X948766Y2143658D02*
D03*
X943559Y2199538D02*
D03*
X938759Y1063777D02*
D03*
X936600Y961796D02*
D03*
X911809Y4079138D02*
D03*
X910565Y4144137D02*
D03*
X909015Y124028D02*
D03*
X89662Y2198370D02*
D03*
X862559Y1063777D02*
D03*
X860400Y961796D02*
D03*
X856158Y116815D02*
D03*
X83236Y3705758D02*
D03*
X81890Y3266592D02*
D03*
Y3047136D02*
D03*
X792099Y6035675D02*
D03*
X79248Y5589753D02*
D03*
X79223Y2889936D02*
D03*
X77902Y5373446D02*
D03*
Y5155794D02*
D03*
X76581Y5855462D02*
D03*
X76556Y2649601D02*
D03*
X752069Y3645281D02*
D03*
X75209Y4991557D02*
D03*
Y4611040D02*
D03*
Y4424096D02*
D03*
X746354Y856463D02*
D03*
X741528Y4642256D02*
D03*
X73889Y3963467D02*
D03*
X73609Y1749704D02*
D03*
Y1554734D02*
D03*
Y937616D02*
D03*
Y322326D02*
D03*
X7297318Y129896D02*
D03*
X7287616Y1376807D02*
D03*
X7268058Y1689608D02*
D03*
X7265391Y1505331D02*
D03*
X7262368Y1116559D02*
D03*
X7244867Y726161D02*
D03*
X722909Y3357118D02*
D03*
X722808Y3296133D02*
D03*
X7222795Y6033008D02*
D03*
X7209460Y5450891D02*
D03*
Y5273091D02*
D03*
X7205548Y1911020D02*
D03*
X7204227Y1964360D02*
D03*
X72568Y3414700D02*
D03*
X72542Y4803292D02*
D03*
Y4159733D02*
D03*
X718795Y5936894D02*
D03*
X7178599Y3510356D02*
D03*
X7128688Y926389D02*
D03*
X7128383Y3185185D02*
D03*
X7127621Y3302076D02*
D03*
X7127088Y3787470D02*
D03*
X7124827Y2865425D02*
D03*
X7124802Y3384906D02*
D03*
Y3023006D02*
D03*
X7124370Y4174947D02*
D03*
X7116699Y120193D02*
D03*
X7112813Y1238910D02*
D03*
X7107225Y1525397D02*
D03*
X7104964Y4402506D02*
D03*
X7084416Y4058615D02*
D03*
X7083374Y3904894D02*
D03*
X7082561Y3982618D02*
D03*
X7079717Y3663188D02*
D03*
X7077507Y3506724D02*
D03*
X7075043Y3186176D02*
D03*
X7071487Y3785057D02*
D03*
Y3382874D02*
D03*
Y2865272D02*
D03*
X7071462Y3022371D02*
D03*
X7071436Y3302076D02*
D03*
X7071411Y4181424D02*
D03*
X71196Y1277010D02*
D03*
Y543966D02*
D03*
X7044995Y6033008D02*
D03*
X7031660Y5450891D02*
D03*
Y5273091D02*
D03*
X7031126Y4064432D02*
D03*
X7025056Y3521075D02*
D03*
X7023456Y3900475D02*
D03*
X7021830Y3665830D02*
D03*
Y3584423D02*
D03*
X7021728Y3184423D02*
D03*
X7018147Y2388438D02*
D03*
Y4184421D02*
D03*
Y3984422D02*
D03*
Y3784422D02*
D03*
Y3384423D02*
D03*
Y3304438D02*
D03*
Y3024429D02*
D03*
Y2864434D02*
D03*
Y2584425D02*
D03*
X7017741Y2449271D02*
D03*
X6970801Y2184273D02*
D03*
X6970776Y2093595D02*
D03*
X6969074Y735863D02*
D03*
X6963918Y4483532D02*
D03*
X6953555Y1120445D02*
D03*
X6940093Y4612234D02*
D03*
X6934124Y1378763D02*
D03*
X693420Y88671D02*
D03*
X69774Y2032914D02*
D03*
X692252Y858444D02*
D03*
X6910172Y4462805D02*
D03*
X6906031Y2185086D02*
D03*
X6906006Y2094408D02*
D03*
X6899453Y5891505D02*
D03*
X6893433Y6031687D02*
D03*
X6888607Y3904437D02*
D03*
X6884162Y2800452D02*
D03*
X6881749Y2653894D02*
D03*
X6879311Y2728392D02*
D03*
X6875856Y129896D02*
D03*
X6871208Y3593160D02*
D03*
X6868414Y2461717D02*
D03*
Y2392045D02*
D03*
X6867525Y3782212D02*
D03*
X6852615Y3981806D02*
D03*
X685419Y4648937D02*
D03*
X6841744Y4460367D02*
D03*
X6833794Y4825492D02*
D03*
Y4607763D02*
D03*
X6822999Y4065143D02*
D03*
X6822237Y5693893D02*
D03*
X6817639Y2393772D02*
D03*
X6817614Y2462022D02*
D03*
X6816192Y1983943D02*
D03*
X6815353Y2802077D02*
D03*
X6814210Y3784244D02*
D03*
X6812128Y3588283D02*
D03*
X6807175Y3381096D02*
D03*
X6797929Y3985844D02*
D03*
X6785077Y4458335D02*
D03*
X6781673Y3166008D02*
D03*
X6769710Y4067886D02*
D03*
X6761912Y2728392D02*
D03*
X6760286Y2663622D02*
D03*
X6757848Y3783432D02*
D03*
X6756248Y3589909D02*
D03*
X6753936Y5894172D02*
D03*
X6753835Y3382620D02*
D03*
X6744589Y3984422D02*
D03*
X6744106Y2802890D02*
D03*
X6716090Y4857826D02*
D03*
Y4728083D02*
D03*
X6715633Y6031687D02*
D03*
X6702806Y2260397D02*
D03*
X6701993Y2187524D02*
D03*
X6692544Y4980508D02*
D03*
X6691782Y1428725D02*
D03*
X6690030Y4619955D02*
D03*
X6644437Y5693893D02*
D03*
X6624066Y1033196D02*
D03*
X6623406Y905612D02*
D03*
X662686Y5940908D02*
D03*
X6615049Y4184421D02*
D03*
Y3784422D02*
D03*
Y3584423D02*
D03*
Y3384423D02*
D03*
Y3024429D02*
D03*
Y2864434D02*
D03*
X6611823Y2584425D02*
D03*
X660502Y3391586D02*
D03*
X6590335Y4105123D02*
D03*
X6576670Y3187827D02*
D03*
X6572682Y1035101D02*
D03*
X6572021Y907517D02*
D03*
X6571666Y4995367D02*
D03*
X6561709Y3585540D02*
D03*
Y3385058D02*
D03*
Y3024759D02*
D03*
X6561557Y2865577D02*
D03*
X6557874Y3785870D02*
D03*
X6537833Y6031687D02*
D03*
X6537630Y4180307D02*
D03*
X6535471Y4105123D02*
D03*
X6527267Y2700147D02*
D03*
X6521882Y1035228D02*
D03*
X6521221Y907644D02*
D03*
X6508471Y2870937D02*
D03*
X6504686Y3789909D02*
D03*
X6503949Y3588436D02*
D03*
X6502806Y3021635D02*
D03*
X6495948Y3153131D02*
D03*
X6493281Y3099841D02*
D03*
X6489954Y4439310D02*
D03*
X6485534Y5158867D02*
D03*
X6484290Y4181577D02*
D03*
X6444285Y5464734D02*
D03*
X6442583Y559232D02*
D03*
X6439789Y3179394D02*
D03*
X643509Y3646272D02*
D03*
X6390437Y3838372D02*
D03*
X6385611Y1037869D02*
D03*
X6378931Y909625D02*
D03*
X6370371Y4180307D02*
D03*
X6360033Y6031687D02*
D03*
X6330899Y5904840D02*
D03*
X6328207Y5795366D02*
D03*
X6317234Y4184980D02*
D03*
X6313881Y5640426D02*
D03*
X6301435Y909625D02*
D03*
X6298768Y1037209D02*
D03*
X6253404Y580746D02*
D03*
X6240170Y4395191D02*
D03*
X6220003Y4689627D02*
D03*
X6216472Y6033033D02*
D03*
X6197549Y972210D02*
D03*
X6196559Y1031850D02*
D03*
X6194552Y908279D02*
D03*
X6189701Y3130093D02*
D03*
X6188431Y4967935D02*
D03*
X6188227Y4890668D02*
D03*
X6187415Y4828337D02*
D03*
X6187288Y5551068D02*
D03*
X6183554Y4520286D02*
D03*
X6166968Y5034255D02*
D03*
X6155461Y4722343D02*
D03*
X6154344Y1984096D02*
D03*
X6153099Y5904840D02*
D03*
X6150407Y5795366D02*
D03*
X6145606Y5463337D02*
D03*
X6130087Y972210D02*
D03*
X6129757Y1035202D02*
D03*
X6127090Y908279D02*
D03*
X6121806Y5555082D02*
D03*
X6103214Y5034788D02*
D03*
X6091580Y5167224D02*
D03*
X608432Y3403194D02*
D03*
X6077483Y2831643D02*
D03*
X6066333Y4235399D02*
D03*
X6053582Y904367D02*
D03*
X6039714Y765785D02*
D03*
X6038672Y6033033D02*
D03*
X6032297Y1489634D02*
D03*
X5998312Y4234180D02*
D03*
X5997905Y2296262D02*
D03*
X5994552Y906475D02*
D03*
X5959678Y2000504D02*
D03*
X5951728Y2050694D02*
D03*
X5925490Y5661101D02*
D03*
X5921858Y950214D02*
D03*
X5921223Y1230401D02*
D03*
X5920537Y1005434D02*
D03*
X5919724Y1173455D02*
D03*
Y896899D02*
D03*
X5919318Y2389505D02*
D03*
X5907354Y5358181D02*
D03*
X5890692Y736651D02*
D03*
X5885917Y4311371D02*
D03*
X5872759Y1293266D02*
D03*
X5860872Y6033033D02*
D03*
X5850941Y2003323D02*
D03*
X5849722Y1933321D02*
D03*
X5831738Y3347898D02*
D03*
X582346Y3324631D02*
D03*
X5805957Y4403268D02*
D03*
X5799861Y499288D02*
D03*
X5799734Y1221715D02*
D03*
X5796966Y2002790D02*
D03*
X5795543Y1285824D02*
D03*
X5758459Y1843049D02*
D03*
X5753583Y5358765D02*
D03*
X5747842Y5655818D02*
D03*
X5729046Y2666898D02*
D03*
X5722874Y1024788D02*
D03*
X5720182Y966013D02*
D03*
X572541Y1933651D02*
D03*
X5719724Y1170457D02*
D03*
Y907263D02*
D03*
X5719394Y1228395D02*
D03*
X5717464Y1286002D02*
D03*
X571906Y820064D02*
D03*
X5700928Y1846148D02*
D03*
X5696026Y5698007D02*
D03*
X5687339Y2100986D02*
D03*
X5683072Y6033033D02*
D03*
X5679313Y4023284D02*
D03*
X568376Y2233752D02*
D03*
X5678475Y4113174D02*
D03*
X5672836Y3469132D02*
D03*
X5672328Y3919753D02*
D03*
Y3821659D02*
D03*
Y3719855D02*
D03*
Y3619043D02*
D03*
X5671922Y4269638D02*
D03*
X5668366Y4214419D02*
D03*
X5667172Y3526765D02*
D03*
X5644845Y5679542D02*
D03*
X5636641Y1290345D02*
D03*
X5636590Y1235253D02*
D03*
X5623128Y4018966D02*
D03*
X5622341Y4114216D02*
D03*
X5621782Y3924833D02*
D03*
X5621477Y3817391D02*
D03*
X5619318Y3722827D02*
D03*
X5616956Y3625494D02*
D03*
X5605932Y1016127D02*
D03*
X5604434Y1849450D02*
D03*
X5602580Y956666D02*
D03*
X5601487Y1902714D02*
D03*
X5599735Y898804D02*
D03*
X5593334Y2099462D02*
D03*
X5583047Y3468751D02*
D03*
X5579161Y3519424D02*
D03*
X5572328Y4018382D02*
D03*
X5571947Y3575888D02*
D03*
X5571541Y4114749D02*
D03*
X5571211Y4271239D02*
D03*
Y4220439D02*
D03*
Y4169639D02*
D03*
X5570855Y3821836D02*
D03*
X5569407Y3922547D02*
D03*
X5568671Y3718890D02*
D03*
X5566156Y3626358D02*
D03*
X5520741Y4019372D02*
D03*
X5519928Y3820236D02*
D03*
X5518658Y3920211D02*
D03*
X5517617Y3722497D02*
D03*
X5516931Y1179881D02*
D03*
X5516626Y1234719D02*
D03*
X5497119Y2678379D02*
D03*
X5483682Y1020115D02*
D03*
X5479720Y902894D02*
D03*
X5478983Y965352D02*
D03*
X5475554Y4117061D02*
D03*
X5475402Y4169664D02*
D03*
X5474716Y4271239D02*
D03*
Y3617849D02*
D03*
X5474640Y4064991D02*
D03*
X5474360Y3517163D02*
D03*
X5473471Y4220439D02*
D03*
X5472557Y3669640D02*
D03*
X5470931Y3466465D02*
D03*
X5469230Y3824300D02*
D03*
X5468925Y4012692D02*
D03*
X5467528Y3567557D02*
D03*
X5467299Y3921074D02*
D03*
X5466563Y3725418D02*
D03*
X5461533Y5789041D02*
D03*
X5446979Y5657469D02*
D03*
X5439715Y1175588D02*
D03*
X5437556Y1235227D02*
D03*
X5416931Y3819881D02*
D03*
X5415712Y3919372D02*
D03*
X5412867Y2047646D02*
D03*
X5412842Y2099462D02*
D03*
X5410276Y2155774D02*
D03*
Y1993036D02*
D03*
X5408117Y2212975D02*
D03*
X5407787Y6000445D02*
D03*
X5399735Y898017D02*
D03*
X5394757Y957123D02*
D03*
X5393411Y1013257D02*
D03*
X5379441Y3564560D02*
D03*
X5379060Y4221632D02*
D03*
X5378831Y4170832D02*
D03*
X5378475Y4276903D02*
D03*
X5376393Y3869004D02*
D03*
X5375326Y4120134D02*
D03*
X5374894Y3462757D02*
D03*
X5374843Y3513963D02*
D03*
X5372481Y3719627D02*
D03*
Y3668827D02*
D03*
Y3618027D02*
D03*
X5371668Y4017315D02*
D03*
X5370728Y4068115D02*
D03*
X537540Y4623333D02*
D03*
X5364074Y5277764D02*
D03*
X5363566Y5216576D02*
D03*
X5361635Y5370068D02*
D03*
X5354091Y1217346D02*
D03*
X5323840Y3865575D02*
D03*
X5323383Y1170457D02*
D03*
X5312791Y495681D02*
D03*
X5277993Y3512464D02*
D03*
X5277256Y3614064D02*
D03*
X5276825Y3563264D02*
D03*
X5273827Y4067251D02*
D03*
X5272329Y4012667D02*
D03*
Y3719627D02*
D03*
X5271922Y4225925D02*
D03*
X5271897Y3668827D02*
D03*
X5271846Y3859606D02*
D03*
X5270830Y4119651D02*
D03*
X5269255Y4173499D02*
D03*
X525983Y5922035D02*
D03*
X5249469Y5287366D02*
D03*
X5248250Y5420233D02*
D03*
X5236845Y5799150D02*
D03*
X522986Y3524275D02*
D03*
X522783Y83261D02*
D03*
X5221072Y3857752D02*
D03*
X5200371Y1023798D02*
D03*
X5199736Y767055D02*
D03*
X5199126Y1170584D02*
D03*
X5197653Y970509D02*
D03*
Y909701D02*
D03*
X5196611Y1277264D02*
D03*
X5195418Y1223924D02*
D03*
X5187848Y5525922D02*
D03*
X5178476Y4122217D02*
D03*
X5175783Y4070782D02*
D03*
X5175733Y5798033D02*
D03*
X5175148Y3462757D02*
D03*
X5174564Y3513557D02*
D03*
X5173904Y4225849D02*
D03*
X5173040Y5982132D02*
D03*
X5172354Y3719627D02*
D03*
Y3668827D02*
D03*
X5170145Y4276522D02*
D03*
X5170018Y3857701D02*
D03*
X5169764Y3564153D02*
D03*
X5167300Y4020693D02*
D03*
X5167097Y3615309D02*
D03*
X514452Y4806874D02*
D03*
X513385Y271120D02*
D03*
X5128285Y3817925D02*
D03*
X5128184Y3913048D02*
D03*
X5100269Y761644D02*
D03*
X5080584Y3725824D02*
D03*
X5079111Y3568268D02*
D03*
X5078324Y3517468D02*
D03*
X5077384Y4019652D02*
D03*
X5077308Y3816325D02*
D03*
X5077257Y3912387D02*
D03*
X5076952Y4271899D02*
D03*
X5076292Y3618992D02*
D03*
X5074158Y3462807D02*
D03*
X5072634Y4070248D02*
D03*
X5071948Y4121252D02*
D03*
X5070170Y3671189D02*
D03*
X5067859Y5526278D02*
D03*
X5062195Y4172280D02*
D03*
X5060925Y4223080D02*
D03*
X5060671Y5950712D02*
D03*
X5058791Y377546D02*
D03*
X5047082Y1008710D02*
D03*
X5044034Y955446D02*
D03*
X5041849Y902132D02*
D03*
X5035499Y767359D02*
D03*
X5026685Y3820744D02*
D03*
X5026635Y4022268D02*
D03*
X5026584Y3916121D02*
D03*
X5024069Y3718712D02*
D03*
X5012715Y1237259D02*
D03*
X5012030Y1294689D02*
D03*
X5010709Y1179119D02*
D03*
X5009363Y1347978D02*
D03*
X4975885Y4019652D02*
D03*
Y3919652D02*
D03*
Y3819652D02*
D03*
X4975301Y3621405D02*
D03*
X4974133Y3568776D02*
D03*
X4973752Y4117950D02*
D03*
X4972939Y3715385D02*
D03*
X4972914Y3467075D02*
D03*
X4972837Y3517976D02*
D03*
X4965522Y4275328D02*
D03*
X4960442Y4224528D02*
D03*
X4960366Y4172382D02*
D03*
X4952594Y5302479D02*
D03*
X4951197Y5776468D02*
D03*
X4947844Y5929376D02*
D03*
Y5526278D02*
D03*
X4925543Y3826561D02*
D03*
X4923790Y4025290D02*
D03*
X4922342Y3913226D02*
D03*
Y3710788D02*
D03*
X4922063Y4112768D02*
D03*
X4920082Y242595D02*
D03*
X4919853Y3626510D02*
D03*
X4919497Y5685714D02*
D03*
X4873066Y3464865D02*
D03*
X4872888Y3518306D02*
D03*
X4872330Y4272178D02*
D03*
Y4217111D02*
D03*
X4868774Y3919652D02*
D03*
Y3819652D02*
D03*
Y3719652D02*
D03*
Y3618865D02*
D03*
X4868520Y4114902D02*
D03*
X4865497Y4018102D02*
D03*
X4834052Y1288593D02*
D03*
X4827854Y5929376D02*
D03*
Y5526278D02*
D03*
X4740656Y4401312D02*
D03*
Y3337966D02*
D03*
X4731639Y4029862D02*
D03*
X4728337Y3619627D02*
D03*
X4727372Y3869639D02*
D03*
X4707865Y5929376D02*
D03*
Y5526278D02*
D03*
X468732Y4494378D02*
D03*
X4679467Y4080078D02*
D03*
X4656099Y657504D02*
D03*
X4653178Y448005D02*
D03*
X4649953Y602386D02*
D03*
X4648937Y4144924D02*
D03*
X464439Y5782310D02*
D03*
X4627829Y2465553D02*
D03*
X4627220Y2863698D02*
D03*
Y2586457D02*
D03*
X4614469Y1224331D02*
D03*
X4612945Y560527D02*
D03*
X4606874Y416712D02*
D03*
X4591863Y955523D02*
D03*
X4587850Y5929376D02*
D03*
Y5526278D02*
D03*
X4581576Y4182440D02*
D03*
X4565421Y244348D02*
D03*
X4563110Y368808D02*
D03*
X4542511Y1999336D02*
D03*
Y1610639D02*
D03*
X4527398Y4247185D02*
D03*
X4509033Y368148D02*
D03*
X448234Y904265D02*
D03*
X4467860Y5929376D02*
D03*
Y5526278D02*
D03*
X4458233Y368148D02*
D03*
X4427449Y2307895D02*
D03*
X4374439Y442011D02*
D03*
X437439Y489458D02*
D03*
X4367657Y251689D02*
D03*
X4347845Y5929376D02*
D03*
Y5526278D02*
D03*
X4338980Y4395876D02*
D03*
X434213Y724560D02*
D03*
Y611835D02*
D03*
X4320870Y2230679D02*
D03*
X4306545Y4475150D02*
D03*
X4296664Y3687851D02*
D03*
X4294099Y3800881D02*
D03*
X4284701Y3308477D02*
D03*
X4281576Y4183913D02*
D03*
X4278198Y4024554D02*
D03*
X4268394Y3461918D02*
D03*
X425933Y2261133D02*
D03*
Y3558438D02*
D03*
X4249242Y3543732D02*
D03*
X4248125Y3944671D02*
D03*
Y3864661D02*
D03*
X4246982Y1600708D02*
D03*
X4245788Y4360088D02*
D03*
X4241851Y4771161D02*
D03*
X423697Y152756D02*
D03*
X4217162Y4524273D02*
D03*
X4170299Y6035675D02*
D03*
X4168546Y2234692D02*
D03*
X4164178Y3657397D02*
D03*
X4161307Y3829685D02*
D03*
X4142207Y261036D02*
D03*
X414071Y5924880D02*
D03*
X4104640Y3499282D02*
D03*
X4102278Y3987927D02*
D03*
X4097858Y3658489D02*
D03*
X4097376Y3830447D02*
D03*
X4080027Y585927D02*
D03*
X4067683Y1510005D02*
D03*
X4066692Y1764132D02*
D03*
X4065448Y232918D02*
D03*
X4064051Y945134D02*
D03*
X4064025Y1911096D02*
D03*
X4062222Y1106805D02*
D03*
X4060419Y1346556D02*
D03*
X4043426Y3505048D02*
D03*
X4039387Y4219524D02*
D03*
X4038092Y4149344D02*
D03*
X4037736Y3829660D02*
D03*
X4037559Y3339516D02*
D03*
X4036771Y3910635D02*
D03*
X4036212Y3578149D02*
D03*
X4035908Y3661918D02*
D03*
X4035171Y3266211D02*
D03*
X4032580Y3990645D02*
D03*
X4031285Y2036242D02*
D03*
X4030472Y2099361D02*
D03*
X4028415Y2912720D02*
D03*
X4024071Y369392D02*
D03*
X4010812Y231038D02*
D03*
X3992499Y6035675D02*
D03*
X3991483Y1510005D02*
D03*
X3987851Y945134D02*
D03*
X3986022Y1106805D02*
D03*
X3984219Y1346556D02*
D03*
X3977183Y3984371D02*
D03*
X3976548Y3420694D02*
D03*
X3974617Y3501339D02*
D03*
X3969512Y4065727D02*
D03*
X3958336Y2098523D02*
D03*
X3957498Y2033778D02*
D03*
X3950386Y4238473D02*
D03*
X3940988Y3667862D02*
D03*
Y3254070D02*
D03*
X3940886Y3805911D02*
D03*
X391947Y1881784D02*
D03*
X3905555Y3991915D02*
D03*
X3905047Y4304995D02*
D03*
X3902913Y3501949D02*
D03*
X3902126Y2904592D02*
D03*
X3899205Y3182874D02*
D03*
X3888664Y2097710D02*
D03*
X3887013Y2030501D02*
D03*
X3871493Y5878982D02*
D03*
X3868801Y4232478D02*
D03*
X3865804Y596290D02*
D03*
X3860851Y3820617D02*
D03*
X3859860Y3664763D02*
D03*
X3852367Y745338D02*
D03*
X3847033Y3270250D02*
D03*
X3841928Y3990492D02*
D03*
X3840886Y4143273D02*
D03*
X3814699Y6035675D02*
D03*
X3813124Y598551D02*
D03*
X3801593Y747243D02*
D03*
X3792220Y3821633D02*
D03*
Y3667709D02*
D03*
X3789909Y4227601D02*
D03*
X3781476Y3271952D02*
D03*
X3780409Y3578504D02*
D03*
Y3505124D02*
D03*
X3779774Y3987876D02*
D03*
X3778428Y3908908D02*
D03*
X3777183Y3350235D02*
D03*
X3776599Y2369617D02*
D03*
X3775710Y4144747D02*
D03*
X3775456Y3426435D02*
D03*
X3769131Y2228469D02*
D03*
X3766795Y5219014D02*
D03*
X3750539Y2597760D02*
D03*
X373507Y1373480D02*
D03*
X3728136Y3823157D02*
D03*
Y3666185D02*
D03*
X3724580Y2307895D02*
D03*
X372466Y4918837D02*
D03*
X3718916Y4144620D02*
D03*
X3716274Y3583813D02*
D03*
X3715029Y3906825D02*
D03*
X3714369Y4224299D02*
D03*
X3713302Y3268802D02*
D03*
X3709365Y3350260D02*
D03*
X3709314Y2234870D02*
D03*
X3701313Y1808429D02*
D03*
X3670300Y842620D02*
D03*
X3667887Y617118D02*
D03*
X366954Y2718460D02*
D03*
X3655339Y4221124D02*
D03*
X3651504Y254991D02*
D03*
X3650894Y3831311D02*
D03*
X3650285Y3430702D02*
D03*
X3649624Y3581273D02*
D03*
X3649269Y3659657D02*
D03*
X3648227Y3509239D02*
D03*
X3647567Y3268167D02*
D03*
X3647110Y4061612D02*
D03*
X3644087Y3905428D02*
D03*
X3636899Y6035675D02*
D03*
X3636721Y1814500D02*
D03*
X363525Y1198118D02*
D03*
X3616655Y2017471D02*
D03*
X3611042Y5440045D02*
D03*
X3600704Y324079D02*
D03*
Y255930D02*
D03*
X3595141Y521132D02*
D03*
X3590696Y4229252D02*
D03*
X3590138Y4062425D02*
D03*
X3584169Y3432835D02*
D03*
X3582645Y4138016D02*
D03*
X3581298Y3269971D02*
D03*
X3581197Y3909873D02*
D03*
X3579190Y3355188D02*
D03*
X3548228Y5441671D02*
D03*
X3536544Y2940126D02*
D03*
X3535248Y5540477D02*
D03*
X3528263Y2395906D02*
D03*
X3525088Y600710D02*
D03*
X3524555Y2471166D02*
D03*
X3518332Y533806D02*
D03*
X351841Y4014114D02*
D03*
X3508527Y1702613D02*
D03*
X3497224Y5645379D02*
D03*
X3487090Y5444566D02*
D03*
X3480613Y974750D02*
D03*
X348234Y3258312D02*
D03*
X3459099Y6035675D02*
D03*
X3456864Y534492D02*
D03*
X3436264Y600710D02*
D03*
X3400019Y5072202D02*
D03*
X3388436Y4224731D02*
D03*
Y4144721D02*
D03*
Y4064711D02*
D03*
Y3984701D02*
D03*
Y3584651D02*
D03*
Y3504641D02*
D03*
Y3424631D02*
D03*
Y3264611D02*
D03*
X3371672Y2894457D02*
D03*
X3366719Y674395D02*
D03*
X3363874Y4917745D02*
D03*
X3352495Y5889117D02*
D03*
X3327451Y5105197D02*
D03*
X3323412Y4224731D02*
D03*
Y4064711D02*
D03*
Y3424631D02*
D03*
Y3264611D02*
D03*
X332461Y2446985D02*
D03*
X3318764Y1330630D02*
D03*
X3317265Y1267866D02*
D03*
X3316224Y2897124D02*
D03*
X3307791Y2377516D02*
D03*
X3305251Y668731D02*
D03*
X330505Y3398672D02*
D03*
X329387Y4569130D02*
D03*
X3281299Y6035675D02*
D03*
X3274771Y286715D02*
D03*
X3265424Y2897835D02*
D03*
X326619Y3802659D02*
D03*
X3258388Y4224731D02*
D03*
Y3904691D02*
D03*
Y3584651D02*
D03*
Y3264611D02*
D03*
X3257779Y3345713D02*
D03*
X324714Y5297754D02*
D03*
X324688Y3590950D02*
D03*
X3237128Y669417D02*
D03*
X323723Y868985D02*
D03*
X3225571Y5575706D02*
D03*
X3223895Y5645760D02*
D03*
X3218231Y5445760D02*
D03*
X3214675Y2895143D02*
D03*
X3210611Y5105197D02*
D03*
X3205607Y3179318D02*
D03*
X3193364Y4224731D02*
D03*
Y4064711D02*
D03*
Y3984701D02*
D03*
Y3904691D02*
D03*
Y3584651D02*
D03*
Y3504641D02*
D03*
Y3424631D02*
D03*
Y3264611D02*
D03*
X3181198Y1701241D02*
D03*
X3179928Y670077D02*
D03*
X3128340Y4224731D02*
D03*
Y4064711D02*
D03*
Y3904691D02*
D03*
Y3584651D02*
D03*
Y3424631D02*
D03*
Y3264611D02*
D03*
X3119222Y1798269D02*
D03*
X3112948Y334391D02*
D03*
X3105683Y452272D02*
D03*
X3103499Y6035675D02*
D03*
X3098267Y3059100D02*
D03*
X309778Y1367612D02*
D03*
X3063850Y5518861D02*
D03*
X3063316Y4224731D02*
D03*
Y3904691D02*
D03*
Y3584651D02*
D03*
Y3264611D02*
D03*
X3061259Y5456707D02*
D03*
X305257Y3120923D02*
D03*
X3047289Y4885157D02*
D03*
X3042158Y3059100D02*
D03*
X302565Y2714981D02*
D03*
X3006242Y2289327D02*
D03*
X3006217Y2168322D02*
D03*
X3004185Y5535651D02*
D03*
X2998292Y4224731D02*
D03*
Y4144721D02*
D03*
Y3984701D02*
D03*
Y3904691D02*
D03*
Y3584651D02*
D03*
Y3504641D02*
D03*
Y3344621D02*
D03*
Y3264611D02*
D03*
X300025Y1034796D02*
D03*
X2993542Y2425294D02*
D03*
X2987980Y282778D02*
D03*
X297485Y2198370D02*
D03*
X2965145Y1797025D02*
D03*
X2963596Y925601D02*
D03*
X2962021Y3059100D02*
D03*
X2951074Y4885157D02*
D03*
X2933268Y4224731D02*
D03*
Y3904691D02*
D03*
Y3584651D02*
D03*
Y3264611D02*
D03*
X293599Y96850D02*
D03*
X2925699Y6035675D02*
D03*
X2911373Y5179263D02*
D03*
X2910383Y929411D02*
D03*
X2906370Y3059938D02*
D03*
X2902382Y1798523D02*
D03*
X2897911Y2425294D02*
D03*
X2895676Y2293061D02*
D03*
Y2169058D02*
D03*
X2873731Y5125060D02*
D03*
X2868244Y4064711D02*
D03*
Y3904691D02*
D03*
Y3584651D02*
D03*
Y3424631D02*
D03*
X2857475Y936295D02*
D03*
X2812898Y5827649D02*
D03*
X2809773Y5113401D02*
D03*
Y2926359D02*
D03*
X2805100Y2863291D02*
D03*
X2803220Y4064711D02*
D03*
Y3984701D02*
D03*
Y3904691D02*
D03*
Y3584651D02*
D03*
Y3504641D02*
D03*
Y3424631D02*
D03*
X2773223Y1821485D02*
D03*
X2764028Y5638698D02*
D03*
X276123Y1879854D02*
D03*
X2747899Y6035675D02*
D03*
X2734005Y4910277D02*
D03*
X2732278Y5315661D02*
D03*
X2729789Y922172D02*
D03*
X2725725Y5138115D02*
D03*
X2720619Y1812595D02*
D03*
X271043Y5324602D02*
D03*
X2684374Y276936D02*
D03*
X2681656Y397637D02*
D03*
X2678913Y511988D02*
D03*
X2667025Y923671D02*
D03*
X2633574Y276936D02*
D03*
X2630856Y397637D02*
D03*
X2628113Y511988D02*
D03*
X2626614Y4668901D02*
D03*
X2617368Y2979090D02*
D03*
X2615717Y3039745D02*
D03*
X2570353Y2403958D02*
D03*
X2570099Y6035675D02*
D03*
X256667Y4016477D02*
D03*
X2560091Y5566461D02*
D03*
X2553868Y2979090D02*
D03*
X2552217Y3039745D02*
D03*
X2545207Y2117065D02*
D03*
D79*
X2230323Y5077536D02*
D03*
X2228418Y5167351D02*
D03*
X2157628Y5167808D02*
D03*
X2149551Y5079441D02*
D03*
X2041627Y4135526D02*
D03*
Y4023868D02*
D03*
Y3922903D02*
D03*
X1978609Y5335473D02*
D03*
X1908454Y4137101D02*
D03*
Y4031005D02*
D03*
Y3927018D02*
D03*
X1877517Y5285232D02*
D03*
X1827428Y4135730D02*
D03*
X1825422Y4031869D02*
D03*
X1823999Y3923995D02*
D03*
X735457Y1508989D02*
D03*
Y1300404D02*
D03*
X732130Y1403020D02*
D03*
X725957Y4149039D02*
D03*
Y3940454D02*
D03*
X722630Y4043070D02*
D03*
X722173Y2854655D02*
D03*
Y2646070D02*
D03*
X718845Y2748686D02*
D03*
X716458Y5454828D02*
D03*
Y5246243D02*
D03*
X713130Y5348859D02*
D03*
X660375Y1505204D02*
D03*
X659790Y1405128D02*
D03*
X657885Y1298194D02*
D03*
X651281Y2749855D02*
D03*
X649376Y2642921D02*
D03*
X646151Y2852776D02*
D03*
X621411Y4147160D02*
D03*
X620827Y4047084D02*
D03*
X618922Y3940150D02*
D03*
X611911Y5452948D02*
D03*
X611327Y5352872D02*
D03*
X609422Y5245938D02*
D03*
X576758Y1508989D02*
D03*
X575843Y2854655D02*
D03*
X574853Y2641803D02*
D03*
X574751Y1405128D02*
D03*
X573837Y2750795D02*
D03*
X573329Y1297254D02*
D03*
X515925Y4150944D02*
D03*
X513918Y4047084D02*
D03*
X512496Y3939210D02*
D03*
X506425Y5456733D02*
D03*
X504419Y5352872D02*
D03*
X502996Y5244998D02*
D03*
X3090418Y1465301D02*
D03*
X2993492Y1467180D02*
D03*
Y1258595D02*
D03*
X2990164Y1361211D02*
D03*
X2984957Y1155421D02*
D03*
X2888945Y1465301D02*
D03*
X2888361Y1365225D02*
D03*
X2886456Y1258291D02*
D03*
X2880411Y1153541D02*
D03*
X2783459Y1469085D02*
D03*
X2781452Y1365225D02*
D03*
X2780030Y1257351D02*
D03*
X2682723Y1465301D02*
D03*
X2680716Y1361440D02*
D03*
X2679294Y1253566D02*
D03*
D80*
X1441120Y3294507D02*
D03*
X1433093Y3010129D02*
D03*
X1032408Y220878D02*
D03*
X694741Y206172D02*
D03*
X3450666Y1978736D02*
D03*
X3444672Y2319807D02*
D03*
D81*
X5924626Y5929274D02*
D03*
X5884799Y5964758D02*
D03*
X5839790Y5930316D02*
D03*
X5813247Y5491607D02*
D03*
X5797118Y5968797D02*
D03*
X5758028Y5932500D02*
D03*
X5742508Y5427091D02*
D03*
X5738647Y5501361D02*
D03*
X5695239Y5931611D02*
D03*
X5629961Y5413324D02*
D03*
X5626710Y5468798D02*
D03*
X5625948Y5929503D02*
D03*
X5599201Y5982538D02*
D03*
X5538470Y5989041D02*
D03*
X5514391Y5940146D02*
D03*
X5387848Y5936158D02*
D03*
X5357597Y5980582D02*
D03*
X5296052Y5982208D02*
D03*
X5277231Y5932297D02*
D03*
X5190312Y5419166D02*
D03*
X5189169Y5365826D02*
D03*
X5187874Y5472455D02*
D03*
X5171973Y6035472D02*
D03*
X5121097Y6006821D02*
D03*
X5070475Y5471643D02*
D03*
X5069662Y5418303D02*
D03*
X5067808Y6004001D02*
D03*
X5066614Y5365039D02*
D03*
X5014341Y6000242D02*
D03*
X4960671Y6000013D02*
D03*
X4953051Y5419700D02*
D03*
X4950790Y5366385D02*
D03*
X4950638Y5472989D02*
D03*
X4897450Y6023559D02*
D03*
X4831613Y5419674D02*
D03*
X4830801Y5473014D02*
D03*
X4828667Y5366410D02*
D03*
X4827956Y5983681D02*
D03*
X4827422Y6037021D02*
D03*
X4774082Y6030824D02*
D03*
X4711802Y5366334D02*
D03*
X4710125Y5419649D02*
D03*
X4707712Y5472938D02*
D03*
X4707077Y5982716D02*
D03*
X4704131Y6035980D02*
D03*
X4647667Y6034126D02*
D03*
X4590313Y5472989D02*
D03*
X4589069Y5363489D02*
D03*
X4588688Y5419649D02*
D03*
X4586656Y6036031D02*
D03*
X4585767Y5982691D02*
D03*
X4529633Y6039714D02*
D03*
X4470806Y5366258D02*
D03*
X4470171Y6035954D02*
D03*
X4469816Y5419598D02*
D03*
X4468876Y5472938D02*
D03*
X4466819Y5982716D02*
D03*
X4411980Y6035853D02*
D03*
X4349852Y5419598D02*
D03*
X4348607Y5982716D02*
D03*
X4348251Y5359197D02*
D03*
X4348226Y5472938D02*
D03*
X4344873Y6038342D02*
D03*
D85*
X6679819Y2544445D02*
D03*
Y2584425D02*
D03*
Y2624430D02*
D03*
Y2664435D02*
D03*
Y2704440D02*
D03*
Y2744445D02*
D03*
Y2784424D02*
D03*
Y2824429D02*
D03*
Y2864434D02*
D03*
Y2904439D02*
D03*
Y2944444D02*
D03*
Y2984424D02*
D03*
Y3024429D02*
D03*
Y3064434D02*
D03*
Y3104439D02*
D03*
Y3144444D02*
D03*
Y3184423D02*
D03*
Y3224428D02*
D03*
Y3264433D02*
D03*
Y3304438D02*
D03*
Y3344443D02*
D03*
Y3384423D02*
D03*
Y3424428D02*
D03*
Y3464433D02*
D03*
Y3504438D02*
D03*
Y3544443D02*
D03*
Y3584423D02*
D03*
Y3624428D02*
D03*
Y3664433D02*
D03*
Y3704438D02*
D03*
Y3744443D02*
D03*
Y3784422D02*
D03*
Y3824427D02*
D03*
Y3864432D02*
D03*
Y3904437D02*
D03*
Y3944442D02*
D03*
Y3984422D02*
D03*
Y4024427D02*
D03*
Y4064432D02*
D03*
Y4104437D02*
D03*
Y4144442D02*
D03*
Y4184421D02*
D03*
Y4224426D02*
D03*
Y4264431D02*
D03*
Y4304436D02*
D03*
Y4344441D02*
D03*
Y2384425D02*
D03*
Y2424430D02*
D03*
Y2464435D02*
D03*
Y2504440D02*
D03*
X6953377Y2544445D02*
D03*
Y2584425D02*
D03*
Y2624430D02*
D03*
Y2664435D02*
D03*
Y2704440D02*
D03*
Y2744445D02*
D03*
Y2784424D02*
D03*
Y2824429D02*
D03*
Y2864434D02*
D03*
Y2904439D02*
D03*
Y2944444D02*
D03*
Y2984424D02*
D03*
Y3024429D02*
D03*
Y3064434D02*
D03*
Y3104439D02*
D03*
Y3144444D02*
D03*
Y3184423D02*
D03*
Y3224428D02*
D03*
Y3264433D02*
D03*
Y3304438D02*
D03*
Y3344443D02*
D03*
Y3384423D02*
D03*
Y3424428D02*
D03*
Y3464433D02*
D03*
Y3504438D02*
D03*
Y3544443D02*
D03*
Y3584423D02*
D03*
Y3624428D02*
D03*
Y3664433D02*
D03*
Y3704438D02*
D03*
Y3744443D02*
D03*
Y3784422D02*
D03*
Y3824427D02*
D03*
Y3864432D02*
D03*
Y3904437D02*
D03*
Y3944442D02*
D03*
Y3984422D02*
D03*
Y4024427D02*
D03*
Y4064432D02*
D03*
Y4104437D02*
D03*
Y4144442D02*
D03*
Y4184421D02*
D03*
Y4224426D02*
D03*
Y4264431D02*
D03*
Y4304436D02*
D03*
Y4344441D02*
D03*
Y2384425D02*
D03*
Y2424430D02*
D03*
Y2464435D02*
D03*
Y2504440D02*
D03*
X3422320Y5645760D02*
D03*
Y5605755D02*
D03*
Y5565750D02*
D03*
Y5525770D02*
D03*
Y5485765D02*
D03*
Y5445760D02*
D03*
X3148762Y5645760D02*
D03*
Y5605755D02*
D03*
Y5565750D02*
D03*
Y5525770D02*
D03*
Y5485765D02*
D03*
Y5445760D02*
D03*
D86*
X6679819Y4391939D02*
D03*
Y2336927D02*
D03*
X6953377Y4391939D02*
D03*
Y2336927D02*
D03*
X3422320Y5693258D02*
D03*
Y5398262D02*
D03*
X3148762Y5693258D02*
D03*
Y5398262D02*
D03*
D87*
X4992218Y832129D02*
D03*
Y1105687D02*
D03*
X6647231Y832129D02*
D03*
Y1105687D02*
D03*
X5955360Y5864606D02*
D03*
Y5591048D02*
D03*
X4300347Y5864606D02*
D03*
Y5591048D02*
D03*
D88*
X5039716Y832129D02*
D03*
Y1105687D02*
D03*
X5079721Y832129D02*
D03*
Y1105687D02*
D03*
X5119726Y832129D02*
D03*
Y1105687D02*
D03*
X5159731Y832129D02*
D03*
Y1105687D02*
D03*
X5199736Y832129D02*
D03*
Y1105687D02*
D03*
X5239715Y832129D02*
D03*
Y1105687D02*
D03*
X5279720Y832129D02*
D03*
Y1105687D02*
D03*
X5319725Y832129D02*
D03*
Y1105687D02*
D03*
X5359730Y832129D02*
D03*
Y1105687D02*
D03*
X5399735Y832129D02*
D03*
Y1105687D02*
D03*
X5439715Y832129D02*
D03*
Y1105687D02*
D03*
X5479720Y832129D02*
D03*
Y1105687D02*
D03*
X5519725Y832129D02*
D03*
Y1105687D02*
D03*
X5559730Y832129D02*
D03*
Y1105687D02*
D03*
X5599735Y832129D02*
D03*
Y1105687D02*
D03*
X5639714Y832129D02*
D03*
Y1105687D02*
D03*
X5679719Y832129D02*
D03*
Y1105687D02*
D03*
X5719724Y832129D02*
D03*
Y1105687D02*
D03*
X5759729Y832129D02*
D03*
Y1105687D02*
D03*
X5799734Y832129D02*
D03*
Y1105687D02*
D03*
X5839714Y832129D02*
D03*
Y1105687D02*
D03*
X5879719Y832129D02*
D03*
Y1105687D02*
D03*
X5919724Y832129D02*
D03*
Y1105687D02*
D03*
X5959729Y832129D02*
D03*
Y1105687D02*
D03*
X5999734Y832129D02*
D03*
Y1105687D02*
D03*
X6039714Y832129D02*
D03*
Y1105687D02*
D03*
X6079719Y832129D02*
D03*
Y1105687D02*
D03*
X6119724Y832129D02*
D03*
Y1105687D02*
D03*
X6159729Y832129D02*
D03*
Y1105687D02*
D03*
X6199734Y832129D02*
D03*
Y1105687D02*
D03*
X6239713Y832129D02*
D03*
Y1105687D02*
D03*
X6279718Y832129D02*
D03*
Y1105687D02*
D03*
X6319723Y832129D02*
D03*
Y1105687D02*
D03*
X6359728Y832129D02*
D03*
Y1105687D02*
D03*
X6399733Y832129D02*
D03*
Y1105687D02*
D03*
X6439713Y832129D02*
D03*
Y1105687D02*
D03*
X6479718Y832129D02*
D03*
Y1105687D02*
D03*
X6519723Y832129D02*
D03*
Y1105687D02*
D03*
X6559728Y832129D02*
D03*
Y1105687D02*
D03*
X6599733Y832129D02*
D03*
Y1105687D02*
D03*
X5907862Y5864606D02*
D03*
Y5591048D02*
D03*
X5867857Y5864606D02*
D03*
Y5591048D02*
D03*
X5827852Y5864606D02*
D03*
Y5591048D02*
D03*
X5787847Y5864606D02*
D03*
Y5591048D02*
D03*
X5747842Y5864606D02*
D03*
Y5591048D02*
D03*
X5707863Y5864606D02*
D03*
Y5591048D02*
D03*
X5667858Y5864606D02*
D03*
Y5591048D02*
D03*
X5627853Y5864606D02*
D03*
Y5591048D02*
D03*
X5587848Y5864606D02*
D03*
Y5591048D02*
D03*
X5547843Y5864606D02*
D03*
Y5591048D02*
D03*
X5507863Y5864606D02*
D03*
Y5591048D02*
D03*
X5467858Y5864606D02*
D03*
Y5591048D02*
D03*
X5427853Y5864606D02*
D03*
Y5591048D02*
D03*
X5387848Y5864606D02*
D03*
Y5591048D02*
D03*
X5347843Y5864606D02*
D03*
Y5591048D02*
D03*
X5307863Y5864606D02*
D03*
Y5591048D02*
D03*
X5267858Y5864606D02*
D03*
Y5591048D02*
D03*
X5227853Y5864606D02*
D03*
Y5591048D02*
D03*
X5187848Y5864606D02*
D03*
Y5591048D02*
D03*
X5147843Y5864606D02*
D03*
Y5591048D02*
D03*
X5107864Y5864606D02*
D03*
Y5591048D02*
D03*
X5067859Y5864606D02*
D03*
Y5591048D02*
D03*
X5027854Y5864606D02*
D03*
Y5591048D02*
D03*
X4987849Y5864606D02*
D03*
Y5591048D02*
D03*
X4947844Y5864606D02*
D03*
Y5591048D02*
D03*
X4907864Y5864606D02*
D03*
Y5591048D02*
D03*
X4867859Y5864606D02*
D03*
Y5591048D02*
D03*
X4827854Y5864606D02*
D03*
Y5591048D02*
D03*
X4787849Y5864606D02*
D03*
Y5591048D02*
D03*
X4747844Y5864606D02*
D03*
Y5591048D02*
D03*
X4707865Y5864606D02*
D03*
Y5591048D02*
D03*
X4667860Y5864606D02*
D03*
Y5591048D02*
D03*
X4627855Y5864606D02*
D03*
Y5591048D02*
D03*
X4587850Y5864606D02*
D03*
Y5591048D02*
D03*
X4547845Y5864606D02*
D03*
Y5591048D02*
D03*
X4507865Y5864606D02*
D03*
Y5591048D02*
D03*
X4467860Y5864606D02*
D03*
Y5591048D02*
D03*
X4427855Y5864606D02*
D03*
Y5591048D02*
D03*
X4387850Y5864606D02*
D03*
Y5591048D02*
D03*
X4347845Y5864606D02*
D03*
Y5591048D02*
D03*
D89*
X1693723Y1692656D02*
D03*
X6527292Y5890057D02*
D03*
X277419Y4754575D02*
D03*
D90*
X5116779Y4098696D02*
X5127142Y4088333D01*
X5142332D01*
X5159375Y4071290D01*
X5175275D01*
X5175783Y4070782D01*
X5273827Y4067251D02*
Y4072331D01*
X5309184Y4107688D01*
Y4257370D01*
X5268544Y4298010D02*
X5309184Y4257370D01*
X5268544Y4298010D02*
Y4336593D01*
X5473471Y4220439D02*
X5486984Y4206926D01*
X5525059D01*
X5255082Y3876370D02*
X5271846Y3859606D01*
X5255082Y3876370D02*
Y3894938D01*
X5246472Y3903548D02*
X5255082Y3894938D01*
X5571541Y4114749D02*
X5620258Y4163466D01*
X5620614D01*
D91*
X1241501Y4279469D02*
X1234246Y4283097D01*
X1223362Y4293981D01*
Y4217797D01*
X1134844Y4293981D02*
X1171122Y4217797D01*
X1185633Y4293981D02*
X1134844D01*
X1096027D02*
X1106910Y4290353D01*
X1114165Y4279469D01*
X1117793Y4261331D01*
Y4250447D01*
X1114165Y4232308D01*
X1106910Y4221425D01*
X1096027Y4217797D01*
X1088771D01*
X1077888Y4221425D01*
X1070632Y4232308D01*
X1067004Y4250447D01*
Y4261331D01*
X1070632Y4279469D01*
X1077888Y4290353D01*
X1088771Y4293981D01*
X1096027D01*
X1049953Y4250447D02*
X984653D01*
X918627Y4293981D02*
X954905D01*
X958533Y4261331D01*
X954905Y4264958D01*
X944022Y4268586D01*
X933139D01*
X922255Y4264958D01*
X915000Y4257703D01*
X911372Y4246819D01*
Y4239564D01*
X915000Y4228680D01*
X922255Y4221425D01*
X933139Y4217797D01*
X944022D01*
X954905Y4221425D01*
X958533Y4225053D01*
X962161Y4232308D01*
X894321Y4279469D02*
X887066Y4283097D01*
X876182Y4293981D01*
Y4217797D01*
X791292Y4268586D02*
X794919Y4257703D01*
X802175Y4250447D01*
X813058Y4246819D01*
X816686D01*
X827570Y4250447D01*
X834825Y4257703D01*
X838453Y4268586D01*
Y4272214D01*
X834825Y4283097D01*
X827570Y4290353D01*
X816686Y4293981D01*
X813058D01*
X802175Y4290353D01*
X794919Y4283097D01*
X791292Y4268586D01*
Y4250447D01*
X794919Y4232308D01*
X802175Y4221425D01*
X813058Y4217797D01*
X820314D01*
X831197Y4221425D01*
X834825Y4228680D01*
X734335Y4293981D02*
X770613Y4243192D01*
X716196D01*
X734335Y4293981D02*
Y4217797D01*
X695518Y4293981D02*
X655612D01*
X677379Y4264958D01*
X666495D01*
X659240Y4261331D01*
X655612Y4257703D01*
X651984Y4246819D01*
Y4239564D01*
X655612Y4228680D01*
X662868Y4221425D01*
X673751Y4217797D01*
X684634D01*
X695518Y4221425D01*
X699145Y4225053D01*
X702773Y4232308D01*
X575075Y4293981D02*
Y4217797D01*
Y4293981D02*
X542425D01*
X531541Y4290353D01*
X527914Y4286725D01*
X524286Y4279469D01*
Y4272214D01*
X527914Y4264958D01*
X531541Y4261331D01*
X542425Y4257703D01*
X575075D01*
X549680D02*
X524286Y4217797D01*
X460074Y4293981D02*
X507235D01*
Y4217797D01*
X460074D01*
X507235Y4257703D02*
X478213D01*
X447376Y4293981D02*
X418354Y4217797D01*
X389332Y4293981D02*
X418354Y4217797D01*
X319678Y4293981D02*
Y4217797D01*
Y4293981D02*
X287028D01*
X276144Y4290353D01*
X272517Y4286725D01*
X268889Y4279469D01*
Y4272214D01*
X272517Y4264958D01*
X276144Y4261331D01*
X287028Y4257703D01*
X319678D02*
X287028D01*
X276144Y4254075D01*
X272517Y4250447D01*
X268889Y4243192D01*
Y4232308D01*
X272517Y4225053D01*
X276144Y4221425D01*
X287028Y4217797D01*
X319678D01*
%TF.MD5,199682036585f56305d47bd78952caa0*%
M02*
