%TF.GenerationSoftware,Altium Limited,Altium Designer,25.7.1 (20)*%
G04 Layer_Color=9339205*
%FSLAX45Y45*%
%MOMM*%
%TF.SameCoordinates,1AA72D45-9F13-4BD8-B423-63960E99F270*%
%TF.FilePolarity,Positive*%
%TF.FileFunction,Other,Bottom_Value*%
%TF.Part,Single*%
G01*
G75*
%TA.AperFunction,NonConductor*%
%ADD96C,0.10160*%
%ADD106C,0.05080*%
%ADD108C,0.02540*%
D96*
X1644782Y3865880D02*
Y3815091D01*
Y3865880D02*
X1627853D01*
X1620597Y3863461D01*
X1615760Y3858624D01*
X1613341Y3853787D01*
X1610923Y3846532D01*
Y3834439D01*
X1613341Y3827184D01*
X1615760Y3822346D01*
X1620597Y3817510D01*
X1627853Y3815091D01*
X1644782D01*
X1587463Y3848950D02*
X1592300Y3846532D01*
X1597137Y3841695D01*
X1599556Y3834439D01*
Y3829602D01*
X1597137Y3822346D01*
X1592300Y3817510D01*
X1587463Y3815091D01*
X1580208D01*
X1575370Y3817510D01*
X1570534Y3822346D01*
X1568115Y3829602D01*
Y3834439D01*
X1570534Y3841695D01*
X1575370Y3846532D01*
X1580208Y3848950D01*
X1587463D01*
X1517084Y3865880D02*
Y3815091D01*
Y3865880D02*
X1483225Y3815091D01*
Y3865880D02*
Y3815091D01*
X1457105Y3848950D02*
X1461942Y3846532D01*
X1466779Y3841695D01*
X1469197Y3834439D01*
Y3829602D01*
X1466779Y3822346D01*
X1461942Y3817510D01*
X1457105Y3815091D01*
X1449849D01*
X1445012Y3817510D01*
X1440175Y3822346D01*
X1437756Y3829602D01*
Y3834439D01*
X1440175Y3841695D01*
X1445012Y3846532D01*
X1449849Y3848950D01*
X1457105D01*
X1419376Y3865880D02*
Y3824765D01*
X1416957Y3817510D01*
X1412120Y3815091D01*
X1407283D01*
X1426631Y3848950D02*
X1409702D01*
X1343192Y3865880D02*
Y3815091D01*
X1360122Y3865880D02*
X1326262D01*
X1320216Y3848950D02*
Y3815091D01*
Y3834439D02*
X1317797Y3841695D01*
X1312961Y3846532D01*
X1308123Y3848950D01*
X1300868D01*
X1267250D02*
Y3815091D01*
Y3841695D02*
X1272087Y3846532D01*
X1276924Y3848950D01*
X1284180D01*
X1289017Y3846532D01*
X1293854Y3841695D01*
X1296272Y3834439D01*
Y3829602D01*
X1293854Y3822346D01*
X1289017Y3817510D01*
X1284180Y3815091D01*
X1276924D01*
X1272087Y3817510D01*
X1267250Y3822346D01*
X1227103Y3841695D02*
X1229521Y3846532D01*
X1236777Y3848950D01*
X1244032D01*
X1251288Y3846532D01*
X1253706Y3841695D01*
X1251288Y3836858D01*
X1246451Y3834439D01*
X1234358Y3832021D01*
X1229521Y3829602D01*
X1227103Y3824765D01*
Y3822346D01*
X1229521Y3817510D01*
X1236777Y3815091D01*
X1244032D01*
X1251288Y3817510D01*
X1253706Y3822346D01*
X1216461Y3865880D02*
Y3815091D01*
Y3839276D02*
X1209206Y3846532D01*
X1204368Y3848950D01*
X1197113D01*
X1192276Y3846532D01*
X1189857Y3839276D01*
Y3815091D01*
D106*
X6838365Y3050810D02*
X6800273D01*
X6838365D02*
Y3063507D01*
X6836551Y3068949D01*
X6832923Y3072577D01*
X6829295Y3074391D01*
X6823853Y3076205D01*
X6814784D01*
X6809342Y3074391D01*
X6805714Y3072577D01*
X6802086Y3068949D01*
X6800273Y3063507D01*
Y3050810D01*
X6838365Y3084730D02*
X6800273D01*
X6838365D02*
Y3108311D01*
X6820226Y3084730D02*
Y3099241D01*
X6838365Y3130803D02*
X6812970Y3112664D01*
Y3139872D01*
X6838365Y3130803D02*
X6800273D01*
X6838365Y3157467D02*
X6836551Y3152025D01*
X6831109Y3148398D01*
X6822039Y3146584D01*
X6816598D01*
X6807528Y3148398D01*
X6802086Y3152025D01*
X6800273Y3157467D01*
Y3161095D01*
X6802086Y3166537D01*
X6807528Y3170164D01*
X6816598Y3171978D01*
X6822039D01*
X6831109Y3170164D01*
X6836551Y3166537D01*
X6838365Y3161095D01*
Y3157467D01*
X6829295Y3207712D02*
X6832923Y3205898D01*
X6836551Y3202270D01*
X6838365Y3198643D01*
Y3191387D01*
X6836551Y3187759D01*
X6832923Y3184132D01*
X6829295Y3182317D01*
X6823853Y3180504D01*
X6814784D01*
X6809342Y3182317D01*
X6805714Y3184132D01*
X6802086Y3187759D01*
X6800273Y3191387D01*
Y3198643D01*
X6802086Y3202270D01*
X6805714Y3205898D01*
X6809342Y3207712D01*
X6816598Y3218414D02*
Y3251064D01*
X6831109Y3262310D02*
X6832923Y3265938D01*
X6838365Y3271380D01*
X6800273D01*
X6838365Y3301128D02*
X6836551Y3295686D01*
X6831109Y3292058D01*
X6822039Y3290244D01*
X6816598D01*
X6807528Y3292058D01*
X6802086Y3295686D01*
X6800273Y3301128D01*
Y3304756D01*
X6802086Y3310197D01*
X6807528Y3313825D01*
X6816598Y3315639D01*
X6822039D01*
X6831109Y3313825D01*
X6836551Y3310197D01*
X6838365Y3304756D01*
Y3301128D01*
Y3335048D02*
X6836551Y3329606D01*
X6831109Y3325978D01*
X6822039Y3324164D01*
X6816598D01*
X6807528Y3325978D01*
X6802086Y3329606D01*
X6800273Y3335048D01*
Y3338676D01*
X6802086Y3344117D01*
X6807528Y3347745D01*
X6816598Y3349559D01*
X6822039D01*
X6831109Y3347745D01*
X6836551Y3344117D01*
X6838365Y3338676D01*
Y3335048D01*
Y3358084D02*
X6800273D01*
X6838365D02*
Y3370781D01*
X6836551Y3376223D01*
X6832923Y3379851D01*
X6829295Y3381665D01*
X6823853Y3383479D01*
X6814784D01*
X6809342Y3381665D01*
X6805714Y3379851D01*
X6802086Y3376223D01*
X6800273Y3370781D01*
Y3358084D01*
X6818412Y3392004D02*
Y3408329D01*
X6820226Y3413771D01*
X6822039Y3415585D01*
X6825667Y3417399D01*
X6831109D01*
X6834737Y3415585D01*
X6836551Y3413771D01*
X6838365Y3408329D01*
Y3392004D01*
X6800273D01*
X6816598Y3425924D02*
Y3458574D01*
X6838365Y3480704D02*
X6836551Y3475262D01*
X6831109Y3471634D01*
X6822039Y3469820D01*
X6816598D01*
X6807528Y3471634D01*
X6802086Y3475262D01*
X6800273Y3480704D01*
Y3484332D01*
X6802086Y3489773D01*
X6807528Y3493401D01*
X6816598Y3495215D01*
X6822039D01*
X6831109Y3493401D01*
X6836551Y3489773D01*
X6838365Y3484332D01*
Y3480704D01*
X6803901Y3505554D02*
X6802086Y3503740D01*
X6800273Y3505554D01*
X6802086Y3507368D01*
X6803901Y3505554D01*
X6838365Y3533851D02*
X6812970Y3515712D01*
Y3542921D01*
X6838365Y3533851D02*
X6800273D01*
X6838365Y3549632D02*
X6800273Y3564143D01*
X6838365Y3578654D02*
X6800273Y3564143D01*
X6845620Y3596249D02*
X6841992Y3592621D01*
X6836551Y3588994D01*
X6829295Y3585366D01*
X6820226Y3583552D01*
X6812970D01*
X6803901Y3585366D01*
X6796645Y3588994D01*
X6791203Y3592621D01*
X6787575Y3596249D01*
X6841992Y3592621D02*
X6834737Y3588994D01*
X6829295Y3587180D01*
X6820226Y3585366D01*
X6812970D01*
X6803901Y3587180D01*
X6798459Y3588994D01*
X6791203Y3592621D01*
X6838365Y3625272D02*
Y3607133D01*
X6822039Y3605319D01*
X6823853Y3607133D01*
X6825667Y3612574D01*
Y3618016D01*
X6823853Y3623458D01*
X6820226Y3627085D01*
X6814784Y3628900D01*
X6811156D01*
X6805714Y3627085D01*
X6802086Y3623458D01*
X6800273Y3618016D01*
Y3612574D01*
X6802086Y3607133D01*
X6803901Y3605319D01*
X6807528Y3603505D01*
X6831109Y3637425D02*
X6832923Y3641053D01*
X6838365Y3646494D01*
X6800273D01*
X6845620Y3665359D02*
X6841992Y3668987D01*
X6836551Y3672614D01*
X6829295Y3676242D01*
X6820226Y3678056D01*
X6812970D01*
X6803901Y3676242D01*
X6796645Y3672614D01*
X6791203Y3668987D01*
X6787575Y3665359D01*
X6841992Y3668987D02*
X6834737Y3672614D01*
X6829295Y3674428D01*
X6820226Y3676242D01*
X6812970D01*
X6803901Y3674428D01*
X6798459Y3672614D01*
X6791203Y3668987D01*
X5712522Y958932D02*
X5710708Y955304D01*
X5707081Y951676D01*
X5703453Y949862D01*
X5696197D01*
X5692569Y951676D01*
X5688942Y955304D01*
X5687128Y958932D01*
X5685314Y964374D01*
Y973443D01*
X5687128Y978885D01*
X5688942Y982513D01*
X5692569Y986141D01*
X5696197Y987954D01*
X5703453D01*
X5707081Y986141D01*
X5710708Y982513D01*
X5712522Y978885D01*
X5734108Y949862D02*
X5730480Y951676D01*
X5726852Y955304D01*
X5725038Y958932D01*
X5723224Y964374D01*
Y973443D01*
X5725038Y978885D01*
X5726852Y982513D01*
X5730480Y986141D01*
X5734108Y987954D01*
X5741363D01*
X5744991Y986141D01*
X5748619Y982513D01*
X5750433Y978885D01*
X5752247Y973443D01*
Y964374D01*
X5750433Y958932D01*
X5748619Y955304D01*
X5744991Y951676D01*
X5741363Y949862D01*
X5734108D01*
X5761135D02*
Y987954D01*
Y949862D02*
X5786529Y987954D01*
Y949862D02*
Y987954D01*
X5828793Y958932D02*
Y957118D01*
X5830607Y953490D01*
X5832421Y951676D01*
X5836049Y949862D01*
X5843304D01*
X5846932Y951676D01*
X5848746Y953490D01*
X5850560Y957118D01*
Y960746D01*
X5848746Y964374D01*
X5845118Y969815D01*
X5826979Y987954D01*
X5852374D01*
X5860899Y949862D02*
X5886294Y987954D01*
Y949862D02*
X5860899Y987954D01*
X5912958Y949862D02*
X5894819Y975257D01*
X5922028D01*
X5912958Y949862D02*
Y987954D01*
X5939622Y949862D02*
X5934181Y951676D01*
X5930553Y957118D01*
X5928739Y966188D01*
Y971629D01*
X5930553Y980699D01*
X5934181Y986141D01*
X5939622Y987954D01*
X5943250D01*
X5948692Y986141D01*
X5952320Y980699D01*
X5954134Y971629D01*
Y966188D01*
X5952320Y957118D01*
X5948692Y951676D01*
X5943250Y949862D01*
X5939622D01*
X3295517Y5456425D02*
X3299145Y5454612D01*
X3302773Y5450984D01*
X3304587Y5447356D01*
Y5440100D01*
X3302773Y5436472D01*
X3299145Y5432845D01*
X3295517Y5431031D01*
X3290075Y5429217D01*
X3281006D01*
X3275564Y5431031D01*
X3271937Y5432845D01*
X3268309Y5436472D01*
X3266495Y5440100D01*
Y5447356D01*
X3268309Y5450984D01*
X3271937Y5454612D01*
X3275564Y5456425D01*
X3304587Y5478011D02*
X3302773Y5474383D01*
X3299145Y5470755D01*
X3295517Y5468941D01*
X3290075Y5467127D01*
X3281006D01*
X3275564Y5468941D01*
X3271937Y5470755D01*
X3268309Y5474383D01*
X3266495Y5478011D01*
Y5485266D01*
X3268309Y5488894D01*
X3271937Y5492522D01*
X3275564Y5494336D01*
X3281006Y5496150D01*
X3290075D01*
X3295517Y5494336D01*
X3299145Y5492522D01*
X3302773Y5488894D01*
X3304587Y5485266D01*
Y5478011D01*
Y5505038D02*
X3266495D01*
X3304587D02*
X3266495Y5530433D01*
X3304587D02*
X3266495D01*
X3295517Y5572696D02*
X3297331D01*
X3300959Y5574510D01*
X3302773Y5576324D01*
X3304587Y5579952D01*
Y5587208D01*
X3302773Y5590835D01*
X3300959Y5592649D01*
X3297331Y5594463D01*
X3293703D01*
X3290075Y5592649D01*
X3284634Y5589021D01*
X3266495Y5570882D01*
Y5596277D01*
X3304587Y5604802D02*
X3266495Y5630197D01*
X3304587D02*
X3266495Y5604802D01*
X3299145Y5660489D02*
X3302773Y5658675D01*
X3304587Y5653234D01*
Y5649606D01*
X3302773Y5644164D01*
X3297331Y5640536D01*
X3288262Y5638722D01*
X3279192D01*
X3271937Y5640536D01*
X3268309Y5644164D01*
X3266495Y5649606D01*
Y5651419D01*
X3268309Y5656861D01*
X3271937Y5660489D01*
X3277378Y5662303D01*
X3279192D01*
X3284634Y5660489D01*
X3288262Y5656861D01*
X3290075Y5651419D01*
Y5649606D01*
X3288262Y5644164D01*
X3284634Y5640536D01*
X3279192Y5638722D01*
X2760645Y1149624D02*
X2758831Y1145996D01*
X2753389Y1140554D01*
X2791481D01*
X2753389Y1110807D02*
X2755203Y1116248D01*
X2760645Y1119876D01*
X2769714Y1121690D01*
X2775156D01*
X2784226Y1119876D01*
X2789667Y1116248D01*
X2791481Y1110807D01*
Y1107179D01*
X2789667Y1101737D01*
X2784226Y1098109D01*
X2775156Y1096295D01*
X2769714D01*
X2760645Y1098109D01*
X2755203Y1101737D01*
X2753389Y1107179D01*
Y1110807D01*
Y1087770D02*
X2780598D01*
X2786039Y1085956D01*
X2789667Y1082328D01*
X2791481Y1076887D01*
Y1073259D01*
X2789667Y1067817D01*
X2786039Y1064189D01*
X2780598Y1062375D01*
X2753389D01*
Y1051855D02*
X2791481D01*
X2753389D02*
Y1028274D01*
X2771528Y1051855D02*
Y1037344D01*
X2502692Y958874D02*
X2504506Y962502D01*
X2509948Y967943D01*
X2471856D01*
X2509948Y986808D02*
X2482740D01*
X2477298Y988622D01*
X2473670Y992249D01*
X2471856Y997691D01*
Y1001319D01*
X2473670Y1006761D01*
X2477298Y1010388D01*
X2482740Y1012202D01*
X2509948D01*
Y1022723D02*
X2471856D01*
X2509948D02*
Y1046303D01*
X2491809Y1022723D02*
Y1037234D01*
X2507969Y1408628D02*
X2511597Y1406815D01*
X2517039Y1401373D01*
Y1439465D01*
X2535903Y1401373D02*
Y1428581D01*
X2537717Y1434023D01*
X2541345Y1437651D01*
X2546787Y1439465D01*
X2550415D01*
X2555856Y1437651D01*
X2559484Y1434023D01*
X2561298Y1428581D01*
Y1401373D01*
X2571818D02*
Y1439465D01*
Y1401373D02*
X2595399D01*
X2571818Y1419512D02*
X2586330D01*
X2892801Y1067385D02*
X2890987Y1063757D01*
X2885545Y1058316D01*
X2923637D01*
X2885545Y1039451D02*
X2912754D01*
X2918196Y1037637D01*
X2921823Y1034010D01*
X2923637Y1028568D01*
Y1024940D01*
X2921823Y1019498D01*
X2918196Y1015871D01*
X2912754Y1014057D01*
X2885545D01*
Y1003536D02*
X2923637D01*
X2885545D02*
Y979956D01*
X2903684Y1003536D02*
Y989025D01*
X3601887Y1684710D02*
X3596446Y1686524D01*
X3592818Y1691965D01*
X3591004Y1701035D01*
Y1706477D01*
X3592818Y1715546D01*
X3596446Y1720988D01*
X3601887Y1722802D01*
X3605515D01*
X3610957Y1720988D01*
X3614585Y1715546D01*
X3616399Y1706477D01*
Y1701035D01*
X3614585Y1691965D01*
X3610957Y1686524D01*
X3605515Y1684710D01*
X3601887D01*
X3713008Y2029050D02*
X3718450Y2027236D01*
X3722077Y2021794D01*
X3723891Y2012724D01*
Y2007283D01*
X3722077Y1998213D01*
X3718450Y1992771D01*
X3713008Y1990958D01*
X3709380D01*
X3703938Y1992771D01*
X3700311Y1998213D01*
X3698497Y2007283D01*
Y2012724D01*
X3700311Y2021794D01*
X3703938Y2027236D01*
X3709380Y2029050D01*
X3713008D01*
X3713033Y1918331D02*
X3718475Y1916517D01*
X3722103Y1911075D01*
X3723917Y1902006D01*
Y1896564D01*
X3722103Y1887495D01*
X3718475Y1882053D01*
X3713033Y1880239D01*
X3709405D01*
X3703964Y1882053D01*
X3700336Y1887495D01*
X3698522Y1896564D01*
Y1902006D01*
X3700336Y1911075D01*
X3703964Y1916517D01*
X3709405Y1918331D01*
X3713033D01*
X5220456Y3977442D02*
X5216828Y3979255D01*
X5211387Y3984697D01*
Y3946605D01*
X5181639Y3984697D02*
X5187081Y3982883D01*
X5190708Y3977442D01*
X5192522Y3968372D01*
Y3962930D01*
X5190708Y3953861D01*
X5187081Y3948419D01*
X5181639Y3946605D01*
X5178011D01*
X5172569Y3948419D01*
X5168942Y3953861D01*
X5167128Y3962930D01*
Y3968372D01*
X5168942Y3977442D01*
X5172569Y3982883D01*
X5178011Y3984697D01*
X5181639D01*
X5158602D02*
Y3957489D01*
X5156789Y3952047D01*
X5153161Y3948419D01*
X5147719Y3946605D01*
X5144091D01*
X5138649Y3948419D01*
X5135022Y3952047D01*
X5133208Y3957489D01*
Y3984697D01*
X5122687D02*
Y3946605D01*
Y3984697D02*
X5099107D01*
X5122687Y3966558D02*
X5108176D01*
X5044079Y3781303D02*
X5040451Y3783117D01*
X5035009Y3788558D01*
Y3750466D01*
X5005261Y3788558D02*
X5010703Y3786745D01*
X5014331Y3781303D01*
X5016145Y3772233D01*
Y3766792D01*
X5014331Y3757722D01*
X5010703Y3752280D01*
X5005261Y3750466D01*
X5001633D01*
X4996192Y3752280D01*
X4992564Y3757722D01*
X4990750Y3766792D01*
Y3772233D01*
X4992564Y3781303D01*
X4996192Y3786745D01*
X5001633Y3788558D01*
X5005261D01*
X4982225D02*
Y3761350D01*
X4980411Y3755908D01*
X4976783Y3752280D01*
X4971341Y3750466D01*
X4967713D01*
X4962272Y3752280D01*
X4958644Y3755908D01*
X4956830Y3761350D01*
Y3788558D01*
X4946310D02*
Y3750466D01*
Y3788558D02*
X4922729D01*
X4946310Y3770419D02*
X4931798D01*
X3102920Y4291020D02*
X3106548Y4289207D01*
X3111990Y4283765D01*
Y4321857D01*
X3141737Y4283765D02*
X3136296Y4285579D01*
X3132668Y4291020D01*
X3130854Y4300090D01*
Y4305532D01*
X3132668Y4314601D01*
X3136296Y4320043D01*
X3141737Y4321857D01*
X3145365D01*
X3150807Y4320043D01*
X3154435Y4314601D01*
X3156249Y4305532D01*
Y4300090D01*
X3154435Y4291020D01*
X3150807Y4285579D01*
X3145365Y4283765D01*
X3141737D01*
X3164774D02*
Y4310973D01*
X3166588Y4316415D01*
X3170216Y4320043D01*
X3175657Y4321857D01*
X3179285D01*
X3184727Y4320043D01*
X3188355Y4316415D01*
X3190169Y4310973D01*
Y4283765D01*
X3200689D02*
Y4321857D01*
Y4283765D02*
X3224270D01*
X3200689Y4301904D02*
X3215200D01*
X3866509Y3221106D02*
X3862881Y3222920D01*
X3857440Y3228361D01*
Y3190269D01*
X3827692Y3228361D02*
X3833134Y3226548D01*
X3836761Y3221106D01*
X3838575Y3212036D01*
Y3206595D01*
X3836761Y3197525D01*
X3833134Y3192083D01*
X3827692Y3190269D01*
X3824064D01*
X3818622Y3192083D01*
X3814995Y3197525D01*
X3813181Y3206595D01*
Y3212036D01*
X3814995Y3221106D01*
X3818622Y3226548D01*
X3824064Y3228361D01*
X3827692D01*
X3804655D02*
Y3201153D01*
X3802842Y3195711D01*
X3799214Y3192083D01*
X3793772Y3190269D01*
X3790144D01*
X3784702Y3192083D01*
X3781075Y3195711D01*
X3779261Y3201153D01*
Y3228361D01*
X3768740D02*
Y3190269D01*
Y3228361D02*
X3745160D01*
X3768740Y3210222D02*
X3754229D01*
X3553872Y3199608D02*
X3557500Y3197794D01*
X3562941Y3192352D01*
Y3230444D01*
X3592689Y3192352D02*
X3587247Y3194166D01*
X3583619Y3199608D01*
X3581806Y3208677D01*
Y3214119D01*
X3583619Y3223189D01*
X3587247Y3228630D01*
X3592689Y3230444D01*
X3596317D01*
X3601759Y3228630D01*
X3605386Y3223189D01*
X3607200Y3214119D01*
Y3208677D01*
X3605386Y3199608D01*
X3601759Y3194166D01*
X3596317Y3192352D01*
X3592689D01*
X3615726D02*
Y3219561D01*
X3617539Y3225002D01*
X3621167Y3228630D01*
X3626609Y3230444D01*
X3630237D01*
X3635679Y3228630D01*
X3639306Y3225002D01*
X3641120Y3219561D01*
Y3192352D01*
X3651641D02*
Y3230444D01*
Y3192352D02*
X3675221D01*
X3651641Y3210491D02*
X3666152D01*
X3016143Y4302917D02*
X3012515Y4304731D01*
X3007073Y4310173D01*
Y4272081D01*
X2977325Y4310173D02*
X2982767Y4308359D01*
X2986395Y4302917D01*
X2988209Y4293848D01*
Y4288406D01*
X2986395Y4279336D01*
X2982767Y4273895D01*
X2977325Y4272081D01*
X2973697D01*
X2968256Y4273895D01*
X2964628Y4279336D01*
X2962814Y4288406D01*
Y4293848D01*
X2964628Y4302917D01*
X2968256Y4308359D01*
X2973697Y4310173D01*
X2977325D01*
X2954289D02*
Y4282964D01*
X2952475Y4277523D01*
X2948847Y4273895D01*
X2943405Y4272081D01*
X2939777D01*
X2934336Y4273895D01*
X2930708Y4277523D01*
X2928894Y4282964D01*
Y4310173D01*
X2918374D02*
Y4272081D01*
Y4310173D02*
X2894793D01*
X2918374Y4292034D02*
X2903862D01*
X5990646Y1988714D02*
X5994274Y1986900D01*
X5999716Y1981458D01*
Y2019550D01*
X6029463Y1981458D02*
X6024022Y1983272D01*
X6020394Y1988714D01*
X6018580Y1997783D01*
Y2003225D01*
X6020394Y2012294D01*
X6024022Y2017736D01*
X6029463Y2019550D01*
X6033091D01*
X6038533Y2017736D01*
X6042161Y2012294D01*
X6043975Y2003225D01*
Y1997783D01*
X6042161Y1988714D01*
X6038533Y1983272D01*
X6033091Y1981458D01*
X6029463D01*
X6052500D02*
Y2008667D01*
X6054314Y2014108D01*
X6057942Y2017736D01*
X6063383Y2019550D01*
X6067011D01*
X6072453Y2017736D01*
X6076081Y2014108D01*
X6077895Y2008667D01*
Y1981458D01*
X6088415D02*
Y2019550D01*
Y1981458D02*
X6111996D01*
X6088415Y1999597D02*
X6102926D01*
X3566096Y3956731D02*
X3569724Y3954917D01*
X3575166Y3949475D01*
Y3987567D01*
X3604914Y3949475D02*
X3599472Y3951289D01*
X3595844Y3956731D01*
X3594030Y3965801D01*
Y3971242D01*
X3595844Y3980312D01*
X3599472Y3985754D01*
X3604914Y3987567D01*
X3608541D01*
X3613983Y3985754D01*
X3617611Y3980312D01*
X3619425Y3971242D01*
Y3965801D01*
X3617611Y3956731D01*
X3613983Y3951289D01*
X3608541Y3949475D01*
X3604914D01*
X3627950D02*
Y3987567D01*
X3653345Y3949475D02*
X3627950Y3974870D01*
X3637020Y3965801D02*
X3653345Y3987567D01*
X3565952Y3660788D02*
X3564138Y3657160D01*
X3558696Y3651718D01*
X3596788D01*
X3558696Y3611087D02*
Y3629226D01*
X3575021Y3631040D01*
X3573207Y3629226D01*
X3571393Y3623784D01*
Y3618343D01*
X3573207Y3612901D01*
X3576835Y3609273D01*
X3582277Y3607459D01*
X3585905D01*
X3591346Y3609273D01*
X3594974Y3612901D01*
X3596788Y3618343D01*
Y3623784D01*
X3594974Y3629226D01*
X3593160Y3631040D01*
X3589533Y3632854D01*
X3558696Y3588050D02*
X3560510Y3593492D01*
X3565952Y3597120D01*
X3575021Y3598934D01*
X3580463D01*
X3589533Y3597120D01*
X3594974Y3593492D01*
X3596788Y3588050D01*
Y3584423D01*
X3594974Y3578981D01*
X3589533Y3575353D01*
X3580463Y3573539D01*
X3575021D01*
X3565952Y3575353D01*
X3560510Y3578981D01*
X3558696Y3584423D01*
Y3588050D01*
X3567188Y3764224D02*
X3570816Y3762411D01*
X3576258Y3756969D01*
Y3795061D01*
X3606006Y3756969D02*
X3600564Y3758783D01*
X3596936Y3764224D01*
X3595122Y3773294D01*
Y3778736D01*
X3596936Y3787805D01*
X3600564Y3793247D01*
X3606006Y3795061D01*
X3609634D01*
X3615075Y3793247D01*
X3618703Y3787805D01*
X3620517Y3778736D01*
Y3773294D01*
X3618703Y3764224D01*
X3615075Y3758783D01*
X3609634Y3756969D01*
X3606006D01*
X3629042D02*
Y3795061D01*
X3654437Y3756969D02*
X3629042Y3782364D01*
X3638112Y3773294D02*
X3654437Y3795061D01*
X3412205Y4313001D02*
X3408577Y4314815D01*
X3403135Y4320257D01*
Y4282165D01*
X3373387Y4320257D02*
X3378829Y4318443D01*
X3382457Y4313001D01*
X3384271Y4303931D01*
Y4298490D01*
X3382457Y4289420D01*
X3378829Y4283978D01*
X3373387Y4282165D01*
X3369760D01*
X3364318Y4283978D01*
X3360690Y4289420D01*
X3358876Y4298490D01*
Y4303931D01*
X3360690Y4313001D01*
X3364318Y4318443D01*
X3369760Y4320257D01*
X3373387D01*
X3350351D02*
Y4293048D01*
X3348537Y4287606D01*
X3344909Y4283978D01*
X3339468Y4282165D01*
X3335840D01*
X3330398Y4283978D01*
X3326770Y4287606D01*
X3324956Y4293048D01*
Y4320257D01*
X3314436D02*
Y4282165D01*
Y4320257D02*
X3290855D01*
X3314436Y4302118D02*
X3299925D01*
X5043774Y3981201D02*
X5040146Y3983015D01*
X5034704Y3988456D01*
Y3950364D01*
X5004956Y3988456D02*
X5010398Y3986643D01*
X5014026Y3981201D01*
X5015840Y3972131D01*
Y3966690D01*
X5014026Y3957620D01*
X5010398Y3952178D01*
X5004956Y3950364D01*
X5001329D01*
X4995887Y3952178D01*
X4992259Y3957620D01*
X4990445Y3966690D01*
Y3972131D01*
X4992259Y3981201D01*
X4995887Y3986643D01*
X5001329Y3988456D01*
X5004956D01*
X4981920D02*
Y3961248D01*
X4980106Y3955806D01*
X4976478Y3952178D01*
X4971037Y3950364D01*
X4967409D01*
X4961967Y3952178D01*
X4958339Y3955806D01*
X4956525Y3961248D01*
Y3988456D01*
X4946005D02*
Y3950364D01*
Y3988456D02*
X4922424D01*
X4946005Y3970317D02*
X4931494D01*
X5286598Y3784376D02*
X5282970Y3786190D01*
X5277528Y3791632D01*
Y3753540D01*
X5247780Y3791632D02*
X5253222Y3789818D01*
X5256850Y3784376D01*
X5258664Y3775307D01*
Y3769865D01*
X5256850Y3760795D01*
X5253222Y3755354D01*
X5247780Y3753540D01*
X5244153D01*
X5238711Y3755354D01*
X5235083Y3760795D01*
X5233269Y3769865D01*
Y3775307D01*
X5235083Y3784376D01*
X5238711Y3789818D01*
X5244153Y3791632D01*
X5247780D01*
X5224744D02*
Y3764423D01*
X5222930Y3758982D01*
X5219302Y3755354D01*
X5213861Y3753540D01*
X5210233D01*
X5204791Y3755354D01*
X5201163Y3758982D01*
X5199349Y3764423D01*
Y3791632D01*
X5188829D02*
Y3753540D01*
Y3791632D02*
X5165248D01*
X5188829Y3773493D02*
X5174318D01*
X5455594Y5376975D02*
X5457407Y5382417D01*
X5462849Y5386045D01*
X5471919Y5387859D01*
X5477360D01*
X5486430Y5386045D01*
X5491872Y5382417D01*
X5493685Y5376975D01*
Y5373347D01*
X5491872Y5367906D01*
X5486430Y5364278D01*
X5477360Y5362464D01*
X5471919D01*
X5462849Y5364278D01*
X5457407Y5367906D01*
X5455594Y5373347D01*
Y5376975D01*
X5490058Y5352125D02*
X5491872Y5353939D01*
X5493685Y5352125D01*
X5491872Y5350311D01*
X5490058Y5352125D01*
X5462849Y5341967D02*
X5461035Y5338339D01*
X5455594Y5332897D01*
X5493685D01*
X5455594Y5314033D02*
X5482802D01*
X5488244Y5312219D01*
X5491872Y5308591D01*
X5493685Y5303150D01*
Y5299522D01*
X5491872Y5294080D01*
X5488244Y5290452D01*
X5482802Y5288638D01*
X5455594D01*
Y5278118D02*
X5493685D01*
X5455594D02*
Y5254537D01*
X5473733Y5278118D02*
Y5263607D01*
X3772626Y4267102D02*
X3767184Y4268916D01*
X3763557Y4274358D01*
X3761743Y4283428D01*
Y4288869D01*
X3763557Y4297939D01*
X3767184Y4303381D01*
X3772626Y4305194D01*
X3776254D01*
X3781696Y4303381D01*
X3785323Y4297939D01*
X3787137Y4288869D01*
Y4283428D01*
X3785323Y4274358D01*
X3781696Y4268916D01*
X3776254Y4267102D01*
X3772626D01*
X4883772Y4355724D02*
X4880144Y4357538D01*
X4874702Y4362979D01*
Y4324887D01*
X4854024Y4353910D02*
Y4355724D01*
X4852210Y4359351D01*
X4850396Y4361166D01*
X4846769Y4362979D01*
X4839513D01*
X4835885Y4361166D01*
X4834071Y4359351D01*
X4832258Y4355724D01*
Y4352096D01*
X4834071Y4348468D01*
X4837699Y4343026D01*
X4855838Y4324887D01*
X4830443D01*
X4811035Y4362979D02*
X4816477Y4361166D01*
X4820104Y4355724D01*
X4821918Y4346654D01*
Y4341213D01*
X4820104Y4332143D01*
X4816477Y4326701D01*
X4811035Y4324887D01*
X4807407D01*
X4801965Y4326701D01*
X4798338Y4332143D01*
X4796524Y4341213D01*
Y4346654D01*
X4798338Y4355724D01*
X4801965Y4361166D01*
X4807407Y4362979D01*
X4811035D01*
X5596082Y5260894D02*
X5597896Y5264522D01*
X5603338Y5269963D01*
X5565246D01*
X5603338Y5299711D02*
X5601524Y5294269D01*
X5596082Y5290641D01*
X5587012Y5288828D01*
X5581571D01*
X5572501Y5290641D01*
X5567059Y5294269D01*
X5565246Y5299711D01*
Y5303339D01*
X5567059Y5308781D01*
X5572501Y5312408D01*
X5581571Y5314222D01*
X5587012D01*
X5596082Y5312408D01*
X5601524Y5308781D01*
X5603338Y5303339D01*
Y5299711D01*
Y5333631D02*
X5601524Y5328189D01*
X5596082Y5324561D01*
X5587012Y5322748D01*
X5581571D01*
X5572501Y5324561D01*
X5567059Y5328189D01*
X5565246Y5333631D01*
Y5337259D01*
X5567059Y5342701D01*
X5572501Y5346328D01*
X5581571Y5348142D01*
X5587012D01*
X5596082Y5346328D01*
X5601524Y5342701D01*
X5603338Y5337259D01*
Y5333631D01*
Y5356667D02*
X5565246D01*
X5603338Y5382062D02*
X5577943Y5356667D01*
X5587012Y5365737D02*
X5565246Y5382062D01*
X3306127Y3356834D02*
X3309755Y3355020D01*
X3315197Y3349578D01*
Y3387670D01*
X3344945Y3349578D02*
X3339503Y3351392D01*
X3335875Y3356834D01*
X3334061Y3365903D01*
Y3371345D01*
X3335875Y3380415D01*
X3339503Y3385856D01*
X3344945Y3387670D01*
X3348572D01*
X3354014Y3385856D01*
X3357642Y3380415D01*
X3359456Y3371345D01*
Y3365903D01*
X3357642Y3356834D01*
X3354014Y3351392D01*
X3348572Y3349578D01*
X3344945D01*
X3367981D02*
Y3387670D01*
X3393376Y3349578D02*
X3367981Y3374973D01*
X3377051Y3365903D02*
X3393376Y3387670D01*
X5863265Y5260106D02*
X5865078Y5263734D01*
X5870520Y5269176D01*
X5832428D01*
X5870520Y5298924D02*
X5868706Y5293482D01*
X5863265Y5289854D01*
X5854195Y5288040D01*
X5848753D01*
X5839684Y5289854D01*
X5834242Y5293482D01*
X5832428Y5298924D01*
Y5302551D01*
X5834242Y5307993D01*
X5839684Y5311621D01*
X5848753Y5313435D01*
X5854195D01*
X5863265Y5311621D01*
X5868706Y5307993D01*
X5870520Y5302551D01*
Y5298924D01*
Y5332844D02*
X5868706Y5327402D01*
X5863265Y5323774D01*
X5854195Y5321960D01*
X5848753D01*
X5839684Y5323774D01*
X5834242Y5327402D01*
X5832428Y5332844D01*
Y5336471D01*
X5834242Y5341913D01*
X5839684Y5345541D01*
X5848753Y5347355D01*
X5854195D01*
X5863265Y5345541D01*
X5868706Y5341913D01*
X5870520Y5336471D01*
Y5332844D01*
Y5355880D02*
X5832428D01*
X5870520Y5381275D02*
X5845125Y5355880D01*
X5854195Y5364950D02*
X5832428Y5381275D01*
X5704591Y5261707D02*
X5706405Y5265334D01*
X5711846Y5270776D01*
X5673754D01*
X5711846Y5300524D02*
X5710033Y5295082D01*
X5704591Y5291454D01*
X5695521Y5289640D01*
X5690080D01*
X5681010Y5291454D01*
X5675568Y5295082D01*
X5673754Y5300524D01*
Y5304152D01*
X5675568Y5309593D01*
X5681010Y5313221D01*
X5690080Y5315035D01*
X5695521D01*
X5704591Y5313221D01*
X5710033Y5309593D01*
X5711846Y5304152D01*
Y5300524D01*
Y5334444D02*
X5710033Y5329002D01*
X5704591Y5325374D01*
X5695521Y5323560D01*
X5690080D01*
X5681010Y5325374D01*
X5675568Y5329002D01*
X5673754Y5334444D01*
Y5338072D01*
X5675568Y5343513D01*
X5681010Y5347141D01*
X5690080Y5348955D01*
X5695521D01*
X5704591Y5347141D01*
X5710033Y5343513D01*
X5711846Y5338072D01*
Y5334444D01*
Y5357480D02*
X5673754D01*
X5711846Y5382875D02*
X5686452Y5357480D01*
X5695521Y5366550D02*
X5673754Y5382875D01*
X771140Y3534806D02*
X769326Y3529364D01*
X763885Y3525736D01*
X754815Y3523922D01*
X749373D01*
X740304Y3525736D01*
X734862Y3529364D01*
X733048Y3534806D01*
Y3538434D01*
X734862Y3543875D01*
X740304Y3547503D01*
X749373Y3549317D01*
X754815D01*
X763885Y3547503D01*
X769326Y3543875D01*
X771140Y3538434D01*
Y3534806D01*
X663241Y3538540D02*
X661427Y3533098D01*
X655985Y3529470D01*
X646916Y3527656D01*
X641474D01*
X632405Y3529470D01*
X626963Y3533098D01*
X625149Y3538540D01*
Y3542167D01*
X626963Y3547609D01*
X632405Y3551237D01*
X641474Y3553051D01*
X646916D01*
X655985Y3551237D01*
X661427Y3547609D01*
X663241Y3542167D01*
Y3538540D01*
X989326Y4000616D02*
X987512Y3995175D01*
X982071Y3991547D01*
X973001Y3989733D01*
X967559D01*
X958490Y3991547D01*
X953048Y3995175D01*
X951234Y4000616D01*
Y4004244D01*
X953048Y4009686D01*
X958490Y4013314D01*
X967559Y4015128D01*
X973001D01*
X982071Y4013314D01*
X987512Y4009686D01*
X989326Y4004244D01*
Y4000616D01*
X860624Y4004909D02*
X858811Y3999467D01*
X853369Y3995839D01*
X844299Y3994026D01*
X838858D01*
X829788Y3995839D01*
X824346Y3999467D01*
X822533Y4004909D01*
Y4008537D01*
X824346Y4013979D01*
X829788Y4017606D01*
X838858Y4019420D01*
X844299D01*
X853369Y4017606D01*
X858811Y4013979D01*
X860624Y4008537D01*
Y4004909D01*
X3096367Y1363543D02*
X3099995Y1361730D01*
X3105437Y1356288D01*
Y1394380D01*
X3135184Y1356288D02*
X3129743Y1358102D01*
X3126115Y1363543D01*
X3124301Y1372613D01*
Y1378055D01*
X3126115Y1387124D01*
X3129743Y1392566D01*
X3135184Y1394380D01*
X3138812D01*
X3144254Y1392566D01*
X3147881Y1387124D01*
X3149696Y1378055D01*
Y1372613D01*
X3147881Y1363543D01*
X3144254Y1358102D01*
X3138812Y1356288D01*
X3135184D01*
X3158221D02*
Y1383496D01*
X3160035Y1388938D01*
X3163662Y1392566D01*
X3169104Y1394380D01*
X3172732D01*
X3178174Y1392566D01*
X3181801Y1388938D01*
X3183615Y1383496D01*
Y1356288D01*
X3194136D02*
Y1394380D01*
Y1356288D02*
X3217716D01*
X3194136Y1374427D02*
X3208647D01*
X3098399Y1212058D02*
X3102027Y1210244D01*
X3107469Y1204802D01*
Y1242894D01*
X3137216Y1204802D02*
X3131775Y1206616D01*
X3128147Y1212058D01*
X3126333Y1221127D01*
Y1226569D01*
X3128147Y1235639D01*
X3131775Y1241080D01*
X3137216Y1242894D01*
X3140844D01*
X3146286Y1241080D01*
X3149913Y1235639D01*
X3151728Y1226569D01*
Y1221127D01*
X3149913Y1212058D01*
X3146286Y1206616D01*
X3140844Y1204802D01*
X3137216D01*
X3160253D02*
Y1232011D01*
X3162067Y1237452D01*
X3165694Y1241080D01*
X3171136Y1242894D01*
X3174764D01*
X3180206Y1241080D01*
X3183833Y1237452D01*
X3185647Y1232011D01*
Y1204802D01*
X3196168D02*
Y1242894D01*
Y1204802D02*
X3219748D01*
X3196168Y1222941D02*
X3210679D01*
X3048055Y1574526D02*
X3049869Y1578154D01*
X3055311Y1583596D01*
X3017219D01*
X3055311Y1613343D02*
X3053497Y1607902D01*
X3048055Y1604274D01*
X3038986Y1602460D01*
X3033544D01*
X3024475Y1604274D01*
X3019033Y1607902D01*
X3017219Y1613343D01*
Y1616971D01*
X3019033Y1622413D01*
X3024475Y1626041D01*
X3033544Y1627855D01*
X3038986D01*
X3048055Y1626041D01*
X3053497Y1622413D01*
X3055311Y1616971D01*
Y1613343D01*
Y1636380D02*
X3028102D01*
X3022661Y1638194D01*
X3019033Y1641822D01*
X3017219Y1647263D01*
Y1650891D01*
X3019033Y1656333D01*
X3022661Y1659961D01*
X3028102Y1661775D01*
X3055311D01*
Y1672295D02*
X3017219D01*
X3055311D02*
Y1695876D01*
X3037172Y1672295D02*
Y1686806D01*
X2901066Y1573840D02*
X2902879Y1577468D01*
X2908321Y1582910D01*
X2870229D01*
X2908321Y1612658D02*
X2906507Y1607216D01*
X2901066Y1603588D01*
X2891996Y1601774D01*
X2886554D01*
X2877485Y1603588D01*
X2872043Y1607216D01*
X2870229Y1612658D01*
Y1616286D01*
X2872043Y1621727D01*
X2877485Y1625355D01*
X2886554Y1627169D01*
X2891996D01*
X2901066Y1625355D01*
X2906507Y1621727D01*
X2908321Y1616286D01*
Y1612658D01*
Y1635694D02*
X2881113D01*
X2875671Y1637508D01*
X2872043Y1641136D01*
X2870229Y1646578D01*
Y1650205D01*
X2872043Y1655647D01*
X2875671Y1659275D01*
X2881113Y1661089D01*
X2908321D01*
Y1671609D02*
X2870229D01*
X2908321D02*
Y1695190D01*
X2890182Y1671609D02*
Y1686121D01*
X2752679Y1573358D02*
X2754493Y1576986D01*
X2759934Y1582427D01*
X2721842D01*
X2759934Y1612175D02*
X2758120Y1606733D01*
X2752679Y1603106D01*
X2743609Y1601292D01*
X2738167D01*
X2729098Y1603106D01*
X2723656Y1606733D01*
X2721842Y1612175D01*
Y1615803D01*
X2723656Y1621245D01*
X2729098Y1624872D01*
X2738167Y1626686D01*
X2743609D01*
X2752679Y1624872D01*
X2758120Y1621245D01*
X2759934Y1615803D01*
Y1612175D01*
Y1635212D02*
X2732726D01*
X2727284Y1637025D01*
X2723656Y1640653D01*
X2721842Y1646095D01*
Y1649723D01*
X2723656Y1655165D01*
X2727284Y1658792D01*
X2732726Y1660606D01*
X2759934D01*
Y1671127D02*
X2721842D01*
X2759934D02*
Y1694707D01*
X2741795Y1671127D02*
Y1685638D01*
X2611521Y1149649D02*
X2609708Y1146021D01*
X2604266Y1140580D01*
X2642358D01*
X2604266Y1110832D02*
X2606080Y1116274D01*
X2611521Y1119901D01*
X2620591Y1121715D01*
X2626033D01*
X2635102Y1119901D01*
X2640544Y1116274D01*
X2642358Y1110832D01*
Y1107204D01*
X2640544Y1101762D01*
X2635102Y1098135D01*
X2626033Y1096321D01*
X2620591D01*
X2611521Y1098135D01*
X2606080Y1101762D01*
X2604266Y1107204D01*
Y1110832D01*
Y1087795D02*
X2631474D01*
X2636916Y1085982D01*
X2640544Y1082354D01*
X2642358Y1076912D01*
Y1073284D01*
X2640544Y1067842D01*
X2636916Y1064215D01*
X2631474Y1062401D01*
X2604266D01*
Y1051880D02*
X2642358D01*
X2604266D02*
Y1028300D01*
X2622405Y1051880D02*
Y1037369D01*
X2578425Y1690999D02*
X2576611Y1687372D01*
X2571170Y1681930D01*
X2609261D01*
X2571170Y1652182D02*
X2572983Y1657624D01*
X2578425Y1661252D01*
X2587495Y1663066D01*
X2592936D01*
X2602006Y1661252D01*
X2607448Y1657624D01*
X2609261Y1652182D01*
Y1648554D01*
X2607448Y1643113D01*
X2602006Y1639485D01*
X2592936Y1637671D01*
X2587495D01*
X2578425Y1639485D01*
X2572983Y1643113D01*
X2571170Y1648554D01*
Y1652182D01*
Y1629146D02*
X2598378D01*
X2603820Y1627332D01*
X2607448Y1623704D01*
X2609261Y1618262D01*
Y1614634D01*
X2607448Y1609193D01*
X2603820Y1605565D01*
X2598378Y1603751D01*
X2571170D01*
Y1593230D02*
X2609261D01*
X2571170D02*
Y1569650D01*
X2589309Y1593230D02*
Y1578719D01*
X5558777Y2128092D02*
X5553336Y2129906D01*
X5549708Y2135348D01*
X5547894Y2144417D01*
Y2149859D01*
X5549708Y2158929D01*
X5553336Y2164370D01*
X5558777Y2166184D01*
X5562405D01*
X5567847Y2164370D01*
X5571475Y2158929D01*
X5573289Y2149859D01*
Y2144417D01*
X5571475Y2135348D01*
X5567847Y2129906D01*
X5562405Y2128092D01*
X5558777D01*
X5583628Y2162556D02*
X5581814Y2164370D01*
X5583628Y2166184D01*
X5585442Y2164370D01*
X5583628Y2162556D01*
X5595599Y2137162D02*
Y2135348D01*
X5597413Y2131720D01*
X5599227Y2129906D01*
X5602855Y2128092D01*
X5610111D01*
X5613739Y2129906D01*
X5615552Y2131720D01*
X5617366Y2135348D01*
Y2138976D01*
X5615552Y2142604D01*
X5611925Y2148045D01*
X5593786Y2166184D01*
X5619180D01*
X5629519Y2137162D02*
Y2135348D01*
X5631333Y2131720D01*
X5633147Y2129906D01*
X5636775Y2128092D01*
X5644031D01*
X5647659Y2129906D01*
X5649472Y2131720D01*
X5651286Y2135348D01*
Y2138976D01*
X5649472Y2142604D01*
X5645844Y2148045D01*
X5627706Y2166184D01*
X5653100D01*
X5661625Y2128092D02*
Y2155301D01*
X5663439Y2160742D01*
X5667067Y2164370D01*
X5672509Y2166184D01*
X5676137D01*
X5681578Y2164370D01*
X5685206Y2160742D01*
X5687020Y2155301D01*
Y2128092D01*
X5697541D02*
Y2166184D01*
Y2128092D02*
X5721121D01*
X5697541Y2146231D02*
X5712052D01*
X5439693Y2093836D02*
X5441507Y2099278D01*
X5446949Y2102906D01*
X5456019Y2104720D01*
X5461460D01*
X5470530Y2102906D01*
X5475972Y2099278D01*
X5477785Y2093836D01*
Y2090208D01*
X5475972Y2084767D01*
X5470530Y2081139D01*
X5461460Y2079325D01*
X5456019D01*
X5446949Y2081139D01*
X5441507Y2084767D01*
X5439693Y2090208D01*
Y2093836D01*
X5474157Y2068986D02*
X5475972Y2070800D01*
X5477785Y2068986D01*
X5475972Y2067172D01*
X5474157Y2068986D01*
X5448763Y2057014D02*
X5446949D01*
X5443321Y2055200D01*
X5441507Y2053386D01*
X5439693Y2049758D01*
Y2042503D01*
X5441507Y2038875D01*
X5443321Y2037061D01*
X5446949Y2035247D01*
X5450577D01*
X5454205Y2037061D01*
X5459646Y2040689D01*
X5477785Y2058828D01*
Y2033433D01*
X5448763Y2023094D02*
X5446949D01*
X5443321Y2021280D01*
X5441507Y2019466D01*
X5439693Y2015838D01*
Y2008583D01*
X5441507Y2004955D01*
X5443321Y2003141D01*
X5446949Y2001327D01*
X5450577D01*
X5454205Y2003141D01*
X5459646Y2006769D01*
X5477785Y2024908D01*
Y1999513D01*
X5439693Y1990988D02*
X5466902D01*
X5472344Y1989174D01*
X5475972Y1985546D01*
X5477785Y1980105D01*
Y1976477D01*
X5475972Y1971035D01*
X5472344Y1967408D01*
X5466902Y1965593D01*
X5439693D01*
Y1955073D02*
X5477785D01*
X5439693D02*
Y1931492D01*
X5457832Y1955073D02*
Y1940562D01*
X5440481Y2199576D02*
X5442295Y2205018D01*
X5447736Y2208646D01*
X5456806Y2210460D01*
X5462248D01*
X5471317Y2208646D01*
X5476759Y2205018D01*
X5478573Y2199576D01*
Y2195949D01*
X5476759Y2190507D01*
X5471317Y2186879D01*
X5462248Y2185065D01*
X5456806D01*
X5447736Y2186879D01*
X5442295Y2190507D01*
X5440481Y2195949D01*
Y2199576D01*
X5474945Y2174726D02*
X5476759Y2176540D01*
X5478573Y2174726D01*
X5476759Y2172912D01*
X5474945Y2174726D01*
X5449550Y2162754D02*
X5447736D01*
X5444109Y2160940D01*
X5442295Y2159126D01*
X5440481Y2155499D01*
Y2148243D01*
X5442295Y2144615D01*
X5444109Y2142801D01*
X5447736Y2140988D01*
X5451364D01*
X5454992Y2142801D01*
X5460434Y2146429D01*
X5478573Y2164568D01*
Y2139174D01*
X5449550Y2128834D02*
X5447736D01*
X5444109Y2127020D01*
X5442295Y2125207D01*
X5440481Y2121579D01*
Y2114323D01*
X5442295Y2110695D01*
X5444109Y2108881D01*
X5447736Y2107068D01*
X5451364D01*
X5454992Y2108881D01*
X5460434Y2112509D01*
X5478573Y2130648D01*
Y2105254D01*
X5440481Y2096728D02*
X5467689D01*
X5473131Y2094915D01*
X5476759Y2091287D01*
X5478573Y2085845D01*
Y2082217D01*
X5476759Y2076775D01*
X5473131Y2073148D01*
X5467689Y2071334D01*
X5440481D01*
Y2060813D02*
X5478573D01*
X5440481D02*
Y2037233D01*
X5458620Y2060813D02*
Y2046302D01*
X5571486Y1800771D02*
X5569672Y1795329D01*
X5564230Y1791702D01*
X5555161Y1789888D01*
X5549719D01*
X5540650Y1791702D01*
X5535208Y1795329D01*
X5533394Y1800771D01*
Y1804399D01*
X5535208Y1809841D01*
X5540650Y1813468D01*
X5549719Y1815282D01*
X5555161D01*
X5564230Y1813468D01*
X5569672Y1809841D01*
X5571486Y1804399D01*
Y1800771D01*
X5537022Y1825621D02*
X5535208Y1823808D01*
X5533394Y1825621D01*
X5535208Y1827436D01*
X5537022Y1825621D01*
X5562416Y1837593D02*
X5564230D01*
X5567858Y1839407D01*
X5569672Y1841221D01*
X5571486Y1844849D01*
Y1852104D01*
X5569672Y1855732D01*
X5567858Y1857546D01*
X5564230Y1859360D01*
X5560603D01*
X5556975Y1857546D01*
X5551533Y1853918D01*
X5533394Y1835779D01*
Y1861174D01*
X5562416Y1871513D02*
X5564230D01*
X5567858Y1873327D01*
X5569672Y1875141D01*
X5571486Y1878769D01*
Y1886024D01*
X5569672Y1889652D01*
X5567858Y1891466D01*
X5564230Y1893280D01*
X5560603D01*
X5556975Y1891466D01*
X5551533Y1887838D01*
X5533394Y1869699D01*
Y1895094D01*
X5571486Y1903619D02*
X5544277D01*
X5538836Y1905433D01*
X5535208Y1909061D01*
X5533394Y1914503D01*
Y1918131D01*
X5535208Y1923572D01*
X5538836Y1927200D01*
X5544277Y1929014D01*
X5571486D01*
Y1939534D02*
X5533394D01*
X5571486D02*
Y1963115D01*
X5553347Y1939534D02*
Y1954046D01*
X5901855Y2067124D02*
X5907297Y2065310D01*
X5910925Y2059869D01*
X5912738Y2050799D01*
Y2045357D01*
X5910925Y2036288D01*
X5907297Y2030846D01*
X5901855Y2029032D01*
X5898227D01*
X5892786Y2030846D01*
X5889158Y2036288D01*
X5887344Y2045357D01*
Y2050799D01*
X5889158Y2059869D01*
X5892786Y2065310D01*
X5898227Y2067124D01*
X5901855D01*
X5877005Y2032660D02*
X5878819Y2030846D01*
X5877005Y2029032D01*
X5875191Y2030846D01*
X5877005Y2032660D01*
X5865033Y2058055D02*
Y2059869D01*
X5863219Y2063496D01*
X5861405Y2065310D01*
X5857777Y2067124D01*
X5850522D01*
X5846894Y2065310D01*
X5845080Y2063496D01*
X5843266Y2059869D01*
Y2056241D01*
X5845080Y2052613D01*
X5848708Y2047171D01*
X5866847Y2029032D01*
X5841452D01*
X5831113Y2058055D02*
Y2059869D01*
X5829299Y2063496D01*
X5827485Y2065310D01*
X5823857Y2067124D01*
X5816602D01*
X5812974Y2065310D01*
X5811160Y2063496D01*
X5809346Y2059869D01*
Y2056241D01*
X5811160Y2052613D01*
X5814788Y2047171D01*
X5832927Y2029032D01*
X5807532D01*
X5799007Y2067124D02*
Y2039916D01*
X5797193Y2034474D01*
X5793565Y2030846D01*
X5788124Y2029032D01*
X5784496D01*
X5779054Y2030846D01*
X5775426Y2034474D01*
X5773612Y2039916D01*
Y2067124D01*
X5763092D02*
Y2029032D01*
Y2067124D02*
X5739511D01*
X5763092Y2048985D02*
X5748581D01*
X5285563Y4348383D02*
X5281936Y4350197D01*
X5276494Y4355639D01*
Y4317547D01*
X5257630Y4355639D02*
Y4328430D01*
X5255816Y4322989D01*
X5252188Y4319361D01*
X5246746Y4317547D01*
X5243118D01*
X5237677Y4319361D01*
X5234049Y4322989D01*
X5232235Y4328430D01*
Y4355639D01*
X5221714D02*
Y4317547D01*
Y4355639D02*
X5198134D01*
X5221714Y4337500D02*
X5207203D01*
X5632404Y4146447D02*
X5634218Y4150075D01*
X5639660Y4155516D01*
X5601568D01*
X5639660Y4174381D02*
X5612451D01*
X5607010Y4176195D01*
X5603382Y4179822D01*
X5601568Y4185264D01*
Y4188892D01*
X5603382Y4194334D01*
X5607010Y4197961D01*
X5612451Y4199775D01*
X5639660D01*
Y4210296D02*
X5601568D01*
X5639660D02*
Y4233876D01*
X5621521Y4210296D02*
Y4224807D01*
X5531433Y4054013D02*
X5535061Y4052199D01*
X5540503Y4046757D01*
Y4084849D01*
X5559367Y4046757D02*
Y4073966D01*
X5561181Y4079408D01*
X5564809Y4083036D01*
X5570250Y4084849D01*
X5573878D01*
X5579320Y4083036D01*
X5582947Y4079408D01*
X5584762Y4073966D01*
Y4046757D01*
X5595282D02*
Y4084849D01*
Y4046757D02*
X5618863D01*
X5595282Y4064896D02*
X5609793D01*
X5435137Y4211576D02*
X5436951D01*
X5440579Y4213390D01*
X5442393Y4215204D01*
X5444207Y4218832D01*
Y4226088D01*
X5442393Y4229715D01*
X5440579Y4231529D01*
X5436951Y4233343D01*
X5433323D01*
X5429695Y4231529D01*
X5424254Y4227901D01*
X5406115Y4209762D01*
Y4235157D01*
X5444207Y4254566D02*
X5442393Y4249124D01*
X5436951Y4245496D01*
X5427881Y4243682D01*
X5422440D01*
X5413370Y4245496D01*
X5407928Y4249124D01*
X5406115Y4254566D01*
Y4258194D01*
X5407928Y4263635D01*
X5413370Y4267263D01*
X5422440Y4269077D01*
X5427881D01*
X5436951Y4267263D01*
X5442393Y4263635D01*
X5444207Y4258194D01*
Y4254566D01*
Y4288486D02*
X5442393Y4283044D01*
X5436951Y4279416D01*
X5427881Y4277602D01*
X5422440D01*
X5413370Y4279416D01*
X5407928Y4283044D01*
X5406115Y4288486D01*
Y4292114D01*
X5407928Y4297555D01*
X5413370Y4301183D01*
X5422440Y4302997D01*
X5427881D01*
X5436951Y4301183D01*
X5442393Y4297555D01*
X5444207Y4292114D01*
Y4288486D01*
X5535035Y4188818D02*
X5536849D01*
X5540477Y4190632D01*
X5542291Y4192446D01*
X5544105Y4196074D01*
Y4203329D01*
X5542291Y4206957D01*
X5540477Y4208771D01*
X5536849Y4210585D01*
X5533221D01*
X5529593Y4208771D01*
X5524152Y4205143D01*
X5506013Y4187004D01*
Y4212399D01*
X5544105Y4231807D02*
X5542291Y4226366D01*
X5536849Y4222738D01*
X5527780Y4220924D01*
X5522338D01*
X5513268Y4222738D01*
X5507827Y4226366D01*
X5506013Y4231807D01*
Y4235435D01*
X5507827Y4240877D01*
X5513268Y4244505D01*
X5522338Y4246319D01*
X5527780D01*
X5536849Y4244505D01*
X5542291Y4240877D01*
X5544105Y4235435D01*
Y4231807D01*
Y4265727D02*
X5542291Y4260286D01*
X5536849Y4256658D01*
X5527780Y4254844D01*
X5522338D01*
X5513268Y4256658D01*
X5507827Y4260286D01*
X5506013Y4265727D01*
Y4269355D01*
X5507827Y4274797D01*
X5513268Y4278425D01*
X5522338Y4280239D01*
X5527780D01*
X5536849Y4278425D01*
X5542291Y4274797D01*
X5544105Y4269355D01*
Y4265727D01*
X5453231Y5447802D02*
X5455045Y5453244D01*
X5460487Y5456872D01*
X5469556Y5458686D01*
X5474998D01*
X5484068Y5456872D01*
X5489509Y5453244D01*
X5491323Y5447802D01*
Y5444174D01*
X5489509Y5438733D01*
X5484068Y5435105D01*
X5474998Y5433291D01*
X5469556D01*
X5460487Y5435105D01*
X5455045Y5438733D01*
X5453231Y5444174D01*
Y5447802D01*
X5128570Y4139894D02*
X5130384Y4143522D01*
X5135825Y4148963D01*
X5097734D01*
X5135825Y4167828D02*
X5108617D01*
X5103175Y4169641D01*
X5099547Y4173269D01*
X5097734Y4178711D01*
Y4182339D01*
X5099547Y4187781D01*
X5103175Y4191408D01*
X5108617Y4193222D01*
X5135825D01*
Y4203743D02*
X5097734D01*
X5135825D02*
Y4227323D01*
X5117686Y4203743D02*
Y4218254D01*
X5232786Y3620641D02*
X5234600Y3624269D01*
X5240042Y3629711D01*
X5201950D01*
X5240042Y3648575D02*
X5212833D01*
X5207391Y3650389D01*
X5203764Y3654017D01*
X5201950Y3659459D01*
Y3663087D01*
X5203764Y3668528D01*
X5207391Y3672156D01*
X5212833Y3673970D01*
X5240042D01*
Y3684490D02*
X5201950D01*
X5240042D02*
Y3708071D01*
X5221903Y3684490D02*
Y3699002D01*
X5496104Y3785976D02*
X5492476Y3787790D01*
X5487034Y3793232D01*
Y3755140D01*
X5468170Y3793232D02*
Y3766023D01*
X5466356Y3760582D01*
X5462728Y3756954D01*
X5457287Y3755140D01*
X5453659D01*
X5448217Y3756954D01*
X5444590Y3760582D01*
X5442775Y3766023D01*
Y3793232D01*
X5432255D02*
Y3755140D01*
Y3793232D02*
X5408674D01*
X5432255Y3775093D02*
X5417744D01*
X5024277Y4138649D02*
X5026091Y4142277D01*
X5031533Y4147719D01*
X4993441D01*
X5031533Y4166583D02*
X5004325D01*
X4998883Y4168397D01*
X4995255Y4172025D01*
X4993441Y4177466D01*
Y4181094D01*
X4995255Y4186536D01*
X4998883Y4190164D01*
X5004325Y4191978D01*
X5031533D01*
Y4202498D02*
X4993441D01*
X5031533D02*
Y4226079D01*
X5013394Y4202498D02*
Y4217009D01*
X5008418Y3632252D02*
X5006604Y3628624D01*
X5001162Y3623182D01*
X5039254D01*
X5001162Y3604318D02*
X5028371D01*
X5033812Y3602504D01*
X5037440Y3598876D01*
X5039254Y3593435D01*
Y3589807D01*
X5037440Y3584365D01*
X5033812Y3580737D01*
X5028371Y3578923D01*
X5001162D01*
Y3568403D02*
X5039254D01*
X5001162D02*
Y3544822D01*
X5019301Y3568403D02*
Y3553892D01*
X5466409Y3861862D02*
X5470037Y3860048D01*
X5475479Y3854606D01*
Y3892698D01*
X5494343Y3854606D02*
Y3881815D01*
X5496157Y3887257D01*
X5499785Y3890885D01*
X5505226Y3892698D01*
X5508854D01*
X5514296Y3890885D01*
X5517923Y3887257D01*
X5519738Y3881815D01*
Y3854606D01*
X5530258D02*
Y3892698D01*
Y3854606D02*
X5553839D01*
X5530258Y3872745D02*
X5544769D01*
X5211465Y4116452D02*
X5209652Y4112824D01*
X5204210Y4107382D01*
X5242302D01*
X5204210Y4088518D02*
X5231418D01*
X5236860Y4086704D01*
X5240488Y4083076D01*
X5242302Y4077635D01*
Y4074007D01*
X5240488Y4068565D01*
X5236860Y4064938D01*
X5231418Y4063123D01*
X5204210D01*
Y4052603D02*
X5242302D01*
X5204210D02*
Y4029022D01*
X5222349Y4052603D02*
Y4038092D01*
X5104989Y4115715D02*
X5103175Y4112088D01*
X5097733Y4106646D01*
X5135825D01*
X5097733Y4087782D02*
X5124941D01*
X5130383Y4085968D01*
X5134011Y4082340D01*
X5135825Y4076898D01*
Y4073270D01*
X5134011Y4067829D01*
X5130383Y4064201D01*
X5124941Y4062387D01*
X5097733D01*
Y4051866D02*
X5135825D01*
X5097733D02*
Y4028286D01*
X5115872Y4051866D02*
Y4037355D01*
X5430296Y3643019D02*
X5432110Y3646647D01*
X5437552Y3652088D01*
X5399460D01*
X5437552Y3670953D02*
X5410344D01*
X5404902Y3672767D01*
X5401274Y3676394D01*
X5399460Y3681836D01*
Y3685464D01*
X5401274Y3690906D01*
X5404902Y3694533D01*
X5410344Y3696347D01*
X5437552D01*
Y3706868D02*
X5399460D01*
X5437552D02*
Y3730448D01*
X5419413Y3706868D02*
Y3721379D01*
X5992694Y2287079D02*
X5990880Y2281638D01*
X5985439Y2278010D01*
X5976369Y2276196D01*
X5970927D01*
X5961858Y2278010D01*
X5956416Y2281638D01*
X5954602Y2287079D01*
Y2290707D01*
X5956416Y2296149D01*
X5961858Y2299777D01*
X5970927Y2301591D01*
X5976369D01*
X5985439Y2299777D01*
X5990880Y2296149D01*
X5992694Y2290707D01*
Y2287079D01*
X5958230Y2311930D02*
X5956416Y2310116D01*
X5954602Y2311930D01*
X5956416Y2313744D01*
X5958230Y2311930D01*
X5983625Y2323902D02*
X5985439D01*
X5989066Y2325716D01*
X5990880Y2327530D01*
X5992694Y2331157D01*
Y2338413D01*
X5990880Y2342041D01*
X5989066Y2343855D01*
X5985439Y2345668D01*
X5981811D01*
X5978183Y2343855D01*
X5972741Y2340227D01*
X5954602Y2322088D01*
Y2347482D01*
X5983625Y2357822D02*
X5985439D01*
X5989066Y2359636D01*
X5990880Y2361449D01*
X5992694Y2365077D01*
Y2372333D01*
X5990880Y2375961D01*
X5989066Y2377775D01*
X5985439Y2379588D01*
X5981811D01*
X5978183Y2377775D01*
X5972741Y2374147D01*
X5954602Y2356008D01*
Y2381402D01*
X5992694Y2389928D02*
X5965486D01*
X5960044Y2391741D01*
X5956416Y2395369D01*
X5954602Y2400811D01*
Y2404439D01*
X5956416Y2409881D01*
X5960044Y2413508D01*
X5965486Y2415322D01*
X5992694D01*
Y2425843D02*
X5954602D01*
X5992694D02*
Y2449423D01*
X5974555Y2425843D02*
Y2440354D01*
X5499327Y3956960D02*
X5502955Y3955146D01*
X5508397Y3949704D01*
Y3987796D01*
X5527261Y3949704D02*
Y3976913D01*
X5529075Y3982354D01*
X5532703Y3985982D01*
X5538145Y3987796D01*
X5541773D01*
X5547214Y3985982D01*
X5550842Y3982354D01*
X5552656Y3976913D01*
Y3949704D01*
X5563176D02*
Y3987796D01*
Y3949704D02*
X5586757D01*
X5563176Y3967843D02*
X5577688D01*
X5314691Y4086505D02*
X5312877Y4082878D01*
X5307435Y4077436D01*
X5345527D01*
X5307435Y4058572D02*
X5334644D01*
X5340086Y4056758D01*
X5343713Y4053130D01*
X5345527Y4047688D01*
Y4044060D01*
X5343713Y4038619D01*
X5340086Y4034991D01*
X5334644Y4033177D01*
X5307435D01*
Y4022656D02*
X5345527D01*
X5307435D02*
Y3999076D01*
X5325574Y4022656D02*
Y4008145D01*
X5405911Y4124058D02*
X5407725Y4129500D01*
X5413167Y4133128D01*
X5422237Y4134942D01*
X5427678D01*
X5436748Y4133128D01*
X5442190Y4129500D01*
X5444003Y4124058D01*
Y4120430D01*
X5442190Y4114989D01*
X5436748Y4111361D01*
X5427678Y4109547D01*
X5422237D01*
X5413167Y4111361D01*
X5407725Y4114989D01*
X5405911Y4120430D01*
Y4124058D01*
X5440375Y4099208D02*
X5442190Y4101022D01*
X5444003Y4099208D01*
X5442190Y4097394D01*
X5440375Y4099208D01*
X5414981Y4087236D02*
X5413167D01*
X5409539Y4085422D01*
X5407725Y4083608D01*
X5405911Y4079980D01*
Y4072725D01*
X5407725Y4069097D01*
X5409539Y4067283D01*
X5413167Y4065469D01*
X5416795D01*
X5420423Y4067283D01*
X5425864Y4070911D01*
X5444003Y4089050D01*
Y4063655D01*
X5414981Y4053316D02*
X5413167D01*
X5409539Y4051502D01*
X5407725Y4049688D01*
X5405911Y4046060D01*
Y4038805D01*
X5407725Y4035177D01*
X5409539Y4033363D01*
X5413167Y4031549D01*
X5416795D01*
X5420423Y4033363D01*
X5425864Y4036991D01*
X5444003Y4055130D01*
Y4029735D01*
X5405911Y4021210D02*
X5433120D01*
X5438562Y4019396D01*
X5442190Y4015768D01*
X5444003Y4010327D01*
Y4006699D01*
X5442190Y4001257D01*
X5438562Y3997630D01*
X5433120Y3995815D01*
X5405911D01*
Y3985295D02*
X5444003D01*
X5405911D02*
Y3961714D01*
X5424050Y3985295D02*
Y3970784D01*
X5371695Y3923594D02*
X5368067Y3925407D01*
X5362625Y3930849D01*
Y3892757D01*
X5343761Y3930849D02*
Y3903641D01*
X5341947Y3898199D01*
X5338319Y3894571D01*
X5332878Y3892757D01*
X5329250D01*
X5323808Y3894571D01*
X5320180Y3898199D01*
X5318366Y3903641D01*
Y3930849D01*
X5307846D02*
Y3892757D01*
Y3930849D02*
X5284265D01*
X5307846Y3912710D02*
X5293335D01*
X5358531Y3839033D02*
X5356718Y3835405D01*
X5351276Y3829964D01*
X5389368D01*
X5351276Y3811099D02*
X5378484D01*
X5383926Y3809285D01*
X5387554Y3805658D01*
X5389368Y3800216D01*
Y3796588D01*
X5387554Y3791146D01*
X5383926Y3787519D01*
X5378484Y3785705D01*
X5351276D01*
Y3775184D02*
X5389368D01*
X5351276D02*
Y3751604D01*
X5369415Y3775184D02*
Y3760673D01*
X5353023Y3956071D02*
X5356651Y3954257D01*
X5362093Y3948815D01*
Y3986907D01*
X5380957Y3948815D02*
Y3976024D01*
X5382771Y3981465D01*
X5386399Y3985093D01*
X5391841Y3986907D01*
X5395469D01*
X5400910Y3985093D01*
X5404538Y3981465D01*
X5406352Y3976024D01*
Y3948815D01*
X5416872D02*
Y3986907D01*
Y3948815D02*
X5440453D01*
X5416872Y3966954D02*
X5431384D01*
X5244565Y3953454D02*
X5248193Y3951641D01*
X5253635Y3946199D01*
Y3984291D01*
X5272499Y3946199D02*
Y3973407D01*
X5274313Y3978849D01*
X5277941Y3982477D01*
X5283383Y3984291D01*
X5287011D01*
X5292452Y3982477D01*
X5296080Y3978849D01*
X5297894Y3973407D01*
Y3946199D01*
X5308414D02*
Y3984291D01*
Y3946199D02*
X5331995D01*
X5308414Y3964338D02*
X5322926D01*
X5309154Y3839287D02*
X5307340Y3835660D01*
X5301898Y3830218D01*
X5339990D01*
X5301898Y3811354D02*
X5329107D01*
X5334549Y3809540D01*
X5338177Y3805912D01*
X5339990Y3800470D01*
Y3796842D01*
X5338177Y3791401D01*
X5334549Y3787773D01*
X5329107Y3785959D01*
X5301898D01*
Y3775438D02*
X5339990D01*
X5301898D02*
Y3751858D01*
X5320037Y3775438D02*
Y3760927D01*
X5058307Y3400827D02*
X5061935Y3399013D01*
X5067377Y3393571D01*
Y3431663D01*
X5086241Y3393571D02*
Y3420780D01*
X5088055Y3426221D01*
X5091683Y3429849D01*
X5097124Y3431663D01*
X5100752D01*
X5106194Y3429849D01*
X5109822Y3426221D01*
X5111636Y3420780D01*
Y3393571D01*
X5122156D02*
Y3431663D01*
Y3393571D02*
X5145737D01*
X5122156Y3411710D02*
X5136667D01*
X5337866Y3646245D02*
X5339680Y3649873D01*
X5345121Y3655314D01*
X5307030D01*
X5345121Y3674179D02*
X5317913D01*
X5312471Y3675992D01*
X5308843Y3679620D01*
X5307030Y3685062D01*
Y3688690D01*
X5308843Y3694132D01*
X5312471Y3697759D01*
X5317913Y3699573D01*
X5345121D01*
Y3710094D02*
X5307030D01*
X5345121D02*
Y3733674D01*
X5326982Y3710094D02*
Y3724605D01*
X5737255Y3770374D02*
X5739069Y3774002D01*
X5744511Y3779444D01*
X5706419D01*
X5744511Y3798308D02*
X5717303D01*
X5711861Y3800122D01*
X5708233Y3803750D01*
X5706419Y3809192D01*
Y3812820D01*
X5708233Y3818261D01*
X5711861Y3821889D01*
X5717303Y3823703D01*
X5744511D01*
Y3834223D02*
X5706419D01*
X5744511D02*
Y3857804D01*
X5726372Y3834223D02*
Y3848735D01*
X5514618Y3409082D02*
X5518246Y3407268D01*
X5523688Y3401826D01*
Y3439918D01*
X5542552Y3401826D02*
Y3429035D01*
X5544366Y3434476D01*
X5547994Y3438104D01*
X5553435Y3439918D01*
X5557063D01*
X5562505Y3438104D01*
X5566133Y3434476D01*
X5567947Y3429035D01*
Y3401826D01*
X5578467D02*
Y3439918D01*
Y3401826D02*
X5602048D01*
X5578467Y3419965D02*
X5592978D01*
X5135555Y3651960D02*
X5137369Y3655588D01*
X5142810Y3661029D01*
X5104719D01*
X5142810Y3679894D02*
X5115602D01*
X5110160Y3681707D01*
X5106532Y3685335D01*
X5104719Y3690777D01*
Y3694405D01*
X5106532Y3699847D01*
X5110160Y3703474D01*
X5115602Y3705288D01*
X5142810D01*
Y3715809D02*
X5104719D01*
X5142810D02*
Y3739389D01*
X5124671Y3715809D02*
Y3730320D01*
X5034586Y3682852D02*
X5030958Y3684666D01*
X5025516Y3690108D01*
Y3652016D01*
X5006652Y3690108D02*
Y3662899D01*
X5004838Y3657458D01*
X5001210Y3653830D01*
X4995769Y3652016D01*
X4992141D01*
X4986699Y3653830D01*
X4983072Y3657458D01*
X4981258Y3662899D01*
Y3690108D01*
X4970737D02*
Y3652016D01*
Y3690108D02*
X4947156D01*
X4970737Y3671969D02*
X4956226D01*
X5052694Y3855512D02*
X5056322Y3853698D01*
X5061763Y3848256D01*
Y3886348D01*
X5080628Y3848256D02*
Y3875465D01*
X5082441Y3880907D01*
X5086069Y3884535D01*
X5091511Y3886348D01*
X5095139D01*
X5100581Y3884535D01*
X5104208Y3880907D01*
X5106022Y3875465D01*
Y3848256D01*
X5116543D02*
Y3886348D01*
Y3848256D02*
X5140123D01*
X5116543Y3866395D02*
X5131054D01*
X5036821Y4081074D02*
X5033193Y4082887D01*
X5027752Y4088329D01*
Y4050237D01*
X5008887Y4088329D02*
Y4061121D01*
X5007074Y4055679D01*
X5003446Y4052051D01*
X4998004Y4050237D01*
X4994376D01*
X4988934Y4052051D01*
X4985307Y4055679D01*
X4983493Y4061121D01*
Y4088329D01*
X4972972D02*
Y4050237D01*
Y4088329D02*
X4949392D01*
X4972972Y4070190D02*
X4958461D01*
X5030878Y3885443D02*
X5027250Y3887257D01*
X5021808Y3892698D01*
Y3854606D01*
X5002944Y3892698D02*
Y3865490D01*
X5001130Y3860048D01*
X4997502Y3856420D01*
X4992060Y3854606D01*
X4988432D01*
X4982991Y3856420D01*
X4979363Y3860048D01*
X4977549Y3865490D01*
Y3892698D01*
X4967029D02*
Y3854606D01*
Y3892698D02*
X4943448D01*
X4967029Y3874559D02*
X4952517D01*
X3756560Y3548944D02*
X3752932Y3550757D01*
X3747490Y3556199D01*
Y3518107D01*
X3728626Y3556199D02*
Y3528991D01*
X3726812Y3523549D01*
X3723184Y3519921D01*
X3717742Y3518107D01*
X3714114D01*
X3708673Y3519921D01*
X3705045Y3523549D01*
X3703231Y3528991D01*
Y3556199D01*
X3692711D02*
Y3518107D01*
Y3556199D02*
X3669130D01*
X3692711Y3538060D02*
X3678199D01*
X3880052Y4180759D02*
X3883680Y4178945D01*
X3889122Y4173503D01*
Y4211595D01*
X3907986Y4173503D02*
Y4200712D01*
X3909800Y4206154D01*
X3913428Y4209782D01*
X3918869Y4211595D01*
X3922497D01*
X3927939Y4209782D01*
X3931566Y4206154D01*
X3933380Y4200712D01*
Y4173503D01*
X3943901D02*
Y4211595D01*
Y4173503D02*
X3967482D01*
X3943901Y4191642D02*
X3958412D01*
X3847394Y3871238D02*
X3849208Y3874866D01*
X3854649Y3880307D01*
X3816558D01*
X3854649Y3899172D02*
X3827441D01*
X3821999Y3900986D01*
X3818371Y3904613D01*
X3816558Y3910055D01*
Y3913683D01*
X3818371Y3919125D01*
X3821999Y3922752D01*
X3827441Y3924566D01*
X3854649D01*
Y3935087D02*
X3816558D01*
X3854649D02*
Y3958667D01*
X3836510Y3935087D02*
Y3949598D01*
X3880105Y3633500D02*
X3876477Y3635314D01*
X3871036Y3640756D01*
Y3602664D01*
X3852171Y3640756D02*
Y3613547D01*
X3850358Y3608106D01*
X3846730Y3604478D01*
X3841288Y3602664D01*
X3837660D01*
X3832218Y3604478D01*
X3828591Y3608106D01*
X3826777Y3613547D01*
Y3640756D01*
X3816256D02*
Y3602664D01*
Y3640756D02*
X3792676D01*
X3816256Y3622617D02*
X3801745D01*
X3271445Y3864818D02*
X3267817Y3866632D01*
X3262375Y3872074D01*
Y3833982D01*
X3243511Y3872074D02*
Y3844865D01*
X3241697Y3839423D01*
X3238069Y3835795D01*
X3232628Y3833982D01*
X3229000D01*
X3223558Y3835795D01*
X3219931Y3839423D01*
X3218117Y3844865D01*
Y3872074D01*
X3207596D02*
Y3833982D01*
Y3872074D02*
X3184015D01*
X3207596Y3853935D02*
X3193085D01*
X3650915Y4190772D02*
X3649101Y4187145D01*
X3643659Y4181703D01*
X3681751D01*
X3643659Y4162839D02*
X3670868D01*
X3676309Y4161025D01*
X3679937Y4157397D01*
X3681751Y4151955D01*
Y4148327D01*
X3679937Y4142886D01*
X3676309Y4139258D01*
X3670868Y4137444D01*
X3643659D01*
Y4126923D02*
X3681751D01*
X3643659D02*
Y4103343D01*
X3661798Y4126923D02*
Y4112412D01*
X3400985Y3230580D02*
X3397357Y3232394D01*
X3391915Y3237836D01*
Y3199744D01*
X3373051Y3237836D02*
Y3210627D01*
X3371237Y3205185D01*
X3367609Y3201557D01*
X3362168Y3199744D01*
X3358540D01*
X3353098Y3201557D01*
X3349471Y3205185D01*
X3347656Y3210627D01*
Y3237836D01*
X3337136D02*
Y3199744D01*
Y3237836D02*
X3313555D01*
X3337136Y3219697D02*
X3322625D01*
X3269210Y3643381D02*
X3265582Y3645195D01*
X3260140Y3650636D01*
Y3612544D01*
X3241276Y3650636D02*
Y3623428D01*
X3239462Y3617986D01*
X3235834Y3614358D01*
X3230393Y3612544D01*
X3226765D01*
X3221323Y3614358D01*
X3217695Y3617986D01*
X3215881Y3623428D01*
Y3650636D01*
X3205361D02*
Y3612544D01*
Y3650636D02*
X3181780D01*
X3205361Y3632497D02*
X3190850D01*
X3865195Y3783538D02*
X3861568Y3785352D01*
X3856126Y3790794D01*
Y3752702D01*
X3837262Y3790794D02*
Y3763585D01*
X3835448Y3758143D01*
X3831820Y3754515D01*
X3826378Y3752702D01*
X3822750D01*
X3817309Y3754515D01*
X3813681Y3758143D01*
X3811867Y3763585D01*
Y3790794D01*
X3801346D02*
Y3752702D01*
Y3790794D02*
X3777766D01*
X3801346Y3772655D02*
X3786835D01*
X4097355Y4137252D02*
X4099169Y4140880D01*
X4104611Y4146322D01*
X4066519D01*
X4104611Y4165186D02*
X4077402D01*
X4071961Y4167000D01*
X4068333Y4170628D01*
X4066519Y4176069D01*
Y4179697D01*
X4068333Y4185139D01*
X4071961Y4188767D01*
X4077402Y4190581D01*
X4104611D01*
Y4201101D02*
X4066519D01*
X4104611D02*
Y4224682D01*
X4086472Y4201101D02*
Y4215612D01*
X4029480Y3769939D02*
X4033108Y3768126D01*
X4038550Y3762684D01*
Y3800776D01*
X4057414Y3762684D02*
Y3789892D01*
X4059228Y3795334D01*
X4062856Y3798962D01*
X4068297Y3800776D01*
X4071925D01*
X4077367Y3798962D01*
X4080995Y3795334D01*
X4082809Y3789892D01*
Y3762684D01*
X4093329D02*
Y3800776D01*
Y3762684D02*
X4116910D01*
X4093329Y3780823D02*
X4107840D01*
X4129378Y3458154D02*
X4133006Y3456341D01*
X4138448Y3450899D01*
Y3488991D01*
X4157312Y3450899D02*
Y3478107D01*
X4159126Y3483549D01*
X4162754Y3487177D01*
X4168196Y3488991D01*
X4171824D01*
X4177265Y3487177D01*
X4180893Y3483549D01*
X4182707Y3478107D01*
Y3450899D01*
X4193227D02*
Y3488991D01*
Y3450899D02*
X4216808D01*
X4193227Y3469038D02*
X4207739D01*
X2879167Y4131467D02*
X2875540Y4133281D01*
X2870098Y4138723D01*
Y4100631D01*
X2851234Y4138723D02*
Y4111514D01*
X2849420Y4106073D01*
X2845792Y4102445D01*
X2840350Y4100631D01*
X2836722D01*
X2831281Y4102445D01*
X2827653Y4106073D01*
X2825839Y4111514D01*
Y4138723D01*
X2815318D02*
Y4100631D01*
Y4138723D02*
X2791738D01*
X2815318Y4120584D02*
X2800807D01*
X3010663Y3647038D02*
X3007035Y3648852D01*
X3001594Y3654294D01*
Y3616202D01*
X2982729Y3654294D02*
Y3627085D01*
X2980916Y3621644D01*
X2977288Y3618016D01*
X2971846Y3616202D01*
X2968218D01*
X2962776Y3618016D01*
X2959149Y3621644D01*
X2957335Y3627085D01*
Y3654294D01*
X2946814D02*
Y3616202D01*
Y3654294D02*
X2923234D01*
X2946814Y3636155D02*
X2932303D01*
X3914624Y4054759D02*
X3910996Y4056573D01*
X3905554Y4062015D01*
Y4023923D01*
X3886690Y4062015D02*
Y4034806D01*
X3884876Y4029365D01*
X3881248Y4025737D01*
X3875807Y4023923D01*
X3872179D01*
X3866737Y4025737D01*
X3863109Y4029365D01*
X3861295Y4034806D01*
Y4062015D01*
X3850775D02*
Y4023923D01*
Y4062015D02*
X3827194D01*
X3850775Y4043876D02*
X3836264D01*
X3012238Y3226948D02*
X3008610Y3228762D01*
X3003168Y3234203D01*
Y3196111D01*
X2984304Y3234203D02*
Y3206995D01*
X2982490Y3201553D01*
X2978862Y3197925D01*
X2973421Y3196111D01*
X2969793D01*
X2964351Y3197925D01*
X2960724Y3201553D01*
X2958910Y3206995D01*
Y3234203D01*
X2948389D02*
Y3196111D01*
Y3234203D02*
X2924808D01*
X2948389Y3216064D02*
X2933878D01*
X6050996Y2318968D02*
X6052810Y2322596D01*
X6058252Y2328037D01*
X6020160D01*
X6058252Y2346902D02*
X6031043D01*
X6025602Y2348715D01*
X6021974Y2352343D01*
X6020160Y2357785D01*
Y2361413D01*
X6021974Y2366855D01*
X6025602Y2370482D01*
X6031043Y2372296D01*
X6058252D01*
Y2382817D02*
X6020160D01*
X6058252D02*
Y2406397D01*
X6040113Y2382817D02*
Y2397328D01*
X5731718Y3652874D02*
X5733532Y3656502D01*
X5738974Y3661944D01*
X5700882D01*
X5738974Y3680808D02*
X5711765D01*
X5706324Y3682622D01*
X5702696Y3686250D01*
X5700882Y3691691D01*
Y3695319D01*
X5702696Y3700761D01*
X5706324Y3704389D01*
X5711765Y3706203D01*
X5738974D01*
Y3716723D02*
X5700882D01*
X5738974D02*
Y3740304D01*
X5720835Y3716723D02*
Y3731234D01*
X5061584Y3761989D02*
X5065212Y3760175D01*
X5070653Y3754734D01*
Y3792826D01*
X5089518Y3754734D02*
Y3781942D01*
X5091331Y3787384D01*
X5094959Y3791012D01*
X5100401Y3792826D01*
X5104029D01*
X5109471Y3791012D01*
X5113098Y3787384D01*
X5114912Y3781942D01*
Y3754734D01*
X5125433D02*
Y3792826D01*
Y3754734D02*
X5149013D01*
X5125433Y3772873D02*
X5139944D01*
X5215058Y4291556D02*
X5213244D01*
X5209616Y4289742D01*
X5207802Y4287928D01*
X5205988Y4284301D01*
Y4277045D01*
X5207802Y4273417D01*
X5209616Y4271603D01*
X5213244Y4269790D01*
X5216871D01*
X5220499Y4271603D01*
X5225941Y4275231D01*
X5244080Y4293370D01*
Y4267975D01*
X5205988Y4248567D02*
X5207802Y4254009D01*
X5213244Y4257636D01*
X5222313Y4259450D01*
X5227755D01*
X5236824Y4257636D01*
X5242266Y4254009D01*
X5244080Y4248567D01*
Y4244939D01*
X5242266Y4239497D01*
X5236824Y4235870D01*
X5227755Y4234056D01*
X5222313D01*
X5213244Y4235870D01*
X5207802Y4239497D01*
X5205988Y4244939D01*
Y4248567D01*
Y4214647D02*
X5207802Y4220089D01*
X5213244Y4223716D01*
X5222313Y4225530D01*
X5227755D01*
X5236824Y4223716D01*
X5242266Y4220089D01*
X5244080Y4214647D01*
Y4211019D01*
X5242266Y4205577D01*
X5236824Y4201950D01*
X5227755Y4200136D01*
X5222313D01*
X5213244Y4201950D01*
X5207802Y4205577D01*
X5205988Y4211019D01*
Y4214647D01*
X5434131Y6000227D02*
X5435945Y6005669D01*
X5441386Y6009297D01*
X5450456Y6011110D01*
X5455898D01*
X5464967Y6009297D01*
X5470409Y6005669D01*
X5472223Y6000227D01*
Y5996599D01*
X5470409Y5991157D01*
X5464967Y5987530D01*
X5455898Y5985716D01*
X5450456D01*
X5441386Y5987530D01*
X5435945Y5991157D01*
X5434131Y5996599D01*
Y6000227D01*
X3230418Y3500426D02*
X3228604Y3496798D01*
X3223162Y3491356D01*
X3261254D01*
X3223162Y3472492D02*
X3250371D01*
X3255812Y3470678D01*
X3259440Y3467050D01*
X3261254Y3461609D01*
Y3457981D01*
X3259440Y3452539D01*
X3255812Y3448911D01*
X3250371Y3447097D01*
X3223162D01*
Y3436577D02*
X3261254D01*
X3223162D02*
Y3412996D01*
X3241301Y3436577D02*
Y3422066D01*
X5176062Y3891758D02*
X5179689Y3889944D01*
X5185131Y3884502D01*
Y3922594D01*
X5203995Y3884502D02*
Y3911711D01*
X5205809Y3917152D01*
X5209437Y3920780D01*
X5214879Y3922594D01*
X5218507D01*
X5223948Y3920780D01*
X5227576Y3917152D01*
X5229390Y3911711D01*
Y3884502D01*
X5239911D02*
Y3922594D01*
Y3884502D02*
X5263491D01*
X5239911Y3902641D02*
X5254422D01*
X4065156Y3883107D02*
Y3881293D01*
X4066970Y3877665D01*
X4068784Y3875851D01*
X4072412Y3874037D01*
X4079667D01*
X4083295Y3875851D01*
X4085109Y3877665D01*
X4086923Y3881293D01*
Y3884921D01*
X4085109Y3888549D01*
X4081481Y3893990D01*
X4063342Y3912129D01*
X4088737D01*
X4115401Y3874037D02*
X4097262Y3899432D01*
X4124471D01*
X4115401Y3874037D02*
Y3912129D01*
X4142066Y3874037D02*
X4136624Y3875851D01*
X4132996Y3881293D01*
X4131182Y3890363D01*
Y3895804D01*
X4132996Y3904874D01*
X4136624Y3910316D01*
X4142066Y3912129D01*
X4145694D01*
X4151135Y3910316D01*
X4154763Y3904874D01*
X4156577Y3895804D01*
Y3890363D01*
X4154763Y3881293D01*
X4151135Y3875851D01*
X4145694Y3874037D01*
X4142066D01*
X4205915D02*
X4202287Y3875851D01*
X4198659Y3879479D01*
X4196845Y3883107D01*
X4195031Y3888549D01*
Y3897618D01*
X4196845Y3903060D01*
X4198659Y3906688D01*
X4202287Y3910316D01*
X4205915Y3912129D01*
X4213170D01*
X4216798Y3910316D01*
X4220426Y3906688D01*
X4222240Y3903060D01*
X4224054Y3897618D01*
Y3888549D01*
X4222240Y3883107D01*
X4220426Y3879479D01*
X4216798Y3875851D01*
X4213170Y3874037D01*
X4205915D01*
X4232942D02*
Y3912129D01*
X4258337Y3874037D02*
Y3912129D01*
X4232942Y3892176D02*
X4258337D01*
X4268857Y3874037D02*
Y3912129D01*
Y3874037D02*
X4283368Y3912129D01*
X4297879Y3874037D02*
X4283368Y3912129D01*
X4297879Y3874037D02*
Y3912129D01*
X5370114Y5489043D02*
X5368300Y5485415D01*
X5362858Y5479973D01*
X5400950D01*
X5362858Y5461109D02*
X5390067D01*
X5395508Y5459295D01*
X5399136Y5455667D01*
X5400950Y5450225D01*
Y5446597D01*
X5399136Y5441156D01*
X5395508Y5437528D01*
X5390067Y5435714D01*
X5362858D01*
Y5425194D02*
X5400950D01*
X5362858D02*
Y5401613D01*
X5380997Y5425194D02*
Y5410682D01*
X4938676Y3582243D02*
X4935048Y3584057D01*
X4929606Y3589499D01*
Y3551407D01*
X4910742Y3589499D02*
Y3562290D01*
X4908928Y3556848D01*
X4905300Y3553220D01*
X4899858Y3551407D01*
X4896230D01*
X4890789Y3553220D01*
X4887161Y3556848D01*
X4885347Y3562290D01*
Y3589499D01*
X4874827D02*
Y3551407D01*
Y3589499D02*
X4851246D01*
X4874827Y3571360D02*
X4860315D01*
X5235055Y5737803D02*
X5236869Y5741431D01*
X5240497Y5745059D01*
X5244125Y5746873D01*
X5251380D01*
X5255008Y5745059D01*
X5258636Y5741431D01*
X5260450Y5737803D01*
X5262264Y5732362D01*
Y5723292D01*
X5260450Y5717851D01*
X5258636Y5714223D01*
X5255008Y5710595D01*
X5251380Y5708781D01*
X5244125D01*
X5240497Y5710595D01*
X5236869Y5714223D01*
X5235055Y5717851D01*
X5213470Y5746873D02*
X5217098Y5745059D01*
X5220725Y5741431D01*
X5222539Y5737803D01*
X5224353Y5732362D01*
Y5723292D01*
X5222539Y5717851D01*
X5220725Y5714223D01*
X5217098Y5710595D01*
X5213470Y5708781D01*
X5206214D01*
X5202586Y5710595D01*
X5198958Y5714223D01*
X5197145Y5717851D01*
X5195331Y5723292D01*
Y5732362D01*
X5197145Y5737803D01*
X5198958Y5741431D01*
X5202586Y5745059D01*
X5206214Y5746873D01*
X5213470D01*
X5186443D02*
Y5708781D01*
Y5746873D02*
X5161048Y5708781D01*
Y5746873D02*
Y5708781D01*
X5118784Y5737803D02*
Y5739617D01*
X5116970Y5743245D01*
X5115156Y5745059D01*
X5111529Y5746873D01*
X5104273D01*
X5100645Y5745059D01*
X5098831Y5743245D01*
X5097017Y5739617D01*
Y5735990D01*
X5098831Y5732362D01*
X5102459Y5726920D01*
X5120598Y5708781D01*
X5095203D01*
X5086678Y5746873D02*
X5061284Y5708781D01*
Y5746873D02*
X5086678Y5708781D01*
X5034619Y5746873D02*
X5052758Y5721478D01*
X5025550D01*
X5034619Y5746873D02*
Y5708781D01*
X5007955Y5746873D02*
X5013397Y5745059D01*
X5017025Y5739617D01*
X5018838Y5730548D01*
Y5725106D01*
X5017025Y5716037D01*
X5013397Y5710595D01*
X5007955Y5708781D01*
X5004327D01*
X4998885Y5710595D01*
X4995258Y5716037D01*
X4993444Y5725106D01*
Y5730548D01*
X4995258Y5739617D01*
X4998885Y5745059D01*
X5004327Y5746873D01*
X5007955D01*
X3039410Y976702D02*
X3014016Y958563D01*
Y985772D01*
X3039410Y976702D02*
X3001319D01*
X3004946Y994297D02*
X3003132Y992483D01*
X3001319Y994297D01*
X3003132Y996111D01*
X3004946Y994297D01*
X3039410Y1029850D02*
X3001319Y1011711D01*
X3039410Y1004455D02*
Y1029850D01*
Y1038375D02*
X3012202D01*
X3006760Y1040189D01*
X3003132Y1043817D01*
X3001319Y1049259D01*
Y1052886D01*
X3003132Y1058328D01*
X3006760Y1061956D01*
X3012202Y1063770D01*
X3039410D01*
Y1074290D02*
X3001319D01*
X3039410D02*
Y1097871D01*
X3021272Y1074290D02*
Y1088801D01*
X5672959Y1891720D02*
X5654820Y1917115D01*
X5682029D01*
X5672959Y1891720D02*
Y1929812D01*
X5690554Y1926184D02*
X5688740Y1927998D01*
X5690554Y1929812D01*
X5692368Y1927998D01*
X5690554Y1926184D01*
X5726106Y1891720D02*
X5707967Y1929812D01*
X5700712Y1891720D02*
X5726106D01*
X5734632D02*
Y1918928D01*
X5736445Y1924370D01*
X5740073Y1927998D01*
X5745515Y1929812D01*
X5749143D01*
X5754585Y1927998D01*
X5758212Y1924370D01*
X5760026Y1918928D01*
Y1891720D01*
X5770547D02*
Y1929812D01*
Y1891720D02*
X5794127D01*
X5770547Y1909859D02*
X5785058D01*
D108*
X3114472Y5339766D02*
Y5751754D01*
X3456610D01*
Y5339766D02*
Y5751754D01*
X3114472Y5339766D02*
X3456610D01*
%TF.MD5,2a5e348c27c2fb29b44586330acbbd40*%
M02*
