%TF.GenerationSoftware,Altium Limited,Altium Designer,25.7.1 (20)*%
G04 Layer_Color=11065270*
%FSLAX45Y45*%
%MOMM*%
%TF.SameCoordinates,1AA72D45-9F13-4BD8-B423-63960E99F270*%
%TF.FilePolarity,Positive*%
%TF.FileFunction,Other,Top_Courtyard*%
%TF.Part,Single*%
G01*
G75*
%TA.AperFunction,NonConductor*%
%ADD94C,0.15240*%
%ADD108C,0.02540*%
%ADD126C,0.20000*%
G36*
X5496916Y6029274D02*
X5498414D01*
Y5915482D01*
X5496916D01*
Y5905271D01*
X5416093D01*
Y5915482D01*
X5414594D01*
Y6029274D01*
X5416093D01*
Y6039485D01*
X5496916D01*
Y6029274D01*
D02*
G37*
G36*
X3755310Y5955932D02*
X3771993Y5949022D01*
X3786319Y5938029D01*
X3797311Y5923703D01*
X3804222Y5907020D01*
X3806579Y5889117D01*
X3804222Y5871214D01*
X3797311Y5854531D01*
X3786319Y5840205D01*
X3771993Y5829212D01*
X3755310Y5822302D01*
X3737407Y5819945D01*
X3719504Y5822302D01*
X3702821Y5829212D01*
X3688495Y5840205D01*
X3677502Y5854531D01*
X3670592Y5871214D01*
X3668235Y5889117D01*
X3670592Y5907020D01*
X3677502Y5923703D01*
X3688495Y5938029D01*
X3702821Y5949022D01*
X3719504Y5955932D01*
X3737407Y5958289D01*
X3755310Y5955932D01*
D02*
G37*
G36*
X3516143D02*
X3532826Y5949022D01*
X3547152Y5938029D01*
X3558145Y5923703D01*
X3565055Y5907020D01*
X3567412Y5889117D01*
X3565055Y5871214D01*
X3558145Y5854531D01*
X3547152Y5840205D01*
X3532826Y5829212D01*
X3516143Y5822302D01*
X3498240Y5819945D01*
X3480337Y5822302D01*
X3463654Y5829212D01*
X3449329Y5840205D01*
X3438336Y5854531D01*
X3431425Y5871214D01*
X3429069Y5889117D01*
X3431425Y5907020D01*
X3438336Y5923703D01*
X3449329Y5938029D01*
X3463654Y5949022D01*
X3480337Y5955932D01*
X3498240Y5958289D01*
X3516143Y5955932D01*
D02*
G37*
G36*
X3276977D02*
X3293660Y5949022D01*
X3307986Y5938029D01*
X3318979Y5923703D01*
X3325889Y5907020D01*
X3328246Y5889117D01*
X3325889Y5871214D01*
X3318979Y5854531D01*
X3307986Y5840205D01*
X3293660Y5829212D01*
X3276977Y5822302D01*
X3259074Y5819945D01*
X3241171Y5822302D01*
X3224488Y5829212D01*
X3210162Y5840205D01*
X3199169Y5854531D01*
X3192259Y5871214D01*
X3189902Y5889117D01*
X3192259Y5907020D01*
X3199169Y5923703D01*
X3210162Y5938029D01*
X3224488Y5949022D01*
X3241171Y5955932D01*
X3259074Y5958289D01*
X3276977Y5955932D01*
D02*
G37*
G36*
X4040886Y5926963D02*
Y5851271D01*
X4002786Y5813171D01*
X3927094D01*
X3888994Y5851271D01*
Y5926963D01*
X3927094Y5965063D01*
X4002786D01*
X4040886Y5926963D01*
D02*
G37*
G36*
X5247894Y5975528D02*
X5258105D01*
Y5910529D01*
X5273954D01*
Y5908421D01*
X5281854D01*
Y5806821D01*
X5273954D01*
Y5804713D01*
X5118151D01*
Y5806821D01*
X5110251D01*
Y5908421D01*
X5118151D01*
Y5910529D01*
X5123891D01*
Y5975528D01*
X5134102D01*
Y5977026D01*
X5247894D01*
Y5975528D01*
D02*
G37*
G36*
X1493520Y5895975D02*
Y5820283D01*
X1455420Y5782183D01*
X1379728D01*
X1341628Y5820283D01*
Y5895975D01*
X1379728Y5934075D01*
X1455420D01*
X1493520Y5895975D01*
D02*
G37*
G36*
X5540371Y5787657D02*
X5557054Y5780747D01*
X5571380Y5769754D01*
X5582373Y5755428D01*
X5589283Y5738745D01*
X5591640Y5720842D01*
X5589283Y5702939D01*
X5582373Y5686256D01*
X5571380Y5671930D01*
X5557054Y5660937D01*
X5540371Y5654027D01*
X5522468Y5651670D01*
X5504565Y5654027D01*
X5487882Y5660937D01*
X5473556Y5671930D01*
X5462563Y5686256D01*
X5458968Y5694936D01*
X5455373Y5686256D01*
X5444380Y5671930D01*
X5430054Y5660937D01*
X5413371Y5654027D01*
X5395468Y5651670D01*
X5377565Y5654027D01*
X5360882Y5660937D01*
X5346556Y5671930D01*
X5335563Y5686256D01*
X5331968Y5694936D01*
X5328373Y5686256D01*
X5317380Y5671930D01*
X5303054Y5660937D01*
X5286371Y5654027D01*
X5268468Y5651670D01*
X5250565Y5654027D01*
X5233882Y5660937D01*
X5219556Y5671930D01*
X5208563Y5686256D01*
X5204968Y5694936D01*
X5201373Y5686256D01*
X5190380Y5671930D01*
X5176054Y5660937D01*
X5159371Y5654027D01*
X5141468Y5651670D01*
X5123565Y5654027D01*
X5106882Y5660937D01*
X5092556Y5671930D01*
X5081563Y5686256D01*
X5074653Y5702939D01*
X5072296Y5720842D01*
X5074653Y5738745D01*
X5081563Y5755428D01*
X5092556Y5769754D01*
X5106882Y5780747D01*
X5123565Y5787657D01*
X5141468Y5790014D01*
X5159371Y5787657D01*
X5176054Y5780747D01*
X5190380Y5769754D01*
X5201373Y5755428D01*
X5204968Y5746748D01*
X5208563Y5755428D01*
X5219556Y5769754D01*
X5233882Y5780747D01*
X5250565Y5787657D01*
X5268468Y5790014D01*
X5286371Y5787657D01*
X5303054Y5780747D01*
X5317380Y5769754D01*
X5328373Y5755428D01*
X5331968Y5746748D01*
X5335563Y5755428D01*
X5346556Y5769754D01*
X5360882Y5780747D01*
X5377565Y5787657D01*
X5395468Y5790014D01*
X5413371Y5787657D01*
X5430054Y5780747D01*
X5444380Y5769754D01*
X5455373Y5755428D01*
X5458968Y5746748D01*
X5462563Y5755428D01*
X5473556Y5769754D01*
X5487882Y5780747D01*
X5504565Y5787657D01*
X5522468Y5790014D01*
X5540371Y5787657D01*
D02*
G37*
G36*
X576783Y5897702D02*
X578891D01*
Y5741899D01*
X576783D01*
Y5733999D01*
X475183D01*
Y5741899D01*
X473075D01*
Y5897702D01*
X475183D01*
Y5905602D01*
X576783D01*
Y5897702D01*
D02*
G37*
G36*
X442570Y5896127D02*
X444678D01*
Y5740324D01*
X442570D01*
Y5732424D01*
X340970D01*
Y5740324D01*
X338861D01*
Y5896127D01*
X340970D01*
Y5904027D01*
X442570D01*
Y5896127D01*
D02*
G37*
G36*
X2938628Y5933237D02*
X3013050D01*
Y5675224D01*
X2742286D01*
Y5933237D01*
X2816708D01*
Y6005271D01*
X2938628D01*
Y5933237D01*
D02*
G37*
G36*
X689508Y5899201D02*
X691617D01*
Y5750154D01*
X695274D01*
Y5897728D01*
X697382D01*
Y5905627D01*
X798982D01*
Y5897728D01*
X801091D01*
Y5741924D01*
X798982D01*
Y5734025D01*
X781461D01*
X788947Y5726913D01*
X798114Y5706986D01*
X799239Y5685080D01*
X792160Y5664319D01*
X777888Y5647662D01*
X758457Y5637485D01*
X747547Y5636362D01*
Y5636362D01*
X747039Y5635854D01*
X628738D01*
X607733Y5644554D01*
X591656Y5660631D01*
X582955Y5681636D01*
Y5704372D01*
X591656Y5725377D01*
X601777Y5735498D01*
X587908D01*
Y5743397D01*
X585800D01*
Y5899201D01*
X587908D01*
Y5907100D01*
X689508D01*
Y5899201D01*
D02*
G37*
G36*
X2704998Y5599049D02*
X2517038D01*
Y6025769D01*
X2704998D01*
Y5599049D01*
D02*
G37*
G36*
X2364715D02*
X2176755D01*
Y6025769D01*
X2364715D01*
Y5599049D01*
D02*
G37*
G36*
X3403448Y5696179D02*
X3411347D01*
Y5594579D01*
X3403448D01*
Y5592470D01*
X3247644D01*
Y5594579D01*
X3239745D01*
Y5696179D01*
X3247644D01*
Y5698287D01*
X3403448D01*
Y5696179D01*
D02*
G37*
G36*
X6495593Y5691226D02*
X6503492D01*
Y5589626D01*
X6495593D01*
Y5587517D01*
X6339789D01*
Y5589626D01*
X6331890D01*
Y5691226D01*
X6339789D01*
Y5693334D01*
X6495593D01*
Y5691226D01*
D02*
G37*
G36*
X6277331Y5689473D02*
X6285230D01*
Y5587873D01*
X6277331D01*
Y5585765D01*
X6121527D01*
Y5587873D01*
X6113628D01*
Y5689473D01*
X6121527D01*
Y5691581D01*
X6277331D01*
Y5689473D01*
D02*
G37*
G36*
X2951785Y5663794D02*
X2959684D01*
Y5562194D01*
X2951785D01*
Y5560085D01*
X2795981D01*
Y5562194D01*
X2788082D01*
Y5663794D01*
X2795981D01*
Y5665902D01*
X2951785D01*
Y5663794D01*
D02*
G37*
G36*
X317449Y5654827D02*
X325349D01*
Y5553227D01*
X317449D01*
Y5551119D01*
X161646D01*
Y5553227D01*
X153746D01*
Y5654827D01*
X161646D01*
Y5656936D01*
X317449D01*
Y5654827D01*
D02*
G37*
G36*
X4894525Y5670258D02*
X4911208Y5663348D01*
X4925534Y5652355D01*
X4936527Y5638029D01*
X4943437Y5621346D01*
X4945794Y5603443D01*
X4943437Y5585540D01*
X4936527Y5568857D01*
X4925534Y5554531D01*
X4911208Y5543539D01*
X4894525Y5536628D01*
X4876622Y5534271D01*
X4858719Y5536628D01*
X4842036Y5543539D01*
X4827710Y5554531D01*
X4816718Y5568857D01*
X4809807Y5585540D01*
X4807450Y5603443D01*
X4809807Y5621346D01*
X4816718Y5638029D01*
X4827710Y5652355D01*
X4842036Y5663348D01*
X4858719Y5670258D01*
X4876622Y5672615D01*
X4894525Y5670258D01*
D02*
G37*
G36*
X3834812Y5663222D02*
X3851495Y5656312D01*
X3865821Y5645319D01*
X3876813Y5630993D01*
X3883724Y5614310D01*
X3886081Y5596407D01*
X3883724Y5578504D01*
X3876813Y5561821D01*
X3865821Y5547496D01*
X3851495Y5536503D01*
X3834812Y5529592D01*
X3816909Y5527236D01*
X3799006Y5529592D01*
X3782323Y5536503D01*
X3767997Y5547496D01*
X3757004Y5561821D01*
X3750094Y5578504D01*
X3747737Y5596407D01*
X3750094Y5614310D01*
X3757004Y5630993D01*
X3767997Y5645319D01*
X3782323Y5656312D01*
X3799006Y5663222D01*
X3816909Y5665579D01*
X3834812Y5663222D01*
D02*
G37*
G36*
X5863514Y5674665D02*
X5865622D01*
Y5518861D01*
X5863514D01*
Y5510962D01*
X5761914D01*
Y5518861D01*
X5759806D01*
Y5674665D01*
X5761914D01*
Y5682564D01*
X5863514D01*
Y5674665D01*
D02*
G37*
G36*
X6409284Y5505145D02*
X6419494D01*
Y5424322D01*
X6409284D01*
Y5422824D01*
X6295492D01*
Y5422925D01*
X6291936D01*
Y5421427D01*
X6178144D01*
Y5422925D01*
X6167933D01*
Y5503748D01*
X6178144D01*
Y5505247D01*
X6291936D01*
Y5505145D01*
X6295492D01*
Y5506644D01*
X6409284D01*
Y5505145D01*
D02*
G37*
G36*
X5735828Y5667731D02*
X5737936D01*
Y5511927D01*
X5735828D01*
Y5504028D01*
X5634228D01*
Y5511927D01*
X5632120D01*
Y5667731D01*
X5634228D01*
Y5675630D01*
X5735828D01*
Y5667731D01*
D02*
G37*
G36*
X7160970Y5996704D02*
X7201401Y5986998D01*
X7239815Y5971086D01*
X7275268Y5949360D01*
X7306885Y5922357D01*
X7333889Y5890739D01*
X7355614Y5855287D01*
X7371526Y5816872D01*
X7381233Y5776441D01*
X7384495Y5734990D01*
X7381233Y5693538D01*
X7371526Y5653108D01*
X7355614Y5614693D01*
X7333889Y5579240D01*
X7306885Y5547623D01*
X7275268Y5520619D01*
X7239815Y5498894D01*
X7201401Y5482982D01*
X7160970Y5473275D01*
X7119518Y5470013D01*
X7078067Y5473275D01*
X7037636Y5482982D01*
X6999221Y5498894D01*
X6987393Y5506142D01*
X6963769Y5520619D01*
X6932151Y5547623D01*
X6905148Y5579240D01*
X6883422Y5614693D01*
X6867511Y5653108D01*
X6857804Y5693538D01*
X6854542Y5734990D01*
X6857804Y5776441D01*
X6867511Y5816872D01*
X6883422Y5855287D01*
X6905148Y5890739D01*
X6932151Y5922357D01*
X6963769Y5949360D01*
X6987393Y5963838D01*
X6999221Y5971086D01*
X7037636Y5986998D01*
X7078067Y5996704D01*
X7119518Y5999967D01*
X7160970Y5996704D01*
D02*
G37*
G36*
X1180262Y5550408D02*
X1188161D01*
Y5448808D01*
X1180262D01*
Y5446700D01*
X1024458D01*
Y5448808D01*
X1016559D01*
Y5550408D01*
X1024458D01*
Y5552516D01*
X1180262D01*
Y5550408D01*
D02*
G37*
G36*
X318211Y5547690D02*
X326111D01*
Y5446090D01*
X318211D01*
Y5443982D01*
X162408D01*
Y5446090D01*
X154508D01*
Y5547690D01*
X162408D01*
Y5549798D01*
X318211D01*
Y5547690D01*
D02*
G37*
G36*
X2486762Y5548935D02*
X2488870D01*
Y5393131D01*
X2486762D01*
Y5385232D01*
X2385162D01*
Y5393131D01*
X2383053D01*
Y5548935D01*
X2385162D01*
Y5556834D01*
X2486762D01*
Y5548935D01*
D02*
G37*
G36*
X2380234Y5548757D02*
X2382342D01*
Y5392953D01*
X2380234D01*
Y5385054D01*
X2278634D01*
Y5392953D01*
X2276526D01*
Y5548757D01*
X2278634D01*
Y5556656D01*
X2380234D01*
Y5548757D01*
D02*
G37*
G36*
X2269185Y5546395D02*
X2271293D01*
Y5390591D01*
X2269185D01*
Y5382692D01*
X2167585D01*
Y5390591D01*
X2165477D01*
Y5546395D01*
X2167585D01*
Y5554294D01*
X2269185D01*
Y5546395D01*
D02*
G37*
G36*
X2160245D02*
X2162353D01*
Y5390591D01*
X2160245D01*
Y5382692D01*
X2058645D01*
Y5390591D01*
X2056536D01*
Y5546395D01*
X2058645D01*
Y5554294D01*
X2160245D01*
Y5546395D01*
D02*
G37*
G36*
X1826970Y5996704D02*
X1867401Y5986998D01*
X1905815Y5971086D01*
X1941268Y5949360D01*
X1972885Y5922357D01*
X1999889Y5890739D01*
X2021614Y5855287D01*
X2037526Y5816872D01*
X2047233Y5776441D01*
X2050495Y5734990D01*
X2047233Y5693538D01*
X2037526Y5653108D01*
X2021614Y5614693D01*
X1999889Y5579240D01*
X1978583Y5554294D01*
X2053057D01*
Y5546395D01*
X2055165D01*
Y5390591D01*
X2053057D01*
Y5382692D01*
X1951457D01*
Y5390591D01*
X1949348D01*
Y5527521D01*
X1941268Y5520619D01*
X1905815Y5498894D01*
X1867401Y5482982D01*
X1826970Y5473275D01*
X1785518Y5470013D01*
X1744067Y5473275D01*
X1703636Y5482982D01*
X1665221Y5498894D01*
X1653393Y5506142D01*
X1629769Y5520619D01*
X1598151Y5547623D01*
X1571148Y5579240D01*
X1549422Y5614693D01*
X1533511Y5653108D01*
X1523804Y5693538D01*
X1520542Y5734990D01*
X1523804Y5776441D01*
X1533511Y5816872D01*
X1549422Y5855287D01*
X1571148Y5890739D01*
X1598151Y5922357D01*
X1629769Y5949360D01*
X1653393Y5963838D01*
X1665221Y5971086D01*
X1703636Y5986998D01*
X1744067Y5996704D01*
X1785518Y5999967D01*
X1826970Y5996704D01*
D02*
G37*
G36*
X1180262Y5441188D02*
X1188161D01*
Y5339588D01*
X1180262D01*
Y5337480D01*
X1024458D01*
Y5339588D01*
X1016559D01*
Y5441188D01*
X1024458D01*
Y5443296D01*
X1180262D01*
Y5441188D01*
D02*
G37*
G36*
X317500Y5436286D02*
X325399D01*
Y5334686D01*
X317500D01*
Y5332578D01*
X161696D01*
Y5334686D01*
X153797D01*
Y5436286D01*
X161696D01*
Y5438394D01*
X317500D01*
Y5436286D01*
D02*
G37*
G36*
X1552266Y5463553D02*
X1568949Y5456643D01*
X1583275Y5445650D01*
X1594268Y5431324D01*
X1601178Y5414641D01*
X1603535Y5396738D01*
X1601178Y5378835D01*
X1594268Y5362152D01*
X1583275Y5347826D01*
X1568949Y5336833D01*
X1552266Y5329923D01*
X1534363Y5327566D01*
X1516460Y5329923D01*
X1499777Y5336833D01*
X1485451Y5347826D01*
X1474459Y5362152D01*
X1467548Y5378835D01*
X1465191Y5396738D01*
X1467548Y5414641D01*
X1474459Y5431324D01*
X1485451Y5445650D01*
X1499777Y5456643D01*
X1516460Y5463553D01*
X1534363Y5465910D01*
X1552266Y5463553D01*
D02*
G37*
G36*
X3840146Y5447576D02*
X3856829Y5440666D01*
X3871155Y5429673D01*
X3882147Y5415347D01*
X3889058Y5398664D01*
X3891415Y5380761D01*
X3889058Y5362858D01*
X3882147Y5346175D01*
X3871155Y5331850D01*
X3856829Y5320857D01*
X3840146Y5313946D01*
X3822243Y5311590D01*
X3804340Y5313946D01*
X3787657Y5320857D01*
X3773331Y5331850D01*
X3762338Y5346175D01*
X3755428Y5362858D01*
X3753071Y5380761D01*
X3755428Y5398664D01*
X3762338Y5415347D01*
X3773331Y5429673D01*
X3787657Y5440666D01*
X3804340Y5447576D01*
X3822243Y5449933D01*
X3840146Y5447576D01*
D02*
G37*
G36*
X1180262Y5329936D02*
X1188161D01*
Y5228336D01*
X1180262D01*
Y5226228D01*
X1024458D01*
Y5228336D01*
X1016559D01*
Y5329936D01*
X1024458D01*
Y5332044D01*
X1180262D01*
Y5329936D01*
D02*
G37*
G36*
X2845609Y5335105D02*
X2862292Y5328195D01*
X2876618Y5317202D01*
X2887610Y5302876D01*
X2894521Y5286193D01*
X2896878Y5268290D01*
X2894521Y5250387D01*
X2887610Y5233704D01*
X2876618Y5219378D01*
X2862292Y5208386D01*
X2845609Y5201475D01*
X2827706Y5199118D01*
X2809803Y5201475D01*
X2793120Y5208386D01*
X2778794Y5219378D01*
X2767801Y5233704D01*
X2760891Y5250387D01*
X2758534Y5268290D01*
X2760891Y5286193D01*
X2767801Y5302876D01*
X2778794Y5317202D01*
X2793120Y5328195D01*
X2809803Y5335105D01*
X2827706Y5337462D01*
X2845609Y5335105D01*
D02*
G37*
G36*
X297155Y5272837D02*
X307365D01*
Y5192014D01*
X297155D01*
Y5190515D01*
X183363D01*
Y5192014D01*
X173152D01*
Y5272837D01*
X183363D01*
Y5274335D01*
X297155D01*
Y5272837D01*
D02*
G37*
G36*
X990029Y5533630D02*
X1006106Y5517554D01*
X1014806Y5496549D01*
Y5485181D01*
Y5383581D01*
Y5372613D01*
X1006673Y5352242D01*
X991565Y5336339D01*
X980275Y5331146D01*
X985655Y5329311D01*
X1002312Y5315039D01*
X1012489Y5295608D01*
X1013612Y5284699D01*
X1013612D01*
X1014120Y5284191D01*
Y5177257D01*
Y5165889D01*
X1005420Y5144884D01*
X989343Y5128807D01*
X968338Y5120107D01*
X945602D01*
X924597Y5128807D01*
X908521Y5144884D01*
X899820Y5165889D01*
Y5177257D01*
Y5278857D01*
Y5289824D01*
X907954Y5310195D01*
X923061Y5326098D01*
X934351Y5331292D01*
X928971Y5333126D01*
X912315Y5347398D01*
X902138Y5366829D01*
X901014Y5377739D01*
X901014D01*
X900506Y5378247D01*
Y5485181D01*
Y5496549D01*
X909207Y5517554D01*
X925283Y5533630D01*
X946288Y5542331D01*
X969024D01*
X990029Y5533630D01*
D02*
G37*
G36*
X1180262Y5220970D02*
X1188161D01*
Y5119370D01*
X1180262D01*
Y5117262D01*
X1024458D01*
Y5119370D01*
X1016559D01*
Y5220970D01*
X1024458D01*
Y5223078D01*
X1180262D01*
Y5220970D01*
D02*
G37*
G36*
X1550336Y5237950D02*
X1567019Y5231040D01*
X1581345Y5220047D01*
X1592337Y5205721D01*
X1599248Y5189038D01*
X1601605Y5171135D01*
X1599248Y5153232D01*
X1592337Y5136549D01*
X1581345Y5122223D01*
X1567019Y5111231D01*
X1550336Y5104320D01*
X1532433Y5101963D01*
X1514530Y5104320D01*
X1497847Y5111231D01*
X1483521Y5122223D01*
X1472528Y5136549D01*
X1465618Y5153232D01*
X1463261Y5171135D01*
X1465618Y5189038D01*
X1472528Y5205721D01*
X1483521Y5220047D01*
X1497847Y5231040D01*
X1514530Y5237950D01*
X1532433Y5240307D01*
X1550336Y5237950D01*
D02*
G37*
G36*
X3807206Y5206136D02*
X3815105D01*
Y5111005D01*
X3816999Y5115577D01*
X3827992Y5129902D01*
X3842318Y5140895D01*
X3859001Y5147806D01*
X3876904Y5150162D01*
X3894807Y5147806D01*
X3911490Y5140895D01*
X3925815Y5129902D01*
X3936808Y5115577D01*
X3943719Y5098894D01*
X3946075Y5080991D01*
X3943719Y5063088D01*
X3936808Y5046405D01*
X3925815Y5032079D01*
X3911490Y5021086D01*
X3894807Y5014176D01*
X3876904Y5011819D01*
X3859001Y5014176D01*
X3842318Y5021086D01*
X3827992Y5032079D01*
X3816999Y5046405D01*
X3815105Y5050976D01*
Y4996840D01*
X3807206D01*
Y4994732D01*
X3651402D01*
Y4996840D01*
X3643503D01*
Y5098440D01*
X3651402D01*
Y5100549D01*
X3807206D01*
Y5098440D01*
X3810029D01*
X3810089Y5098894D01*
X3812426Y5104536D01*
X3807206D01*
Y5102428D01*
X3651402D01*
Y5104536D01*
X3643503D01*
Y5206136D01*
X3651402D01*
Y5208245D01*
X3807206D01*
Y5206136D01*
D02*
G37*
G36*
X751459Y5581523D02*
X843686D01*
Y5489296D01*
X873049D01*
Y5207965D01*
X843686D01*
Y5115738D01*
X756539D01*
Y5086350D01*
X470103D01*
Y5115738D01*
X377876D01*
Y5207965D01*
X348513D01*
Y5489296D01*
X377876D01*
Y5581523D01*
X470103D01*
Y5610936D01*
X751459D01*
Y5581523D01*
D02*
G37*
G36*
X2610891Y5548935D02*
X2613000D01*
Y5393131D01*
X2610891D01*
Y5385867D01*
X2702357D01*
Y5383759D01*
X2710256D01*
Y5282159D01*
Y5188915D01*
X2710332D01*
Y5087315D01*
X2702433D01*
Y5085207D01*
X2546629D01*
Y5087315D01*
X2538730D01*
Y5181422D01*
X2538654D01*
Y5282159D01*
Y5383759D01*
X2546553D01*
Y5385232D01*
X2509291D01*
Y5393131D01*
X2507183D01*
Y5548935D01*
X2509291D01*
Y5556834D01*
X2610891D01*
Y5548935D01*
D02*
G37*
G36*
X6254459Y5148134D02*
X6270535Y5132058D01*
X6277102Y5116204D01*
Y5146218D01*
X6278601D01*
Y5156429D01*
X6359423D01*
Y5156225D01*
X6427724D01*
Y5146015D01*
X6429223D01*
Y5064818D01*
X6430874Y5073121D01*
X6436488Y5081523D01*
X6442073Y5085255D01*
X6444890Y5087137D01*
X6454800Y5089108D01*
X6464711Y5087137D01*
X6473113Y5081523D01*
X6478727Y5073121D01*
X6480698Y5063211D01*
X6478727Y5053300D01*
X6473113Y5044898D01*
X6464711Y5039284D01*
X6454800Y5037313D01*
X6444890Y5039284D01*
X6442073Y5041166D01*
X6436488Y5044898D01*
X6430874Y5053300D01*
X6429223Y5061603D01*
Y5032223D01*
X6427724D01*
Y5022012D01*
X6346901D01*
Y5022215D01*
X6278601D01*
Y5032426D01*
X6277102D01*
Y5083166D01*
X6270535Y5067312D01*
X6254459Y5051236D01*
X6233454Y5042535D01*
X6109118D01*
X6088113Y5051236D01*
X6072036Y5067312D01*
X6063336Y5088317D01*
Y5111053D01*
X6072036Y5132058D01*
X6088113Y5148134D01*
X6109118Y5156835D01*
X6233454D01*
X6254459Y5148134D01*
D02*
G37*
G36*
X546824Y5023268D02*
X562901Y5007192D01*
X571602Y4986187D01*
Y4974819D01*
Y4873219D01*
Y4861851D01*
X562901Y4840846D01*
X546824Y4824769D01*
X525819Y4816069D01*
X503084D01*
X482079Y4824769D01*
X466002Y4840846D01*
X457302Y4861851D01*
Y4873219D01*
Y4874514D01*
X386410D01*
Y4884725D01*
X384912D01*
Y4998517D01*
X386410D01*
Y5008728D01*
X467233D01*
Y5008423D01*
X482079Y5023268D01*
X503084Y5031969D01*
X525819D01*
X546824Y5023268D01*
D02*
G37*
G36*
X2827676Y5097539D02*
X2844359Y5090629D01*
X2858685Y5079636D01*
X2869678Y5065310D01*
X2876588Y5048627D01*
X2878945Y5030724D01*
X2876588Y5012821D01*
X2869678Y4996138D01*
X2858685Y4981812D01*
X2844359Y4970819D01*
X2827676Y4963909D01*
X2809773Y4961552D01*
X2791870Y4963909D01*
X2775187Y4970819D01*
X2760862Y4981812D01*
X2749869Y4996138D01*
X2742958Y5012821D01*
X2740602Y5030724D01*
X2742958Y5048627D01*
X2749869Y5065310D01*
X2760862Y5079636D01*
X2775187Y5090629D01*
X2791870Y5097539D01*
X2809773Y5099896D01*
X2827676Y5097539D01*
D02*
G37*
G36*
X6724578Y4954701D02*
X6732980Y4949087D01*
X6738594Y4940686D01*
X6740565Y4930775D01*
X6738594Y4920864D01*
X6732980Y4912463D01*
X6724578Y4906849D01*
X6714668Y4904877D01*
X6704757Y4906849D01*
X6701940Y4908731D01*
X6696355Y4912463D01*
X6690742Y4920864D01*
X6688770Y4930775D01*
X6690742Y4940686D01*
X6696355Y4949087D01*
X6701940Y4952819D01*
X6704757Y4954701D01*
X6714668Y4956673D01*
X6724578Y4954701D01*
D02*
G37*
G36*
X3807206Y4989474D02*
X3815105D01*
Y4887874D01*
X3807206D01*
Y4885766D01*
X3651402D01*
Y4887874D01*
X3643503D01*
Y4989474D01*
X3651402D01*
Y4991583D01*
X3807206D01*
Y4989474D01*
D02*
G37*
G36*
X2702357Y5081549D02*
X2710256D01*
Y4984115D01*
X2711806D01*
Y4882515D01*
X2703906D01*
Y4880407D01*
X2548103D01*
Y4882515D01*
X2540203D01*
Y4979949D01*
X2538654D01*
Y5081549D01*
X2546553D01*
Y5083658D01*
X2702357D01*
Y5081549D01*
D02*
G37*
G36*
X1503778Y4992383D02*
X1520461Y4985473D01*
X1534786Y4974480D01*
X1545779Y4960154D01*
X1552690Y4943471D01*
X1555046Y4925568D01*
X1552690Y4907665D01*
X1545779Y4890982D01*
X1534786Y4876656D01*
X1520461Y4865663D01*
X1503778Y4858753D01*
X1485875Y4856396D01*
X1467972Y4858753D01*
X1451289Y4865663D01*
X1436963Y4876656D01*
X1425970Y4890982D01*
X1419060Y4907665D01*
X1416703Y4925568D01*
X1419060Y4943471D01*
X1425970Y4960154D01*
X1436963Y4974480D01*
X1451289Y4985473D01*
X1467972Y4992383D01*
X1485875Y4994740D01*
X1503778Y4992383D01*
D02*
G37*
G36*
X3807206Y4880254D02*
X3815105D01*
Y4778654D01*
X3807206D01*
Y4776546D01*
X3651402D01*
Y4778654D01*
X3643503D01*
Y4880254D01*
X3651402D01*
Y4882363D01*
X3807206D01*
Y4880254D01*
D02*
G37*
G36*
X3894781Y4814913D02*
X3911464Y4808003D01*
X3925790Y4797010D01*
X3936783Y4782684D01*
X3943693Y4766001D01*
X3946050Y4748098D01*
X3943693Y4730195D01*
X3936783Y4713512D01*
X3925790Y4699186D01*
X3911464Y4688194D01*
X3894781Y4681283D01*
X3876878Y4678926D01*
X3858975Y4681283D01*
X3842292Y4688194D01*
X3827966Y4699186D01*
X3816974Y4713512D01*
X3815105Y4718023D01*
Y4667402D01*
X3807206D01*
Y4665294D01*
X3651402D01*
Y4667402D01*
X3643503D01*
Y4769002D01*
X3651402D01*
Y4771111D01*
X3807206D01*
Y4769002D01*
X3811306D01*
X3816974Y4782684D01*
X3827966Y4797010D01*
X3842292Y4808003D01*
X3858975Y4814913D01*
X3876878Y4817270D01*
X3894781Y4814913D01*
D02*
G37*
G36*
X3186252Y5155997D02*
X3194152D01*
Y5088661D01*
X3294405D01*
Y5115560D01*
X3520211D01*
Y5088661D01*
X3620719D01*
Y4786859D01*
X3520211D01*
Y4759960D01*
X3294405D01*
Y4786859D01*
X3193898D01*
Y5054397D01*
X3186252D01*
Y5052289D01*
X3155103D01*
X3157589Y5051259D01*
X3173665Y5035182D01*
X3182366Y5014177D01*
Y5002809D01*
Y4901209D01*
Y4889842D01*
X3173665Y4868837D01*
X3157589Y4852760D01*
X3136584Y4844059D01*
X3113848D01*
X3092843Y4852760D01*
X3076767Y4868837D01*
X3068066Y4889842D01*
Y4901209D01*
Y5002809D01*
Y5014177D01*
X3076767Y5035182D01*
X3092843Y5051259D01*
X3095329Y5052289D01*
X3030449D01*
Y5054397D01*
X3022549D01*
Y5155997D01*
X3030449D01*
Y5158105D01*
X3186252D01*
Y5155997D01*
D02*
G37*
G36*
X766135Y5024064D02*
X782038Y5008956D01*
X791205Y4989029D01*
X792330Y4967123D01*
X785251Y4946362D01*
X770979Y4929706D01*
X758666Y4923257D01*
X788467D01*
Y4915357D01*
X790575D01*
Y4759554D01*
X788467D01*
Y4751654D01*
X686867D01*
Y4759554D01*
X684759D01*
Y4915357D01*
X686867D01*
Y4917897D01*
X681025D01*
Y4914900D01*
X683133D01*
Y4759096D01*
X681025D01*
Y4751197D01*
X579425D01*
Y4759096D01*
X577317D01*
Y4914900D01*
X579425D01*
Y4922799D01*
X609994D01*
X600824Y4926598D01*
X584747Y4942674D01*
X576047Y4963679D01*
Y4986415D01*
X584747Y5007420D01*
X600824Y5023497D01*
X621829Y5032197D01*
X745764D01*
X766135Y5024064D01*
D02*
G37*
G36*
X6678270Y5010709D02*
X6679768D01*
Y4896917D01*
X6678270D01*
Y4893234D01*
X6688277D01*
Y4885334D01*
X6690385D01*
Y4729531D01*
X6688277D01*
Y4721631D01*
X6586677D01*
Y4729531D01*
X6584569D01*
Y4885334D01*
X6586677D01*
Y4893234D01*
X6597447D01*
Y4896917D01*
X6595948D01*
Y5010709D01*
X6597447D01*
Y5020920D01*
X6678270D01*
Y5010709D01*
D02*
G37*
G36*
X2134540Y4854118D02*
X2135099D01*
Y4861179D01*
X2236699D01*
Y4861077D01*
X2328418D01*
Y4853178D01*
X2330526D01*
Y4697374D01*
X2328418D01*
Y4689475D01*
X2226818D01*
Y4689577D01*
X2224778D01*
X2236309Y4680729D01*
X2247302Y4666403D01*
X2254212Y4649720D01*
X2256569Y4631817D01*
X2254212Y4613914D01*
X2247302Y4597231D01*
X2236309Y4582905D01*
X2221983Y4571912D01*
X2205300Y4565002D01*
X2187397Y4562645D01*
X2169494Y4565002D01*
X2152811Y4571912D01*
X2138485Y4582905D01*
X2127493Y4597231D01*
X2120582Y4613914D01*
X2118225Y4631817D01*
X2120582Y4649720D01*
X2127493Y4666403D01*
X2138485Y4680729D01*
X2150016Y4689577D01*
X2135099D01*
Y4697476D01*
X2134540D01*
Y4690415D01*
X2035226D01*
Y4689577D01*
X1832889D01*
Y4697476D01*
X1830781D01*
Y4853280D01*
X1832889D01*
Y4861179D01*
X2032940D01*
Y4862017D01*
X2134540D01*
Y4854118D01*
D02*
G37*
G36*
X1504717Y4777245D02*
X1521400Y4770335D01*
X1535726Y4759342D01*
X1546719Y4745016D01*
X1553629Y4728333D01*
X1555986Y4710430D01*
X1553629Y4692527D01*
X1546719Y4675844D01*
X1535726Y4661518D01*
X1521400Y4650525D01*
X1504717Y4643615D01*
X1486814Y4641258D01*
X1468911Y4643615D01*
X1452228Y4650525D01*
X1437903Y4661518D01*
X1426910Y4675844D01*
X1419999Y4692527D01*
X1417643Y4710430D01*
X1419999Y4728333D01*
X1426910Y4745016D01*
X1437903Y4759342D01*
X1452228Y4770335D01*
X1468911Y4777245D01*
X1486814Y4779602D01*
X1504717Y4777245D01*
D02*
G37*
G36*
X7221499Y4794047D02*
X7223608D01*
Y4638243D01*
X7221499D01*
Y4630344D01*
X7119899D01*
Y4638243D01*
X7117791D01*
Y4794047D01*
X7119899D01*
Y4801946D01*
X7221499D01*
Y4794047D01*
D02*
G37*
G36*
X3175406Y4840935D02*
X3183306D01*
Y4750633D01*
X3194516Y4759235D01*
X3211199Y4766145D01*
X3229102Y4768502D01*
X3247005Y4766145D01*
X3263688Y4759235D01*
X3278014Y4748242D01*
X3289007Y4733916D01*
X3295917Y4717233D01*
X3298274Y4699330D01*
X3295917Y4681427D01*
X3289007Y4664744D01*
X3278014Y4650418D01*
X3263688Y4639426D01*
X3247005Y4632515D01*
X3229102Y4630158D01*
X3211199Y4632515D01*
X3194516Y4639426D01*
X3180190Y4650418D01*
X3169197Y4664744D01*
X3162287Y4681427D01*
X3159930Y4699330D01*
X3162287Y4717233D01*
X3169197Y4733916D01*
X3171738Y4737227D01*
X3019603D01*
Y4739335D01*
X3011703D01*
Y4840935D01*
X3019603D01*
Y4843043D01*
X3175406D01*
Y4840935D01*
D02*
G37*
G36*
X1779422Y5438521D02*
X1787322D01*
Y5336921D01*
Y5236185D01*
Y5135448D01*
Y5034712D01*
Y4933975D01*
Y4833239D01*
Y4732503D01*
Y4631766D01*
X1779422D01*
Y4629658D01*
X1623619D01*
Y4631766D01*
X1615719D01*
Y4732503D01*
Y4833239D01*
Y4933975D01*
Y5034712D01*
Y5135448D01*
Y5236185D01*
Y5336921D01*
Y5438521D01*
X1623619D01*
Y5440629D01*
X1779422D01*
Y5438521D01*
D02*
G37*
G36*
X7113956Y4792040D02*
X7116064D01*
Y4636237D01*
X7113956D01*
Y4628337D01*
X7012356D01*
Y4636237D01*
X7010248D01*
Y4792040D01*
X7012356D01*
Y4799940D01*
X7113956D01*
Y4792040D01*
D02*
G37*
G36*
X6884594Y4791532D02*
X6886702D01*
Y4635729D01*
X6884594D01*
Y4627829D01*
X6782994D01*
Y4635729D01*
X6780886D01*
Y4791532D01*
X6782994D01*
Y4799432D01*
X6884594D01*
Y4791532D01*
D02*
G37*
G36*
X6990893Y4791507D02*
X6993001D01*
Y4635703D01*
X6990893D01*
Y4627804D01*
X6889293D01*
Y4635703D01*
X6887185D01*
Y4791507D01*
X6889293D01*
Y4799406D01*
X6990893D01*
Y4791507D01*
D02*
G37*
G36*
X6677711Y4703547D02*
X6679209D01*
Y4589755D01*
X6677711D01*
Y4579544D01*
X6596888D01*
Y4589755D01*
X6595389D01*
Y4703547D01*
X6596888D01*
Y4713757D01*
X6677711D01*
Y4703547D01*
D02*
G37*
G36*
X2635428Y4855058D02*
X2637536D01*
Y4699254D01*
X2635428D01*
Y4691355D01*
X2562481D01*
X2576263Y4680780D01*
X2587255Y4666454D01*
X2594166Y4649771D01*
X2596523Y4631868D01*
X2594166Y4613965D01*
X2587255Y4597282D01*
X2576263Y4582956D01*
X2561937Y4571963D01*
X2545254Y4565053D01*
X2527351Y4562696D01*
X2509448Y4565053D01*
X2492765Y4571963D01*
X2478439Y4582956D01*
X2467446Y4597282D01*
X2460536Y4613965D01*
X2458179Y4631868D01*
X2460536Y4649771D01*
X2467446Y4666454D01*
X2478439Y4680780D01*
X2489903Y4689577D01*
X2417618D01*
X2430009Y4680068D01*
X2441002Y4665743D01*
X2447913Y4649060D01*
X2450269Y4631157D01*
X2447913Y4613254D01*
X2441002Y4596571D01*
X2430009Y4582245D01*
X2415684Y4571252D01*
X2399001Y4564342D01*
X2381098Y4561985D01*
X2363195Y4564342D01*
X2346512Y4571252D01*
X2332186Y4582245D01*
X2321193Y4596571D01*
X2314283Y4613254D01*
X2311926Y4631157D01*
X2314283Y4649060D01*
X2321193Y4665743D01*
X2332186Y4680068D01*
X2344577Y4689577D01*
X2336571D01*
Y4697476D01*
X2334463D01*
Y4853280D01*
X2336571D01*
Y4861179D01*
X2533828D01*
Y4862957D01*
X2635428D01*
Y4855058D01*
D02*
G37*
G36*
X1504717Y4620095D02*
X1521400Y4613185D01*
X1535726Y4602192D01*
X1546719Y4587866D01*
X1553629Y4571183D01*
X1555986Y4553280D01*
X1553629Y4535377D01*
X1546719Y4518694D01*
X1535726Y4504368D01*
X1521400Y4493376D01*
X1504717Y4486465D01*
X1486814Y4484108D01*
X1468911Y4486465D01*
X1452228Y4493376D01*
X1437903Y4504368D01*
X1426910Y4518694D01*
X1419999Y4535377D01*
X1417643Y4553280D01*
X1419999Y4571183D01*
X1426910Y4587866D01*
X1437903Y4602192D01*
X1452228Y4613185D01*
X1468911Y4620095D01*
X1486814Y4622452D01*
X1504717Y4620095D01*
D02*
G37*
G36*
X811124Y4610862D02*
X813232D01*
Y4455058D01*
X811124D01*
Y4447159D01*
X709524D01*
Y4455058D01*
X707415D01*
Y4610862D01*
X709524D01*
Y4618761D01*
X811124D01*
Y4610862D01*
D02*
G37*
G36*
X700126Y4609795D02*
X702234D01*
Y4453992D01*
X700126D01*
Y4446092D01*
X598526D01*
Y4453992D01*
X596417D01*
Y4609795D01*
X598526D01*
Y4617695D01*
X700126D01*
Y4609795D01*
D02*
G37*
G36*
X588340Y4609770D02*
X590448D01*
Y4453966D01*
X588340D01*
Y4446067D01*
X486740D01*
Y4453966D01*
X484632D01*
Y4609770D01*
X486740D01*
Y4617669D01*
X588340D01*
Y4609770D01*
D02*
G37*
G36*
X449224Y4609541D02*
X451333D01*
Y4453738D01*
X449224D01*
Y4445838D01*
X347624D01*
Y4453738D01*
X345516D01*
Y4609541D01*
X347624D01*
Y4617441D01*
X449224D01*
Y4609541D01*
D02*
G37*
G36*
X2101647Y4556887D02*
X2103755D01*
Y4401083D01*
X2101647D01*
Y4393184D01*
X2093973D01*
X2106165Y4381602D01*
X2115333Y4361675D01*
X2116457Y4339769D01*
X2109379Y4319008D01*
X2095107Y4302351D01*
X2075676Y4292174D01*
X2072513Y4291848D01*
Y4264431D01*
X2164740D01*
Y4172204D01*
X2194103D01*
Y3890874D01*
X2164740D01*
Y3798646D01*
X2077593D01*
Y3769258D01*
X1791157D01*
Y3798646D01*
X1698930D01*
Y3890874D01*
X1669567D01*
Y4172204D01*
X1698930D01*
Y4264431D01*
X1791157D01*
Y4293845D01*
X1937985D01*
X1924951Y4299243D01*
X1908875Y4315320D01*
X1900174Y4336325D01*
Y4359061D01*
X1908875Y4380066D01*
X1921993Y4393184D01*
X1890573D01*
Y4401083D01*
X1888465D01*
Y4556887D01*
X1890573D01*
Y4564786D01*
X1992173D01*
Y4556887D01*
X1994281D01*
Y4404843D01*
X1997939D01*
Y4556887D01*
X2000047D01*
Y4564786D01*
X2101647D01*
Y4556887D01*
D02*
G37*
G36*
X1729816Y4562907D02*
X1731924D01*
Y4407103D01*
X1729816D01*
Y4399204D01*
X1628216D01*
Y4407103D01*
X1626108D01*
Y4562907D01*
X1628216D01*
Y4570806D01*
X1729816D01*
Y4562907D01*
D02*
G37*
G36*
X7201433Y4397248D02*
X7203542D01*
Y4241444D01*
X7201433D01*
Y4233545D01*
X7099833D01*
Y4241444D01*
X7098081D01*
Y4240657D01*
X7095973D01*
Y4232758D01*
X6994373D01*
Y4240657D01*
X6992264D01*
Y4396461D01*
X6994373D01*
Y4404360D01*
X7095973D01*
Y4396461D01*
X7097725D01*
Y4397248D01*
X7099833D01*
Y4405147D01*
X7201433D01*
Y4397248D01*
D02*
G37*
G36*
X1882699Y4556887D02*
X1884807D01*
Y4401083D01*
X1882699D01*
Y4393184D01*
X1781099D01*
Y4401083D01*
X1778991D01*
Y4556887D01*
X1781099D01*
Y4564786D01*
X1882699D01*
Y4556887D01*
D02*
G37*
G36*
X6721805Y4481043D02*
X6723913D01*
Y4333763D01*
X6727592Y4333278D01*
X6744275Y4326368D01*
X6758601Y4315375D01*
X6769594Y4301049D01*
X6774510Y4289181D01*
Y4393895D01*
X6776618D01*
Y4401795D01*
X6878218D01*
Y4393895D01*
X6880327D01*
Y4238092D01*
X6878218D01*
Y4230192D01*
X6776618D01*
Y4238092D01*
X6774510D01*
Y4243746D01*
X6769594Y4231877D01*
X6758601Y4217552D01*
X6744275Y4206559D01*
X6727592Y4199648D01*
X6709689Y4197292D01*
X6691786Y4199648D01*
X6675103Y4206559D01*
X6660778Y4217552D01*
X6655079Y4224978D01*
X6649381Y4217552D01*
X6635055Y4206559D01*
X6618372Y4199648D01*
X6600469Y4197292D01*
X6582566Y4199648D01*
X6565883Y4206559D01*
X6551558Y4217552D01*
X6545859Y4224978D01*
X6540161Y4217552D01*
X6525835Y4206559D01*
X6509152Y4199648D01*
X6491249Y4197292D01*
X6473346Y4199648D01*
X6456663Y4206559D01*
X6442338Y4217552D01*
X6436639Y4224978D01*
X6430941Y4217552D01*
X6416615Y4206559D01*
X6399932Y4199648D01*
X6382029Y4197292D01*
X6364126Y4199648D01*
X6347443Y4206559D01*
X6333118Y4217552D01*
X6327419Y4224978D01*
X6321721Y4217552D01*
X6307395Y4206559D01*
X6290712Y4199648D01*
X6272809Y4197292D01*
X6254906Y4199648D01*
X6238223Y4206559D01*
X6223898Y4217552D01*
X6218199Y4224978D01*
X6212501Y4217552D01*
X6198175Y4206559D01*
X6181492Y4199648D01*
X6163589Y4197292D01*
X6145686Y4199648D01*
X6129003Y4206559D01*
X6114678Y4217552D01*
X6103685Y4231877D01*
X6096774Y4248560D01*
X6094418Y4266463D01*
X6096774Y4284366D01*
X6103685Y4301049D01*
X6114678Y4315375D01*
X6129003Y4326368D01*
X6145686Y4333278D01*
X6163589Y4335635D01*
X6181492Y4333278D01*
X6198175Y4326368D01*
X6212501Y4315375D01*
X6218199Y4307949D01*
X6223898Y4315375D01*
X6238223Y4326368D01*
X6252032Y4332088D01*
Y4480458D01*
X6254140D01*
Y4488358D01*
X6355740D01*
Y4480458D01*
X6357849D01*
Y4330678D01*
X6364072Y4333256D01*
Y4479722D01*
X6366180D01*
Y4487621D01*
X6467780D01*
Y4479722D01*
X6469888D01*
Y4331846D01*
X6473346Y4333278D01*
X6491249Y4335635D01*
X6509152Y4333278D01*
X6510782Y4332603D01*
Y4479493D01*
X6512890D01*
Y4487393D01*
X6614490D01*
Y4479493D01*
X6616598D01*
Y4333512D01*
X6618097Y4333315D01*
Y4481043D01*
X6620205D01*
Y4488942D01*
X6721805D01*
Y4481043D01*
D02*
G37*
G36*
X798419Y4429577D02*
X814321Y4414469D01*
X823489Y4394542D01*
X824613Y4372636D01*
X817535Y4351875D01*
X803263Y4335219D01*
X783832Y4325042D01*
X772922Y4323918D01*
Y4323918D01*
X772414Y4323410D01*
X654112D01*
X633107Y4332111D01*
X617031Y4348187D01*
X608330Y4369192D01*
Y4391928D01*
X617031Y4412933D01*
X633107Y4429010D01*
X654112Y4437710D01*
X778047D01*
X798419Y4429577D01*
D02*
G37*
G36*
X3969466Y4335525D02*
X3977868Y4329912D01*
X3983481Y4321510D01*
X3985453Y4311599D01*
X3983481Y4301689D01*
X3977868Y4293287D01*
X3969466Y4287673D01*
X3959555Y4285702D01*
X3949645Y4287673D01*
X3946828Y4289555D01*
X3941243Y4293287D01*
X3935629Y4301689D01*
X3933658Y4311599D01*
X3935629Y4321510D01*
X3941243Y4329912D01*
X3946828Y4333644D01*
X3949645Y4335525D01*
X3959555Y4337497D01*
X3969466Y4335525D01*
D02*
G37*
G36*
X296342Y4344746D02*
X304241D01*
Y4243146D01*
X296342D01*
Y4241038D01*
X140538D01*
Y4243146D01*
X132639D01*
Y4344746D01*
X140538D01*
Y4346854D01*
X296342D01*
Y4344746D01*
D02*
G37*
G36*
X1589100Y4336796D02*
X1597000D01*
Y4235196D01*
X1589100D01*
Y4233088D01*
X1433297D01*
Y4235196D01*
X1425397D01*
Y4336796D01*
X1433297D01*
Y4338904D01*
X1589100D01*
Y4336796D01*
D02*
G37*
G36*
X6987108Y4394530D02*
X6989216D01*
Y4238727D01*
X6987108D01*
Y4230827D01*
X6885508D01*
Y4238727D01*
X6883400D01*
Y4394530D01*
X6885508D01*
Y4402430D01*
X6987108D01*
Y4394530D01*
D02*
G37*
G36*
X1197966Y4248455D02*
X1205865D01*
Y4146855D01*
X1197966D01*
Y4144747D01*
X1197051D01*
Y4142689D01*
X1204951D01*
Y4041089D01*
X1197051D01*
Y4038981D01*
X1041248D01*
Y4041089D01*
X1033348D01*
Y4064696D01*
X1029584Y4055267D01*
X1014476Y4039365D01*
X1006887Y4035873D01*
X1023343Y4021773D01*
X1033520Y4002342D01*
X1034263Y3995130D01*
Y4027729D01*
X1042162D01*
Y4029837D01*
X1197966D01*
Y4027729D01*
X1205865D01*
Y3926129D01*
X1197966D01*
Y3924021D01*
X1042162D01*
Y3926129D01*
X1035152D01*
Y3917493D01*
X1042162D01*
Y3919601D01*
X1197966D01*
Y3917493D01*
X1205865D01*
Y3815893D01*
X1197966D01*
Y3813785D01*
X1042162D01*
Y3815893D01*
X1034263D01*
Y3870476D01*
X1026451Y3851617D01*
X1010374Y3835541D01*
X989369Y3826840D01*
X966634D01*
X945629Y3835541D01*
X929552Y3851617D01*
X920852Y3872622D01*
Y3883990D01*
Y3985590D01*
Y3996558D01*
X928985Y4016929D01*
X944092Y4032832D01*
X951682Y4036323D01*
X935225Y4050423D01*
X925048Y4069854D01*
X923925Y4080764D01*
X923925D01*
X923417Y4081272D01*
Y4188206D01*
Y4199574D01*
X932118Y4220579D01*
X948194Y4236655D01*
X969199Y4245356D01*
X991935D01*
X1012940Y4236655D01*
X1029016Y4220579D01*
X1034263Y4207914D01*
Y4248455D01*
X1042162D01*
Y4250563D01*
X1197966D01*
Y4248455D01*
D02*
G37*
G36*
X2508987Y4227500D02*
X2516886D01*
Y4125900D01*
X2508987D01*
Y4123792D01*
X2358593D01*
Y4122166D01*
X2509291D01*
Y4120058D01*
X2517191D01*
Y4018458D01*
X2509291D01*
Y4016350D01*
X2353488D01*
Y4018458D01*
X2345588D01*
Y4030124D01*
X2335352Y4019349D01*
X2331646Y4017644D01*
X2332135Y4017478D01*
X2345563Y4005972D01*
Y4012184D01*
X2353462D01*
Y4014292D01*
X2509266D01*
Y4012184D01*
X2517165D01*
Y3910584D01*
X2509266D01*
Y3908476D01*
X2360600D01*
Y3903040D01*
X2509977D01*
Y3900932D01*
X2517877D01*
Y3799332D01*
X2509977D01*
Y3797224D01*
X2354174D01*
Y3799332D01*
X2346274D01*
Y3827425D01*
X2335823Y3816974D01*
X2314818Y3808273D01*
X2292082D01*
X2271077Y3816974D01*
X2255000Y3833050D01*
X2246300Y3854055D01*
Y3865423D01*
Y3967023D01*
Y3977990D01*
X2254433Y3998361D01*
X2269541Y4014264D01*
X2273247Y4015969D01*
X2272758Y4016136D01*
X2256102Y4030408D01*
X2245925Y4049839D01*
X2244801Y4060749D01*
X2244801D01*
X2244293Y4061257D01*
Y4168191D01*
Y4179559D01*
X2252994Y4200564D01*
X2269070Y4216640D01*
X2290075Y4225341D01*
X2312811D01*
X2333816Y4216640D01*
X2345284Y4205173D01*
Y4227500D01*
X2353183D01*
Y4229608D01*
X2508987D01*
Y4227500D01*
D02*
G37*
G36*
X4351380Y4202556D02*
X4359782Y4196943D01*
X4365396Y4188541D01*
X4367367Y4178630D01*
X4365396Y4168720D01*
X4359782Y4160318D01*
X4351380Y4154704D01*
X4341470Y4152733D01*
X4331559Y4154704D01*
X4328742Y4156586D01*
X4323157Y4160318D01*
X4317543Y4168720D01*
X4315572Y4178630D01*
X4317543Y4188541D01*
X4323157Y4196943D01*
X4328742Y4200675D01*
X4331559Y4202556D01*
X4341470Y4204528D01*
X4351380Y4202556D01*
D02*
G37*
G36*
X297078Y4237609D02*
X304978D01*
Y4136009D01*
X297078D01*
Y4133901D01*
X141275D01*
Y4136009D01*
X133375D01*
Y4237609D01*
X141275D01*
Y4239717D01*
X297078D01*
Y4237609D01*
D02*
G37*
G36*
X1588821Y4226179D02*
X1596720D01*
Y4124579D01*
X1588821D01*
Y4122471D01*
X1433017D01*
Y4124579D01*
X1425118D01*
Y4226179D01*
X1433017D01*
Y4228287D01*
X1588821D01*
Y4226179D01*
D02*
G37*
G36*
X4330501Y4145508D02*
X4338903Y4139894D01*
X4344517Y4131492D01*
X4346488Y4121582D01*
X4344517Y4111671D01*
X4338903Y4103269D01*
X4330501Y4097656D01*
X4320591Y4095684D01*
X4310680Y4097656D01*
X4307863Y4099537D01*
X4302278Y4103269D01*
X4296665Y4111671D01*
X4294693Y4121582D01*
X4296665Y4131492D01*
X4302278Y4139894D01*
X4307863Y4143626D01*
X4310680Y4145508D01*
X4320591Y4147479D01*
X4330501Y4145508D01*
D02*
G37*
G36*
X6947277Y4226065D02*
X6963960Y4219155D01*
X6978286Y4208162D01*
X6989279Y4193836D01*
X6996189Y4177153D01*
X6998546Y4159250D01*
X6996189Y4141347D01*
X6989279Y4124664D01*
X6978286Y4110338D01*
X6963960Y4099345D01*
X6947277Y4092435D01*
X6929374Y4090078D01*
X6911471Y4092435D01*
X6894788Y4099345D01*
X6880462Y4110338D01*
X6869469Y4124664D01*
X6862559Y4141347D01*
X6860202Y4159250D01*
X6862559Y4177153D01*
X6869469Y4193836D01*
X6880462Y4208162D01*
X6894788Y4219155D01*
X6911471Y4226065D01*
X6929374Y4228422D01*
X6947277Y4226065D01*
D02*
G37*
G36*
X7178773Y4161295D02*
X7195456Y4154385D01*
X7209781Y4143392D01*
X7220774Y4129066D01*
X7227685Y4112383D01*
X7230041Y4094480D01*
X7227685Y4076577D01*
X7220774Y4059894D01*
X7209781Y4045568D01*
X7195456Y4034575D01*
X7178773Y4027665D01*
X7160870Y4025308D01*
X7142967Y4027665D01*
X7126284Y4034575D01*
X7111958Y4045568D01*
X7100965Y4059894D01*
X7094055Y4076577D01*
X7091698Y4094480D01*
X7094055Y4112383D01*
X7100965Y4129066D01*
X7111958Y4143392D01*
X7126284Y4154385D01*
X7142967Y4161295D01*
X7160870Y4163652D01*
X7178773Y4161295D01*
D02*
G37*
G36*
X297078Y4127373D02*
X304978D01*
Y4025773D01*
X297078D01*
Y4023665D01*
X141275D01*
Y4025773D01*
X133375D01*
Y4127373D01*
X141275D01*
Y4129481D01*
X297078D01*
Y4127373D01*
D02*
G37*
G36*
X1589075Y4114927D02*
X1596974D01*
Y4013327D01*
X1589075D01*
Y4011219D01*
X1433271D01*
Y4013327D01*
X1425372D01*
Y4114927D01*
X1433271D01*
Y4117035D01*
X1589075D01*
Y4114927D01*
D02*
G37*
G36*
X4347037Y4044162D02*
X4355439Y4038548D01*
X4361052Y4030146D01*
X4363024Y4020236D01*
X4361052Y4010325D01*
X4355439Y4001923D01*
X4347037Y3996310D01*
X4337126Y3994338D01*
X4327216Y3996310D01*
X4324399Y3998191D01*
X4318814Y4001923D01*
X4313200Y4010325D01*
X4311229Y4020236D01*
X4313200Y4030146D01*
X4318814Y4038548D01*
X4324399Y4042280D01*
X4327216Y4044162D01*
X4337126Y4046133D01*
X4347037Y4044162D01*
D02*
G37*
G36*
X4318513Y3989273D02*
X4326914Y3983659D01*
X4332528Y3975257D01*
X4334500Y3965346D01*
X4332528Y3955436D01*
X4326914Y3947034D01*
X4318513Y3941420D01*
X4308602Y3939449D01*
X4298691Y3941420D01*
X4295875Y3943302D01*
X4290290Y3947034D01*
X4284676Y3955436D01*
X4282704Y3965346D01*
X4284676Y3975257D01*
X4290290Y3983659D01*
X4295875Y3987391D01*
X4298691Y3989273D01*
X4308602Y3991244D01*
X4318513Y3989273D01*
D02*
G37*
G36*
X305943Y3988486D02*
X316154D01*
Y3907663D01*
X305943D01*
Y3906164D01*
X192151D01*
Y3907663D01*
X181940D01*
Y3988486D01*
X192151D01*
Y3989984D01*
X305943D01*
Y3988486D01*
D02*
G37*
G36*
X1623060Y3969461D02*
X1633271D01*
Y3888638D01*
X1623060D01*
Y3887140D01*
X1509268D01*
Y3888638D01*
X1499057D01*
Y3969461D01*
X1509268D01*
Y3970960D01*
X1623060D01*
Y3969461D01*
D02*
G37*
G36*
X4326387Y3873957D02*
X4334788Y3868343D01*
X4340402Y3859941D01*
X4342374Y3850030D01*
X4340402Y3840120D01*
X4334788Y3831718D01*
X4326387Y3826104D01*
X4316476Y3824133D01*
X4306565Y3826104D01*
X4303749Y3827986D01*
X4298164Y3831718D01*
X4292550Y3840120D01*
X4290578Y3850030D01*
X4292550Y3859941D01*
X4298164Y3868343D01*
X4303749Y3872075D01*
X4306565Y3873957D01*
X4316476Y3875928D01*
X4326387Y3873957D01*
D02*
G37*
G36*
X761517Y4279494D02*
X853745D01*
Y4187266D01*
X883107D01*
Y3905936D01*
X853745D01*
Y3813708D01*
X766597D01*
Y3784321D01*
X480162D01*
Y3813708D01*
X387934D01*
Y3905936D01*
X358572D01*
Y4187266D01*
X387934D01*
Y4279494D01*
X480162D01*
Y4308907D01*
X761517D01*
Y4279494D01*
D02*
G37*
G36*
X4358924Y3817111D02*
X4367326Y3811498D01*
X4372940Y3803096D01*
X4374911Y3793185D01*
X4372940Y3783275D01*
X4367326Y3774873D01*
X4358924Y3769259D01*
X4349013Y3767288D01*
X4339103Y3769259D01*
X4336286Y3771141D01*
X4330701Y3774873D01*
X4325087Y3783275D01*
X4323116Y3793185D01*
X4325087Y3803096D01*
X4330701Y3811498D01*
X4336286Y3815230D01*
X4339103Y3817111D01*
X4349013Y3819083D01*
X4358924Y3817111D01*
D02*
G37*
G36*
Y3720007D02*
X4367326Y3714393D01*
X4372940Y3705992D01*
X4374911Y3696081D01*
X4372940Y3686170D01*
X4367326Y3677769D01*
X4358924Y3672155D01*
X4349013Y3670183D01*
X4339103Y3672155D01*
X4336286Y3674037D01*
X4330701Y3677769D01*
X4325087Y3686170D01*
X4323116Y3696081D01*
X4325087Y3705992D01*
X4330701Y3714393D01*
X4336286Y3718125D01*
X4339103Y3720007D01*
X4349013Y3721979D01*
X4358924Y3720007D01*
D02*
G37*
G36*
X778480Y3757493D02*
X794382Y3742385D01*
X803550Y3722458D01*
X804674Y3700552D01*
X797596Y3679791D01*
X783324Y3663135D01*
X763893Y3652958D01*
X752983Y3651834D01*
Y3651834D01*
X752475Y3651326D01*
X634173D01*
X613168Y3660027D01*
X597092Y3676103D01*
X588391Y3697108D01*
Y3719844D01*
X597092Y3740849D01*
X613168Y3756926D01*
X634173Y3765626D01*
X758108D01*
X778480Y3757493D01*
D02*
G37*
G36*
X4326387Y3663162D02*
X4334788Y3657548D01*
X4340402Y3649146D01*
X4342374Y3639236D01*
X4340402Y3629325D01*
X4334788Y3620923D01*
X4326387Y3615310D01*
X4316476Y3613338D01*
X4306565Y3615310D01*
X4303749Y3617191D01*
X4298164Y3620923D01*
X4292550Y3629325D01*
X4290578Y3639236D01*
X4292550Y3649146D01*
X4298164Y3657548D01*
X4303749Y3661280D01*
X4306565Y3663162D01*
X4316476Y3665133D01*
X4326387Y3663162D01*
D02*
G37*
G36*
X1742719Y3696132D02*
X1744218D01*
Y3582340D01*
X1742719D01*
Y3572129D01*
X1661897D01*
Y3582340D01*
X1660398D01*
Y3696132D01*
X1661897D01*
Y3706343D01*
X1742719D01*
Y3696132D01*
D02*
G37*
G36*
X551879Y3736479D02*
X567955Y3720402D01*
X576656Y3699397D01*
Y3688029D01*
Y3586429D01*
Y3575061D01*
X567955Y3554056D01*
X551879Y3537980D01*
X530874Y3529279D01*
X508138D01*
X487133Y3537980D01*
X471057Y3554056D01*
X462356Y3575061D01*
Y3581095D01*
X393497D01*
Y3591306D01*
X391998D01*
Y3705098D01*
X393497D01*
Y3715309D01*
X468947D01*
X471057Y3720402D01*
X487133Y3736479D01*
X508138Y3745179D01*
X530874D01*
X551879Y3736479D01*
D02*
G37*
G36*
X1843113Y3724210D02*
X1859190Y3708134D01*
X1867891Y3687129D01*
Y3675761D01*
Y3574161D01*
Y3562793D01*
X1859190Y3541788D01*
X1843113Y3525712D01*
X1822108Y3517011D01*
X1799373D01*
X1778368Y3525712D01*
X1762291Y3541788D01*
X1753591Y3562793D01*
Y3574161D01*
Y3675761D01*
Y3687129D01*
X1762291Y3708134D01*
X1778368Y3724210D01*
X1799373Y3732911D01*
X1822108D01*
X1843113Y3724210D01*
D02*
G37*
G36*
X4318513Y3547846D02*
X4326914Y3542232D01*
X4332528Y3533830D01*
X4334500Y3523920D01*
X4332528Y3514009D01*
X4326914Y3505607D01*
X4318513Y3499994D01*
X4308602Y3498022D01*
X4298691Y3499994D01*
X4295875Y3501875D01*
X4290290Y3505607D01*
X4284676Y3514009D01*
X4282704Y3523920D01*
X4284676Y3533830D01*
X4290290Y3542232D01*
X4295875Y3545964D01*
X4298691Y3547846D01*
X4308602Y3549817D01*
X4318513Y3547846D01*
D02*
G37*
G36*
X694309Y3623412D02*
X696417D01*
Y3467608D01*
X694309D01*
Y3459709D01*
X592709D01*
Y3467608D01*
X590601D01*
Y3623412D01*
X592709D01*
Y3631311D01*
X694309D01*
Y3623412D01*
D02*
G37*
G36*
X802869Y3622243D02*
X804977D01*
Y3466440D01*
X802869D01*
Y3458540D01*
X701269D01*
Y3466440D01*
X699160D01*
Y3622243D01*
X701269D01*
Y3630143D01*
X802869D01*
Y3622243D01*
D02*
G37*
G36*
X2076013Y3721018D02*
X2091916Y3705911D01*
X2101083Y3685984D01*
X2102208Y3664078D01*
X2095129Y3643317D01*
X2080857Y3626660D01*
X2062531Y3617062D01*
X2093874D01*
Y3609162D01*
X2095983D01*
Y3453359D01*
X2093874D01*
Y3445459D01*
X1992274D01*
Y3453359D01*
X1990166D01*
Y3609162D01*
X1992274D01*
Y3614852D01*
X1982876D01*
Y3610026D01*
X1984985D01*
Y3454222D01*
X1982876D01*
Y3446323D01*
X1881276D01*
Y3454222D01*
X1879168D01*
Y3610026D01*
X1881276D01*
Y3617925D01*
X1924287D01*
X1910702Y3623553D01*
X1894625Y3639629D01*
X1885925Y3660634D01*
Y3683370D01*
X1894625Y3704375D01*
X1910702Y3720451D01*
X1931707Y3729152D01*
X2055642D01*
X2076013Y3721018D01*
D02*
G37*
G36*
X4347037Y3492957D02*
X4355439Y3487343D01*
X4361052Y3478941D01*
X4363024Y3469030D01*
X4361052Y3459120D01*
X4355439Y3450718D01*
X4347037Y3445104D01*
X4337126Y3443133D01*
X4327216Y3445104D01*
X4324399Y3446986D01*
X4318814Y3450718D01*
X4313200Y3459120D01*
X4311229Y3469030D01*
X4313200Y3478941D01*
X4318814Y3487343D01*
X4324399Y3491075D01*
X4327216Y3492957D01*
X4337126Y3494928D01*
X4347037Y3492957D01*
D02*
G37*
G36*
X4330501Y3391611D02*
X4338903Y3385997D01*
X4344517Y3377595D01*
X4346488Y3367684D01*
X4344517Y3357774D01*
X4338903Y3349372D01*
X4330501Y3343758D01*
X4320591Y3341787D01*
X4310680Y3343758D01*
X4307863Y3345640D01*
X4302278Y3349372D01*
X4296665Y3357774D01*
X4294693Y3367684D01*
X4296665Y3377595D01*
X4302278Y3385997D01*
X4307863Y3389729D01*
X4310680Y3391611D01*
X4320591Y3393582D01*
X4330501Y3391611D01*
D02*
G37*
G36*
X4351380Y3334562D02*
X4359782Y3328948D01*
X4365396Y3320547D01*
X4367367Y3310636D01*
X4365396Y3300725D01*
X4359782Y3292324D01*
X4351380Y3286710D01*
X4341470Y3284738D01*
X4331559Y3286710D01*
X4328742Y3288592D01*
X4323157Y3292324D01*
X4317543Y3300725D01*
X4315572Y3310636D01*
X4317543Y3320547D01*
X4323157Y3328948D01*
X4328742Y3332680D01*
X4331559Y3334562D01*
X4341470Y3336534D01*
X4351380Y3334562D01*
D02*
G37*
G36*
X1971044Y3273839D02*
X1983755Y3268574D01*
X1995196Y3260930D01*
X2004925Y3251201D01*
X2012569Y3239760D01*
X2017835Y3227048D01*
X2020519Y3213553D01*
Y3206674D01*
Y3143174D01*
Y3136294D01*
X2017835Y3122799D01*
X2012569Y3110087D01*
X2004925Y3098647D01*
X1995196Y3088918D01*
X1983755Y3081273D01*
X1971044Y3076008D01*
X1957549Y3073324D01*
X1750749D01*
X1737255Y3076008D01*
X1724543Y3081273D01*
X1713102Y3088918D01*
X1703373Y3098647D01*
X1695729Y3110087D01*
X1690463Y3122799D01*
X1687779Y3136294D01*
Y3143174D01*
Y3184391D01*
X1685557Y3167511D01*
X1678647Y3150828D01*
X1667654Y3136502D01*
X1653328Y3125509D01*
X1636645Y3118599D01*
X1618742Y3116242D01*
X1600839Y3118599D01*
X1584156Y3125509D01*
X1569830Y3136502D01*
X1558837Y3150828D01*
X1551927Y3167511D01*
X1549570Y3185414D01*
X1551927Y3203317D01*
X1558837Y3220000D01*
X1569830Y3234326D01*
X1584156Y3245319D01*
X1600839Y3252229D01*
X1618742Y3254586D01*
X1636645Y3252229D01*
X1653328Y3245319D01*
X1667654Y3234326D01*
X1678647Y3220000D01*
X1685557Y3203317D01*
X1687779Y3186437D01*
Y3206674D01*
Y3213553D01*
X1690463Y3227048D01*
X1695729Y3239760D01*
X1703373Y3251201D01*
X1713102Y3260930D01*
X1724543Y3268574D01*
X1737255Y3273839D01*
X1750749Y3276524D01*
X1957549D01*
X1971044Y3273839D01*
D02*
G37*
G36*
X3969466Y3201593D02*
X3977868Y3195979D01*
X3983481Y3187578D01*
X3985453Y3177667D01*
X3983481Y3167756D01*
X3977868Y3159355D01*
X3969466Y3153741D01*
X3959555Y3151769D01*
X3949645Y3153741D01*
X3946828Y3155623D01*
X3941243Y3159355D01*
X3935629Y3167756D01*
X3933658Y3177667D01*
X3935629Y3187578D01*
X3941243Y3195979D01*
X3946828Y3199711D01*
X3949645Y3201593D01*
X3959555Y3203565D01*
X3969466Y3201593D01*
D02*
G37*
G36*
X3349850Y3178061D02*
X3366533Y3171151D01*
X3380858Y3160158D01*
X3391851Y3145832D01*
X3398762Y3129149D01*
X3399220Y3125666D01*
X3404945Y3134234D01*
X3414674Y3143963D01*
X3426114Y3151607D01*
X3438826Y3156873D01*
X3452321Y3159557D01*
X3659120D01*
X3672615Y3156873D01*
X3685327Y3151607D01*
X3696768Y3143963D01*
X3706497Y3134234D01*
X3714141Y3122793D01*
X3719406Y3110081D01*
X3722091Y3096587D01*
Y3089707D01*
Y3026207D01*
Y3019327D01*
X3719406Y3005832D01*
X3714141Y2993121D01*
X3706497Y2981680D01*
X3696768Y2971951D01*
X3685327Y2964307D01*
X3672615Y2959041D01*
X3667037Y2957932D01*
X3890467D01*
Y2937485D01*
X3932758D01*
Y2806120D01*
X3943409Y2820001D01*
X3957735Y2830994D01*
X3974418Y2837904D01*
X3992321Y2840261D01*
X4010224Y2837904D01*
X4026907Y2830994D01*
X4041233Y2820001D01*
X4052226Y2805675D01*
X4059136Y2788992D01*
X4061493Y2771089D01*
X4059136Y2753186D01*
X4052226Y2736503D01*
X4041233Y2722177D01*
X4026907Y2711185D01*
X4010224Y2704274D01*
X3992321Y2701917D01*
X3974418Y2704274D01*
X3957735Y2711185D01*
X3943409Y2722177D01*
X3932758Y2736058D01*
Y2676677D01*
X3890467D01*
Y2661310D01*
X3614268D01*
Y2676677D01*
X3571977D01*
Y2937485D01*
X3594049D01*
Y2956357D01*
X3452321D01*
X3438826Y2959041D01*
X3426114Y2964307D01*
X3414674Y2971951D01*
X3404945Y2981680D01*
X3397301Y2993121D01*
X3392035Y3005832D01*
X3389351Y3019327D01*
Y3026207D01*
Y3073401D01*
X3380858Y3062334D01*
X3366533Y3051341D01*
X3349850Y3044431D01*
X3331947Y3042074D01*
X3314044Y3044431D01*
X3297361Y3051341D01*
X3283035Y3062334D01*
X3272042Y3076660D01*
X3271291Y3078472D01*
Y3050616D01*
X3269793D01*
Y3040405D01*
X3188970D01*
Y3050616D01*
X3187471D01*
Y3164408D01*
X3188970D01*
Y3174619D01*
X3269793D01*
Y3164408D01*
X3271291D01*
Y3144020D01*
X3272042Y3145832D01*
X3283035Y3160158D01*
X3297361Y3171151D01*
X3314044Y3178061D01*
X3331947Y3180418D01*
X3349850Y3178061D01*
D02*
G37*
G36*
X829640Y3299409D02*
X831748D01*
Y3143606D01*
X829640D01*
Y3135706D01*
X803034D01*
X806801Y3134202D01*
X822703Y3119095D01*
X831871Y3099168D01*
X832995Y3077262D01*
X825917Y3056501D01*
X811645Y3039844D01*
X792214Y3029667D01*
X781304Y3028544D01*
Y3028544D01*
X780796Y3028036D01*
X662494D01*
X641489Y3036736D01*
X625413Y3052813D01*
X616712Y3073818D01*
Y3096554D01*
X625413Y3117559D01*
X641489Y3133635D01*
X645754Y3135401D01*
X619836D01*
Y3143301D01*
X617728D01*
Y3299104D01*
X619836D01*
Y3307004D01*
X721436D01*
Y3299104D01*
X723544D01*
Y3143301D01*
X721436D01*
Y3142336D01*
X728040D01*
Y3143606D01*
X725932D01*
Y3299409D01*
X728040D01*
Y3307309D01*
X829640D01*
Y3299409D01*
D02*
G37*
G36*
X613664Y3299536D02*
X615772D01*
Y3143733D01*
X613664D01*
Y3135833D01*
X512064D01*
Y3143733D01*
X509956D01*
Y3299536D01*
X512064D01*
Y3307436D01*
X613664D01*
Y3299536D01*
D02*
G37*
G36*
X477368Y3298723D02*
X479476D01*
Y3142920D01*
X477368D01*
Y3135020D01*
X375768D01*
Y3142920D01*
X373659D01*
Y3298723D01*
X375768D01*
Y3306623D01*
X477368D01*
Y3298723D01*
D02*
G37*
G36*
X6722745Y3222320D02*
X6732956D01*
Y3141497D01*
X6722745D01*
Y3139999D01*
X6673647D01*
Y3056534D01*
X6665747D01*
Y3054426D01*
X6509944D01*
Y3056534D01*
X6502044D01*
Y3158134D01*
X6509944D01*
Y3160243D01*
X6598742D01*
Y3222320D01*
X6608953D01*
Y3223819D01*
X6722745D01*
Y3222320D01*
D02*
G37*
G36*
X2466742Y3182252D02*
X2483425Y3175342D01*
X2497751Y3164349D01*
X2508744Y3150023D01*
X2515654Y3133340D01*
X2518011Y3115437D01*
X2515654Y3097534D01*
X2508744Y3080851D01*
X2497751Y3066525D01*
X2483425Y3055532D01*
X2466742Y3048622D01*
X2448839Y3046265D01*
X2430936Y3048622D01*
X2414253Y3055532D01*
X2399928Y3066525D01*
X2388935Y3080851D01*
X2382024Y3097534D01*
X2379668Y3115437D01*
X2382024Y3133340D01*
X2388935Y3150023D01*
X2399928Y3164349D01*
X2414253Y3175342D01*
X2430936Y3182252D01*
X2448839Y3184609D01*
X2466742Y3182252D01*
D02*
G37*
G36*
X2126433D02*
X2143116Y3175342D01*
X2157442Y3164349D01*
X2168435Y3150023D01*
X2175345Y3133340D01*
X2177702Y3115437D01*
X2175345Y3097534D01*
X2168435Y3080851D01*
X2157442Y3066525D01*
X2143116Y3055532D01*
X2126433Y3048622D01*
X2108530Y3046265D01*
X2090627Y3048622D01*
X2073944Y3055532D01*
X2059618Y3066525D01*
X2048626Y3080851D01*
X2041715Y3097534D01*
X2039358Y3115437D01*
X2041715Y3133340D01*
X2048626Y3150023D01*
X2059618Y3164349D01*
X2073944Y3175342D01*
X2090627Y3182252D01*
X2108530Y3184609D01*
X2126433Y3182252D01*
D02*
G37*
G36*
X3831180Y3175927D02*
X3847863Y3169017D01*
X3862188Y3158024D01*
X3873181Y3143698D01*
X3880092Y3127015D01*
X3882448Y3109112D01*
X3880092Y3091209D01*
X3873181Y3074526D01*
X3862188Y3060201D01*
X3847863Y3049208D01*
X3831180Y3042297D01*
X3813277Y3039941D01*
X3795374Y3042297D01*
X3778691Y3049208D01*
X3764365Y3060201D01*
X3753372Y3074526D01*
X3746462Y3091209D01*
X3744105Y3109112D01*
X3746462Y3127015D01*
X3753372Y3143698D01*
X3764365Y3158024D01*
X3778691Y3169017D01*
X3795374Y3175927D01*
X3813277Y3178284D01*
X3831180Y3175927D01*
D02*
G37*
G36*
X342697Y3056382D02*
X350596D01*
Y2954782D01*
X342697D01*
Y2952674D01*
X186893D01*
Y2954782D01*
X178994D01*
Y3056382D01*
X186893D01*
Y3058490D01*
X342697D01*
Y3056382D01*
D02*
G37*
G36*
X1215669Y2978455D02*
X1223569D01*
Y2876855D01*
X1215669D01*
Y2874747D01*
X1059866D01*
Y2876855D01*
X1057427D01*
Y2868727D01*
X1059866D01*
Y2870835D01*
X1215669D01*
Y2868727D01*
X1223569D01*
Y2767127D01*
X1215669D01*
Y2765019D01*
X1059866D01*
Y2767127D01*
X1051966D01*
Y2788735D01*
X1049294Y2782042D01*
X1034187Y2766139D01*
X1021433Y2760272D01*
X1029978Y2757358D01*
X1046635Y2743086D01*
X1051966Y2732907D01*
Y2759507D01*
X1059866D01*
Y2761615D01*
X1215669D01*
Y2759507D01*
X1223569D01*
Y2657907D01*
X1215669D01*
Y2655799D01*
X1059866D01*
Y2657907D01*
X1058443D01*
Y2649271D01*
X1059866D01*
Y2651379D01*
X1215669D01*
Y2649271D01*
X1223569D01*
Y2547671D01*
X1215669D01*
Y2545563D01*
X1059866D01*
Y2547671D01*
X1051966D01*
Y2578299D01*
X1049743Y2572931D01*
X1033666Y2556854D01*
X1012661Y2548153D01*
X989925D01*
X968920Y2556854D01*
X952844Y2572931D01*
X944143Y2593936D01*
Y2605303D01*
Y2706903D01*
Y2717871D01*
X952277Y2738242D01*
X967384Y2754145D01*
X980138Y2760012D01*
X971592Y2762925D01*
X954936Y2777197D01*
X944759Y2796628D01*
X943636Y2807538D01*
X943635D01*
X943127Y2808046D01*
Y2914980D01*
Y2926348D01*
X951828Y2947353D01*
X967905Y2963429D01*
X988910Y2972130D01*
X1011645D01*
X1032650Y2963429D01*
X1048727Y2947353D01*
X1051966Y2939532D01*
Y2978455D01*
X1059866D01*
Y2980563D01*
X1215669D01*
Y2978455D01*
D02*
G37*
G36*
X6621247Y3011348D02*
X6629146D01*
Y2909748D01*
X6621247D01*
Y2907640D01*
X6465443D01*
Y2909748D01*
X6457544D01*
Y3011348D01*
X6465443D01*
Y3013456D01*
X6621247D01*
Y3011348D01*
D02*
G37*
G36*
X3100726Y3043365D02*
X3117409Y3036454D01*
X3131735Y3025462D01*
X3142728Y3011136D01*
X3149638Y2994453D01*
X3151995Y2976550D01*
X3149638Y2958647D01*
X3142728Y2941964D01*
X3131735Y2927638D01*
X3117409Y2916645D01*
X3100726Y2909735D01*
X3082823Y2907378D01*
X3064920Y2909735D01*
X3048237Y2916645D01*
X3033912Y2927638D01*
X3022919Y2941964D01*
X3016008Y2958647D01*
X3013652Y2976550D01*
X3016008Y2994453D01*
X3022919Y3011136D01*
X3033912Y3025462D01*
X3048237Y3036454D01*
X3064920Y3043365D01*
X3082823Y3045722D01*
X3100726Y3043365D01*
D02*
G37*
G36*
X341655Y2944343D02*
X349555D01*
Y2842743D01*
X341655D01*
Y2840634D01*
X185852D01*
Y2842743D01*
X177952D01*
Y2944343D01*
X185852D01*
Y2946451D01*
X341655D01*
Y2944343D01*
D02*
G37*
G36*
X6059856Y2879395D02*
X6067755D01*
Y2777795D01*
X6059856D01*
Y2775687D01*
X5904052D01*
Y2777795D01*
X5896153D01*
Y2879395D01*
X5904052D01*
Y2881503D01*
X6059856D01*
Y2879395D01*
D02*
G37*
G36*
X342976Y2834869D02*
X350876D01*
Y2733269D01*
X342976D01*
Y2731160D01*
X187173D01*
Y2733269D01*
X179273D01*
Y2834869D01*
X187173D01*
Y2836977D01*
X342976D01*
Y2834869D01*
D02*
G37*
G36*
X1661189Y3045112D02*
X1673901Y3039847D01*
X1685342Y3032203D01*
X1695071Y3022474D01*
X1702715Y3011033D01*
X1707980Y2998321D01*
X1708310Y2996667D01*
X1726819D01*
Y3017114D01*
X2023237D01*
Y2996667D01*
X2065528D01*
Y2735859D01*
X2023237D01*
Y2720492D01*
X1747037D01*
Y2735859D01*
X1704746D01*
Y2797365D01*
X1702715Y2792460D01*
X1695071Y2781020D01*
X1685342Y2771291D01*
X1673901Y2763646D01*
X1661189Y2758381D01*
X1647694Y2755697D01*
X1608535D01*
X1595040Y2758381D01*
X1582328Y2763646D01*
X1570888Y2771291D01*
X1561159Y2781020D01*
X1553515Y2792460D01*
X1548249Y2805172D01*
X1545565Y2818667D01*
Y2825547D01*
Y2977947D01*
Y2984826D01*
X1548249Y2998321D01*
X1553515Y3011033D01*
X1561159Y3022474D01*
X1570888Y3032203D01*
X1582328Y3039847D01*
X1595040Y3045112D01*
X1608535Y3047797D01*
X1647694D01*
X1661189Y3045112D01*
D02*
G37*
G36*
X5537530Y2796108D02*
X5545430D01*
Y2694508D01*
X5537530D01*
Y2692400D01*
X5381727D01*
Y2694508D01*
X5373827D01*
Y2796108D01*
X5381727D01*
Y2798216D01*
X5537530D01*
Y2796108D01*
D02*
G37*
G36*
X2277212Y2896972D02*
X2280209D01*
Y2676195D01*
X2277212D01*
Y2660574D01*
X2142388D01*
Y2676195D01*
X2139391D01*
Y2896972D01*
X2142388D01*
Y2912593D01*
X2277212D01*
Y2896972D01*
D02*
G37*
G36*
X2502459Y2896006D02*
X2505456D01*
Y2675230D01*
X2502459D01*
Y2659609D01*
X2367636D01*
Y2675230D01*
X2364638D01*
Y2896006D01*
X2367636D01*
Y2911627D01*
X2502459D01*
Y2896006D01*
D02*
G37*
G36*
X3390392Y2863190D02*
X3393389D01*
Y2642413D01*
X3390392D01*
Y2626792D01*
X3255569D01*
Y2642413D01*
X3252572D01*
Y2863190D01*
X3255569D01*
Y2878811D01*
X3390392D01*
Y2863190D01*
D02*
G37*
G36*
X2968959Y2945747D02*
X2981671Y2940482D01*
X2993111Y2932838D01*
X3002841Y2923109D01*
X3010485Y2911668D01*
X3015750Y2898956D01*
X3018434Y2885462D01*
Y2878582D01*
Y2875509D01*
X3143936D01*
Y2859888D01*
X3146933D01*
Y2639111D01*
X3143936D01*
Y2623490D01*
X3009113D01*
Y2639111D01*
X3006115D01*
Y2645916D01*
X3002841Y2641015D01*
X2993111Y2631286D01*
X2981671Y2623642D01*
X2968959Y2618376D01*
X2955464Y2615692D01*
X2878205D01*
X2864710Y2618376D01*
X2851998Y2623642D01*
X2840558Y2631286D01*
X2830828Y2641015D01*
X2823184Y2652455D01*
X2817919Y2665167D01*
X2815234Y2678662D01*
Y2685542D01*
Y2878582D01*
Y2885462D01*
X2817919Y2898956D01*
X2823184Y2911668D01*
X2830828Y2923109D01*
X2840558Y2932838D01*
X2851998Y2940482D01*
X2864710Y2945747D01*
X2878205Y2948432D01*
X2955464D01*
X2968959Y2945747D01*
D02*
G37*
G36*
X2672160Y2946763D02*
X2684872Y2941498D01*
X2696312Y2933854D01*
X2706042Y2924125D01*
X2713686Y2912684D01*
X2718951Y2899972D01*
X2721635Y2886478D01*
Y2879598D01*
Y2686558D01*
Y2679678D01*
X2718951Y2666183D01*
X2713686Y2653471D01*
X2706042Y2642031D01*
X2696312Y2632302D01*
X2684872Y2624658D01*
X2672160Y2619392D01*
X2658665Y2616708D01*
X2581406D01*
X2567911Y2619392D01*
X2555199Y2624658D01*
X2543759Y2632302D01*
X2534029Y2642031D01*
X2526385Y2653471D01*
X2521120Y2666183D01*
X2518435Y2679678D01*
Y2686558D01*
Y2879598D01*
Y2886478D01*
X2521120Y2899972D01*
X2526385Y2912684D01*
X2534029Y2924125D01*
X2543759Y2933854D01*
X2555199Y2941498D01*
X2567911Y2946763D01*
X2581406Y2949448D01*
X2658665D01*
X2672160Y2946763D01*
D02*
G37*
G36*
X6613398Y2730348D02*
X6614897D01*
Y2616556D01*
X6613398D01*
Y2606345D01*
X6532575D01*
Y2616556D01*
X6531077D01*
Y2730348D01*
X6532575D01*
Y2740558D01*
X6613398D01*
Y2730348D01*
D02*
G37*
G36*
X317881Y2672715D02*
X328092D01*
Y2591892D01*
X317881D01*
Y2590394D01*
X204089D01*
Y2591892D01*
X193878D01*
Y2672715D01*
X204089D01*
Y2674214D01*
X317881D01*
Y2672715D01*
D02*
G37*
G36*
X1569868Y2703081D02*
X1586551Y2696171D01*
X1600877Y2685178D01*
X1611870Y2670852D01*
X1618780Y2654169D01*
X1621137Y2636266D01*
X1618780Y2618363D01*
X1611870Y2601680D01*
X1600877Y2587354D01*
X1586551Y2576361D01*
X1569868Y2569451D01*
X1551965Y2567094D01*
X1534062Y2569451D01*
X1517379Y2576361D01*
X1503054Y2587354D01*
X1492061Y2601680D01*
X1485150Y2618363D01*
X1482794Y2636266D01*
X1485150Y2654169D01*
X1492061Y2670852D01*
X1503054Y2685178D01*
X1517379Y2696171D01*
X1534062Y2703081D01*
X1551965Y2705438D01*
X1569868Y2703081D01*
D02*
G37*
G36*
X3311398Y2604008D02*
X3327019D01*
Y2469185D01*
X3311398D01*
Y2466188D01*
X3090621D01*
Y2469185D01*
X3075000D01*
Y2494421D01*
X3064959Y2481335D01*
X3050633Y2470342D01*
X3033950Y2463431D01*
X3016047Y2461075D01*
X2998144Y2463431D01*
X2981461Y2470342D01*
X2967135Y2481335D01*
X2956142Y2495660D01*
X2949232Y2512343D01*
X2946875Y2530246D01*
X2949232Y2548149D01*
X2956142Y2564832D01*
X2967135Y2579158D01*
X2981461Y2590151D01*
X2998144Y2597061D01*
X3016047Y2599418D01*
X3033950Y2597061D01*
X3050633Y2590151D01*
X3064959Y2579158D01*
X3075000Y2566072D01*
Y2604008D01*
X3090621D01*
Y2607005D01*
X3311398D01*
Y2604008D01*
D02*
G37*
G36*
X5514319Y2603068D02*
X5522721Y2597454D01*
X5528335Y2589052D01*
X5530306Y2579141D01*
X5528335Y2569231D01*
X5522721Y2560829D01*
X5514319Y2555215D01*
X5504409Y2553244D01*
X5494498Y2555215D01*
X5491681Y2557097D01*
X5486096Y2560829D01*
X5480482Y2569231D01*
X5478511Y2579141D01*
X5480482Y2589052D01*
X5486096Y2597454D01*
X5491681Y2601186D01*
X5494498Y2603068D01*
X5504409Y2605039D01*
X5514319Y2603068D01*
D02*
G37*
G36*
X5880329Y2652598D02*
X5888228D01*
Y2550998D01*
X5880329D01*
Y2548890D01*
X5724525D01*
Y2550998D01*
X5716626D01*
Y2652598D01*
X5724525D01*
Y2654706D01*
X5880329D01*
Y2652598D01*
D02*
G37*
G36*
X6998208Y2747899D02*
X6999707D01*
Y2634107D01*
X6998208D01*
Y2632304D01*
X7005218D01*
Y2530704D01*
X6997319D01*
Y2528595D01*
X6841515D01*
Y2530704D01*
X6833616D01*
Y2632304D01*
X6841515D01*
Y2634412D01*
X6915887D01*
Y2747899D01*
X6917385D01*
Y2758110D01*
X6998208D01*
Y2747899D01*
D02*
G37*
G36*
X6785585Y2631796D02*
X6793484D01*
Y2530196D01*
X6785585D01*
Y2528087D01*
X6629781D01*
Y2530196D01*
X6621882D01*
Y2631796D01*
X6629781D01*
Y2633904D01*
X6785585D01*
Y2631796D01*
D02*
G37*
G36*
X3728110Y2625471D02*
X3736010D01*
Y2523871D01*
X3728110D01*
Y2521763D01*
X3572307D01*
Y2523871D01*
X3564407D01*
Y2625471D01*
X3572307D01*
Y2627579D01*
X3728110D01*
Y2625471D01*
D02*
G37*
G36*
X2240809Y2656650D02*
X2257492Y2649739D01*
X2271818Y2638747D01*
X2282811Y2624421D01*
X2289721Y2607738D01*
X2292078Y2589835D01*
X2289721Y2571932D01*
X2282811Y2555249D01*
X2271818Y2540923D01*
X2257492Y2529930D01*
X2240809Y2523020D01*
X2222906Y2520663D01*
X2205003Y2523020D01*
X2188320Y2529930D01*
X2173995Y2540923D01*
X2163002Y2555249D01*
X2156091Y2571932D01*
X2153735Y2589835D01*
X2156091Y2607738D01*
X2163002Y2624421D01*
X2173995Y2638747D01*
X2188320Y2649739D01*
X2205003Y2656650D01*
X2222906Y2659007D01*
X2240809Y2656650D01*
D02*
G37*
G36*
X2505020Y2651976D02*
X2521703Y2645066D01*
X2536029Y2634073D01*
X2547022Y2619747D01*
X2553932Y2603064D01*
X2556289Y2585161D01*
X2553932Y2567258D01*
X2547022Y2550575D01*
X2536029Y2536249D01*
X2521703Y2525257D01*
X2505020Y2518346D01*
X2487117Y2515989D01*
X2469214Y2518346D01*
X2452531Y2525257D01*
X2438205Y2536249D01*
X2427213Y2550575D01*
X2420302Y2567258D01*
X2417945Y2585161D01*
X2420302Y2603064D01*
X2427213Y2619747D01*
X2438205Y2634073D01*
X2452531Y2645066D01*
X2469214Y2651976D01*
X2487117Y2654333D01*
X2505020Y2651976D01*
D02*
G37*
G36*
X3512773Y2900053D02*
X3525485Y2894787D01*
X3536925Y2887143D01*
X3546655Y2877414D01*
X3554299Y2865974D01*
X3559564Y2853262D01*
X3562248Y2839767D01*
Y2832887D01*
Y2680487D01*
Y2673608D01*
X3559564Y2660113D01*
X3554299Y2647401D01*
X3546655Y2635960D01*
X3536925Y2626231D01*
X3525485Y2618587D01*
X3512773Y2613322D01*
X3499278Y2610637D01*
X3499191D01*
X3504246Y2604050D01*
X3511157Y2587367D01*
X3513513Y2569464D01*
X3511157Y2551561D01*
X3504246Y2534878D01*
X3493253Y2520552D01*
X3478928Y2509559D01*
X3462245Y2502649D01*
X3444342Y2500292D01*
X3426439Y2502649D01*
X3409756Y2509559D01*
X3395430Y2520552D01*
X3384437Y2534878D01*
X3377527Y2551561D01*
X3375170Y2569464D01*
X3377527Y2587367D01*
X3384437Y2604050D01*
X3395430Y2618376D01*
X3409756Y2629369D01*
X3416529Y2632174D01*
X3412742Y2635960D01*
X3405098Y2647401D01*
X3399833Y2660113D01*
X3397148Y2673608D01*
Y2680487D01*
Y2832887D01*
Y2839767D01*
X3399833Y2853262D01*
X3405098Y2865974D01*
X3412742Y2877414D01*
X3422472Y2887143D01*
X3433912Y2894787D01*
X3446624Y2900053D01*
X3460119Y2902737D01*
X3499278D01*
X3512773Y2900053D01*
D02*
G37*
G36*
X2821965Y2597150D02*
X2837586D01*
Y2462327D01*
X2821965D01*
Y2459330D01*
X2601189D01*
Y2462327D01*
X2585568D01*
Y2597150D01*
X2601189D01*
Y2600147D01*
X2821965D01*
Y2597150D01*
D02*
G37*
G36*
X2049094Y2572715D02*
X2051202D01*
Y2416912D01*
X2049094D01*
Y2409012D01*
X1947494D01*
Y2416912D01*
X1945386D01*
Y2572715D01*
X1947494D01*
Y2580615D01*
X2049094D01*
Y2572715D01*
D02*
G37*
G36*
X1826971Y2682799D02*
X1834871D01*
Y2581199D01*
X1826971D01*
Y2579192D01*
X1908886D01*
Y2571293D01*
X1910994D01*
Y2415489D01*
X1908886D01*
Y2407590D01*
X1807286D01*
Y2415489D01*
X1805178D01*
Y2571293D01*
X1807286D01*
Y2579091D01*
X1800225D01*
Y2571191D01*
X1802333D01*
Y2415388D01*
X1800225D01*
Y2407488D01*
X1698625D01*
Y2415388D01*
X1696517D01*
Y2571191D01*
X1698625D01*
Y2579091D01*
X1671168D01*
Y2581199D01*
X1663268D01*
Y2682799D01*
X1671168D01*
Y2684907D01*
X1826971D01*
Y2682799D01*
D02*
G37*
G36*
X3913022Y2511552D02*
X3915131D01*
Y2355748D01*
X3913022D01*
Y2347849D01*
X3811422D01*
Y2355748D01*
X3809314D01*
Y2511552D01*
X3811422D01*
Y2519451D01*
X3913022D01*
Y2511552D01*
D02*
G37*
G36*
X3648659Y2511298D02*
X3650767D01*
Y2355494D01*
X3648659D01*
Y2347595D01*
X3547059D01*
Y2355494D01*
X3544951D01*
Y2511298D01*
X3547059D01*
Y2519197D01*
X3648659D01*
Y2511298D01*
D02*
G37*
G36*
X3759149Y2511196D02*
X3761257D01*
Y2355393D01*
X3759149D01*
Y2347493D01*
X3657549D01*
Y2355393D01*
X3655441D01*
Y2511196D01*
X3657549D01*
Y2519096D01*
X3759149D01*
Y2511196D01*
D02*
G37*
G36*
X6726678Y2483092D02*
X6743361Y2476181D01*
X6757687Y2465188D01*
X6768680Y2450863D01*
X6775590Y2434180D01*
X6777947Y2416277D01*
X6775590Y2398374D01*
X6768680Y2381691D01*
X6757687Y2367365D01*
X6743361Y2356372D01*
X6726678Y2349462D01*
X6708775Y2347105D01*
X6690872Y2349462D01*
X6674189Y2356372D01*
X6659863Y2367365D01*
X6648870Y2381691D01*
X6641960Y2398374D01*
X6639603Y2416277D01*
X6641960Y2434180D01*
X6648870Y2450863D01*
X6659863Y2465188D01*
X6674189Y2476181D01*
X6690872Y2483092D01*
X6708775Y2485448D01*
X6726678Y2483092D01*
D02*
G37*
G36*
X2887447Y2300630D02*
X2600427D01*
Y2447950D01*
X2887447D01*
Y2300630D01*
D02*
G37*
G36*
X3296895Y2296211D02*
X3009875D01*
Y2443531D01*
X3296895D01*
Y2296211D01*
D02*
G37*
G36*
X552565Y2431985D02*
X568641Y2415909D01*
X577342Y2394904D01*
Y2383536D01*
Y2281936D01*
Y2270568D01*
X568641Y2249563D01*
X552565Y2233487D01*
X531560Y2224786D01*
X508824D01*
X487819Y2233487D01*
X471743Y2249563D01*
X463042Y2270568D01*
Y2273681D01*
X391643D01*
Y2283892D01*
X390144D01*
Y2397684D01*
X391643D01*
Y2407895D01*
X468423D01*
X471743Y2415909D01*
X487819Y2431985D01*
X508824Y2440686D01*
X531560D01*
X552565Y2431985D01*
D02*
G37*
G36*
X784682Y2983840D02*
X876910D01*
Y2891612D01*
X906272D01*
Y2610282D01*
X876910D01*
Y2518054D01*
X789762D01*
Y2488667D01*
X779865D01*
X792475Y2483632D01*
X808378Y2468525D01*
X817545Y2448597D01*
X818670Y2426692D01*
X811591Y2405930D01*
X802501Y2395322D01*
X815721D01*
Y2387422D01*
X817829D01*
Y2231619D01*
X815721D01*
Y2223719D01*
X714121D01*
Y2231619D01*
X712013D01*
Y2377465D01*
X709371D01*
Y2232939D01*
X707263D01*
Y2225040D01*
X605663D01*
Y2232939D01*
X603555D01*
Y2388743D01*
X605663D01*
Y2396642D01*
X616687D01*
X611087Y2402243D01*
X602386Y2423248D01*
Y2445983D01*
X611087Y2466988D01*
X627164Y2483065D01*
X640687Y2488667D01*
X503326D01*
Y2518054D01*
X411099D01*
Y2610282D01*
X381737D01*
Y2891612D01*
X411099D01*
Y2983840D01*
X503326D01*
Y3013253D01*
X784682D01*
Y2983840D01*
D02*
G37*
G36*
X4464122Y2290661D02*
X4480805Y2283751D01*
X4495131Y2272758D01*
X4506124Y2258432D01*
X4513034Y2241749D01*
X4515391Y2223846D01*
X4513034Y2205943D01*
X4506124Y2189260D01*
X4495131Y2174934D01*
X4480805Y2163942D01*
X4464122Y2157031D01*
X4446219Y2154674D01*
X4428316Y2157031D01*
X4413964Y2162976D01*
X4415155Y2156990D01*
Y2150110D01*
Y2086610D01*
Y2079730D01*
X4412471Y2066236D01*
X4407205Y2053524D01*
X4399561Y2042083D01*
X4389832Y2032354D01*
X4378392Y2024710D01*
X4365680Y2019445D01*
X4352185Y2016760D01*
X4145385D01*
X4131891Y2019445D01*
X4119179Y2024710D01*
X4107738Y2032354D01*
X4098009Y2042083D01*
X4090365Y2053524D01*
X4085100Y2066236D01*
X4082415Y2079730D01*
Y2086610D01*
Y2150110D01*
Y2156990D01*
X4085100Y2170485D01*
X4090365Y2183197D01*
X4098009Y2194637D01*
X4107738Y2204366D01*
X4119179Y2212010D01*
X4131891Y2217276D01*
X4145385Y2219960D01*
X4352185D01*
X4365680Y2217276D01*
X4378392Y2212010D01*
X4378626Y2211854D01*
X4377047Y2223846D01*
X4379404Y2241749D01*
X4386315Y2258432D01*
X4397307Y2272758D01*
X4411633Y2283751D01*
X4428316Y2290661D01*
X4446219Y2293018D01*
X4464122Y2290661D01*
D02*
G37*
G36*
X2099966Y2340547D02*
X2116649Y2333636D01*
X2130975Y2322644D01*
X2141968Y2308318D01*
X2148878Y2291635D01*
X2151235Y2273732D01*
X2148878Y2255829D01*
X2141968Y2239146D01*
X2130975Y2224820D01*
X2116649Y2213827D01*
X2099966Y2206917D01*
X2082063Y2204560D01*
X2064160Y2206917D01*
X2047477Y2213827D01*
X2033152Y2224820D01*
X2022159Y2239146D01*
X2015248Y2255829D01*
X2012892Y2273732D01*
X2015248Y2291635D01*
X2022159Y2308318D01*
X2033152Y2322644D01*
X2047477Y2333636D01*
X2064160Y2340547D01*
X2082063Y2342904D01*
X2099966Y2340547D01*
D02*
G37*
G36*
X7013194Y2202434D02*
X6865874D01*
Y2489454D01*
X7013194D01*
Y2202434D01*
D02*
G37*
G36*
X3684092Y2285670D02*
X3691992D01*
Y2184070D01*
X3684092D01*
Y2181962D01*
X3528289D01*
Y2184070D01*
X3520389D01*
Y2285670D01*
X3528289D01*
Y2287778D01*
X3684092D01*
Y2285670D01*
D02*
G37*
G36*
X2406959Y2443971D02*
X2419671Y2438705D01*
X2431111Y2431061D01*
X2440840Y2421332D01*
X2448484Y2409892D01*
X2453750Y2397180D01*
X2456434Y2383685D01*
Y2376805D01*
Y2351405D01*
Y2344525D01*
X2453750Y2331031D01*
X2448985Y2319527D01*
X2457348Y2320628D01*
X2475251Y2318271D01*
X2491934Y2311361D01*
X2506260Y2300368D01*
X2517253Y2286042D01*
X2524163Y2269359D01*
X2526520Y2251456D01*
X2524163Y2233553D01*
X2524158Y2233539D01*
X2524113Y2233197D01*
X2517202Y2216514D01*
X2506209Y2202189D01*
X2491884Y2191196D01*
X2475201Y2184285D01*
X2457298Y2181929D01*
X2439395Y2184285D01*
X2422712Y2191196D01*
X2408386Y2202189D01*
X2397393Y2216514D01*
X2390483Y2233197D01*
X2388126Y2251100D01*
X2390483Y2269003D01*
X2390488Y2269018D01*
X2390533Y2269359D01*
X2395776Y2282015D01*
X2393464Y2281555D01*
X2380539D01*
Y2183155D01*
X2372639D01*
Y2181047D01*
X2216836D01*
Y2183155D01*
X2208936D01*
Y2284755D01*
X2212564D01*
X2201098Y2289505D01*
X2189657Y2297149D01*
X2179928Y2306878D01*
X2172284Y2318319D01*
X2167019Y2331031D01*
X2164334Y2344525D01*
Y2351405D01*
Y2376805D01*
Y2383685D01*
X2167019Y2397180D01*
X2172284Y2409892D01*
X2179928Y2421332D01*
X2189657Y2431061D01*
X2201098Y2438705D01*
X2213810Y2443971D01*
X2227304Y2446655D01*
X2393464D01*
X2406959Y2443971D01*
D02*
G37*
G36*
X4048502Y2288553D02*
X4065185Y2281643D01*
X4079511Y2270650D01*
X4090504Y2256324D01*
X4097414Y2239641D01*
X4099771Y2221738D01*
X4097414Y2203835D01*
X4090504Y2187152D01*
X4079511Y2172826D01*
X4065185Y2161833D01*
X4048502Y2154923D01*
X4030599Y2152566D01*
X4012696Y2154923D01*
X3996013Y2161833D01*
X3981687Y2172826D01*
X3970694Y2187152D01*
X3963784Y2203835D01*
X3961427Y2221738D01*
X3963784Y2239641D01*
X3970694Y2256324D01*
X3981687Y2270650D01*
X3996013Y2281643D01*
X4012696Y2288553D01*
X4030599Y2290910D01*
X4048502Y2288553D01*
D02*
G37*
G36*
X3298774Y2143557D02*
X3011754D01*
Y2290877D01*
X3298774D01*
Y2143557D01*
D02*
G37*
G36*
X2888717Y2140356D02*
X2601697D01*
Y2287676D01*
X2888717D01*
Y2140356D01*
D02*
G37*
G36*
X1171092Y2203399D02*
Y2127707D01*
X1132992Y2089607D01*
X1057300D01*
X1019200Y2127707D01*
Y2203399D01*
X1057300Y2241499D01*
X1132992D01*
X1171092Y2203399D01*
D02*
G37*
G36*
X3683203Y2178050D02*
X3691103D01*
Y2076450D01*
X3683203D01*
Y2074342D01*
X3527400D01*
Y2076450D01*
X3519500D01*
Y2178050D01*
X3527400D01*
Y2180158D01*
X3683203D01*
Y2178050D01*
D02*
G37*
G36*
X2031267Y2176509D02*
X2043979Y2171243D01*
X2055420Y2163599D01*
X2065149Y2153870D01*
X2072793Y2142430D01*
X2076163Y2134292D01*
X2076210Y2134404D01*
X2087203Y2148730D01*
X2101529Y2159723D01*
X2101577Y2159743D01*
X2101783Y2159900D01*
X2118466Y2166811D01*
X2136369Y2169168D01*
X2154272Y2166811D01*
X2170955Y2159900D01*
X2185280Y2148908D01*
X2196273Y2134582D01*
X2203184Y2117899D01*
X2205540Y2099996D01*
X2203184Y2082093D01*
X2196273Y2065410D01*
X2185280Y2051084D01*
X2170955Y2040091D01*
X2170906Y2040071D01*
X2170701Y2039913D01*
X2154018Y2033003D01*
X2136115Y2030646D01*
X2118212Y2033003D01*
X2101529Y2039913D01*
X2087203Y2050906D01*
X2077858Y2063085D01*
X2072793Y2050857D01*
X2065149Y2039416D01*
X2055420Y2029687D01*
X2043979Y2022043D01*
X2031267Y2016778D01*
X2017772Y2014093D01*
X1851613D01*
X1838118Y2016778D01*
X1825406Y2022043D01*
X1819515Y2025979D01*
X1821518Y2010766D01*
X1821277Y2008937D01*
X1827657D01*
Y2011934D01*
X2048434D01*
Y2008937D01*
X2064055D01*
Y1874114D01*
X2048434D01*
Y1871116D01*
X1827657D01*
Y1874114D01*
X1812036D01*
Y1975900D01*
X1801258Y1961854D01*
X1786932Y1950861D01*
X1770249Y1943951D01*
X1752346Y1941594D01*
X1734443Y1943951D01*
X1717760Y1950861D01*
X1703434Y1961854D01*
X1692441Y1976180D01*
X1688338Y1986086D01*
Y1896567D01*
X1686230D01*
Y1888668D01*
X1584630D01*
Y1896567D01*
X1582522D01*
Y2052371D01*
X1584630D01*
Y2060270D01*
X1686230D01*
Y2052371D01*
X1688338D01*
Y2035445D01*
X1692441Y2045352D01*
X1703434Y2059677D01*
X1717760Y2070670D01*
X1734443Y2077581D01*
X1752346Y2079937D01*
X1770249Y2077581D01*
X1786932Y2070670D01*
X1790452Y2067969D01*
X1788643Y2077063D01*
Y2083943D01*
Y2109343D01*
Y2116223D01*
X1791327Y2129718D01*
X1796593Y2142430D01*
X1804237Y2153870D01*
X1813966Y2163599D01*
X1825406Y2171243D01*
X1838118Y2176509D01*
X1851613Y2179193D01*
X2017772D01*
X2031267Y2176509D01*
D02*
G37*
G36*
X2471594Y2174228D02*
X2488277Y2167317D01*
X2502603Y2156324D01*
X2513595Y2141999D01*
X2520506Y2125316D01*
X2522863Y2107413D01*
X2520506Y2089510D01*
X2513595Y2072827D01*
X2502603Y2058501D01*
X2488277Y2047508D01*
X2471594Y2040598D01*
X2453691Y2038241D01*
X2435788Y2040598D01*
X2419105Y2047508D01*
X2404779Y2058501D01*
X2393786Y2072827D01*
X2386876Y2089510D01*
X2384519Y2107413D01*
X2386876Y2125316D01*
X2393786Y2141999D01*
X2404779Y2156324D01*
X2419105Y2167317D01*
X2435788Y2174228D01*
X2453691Y2176584D01*
X2471594Y2174228D01*
D02*
G37*
G36*
X6774786Y2143671D02*
X6791469Y2136761D01*
X6805794Y2125768D01*
X6816787Y2111442D01*
X6823698Y2094759D01*
X6826054Y2076856D01*
X6823698Y2058953D01*
X6816787Y2042270D01*
X6805794Y2027945D01*
X6791469Y2016952D01*
X6774786Y2010041D01*
X6756883Y2007685D01*
X6738980Y2010041D01*
X6722297Y2016952D01*
X6707971Y2027945D01*
X6696978Y2042270D01*
X6690068Y2058953D01*
X6687711Y2076856D01*
X6690068Y2094759D01*
X6696978Y2111442D01*
X6707971Y2125768D01*
X6722297Y2136761D01*
X6738980Y2143671D01*
X6756883Y2146028D01*
X6774786Y2143671D01*
D02*
G37*
G36*
X4580611Y1977111D02*
X4622902D01*
Y1716303D01*
X4580611D01*
Y1700936D01*
X4304411D01*
Y1716303D01*
X4264153D01*
X4260317Y1707042D01*
X4252673Y1695602D01*
X4242944Y1685872D01*
X4231503Y1678228D01*
X4218791Y1672963D01*
X4205297Y1670279D01*
X4166137D01*
X4152642Y1672963D01*
X4139931Y1678228D01*
X4128490Y1685872D01*
X4118761Y1695602D01*
X4111117Y1707042D01*
X4105851Y1719754D01*
X4103167Y1733249D01*
Y1740129D01*
Y1892529D01*
Y1899408D01*
X4105851Y1912903D01*
X4111117Y1925615D01*
X4118761Y1937055D01*
X4128490Y1946785D01*
X4139931Y1954429D01*
X4152642Y1959694D01*
X4166137Y1962379D01*
X4205297D01*
X4218791Y1959694D01*
X4231503Y1954429D01*
X4242944Y1946785D01*
X4252673Y1937055D01*
X4260317Y1925615D01*
X4262120Y1921262D01*
Y1977111D01*
X4284193D01*
Y1997558D01*
X4580611D01*
Y1977111D01*
D02*
G37*
G36*
X1578026Y2050745D02*
X1580134D01*
Y1894942D01*
X1578026D01*
Y1887042D01*
X1476426D01*
Y1894942D01*
X1474318D01*
Y2050745D01*
X1476426D01*
Y2058645D01*
X1578026D01*
Y2050745D01*
D02*
G37*
G36*
X1426337Y2049018D02*
X1428445D01*
Y1893214D01*
X1426337D01*
Y1885315D01*
X1324737D01*
Y1893214D01*
X1322629D01*
Y2049018D01*
X1324737D01*
Y2056917D01*
X1426337D01*
Y2049018D01*
D02*
G37*
G36*
X2912059Y1876146D02*
X2607920D01*
Y2106930D01*
X2912059D01*
Y1876146D01*
D02*
G37*
G36*
X3802147Y1815097D02*
X3818830Y1808187D01*
X3833156Y1797194D01*
X3844149Y1782868D01*
X3851059Y1766185D01*
X3853416Y1748282D01*
X3851059Y1730379D01*
X3844149Y1713696D01*
X3833156Y1699370D01*
X3818830Y1688377D01*
X3802147Y1681467D01*
X3784244Y1679110D01*
X3784201Y1679116D01*
X3783965Y1679085D01*
X3766062Y1681442D01*
X3749379Y1688352D01*
X3735053Y1699345D01*
X3724060Y1713671D01*
X3717150Y1730354D01*
X3714793Y1748257D01*
X3717150Y1766160D01*
X3724060Y1782843D01*
X3735053Y1797168D01*
X3749379Y1808161D01*
X3766062Y1815072D01*
X3783965Y1817428D01*
X3784008Y1817423D01*
X3784244Y1817454D01*
X3802147Y1815097D01*
D02*
G37*
G36*
X6843573Y1963445D02*
X6845681D01*
Y1807642D01*
X6843573D01*
Y1799742D01*
X6741973D01*
Y1807642D01*
X6739865D01*
Y1963445D01*
X6741973D01*
Y1971345D01*
X6843573D01*
Y1963445D01*
D02*
G37*
G36*
X512115Y1922196D02*
X514223D01*
Y1766392D01*
X512115D01*
Y1758493D01*
X410515D01*
Y1766392D01*
X408407D01*
Y1922196D01*
X410515D01*
Y1930095D01*
X512115D01*
Y1922196D01*
D02*
G37*
G36*
X1676756Y1861871D02*
X1684655D01*
Y1760271D01*
X1676756D01*
Y1758163D01*
X1520952D01*
Y1760271D01*
X1513053D01*
Y1861871D01*
X1520952D01*
Y1863979D01*
X1676756D01*
Y1861871D01*
D02*
G37*
G36*
X630987Y1920723D02*
X633095D01*
Y1764919D01*
X630987D01*
Y1757020D01*
X529387D01*
Y1764919D01*
X527279D01*
Y1920723D01*
X529387D01*
Y1928622D01*
X630987D01*
Y1920723D01*
D02*
G37*
G36*
X2156558Y1882559D02*
X2173241Y1875649D01*
X2187566Y1864656D01*
X2198559Y1850330D01*
X2205470Y1833647D01*
X2207826Y1815744D01*
X2205470Y1797841D01*
X2198559Y1781158D01*
X2187566Y1766833D01*
X2173241Y1755840D01*
X2156558Y1748929D01*
X2138655Y1746573D01*
X2120752Y1748929D01*
X2104069Y1755840D01*
X2089743Y1766833D01*
X2078750Y1781158D01*
X2071840Y1797841D01*
X2069483Y1815744D01*
X2071840Y1833647D01*
X2078750Y1850330D01*
X2089743Y1864656D01*
X2104069Y1875649D01*
X2120752Y1882559D01*
X2138655Y1884916D01*
X2156558Y1882559D01*
D02*
G37*
G36*
X1933952Y1813217D02*
X1950635Y1806307D01*
X1964961Y1795314D01*
X1975954Y1780988D01*
X1982864Y1764305D01*
X1985221Y1746402D01*
X1985206Y1746288D01*
X1985221Y1746174D01*
X1982864Y1728271D01*
X1975954Y1711588D01*
X1971172Y1705356D01*
X2027834D01*
Y1697457D01*
X2029943D01*
Y1541653D01*
X2027834D01*
Y1533754D01*
X1926234D01*
Y1541653D01*
X1924126D01*
Y1678065D01*
X1916049Y1677002D01*
X1898146Y1679359D01*
X1881463Y1686269D01*
X1867137Y1697262D01*
X1863738Y1701691D01*
X1865173Y1694481D01*
Y1687601D01*
Y1535201D01*
Y1528322D01*
X1862488Y1514827D01*
X1857223Y1502115D01*
X1849579Y1490675D01*
X1839850Y1480945D01*
X1828409Y1473301D01*
X1815697Y1468036D01*
X1802202Y1465351D01*
X1763043D01*
X1749548Y1468036D01*
X1736836Y1473301D01*
X1725396Y1480945D01*
X1715667Y1490675D01*
X1708022Y1502115D01*
X1702757Y1514827D01*
X1700073Y1528322D01*
Y1535201D01*
Y1687601D01*
Y1694481D01*
X1702757Y1707976D01*
X1708022Y1720688D01*
X1715667Y1732128D01*
X1725396Y1741858D01*
X1736836Y1749502D01*
X1749548Y1754767D01*
X1763043Y1757451D01*
X1802202D01*
X1815697Y1754767D01*
X1828409Y1749502D01*
X1839850Y1741858D01*
X1848597Y1733110D01*
X1846877Y1746174D01*
X1846892Y1746288D01*
X1846877Y1746402D01*
X1849234Y1764305D01*
X1856144Y1780988D01*
X1867137Y1795314D01*
X1881463Y1806307D01*
X1898146Y1813217D01*
X1916049Y1815574D01*
X1933952Y1813217D01*
D02*
G37*
G36*
X4009572Y1998073D02*
X4022284Y1992808D01*
X4033724Y1985164D01*
X4043453Y1975435D01*
X4051097Y1963994D01*
X4056363Y1951282D01*
X4059047Y1937788D01*
Y1930908D01*
Y1737868D01*
Y1730988D01*
X4056363Y1717493D01*
X4051097Y1704781D01*
X4043453Y1693341D01*
X4033724Y1683612D01*
X4022284Y1675968D01*
X4009572Y1670702D01*
X3996077Y1668018D01*
X3918817D01*
X3905323Y1670702D01*
X3892611Y1675968D01*
X3881170Y1683612D01*
X3871441Y1693341D01*
X3863797Y1704781D01*
X3858532Y1717493D01*
X3855847Y1730988D01*
Y1737868D01*
Y1930908D01*
Y1937788D01*
X3858532Y1951282D01*
X3863797Y1963994D01*
X3871441Y1975435D01*
X3881170Y1985164D01*
X3892611Y1992808D01*
X3905323Y1998073D01*
X3918817Y2000758D01*
X3996077D01*
X4009572Y1998073D01*
D02*
G37*
G36*
X3682289Y1753413D02*
X3690188D01*
Y1651813D01*
X3682289D01*
Y1649705D01*
X3526485D01*
Y1651813D01*
X3518586D01*
Y1753413D01*
X3526485D01*
Y1755521D01*
X3682289D01*
Y1753413D01*
D02*
G37*
G36*
X349529Y1702511D02*
X357429D01*
Y1600911D01*
X349529D01*
Y1598803D01*
X193726D01*
Y1600911D01*
X185826D01*
Y1702511D01*
X193726D01*
Y1704619D01*
X349529D01*
Y1702511D01*
D02*
G37*
G36*
X2378710Y1671193D02*
X2388921D01*
Y1590370D01*
X2378710D01*
Y1588872D01*
X2264918D01*
Y1590370D01*
X2254707D01*
Y1671193D01*
X2264918D01*
Y1672692D01*
X2378710D01*
Y1671193D01*
D02*
G37*
G36*
X4416730Y1678153D02*
X4424629D01*
Y1576553D01*
X4416730D01*
Y1574444D01*
X4260926D01*
Y1576553D01*
X4253027D01*
Y1678153D01*
X4260926D01*
Y1680261D01*
X4416730D01*
Y1678153D01*
D02*
G37*
G36*
X1234643Y1602613D02*
X1242543D01*
Y1501013D01*
X1234643D01*
Y1498905D01*
X1078840D01*
Y1501013D01*
X1073150D01*
Y1493393D01*
X1078840D01*
Y1495501D01*
X1234643D01*
Y1493393D01*
X1242543D01*
Y1391793D01*
X1234643D01*
Y1389685D01*
X1078840D01*
Y1391793D01*
X1070940D01*
Y1417531D01*
X1065017Y1402695D01*
X1049909Y1386792D01*
X1040451Y1382440D01*
X1045396Y1380754D01*
X1062053Y1366482D01*
X1070940Y1349514D01*
Y1381633D01*
X1078840D01*
Y1383741D01*
X1234643D01*
Y1381633D01*
X1242543D01*
Y1280033D01*
X1234643D01*
Y1277925D01*
X1078840D01*
Y1280033D01*
X1073861D01*
Y1270381D01*
X1078840D01*
Y1272489D01*
X1234643D01*
Y1270381D01*
X1242543D01*
Y1168781D01*
X1234643D01*
Y1166673D01*
X1078840D01*
Y1168781D01*
X1070940D01*
Y1210280D01*
X1065160Y1196327D01*
X1049084Y1180250D01*
X1028079Y1171550D01*
X1005343D01*
X984338Y1180250D01*
X968262Y1196327D01*
X959561Y1217332D01*
Y1228700D01*
Y1330300D01*
Y1341267D01*
X967695Y1361638D01*
X982802Y1377541D01*
X992260Y1381892D01*
X987315Y1383578D01*
X970658Y1397850D01*
X960481Y1417281D01*
X959358Y1428191D01*
X959358D01*
X958850Y1428699D01*
Y1535633D01*
Y1547001D01*
X967551Y1568006D01*
X983627Y1584082D01*
X1004632Y1592783D01*
X1027368D01*
X1048373Y1584082D01*
X1064449Y1568006D01*
X1070940Y1552336D01*
Y1602613D01*
X1078840D01*
Y1604721D01*
X1234643D01*
Y1602613D01*
D02*
G37*
G36*
X4089425Y1515415D02*
X3802405D01*
Y1662735D01*
X4089425D01*
Y1515415D01*
D02*
G37*
G36*
X2378888Y1578458D02*
X2389099D01*
Y1497635D01*
X2378888D01*
Y1496136D01*
X2265096D01*
Y1497635D01*
X2254885D01*
Y1578458D01*
X2265096D01*
Y1579956D01*
X2378888D01*
Y1578458D01*
D02*
G37*
G36*
X349631Y1592936D02*
X357530D01*
Y1491336D01*
X349631D01*
Y1489227D01*
X193827D01*
Y1491336D01*
X185928D01*
Y1592936D01*
X193827D01*
Y1595044D01*
X349631D01*
Y1592936D01*
D02*
G37*
G36*
X2156558Y1575194D02*
X2173241Y1568284D01*
X2187566Y1557291D01*
X2198559Y1542965D01*
X2205470Y1526282D01*
X2207826Y1508379D01*
X2205470Y1490476D01*
X2198559Y1473793D01*
X2187566Y1459467D01*
X2173241Y1448474D01*
X2156558Y1441564D01*
X2138655Y1439207D01*
X2120752Y1441564D01*
X2104069Y1448474D01*
X2089743Y1459467D01*
X2078750Y1473793D01*
X2071840Y1490476D01*
X2069483Y1508379D01*
X2071840Y1526282D01*
X2078750Y1542965D01*
X2089743Y1557291D01*
X2104069Y1568284D01*
X2120752Y1575194D01*
X2138655Y1577551D01*
X2156558Y1575194D01*
D02*
G37*
G36*
X4469740Y1565453D02*
X4471848D01*
Y1409649D01*
X4469740D01*
Y1401750D01*
X4368140D01*
Y1409649D01*
X4366031D01*
Y1565453D01*
X4368140D01*
Y1573352D01*
X4469740D01*
Y1565453D01*
D02*
G37*
G36*
X4358996Y1564335D02*
X4361104D01*
Y1408532D01*
X4358996D01*
Y1400632D01*
X4257396D01*
Y1408532D01*
X4255287D01*
Y1564335D01*
X4257396D01*
Y1572235D01*
X4358996D01*
Y1564335D01*
D02*
G37*
G36*
X4637329Y1562151D02*
X4639437D01*
Y1406347D01*
X4637329D01*
Y1398448D01*
X4535729D01*
Y1406347D01*
X4533621D01*
Y1562151D01*
X4535729D01*
Y1570050D01*
X4637329D01*
Y1562151D01*
D02*
G37*
G36*
X350190Y1482700D02*
X358089D01*
Y1381100D01*
X350190D01*
Y1378991D01*
X194386D01*
Y1381100D01*
X186487D01*
Y1482700D01*
X194386D01*
Y1484808D01*
X350190D01*
Y1482700D01*
D02*
G37*
G36*
X2377237Y1453515D02*
X2385136D01*
Y1351915D01*
X2377237D01*
Y1349807D01*
X2221433D01*
Y1351915D01*
X2213534D01*
Y1453515D01*
X2221433D01*
Y1455623D01*
X2377237D01*
Y1453515D01*
D02*
G37*
G36*
X1634998Y1722526D02*
X1677289D01*
Y1461719D01*
X1655216D01*
Y1442796D01*
X1765652D01*
X1779147Y1440112D01*
X1791858Y1434846D01*
X1803299Y1427202D01*
X1813028Y1417473D01*
X1820672Y1406032D01*
X1825938Y1393321D01*
X1828622Y1379826D01*
Y1372946D01*
Y1347546D01*
Y1340666D01*
X1825938Y1327172D01*
X1820672Y1314460D01*
X1813028Y1303019D01*
X1803299Y1293290D01*
X1791858Y1285646D01*
X1779147Y1280380D01*
X1765652Y1277696D01*
X1599492D01*
X1585998Y1280380D01*
X1573286Y1285646D01*
X1561845Y1293290D01*
X1557558Y1297577D01*
X1558577Y1289837D01*
X1556220Y1271934D01*
X1549310Y1255251D01*
X1538317Y1240926D01*
X1523991Y1229933D01*
X1507308Y1223022D01*
X1489405Y1220666D01*
X1471502Y1223022D01*
X1454819Y1229933D01*
X1440493Y1240926D01*
X1429501Y1255251D01*
X1422590Y1271934D01*
X1420233Y1289837D01*
X1422590Y1307740D01*
X1429501Y1324423D01*
X1440493Y1338749D01*
X1454819Y1349742D01*
X1471502Y1356652D01*
X1489405Y1359009D01*
X1507308Y1356652D01*
X1523991Y1349742D01*
X1536649Y1340029D01*
X1536522Y1340666D01*
Y1347546D01*
Y1372946D01*
Y1379826D01*
X1539206Y1393321D01*
X1544472Y1406032D01*
X1552116Y1417473D01*
X1561845Y1427202D01*
X1573286Y1434846D01*
X1585998Y1440112D01*
X1591831Y1441272D01*
X1358798D01*
Y1461719D01*
X1316507D01*
Y1722526D01*
X1358798D01*
Y1737893D01*
X1634998D01*
Y1722526D01*
D02*
G37*
G36*
X6461735Y1314856D02*
X5090135D01*
Y2534056D01*
X6461735D01*
Y1314856D01*
D02*
G37*
G36*
X2156558Y1427366D02*
X2173241Y1420456D01*
X2187566Y1409463D01*
X2198559Y1395137D01*
X2205470Y1378454D01*
X2207826Y1360551D01*
X2205470Y1342648D01*
X2198559Y1325965D01*
X2187566Y1311639D01*
X2173241Y1300646D01*
X2156558Y1293736D01*
X2138655Y1291379D01*
X2120752Y1293736D01*
X2104069Y1300646D01*
X2089743Y1311639D01*
X2078750Y1325965D01*
X2071840Y1342648D01*
X2069483Y1360551D01*
X2071840Y1378454D01*
X2078750Y1395137D01*
X2089743Y1409463D01*
X2104069Y1420456D01*
X2120752Y1427366D01*
X2138655Y1429723D01*
X2156558Y1427366D01*
D02*
G37*
G36*
X330606Y1347191D02*
X340817D01*
Y1266368D01*
X330606D01*
Y1264869D01*
X216814D01*
Y1266368D01*
X206604D01*
Y1347191D01*
X216814D01*
Y1348689D01*
X330606D01*
Y1347191D01*
D02*
G37*
G36*
X1920769Y1376795D02*
X1937452Y1369884D01*
X1951778Y1358891D01*
X1962771Y1344566D01*
X1969681Y1327883D01*
X1972038Y1309980D01*
X1969681Y1292077D01*
X1962771Y1275394D01*
X1951778Y1261068D01*
X1937452Y1250075D01*
X1920769Y1243165D01*
X1902866Y1240808D01*
X1884963Y1243165D01*
X1868280Y1250075D01*
X1853955Y1261068D01*
X1842962Y1275394D01*
X1836051Y1292077D01*
X1833695Y1309980D01*
X1836051Y1327883D01*
X1842962Y1344566D01*
X1853955Y1358891D01*
X1868280Y1369884D01*
X1884963Y1376795D01*
X1902866Y1379151D01*
X1920769Y1376795D01*
D02*
G37*
G36*
X579082Y1054696D02*
X595159Y1038619D01*
X603860Y1017614D01*
Y1006246D01*
Y904646D01*
Y893279D01*
X595159Y872274D01*
X579082Y856197D01*
X558077Y847496D01*
X535342D01*
X514337Y856197D01*
X498260Y872274D01*
X489560Y893279D01*
Y904646D01*
Y909650D01*
X420954D01*
Y919861D01*
X419456D01*
Y1033653D01*
X420954D01*
Y1043864D01*
X501777D01*
Y1042136D01*
X514337Y1054696D01*
X535342Y1063396D01*
X558077D01*
X579082Y1054696D01*
D02*
G37*
G36*
X6644462Y1036803D02*
X6357442D01*
Y1184123D01*
X6644462D01*
Y1036803D01*
D02*
G37*
G36*
X6349771Y1036625D02*
X6062751D01*
Y1183945D01*
X6349771D01*
Y1036625D01*
D02*
G37*
G36*
X1811252Y1223425D02*
X1823964Y1218159D01*
X1835405Y1210515D01*
X1845134Y1200786D01*
X1852778Y1189345D01*
X1858044Y1176633D01*
X1860728Y1163139D01*
Y1156259D01*
Y1114603D01*
X1871633Y1122971D01*
X1888316Y1129881D01*
X1906219Y1132238D01*
X1924122Y1129881D01*
X1940805Y1122971D01*
X1955131Y1111978D01*
X1966124Y1097652D01*
X1973034Y1080969D01*
X1975391Y1063066D01*
X1973034Y1045163D01*
X1966124Y1028480D01*
X1955131Y1014154D01*
X1940805Y1003162D01*
X1924122Y996251D01*
X1906219Y993894D01*
X1888316Y996251D01*
X1871633Y1003162D01*
X1857307Y1014154D01*
X1846315Y1028480D01*
X1840184Y1043282D01*
X1835405Y1038503D01*
X1823964Y1030859D01*
X1811252Y1025593D01*
X1803019Y1023956D01*
Y1023849D01*
X1818640D01*
Y889025D01*
X1803019D01*
Y886028D01*
X1582242D01*
Y889025D01*
X1566621D01*
Y951550D01*
X1564220Y945752D01*
X1553227Y931427D01*
X1538901Y920434D01*
X1522218Y913523D01*
X1504315Y911167D01*
X1486412Y913523D01*
X1469729Y920434D01*
X1455403Y931427D01*
X1444410Y945752D01*
X1437500Y962435D01*
X1435143Y980338D01*
X1437500Y998241D01*
X1444410Y1014924D01*
X1455403Y1029250D01*
X1469729Y1040243D01*
X1486412Y1047153D01*
X1504315Y1049510D01*
X1522218Y1047153D01*
X1538901Y1040243D01*
X1553227Y1029250D01*
X1564220Y1014924D01*
X1566621Y1009127D01*
Y1023849D01*
X1582242D01*
Y1024643D01*
X1577463Y1025593D01*
X1564752Y1030859D01*
X1553311Y1038503D01*
X1543582Y1048232D01*
X1535938Y1059673D01*
X1530672Y1072384D01*
X1527988Y1085879D01*
Y1092759D01*
Y1156259D01*
Y1163139D01*
X1530672Y1176633D01*
X1535938Y1189345D01*
X1543582Y1200786D01*
X1553311Y1210515D01*
X1564752Y1218159D01*
X1577463Y1223425D01*
X1590958Y1226109D01*
X1797758D01*
X1811252Y1223425D01*
D02*
G37*
G36*
X4592501Y1137420D02*
X4605213Y1132154D01*
X4616654Y1124510D01*
X4626383Y1114781D01*
X4634027Y1103341D01*
X4639292Y1090629D01*
X4641977Y1077134D01*
Y1070254D01*
Y1044854D01*
Y1037975D01*
X4639292Y1024480D01*
X4634027Y1011768D01*
X4626383Y1000327D01*
X4616654Y990598D01*
X4605213Y982954D01*
X4592501Y977689D01*
X4579007Y975004D01*
X4412847D01*
X4399352Y977689D01*
X4386640Y982954D01*
X4375200Y990598D01*
X4365471Y1000327D01*
X4357827Y1011768D01*
X4352561Y1024480D01*
X4349877Y1037975D01*
Y1044854D01*
Y1070254D01*
Y1077134D01*
X4352561Y1090629D01*
X4357827Y1103341D01*
X4365471Y1114781D01*
X4375200Y1124510D01*
X4386640Y1132154D01*
X4399352Y1137420D01*
X4412847Y1140104D01*
X4579007D01*
X4592501Y1137420D01*
D02*
G37*
G36*
X4089425Y1352855D02*
X3936975D01*
Y1337996D01*
X3939972D01*
Y1117219D01*
X3936975D01*
Y1103274D01*
X4087927D01*
Y955954D01*
X3800907D01*
Y1103274D01*
X3802151D01*
Y1117219D01*
X3799154D01*
Y1337996D01*
X3802151D01*
Y1353617D01*
X3802405D01*
Y1500175D01*
X4089425D01*
Y1352855D01*
D02*
G37*
G36*
X3173019Y1731645D02*
X3252876D01*
Y1651787D01*
X3292323D01*
Y1060679D01*
X3252876D01*
Y980821D01*
X3173019D01*
Y941375D01*
X2581910D01*
Y980821D01*
X2502052D01*
Y1060679D01*
X2462606D01*
Y1651787D01*
X2502052D01*
Y1731645D01*
X2581910D01*
Y1771091D01*
X3173019D01*
Y1731645D01*
D02*
G37*
G36*
X3651885Y1001090D02*
X3659784D01*
Y899490D01*
X3651885D01*
Y897382D01*
X3496081D01*
Y899490D01*
X3488182D01*
Y1001090D01*
X3496081D01*
Y1003198D01*
X3651885D01*
Y1001090D01*
D02*
G37*
G36*
X368046Y1008050D02*
X369545D01*
Y894258D01*
X368046D01*
Y884047D01*
X287223D01*
Y894258D01*
X285725D01*
Y1008050D01*
X287223D01*
Y1018261D01*
X368046D01*
Y1008050D01*
D02*
G37*
G36*
X4250991Y1018477D02*
X4267674Y1011566D01*
X4282000Y1000574D01*
X4292992Y986248D01*
X4299903Y969565D01*
X4302260Y951662D01*
X4299903Y933759D01*
X4292992Y917076D01*
X4282000Y902750D01*
X4267674Y891757D01*
X4250991Y884847D01*
X4233088Y882490D01*
X4215185Y884847D01*
X4198502Y891757D01*
X4184176Y902750D01*
X4173183Y917076D01*
X4166273Y933759D01*
X4163916Y951662D01*
X4166273Y969565D01*
X4173183Y986248D01*
X4184176Y1000574D01*
X4198502Y1011566D01*
X4215185Y1018477D01*
X4233088Y1020834D01*
X4250991Y1018477D01*
D02*
G37*
G36*
X738403Y1921027D02*
X740512D01*
Y1772437D01*
X745439D01*
Y1920519D01*
X747547D01*
Y1928419D01*
X849147D01*
Y1920519D01*
X851256D01*
Y1764716D01*
X849147D01*
Y1756816D01*
X831929D01*
X839950Y1749197D01*
X849117Y1729269D01*
X850242Y1707364D01*
X843163Y1686602D01*
X828891Y1669946D01*
X809460Y1659769D01*
X798551Y1658646D01*
Y1658645D01*
X798043Y1658137D01*
X786359D01*
Y1638859D01*
X878586D01*
Y1546631D01*
X907948D01*
Y1265301D01*
X878586D01*
Y1173074D01*
X791439D01*
Y1143686D01*
X781794D01*
X788487Y1141013D01*
X804390Y1125906D01*
X813557Y1105979D01*
X814682Y1084073D01*
X807603Y1063312D01*
X793331Y1046655D01*
X791639Y1045769D01*
X818363D01*
Y1037869D01*
X820471D01*
Y882066D01*
X818363D01*
Y874166D01*
X716763D01*
Y882066D01*
X714654D01*
Y1034847D01*
X709981D01*
Y883996D01*
X707873D01*
Y876097D01*
X606273D01*
Y883996D01*
X604164D01*
Y1039800D01*
X606273D01*
Y1047699D01*
X619024D01*
X607099Y1059624D01*
X598399Y1080629D01*
Y1103365D01*
X607099Y1124370D01*
X623176Y1140446D01*
X630997Y1143686D01*
X505003D01*
Y1173074D01*
X412775D01*
Y1265301D01*
X383413D01*
Y1546631D01*
X412775D01*
Y1638859D01*
X505003D01*
Y1668272D01*
X657302D01*
X642659Y1682915D01*
X633959Y1703920D01*
Y1726655D01*
X642659Y1747660D01*
X652323Y1757324D01*
X636803D01*
Y1765224D01*
X634695D01*
Y1921027D01*
X636803D01*
Y1928927D01*
X738403D01*
Y1921027D01*
D02*
G37*
G36*
X2411298Y1346835D02*
X2419198D01*
Y1245235D01*
X2411298D01*
Y1243127D01*
X2340610D01*
Y1235507D01*
X2342109D01*
Y1121715D01*
X2340737D01*
Y1112723D01*
X2342236D01*
Y998931D01*
X2340737D01*
Y988720D01*
X2340458D01*
Y987654D01*
X2341956D01*
Y873862D01*
X2340458D01*
Y863651D01*
X2259635D01*
Y873862D01*
X2258136D01*
Y987654D01*
X2259635D01*
Y997864D01*
X2259914D01*
Y998931D01*
X2258416D01*
Y1112723D01*
X2259787D01*
Y1121715D01*
X2258289D01*
Y1235507D01*
X2259787D01*
Y1243127D01*
X2255495D01*
Y1245235D01*
X2247595D01*
Y1346835D01*
X2255495D01*
Y1348943D01*
X2411298D01*
Y1346835D01*
D02*
G37*
G36*
X280645Y1026744D02*
X282753D01*
Y870941D01*
X280645D01*
Y863041D01*
X179045D01*
Y870941D01*
X176936D01*
Y1026744D01*
X179045D01*
Y1034644D01*
X280645D01*
Y1026744D01*
D02*
G37*
G36*
X1327095Y986676D02*
X1343778Y979766D01*
X1358104Y968773D01*
X1369097Y954447D01*
X1376007Y937764D01*
X1378364Y919861D01*
X1376007Y901958D01*
X1369097Y885275D01*
X1358104Y870949D01*
X1343778Y859956D01*
X1327095Y853046D01*
X1309192Y850689D01*
X1291289Y853046D01*
X1274606Y859956D01*
X1260280Y870949D01*
X1249288Y885275D01*
X1242377Y901958D01*
X1240020Y919861D01*
X1242377Y937764D01*
X1249288Y954447D01*
X1260280Y968773D01*
X1274606Y979766D01*
X1291289Y986676D01*
X1309192Y989033D01*
X1327095Y986676D01*
D02*
G37*
G36*
X5164531Y998347D02*
X5166639D01*
Y842543D01*
X5164531D01*
Y834644D01*
X5062931D01*
Y842543D01*
X5060823D01*
Y998347D01*
X5062931D01*
Y1006246D01*
X5164531D01*
Y998347D01*
D02*
G37*
G36*
X1082878Y771246D02*
X952051D01*
X955104Y763876D01*
X957461Y745973D01*
X955104Y728070D01*
X948193Y711387D01*
X944347Y706374D01*
X985948D01*
X999443Y703689D01*
X1012155Y698424D01*
X1023595Y690780D01*
X1033325Y681051D01*
X1040969Y669610D01*
X1046234Y656898D01*
X1048918Y643404D01*
Y636524D01*
Y443484D01*
Y436604D01*
X1046234Y423109D01*
X1040969Y410397D01*
X1033325Y398957D01*
X1023595Y389228D01*
X1012155Y381584D01*
X999443Y376318D01*
X985948Y373634D01*
X908689D01*
X895194Y376318D01*
X882482Y381584D01*
X871042Y389228D01*
X861312Y398957D01*
X853668Y410397D01*
X848403Y423109D01*
X845718Y436604D01*
Y443484D01*
Y636524D01*
Y643404D01*
X848403Y656898D01*
X853668Y669610D01*
X861312Y681051D01*
X862631Y682370D01*
X853703Y686068D01*
X839377Y697061D01*
X828384Y711387D01*
X821474Y728070D01*
X819117Y745973D01*
X821474Y763876D01*
X828384Y780559D01*
X839377Y794884D01*
X853703Y805877D01*
X870386Y812788D01*
X888289Y815144D01*
X906192Y812788D01*
X922875Y805877D01*
X935558Y796145D01*
Y1058266D01*
X1082878D01*
Y771246D01*
D02*
G37*
G36*
X1231544Y770484D02*
X1084224D01*
Y1057504D01*
X1231544D01*
Y770484D01*
D02*
G37*
G36*
X7204634Y863295D02*
Y787603D01*
X7166534Y749503D01*
X7090842D01*
X7052742Y787603D01*
Y863295D01*
X7090842Y901395D01*
X7166534D01*
X7204634Y863295D01*
D02*
G37*
G36*
X6646164Y747522D02*
X6359144D01*
Y894842D01*
X6646164D01*
Y747522D01*
D02*
G37*
G36*
X2259711Y834974D02*
X2267610D01*
Y733374D01*
X2259711D01*
Y731266D01*
X2103907D01*
Y733374D01*
X2096008D01*
Y834974D01*
X2103907D01*
Y837082D01*
X2259711D01*
Y834974D01*
D02*
G37*
G36*
X5636993Y866128D02*
X5653676Y859217D01*
X5668001Y848224D01*
X5678994Y833899D01*
X5685905Y817216D01*
X5688261Y799313D01*
X5685905Y781410D01*
X5678994Y764727D01*
X5668001Y750401D01*
X5653676Y739408D01*
X5636993Y732498D01*
X5619090Y730141D01*
X5601187Y732498D01*
X5584504Y739408D01*
X5570178Y750401D01*
X5559185Y764727D01*
X5552275Y781410D01*
X5549918Y799313D01*
X5552275Y817216D01*
X5559185Y833899D01*
X5570178Y848224D01*
X5584504Y859217D01*
X5601187Y866128D01*
X5619090Y868484D01*
X5636993Y866128D01*
D02*
G37*
G36*
X4087927Y796290D02*
X4145149D01*
X4158644Y793606D01*
X4171356Y788340D01*
X4182797Y780696D01*
X4192526Y770967D01*
X4200170Y759527D01*
X4205435Y746815D01*
X4208120Y733320D01*
Y726440D01*
Y662940D01*
Y656060D01*
X4205435Y642566D01*
X4200170Y629854D01*
X4192526Y618413D01*
X4182797Y608684D01*
X4171356Y601040D01*
X4158644Y595775D01*
X4145149Y593090D01*
X3938350D01*
X3924855Y595775D01*
X3912143Y601040D01*
X3900703Y608684D01*
X3890974Y618413D01*
X3883918Y628973D01*
X3879740Y623528D01*
X3865414Y612535D01*
X3848731Y605625D01*
X3830828Y603268D01*
X3812925Y605625D01*
X3796242Y612535D01*
X3781916Y623528D01*
X3771646Y636912D01*
Y625983D01*
X3769538D01*
Y618084D01*
X3667938D01*
Y618414D01*
X3572535D01*
Y618439D01*
X3474288D01*
Y619100D01*
X3422345D01*
Y604241D01*
X3425342D01*
Y404179D01*
X3430498Y416626D01*
X3438142Y428067D01*
X3447872Y437796D01*
X3459312Y445440D01*
X3472024Y450705D01*
X3485519Y453390D01*
X3524678D01*
X3538173Y450705D01*
X3550885Y445440D01*
X3562325Y437796D01*
X3572055Y428067D01*
X3579699Y416626D01*
X3581408Y412500D01*
X3585884Y423308D01*
X3596877Y437633D01*
X3611203Y448626D01*
X3627886Y455537D01*
X3645789Y457893D01*
X3663692Y455537D01*
X3680375Y448626D01*
X3694701Y437633D01*
X3705694Y423308D01*
X3712604Y406625D01*
X3714961Y388722D01*
X3713309Y376174D01*
X3804310D01*
Y404089D01*
Y410968D01*
X3806995Y424463D01*
X3812260Y437175D01*
X3819904Y448615D01*
X3829634Y458345D01*
X3841074Y465989D01*
X3853786Y471254D01*
X3867281Y473939D01*
X3944540D01*
X3958035Y471254D01*
X3970747Y465989D01*
X3982187Y458345D01*
X3985851Y454681D01*
X3986085Y456459D01*
X3992996Y473142D01*
X4003988Y487468D01*
X4018314Y498461D01*
X4034997Y505371D01*
X4052900Y507728D01*
X4070803Y505371D01*
X4087486Y498461D01*
X4101812Y487468D01*
X4112805Y473142D01*
X4119715Y456459D01*
X4122072Y438556D01*
X4119715Y420653D01*
X4112805Y403970D01*
X4101812Y389645D01*
X4087486Y378652D01*
X4070803Y371741D01*
X4052900Y369385D01*
X4034997Y371741D01*
X4018314Y378652D01*
X4007510Y386942D01*
Y211049D01*
Y204169D01*
X4004826Y190674D01*
X3999561Y177962D01*
X3991917Y166522D01*
X3982187Y156792D01*
X3970747Y149148D01*
X3958035Y143883D01*
X3944540Y141199D01*
X3867281D01*
X3853786Y143883D01*
X3841074Y149148D01*
X3829634Y156792D01*
X3819904Y166522D01*
X3812260Y177962D01*
X3806995Y190674D01*
X3804310Y204169D01*
Y204572D01*
X3707816D01*
Y212471D01*
X3705708D01*
Y354169D01*
X3705694Y354136D01*
X3694701Y339810D01*
X3680375Y328817D01*
X3663692Y321907D01*
X3645789Y319550D01*
X3627886Y321907D01*
X3611203Y328817D01*
X3596877Y339810D01*
X3587648Y351837D01*
Y231140D01*
Y224260D01*
X3584964Y210765D01*
X3579699Y198053D01*
X3572055Y186613D01*
X3562325Y176884D01*
X3550885Y169240D01*
X3538173Y163974D01*
X3524678Y161290D01*
X3485519D01*
X3472024Y163974D01*
X3459312Y169240D01*
X3447872Y176884D01*
X3438142Y186613D01*
X3430498Y198053D01*
X3425233Y210765D01*
X3422548Y224260D01*
Y231140D01*
Y383464D01*
X3422345D01*
Y367843D01*
X3288081D01*
X3284855Y360055D01*
X3277211Y348614D01*
X3267482Y338885D01*
X3256041Y331241D01*
X3243330Y325976D01*
X3229835Y323291D01*
X3152575D01*
X3139081Y325976D01*
X3126369Y331241D01*
X3114928Y338885D01*
X3110054Y343759D01*
X3105136Y331885D01*
X3094143Y317559D01*
X3079817Y306567D01*
X3063134Y299656D01*
X3045231Y297299D01*
X3027328Y299656D01*
X3010645Y306567D01*
X2996320Y317559D01*
X2985327Y331885D01*
X2981477Y341178D01*
Y251054D01*
X2694457D01*
Y398374D01*
X2981477D01*
Y391764D01*
X2985327Y401057D01*
X2996320Y415383D01*
X3010645Y426376D01*
X3025242Y432422D01*
X3011687Y438037D01*
X2997361Y449030D01*
X2986368Y463356D01*
X2981223Y475776D01*
Y401320D01*
X2694203D01*
Y548640D01*
X2981223D01*
Y520107D01*
X2986368Y532528D01*
X2997361Y546853D01*
X3011687Y557846D01*
X3028370Y564757D01*
X3046273Y567113D01*
X3064176Y564757D01*
X3080859Y557846D01*
X3089605Y551135D01*
Y586181D01*
Y593061D01*
X3092289Y606556D01*
X3097555Y619268D01*
X3105199Y630708D01*
X3114928Y640437D01*
X3126369Y648082D01*
X3139081Y653347D01*
X3152575Y656031D01*
X3229835D01*
X3243330Y653347D01*
X3256041Y648082D01*
X3267482Y640437D01*
X3277211Y630708D01*
X3284855Y619268D01*
X3287522Y612830D01*
Y619862D01*
X3376778D01*
Y626999D01*
X3374669D01*
Y675488D01*
X3295599D01*
Y675869D01*
X3256331D01*
Y675589D01*
X3202026D01*
Y675234D01*
X3121203D01*
Y685444D01*
X3119704D01*
Y799236D01*
X3121203D01*
Y809447D01*
X3175508D01*
Y809803D01*
X3232785D01*
Y810082D01*
X3313608D01*
Y809701D01*
X3376422D01*
Y799490D01*
X3377921D01*
Y790702D01*
X3478378D01*
Y790042D01*
X3496081D01*
Y791820D01*
X3488182D01*
Y893420D01*
X3496081D01*
Y895528D01*
X3651885D01*
Y893420D01*
X3659784D01*
Y791820D01*
X3651885D01*
Y790016D01*
X3674135D01*
Y789686D01*
X3769538D01*
Y781787D01*
X3771646D01*
Y707967D01*
X3781916Y721351D01*
X3796242Y732344D01*
X3812925Y739255D01*
X3830828Y741611D01*
X3848731Y739255D01*
X3865414Y732344D01*
X3875380Y724697D01*
Y726440D01*
Y733320D01*
X3878064Y746815D01*
X3883330Y759527D01*
X3890974Y770967D01*
X3900703Y780696D01*
X3912143Y788340D01*
X3924345Y793394D01*
X3800907D01*
Y940714D01*
X4087927D01*
Y796290D01*
D02*
G37*
G36*
X4679197Y937620D02*
X4692710D01*
Y681842D01*
X4679197D01*
Y669192D01*
X4450445D01*
Y681842D01*
X4436932D01*
Y937620D01*
X4446914D01*
Y950269D01*
X4679197D01*
Y937620D01*
D02*
G37*
G36*
X5974283Y715950D02*
X5984494D01*
Y635127D01*
X5974283D01*
Y633628D01*
X5860491D01*
Y635127D01*
X5850280D01*
Y715950D01*
X5860491D01*
Y717448D01*
X5974283D01*
Y715950D01*
D02*
G37*
G36*
X4343048Y889084D02*
X4355760Y883819D01*
X4367201Y876175D01*
X4376930Y866445D01*
X4384574Y855005D01*
X4389839Y842293D01*
X4392524Y828798D01*
Y821919D01*
Y669519D01*
Y662639D01*
X4389839Y649144D01*
X4384574Y636432D01*
X4376930Y624992D01*
X4367201Y615262D01*
X4355760Y607618D01*
X4343048Y602353D01*
X4329553Y599669D01*
X4290394D01*
X4276899Y602353D01*
X4264187Y607618D01*
X4252747Y615262D01*
X4243018Y624992D01*
X4235374Y636432D01*
X4230108Y649144D01*
X4227424Y662639D01*
Y669519D01*
Y821919D01*
Y828798D01*
X4230108Y842293D01*
X4235374Y855005D01*
X4243018Y866445D01*
X4252747Y876175D01*
X4264187Y883819D01*
X4276899Y889084D01*
X4290394Y891769D01*
X4329553D01*
X4343048Y889084D01*
D02*
G37*
G36*
X2625776Y586257D02*
X2321636D01*
Y817042D01*
X2625776D01*
Y586257D01*
D02*
G37*
G36*
X1510690Y857555D02*
X1518590D01*
Y770382D01*
X1544545D01*
X1558040Y767698D01*
X1570752Y762432D01*
X1582192Y754788D01*
X1591921Y745059D01*
X1599566Y733619D01*
X1604831Y720907D01*
X1607515Y707412D01*
Y700532D01*
Y637032D01*
Y630152D01*
X1604831Y616658D01*
X1599566Y603946D01*
X1591921Y592505D01*
X1582192Y582776D01*
X1570752Y575132D01*
X1558040Y569867D01*
X1544545Y567182D01*
X1337746D01*
X1324251Y569867D01*
X1311539Y575132D01*
X1300098Y582776D01*
X1290369Y592505D01*
X1282725Y603946D01*
X1277460Y616658D01*
X1274775Y630152D01*
Y637032D01*
Y700532D01*
Y707412D01*
X1277460Y720907D01*
X1282725Y733619D01*
X1290369Y745059D01*
X1300098Y754788D01*
X1311539Y762432D01*
X1324251Y767698D01*
X1337746Y770382D01*
X1346987D01*
Y857555D01*
X1354887D01*
Y859663D01*
X1510690D01*
Y857555D01*
D02*
G37*
G36*
X6557188Y715594D02*
X6559296D01*
Y559791D01*
X6557188D01*
Y551891D01*
X6455588D01*
Y559791D01*
X6453480D01*
Y715594D01*
X6455588D01*
Y723494D01*
X6557188D01*
Y715594D01*
D02*
G37*
G36*
X1700247Y777812D02*
X1716930Y770901D01*
X1731255Y759909D01*
X1742248Y745583D01*
X1749159Y728900D01*
X1751515Y710997D01*
X1749159Y693094D01*
X1742248Y676411D01*
X1731255Y662085D01*
X1726596Y658510D01*
X1744067Y662704D01*
X1785518Y665967D01*
X1826970Y662704D01*
X1867401Y652998D01*
X1902498Y638460D01*
X1901767Y644017D01*
X1904123Y661920D01*
X1911034Y678603D01*
X1922027Y692929D01*
X1936352Y703922D01*
X1953035Y710832D01*
X1970938Y713189D01*
X1988841Y710832D01*
X2005524Y703922D01*
X2019850Y692929D01*
X2030843Y678603D01*
X2037753Y661920D01*
X2040110Y644017D01*
X2037753Y626114D01*
X2030843Y609431D01*
X2019850Y595105D01*
X2005524Y584112D01*
X1988841Y577202D01*
X1983062Y576441D01*
X1999889Y556739D01*
X2021614Y521287D01*
X2037526Y482872D01*
X2037563Y482721D01*
Y534873D01*
Y541753D01*
X2040247Y555248D01*
X2045513Y567959D01*
X2053157Y579400D01*
X2062886Y589129D01*
X2074326Y596773D01*
X2087038Y602039D01*
X2100533Y604723D01*
X2177792D01*
X2191287Y602039D01*
X2203999Y596773D01*
X2215440Y589129D01*
X2215565Y589004D01*
X2216024Y588697D01*
X2225753Y578968D01*
X2233397Y567528D01*
X2238663Y554816D01*
X2241347Y541321D01*
Y534441D01*
Y341401D01*
Y334522D01*
X2238663Y321027D01*
X2233397Y308315D01*
X2225753Y296874D01*
X2216024Y287145D01*
X2204583Y279501D01*
X2191871Y274236D01*
X2178377Y271551D01*
X2101117D01*
X2087622Y274236D01*
X2074911Y279501D01*
X2063470Y287145D01*
X2063345Y287270D01*
X2062886Y287577D01*
X2053157Y297306D01*
X2045513Y308747D01*
X2040247Y321459D01*
X2039270Y326371D01*
X2037526Y319108D01*
X2021614Y280693D01*
X1999889Y245240D01*
X1972885Y213623D01*
X1941268Y186619D01*
X1905815Y164894D01*
X1867401Y148982D01*
X1826970Y139275D01*
X1785518Y136013D01*
X1744067Y139275D01*
X1703636Y148982D01*
X1665221Y164894D01*
X1653393Y172142D01*
X1629769Y186619D01*
X1598151Y213623D01*
X1571148Y245240D01*
X1549422Y280693D01*
X1533511Y319108D01*
X1523804Y359538D01*
X1520542Y400990D01*
X1521831Y417373D01*
X1257656D01*
Y549453D01*
X1547216D01*
Y515959D01*
X1549422Y521287D01*
X1571148Y556739D01*
X1598151Y588357D01*
X1629769Y615360D01*
X1653393Y629838D01*
X1665221Y637086D01*
X1678033Y642392D01*
X1664441Y644182D01*
X1647758Y651092D01*
X1633432Y662085D01*
X1622439Y676411D01*
X1615529Y693094D01*
X1613172Y710997D01*
X1615529Y728900D01*
X1622439Y745583D01*
X1633432Y759909D01*
X1647758Y770901D01*
X1664441Y777812D01*
X1682344Y780169D01*
X1700247Y777812D01*
D02*
G37*
G36*
X5822417Y499593D02*
X5399151D01*
Y499542D01*
X4972431D01*
Y687502D01*
X5395697D01*
Y687553D01*
X5822417D01*
Y499593D01*
D02*
G37*
G36*
X3723788Y613525D02*
X3740471Y606614D01*
X3754797Y595621D01*
X3765790Y581296D01*
X3772700Y564613D01*
X3775057Y546710D01*
X3772700Y528807D01*
X3765790Y512124D01*
X3754797Y497798D01*
X3740471Y486805D01*
X3723788Y479895D01*
X3705885Y477538D01*
X3687982Y479895D01*
X3671299Y486805D01*
X3656974Y497798D01*
X3645981Y512124D01*
X3639070Y528807D01*
X3636714Y546710D01*
X3639070Y564613D01*
X3645981Y581296D01*
X3656974Y595621D01*
X3671299Y606614D01*
X3687982Y613525D01*
X3705885Y615881D01*
X3723788Y613525D01*
D02*
G37*
G36*
X4288100Y596532D02*
X4304783Y589622D01*
X4319109Y578629D01*
X4330102Y564303D01*
X4337012Y547620D01*
X4339369Y529717D01*
X4337012Y511814D01*
X4330102Y495131D01*
X4319109Y480805D01*
X4304783Y469812D01*
X4288100Y462902D01*
X4270197Y460545D01*
X4252294Y462902D01*
X4235611Y469812D01*
X4221285Y480805D01*
X4210293Y495131D01*
X4203382Y511814D01*
X4201025Y529717D01*
X4203382Y547620D01*
X4210293Y564303D01*
X4221285Y578629D01*
X4235611Y589622D01*
X4252294Y596532D01*
X4270197Y598889D01*
X4288100Y596532D01*
D02*
G37*
G36*
X421691Y813156D02*
X438988D01*
Y452374D01*
X421691D01*
Y434365D01*
X195478D01*
Y452374D01*
X178181D01*
Y813156D01*
X195478D01*
Y831164D01*
X421691D01*
Y813156D01*
D02*
G37*
G36*
X1229665Y647167D02*
X1232662D01*
Y426390D01*
X1229665D01*
Y410769D01*
X1094842D01*
Y426390D01*
X1091844D01*
Y647167D01*
X1094842D01*
Y662788D01*
X1229665D01*
Y647167D01*
D02*
G37*
G36*
X2623033Y410362D02*
X2336013D01*
Y557682D01*
X2623033D01*
Y410362D01*
D02*
G37*
G36*
X6323889Y731622D02*
X6434734D01*
Y429870D01*
X6323889D01*
Y397866D01*
X6098032D01*
Y429870D01*
X5987186D01*
Y731622D01*
X6098032D01*
Y763626D01*
X6323889D01*
Y731622D01*
D02*
G37*
G36*
X4764964Y561162D02*
X4767072D01*
Y417297D01*
X4843446D01*
X4856941Y414612D01*
X4869653Y409347D01*
X4881093Y401703D01*
X4890822Y391973D01*
X4898466Y380533D01*
X4903732Y367821D01*
X4906416Y354326D01*
Y347447D01*
Y283947D01*
Y277067D01*
X4903732Y263572D01*
X4898466Y250860D01*
X4890822Y239420D01*
X4881093Y229690D01*
X4869653Y222046D01*
X4856941Y216781D01*
X4843446Y214097D01*
X4636647D01*
X4623152Y216781D01*
X4610440Y222046D01*
X4598999Y229690D01*
X4589270Y239420D01*
X4581626Y250860D01*
X4576361Y263572D01*
X4573676Y277067D01*
Y283947D01*
Y347447D01*
Y354326D01*
X4576361Y367821D01*
X4581626Y380533D01*
X4589270Y391973D01*
X4591327Y394030D01*
X4490796D01*
Y401930D01*
X4488688D01*
Y557733D01*
X4490796D01*
Y565633D01*
X4592396D01*
Y557733D01*
X4594504D01*
Y401930D01*
X4592396D01*
Y395099D01*
X4598999Y401703D01*
X4610440Y409347D01*
X4623152Y414612D01*
X4636647Y417297D01*
X4661256D01*
Y561162D01*
X4663364D01*
Y569062D01*
X4764964D01*
Y561162D01*
D02*
G37*
G36*
X4481119Y557403D02*
X4483227D01*
Y401599D01*
X4481119D01*
Y393700D01*
X4379519D01*
Y401599D01*
X4377411D01*
Y557403D01*
X4379519D01*
Y565302D01*
X4481119D01*
Y557403D01*
D02*
G37*
G36*
X6554009Y509105D02*
X6570692Y502195D01*
X6585018Y491202D01*
X6596010Y476876D01*
X6602921Y460193D01*
X6605278Y442290D01*
X6602921Y424387D01*
X6596010Y407704D01*
X6585018Y393378D01*
X6570692Y382386D01*
X6554009Y375475D01*
X6536106Y373118D01*
X6518203Y375475D01*
X6501520Y382386D01*
X6487194Y393378D01*
X6476201Y407704D01*
X6469291Y424387D01*
X6466934Y442290D01*
X6469291Y460193D01*
X6476201Y476876D01*
X6487194Y491202D01*
X6501520Y502195D01*
X6518203Y509105D01*
X6536106Y511462D01*
X6554009Y509105D01*
D02*
G37*
G36*
X784272Y491986D02*
X800955Y485075D01*
X815281Y474082D01*
X826273Y459757D01*
X833184Y443074D01*
X835541Y425171D01*
X833184Y407268D01*
X826273Y390585D01*
X815281Y376259D01*
X800955Y365266D01*
X784272Y358356D01*
X766369Y355999D01*
X748466Y358356D01*
X731783Y365266D01*
X717457Y376259D01*
X706464Y390585D01*
X699554Y407268D01*
X697197Y425171D01*
X699554Y443074D01*
X706464Y459757D01*
X717457Y474082D01*
X731783Y485075D01*
X748466Y491986D01*
X766369Y494342D01*
X784272Y491986D01*
D02*
G37*
G36*
X596363Y453911D02*
X613046Y447001D01*
X627371Y436008D01*
X638364Y421682D01*
X645275Y404999D01*
X647631Y387096D01*
X645275Y369193D01*
X638364Y352510D01*
X627371Y338184D01*
X613046Y327191D01*
X596363Y320281D01*
X578460Y317924D01*
X560557Y320281D01*
X543874Y327191D01*
X529548Y338184D01*
X518555Y352510D01*
X511645Y369193D01*
X509288Y387096D01*
X511645Y404999D01*
X518555Y421682D01*
X529548Y436008D01*
X543874Y447001D01*
X560557Y453911D01*
X578460Y456268D01*
X596363Y453911D01*
D02*
G37*
G36*
X2097452Y253734D02*
X2114135Y246823D01*
X2128461Y235830D01*
X2139453Y221505D01*
X2146364Y204822D01*
X2148721Y186919D01*
X2146364Y169016D01*
X2139453Y152333D01*
X2128461Y138007D01*
X2114135Y127014D01*
X2097452Y120104D01*
X2079549Y117747D01*
X2079460Y117758D01*
X2079371Y117747D01*
X2061468Y120104D01*
X2044785Y127014D01*
X2030459Y138007D01*
X2019466Y152333D01*
X2012556Y169016D01*
X2010199Y186919D01*
X2012556Y204822D01*
X2019466Y221505D01*
X2030459Y235830D01*
X2044785Y246823D01*
X2061468Y253734D01*
X2079371Y256090D01*
X2079460Y256079D01*
X2079549Y256090D01*
X2097452Y253734D01*
D02*
G37*
G36*
X2619985Y246786D02*
X2332965D01*
Y394106D01*
X2619985D01*
Y246786D01*
D02*
G37*
G36*
X277952Y387553D02*
X280060D01*
Y231750D01*
X277952D01*
Y223850D01*
X176352D01*
Y231750D01*
X174244D01*
Y387553D01*
X176352D01*
Y395453D01*
X277952D01*
Y387553D01*
D02*
G37*
G36*
X497611Y386512D02*
X499720D01*
Y230708D01*
X497611D01*
Y222809D01*
X396011D01*
Y230708D01*
X393903D01*
Y386512D01*
X396011D01*
Y394411D01*
X497611D01*
Y386512D01*
D02*
G37*
G36*
X1402588Y360451D02*
X1418209D01*
Y225628D01*
X1402588D01*
Y222631D01*
X1181811D01*
Y225628D01*
X1166190D01*
Y360451D01*
X1181811D01*
Y363449D01*
X1402588D01*
Y360451D01*
D02*
G37*
G36*
X390728Y385724D02*
X392836D01*
Y229921D01*
X390728D01*
Y222021D01*
X289128D01*
Y229921D01*
X287020D01*
Y385724D01*
X289128D01*
Y393624D01*
X390728D01*
Y385724D01*
D02*
G37*
G36*
X4499428Y339763D02*
X4516111Y332853D01*
X4530437Y321860D01*
X4541430Y307534D01*
X4548340Y290851D01*
X4550697Y272948D01*
X4548340Y255045D01*
X4541430Y238362D01*
X4530437Y224037D01*
X4516111Y213044D01*
X4499428Y206133D01*
X4481525Y203777D01*
X4463622Y206133D01*
X4446939Y213044D01*
X4432613Y224037D01*
X4421621Y238362D01*
X4414710Y255045D01*
X4412353Y272948D01*
X4414710Y290851D01*
X4421621Y307534D01*
X4432613Y321860D01*
X4446939Y332853D01*
X4463622Y339763D01*
X4481525Y342120D01*
X4499428Y339763D01*
D02*
G37*
G36*
X3415614Y354559D02*
X3417722D01*
Y198755D01*
X3415614D01*
Y190856D01*
X3314014D01*
Y198755D01*
X3311906D01*
Y354559D01*
X3314014D01*
Y362458D01*
X3415614D01*
Y354559D01*
D02*
G37*
G36*
X7160970Y662704D02*
X7201401Y652998D01*
X7239815Y637086D01*
X7275268Y615360D01*
X7306885Y588357D01*
X7333889Y556739D01*
X7355614Y521287D01*
X7371526Y482872D01*
X7381233Y442441D01*
X7384495Y400990D01*
X7381233Y359538D01*
X7371526Y319108D01*
X7355614Y280693D01*
X7333889Y245240D01*
X7306885Y213623D01*
X7275268Y186619D01*
X7239815Y164894D01*
X7201401Y148982D01*
X7160970Y139275D01*
X7119518Y136013D01*
X7078067Y139275D01*
X7037636Y148982D01*
X6999221Y164894D01*
X6987393Y172142D01*
X6963769Y186619D01*
X6932151Y213623D01*
X6905148Y245240D01*
X6883422Y280693D01*
X6867511Y319108D01*
X6857804Y359538D01*
X6854542Y400990D01*
X6857804Y442441D01*
X6867511Y482872D01*
X6883422Y521287D01*
X6905148Y556739D01*
X6932151Y588357D01*
X6963769Y615360D01*
X6987393Y629838D01*
X6999221Y637086D01*
X7037636Y652998D01*
X7078067Y662704D01*
X7119518Y665967D01*
X7160970Y662704D01*
D02*
G37*
G36*
X3663717Y239281D02*
X3680400Y232371D01*
X3694726Y221378D01*
X3705719Y207052D01*
X3712629Y190369D01*
X3714986Y172466D01*
X3712629Y154563D01*
X3705719Y137880D01*
X3694726Y123554D01*
X3680400Y112561D01*
X3663717Y105651D01*
X3645814Y103294D01*
X3627911Y105651D01*
X3611228Y112561D01*
X3596903Y123554D01*
X3585910Y137880D01*
X3578999Y154563D01*
X3576643Y172466D01*
X3578999Y190369D01*
X3585910Y207052D01*
X3596903Y221378D01*
X3611228Y232371D01*
X3627911Y239281D01*
X3645814Y241638D01*
X3663717Y239281D01*
D02*
G37*
G36*
X2917034Y223939D02*
X2933717Y217029D01*
X2948042Y206036D01*
X2959035Y191710D01*
X2965946Y175027D01*
X2965996Y174642D01*
X2966047Y174519D01*
X2968404Y156616D01*
X2966047Y138713D01*
X2959137Y122030D01*
X2948144Y107705D01*
X2933818Y96712D01*
X2917135Y89801D01*
X2899232Y87445D01*
X2881329Y89801D01*
X2864646Y96712D01*
X2850320Y107705D01*
X2839328Y122030D01*
X2832417Y138713D01*
X2832366Y139099D01*
X2832316Y139221D01*
X2829959Y157124D01*
X2832316Y175027D01*
X2839226Y191710D01*
X2850219Y206036D01*
X2864545Y217029D01*
X2881228Y223939D01*
X2899131Y226296D01*
X2917034Y223939D01*
D02*
G37*
G36*
X3254887Y274683D02*
X3267598Y269418D01*
X3279039Y261774D01*
X3288768Y252045D01*
X3296412Y240604D01*
X3301678Y227892D01*
X3304362Y214398D01*
Y207518D01*
Y144018D01*
Y137138D01*
X3301678Y123643D01*
X3296412Y110931D01*
X3288768Y99491D01*
X3279039Y89762D01*
X3267598Y82118D01*
X3254887Y76852D01*
X3241392Y74168D01*
X3032306D01*
X3018812Y76852D01*
X3006100Y82118D01*
X2994659Y89762D01*
X2984930Y99491D01*
X2977286Y110931D01*
X2972020Y123643D01*
X2969336Y137138D01*
Y144018D01*
Y207518D01*
Y214398D01*
X2972020Y227892D01*
X2977286Y240604D01*
X2984930Y252045D01*
X2994659Y261774D01*
X3006100Y269418D01*
X3018812Y274683D01*
X3032306Y277368D01*
X3241392D01*
X3254887Y274683D01*
D02*
G37*
%LPC*%
G36*
X6663338Y4317340D02*
X6646821D01*
X6649381Y4315375D01*
X6655079Y4307949D01*
X6660778Y4315375D01*
X6663338Y4317340D01*
D02*
G37*
G36*
X6552098Y4315790D02*
X6539620D01*
X6540161Y4315375D01*
X6545859Y4307949D01*
X6551558Y4315375D01*
X6552098Y4315790D01*
D02*
G37*
G36*
X6443176Y4316019D02*
X6430102D01*
X6430941Y4315375D01*
X6436639Y4307949D01*
X6442338Y4315375D01*
X6443176Y4316019D01*
D02*
G37*
G36*
X6334916Y4316755D02*
X6319922D01*
X6321721Y4315375D01*
X6327419Y4307949D01*
X6333118Y4315375D01*
X6334916Y4316755D01*
D02*
G37*
G36*
X1042162Y4146855D02*
X1037717D01*
Y4142689D01*
X1041248D01*
Y4144797D01*
X1042162D01*
Y4146855D01*
D02*
G37*
G36*
X3089605Y444749D02*
X3080859Y438037D01*
X3066262Y431991D01*
X3079817Y426376D01*
X3089605Y418865D01*
Y444749D01*
D02*
G37*
%LPD*%
D94*
X4436796Y3009113D02*
X6107862D01*
X4436796D02*
Y4680179D01*
X6107862D01*
Y3009113D02*
Y4680179D01*
D108*
X1971751Y5339283D02*
X2405126D01*
X1971751Y4905908D02*
Y5339283D01*
Y4905908D02*
X2405126D01*
Y5339283D01*
X6079871Y5170043D02*
X6499885D01*
Y5410022D01*
X6079871D02*
X6499885D01*
X6079871Y5170043D02*
Y5410022D01*
X6110275Y5194732D02*
Y5385232D01*
Y5194732D02*
X6469482D01*
Y5385232D01*
X6110275D02*
X6469482D01*
X3425368Y5386654D02*
Y5502478D01*
X3233852D02*
X3425368D01*
X3233852Y5386654D02*
Y5502478D01*
Y5386654D02*
X3425368D01*
X2236724Y858698D02*
Y1278712D01*
X1996745D02*
X2236724D01*
X1996745Y858698D02*
Y1278712D01*
Y858698D02*
X2236724D01*
X2021535Y889102D02*
X2212035D01*
Y1248308D01*
X2021535D02*
X2212035D01*
X2021535Y889102D02*
Y1248308D01*
X5809691Y441376D02*
Y557200D01*
Y441376D02*
X6001207D01*
Y557200D01*
X5809691D02*
X6001207D01*
X6617360Y2650820D02*
X6733184D01*
Y2842336D01*
X6617360D02*
X6733184D01*
X6617360Y2650820D02*
Y2842336D01*
X2296897Y2014449D02*
X2412721D01*
X2296897Y1822933D02*
Y2014449D01*
Y1822933D02*
X2412721D01*
Y2014449D01*
X2235022Y1694993D02*
Y1810817D01*
Y1694993D02*
X2426538D01*
Y1810817D01*
X2235022D02*
X2426538D01*
X2446376Y2016785D02*
X2562200D01*
X2446376Y1825269D02*
Y2016785D01*
Y1825269D02*
X2562200D01*
Y2016785D01*
D126*
X2770708Y3221888D02*
X4266260D01*
X2770708D02*
Y4267454D01*
X4266260D01*
Y3221888D02*
Y4267454D01*
%TF.MD5,4ed11645d479b10977fcbe432a878379*%
M02*
