%TF.GenerationSoftware,Altium Limited,Altium Designer,25.7.1 (20)*%
G04 Layer_Color=6710886*
%FSLAX45Y45*%
%MOMM*%
%TF.SameCoordinates,1AA72D45-9F13-4BD8-B423-63960E99F270*%
%TF.FilePolarity,Positive*%
%TF.FileFunction,Paste,Bot*%
%TF.Part,Single*%
G01*
G75*
%TA.AperFunction,SMDPad,CuDef*%
%ADD23R,0.30480X0.30480*%
%ADD41R,0.45720X0.60960*%
%ADD50R,0.45720X0.50800*%
%ADD51R,0.50800X0.45720*%
%ADD52R,0.99060X0.81280*%
%ADD53R,0.81280X0.99060*%
%ADD55R,0.30480X0.30480*%
%ADD58R,0.60960X0.45720*%
%ADD85R,0.68580X0.20320*%
%ADD86R,0.68580X0.35560*%
%ADD87R,0.35560X0.68580*%
%ADD88R,0.20320X0.68580*%
%ADD89C,1.52400*%
D23*
X5607812Y2147138D02*
D03*
X5661203D02*
D03*
X5852820Y2048078D02*
D03*
X5799430D02*
D03*
X5268544Y4336593D02*
D03*
X5215153D02*
D03*
X5548452Y4065803D02*
D03*
X5601843D02*
D03*
X5479085Y3774186D02*
D03*
X5425694D02*
D03*
X5483428Y3873652D02*
D03*
X5536819D02*
D03*
X5516347Y3968750D02*
D03*
X5569737D02*
D03*
X5354676Y3911803D02*
D03*
X5301285D02*
D03*
X5370043Y3967861D02*
D03*
X5423433D02*
D03*
X5261585Y3965245D02*
D03*
X5314975D02*
D03*
X5075326Y3412617D02*
D03*
X5128717D02*
D03*
X5531637Y3420872D02*
D03*
X5585028D02*
D03*
X5017567Y3671062D02*
D03*
X4964176D02*
D03*
X5069713Y3867302D02*
D03*
X5123104D02*
D03*
X5019802Y4069283D02*
D03*
X4966411D02*
D03*
X5013858Y3873652D02*
D03*
X4960468D02*
D03*
X3739540Y3537153D02*
D03*
X3686150D02*
D03*
X3897071Y4192549D02*
D03*
X3950462D02*
D03*
X3863086Y3621710D02*
D03*
X3809695D02*
D03*
X3254426Y3853028D02*
D03*
X3201035D02*
D03*
X3383966Y3218790D02*
D03*
X3330575D02*
D03*
X3252191Y3631590D02*
D03*
X3198800D02*
D03*
X3848176Y3771748D02*
D03*
X3794785D02*
D03*
X4046499Y3781730D02*
D03*
X4099890D02*
D03*
X4146398Y3469945D02*
D03*
X4199788D02*
D03*
X2862148Y4119677D02*
D03*
X2808757D02*
D03*
X2993644Y3635248D02*
D03*
X2940253D02*
D03*
X3897605Y4042969D02*
D03*
X3844214D02*
D03*
X2995219Y3215157D02*
D03*
X2941828D02*
D03*
X5078603Y3773780D02*
D03*
X5131994D02*
D03*
X5193081Y3903548D02*
D03*
X5246472D02*
D03*
X4153916Y3893083D02*
D03*
X4207307D02*
D03*
X4921656Y3570453D02*
D03*
X4868266D02*
D03*
D41*
X5771972Y1910766D02*
D03*
X5676976D02*
D03*
D50*
X2514194Y1420419D02*
D03*
X2589174D02*
D03*
X3641192Y1703756D02*
D03*
X3566211D02*
D03*
X3673704Y2010004D02*
D03*
X3748684D02*
D03*
X3748710Y1899285D02*
D03*
X3673729D02*
D03*
X5122291Y3965651D02*
D03*
X5197272D02*
D03*
X5020894Y3769512D02*
D03*
X4945913D02*
D03*
X3201086Y4302811D02*
D03*
X3126105D02*
D03*
X3843325Y3209315D02*
D03*
X3768344D02*
D03*
X3652037Y3211398D02*
D03*
X3577057D02*
D03*
X2992958Y4291127D02*
D03*
X2917977D02*
D03*
X6088812Y2000504D02*
D03*
X6013831D02*
D03*
X3572231Y3968521D02*
D03*
X3647211D02*
D03*
X3648304Y3776015D02*
D03*
X3573323D02*
D03*
X3389020Y4301211D02*
D03*
X3314040D02*
D03*
X4945609Y3969410D02*
D03*
X5020589D02*
D03*
X5263413Y3772586D02*
D03*
X5188433D02*
D03*
X3736950Y4286148D02*
D03*
X3811930D02*
D03*
X4802657Y4343933D02*
D03*
X4877638D02*
D03*
X3387242Y3368624D02*
D03*
X3312262D02*
D03*
D51*
X2490902Y1040079D02*
D03*
Y965098D02*
D03*
X2904592Y986180D02*
D03*
Y1061161D02*
D03*
X3577742Y3654654D02*
D03*
Y3579673D02*
D03*
X5474640Y5283708D02*
D03*
Y5358689D02*
D03*
X5584292Y5358968D02*
D03*
Y5283987D02*
D03*
X5851474Y5283200D02*
D03*
Y5358181D02*
D03*
X5692800Y5359781D02*
D03*
Y5284800D02*
D03*
X752094Y3499129D02*
D03*
Y3574110D02*
D03*
X644195Y3577844D02*
D03*
Y3502863D02*
D03*
X970280Y3964940D02*
D03*
Y4039921D02*
D03*
X841578Y4044213D02*
D03*
Y3969233D02*
D03*
D52*
X3088462Y1375334D02*
D03*
X3225622D02*
D03*
X3090494Y1223848D02*
D03*
X3227654D02*
D03*
D53*
X2772435Y1157529D02*
D03*
Y1020369D02*
D03*
X3036265Y1566621D02*
D03*
Y1703781D02*
D03*
X2889275Y1565935D02*
D03*
Y1703095D02*
D03*
X2740889Y1565453D02*
D03*
Y1702613D02*
D03*
X2623312Y1157554D02*
D03*
Y1020394D02*
D03*
X2590216Y1698904D02*
D03*
Y1561744D02*
D03*
D55*
X5458739Y2044802D02*
D03*
Y1991411D02*
D03*
X5459527Y2150542D02*
D03*
Y2097151D02*
D03*
X5552440Y1849806D02*
D03*
Y1903197D02*
D03*
X5620614Y4163466D02*
D03*
Y4216857D02*
D03*
X5425161Y4229684D02*
D03*
Y4283075D02*
D03*
X5525059Y4206926D02*
D03*
Y4260317D02*
D03*
X5472278Y5472684D02*
D03*
Y5419293D02*
D03*
X5116779Y4156913D02*
D03*
Y4210304D02*
D03*
X5220995Y3637661D02*
D03*
Y3691052D02*
D03*
X5012487Y4155669D02*
D03*
Y4209059D02*
D03*
X5020208Y3615233D02*
D03*
Y3561842D02*
D03*
X5223256Y4099433D02*
D03*
Y4046042D02*
D03*
X5116779Y4098696D02*
D03*
Y4045306D02*
D03*
X5418506Y3660038D02*
D03*
Y3713429D02*
D03*
X5973648Y2336114D02*
D03*
Y2389505D02*
D03*
X5326482Y4069486D02*
D03*
Y4016096D02*
D03*
X5424957Y4075024D02*
D03*
Y4021633D02*
D03*
X5370322Y3822014D02*
D03*
Y3768623D02*
D03*
X5320944Y3822268D02*
D03*
Y3768877D02*
D03*
X5326075Y3663264D02*
D03*
Y3716655D02*
D03*
X5725465Y3787394D02*
D03*
Y3840785D02*
D03*
X5123764Y3668979D02*
D03*
Y3722370D02*
D03*
X3835603Y3888257D02*
D03*
Y3941648D02*
D03*
X3662705Y4173753D02*
D03*
Y4120363D02*
D03*
X4085565Y4154272D02*
D03*
Y4207662D02*
D03*
X6039206Y2335987D02*
D03*
Y2389378D02*
D03*
X5719928Y3669894D02*
D03*
Y3723284D02*
D03*
X5225034Y4273448D02*
D03*
Y4220058D02*
D03*
X5453177Y6025109D02*
D03*
Y5971718D02*
D03*
X3242208Y3483407D02*
D03*
Y3430016D02*
D03*
X5381904Y5472024D02*
D03*
Y5418633D02*
D03*
D58*
X3020365Y1075715D02*
D03*
Y980719D02*
D03*
D85*
X6679819Y2544445D02*
D03*
Y2584425D02*
D03*
Y2624430D02*
D03*
Y2664435D02*
D03*
Y2704440D02*
D03*
Y2744445D02*
D03*
Y2784424D02*
D03*
Y2824429D02*
D03*
Y2864434D02*
D03*
Y2904439D02*
D03*
Y2944444D02*
D03*
Y2984424D02*
D03*
Y3024429D02*
D03*
Y3064434D02*
D03*
Y3104439D02*
D03*
Y3144444D02*
D03*
Y3184423D02*
D03*
Y3224428D02*
D03*
Y3264433D02*
D03*
Y3304438D02*
D03*
Y3344443D02*
D03*
Y3384423D02*
D03*
Y3424428D02*
D03*
Y3464433D02*
D03*
Y3504438D02*
D03*
Y3544443D02*
D03*
Y3584423D02*
D03*
Y3624428D02*
D03*
Y3664433D02*
D03*
Y3704438D02*
D03*
Y3744443D02*
D03*
Y3784422D02*
D03*
Y3824427D02*
D03*
Y3864432D02*
D03*
Y3904437D02*
D03*
Y3944442D02*
D03*
Y3984422D02*
D03*
Y4024427D02*
D03*
Y4064432D02*
D03*
Y4104437D02*
D03*
Y4144442D02*
D03*
Y4184421D02*
D03*
Y4224426D02*
D03*
Y4264431D02*
D03*
Y4304436D02*
D03*
Y4344441D02*
D03*
Y2384425D02*
D03*
Y2424430D02*
D03*
Y2464435D02*
D03*
Y2504440D02*
D03*
X6953377Y2544445D02*
D03*
Y2584425D02*
D03*
Y2624430D02*
D03*
Y2664435D02*
D03*
Y2704440D02*
D03*
Y2744445D02*
D03*
Y2784424D02*
D03*
Y2824429D02*
D03*
Y2864434D02*
D03*
Y2904439D02*
D03*
Y2944444D02*
D03*
Y2984424D02*
D03*
Y3024429D02*
D03*
Y3064434D02*
D03*
Y3104439D02*
D03*
Y3144444D02*
D03*
Y3184423D02*
D03*
Y3224428D02*
D03*
Y3264433D02*
D03*
Y3304438D02*
D03*
Y3344443D02*
D03*
Y3384423D02*
D03*
Y3424428D02*
D03*
Y3464433D02*
D03*
Y3504438D02*
D03*
Y3544443D02*
D03*
Y3584423D02*
D03*
Y3624428D02*
D03*
Y3664433D02*
D03*
Y3704438D02*
D03*
Y3744443D02*
D03*
Y3784422D02*
D03*
Y3824427D02*
D03*
Y3864432D02*
D03*
Y3904437D02*
D03*
Y3944442D02*
D03*
Y3984422D02*
D03*
Y4024427D02*
D03*
Y4064432D02*
D03*
Y4104437D02*
D03*
Y4144442D02*
D03*
Y4184421D02*
D03*
Y4224426D02*
D03*
Y4264431D02*
D03*
Y4304436D02*
D03*
Y4344441D02*
D03*
Y2384425D02*
D03*
Y2424430D02*
D03*
Y2464435D02*
D03*
Y2504440D02*
D03*
X3422320Y5645760D02*
D03*
Y5605755D02*
D03*
Y5565750D02*
D03*
Y5525770D02*
D03*
Y5485765D02*
D03*
Y5445760D02*
D03*
X3148762Y5645760D02*
D03*
Y5605755D02*
D03*
Y5565750D02*
D03*
Y5525770D02*
D03*
Y5485765D02*
D03*
Y5445760D02*
D03*
D86*
X6679819Y4391939D02*
D03*
Y2336927D02*
D03*
X6953377Y4391939D02*
D03*
Y2336927D02*
D03*
X3422320Y5693258D02*
D03*
Y5398262D02*
D03*
X3148762Y5693258D02*
D03*
Y5398262D02*
D03*
D87*
X4992218Y832129D02*
D03*
Y1105687D02*
D03*
X6647231Y832129D02*
D03*
Y1105687D02*
D03*
X5955360Y5864606D02*
D03*
Y5591048D02*
D03*
X4300347Y5864606D02*
D03*
Y5591048D02*
D03*
D88*
X5039716Y832129D02*
D03*
Y1105687D02*
D03*
X5079721Y832129D02*
D03*
Y1105687D02*
D03*
X5119726Y832129D02*
D03*
Y1105687D02*
D03*
X5159731Y832129D02*
D03*
Y1105687D02*
D03*
X5199736Y832129D02*
D03*
Y1105687D02*
D03*
X5239715Y832129D02*
D03*
Y1105687D02*
D03*
X5279720Y832129D02*
D03*
Y1105687D02*
D03*
X5319725Y832129D02*
D03*
Y1105687D02*
D03*
X5359730Y832129D02*
D03*
Y1105687D02*
D03*
X5399735Y832129D02*
D03*
Y1105687D02*
D03*
X5439715Y832129D02*
D03*
Y1105687D02*
D03*
X5479720Y832129D02*
D03*
Y1105687D02*
D03*
X5519725Y832129D02*
D03*
Y1105687D02*
D03*
X5559730Y832129D02*
D03*
Y1105687D02*
D03*
X5599735Y832129D02*
D03*
Y1105687D02*
D03*
X5639714Y832129D02*
D03*
Y1105687D02*
D03*
X5679719Y832129D02*
D03*
Y1105687D02*
D03*
X5719724Y832129D02*
D03*
Y1105687D02*
D03*
X5759729Y832129D02*
D03*
Y1105687D02*
D03*
X5799734Y832129D02*
D03*
Y1105687D02*
D03*
X5839714Y832129D02*
D03*
Y1105687D02*
D03*
X5879719Y832129D02*
D03*
Y1105687D02*
D03*
X5919724Y832129D02*
D03*
Y1105687D02*
D03*
X5959729Y832129D02*
D03*
Y1105687D02*
D03*
X5999734Y832129D02*
D03*
Y1105687D02*
D03*
X6039714Y832129D02*
D03*
Y1105687D02*
D03*
X6079719Y832129D02*
D03*
Y1105687D02*
D03*
X6119724Y832129D02*
D03*
Y1105687D02*
D03*
X6159729Y832129D02*
D03*
Y1105687D02*
D03*
X6199734Y832129D02*
D03*
Y1105687D02*
D03*
X6239713Y832129D02*
D03*
Y1105687D02*
D03*
X6279718Y832129D02*
D03*
Y1105687D02*
D03*
X6319723Y832129D02*
D03*
Y1105687D02*
D03*
X6359728Y832129D02*
D03*
Y1105687D02*
D03*
X6399733Y832129D02*
D03*
Y1105687D02*
D03*
X6439713Y832129D02*
D03*
Y1105687D02*
D03*
X6479718Y832129D02*
D03*
Y1105687D02*
D03*
X6519723Y832129D02*
D03*
Y1105687D02*
D03*
X6559728Y832129D02*
D03*
Y1105687D02*
D03*
X6599733Y832129D02*
D03*
Y1105687D02*
D03*
X5907862Y5864606D02*
D03*
Y5591048D02*
D03*
X5867857Y5864606D02*
D03*
Y5591048D02*
D03*
X5827852Y5864606D02*
D03*
Y5591048D02*
D03*
X5787847Y5864606D02*
D03*
Y5591048D02*
D03*
X5747842Y5864606D02*
D03*
Y5591048D02*
D03*
X5707863Y5864606D02*
D03*
Y5591048D02*
D03*
X5667858Y5864606D02*
D03*
Y5591048D02*
D03*
X5627853Y5864606D02*
D03*
Y5591048D02*
D03*
X5587848Y5864606D02*
D03*
Y5591048D02*
D03*
X5547843Y5864606D02*
D03*
Y5591048D02*
D03*
X5507863Y5864606D02*
D03*
Y5591048D02*
D03*
X5467858Y5864606D02*
D03*
Y5591048D02*
D03*
X5427853Y5864606D02*
D03*
Y5591048D02*
D03*
X5387848Y5864606D02*
D03*
Y5591048D02*
D03*
X5347843Y5864606D02*
D03*
Y5591048D02*
D03*
X5307863Y5864606D02*
D03*
Y5591048D02*
D03*
X5267858Y5864606D02*
D03*
Y5591048D02*
D03*
X5227853Y5864606D02*
D03*
Y5591048D02*
D03*
X5187848Y5864606D02*
D03*
Y5591048D02*
D03*
X5147843Y5864606D02*
D03*
Y5591048D02*
D03*
X5107864Y5864606D02*
D03*
Y5591048D02*
D03*
X5067859Y5864606D02*
D03*
Y5591048D02*
D03*
X5027854Y5864606D02*
D03*
Y5591048D02*
D03*
X4987849Y5864606D02*
D03*
Y5591048D02*
D03*
X4947844Y5864606D02*
D03*
Y5591048D02*
D03*
X4907864Y5864606D02*
D03*
Y5591048D02*
D03*
X4867859Y5864606D02*
D03*
Y5591048D02*
D03*
X4827854Y5864606D02*
D03*
Y5591048D02*
D03*
X4787849Y5864606D02*
D03*
Y5591048D02*
D03*
X4747844Y5864606D02*
D03*
Y5591048D02*
D03*
X4707865Y5864606D02*
D03*
Y5591048D02*
D03*
X4667860Y5864606D02*
D03*
Y5591048D02*
D03*
X4627855Y5864606D02*
D03*
Y5591048D02*
D03*
X4587850Y5864606D02*
D03*
Y5591048D02*
D03*
X4547845Y5864606D02*
D03*
Y5591048D02*
D03*
X4507865Y5864606D02*
D03*
Y5591048D02*
D03*
X4467860Y5864606D02*
D03*
Y5591048D02*
D03*
X4427855Y5864606D02*
D03*
Y5591048D02*
D03*
X4387850Y5864606D02*
D03*
Y5591048D02*
D03*
X4347845Y5864606D02*
D03*
Y5591048D02*
D03*
D89*
X1693723Y1692656D02*
D03*
X6527292Y5890057D02*
D03*
X277419Y4754575D02*
D03*
%TF.MD5,21f0ccb02739ae0b462e9154f6e88fd7*%
M02*
