%TF.GenerationSoftware,Altium Limited,Altium Designer,25.7.1 (20)*%
G04 Layer_Color=12040119*
%FSLAX45Y45*%
%MOMM*%
%TF.SameCoordinates,1AA72D45-9F13-4BD8-B423-63960E99F270*%
%TF.FilePolarity,Positive*%
%TF.FileFunction,Other,Bottom_Component_Center*%
%TF.Part,Single*%
G01*
G75*
%TA.AperFunction,NonConductor*%
%ADD91C,0.12700*%
%ADD108C,0.02540*%
D91*
X1379220Y3876040D02*
X1417320D01*
Y3914140D01*
Y3876040D02*
X1455420D01*
X1417320Y3837940D02*
Y3876040D01*
D108*
X6816598Y3339033D02*
Y3389833D01*
X6791198Y3364433D02*
X6841998D01*
X5794324Y968908D02*
X5845124D01*
X5819724Y943508D02*
Y994308D01*
X3260141Y5545760D02*
X3310941D01*
X3285541Y5520360D02*
Y5571160D01*
X2747035Y1088949D02*
X2797835D01*
X2772435Y1063549D02*
Y1114349D01*
X2465502Y1002589D02*
X2516302D01*
X2490902Y977189D02*
Y1027989D01*
X2526284Y1420419D02*
X2577084D01*
X2551684Y1395019D02*
Y1445819D01*
X2879192Y1023671D02*
X2929992D01*
X2904592Y998271D02*
Y1049071D01*
X3603701Y1678356D02*
Y1729156D01*
X3578301Y1703756D02*
X3629101D01*
X3711194Y1984604D02*
Y2035404D01*
X3685794Y2010004D02*
X3736594D01*
X3685819Y1899285D02*
X3736619D01*
X3711219Y1873885D02*
Y1924685D01*
X5159781Y3940251D02*
Y3991051D01*
X5134381Y3965651D02*
X5185181D01*
X4958004Y3769512D02*
X5008804D01*
X4983404Y3744112D02*
Y3794912D01*
X3163595Y4277411D02*
Y4328211D01*
X3138195Y4302811D02*
X3188995D01*
X3780434Y3209315D02*
X3831234D01*
X3805834Y3183915D02*
Y3234715D01*
X3614547Y3185998D02*
Y3236798D01*
X3589147Y3211398D02*
X3639947D01*
X2930068Y4291127D02*
X2980868D01*
X2955468Y4265727D02*
Y4316527D01*
X6051321Y1975104D02*
Y2025904D01*
X6025921Y2000504D02*
X6076721D01*
X3584321Y3968521D02*
X3635121D01*
X3609721Y3943121D02*
Y3993921D01*
X3577742Y3591763D02*
Y3642563D01*
X3552342Y3617163D02*
X3603142D01*
X3610813Y3750615D02*
Y3801415D01*
X3585413Y3776015D02*
X3636213D01*
X3326130Y4301211D02*
X3376930D01*
X3351530Y4275811D02*
Y4326611D01*
X4983099Y3944010D02*
Y3994810D01*
X4957699Y3969410D02*
X5008499D01*
X5200523Y3772586D02*
X5251323D01*
X5225923Y3747186D02*
Y3797986D01*
X5449240Y5321198D02*
X5500040D01*
X5474640Y5295798D02*
Y5346598D01*
X3749040Y4286148D02*
X3799840D01*
X3774440Y4260748D02*
Y4311548D01*
X4840148Y4318533D02*
Y4369333D01*
X4814748Y4343933D02*
X4865548D01*
X5558892Y5321478D02*
X5609692D01*
X5584292Y5296078D02*
Y5346878D01*
X3349752Y3343224D02*
Y3394024D01*
X3324352Y3368624D02*
X3375152D01*
X5851474Y5295290D02*
Y5346090D01*
X5826074Y5320690D02*
X5876874D01*
X5667400Y5322291D02*
X5718200D01*
X5692800Y5296891D02*
Y5347691D01*
X752094Y3511220D02*
Y3562020D01*
X726694Y3536620D02*
X777494D01*
X618795Y3540354D02*
X669595D01*
X644195Y3514954D02*
Y3565754D01*
X970280Y3977030D02*
Y4027830D01*
X944880Y4002430D02*
X995680D01*
X816178Y4006723D02*
X866978D01*
X841578Y3981323D02*
Y4032123D01*
X3157042Y1349934D02*
Y1400734D01*
X3131642Y1375334D02*
X3182442D01*
X3159074Y1198448D02*
Y1249248D01*
X3133674Y1223848D02*
X3184474D01*
X3010865Y1635201D02*
X3061665D01*
X3036265Y1609801D02*
Y1660601D01*
X2863875Y1634515D02*
X2914675D01*
X2889275Y1609115D02*
Y1659915D01*
X2715489Y1634033D02*
X2766289D01*
X2740889Y1608633D02*
Y1659433D01*
X2597912Y1088974D02*
X2648712D01*
X2623312Y1063574D02*
Y1114374D01*
X2564816Y1630324D02*
X2615616D01*
X2590216Y1604924D02*
Y1655724D01*
X5609107Y2147138D02*
X5659907D01*
X5634507Y2121738D02*
Y2172538D01*
X5458739Y1992706D02*
Y2043506D01*
X5433339Y2018106D02*
X5484139D01*
X5459527Y2098446D02*
Y2149246D01*
X5434127Y2123846D02*
X5484927D01*
X5552440Y1851101D02*
Y1901901D01*
X5527040Y1876501D02*
X5577840D01*
X5800725Y2048078D02*
X5851525D01*
X5826125Y2022678D02*
Y2073478D01*
X5216449Y4336593D02*
X5267249D01*
X5241849Y4311193D02*
Y4361993D01*
X5620614Y4164762D02*
Y4215562D01*
X5595214Y4190162D02*
X5646014D01*
X5549748Y4065803D02*
X5600548D01*
X5575148Y4040403D02*
Y4091203D01*
X5425161Y4230980D02*
Y4281780D01*
X5399761Y4256380D02*
X5450561D01*
X5525059Y4208221D02*
Y4259021D01*
X5499659Y4233621D02*
X5550459D01*
X5472278Y5420589D02*
Y5471389D01*
X5446878Y5445989D02*
X5497678D01*
X5116779Y4158209D02*
Y4209009D01*
X5091379Y4183609D02*
X5142179D01*
X5220995Y3638956D02*
Y3689756D01*
X5195595Y3664356D02*
X5246395D01*
X5426989Y3774186D02*
X5477789D01*
X5452389Y3748786D02*
Y3799586D01*
X5012487Y4156964D02*
Y4207764D01*
X4987087Y4182364D02*
X5037887D01*
X5020208Y3563137D02*
Y3613937D01*
X4994808Y3588537D02*
X5045608D01*
X5484724Y3873652D02*
X5535524D01*
X5510124Y3848252D02*
Y3899052D01*
X5223256Y4047338D02*
Y4098138D01*
X5197856Y4072738D02*
X5248656D01*
X5116779Y4046601D02*
Y4097401D01*
X5091379Y4072001D02*
X5142179D01*
X5418506Y3661334D02*
Y3712134D01*
X5393106Y3686734D02*
X5443906D01*
X5973648Y2337410D02*
Y2388210D01*
X5948248Y2362810D02*
X5999048D01*
X5517642Y3968750D02*
X5568442D01*
X5543042Y3943350D02*
Y3994150D01*
X5326482Y4017391D02*
Y4068191D01*
X5301082Y4042791D02*
X5351882D01*
X5424957Y4022928D02*
Y4073728D01*
X5399557Y4048328D02*
X5450357D01*
X5302580Y3911803D02*
X5353380D01*
X5327980Y3886403D02*
Y3937203D01*
X5370322Y3769919D02*
Y3820719D01*
X5344922Y3795319D02*
X5395722D01*
X5371338Y3967861D02*
X5422138D01*
X5396738Y3942461D02*
Y3993261D01*
X5262880Y3965245D02*
X5313680D01*
X5288280Y3939845D02*
Y3990645D01*
X5320944Y3770173D02*
Y3820973D01*
X5295544Y3795573D02*
X5346344D01*
X5076622Y3412617D02*
X5127422D01*
X5102022Y3387217D02*
Y3438017D01*
X5326075Y3664560D02*
Y3715360D01*
X5300675Y3689960D02*
X5351475D01*
X5725465Y3788689D02*
Y3839489D01*
X5700065Y3814089D02*
X5750865D01*
X5532933Y3420872D02*
X5583733D01*
X5558333Y3395472D02*
Y3446272D01*
X5123764Y3670275D02*
Y3721075D01*
X5098364Y3695675D02*
X5149164D01*
X4965471Y3671062D02*
X5016271D01*
X4990871Y3645662D02*
Y3696462D01*
X5071008Y3867302D02*
X5121808D01*
X5096408Y3841902D02*
Y3892702D01*
X4967707Y4069283D02*
X5018507D01*
X4993107Y4043883D02*
Y4094683D01*
X4961763Y3873652D02*
X5012563D01*
X4987163Y3848252D02*
Y3899052D01*
X3687445Y3537153D02*
X3738245D01*
X3712845Y3511753D02*
Y3562553D01*
X3898367Y4192549D02*
X3949167D01*
X3923767Y4167149D02*
Y4217949D01*
X3835603Y3889553D02*
Y3940353D01*
X3810203Y3914953D02*
X3861003D01*
X3810991Y3621710D02*
X3861791D01*
X3836391Y3596310D02*
Y3647110D01*
X3202330Y3853028D02*
X3253130D01*
X3227730Y3827628D02*
Y3878428D01*
X3662705Y4121658D02*
Y4172458D01*
X3637305Y4147058D02*
X3688105D01*
X3331870Y3218790D02*
X3382670D01*
X3357270Y3193390D02*
Y3244190D01*
X3200095Y3631590D02*
X3250895D01*
X3225495Y3606190D02*
Y3656990D01*
X3796081Y3771748D02*
X3846881D01*
X3821481Y3746348D02*
Y3797148D01*
X4085565Y4155567D02*
Y4206367D01*
X4060165Y4180967D02*
X4110965D01*
X4047795Y3781730D02*
X4098595D01*
X4073195Y3756330D02*
Y3807130D01*
X4147693Y3469945D02*
X4198493D01*
X4173093Y3444545D02*
Y3495345D01*
X2810053Y4119677D02*
X2860853D01*
X2835453Y4094277D02*
Y4145077D01*
X2941549Y3635248D02*
X2992349D01*
X2966949Y3609848D02*
Y3660648D01*
X3845509Y4042969D02*
X3896309D01*
X3870909Y4017569D02*
Y4068369D01*
X2943123Y3215157D02*
X2993923D01*
X2968523Y3189757D02*
Y3240557D01*
X6039206Y2337283D02*
Y2388083D01*
X6013806Y2362683D02*
X6064606D01*
X5719928Y3671189D02*
Y3721989D01*
X5694528Y3696589D02*
X5745328D01*
X5079898Y3773780D02*
X5130698D01*
X5105298Y3748380D02*
Y3799180D01*
X5225034Y4221353D02*
Y4272153D01*
X5199634Y4246753D02*
X5250434D01*
X5453177Y5973013D02*
Y6023813D01*
X5427777Y5998413D02*
X5478577D01*
X3242208Y3431311D02*
Y3482111D01*
X3216808Y3456711D02*
X3267608D01*
X5194376Y3903548D02*
X5245176D01*
X5219776Y3878148D02*
Y3928948D01*
X4155211Y3893083D02*
X4206011D01*
X4180611Y3867683D02*
Y3918483D01*
X5381904Y5419928D02*
Y5470728D01*
X5356504Y5445328D02*
X5407304D01*
X4869561Y3570453D02*
X4920361D01*
X4894961Y3545053D02*
Y3595853D01*
X5102454Y5727827D02*
X5153254D01*
X5127854Y5702427D02*
Y5753227D01*
X2994965Y1028217D02*
X3045765D01*
X3020365Y1002817D02*
Y1053617D01*
X5724474Y1885366D02*
Y1936166D01*
X5699074Y1910766D02*
X5749874D01*
%TF.MD5,5146e82d27891e1ff020b2af9346b06b*%
M02*
