%TF.GenerationSoftware,Altium Limited,Altium Designer,25.7.1 (20)*%
G04 Layer_Color=10063769*
%FSLAX45Y45*%
%MOMM*%
%TF.SameCoordinates,1AA72D45-9F13-4BD8-B423-63960E99F270*%
%TF.FilePolarity,Positive*%
%TF.FileFunction,Other,Bottom_Courtyard*%
%TF.Part,Single*%
G01*
G75*
%TA.AperFunction,NonConductor*%
%ADD108C,0.02540*%
G36*
X5743600Y5400192D02*
X5745709D01*
Y5244389D01*
X5743600D01*
Y5236489D01*
X5642000D01*
Y5244389D01*
X5639892D01*
Y5400192D01*
X5642000D01*
Y5408092D01*
X5743600D01*
Y5400192D01*
D02*
G37*
G36*
X5635092Y5399380D02*
X5637200D01*
Y5243576D01*
X5635092D01*
Y5235677D01*
X5533492D01*
Y5243576D01*
X5531383D01*
Y5399380D01*
X5533492D01*
Y5407279D01*
X5635092D01*
Y5399380D01*
D02*
G37*
G36*
X5493588Y6055309D02*
X5495087D01*
Y6025896D01*
X6100140D01*
Y5957316D01*
X6140856D01*
Y5498338D01*
X6100140D01*
Y5429758D01*
X5514188D01*
Y5407000D01*
X5525440D01*
Y5399100D01*
X5527548D01*
Y5243297D01*
X5525440D01*
Y5235397D01*
X5423840D01*
Y5243297D01*
X5421732D01*
Y5378221D01*
X5341493D01*
Y5388432D01*
X5339994D01*
Y5429758D01*
X4155567D01*
Y5498338D01*
X4114851D01*
Y5957316D01*
X4155567D01*
Y6025896D01*
X5411267D01*
Y6055309D01*
X5412765D01*
Y6065520D01*
X5493588D01*
Y6055309D01*
D02*
G37*
G36*
X5902274Y5398592D02*
X5904382D01*
Y5242789D01*
X5902274D01*
Y5234889D01*
X5800674D01*
Y5242789D01*
X5798566D01*
Y5398592D01*
X5800674D01*
Y5406492D01*
X5902274D01*
Y5398592D01*
D02*
G37*
G36*
X4918050Y4394733D02*
X4925949D01*
Y4293133D01*
X4918050D01*
Y4291025D01*
X4762246D01*
Y4293133D01*
X4754347D01*
Y4394733D01*
X4762246D01*
Y4396842D01*
X4918050D01*
Y4394733D01*
D02*
G37*
G36*
X3241497Y4353611D02*
X3249397D01*
Y4252011D01*
X3241497D01*
Y4249903D01*
X3085694D01*
Y4252011D01*
X3077794D01*
Y4353611D01*
X3085694D01*
Y4355719D01*
X3241497D01*
Y4353611D01*
D02*
G37*
G36*
X3429432Y4352011D02*
X3437331D01*
Y4250411D01*
X3429432D01*
Y4248302D01*
X3273628D01*
Y4250411D01*
X3265729D01*
Y4352011D01*
X3273628D01*
Y4354119D01*
X3429432D01*
Y4352011D01*
D02*
G37*
G36*
X3033370Y4341927D02*
X3041269D01*
Y4240327D01*
X3033370D01*
Y4238219D01*
X2877566D01*
Y4240327D01*
X2869667D01*
Y4341927D01*
X2877566D01*
Y4344035D01*
X3033370D01*
Y4341927D01*
D02*
G37*
G36*
X3852342Y4336948D02*
X3860241D01*
Y4235348D01*
X3852342D01*
Y4233240D01*
X3696538D01*
Y4235348D01*
X3688639D01*
Y4336948D01*
X3696538D01*
Y4339057D01*
X3852342D01*
Y4336948D01*
D02*
G37*
G36*
X5465572Y4313276D02*
X5467071D01*
Y4199484D01*
X5465572D01*
Y4189273D01*
X5384749D01*
Y4199484D01*
X5383251D01*
Y4313276D01*
X5384749D01*
Y4323486D01*
X5465572D01*
Y4313276D01*
D02*
G37*
G36*
X5298745Y4377004D02*
X5308956D01*
Y4296181D01*
X5298745D01*
Y4294683D01*
X5266944D01*
Y4189857D01*
X5265445D01*
Y4179646D01*
X5184623D01*
Y4189857D01*
X5183124D01*
Y4296181D01*
X5174742D01*
Y4377004D01*
X5184953D01*
Y4378503D01*
X5298745D01*
Y4377004D01*
D02*
G37*
G36*
X5565470Y4290517D02*
X5566969D01*
Y4176725D01*
X5565470D01*
Y4166514D01*
X5484647D01*
Y4176725D01*
X5483149D01*
Y4290517D01*
X5484647D01*
Y4300728D01*
X5565470D01*
Y4290517D01*
D02*
G37*
G36*
X3980663Y4232961D02*
X3990873D01*
Y4152138D01*
X3980663D01*
Y4150639D01*
X3866871D01*
Y4152138D01*
X3856660D01*
Y4232961D01*
X3866871D01*
Y4234459D01*
X3980663D01*
Y4232961D01*
D02*
G37*
G36*
X5661025Y4247058D02*
X5662524D01*
Y4133266D01*
X5661025D01*
Y4123055D01*
X5580202D01*
Y4133266D01*
X5578704D01*
Y4247058D01*
X5580202D01*
Y4257269D01*
X5661025D01*
Y4247058D01*
D02*
G37*
G36*
X5052898Y4239260D02*
X5054397D01*
Y4125468D01*
X5052898D01*
Y4115257D01*
X4972075D01*
Y4125468D01*
X4970577D01*
Y4239260D01*
X4972075D01*
Y4249471D01*
X5052898D01*
Y4239260D01*
D02*
G37*
G36*
X4125976Y4237863D02*
X4127475D01*
Y4124071D01*
X4125976D01*
Y4113860D01*
X4045153D01*
Y4124071D01*
X4043655D01*
Y4237863D01*
X4045153D01*
Y4248074D01*
X4125976D01*
Y4237863D01*
D02*
G37*
G36*
X3703117Y4203954D02*
X3704615D01*
Y4090162D01*
X3703117D01*
Y4079951D01*
X3622294D01*
Y4090162D01*
X3620795D01*
Y4203954D01*
X3622294D01*
Y4214165D01*
X3703117D01*
Y4203954D01*
D02*
G37*
G36*
X2892349Y4160088D02*
X2902560D01*
Y4079265D01*
X2892349D01*
Y4077767D01*
X2778557D01*
Y4079265D01*
X2768346D01*
Y4160088D01*
X2778557D01*
Y4161587D01*
X2892349D01*
Y4160088D01*
D02*
G37*
G36*
X5050003Y4109695D02*
X5060213D01*
Y4028872D01*
X5050003D01*
Y4027373D01*
X4936211D01*
Y4028872D01*
X4926000D01*
Y4109695D01*
X4936211D01*
Y4111193D01*
X5050003D01*
Y4109695D01*
D02*
G37*
G36*
X5632044Y4106215D02*
X5642254D01*
Y4025392D01*
X5632044D01*
Y4023893D01*
X5518252D01*
Y4025392D01*
X5508041D01*
Y4106215D01*
X5518252D01*
Y4107713D01*
X5632044D01*
Y4106215D01*
D02*
G37*
G36*
X3927805Y4083380D02*
X3938016D01*
Y4002557D01*
X3927805D01*
Y4001059D01*
X3814013D01*
Y4002557D01*
X3803802D01*
Y4083380D01*
X3814013D01*
Y4084879D01*
X3927805D01*
Y4083380D01*
D02*
G37*
G36*
X5599938Y4009161D02*
X5610149D01*
Y3928339D01*
X5599938D01*
Y3926840D01*
X5486146D01*
Y3928339D01*
X5475935D01*
Y4009161D01*
X5486146D01*
Y4010660D01*
X5599938D01*
Y4009161D01*
D02*
G37*
G36*
X892378Y4084625D02*
X894486D01*
Y3928821D01*
X892378D01*
Y3920922D01*
X790778D01*
Y3928821D01*
X788670D01*
Y4084625D01*
X790778D01*
Y4092524D01*
X892378D01*
Y4084625D01*
D02*
G37*
G36*
X1021080Y4080332D02*
X1023188D01*
Y3924529D01*
X1021080D01*
Y3916629D01*
X919480D01*
Y3924529D01*
X917372D01*
Y4080332D01*
X919480D01*
Y4088232D01*
X1021080D01*
Y4080332D01*
D02*
G37*
G36*
X5061001Y4020210D02*
X5068900D01*
Y3918610D01*
X5061001D01*
Y3916502D01*
X4905197D01*
Y3918610D01*
X4897298D01*
Y4020210D01*
X4905197D01*
Y4022319D01*
X5061001D01*
Y4020210D01*
D02*
G37*
G36*
X3687623Y4019321D02*
X3695522D01*
Y3917721D01*
X3687623D01*
Y3915613D01*
X3531819D01*
Y3917721D01*
X3523920D01*
Y4019321D01*
X3531819D01*
Y4021430D01*
X3687623D01*
Y4019321D01*
D02*
G37*
G36*
X5157191Y4240505D02*
X5158689D01*
Y4126713D01*
Y4018559D01*
X5181346D01*
Y4129634D01*
X5182845D01*
Y4139844D01*
X5263667D01*
Y4129634D01*
X5265166D01*
Y4015842D01*
X5263667D01*
Y4007155D01*
X5284572D01*
Y4099687D01*
X5286070D01*
Y4109898D01*
X5366893D01*
Y4099687D01*
X5368392D01*
Y4009771D01*
X5383047D01*
Y4105224D01*
X5384546D01*
Y4115435D01*
X5465369D01*
Y4105224D01*
X5466867D01*
Y3991432D01*
X5465369D01*
Y3981221D01*
X5463845D01*
Y3927450D01*
X5453634D01*
Y3925951D01*
X5395087D01*
Y3871392D01*
X5384876D01*
Y3869893D01*
X5286883D01*
Y3863137D01*
X5276672D01*
Y3861638D01*
X5163515D01*
Y3826891D01*
X5153304D01*
Y3825494D01*
X5279034D01*
Y3852469D01*
X5280533D01*
Y3862680D01*
X5361356D01*
Y3862426D01*
X5410733D01*
Y3852215D01*
X5412232D01*
Y3816096D01*
X5509285D01*
Y3814597D01*
X5519496D01*
Y3733775D01*
X5509285D01*
Y3732276D01*
X5460416D01*
Y3629838D01*
X5458917D01*
Y3619627D01*
X5378094D01*
Y3629838D01*
X5376596D01*
Y3728212D01*
X5367985D01*
Y3633064D01*
X5366487D01*
Y3622853D01*
X5285664D01*
Y3633064D01*
X5284165D01*
Y3719678D01*
X5262905D01*
Y3607460D01*
X5261407D01*
Y3597250D01*
X5180584D01*
Y3607460D01*
X5179085D01*
Y3719678D01*
X5165674D01*
Y3638779D01*
X5164176D01*
Y3628568D01*
X5083353D01*
Y3638779D01*
X5081854D01*
Y3731870D01*
X5069205D01*
Y3718712D01*
X5061306D01*
Y3716604D01*
X4905502D01*
Y3718712D01*
X4897603D01*
Y3820312D01*
X4905502D01*
Y3822421D01*
X5061306D01*
Y3820312D01*
X5069205D01*
Y3815690D01*
X5140122D01*
Y3823386D01*
X5148021D01*
Y3825392D01*
X5039512D01*
Y3826891D01*
X5029302D01*
Y3831742D01*
X4930267D01*
Y3833241D01*
X4920056D01*
Y3914064D01*
X4930267D01*
Y3915562D01*
X5044059D01*
Y3914064D01*
X5054270D01*
Y3909212D01*
X5152669D01*
Y3912743D01*
X5081880D01*
Y3914851D01*
X5073980D01*
Y4016451D01*
X5074869D01*
Y4126713D01*
Y4240505D01*
X5076368D01*
Y4250715D01*
X5157191D01*
Y4240505D01*
D02*
G37*
G36*
X4237507Y3933495D02*
X4247718D01*
Y3852672D01*
X4237507D01*
Y3851173D01*
X4123715D01*
Y3852672D01*
X4113505D01*
Y3933495D01*
X4123715D01*
Y3934993D01*
X4237507D01*
Y3933495D01*
D02*
G37*
G36*
X3876015Y3971849D02*
X3877513D01*
Y3858057D01*
X3876015D01*
Y3847846D01*
X3795192D01*
Y3858057D01*
X3793693D01*
Y3971849D01*
X3795192D01*
Y3982060D01*
X3876015D01*
Y3971849D01*
D02*
G37*
G36*
X5567020Y3914064D02*
X5577230D01*
Y3833241D01*
X5567020D01*
Y3831742D01*
X5453228D01*
Y3833241D01*
X5443017D01*
Y3914064D01*
X5453228D01*
Y3915562D01*
X5567020D01*
Y3914064D01*
D02*
G37*
G36*
X3284626Y3893439D02*
X3294837D01*
Y3812616D01*
X3284626D01*
Y3811118D01*
X3170834D01*
Y3812616D01*
X3160624D01*
Y3893439D01*
X3170834D01*
Y3894938D01*
X3284626D01*
Y3893439D01*
D02*
G37*
G36*
X4130091Y3822141D02*
X4140302D01*
Y3741318D01*
X4130091D01*
Y3739820D01*
X4016299D01*
Y3741318D01*
X4006088D01*
Y3822141D01*
X4016299D01*
Y3823640D01*
X4130091D01*
Y3822141D01*
D02*
G37*
G36*
X3878377Y3812159D02*
X3888588D01*
Y3731336D01*
X3878377D01*
Y3729838D01*
X3764585D01*
Y3731336D01*
X3754374D01*
Y3812159D01*
X3764585D01*
Y3813658D01*
X3878377D01*
Y3812159D01*
D02*
G37*
G36*
X3688715Y3826815D02*
X3696614D01*
Y3725215D01*
X3688715D01*
Y3723107D01*
X3532911D01*
Y3725215D01*
X3525012D01*
Y3826815D01*
X3532911D01*
Y3828923D01*
X3688715D01*
Y3826815D01*
D02*
G37*
G36*
X5765876Y3870985D02*
X5767375D01*
Y3757193D01*
X5765876D01*
Y3746983D01*
X5761838D01*
Y3639693D01*
X5760339D01*
Y3629482D01*
X5679516D01*
Y3639693D01*
X5678018D01*
Y3753485D01*
X5679516D01*
Y3763696D01*
X5683555D01*
Y3870985D01*
X5685053D01*
Y3881196D01*
X5765876D01*
Y3870985D01*
D02*
G37*
G36*
X3023845Y3675659D02*
X3034055D01*
Y3594837D01*
X3023845D01*
Y3593338D01*
X2910053D01*
Y3594837D01*
X2899842D01*
Y3675659D01*
X2910053D01*
Y3677158D01*
X3023845D01*
Y3675659D01*
D02*
G37*
G36*
X3282391Y3672002D02*
X3292602D01*
Y3591179D01*
X3282391D01*
Y3589680D01*
X3168599D01*
Y3591179D01*
X3158388D01*
Y3672002D01*
X3168599D01*
Y3673500D01*
X3282391D01*
Y3672002D01*
D02*
G37*
G36*
X3893287Y3662121D02*
X3903497D01*
Y3581298D01*
X3893287D01*
Y3579800D01*
X3779495D01*
Y3581298D01*
X3769284D01*
Y3662121D01*
X3779495D01*
Y3663620D01*
X3893287D01*
Y3662121D01*
D02*
G37*
G36*
X3628542Y3695065D02*
X3630651D01*
Y3539261D01*
X3628542D01*
Y3531362D01*
X3526942D01*
Y3539261D01*
X3524834D01*
Y3695065D01*
X3526942D01*
Y3702964D01*
X3628542D01*
Y3695065D01*
D02*
G37*
G36*
X4951857Y3610864D02*
X4962068D01*
Y3530041D01*
X4951857D01*
Y3528543D01*
X4838065D01*
Y3530041D01*
X4827854D01*
Y3610864D01*
X4838065D01*
Y3612363D01*
X4951857D01*
Y3610864D01*
D02*
G37*
G36*
X5047767Y3711473D02*
X5057978D01*
Y3655644D01*
X5060620D01*
Y3645433D01*
X5062118D01*
Y3531641D01*
X5060620D01*
Y3521431D01*
X4979797D01*
Y3531641D01*
X4978298D01*
Y3629152D01*
X4933975D01*
Y3630651D01*
X4923765D01*
Y3711473D01*
X4933975D01*
Y3712972D01*
X5047767D01*
Y3711473D01*
D02*
G37*
G36*
X3769741Y3577565D02*
X3779952D01*
Y3496742D01*
X3769741D01*
Y3495243D01*
X3655949D01*
Y3496742D01*
X3645738D01*
Y3577565D01*
X3655949D01*
Y3579063D01*
X3769741D01*
Y3577565D01*
D02*
G37*
G36*
X694995Y3618255D02*
X697103D01*
Y3462452D01*
X694995D01*
Y3454552D01*
X593395D01*
Y3462452D01*
X591287D01*
Y3618255D01*
X593395D01*
Y3626155D01*
X694995D01*
Y3618255D01*
D02*
G37*
G36*
X802894Y3614522D02*
X805002D01*
Y3458718D01*
X802894D01*
Y3450819D01*
X701294D01*
Y3458718D01*
X699186D01*
Y3614522D01*
X701294D01*
Y3622421D01*
X802894D01*
Y3614522D01*
D02*
G37*
G36*
X4229989Y3510356D02*
X4240200D01*
Y3429533D01*
X4229989D01*
Y3428035D01*
X4116197D01*
Y3429533D01*
X4105986D01*
Y3510356D01*
X4116197D01*
Y3511855D01*
X4229989D01*
Y3510356D01*
D02*
G37*
G36*
X5615229Y3461283D02*
X5625440D01*
Y3380461D01*
X5615229D01*
Y3378962D01*
X5501437D01*
Y3380461D01*
X5491226D01*
Y3461283D01*
X5501437D01*
Y3462782D01*
X5615229D01*
Y3461283D01*
D02*
G37*
G36*
X5158918Y3453028D02*
X5169129D01*
Y3372206D01*
X5158918D01*
Y3370707D01*
X5045126D01*
Y3372206D01*
X5034915D01*
Y3453028D01*
X5045126D01*
Y3454527D01*
X5158918D01*
Y3453028D01*
D02*
G37*
G36*
X3282620Y3513607D02*
X3284118D01*
Y3421532D01*
X3427654D01*
Y3419424D01*
X3435553D01*
Y3317824D01*
X3427654D01*
Y3315716D01*
X3271850D01*
Y3317824D01*
X3263951D01*
Y3389605D01*
X3201797D01*
Y3399815D01*
X3200298D01*
Y3513607D01*
X3201797D01*
Y3523818D01*
X3282620D01*
Y3513607D01*
D02*
G37*
G36*
X3414166Y3259201D02*
X3424377D01*
Y3178378D01*
X3414166D01*
Y3176880D01*
X3300374D01*
Y3178378D01*
X3290164D01*
Y3259201D01*
X3300374D01*
Y3260700D01*
X3414166D01*
Y3259201D01*
D02*
G37*
G36*
X3025419Y3255569D02*
X3035630D01*
Y3174746D01*
X3025419D01*
Y3173247D01*
X2911627D01*
Y3174746D01*
X2901417D01*
Y3255569D01*
X2911627D01*
Y3257067D01*
X3025419D01*
Y3255569D01*
D02*
G37*
G36*
X3692449Y3262198D02*
X3700348D01*
Y3160598D01*
X3692449D01*
Y3158490D01*
X3536645D01*
Y3160598D01*
X3528746D01*
Y3262198D01*
X3536645D01*
Y3264306D01*
X3692449D01*
Y3262198D01*
D02*
G37*
G36*
X3883736Y3260115D02*
X3891636D01*
Y3158515D01*
X3883736D01*
Y3156407D01*
X3727933D01*
Y3158515D01*
X3720033D01*
Y3260115D01*
X3727933D01*
Y3262224D01*
X3883736D01*
Y3260115D01*
D02*
G37*
G36*
X6014060Y2429789D02*
X6079617D01*
Y2419579D01*
X6081116D01*
Y2305787D01*
X6079617D01*
Y2295576D01*
X5998794D01*
Y2295703D01*
X5933237D01*
Y2305914D01*
X5931738D01*
Y2419706D01*
X5933237D01*
Y2429916D01*
X6014060D01*
Y2429789D01*
D02*
G37*
G36*
X7046087Y4536719D02*
X7114667D01*
Y2192147D01*
X7046087D01*
Y2151431D01*
X6587109D01*
Y2192147D01*
X6518529D01*
Y4536719D01*
X6587109D01*
Y4577436D01*
X7046087D01*
Y4536719D01*
D02*
G37*
G36*
X5691403Y2187550D02*
X5701614D01*
Y2106727D01*
X5691403D01*
Y2105228D01*
X5577611D01*
Y2106727D01*
X5567401D01*
Y2187550D01*
X5577611D01*
Y2189048D01*
X5691403D01*
Y2187550D01*
D02*
G37*
G36*
X5883021Y2088490D02*
X5893232D01*
Y2007667D01*
X5883021D01*
Y2006168D01*
X5769229D01*
Y2007667D01*
X5759018D01*
Y2088490D01*
X5769229D01*
Y2089988D01*
X5883021D01*
Y2088490D01*
D02*
G37*
G36*
X3789096Y2060804D02*
X3796995D01*
Y1959204D01*
X3789096D01*
Y1957095D01*
X3633292D01*
Y1959204D01*
X3625393D01*
Y2060804D01*
X3633292D01*
Y2062912D01*
X3789096D01*
Y2060804D01*
D02*
G37*
G36*
X5499938Y2180742D02*
X5501437D01*
Y2066950D01*
X5500649D01*
Y1961210D01*
X5499151D01*
Y1950999D01*
X5418328D01*
Y1961210D01*
X5416829D01*
Y2075002D01*
X5417617D01*
Y2180742D01*
X5419115D01*
Y2190953D01*
X5499938D01*
Y2180742D01*
D02*
G37*
G36*
X6129223Y2051304D02*
X6137123D01*
Y1949704D01*
X6129223D01*
Y1947596D01*
X5973420D01*
Y1949704D01*
X5965520D01*
Y2051304D01*
X5973420D01*
Y2053412D01*
X6129223D01*
Y2051304D01*
D02*
G37*
G36*
X3789121Y1950085D02*
X3797021D01*
Y1848485D01*
X3789121D01*
Y1846377D01*
X3633318D01*
Y1848485D01*
X3625418D01*
Y1950085D01*
X3633318D01*
Y1952193D01*
X3789121D01*
Y1950085D01*
D02*
G37*
G36*
X5592851Y1933397D02*
X5594350D01*
Y1819605D01*
X5592851D01*
Y1809394D01*
X5512029D01*
Y1819605D01*
X5510530D01*
Y1933397D01*
X5512029D01*
Y1943608D01*
X5592851D01*
Y1933397D01*
D02*
G37*
G36*
X3681603Y1754556D02*
X3689502D01*
Y1652956D01*
X3681603D01*
Y1650848D01*
X3525799D01*
Y1652956D01*
X3517900D01*
Y1754556D01*
X3525799D01*
Y1756664D01*
X3681603D01*
Y1754556D01*
D02*
G37*
G36*
X3109925Y1491691D02*
X2962935D01*
Y1491005D01*
X2815615D01*
Y1778025D01*
X2962605D01*
Y1778711D01*
X3109925D01*
Y1491691D01*
D02*
G37*
G36*
X2814549Y1490523D02*
X2667229D01*
Y1777543D01*
X2814549D01*
Y1490523D01*
D02*
G37*
G36*
X2663876Y1486814D02*
X2516556D01*
Y1773834D01*
X2663876D01*
Y1486814D01*
D02*
G37*
G36*
X2629586Y1471219D02*
X2637485D01*
Y1369619D01*
X2629586D01*
Y1367511D01*
X2473782D01*
Y1369619D01*
X2465883D01*
Y1471219D01*
X2473782D01*
Y1473327D01*
X2629586D01*
Y1471219D01*
D02*
G37*
G36*
X3300552Y1301674D02*
X3013532D01*
Y1448994D01*
X3300552D01*
Y1301674D01*
D02*
G37*
G36*
X3302584Y1150188D02*
X3015564D01*
Y1297508D01*
X3302584D01*
Y1150188D01*
D02*
G37*
G36*
X2696972Y945464D02*
X2549652D01*
Y1232484D01*
X2696972D01*
Y945464D01*
D02*
G37*
G36*
X2846095Y945439D02*
X2698775D01*
Y1232459D01*
X2846095D01*
Y945439D01*
D02*
G37*
G36*
X2955392Y1101573D02*
X2957500D01*
Y945769D01*
X2955392D01*
Y937870D01*
X2853792D01*
Y945769D01*
X2851683D01*
Y1101573D01*
X2853792D01*
Y1109472D01*
X2955392D01*
Y1101573D01*
D02*
G37*
G36*
X2541702Y1080491D02*
X2543810D01*
Y924687D01*
X2541702D01*
Y916788D01*
X2440102D01*
Y924687D01*
X2437994D01*
Y1080491D01*
X2440102D01*
Y1088390D01*
X2541702D01*
Y1080491D01*
D02*
G37*
G36*
X6792011Y1198397D02*
X6832727D01*
Y739419D01*
X6792011D01*
Y670839D01*
X4847438D01*
Y739419D01*
X4806721D01*
Y1198397D01*
X4847438D01*
Y1266977D01*
X6792011D01*
Y1198397D01*
D02*
G37*
%LPC*%
G36*
X5430368Y5429758D02*
X5423814D01*
Y5399100D01*
X5423840D01*
Y5407000D01*
X5430368D01*
Y5429758D01*
D02*
G37*
%LPD*%
D108*
X2962453Y932459D02*
Y1123975D01*
Y932459D02*
X3078277D01*
Y1123975D01*
X2962453D02*
X3078277D01*
X5628716Y1968678D02*
X5820232D01*
X5628716Y1852854D02*
Y1968678D01*
Y1852854D02*
X5820232D01*
Y1968678D01*
%TF.MD5,6b38c642b28d759f64dfe3609f6ca4e1*%
M02*
