%TF.GenerationSoftware,Altium Limited,Altium Designer,25.7.1 (20)*%
G04 Layer_Color=8366762*
%FSLAX45Y45*%
%MOMM*%
%TF.SameCoordinates,1AA72D45-9F13-4BD8-B423-63960E99F270*%
%TF.FilePolarity,Positive*%
%TF.FileFunction,Other,Bottom_Designator*%
%TF.Part,Single*%
G01*
G75*
%TA.AperFunction,NonConductor*%
%ADD96C,0.10160*%
%ADD106C,0.05080*%
D96*
X1473913Y3936989D02*
Y3886200D01*
Y3936989D02*
X1454565Y3886200D01*
X1435217Y3936989D02*
X1454565Y3886200D01*
X1435217Y3936989D02*
Y3886200D01*
X1384428Y3924896D02*
X1386846Y3929734D01*
X1391684Y3934570D01*
X1396520Y3936989D01*
X1406195D01*
X1411032Y3934570D01*
X1415869Y3929734D01*
X1418287Y3924896D01*
X1420706Y3917641D01*
Y3905548D01*
X1418287Y3898293D01*
X1415869Y3893456D01*
X1411032Y3888619D01*
X1406195Y3886200D01*
X1396520D01*
X1391684Y3888619D01*
X1386846Y3893456D01*
X1384428Y3898293D01*
Y3905548D01*
X1396520D02*
X1384428D01*
X1372819Y3927315D02*
X1367982Y3929734D01*
X1360726Y3936989D01*
Y3886200D01*
D106*
X6835644Y3321988D02*
X6806622D01*
X6801180Y3320174D01*
X6799366Y3318360D01*
X6797552Y3314733D01*
Y3311105D01*
X6799366Y3307477D01*
X6801180Y3305663D01*
X6806622Y3303849D01*
X6810249D01*
X6835644Y3340853D02*
X6833830Y3335411D01*
X6830202Y3333597D01*
X6826574D01*
X6822947Y3335411D01*
X6821133Y3339039D01*
X6819319Y3346294D01*
X6817505Y3351736D01*
X6813877Y3355364D01*
X6810249Y3357178D01*
X6804808D01*
X6801180Y3355364D01*
X6799366Y3353550D01*
X6797552Y3348108D01*
Y3340853D01*
X6799366Y3335411D01*
X6801180Y3333597D01*
X6804808Y3331783D01*
X6810249D01*
X6813877Y3333597D01*
X6817505Y3337225D01*
X6819319Y3342666D01*
X6821133Y3349922D01*
X6822947Y3353550D01*
X6826574Y3355364D01*
X6830202D01*
X6833830Y3353550D01*
X6835644Y3348108D01*
Y3340853D01*
Y3376586D02*
X6833830Y3371145D01*
X6828388Y3367517D01*
X6819319Y3365703D01*
X6813877D01*
X6804808Y3367517D01*
X6799366Y3371145D01*
X6797552Y3376586D01*
Y3380214D01*
X6799366Y3385656D01*
X6804808Y3389284D01*
X6813877Y3391098D01*
X6819319D01*
X6828388Y3389284D01*
X6833830Y3385656D01*
X6835644Y3380214D01*
Y3376586D01*
Y3403251D02*
Y3423203D01*
X6821133Y3412320D01*
Y3417762D01*
X6819319Y3421390D01*
X6817505Y3423203D01*
X6812063Y3425018D01*
X6808435D01*
X6802994Y3423203D01*
X6799366Y3419576D01*
X6797552Y3414134D01*
Y3408692D01*
X6799366Y3403251D01*
X6801180Y3401437D01*
X6804808Y3399623D01*
X5785442Y949863D02*
Y978885D01*
X5783628Y984327D01*
X5781814Y986141D01*
X5778187Y987955D01*
X5774559D01*
X5770931Y986141D01*
X5769117Y984327D01*
X5767303Y978885D01*
Y975258D01*
X5804307Y949863D02*
X5798865Y951677D01*
X5797051Y955305D01*
Y958933D01*
X5798865Y962560D01*
X5802493Y964374D01*
X5809748Y966188D01*
X5815190Y968002D01*
X5818818Y971630D01*
X5820632Y975258D01*
Y980699D01*
X5818818Y984327D01*
X5817004Y986141D01*
X5811562Y987955D01*
X5804307D01*
X5798865Y986141D01*
X5797051Y984327D01*
X5795237Y980699D01*
Y975258D01*
X5797051Y971630D01*
X5800679Y968002D01*
X5806120Y966188D01*
X5813376Y964374D01*
X5817004Y962560D01*
X5818818Y958933D01*
Y955305D01*
X5817004Y951677D01*
X5811562Y949863D01*
X5804307D01*
X5840040D02*
X5834599Y951677D01*
X5830971Y957118D01*
X5829157Y966188D01*
Y971630D01*
X5830971Y980699D01*
X5834599Y986141D01*
X5840040Y987955D01*
X5843668D01*
X5849110Y986141D01*
X5852738Y980699D01*
X5854552Y971630D01*
Y966188D01*
X5852738Y957118D01*
X5849110Y951677D01*
X5843668Y949863D01*
X5840040D01*
X5863077Y957118D02*
X5866705Y955305D01*
X5872146Y949863D01*
Y987955D01*
X3304587Y5511477D02*
X3275564D01*
X3270123Y5509663D01*
X3268309Y5507850D01*
X3266495Y5504222D01*
Y5500594D01*
X3268309Y5496966D01*
X3270123Y5495152D01*
X3275564Y5493338D01*
X3279192D01*
X3291890Y5544853D02*
X3286448Y5543039D01*
X3282820Y5539411D01*
X3281006Y5533969D01*
Y5532156D01*
X3282820Y5526714D01*
X3286448Y5523086D01*
X3291890Y5521272D01*
X3293703D01*
X3299145Y5523086D01*
X3302773Y5526714D01*
X3304587Y5532156D01*
Y5533969D01*
X3302773Y5539411D01*
X3299145Y5543039D01*
X3291890Y5544853D01*
X3282820D01*
X3273750Y5543039D01*
X3268309Y5539411D01*
X3266495Y5533969D01*
Y5530342D01*
X3268309Y5524900D01*
X3271937Y5523086D01*
X3304587Y5566075D02*
X3302773Y5560634D01*
X3297331Y5557006D01*
X3288262Y5555192D01*
X3282820D01*
X3273750Y5557006D01*
X3268309Y5560634D01*
X3266495Y5566075D01*
Y5569703D01*
X3268309Y5575145D01*
X3273750Y5578773D01*
X3282820Y5580587D01*
X3288262D01*
X3297331Y5578773D01*
X3302773Y5575145D01*
X3304587Y5569703D01*
Y5566075D01*
X3297331Y5589112D02*
X3299145Y5592740D01*
X3304587Y5598182D01*
X3266495D01*
X2762459Y1119150D02*
X2758831Y1120964D01*
X2755203Y1124592D01*
X2753389Y1128219D01*
Y1135475D01*
X2755203Y1139103D01*
X2758831Y1142731D01*
X2762459Y1144545D01*
X2767900Y1146358D01*
X2776970D01*
X2782412Y1144545D01*
X2786039Y1142731D01*
X2789667Y1139103D01*
X2791481Y1135475D01*
Y1128219D01*
X2789667Y1124592D01*
X2786039Y1120964D01*
X2782412Y1119150D01*
X2753389Y1083053D02*
X2791481Y1101192D01*
X2753389Y1108448D02*
Y1083053D01*
Y1063645D02*
X2755203Y1069086D01*
X2760645Y1072714D01*
X2769714Y1074528D01*
X2775156D01*
X2784226Y1072714D01*
X2789667Y1069086D01*
X2791481Y1063645D01*
Y1060017D01*
X2789667Y1054575D01*
X2784226Y1050947D01*
X2775156Y1049133D01*
X2769714D01*
X2760645Y1050947D01*
X2755203Y1054575D01*
X2753389Y1060017D01*
Y1063645D01*
X2760645Y1040608D02*
X2758831Y1036980D01*
X2753389Y1031538D01*
X2791481D01*
X2500878Y963318D02*
X2504506Y961504D01*
X2508134Y957876D01*
X2509948Y954248D01*
Y946993D01*
X2508134Y943365D01*
X2504506Y939737D01*
X2500878Y937923D01*
X2495436Y936109D01*
X2486367D01*
X2480925Y937923D01*
X2477298Y939737D01*
X2473670Y943365D01*
X2471856Y946993D01*
Y954248D01*
X2473670Y957876D01*
X2477298Y961504D01*
X2480925Y963318D01*
X2509948Y999415D02*
X2471856Y981275D01*
X2509948Y974020D02*
Y999415D01*
Y1018823D02*
X2508134Y1013382D01*
X2502692Y1009754D01*
X2493623Y1007940D01*
X2488181D01*
X2479111Y1009754D01*
X2473670Y1013382D01*
X2471856Y1018823D01*
Y1022451D01*
X2473670Y1027893D01*
X2479111Y1031520D01*
X2488181Y1033334D01*
X2493623D01*
X2502692Y1031520D01*
X2508134Y1027893D01*
X2509948Y1022451D01*
Y1018823D01*
Y1059999D02*
X2484553Y1041860D01*
Y1069068D01*
X2509948Y1059999D02*
X2471856D01*
X2514227Y1410442D02*
X2512413Y1406815D01*
X2508785Y1403187D01*
X2505157Y1401373D01*
X2497902D01*
X2494274Y1403187D01*
X2490646Y1406815D01*
X2488832Y1410442D01*
X2487018Y1415884D01*
Y1424953D01*
X2488832Y1430395D01*
X2490646Y1434023D01*
X2494274Y1437651D01*
X2497902Y1439465D01*
X2505157D01*
X2508785Y1437651D01*
X2512413Y1434023D01*
X2514227Y1430395D01*
X2550323Y1401373D02*
X2532184Y1439465D01*
X2524929Y1401373D02*
X2550323D01*
X2569732D02*
X2564290Y1403187D01*
X2560662Y1408628D01*
X2558849Y1417698D01*
Y1423140D01*
X2560662Y1432209D01*
X2564290Y1437651D01*
X2569732Y1439465D01*
X2573360D01*
X2578802Y1437651D01*
X2582429Y1432209D01*
X2584243Y1423140D01*
Y1417698D01*
X2582429Y1408628D01*
X2578802Y1403187D01*
X2573360Y1401373D01*
X2569732D01*
X2614535Y1406815D02*
X2612721Y1403187D01*
X2607280Y1401373D01*
X2603652D01*
X2598210Y1403187D01*
X2594582Y1408628D01*
X2592768Y1417698D01*
Y1426768D01*
X2594582Y1434023D01*
X2598210Y1437651D01*
X2603652Y1439465D01*
X2605466D01*
X2610907Y1437651D01*
X2614535Y1434023D01*
X2616349Y1428581D01*
Y1426768D01*
X2614535Y1421326D01*
X2610907Y1417698D01*
X2605466Y1415884D01*
X2603652D01*
X2598210Y1417698D01*
X2594582Y1421326D01*
X2592768Y1426768D01*
X2894615Y1062942D02*
X2890987Y1064756D01*
X2887359Y1068383D01*
X2885546Y1072011D01*
Y1079267D01*
X2887359Y1082895D01*
X2890987Y1086522D01*
X2894615Y1088336D01*
X2900057Y1090150D01*
X2909126D01*
X2914568Y1088336D01*
X2918196Y1086522D01*
X2921824Y1082895D01*
X2923638Y1079267D01*
Y1072011D01*
X2921824Y1068383D01*
X2918196Y1064756D01*
X2914568Y1062942D01*
X2885546Y1026845D02*
X2923638Y1044984D01*
X2885546Y1052240D02*
Y1026845D01*
X2894615Y1016506D02*
X2892801D01*
X2889174Y1014692D01*
X2887359Y1012878D01*
X2885546Y1009250D01*
Y1001995D01*
X2887359Y998367D01*
X2889174Y996553D01*
X2892801Y994739D01*
X2896429D01*
X2900057Y996553D01*
X2905499Y1000181D01*
X2923638Y1018320D01*
Y992925D01*
X2885546Y966261D02*
X2910940Y984400D01*
Y957191D01*
X2885546Y966261D02*
X2923638D01*
X3551279Y1684710D02*
Y1722802D01*
Y1684710D02*
X3567604D01*
X3573046Y1686524D01*
X3574860Y1688338D01*
X3576674Y1691965D01*
Y1695593D01*
X3574860Y1699221D01*
X3573046Y1701035D01*
X3567604Y1702849D01*
X3551279D01*
X3563976D02*
X3576674Y1722802D01*
X3610594Y1684710D02*
X3592455Y1722802D01*
X3585199Y1684710D02*
X3610594D01*
X3619119Y1691965D02*
X3622747Y1690152D01*
X3628189Y1684710D01*
Y1722802D01*
X3647053Y1691965D02*
X3650681Y1690152D01*
X3656122Y1684710D01*
Y1722802D01*
X3774772Y2029050D02*
Y1990958D01*
Y2029050D02*
X3758447D01*
X3753005Y2027236D01*
X3751191Y2025422D01*
X3749377Y2021794D01*
Y2018166D01*
X3751191Y2014538D01*
X3753005Y2012724D01*
X3758447Y2010911D01*
X3774772D01*
X3762075D02*
X3749377Y1990958D01*
X3715457Y2029050D02*
X3733596Y1990958D01*
X3740852Y2029050D02*
X3715457D01*
X3696048D02*
X3701490Y2027236D01*
X3705118Y2021794D01*
X3706932Y2012724D01*
Y2007283D01*
X3705118Y1998213D01*
X3701490Y1992771D01*
X3696048Y1990958D01*
X3692421D01*
X3686979Y1992771D01*
X3683351Y1998213D01*
X3681537Y2007283D01*
Y2012724D01*
X3683351Y2021794D01*
X3686979Y2027236D01*
X3692421Y2029050D01*
X3696048D01*
X3663942D02*
X3669384Y2027236D01*
X3671198Y2023608D01*
Y2019980D01*
X3669384Y2016352D01*
X3665756Y2014538D01*
X3658501Y2012724D01*
X3653059Y2010911D01*
X3649431Y2007283D01*
X3647617Y2003655D01*
Y1998213D01*
X3649431Y1994586D01*
X3651245Y1992771D01*
X3656687Y1990958D01*
X3663942D01*
X3669384Y1992771D01*
X3671198Y1994586D01*
X3673012Y1998213D01*
Y2003655D01*
X3671198Y2007283D01*
X3667570Y2010911D01*
X3662129Y2012724D01*
X3654873Y2014538D01*
X3651245Y2016352D01*
X3649431Y2019980D01*
Y2023608D01*
X3651245Y2027236D01*
X3656687Y2029050D01*
X3663942D01*
X3774797Y1918331D02*
Y1880239D01*
Y1918331D02*
X3758472D01*
X3753030Y1916517D01*
X3751217Y1914703D01*
X3749402Y1911075D01*
Y1907448D01*
X3751217Y1903820D01*
X3753030Y1902006D01*
X3758472Y1900192D01*
X3774797D01*
X3762100D02*
X3749402Y1880239D01*
X3715483Y1918331D02*
X3733622Y1880239D01*
X3740877Y1918331D02*
X3715483D01*
X3696074D02*
X3701516Y1916517D01*
X3705143Y1911075D01*
X3706957Y1902006D01*
Y1896564D01*
X3705143Y1887495D01*
X3701516Y1882053D01*
X3696074Y1880239D01*
X3692446D01*
X3687004Y1882053D01*
X3683377Y1887495D01*
X3681563Y1896564D01*
Y1902006D01*
X3683377Y1911075D01*
X3687004Y1916517D01*
X3692446Y1918331D01*
X3696074D01*
X3647643D02*
X3665782Y1880239D01*
X3673037Y1918331D02*
X3647643D01*
X5196060Y3975628D02*
X5197874Y3979255D01*
X5201501Y3982883D01*
X5205129Y3984697D01*
X5212385D01*
X5216013Y3982883D01*
X5219640Y3979255D01*
X5221454Y3975628D01*
X5223268Y3970186D01*
Y3961117D01*
X5221454Y3955675D01*
X5219640Y3952047D01*
X5216013Y3948419D01*
X5212385Y3946605D01*
X5205129D01*
X5201501Y3948419D01*
X5197874Y3952047D01*
X5196060Y3955675D01*
X5185358Y3977442D02*
X5181730Y3979255D01*
X5176288Y3984697D01*
Y3946605D01*
X5155610Y3975628D02*
Y3977442D01*
X5153796Y3981069D01*
X5151982Y3982883D01*
X5148354Y3984697D01*
X5141099D01*
X5137471Y3982883D01*
X5135657Y3981069D01*
X5133843Y3977442D01*
Y3973814D01*
X5135657Y3970186D01*
X5139285Y3964744D01*
X5157424Y3946605D01*
X5132029D01*
X5105365Y3984697D02*
X5123504Y3959302D01*
X5096295D01*
X5105365Y3984697D02*
Y3946605D01*
X5017868Y3779489D02*
X5019682Y3783117D01*
X5023310Y3786745D01*
X5026938Y3788558D01*
X5034193D01*
X5037821Y3786745D01*
X5041449Y3783117D01*
X5043263Y3779489D01*
X5045077Y3774047D01*
Y3764978D01*
X5043263Y3759536D01*
X5041449Y3755908D01*
X5037821Y3752280D01*
X5034193Y3750466D01*
X5026938D01*
X5023310Y3752280D01*
X5019682Y3755908D01*
X5017868Y3759536D01*
X5007166Y3781303D02*
X5003538Y3783117D01*
X4998097Y3788558D01*
Y3750466D01*
X4975604Y3788558D02*
X4955652D01*
X4966535Y3774047D01*
X4961093D01*
X4957466Y3772233D01*
X4955652Y3770419D01*
X4953838Y3764978D01*
Y3761350D01*
X4955652Y3755908D01*
X4959279Y3752280D01*
X4964721Y3750466D01*
X4970163D01*
X4975604Y3752280D01*
X4977419Y3754094D01*
X4979232Y3757722D01*
X4923546Y3783117D02*
X4925359Y3786745D01*
X4930801Y3788558D01*
X4934429D01*
X4939871Y3786745D01*
X4943499Y3781303D01*
X4945312Y3772233D01*
Y3763164D01*
X4943499Y3755908D01*
X4939871Y3752280D01*
X4934429Y3750466D01*
X4932615D01*
X4927174Y3752280D01*
X4923546Y3755908D01*
X4921732Y3761350D01*
Y3763164D01*
X4923546Y3768605D01*
X4927174Y3772233D01*
X4932615Y3774047D01*
X4934429D01*
X4939871Y3772233D01*
X4943499Y3768605D01*
X4945312Y3763164D01*
X3133394Y4292834D02*
X3131580Y4289207D01*
X3127952Y4285579D01*
X3124324Y4283765D01*
X3117068D01*
X3113441Y4285579D01*
X3109813Y4289207D01*
X3107999Y4292834D01*
X3106185Y4298276D01*
Y4307345D01*
X3107999Y4312787D01*
X3109813Y4316415D01*
X3113441Y4320043D01*
X3117068Y4321857D01*
X3124324D01*
X3127952Y4320043D01*
X3131580Y4316415D01*
X3133394Y4312787D01*
X3145909Y4292834D02*
Y4291020D01*
X3147723Y4287393D01*
X3149537Y4285579D01*
X3153165Y4283765D01*
X3160421D01*
X3164049Y4285579D01*
X3165862Y4287393D01*
X3167676Y4291020D01*
Y4294648D01*
X3165862Y4298276D01*
X3162234Y4303718D01*
X3144096Y4321857D01*
X3169490D01*
X3188899Y4283765D02*
X3183457Y4285579D01*
X3179829Y4291020D01*
X3178015Y4300090D01*
Y4305532D01*
X3179829Y4314601D01*
X3183457Y4320043D01*
X3188899Y4321857D01*
X3192527D01*
X3197968Y4320043D01*
X3201596Y4314601D01*
X3203410Y4305532D01*
Y4300090D01*
X3201596Y4291020D01*
X3197968Y4285579D01*
X3192527Y4283765D01*
X3188899D01*
X3211935Y4291020D02*
X3215563Y4289207D01*
X3221005Y4283765D01*
Y4321857D01*
X3844199Y3219292D02*
X3846013Y3222920D01*
X3849641Y3226548D01*
X3853268Y3228361D01*
X3860524D01*
X3864152Y3226548D01*
X3867779Y3222920D01*
X3869593Y3219292D01*
X3871407Y3213850D01*
Y3204781D01*
X3869593Y3199339D01*
X3867779Y3195711D01*
X3864152Y3192083D01*
X3860524Y3190269D01*
X3853268D01*
X3849641Y3192083D01*
X3846013Y3195711D01*
X3844199Y3199339D01*
X3831683Y3219292D02*
Y3221106D01*
X3829869Y3224733D01*
X3828055Y3226548D01*
X3824427Y3228361D01*
X3817172D01*
X3813544Y3226548D01*
X3811730Y3224733D01*
X3809916Y3221106D01*
Y3217478D01*
X3811730Y3213850D01*
X3815358Y3208408D01*
X3833497Y3190269D01*
X3808102D01*
X3788693Y3228361D02*
X3794135Y3226548D01*
X3797763Y3221106D01*
X3799577Y3212036D01*
Y3206595D01*
X3797763Y3197525D01*
X3794135Y3192083D01*
X3788693Y3190269D01*
X3785066D01*
X3779624Y3192083D01*
X3775996Y3197525D01*
X3774182Y3206595D01*
Y3212036D01*
X3775996Y3221106D01*
X3779624Y3226548D01*
X3785066Y3228361D01*
X3788693D01*
X3763843Y3219292D02*
Y3221106D01*
X3762029Y3224733D01*
X3760215Y3226548D01*
X3756587Y3228361D01*
X3749332D01*
X3745704Y3226548D01*
X3743890Y3224733D01*
X3742076Y3221106D01*
Y3217478D01*
X3743890Y3213850D01*
X3747518Y3208408D01*
X3765657Y3190269D01*
X3740262D01*
X3577090Y3201422D02*
X3575276Y3197794D01*
X3571648Y3194166D01*
X3568020Y3192352D01*
X3560765D01*
X3557137Y3194166D01*
X3553509Y3197794D01*
X3551695Y3201422D01*
X3549881Y3206864D01*
Y3215933D01*
X3551695Y3221375D01*
X3553509Y3225002D01*
X3557137Y3228630D01*
X3560765Y3230444D01*
X3568020D01*
X3571648Y3228630D01*
X3575276Y3225002D01*
X3577090Y3221375D01*
X3589605Y3201422D02*
Y3199608D01*
X3591420Y3195980D01*
X3593233Y3194166D01*
X3596861Y3192352D01*
X3604117D01*
X3607745Y3194166D01*
X3609558Y3195980D01*
X3611372Y3199608D01*
Y3203236D01*
X3609558Y3206864D01*
X3605931Y3212305D01*
X3587792Y3230444D01*
X3613186D01*
X3632595Y3192352D02*
X3627153Y3194166D01*
X3623525Y3199608D01*
X3621712Y3208677D01*
Y3214119D01*
X3623525Y3223189D01*
X3627153Y3228630D01*
X3632595Y3230444D01*
X3636223D01*
X3641665Y3228630D01*
X3645292Y3223189D01*
X3647106Y3214119D01*
Y3208677D01*
X3645292Y3199608D01*
X3641665Y3194166D01*
X3636223Y3192352D01*
X3632595D01*
X3677398Y3197794D02*
X3675584Y3194166D01*
X3670143Y3192352D01*
X3666515D01*
X3661073Y3194166D01*
X3657445Y3199608D01*
X3655631Y3208677D01*
Y3217747D01*
X3657445Y3225002D01*
X3661073Y3228630D01*
X3666515Y3230444D01*
X3668329D01*
X3673770Y3228630D01*
X3677398Y3225002D01*
X3679212Y3219561D01*
Y3217747D01*
X3677398Y3212305D01*
X3673770Y3208677D01*
X3668329Y3206864D01*
X3666515D01*
X3661073Y3208677D01*
X3657445Y3212305D01*
X3655631Y3217747D01*
X2990839Y4301103D02*
X2992653Y4304731D01*
X2996281Y4308359D01*
X2999909Y4310173D01*
X3007164D01*
X3010792Y4308359D01*
X3014420Y4304731D01*
X3016234Y4301103D01*
X3018048Y4295661D01*
Y4286592D01*
X3016234Y4281150D01*
X3014420Y4277523D01*
X3010792Y4273895D01*
X3007164Y4272081D01*
X2999909D01*
X2996281Y4273895D01*
X2992653Y4277523D01*
X2990839Y4281150D01*
X2978323Y4301103D02*
Y4302917D01*
X2976509Y4306545D01*
X2974696Y4308359D01*
X2971068Y4310173D01*
X2963812D01*
X2960184Y4308359D01*
X2958371Y4306545D01*
X2956557Y4302917D01*
Y4299289D01*
X2958371Y4295661D01*
X2961998Y4290220D01*
X2980137Y4272081D01*
X2954743D01*
X2946217Y4302917D02*
X2942589Y4304731D01*
X2937148Y4310173D01*
Y4272081D01*
X2896517Y4310173D02*
X2914656D01*
X2916470Y4293848D01*
X2914656Y4295661D01*
X2909214Y4297476D01*
X2903772D01*
X2898330Y4295661D01*
X2894703Y4292034D01*
X2892889Y4286592D01*
Y4282964D01*
X2894703Y4277523D01*
X2898330Y4273895D01*
X2903772Y4272081D01*
X2909214D01*
X2914656Y4273895D01*
X2916470Y4275709D01*
X2918283Y4279336D01*
X6012050Y1990528D02*
X6010236Y1986900D01*
X6006608Y1983272D01*
X6002980Y1981458D01*
X5995725D01*
X5992097Y1983272D01*
X5988469Y1986900D01*
X5986655Y1990528D01*
X5984841Y1995969D01*
Y2005039D01*
X5986655Y2010480D01*
X5988469Y2014108D01*
X5992097Y2017736D01*
X5995725Y2019550D01*
X6002980D01*
X6006608Y2017736D01*
X6010236Y2014108D01*
X6012050Y2010480D01*
X6044519Y1981458D02*
X6026380D01*
X6024566Y1997783D01*
X6026380Y1995969D01*
X6031822Y1994155D01*
X6037263D01*
X6042705Y1995969D01*
X6046333Y1999597D01*
X6048147Y2005039D01*
Y2008667D01*
X6046333Y2014108D01*
X6042705Y2017736D01*
X6037263Y2019550D01*
X6031822D01*
X6026380Y2017736D01*
X6024566Y2015922D01*
X6022752Y2012294D01*
X6067555Y1981458D02*
X6062114Y1983272D01*
X6058486Y1988714D01*
X6056672Y1997783D01*
Y2003225D01*
X6058486Y2012294D01*
X6062114Y2017736D01*
X6067555Y2019550D01*
X6071183D01*
X6076625Y2017736D01*
X6080253Y2012294D01*
X6082067Y2003225D01*
Y1997783D01*
X6080253Y1988714D01*
X6076625Y1983272D01*
X6071183Y1981458D01*
X6067555D01*
X6108731D02*
X6090592Y2006853D01*
X6117800D01*
X6108731Y1981458D02*
Y2019550D01*
X3546143Y3949475D02*
Y3987567D01*
Y3949475D02*
X3562468D01*
X3567910Y3951289D01*
X3569724Y3953103D01*
X3571538Y3956731D01*
Y3960359D01*
X3569724Y3963987D01*
X3567910Y3965801D01*
X3562468Y3967614D01*
X3546143D01*
X3558840D02*
X3571538Y3987567D01*
X3581877Y3958545D02*
Y3956731D01*
X3583691Y3953103D01*
X3585505Y3951289D01*
X3589133Y3949475D01*
X3596388D01*
X3600016Y3951289D01*
X3601830Y3953103D01*
X3603644Y3956731D01*
Y3960359D01*
X3601830Y3963987D01*
X3598202Y3969428D01*
X3580063Y3987567D01*
X3605458D01*
X3624867Y3949475D02*
X3619425Y3951289D01*
X3615797Y3956731D01*
X3613983Y3965801D01*
Y3971242D01*
X3615797Y3980312D01*
X3619425Y3985754D01*
X3624867Y3987567D01*
X3628494D01*
X3633936Y3985754D01*
X3637564Y3980312D01*
X3639378Y3971242D01*
Y3965801D01*
X3637564Y3956731D01*
X3633936Y3951289D01*
X3628494Y3949475D01*
X3624867D01*
X3673298D02*
X3655159Y3987567D01*
X3647903Y3949475D02*
X3673298D01*
X3558696Y3680740D02*
X3596788D01*
X3558696D02*
Y3664415D01*
X3560510Y3658974D01*
X3562324Y3657160D01*
X3565952Y3655346D01*
X3569580D01*
X3573208Y3657160D01*
X3575022Y3658974D01*
X3576835Y3664415D01*
Y3680740D01*
Y3668043D02*
X3596788Y3655346D01*
X3567766Y3645007D02*
X3565952D01*
X3562324Y3643193D01*
X3560510Y3641379D01*
X3558696Y3637751D01*
Y3630495D01*
X3560510Y3626868D01*
X3562324Y3625054D01*
X3565952Y3623240D01*
X3569580D01*
X3573208Y3625054D01*
X3578649Y3628682D01*
X3596788Y3646820D01*
Y3621426D01*
X3558696Y3602017D02*
X3560510Y3607459D01*
X3565952Y3611087D01*
X3575022Y3612901D01*
X3580463D01*
X3589533Y3611087D01*
X3594975Y3607459D01*
X3596788Y3602017D01*
Y3598389D01*
X3594975Y3592948D01*
X3589533Y3589320D01*
X3580463Y3587506D01*
X3575022D01*
X3565952Y3589320D01*
X3560510Y3592948D01*
X3558696Y3598389D01*
Y3602017D01*
Y3557214D02*
Y3575353D01*
X3575022Y3577167D01*
X3573208Y3575353D01*
X3571394Y3569911D01*
Y3564469D01*
X3573208Y3559028D01*
X3576835Y3555400D01*
X3582277Y3553586D01*
X3585905D01*
X3591347Y3555400D01*
X3594975Y3559028D01*
X3596788Y3564469D01*
Y3569911D01*
X3594975Y3575353D01*
X3593160Y3577167D01*
X3589533Y3578981D01*
X3547235Y3756969D02*
Y3795061D01*
Y3756969D02*
X3563561D01*
X3569002Y3758783D01*
X3570816Y3760597D01*
X3572630Y3764224D01*
Y3767852D01*
X3570816Y3771480D01*
X3569002Y3773294D01*
X3563561Y3775108D01*
X3547235D01*
X3559933D02*
X3572630Y3795061D01*
X3582969Y3766038D02*
Y3764224D01*
X3584783Y3760597D01*
X3586597Y3758783D01*
X3590225Y3756969D01*
X3597480D01*
X3601108Y3758783D01*
X3602922Y3760597D01*
X3604736Y3764224D01*
Y3767852D01*
X3602922Y3771480D01*
X3599294Y3776922D01*
X3581155Y3795061D01*
X3606550D01*
X3625959Y3756969D02*
X3620517Y3758783D01*
X3616889Y3764224D01*
X3615075Y3773294D01*
Y3778736D01*
X3616889Y3787805D01*
X3620517Y3793247D01*
X3625959Y3795061D01*
X3629587D01*
X3635028Y3793247D01*
X3638656Y3787805D01*
X3640470Y3778736D01*
Y3773294D01*
X3638656Y3764224D01*
X3635028Y3758783D01*
X3629587Y3756969D01*
X3625959D01*
X3658065D02*
X3652623Y3758783D01*
X3650809Y3762411D01*
Y3766038D01*
X3652623Y3769666D01*
X3656251Y3771480D01*
X3663507Y3773294D01*
X3668948Y3775108D01*
X3672576Y3778736D01*
X3674390Y3782364D01*
Y3787805D01*
X3672576Y3791433D01*
X3670762Y3793247D01*
X3665320Y3795061D01*
X3658065D01*
X3652623Y3793247D01*
X3650809Y3791433D01*
X3648995Y3787805D01*
Y3782364D01*
X3650809Y3778736D01*
X3654437Y3775108D01*
X3659879Y3773294D01*
X3667134Y3771480D01*
X3670762Y3769666D01*
X3672576Y3766038D01*
Y3762411D01*
X3670762Y3758783D01*
X3665320Y3756969D01*
X3658065D01*
X3389894Y4311187D02*
X3391708Y4314815D01*
X3395336Y4318443D01*
X3398964Y4320257D01*
X3406220D01*
X3409847Y4318443D01*
X3413475Y4314815D01*
X3415289Y4311187D01*
X3417103Y4305745D01*
Y4296676D01*
X3415289Y4291234D01*
X3413475Y4287606D01*
X3409847Y4283978D01*
X3406220Y4282165D01*
X3398964D01*
X3395336Y4283978D01*
X3391708Y4287606D01*
X3389894Y4291234D01*
X3377379Y4311187D02*
Y4313001D01*
X3375564Y4316629D01*
X3373751Y4318443D01*
X3370123Y4320257D01*
X3362867D01*
X3359239Y4318443D01*
X3357426Y4316629D01*
X3355612Y4313001D01*
Y4309373D01*
X3357426Y4305745D01*
X3361053Y4300304D01*
X3379192Y4282165D01*
X3353798D01*
X3334389Y4320257D02*
X3339831Y4318443D01*
X3343459Y4313001D01*
X3345272Y4303931D01*
Y4298490D01*
X3343459Y4289420D01*
X3339831Y4283978D01*
X3334389Y4282165D01*
X3330761D01*
X3325319Y4283978D01*
X3321692Y4289420D01*
X3319878Y4298490D01*
Y4303931D01*
X3321692Y4313001D01*
X3325319Y4318443D01*
X3330761Y4320257D01*
X3334389D01*
X3285958D02*
X3304097Y4282165D01*
X3311353Y4320257D02*
X3285958D01*
X5010308Y3979387D02*
X5012122Y3983015D01*
X5015750Y3986643D01*
X5019378Y3988456D01*
X5026633D01*
X5030261Y3986643D01*
X5033889Y3983015D01*
X5035703Y3979387D01*
X5037516Y3973945D01*
Y3964876D01*
X5035703Y3959434D01*
X5033889Y3955806D01*
X5030261Y3952178D01*
X5026633Y3950364D01*
X5019378D01*
X5015750Y3952178D01*
X5012122Y3955806D01*
X5010308Y3959434D01*
X4999606Y3981201D02*
X4995978Y3983015D01*
X4990536Y3988456D01*
Y3950364D01*
X4949905Y3988456D02*
X4968044D01*
X4969858Y3972131D01*
X4968044Y3973945D01*
X4962602Y3975759D01*
X4957161D01*
X4951719Y3973945D01*
X4948091Y3970317D01*
X4946277Y3964876D01*
Y3961248D01*
X4948091Y3955806D01*
X4951719Y3952178D01*
X4957161Y3950364D01*
X4962602D01*
X4968044Y3952178D01*
X4969858Y3953992D01*
X4971672Y3957620D01*
X4937752Y3981201D02*
X4934124Y3983015D01*
X4928683Y3988456D01*
Y3950364D01*
X5261295Y3782562D02*
X5263108Y3786190D01*
X5266736Y3789818D01*
X5270364Y3791632D01*
X5277620D01*
X5281248Y3789818D01*
X5284875Y3786190D01*
X5286689Y3782562D01*
X5288503Y3777120D01*
Y3768051D01*
X5286689Y3762609D01*
X5284875Y3758982D01*
X5281248Y3755354D01*
X5277620Y3753540D01*
X5270364D01*
X5266736Y3755354D01*
X5263108Y3758982D01*
X5261295Y3762609D01*
X5250592Y3784376D02*
X5246965Y3786190D01*
X5241523Y3791632D01*
Y3753540D01*
X5211775Y3791632D02*
X5217217Y3789818D01*
X5220845Y3784376D01*
X5222659Y3775307D01*
Y3769865D01*
X5220845Y3760795D01*
X5217217Y3755354D01*
X5211775Y3753540D01*
X5208147D01*
X5202706Y3755354D01*
X5199078Y3760795D01*
X5197264Y3769865D01*
Y3775307D01*
X5199078Y3784376D01*
X5202706Y3789818D01*
X5208147Y3791632D01*
X5211775D01*
X5179669D02*
X5185111Y3789818D01*
X5186925Y3786190D01*
Y3782562D01*
X5185111Y3778935D01*
X5181483Y3777120D01*
X5174227Y3775307D01*
X5168786Y3773493D01*
X5165158Y3769865D01*
X5163344Y3766237D01*
Y3760795D01*
X5165158Y3757168D01*
X5166972Y3755354D01*
X5172414Y3753540D01*
X5179669D01*
X5185111Y3755354D01*
X5186925Y3757168D01*
X5188739Y3760795D01*
Y3766237D01*
X5186925Y3769865D01*
X5183297Y3773493D01*
X5177855Y3775307D01*
X5170600Y3777120D01*
X5166972Y3778935D01*
X5165158Y3782562D01*
Y3786190D01*
X5166972Y3789818D01*
X5172414Y3791632D01*
X5179669D01*
X5464663Y5359562D02*
X5461035Y5361376D01*
X5457407Y5365004D01*
X5455594Y5368632D01*
Y5375887D01*
X5457407Y5379515D01*
X5461035Y5383143D01*
X5464663Y5384957D01*
X5470105Y5386771D01*
X5479174D01*
X5484616Y5384957D01*
X5488244Y5383143D01*
X5491872Y5379515D01*
X5493685Y5375887D01*
Y5368632D01*
X5491872Y5365004D01*
X5488244Y5361376D01*
X5484616Y5359562D01*
X5455594Y5330721D02*
X5480988Y5348860D01*
Y5321652D01*
X5455594Y5330721D02*
X5493685D01*
X5455594Y5304057D02*
X5457407Y5309498D01*
X5462849Y5313126D01*
X5471919Y5314940D01*
X5477360D01*
X5486430Y5313126D01*
X5491872Y5309498D01*
X5493685Y5304057D01*
Y5300429D01*
X5491872Y5294987D01*
X5486430Y5291359D01*
X5477360Y5289545D01*
X5471919D01*
X5462849Y5291359D01*
X5457407Y5294987D01*
X5455594Y5300429D01*
Y5304057D01*
Y5259253D02*
Y5277392D01*
X5471919Y5279206D01*
X5470105Y5277392D01*
X5468291Y5271951D01*
Y5266509D01*
X5470105Y5261067D01*
X5473733Y5257440D01*
X5479174Y5255626D01*
X5482802D01*
X5488244Y5257440D01*
X5491872Y5261067D01*
X5493685Y5266509D01*
Y5271951D01*
X5491872Y5277392D01*
X5490058Y5279206D01*
X5486430Y5281020D01*
X3713855Y4267102D02*
Y4305194D01*
Y4267102D02*
X3730181D01*
X3735622Y4268916D01*
X3737436Y4270730D01*
X3739250Y4274358D01*
Y4277986D01*
X3737436Y4281614D01*
X3735622Y4283428D01*
X3730181Y4285241D01*
X3713855D01*
X3726553D02*
X3739250Y4305194D01*
X3749589Y4276172D02*
Y4274358D01*
X3751403Y4270730D01*
X3753217Y4268916D01*
X3756845Y4267102D01*
X3764100D01*
X3767728Y4268916D01*
X3769542Y4270730D01*
X3771356Y4274358D01*
Y4277986D01*
X3769542Y4281614D01*
X3765914Y4287055D01*
X3747775Y4305194D01*
X3773170D01*
X3781695Y4274358D02*
X3785323Y4272544D01*
X3790765Y4267102D01*
Y4305194D01*
X3820513Y4267102D02*
X3815071Y4268916D01*
X3811443Y4274358D01*
X3809629Y4283428D01*
Y4288869D01*
X3811443Y4297939D01*
X3815071Y4303381D01*
X3820513Y4305194D01*
X3824140D01*
X3829582Y4303381D01*
X3833210Y4297939D01*
X3835024Y4288869D01*
Y4283428D01*
X3833210Y4274358D01*
X3829582Y4268916D01*
X3824140Y4267102D01*
X3820513D01*
X4904632Y4362979D02*
Y4324887D01*
Y4362979D02*
X4888307D01*
X4882866Y4361166D01*
X4881052Y4359351D01*
X4879238Y4355724D01*
Y4352096D01*
X4881052Y4348468D01*
X4882866Y4346654D01*
X4888307Y4344840D01*
X4904632D01*
X4891935D02*
X4879238Y4324887D01*
X4868899Y4353910D02*
Y4355724D01*
X4867084Y4359351D01*
X4865271Y4361166D01*
X4861643Y4362979D01*
X4854387D01*
X4850759Y4361166D01*
X4848946Y4359351D01*
X4847132Y4355724D01*
Y4352096D01*
X4848946Y4348468D01*
X4852573Y4343026D01*
X4870712Y4324887D01*
X4845318D01*
X4825909Y4362979D02*
X4831351Y4361166D01*
X4834979Y4355724D01*
X4836792Y4346654D01*
Y4341213D01*
X4834979Y4332143D01*
X4831351Y4326701D01*
X4825909Y4324887D01*
X4822281D01*
X4816839Y4326701D01*
X4813212Y4332143D01*
X4811398Y4341213D01*
Y4346654D01*
X4813212Y4355724D01*
X4816839Y4361166D01*
X4822281Y4362979D01*
X4825909D01*
X4784734D02*
X4802873Y4337585D01*
X4775664D01*
X4784734Y4362979D02*
Y4324887D01*
X5603338Y5256994D02*
X5565246D01*
X5603338D02*
Y5273319D01*
X5601524Y5278761D01*
X5599710Y5280574D01*
X5596082Y5282388D01*
X5592454D01*
X5588826Y5280574D01*
X5587012Y5278761D01*
X5585199Y5273319D01*
Y5256994D01*
Y5269691D02*
X5565246Y5282388D01*
X5603338Y5309053D02*
X5577943Y5290914D01*
Y5318122D01*
X5603338Y5309053D02*
X5565246D01*
X5603338Y5335717D02*
X5601524Y5330275D01*
X5596082Y5326647D01*
X5587012Y5324834D01*
X5581571D01*
X5572501Y5326647D01*
X5567059Y5330275D01*
X5565246Y5335717D01*
Y5339345D01*
X5567059Y5344787D01*
X5572501Y5348414D01*
X5581571Y5350228D01*
X5587012D01*
X5596082Y5348414D01*
X5601524Y5344787D01*
X5603338Y5339345D01*
Y5335717D01*
Y5376892D02*
X5577943Y5358754D01*
Y5385962D01*
X5603338Y5376892D02*
X5565246D01*
X3294337Y3349578D02*
Y3387670D01*
Y3349578D02*
X3310662D01*
X3316104Y3351392D01*
X3317917Y3353206D01*
X3319731Y3356834D01*
Y3360462D01*
X3317917Y3364090D01*
X3316104Y3365903D01*
X3310662Y3367717D01*
X3294337D01*
X3307034D02*
X3319731Y3387670D01*
X3330071Y3358648D02*
Y3356834D01*
X3331885Y3353206D01*
X3333698Y3351392D01*
X3337326Y3349578D01*
X3344582D01*
X3348210Y3351392D01*
X3350024Y3353206D01*
X3351837Y3356834D01*
Y3360462D01*
X3350024Y3364090D01*
X3346396Y3369531D01*
X3328257Y3387670D01*
X3353651D01*
X3373060Y3349578D02*
X3367618Y3351392D01*
X3363990Y3356834D01*
X3362177Y3365903D01*
Y3371345D01*
X3363990Y3380415D01*
X3367618Y3385856D01*
X3373060Y3387670D01*
X3376688D01*
X3382130Y3385856D01*
X3385757Y3380415D01*
X3387571Y3371345D01*
Y3365903D01*
X3385757Y3356834D01*
X3382130Y3351392D01*
X3376688Y3349578D01*
X3373060D01*
X3396097Y3356834D02*
X3399724Y3355020D01*
X3405166Y3349578D01*
Y3387670D01*
X5870520Y5257113D02*
X5832428D01*
X5870520D02*
Y5273438D01*
X5868706Y5278880D01*
X5866892Y5280694D01*
X5863265Y5282508D01*
X5859637D01*
X5856009Y5280694D01*
X5854195Y5278880D01*
X5852381Y5273438D01*
Y5257113D01*
Y5269810D02*
X5832428Y5282508D01*
X5870520Y5309172D02*
X5845125Y5291033D01*
Y5318242D01*
X5870520Y5309172D02*
X5832428D01*
X5870520Y5335836D02*
X5868706Y5330395D01*
X5863265Y5326767D01*
X5854195Y5324953D01*
X5848753D01*
X5839684Y5326767D01*
X5834242Y5330395D01*
X5832428Y5335836D01*
Y5339464D01*
X5834242Y5344906D01*
X5839684Y5348534D01*
X5848753Y5350348D01*
X5854195D01*
X5863265Y5348534D01*
X5868706Y5344906D01*
X5870520Y5339464D01*
Y5335836D01*
Y5380640D02*
Y5362501D01*
X5854195Y5360687D01*
X5856009Y5362501D01*
X5857823Y5367943D01*
Y5373384D01*
X5856009Y5378826D01*
X5852381Y5382454D01*
X5846940Y5384268D01*
X5843312D01*
X5837870Y5382454D01*
X5834242Y5378826D01*
X5832428Y5373384D01*
Y5367943D01*
X5834242Y5362501D01*
X5836056Y5360687D01*
X5839684Y5358873D01*
X5711846Y5266876D02*
X5673754D01*
X5711846D02*
Y5283201D01*
X5710033Y5288643D01*
X5708218Y5290457D01*
X5704591Y5292271D01*
X5700963D01*
X5697335Y5290457D01*
X5695521Y5288643D01*
X5693707Y5283201D01*
Y5266876D01*
Y5279573D02*
X5673754Y5292271D01*
X5711846Y5318935D02*
X5686452Y5300796D01*
Y5328004D01*
X5711846Y5318935D02*
X5673754D01*
X5711846Y5345599D02*
X5710033Y5340157D01*
X5704591Y5336530D01*
X5695521Y5334716D01*
X5690080D01*
X5681010Y5336530D01*
X5675568Y5340157D01*
X5673754Y5345599D01*
Y5349227D01*
X5675568Y5354669D01*
X5681010Y5358296D01*
X5690080Y5360110D01*
X5695521D01*
X5704591Y5358296D01*
X5710033Y5354669D01*
X5711846Y5349227D01*
Y5345599D01*
X5704591Y5368636D02*
X5706405Y5372264D01*
X5711846Y5377705D01*
X5673754D01*
X771140Y3459076D02*
X733048D01*
X771140D02*
Y3475401D01*
X769326Y3480842D01*
X767512Y3482656D01*
X763884Y3484470D01*
X760257D01*
X756629Y3482656D01*
X754815Y3480842D01*
X753001Y3475401D01*
Y3459076D01*
Y3471773D02*
X733048Y3484470D01*
X763884Y3492996D02*
X765698Y3496623D01*
X771140Y3502065D01*
X733048D01*
X771140Y3531813D02*
X769326Y3526371D01*
X763884Y3522743D01*
X754815Y3520929D01*
X749373D01*
X740304Y3522743D01*
X734862Y3526371D01*
X733048Y3531813D01*
Y3535441D01*
X734862Y3540882D01*
X740304Y3544510D01*
X749373Y3546324D01*
X754815D01*
X763884Y3544510D01*
X769326Y3540882D01*
X771140Y3535441D01*
Y3531813D01*
Y3572988D02*
X745745Y3554849D01*
Y3582058D01*
X771140Y3572988D02*
X733048D01*
X762070Y3590583D02*
X763884D01*
X767512Y3592397D01*
X769326Y3594211D01*
X771140Y3597839D01*
Y3605094D01*
X769326Y3608722D01*
X767512Y3610536D01*
X763884Y3612350D01*
X760257D01*
X756629Y3610536D01*
X751187Y3606908D01*
X733048Y3588769D01*
Y3614164D01*
X663241Y3462809D02*
X625149D01*
X663241D02*
Y3479135D01*
X661427Y3484576D01*
X659613Y3486390D01*
X655985Y3488204D01*
X652357D01*
X648729Y3486390D01*
X646916Y3484576D01*
X645102Y3479135D01*
Y3462809D01*
Y3475507D02*
X625149Y3488204D01*
X655985Y3496729D02*
X657799Y3500357D01*
X663241Y3505799D01*
X625149D01*
X663241Y3535547D02*
X661427Y3530105D01*
X655985Y3526477D01*
X646916Y3524663D01*
X641474D01*
X632404Y3526477D01*
X626963Y3530105D01*
X625149Y3535547D01*
Y3539175D01*
X626963Y3544616D01*
X632404Y3548244D01*
X641474Y3550058D01*
X646916D01*
X655985Y3548244D01*
X661427Y3544616D01*
X663241Y3539175D01*
Y3535547D01*
Y3576722D02*
X637846Y3558583D01*
Y3585792D01*
X663241Y3576722D02*
X625149D01*
X663241Y3596131D02*
Y3616084D01*
X648729Y3605200D01*
Y3610642D01*
X646916Y3614270D01*
X645102Y3616084D01*
X639660Y3617898D01*
X636032D01*
X630591Y3616084D01*
X626963Y3612456D01*
X625149Y3607014D01*
Y3601573D01*
X626963Y3596131D01*
X628777Y3594317D01*
X632404Y3592503D01*
X989326Y3923979D02*
X951234D01*
X989326D02*
Y3940305D01*
X987512Y3945746D01*
X985698Y3947560D01*
X982070Y3949374D01*
X978443D01*
X974815Y3947560D01*
X973001Y3945746D01*
X971187Y3940305D01*
Y3923979D01*
Y3936677D02*
X951234Y3949374D01*
X982070Y3957899D02*
X983884Y3961527D01*
X989326Y3966969D01*
X951234D01*
X989326Y3996717D02*
X987512Y3991275D01*
X982070Y3987647D01*
X973001Y3985833D01*
X967559D01*
X958490Y3987647D01*
X953048Y3991275D01*
X951234Y3996717D01*
Y4000345D01*
X953048Y4005786D01*
X958490Y4009414D01*
X967559Y4011228D01*
X973001D01*
X982070Y4009414D01*
X987512Y4005786D01*
X989326Y4000345D01*
Y3996717D01*
Y4037892D02*
X963931Y4019753D01*
Y4046962D01*
X989326Y4037892D02*
X951234D01*
X989326Y4071812D02*
X963931Y4053673D01*
Y4080882D01*
X989326Y4071812D02*
X951234D01*
X860624Y3929179D02*
X822532D01*
X860624D02*
Y3945504D01*
X858810Y3950946D01*
X856996Y3952759D01*
X853369Y3954573D01*
X849741D01*
X846113Y3952759D01*
X844299Y3950946D01*
X842485Y3945504D01*
Y3929179D01*
Y3941876D02*
X822532Y3954573D01*
X853369Y3963099D02*
X855182Y3966727D01*
X860624Y3972168D01*
X822532D01*
X860624Y4001916D02*
X858810Y3996474D01*
X853369Y3992846D01*
X844299Y3991033D01*
X838857D01*
X829788Y3992846D01*
X824346Y3996474D01*
X822532Y4001916D01*
Y4005544D01*
X824346Y4010986D01*
X829788Y4014613D01*
X838857Y4016427D01*
X844299D01*
X853369Y4014613D01*
X858810Y4010986D01*
X860624Y4005544D01*
Y4001916D01*
Y4043091D02*
X835229Y4024953D01*
Y4052161D01*
X860624Y4043091D02*
X822532D01*
X860624Y4080639D02*
Y4062500D01*
X844299Y4060686D01*
X846113Y4062500D01*
X847927Y4067942D01*
Y4073384D01*
X846113Y4078825D01*
X842485Y4082453D01*
X837044Y4084267D01*
X833416D01*
X827974Y4082453D01*
X824346Y4078825D01*
X822532Y4073384D01*
Y4067942D01*
X824346Y4062500D01*
X826160Y4060686D01*
X829788Y4058873D01*
X3119586Y1365358D02*
X3117772Y1361730D01*
X3114144Y1358102D01*
X3110516Y1356288D01*
X3103261D01*
X3099633Y1358102D01*
X3096005Y1361730D01*
X3094191Y1365358D01*
X3092377Y1370800D01*
Y1379869D01*
X3094191Y1385311D01*
X3096005Y1388939D01*
X3099633Y1392566D01*
X3103261Y1394380D01*
X3110516D01*
X3114144Y1392566D01*
X3117772Y1388939D01*
X3119586Y1385311D01*
X3155683Y1356288D02*
X3137543Y1394380D01*
X3130288Y1356288D02*
X3155683D01*
X3175091D02*
X3169649Y1358102D01*
X3166022Y1363544D01*
X3164208Y1372613D01*
Y1378055D01*
X3166022Y1387125D01*
X3169649Y1392566D01*
X3175091Y1394380D01*
X3178719D01*
X3184161Y1392566D01*
X3187788Y1387125D01*
X3189602Y1378055D01*
Y1372613D01*
X3187788Y1363544D01*
X3184161Y1358102D01*
X3178719Y1356288D01*
X3175091D01*
X3221708Y1368986D02*
X3219895Y1374427D01*
X3216267Y1378055D01*
X3210825Y1379869D01*
X3209011D01*
X3203569Y1378055D01*
X3199942Y1374427D01*
X3198128Y1368986D01*
Y1367172D01*
X3199942Y1361730D01*
X3203569Y1358102D01*
X3209011Y1356288D01*
X3210825D01*
X3216267Y1358102D01*
X3219895Y1361730D01*
X3221708Y1368986D01*
Y1378055D01*
X3219895Y1387125D01*
X3216267Y1392566D01*
X3210825Y1394380D01*
X3207197D01*
X3201756Y1392566D01*
X3199942Y1388939D01*
X3123704Y1213872D02*
X3121890Y1210244D01*
X3118262Y1206617D01*
X3114634Y1204803D01*
X3107379D01*
X3103751Y1206617D01*
X3100123Y1210244D01*
X3098309Y1213872D01*
X3096495Y1219314D01*
Y1228383D01*
X3098309Y1233825D01*
X3100123Y1237453D01*
X3103751Y1241081D01*
X3107379Y1242895D01*
X3114634D01*
X3118262Y1241081D01*
X3121890Y1237453D01*
X3123704Y1233825D01*
X3159800Y1204803D02*
X3141661Y1242895D01*
X3134406Y1204803D02*
X3159800D01*
X3168326Y1212058D02*
X3171954Y1210244D01*
X3177395Y1204803D01*
Y1242895D01*
X3198073Y1213872D02*
Y1212058D01*
X3199887Y1208431D01*
X3201701Y1206617D01*
X3205329Y1204803D01*
X3212585D01*
X3216213Y1206617D01*
X3218026Y1208431D01*
X3219840Y1212058D01*
Y1215686D01*
X3218026Y1219314D01*
X3214398Y1224756D01*
X3196260Y1242895D01*
X3221654D01*
X3046242Y1599831D02*
X3049869Y1598017D01*
X3053497Y1594389D01*
X3055311Y1590761D01*
Y1583506D01*
X3053497Y1579878D01*
X3049869Y1576250D01*
X3046242Y1574436D01*
X3040800Y1572622D01*
X3031731D01*
X3026289Y1574436D01*
X3022661Y1576250D01*
X3019033Y1579878D01*
X3017219Y1583506D01*
Y1590761D01*
X3019033Y1594389D01*
X3022661Y1598017D01*
X3026289Y1599831D01*
X3055311Y1635927D02*
X3017219Y1617788D01*
X3055311Y1610533D02*
Y1635927D01*
X3048056Y1644453D02*
X3049869Y1648081D01*
X3055311Y1653522D01*
X3017219D01*
X3055311Y1676014D02*
Y1695967D01*
X3040800Y1685084D01*
Y1690525D01*
X3038986Y1694153D01*
X3037172Y1695967D01*
X3031731Y1697781D01*
X3028103D01*
X3022661Y1695967D01*
X3019033Y1692340D01*
X3017219Y1686898D01*
Y1681456D01*
X3019033Y1676014D01*
X3020847Y1674200D01*
X3024475Y1672387D01*
X2899252Y1599145D02*
X2902880Y1597331D01*
X2906508Y1593703D01*
X2908321Y1590075D01*
Y1582820D01*
X2906508Y1579192D01*
X2902880Y1575564D01*
X2899252Y1573750D01*
X2893810Y1571936D01*
X2884741D01*
X2879299Y1573750D01*
X2875671Y1575564D01*
X2872043Y1579192D01*
X2870229Y1582820D01*
Y1590075D01*
X2872043Y1593703D01*
X2875671Y1597331D01*
X2879299Y1599145D01*
X2908321Y1635242D02*
X2870229Y1617102D01*
X2908321Y1609847D02*
Y1635242D01*
X2901066Y1643767D02*
X2902880Y1647395D01*
X2908321Y1652836D01*
X2870229D01*
X2908321Y1680770D02*
X2906508Y1675329D01*
X2902880Y1673515D01*
X2899252D01*
X2895624Y1675329D01*
X2893810Y1678956D01*
X2891996Y1686212D01*
X2890182Y1691654D01*
X2886555Y1695281D01*
X2882927Y1697095D01*
X2877485D01*
X2873857Y1695281D01*
X2872043Y1693468D01*
X2870229Y1688026D01*
Y1680770D01*
X2872043Y1675329D01*
X2873857Y1673515D01*
X2877485Y1671701D01*
X2882927D01*
X2886555Y1673515D01*
X2890182Y1677142D01*
X2891996Y1682584D01*
X2893810Y1689840D01*
X2895624Y1693468D01*
X2899252Y1695281D01*
X2902880D01*
X2906508Y1693468D01*
X2908321Y1688026D01*
Y1680770D01*
X2750865Y1603832D02*
X2754493Y1602018D01*
X2758121Y1598390D01*
X2759935Y1594762D01*
Y1587507D01*
X2758121Y1583879D01*
X2754493Y1580251D01*
X2750865Y1578437D01*
X2745424Y1576623D01*
X2736354D01*
X2730912Y1578437D01*
X2727285Y1580251D01*
X2723657Y1583879D01*
X2721843Y1587507D01*
Y1594762D01*
X2723657Y1598390D01*
X2727285Y1602018D01*
X2730912Y1603832D01*
X2759935Y1639928D02*
X2721843Y1621789D01*
X2759935Y1614534D02*
Y1639928D01*
X2750865Y1650267D02*
X2752679D01*
X2756307Y1652082D01*
X2758121Y1653895D01*
X2759935Y1657523D01*
Y1664779D01*
X2758121Y1668407D01*
X2756307Y1670220D01*
X2752679Y1672034D01*
X2749051D01*
X2745424Y1670220D01*
X2739982Y1666593D01*
X2721843Y1648454D01*
Y1673848D01*
X2752679Y1682374D02*
X2754493Y1686001D01*
X2759935Y1691443D01*
X2721843D01*
X2613335Y1127338D02*
X2609708Y1129152D01*
X2606080Y1132780D01*
X2604266Y1136407D01*
Y1143663D01*
X2606080Y1147291D01*
X2609708Y1150918D01*
X2613335Y1152733D01*
X2618777Y1154546D01*
X2627846D01*
X2633288Y1152733D01*
X2636916Y1150918D01*
X2640544Y1147291D01*
X2642358Y1143663D01*
Y1136407D01*
X2640544Y1132780D01*
X2636916Y1129152D01*
X2633288Y1127338D01*
X2604266Y1091241D02*
X2642358Y1109380D01*
X2604266Y1116636D02*
Y1091241D01*
Y1071833D02*
X2606080Y1077274D01*
X2611521Y1080902D01*
X2620591Y1082716D01*
X2626033D01*
X2635102Y1080902D01*
X2640544Y1077274D01*
X2642358Y1071833D01*
Y1068205D01*
X2640544Y1062763D01*
X2635102Y1059135D01*
X2626033Y1057321D01*
X2620591D01*
X2611521Y1059135D01*
X2606080Y1062763D01*
X2604266Y1068205D01*
Y1071833D01*
X2613335Y1046982D02*
X2611521D01*
X2607894Y1045168D01*
X2606080Y1043354D01*
X2604266Y1039726D01*
Y1032471D01*
X2606080Y1028843D01*
X2607894Y1027029D01*
X2611521Y1025215D01*
X2615149D01*
X2618777Y1027029D01*
X2624219Y1030657D01*
X2642358Y1048796D01*
Y1023401D01*
X2580239Y1667781D02*
X2576612Y1669595D01*
X2572984Y1673223D01*
X2571170Y1676851D01*
Y1684106D01*
X2572984Y1687734D01*
X2576612Y1691362D01*
X2580239Y1693176D01*
X2585681Y1694990D01*
X2594750D01*
X2600192Y1693176D01*
X2603820Y1691362D01*
X2607448Y1687734D01*
X2609262Y1684106D01*
Y1676851D01*
X2607448Y1673223D01*
X2603820Y1669595D01*
X2600192Y1667781D01*
X2571170Y1631685D02*
X2609262Y1649824D01*
X2571170Y1657079D02*
Y1631685D01*
X2580239Y1621345D02*
X2578425D01*
X2574798Y1619531D01*
X2572984Y1617718D01*
X2571170Y1614090D01*
Y1606834D01*
X2572984Y1603206D01*
X2574798Y1601393D01*
X2578425Y1599579D01*
X2582053D01*
X2585681Y1601393D01*
X2591123Y1605020D01*
X2609262Y1623159D01*
Y1597765D01*
X2576612Y1567473D02*
X2572984Y1569286D01*
X2571170Y1574728D01*
Y1578356D01*
X2572984Y1583798D01*
X2578425Y1587426D01*
X2587495Y1589239D01*
X2596565D01*
X2603820Y1587426D01*
X2607448Y1583798D01*
X2609262Y1578356D01*
Y1576542D01*
X2607448Y1571100D01*
X2603820Y1567473D01*
X2598378Y1565659D01*
X2596565D01*
X2591123Y1567473D01*
X2587495Y1571100D01*
X2585681Y1576542D01*
Y1578356D01*
X2587495Y1583798D01*
X2591123Y1587426D01*
X2596565Y1589239D01*
X5596144Y2137162D02*
X5594330Y2133534D01*
X5590702Y2129907D01*
X5587074Y2128093D01*
X5579819D01*
X5576191Y2129907D01*
X5572563Y2133534D01*
X5570749Y2137162D01*
X5568936Y2142604D01*
Y2151673D01*
X5570749Y2157115D01*
X5572563Y2160743D01*
X5576191Y2164371D01*
X5579819Y2166185D01*
X5587074D01*
X5590702Y2164371D01*
X5594330Y2160743D01*
X5596144Y2157115D01*
X5628613Y2128093D02*
X5610474D01*
X5608660Y2144418D01*
X5610474Y2142604D01*
X5615916Y2140790D01*
X5621357D01*
X5626799Y2142604D01*
X5630427Y2146232D01*
X5632241Y2151673D01*
Y2155301D01*
X5630427Y2160743D01*
X5626799Y2164371D01*
X5621357Y2166185D01*
X5615916D01*
X5610474Y2164371D01*
X5608660Y2162557D01*
X5606846Y2158929D01*
X5651649Y2128093D02*
X5646208Y2129907D01*
X5642580Y2135348D01*
X5640766Y2144418D01*
Y2149860D01*
X5642580Y2158929D01*
X5646208Y2164371D01*
X5651649Y2166185D01*
X5655277D01*
X5660719Y2164371D01*
X5664347Y2158929D01*
X5666161Y2149860D01*
Y2144418D01*
X5664347Y2135348D01*
X5660719Y2129907D01*
X5655277Y2128093D01*
X5651649D01*
X5700081D02*
X5681941Y2166185D01*
X5674686Y2128093D02*
X5700081D01*
X5448763Y2055563D02*
X5445135Y2057377D01*
X5441507Y2061005D01*
X5439693Y2064633D01*
Y2071888D01*
X5441507Y2075516D01*
X5445135Y2079144D01*
X5448763Y2080958D01*
X5454205Y2082772D01*
X5463274D01*
X5468716Y2080958D01*
X5472344Y2079144D01*
X5475972Y2075516D01*
X5477785Y2071888D01*
Y2064633D01*
X5475972Y2061005D01*
X5472344Y2057377D01*
X5468716Y2055563D01*
X5439693Y2023094D02*
Y2041233D01*
X5456019Y2043047D01*
X5454205Y2041233D01*
X5452391Y2035791D01*
Y2030350D01*
X5454205Y2024908D01*
X5457832Y2021280D01*
X5463274Y2019466D01*
X5466902D01*
X5472344Y2021280D01*
X5475972Y2024908D01*
X5477785Y2030350D01*
Y2035791D01*
X5475972Y2041233D01*
X5474157Y2043047D01*
X5470530Y2044861D01*
X5439693Y2000058D02*
X5441507Y2005499D01*
X5446949Y2009127D01*
X5456019Y2010941D01*
X5461460D01*
X5470530Y2009127D01*
X5475972Y2005499D01*
X5477785Y2000058D01*
Y1996430D01*
X5475972Y1990988D01*
X5470530Y1987361D01*
X5461460Y1985546D01*
X5456019D01*
X5446949Y1987361D01*
X5441507Y1990988D01*
X5439693Y1996430D01*
Y2000058D01*
X5445135Y1955254D02*
X5441507Y1957068D01*
X5439693Y1962510D01*
Y1966138D01*
X5441507Y1971579D01*
X5446949Y1975207D01*
X5456019Y1977021D01*
X5465088D01*
X5472344Y1975207D01*
X5475972Y1971579D01*
X5477785Y1966138D01*
Y1964324D01*
X5475972Y1958882D01*
X5472344Y1955254D01*
X5466902Y1953441D01*
X5465088D01*
X5459646Y1955254D01*
X5456019Y1958882D01*
X5454205Y1964324D01*
Y1966138D01*
X5456019Y1971579D01*
X5459646Y1975207D01*
X5465088Y1977021D01*
X5449550Y2162210D02*
X5445922Y2164024D01*
X5442294Y2167652D01*
X5440481Y2171280D01*
Y2178535D01*
X5442294Y2182163D01*
X5445922Y2185791D01*
X5449550Y2187605D01*
X5454992Y2189419D01*
X5464061D01*
X5469503Y2187605D01*
X5473131Y2185791D01*
X5476759Y2182163D01*
X5478572Y2178535D01*
Y2171280D01*
X5476759Y2167652D01*
X5473131Y2164024D01*
X5469503Y2162210D01*
X5440481Y2129741D02*
Y2147880D01*
X5456806Y2149694D01*
X5454992Y2147880D01*
X5453178Y2142438D01*
Y2136997D01*
X5454992Y2131555D01*
X5458620Y2127927D01*
X5464061Y2126113D01*
X5467689D01*
X5473131Y2127927D01*
X5476759Y2131555D01*
X5478572Y2136997D01*
Y2142438D01*
X5476759Y2147880D01*
X5474945Y2149694D01*
X5471317Y2151508D01*
X5440481Y2106705D02*
X5442294Y2112146D01*
X5447736Y2115774D01*
X5456806Y2117588D01*
X5462247D01*
X5471317Y2115774D01*
X5476759Y2112146D01*
X5478572Y2106705D01*
Y2103077D01*
X5476759Y2097635D01*
X5471317Y2094007D01*
X5462247Y2092193D01*
X5456806D01*
X5447736Y2094007D01*
X5442294Y2097635D01*
X5440481Y2103077D01*
Y2106705D01*
Y2061901D02*
Y2080040D01*
X5456806Y2081854D01*
X5454992Y2080040D01*
X5453178Y2074599D01*
Y2069157D01*
X5454992Y2063715D01*
X5458620Y2060088D01*
X5464061Y2058274D01*
X5467689D01*
X5473131Y2060088D01*
X5476759Y2063715D01*
X5478572Y2069157D01*
Y2074599D01*
X5476759Y2080040D01*
X5474945Y2081854D01*
X5471317Y2083668D01*
X5562417Y1838137D02*
X5566044Y1836323D01*
X5569672Y1832695D01*
X5571486Y1829067D01*
Y1821812D01*
X5569672Y1818184D01*
X5566044Y1814556D01*
X5562417Y1812742D01*
X5556975Y1810929D01*
X5547906D01*
X5542464Y1812742D01*
X5538836Y1814556D01*
X5535208Y1818184D01*
X5533394Y1821812D01*
Y1829067D01*
X5535208Y1832695D01*
X5538836Y1836323D01*
X5542464Y1838137D01*
X5571486Y1870606D02*
Y1852467D01*
X5555161Y1850653D01*
X5556975Y1852467D01*
X5558789Y1857909D01*
Y1863350D01*
X5556975Y1868792D01*
X5553347Y1872420D01*
X5547906Y1874234D01*
X5544278D01*
X5538836Y1872420D01*
X5535208Y1868792D01*
X5533394Y1863350D01*
Y1857909D01*
X5535208Y1852467D01*
X5537022Y1850653D01*
X5540650Y1848839D01*
X5571486Y1893642D02*
X5569672Y1888201D01*
X5564231Y1884573D01*
X5555161Y1882759D01*
X5549719D01*
X5540650Y1884573D01*
X5535208Y1888201D01*
X5533394Y1893642D01*
Y1897270D01*
X5535208Y1902712D01*
X5540650Y1906340D01*
X5549719Y1908154D01*
X5555161D01*
X5564231Y1906340D01*
X5569672Y1902712D01*
X5571486Y1897270D01*
Y1893642D01*
Y1920307D02*
Y1940260D01*
X5556975Y1929376D01*
Y1934818D01*
X5555161Y1938446D01*
X5553347Y1940260D01*
X5547906Y1942074D01*
X5544278D01*
X5538836Y1940260D01*
X5535208Y1936632D01*
X5533394Y1931190D01*
Y1925748D01*
X5535208Y1920307D01*
X5537022Y1918493D01*
X5540650Y1916679D01*
X5864488Y2058054D02*
X5866302Y2061682D01*
X5869930Y2065310D01*
X5873558Y2067124D01*
X5880813D01*
X5884441Y2065310D01*
X5888069Y2061682D01*
X5889883Y2058054D01*
X5891697Y2052612D01*
Y2043543D01*
X5889883Y2038101D01*
X5888069Y2034473D01*
X5884441Y2030846D01*
X5880813Y2029032D01*
X5873558D01*
X5869930Y2030846D01*
X5866302Y2034473D01*
X5864488Y2038101D01*
X5832020Y2067124D02*
X5850158D01*
X5851973Y2050799D01*
X5850158Y2052612D01*
X5844717Y2054426D01*
X5839275D01*
X5833833Y2052612D01*
X5830206Y2048985D01*
X5828392Y2043543D01*
Y2039915D01*
X5830206Y2034473D01*
X5833833Y2030846D01*
X5839275Y2029032D01*
X5844717D01*
X5850158Y2030846D01*
X5851973Y2032660D01*
X5853786Y2036287D01*
X5808983Y2067124D02*
X5814425Y2065310D01*
X5818053Y2059868D01*
X5819866Y2050799D01*
Y2045357D01*
X5818053Y2036287D01*
X5814425Y2030846D01*
X5808983Y2029032D01*
X5805355D01*
X5799913Y2030846D01*
X5796286Y2036287D01*
X5794472Y2045357D01*
Y2050799D01*
X5796286Y2059868D01*
X5799913Y2065310D01*
X5805355Y2067124D01*
X5808983D01*
X5784133Y2058054D02*
Y2059868D01*
X5782319Y2063496D01*
X5780505Y2065310D01*
X5776877Y2067124D01*
X5769621D01*
X5765994Y2065310D01*
X5764180Y2063496D01*
X5762366Y2059868D01*
Y2056240D01*
X5764180Y2052612D01*
X5767808Y2047171D01*
X5785947Y2029032D01*
X5760552D01*
X5277219Y4346569D02*
X5279033Y4350197D01*
X5282661Y4353824D01*
X5286289Y4355638D01*
X5293544D01*
X5297172Y4353824D01*
X5300800Y4350197D01*
X5302614Y4346569D01*
X5304428Y4341127D01*
Y4332058D01*
X5302614Y4326616D01*
X5300800Y4322988D01*
X5297172Y4319360D01*
X5293544Y4317546D01*
X5286289D01*
X5282661Y4319360D01*
X5279033Y4322988D01*
X5277219Y4326616D01*
X5266517Y4348383D02*
X5262889Y4350197D01*
X5257448Y4355638D01*
Y4317546D01*
X5216817Y4355638D02*
X5234955D01*
X5236770Y4339313D01*
X5234955Y4341127D01*
X5229514Y4342941D01*
X5224072D01*
X5218630Y4341127D01*
X5215003Y4337499D01*
X5213189Y4332058D01*
Y4328430D01*
X5215003Y4322988D01*
X5218630Y4319360D01*
X5224072Y4317546D01*
X5229514D01*
X5234955Y4319360D01*
X5236770Y4321174D01*
X5238583Y4324802D01*
X5182897Y4355638D02*
X5201036D01*
X5202850Y4339313D01*
X5201036Y4341127D01*
X5195594Y4342941D01*
X5190152D01*
X5184710Y4341127D01*
X5181083Y4337499D01*
X5179269Y4332058D01*
Y4328430D01*
X5181083Y4322988D01*
X5184710Y4319360D01*
X5190152Y4317546D01*
X5195594D01*
X5201036Y4319360D01*
X5202850Y4321174D01*
X5204663Y4324802D01*
X5630590Y4155698D02*
X5634218Y4153884D01*
X5637845Y4150256D01*
X5639659Y4146628D01*
Y4139372D01*
X5637845Y4135745D01*
X5634218Y4132117D01*
X5630590Y4130303D01*
X5625148Y4128489D01*
X5616079D01*
X5610637Y4130303D01*
X5607009Y4132117D01*
X5603381Y4135745D01*
X5601567Y4139372D01*
Y4146628D01*
X5603381Y4150256D01*
X5607009Y4153884D01*
X5610637Y4155698D01*
X5632404Y4166400D02*
X5634218Y4170027D01*
X5639659Y4175469D01*
X5601567D01*
X5639659Y4212472D02*
X5614265Y4194333D01*
Y4221542D01*
X5639659Y4212472D02*
X5601567D01*
X5626962Y4251834D02*
X5621520Y4250020D01*
X5617892Y4246392D01*
X5616079Y4240951D01*
Y4239137D01*
X5617892Y4233695D01*
X5621520Y4230067D01*
X5626962Y4228253D01*
X5628776D01*
X5634218Y4230067D01*
X5637845Y4233695D01*
X5639659Y4239137D01*
Y4240951D01*
X5637845Y4246392D01*
X5634218Y4250020D01*
X5626962Y4251834D01*
X5617892D01*
X5608823Y4250020D01*
X5603381Y4246392D01*
X5601567Y4240951D01*
Y4237323D01*
X5603381Y4231881D01*
X5607009Y4230067D01*
X5539777Y4055828D02*
X5537963Y4052200D01*
X5534335Y4048572D01*
X5530708Y4046758D01*
X5523452D01*
X5519824Y4048572D01*
X5516196Y4052200D01*
X5514382Y4055828D01*
X5512569Y4061269D01*
Y4070339D01*
X5514382Y4075780D01*
X5516196Y4079408D01*
X5519824Y4083036D01*
X5523452Y4084850D01*
X5530708D01*
X5534335Y4083036D01*
X5537963Y4079408D01*
X5539777Y4075780D01*
X5550479Y4054013D02*
X5554107Y4052200D01*
X5559549Y4046758D01*
Y4084850D01*
X5596552Y4046758D02*
X5578413Y4072153D01*
X5605622D01*
X5596552Y4046758D02*
Y4084850D01*
X5621403Y4046758D02*
X5615961Y4048572D01*
X5614147Y4052200D01*
Y4055828D01*
X5615961Y4059455D01*
X5619588Y4061269D01*
X5626844Y4063083D01*
X5632286Y4064897D01*
X5635914Y4068525D01*
X5637728Y4072153D01*
Y4077594D01*
X5635914Y4081222D01*
X5634100Y4083036D01*
X5628658Y4084850D01*
X5621403D01*
X5615961Y4083036D01*
X5614147Y4081222D01*
X5612333Y4077594D01*
Y4072153D01*
X5614147Y4068525D01*
X5617775Y4064897D01*
X5623216Y4063083D01*
X5630472Y4061269D01*
X5634100Y4059455D01*
X5635914Y4055828D01*
Y4052200D01*
X5634100Y4048572D01*
X5628658Y4046758D01*
X5621403D01*
X5444207Y4192802D02*
X5406115D01*
X5444207D02*
Y4209127D01*
X5442393Y4214569D01*
X5440579Y4216383D01*
X5436951Y4218197D01*
X5433323D01*
X5429695Y4216383D01*
X5427881Y4214569D01*
X5426068Y4209127D01*
Y4192802D01*
Y4205500D02*
X5406115Y4218197D01*
X5444207Y4230350D02*
Y4250303D01*
X5429695Y4239420D01*
Y4244861D01*
X5427881Y4248489D01*
X5426068Y4250303D01*
X5420626Y4252117D01*
X5416998D01*
X5411556Y4250303D01*
X5407928Y4246675D01*
X5406115Y4241234D01*
Y4235792D01*
X5407928Y4230350D01*
X5409743Y4228536D01*
X5413370Y4226722D01*
X5444207Y4271526D02*
X5442393Y4266084D01*
X5436951Y4262456D01*
X5427881Y4260642D01*
X5422440D01*
X5413370Y4262456D01*
X5407928Y4266084D01*
X5406115Y4271526D01*
Y4275154D01*
X5407928Y4280595D01*
X5413370Y4284223D01*
X5422440Y4286037D01*
X5427881D01*
X5436951Y4284223D01*
X5442393Y4280595D01*
X5444207Y4275154D01*
Y4271526D01*
Y4298190D02*
Y4318143D01*
X5429695Y4307259D01*
Y4312701D01*
X5427881Y4316329D01*
X5426068Y4318143D01*
X5420626Y4319957D01*
X5416998D01*
X5411556Y4318143D01*
X5407928Y4314515D01*
X5406115Y4309073D01*
Y4303632D01*
X5407928Y4298190D01*
X5409743Y4296376D01*
X5413370Y4294562D01*
X5544105Y4170044D02*
X5506013D01*
X5544105D02*
Y4186369D01*
X5542291Y4191811D01*
X5540477Y4193625D01*
X5536849Y4195439D01*
X5533221D01*
X5529593Y4193625D01*
X5527780Y4191811D01*
X5525966Y4186369D01*
Y4170044D01*
Y4182741D02*
X5506013Y4195439D01*
X5544105Y4207592D02*
Y4227545D01*
X5529593Y4216661D01*
Y4222103D01*
X5527780Y4225731D01*
X5525966Y4227545D01*
X5520524Y4229359D01*
X5516896D01*
X5511455Y4227545D01*
X5507827Y4223917D01*
X5506013Y4218475D01*
Y4213033D01*
X5507827Y4207592D01*
X5509641Y4205778D01*
X5513268Y4203964D01*
X5544105Y4248767D02*
X5542291Y4243326D01*
X5536849Y4239698D01*
X5527780Y4237884D01*
X5522338D01*
X5513268Y4239698D01*
X5507827Y4243326D01*
X5506013Y4248767D01*
Y4252395D01*
X5507827Y4257837D01*
X5513268Y4261464D01*
X5522338Y4263278D01*
X5527780D01*
X5536849Y4261464D01*
X5542291Y4257837D01*
X5544105Y4252395D01*
Y4248767D01*
Y4293571D02*
Y4275432D01*
X5527780Y4273618D01*
X5529593Y4275432D01*
X5531408Y4280873D01*
Y4286315D01*
X5529593Y4291757D01*
X5525966Y4295384D01*
X5520524Y4297198D01*
X5516896D01*
X5511455Y4295384D01*
X5507827Y4291757D01*
X5506013Y4286315D01*
Y4280873D01*
X5507827Y4275432D01*
X5509641Y4273618D01*
X5513268Y4271804D01*
X5453231Y5508659D02*
X5491323D01*
X5453231D02*
Y5492334D01*
X5455045Y5486892D01*
X5456859Y5485078D01*
X5460487Y5483264D01*
X5464115D01*
X5467743Y5485078D01*
X5469556Y5486892D01*
X5471370Y5492334D01*
Y5508659D01*
Y5495962D02*
X5491323Y5483264D01*
X5453231Y5456600D02*
X5478626Y5474739D01*
Y5447531D01*
X5453231Y5456600D02*
X5491323D01*
X5453231Y5429936D02*
X5455045Y5435377D01*
X5460487Y5439005D01*
X5469556Y5440819D01*
X5474998D01*
X5484068Y5439005D01*
X5489509Y5435377D01*
X5491323Y5429936D01*
Y5426308D01*
X5489509Y5420866D01*
X5484068Y5417239D01*
X5474998Y5415425D01*
X5469556D01*
X5460487Y5417239D01*
X5455045Y5420866D01*
X5453231Y5426308D01*
Y5429936D01*
X5458673Y5385132D02*
X5455045Y5386946D01*
X5453231Y5392388D01*
Y5396016D01*
X5455045Y5401458D01*
X5460487Y5405085D01*
X5469556Y5406899D01*
X5478626D01*
X5485882Y5405085D01*
X5489509Y5401458D01*
X5491323Y5396016D01*
Y5394202D01*
X5489509Y5388760D01*
X5485882Y5385132D01*
X5480440Y5383319D01*
X5478626D01*
X5473184Y5385132D01*
X5469556Y5388760D01*
X5467743Y5394202D01*
Y5396016D01*
X5469556Y5401458D01*
X5473184Y5405085D01*
X5478626Y5406899D01*
X5126756Y4148238D02*
X5130383Y4146424D01*
X5134011Y4142796D01*
X5135825Y4139168D01*
Y4131912D01*
X5134011Y4128285D01*
X5130383Y4124657D01*
X5126756Y4122843D01*
X5121314Y4121029D01*
X5112245D01*
X5106803Y4122843D01*
X5103175Y4124657D01*
X5099547Y4128285D01*
X5097733Y4131912D01*
Y4139168D01*
X5099547Y4142796D01*
X5103175Y4146424D01*
X5106803Y4148238D01*
X5128570Y4158940D02*
X5130383Y4162567D01*
X5135825Y4168009D01*
X5097733D01*
X5135825Y4205012D02*
X5110430Y4186874D01*
Y4214082D01*
X5135825Y4205012D02*
X5097733D01*
X5135825Y4246188D02*
X5097733Y4228049D01*
X5135825Y4220793D02*
Y4246188D01*
X5230972Y3629892D02*
X5234599Y3628078D01*
X5238227Y3624450D01*
X5240041Y3620823D01*
Y3613567D01*
X5238227Y3609939D01*
X5234599Y3606312D01*
X5230972Y3604497D01*
X5225530Y3602684D01*
X5216460D01*
X5211019Y3604497D01*
X5207391Y3606312D01*
X5203763Y3609939D01*
X5201949Y3613567D01*
Y3620823D01*
X5203763Y3624450D01*
X5207391Y3628078D01*
X5211019Y3629892D01*
X5232786Y3640594D02*
X5234599Y3644222D01*
X5240041Y3649664D01*
X5201949D01*
X5240041Y3686667D02*
X5214646Y3668528D01*
Y3695737D01*
X5240041Y3686667D02*
X5201949D01*
X5234599Y3724215D02*
X5238227Y3722401D01*
X5240041Y3716959D01*
Y3713331D01*
X5238227Y3707890D01*
X5232786Y3704262D01*
X5223716Y3702448D01*
X5214646D01*
X5207391Y3704262D01*
X5203763Y3707890D01*
X5201949Y3713331D01*
Y3715145D01*
X5203763Y3720587D01*
X5207391Y3724215D01*
X5212833Y3726029D01*
X5214646D01*
X5220088Y3724215D01*
X5223716Y3720587D01*
X5225530Y3715145D01*
Y3713331D01*
X5223716Y3707890D01*
X5220088Y3704262D01*
X5214646Y3702448D01*
X5487760Y3784162D02*
X5489574Y3787790D01*
X5493202Y3791418D01*
X5496829Y3793231D01*
X5504085D01*
X5507713Y3791418D01*
X5511341Y3787790D01*
X5513155Y3784162D01*
X5514968Y3778720D01*
Y3769651D01*
X5513155Y3764209D01*
X5511341Y3760581D01*
X5507713Y3756953D01*
X5504085Y3755140D01*
X5496829D01*
X5493202Y3756953D01*
X5489574Y3760581D01*
X5487760Y3764209D01*
X5477058Y3785976D02*
X5473430Y3787790D01*
X5467988Y3793231D01*
Y3755140D01*
X5430985Y3793231D02*
X5449124Y3767837D01*
X5421915D01*
X5430985Y3793231D02*
Y3755140D01*
X5393437Y3793231D02*
X5411576D01*
X5413390Y3776906D01*
X5411576Y3778720D01*
X5406134Y3780534D01*
X5400693D01*
X5395251Y3778720D01*
X5391623Y3775093D01*
X5389809Y3769651D01*
Y3766023D01*
X5391623Y3760581D01*
X5395251Y3756953D01*
X5400693Y3755140D01*
X5406134D01*
X5411576Y3756953D01*
X5413390Y3758767D01*
X5415204Y3762395D01*
X5022463Y4146086D02*
X5026091Y4144272D01*
X5029719Y4140644D01*
X5031533Y4137017D01*
Y4129761D01*
X5029719Y4126133D01*
X5026091Y4122506D01*
X5022463Y4120692D01*
X5017021Y4118878D01*
X5007952D01*
X5002510Y4120692D01*
X4998883Y4122506D01*
X4995255Y4126133D01*
X4993441Y4129761D01*
Y4137017D01*
X4995255Y4140644D01*
X4998883Y4144272D01*
X5002510Y4146086D01*
X5024277Y4156788D02*
X5026091Y4160416D01*
X5031533Y4165858D01*
X4993441D01*
X5031533Y4202861D02*
X5006138Y4184722D01*
Y4211931D01*
X5031533Y4202861D02*
X4993441D01*
X5031533Y4236781D02*
X5006138Y4218642D01*
Y4245851D01*
X5031533Y4236781D02*
X4993441D01*
X5010232Y3615746D02*
X5006604Y3617560D01*
X5002976Y3621188D01*
X5001162Y3624815D01*
Y3632071D01*
X5002976Y3635699D01*
X5006604Y3639326D01*
X5010232Y3641141D01*
X5015674Y3642954D01*
X5024743D01*
X5030185Y3641141D01*
X5033813Y3639326D01*
X5037441Y3635699D01*
X5039254Y3632071D01*
Y3624815D01*
X5037441Y3621188D01*
X5033813Y3617560D01*
X5030185Y3615746D01*
X5008418Y3605044D02*
X5006604Y3601416D01*
X5001162Y3595974D01*
X5039254D01*
X5001162Y3558971D02*
X5026557Y3577110D01*
Y3549901D01*
X5001162Y3558971D02*
X5039254D01*
X5008418Y3543190D02*
X5006604Y3539562D01*
X5001162Y3534120D01*
X5039254D01*
X5474753Y3863677D02*
X5472939Y3860049D01*
X5469311Y3856421D01*
X5465684Y3854607D01*
X5458428D01*
X5454800Y3856421D01*
X5451172Y3860049D01*
X5449358Y3863677D01*
X5447545Y3869118D01*
Y3878188D01*
X5449358Y3883629D01*
X5451172Y3887257D01*
X5454800Y3890885D01*
X5458428Y3892699D01*
X5465684D01*
X5469311Y3890885D01*
X5472939Y3887257D01*
X5474753Y3883629D01*
X5485455Y3861862D02*
X5489083Y3860049D01*
X5494525Y3854607D01*
Y3892699D01*
X5517017Y3854607D02*
X5536970D01*
X5526086Y3869118D01*
X5531528D01*
X5535156Y3870932D01*
X5536970Y3872746D01*
X5538784Y3878188D01*
Y3881815D01*
X5536970Y3887257D01*
X5533342Y3890885D01*
X5527900Y3892699D01*
X5522459D01*
X5517017Y3890885D01*
X5515203Y3889071D01*
X5513389Y3885443D01*
X5569076Y3854607D02*
X5550937D01*
X5549123Y3870932D01*
X5550937Y3869118D01*
X5556379Y3867304D01*
X5561820D01*
X5567262Y3869118D01*
X5570890Y3872746D01*
X5572704Y3878188D01*
Y3881815D01*
X5570890Y3887257D01*
X5567262Y3890885D01*
X5561820Y3892699D01*
X5556379D01*
X5550937Y3890885D01*
X5549123Y3889071D01*
X5547309Y3885443D01*
X5213280Y4109015D02*
X5209652Y4110829D01*
X5206024Y4114457D01*
X5204210Y4118085D01*
Y4125340D01*
X5206024Y4128968D01*
X5209652Y4132596D01*
X5213280Y4134410D01*
X5218721Y4136224D01*
X5227791D01*
X5233232Y4134410D01*
X5236860Y4132596D01*
X5240488Y4128968D01*
X5242302Y4125340D01*
Y4118085D01*
X5240488Y4114457D01*
X5236860Y4110829D01*
X5233232Y4109015D01*
X5211466Y4098313D02*
X5209652Y4094685D01*
X5204210Y4089244D01*
X5242302D01*
X5204210Y4066752D02*
Y4046799D01*
X5218721Y4057682D01*
Y4052241D01*
X5220535Y4048613D01*
X5222349Y4046799D01*
X5227791Y4044985D01*
X5231419D01*
X5236860Y4046799D01*
X5240488Y4050426D01*
X5242302Y4055868D01*
Y4061310D01*
X5240488Y4066752D01*
X5238674Y4068566D01*
X5235046Y4070379D01*
X5204210Y4018321D02*
X5229605Y4036460D01*
Y4009251D01*
X5204210Y4018321D02*
X5242302D01*
X5106803Y4107372D02*
X5103175Y4109186D01*
X5099547Y4112814D01*
X5097733Y4116442D01*
Y4123697D01*
X5099547Y4127325D01*
X5103175Y4130953D01*
X5106803Y4132767D01*
X5112245Y4134581D01*
X5121314D01*
X5126756Y4132767D01*
X5130383Y4130953D01*
X5134011Y4127325D01*
X5135825Y4123697D01*
Y4116442D01*
X5134011Y4112814D01*
X5130383Y4109186D01*
X5126756Y4107372D01*
X5104989Y4096670D02*
X5103175Y4093042D01*
X5097733Y4087600D01*
X5135825D01*
X5097733Y4065108D02*
Y4045155D01*
X5112245Y4056039D01*
Y4050597D01*
X5114058Y4046969D01*
X5115872Y4045155D01*
X5121314Y4043341D01*
X5124942D01*
X5130383Y4045155D01*
X5134011Y4048783D01*
X5135825Y4054225D01*
Y4059667D01*
X5134011Y4065108D01*
X5132197Y4066922D01*
X5128570Y4068736D01*
X5106803Y4033002D02*
X5104989D01*
X5101361Y4031188D01*
X5099547Y4029374D01*
X5097733Y4025747D01*
Y4018491D01*
X5099547Y4014863D01*
X5101361Y4013049D01*
X5104989Y4011236D01*
X5108617D01*
X5112245Y4013049D01*
X5117686Y4016677D01*
X5135825Y4034816D01*
Y4009421D01*
X5428482Y3659525D02*
X5432110Y3657712D01*
X5435738Y3654084D01*
X5437552Y3650456D01*
Y3643200D01*
X5435738Y3639572D01*
X5432110Y3635945D01*
X5428482Y3634131D01*
X5423040Y3632317D01*
X5413971D01*
X5408529Y3634131D01*
X5404902Y3635945D01*
X5401274Y3639572D01*
X5399460Y3643200D01*
Y3650456D01*
X5401274Y3654084D01*
X5404902Y3657712D01*
X5408529Y3659525D01*
X5430296Y3670227D02*
X5432110Y3673855D01*
X5437552Y3679297D01*
X5399460D01*
X5437552Y3701789D02*
Y3721742D01*
X5423040Y3710858D01*
Y3716300D01*
X5421227Y3719928D01*
X5419413Y3721742D01*
X5413971Y3723556D01*
X5410343D01*
X5404902Y3721742D01*
X5401274Y3718114D01*
X5399460Y3712673D01*
Y3707231D01*
X5401274Y3701789D01*
X5403088Y3699975D01*
X5406715Y3698161D01*
X5430296Y3732081D02*
X5432110Y3735709D01*
X5437552Y3741151D01*
X5399460D01*
X5983625Y2324445D02*
X5987253Y2322632D01*
X5990881Y2319004D01*
X5992694Y2315376D01*
Y2308120D01*
X5990881Y2304492D01*
X5987253Y2300865D01*
X5983625Y2299051D01*
X5978183Y2297237D01*
X5969114D01*
X5963672Y2299051D01*
X5960044Y2300865D01*
X5956416Y2304492D01*
X5954603Y2308120D01*
Y2315376D01*
X5956416Y2319004D01*
X5960044Y2322632D01*
X5963672Y2324445D01*
X5992694Y2356914D02*
Y2338775D01*
X5976369Y2336961D01*
X5978183Y2338775D01*
X5979997Y2344217D01*
Y2349659D01*
X5978183Y2355100D01*
X5974555Y2358728D01*
X5969114Y2360542D01*
X5965486D01*
X5960044Y2358728D01*
X5956416Y2355100D01*
X5954603Y2349659D01*
Y2344217D01*
X5956416Y2338775D01*
X5958230Y2336961D01*
X5961858Y2335147D01*
X5992694Y2379951D02*
X5990881Y2374509D01*
X5985439Y2370881D01*
X5976369Y2369067D01*
X5970928D01*
X5961858Y2370881D01*
X5956416Y2374509D01*
X5954603Y2379951D01*
Y2383579D01*
X5956416Y2389020D01*
X5961858Y2392648D01*
X5970928Y2394462D01*
X5976369D01*
X5985439Y2392648D01*
X5990881Y2389020D01*
X5992694Y2383579D01*
Y2379951D01*
Y2412057D02*
X5990881Y2406615D01*
X5987253Y2404801D01*
X5983625D01*
X5979997Y2406615D01*
X5978183Y2410243D01*
X5976369Y2417499D01*
X5974555Y2422940D01*
X5970928Y2426568D01*
X5967300Y2428382D01*
X5961858D01*
X5958230Y2426568D01*
X5956416Y2424754D01*
X5954603Y2419312D01*
Y2412057D01*
X5956416Y2406615D01*
X5958230Y2404801D01*
X5961858Y2402987D01*
X5967300D01*
X5970928Y2404801D01*
X5974555Y2408429D01*
X5976369Y2413871D01*
X5978183Y2421126D01*
X5979997Y2424754D01*
X5983625Y2426568D01*
X5987253D01*
X5990881Y2424754D01*
X5992694Y2419312D01*
Y2412057D01*
X5507671Y3958774D02*
X5505858Y3955146D01*
X5502230Y3951518D01*
X5498602Y3949705D01*
X5491346D01*
X5487719Y3951518D01*
X5484091Y3955146D01*
X5482277Y3958774D01*
X5480463Y3964216D01*
Y3973285D01*
X5482277Y3978727D01*
X5484091Y3982355D01*
X5487719Y3985983D01*
X5491346Y3987796D01*
X5498602D01*
X5502230Y3985983D01*
X5505858Y3982355D01*
X5507671Y3978727D01*
X5518374Y3956960D02*
X5522001Y3955146D01*
X5527443Y3949705D01*
Y3987796D01*
X5549935Y3949705D02*
X5569888D01*
X5559005Y3964216D01*
X5564446D01*
X5568074Y3966030D01*
X5569888Y3967843D01*
X5571702Y3973285D01*
Y3976913D01*
X5569888Y3982355D01*
X5566260Y3985983D01*
X5560819Y3987796D01*
X5555377D01*
X5549935Y3985983D01*
X5548121Y3984169D01*
X5546307Y3980541D01*
X5591111Y3949705D02*
X5585669Y3951518D01*
X5582041Y3956960D01*
X5580227Y3966030D01*
Y3971471D01*
X5582041Y3980541D01*
X5585669Y3985983D01*
X5591111Y3987796D01*
X5594739D01*
X5600180Y3985983D01*
X5603808Y3980541D01*
X5605622Y3971471D01*
Y3966030D01*
X5603808Y3956960D01*
X5600180Y3951518D01*
X5594739Y3949705D01*
X5591111D01*
X5316505Y4069999D02*
X5312877Y4071813D01*
X5309249Y4075441D01*
X5307436Y4079069D01*
Y4086325D01*
X5309249Y4089952D01*
X5312877Y4093580D01*
X5316505Y4095394D01*
X5321947Y4097208D01*
X5331016D01*
X5336458Y4095394D01*
X5340086Y4093580D01*
X5343714Y4089952D01*
X5345528Y4086325D01*
Y4079069D01*
X5343714Y4075441D01*
X5340086Y4071813D01*
X5336458Y4069999D01*
X5314691Y4059297D02*
X5312877Y4055670D01*
X5307436Y4050228D01*
X5345528D01*
X5307436Y4020480D02*
X5309249Y4025922D01*
X5314691Y4029550D01*
X5323761Y4031364D01*
X5329202D01*
X5338272Y4029550D01*
X5343714Y4025922D01*
X5345528Y4020480D01*
Y4016852D01*
X5343714Y4011411D01*
X5338272Y4007783D01*
X5329202Y4005969D01*
X5323761D01*
X5314691Y4007783D01*
X5309249Y4011411D01*
X5307436Y4016852D01*
Y4020480D01*
X5314691Y3997444D02*
X5312877Y3993816D01*
X5307436Y3988374D01*
X5345528D01*
X5414981Y4083699D02*
X5411353Y4085513D01*
X5407725Y4089141D01*
X5405911Y4092769D01*
Y4100024D01*
X5407725Y4103652D01*
X5411353Y4107280D01*
X5414981Y4109094D01*
X5420423Y4110908D01*
X5429492D01*
X5434934Y4109094D01*
X5438562Y4107280D01*
X5442190Y4103652D01*
X5444003Y4100024D01*
Y4092769D01*
X5442190Y4089141D01*
X5438562Y4085513D01*
X5434934Y4083699D01*
X5413167Y4072997D02*
X5411353Y4069369D01*
X5405911Y4063928D01*
X5444003D01*
X5405911Y4034180D02*
X5407725Y4039622D01*
X5413167Y4043249D01*
X5422237Y4045063D01*
X5427678D01*
X5436748Y4043249D01*
X5442190Y4039622D01*
X5444003Y4034180D01*
Y4030552D01*
X5442190Y4025110D01*
X5436748Y4021483D01*
X5427678Y4019669D01*
X5422237D01*
X5413167Y4021483D01*
X5407725Y4025110D01*
X5405911Y4030552D01*
Y4034180D01*
X5414981Y4009330D02*
X5413167D01*
X5409539Y4007515D01*
X5407725Y4005702D01*
X5405911Y4002074D01*
Y3994818D01*
X5407725Y3991190D01*
X5409539Y3989377D01*
X5413167Y3987563D01*
X5416795D01*
X5420423Y3989377D01*
X5425864Y3993004D01*
X5444003Y4011143D01*
Y3985749D01*
X5362444Y3921779D02*
X5364257Y3925407D01*
X5367885Y3929035D01*
X5371513Y3930849D01*
X5378769D01*
X5382397Y3929035D01*
X5386024Y3925407D01*
X5387838Y3921779D01*
X5389652Y3916337D01*
Y3907268D01*
X5387838Y3901826D01*
X5386024Y3898198D01*
X5382397Y3894571D01*
X5378769Y3892757D01*
X5371513D01*
X5367885Y3894571D01*
X5364257Y3898198D01*
X5362444Y3901826D01*
X5351742Y3923593D02*
X5348114Y3925407D01*
X5342672Y3930849D01*
Y3892757D01*
X5312924Y3930849D02*
X5318366Y3929035D01*
X5321994Y3923593D01*
X5323808Y3914524D01*
Y3909082D01*
X5321994Y3900012D01*
X5318366Y3894571D01*
X5312924Y3892757D01*
X5309296D01*
X5303855Y3894571D01*
X5300227Y3900012D01*
X5298413Y3909082D01*
Y3914524D01*
X5300227Y3923593D01*
X5303855Y3929035D01*
X5309296Y3930849D01*
X5312924D01*
X5268121Y3925407D02*
X5269935Y3929035D01*
X5275377Y3930849D01*
X5279004D01*
X5284446Y3929035D01*
X5288074Y3923593D01*
X5289888Y3914524D01*
Y3905454D01*
X5288074Y3898198D01*
X5284446Y3894571D01*
X5279004Y3892757D01*
X5277191D01*
X5271749Y3894571D01*
X5268121Y3898198D01*
X5266307Y3903640D01*
Y3905454D01*
X5268121Y3910896D01*
X5271749Y3914524D01*
X5277191Y3916337D01*
X5279004D01*
X5284446Y3914524D01*
X5288074Y3910896D01*
X5289888Y3905454D01*
X5360346Y3830690D02*
X5356718Y3832504D01*
X5353090Y3836132D01*
X5351276Y3839759D01*
Y3847015D01*
X5353090Y3850643D01*
X5356718Y3854270D01*
X5360346Y3856084D01*
X5365787Y3857898D01*
X5374857D01*
X5380298Y3856084D01*
X5383926Y3854270D01*
X5387554Y3850643D01*
X5389368Y3847015D01*
Y3839759D01*
X5387554Y3836132D01*
X5383926Y3832504D01*
X5380298Y3830690D01*
X5358532Y3819988D02*
X5356718Y3816360D01*
X5351276Y3810918D01*
X5389368D01*
X5351276Y3781170D02*
X5353090Y3786612D01*
X5358532Y3790240D01*
X5367601Y3792054D01*
X5373043D01*
X5382112Y3790240D01*
X5387554Y3786612D01*
X5389368Y3781170D01*
Y3777543D01*
X5387554Y3772101D01*
X5382112Y3768473D01*
X5373043Y3766659D01*
X5367601D01*
X5358532Y3768473D01*
X5353090Y3772101D01*
X5351276Y3777543D01*
Y3781170D01*
Y3732739D02*
X5389368Y3750878D01*
X5351276Y3758134D02*
Y3732739D01*
X5364361Y3957885D02*
X5362547Y3954257D01*
X5358919Y3950629D01*
X5355291Y3948816D01*
X5348036D01*
X5344408Y3950629D01*
X5340780Y3954257D01*
X5338966Y3957885D01*
X5337152Y3963327D01*
Y3972396D01*
X5338966Y3977838D01*
X5340780Y3981466D01*
X5344408Y3985094D01*
X5348036Y3986907D01*
X5355291D01*
X5358919Y3985094D01*
X5362547Y3981466D01*
X5364361Y3977838D01*
X5375063Y3956071D02*
X5378691Y3954257D01*
X5384132Y3948816D01*
Y3986907D01*
X5402997Y3956071D02*
X5406624Y3954257D01*
X5412066Y3948816D01*
Y3986907D01*
X5441814Y3948816D02*
X5436372Y3950629D01*
X5432744Y3956071D01*
X5430930Y3965141D01*
Y3970582D01*
X5432744Y3979652D01*
X5436372Y3985094D01*
X5441814Y3986907D01*
X5445442D01*
X5450883Y3985094D01*
X5454511Y3979652D01*
X5456325Y3970582D01*
Y3965141D01*
X5454511Y3956071D01*
X5450883Y3950629D01*
X5445442Y3948816D01*
X5441814D01*
X5264065Y3955269D02*
X5262251Y3951641D01*
X5258623Y3948013D01*
X5254996Y3946199D01*
X5247740D01*
X5244112Y3948013D01*
X5240485Y3951641D01*
X5238670Y3955269D01*
X5236857Y3960711D01*
Y3969780D01*
X5238670Y3975222D01*
X5240485Y3978850D01*
X5244112Y3982477D01*
X5247740Y3984291D01*
X5254996D01*
X5258623Y3982477D01*
X5262251Y3978850D01*
X5264065Y3975222D01*
X5274767Y3953455D02*
X5278395Y3951641D01*
X5283837Y3946199D01*
Y3984291D01*
X5302701Y3953455D02*
X5306329Y3951641D01*
X5311771Y3946199D01*
Y3984291D01*
X5330635Y3953455D02*
X5334263Y3951641D01*
X5339705Y3946199D01*
Y3984291D01*
X5310968Y3828858D02*
X5307340Y3830672D01*
X5303712Y3834300D01*
X5301898Y3837928D01*
Y3845183D01*
X5303712Y3848811D01*
X5307340Y3852439D01*
X5310968Y3854253D01*
X5316409Y3856066D01*
X5325479D01*
X5330921Y3854253D01*
X5334548Y3852439D01*
X5338176Y3848811D01*
X5339990Y3845183D01*
Y3837928D01*
X5338176Y3834300D01*
X5334548Y3830672D01*
X5330921Y3828858D01*
X5309154Y3818156D02*
X5307340Y3814528D01*
X5301898Y3809086D01*
X5339990D01*
X5309154Y3790222D02*
X5307340Y3786594D01*
X5301898Y3781152D01*
X5339990D01*
X5301898Y3744149D02*
X5327293Y3762288D01*
Y3735080D01*
X5301898Y3744149D02*
X5339990D01*
X5070551Y3402641D02*
X5068738Y3399013D01*
X5065110Y3395385D01*
X5061482Y3393572D01*
X5054226D01*
X5050598Y3395385D01*
X5046971Y3399013D01*
X5045157Y3402641D01*
X5043343Y3408083D01*
Y3417152D01*
X5045157Y3422594D01*
X5046971Y3426222D01*
X5050598Y3429850D01*
X5054226Y3431663D01*
X5061482D01*
X5065110Y3429850D01*
X5068738Y3426222D01*
X5070551Y3422594D01*
X5081253Y3400827D02*
X5084881Y3399013D01*
X5090323Y3393572D01*
Y3431663D01*
X5109187Y3400827D02*
X5112815Y3399013D01*
X5118257Y3393572D01*
Y3431663D01*
X5158888Y3399013D02*
X5157074Y3395385D01*
X5151633Y3393572D01*
X5148005D01*
X5142563Y3395385D01*
X5138935Y3400827D01*
X5137121Y3409897D01*
Y3418966D01*
X5138935Y3426222D01*
X5142563Y3429850D01*
X5148005Y3431663D01*
X5149819D01*
X5155260Y3429850D01*
X5158888Y3426222D01*
X5160702Y3420780D01*
Y3418966D01*
X5158888Y3413525D01*
X5155260Y3409897D01*
X5149819Y3408083D01*
X5148005D01*
X5142563Y3409897D01*
X5138935Y3413525D01*
X5137121Y3418966D01*
X5336052Y3657582D02*
X5339679Y3655768D01*
X5343307Y3652140D01*
X5345121Y3648512D01*
Y3641257D01*
X5343307Y3637629D01*
X5339679Y3634001D01*
X5336052Y3632187D01*
X5330610Y3630373D01*
X5321541D01*
X5316099Y3632187D01*
X5312471Y3634001D01*
X5308843Y3637629D01*
X5307029Y3641257D01*
Y3648512D01*
X5308843Y3652140D01*
X5312471Y3655768D01*
X5316099Y3657582D01*
X5337866Y3668284D02*
X5339679Y3671912D01*
X5345121Y3677353D01*
X5307029D01*
X5337866Y3696218D02*
X5339679Y3699846D01*
X5345121Y3705287D01*
X5307029D01*
X5345121Y3749546D02*
X5307029Y3731407D01*
X5345121Y3724152D02*
Y3749546D01*
X5735441Y3782618D02*
X5739069Y3780804D01*
X5742697Y3777177D01*
X5744511Y3773549D01*
Y3766293D01*
X5742697Y3762665D01*
X5739069Y3759038D01*
X5735441Y3757224D01*
X5730000Y3755410D01*
X5720930D01*
X5715489Y3757224D01*
X5711861Y3759038D01*
X5708233Y3762665D01*
X5706419Y3766293D01*
Y3773549D01*
X5708233Y3777177D01*
X5711861Y3780804D01*
X5715489Y3782618D01*
X5737255Y3793320D02*
X5739069Y3796948D01*
X5744511Y3802390D01*
X5706419D01*
X5737255Y3821254D02*
X5739069Y3824882D01*
X5744511Y3830324D01*
X5706419D01*
X5731814Y3872769D02*
X5726372Y3870955D01*
X5722744Y3867327D01*
X5720930Y3861885D01*
Y3860072D01*
X5722744Y3854630D01*
X5726372Y3851002D01*
X5731814Y3849188D01*
X5733628D01*
X5739069Y3851002D01*
X5742697Y3854630D01*
X5744511Y3860072D01*
Y3861885D01*
X5742697Y3867327D01*
X5739069Y3870955D01*
X5731814Y3872769D01*
X5722744D01*
X5713675Y3870955D01*
X5708233Y3867327D01*
X5706419Y3861885D01*
Y3858258D01*
X5708233Y3852816D01*
X5711861Y3851002D01*
X5523869Y3410896D02*
X5522055Y3407268D01*
X5518427Y3403640D01*
X5514799Y3401827D01*
X5507544D01*
X5503916Y3403640D01*
X5500288Y3407268D01*
X5498474Y3410896D01*
X5496660Y3416338D01*
Y3425407D01*
X5498474Y3430849D01*
X5500288Y3434477D01*
X5503916Y3438105D01*
X5507544Y3439918D01*
X5514799D01*
X5518427Y3438105D01*
X5522055Y3434477D01*
X5523869Y3430849D01*
X5534571Y3409082D02*
X5538199Y3407268D01*
X5543640Y3401827D01*
Y3439918D01*
X5564319Y3410896D02*
Y3409082D01*
X5566133Y3405454D01*
X5567946Y3403640D01*
X5571574Y3401827D01*
X5578830D01*
X5582458Y3403640D01*
X5584272Y3405454D01*
X5586085Y3409082D01*
Y3412710D01*
X5584272Y3416338D01*
X5580644Y3421780D01*
X5562505Y3439918D01*
X5587899D01*
X5620005Y3414524D02*
X5618191Y3419965D01*
X5614564Y3423593D01*
X5609122Y3425407D01*
X5607308D01*
X5601866Y3423593D01*
X5598238Y3419965D01*
X5596425Y3414524D01*
Y3412710D01*
X5598238Y3407268D01*
X5601866Y3403640D01*
X5607308Y3401827D01*
X5609122D01*
X5614564Y3403640D01*
X5618191Y3407268D01*
X5620005Y3414524D01*
Y3423593D01*
X5618191Y3432663D01*
X5614564Y3438105D01*
X5609122Y3439918D01*
X5605494D01*
X5600053Y3438105D01*
X5598238Y3434477D01*
X5133741Y3660304D02*
X5137368Y3658490D01*
X5140996Y3654862D01*
X5142810Y3651234D01*
Y3643978D01*
X5140996Y3640351D01*
X5137368Y3636723D01*
X5133741Y3634909D01*
X5128299Y3633095D01*
X5119230D01*
X5113788Y3634909D01*
X5110160Y3636723D01*
X5106532Y3640351D01*
X5104718Y3643978D01*
Y3651234D01*
X5106532Y3654862D01*
X5110160Y3658490D01*
X5113788Y3660304D01*
X5135555Y3671006D02*
X5137368Y3674633D01*
X5142810Y3680075D01*
X5104718D01*
X5142810Y3702567D02*
Y3722520D01*
X5128299Y3711637D01*
Y3717078D01*
X5126485Y3720706D01*
X5124671Y3722520D01*
X5119230Y3724334D01*
X5115602D01*
X5110160Y3722520D01*
X5106532Y3718892D01*
X5104718Y3713451D01*
Y3708009D01*
X5106532Y3702567D01*
X5108346Y3700753D01*
X5111974Y3698940D01*
X5142810Y3758254D02*
X5104718Y3740115D01*
X5142810Y3732859D02*
Y3758254D01*
X5025335Y3681038D02*
X5027149Y3684666D01*
X5030777Y3688294D01*
X5034404Y3690107D01*
X5041660D01*
X5045288Y3688294D01*
X5048915Y3684666D01*
X5050730Y3681038D01*
X5052543Y3675596D01*
Y3666527D01*
X5050730Y3661085D01*
X5048915Y3657457D01*
X5045288Y3653829D01*
X5041660Y3652016D01*
X5034404D01*
X5030777Y3653829D01*
X5027149Y3657457D01*
X5025335Y3661085D01*
X5014633Y3682852D02*
X5011005Y3684666D01*
X5005563Y3690107D01*
Y3652016D01*
X4983071Y3690107D02*
X4963118D01*
X4974002Y3675596D01*
X4968560D01*
X4964932Y3673782D01*
X4963118Y3671969D01*
X4961304Y3666527D01*
Y3662899D01*
X4963118Y3657457D01*
X4966746Y3653829D01*
X4972188Y3652016D01*
X4977629D01*
X4983071Y3653829D01*
X4984885Y3655643D01*
X4986699Y3659271D01*
X4929198Y3677410D02*
X4931012Y3671969D01*
X4934640Y3668341D01*
X4940082Y3666527D01*
X4941896D01*
X4947337Y3668341D01*
X4950965Y3671969D01*
X4952779Y3677410D01*
Y3679224D01*
X4950965Y3684666D01*
X4947337Y3688294D01*
X4941896Y3690107D01*
X4940082D01*
X4934640Y3688294D01*
X4931012Y3684666D01*
X4929198Y3677410D01*
Y3668341D01*
X4931012Y3659271D01*
X4934640Y3653829D01*
X4940082Y3652016D01*
X4943709D01*
X4949151Y3653829D01*
X4950965Y3657457D01*
X5061038Y3857327D02*
X5059224Y3853699D01*
X5055596Y3850071D01*
X5051968Y3848257D01*
X5044713D01*
X5041085Y3850071D01*
X5037457Y3853699D01*
X5035643Y3857327D01*
X5033829Y3862768D01*
Y3871838D01*
X5035643Y3877279D01*
X5037457Y3880907D01*
X5041085Y3884535D01*
X5044713Y3886349D01*
X5051968D01*
X5055596Y3884535D01*
X5059224Y3880907D01*
X5061038Y3877279D01*
X5071740Y3855512D02*
X5075368Y3853699D01*
X5080809Y3848257D01*
Y3886349D01*
X5117813Y3848257D02*
X5099674Y3873652D01*
X5126882D01*
X5117813Y3848257D02*
Y3886349D01*
X5144477Y3848257D02*
X5139035Y3850071D01*
X5135408Y3855512D01*
X5133594Y3864582D01*
Y3870024D01*
X5135408Y3879093D01*
X5139035Y3884535D01*
X5144477Y3886349D01*
X5148105D01*
X5153547Y3884535D01*
X5157174Y3879093D01*
X5158988Y3870024D01*
Y3864582D01*
X5157174Y3855512D01*
X5153547Y3850071D01*
X5148105Y3848257D01*
X5144477D01*
X5028477Y4079259D02*
X5030291Y4082887D01*
X5033919Y4086515D01*
X5037547Y4088329D01*
X5044802D01*
X5048430Y4086515D01*
X5052058Y4082887D01*
X5053872Y4079259D01*
X5055686Y4073817D01*
Y4064748D01*
X5053872Y4059306D01*
X5052058Y4055678D01*
X5048430Y4052051D01*
X5044802Y4050237D01*
X5037547D01*
X5033919Y4052051D01*
X5030291Y4055678D01*
X5028477Y4059306D01*
X5017775Y4081073D02*
X5014147Y4082887D01*
X5008706Y4088329D01*
Y4050237D01*
X4968074Y4088329D02*
X4986213D01*
X4988027Y4072004D01*
X4986213Y4073817D01*
X4980772Y4075631D01*
X4975330D01*
X4969888Y4073817D01*
X4966261Y4070190D01*
X4964447Y4064748D01*
Y4061120D01*
X4966261Y4055678D01*
X4969888Y4052051D01*
X4975330Y4050237D01*
X4980772D01*
X4986213Y4052051D01*
X4988027Y4053865D01*
X4989841Y4057492D01*
X4954107Y4079259D02*
Y4081073D01*
X4952293Y4084701D01*
X4950480Y4086515D01*
X4946852Y4088329D01*
X4939596D01*
X4935968Y4086515D01*
X4934154Y4084701D01*
X4932341Y4081073D01*
Y4077445D01*
X4934154Y4073817D01*
X4937782Y4068376D01*
X4955921Y4050237D01*
X4930527D01*
X5023440Y3883628D02*
X5025254Y3887256D01*
X5028882Y3890884D01*
X5032510Y3892698D01*
X5039765D01*
X5043393Y3890884D01*
X5047021Y3887256D01*
X5048835Y3883628D01*
X5050649Y3878187D01*
Y3869117D01*
X5048835Y3863676D01*
X5047021Y3860048D01*
X5043393Y3856420D01*
X5039765Y3854606D01*
X5032510D01*
X5028882Y3856420D01*
X5025254Y3860048D01*
X5023440Y3863676D01*
X5012738Y3885442D02*
X5009110Y3887256D01*
X5003669Y3892698D01*
Y3854606D01*
X4963038Y3892698D02*
X4981176D01*
X4982991Y3876373D01*
X4981176Y3878187D01*
X4975735Y3880001D01*
X4970293D01*
X4964851Y3878187D01*
X4961224Y3874559D01*
X4959410Y3869117D01*
Y3865489D01*
X4961224Y3860048D01*
X4964851Y3856420D01*
X4970293Y3854606D01*
X4975735D01*
X4981176Y3856420D01*
X4982991Y3858234D01*
X4984804Y3861861D01*
X4932746Y3892698D02*
X4950884Y3867303D01*
X4923676D01*
X4932746Y3892698D02*
Y3854606D01*
X3751208Y3547129D02*
X3753022Y3550757D01*
X3756650Y3554385D01*
X3760278Y3556199D01*
X3767533D01*
X3771161Y3554385D01*
X3774789Y3550757D01*
X3776603Y3547129D01*
X3778417Y3541687D01*
Y3532618D01*
X3776603Y3527176D01*
X3774789Y3523548D01*
X3771161Y3519921D01*
X3767533Y3518107D01*
X3760278D01*
X3756650Y3519921D01*
X3753022Y3523548D01*
X3751208Y3527176D01*
X3738693Y3547129D02*
Y3548943D01*
X3736878Y3552571D01*
X3735065Y3554385D01*
X3731437Y3556199D01*
X3724181D01*
X3720553Y3554385D01*
X3718740Y3552571D01*
X3716926Y3548943D01*
Y3545315D01*
X3718740Y3541687D01*
X3722367Y3536246D01*
X3740506Y3518107D01*
X3715112D01*
X3695703Y3556199D02*
X3701145Y3554385D01*
X3704773Y3548943D01*
X3706586Y3539874D01*
Y3534432D01*
X3704773Y3525362D01*
X3701145Y3519921D01*
X3695703Y3518107D01*
X3692075D01*
X3686633Y3519921D01*
X3683006Y3525362D01*
X3681192Y3534432D01*
Y3539874D01*
X3683006Y3548943D01*
X3686633Y3554385D01*
X3692075Y3556199D01*
X3695703D01*
X3669039D02*
X3649086D01*
X3659969Y3541687D01*
X3654528D01*
X3650900Y3539874D01*
X3649086Y3538060D01*
X3647272Y3532618D01*
Y3528990D01*
X3649086Y3523548D01*
X3652714Y3519921D01*
X3658155Y3518107D01*
X3663597D01*
X3669039Y3519921D01*
X3670853Y3521735D01*
X3672667Y3525362D01*
X3884496Y4182574D02*
X3882682Y4178946D01*
X3879054Y4175318D01*
X3875427Y4173504D01*
X3868171D01*
X3864543Y4175318D01*
X3860916Y4178946D01*
X3859102Y4182574D01*
X3857288Y4188015D01*
Y4197085D01*
X3859102Y4202526D01*
X3860916Y4206154D01*
X3864543Y4209782D01*
X3868171Y4211596D01*
X3875427D01*
X3879054Y4209782D01*
X3882682Y4206154D01*
X3884496Y4202526D01*
X3897012Y4182574D02*
Y4180759D01*
X3898826Y4177132D01*
X3900640Y4175318D01*
X3904268Y4173504D01*
X3911523D01*
X3915151Y4175318D01*
X3916965Y4177132D01*
X3918779Y4180759D01*
Y4184387D01*
X3916965Y4188015D01*
X3913337Y4193457D01*
X3895198Y4211596D01*
X3920593D01*
X3940002Y4173504D02*
X3934560Y4175318D01*
X3930932Y4180759D01*
X3929118Y4189829D01*
Y4195271D01*
X3930932Y4204340D01*
X3934560Y4209782D01*
X3940002Y4211596D01*
X3943629D01*
X3949071Y4209782D01*
X3952699Y4204340D01*
X3954513Y4195271D01*
Y4189829D01*
X3952699Y4180759D01*
X3949071Y4175318D01*
X3943629Y4173504D01*
X3940002D01*
X3981177D02*
X3963038Y4198899D01*
X3990247D01*
X3981177Y4173504D02*
Y4211596D01*
X3845580Y3876589D02*
X3849208Y3874775D01*
X3852836Y3871147D01*
X3854649Y3867519D01*
Y3860264D01*
X3852836Y3856636D01*
X3849208Y3853008D01*
X3845580Y3851194D01*
X3840138Y3849380D01*
X3831069D01*
X3825627Y3851194D01*
X3821999Y3853008D01*
X3818371Y3856636D01*
X3816558Y3860264D01*
Y3867519D01*
X3818371Y3871147D01*
X3821999Y3874775D01*
X3825627Y3876589D01*
X3845580Y3889104D02*
X3847394D01*
X3851022Y3890919D01*
X3852836Y3892732D01*
X3854649Y3896360D01*
Y3903616D01*
X3852836Y3907244D01*
X3851022Y3909057D01*
X3847394Y3910871D01*
X3843766D01*
X3840138Y3909057D01*
X3834696Y3905430D01*
X3816558Y3887291D01*
Y3912685D01*
X3854649Y3932094D02*
X3852836Y3926652D01*
X3847394Y3923024D01*
X3838324Y3921211D01*
X3832883D01*
X3823813Y3923024D01*
X3818371Y3926652D01*
X3816558Y3932094D01*
Y3935722D01*
X3818371Y3941164D01*
X3823813Y3944791D01*
X3832883Y3946605D01*
X3838324D01*
X3847394Y3944791D01*
X3852836Y3941164D01*
X3854649Y3935722D01*
Y3932094D01*
Y3976897D02*
Y3958758D01*
X3838324Y3956944D01*
X3840138Y3958758D01*
X3841952Y3964200D01*
Y3969642D01*
X3840138Y3975083D01*
X3836510Y3978711D01*
X3831069Y3980525D01*
X3827441D01*
X3821999Y3978711D01*
X3818371Y3975083D01*
X3816558Y3969642D01*
Y3964200D01*
X3818371Y3958758D01*
X3820185Y3956944D01*
X3823813Y3955131D01*
X3874754Y3631686D02*
X3876568Y3635314D01*
X3880196Y3638941D01*
X3883824Y3640755D01*
X3891079D01*
X3894707Y3638941D01*
X3898335Y3635314D01*
X3900149Y3631686D01*
X3901962Y3626244D01*
Y3617175D01*
X3900149Y3611733D01*
X3898335Y3608105D01*
X3894707Y3604477D01*
X3891079Y3602663D01*
X3883824D01*
X3880196Y3604477D01*
X3876568Y3608105D01*
X3874754Y3611733D01*
X3862238Y3631686D02*
Y3633500D01*
X3860424Y3637127D01*
X3858610Y3638941D01*
X3854982Y3640755D01*
X3847727D01*
X3844099Y3638941D01*
X3842285Y3637127D01*
X3840471Y3633500D01*
Y3629872D01*
X3842285Y3626244D01*
X3845913Y3620802D01*
X3864052Y3602663D01*
X3838657D01*
X3819249Y3640755D02*
X3824690Y3638941D01*
X3828318Y3633500D01*
X3830132Y3624430D01*
Y3618988D01*
X3828318Y3609919D01*
X3824690Y3604477D01*
X3819249Y3602663D01*
X3815621D01*
X3810179Y3604477D01*
X3806551Y3609919D01*
X3804737Y3618988D01*
Y3624430D01*
X3806551Y3633500D01*
X3810179Y3638941D01*
X3815621Y3640755D01*
X3819249D01*
X3787143D02*
X3792584Y3638941D01*
X3794398Y3635314D01*
Y3631686D01*
X3792584Y3628058D01*
X3788957Y3626244D01*
X3781701Y3624430D01*
X3776259Y3622616D01*
X3772632Y3618988D01*
X3770817Y3615361D01*
Y3609919D01*
X3772632Y3606291D01*
X3774445Y3604477D01*
X3779887Y3602663D01*
X3787143D01*
X3792584Y3604477D01*
X3794398Y3606291D01*
X3796212Y3609919D01*
Y3615361D01*
X3794398Y3618988D01*
X3790770Y3622616D01*
X3785329Y3624430D01*
X3778073Y3626244D01*
X3774445Y3628058D01*
X3772632Y3631686D01*
Y3635314D01*
X3774445Y3638941D01*
X3779887Y3640755D01*
X3787143D01*
X3263101Y3863003D02*
X3264915Y3866631D01*
X3268543Y3870259D01*
X3272170Y3872073D01*
X3279426D01*
X3283054Y3870259D01*
X3286682Y3866631D01*
X3288496Y3863003D01*
X3290309Y3857562D01*
Y3848492D01*
X3288496Y3843051D01*
X3286682Y3839423D01*
X3283054Y3835795D01*
X3279426Y3833981D01*
X3272170D01*
X3268543Y3835795D01*
X3264915Y3839423D01*
X3263101Y3843051D01*
X3250585Y3863003D02*
Y3864818D01*
X3248771Y3868445D01*
X3246957Y3870259D01*
X3243329Y3872073D01*
X3236074D01*
X3232446Y3870259D01*
X3230632Y3868445D01*
X3228818Y3864818D01*
Y3861190D01*
X3230632Y3857562D01*
X3234260Y3852120D01*
X3252399Y3833981D01*
X3227004D01*
X3218479Y3864818D02*
X3214851Y3866631D01*
X3209409Y3872073D01*
Y3833981D01*
X3179662Y3872073D02*
X3185103Y3870259D01*
X3188731Y3864818D01*
X3190545Y3855748D01*
Y3850306D01*
X3188731Y3841237D01*
X3185103Y3835795D01*
X3179662Y3833981D01*
X3176034D01*
X3170592Y3835795D01*
X3166964Y3841237D01*
X3165150Y3850306D01*
Y3855748D01*
X3166964Y3864818D01*
X3170592Y3870259D01*
X3176034Y3872073D01*
X3179662D01*
X3652729Y4174266D02*
X3649101Y4176080D01*
X3645473Y4179708D01*
X3643659Y4183336D01*
Y4190592D01*
X3645473Y4194219D01*
X3649101Y4197847D01*
X3652729Y4199661D01*
X3658171Y4201475D01*
X3667240D01*
X3672682Y4199661D01*
X3676310Y4197847D01*
X3679938Y4194219D01*
X3681751Y4190592D01*
Y4183336D01*
X3679938Y4179708D01*
X3676310Y4176080D01*
X3672682Y4174266D01*
X3652729Y4161751D02*
X3650915D01*
X3647287Y4159937D01*
X3645473Y4158123D01*
X3643659Y4154495D01*
Y4147239D01*
X3645473Y4143611D01*
X3647287Y4141798D01*
X3650915Y4139984D01*
X3654543D01*
X3658171Y4141798D01*
X3663612Y4145426D01*
X3681751Y4163564D01*
Y4138170D01*
X3650915Y4129645D02*
X3649101Y4126017D01*
X3643659Y4120575D01*
X3681751D01*
X3650915Y4101711D02*
X3649101Y4098083D01*
X3643659Y4092641D01*
X3681751D01*
X3392641Y3228765D02*
X3394455Y3232393D01*
X3398083Y3236021D01*
X3401710Y3237835D01*
X3408966D01*
X3412594Y3236021D01*
X3416222Y3232393D01*
X3418036Y3228765D01*
X3419849Y3223324D01*
Y3214254D01*
X3418036Y3208813D01*
X3416222Y3205185D01*
X3412594Y3201557D01*
X3408966Y3199743D01*
X3401710D01*
X3398083Y3201557D01*
X3394455Y3205185D01*
X3392641Y3208813D01*
X3380125Y3228765D02*
Y3230580D01*
X3378311Y3234207D01*
X3376497Y3236021D01*
X3372869Y3237835D01*
X3365614D01*
X3361986Y3236021D01*
X3360172Y3234207D01*
X3358358Y3230580D01*
Y3226952D01*
X3360172Y3223324D01*
X3363800Y3217882D01*
X3381939Y3199743D01*
X3356544D01*
X3348019Y3230580D02*
X3344391Y3232393D01*
X3338949Y3237835D01*
Y3199743D01*
X3318271Y3228765D02*
Y3230580D01*
X3316457Y3234207D01*
X3314643Y3236021D01*
X3311015Y3237835D01*
X3303760D01*
X3300132Y3236021D01*
X3298318Y3234207D01*
X3296504Y3230580D01*
Y3226952D01*
X3298318Y3223324D01*
X3301946Y3217882D01*
X3320085Y3199743D01*
X3294690D01*
X3260866Y3641566D02*
X3262680Y3645194D01*
X3266307Y3648822D01*
X3269935Y3650636D01*
X3277191D01*
X3280819Y3648822D01*
X3284446Y3645194D01*
X3286260Y3641566D01*
X3288074Y3636125D01*
Y3627055D01*
X3286260Y3621614D01*
X3284446Y3617986D01*
X3280819Y3614358D01*
X3277191Y3612544D01*
X3269935D01*
X3266307Y3614358D01*
X3262680Y3617986D01*
X3260866Y3621614D01*
X3248350Y3641566D02*
Y3643380D01*
X3246536Y3647008D01*
X3244722Y3648822D01*
X3241094Y3650636D01*
X3233839D01*
X3230211Y3648822D01*
X3228397Y3647008D01*
X3226583Y3643380D01*
Y3639752D01*
X3228397Y3636125D01*
X3232025Y3630683D01*
X3250164Y3612544D01*
X3224769D01*
X3216244Y3643380D02*
X3212616Y3645194D01*
X3207174Y3650636D01*
Y3612544D01*
X3184682Y3650636D02*
X3164729D01*
X3175613Y3636125D01*
X3170171D01*
X3166543Y3634311D01*
X3164729Y3632497D01*
X3162915Y3627055D01*
Y3623427D01*
X3164729Y3617986D01*
X3168357Y3614358D01*
X3173799Y3612544D01*
X3179240D01*
X3184682Y3614358D01*
X3186496Y3616172D01*
X3188310Y3619799D01*
X3857758Y3781723D02*
X3859572Y3785351D01*
X3863200Y3788979D01*
X3866828Y3790793D01*
X3874083D01*
X3877711Y3788979D01*
X3881339Y3785351D01*
X3883153Y3781723D01*
X3884967Y3776282D01*
Y3767212D01*
X3883153Y3761771D01*
X3881339Y3758143D01*
X3877711Y3754515D01*
X3874083Y3752701D01*
X3866828D01*
X3863200Y3754515D01*
X3859572Y3758143D01*
X3857758Y3761771D01*
X3845242Y3781723D02*
Y3783538D01*
X3843428Y3787165D01*
X3841614Y3788979D01*
X3837986Y3790793D01*
X3830731D01*
X3827103Y3788979D01*
X3825289Y3787165D01*
X3823475Y3783538D01*
Y3779910D01*
X3825289Y3776282D01*
X3828917Y3770840D01*
X3847056Y3752701D01*
X3821661D01*
X3813136Y3783538D02*
X3809508Y3785351D01*
X3804067Y3790793D01*
Y3752701D01*
X3767063Y3790793D02*
X3785202Y3765398D01*
X3757994D01*
X3767063Y3790793D02*
Y3752701D01*
X4095541Y4146503D02*
X4099169Y4144689D01*
X4102796Y4141061D01*
X4104610Y4137433D01*
Y4130178D01*
X4102796Y4126550D01*
X4099169Y4122922D01*
X4095541Y4121108D01*
X4090099Y4119294D01*
X4081030D01*
X4075588Y4121108D01*
X4071960Y4122922D01*
X4068332Y4126550D01*
X4066518Y4130178D01*
Y4137433D01*
X4068332Y4141061D01*
X4071960Y4144689D01*
X4075588Y4146503D01*
X4095541Y4159019D02*
X4097355D01*
X4100982Y4160833D01*
X4102796Y4162646D01*
X4104610Y4166274D01*
Y4173530D01*
X4102796Y4177158D01*
X4100982Y4178972D01*
X4097355Y4180785D01*
X4093727D01*
X4090099Y4178972D01*
X4084657Y4175344D01*
X4066518Y4157205D01*
Y4182599D01*
X4097355Y4191125D02*
X4099169Y4194753D01*
X4104610Y4200194D01*
X4066518D01*
X4099169Y4240825D02*
X4102796Y4239012D01*
X4104610Y4233570D01*
Y4229942D01*
X4102796Y4224500D01*
X4097355Y4220872D01*
X4088285Y4219059D01*
X4079216D01*
X4071960Y4220872D01*
X4068332Y4224500D01*
X4066518Y4229942D01*
Y4231756D01*
X4068332Y4237198D01*
X4071960Y4240825D01*
X4077402Y4242639D01*
X4079216D01*
X4084657Y4240825D01*
X4088285Y4237198D01*
X4090099Y4231756D01*
Y4229942D01*
X4088285Y4224500D01*
X4084657Y4220872D01*
X4079216Y4219059D01*
X4037824Y3771754D02*
X4036010Y3768126D01*
X4032383Y3764498D01*
X4028755Y3762684D01*
X4021499D01*
X4017871Y3764498D01*
X4014244Y3768126D01*
X4012430Y3771754D01*
X4010616Y3777196D01*
Y3786265D01*
X4012430Y3791707D01*
X4014244Y3795335D01*
X4017871Y3798962D01*
X4021499Y3800776D01*
X4028755D01*
X4032383Y3798962D01*
X4036010Y3795335D01*
X4037824Y3791707D01*
X4050340Y3771754D02*
Y3769940D01*
X4052154Y3766312D01*
X4053968Y3764498D01*
X4057596Y3762684D01*
X4064851D01*
X4068479Y3764498D01*
X4070293Y3766312D01*
X4072107Y3769940D01*
Y3773568D01*
X4070293Y3777196D01*
X4066665Y3782637D01*
X4048526Y3800776D01*
X4073921D01*
X4082446Y3769940D02*
X4086074Y3768126D01*
X4091516Y3762684D01*
Y3800776D01*
X4135775Y3762684D02*
X4117636Y3800776D01*
X4110380Y3762684D02*
X4135775D01*
X4137722Y3459969D02*
X4135909Y3456341D01*
X4132281Y3452713D01*
X4128653Y3450899D01*
X4121397D01*
X4117770Y3452713D01*
X4114142Y3456341D01*
X4112328Y3459969D01*
X4110514Y3465411D01*
Y3474480D01*
X4112328Y3479922D01*
X4114142Y3483550D01*
X4117770Y3487177D01*
X4121397Y3488991D01*
X4128653D01*
X4132281Y3487177D01*
X4135909Y3483550D01*
X4137722Y3479922D01*
X4150238Y3459969D02*
Y3458155D01*
X4152052Y3454527D01*
X4153866Y3452713D01*
X4157494Y3450899D01*
X4164750D01*
X4168377Y3452713D01*
X4170191Y3454527D01*
X4172005Y3458155D01*
Y3461783D01*
X4170191Y3465411D01*
X4166563Y3470852D01*
X4148425Y3488991D01*
X4173819D01*
X4182344Y3458155D02*
X4185972Y3456341D01*
X4191414Y3450899D01*
Y3488991D01*
X4219348Y3450899D02*
X4213906Y3452713D01*
X4212092Y3456341D01*
Y3459969D01*
X4213906Y3463597D01*
X4217534Y3465411D01*
X4224790Y3467224D01*
X4230231Y3469038D01*
X4233859Y3472666D01*
X4235673Y3476294D01*
Y3481736D01*
X4233859Y3485363D01*
X4232045Y3487177D01*
X4226603Y3488991D01*
X4219348D01*
X4213906Y3487177D01*
X4212092Y3485363D01*
X4210278Y3481736D01*
Y3476294D01*
X4212092Y3472666D01*
X4215720Y3469038D01*
X4221162Y3467224D01*
X4228417Y3465411D01*
X4232045Y3463597D01*
X4233859Y3459969D01*
Y3456341D01*
X4232045Y3452713D01*
X4226603Y3450899D01*
X4219348D01*
X2869916Y4129653D02*
X2871730Y4133281D01*
X2875358Y4136908D01*
X2878986Y4138722D01*
X2886241D01*
X2889869Y4136908D01*
X2893497Y4133281D01*
X2895311Y4129653D01*
X2897125Y4124211D01*
Y4115142D01*
X2895311Y4109700D01*
X2893497Y4106072D01*
X2889869Y4102444D01*
X2886241Y4100630D01*
X2878986D01*
X2875358Y4102444D01*
X2871730Y4106072D01*
X2869916Y4109700D01*
X2857400Y4129653D02*
Y4131467D01*
X2855586Y4135094D01*
X2853773Y4136908D01*
X2850145Y4138722D01*
X2842889D01*
X2839261Y4136908D01*
X2837447Y4135094D01*
X2835634Y4131467D01*
Y4127839D01*
X2837447Y4124211D01*
X2841075Y4118769D01*
X2859214Y4100630D01*
X2833820D01*
X2825294Y4131467D02*
X2821666Y4133281D01*
X2816225Y4138722D01*
Y4100630D01*
X2773780Y4126025D02*
X2775594Y4120583D01*
X2779222Y4116955D01*
X2784663Y4115142D01*
X2786477D01*
X2791919Y4116955D01*
X2795547Y4120583D01*
X2797360Y4126025D01*
Y4127839D01*
X2795547Y4133281D01*
X2791919Y4136908D01*
X2786477Y4138722D01*
X2784663D01*
X2779222Y4136908D01*
X2775594Y4133281D01*
X2773780Y4126025D01*
Y4116955D01*
X2775594Y4107886D01*
X2779222Y4102444D01*
X2784663Y4100630D01*
X2788291D01*
X2793733Y4102444D01*
X2795547Y4106072D01*
X3005312Y3645224D02*
X3007126Y3648852D01*
X3010754Y3652480D01*
X3014382Y3654293D01*
X3021637D01*
X3025265Y3652480D01*
X3028893Y3648852D01*
X3030707Y3645224D01*
X3032520Y3639782D01*
Y3630713D01*
X3030707Y3625271D01*
X3028893Y3621643D01*
X3025265Y3618015D01*
X3021637Y3616202D01*
X3014382D01*
X3010754Y3618015D01*
X3007126Y3621643D01*
X3005312Y3625271D01*
X2992796Y3645224D02*
Y3647038D01*
X2990982Y3650666D01*
X2989168Y3652480D01*
X2985540Y3654293D01*
X2978285D01*
X2974657Y3652480D01*
X2972843Y3650666D01*
X2971029Y3647038D01*
Y3643410D01*
X2972843Y3639782D01*
X2976471Y3634340D01*
X2994610Y3616202D01*
X2969215D01*
X2958876Y3645224D02*
Y3647038D01*
X2957062Y3650666D01*
X2955248Y3652480D01*
X2951620Y3654293D01*
X2944365D01*
X2940737Y3652480D01*
X2938923Y3650666D01*
X2937109Y3647038D01*
Y3643410D01*
X2938923Y3639782D01*
X2942551Y3634340D01*
X2960690Y3616202D01*
X2935295D01*
X2915887Y3654293D02*
X2921328Y3652480D01*
X2924956Y3647038D01*
X2926770Y3637968D01*
Y3632527D01*
X2924956Y3623457D01*
X2921328Y3618015D01*
X2915887Y3616202D01*
X2912259D01*
X2906817Y3618015D01*
X2903190Y3623457D01*
X2901375Y3632527D01*
Y3637968D01*
X2903190Y3647038D01*
X2906817Y3652480D01*
X2912259Y3654293D01*
X2915887D01*
X3901110Y4052945D02*
X3902924Y4056573D01*
X3906552Y4060200D01*
X3910180Y4062014D01*
X3917435D01*
X3921063Y4060200D01*
X3924691Y4056573D01*
X3926505Y4052945D01*
X3928319Y4047503D01*
Y4038434D01*
X3926505Y4032992D01*
X3924691Y4029364D01*
X3921063Y4025736D01*
X3917435Y4023922D01*
X3910180D01*
X3906552Y4025736D01*
X3902924Y4029364D01*
X3901110Y4032992D01*
X3888594Y4052945D02*
Y4054759D01*
X3886780Y4058386D01*
X3884966Y4060200D01*
X3881338Y4062014D01*
X3874083D01*
X3870455Y4060200D01*
X3868641Y4058386D01*
X3866827Y4054759D01*
Y4051131D01*
X3868641Y4047503D01*
X3872269Y4042061D01*
X3890408Y4023922D01*
X3865013D01*
X3854674Y4052945D02*
Y4054759D01*
X3852860Y4058386D01*
X3851046Y4060200D01*
X3847419Y4062014D01*
X3840163D01*
X3836535Y4060200D01*
X3834721Y4058386D01*
X3832907Y4054759D01*
Y4051131D01*
X3834721Y4047503D01*
X3838349Y4042061D01*
X3856488Y4023922D01*
X3831093D01*
X3822568Y4054759D02*
X3818940Y4056573D01*
X3813499Y4062014D01*
Y4023922D01*
X3006887Y3225133D02*
X3008701Y3228761D01*
X3012328Y3232389D01*
X3015956Y3234203D01*
X3023212D01*
X3026840Y3232389D01*
X3030467Y3228761D01*
X3032281Y3225133D01*
X3034095Y3219692D01*
Y3210622D01*
X3032281Y3205181D01*
X3030467Y3201553D01*
X3026840Y3197925D01*
X3023212Y3196111D01*
X3015956D01*
X3012328Y3197925D01*
X3008701Y3201553D01*
X3006887Y3205181D01*
X2994371Y3225133D02*
Y3226947D01*
X2992557Y3230575D01*
X2990743Y3232389D01*
X2987115Y3234203D01*
X2979860D01*
X2976232Y3232389D01*
X2974418Y3230575D01*
X2972604Y3226947D01*
Y3223319D01*
X2974418Y3219692D01*
X2978046Y3214250D01*
X2996185Y3196111D01*
X2970790D01*
X2960451Y3225133D02*
Y3226947D01*
X2958637Y3230575D01*
X2956823Y3232389D01*
X2953195Y3234203D01*
X2945940D01*
X2942312Y3232389D01*
X2940498Y3230575D01*
X2938684Y3226947D01*
Y3223319D01*
X2940498Y3219692D01*
X2944126Y3214250D01*
X2962265Y3196111D01*
X2936870D01*
X2926531Y3225133D02*
Y3226947D01*
X2924717Y3230575D01*
X2922903Y3232389D01*
X2919275Y3234203D01*
X2912020D01*
X2908392Y3232389D01*
X2906578Y3230575D01*
X2904764Y3226947D01*
Y3223319D01*
X2906578Y3219692D01*
X2910206Y3214250D01*
X2928345Y3196111D01*
X2902950D01*
X6049182Y2325226D02*
X6052810Y2323412D01*
X6056438Y2319784D01*
X6058252Y2316156D01*
Y2308901D01*
X6056438Y2305273D01*
X6052810Y2301645D01*
X6049182Y2299831D01*
X6043740Y2298017D01*
X6034671D01*
X6029229Y2299831D01*
X6025601Y2301645D01*
X6021973Y2305273D01*
X6020160Y2308901D01*
Y2316156D01*
X6021973Y2319784D01*
X6025601Y2323412D01*
X6029229Y2325226D01*
X6058252Y2357695D02*
Y2339556D01*
X6041926Y2337742D01*
X6043740Y2339556D01*
X6045554Y2344997D01*
Y2350439D01*
X6043740Y2355881D01*
X6040113Y2359508D01*
X6034671Y2361322D01*
X6031043D01*
X6025601Y2359508D01*
X6021973Y2355881D01*
X6020160Y2350439D01*
Y2344997D01*
X6021973Y2339556D01*
X6023788Y2337742D01*
X6027415Y2335928D01*
X6058252Y2380731D02*
X6056438Y2375289D01*
X6050996Y2371662D01*
X6041926Y2369848D01*
X6036485D01*
X6027415Y2371662D01*
X6021973Y2375289D01*
X6020160Y2380731D01*
Y2384359D01*
X6021973Y2389801D01*
X6027415Y2393428D01*
X6036485Y2395242D01*
X6041926D01*
X6050996Y2393428D01*
X6056438Y2389801D01*
X6058252Y2384359D01*
Y2380731D01*
X6045554Y2427348D02*
X6040113Y2425534D01*
X6036485Y2421907D01*
X6034671Y2416465D01*
Y2414651D01*
X6036485Y2409209D01*
X6040113Y2405581D01*
X6045554Y2403768D01*
X6047368D01*
X6052810Y2405581D01*
X6056438Y2409209D01*
X6058252Y2414651D01*
Y2416465D01*
X6056438Y2421907D01*
X6052810Y2425534D01*
X6045554Y2427348D01*
X6036485D01*
X6027415Y2425534D01*
X6021973Y2421907D01*
X6020160Y2416465D01*
Y2412837D01*
X6021973Y2407395D01*
X6025601Y2405581D01*
X5729904Y3664211D02*
X5733532Y3662397D01*
X5737160Y3658769D01*
X5738974Y3655142D01*
Y3647886D01*
X5737160Y3644258D01*
X5733532Y3640631D01*
X5729904Y3638816D01*
X5724462Y3637003D01*
X5715393D01*
X5709951Y3638816D01*
X5706323Y3640631D01*
X5702695Y3644258D01*
X5700882Y3647886D01*
Y3655142D01*
X5702695Y3658769D01*
X5706323Y3662397D01*
X5709951Y3664211D01*
X5731718Y3674913D02*
X5733532Y3678541D01*
X5738974Y3683983D01*
X5700882D01*
X5731718Y3702847D02*
X5733532Y3706475D01*
X5738974Y3711917D01*
X5700882D01*
X5738974Y3739851D02*
X5737160Y3734409D01*
X5733532Y3732595D01*
X5729904D01*
X5726276Y3734409D01*
X5724462Y3738036D01*
X5722648Y3745292D01*
X5720835Y3750734D01*
X5717207Y3754362D01*
X5713579Y3756176D01*
X5708137D01*
X5704510Y3754362D01*
X5702695Y3752548D01*
X5700882Y3747106D01*
Y3739851D01*
X5702695Y3734409D01*
X5704510Y3732595D01*
X5708137Y3730781D01*
X5713579D01*
X5717207Y3732595D01*
X5720835Y3736223D01*
X5722648Y3741664D01*
X5724462Y3748920D01*
X5726276Y3752548D01*
X5729904Y3754362D01*
X5733532D01*
X5737160Y3752548D01*
X5738974Y3747106D01*
Y3739851D01*
X5069928Y3763804D02*
X5068114Y3760176D01*
X5064486Y3756548D01*
X5060858Y3754734D01*
X5053603D01*
X5049975Y3756548D01*
X5046347Y3760176D01*
X5044533Y3763804D01*
X5042719Y3769245D01*
Y3778315D01*
X5044533Y3783756D01*
X5046347Y3787384D01*
X5049975Y3791012D01*
X5053603Y3792826D01*
X5060858D01*
X5064486Y3791012D01*
X5068114Y3787384D01*
X5069928Y3783756D01*
X5080630Y3761990D02*
X5084258Y3760176D01*
X5089699Y3754734D01*
Y3792826D01*
X5112192Y3754734D02*
X5132144D01*
X5121261Y3769245D01*
X5126703D01*
X5130331Y3771059D01*
X5132144Y3772873D01*
X5133958Y3778315D01*
Y3781943D01*
X5132144Y3787384D01*
X5128517Y3791012D01*
X5123075Y3792826D01*
X5117633D01*
X5112192Y3791012D01*
X5110378Y3789198D01*
X5108564Y3785571D01*
X5151553Y3754734D02*
X5146112Y3756548D01*
X5144298Y3760176D01*
Y3763804D01*
X5146112Y3767431D01*
X5149739Y3769245D01*
X5156995Y3771059D01*
X5162437Y3772873D01*
X5166064Y3776501D01*
X5167878Y3780129D01*
Y3785571D01*
X5166064Y3789198D01*
X5164251Y3791012D01*
X5158809Y3792826D01*
X5151553D01*
X5146112Y3791012D01*
X5144298Y3789198D01*
X5142484Y3785571D01*
Y3780129D01*
X5144298Y3776501D01*
X5147925Y3772873D01*
X5153367Y3771059D01*
X5160623Y3769245D01*
X5164251Y3767431D01*
X5166064Y3763804D01*
Y3760176D01*
X5164251Y3756548D01*
X5158809Y3754734D01*
X5151553D01*
X5205988Y4310330D02*
X5244080D01*
X5205988D02*
Y4294005D01*
X5207802Y4288563D01*
X5209616Y4286750D01*
X5213244Y4284936D01*
X5216871D01*
X5220499Y4286750D01*
X5222313Y4288563D01*
X5224127Y4294005D01*
Y4310330D01*
Y4297633D02*
X5244080Y4284936D01*
X5205988Y4272782D02*
Y4252830D01*
X5220499Y4263713D01*
Y4258271D01*
X5222313Y4254644D01*
X5224127Y4252830D01*
X5229569Y4251016D01*
X5233197D01*
X5238638Y4252830D01*
X5242266Y4256457D01*
X5244080Y4261899D01*
Y4267341D01*
X5242266Y4272782D01*
X5240452Y4274596D01*
X5236824Y4276410D01*
X5205988Y4231607D02*
X5207802Y4237049D01*
X5213244Y4240677D01*
X5222313Y4242490D01*
X5227755D01*
X5236824Y4240677D01*
X5242266Y4237049D01*
X5244080Y4231607D01*
Y4227979D01*
X5242266Y4222537D01*
X5236824Y4218910D01*
X5227755Y4217096D01*
X5222313D01*
X5213244Y4218910D01*
X5207802Y4222537D01*
X5205988Y4227979D01*
Y4231607D01*
X5215058Y4206757D02*
X5213244D01*
X5209616Y4204943D01*
X5207802Y4203129D01*
X5205988Y4199501D01*
Y4192245D01*
X5207802Y4188617D01*
X5209616Y4186804D01*
X5213244Y4184990D01*
X5216871D01*
X5220499Y4186804D01*
X5225941Y4190432D01*
X5244080Y4208570D01*
Y4183176D01*
X5434131Y6062897D02*
X5472223D01*
X5434131D02*
Y6046572D01*
X5435945Y6041130D01*
X5437759Y6039317D01*
X5441386Y6037503D01*
X5445014D01*
X5448642Y6039317D01*
X5450456Y6041130D01*
X5452270Y6046572D01*
Y6062897D01*
Y6050200D02*
X5472223Y6037503D01*
X5434131Y6025349D02*
Y6005397D01*
X5448642Y6016280D01*
Y6010838D01*
X5450456Y6007210D01*
X5452270Y6005397D01*
X5457711Y6003583D01*
X5461339D01*
X5466781Y6005397D01*
X5470409Y6009024D01*
X5472223Y6014466D01*
Y6019908D01*
X5470409Y6025349D01*
X5468595Y6027163D01*
X5464967Y6028977D01*
X5434131Y5984174D02*
X5435945Y5989616D01*
X5441386Y5993244D01*
X5450456Y5995057D01*
X5455898D01*
X5464967Y5993244D01*
X5470409Y5989616D01*
X5472223Y5984174D01*
Y5980546D01*
X5470409Y5975104D01*
X5464967Y5971477D01*
X5455898Y5969663D01*
X5450456D01*
X5441386Y5971477D01*
X5435945Y5975104D01*
X5434131Y5980546D01*
Y5984174D01*
Y5942999D02*
X5459526Y5961137D01*
Y5933929D01*
X5434131Y5942999D02*
X5472223D01*
X3232232Y3494168D02*
X3228604Y3495982D01*
X3224976Y3499610D01*
X3223162Y3503238D01*
Y3510493D01*
X3224976Y3514121D01*
X3228604Y3517749D01*
X3232232Y3519563D01*
X3237674Y3521377D01*
X3246743D01*
X3252185Y3519563D01*
X3255813Y3517749D01*
X3259441Y3514121D01*
X3261254Y3510493D01*
Y3503238D01*
X3259441Y3499610D01*
X3255813Y3495982D01*
X3252185Y3494168D01*
X3232232Y3481652D02*
X3230418D01*
X3226790Y3479838D01*
X3224976Y3478025D01*
X3223162Y3474397D01*
Y3467141D01*
X3224976Y3463513D01*
X3226790Y3461699D01*
X3230418Y3459886D01*
X3234046D01*
X3237674Y3461699D01*
X3243115Y3465327D01*
X3261254Y3483466D01*
Y3458072D01*
X3223162Y3438663D02*
X3224976Y3444105D01*
X3230418Y3447733D01*
X3239488Y3449546D01*
X3244929D01*
X3253999Y3447733D01*
X3259441Y3444105D01*
X3261254Y3438663D01*
Y3435035D01*
X3259441Y3429593D01*
X3253999Y3425966D01*
X3244929Y3424152D01*
X3239488D01*
X3230418Y3425966D01*
X3224976Y3429593D01*
X3223162Y3435035D01*
Y3438663D01*
X3235860Y3392046D02*
X3241301Y3393860D01*
X3244929Y3397487D01*
X3246743Y3402929D01*
Y3404743D01*
X3244929Y3410185D01*
X3241301Y3413813D01*
X3235860Y3415626D01*
X3234046D01*
X3228604Y3413813D01*
X3224976Y3410185D01*
X3223162Y3404743D01*
Y3402929D01*
X3224976Y3397487D01*
X3228604Y3393860D01*
X3235860Y3392046D01*
X3244929D01*
X3253999Y3393860D01*
X3259441Y3397487D01*
X3261254Y3402929D01*
Y3406557D01*
X3259441Y3411999D01*
X3255813Y3413813D01*
X5185312Y3893572D02*
X5183498Y3889944D01*
X5179871Y3886317D01*
X5176243Y3884503D01*
X5168987D01*
X5165359Y3886317D01*
X5161732Y3889944D01*
X5159918Y3893572D01*
X5158104Y3899014D01*
Y3908083D01*
X5159918Y3913525D01*
X5161732Y3917153D01*
X5165359Y3920781D01*
X5168987Y3922595D01*
X5176243D01*
X5179871Y3920781D01*
X5183498Y3917153D01*
X5185312Y3913525D01*
X5196014Y3891758D02*
X5199642Y3889944D01*
X5205084Y3884503D01*
Y3922595D01*
X5234832Y3884503D02*
X5229390Y3886317D01*
X5225762Y3891758D01*
X5223948Y3900828D01*
Y3906270D01*
X5225762Y3915339D01*
X5229390Y3920781D01*
X5234832Y3922595D01*
X5238459D01*
X5243901Y3920781D01*
X5247529Y3915339D01*
X5249343Y3906270D01*
Y3900828D01*
X5247529Y3891758D01*
X5243901Y3886317D01*
X5238459Y3884503D01*
X5234832D01*
X5281449Y3897200D02*
X5279635Y3902642D01*
X5276007Y3906270D01*
X5270565Y3908083D01*
X5268751D01*
X5263310Y3906270D01*
X5259682Y3902642D01*
X5257868Y3897200D01*
Y3895386D01*
X5259682Y3889944D01*
X5263310Y3886317D01*
X5268751Y3884503D01*
X5270565D01*
X5276007Y3886317D01*
X5279635Y3889944D01*
X5281449Y3897200D01*
Y3906270D01*
X5279635Y3915339D01*
X5276007Y3920781D01*
X5270565Y3922595D01*
X5266938D01*
X5261496Y3920781D01*
X5259682Y3917153D01*
X4117941Y3874038D02*
Y3912130D01*
Y3874038D02*
X4134266D01*
X4139708Y3875852D01*
X4141522Y3877666D01*
X4143336Y3881293D01*
Y3884921D01*
X4141522Y3888549D01*
X4139708Y3890363D01*
X4134266Y3892177D01*
X4117941D01*
X4130638D02*
X4143336Y3912130D01*
X4153675Y3883108D02*
Y3881293D01*
X4155489Y3877666D01*
X4157303Y3875852D01*
X4160931Y3874038D01*
X4168186D01*
X4171814Y3875852D01*
X4173628Y3877666D01*
X4175442Y3881293D01*
Y3884921D01*
X4173628Y3888549D01*
X4170000Y3893991D01*
X4151861Y3912130D01*
X4177256D01*
X4196664Y3874038D02*
X4191223Y3875852D01*
X4187595Y3881293D01*
X4185781Y3890363D01*
Y3895805D01*
X4187595Y3904874D01*
X4191223Y3910316D01*
X4196664Y3912130D01*
X4200292D01*
X4205734Y3910316D01*
X4209362Y3904874D01*
X4211176Y3895805D01*
Y3890363D01*
X4209362Y3881293D01*
X4205734Y3875852D01*
X4200292Y3874038D01*
X4196664D01*
X4243282Y3886735D02*
X4241468Y3892177D01*
X4237840Y3895805D01*
X4232398Y3897619D01*
X4230584D01*
X4225143Y3895805D01*
X4221515Y3892177D01*
X4219701Y3886735D01*
Y3884921D01*
X4221515Y3879480D01*
X4225143Y3875852D01*
X4230584Y3874038D01*
X4232398D01*
X4237840Y3875852D01*
X4241468Y3879480D01*
X4243282Y3886735D01*
Y3895805D01*
X4241468Y3904874D01*
X4237840Y3910316D01*
X4232398Y3912130D01*
X4228771D01*
X4223329Y3910316D01*
X4221515Y3906688D01*
X5371928Y5482785D02*
X5368300Y5484599D01*
X5364672Y5488227D01*
X5362858Y5491855D01*
Y5499110D01*
X5364672Y5502738D01*
X5368300Y5506366D01*
X5371928Y5508180D01*
X5377370Y5509994D01*
X5386439D01*
X5391881Y5508180D01*
X5395509Y5506366D01*
X5399137Y5502738D01*
X5400950Y5499110D01*
Y5491855D01*
X5399137Y5488227D01*
X5395509Y5484599D01*
X5391881Y5482785D01*
X5362858Y5463013D02*
X5364672Y5468455D01*
X5368300Y5470269D01*
X5371928D01*
X5375556Y5468455D01*
X5377370Y5464828D01*
X5379184Y5457572D01*
X5380997Y5452130D01*
X5384625Y5448502D01*
X5388253Y5446688D01*
X5393695D01*
X5397322Y5448502D01*
X5399137Y5450316D01*
X5400950Y5455758D01*
Y5463013D01*
X5399137Y5468455D01*
X5397322Y5470269D01*
X5393695Y5472083D01*
X5388253D01*
X5384625Y5470269D01*
X5380997Y5466641D01*
X5379184Y5461200D01*
X5377370Y5453944D01*
X5375556Y5450316D01*
X5371928Y5448502D01*
X5368300D01*
X5364672Y5450316D01*
X5362858Y5455758D01*
Y5463013D01*
Y5427280D02*
X5364672Y5432721D01*
X5370114Y5436349D01*
X5379184Y5438163D01*
X5384625D01*
X5393695Y5436349D01*
X5399137Y5432721D01*
X5400950Y5427280D01*
Y5423652D01*
X5399137Y5418210D01*
X5393695Y5414583D01*
X5384625Y5412768D01*
X5379184D01*
X5370114Y5414583D01*
X5364672Y5418210D01*
X5362858Y5423652D01*
Y5427280D01*
X5375556Y5380663D02*
X5380997Y5382476D01*
X5384625Y5386104D01*
X5386439Y5391546D01*
Y5393360D01*
X5384625Y5398801D01*
X5380997Y5402429D01*
X5375556Y5404243D01*
X5373742D01*
X5368300Y5402429D01*
X5364672Y5398801D01*
X5362858Y5393360D01*
Y5391546D01*
X5364672Y5386104D01*
X5368300Y5382476D01*
X5375556Y5380663D01*
X5384625D01*
X5393695Y5382476D01*
X5399137Y5386104D01*
X5400950Y5391546D01*
Y5395174D01*
X5399137Y5400615D01*
X5395509Y5402429D01*
X4929424Y3580428D02*
X4931238Y3584056D01*
X4934866Y3587684D01*
X4938494Y3589498D01*
X4945750D01*
X4949377Y3587684D01*
X4953005Y3584056D01*
X4954819Y3580428D01*
X4956633Y3574987D01*
Y3565917D01*
X4954819Y3560476D01*
X4953005Y3556848D01*
X4949377Y3553220D01*
X4945750Y3551406D01*
X4938494D01*
X4934866Y3553220D01*
X4931238Y3556848D01*
X4929424Y3560476D01*
X4918722Y3582243D02*
X4915095Y3584056D01*
X4909653Y3589498D01*
Y3551406D01*
X4869022Y3589498D02*
X4887161D01*
X4888975Y3573173D01*
X4887161Y3574987D01*
X4881719Y3576801D01*
X4876277D01*
X4870836Y3574987D01*
X4867208Y3571359D01*
X4865394Y3565917D01*
Y3562290D01*
X4867208Y3556848D01*
X4870836Y3553220D01*
X4876277Y3551406D01*
X4881719D01*
X4887161Y3553220D01*
X4888975Y3555034D01*
X4890789Y3558662D01*
X4835102Y3584056D02*
X4836916Y3587684D01*
X4842357Y3589498D01*
X4845985D01*
X4851427Y3587684D01*
X4855055Y3582243D01*
X4856869Y3573173D01*
Y3564103D01*
X4855055Y3556848D01*
X4851427Y3553220D01*
X4845985Y3551406D01*
X4844171D01*
X4838730Y3553220D01*
X4835102Y3556848D01*
X4833288Y3562290D01*
Y3564103D01*
X4835102Y3569545D01*
X4838730Y3573173D01*
X4844171Y3574987D01*
X4845985D01*
X4851427Y3573173D01*
X4855055Y3569545D01*
X4856869Y3564103D01*
X5170298Y5746872D02*
Y5717850D01*
X5172112Y5712408D01*
X5173926Y5710594D01*
X5177554Y5708781D01*
X5181182D01*
X5184809Y5710594D01*
X5186623Y5712408D01*
X5188437Y5717850D01*
Y5721478D01*
X5151434Y5746872D02*
X5156875Y5745059D01*
X5158689Y5741431D01*
Y5737803D01*
X5156875Y5734175D01*
X5153248Y5732361D01*
X5145992Y5730547D01*
X5140550Y5728734D01*
X5136923Y5725106D01*
X5135109Y5721478D01*
Y5716036D01*
X5136923Y5712408D01*
X5138736Y5710594D01*
X5144178Y5708781D01*
X5151434D01*
X5156875Y5710594D01*
X5158689Y5712408D01*
X5160503Y5716036D01*
Y5721478D01*
X5158689Y5725106D01*
X5155062Y5728734D01*
X5149620Y5730547D01*
X5142364Y5732361D01*
X5138736Y5734175D01*
X5136923Y5737803D01*
Y5741431D01*
X5138736Y5745059D01*
X5144178Y5746872D01*
X5151434D01*
X5115700D02*
X5121142Y5745059D01*
X5124770Y5739617D01*
X5126583Y5730547D01*
Y5725106D01*
X5124770Y5716036D01*
X5121142Y5710594D01*
X5115700Y5708781D01*
X5112072D01*
X5106630Y5710594D01*
X5103003Y5716036D01*
X5101189Y5725106D01*
Y5730547D01*
X5103003Y5739617D01*
X5106630Y5745059D01*
X5112072Y5746872D01*
X5115700D01*
X5090850Y5737803D02*
Y5739617D01*
X5089036Y5743245D01*
X5087222Y5745059D01*
X5083594Y5746872D01*
X5076338D01*
X5072710Y5745059D01*
X5070897Y5743245D01*
X5069083Y5739617D01*
Y5735989D01*
X5070897Y5732361D01*
X5074525Y5726919D01*
X5092663Y5708781D01*
X5067269D01*
X3030341Y989853D02*
X3033969Y988039D01*
X3037597Y984412D01*
X3039411Y980784D01*
Y973528D01*
X3037597Y969900D01*
X3033969Y966273D01*
X3030341Y964459D01*
X3024900Y962645D01*
X3015830D01*
X3010389Y964459D01*
X3006761Y966273D01*
X3003133Y969900D01*
X3001319Y973528D01*
Y980784D01*
X3003133Y984412D01*
X3006761Y988039D01*
X3010389Y989853D01*
X3039411Y1025950D02*
X3001319Y1007811D01*
X3039411Y1000555D02*
Y1025950D01*
X3030341Y1036289D02*
X3032155D01*
X3035783Y1038103D01*
X3037597Y1039917D01*
X3039411Y1043545D01*
Y1050800D01*
X3037597Y1054428D01*
X3035783Y1056242D01*
X3032155Y1058056D01*
X3028528D01*
X3024900Y1056242D01*
X3019458Y1052614D01*
X3001319Y1034475D01*
Y1059870D01*
X3039411Y1090162D02*
Y1072023D01*
X3023086Y1070209D01*
X3024900Y1072023D01*
X3026714Y1077465D01*
Y1082906D01*
X3024900Y1088348D01*
X3021272Y1091976D01*
X3015830Y1093790D01*
X3012203D01*
X3006761Y1091976D01*
X3003133Y1088348D01*
X3001319Y1082906D01*
Y1077465D01*
X3003133Y1072023D01*
X3004947Y1070209D01*
X3008575Y1068395D01*
X5694273Y1900790D02*
X5692460Y1897162D01*
X5688832Y1893534D01*
X5685204Y1891720D01*
X5677948D01*
X5674320Y1893534D01*
X5670693Y1897162D01*
X5668879Y1900790D01*
X5667065Y1906232D01*
Y1915301D01*
X5668879Y1920743D01*
X5670693Y1924371D01*
X5674320Y1927998D01*
X5677948Y1929812D01*
X5685204D01*
X5688832Y1927998D01*
X5692460Y1924371D01*
X5694273Y1920743D01*
X5726742Y1891720D02*
X5708603D01*
X5706789Y1908045D01*
X5708603Y1906232D01*
X5714045Y1904418D01*
X5719487D01*
X5724928Y1906232D01*
X5728556Y1909859D01*
X5730370Y1915301D01*
Y1918929D01*
X5728556Y1924371D01*
X5724928Y1927998D01*
X5719487Y1929812D01*
X5714045D01*
X5708603Y1927998D01*
X5706789Y1926184D01*
X5704975Y1922557D01*
X5749779Y1891720D02*
X5744337Y1893534D01*
X5740709Y1898976D01*
X5738895Y1908045D01*
Y1913487D01*
X5740709Y1922557D01*
X5744337Y1927998D01*
X5749779Y1929812D01*
X5753407D01*
X5758848Y1927998D01*
X5762476Y1922557D01*
X5764290Y1913487D01*
Y1908045D01*
X5762476Y1898976D01*
X5758848Y1893534D01*
X5753407Y1891720D01*
X5749779D01*
X5772815Y1898976D02*
X5776443Y1897162D01*
X5781885Y1891720D01*
Y1929812D01*
%TF.MD5,b2ce563958242122d2bbd43019af7aa6*%
M02*
