%TF.GenerationSoftware,Altium Limited,Altium Designer,25.7.1 (20)*%
G04 Layer_Color=14454748*
%FSLAX45Y45*%
%MOMM*%
%TF.SameCoordinates,1AA72D45-9F13-4BD8-B423-63960E99F270*%
%TF.FilePolarity,Positive*%
%TF.FileFunction,Other,Top_Component_Outline*%
%TF.Part,Single*%
G01*
G75*
%TA.AperFunction,NonConductor*%
%ADD108C,0.02540*%
G36*
X5471516Y6003874D02*
X5473014D01*
Y5940882D01*
X5471516D01*
Y5930671D01*
X5441493D01*
Y5940882D01*
X5439994D01*
Y6003874D01*
X5441493D01*
Y6014085D01*
X5471516D01*
Y6003874D01*
D02*
G37*
G36*
X5222494Y5950128D02*
X5232705D01*
Y5920105D01*
X5222494D01*
Y5918606D01*
X5159502D01*
Y5920105D01*
X5149291D01*
Y5950128D01*
X5159502D01*
Y5951626D01*
X5222494D01*
Y5950128D01*
D02*
G37*
G36*
X3754750Y5930988D02*
X3769453Y5921164D01*
X3775984Y5911390D01*
X3779278Y5906460D01*
X3782728Y5889117D01*
X3779278Y5871774D01*
X3769453Y5857070D01*
X3754750Y5847246D01*
X3737407Y5843796D01*
X3720063Y5847246D01*
X3705360Y5857070D01*
X3695536Y5871774D01*
X3692086Y5889117D01*
X3695536Y5906460D01*
X3698830Y5911390D01*
X3705360Y5921164D01*
X3720063Y5930988D01*
X3737407Y5934438D01*
X3754750Y5930988D01*
D02*
G37*
G36*
X3515584D02*
X3530287Y5921164D01*
X3536818Y5911390D01*
X3540111Y5906460D01*
X3543561Y5889117D01*
X3540111Y5871774D01*
X3530287Y5857070D01*
X3515584Y5847246D01*
X3498240Y5843796D01*
X3480897Y5847246D01*
X3466194Y5857070D01*
X3456370Y5871774D01*
X3452920Y5889117D01*
X3456370Y5906460D01*
X3459663Y5911390D01*
X3466194Y5921164D01*
X3480897Y5930988D01*
X3498240Y5934438D01*
X3515584Y5930988D01*
D02*
G37*
G36*
X3276417D02*
X3291121Y5921164D01*
X3297651Y5911390D01*
X3300945Y5906460D01*
X3304395Y5889117D01*
X3300945Y5871774D01*
X3291121Y5857070D01*
X3276417Y5847246D01*
X3259074Y5843796D01*
X3241731Y5847246D01*
X3227027Y5857070D01*
X3217203Y5871774D01*
X3213753Y5889117D01*
X3217203Y5906460D01*
X3220497Y5911390D01*
X3227027Y5921164D01*
X3241731Y5930988D01*
X3259074Y5934438D01*
X3276417Y5930988D01*
D02*
G37*
G36*
X5248554Y5883021D02*
X5256454D01*
Y5832221D01*
X5248554D01*
Y5830113D01*
X5143551D01*
Y5832221D01*
X5135651D01*
Y5883021D01*
X5143551D01*
Y5885129D01*
X5248554D01*
Y5883021D01*
D02*
G37*
G36*
X5911150Y5887163D02*
X5921712Y5880106D01*
X5928768Y5869545D01*
X5931246Y5857088D01*
X5928768Y5844630D01*
X5921712Y5834069D01*
X5911150Y5827012D01*
X5898693Y5824534D01*
X5886235Y5827012D01*
X5882695Y5829378D01*
X5875674Y5834069D01*
X5868617Y5844630D01*
X5866139Y5857088D01*
X5868617Y5869545D01*
X5875674Y5880106D01*
X5882695Y5884797D01*
X5886235Y5887163D01*
X5898693Y5889641D01*
X5911150Y5887163D01*
D02*
G37*
G36*
X5679477Y5886680D02*
X5690038Y5879624D01*
X5697095Y5869063D01*
X5699573Y5856605D01*
X5697095Y5844147D01*
X5690038Y5833586D01*
X5679477Y5826530D01*
X5667019Y5824052D01*
X5654562Y5826530D01*
X5651021Y5828895D01*
X5644001Y5833586D01*
X5636944Y5844147D01*
X5634466Y5856605D01*
X5636944Y5869063D01*
X5644001Y5879624D01*
X5651021Y5884315D01*
X5654562Y5886680D01*
X5667019Y5889158D01*
X5679477Y5886680D01*
D02*
G37*
G36*
X6028219Y5884725D02*
X6038780Y5877668D01*
X6045837Y5867107D01*
X6048315Y5854649D01*
X6045837Y5842192D01*
X6038780Y5831630D01*
X6028219Y5824574D01*
X6015761Y5822096D01*
X6003304Y5824574D01*
X5999763Y5826940D01*
X5992743Y5831630D01*
X5985686Y5842192D01*
X5983208Y5854649D01*
X5985686Y5867107D01*
X5992743Y5877668D01*
X5999763Y5882359D01*
X6003304Y5884725D01*
X6015761Y5887203D01*
X6028219Y5884725D01*
D02*
G37*
G36*
X5794895Y5883912D02*
X5805456Y5876855D01*
X5812512Y5866294D01*
X5814990Y5853836D01*
X5812512Y5841379D01*
X5805456Y5830818D01*
X5794895Y5823761D01*
X5782437Y5821283D01*
X5769979Y5823761D01*
X5766439Y5826127D01*
X5759418Y5830818D01*
X5752362Y5841379D01*
X5749884Y5853836D01*
X5752362Y5866294D01*
X5759418Y5876855D01*
X5766439Y5881546D01*
X5769979Y5883912D01*
X5782437Y5886390D01*
X5794895Y5883912D01*
D02*
G37*
G36*
X4040886Y5926963D02*
Y5851271D01*
X4002786Y5813171D01*
X3927094D01*
X3888994Y5851271D01*
Y5926963D01*
X3927094Y5965063D01*
X4002786D01*
X4040886Y5926963D01*
D02*
G37*
G36*
X1493520Y5895975D02*
Y5820283D01*
X1455420Y5782183D01*
X1379728D01*
X1341628Y5820283D01*
Y5895975D01*
X1379728Y5934075D01*
X1455420D01*
X1493520Y5895975D01*
D02*
G37*
G36*
X664108Y5873801D02*
X666217D01*
Y5768797D01*
X664108D01*
Y5760898D01*
X613308D01*
Y5768797D01*
X611200D01*
Y5873801D01*
X613308D01*
Y5881700D01*
X664108D01*
Y5873801D01*
D02*
G37*
G36*
X773582Y5872328D02*
X775691D01*
Y5767324D01*
X773582D01*
Y5759425D01*
X722782D01*
Y5767324D01*
X720674D01*
Y5872328D01*
X722782D01*
Y5880227D01*
X773582D01*
Y5872328D01*
D02*
G37*
G36*
X551383Y5872302D02*
X553491D01*
Y5767299D01*
X551383D01*
Y5759399D01*
X500583D01*
Y5767299D01*
X498475D01*
Y5872302D01*
X500583D01*
Y5880202D01*
X551383D01*
Y5872302D01*
D02*
G37*
G36*
X417170Y5870727D02*
X419278D01*
Y5765724D01*
X417170D01*
Y5757824D01*
X366370D01*
Y5765724D01*
X364261D01*
Y5870727D01*
X366370D01*
Y5878627D01*
X417170D01*
Y5870727D01*
D02*
G37*
G36*
X5678258Y5777333D02*
X5688819Y5770277D01*
X5695876Y5759716D01*
X5698354Y5747258D01*
X5695876Y5734800D01*
X5688819Y5724239D01*
X5678258Y5717183D01*
X5665800Y5714705D01*
X5653343Y5717183D01*
X5649802Y5719548D01*
X5642781Y5724239D01*
X5635725Y5734800D01*
X5633247Y5747258D01*
X5635725Y5759716D01*
X5642781Y5770277D01*
X5649802Y5774968D01*
X5653343Y5777333D01*
X5665800Y5779811D01*
X5678258Y5777333D01*
D02*
G37*
G36*
X2913228Y5907837D02*
X2987650D01*
Y5700624D01*
X2767686D01*
Y5907837D01*
X2842108D01*
Y5979871D01*
X2913228D01*
Y5907837D01*
D02*
G37*
G36*
X5539811Y5762713D02*
X5554515Y5752889D01*
X5564339Y5738185D01*
X5567789Y5720842D01*
X5564339Y5703499D01*
X5554515Y5688795D01*
X5539811Y5678971D01*
X5522468Y5675521D01*
X5505125Y5678971D01*
X5500195Y5682265D01*
X5490421Y5688795D01*
X5480597Y5703499D01*
X5477147Y5720842D01*
X5480597Y5738185D01*
X5490421Y5752889D01*
X5500195Y5759419D01*
X5505125Y5762713D01*
X5522468Y5766163D01*
X5539811Y5762713D01*
D02*
G37*
G36*
X5412811D02*
X5427515Y5752889D01*
X5437339Y5738185D01*
X5440789Y5720842D01*
X5437339Y5703499D01*
X5427515Y5688795D01*
X5412811Y5678971D01*
X5395468Y5675521D01*
X5378125Y5678971D01*
X5373195Y5682265D01*
X5363421Y5688795D01*
X5353597Y5703499D01*
X5350147Y5720842D01*
X5353597Y5738185D01*
X5363421Y5752889D01*
X5373195Y5759419D01*
X5378125Y5762713D01*
X5395468Y5766163D01*
X5412811Y5762713D01*
D02*
G37*
G36*
X5285811D02*
X5300515Y5752889D01*
X5310339Y5738185D01*
X5313789Y5720842D01*
X5310339Y5703499D01*
X5300515Y5688795D01*
X5285811Y5678971D01*
X5268468Y5675521D01*
X5251125Y5678971D01*
X5246195Y5682265D01*
X5236421Y5688795D01*
X5226597Y5703499D01*
X5223147Y5720842D01*
X5226597Y5738185D01*
X5236421Y5752889D01*
X5246195Y5759419D01*
X5251125Y5762713D01*
X5268468Y5766163D01*
X5285811Y5762713D01*
D02*
G37*
G36*
X5158811D02*
X5173515Y5752889D01*
X5183339Y5738185D01*
X5186789Y5720842D01*
X5183339Y5703499D01*
X5173515Y5688795D01*
X5158811Y5678971D01*
X5141468Y5675521D01*
X5124125Y5678971D01*
X5119195Y5682265D01*
X5109421Y5688795D01*
X5099597Y5703499D01*
X5096147Y5720842D01*
X5099597Y5738185D01*
X5109421Y5752889D01*
X5119195Y5759419D01*
X5124125Y5762713D01*
X5141468Y5766163D01*
X5158811Y5762713D01*
D02*
G37*
G36*
X759690Y5719920D02*
X768622Y5710989D01*
X773455Y5699319D01*
Y5686688D01*
X768622Y5675019D01*
X759690Y5666087D01*
X748021Y5661254D01*
X633790D01*
X622121Y5666087D01*
X613189Y5675019D01*
X608355Y5686688D01*
Y5699319D01*
X613189Y5710989D01*
X622121Y5719920D01*
X633790Y5724754D01*
X748021D01*
X759690Y5719920D01*
D02*
G37*
G36*
X2679598Y5624449D02*
X2542438D01*
Y6000369D01*
X2679598D01*
Y5624449D01*
D02*
G37*
G36*
X2339315D02*
X2202155D01*
Y6000369D01*
X2339315D01*
Y5624449D01*
D02*
G37*
G36*
X3378048Y5670779D02*
X3385947D01*
Y5619979D01*
X3378048D01*
Y5617870D01*
X3273044D01*
Y5619979D01*
X3265145D01*
Y5670779D01*
X3273044D01*
Y5672887D01*
X3378048D01*
Y5670779D01*
D02*
G37*
G36*
X6470193Y5665826D02*
X6478092D01*
Y5615026D01*
X6470193D01*
Y5612917D01*
X6365189D01*
Y5615026D01*
X6357290D01*
Y5665826D01*
X6365189D01*
Y5667934D01*
X6470193D01*
Y5665826D01*
D02*
G37*
G36*
X6251931Y5664073D02*
X6259830D01*
Y5613273D01*
X6251931D01*
Y5611165D01*
X6146927D01*
Y5613273D01*
X6139028D01*
Y5664073D01*
X6146927D01*
Y5666181D01*
X6251931D01*
Y5664073D01*
D02*
G37*
G36*
X2926385Y5638394D02*
X2934284D01*
Y5587594D01*
X2926385D01*
Y5585485D01*
X2821381D01*
Y5587594D01*
X2813482D01*
Y5638394D01*
X2821381D01*
Y5640502D01*
X2926385D01*
Y5638394D01*
D02*
G37*
G36*
X292049Y5629427D02*
X299949D01*
Y5578627D01*
X292049D01*
Y5576519D01*
X187046D01*
Y5578627D01*
X179146D01*
Y5629427D01*
X187046D01*
Y5631536D01*
X292049D01*
Y5629427D01*
D02*
G37*
G36*
X4893966Y5645314D02*
X4908669Y5635490D01*
X4918493Y5620787D01*
X4921943Y5603443D01*
X4918493Y5586100D01*
X4908669Y5571397D01*
X4893966Y5561572D01*
X4876622Y5558122D01*
X4859279Y5561572D01*
X4854349Y5564866D01*
X4844576Y5571397D01*
X4834751Y5586100D01*
X4831301Y5603443D01*
X4834751Y5620787D01*
X4844576Y5635490D01*
X4854349Y5642020D01*
X4859279Y5645314D01*
X4876622Y5648764D01*
X4893966Y5645314D01*
D02*
G37*
G36*
X3834252Y5638278D02*
X3848955Y5628454D01*
X3855486Y5618680D01*
X3858780Y5613751D01*
X3862230Y5596407D01*
X3858780Y5579064D01*
X3848955Y5564361D01*
X3834252Y5554537D01*
X3816909Y5551087D01*
X3799565Y5554537D01*
X3784862Y5564361D01*
X3775038Y5579064D01*
X3771588Y5596407D01*
X3775038Y5613751D01*
X3778332Y5618680D01*
X3784862Y5628454D01*
X3799565Y5638278D01*
X3816909Y5641728D01*
X3834252Y5638278D01*
D02*
G37*
G36*
X5838114Y5649265D02*
X5840222D01*
Y5544261D01*
X5838114D01*
Y5536362D01*
X5787314D01*
Y5544261D01*
X5785206D01*
Y5649265D01*
X5787314D01*
Y5657164D01*
X5838114D01*
Y5649265D01*
D02*
G37*
G36*
X5710428Y5642331D02*
X5712536D01*
Y5537327D01*
X5710428D01*
Y5529428D01*
X5659628D01*
Y5537327D01*
X5657520D01*
Y5642331D01*
X5659628D01*
Y5650230D01*
X5710428D01*
Y5642331D01*
D02*
G37*
G36*
X7166323Y5970295D02*
X7211330Y5956643D01*
X7252808Y5934472D01*
X7289164Y5904635D01*
X7319001Y5868280D01*
X7341171Y5826801D01*
X7354824Y5781795D01*
X7359434Y5734990D01*
X7354824Y5688185D01*
X7341171Y5643178D01*
X7319001Y5601700D01*
X7289164Y5565344D01*
X7252808Y5535508D01*
X7211330Y5513337D01*
X7166323Y5499684D01*
X7119518Y5495075D01*
X7072713Y5499684D01*
X7027707Y5513337D01*
X7000074Y5528107D01*
X6986229Y5535508D01*
X6949873Y5565344D01*
X6920036Y5601700D01*
X6897866Y5643178D01*
X6884213Y5688185D01*
X6879603Y5734990D01*
X6884213Y5781795D01*
X6897866Y5826801D01*
X6920036Y5868280D01*
X6949873Y5904635D01*
X6986229Y5934472D01*
X7000074Y5941873D01*
X7027707Y5956643D01*
X7072713Y5970295D01*
X7119518Y5974905D01*
X7166323Y5970295D01*
D02*
G37*
G36*
X1832323D02*
X1877330Y5956643D01*
X1918808Y5934472D01*
X1955164Y5904635D01*
X1985001Y5868280D01*
X2007171Y5826801D01*
X2020824Y5781795D01*
X2025434Y5734990D01*
X2020824Y5688185D01*
X2007171Y5643178D01*
X1985001Y5601700D01*
X1955164Y5565344D01*
X1918808Y5535508D01*
X1877330Y5513337D01*
X1832323Y5499684D01*
X1785518Y5495075D01*
X1738713Y5499684D01*
X1693707Y5513337D01*
X1666074Y5528107D01*
X1652229Y5535508D01*
X1615873Y5565344D01*
X1586036Y5601700D01*
X1563866Y5643178D01*
X1550213Y5688185D01*
X1545603Y5734990D01*
X1550213Y5781795D01*
X1563866Y5826801D01*
X1586036Y5868280D01*
X1615873Y5904635D01*
X1652229Y5934472D01*
X1666074Y5941873D01*
X1693707Y5956643D01*
X1738713Y5970295D01*
X1785518Y5974905D01*
X1832323Y5970295D01*
D02*
G37*
G36*
X1154862Y5525008D02*
X1162761D01*
Y5474208D01*
X1154862D01*
Y5472100D01*
X1049858D01*
Y5474208D01*
X1041959D01*
Y5525008D01*
X1049858D01*
Y5527116D01*
X1154862D01*
Y5525008D01*
D02*
G37*
G36*
X292811Y5522290D02*
X300711D01*
Y5471490D01*
X292811D01*
Y5469382D01*
X187808D01*
Y5471490D01*
X179908D01*
Y5522290D01*
X187808D01*
Y5524398D01*
X292811D01*
Y5522290D01*
D02*
G37*
G36*
X6383884Y5479745D02*
X6394094D01*
Y5449722D01*
X6383884D01*
Y5448224D01*
X6320892D01*
Y5449722D01*
X6310681D01*
Y5479745D01*
X6320892D01*
Y5481244D01*
X6383884D01*
Y5479745D01*
D02*
G37*
G36*
X6266536Y5478348D02*
X6276746D01*
Y5448325D01*
X6266536D01*
Y5446827D01*
X6203544D01*
Y5448325D01*
X6193333D01*
Y5478348D01*
X6203544D01*
Y5479847D01*
X6266536D01*
Y5478348D01*
D02*
G37*
G36*
X3399968Y5412054D02*
X3259252D01*
Y5477078D01*
X3399968D01*
Y5412054D01*
D02*
G37*
G36*
X2585491Y5523535D02*
X2587600D01*
Y5418531D01*
X2585491D01*
Y5410632D01*
X2534691D01*
Y5418531D01*
X2532583D01*
Y5523535D01*
X2534691D01*
Y5531434D01*
X2585491D01*
Y5523535D01*
D02*
G37*
G36*
X2461362D02*
X2463470D01*
Y5418531D01*
X2461362D01*
Y5410632D01*
X2410562D01*
Y5418531D01*
X2408453D01*
Y5523535D01*
X2410562D01*
Y5531434D01*
X2461362D01*
Y5523535D01*
D02*
G37*
G36*
X2354834Y5523357D02*
X2356942D01*
Y5418353D01*
X2354834D01*
Y5410454D01*
X2304034D01*
Y5418353D01*
X2301926D01*
Y5523357D01*
X2304034D01*
Y5531256D01*
X2354834D01*
Y5523357D01*
D02*
G37*
G36*
X2243785Y5520995D02*
X2245893D01*
Y5415991D01*
X2243785D01*
Y5408092D01*
X2192985D01*
Y5415991D01*
X2190877D01*
Y5520995D01*
X2192985D01*
Y5528894D01*
X2243785D01*
Y5520995D01*
D02*
G37*
G36*
X2134845D02*
X2136953D01*
Y5415991D01*
X2134845D01*
Y5408092D01*
X2084045D01*
Y5415991D01*
X2081936D01*
Y5520995D01*
X2084045D01*
Y5528894D01*
X2134845D01*
Y5520995D01*
D02*
G37*
G36*
X2027657D02*
X2029765D01*
Y5415991D01*
X2027657D01*
Y5408092D01*
X1976857D01*
Y5415991D01*
X1974748D01*
Y5520995D01*
X1976857D01*
Y5528894D01*
X2027657D01*
Y5520995D01*
D02*
G37*
G36*
X1154862Y5415788D02*
X1162761D01*
Y5364988D01*
X1154862D01*
Y5362880D01*
X1049858D01*
Y5364988D01*
X1041959D01*
Y5415788D01*
X1049858D01*
Y5417896D01*
X1154862D01*
Y5415788D01*
D02*
G37*
G36*
X1754022Y5413121D02*
X1761922D01*
Y5362321D01*
X1754022D01*
Y5360213D01*
X1649019D01*
Y5362321D01*
X1641119D01*
Y5413121D01*
X1649019D01*
Y5415229D01*
X1754022D01*
Y5413121D01*
D02*
G37*
G36*
X292100Y5410886D02*
X299999D01*
Y5360086D01*
X292100D01*
Y5357978D01*
X187096D01*
Y5360086D01*
X179197D01*
Y5410886D01*
X187096D01*
Y5412994D01*
X292100D01*
Y5410886D01*
D02*
G37*
G36*
X975641Y5512097D02*
X984573Y5503166D01*
X989406Y5491496D01*
Y5485181D01*
Y5483911D01*
Y5383581D01*
Y5377265D01*
X984573Y5365596D01*
X975641Y5356664D01*
X963972Y5351831D01*
X951341D01*
X939671Y5356664D01*
X930740Y5365596D01*
X925906Y5377265D01*
Y5383581D01*
Y5485181D01*
Y5491496D01*
X930740Y5503166D01*
X939671Y5512097D01*
X951341Y5516931D01*
X963972D01*
X975641Y5512097D01*
D02*
G37*
G36*
X1551707Y5438609D02*
X1566410Y5428785D01*
X1576234Y5414081D01*
X1579684Y5396738D01*
X1576234Y5379395D01*
X1572940Y5374465D01*
X1566410Y5364691D01*
X1551707Y5354867D01*
X1534363Y5351417D01*
X1517020Y5354867D01*
X1502317Y5364691D01*
X1495786Y5374465D01*
X1492492Y5379395D01*
X1489042Y5396738D01*
X1492492Y5414081D01*
X1502317Y5428785D01*
X1517020Y5438609D01*
X1534363Y5442059D01*
X1551707Y5438609D01*
D02*
G37*
G36*
X3839586Y5422632D02*
X3854289Y5412808D01*
X3860820Y5403034D01*
X3864114Y5398105D01*
X3867564Y5380761D01*
X3864114Y5363418D01*
X3854289Y5348715D01*
X3839586Y5338891D01*
X3822243Y5335441D01*
X3804899Y5338891D01*
X3790196Y5348715D01*
X3780372Y5363418D01*
X3776922Y5380761D01*
X3780372Y5398105D01*
X3783666Y5403034D01*
X3790196Y5412808D01*
X3804899Y5422632D01*
X3822243Y5426082D01*
X3839586Y5422632D01*
D02*
G37*
G36*
X2676957Y5358359D02*
X2684856D01*
Y5307559D01*
X2676957D01*
Y5305450D01*
X2571953D01*
Y5307559D01*
X2564054D01*
Y5358359D01*
X2571953D01*
Y5360467D01*
X2676957D01*
Y5358359D01*
D02*
G37*
G36*
X5650292Y5342181D02*
X5660854Y5335124D01*
X5667910Y5324563D01*
X5670388Y5312105D01*
X5667910Y5299648D01*
X5665544Y5296107D01*
X5660854Y5289086D01*
X5650292Y5282030D01*
X5637835Y5279552D01*
X5625377Y5282030D01*
X5614816Y5289086D01*
X5610125Y5296107D01*
X5607759Y5299648D01*
X5605281Y5312105D01*
X5607759Y5324563D01*
X5614816Y5335124D01*
X5625377Y5342181D01*
X5637835Y5344659D01*
X5650292Y5342181D01*
D02*
G37*
G36*
X1754022Y5312385D02*
X1761922D01*
Y5261585D01*
X1754022D01*
Y5259476D01*
X1649019D01*
Y5261585D01*
X1641119D01*
Y5312385D01*
X1649019D01*
Y5314493D01*
X1754022D01*
Y5312385D01*
D02*
G37*
G36*
X1154862Y5304536D02*
X1162761D01*
Y5253736D01*
X1154862D01*
Y5251628D01*
X1049858D01*
Y5253736D01*
X1041959D01*
Y5304536D01*
X1049858D01*
Y5306644D01*
X1154862D01*
Y5304536D01*
D02*
G37*
G36*
X2845049Y5310161D02*
X2859752Y5300337D01*
X2869577Y5285634D01*
X2873027Y5268290D01*
X2869577Y5250947D01*
X2859752Y5236244D01*
X2845049Y5226419D01*
X2827706Y5222969D01*
X2810362Y5226419D01*
X2805433Y5229713D01*
X2795659Y5236244D01*
X2785835Y5250947D01*
X2782385Y5268290D01*
X2785835Y5285634D01*
X2795659Y5300337D01*
X2805433Y5306867D01*
X2810362Y5310161D01*
X2827706Y5313611D01*
X2845049Y5310161D01*
D02*
G37*
G36*
X271755Y5247437D02*
X281965D01*
Y5217414D01*
X271755D01*
Y5215915D01*
X208763D01*
Y5217414D01*
X198552D01*
Y5247437D01*
X208763D01*
Y5248935D01*
X271755D01*
Y5247437D01*
D02*
G37*
G36*
X5924485Y5274337D02*
X5935047Y5267281D01*
X5942103Y5256719D01*
X5944581Y5244262D01*
X5942103Y5231804D01*
X5935047Y5221243D01*
X5924485Y5214186D01*
X5912028Y5211708D01*
X5899570Y5214186D01*
X5896030Y5216552D01*
X5889009Y5221243D01*
X5881952Y5231804D01*
X5879474Y5244262D01*
X5881952Y5256719D01*
X5889009Y5267281D01*
X5896030Y5271971D01*
X5899570Y5274337D01*
X5912028Y5276815D01*
X5924485Y5274337D01*
D02*
G37*
G36*
X2676957Y5257622D02*
X2684856D01*
Y5206822D01*
X2676957D01*
Y5204714D01*
X2571953D01*
Y5206822D01*
X2564054D01*
Y5257622D01*
X2571953D01*
Y5259730D01*
X2676957D01*
Y5257622D01*
D02*
G37*
G36*
X5697994Y5228744D02*
X5708555Y5221688D01*
X5715611Y5211126D01*
X5718089Y5198669D01*
X5715611Y5186211D01*
X5708555Y5175650D01*
X5697994Y5168593D01*
X5685536Y5166115D01*
X5673078Y5168593D01*
X5669538Y5170959D01*
X5662517Y5175650D01*
X5655461Y5186211D01*
X5652983Y5198669D01*
X5655461Y5211126D01*
X5662517Y5221688D01*
X5669538Y5226378D01*
X5673078Y5228744D01*
X5685536Y5231222D01*
X5697994Y5228744D01*
D02*
G37*
G36*
X1754022Y5211648D02*
X1761922D01*
Y5160848D01*
X1754022D01*
Y5158740D01*
X1649019D01*
Y5160848D01*
X1641119D01*
Y5211648D01*
X1649019D01*
Y5213756D01*
X1754022D01*
Y5211648D01*
D02*
G37*
G36*
X974955Y5305773D02*
X983887Y5296842D01*
X988720Y5285172D01*
Y5278857D01*
Y5277587D01*
Y5177257D01*
Y5170941D01*
X983887Y5159272D01*
X974955Y5150340D01*
X963286Y5145507D01*
X950655D01*
X938985Y5150340D01*
X930054Y5159272D01*
X925220Y5170941D01*
Y5177257D01*
Y5178527D01*
Y5278857D01*
Y5285172D01*
X930054Y5296842D01*
X938985Y5305773D01*
X950655Y5310607D01*
X963286D01*
X974955Y5305773D01*
D02*
G37*
G36*
X1154862Y5195570D02*
X1162761D01*
Y5144770D01*
X1154862D01*
Y5142662D01*
X1049858D01*
Y5144770D01*
X1041959D01*
Y5195570D01*
X1049858D01*
Y5197678D01*
X1154862D01*
Y5195570D01*
D02*
G37*
G36*
X3781806Y5180736D02*
X3789705D01*
Y5129936D01*
X3781806D01*
Y5127828D01*
X3676802D01*
Y5129936D01*
X3668903D01*
Y5180736D01*
X3676802D01*
Y5182845D01*
X3781806D01*
Y5180736D01*
D02*
G37*
G36*
X1549776Y5213006D02*
X1564479Y5203182D01*
X1574304Y5188479D01*
X1577754Y5171135D01*
X1574304Y5153792D01*
X1571010Y5148862D01*
X1564479Y5139089D01*
X1549776Y5129264D01*
X1532433Y5125814D01*
X1515089Y5129264D01*
X1500386Y5139089D01*
X1493856Y5148862D01*
X1490562Y5153792D01*
X1487112Y5171135D01*
X1490562Y5188479D01*
X1500386Y5203182D01*
X1515089Y5213006D01*
X1532433Y5216456D01*
X1549776Y5213006D01*
D02*
G37*
G36*
X726084Y5556148D02*
X818286D01*
Y5463946D01*
X847674D01*
Y5233391D01*
X818286D01*
Y5141163D01*
X731164D01*
Y5111775D01*
X495503D01*
Y5141163D01*
X403301D01*
Y5233391D01*
X373939D01*
Y5463921D01*
X403301D01*
Y5556148D01*
X495503D01*
Y5585587D01*
X726084D01*
Y5556148D01*
D02*
G37*
G36*
X2677033Y5163515D02*
X2684932D01*
Y5112715D01*
X2677033D01*
Y5110607D01*
X2572029D01*
Y5112715D01*
X2564130D01*
Y5163515D01*
X2572029D01*
Y5165623D01*
X2677033D01*
Y5163515D01*
D02*
G37*
G36*
X5900508Y5160926D02*
X5911069Y5153870D01*
X5918126Y5143308D01*
X5920604Y5130851D01*
X5918126Y5118393D01*
X5911069Y5107832D01*
X5900508Y5100775D01*
X5888050Y5098297D01*
X5875593Y5100775D01*
X5872052Y5103141D01*
X5865031Y5107832D01*
X5857975Y5118393D01*
X5855497Y5130851D01*
X5857975Y5143308D01*
X5865031Y5153870D01*
X5872052Y5158560D01*
X5875593Y5160926D01*
X5888050Y5163404D01*
X5900508Y5160926D01*
D02*
G37*
G36*
X5804267Y5158615D02*
X5814828Y5151558D01*
X5821885Y5140997D01*
X5824363Y5128539D01*
X5821885Y5116082D01*
X5814828Y5105521D01*
X5804267Y5098464D01*
X5791810Y5095986D01*
X5779352Y5098464D01*
X5775811Y5100830D01*
X5768791Y5105521D01*
X5761734Y5116082D01*
X5759256Y5128539D01*
X5761734Y5140997D01*
X5768791Y5151558D01*
X5775811Y5156249D01*
X5779352Y5158615D01*
X5791810Y5161093D01*
X5804267Y5158615D01*
D02*
G37*
G36*
X3160852Y5130597D02*
X3168752D01*
Y5079797D01*
X3160852D01*
Y5077689D01*
X3055849D01*
Y5079797D01*
X3047949D01*
Y5130597D01*
X3055849D01*
Y5132705D01*
X3160852D01*
Y5130597D01*
D02*
G37*
G36*
X6240071Y5126601D02*
X6249002Y5117670D01*
X6253836Y5106001D01*
Y5093370D01*
X6249002Y5081700D01*
X6240071Y5072769D01*
X6228401Y5067935D01*
X6114170D01*
X6102501Y5072769D01*
X6093569Y5081700D01*
X6088736Y5093370D01*
Y5106001D01*
X6093569Y5117670D01*
X6102501Y5126601D01*
X6114170Y5131435D01*
X6228401D01*
X6240071Y5126601D01*
D02*
G37*
G36*
X1754022Y5110912D02*
X1761922D01*
Y5060112D01*
X1754022D01*
Y5058004D01*
X1649019D01*
Y5060112D01*
X1641119D01*
Y5110912D01*
X1649019D01*
Y5113020D01*
X1754022D01*
Y5110912D01*
D02*
G37*
G36*
X6334023Y5120818D02*
X6335522D01*
Y5057826D01*
X6334023D01*
Y5047615D01*
X6304001D01*
Y5057826D01*
X6302502D01*
Y5120818D01*
X6304001D01*
Y5131029D01*
X6334023D01*
Y5120818D01*
D02*
G37*
G36*
X6402324Y5120615D02*
X6403823D01*
Y5057623D01*
X6402324D01*
Y5047412D01*
X6372301D01*
Y5057623D01*
X6370803D01*
Y5120615D01*
X6372301D01*
Y5130825D01*
X6402324D01*
Y5120615D01*
D02*
G37*
G36*
X3894247Y5122861D02*
X3908950Y5113037D01*
X3918774Y5098334D01*
X3922224Y5080991D01*
X3918774Y5063647D01*
X3908950Y5048944D01*
X3894247Y5039120D01*
X3876904Y5035670D01*
X3859560Y5039120D01*
X3854631Y5042413D01*
X3844857Y5048944D01*
X3835033Y5063647D01*
X3831583Y5080991D01*
X3835033Y5098334D01*
X3844857Y5113037D01*
X3854631Y5119568D01*
X3859560Y5122861D01*
X3876904Y5126311D01*
X3894247Y5122861D01*
D02*
G37*
G36*
X3781806Y5073040D02*
X3789705D01*
Y5022240D01*
X3781806D01*
Y5020132D01*
X3676802D01*
Y5022240D01*
X3668903D01*
Y5073040D01*
X3676802D01*
Y5075149D01*
X3781806D01*
Y5073040D01*
D02*
G37*
G36*
X2676957Y5056149D02*
X2684856D01*
Y5005349D01*
X2676957D01*
Y5003241D01*
X2571953D01*
Y5005349D01*
X2564054D01*
Y5056149D01*
X2571953D01*
Y5058258D01*
X2676957D01*
Y5056149D01*
D02*
G37*
G36*
X5864668Y5051732D02*
X5875230Y5044675D01*
X5882286Y5034114D01*
X5884764Y5021656D01*
X5882286Y5009199D01*
X5875230Y4998637D01*
X5864668Y4991581D01*
X5852211Y4989103D01*
X5839753Y4991581D01*
X5836213Y4993947D01*
X5829192Y4998637D01*
X5822135Y5009199D01*
X5819657Y5021656D01*
X5822135Y5034114D01*
X5829192Y5044675D01*
X5836213Y5049366D01*
X5839753Y5051732D01*
X5852211Y5054210D01*
X5864668Y5051732D01*
D02*
G37*
G36*
X2827117Y5072595D02*
X2841820Y5062771D01*
X2851644Y5048067D01*
X2855094Y5030724D01*
X2851644Y5013381D01*
X2841820Y4998677D01*
X2827117Y4988853D01*
X2809773Y4985403D01*
X2792430Y4988853D01*
X2787501Y4992147D01*
X2777727Y4998677D01*
X2767903Y5013381D01*
X2764453Y5030724D01*
X2767903Y5048067D01*
X2777727Y5062771D01*
X2787501Y5069301D01*
X2792430Y5072595D01*
X2809773Y5076045D01*
X2827117Y5072595D01*
D02*
G37*
G36*
X5760452Y5043578D02*
X5771013Y5036522D01*
X5778070Y5025960D01*
X5780548Y5013503D01*
X5778070Y5001045D01*
X5771013Y4990484D01*
X5760452Y4983427D01*
X5747995Y4980949D01*
X5735537Y4983427D01*
X5731996Y4985793D01*
X5724976Y4990484D01*
X5717919Y5001045D01*
X5715441Y5013503D01*
X5717919Y5025960D01*
X5724976Y5036522D01*
X5731996Y5041212D01*
X5735537Y5043578D01*
X5747995Y5046056D01*
X5760452Y5043578D01*
D02*
G37*
G36*
X1754022Y5010175D02*
X1761922D01*
Y4959375D01*
X1754022D01*
Y4957267D01*
X1649019D01*
Y4959375D01*
X1641119D01*
Y5010175D01*
X1649019D01*
Y5012284D01*
X1754022D01*
Y5010175D01*
D02*
G37*
G36*
X752782Y5001964D02*
X761713Y4993032D01*
X766547Y4981363D01*
Y4968732D01*
X761713Y4957062D01*
X752782Y4948131D01*
X741112Y4943297D01*
X626881D01*
X615212Y4948131D01*
X606280Y4957062D01*
X601447Y4968732D01*
Y4981363D01*
X606280Y4993032D01*
X615212Y5001964D01*
X626881Y5006797D01*
X741112D01*
X752782Y5001964D01*
D02*
G37*
G36*
X2379726Y4931308D02*
X1997151D01*
Y5313883D01*
X2379726D01*
Y4931308D01*
D02*
G37*
G36*
X6652870Y4985309D02*
X6654368D01*
Y4922317D01*
X6652870D01*
Y4912106D01*
X6622847D01*
Y4922317D01*
X6621348D01*
Y4985309D01*
X6622847D01*
Y4995520D01*
X6652870D01*
Y4985309D01*
D02*
G37*
G36*
X3781806Y4964074D02*
X3789705D01*
Y4913274D01*
X3781806D01*
Y4911166D01*
X3676802D01*
Y4913274D01*
X3668903D01*
Y4964074D01*
X3676802D01*
Y4966183D01*
X3781806D01*
Y4964074D01*
D02*
G37*
G36*
X2678506Y4958715D02*
X2686406D01*
Y4907915D01*
X2678506D01*
Y4905807D01*
X2573503D01*
Y4907915D01*
X2565603D01*
Y4958715D01*
X2573503D01*
Y4960823D01*
X2678506D01*
Y4958715D01*
D02*
G37*
G36*
X441833Y4973117D02*
X443332D01*
Y4910125D01*
X441833D01*
Y4899914D01*
X411810D01*
Y4910125D01*
X410312D01*
Y4973117D01*
X411810D01*
Y4983328D01*
X441833D01*
Y4973117D01*
D02*
G37*
G36*
X1503218Y4967439D02*
X1517921Y4957615D01*
X1527745Y4942911D01*
X1531195Y4925568D01*
X1527745Y4908225D01*
X1524452Y4903295D01*
X1517921Y4893521D01*
X1503218Y4883697D01*
X1485875Y4880247D01*
X1468531Y4883697D01*
X1453828Y4893521D01*
X1447297Y4903295D01*
X1444004Y4908225D01*
X1440554Y4925568D01*
X1444004Y4942911D01*
X1453828Y4957615D01*
X1468531Y4967439D01*
X1485875Y4970889D01*
X1503218Y4967439D01*
D02*
G37*
G36*
X3143201Y5029726D02*
X3152132Y5020794D01*
X3156966Y5009125D01*
Y5002809D01*
Y4901209D01*
Y4894894D01*
X3152132Y4883225D01*
X3143201Y4874293D01*
X3131531Y4869459D01*
X3118900D01*
X3107231Y4874293D01*
X3098300Y4883225D01*
X3093466Y4894894D01*
Y4901209D01*
Y5002809D01*
Y5009125D01*
X3098300Y5020794D01*
X3107231Y5029726D01*
X3118900Y5034559D01*
X3131531D01*
X3143201Y5029726D01*
D02*
G37*
G36*
X1754022Y4909439D02*
X1761922D01*
Y4858639D01*
X1754022D01*
Y4856531D01*
X1649019D01*
Y4858639D01*
X1641119D01*
Y4909439D01*
X1649019D01*
Y4911547D01*
X1754022D01*
Y4909439D01*
D02*
G37*
G36*
X532436Y5001735D02*
X541368Y4992804D01*
X546202Y4981134D01*
Y4974819D01*
Y4873219D01*
Y4866903D01*
X541368Y4855234D01*
X532436Y4846302D01*
X520767Y4841469D01*
X508136D01*
X496467Y4846302D01*
X487535Y4855234D01*
X482702Y4866903D01*
Y4873219D01*
Y4974819D01*
Y4981134D01*
X487535Y4992804D01*
X496467Y5001735D01*
X508136Y5006569D01*
X520767D01*
X532436Y5001735D01*
D02*
G37*
G36*
X3781806Y4854854D02*
X3789705D01*
Y4804054D01*
X3781806D01*
Y4801946D01*
X3676802D01*
Y4804054D01*
X3668903D01*
Y4854854D01*
X3676802D01*
Y4856963D01*
X3781806D01*
Y4854854D01*
D02*
G37*
G36*
X3494811Y5063261D02*
X3595319D01*
Y4812259D01*
X3494811D01*
Y4785360D01*
X3319805D01*
Y4812259D01*
X3219298D01*
Y5063261D01*
X3319805D01*
Y5090160D01*
X3494811D01*
Y5063261D01*
D02*
G37*
G36*
X763067Y4889957D02*
X765175D01*
Y4784954D01*
X763067D01*
Y4777054D01*
X712267D01*
Y4784954D01*
X710159D01*
Y4889957D01*
X712267D01*
Y4897857D01*
X763067D01*
Y4889957D01*
D02*
G37*
G36*
X655625Y4889500D02*
X657733D01*
Y4784496D01*
X655625D01*
Y4776597D01*
X604825D01*
Y4784496D01*
X602717D01*
Y4889500D01*
X604825D01*
Y4897399D01*
X655625D01*
Y4889500D01*
D02*
G37*
G36*
X3150006Y4815535D02*
X3157906D01*
Y4764735D01*
X3150006D01*
Y4762627D01*
X3045003D01*
Y4764735D01*
X3037103D01*
Y4815535D01*
X3045003D01*
Y4817643D01*
X3150006D01*
Y4815535D01*
D02*
G37*
G36*
X4157153Y4821328D02*
X4167715Y4814272D01*
X4174771Y4803710D01*
X4177249Y4791253D01*
X4174771Y4778795D01*
X4167715Y4768234D01*
X4157153Y4761177D01*
X4144696Y4758699D01*
X4132238Y4761177D01*
X4128698Y4763543D01*
X4121677Y4768234D01*
X4114620Y4778795D01*
X4112142Y4791253D01*
X4114620Y4803710D01*
X4121677Y4814272D01*
X4128698Y4818962D01*
X4132238Y4821328D01*
X4144696Y4823806D01*
X4157153Y4821328D01*
D02*
G37*
G36*
X1754022Y4808703D02*
X1761922D01*
Y4757903D01*
X1754022D01*
Y4755794D01*
X1649019D01*
Y4757903D01*
X1641119D01*
Y4808703D01*
X1649019D01*
Y4810811D01*
X1754022D01*
Y4808703D01*
D02*
G37*
G36*
X6662877Y4859934D02*
X6664985D01*
Y4754931D01*
X6662877D01*
Y4747031D01*
X6612077D01*
Y4754931D01*
X6609969D01*
Y4859934D01*
X6612077D01*
Y4867834D01*
X6662877D01*
Y4859934D01*
D02*
G37*
G36*
X2610028Y4829658D02*
X2612136D01*
Y4724654D01*
X2610028D01*
Y4716755D01*
X2559228D01*
Y4724654D01*
X2557120D01*
Y4829658D01*
X2559228D01*
Y4837557D01*
X2610028D01*
Y4829658D01*
D02*
G37*
G36*
X2109140Y4828718D02*
X2111248D01*
Y4723714D01*
X2109140D01*
Y4715815D01*
X2058340D01*
Y4723714D01*
X2056232D01*
Y4828718D01*
X2058340D01*
Y4836617D01*
X2109140D01*
Y4828718D01*
D02*
G37*
G36*
X2513508Y4827880D02*
X2515616D01*
Y4722876D01*
X2513508D01*
Y4714977D01*
X2462708D01*
Y4722876D01*
X2460600D01*
Y4827880D01*
X2462708D01*
Y4835779D01*
X2513508D01*
Y4827880D01*
D02*
G37*
G36*
X2412771D02*
X2414880D01*
Y4722876D01*
X2412771D01*
Y4714977D01*
X2361971D01*
Y4722876D01*
X2359863D01*
Y4827880D01*
X2361971D01*
Y4835779D01*
X2412771D01*
Y4827880D01*
D02*
G37*
G36*
X2211299D02*
X2213407D01*
Y4722876D01*
X2211299D01*
Y4714977D01*
X2160499D01*
Y4722876D01*
X2158390D01*
Y4827880D01*
X2160499D01*
Y4835779D01*
X2211299D01*
Y4827880D01*
D02*
G37*
G36*
X2009826D02*
X2011934D01*
Y4722876D01*
X2009826D01*
Y4714977D01*
X1959026D01*
Y4722876D01*
X1956918D01*
Y4827880D01*
X1959026D01*
Y4835779D01*
X2009826D01*
Y4827880D01*
D02*
G37*
G36*
X1909089D02*
X1911198D01*
Y4722876D01*
X1909089D01*
Y4714977D01*
X1858289D01*
Y4722876D01*
X1856181D01*
Y4827880D01*
X1858289D01*
Y4835779D01*
X1909089D01*
Y4827880D01*
D02*
G37*
G36*
X2303018Y4827778D02*
X2305126D01*
Y4722774D01*
X2303018D01*
Y4714875D01*
X2252218D01*
Y4722774D01*
X2250110D01*
Y4827778D01*
X2252218D01*
Y4835677D01*
X2303018D01*
Y4827778D01*
D02*
G37*
G36*
X3894222Y4789969D02*
X3908925Y4780145D01*
X3918749Y4765442D01*
X3922199Y4748098D01*
X3918749Y4730755D01*
X3908925Y4716052D01*
X3894222Y4706227D01*
X3876878Y4702777D01*
X3859535Y4706227D01*
X3854605Y4709521D01*
X3844832Y4716052D01*
X3835007Y4730755D01*
X3831557Y4748098D01*
X3835007Y4765442D01*
X3844832Y4780145D01*
X3854605Y4786675D01*
X3859535Y4789969D01*
X3876878Y4793419D01*
X3894222Y4789969D01*
D02*
G37*
G36*
X3781806Y4743602D02*
X3789705D01*
Y4692802D01*
X3781806D01*
Y4690694D01*
X3676802D01*
Y4692802D01*
X3668903D01*
Y4743602D01*
X3676802D01*
Y4745711D01*
X3781806D01*
Y4743602D01*
D02*
G37*
G36*
X1504158Y4752301D02*
X1518861Y4742477D01*
X1528685Y4727773D01*
X1532135Y4710430D01*
X1528685Y4693087D01*
X1525392Y4688157D01*
X1518861Y4678383D01*
X1504158Y4668559D01*
X1486814Y4665109D01*
X1469471Y4668559D01*
X1454768Y4678383D01*
X1448237Y4688157D01*
X1444944Y4693087D01*
X1441494Y4710430D01*
X1444944Y4727773D01*
X1454768Y4742477D01*
X1469471Y4752301D01*
X1486814Y4755751D01*
X1504158Y4752301D01*
D02*
G37*
G36*
X7196099Y4768647D02*
X7198208D01*
Y4663643D01*
X7196099D01*
Y4655744D01*
X7145299D01*
Y4663643D01*
X7143191D01*
Y4768647D01*
X7145299D01*
Y4776546D01*
X7196099D01*
Y4768647D01*
D02*
G37*
G36*
X1754022Y4707966D02*
X1761922D01*
Y4657166D01*
X1754022D01*
Y4655058D01*
X1649019D01*
Y4657166D01*
X1641119D01*
Y4707966D01*
X1649019D01*
Y4710074D01*
X1754022D01*
Y4707966D01*
D02*
G37*
G36*
X3246445Y4741201D02*
X3261149Y4731377D01*
X3270973Y4716674D01*
X3274423Y4699330D01*
X3270973Y4681987D01*
X3261149Y4667284D01*
X3246445Y4657459D01*
X3229102Y4654009D01*
X3211759Y4657459D01*
X3206829Y4660753D01*
X3197055Y4667284D01*
X3187231Y4681987D01*
X3183781Y4699330D01*
X3187231Y4716674D01*
X3197055Y4731377D01*
X3206829Y4737907D01*
X3211759Y4741201D01*
X3229102Y4744651D01*
X3246445Y4741201D01*
D02*
G37*
G36*
X7088556Y4766640D02*
X7090664D01*
Y4661637D01*
X7088556D01*
Y4653737D01*
X7037756D01*
Y4661637D01*
X7035648D01*
Y4766640D01*
X7037756D01*
Y4774540D01*
X7088556D01*
Y4766640D01*
D02*
G37*
G36*
X6859194Y4766132D02*
X6861302D01*
Y4661129D01*
X6859194D01*
Y4653229D01*
X6808394D01*
Y4661129D01*
X6806286D01*
Y4766132D01*
X6808394D01*
Y4774032D01*
X6859194D01*
Y4766132D01*
D02*
G37*
G36*
X6965493Y4766107D02*
X6967601D01*
Y4661103D01*
X6965493D01*
Y4653204D01*
X6914693D01*
Y4661103D01*
X6912585D01*
Y4766107D01*
X6914693D01*
Y4774006D01*
X6965493D01*
Y4766107D01*
D02*
G37*
G36*
X6545631Y4619828D02*
X6266231D01*
Y4979543D01*
X6545631D01*
Y4619828D01*
D02*
G37*
G36*
X6652311Y4678147D02*
X6653809D01*
Y4615155D01*
X6652311D01*
Y4604944D01*
X6622288D01*
Y4615155D01*
X6620789D01*
Y4678147D01*
X6622288D01*
Y4688357D01*
X6652311D01*
Y4678147D01*
D02*
G37*
G36*
X2544694Y4673739D02*
X2559397Y4663914D01*
X2569222Y4649211D01*
X2572672Y4631868D01*
X2569222Y4614524D01*
X2559397Y4599821D01*
X2544694Y4589997D01*
X2527351Y4586547D01*
X2510007Y4589997D01*
X2505078Y4593291D01*
X2495304Y4599821D01*
X2485480Y4614524D01*
X2482030Y4631868D01*
X2485480Y4649211D01*
X2495304Y4663914D01*
X2505078Y4670445D01*
X2510007Y4673739D01*
X2527351Y4677189D01*
X2544694Y4673739D01*
D02*
G37*
G36*
X2204741Y4673688D02*
X2219444Y4663864D01*
X2229268Y4649160D01*
X2232718Y4631817D01*
X2229268Y4614474D01*
X2219444Y4599770D01*
X2204741Y4589946D01*
X2187397Y4586496D01*
X2170054Y4589946D01*
X2165124Y4593240D01*
X2155351Y4599770D01*
X2145526Y4614474D01*
X2142076Y4631817D01*
X2145526Y4649160D01*
X2155351Y4663864D01*
X2165124Y4670394D01*
X2170054Y4673688D01*
X2187397Y4677138D01*
X2204741Y4673688D01*
D02*
G37*
G36*
X2398441Y4673027D02*
X2413144Y4663203D01*
X2422968Y4648500D01*
X2426418Y4631157D01*
X2422968Y4613813D01*
X2419675Y4608884D01*
X2413144Y4599110D01*
X2398441Y4589286D01*
X2381098Y4585836D01*
X2363754Y4589286D01*
X2349051Y4599110D01*
X2342520Y4608884D01*
X2339227Y4613813D01*
X2335777Y4631157D01*
X2339227Y4648500D01*
X2349051Y4663203D01*
X2363754Y4673027D01*
X2381098Y4676477D01*
X2398441Y4673027D01*
D02*
G37*
G36*
X1504158Y4595151D02*
X1518861Y4585327D01*
X1528685Y4570624D01*
X1532135Y4553280D01*
X1528685Y4535937D01*
X1525392Y4531007D01*
X1518861Y4521234D01*
X1504158Y4511409D01*
X1486814Y4507959D01*
X1469471Y4511409D01*
X1454768Y4521234D01*
X1448237Y4531007D01*
X1444944Y4535937D01*
X1441494Y4553280D01*
X1444944Y4570624D01*
X1454768Y4585327D01*
X1469471Y4595151D01*
X1486814Y4598601D01*
X1504158Y4595151D01*
D02*
G37*
G36*
X785724Y4585462D02*
X787832D01*
Y4480458D01*
X785724D01*
Y4472559D01*
X734924D01*
Y4480458D01*
X732815D01*
Y4585462D01*
X734924D01*
Y4593361D01*
X785724D01*
Y4585462D01*
D02*
G37*
G36*
X674726Y4584395D02*
X676834D01*
Y4479392D01*
X674726D01*
Y4471492D01*
X623926D01*
Y4479392D01*
X621817D01*
Y4584395D01*
X623926D01*
Y4592295D01*
X674726D01*
Y4584395D01*
D02*
G37*
G36*
X562940Y4584370D02*
X565048D01*
Y4479366D01*
X562940D01*
Y4471467D01*
X512140D01*
Y4479366D01*
X510032D01*
Y4584370D01*
X512140D01*
Y4592269D01*
X562940D01*
Y4584370D01*
D02*
G37*
G36*
X423824Y4584141D02*
X425933D01*
Y4479138D01*
X423824D01*
Y4471238D01*
X373024D01*
Y4479138D01*
X370916D01*
Y4584141D01*
X373024D01*
Y4592041D01*
X423824D01*
Y4584141D01*
D02*
G37*
G36*
X1704416Y4537507D02*
X1706524D01*
Y4432503D01*
X1704416D01*
Y4424604D01*
X1653616D01*
Y4432503D01*
X1651508D01*
Y4537507D01*
X1653616D01*
Y4545406D01*
X1704416D01*
Y4537507D01*
D02*
G37*
G36*
X2076247Y4531487D02*
X2078355D01*
Y4426483D01*
X2076247D01*
Y4418584D01*
X2025447D01*
Y4426483D01*
X2023339D01*
Y4531487D01*
X2025447D01*
Y4539386D01*
X2076247D01*
Y4531487D01*
D02*
G37*
G36*
X1966773D02*
X1968881D01*
Y4426483D01*
X1966773D01*
Y4418584D01*
X1915973D01*
Y4426483D01*
X1913865D01*
Y4531487D01*
X1915973D01*
Y4539386D01*
X1966773D01*
Y4531487D01*
D02*
G37*
G36*
X1857299D02*
X1859407D01*
Y4426483D01*
X1857299D01*
Y4418584D01*
X1806499D01*
Y4426483D01*
X1804391D01*
Y4531487D01*
X1806499D01*
Y4539386D01*
X1857299D01*
Y4531487D01*
D02*
G37*
G36*
X785065Y4407477D02*
X793996Y4398545D01*
X798830Y4386876D01*
Y4374245D01*
X793996Y4362575D01*
X785065Y4353644D01*
X773396Y4348810D01*
X659165D01*
X647495Y4353644D01*
X638564Y4362575D01*
X633730Y4374245D01*
Y4386876D01*
X638564Y4398545D01*
X647495Y4407477D01*
X659165Y4412310D01*
X773396D01*
X785065Y4407477D01*
D02*
G37*
G36*
X6696405Y4455643D02*
X6698513D01*
Y4350639D01*
X6696405D01*
Y4342740D01*
X6645605D01*
Y4350639D01*
X6643497D01*
Y4455643D01*
X6645605D01*
Y4463542D01*
X6696405D01*
Y4455643D01*
D02*
G37*
G36*
X6330340Y4455058D02*
X6332449D01*
Y4350055D01*
X6330340D01*
Y4342155D01*
X6279540D01*
Y4350055D01*
X6277432D01*
Y4455058D01*
X6279540D01*
Y4462958D01*
X6330340D01*
Y4455058D01*
D02*
G37*
G36*
X6442380Y4454322D02*
X6444488D01*
Y4349318D01*
X6442380D01*
Y4341419D01*
X6391580D01*
Y4349318D01*
X6389472D01*
Y4454322D01*
X6391580D01*
Y4462221D01*
X6442380D01*
Y4454322D01*
D02*
G37*
G36*
X6589090Y4454093D02*
X6591198D01*
Y4349090D01*
X6589090D01*
Y4341190D01*
X6538290D01*
Y4349090D01*
X6536182D01*
Y4454093D01*
X6538290D01*
Y4461993D01*
X6589090D01*
Y4454093D01*
D02*
G37*
G36*
X2076909Y4374609D02*
X2085840Y4365678D01*
X2090674Y4354008D01*
Y4341377D01*
X2085840Y4329708D01*
X2076909Y4320776D01*
X2065240Y4315943D01*
X1951009D01*
X1939339Y4320776D01*
X1930408Y4329708D01*
X1925574Y4341377D01*
Y4354008D01*
X1930408Y4365678D01*
X1939339Y4374609D01*
X1951009Y4379443D01*
X2065240D01*
X2076909Y4374609D01*
D02*
G37*
G36*
X270942Y4319346D02*
X278841D01*
Y4268546D01*
X270942D01*
Y4266438D01*
X165938D01*
Y4268546D01*
X158039D01*
Y4319346D01*
X165938D01*
Y4321454D01*
X270942D01*
Y4319346D01*
D02*
G37*
G36*
X7176033Y4371848D02*
X7178142D01*
Y4266844D01*
X7176033D01*
Y4258945D01*
X7125233D01*
Y4266844D01*
X7123125D01*
Y4371848D01*
X7125233D01*
Y4379747D01*
X7176033D01*
Y4371848D01*
D02*
G37*
G36*
X1563700Y4311396D02*
X1571600D01*
Y4260596D01*
X1563700D01*
Y4258488D01*
X1458697D01*
Y4260596D01*
X1450797D01*
Y4311396D01*
X1458697D01*
Y4313504D01*
X1563700D01*
Y4311396D01*
D02*
G37*
G36*
X7070573Y4371061D02*
X7072681D01*
Y4266057D01*
X7070573D01*
Y4258158D01*
X7019773D01*
Y4266057D01*
X7017664D01*
Y4371061D01*
X7019773D01*
Y4378960D01*
X7070573D01*
Y4371061D01*
D02*
G37*
G36*
X6961708Y4369130D02*
X6963816D01*
Y4264127D01*
X6961708D01*
Y4256227D01*
X6910908D01*
Y4264127D01*
X6908800D01*
Y4369130D01*
X6910908D01*
Y4377030D01*
X6961708D01*
Y4369130D01*
D02*
G37*
G36*
X6852818Y4368495D02*
X6854927D01*
Y4263492D01*
X6852818D01*
Y4255592D01*
X6802018D01*
Y4263492D01*
X6799910D01*
Y4368495D01*
X6802018D01*
Y4376395D01*
X6852818D01*
Y4368495D01*
D02*
G37*
G36*
X6727033Y4308334D02*
X6741736Y4298510D01*
X6751560Y4283807D01*
X6755010Y4266463D01*
X6751560Y4249120D01*
X6741736Y4234417D01*
X6727033Y4224593D01*
X6709689Y4221143D01*
X6692346Y4224593D01*
X6687417Y4227886D01*
X6677643Y4234417D01*
X6667819Y4249120D01*
X6664369Y4266463D01*
X6667819Y4283807D01*
X6677643Y4298510D01*
X6687417Y4305041D01*
X6692346Y4308334D01*
X6709689Y4311784D01*
X6727033Y4308334D01*
D02*
G37*
G36*
X6617813D02*
X6632516Y4298510D01*
X6642340Y4283807D01*
X6645790Y4266463D01*
X6642340Y4249120D01*
X6632516Y4234417D01*
X6617813Y4224593D01*
X6600469Y4221143D01*
X6583126Y4224593D01*
X6578197Y4227886D01*
X6568423Y4234417D01*
X6558599Y4249120D01*
X6555149Y4266463D01*
X6558599Y4283807D01*
X6568423Y4298510D01*
X6578197Y4305041D01*
X6583126Y4308334D01*
X6600469Y4311784D01*
X6617813Y4308334D01*
D02*
G37*
G36*
X6508593D02*
X6513522Y4305041D01*
X6523296Y4298510D01*
X6533120Y4283807D01*
X6536570Y4266463D01*
X6533120Y4249120D01*
X6523296Y4234417D01*
X6513522Y4227886D01*
X6508593Y4224593D01*
X6491249Y4221143D01*
X6473906Y4224593D01*
X6459203Y4234417D01*
X6449379Y4249120D01*
X6445929Y4266463D01*
X6449379Y4283807D01*
X6459203Y4298510D01*
X6473906Y4308334D01*
X6491249Y4311784D01*
X6508593Y4308334D01*
D02*
G37*
G36*
X6399373D02*
X6414076Y4298510D01*
X6423900Y4283807D01*
X6427350Y4266463D01*
X6423900Y4249120D01*
X6414076Y4234417D01*
X6399373Y4224593D01*
X6382029Y4221143D01*
X6364686Y4224593D01*
X6359757Y4227886D01*
X6349983Y4234417D01*
X6340159Y4249120D01*
X6336709Y4266463D01*
X6340159Y4283807D01*
X6349983Y4298510D01*
X6359757Y4305041D01*
X6364686Y4308334D01*
X6382029Y4311784D01*
X6399373Y4308334D01*
D02*
G37*
G36*
X6290153D02*
X6295082Y4305041D01*
X6304856Y4298510D01*
X6314680Y4283807D01*
X6318130Y4266463D01*
X6314680Y4249120D01*
X6304856Y4234417D01*
X6295082Y4227886D01*
X6290153Y4224593D01*
X6272809Y4221143D01*
X6255466Y4224593D01*
X6240763Y4234417D01*
X6230939Y4249120D01*
X6227489Y4266463D01*
X6230939Y4283807D01*
X6240763Y4298510D01*
X6255466Y4308334D01*
X6272809Y4311784D01*
X6290153Y4308334D01*
D02*
G37*
G36*
X6180933D02*
X6185862Y4305041D01*
X6195636Y4298510D01*
X6205460Y4283807D01*
X6208910Y4266463D01*
X6205460Y4249120D01*
X6195636Y4234417D01*
X6185862Y4227886D01*
X6180933Y4224593D01*
X6163589Y4221143D01*
X6146246Y4224593D01*
X6131543Y4234417D01*
X6121719Y4249120D01*
X6118269Y4266463D01*
X6121719Y4283807D01*
X6131543Y4298510D01*
X6146246Y4308334D01*
X6163589Y4311784D01*
X6180933Y4308334D01*
D02*
G37*
G36*
X1172566Y4223055D02*
X1180465D01*
Y4172255D01*
X1172566D01*
Y4170147D01*
X1067562D01*
Y4172255D01*
X1059663D01*
Y4223055D01*
X1067562D01*
Y4225163D01*
X1172566D01*
Y4223055D01*
D02*
G37*
G36*
X271678Y4212209D02*
X279578D01*
Y4161409D01*
X271678D01*
Y4159301D01*
X166675D01*
Y4161409D01*
X158775D01*
Y4212209D01*
X166675D01*
Y4214317D01*
X271678D01*
Y4212209D01*
D02*
G37*
G36*
X2483587Y4202100D02*
X2491486D01*
Y4151300D01*
X2483587D01*
Y4149192D01*
X2378583D01*
Y4151300D01*
X2370684D01*
Y4202100D01*
X2378583D01*
Y4204208D01*
X2483587D01*
Y4202100D01*
D02*
G37*
G36*
X1563421Y4200779D02*
X1571320D01*
Y4149979D01*
X1563421D01*
Y4147871D01*
X1458417D01*
Y4149979D01*
X1450518D01*
Y4200779D01*
X1458417D01*
Y4202887D01*
X1563421D01*
Y4200779D01*
D02*
G37*
G36*
X6946717Y4201121D02*
X6961421Y4191297D01*
X6971245Y4176593D01*
X6974695Y4159250D01*
X6971245Y4141907D01*
X6961421Y4127203D01*
X6946717Y4117379D01*
X6929374Y4113929D01*
X6912031Y4117379D01*
X6907101Y4120673D01*
X6897327Y4127203D01*
X6887503Y4141907D01*
X6884053Y4159250D01*
X6887503Y4176593D01*
X6897327Y4191297D01*
X6907101Y4197827D01*
X6912031Y4201121D01*
X6929374Y4204571D01*
X6946717Y4201121D01*
D02*
G37*
G36*
X1171651Y4117289D02*
X1179551D01*
Y4066489D01*
X1171651D01*
Y4064381D01*
X1066648D01*
Y4066489D01*
X1058748D01*
Y4117289D01*
X1066648D01*
Y4119397D01*
X1171651D01*
Y4117289D01*
D02*
G37*
G36*
X998552Y4215122D02*
X1007483Y4206191D01*
X1012317Y4194521D01*
Y4188206D01*
Y4186936D01*
Y4086606D01*
Y4080290D01*
X1007483Y4068621D01*
X998552Y4059690D01*
X986883Y4054856D01*
X974252D01*
X962582Y4059690D01*
X953651Y4068621D01*
X948817Y4080290D01*
Y4086606D01*
Y4087876D01*
Y4188206D01*
Y4194521D01*
X953651Y4206191D01*
X962582Y4215122D01*
X974252Y4219956D01*
X986883D01*
X998552Y4215122D01*
D02*
G37*
G36*
X7178213Y4136351D02*
X7192916Y4126527D01*
X7202740Y4111823D01*
X7206190Y4094480D01*
X7202740Y4077137D01*
X7192916Y4062433D01*
X7178213Y4052609D01*
X7160870Y4049159D01*
X7143526Y4052609D01*
X7138597Y4055903D01*
X7128823Y4062433D01*
X7118999Y4077137D01*
X7115549Y4094480D01*
X7118999Y4111823D01*
X7128823Y4126527D01*
X7138597Y4133057D01*
X7143526Y4136351D01*
X7160870Y4139801D01*
X7178213Y4136351D01*
D02*
G37*
G36*
X271678Y4101973D02*
X279578D01*
Y4051173D01*
X271678D01*
Y4049065D01*
X166675D01*
Y4051173D01*
X158775D01*
Y4101973D01*
X166675D01*
Y4104081D01*
X271678D01*
Y4101973D01*
D02*
G37*
G36*
X2483891Y4094658D02*
X2491791D01*
Y4043858D01*
X2483891D01*
Y4041750D01*
X2378888D01*
Y4043858D01*
X2370988D01*
Y4094658D01*
X2378888D01*
Y4096766D01*
X2483891D01*
Y4094658D01*
D02*
G37*
G36*
X1563675Y4089527D02*
X1571574D01*
Y4038727D01*
X1563675D01*
Y4036619D01*
X1458671D01*
Y4038727D01*
X1450772D01*
Y4089527D01*
X1458671D01*
Y4091635D01*
X1563675D01*
Y4089527D01*
D02*
G37*
G36*
X2319428Y4195107D02*
X2328360Y4186176D01*
X2333193Y4174506D01*
Y4168191D01*
Y4166921D01*
Y4066591D01*
Y4060275D01*
X2328360Y4048606D01*
X2319428Y4039674D01*
X2307759Y4034841D01*
X2295128D01*
X2283458Y4039674D01*
X2274527Y4048606D01*
X2269693Y4060275D01*
Y4066591D01*
Y4168191D01*
Y4174506D01*
X2274527Y4186176D01*
X2283458Y4195107D01*
X2295128Y4199941D01*
X2307759D01*
X2319428Y4195107D01*
D02*
G37*
G36*
X1172566Y4002329D02*
X1180465D01*
Y3951529D01*
X1172566D01*
Y3949421D01*
X1067562D01*
Y3951529D01*
X1059663D01*
Y4002329D01*
X1067562D01*
Y4004437D01*
X1172566D01*
Y4002329D01*
D02*
G37*
G36*
X2483866Y3986784D02*
X2491765D01*
Y3935984D01*
X2483866D01*
Y3933876D01*
X2378862D01*
Y3935984D01*
X2370963D01*
Y3986784D01*
X2378862D01*
Y3988892D01*
X2483866D01*
Y3986784D01*
D02*
G37*
G36*
X280543Y3963086D02*
X290754D01*
Y3933063D01*
X280543D01*
Y3931564D01*
X217551D01*
Y3933063D01*
X207340D01*
Y3963086D01*
X217551D01*
Y3964584D01*
X280543D01*
Y3963086D01*
D02*
G37*
G36*
X1597660Y3944061D02*
X1607871D01*
Y3914038D01*
X1597660D01*
Y3912540D01*
X1534668D01*
Y3914038D01*
X1524457D01*
Y3944061D01*
X1534668D01*
Y3945560D01*
X1597660D01*
Y3944061D01*
D02*
G37*
G36*
X995986Y4012507D02*
X1004918Y4003575D01*
X1009752Y3991906D01*
Y3985590D01*
Y3984320D01*
Y3883990D01*
Y3877675D01*
X1004918Y3866005D01*
X995986Y3857074D01*
X984317Y3852240D01*
X971686D01*
X960017Y3857074D01*
X951085Y3866005D01*
X946252Y3877675D01*
Y3883990D01*
Y3885260D01*
Y3985590D01*
Y3991906D01*
X951085Y4003575D01*
X960017Y4012507D01*
X971686Y4017340D01*
X984317D01*
X995986Y4012507D01*
D02*
G37*
G36*
X1172566Y3892093D02*
X1180465D01*
Y3841293D01*
X1172566D01*
Y3839185D01*
X1067562D01*
Y3841293D01*
X1059663D01*
Y3892093D01*
X1067562D01*
Y3894201D01*
X1172566D01*
Y3892093D01*
D02*
G37*
G36*
X2321435Y3993939D02*
X2330366Y3985008D01*
X2335200Y3973339D01*
Y3967023D01*
Y3865423D01*
Y3859107D01*
X2330366Y3847438D01*
X2321435Y3838507D01*
X2309765Y3833673D01*
X2297134D01*
X2285465Y3838507D01*
X2276533Y3847438D01*
X2271700Y3859107D01*
Y3865423D01*
Y3866693D01*
Y3967023D01*
Y3973339D01*
X2276533Y3985008D01*
X2285465Y3993939D01*
X2297134Y3998773D01*
X2309765D01*
X2321435Y3993939D01*
D02*
G37*
G36*
X2484577Y3875532D02*
X2492477D01*
Y3824732D01*
X2484577D01*
Y3822624D01*
X2379574D01*
Y3824732D01*
X2371674D01*
Y3875532D01*
X2379574D01*
Y3877640D01*
X2484577D01*
Y3875532D01*
D02*
G37*
G36*
X736143Y4254119D02*
X828345D01*
Y4161917D01*
X857733D01*
Y3931361D01*
X828345D01*
Y3839134D01*
X741223D01*
Y3809746D01*
X505562D01*
Y3839134D01*
X413360D01*
Y3931361D01*
X383997D01*
Y4161892D01*
X413360D01*
Y4254119D01*
X505562D01*
Y4283558D01*
X736143D01*
Y4254119D01*
D02*
G37*
G36*
X2047138Y4239057D02*
X2139340D01*
Y4146855D01*
X2168728D01*
Y3916299D01*
X2139340D01*
Y3824072D01*
X2052218D01*
Y3794684D01*
X1816557D01*
Y3824072D01*
X1724355D01*
Y3916299D01*
X1694993D01*
Y4146829D01*
X1724355D01*
Y4239057D01*
X1816557D01*
Y4268495D01*
X2047138D01*
Y4239057D01*
D02*
G37*
G36*
X765126Y3735393D02*
X774057Y3726461D01*
X778891Y3714792D01*
Y3702161D01*
X774057Y3690491D01*
X765126Y3681560D01*
X753457Y3676726D01*
X639226D01*
X627556Y3681560D01*
X618625Y3690491D01*
X613791Y3702161D01*
Y3714792D01*
X618625Y3726461D01*
X627556Y3735393D01*
X639226Y3740226D01*
X753457D01*
X765126Y3735393D01*
D02*
G37*
G36*
X2062660Y3698918D02*
X2071591Y3689987D01*
X2076425Y3678318D01*
Y3665686D01*
X2071591Y3654017D01*
X2062660Y3645086D01*
X2050990Y3640252D01*
X1936759D01*
X1925090Y3645086D01*
X1916158Y3654017D01*
X1911325Y3665686D01*
Y3678318D01*
X1916158Y3689987D01*
X1925090Y3698918D01*
X1936759Y3703752D01*
X2050990D01*
X2062660Y3698918D01*
D02*
G37*
G36*
X448920Y3679698D02*
X450418D01*
Y3616706D01*
X448920D01*
Y3606495D01*
X418897D01*
Y3616706D01*
X417398D01*
Y3679698D01*
X418897D01*
Y3689909D01*
X448920D01*
Y3679698D01*
D02*
G37*
G36*
X1717319Y3670732D02*
X1718818D01*
Y3607740D01*
X1717319D01*
Y3597529D01*
X1687297D01*
Y3607740D01*
X1685798D01*
Y3670732D01*
X1687297D01*
Y3680943D01*
X1717319D01*
Y3670732D01*
D02*
G37*
G36*
X537491Y3714946D02*
X546422Y3706014D01*
X551256Y3694345D01*
Y3688029D01*
Y3586429D01*
Y3580114D01*
X546422Y3568444D01*
X537491Y3559513D01*
X525822Y3554679D01*
X513190D01*
X501521Y3559513D01*
X492590Y3568444D01*
X487756Y3580114D01*
Y3586429D01*
Y3688029D01*
Y3694345D01*
X492590Y3706014D01*
X501521Y3714946D01*
X513190Y3719779D01*
X525822D01*
X537491Y3714946D01*
D02*
G37*
G36*
X1828725Y3702677D02*
X1837657Y3693746D01*
X1842491Y3682077D01*
Y3675761D01*
Y3574161D01*
Y3567846D01*
X1837657Y3556176D01*
X1828725Y3547245D01*
X1817056Y3542411D01*
X1804425D01*
X1792756Y3547245D01*
X1783824Y3556176D01*
X1778991Y3567846D01*
Y3574161D01*
Y3675761D01*
Y3682077D01*
X1783824Y3693746D01*
X1792756Y3702677D01*
X1804425Y3707511D01*
X1817056D01*
X1828725Y3702677D01*
D02*
G37*
G36*
X668909Y3598012D02*
X671017D01*
Y3493008D01*
X668909D01*
Y3485109D01*
X618109D01*
Y3493008D01*
X616001D01*
Y3598012D01*
X618109D01*
Y3605911D01*
X668909D01*
Y3598012D01*
D02*
G37*
G36*
X777469Y3596843D02*
X779577D01*
Y3491840D01*
X777469D01*
Y3483940D01*
X726669D01*
Y3491840D01*
X724560D01*
Y3596843D01*
X726669D01*
Y3604743D01*
X777469D01*
Y3596843D01*
D02*
G37*
G36*
X1957476Y3584626D02*
X1959585D01*
Y3479622D01*
X1957476D01*
Y3471723D01*
X1906676D01*
Y3479622D01*
X1904568D01*
Y3584626D01*
X1906676D01*
Y3592525D01*
X1957476D01*
Y3584626D01*
D02*
G37*
G36*
X2068474Y3583762D02*
X2070583D01*
Y3478759D01*
X2068474D01*
Y3470859D01*
X2017674D01*
Y3478759D01*
X2015566D01*
Y3583762D01*
X2017674D01*
Y3591662D01*
X2068474D01*
Y3583762D01*
D02*
G37*
G36*
X4248480Y3239668D02*
X2788488D01*
Y4249674D01*
X4248480D01*
Y3239668D01*
D02*
G37*
G36*
X6697345Y3196920D02*
X6707556D01*
Y3166897D01*
X6697345D01*
Y3165399D01*
X6634353D01*
Y3166897D01*
X6624142D01*
Y3196920D01*
X6634353D01*
Y3198419D01*
X6697345D01*
Y3196920D01*
D02*
G37*
G36*
X588264Y3274136D02*
X590372D01*
Y3169133D01*
X588264D01*
Y3161233D01*
X537464D01*
Y3169133D01*
X535356D01*
Y3274136D01*
X537464D01*
Y3282036D01*
X588264D01*
Y3274136D01*
D02*
G37*
G36*
X804240Y3274009D02*
X806348D01*
Y3169006D01*
X804240D01*
Y3161106D01*
X753440D01*
Y3169006D01*
X751332D01*
Y3274009D01*
X753440D01*
Y3281909D01*
X804240D01*
Y3274009D01*
D02*
G37*
G36*
X696036Y3273704D02*
X698144D01*
Y3168701D01*
X696036D01*
Y3160801D01*
X645236D01*
Y3168701D01*
X643128D01*
Y3273704D01*
X645236D01*
Y3281604D01*
X696036D01*
Y3273704D01*
D02*
G37*
G36*
X451968Y3273323D02*
X454076D01*
Y3168320D01*
X451968D01*
Y3160420D01*
X401168D01*
Y3168320D01*
X399059D01*
Y3273323D01*
X401168D01*
Y3281223D01*
X451968D01*
Y3273323D01*
D02*
G37*
G36*
X1636085Y3227285D02*
X1650789Y3217461D01*
X1660613Y3202757D01*
X1664063Y3185414D01*
X1660613Y3168071D01*
X1650789Y3153367D01*
X1636085Y3143543D01*
X1618742Y3140093D01*
X1601399Y3143543D01*
X1596469Y3146837D01*
X1586695Y3153367D01*
X1576871Y3168071D01*
X1573421Y3185414D01*
X1576871Y3202757D01*
X1586695Y3217461D01*
X1596469Y3223991D01*
X1601399Y3227285D01*
X1618742Y3230735D01*
X1636085Y3227285D01*
D02*
G37*
G36*
X1975848Y3244356D02*
X1988352Y3231853D01*
X1995119Y3215515D01*
Y3206674D01*
Y3143174D01*
Y3134332D01*
X1988352Y3117995D01*
X1975848Y3105491D01*
X1959511Y3098724D01*
X1748787D01*
X1732450Y3105491D01*
X1719946Y3117995D01*
X1713179Y3134332D01*
Y3143174D01*
Y3206674D01*
Y3215515D01*
X1719946Y3231853D01*
X1732450Y3244356D01*
X1748787Y3251124D01*
X1959511D01*
X1975848Y3244356D01*
D02*
G37*
G36*
X6640347Y3132734D02*
X6648247D01*
Y3081934D01*
X6640347D01*
Y3079826D01*
X6535344D01*
Y3081934D01*
X6527444D01*
Y3132734D01*
X6535344D01*
Y3134843D01*
X6640347D01*
Y3132734D01*
D02*
G37*
G36*
X2466183Y3157308D02*
X2480886Y3147484D01*
X2490710Y3132780D01*
X2494160Y3115437D01*
X2490710Y3098094D01*
X2480886Y3083390D01*
X2466183Y3073566D01*
X2448839Y3070116D01*
X2431496Y3073566D01*
X2426567Y3076860D01*
X2416793Y3083390D01*
X2406969Y3098094D01*
X2403519Y3115437D01*
X2406969Y3132780D01*
X2416793Y3147484D01*
X2426567Y3154014D01*
X2431496Y3157308D01*
X2448839Y3160758D01*
X2466183Y3157308D01*
D02*
G37*
G36*
X2125874D02*
X2140577Y3147484D01*
X2150401Y3132780D01*
X2153851Y3115437D01*
X2150401Y3098094D01*
X2140577Y3083390D01*
X2125874Y3073566D01*
X2108530Y3070116D01*
X2091187Y3073566D01*
X2086257Y3076860D01*
X2076484Y3083390D01*
X2066659Y3098094D01*
X2063209Y3115437D01*
X2066659Y3132780D01*
X2076484Y3147484D01*
X2086257Y3154014D01*
X2091187Y3157308D01*
X2108530Y3160758D01*
X2125874Y3157308D01*
D02*
G37*
G36*
X3349290Y3153117D02*
X3363993Y3143293D01*
X3373817Y3128589D01*
X3377267Y3111246D01*
X3373817Y3093903D01*
X3363993Y3079199D01*
X3349290Y3069375D01*
X3331947Y3065925D01*
X3314603Y3069375D01*
X3309674Y3072669D01*
X3299900Y3079199D01*
X3290076Y3093903D01*
X3286626Y3111246D01*
X3290076Y3128589D01*
X3299900Y3143293D01*
X3309674Y3149823D01*
X3314603Y3153117D01*
X3331947Y3156567D01*
X3349290Y3153117D01*
D02*
G37*
G36*
X3244393Y3139008D02*
X3245891D01*
Y3076016D01*
X3244393D01*
Y3065805D01*
X3214370D01*
Y3076016D01*
X3212871D01*
Y3139008D01*
X3214370D01*
Y3149219D01*
X3244393D01*
Y3139008D01*
D02*
G37*
G36*
X3830620Y3150983D02*
X3845323Y3141159D01*
X3855147Y3126456D01*
X3858597Y3109112D01*
X3855147Y3091769D01*
X3845323Y3077066D01*
X3830620Y3067242D01*
X3813277Y3063792D01*
X3795933Y3067242D01*
X3791004Y3070535D01*
X3781230Y3077066D01*
X3771406Y3091769D01*
X3767956Y3109112D01*
X3771406Y3126456D01*
X3781230Y3141159D01*
X3791004Y3147690D01*
X3795933Y3150983D01*
X3813277Y3154433D01*
X3830620Y3150983D01*
D02*
G37*
G36*
X793447Y3112102D02*
X802378Y3103171D01*
X807212Y3091501D01*
Y3078870D01*
X802378Y3067201D01*
X793447Y3058269D01*
X781778Y3053436D01*
X667547D01*
X655877Y3058269D01*
X646946Y3067201D01*
X642112Y3078870D01*
Y3091501D01*
X646946Y3103171D01*
X655877Y3112102D01*
X667547Y3116936D01*
X781778D01*
X793447Y3112102D01*
D02*
G37*
G36*
X6089828Y3027147D02*
X4454830D01*
Y4662145D01*
X6089828D01*
Y3027147D01*
D02*
G37*
G36*
X3677420Y3127390D02*
X3689924Y3114886D01*
X3696691Y3098549D01*
Y3089707D01*
Y3026207D01*
Y3017365D01*
X3689924Y3001028D01*
X3677420Y2988524D01*
X3661082Y2981757D01*
X3450359D01*
X3434022Y2988524D01*
X3421518Y3001028D01*
X3414751Y3017365D01*
Y3026207D01*
Y3089707D01*
Y3098549D01*
X3421518Y3114886D01*
X3434022Y3127390D01*
X3450359Y3134157D01*
X3661082D01*
X3677420Y3127390D01*
D02*
G37*
G36*
X317297Y3030982D02*
X325196D01*
Y2980182D01*
X317297D01*
Y2978074D01*
X212293D01*
Y2980182D01*
X204394D01*
Y3030982D01*
X212293D01*
Y3033090D01*
X317297D01*
Y3030982D01*
D02*
G37*
G36*
X6595847Y2985948D02*
X6603746D01*
Y2935148D01*
X6595847D01*
Y2933040D01*
X6490843D01*
Y2935148D01*
X6482944D01*
Y2985948D01*
X6490843D01*
Y2988056D01*
X6595847D01*
Y2985948D01*
D02*
G37*
G36*
X3100167Y3018421D02*
X3114870Y3008596D01*
X3124694Y2993893D01*
X3128144Y2976550D01*
X3124694Y2959206D01*
X3114870Y2944503D01*
X3100167Y2934679D01*
X3082823Y2931229D01*
X3065480Y2934679D01*
X3060551Y2937973D01*
X3050777Y2944503D01*
X3040953Y2959206D01*
X3037503Y2976550D01*
X3040953Y2993893D01*
X3050777Y3008596D01*
X3060551Y3015127D01*
X3065480Y3018421D01*
X3082823Y3021871D01*
X3100167Y3018421D01*
D02*
G37*
G36*
X1190269Y2953055D02*
X1198169D01*
Y2902255D01*
X1190269D01*
Y2900147D01*
X1085266D01*
Y2902255D01*
X1077366D01*
Y2953055D01*
X1085266D01*
Y2955163D01*
X1190269D01*
Y2953055D01*
D02*
G37*
G36*
X316255Y2918943D02*
X324155D01*
Y2868143D01*
X316255D01*
Y2866034D01*
X211252D01*
Y2868143D01*
X203352D01*
Y2918943D01*
X211252D01*
Y2921051D01*
X316255D01*
Y2918943D01*
D02*
G37*
G36*
X6034456Y2853995D02*
X6042355D01*
Y2803195D01*
X6034456D01*
Y2801087D01*
X5929452D01*
Y2803195D01*
X5921553D01*
Y2853995D01*
X5929452D01*
Y2856103D01*
X6034456D01*
Y2853995D01*
D02*
G37*
G36*
X1190269Y2843327D02*
X1198169D01*
Y2792527D01*
X1190269D01*
Y2790419D01*
X1085266D01*
Y2792527D01*
X1077366D01*
Y2843327D01*
X1085266D01*
Y2845435D01*
X1190269D01*
Y2843327D01*
D02*
G37*
G36*
X1018262Y2941896D02*
X1027194Y2932965D01*
X1032027Y2921296D01*
Y2914980D01*
Y2913710D01*
Y2813380D01*
Y2807064D01*
X1027194Y2795395D01*
X1018262Y2786464D01*
X1006593Y2781630D01*
X993962D01*
X982293Y2786464D01*
X973361Y2795395D01*
X968527Y2807064D01*
Y2813380D01*
Y2914980D01*
Y2921296D01*
X973361Y2932965D01*
X982293Y2941896D01*
X993962Y2946730D01*
X1006593D01*
X1018262Y2941896D01*
D02*
G37*
G36*
X1665994Y3015629D02*
X1678498Y3003126D01*
X1685265Y2986788D01*
Y2977947D01*
Y2825547D01*
Y2816705D01*
X1678498Y2800368D01*
X1665994Y2787864D01*
X1649656Y2781097D01*
X1606573D01*
X1590236Y2787864D01*
X1577732Y2800368D01*
X1570965Y2816705D01*
Y2825547D01*
Y2977947D01*
Y2986788D01*
X1577732Y3003126D01*
X1590236Y3015629D01*
X1606573Y3022397D01*
X1649656D01*
X1665994Y3015629D01*
D02*
G37*
G36*
X317576Y2809469D02*
X325476D01*
Y2758669D01*
X317576D01*
Y2756560D01*
X212573D01*
Y2758669D01*
X204673D01*
Y2809469D01*
X212573D01*
Y2811577D01*
X317576D01*
Y2809469D01*
D02*
G37*
G36*
X1997837Y2971267D02*
X2040128D01*
Y2761259D01*
X1997837D01*
Y2745892D01*
X1772437D01*
Y2761259D01*
X1730146D01*
Y2971267D01*
X1752219D01*
Y2991714D01*
X1997837D01*
Y2971267D01*
D02*
G37*
G36*
X4009665Y2812960D02*
X4024368Y2803136D01*
X4034192Y2788433D01*
X4037642Y2771089D01*
X4034192Y2753746D01*
X4024368Y2739043D01*
X4009665Y2729218D01*
X3992321Y2725768D01*
X3974978Y2729218D01*
X3970048Y2732512D01*
X3960275Y2739043D01*
X3950450Y2753746D01*
X3947000Y2771089D01*
X3950450Y2788433D01*
X3960275Y2803136D01*
X3970048Y2809666D01*
X3974978Y2812960D01*
X3992321Y2816410D01*
X4009665Y2812960D01*
D02*
G37*
G36*
X5512130Y2770708D02*
X5520030D01*
Y2719908D01*
X5512130D01*
Y2717800D01*
X5407127D01*
Y2719908D01*
X5399227D01*
Y2770708D01*
X5407127D01*
Y2772816D01*
X5512130D01*
Y2770708D01*
D02*
G37*
G36*
X3865067Y2912085D02*
X3907358D01*
Y2702077D01*
X3865067D01*
Y2686710D01*
X3639668D01*
Y2702077D01*
X3597377D01*
Y2912085D01*
X3619449D01*
Y2932532D01*
X3865067D01*
Y2912085D01*
D02*
G37*
G36*
X2251812Y2871572D02*
X2254809D01*
Y2701595D01*
X2251812D01*
Y2685974D01*
X2167788D01*
Y2701595D01*
X2164791D01*
Y2871572D01*
X2167788D01*
Y2887193D01*
X2251812D01*
Y2871572D01*
D02*
G37*
G36*
X2477059Y2870606D02*
X2480056D01*
Y2700630D01*
X2477059D01*
Y2685009D01*
X2393036D01*
Y2700630D01*
X2390038D01*
Y2870606D01*
X2393036D01*
Y2886227D01*
X2477059D01*
Y2870606D01*
D02*
G37*
G36*
X1190269Y2734107D02*
X1198169D01*
Y2683307D01*
X1190269D01*
Y2681199D01*
X1085266D01*
Y2683307D01*
X1077366D01*
Y2734107D01*
X1085266D01*
Y2736215D01*
X1190269D01*
Y2734107D01*
D02*
G37*
G36*
X6707784Y2676220D02*
X6642760D01*
Y2816936D01*
X6707784D01*
Y2676220D01*
D02*
G37*
G36*
X3364992Y2837790D02*
X3367989D01*
Y2667813D01*
X3364992D01*
Y2652192D01*
X3280969D01*
Y2667813D01*
X3277972D01*
Y2837790D01*
X3280969D01*
Y2853411D01*
X3364992D01*
Y2837790D01*
D02*
G37*
G36*
X6972808Y2722499D02*
X6974307D01*
Y2659507D01*
X6972808D01*
Y2649296D01*
X6942785D01*
Y2659507D01*
X6941287D01*
Y2722499D01*
X6942785D01*
Y2732710D01*
X6972808D01*
Y2722499D01*
D02*
G37*
G36*
X3118536Y2834488D02*
X3121533D01*
Y2664511D01*
X3118536D01*
Y2648890D01*
X3034513D01*
Y2664511D01*
X3031515D01*
Y2834488D01*
X3034513D01*
Y2850109D01*
X3118536D01*
Y2834488D01*
D02*
G37*
G36*
X2676964Y2917281D02*
X2689468Y2904777D01*
X2696235Y2888439D01*
Y2879598D01*
Y2686558D01*
Y2677716D01*
X2689468Y2661379D01*
X2676964Y2648875D01*
X2660627Y2642108D01*
X2579444D01*
X2563107Y2648875D01*
X2550603Y2661379D01*
X2543835Y2677716D01*
Y2686558D01*
Y2879598D01*
Y2888439D01*
X2550603Y2904777D01*
X2563107Y2917281D01*
X2579444Y2924048D01*
X2660627D01*
X2676964Y2917281D01*
D02*
G37*
G36*
X2973763Y2916265D02*
X2986267Y2903761D01*
X2993034Y2887423D01*
Y2878582D01*
Y2685542D01*
Y2676700D01*
X2986267Y2660363D01*
X2973763Y2647859D01*
X2957426Y2641092D01*
X2876243D01*
X2859906Y2647859D01*
X2847402Y2660363D01*
X2840634Y2676700D01*
Y2685542D01*
Y2878582D01*
Y2887423D01*
X2847402Y2903761D01*
X2859906Y2916265D01*
X2876243Y2923032D01*
X2957426D01*
X2973763Y2916265D01*
D02*
G37*
G36*
X3517577Y2870570D02*
X3530081Y2858066D01*
X3536848Y2841729D01*
Y2832887D01*
Y2680487D01*
Y2671646D01*
X3530081Y2655308D01*
X3517577Y2642804D01*
X3501240Y2636037D01*
X3458157D01*
X3441820Y2642804D01*
X3429316Y2655308D01*
X3422548Y2671646D01*
Y2680487D01*
Y2832887D01*
Y2841729D01*
X3429316Y2858066D01*
X3441820Y2870570D01*
X3458157Y2877337D01*
X3501240D01*
X3517577Y2870570D01*
D02*
G37*
G36*
X6587998Y2704948D02*
X6589497D01*
Y2641956D01*
X6587998D01*
Y2631745D01*
X6557975D01*
Y2641956D01*
X6556477D01*
Y2704948D01*
X6557975D01*
Y2715158D01*
X6587998D01*
Y2704948D01*
D02*
G37*
G36*
X292481Y2647315D02*
X302692D01*
Y2617292D01*
X292481D01*
Y2615794D01*
X229489D01*
Y2617292D01*
X219278D01*
Y2647315D01*
X229489D01*
Y2648814D01*
X292481D01*
Y2647315D01*
D02*
G37*
G36*
X1801571Y2657399D02*
X1809471D01*
Y2606599D01*
X1801571D01*
Y2604491D01*
X1696568D01*
Y2606599D01*
X1688668D01*
Y2657399D01*
X1696568D01*
Y2659507D01*
X1801571D01*
Y2657399D01*
D02*
G37*
G36*
X5620828Y2657502D02*
X5631390Y2650446D01*
X5638446Y2639884D01*
X5640924Y2627427D01*
X5638446Y2614969D01*
X5631390Y2604408D01*
X5620828Y2597351D01*
X5608371Y2594873D01*
X5595913Y2597351D01*
X5592373Y2599717D01*
X5585352Y2604408D01*
X5578295Y2614969D01*
X5575817Y2627427D01*
X5578295Y2639884D01*
X5585352Y2650446D01*
X5592373Y2655136D01*
X5595913Y2657502D01*
X5608371Y2659980D01*
X5620828Y2657502D01*
D02*
G37*
G36*
X5314200Y2655470D02*
X5324761Y2648414D01*
X5331817Y2637852D01*
X5334295Y2625395D01*
X5331817Y2612937D01*
X5324761Y2602376D01*
X5314200Y2595319D01*
X5301742Y2592841D01*
X5289284Y2595319D01*
X5285744Y2597685D01*
X5278723Y2602376D01*
X5271667Y2612937D01*
X5269189Y2625395D01*
X5271667Y2637852D01*
X5278723Y2648414D01*
X5285744Y2653104D01*
X5289284Y2655470D01*
X5301742Y2657948D01*
X5314200Y2655470D01*
D02*
G37*
G36*
X5434469Y2655216D02*
X5445030Y2648160D01*
X5452086Y2637598D01*
X5454564Y2625141D01*
X5452086Y2612683D01*
X5445030Y2602122D01*
X5434469Y2595065D01*
X5422011Y2592587D01*
X5409553Y2595065D01*
X5406013Y2597431D01*
X5398992Y2602122D01*
X5391936Y2612683D01*
X5389458Y2625141D01*
X5391936Y2637598D01*
X5398992Y2648160D01*
X5406013Y2652850D01*
X5409553Y2655216D01*
X5422011Y2657694D01*
X5434469Y2655216D01*
D02*
G37*
G36*
X1569309Y2678137D02*
X1584012Y2668313D01*
X1593836Y2653609D01*
X1597286Y2636266D01*
X1593836Y2618923D01*
X1584012Y2604219D01*
X1569309Y2594395D01*
X1551965Y2590945D01*
X1534622Y2594395D01*
X1529693Y2597689D01*
X1519919Y2604219D01*
X1510095Y2618923D01*
X1506645Y2636266D01*
X1510095Y2653609D01*
X1519919Y2668313D01*
X1529693Y2674843D01*
X1534622Y2678137D01*
X1551965Y2681587D01*
X1569309Y2678137D01*
D02*
G37*
G36*
X5854929Y2627198D02*
X5862828D01*
Y2576398D01*
X5854929D01*
Y2574290D01*
X5749925D01*
Y2576398D01*
X5742026D01*
Y2627198D01*
X5749925D01*
Y2629306D01*
X5854929D01*
Y2627198D01*
D02*
G37*
G36*
X1019278Y2733820D02*
X1028210Y2724888D01*
X1033043Y2713219D01*
Y2706903D01*
Y2605303D01*
Y2598988D01*
X1028210Y2587319D01*
X1019278Y2578387D01*
X1007609Y2573553D01*
X994978D01*
X983308Y2578387D01*
X974377Y2587319D01*
X969543Y2598988D01*
Y2605303D01*
Y2606573D01*
Y2706903D01*
Y2713219D01*
X974377Y2724888D01*
X983308Y2733820D01*
X994978Y2738653D01*
X1007609D01*
X1019278Y2733820D01*
D02*
G37*
G36*
X5982677Y2635785D02*
X5993238Y2628729D01*
X6000295Y2618167D01*
X6002773Y2605710D01*
X6000295Y2593252D01*
X5993238Y2582691D01*
X5982677Y2575634D01*
X5970219Y2573156D01*
X5957762Y2575634D01*
X5954221Y2578000D01*
X5947200Y2582691D01*
X5940144Y2593252D01*
X5937666Y2605710D01*
X5940144Y2618167D01*
X5947200Y2628729D01*
X5954221Y2633419D01*
X5957762Y2635785D01*
X5970219Y2638263D01*
X5982677Y2635785D01*
D02*
G37*
G36*
X1190269Y2623871D02*
X1198169D01*
Y2573071D01*
X1190269D01*
Y2570963D01*
X1085266D01*
Y2573071D01*
X1077366D01*
Y2623871D01*
X1085266D01*
Y2625979D01*
X1190269D01*
Y2623871D01*
D02*
G37*
G36*
X6971919Y2606904D02*
X6979818D01*
Y2556104D01*
X6971919D01*
Y2553995D01*
X6866915D01*
Y2556104D01*
X6859016D01*
Y2606904D01*
X6866915D01*
Y2609012D01*
X6971919D01*
Y2606904D01*
D02*
G37*
G36*
X6760185Y2606396D02*
X6768084D01*
Y2555596D01*
X6760185D01*
Y2553487D01*
X6655181D01*
Y2555596D01*
X6647282D01*
Y2606396D01*
X6655181D01*
Y2608504D01*
X6760185D01*
Y2606396D01*
D02*
G37*
G36*
X3702710Y2600071D02*
X3710610D01*
Y2549271D01*
X3702710D01*
Y2547163D01*
X3597707D01*
Y2549271D01*
X3589807D01*
Y2600071D01*
X3597707D01*
Y2602179D01*
X3702710D01*
Y2600071D01*
D02*
G37*
G36*
X2240250Y2631706D02*
X2254953Y2621881D01*
X2264777Y2607178D01*
X2268227Y2589835D01*
X2264777Y2572491D01*
X2254953Y2557788D01*
X2240250Y2547964D01*
X2222906Y2544514D01*
X2205563Y2547964D01*
X2200634Y2551258D01*
X2190860Y2557788D01*
X2181036Y2572491D01*
X2177586Y2589835D01*
X2181036Y2607178D01*
X2190860Y2621881D01*
X2200634Y2628412D01*
X2205563Y2631706D01*
X2222906Y2635156D01*
X2240250Y2631706D01*
D02*
G37*
G36*
X2504461Y2627032D02*
X2519164Y2617208D01*
X2528988Y2602505D01*
X2532438Y2585161D01*
X2528988Y2567818D01*
X2519164Y2553115D01*
X2504461Y2543290D01*
X2487117Y2539840D01*
X2469774Y2543290D01*
X2464844Y2546584D01*
X2455071Y2553115D01*
X2445246Y2567818D01*
X2441796Y2585161D01*
X2445246Y2602505D01*
X2455071Y2617208D01*
X2464844Y2623738D01*
X2469774Y2627032D01*
X2487117Y2630482D01*
X2504461Y2627032D01*
D02*
G37*
G36*
X3461685Y2611335D02*
X3476388Y2601511D01*
X3486212Y2586807D01*
X3489662Y2569464D01*
X3486212Y2552121D01*
X3476388Y2537417D01*
X3461685Y2527593D01*
X3444342Y2524143D01*
X3426998Y2527593D01*
X3422069Y2530887D01*
X3412295Y2537417D01*
X3402471Y2552121D01*
X3399021Y2569464D01*
X3402471Y2586807D01*
X3412295Y2601511D01*
X3422069Y2608041D01*
X3426998Y2611335D01*
X3444342Y2614785D01*
X3461685Y2611335D01*
D02*
G37*
G36*
X759308Y2958465D02*
X851510D01*
Y2866263D01*
X880897D01*
Y2635707D01*
X851510D01*
Y2543480D01*
X764388D01*
Y2514092D01*
X528726D01*
Y2543480D01*
X436524D01*
Y2635707D01*
X407162D01*
Y2866238D01*
X436524D01*
Y2958465D01*
X528726D01*
Y2987904D01*
X759308D01*
Y2958465D01*
D02*
G37*
G36*
X3285998Y2578608D02*
X3301619D01*
Y2494585D01*
X3285998D01*
Y2491588D01*
X3116021D01*
Y2494585D01*
X3100400D01*
Y2578608D01*
X3116021D01*
Y2581605D01*
X3285998D01*
Y2578608D01*
D02*
G37*
G36*
X3033390Y2572117D02*
X3048093Y2562293D01*
X3057918Y2547590D01*
X3061368Y2530246D01*
X3057918Y2512903D01*
X3048093Y2498200D01*
X3033390Y2488376D01*
X3016047Y2484926D01*
X2998703Y2488376D01*
X2993774Y2491669D01*
X2984000Y2498200D01*
X2974176Y2512903D01*
X2970726Y2530246D01*
X2974176Y2547590D01*
X2984000Y2562293D01*
X2993774Y2568824D01*
X2998703Y2572117D01*
X3016047Y2575567D01*
X3033390Y2572117D01*
D02*
G37*
G36*
X2796565Y2571750D02*
X2812186D01*
Y2487727D01*
X2796565D01*
Y2484730D01*
X2626589D01*
Y2487727D01*
X2610968D01*
Y2571750D01*
X2626589D01*
Y2574747D01*
X2796565D01*
Y2571750D01*
D02*
G37*
G36*
X2023694Y2547315D02*
X2025802D01*
Y2442312D01*
X2023694D01*
Y2434412D01*
X1972894D01*
Y2442312D01*
X1970786D01*
Y2547315D01*
X1972894D01*
Y2555215D01*
X2023694D01*
Y2547315D01*
D02*
G37*
G36*
X1883486Y2545893D02*
X1885594D01*
Y2440889D01*
X1883486D01*
Y2432990D01*
X1832686D01*
Y2440889D01*
X1830578D01*
Y2545893D01*
X1832686D01*
Y2553792D01*
X1883486D01*
Y2545893D01*
D02*
G37*
G36*
X1774825Y2545791D02*
X1776933D01*
Y2440788D01*
X1774825D01*
Y2432888D01*
X1724025D01*
Y2440788D01*
X1721917D01*
Y2545791D01*
X1724025D01*
Y2553691D01*
X1774825D01*
Y2545791D01*
D02*
G37*
G36*
X779121Y2461532D02*
X788053Y2452600D01*
X792886Y2440931D01*
Y2428300D01*
X788053Y2416631D01*
X779121Y2407699D01*
X767452Y2402865D01*
X653221D01*
X641552Y2407699D01*
X632620Y2416631D01*
X627786Y2428300D01*
Y2440931D01*
X632620Y2452600D01*
X641552Y2461532D01*
X653221Y2466365D01*
X767452D01*
X779121Y2461532D01*
D02*
G37*
G36*
X3887622Y2486152D02*
X3889731D01*
Y2381148D01*
X3887622D01*
Y2373249D01*
X3836822D01*
Y2381148D01*
X3834714D01*
Y2486152D01*
X3836822D01*
Y2494051D01*
X3887622D01*
Y2486152D01*
D02*
G37*
G36*
X3623259Y2485898D02*
X3625367D01*
Y2380894D01*
X3623259D01*
Y2372995D01*
X3572459D01*
Y2380894D01*
X3570351D01*
Y2485898D01*
X3572459D01*
Y2493797D01*
X3623259D01*
Y2485898D01*
D02*
G37*
G36*
X3733749Y2485796D02*
X3735857D01*
Y2380793D01*
X3733749D01*
Y2372893D01*
X3682949D01*
Y2380793D01*
X3680841D01*
Y2485796D01*
X3682949D01*
Y2493696D01*
X3733749D01*
Y2485796D01*
D02*
G37*
G36*
X6726118Y2458147D02*
X6740822Y2448323D01*
X6750646Y2433620D01*
X6754096Y2416277D01*
X6750646Y2398933D01*
X6740822Y2384230D01*
X6726118Y2374406D01*
X6708775Y2370956D01*
X6691432Y2374406D01*
X6686502Y2377699D01*
X6676728Y2384230D01*
X6666904Y2398933D01*
X6663454Y2416277D01*
X6666904Y2433620D01*
X6676728Y2448323D01*
X6686502Y2454854D01*
X6691432Y2458147D01*
X6708775Y2461597D01*
X6726118Y2458147D01*
D02*
G37*
G36*
X2862047Y2318410D02*
X2625827D01*
Y2430170D01*
X2862047D01*
Y2318410D01*
D02*
G37*
G36*
X3271495Y2313991D02*
X3035275D01*
Y2425751D01*
X3271495D01*
Y2313991D01*
D02*
G37*
G36*
X2411763Y2414488D02*
X2424267Y2401984D01*
X2431034Y2385647D01*
Y2376805D01*
Y2351405D01*
Y2342564D01*
X2424267Y2326226D01*
X2411763Y2313722D01*
X2395426Y2306955D01*
X2225343D01*
X2209005Y2313722D01*
X2196501Y2326226D01*
X2189734Y2342564D01*
Y2351405D01*
Y2376805D01*
Y2385647D01*
X2196501Y2401984D01*
X2209005Y2414488D01*
X2225343Y2421255D01*
X2395426D01*
X2411763Y2414488D01*
D02*
G37*
G36*
X447065Y2372284D02*
X448564D01*
Y2309292D01*
X447065D01*
Y2299081D01*
X417043D01*
Y2309292D01*
X415544D01*
Y2372284D01*
X417043D01*
Y2382495D01*
X447065D01*
Y2372284D01*
D02*
G37*
G36*
X681863Y2363343D02*
X683971D01*
Y2258339D01*
X681863D01*
Y2250440D01*
X631063D01*
Y2258339D01*
X628955D01*
Y2363343D01*
X631063D01*
Y2371242D01*
X681863D01*
Y2363343D01*
D02*
G37*
G36*
X538177Y2410452D02*
X547108Y2401521D01*
X551942Y2389852D01*
Y2383536D01*
Y2281936D01*
Y2275621D01*
X547108Y2263951D01*
X538177Y2255020D01*
X526507Y2250186D01*
X513876D01*
X502207Y2255020D01*
X493276Y2263951D01*
X488442Y2275621D01*
Y2281936D01*
Y2383536D01*
Y2389852D01*
X493276Y2401521D01*
X502207Y2410452D01*
X513876Y2415286D01*
X526507D01*
X538177Y2410452D01*
D02*
G37*
G36*
X790321Y2362022D02*
X792429D01*
Y2257019D01*
X790321D01*
Y2249119D01*
X739521D01*
Y2257019D01*
X737413D01*
Y2362022D01*
X739521D01*
Y2369922D01*
X790321D01*
Y2362022D01*
D02*
G37*
G36*
X2099407Y2315603D02*
X2114110Y2305778D01*
X2123934Y2291075D01*
X2127384Y2273732D01*
X2123934Y2256388D01*
X2114110Y2241685D01*
X2099407Y2231861D01*
X2082063Y2228411D01*
X2064720Y2231861D01*
X2059791Y2235155D01*
X2050017Y2241685D01*
X2040193Y2256388D01*
X2036743Y2273732D01*
X2040193Y2291075D01*
X2050017Y2305778D01*
X2059791Y2312309D01*
X2064720Y2315603D01*
X2082063Y2319053D01*
X2099407Y2315603D01*
D02*
G37*
G36*
X6995414Y2227834D02*
X6883654D01*
Y2464054D01*
X6995414D01*
Y2227834D01*
D02*
G37*
G36*
X3658692Y2260270D02*
X3666592D01*
Y2209470D01*
X3658692D01*
Y2207362D01*
X3553689D01*
Y2209470D01*
X3545789D01*
Y2260270D01*
X3553689D01*
Y2262378D01*
X3658692D01*
Y2260270D01*
D02*
G37*
G36*
X2347239Y2259355D02*
X2355139D01*
Y2208555D01*
X2347239D01*
Y2206447D01*
X2242236D01*
Y2208555D01*
X2234336D01*
Y2259355D01*
X2242236D01*
Y2261464D01*
X2347239D01*
Y2259355D01*
D02*
G37*
G36*
X2474692Y2293327D02*
X2489395Y2283503D01*
X2499219Y2268799D01*
X2502669Y2251456D01*
X2502608Y2251150D01*
X2502618Y2251100D01*
X2499168Y2233757D01*
X2489344Y2219054D01*
X2474641Y2209230D01*
X2457298Y2205780D01*
X2439954Y2209230D01*
X2435025Y2212523D01*
X2425251Y2219054D01*
X2415427Y2233757D01*
X2411977Y2251100D01*
X2412038Y2251406D01*
X2412028Y2251456D01*
X2415478Y2268799D01*
X2425302Y2283503D01*
X2435076Y2290033D01*
X2440005Y2293327D01*
X2457348Y2296777D01*
X2474692Y2293327D01*
D02*
G37*
G36*
X4463563Y2265717D02*
X4478266Y2255893D01*
X4488090Y2241190D01*
X4491540Y2223846D01*
X4488090Y2206503D01*
X4478266Y2191800D01*
X4463563Y2181975D01*
X4446219Y2178525D01*
X4428876Y2181975D01*
X4423946Y2185269D01*
X4414173Y2191800D01*
X4404348Y2206503D01*
X4400898Y2223846D01*
X4404348Y2241190D01*
X4414173Y2255893D01*
X4423946Y2262423D01*
X4428876Y2265717D01*
X4446219Y2269167D01*
X4463563Y2265717D01*
D02*
G37*
G36*
X4047942Y2263609D02*
X4062646Y2253785D01*
X4072470Y2239081D01*
X4075920Y2221738D01*
X4072470Y2204395D01*
X4062646Y2189691D01*
X4047942Y2179867D01*
X4030599Y2176417D01*
X4013256Y2179867D01*
X4008326Y2183161D01*
X3998552Y2189691D01*
X3988728Y2204395D01*
X3985278Y2221738D01*
X3988728Y2239081D01*
X3998552Y2253785D01*
X4008326Y2260315D01*
X4013256Y2263609D01*
X4030599Y2267059D01*
X4047942Y2263609D01*
D02*
G37*
G36*
X3273374Y2161337D02*
X3037154D01*
Y2273097D01*
X3273374D01*
Y2161337D01*
D02*
G37*
G36*
X2863317Y2158136D02*
X2627097D01*
Y2269896D01*
X2863317D01*
Y2158136D01*
D02*
G37*
G36*
X3657803Y2152650D02*
X3665703D01*
Y2101850D01*
X3657803D01*
Y2099742D01*
X3552800D01*
Y2101850D01*
X3544900D01*
Y2152650D01*
X3552800D01*
Y2154758D01*
X3657803D01*
Y2152650D01*
D02*
G37*
G36*
X1171092Y2203399D02*
Y2127707D01*
X1132992Y2089607D01*
X1057300D01*
X1019200Y2127707D01*
Y2203399D01*
X1057300Y2241499D01*
X1132992D01*
X1171092Y2203399D01*
D02*
G37*
G36*
X2471034Y2149283D02*
X2485737Y2139459D01*
X2495562Y2124756D01*
X2499012Y2107413D01*
X2495562Y2090069D01*
X2485737Y2075366D01*
X2471034Y2065542D01*
X2453691Y2062092D01*
X2436347Y2065542D01*
X2431418Y2068835D01*
X2421644Y2075366D01*
X2411820Y2090069D01*
X2408370Y2107413D01*
X2411820Y2124756D01*
X2421644Y2139459D01*
X2431418Y2145990D01*
X2436347Y2149283D01*
X2453691Y2152733D01*
X2471034Y2149283D01*
D02*
G37*
G36*
X2153712Y2141867D02*
X2168415Y2132042D01*
X2178239Y2117339D01*
X2181689Y2099996D01*
X2178239Y2082652D01*
X2168415Y2067949D01*
X2168171Y2067786D01*
X2168161Y2067771D01*
X2153458Y2057947D01*
X2136115Y2054497D01*
X2118771Y2057947D01*
X2113842Y2061241D01*
X2104068Y2067771D01*
X2094244Y2082475D01*
X2090794Y2099818D01*
X2094244Y2117161D01*
X2104068Y2131865D01*
X2104312Y2132028D01*
X2104322Y2132042D01*
X2114096Y2138573D01*
X2119025Y2141867D01*
X2136369Y2145317D01*
X2153712Y2141867D01*
D02*
G37*
G36*
X4370484Y2187793D02*
X4382988Y2175289D01*
X4389755Y2158952D01*
Y2150110D01*
Y2086610D01*
Y2077769D01*
X4382988Y2061431D01*
X4370484Y2048927D01*
X4354147Y2042160D01*
X4143424D01*
X4127086Y2048927D01*
X4114582Y2061431D01*
X4107815Y2077769D01*
Y2086610D01*
Y2150110D01*
Y2158952D01*
X4114582Y2175289D01*
X4127086Y2187793D01*
X4143424Y2194560D01*
X4354147D01*
X4370484Y2187793D01*
D02*
G37*
G36*
X2036072Y2147026D02*
X2048576Y2134522D01*
X2055343Y2118185D01*
Y2109343D01*
Y2083943D01*
Y2075102D01*
X2048576Y2058764D01*
X2036072Y2046260D01*
X2019734Y2039493D01*
X1849651D01*
X1833314Y2046260D01*
X1820810Y2058764D01*
X1814043Y2075102D01*
Y2083943D01*
Y2109343D01*
Y2118185D01*
X1820810Y2134522D01*
X1833314Y2147026D01*
X1849651Y2153793D01*
X2019734D01*
X2036072Y2147026D01*
D02*
G37*
G36*
X6774226Y2118727D02*
X6788929Y2108903D01*
X6798753Y2094200D01*
X6802203Y2076856D01*
X6798753Y2059513D01*
X6788929Y2044810D01*
X6774226Y2034986D01*
X6756883Y2031536D01*
X6739539Y2034986D01*
X6734610Y2038279D01*
X6724836Y2044810D01*
X6715012Y2059513D01*
X6711562Y2076856D01*
X6715012Y2094200D01*
X6724836Y2108903D01*
X6734610Y2115434D01*
X6739539Y2118727D01*
X6756883Y2122177D01*
X6774226Y2118727D01*
D02*
G37*
G36*
X1769689Y2052636D02*
X1784393Y2042812D01*
X1794217Y2028109D01*
X1797667Y2010766D01*
X1794217Y1993422D01*
X1784393Y1978719D01*
X1769689Y1968895D01*
X1752346Y1965445D01*
X1735003Y1968895D01*
X1730073Y1972188D01*
X1720299Y1978719D01*
X1710475Y1993422D01*
X1707025Y2010766D01*
X1710475Y2028109D01*
X1720299Y2042812D01*
X1730073Y2049343D01*
X1735003Y2052636D01*
X1752346Y2056086D01*
X1769689Y2052636D01*
D02*
G37*
G36*
X1660830Y2026971D02*
X1662938D01*
Y1921967D01*
X1660830D01*
Y1914068D01*
X1610030D01*
Y1921967D01*
X1607922D01*
Y2026971D01*
X1610030D01*
Y2034870D01*
X1660830D01*
Y2026971D01*
D02*
G37*
G36*
X1552626Y2025345D02*
X1554734D01*
Y1920342D01*
X1552626D01*
Y1912442D01*
X1501826D01*
Y1920342D01*
X1499718D01*
Y2025345D01*
X1501826D01*
Y2033245D01*
X1552626D01*
Y2025345D01*
D02*
G37*
G36*
X1400937Y2023618D02*
X1403045D01*
Y1918614D01*
X1400937D01*
Y1910715D01*
X1350137D01*
Y1918614D01*
X1348029D01*
Y2023618D01*
X1350137D01*
Y2031517D01*
X1400937D01*
Y2023618D01*
D02*
G37*
G36*
X2886659Y1901546D02*
X2633320D01*
Y2081530D01*
X2886659D01*
Y1901546D01*
D02*
G37*
G36*
X2023034Y1983537D02*
X2038655D01*
Y1899514D01*
X2023034D01*
Y1896516D01*
X1853057D01*
Y1899514D01*
X1837436D01*
Y1983537D01*
X1853057D01*
Y1986534D01*
X2023034D01*
Y1983537D01*
D02*
G37*
G36*
X3329076Y1883715D02*
X3005176D01*
Y2103730D01*
X3329076D01*
Y1883715D01*
D02*
G37*
G36*
X2536800Y1850669D02*
X2471776D01*
Y1991385D01*
X2536800D01*
Y1850669D01*
D02*
G37*
G36*
X2387321Y1848333D02*
X2322297D01*
Y1989049D01*
X2387321D01*
Y1848333D01*
D02*
G37*
G36*
X6818173Y1938045D02*
X6820281D01*
Y1833042D01*
X6818173D01*
Y1825142D01*
X6767373D01*
Y1833042D01*
X6765265D01*
Y1938045D01*
X6767373D01*
Y1945945D01*
X6818173D01*
Y1938045D01*
D02*
G37*
G36*
X6993255Y1797533D02*
X6891655D01*
Y2051533D01*
X6993255D01*
Y1797533D01*
D02*
G37*
G36*
X3801588Y1790153D02*
X3816291Y1780329D01*
X3826115Y1765625D01*
X3829565Y1748282D01*
X3826115Y1730939D01*
X3816291Y1716235D01*
X3801588Y1706411D01*
X3784244Y1702961D01*
X3784168Y1702976D01*
X3783965Y1702936D01*
X3766622Y1706386D01*
X3761692Y1709679D01*
X3751918Y1716210D01*
X3742094Y1730913D01*
X3738644Y1748257D01*
X3742094Y1765600D01*
X3751918Y1780303D01*
X3761692Y1786834D01*
X3766622Y1790127D01*
X3783965Y1793577D01*
X3784041Y1793562D01*
X3784244Y1793603D01*
X3801588Y1790153D01*
D02*
G37*
G36*
X486715Y1896796D02*
X488823D01*
Y1791792D01*
X486715D01*
Y1783893D01*
X435915D01*
Y1791792D01*
X433807D01*
Y1896796D01*
X435915D01*
Y1904695D01*
X486715D01*
Y1896796D01*
D02*
G37*
G36*
X1651356Y1836471D02*
X1659255D01*
Y1785671D01*
X1651356D01*
Y1783563D01*
X1546352D01*
Y1785671D01*
X1538453D01*
Y1836471D01*
X1546352D01*
Y1838579D01*
X1651356D01*
Y1836471D01*
D02*
G37*
G36*
X713003Y1895627D02*
X715112D01*
Y1790624D01*
X713003D01*
Y1782724D01*
X662203D01*
Y1790624D01*
X660095D01*
Y1895627D01*
X662203D01*
Y1903527D01*
X713003D01*
Y1895627D01*
D02*
G37*
G36*
X605587Y1895323D02*
X607695D01*
Y1790319D01*
X605587D01*
Y1782420D01*
X554787D01*
Y1790319D01*
X552679D01*
Y1895323D01*
X554787D01*
Y1903222D01*
X605587D01*
Y1895323D01*
D02*
G37*
G36*
X823747Y1895119D02*
X825856D01*
Y1790116D01*
X823747D01*
Y1782216D01*
X772947D01*
Y1790116D01*
X770839D01*
Y1895119D01*
X772947D01*
Y1903019D01*
X823747D01*
Y1895119D01*
D02*
G37*
G36*
X2155998Y1857615D02*
X2170701Y1847791D01*
X2180525Y1833088D01*
X2183975Y1815744D01*
X2180525Y1798401D01*
X2170701Y1783698D01*
X2155998Y1773874D01*
X2138655Y1770424D01*
X2121311Y1773874D01*
X2116382Y1777167D01*
X2106608Y1783698D01*
X2096784Y1798401D01*
X2093334Y1815744D01*
X2096784Y1833088D01*
X2106608Y1847791D01*
X2116382Y1854322D01*
X2121311Y1857615D01*
X2138655Y1861065D01*
X2155998Y1857615D01*
D02*
G37*
G36*
X4555211Y1951711D02*
X4597502D01*
Y1741703D01*
X4555211D01*
Y1726336D01*
X4329811D01*
Y1741703D01*
X4287520D01*
Y1951711D01*
X4309593D01*
Y1972158D01*
X4555211D01*
Y1951711D01*
D02*
G37*
G36*
X2401138Y1720393D02*
X2260422D01*
Y1785417D01*
X2401138D01*
Y1720393D01*
D02*
G37*
G36*
X1933392Y1788273D02*
X1948096Y1778449D01*
X1957920Y1763746D01*
X1961370Y1746402D01*
X1961347Y1746288D01*
X1961370Y1746174D01*
X1957920Y1728830D01*
X1948096Y1714127D01*
X1933392Y1704303D01*
X1916049Y1700853D01*
X1898706Y1704303D01*
X1893776Y1707597D01*
X1884002Y1714127D01*
X1874178Y1728830D01*
X1870728Y1746174D01*
X1870751Y1746288D01*
X1870728Y1746402D01*
X1874178Y1763746D01*
X1884002Y1778449D01*
X1893776Y1784980D01*
X1898706Y1788273D01*
X1916049Y1791723D01*
X1933392Y1788273D01*
D02*
G37*
G36*
X4223596Y1930211D02*
X4236100Y1917707D01*
X4242867Y1901370D01*
Y1892529D01*
Y1740129D01*
Y1731287D01*
X4236100Y1714950D01*
X4223596Y1702446D01*
X4207259Y1695679D01*
X4164175D01*
X4147838Y1702446D01*
X4135334Y1714950D01*
X4128567Y1731287D01*
Y1740129D01*
Y1892529D01*
Y1901370D01*
X4135334Y1917707D01*
X4147838Y1930211D01*
X4164175Y1936979D01*
X4207259D01*
X4223596Y1930211D01*
D02*
G37*
G36*
X4014376Y1968591D02*
X4026880Y1956087D01*
X4033647Y1939749D01*
Y1930908D01*
Y1737868D01*
Y1729026D01*
X4026880Y1712689D01*
X4014376Y1700185D01*
X3998039Y1693418D01*
X3916856D01*
X3900518Y1700185D01*
X3888014Y1712689D01*
X3881247Y1729026D01*
Y1737868D01*
Y1930908D01*
Y1939749D01*
X3888014Y1956087D01*
X3900518Y1968591D01*
X3916856Y1975358D01*
X3998039D01*
X4014376Y1968591D01*
D02*
G37*
G36*
X810694Y1742204D02*
X819625Y1733272D01*
X824459Y1721603D01*
Y1708972D01*
X819625Y1697303D01*
X810694Y1688371D01*
X799024Y1683537D01*
X684793D01*
X673124Y1688371D01*
X664192Y1697303D01*
X659359Y1708972D01*
Y1721603D01*
X664192Y1733272D01*
X673124Y1742204D01*
X684793Y1747037D01*
X799024D01*
X810694Y1742204D01*
D02*
G37*
G36*
X3656889Y1728013D02*
X3664788D01*
Y1677213D01*
X3656889D01*
Y1675105D01*
X3551885D01*
Y1677213D01*
X3543986D01*
Y1728013D01*
X3551885D01*
Y1730121D01*
X3656889D01*
Y1728013D01*
D02*
G37*
G36*
X324129Y1677111D02*
X332029D01*
Y1626311D01*
X324129D01*
Y1624203D01*
X219126D01*
Y1626311D01*
X211226D01*
Y1677111D01*
X219126D01*
Y1679219D01*
X324129D01*
Y1677111D01*
D02*
G37*
G36*
X2353310Y1645793D02*
X2363521D01*
Y1615770D01*
X2353310D01*
Y1614272D01*
X2290318D01*
Y1615770D01*
X2280107D01*
Y1645793D01*
X2290318D01*
Y1647292D01*
X2353310D01*
Y1645793D01*
D02*
G37*
G36*
X4391330Y1652753D02*
X4399229D01*
Y1601953D01*
X4391330D01*
Y1599844D01*
X4286326D01*
Y1601953D01*
X4278427D01*
Y1652753D01*
X4286326D01*
Y1654861D01*
X4391330D01*
Y1652753D01*
D02*
G37*
G36*
X2002434Y1672057D02*
X2004543D01*
Y1567053D01*
X2002434D01*
Y1559154D01*
X1951634D01*
Y1567053D01*
X1949526D01*
Y1672057D01*
X1951634D01*
Y1679956D01*
X2002434D01*
Y1672057D01*
D02*
G37*
G36*
X4064025Y1533195D02*
X3827805D01*
Y1644955D01*
X4064025D01*
Y1533195D01*
D02*
G37*
G36*
X1209243Y1577213D02*
X1217143D01*
Y1526413D01*
X1209243D01*
Y1524305D01*
X1104240D01*
Y1526413D01*
X1096340D01*
Y1577213D01*
X1104240D01*
Y1579321D01*
X1209243D01*
Y1577213D01*
D02*
G37*
G36*
X2353488Y1553058D02*
X2363699D01*
Y1523035D01*
X2353488D01*
Y1521536D01*
X2290496D01*
Y1523035D01*
X2280285D01*
Y1553058D01*
X2290496D01*
Y1554556D01*
X2353488D01*
Y1553058D01*
D02*
G37*
G36*
X324231Y1567536D02*
X332130D01*
Y1516736D01*
X324231D01*
Y1514627D01*
X219227D01*
Y1516736D01*
X211328D01*
Y1567536D01*
X219227D01*
Y1569644D01*
X324231D01*
Y1567536D01*
D02*
G37*
G36*
X1820502Y1725284D02*
X1833005Y1712780D01*
X1839773Y1696443D01*
Y1687601D01*
Y1535201D01*
Y1526360D01*
X1833005Y1510023D01*
X1820502Y1497519D01*
X1804164Y1490751D01*
X1761081D01*
X1744744Y1497519D01*
X1732240Y1510023D01*
X1725473Y1526360D01*
Y1535201D01*
Y1687601D01*
Y1696443D01*
X1732240Y1712780D01*
X1744744Y1725284D01*
X1761081Y1732051D01*
X1804164D01*
X1820502Y1725284D01*
D02*
G37*
G36*
X1609598Y1697126D02*
X1651889D01*
Y1487119D01*
X1629816D01*
Y1466672D01*
X1384198D01*
Y1487119D01*
X1341907D01*
Y1697126D01*
X1384198D01*
Y1712493D01*
X1609598D01*
Y1697126D01*
D02*
G37*
G36*
X2155998Y1550250D02*
X2170701Y1540426D01*
X2180525Y1525722D01*
X2183975Y1508379D01*
X2180525Y1491036D01*
X2170701Y1476332D01*
X2155998Y1466508D01*
X2138655Y1463058D01*
X2121311Y1466508D01*
X2116382Y1469802D01*
X2106608Y1476332D01*
X2096784Y1491036D01*
X2093334Y1508379D01*
X2096784Y1525722D01*
X2106608Y1540426D01*
X2116382Y1546956D01*
X2121311Y1550250D01*
X2138655Y1553700D01*
X2155998Y1550250D01*
D02*
G37*
G36*
X4444340Y1540053D02*
X4446448D01*
Y1435049D01*
X4444340D01*
Y1427150D01*
X4393540D01*
Y1435049D01*
X4391431D01*
Y1540053D01*
X4393540D01*
Y1547952D01*
X4444340D01*
Y1540053D01*
D02*
G37*
G36*
X4333596Y1538935D02*
X4335704D01*
Y1433932D01*
X4333596D01*
Y1426032D01*
X4282796D01*
Y1433932D01*
X4280687D01*
Y1538935D01*
X4282796D01*
Y1546835D01*
X4333596D01*
Y1538935D01*
D02*
G37*
G36*
X4611929Y1536751D02*
X4614037D01*
Y1431747D01*
X4611929D01*
Y1423848D01*
X4561129D01*
Y1431747D01*
X4559021D01*
Y1536751D01*
X4561129D01*
Y1544650D01*
X4611929D01*
Y1536751D01*
D02*
G37*
G36*
X1209243Y1467993D02*
X1217143D01*
Y1417193D01*
X1209243D01*
Y1415085D01*
X1104240D01*
Y1417193D01*
X1096340D01*
Y1467993D01*
X1104240D01*
Y1470101D01*
X1209243D01*
Y1467993D01*
D02*
G37*
G36*
X324790Y1457300D02*
X332689D01*
Y1406500D01*
X324790D01*
Y1404391D01*
X219786D01*
Y1406500D01*
X211887D01*
Y1457300D01*
X219786D01*
Y1459408D01*
X324790D01*
Y1457300D01*
D02*
G37*
G36*
X1033985Y1562549D02*
X1042916Y1553618D01*
X1047750Y1541949D01*
Y1535633D01*
Y1534363D01*
Y1434033D01*
Y1427717D01*
X1042916Y1416048D01*
X1033985Y1407117D01*
X1022316Y1402283D01*
X1009685D01*
X998015Y1407117D01*
X989084Y1416048D01*
X984250Y1427717D01*
Y1434033D01*
Y1435303D01*
Y1535633D01*
Y1541949D01*
X989084Y1553618D01*
X998015Y1562549D01*
X1009685Y1567383D01*
X1022316D01*
X1033985Y1562549D01*
D02*
G37*
G36*
X3725570Y1396949D02*
X3401670D01*
Y1616964D01*
X3725570D01*
Y1396949D01*
D02*
G37*
G36*
X2351837Y1428115D02*
X2359736D01*
Y1377315D01*
X2351837D01*
Y1375207D01*
X2246833D01*
Y1377315D01*
X2238934D01*
Y1428115D01*
X2246833D01*
Y1430223D01*
X2351837D01*
Y1428115D01*
D02*
G37*
G36*
X4064025Y1370635D02*
X3827805D01*
Y1482395D01*
X4064025D01*
Y1370635D01*
D02*
G37*
G36*
X6430924Y1344447D02*
X5120945D01*
Y2504465D01*
X6430924D01*
Y1344447D01*
D02*
G37*
G36*
X2155998Y1402422D02*
X2170701Y1392598D01*
X2180525Y1377894D01*
X2183975Y1360551D01*
X2180525Y1343208D01*
X2170701Y1328504D01*
X2155998Y1318680D01*
X2138655Y1315230D01*
X2121311Y1318680D01*
X2116382Y1321974D01*
X2106608Y1328504D01*
X2096784Y1343208D01*
X2093334Y1360551D01*
X2096784Y1377894D01*
X2106608Y1392598D01*
X2116382Y1399128D01*
X2121311Y1402422D01*
X2138655Y1405872D01*
X2155998Y1402422D01*
D02*
G37*
G36*
X1209243Y1356233D02*
X1217143D01*
Y1305433D01*
X1209243D01*
Y1303325D01*
X1104240D01*
Y1305433D01*
X1096340D01*
Y1356233D01*
X1104240D01*
Y1358341D01*
X1209243D01*
Y1356233D01*
D02*
G37*
G36*
X1783951Y1410629D02*
X1796455Y1398125D01*
X1803222Y1381788D01*
Y1372946D01*
Y1347546D01*
Y1338704D01*
X1796455Y1322367D01*
X1783951Y1309863D01*
X1767614Y1303096D01*
X1597530D01*
X1581193Y1309863D01*
X1568689Y1322367D01*
X1561922Y1338704D01*
Y1347546D01*
Y1372946D01*
Y1381788D01*
X1568689Y1398125D01*
X1581193Y1410629D01*
X1597530Y1417396D01*
X1767614D01*
X1783951Y1410629D01*
D02*
G37*
G36*
X305206Y1321791D02*
X315417D01*
Y1291768D01*
X305206D01*
Y1290269D01*
X242214D01*
Y1291768D01*
X232004D01*
Y1321791D01*
X242214D01*
Y1323289D01*
X305206D01*
Y1321791D01*
D02*
G37*
G36*
X2385898Y1321435D02*
X2393798D01*
Y1270635D01*
X2385898D01*
Y1268527D01*
X2280895D01*
Y1270635D01*
X2272995D01*
Y1321435D01*
X2280895D01*
Y1323543D01*
X2385898D01*
Y1321435D01*
D02*
G37*
G36*
X1920210Y1351850D02*
X1934913Y1342026D01*
X1944737Y1327323D01*
X1948187Y1309980D01*
X1944737Y1292636D01*
X1934913Y1277933D01*
X1920210Y1268109D01*
X1902866Y1264659D01*
X1885523Y1268109D01*
X1880594Y1271402D01*
X1870820Y1277933D01*
X1860996Y1292636D01*
X1857546Y1309980D01*
X1860996Y1327323D01*
X1870820Y1342026D01*
X1880594Y1348557D01*
X1885523Y1351850D01*
X1902866Y1355300D01*
X1920210Y1351850D01*
D02*
G37*
G36*
X1506749Y1331708D02*
X1521452Y1321884D01*
X1531276Y1307181D01*
X1534726Y1289837D01*
X1531276Y1272494D01*
X1521452Y1257791D01*
X1506749Y1247967D01*
X1489405Y1244517D01*
X1472062Y1247967D01*
X1467132Y1251260D01*
X1457359Y1257791D01*
X1447534Y1272494D01*
X1444084Y1289837D01*
X1447534Y1307181D01*
X1457359Y1321884D01*
X1467132Y1328415D01*
X1472062Y1331708D01*
X1489405Y1335158D01*
X1506749Y1331708D01*
D02*
G37*
G36*
X1034696Y1357216D02*
X1043627Y1348285D01*
X1048461Y1336615D01*
Y1330300D01*
Y1329030D01*
Y1228700D01*
Y1222384D01*
X1043627Y1210715D01*
X1034696Y1201783D01*
X1023027Y1196950D01*
X1010395D01*
X998726Y1201783D01*
X989795Y1210715D01*
X984961Y1222384D01*
Y1228700D01*
Y1229970D01*
Y1330300D01*
Y1336615D01*
X989795Y1348285D01*
X998726Y1357216D01*
X1010395Y1362050D01*
X1023027D01*
X1034696Y1357216D01*
D02*
G37*
G36*
X1209243Y1244981D02*
X1217143D01*
Y1194181D01*
X1209243D01*
Y1192073D01*
X1104240D01*
Y1194181D01*
X1096340D01*
Y1244981D01*
X1104240D01*
Y1247089D01*
X1209243D01*
Y1244981D01*
D02*
G37*
G36*
X4838661Y1248183D02*
X4849222Y1241127D01*
X4856279Y1230565D01*
X4858757Y1218108D01*
X4856279Y1205650D01*
X4849222Y1195089D01*
X4838661Y1188032D01*
X4826203Y1185554D01*
X4813746Y1188032D01*
X4810205Y1190398D01*
X4803184Y1195089D01*
X4796128Y1205650D01*
X4793650Y1218108D01*
X4796128Y1230565D01*
X4803184Y1241127D01*
X4810205Y1245817D01*
X4813746Y1248183D01*
X4826203Y1250661D01*
X4838661Y1248183D01*
D02*
G37*
G36*
X760984Y1613484D02*
X853186D01*
Y1521282D01*
X882574D01*
Y1290726D01*
X853186D01*
Y1198499D01*
X766064D01*
Y1169111D01*
X530403D01*
Y1198499D01*
X438201D01*
Y1290726D01*
X408838D01*
Y1521257D01*
X438201D01*
Y1613484D01*
X530403D01*
Y1642923D01*
X760984D01*
Y1613484D01*
D02*
G37*
G36*
X2315210Y1210107D02*
X2316709D01*
Y1147115D01*
X2315210D01*
Y1136904D01*
X2285187D01*
Y1147115D01*
X2283689D01*
Y1210107D01*
X2285187D01*
Y1220318D01*
X2315210D01*
Y1210107D01*
D02*
G37*
G36*
X3911575Y1312596D02*
X3914572D01*
Y1142619D01*
X3911575D01*
Y1126998D01*
X3827551D01*
Y1142619D01*
X3824554D01*
Y1312596D01*
X3827551D01*
Y1328217D01*
X3911575D01*
Y1312596D01*
D02*
G37*
G36*
X4841531Y1133477D02*
X4852092Y1126420D01*
X4859149Y1115859D01*
X4861627Y1103401D01*
X4859149Y1090944D01*
X4852092Y1080383D01*
X4841531Y1073326D01*
X4829073Y1070848D01*
X4816616Y1073326D01*
X4813075Y1075692D01*
X4806055Y1080383D01*
X4798998Y1090944D01*
X4796520Y1103401D01*
X4798998Y1115859D01*
X4806055Y1126420D01*
X4813075Y1131111D01*
X4816616Y1133477D01*
X4829073Y1135955D01*
X4841531Y1133477D01*
D02*
G37*
G36*
X775134Y1118913D02*
X784065Y1109982D01*
X788899Y1098313D01*
Y1085681D01*
X784065Y1074012D01*
X775134Y1065081D01*
X763464Y1060247D01*
X649233D01*
X637564Y1065081D01*
X628632Y1074012D01*
X623799Y1085681D01*
Y1098313D01*
X628632Y1109982D01*
X637564Y1118913D01*
X649233Y1123747D01*
X763464D01*
X775134Y1118913D01*
D02*
G37*
G36*
X6619062Y1054583D02*
X6382842D01*
Y1166343D01*
X6619062D01*
Y1054583D01*
D02*
G37*
G36*
X6324371Y1054405D02*
X6088151D01*
Y1166165D01*
X6324371D01*
Y1054405D01*
D02*
G37*
G36*
X1816057Y1193942D02*
X1828561Y1181438D01*
X1835328Y1165101D01*
Y1156259D01*
Y1092759D01*
Y1083917D01*
X1828561Y1067580D01*
X1816057Y1055076D01*
X1799720Y1048309D01*
X1588996D01*
X1572659Y1055076D01*
X1560155Y1067580D01*
X1553388Y1083917D01*
Y1092759D01*
Y1156259D01*
Y1165101D01*
X1560155Y1181438D01*
X1572659Y1193942D01*
X1588996Y1200709D01*
X1799720D01*
X1816057Y1193942D01*
D02*
G37*
G36*
X3723157Y1044042D02*
X3399257D01*
Y1264056D01*
X3723157D01*
Y1044042D01*
D02*
G37*
G36*
X1923563Y1104937D02*
X1938266Y1095113D01*
X1948090Y1080410D01*
X1951540Y1063066D01*
X1948090Y1045723D01*
X1938266Y1031020D01*
X1923563Y1021195D01*
X1906219Y1017745D01*
X1888876Y1021195D01*
X1883946Y1024489D01*
X1874173Y1031020D01*
X1864348Y1045723D01*
X1860898Y1063066D01*
X1864348Y1080410D01*
X1874173Y1095113D01*
X1883946Y1101643D01*
X1888876Y1104937D01*
X1906219Y1108387D01*
X1923563Y1104937D01*
D02*
G37*
G36*
X2315337Y1087323D02*
X2316836D01*
Y1024331D01*
X2315337D01*
Y1014120D01*
X2285314D01*
Y1024331D01*
X2283816D01*
Y1087323D01*
X2285314D01*
Y1097534D01*
X2315337D01*
Y1087323D01*
D02*
G37*
G36*
X4597306Y1107937D02*
X4609810Y1095433D01*
X4616577Y1079096D01*
Y1070254D01*
Y1044854D01*
Y1036013D01*
X4609810Y1019675D01*
X4597306Y1007171D01*
X4580968Y1000404D01*
X4410885D01*
X4394548Y1007171D01*
X4382044Y1019675D01*
X4375277Y1036013D01*
Y1044854D01*
Y1070254D01*
Y1079096D01*
X4382044Y1095433D01*
X4394548Y1107937D01*
X4410885Y1114704D01*
X4580968D01*
X4597306Y1107937D01*
D02*
G37*
G36*
X4062527Y973734D02*
X3826307D01*
Y1085494D01*
X4062527D01*
Y973734D01*
D02*
G37*
G36*
X3147619Y1706245D02*
X3227476D01*
Y1626387D01*
X3266923D01*
Y1086079D01*
X3227476D01*
Y1006221D01*
X3147619D01*
Y966775D01*
X2607310D01*
Y1006221D01*
X2527452D01*
Y1086079D01*
X2488006D01*
Y1626387D01*
X2527452D01*
Y1706245D01*
X2607310D01*
Y1745691D01*
X3147619D01*
Y1706245D01*
D02*
G37*
G36*
X4841887Y1018694D02*
X4852448Y1011638D01*
X4859504Y1001076D01*
X4861982Y988619D01*
X4859504Y976161D01*
X4852448Y965600D01*
X4841887Y958543D01*
X4829429Y956065D01*
X4816971Y958543D01*
X4813431Y960909D01*
X4806410Y965600D01*
X4799354Y976161D01*
X4796876Y988619D01*
X4799354Y1001076D01*
X4806410Y1011638D01*
X4813431Y1016328D01*
X4816971Y1018694D01*
X4829429Y1021172D01*
X4841887Y1018694D01*
D02*
G37*
G36*
X476377Y1008253D02*
X477876D01*
Y945261D01*
X476377D01*
Y935050D01*
X446354D01*
Y945261D01*
X444856D01*
Y1008253D01*
X446354D01*
Y1018464D01*
X476377D01*
Y1008253D01*
D02*
G37*
G36*
X1521658Y1022209D02*
X1536362Y1012385D01*
X1546186Y997682D01*
X1549636Y980338D01*
X1546186Y962995D01*
X1536362Y948292D01*
X1521658Y938468D01*
X1504315Y935018D01*
X1486972Y938468D01*
X1482042Y941761D01*
X1472268Y948292D01*
X1462444Y962995D01*
X1458994Y980338D01*
X1462444Y997682D01*
X1472268Y1012385D01*
X1482042Y1018916D01*
X1486972Y1022209D01*
X1504315Y1025659D01*
X1521658Y1022209D01*
D02*
G37*
G36*
X3626485Y975690D02*
X3634384D01*
Y924890D01*
X3626485D01*
Y922782D01*
X3521481D01*
Y924890D01*
X3513582D01*
Y975690D01*
X3521481D01*
Y977798D01*
X3626485D01*
Y975690D01*
D02*
G37*
G36*
X1777619Y998449D02*
X1793240D01*
Y914425D01*
X1777619D01*
Y911428D01*
X1607642D01*
Y914425D01*
X1592021D01*
Y998449D01*
X1607642D01*
Y1001446D01*
X1777619D01*
Y998449D01*
D02*
G37*
G36*
X342646Y982650D02*
X344145D01*
Y919658D01*
X342646D01*
Y909447D01*
X312623D01*
Y919658D01*
X311125D01*
Y982650D01*
X312623D01*
Y992861D01*
X342646D01*
Y982650D01*
D02*
G37*
G36*
X4250431Y993533D02*
X4265134Y983708D01*
X4274959Y969005D01*
X4278409Y951662D01*
X4274959Y934318D01*
X4265134Y919615D01*
X4250431Y909791D01*
X4233088Y906341D01*
X4215744Y909791D01*
X4210815Y913085D01*
X4201041Y919615D01*
X4191217Y934318D01*
X4187767Y951662D01*
X4191217Y969005D01*
X4201041Y983708D01*
X4210815Y990239D01*
X4215744Y993533D01*
X4233088Y996983D01*
X4250431Y993533D01*
D02*
G37*
G36*
X682473Y1014400D02*
X684581D01*
Y909396D01*
X682473D01*
Y901497D01*
X631673D01*
Y909396D01*
X629564D01*
Y1014400D01*
X631673D01*
Y1022299D01*
X682473D01*
Y1014400D01*
D02*
G37*
G36*
X792963Y1012469D02*
X795071D01*
Y907466D01*
X792963D01*
Y899566D01*
X742163D01*
Y907466D01*
X740054D01*
Y1012469D01*
X742163D01*
Y1020369D01*
X792963D01*
Y1012469D01*
D02*
G37*
G36*
X2315058Y962254D02*
X2316556D01*
Y899262D01*
X2315058D01*
Y889051D01*
X2285035D01*
Y899262D01*
X2283536D01*
Y962254D01*
X2285035D01*
Y972464D01*
X2315058D01*
Y962254D01*
D02*
G37*
G36*
X255245Y1001344D02*
X257353D01*
Y896341D01*
X255245D01*
Y888441D01*
X204445D01*
Y896341D01*
X202336D01*
Y1001344D01*
X204445D01*
Y1009244D01*
X255245D01*
Y1001344D01*
D02*
G37*
G36*
X1326536Y961732D02*
X1341239Y951908D01*
X1351063Y937204D01*
X1354513Y919861D01*
X1351063Y902518D01*
X1341239Y887814D01*
X1326536Y877990D01*
X1309192Y874540D01*
X1291849Y877990D01*
X1286919Y881284D01*
X1277146Y887814D01*
X1267321Y902518D01*
X1263871Y919861D01*
X1267321Y937204D01*
X1277146Y951908D01*
X1286919Y958438D01*
X1291849Y961732D01*
X1309192Y965182D01*
X1326536Y961732D01*
D02*
G37*
G36*
X564694Y1033163D02*
X573626Y1024231D01*
X578460Y1012562D01*
Y1006246D01*
Y904646D01*
Y898331D01*
X573626Y886662D01*
X564694Y877730D01*
X553025Y872896D01*
X540394D01*
X528725Y877730D01*
X519793Y886662D01*
X514960Y898331D01*
Y904646D01*
Y1006246D01*
Y1012562D01*
X519793Y1024231D01*
X528725Y1033163D01*
X540394Y1037996D01*
X553025D01*
X564694Y1033163D01*
D02*
G37*
G36*
X5139131Y972947D02*
X5141239D01*
Y867943D01*
X5139131D01*
Y860044D01*
X5088331D01*
Y867943D01*
X5086223D01*
Y972947D01*
X5088331D01*
Y980846D01*
X5139131D01*
Y972947D01*
D02*
G37*
G36*
X4845976Y903277D02*
X4856537Y896220D01*
X4863594Y885659D01*
X4866072Y873201D01*
X4863594Y860744D01*
X4856537Y850182D01*
X4845976Y843126D01*
X4833518Y840648D01*
X4821061Y843126D01*
X4817520Y845492D01*
X4810500Y850182D01*
X4803443Y860744D01*
X4800965Y873201D01*
X4803443Y885659D01*
X4810500Y896220D01*
X4817520Y900911D01*
X4821061Y903277D01*
X4833518Y905755D01*
X4845976Y903277D01*
D02*
G37*
G36*
X3626485Y868020D02*
X3634384D01*
Y817220D01*
X3626485D01*
Y815111D01*
X3521481D01*
Y817220D01*
X3513582D01*
Y868020D01*
X3521481D01*
Y870128D01*
X3626485D01*
Y868020D01*
D02*
G37*
G36*
X4062527Y811174D02*
X3826307D01*
Y922934D01*
X4062527D01*
Y811174D01*
D02*
G37*
G36*
X1065098Y796646D02*
X953338D01*
Y1032866D01*
X1065098D01*
Y796646D01*
D02*
G37*
G36*
X1213764Y795884D02*
X1102004D01*
Y1032104D01*
X1213764D01*
Y795884D01*
D02*
G37*
G36*
X1485290Y832155D02*
X1493190D01*
Y781355D01*
X1485290D01*
Y779247D01*
X1380287D01*
Y781355D01*
X1372387D01*
Y832155D01*
X1380287D01*
Y834263D01*
X1485290D01*
Y832155D01*
D02*
G37*
G36*
X6620764Y765302D02*
X6384544D01*
Y877062D01*
X6620764D01*
Y765302D01*
D02*
G37*
G36*
X2234311Y809574D02*
X2242210D01*
Y758774D01*
X2234311D01*
Y756666D01*
X2129307D01*
Y758774D01*
X2121408D01*
Y809574D01*
X2129307D01*
Y811682D01*
X2234311D01*
Y809574D01*
D02*
G37*
G36*
X5636433Y841183D02*
X5651136Y831359D01*
X5660960Y816656D01*
X5664410Y799313D01*
X5660960Y781969D01*
X5651136Y767266D01*
X5636433Y757442D01*
X5619090Y753992D01*
X5601746Y757442D01*
X5596817Y760735D01*
X5587043Y767266D01*
X5577219Y781969D01*
X5573769Y799313D01*
X5577219Y816656D01*
X5587043Y831359D01*
X5596817Y837890D01*
X5601746Y841183D01*
X5619090Y844633D01*
X5636433Y841183D01*
D02*
G37*
G36*
X7204634Y863295D02*
Y787603D01*
X7166534Y749503D01*
X7090842D01*
X7052742Y787603D01*
Y863295D01*
X7090842Y901395D01*
X7166534D01*
X7204634Y863295D01*
D02*
G37*
G36*
X3288208Y774471D02*
X3289706D01*
Y711479D01*
X3288208D01*
Y701269D01*
X3258185D01*
Y711479D01*
X3256686D01*
Y774471D01*
X3258185D01*
Y784682D01*
X3288208D01*
Y774471D01*
D02*
G37*
G36*
X3230931Y774192D02*
X3232429D01*
Y711200D01*
X3230931D01*
Y700989D01*
X3200908D01*
Y711200D01*
X3199409D01*
Y774192D01*
X3200908D01*
Y784403D01*
X3230931D01*
Y774192D01*
D02*
G37*
G36*
X3351022Y774090D02*
X3352521D01*
Y711098D01*
X3351022D01*
Y700888D01*
X3320999D01*
Y711098D01*
X3319501D01*
Y774090D01*
X3320999D01*
Y784301D01*
X3351022D01*
Y774090D01*
D02*
G37*
G36*
X905632Y787843D02*
X920335Y778019D01*
X930160Y763316D01*
X933610Y745973D01*
X930160Y728629D01*
X920335Y713926D01*
X905632Y704102D01*
X888289Y700652D01*
X870945Y704102D01*
X866016Y707395D01*
X856242Y713926D01*
X846418Y728629D01*
X842968Y745973D01*
X846418Y763316D01*
X856242Y778019D01*
X866016Y784550D01*
X870945Y787843D01*
X888289Y791293D01*
X905632Y787843D01*
D02*
G37*
G36*
X3176626Y773836D02*
X3178124D01*
Y710844D01*
X3176626D01*
Y700634D01*
X3146603D01*
Y710844D01*
X3145104D01*
Y773836D01*
X3146603D01*
Y784047D01*
X3176626D01*
Y773836D01*
D02*
G37*
G36*
X4655845Y912393D02*
X4669358D01*
Y707415D01*
X4655845D01*
Y694766D01*
X4477893D01*
Y707415D01*
X4464380D01*
Y912393D01*
X4474362D01*
Y925043D01*
X4655845D01*
Y912393D01*
D02*
G37*
G36*
X1699687Y752868D02*
X1714390Y743043D01*
X1724214Y728340D01*
X1727664Y710997D01*
X1724214Y693653D01*
X1714390Y678950D01*
X1699687Y669126D01*
X1682344Y665676D01*
X1665000Y669126D01*
X1660071Y672420D01*
X1650297Y678950D01*
X1640473Y693653D01*
X1637023Y710997D01*
X1640473Y728340D01*
X1650297Y743043D01*
X1660071Y749574D01*
X1665000Y752868D01*
X1682344Y756318D01*
X1699687Y752868D01*
D02*
G37*
G36*
X5948883Y690550D02*
X5959094D01*
Y660527D01*
X5948883D01*
Y659028D01*
X5885891D01*
Y660527D01*
X5875680D01*
Y690550D01*
X5885891D01*
Y692048D01*
X5948883D01*
Y690550D01*
D02*
G37*
G36*
X3452978Y757403D02*
X3455086D01*
Y652399D01*
X3452978D01*
Y644500D01*
X3402178D01*
Y652399D01*
X3400069D01*
Y757403D01*
X3402178D01*
Y765302D01*
X3452978D01*
Y757403D01*
D02*
G37*
G36*
X3550488Y756742D02*
X3552596D01*
Y651739D01*
X3550488D01*
Y643839D01*
X3499688D01*
Y651739D01*
X3497580D01*
Y756742D01*
X3499688D01*
Y764642D01*
X3550488D01*
Y756742D01*
D02*
G37*
G36*
X3648735Y756717D02*
X3650844D01*
Y651713D01*
X3648735D01*
Y643814D01*
X3597935D01*
Y651713D01*
X3595827D01*
Y756717D01*
X3597935D01*
Y764616D01*
X3648735D01*
Y756717D01*
D02*
G37*
G36*
X3744138Y756387D02*
X3746246D01*
Y651383D01*
X3744138D01*
Y643484D01*
X3693338D01*
Y651383D01*
X3691230D01*
Y756387D01*
X3693338D01*
Y764286D01*
X3744138D01*
Y756387D01*
D02*
G37*
G36*
X3848171Y714310D02*
X3862875Y704486D01*
X3872699Y689783D01*
X3876149Y672440D01*
X3872699Y655096D01*
X3862875Y640393D01*
X3848171Y630569D01*
X3830828Y627119D01*
X3813485Y630569D01*
X3808555Y633862D01*
X3798781Y640393D01*
X3788957Y655096D01*
X3785507Y672440D01*
X3788957Y689783D01*
X3798781Y704486D01*
X3808555Y711017D01*
X3813485Y714310D01*
X3830828Y717760D01*
X3848171Y714310D01*
D02*
G37*
G36*
X4347853Y859601D02*
X4360357Y847097D01*
X4367124Y830760D01*
Y821919D01*
Y669519D01*
Y660677D01*
X4360357Y644340D01*
X4347853Y631836D01*
X4331515Y625069D01*
X4288432D01*
X4272095Y631836D01*
X4259591Y644340D01*
X4252824Y660677D01*
Y669519D01*
Y821919D01*
Y830760D01*
X4259591Y847097D01*
X4272095Y859601D01*
X4288432Y866369D01*
X4331515D01*
X4347853Y859601D01*
D02*
G37*
G36*
X4163449Y764123D02*
X4175953Y751619D01*
X4182720Y735282D01*
Y726440D01*
Y662940D01*
Y654099D01*
X4175953Y637761D01*
X4163449Y625257D01*
X4147111Y618490D01*
X3936388D01*
X3920051Y625257D01*
X3907547Y637761D01*
X3900780Y654099D01*
Y662940D01*
Y726440D01*
Y735282D01*
X3907547Y751619D01*
X3920051Y764123D01*
X3936388Y770890D01*
X4147111D01*
X4163449Y764123D01*
D02*
G37*
G36*
X2600376Y611657D02*
X2347036D01*
Y791642D01*
X2600376D01*
Y611657D01*
D02*
G37*
G36*
X1988282Y685888D02*
X2002985Y676064D01*
X2012809Y661360D01*
X2016259Y644017D01*
X2012809Y626674D01*
X2002985Y611970D01*
X1988282Y602146D01*
X1970938Y598696D01*
X1953595Y602146D01*
X1948666Y605440D01*
X1938892Y611970D01*
X1929068Y626674D01*
X1925618Y644017D01*
X1929068Y661360D01*
X1938892Y676064D01*
X1948666Y682594D01*
X1953595Y685888D01*
X1970938Y689338D01*
X1988282Y685888D01*
D02*
G37*
G36*
X1562844Y738215D02*
X1575348Y725711D01*
X1582115Y709374D01*
Y700532D01*
Y637032D01*
Y628191D01*
X1575348Y611853D01*
X1562844Y599349D01*
X1546507Y592582D01*
X1335784D01*
X1319446Y599349D01*
X1306943Y611853D01*
X1300175Y628191D01*
Y637032D01*
Y700532D01*
Y709374D01*
X1306943Y725711D01*
X1319446Y738215D01*
X1335784Y744982D01*
X1546507D01*
X1562844Y738215D01*
D02*
G37*
G36*
X3039796Y587299D02*
X2715895D01*
Y807314D01*
X3039796D01*
Y587299D01*
D02*
G37*
G36*
X6531788Y690194D02*
X6533896D01*
Y585191D01*
X6531788D01*
Y577291D01*
X6480988D01*
Y585191D01*
X6478880D01*
Y690194D01*
X6480988D01*
Y698094D01*
X6531788D01*
Y690194D01*
D02*
G37*
G36*
X5797017Y524993D02*
X5421097D01*
Y662153D01*
X5797017D01*
Y524993D01*
D02*
G37*
G36*
X5373751Y524942D02*
X4997831D01*
Y662102D01*
X5373751D01*
Y524942D01*
D02*
G37*
G36*
X3723229Y588580D02*
X3737932Y578756D01*
X3747756Y564053D01*
X3751206Y546710D01*
X3747756Y529366D01*
X3737932Y514663D01*
X3723229Y504839D01*
X3705885Y501389D01*
X3688542Y504839D01*
X3683613Y508132D01*
X3673839Y514663D01*
X3664015Y529366D01*
X3660565Y546710D01*
X3664015Y564053D01*
X3673839Y578756D01*
X3683613Y585287D01*
X3688542Y588580D01*
X3705885Y592030D01*
X3723229Y588580D01*
D02*
G37*
G36*
X4287541Y571588D02*
X4302244Y561764D01*
X4312068Y547060D01*
X4315518Y529717D01*
X4312068Y512374D01*
X4302244Y497670D01*
X4287541Y487846D01*
X4270197Y484396D01*
X4252854Y487846D01*
X4247924Y491140D01*
X4238151Y497670D01*
X4228326Y512374D01*
X4224876Y529717D01*
X4228326Y547060D01*
X4238151Y561764D01*
X4247924Y568294D01*
X4252854Y571588D01*
X4270197Y575038D01*
X4287541Y571588D01*
D02*
G37*
G36*
X5975807Y466776D02*
X5835091D01*
Y531800D01*
X5975807D01*
Y466776D01*
D02*
G37*
G36*
X396291Y787756D02*
X413588D01*
Y477774D01*
X396291D01*
Y459765D01*
X220878D01*
Y477774D01*
X203581D01*
Y787756D01*
X220878D01*
Y805764D01*
X396291D01*
Y787756D01*
D02*
G37*
G36*
X3063616Y539812D02*
X3078319Y529988D01*
X3088144Y515285D01*
X3091594Y497942D01*
X3088144Y480598D01*
X3078319Y465895D01*
X3063616Y456071D01*
X3046273Y452621D01*
X3028929Y456071D01*
X3024000Y459364D01*
X3014226Y465895D01*
X3004402Y480598D01*
X3000952Y497942D01*
X3004402Y515285D01*
X3014226Y529988D01*
X3024000Y536519D01*
X3028929Y539812D01*
X3046273Y543262D01*
X3063616Y539812D01*
D02*
G37*
G36*
X1524051Y437794D02*
X1283894D01*
Y529031D01*
X1524051D01*
Y437794D01*
D02*
G37*
G36*
X1204265Y621767D02*
X1207262D01*
Y451790D01*
X1204265D01*
Y436169D01*
X1120242D01*
Y451790D01*
X1117244D01*
Y621767D01*
X1120242D01*
Y637388D01*
X1204265D01*
Y621767D01*
D02*
G37*
G36*
X2597633Y428142D02*
X2361413D01*
Y539902D01*
X2597633D01*
Y428142D01*
D02*
G37*
G36*
X6298489Y706222D02*
X6409334D01*
Y455270D01*
X6298489D01*
Y423266D01*
X6123432D01*
Y455270D01*
X6012586D01*
Y706222D01*
X6123432D01*
Y738226D01*
X6298489D01*
Y706222D01*
D02*
G37*
G36*
X4739564Y535762D02*
X4741672D01*
Y430759D01*
X4739564D01*
Y422859D01*
X4688764D01*
Y430759D01*
X4686656D01*
Y535762D01*
X4688764D01*
Y543662D01*
X4739564D01*
Y535762D01*
D02*
G37*
G36*
X4566996Y532333D02*
X4569104D01*
Y427330D01*
X4566996D01*
Y419430D01*
X4516196D01*
Y427330D01*
X4514088D01*
Y532333D01*
X4516196D01*
Y540233D01*
X4566996D01*
Y532333D01*
D02*
G37*
G36*
X4455719Y532003D02*
X4457827D01*
Y426999D01*
X4455719D01*
Y419100D01*
X4404919D01*
Y426999D01*
X4402811D01*
Y532003D01*
X4404919D01*
Y539902D01*
X4455719D01*
Y532003D01*
D02*
G37*
G36*
X2955823Y419100D02*
X2719603D01*
Y530860D01*
X2955823D01*
Y419100D01*
D02*
G37*
G36*
X1004247Y674207D02*
X1016751Y661703D01*
X1023518Y645365D01*
Y636524D01*
Y443484D01*
Y434642D01*
X1016751Y418305D01*
X1004247Y405801D01*
X987910Y399034D01*
X906727D01*
X890390Y405801D01*
X877886Y418305D01*
X871118Y434642D01*
Y443484D01*
Y636524D01*
Y645365D01*
X877886Y661703D01*
X890390Y674207D01*
X906727Y680974D01*
X987910D01*
X1004247Y674207D01*
D02*
G37*
G36*
X6553449Y484161D02*
X6568152Y474337D01*
X6577977Y459634D01*
X6581427Y442290D01*
X6577977Y424947D01*
X6568152Y410244D01*
X6553449Y400419D01*
X6536106Y396969D01*
X6518762Y400419D01*
X6513833Y403713D01*
X6504059Y410244D01*
X6494235Y424947D01*
X6490785Y442290D01*
X6494235Y459634D01*
X6504059Y474337D01*
X6513833Y480867D01*
X6518762Y484161D01*
X6536106Y487611D01*
X6553449Y484161D01*
D02*
G37*
G36*
X3396945Y578841D02*
X3399942D01*
Y408864D01*
X3396945D01*
Y393243D01*
X3312922D01*
Y408864D01*
X3309925D01*
Y578841D01*
X3312922D01*
Y594462D01*
X3396945D01*
Y578841D01*
D02*
G37*
G36*
X4070244Y480427D02*
X4084947Y470603D01*
X4094771Y455900D01*
X4098221Y438556D01*
X4094771Y421213D01*
X4084947Y406510D01*
X4070244Y396686D01*
X4052900Y393236D01*
X4035557Y396686D01*
X4030627Y399979D01*
X4020854Y406510D01*
X4011029Y421213D01*
X4007579Y438556D01*
X4011029Y455900D01*
X4020854Y470603D01*
X4030627Y477134D01*
X4035557Y480427D01*
X4052900Y483877D01*
X4070244Y480427D01*
D02*
G37*
G36*
X783712Y467041D02*
X798415Y457217D01*
X808240Y442514D01*
X811690Y425171D01*
X808240Y407827D01*
X798415Y393124D01*
X783712Y383300D01*
X766369Y379850D01*
X749025Y383300D01*
X744096Y386593D01*
X734322Y393124D01*
X724498Y407827D01*
X721048Y425171D01*
X724498Y442514D01*
X734322Y457217D01*
X744096Y463748D01*
X749025Y467041D01*
X766369Y470491D01*
X783712Y467041D01*
D02*
G37*
G36*
X3248134Y623864D02*
X3260638Y611360D01*
X3267405Y595023D01*
Y586181D01*
Y393141D01*
Y384300D01*
X3260638Y367962D01*
X3248134Y355459D01*
X3231797Y348691D01*
X3150613D01*
X3134276Y355459D01*
X3121772Y367962D01*
X3115005Y384300D01*
Y393141D01*
Y586181D01*
Y595023D01*
X3121772Y611360D01*
X3134276Y623864D01*
X3150613Y630631D01*
X3231797D01*
X3248134Y623864D01*
D02*
G37*
G36*
X3663132Y430592D02*
X3677836Y420768D01*
X3687660Y406065D01*
X3691110Y388722D01*
X3687660Y371378D01*
X3677836Y356675D01*
X3663132Y346851D01*
X3645789Y343401D01*
X3628446Y346851D01*
X3623516Y350144D01*
X3613742Y356675D01*
X3603918Y371378D01*
X3600468Y388722D01*
X3603918Y406065D01*
X3613742Y420768D01*
X3623516Y427299D01*
X3628446Y430592D01*
X3645789Y434042D01*
X3663132Y430592D01*
D02*
G37*
G36*
X595803Y428967D02*
X610506Y419143D01*
X620330Y404439D01*
X623780Y387096D01*
X620330Y369753D01*
X617037Y364823D01*
X610506Y355049D01*
X595803Y345225D01*
X578460Y341775D01*
X561116Y345225D01*
X546413Y355049D01*
X539882Y364823D01*
X536589Y369753D01*
X533139Y387096D01*
X536589Y404439D01*
X546413Y419143D01*
X561116Y428967D01*
X578460Y432417D01*
X595803Y428967D01*
D02*
G37*
G36*
X3062575Y408342D02*
X3077278Y398518D01*
X3087102Y383815D01*
X3090552Y366471D01*
X3087102Y349128D01*
X3077278Y334425D01*
X3062575Y324600D01*
X3045231Y321150D01*
X3027888Y324600D01*
X3022959Y327894D01*
X3013185Y334425D01*
X3003361Y349128D01*
X2999911Y366471D01*
X3003361Y383815D01*
X3013185Y398518D01*
X3022959Y405048D01*
X3027888Y408342D01*
X3045231Y411792D01*
X3062575Y408342D01*
D02*
G37*
G36*
X2196092Y572556D02*
X2196416Y572232D01*
X2196676Y572124D01*
X2209180Y559620D01*
X2215947Y543283D01*
Y534441D01*
Y341401D01*
Y332560D01*
X2209180Y316222D01*
X2196676Y303718D01*
X2180339Y296951D01*
X2099155D01*
X2082818Y303718D01*
X2082494Y304043D01*
X2082234Y304150D01*
X2069730Y316654D01*
X2062963Y332991D01*
Y341833D01*
Y534873D01*
Y543715D01*
X2069730Y560052D01*
X2082234Y572556D01*
X2098571Y579323D01*
X2179754D01*
X2196092Y572556D01*
D02*
G37*
G36*
X2956077Y268834D02*
X2719857D01*
Y380594D01*
X2956077D01*
Y268834D01*
D02*
G37*
G36*
X2594585Y264566D02*
X2358365D01*
Y376326D01*
X2594585D01*
Y264566D01*
D02*
G37*
G36*
X252552Y362153D02*
X254660D01*
Y257150D01*
X252552D01*
Y249250D01*
X201752D01*
Y257150D01*
X199644D01*
Y362153D01*
X201752D01*
Y370053D01*
X252552D01*
Y362153D01*
D02*
G37*
G36*
X472211Y361112D02*
X474320D01*
Y256108D01*
X472211D01*
Y248209D01*
X421411D01*
Y256108D01*
X419303D01*
Y361112D01*
X421411D01*
Y369011D01*
X472211D01*
Y361112D01*
D02*
G37*
G36*
X1377188Y335051D02*
X1392809D01*
Y251028D01*
X1377188D01*
Y248031D01*
X1207211D01*
Y251028D01*
X1191590D01*
Y335051D01*
X1207211D01*
Y338049D01*
X1377188D01*
Y335051D01*
D02*
G37*
G36*
X365328Y360324D02*
X367436D01*
Y255321D01*
X365328D01*
Y247421D01*
X314528D01*
Y255321D01*
X312420D01*
Y360324D01*
X314528D01*
Y368224D01*
X365328D01*
Y360324D01*
D02*
G37*
G36*
X4861745Y385129D02*
X4874249Y372625D01*
X4881016Y356288D01*
Y347447D01*
Y283947D01*
Y275105D01*
X4874249Y258768D01*
X4861745Y246264D01*
X4845408Y239497D01*
X4634685D01*
X4618347Y246264D01*
X4605843Y258768D01*
X4599076Y275105D01*
Y283947D01*
Y347447D01*
Y356288D01*
X4605843Y372625D01*
X4618347Y385129D01*
X4634685Y391897D01*
X4845408D01*
X4861745Y385129D01*
D02*
G37*
G36*
X2096892Y228789D02*
X2111595Y218965D01*
X2121420Y204262D01*
X2124870Y186919D01*
X2121420Y169575D01*
X2111595Y154872D01*
X2096892Y145048D01*
X2079549Y141598D01*
X2079460Y141616D01*
X2079371Y141598D01*
X2062028Y145048D01*
X2057098Y148341D01*
X2047324Y154872D01*
X2037500Y169575D01*
X2034050Y186919D01*
X2037500Y204262D01*
X2047324Y218965D01*
X2057098Y225496D01*
X2062028Y228789D01*
X2079371Y232239D01*
X2079460Y232222D01*
X2079549Y232239D01*
X2096892Y228789D01*
D02*
G37*
G36*
X3784016Y342875D02*
X3786124D01*
Y237871D01*
X3784016D01*
Y229972D01*
X3733216D01*
Y237871D01*
X3731108D01*
Y342875D01*
X3733216D01*
Y350774D01*
X3784016D01*
Y342875D01*
D02*
G37*
G36*
X4498869Y314819D02*
X4513572Y304995D01*
X4523396Y290292D01*
X4526846Y272948D01*
X4523396Y255605D01*
X4513572Y240902D01*
X4498869Y231078D01*
X4481525Y227628D01*
X4464182Y231078D01*
X4459252Y234371D01*
X4449479Y240902D01*
X4439654Y255605D01*
X4436204Y272948D01*
X4439654Y290292D01*
X4449479Y304995D01*
X4459252Y311526D01*
X4464182Y314819D01*
X4481525Y318269D01*
X4498869Y314819D01*
D02*
G37*
G36*
X3390214Y329159D02*
X3392322D01*
Y224155D01*
X3390214D01*
Y216256D01*
X3339414D01*
Y224155D01*
X3337306D01*
Y329159D01*
X3339414D01*
Y337058D01*
X3390214D01*
Y329159D01*
D02*
G37*
G36*
X3542977Y421223D02*
X3555481Y408719D01*
X3562248Y392381D01*
Y383540D01*
Y231140D01*
Y222298D01*
X3555481Y205961D01*
X3542977Y193457D01*
X3526640Y186690D01*
X3483557D01*
X3467220Y193457D01*
X3454716Y205961D01*
X3447948Y222298D01*
Y231140D01*
Y383540D01*
Y392381D01*
X3454716Y408719D01*
X3467220Y421223D01*
X3483557Y427990D01*
X3526640D01*
X3542977Y421223D01*
D02*
G37*
G36*
X3962839Y441771D02*
X3975343Y429267D01*
X3982110Y412930D01*
Y404089D01*
Y211049D01*
Y202207D01*
X3975343Y185870D01*
X3962839Y173366D01*
X3946502Y166599D01*
X3865319D01*
X3848982Y173366D01*
X3836478Y185870D01*
X3829710Y202207D01*
Y211049D01*
Y404089D01*
Y412930D01*
X3836478Y429267D01*
X3848982Y441771D01*
X3865319Y448539D01*
X3946502D01*
X3962839Y441771D01*
D02*
G37*
G36*
X7166323Y636295D02*
X7211330Y622643D01*
X7252808Y600472D01*
X7289164Y570635D01*
X7319001Y534280D01*
X7341171Y492801D01*
X7354824Y447795D01*
X7359434Y400990D01*
X7354824Y354185D01*
X7341171Y309178D01*
X7319001Y267700D01*
X7289164Y231344D01*
X7252808Y201508D01*
X7211330Y179337D01*
X7166323Y165684D01*
X7119518Y161075D01*
X7072713Y165684D01*
X7027707Y179337D01*
X7000074Y194107D01*
X6986229Y201508D01*
X6949873Y231344D01*
X6920036Y267700D01*
X6897866Y309178D01*
X6884213Y354185D01*
X6879603Y400990D01*
X6884213Y447795D01*
X6897866Y492801D01*
X6920036Y534280D01*
X6949873Y570635D01*
X6986229Y600472D01*
X7000074Y607873D01*
X7027707Y622643D01*
X7072713Y636295D01*
X7119518Y640905D01*
X7166323Y636295D01*
D02*
G37*
G36*
X1832323D02*
X1877330Y622643D01*
X1918808Y600472D01*
X1955164Y570635D01*
X1985001Y534280D01*
X2007171Y492801D01*
X2020824Y447795D01*
X2025434Y400990D01*
X2020824Y354185D01*
X2007171Y309178D01*
X1985001Y267700D01*
X1955164Y231344D01*
X1918808Y201508D01*
X1877330Y179337D01*
X1832323Y165684D01*
X1785518Y161075D01*
X1738713Y165684D01*
X1693707Y179337D01*
X1666074Y194107D01*
X1652229Y201508D01*
X1615873Y231344D01*
X1586036Y267700D01*
X1563866Y309178D01*
X1550213Y354185D01*
X1545603Y400990D01*
X1550213Y447795D01*
X1563866Y492801D01*
X1586036Y534280D01*
X1615873Y570635D01*
X1652229Y600472D01*
X1666074Y607873D01*
X1693707Y622643D01*
X1738713Y636295D01*
X1785518Y640905D01*
X1832323Y636295D01*
D02*
G37*
G36*
X3663158Y214337D02*
X3677861Y204513D01*
X3687685Y189809D01*
X3691135Y172466D01*
X3687685Y155123D01*
X3677861Y140419D01*
X3663158Y130595D01*
X3645814Y127145D01*
X3628471Y130595D01*
X3623542Y133889D01*
X3613768Y140419D01*
X3603944Y155123D01*
X3600494Y172466D01*
X3603944Y189809D01*
X3613768Y204513D01*
X3623542Y211043D01*
X3628471Y214337D01*
X3645814Y217787D01*
X3663158Y214337D01*
D02*
G37*
G36*
X2916474Y198995D02*
X2931177Y189171D01*
X2941001Y174468D01*
X2941102Y173961D01*
X2941103Y173960D01*
X2944553Y156616D01*
X2941103Y139273D01*
X2931279Y124570D01*
X2916576Y114746D01*
X2899232Y111296D01*
X2881889Y114746D01*
X2876959Y118039D01*
X2867186Y124570D01*
X2857361Y139273D01*
X2857260Y139780D01*
X2857260Y139781D01*
X2853810Y157124D01*
X2857260Y174468D01*
X2867084Y189171D01*
X2876858Y195702D01*
X2881787Y198995D01*
X2899131Y202445D01*
X2916474Y198995D01*
D02*
G37*
G36*
X3259691Y245201D02*
X3272195Y232697D01*
X3278962Y216359D01*
Y207518D01*
Y144018D01*
Y135176D01*
X3272195Y118839D01*
X3259691Y106335D01*
X3243354Y99568D01*
X3030344D01*
X3014007Y106335D01*
X3001503Y118839D01*
X2994736Y135176D01*
Y144018D01*
Y207518D01*
Y216359D01*
X3001503Y232697D01*
X3014007Y245201D01*
X3030344Y251968D01*
X3243354D01*
X3259691Y245201D01*
D02*
G37*
D108*
X2733472Y4958766D02*
Y6132754D01*
X3837610D01*
Y4958766D02*
Y6132754D01*
X2733472Y4958766D02*
X3837610D01*
X584Y-62789D02*
Y64211D01*
X-62916Y711D02*
X64084D01*
%TF.MD5,ad43795c7a752524d62a1e7768af4596*%
M02*
