%TF.GenerationSoftware,Altium Limited,Altium Designer,25.7.1 (20)*%
G04 Layer_Color=16711935*
%FSLAX45Y45*%
%MOMM*%
%TF.SameCoordinates,1AA72D45-9F13-4BD8-B423-63960E99F270*%
%TF.FilePolarity,Positive*%
%TF.FileFunction,Keep-out,Top*%
%TF.Part,Single*%
G01*
G75*
G36*
X4710197Y3158396D02*
X4705966Y3190533D01*
X4693562Y3220479D01*
X4673829Y3246195D01*
X4648113Y3265928D01*
X4618166Y3278333D01*
X4586029Y3282563D01*
X4553892Y3278333D01*
X4523945Y3265928D01*
D01*
X4498229Y3246195D01*
X4478496Y3220479D01*
X4466092Y3190533D01*
X4461861Y3158396D01*
X4466092Y3126258D01*
X4478496Y3096312D01*
X4498229Y3070596D01*
X4523945Y3050863D01*
D01*
X4553892Y3038458D01*
X4586029Y3034228D01*
X4618166Y3038458D01*
X4648113Y3050863D01*
X4673829Y3070596D01*
X4693562Y3096312D01*
X4705966Y3126258D01*
X4710197Y3158396D01*
D01*
D02*
G37*
G36*
X4691761Y4593946D02*
X4683505Y4607789D01*
X4660421Y4630292D01*
X4632323Y4646094D01*
X4601103Y4654128D01*
X4568867Y4653855D01*
X4537788Y4645291D01*
X4509961Y4629015D01*
X4487263Y4606123D01*
X4471224Y4578159D01*
X4462924Y4547009D01*
Y4514771D01*
X4471224Y4483621D01*
X4487263Y4455657D01*
X4509961Y4432765D01*
X4537788Y4416489D01*
X4568867Y4407925D01*
X4601103Y4407652D01*
X4632323Y4415686D01*
X4660421Y4431488D01*
X4683505Y4453991D01*
X4691761Y4467834D01*
X4691761Y4467835D01*
X4691761Y4593946D01*
D02*
G37*
G36*
X4900219Y4584573D02*
X4894077Y4591455D01*
X4879002Y4602089D01*
X4861914Y4609042D01*
X4843698Y4611956D01*
X4825294Y4610681D01*
X4807653Y4605280D01*
X4791689Y4596035D01*
X4778225Y4583423D01*
X4773092Y4575759D01*
D01*
Y4486046D01*
X4779633Y4476279D01*
X4797748Y4461293D01*
X4819388Y4452103D01*
X4842751Y4449476D01*
X4854321Y4451553D01*
D01*
X4900219Y4497451D01*
X4900219Y4584573D01*
D02*
G37*
G36*
X5531876Y3158396D02*
X5529106Y3179437D01*
X5520984Y3199044D01*
X5508064Y3215881D01*
X5491227Y3228801D01*
X5471620Y3236922D01*
X5450579Y3239692D01*
X5429538Y3236922D01*
X5409931Y3228801D01*
D01*
X5393093Y3215881D01*
X5380174Y3199044D01*
X5372052Y3179437D01*
X5369282Y3158396D01*
X5372052Y3137354D01*
X5380174Y3117747D01*
X5393093Y3100910D01*
X5409931Y3087991D01*
D01*
X5429538Y3079869D01*
X5450579Y3077099D01*
X5471620Y3079869D01*
X5491227Y3087991D01*
X5508064Y3100910D01*
X5520984Y3117747D01*
X5529106Y3137354D01*
X5531876Y3158396D01*
D01*
D02*
G37*
G36*
X6082787D02*
X6078557Y3190530D01*
X6066153Y3220475D01*
X6046422Y3246189D01*
X6020708Y3265920D01*
X5990763Y3278324D01*
X5958629Y3282554D01*
X5926494Y3278324D01*
X5896549Y3265920D01*
D01*
X5870835Y3246189D01*
X5851104Y3220475D01*
X5838701Y3190530D01*
X5834470Y3158396D01*
X5838701Y3126261D01*
X5851104Y3096316D01*
X5870835Y3070602D01*
X5896549Y3050871D01*
D01*
X5926494Y3038467D01*
X5958629Y3034237D01*
X5990763Y3038467D01*
X6020708Y3050871D01*
X6046422Y3070602D01*
X6066153Y3096316D01*
X6078557Y3126261D01*
X6082787Y3158396D01*
D01*
D02*
G37*
G36*
Y4530896D02*
X6078557Y4563030D01*
X6066153Y4592975D01*
X6046422Y4618689D01*
X6020708Y4638420D01*
X5990763Y4650824D01*
X5958629Y4655054D01*
X5926494Y4650824D01*
X5896549Y4638420D01*
D01*
X5870835Y4618689D01*
X5851104Y4592975D01*
X5838701Y4563030D01*
X5834470Y4530896D01*
X5838701Y4498761D01*
X5851104Y4468816D01*
X5870835Y4443102D01*
X5896549Y4423371D01*
D01*
X5926494Y4410968D01*
X5958629Y4406737D01*
X5990763Y4410968D01*
X6020708Y4423371D01*
X6046422Y4443102D01*
X6066153Y4468816D01*
X6078557Y4498761D01*
X6082787Y4530896D01*
D01*
D02*
G37*
%TF.MD5,d99d6d5bcaa39e3e27a1c74f45e89917*%
M02*
