%TF.GenerationSoftware,Altium Limited,Altium Designer,25.7.1 (20)*%
G04 Layer_Color=11065270*
%FSLAX45Y45*%
%MOMM*%
%TF.SameCoordinates,1AA72D45-9F13-4BD8-B423-63960E99F270*%
%TF.FilePolarity,Positive*%
%TF.FileFunction,Other,Bottom_Assembly*%
%TF.Part,Single*%
G01*
G75*
%TA.AperFunction,NonConductor*%
%ADD108C,0.02540*%
D108*
X6919087Y2278431D02*
Y4450436D01*
X6714109D02*
X6919087D01*
X6714109Y2278431D02*
Y4450436D01*
Y2278431D02*
X6919087D01*
X4933721Y866419D02*
X6705727D01*
Y1071397D01*
X4933721D02*
X6705727D01*
X4933721Y866419D02*
Y1071397D01*
X3183052Y5339766D02*
Y5751754D01*
X3388030D01*
Y5339766D02*
Y5751754D01*
X3183052Y5339766D02*
X3388030D01*
X2820695Y1001319D02*
Y1214679D01*
X2724175Y1001319D02*
X2820695D01*
X2724175D02*
Y1176579D01*
X2820695D01*
X2463394Y950087D02*
X2518410D01*
X2463394D02*
Y1055091D01*
X2518410D01*
Y950087D02*
Y1055091D01*
X2499182Y1392911D02*
X2604186D01*
Y1447927D01*
X2499182D02*
X2604186D01*
X2499182Y1392911D02*
Y1447927D01*
X2877083Y1076173D02*
X2932100D01*
Y971169D02*
Y1076173D01*
X2877083Y971169D02*
X2932100D01*
X2877083D02*
Y1076173D01*
X3551199Y1676248D02*
Y1731264D01*
X3656203D01*
Y1676248D02*
Y1731264D01*
X3551199Y1676248D02*
X3656203D01*
X3763696Y1982495D02*
Y2037512D01*
X3658692Y1982495D02*
X3763696D01*
X3658692D02*
Y2037512D01*
X3763696D01*
X3658718Y1926793D02*
X3763721D01*
X3658718Y1871777D02*
Y1926793D01*
Y1871777D02*
X3763721D01*
Y1926793D01*
X5212283Y3938143D02*
Y3993159D01*
X5107280Y3938143D02*
X5212283D01*
X5107280D02*
Y3993159D01*
X5212283D01*
X4930902Y3797021D02*
X5035906D01*
X4930902Y3742004D02*
Y3797021D01*
Y3742004D02*
X5035906D01*
Y3797021D01*
X3111094Y4275303D02*
Y4330319D01*
X3216097D01*
Y4275303D02*
Y4330319D01*
X3111094Y4275303D02*
X3216097D01*
X3753333Y3236824D02*
X3858336D01*
X3753333Y3181807D02*
Y3236824D01*
Y3181807D02*
X3858336D01*
Y3236824D01*
X3562045Y3183890D02*
Y3238906D01*
X3667049D01*
Y3183890D02*
Y3238906D01*
X3562045Y3183890D02*
X3667049D01*
X2902966Y4318635D02*
X3007970D01*
X2902966Y4263619D02*
Y4318635D01*
Y4263619D02*
X3007970D01*
Y4318635D01*
X5998820Y1972996D02*
Y2028012D01*
X6103823D01*
Y1972996D02*
Y2028012D01*
X5998820Y1972996D02*
X6103823D01*
X3557219Y3941013D02*
X3662223D01*
Y3996030D01*
X3557219D02*
X3662223D01*
X3557219Y3941013D02*
Y3996030D01*
X3550234Y3564661D02*
Y3669665D01*
Y3564661D02*
X3605251D01*
Y3669665D01*
X3550234D02*
X3605251D01*
X3558311Y3748507D02*
Y3803523D01*
X3663315D01*
Y3748507D02*
Y3803523D01*
X3558311Y3748507D02*
X3663315D01*
X3299028Y4328719D02*
X3404032D01*
X3299028Y4273702D02*
Y4328719D01*
Y4273702D02*
X3404032D01*
Y4328719D01*
X5035601Y3941902D02*
Y3996919D01*
X4930597Y3941902D02*
X5035601D01*
X4930597D02*
Y3996919D01*
X5035601D01*
X5173421Y3800094D02*
X5278425D01*
X5173421Y3745078D02*
Y3800094D01*
Y3745078D02*
X5278425D01*
Y3800094D01*
X5447132Y5373700D02*
X5502148D01*
Y5268697D02*
Y5373700D01*
X5447132Y5268697D02*
X5502148D01*
X5447132D02*
Y5373700D01*
X3721938Y4258640D02*
X3826942D01*
Y4313657D01*
X3721938D02*
X3826942D01*
X3721938Y4258640D02*
Y4313657D01*
X4892650Y4316425D02*
Y4371442D01*
X4787646Y4316425D02*
X4892650D01*
X4787646D02*
Y4371442D01*
X4892650D01*
X5556783Y5268976D02*
X5611800D01*
X5556783D02*
Y5373980D01*
X5611800D01*
Y5268976D02*
Y5373980D01*
X3297250Y3341116D02*
Y3396132D01*
X3402254D01*
Y3341116D02*
Y3396132D01*
X3297250Y3341116D02*
X3402254D01*
X5878982Y5268189D02*
Y5373192D01*
X5823966D02*
X5878982D01*
X5823966Y5268189D02*
Y5373192D01*
Y5268189D02*
X5878982D01*
X5665292Y5269789D02*
X5720309D01*
X5665292D02*
Y5374792D01*
X5720309D01*
Y5269789D02*
Y5374792D01*
X779602Y3484118D02*
Y3589122D01*
X724586D02*
X779602D01*
X724586Y3484118D02*
Y3589122D01*
Y3484118D02*
X779602D01*
X616687Y3487852D02*
X671703D01*
X616687D02*
Y3592855D01*
X671703D01*
Y3487852D02*
Y3592855D01*
X997788Y3949929D02*
Y4054932D01*
X942772D02*
X997788D01*
X942772Y3949929D02*
Y4054932D01*
Y3949929D02*
X997788D01*
X814070Y3954221D02*
X869086D01*
X814070D02*
Y4059225D01*
X869086D01*
Y3954221D02*
Y4059225D01*
X3031312Y1423594D02*
X3244672D01*
Y1327074D02*
Y1423594D01*
X3069412Y1327074D02*
X3244672D01*
X3069412D02*
Y1423594D01*
X3033344Y1272108D02*
X3246704D01*
Y1175588D02*
Y1272108D01*
X3071444Y1175588D02*
X3246704D01*
X3071444D02*
Y1272108D01*
X2988005Y1509471D02*
Y1722831D01*
X3084525D01*
Y1547571D02*
Y1722831D01*
X2988005Y1547571D02*
X3084525D01*
X2841015Y1508785D02*
Y1722145D01*
X2937535D01*
Y1546885D02*
Y1722145D01*
X2841015Y1546885D02*
X2937535D01*
X2692629Y1508303D02*
Y1721663D01*
X2789149D01*
Y1546403D02*
Y1721663D01*
X2692629Y1546403D02*
X2789149D01*
X2671572Y1001344D02*
Y1214704D01*
X2575052Y1001344D02*
X2671572D01*
X2575052D02*
Y1176604D01*
X2671572D01*
X2638476Y1542694D02*
Y1756054D01*
X2541956Y1542694D02*
X2638476D01*
X2541956D02*
Y1717954D01*
X2638476D01*
X5603011Y2130628D02*
X5666003D01*
Y2163648D01*
X5603011D02*
X5666003D01*
X5603011Y2130628D02*
Y2163648D01*
X5442229Y1986610D02*
Y2049602D01*
Y1986610D02*
X5475249D01*
Y2049602D01*
X5442229D02*
X5475249D01*
X5443017Y2092350D02*
Y2155342D01*
Y2092350D02*
X5476037D01*
Y2155342D01*
X5443017D02*
X5476037D01*
X5568950Y1845005D02*
Y1907997D01*
X5535930D02*
X5568950D01*
X5535930Y1845005D02*
Y1907997D01*
Y1845005D02*
X5568950D01*
X5794629Y2064588D02*
X5857621D01*
X5794629Y2031568D02*
Y2064588D01*
Y2031568D02*
X5857621D01*
Y2064588D01*
X5210353Y4353103D02*
X5273345D01*
X5210353Y4320083D02*
Y4353103D01*
Y4320083D02*
X5273345D01*
Y4353103D01*
X5637124Y4158666D02*
Y4221658D01*
X5604104D02*
X5637124D01*
X5604104Y4158666D02*
Y4221658D01*
Y4158666D02*
X5637124D01*
X5543652Y4049293D02*
X5606644D01*
Y4082313D01*
X5543652D02*
X5606644D01*
X5543652Y4049293D02*
Y4082313D01*
X5441671Y4224884D02*
Y4287876D01*
X5408651D02*
X5441671D01*
X5408651Y4224884D02*
Y4287876D01*
Y4224884D02*
X5441671D01*
X5541569Y4202125D02*
Y4265117D01*
X5508549D02*
X5541569D01*
X5508549Y4202125D02*
Y4265117D01*
Y4202125D02*
X5541569D01*
X5455768Y5414493D02*
Y5477485D01*
Y5414493D02*
X5488788D01*
Y5477485D01*
X5455768D02*
X5488788D01*
X5133289Y4152113D02*
Y4215105D01*
X5100269D02*
X5133289D01*
X5100269Y4152113D02*
Y4215105D01*
Y4152113D02*
X5133289D01*
X5237505Y3632860D02*
Y3695852D01*
X5204485D02*
X5237505D01*
X5204485Y3632860D02*
Y3695852D01*
Y3632860D02*
X5237505D01*
X5420893Y3790696D02*
X5483885D01*
X5420893Y3757676D02*
Y3790696D01*
Y3757676D02*
X5483885D01*
Y3790696D01*
X5028997Y4150868D02*
Y4213860D01*
X4995977D02*
X5028997D01*
X4995977Y4150868D02*
Y4213860D01*
Y4150868D02*
X5028997D01*
X5003698Y3557041D02*
Y3620033D01*
Y3557041D02*
X5036718D01*
Y3620033D01*
X5003698D02*
X5036718D01*
X5478628Y3857142D02*
X5541620D01*
Y3890162D01*
X5478628D02*
X5541620D01*
X5478628Y3857142D02*
Y3890162D01*
X5206746Y4041242D02*
Y4104234D01*
Y4041242D02*
X5239766D01*
Y4104234D01*
X5206746D02*
X5239766D01*
X5100269Y4040505D02*
Y4103497D01*
Y4040505D02*
X5133289D01*
Y4103497D01*
X5100269D02*
X5133289D01*
X5435016Y3655238D02*
Y3718230D01*
X5401996D02*
X5435016D01*
X5401996Y3655238D02*
Y3718230D01*
Y3655238D02*
X5435016D01*
X5990158Y2331314D02*
Y2394306D01*
X5957138D02*
X5990158D01*
X5957138Y2331314D02*
Y2394306D01*
Y2331314D02*
X5990158D01*
X5511546Y3952240D02*
X5574538D01*
Y3985260D01*
X5511546D02*
X5574538D01*
X5511546Y3952240D02*
Y3985260D01*
X5309972Y4011295D02*
Y4074287D01*
Y4011295D02*
X5342992D01*
Y4074287D01*
X5309972D02*
X5342992D01*
X5408447Y4016832D02*
Y4079824D01*
Y4016832D02*
X5441467D01*
Y4079824D01*
X5408447D02*
X5441467D01*
X5296484Y3928313D02*
X5359476D01*
X5296484Y3895293D02*
Y3928313D01*
Y3895293D02*
X5359476D01*
Y3928313D01*
X5353812Y3763823D02*
Y3826815D01*
Y3763823D02*
X5386832D01*
Y3826815D01*
X5353812D02*
X5386832D01*
X5365242Y3951351D02*
X5428234D01*
Y3984371D01*
X5365242D02*
X5428234D01*
X5365242Y3951351D02*
Y3984371D01*
X5256784Y3948735D02*
X5319776D01*
Y3981755D01*
X5256784D02*
X5319776D01*
X5256784Y3948735D02*
Y3981755D01*
X5304434Y3764077D02*
Y3827069D01*
Y3764077D02*
X5337454D01*
Y3827069D01*
X5304434D02*
X5337454D01*
X5070526Y3396107D02*
X5133518D01*
Y3429127D01*
X5070526D02*
X5133518D01*
X5070526Y3396107D02*
Y3429127D01*
X5342585Y3658464D02*
Y3721456D01*
X5309565D02*
X5342585D01*
X5309565Y3658464D02*
Y3721456D01*
Y3658464D02*
X5342585D01*
X5741975Y3782593D02*
Y3845585D01*
X5708955D02*
X5741975D01*
X5708955Y3782593D02*
Y3845585D01*
Y3782593D02*
X5741975D01*
X5526837Y3404362D02*
X5589829D01*
Y3437382D01*
X5526837D02*
X5589829D01*
X5526837Y3404362D02*
Y3437382D01*
X5140274Y3664179D02*
Y3727171D01*
X5107254D02*
X5140274D01*
X5107254Y3664179D02*
Y3727171D01*
Y3664179D02*
X5140274D01*
X4959375Y3687572D02*
X5022367D01*
X4959375Y3654552D02*
Y3687572D01*
Y3654552D02*
X5022367D01*
Y3687572D01*
X5064912Y3850792D02*
X5127904D01*
Y3883812D01*
X5064912D02*
X5127904D01*
X5064912Y3850792D02*
Y3883812D01*
X4961611Y4085793D02*
X5024603D01*
X4961611Y4052773D02*
Y4085793D01*
Y4052773D02*
X5024603D01*
Y4085793D01*
X4955667Y3890162D02*
X5018659D01*
X4955667Y3857142D02*
Y3890162D01*
Y3857142D02*
X5018659D01*
Y3890162D01*
X3681349Y3553663D02*
X3744341D01*
X3681349Y3520643D02*
Y3553663D01*
Y3520643D02*
X3744341D01*
Y3553663D01*
X3892271Y4176039D02*
X3955263D01*
Y4209059D01*
X3892271D02*
X3955263D01*
X3892271Y4176039D02*
Y4209059D01*
X3852113Y3883457D02*
Y3946449D01*
X3819093D02*
X3852113D01*
X3819093Y3883457D02*
Y3946449D01*
Y3883457D02*
X3852113D01*
X3804895Y3638220D02*
X3867887D01*
X3804895Y3605200D02*
Y3638220D01*
Y3605200D02*
X3867887D01*
Y3638220D01*
X3196234Y3869538D02*
X3259226D01*
X3196234Y3836518D02*
Y3869538D01*
Y3836518D02*
X3259226D01*
Y3869538D01*
X3646195Y4115562D02*
Y4178554D01*
Y4115562D02*
X3679215D01*
Y4178554D01*
X3646195D02*
X3679215D01*
X3325774Y3235300D02*
X3388766D01*
X3325774Y3202280D02*
Y3235300D01*
Y3202280D02*
X3388766D01*
Y3235300D01*
X3193999Y3648100D02*
X3256991D01*
X3193999Y3615080D02*
Y3648100D01*
Y3615080D02*
X3256991D01*
Y3648100D01*
X3789985Y3788258D02*
X3852977D01*
X3789985Y3755238D02*
Y3788258D01*
Y3755238D02*
X3852977D01*
Y3788258D01*
X4102075Y4149471D02*
Y4212463D01*
X4069055D02*
X4102075D01*
X4069055Y4149471D02*
Y4212463D01*
Y4149471D02*
X4102075D01*
X4041699Y3765220D02*
X4104691D01*
Y3798240D01*
X4041699D02*
X4104691D01*
X4041699Y3765220D02*
Y3798240D01*
X4141597Y3453435D02*
X4204589D01*
Y3486455D01*
X4141597D02*
X4204589D01*
X4141597Y3453435D02*
Y3486455D01*
X2803957Y4136187D02*
X2866949D01*
X2803957Y4103167D02*
Y4136187D01*
Y4103167D02*
X2866949D01*
Y4136187D01*
X2935453Y3651758D02*
X2998445D01*
X2935453Y3618738D02*
Y3651758D01*
Y3618738D02*
X2998445D01*
Y3651758D01*
X3839413Y4059479D02*
X3902405D01*
X3839413Y4026459D02*
Y4059479D01*
Y4026459D02*
X3902405D01*
Y4059479D01*
X2937027Y3231667D02*
X3000019D01*
X2937027Y3198647D02*
Y3231667D01*
Y3198647D02*
X3000019D01*
Y3231667D01*
X6055716Y2331187D02*
Y2394179D01*
X6022696D02*
X6055716D01*
X6022696Y2331187D02*
Y2394179D01*
Y2331187D02*
X6055716D01*
X5736438Y3665093D02*
Y3728085D01*
X5703418D02*
X5736438D01*
X5703418Y3665093D02*
Y3728085D01*
Y3665093D02*
X5736438D01*
X5073802Y3757270D02*
X5136794D01*
Y3790290D01*
X5073802D02*
X5136794D01*
X5073802Y3757270D02*
Y3790290D01*
X5208524Y4215257D02*
Y4278249D01*
Y4215257D02*
X5241544D01*
Y4278249D01*
X5208524D02*
X5241544D01*
X5436667Y5966917D02*
Y6029909D01*
Y5966917D02*
X5469687D01*
Y6029909D01*
X5436667D02*
X5469687D01*
X3225698Y3425215D02*
Y3488207D01*
Y3425215D02*
X3258718D01*
Y3488207D01*
X3225698D02*
X3258718D01*
X5188280Y3887038D02*
X5251272D01*
Y3920058D01*
X5188280D02*
X5251272D01*
X5188280Y3887038D02*
Y3920058D01*
X4149115Y3876573D02*
X4212107D01*
Y3909593D01*
X4149115D02*
X4212107D01*
X4149115Y3876573D02*
Y3909593D01*
X5365394Y5413832D02*
Y5476824D01*
Y5413832D02*
X5398414D01*
Y5476824D01*
X5365394D02*
X5398414D01*
X4863465Y3586963D02*
X4926457D01*
X4863465Y3553943D02*
Y3586963D01*
Y3553943D02*
X4926457D01*
Y3586963D01*
X4241851Y5830316D02*
X6013856D01*
X4241851Y5625338D02*
Y5830316D01*
Y5625338D02*
X6013856D01*
Y5830316D01*
X3052877Y970712D02*
Y1085723D01*
X2987853D02*
X3052877D01*
X2987853Y970712D02*
Y1085723D01*
Y970712D02*
X3052877D01*
X5666969Y1878254D02*
X5781980D01*
Y1943278D01*
X5666969D02*
X5781980D01*
X5666969Y1878254D02*
Y1943278D01*
%TF.MD5,15ecd8b1b5eb1aedfeb465e25378e3b9*%
M02*
