%TF.GenerationSoftware,Altium Limited,Altium Designer,25.7.1 (20)*%
G04 Layer_Color=0*
%FSLAX45Y45*%
%MOMM*%
%TF.SameCoordinates,1AA72D45-9F13-4BD8-B423-63960E99F270*%
%TF.FilePolarity,Positive*%
%TF.FileFunction,Plated,1,6,PTH,Drill*%
%TF.Part,Single*%
G01*
G75*
%TA.AperFunction,ComponentDrill*%
%ADD131C,2.69240*%
%TA.AperFunction,ViaDrill,NotFilled*%
%ADD132C,0.20320*%
%ADD133C,0.25400*%
%ADD134C,1.01600*%
D131*
X7119518Y400990D02*
D03*
X1785518D02*
D03*
Y5734990D02*
D03*
X7119518D02*
D03*
D132*
X2519096Y1714119D02*
D03*
X2504288Y2021865D02*
D03*
X2489098Y2977439D02*
D03*
X2488819Y5312715D02*
D03*
X2488286Y3040558D02*
D03*
X247015Y1261059D02*
D03*
X2455139Y1499413D02*
D03*
X2448001Y1289202D02*
D03*
X2445944Y1375562D02*
D03*
X2442820Y1122350D02*
D03*
X2435962Y5570804D02*
D03*
X2407793Y1474241D02*
D03*
X2392299Y6035675D02*
D03*
X2391893Y4880839D02*
D03*
X2381504Y844321D02*
D03*
X2379751Y936727D02*
D03*
X2354809Y2020595D02*
D03*
X2347417Y1205306D02*
D03*
X234798Y1376020D02*
D03*
X234137Y1721002D02*
D03*
X2329434Y5566943D02*
D03*
X2324938Y324663D02*
D03*
X2320239Y5273243D02*
D03*
X229845Y1048080D02*
D03*
X2280183Y830605D02*
D03*
X2277618Y4676496D02*
D03*
X228067Y218821D02*
D03*
X2275053Y5807050D02*
D03*
X2273122Y4590974D02*
D03*
X227305Y3061919D02*
D03*
X225806Y5940654D02*
D03*
X2236038Y1630782D02*
D03*
X2235657Y1528547D02*
D03*
X2228418Y1752905D02*
D03*
X2216074Y1306195D02*
D03*
X2215667Y2918638D02*
D03*
X2214499Y6035675D02*
D03*
X2196643Y5559323D02*
D03*
X2192020Y3563798D02*
D03*
X2191360Y3680028D02*
D03*
Y3623234D02*
D03*
X2180971Y3136417D02*
D03*
X2180311Y3189199D02*
D03*
X2167103Y2274748D02*
D03*
X2163470Y2918485D02*
D03*
X2140306Y4544670D02*
D03*
X2134565Y3563137D02*
D03*
X2133905Y3679368D02*
D03*
Y3622573D02*
D03*
X2124862Y3189199D02*
D03*
X212750Y6026353D02*
D03*
X2110029Y2918485D02*
D03*
X2109445Y5565877D02*
D03*
X2083740Y4672711D02*
D03*
X2048840Y5552567D02*
D03*
X2047824Y1360551D02*
D03*
X2044751Y845312D02*
D03*
X204724Y99365D02*
D03*
X2041728Y2951759D02*
D03*
X2036699Y6035675D02*
D03*
X2033803Y284124D02*
D03*
X2032508Y537159D02*
D03*
X2018513Y4577867D02*
D03*
X202311Y3324885D02*
D03*
X202108Y5324399D02*
D03*
X202057Y5670118D02*
D03*
X1984426Y4678147D02*
D03*
X1954378Y4587215D02*
D03*
X1933829Y2675611D02*
D03*
X193751Y682676D02*
D03*
X1918030Y934060D02*
D03*
X1917675Y3026867D02*
D03*
X1916811Y984860D02*
D03*
X1915846Y1164768D02*
D03*
X191592Y580695D02*
D03*
X1909242Y1583766D02*
D03*
X1905254Y1652143D02*
D03*
X1901266Y2631491D02*
D03*
X1866036Y987146D02*
D03*
X1865859Y936346D02*
D03*
X1860956Y1182802D02*
D03*
X1859356Y6039714D02*
D03*
X1855546Y3511423D02*
D03*
X1831899Y4575251D02*
D03*
X1818615Y5315712D02*
D03*
X181686Y4020033D02*
D03*
X180950Y4366285D02*
D03*
X1781277Y2119147D02*
D03*
X1780438Y2189632D02*
D03*
X1770761Y4441495D02*
D03*
X1769999Y4522495D02*
D03*
X1748028Y3612540D02*
D03*
X174244Y2784069D02*
D03*
X172923Y2893543D02*
D03*
X1722247Y2189632D02*
D03*
X1721434Y2121586D02*
D03*
X1721307Y1266342D02*
D03*
X170028Y1092759D02*
D03*
X1680134Y6039714D02*
D03*
X1678940Y2455799D02*
D03*
X1675206Y4626686D02*
D03*
X1669821Y2536368D02*
D03*
X1664487Y3999052D02*
D03*
X1658239Y2625674D02*
D03*
X165125Y911352D02*
D03*
X1638427Y1267765D02*
D03*
X1635430Y1883639D02*
D03*
X1632280Y3324631D02*
D03*
X1631366Y2065909D02*
D03*
X1628394Y3378073D02*
D03*
X1606906Y2716098D02*
D03*
X1604315Y5286985D02*
D03*
X1561363Y1755191D02*
D03*
X1545107Y3996969D02*
D03*
X1540408Y4984775D02*
D03*
X1535608Y6039079D02*
D03*
X1527226Y2063674D02*
D03*
X1503985Y1069492D02*
D03*
X1503324Y1185723D02*
D03*
Y1128928D02*
D03*
X1499083Y4361688D02*
D03*
X1489685Y3997630D02*
D03*
X1472565Y1879244D02*
D03*
X1464132Y5341137D02*
D03*
X1446530Y1068832D02*
D03*
X1445870Y1185062D02*
D03*
Y1128268D02*
D03*
X1417574Y5757240D02*
D03*
X1413815Y392684D02*
D03*
X1396898Y1441272D02*
D03*
X135738Y5233365D02*
D03*
X1325499Y6035675D02*
D03*
X132410Y3814318D02*
D03*
X130454Y3616198D02*
D03*
X128524Y2507183D02*
D03*
X1262583Y700862D02*
D03*
X1262304Y754380D02*
D03*
X1258595Y1522527D02*
D03*
X1255700Y1469263D02*
D03*
X1240892Y3378073D02*
D03*
Y3314141D02*
D03*
X1230249Y2893085D02*
D03*
X1228598Y2817927D02*
D03*
X1214958Y5452593D02*
D03*
X1213104Y3946957D02*
D03*
X1211809Y5298973D02*
D03*
X1211555Y3893134D02*
D03*
X1210234Y5398414D02*
D03*
X1209980Y4108221D02*
D03*
X1209523Y4163187D02*
D03*
X1201166Y5187391D02*
D03*
X1147699Y6035675D02*
D03*
X1138453Y685343D02*
D03*
X1137107Y751484D02*
D03*
X113944Y6015660D02*
D03*
X112217Y211836D02*
D03*
X111277Y2358517D02*
D03*
X1095146Y2263165D02*
D03*
X1067511Y750646D02*
D03*
X1066978Y686029D02*
D03*
X101321Y100736D02*
D03*
X969899Y6035675D02*
D03*
X948766Y2143658D02*
D03*
X943559Y2199538D02*
D03*
X938759Y1063777D02*
D03*
X936600Y961796D02*
D03*
X911809Y4079138D02*
D03*
X910565Y4144137D02*
D03*
X909015Y124028D02*
D03*
X89662Y2198370D02*
D03*
X862559Y1063777D02*
D03*
X860400Y961796D02*
D03*
X856158Y116815D02*
D03*
X83236Y3705758D02*
D03*
X81890Y3266592D02*
D03*
Y3047136D02*
D03*
X792099Y6035675D02*
D03*
X79248Y5589753D02*
D03*
X79223Y2889936D02*
D03*
X77902Y5373446D02*
D03*
Y5155794D02*
D03*
X76581Y5855462D02*
D03*
X76556Y2649601D02*
D03*
X752069Y3645281D02*
D03*
X75209Y4991557D02*
D03*
Y4611040D02*
D03*
Y4424096D02*
D03*
X746354Y856463D02*
D03*
X741528Y4642256D02*
D03*
X73889Y3963467D02*
D03*
X73609Y1749704D02*
D03*
Y1554734D02*
D03*
Y937616D02*
D03*
Y322326D02*
D03*
X7297318Y129896D02*
D03*
X7287616Y1376807D02*
D03*
X7268058Y1689608D02*
D03*
X7265391Y1505331D02*
D03*
X7262368Y1116559D02*
D03*
X7244867Y726161D02*
D03*
X722909Y3357118D02*
D03*
X722808Y3296133D02*
D03*
X7222795Y6033008D02*
D03*
X7209460Y5450891D02*
D03*
Y5273091D02*
D03*
X7205548Y1911020D02*
D03*
X7204227Y1964360D02*
D03*
X72568Y3414700D02*
D03*
X72542Y4803292D02*
D03*
Y4159733D02*
D03*
X718795Y5936894D02*
D03*
X7178599Y3510356D02*
D03*
X7128688Y926389D02*
D03*
X7128383Y3185185D02*
D03*
X7127621Y3302076D02*
D03*
X7127088Y3787470D02*
D03*
X7124827Y2865425D02*
D03*
X7124802Y3384906D02*
D03*
Y3023006D02*
D03*
X7124370Y4174947D02*
D03*
X7116699Y120193D02*
D03*
X7112813Y1238910D02*
D03*
X7107225Y1525397D02*
D03*
X7104964Y4402506D02*
D03*
X7084416Y4058615D02*
D03*
X7083374Y3904894D02*
D03*
X7082561Y3982618D02*
D03*
X7079717Y3663188D02*
D03*
X7077507Y3506724D02*
D03*
X7075043Y3186176D02*
D03*
X7071487Y3785057D02*
D03*
Y3382874D02*
D03*
Y2865272D02*
D03*
X7071462Y3022371D02*
D03*
X7071436Y3302076D02*
D03*
X7071411Y4181424D02*
D03*
X71196Y1277010D02*
D03*
Y543966D02*
D03*
X7044995Y6033008D02*
D03*
X7031660Y5450891D02*
D03*
Y5273091D02*
D03*
X7031126Y4064432D02*
D03*
X7025056Y3521075D02*
D03*
X7023456Y3900475D02*
D03*
X7021830Y3665830D02*
D03*
Y3584423D02*
D03*
X7021728Y3184423D02*
D03*
X7018147Y2388438D02*
D03*
Y4184421D02*
D03*
Y3984422D02*
D03*
Y3784422D02*
D03*
Y3384423D02*
D03*
Y3304438D02*
D03*
Y3024429D02*
D03*
Y2864434D02*
D03*
Y2584425D02*
D03*
X7017741Y2449271D02*
D03*
X6970801Y2184273D02*
D03*
X6970776Y2093595D02*
D03*
X6969074Y735863D02*
D03*
X6963918Y4483532D02*
D03*
X6953555Y1120445D02*
D03*
X6940093Y4612234D02*
D03*
X6934124Y1378763D02*
D03*
X693420Y88671D02*
D03*
X69774Y2032914D02*
D03*
X692252Y858444D02*
D03*
X6910172Y4462805D02*
D03*
X6906031Y2185086D02*
D03*
X6906006Y2094408D02*
D03*
X6899453Y5891505D02*
D03*
X6893433Y6031687D02*
D03*
X6888607Y3904437D02*
D03*
X6884162Y2800452D02*
D03*
X6881749Y2653894D02*
D03*
X6879311Y2728392D02*
D03*
X6875856Y129896D02*
D03*
X6871208Y3593160D02*
D03*
X6868414Y2461717D02*
D03*
Y2392045D02*
D03*
X6867525Y3782212D02*
D03*
X6852615Y3981806D02*
D03*
X685419Y4648937D02*
D03*
X6841744Y4460367D02*
D03*
X6833794Y4825492D02*
D03*
Y4607763D02*
D03*
X6822999Y4065143D02*
D03*
X6822237Y5693893D02*
D03*
X6817639Y2393772D02*
D03*
X6817614Y2462022D02*
D03*
X6816192Y1983943D02*
D03*
X6815353Y2802077D02*
D03*
X6814210Y3784244D02*
D03*
X6812128Y3588283D02*
D03*
X6807175Y3381096D02*
D03*
X6797929Y3985844D02*
D03*
X6785077Y4458335D02*
D03*
X6781673Y3166008D02*
D03*
X6769710Y4067886D02*
D03*
X6761912Y2728392D02*
D03*
X6760286Y2663622D02*
D03*
X6757848Y3783432D02*
D03*
X6756248Y3589909D02*
D03*
X6753936Y5894172D02*
D03*
X6753835Y3382620D02*
D03*
X6744589Y3984422D02*
D03*
X6744106Y2802890D02*
D03*
X6716090Y4857826D02*
D03*
Y4728083D02*
D03*
X6715633Y6031687D02*
D03*
X6702806Y2260397D02*
D03*
X6701993Y2187524D02*
D03*
X6692544Y4980508D02*
D03*
X6691782Y1428725D02*
D03*
X6690030Y4619955D02*
D03*
X6644437Y5693893D02*
D03*
X6624066Y1033196D02*
D03*
X6623406Y905612D02*
D03*
X662686Y5940908D02*
D03*
X6615049Y4184421D02*
D03*
Y3784422D02*
D03*
Y3584423D02*
D03*
Y3384423D02*
D03*
Y3024429D02*
D03*
Y2864434D02*
D03*
X6611823Y2584425D02*
D03*
X660502Y3391586D02*
D03*
X6590335Y4105123D02*
D03*
X6576670Y3187827D02*
D03*
X6572682Y1035101D02*
D03*
X6572021Y907517D02*
D03*
X6571666Y4995367D02*
D03*
X6561709Y3585540D02*
D03*
Y3385058D02*
D03*
Y3024759D02*
D03*
X6561557Y2865577D02*
D03*
X6557874Y3785870D02*
D03*
X6537833Y6031687D02*
D03*
X6537630Y4180307D02*
D03*
X6535471Y4105123D02*
D03*
X6527267Y2700147D02*
D03*
X6521882Y1035228D02*
D03*
X6521221Y907644D02*
D03*
X6508471Y2870937D02*
D03*
X6504686Y3789909D02*
D03*
X6503949Y3588436D02*
D03*
X6502806Y3021635D02*
D03*
X6495948Y3153131D02*
D03*
X6493281Y3099841D02*
D03*
X6489954Y4439310D02*
D03*
X6485534Y5158867D02*
D03*
X6484290Y4181577D02*
D03*
X6444285Y5464734D02*
D03*
X6442583Y559232D02*
D03*
X6439789Y3179394D02*
D03*
X643509Y3646272D02*
D03*
X6390437Y3838372D02*
D03*
X6385611Y1037869D02*
D03*
X6378931Y909625D02*
D03*
X6370371Y4180307D02*
D03*
X6360033Y6031687D02*
D03*
X6330899Y5904840D02*
D03*
X6328207Y5795366D02*
D03*
X6317234Y4184980D02*
D03*
X6313881Y5640426D02*
D03*
X6301435Y909625D02*
D03*
X6298768Y1037209D02*
D03*
X6253404Y580746D02*
D03*
X6240170Y4395191D02*
D03*
X6220003Y4689627D02*
D03*
X6216472Y6033033D02*
D03*
X6197549Y972210D02*
D03*
X6196559Y1031850D02*
D03*
X6194552Y908279D02*
D03*
X6189701Y3130093D02*
D03*
X6188431Y4967935D02*
D03*
X6188227Y4890668D02*
D03*
X6187415Y4828337D02*
D03*
X6187288Y5551068D02*
D03*
X6183554Y4520286D02*
D03*
X6166968Y5034255D02*
D03*
X6155461Y4722343D02*
D03*
X6154344Y1984096D02*
D03*
X6153099Y5904840D02*
D03*
X6150407Y5795366D02*
D03*
X6145606Y5463337D02*
D03*
X6130087Y972210D02*
D03*
X6129757Y1035202D02*
D03*
X6127090Y908279D02*
D03*
X6121806Y5555082D02*
D03*
X6103214Y5034788D02*
D03*
X6091580Y5167224D02*
D03*
X608432Y3403194D02*
D03*
X6077483Y2831643D02*
D03*
X6066333Y4235399D02*
D03*
X6053582Y904367D02*
D03*
X6039714Y765785D02*
D03*
X6038672Y6033033D02*
D03*
X6032297Y1489634D02*
D03*
X5998312Y4234180D02*
D03*
X5997905Y2296262D02*
D03*
X5994552Y906475D02*
D03*
X5959678Y2000504D02*
D03*
X5951728Y2050694D02*
D03*
X5925490Y5661101D02*
D03*
X5924626Y5929274D02*
D03*
X5921858Y950214D02*
D03*
X5921223Y1230401D02*
D03*
X5920537Y1005434D02*
D03*
X5919724Y1173455D02*
D03*
Y896899D02*
D03*
X5919318Y2389505D02*
D03*
X5907354Y5358181D02*
D03*
X5890692Y736651D02*
D03*
X5885917Y4311371D02*
D03*
X5884799Y5964758D02*
D03*
X5872759Y1293266D02*
D03*
X5860872Y6033033D02*
D03*
X5850941Y2003323D02*
D03*
X5849722Y1933321D02*
D03*
X5839790Y5930316D02*
D03*
X5831738Y3347898D02*
D03*
X582346Y3324631D02*
D03*
X5813247Y5491607D02*
D03*
X5805957Y4403268D02*
D03*
X5799861Y499288D02*
D03*
X5799734Y1221715D02*
D03*
X5797118Y5968797D02*
D03*
X5796966Y2002790D02*
D03*
X5795543Y1285824D02*
D03*
X5758459Y1843049D02*
D03*
X5758028Y5932500D02*
D03*
X5753583Y5358765D02*
D03*
X5747842Y5655818D02*
D03*
X5742508Y5427091D02*
D03*
X5738647Y5501361D02*
D03*
X5729046Y2666898D02*
D03*
X5722874Y1024788D02*
D03*
X5720182Y966013D02*
D03*
X572541Y1933651D02*
D03*
X5719724Y1170457D02*
D03*
Y907263D02*
D03*
X5719394Y1228395D02*
D03*
X5717464Y1286002D02*
D03*
X571906Y820064D02*
D03*
X5700928Y1846148D02*
D03*
X5696026Y5698007D02*
D03*
X5695239Y5931611D02*
D03*
X5687339Y2100986D02*
D03*
X5683072Y6033033D02*
D03*
X5679313Y4023284D02*
D03*
X568376Y2233752D02*
D03*
X5678475Y4113174D02*
D03*
X5672836Y3469132D02*
D03*
X5672328Y3919753D02*
D03*
Y3821659D02*
D03*
Y3719855D02*
D03*
Y3619043D02*
D03*
X5671922Y4269638D02*
D03*
X5668366Y4214419D02*
D03*
X5667172Y3526765D02*
D03*
X5644845Y5679542D02*
D03*
X5636641Y1290345D02*
D03*
X5636590Y1235253D02*
D03*
X5629961Y5413324D02*
D03*
X5626710Y5468798D02*
D03*
X5625948Y5929503D02*
D03*
X5623128Y4018966D02*
D03*
X5622341Y4114216D02*
D03*
X5621782Y3924833D02*
D03*
X5621477Y3817391D02*
D03*
X5619318Y3722827D02*
D03*
X5616956Y3625494D02*
D03*
X5605932Y1016127D02*
D03*
X5604434Y1849450D02*
D03*
X5602580Y956666D02*
D03*
X5601487Y1902714D02*
D03*
X5599735Y898804D02*
D03*
X5599201Y5982538D02*
D03*
X5593334Y2099462D02*
D03*
X5583047Y3468751D02*
D03*
X5579161Y3519424D02*
D03*
X5572328Y4018382D02*
D03*
X5571947Y3575888D02*
D03*
X5571541Y4114749D02*
D03*
X5571211Y4271239D02*
D03*
Y4220439D02*
D03*
Y4169639D02*
D03*
X5570855Y3821836D02*
D03*
X5569407Y3922547D02*
D03*
X5568671Y3718890D02*
D03*
X5566156Y3626358D02*
D03*
X5538470Y5989041D02*
D03*
X5520741Y4019372D02*
D03*
X5519928Y3820236D02*
D03*
X5518658Y3920211D02*
D03*
X5517617Y3722497D02*
D03*
X5516931Y1179881D02*
D03*
X5516626Y1234719D02*
D03*
X5514391Y5940146D02*
D03*
X5497119Y2678379D02*
D03*
X5483682Y1020115D02*
D03*
X5479720Y902894D02*
D03*
X5478983Y965352D02*
D03*
X5475554Y4117061D02*
D03*
X5475402Y4169664D02*
D03*
X5474716Y4271239D02*
D03*
Y3617849D02*
D03*
X5474640Y4064991D02*
D03*
X5474360Y3517163D02*
D03*
X5473471Y4220439D02*
D03*
X5472557Y3669640D02*
D03*
X5470931Y3466465D02*
D03*
X5469230Y3824300D02*
D03*
X5468925Y4012692D02*
D03*
X5467528Y3567557D02*
D03*
X5467299Y3921074D02*
D03*
X5466563Y3725418D02*
D03*
X5461533Y5789041D02*
D03*
X5446979Y5657469D02*
D03*
X5439715Y1175588D02*
D03*
X5437556Y1235227D02*
D03*
X5416931Y3819881D02*
D03*
X5415712Y3919372D02*
D03*
X5412867Y2047646D02*
D03*
X5412842Y2099462D02*
D03*
X5410276Y2155774D02*
D03*
Y1993036D02*
D03*
X5408117Y2212975D02*
D03*
X5407787Y6000445D02*
D03*
X5399735Y898017D02*
D03*
X5394757Y957123D02*
D03*
X5393411Y1013257D02*
D03*
X5387848Y5936158D02*
D03*
X5379441Y3564560D02*
D03*
X5379060Y4221632D02*
D03*
X5378831Y4170832D02*
D03*
X5378475Y4276903D02*
D03*
X5376393Y3869004D02*
D03*
X5375326Y4120134D02*
D03*
X5374894Y3462757D02*
D03*
X5374843Y3513963D02*
D03*
X5372481Y3719627D02*
D03*
Y3668827D02*
D03*
Y3618027D02*
D03*
X5371668Y4017315D02*
D03*
X5370728Y4068115D02*
D03*
X537540Y4623333D02*
D03*
X5364074Y5277764D02*
D03*
X5363566Y5216576D02*
D03*
X5361635Y5370068D02*
D03*
X5357597Y5980582D02*
D03*
X5354091Y1217346D02*
D03*
X5323840Y3865575D02*
D03*
X5323383Y1170457D02*
D03*
X5312791Y495681D02*
D03*
X5296052Y5982208D02*
D03*
X5277993Y3512464D02*
D03*
X5277256Y3614064D02*
D03*
X5277231Y5932297D02*
D03*
X5276825Y3563264D02*
D03*
X5273827Y4067251D02*
D03*
X5272329Y4012667D02*
D03*
Y3719627D02*
D03*
X5271922Y4225925D02*
D03*
X5271897Y3668827D02*
D03*
X5271846Y3859606D02*
D03*
X5270830Y4119651D02*
D03*
X5269255Y4173499D02*
D03*
X525983Y5922035D02*
D03*
X5249469Y5287366D02*
D03*
X5248250Y5420233D02*
D03*
X5236845Y5799150D02*
D03*
X522986Y3524275D02*
D03*
X522783Y83261D02*
D03*
X5221072Y3857752D02*
D03*
X5200371Y1023798D02*
D03*
X5199736Y767055D02*
D03*
X5199126Y1170584D02*
D03*
X5197653Y970509D02*
D03*
Y909701D02*
D03*
X5196611Y1277264D02*
D03*
X5195418Y1223924D02*
D03*
X5190312Y5419166D02*
D03*
X5189169Y5365826D02*
D03*
X5187874Y5472455D02*
D03*
X5187848Y5525922D02*
D03*
X5178476Y4122217D02*
D03*
X5175783Y4070782D02*
D03*
X5175733Y5798033D02*
D03*
X5175148Y3462757D02*
D03*
X5174564Y3513557D02*
D03*
X5173904Y4225849D02*
D03*
X5173040Y5982132D02*
D03*
X5172354Y3719627D02*
D03*
Y3668827D02*
D03*
X5171973Y6035472D02*
D03*
X5170145Y4276522D02*
D03*
X5170018Y3857701D02*
D03*
X5169764Y3564153D02*
D03*
X5167300Y4020693D02*
D03*
X5167097Y3615309D02*
D03*
X514452Y4806874D02*
D03*
X513385Y271120D02*
D03*
X5128285Y3817925D02*
D03*
X5128184Y3913048D02*
D03*
X5121097Y6006821D02*
D03*
X5100269Y761644D02*
D03*
X5080584Y3725824D02*
D03*
X5079111Y3568268D02*
D03*
X5078324Y3517468D02*
D03*
X5077384Y4019652D02*
D03*
X5077308Y3816325D02*
D03*
X5077257Y3912387D02*
D03*
X5076952Y4271899D02*
D03*
X5076292Y3618992D02*
D03*
X5074158Y3462807D02*
D03*
X5072634Y4070248D02*
D03*
X5071948Y4121252D02*
D03*
X5070475Y5471643D02*
D03*
X5070170Y3671189D02*
D03*
X5069662Y5418303D02*
D03*
X5067859Y5526278D02*
D03*
X5067808Y6004001D02*
D03*
X5066614Y5365039D02*
D03*
X5062195Y4172280D02*
D03*
X5060925Y4223080D02*
D03*
X5060671Y5950712D02*
D03*
X5058791Y377546D02*
D03*
X5047082Y1008710D02*
D03*
X5044034Y955446D02*
D03*
X5041849Y902132D02*
D03*
X5035499Y767359D02*
D03*
X5026685Y3820744D02*
D03*
X5026635Y4022268D02*
D03*
X5026584Y3916121D02*
D03*
X5024069Y3718712D02*
D03*
X5014341Y6000242D02*
D03*
X5012715Y1237259D02*
D03*
X5012030Y1294689D02*
D03*
X5010709Y1179119D02*
D03*
X5009363Y1347978D02*
D03*
X4975885Y4019652D02*
D03*
Y3919652D02*
D03*
Y3819652D02*
D03*
X4975301Y3621405D02*
D03*
X4974133Y3568776D02*
D03*
X4973752Y4117950D02*
D03*
X4972939Y3715385D02*
D03*
X4972914Y3467075D02*
D03*
X4972837Y3517976D02*
D03*
X4965522Y4275328D02*
D03*
X4960671Y6000013D02*
D03*
X4960442Y4224528D02*
D03*
X4960366Y4172382D02*
D03*
X4953051Y5419700D02*
D03*
X4952594Y5302479D02*
D03*
X4951197Y5776468D02*
D03*
X4950790Y5366385D02*
D03*
X4950638Y5472989D02*
D03*
X4947844Y5929376D02*
D03*
Y5526278D02*
D03*
X4925543Y3826561D02*
D03*
X4923790Y4025290D02*
D03*
X4922342Y3913226D02*
D03*
Y3710788D02*
D03*
X4922063Y4112768D02*
D03*
X4920082Y242595D02*
D03*
X4919853Y3626510D02*
D03*
X4919497Y5685714D02*
D03*
X4897450Y6023559D02*
D03*
X4873066Y3464865D02*
D03*
X4872888Y3518306D02*
D03*
X4872330Y4272178D02*
D03*
Y4217111D02*
D03*
X4868774Y3919652D02*
D03*
Y3819652D02*
D03*
Y3719652D02*
D03*
Y3618865D02*
D03*
X4868520Y4114902D02*
D03*
X4865497Y4018102D02*
D03*
X4834052Y1288593D02*
D03*
X4831613Y5419674D02*
D03*
X4830801Y5473014D02*
D03*
X4828667Y5366410D02*
D03*
X4827956Y5983681D02*
D03*
X4827854Y5929376D02*
D03*
Y5526278D02*
D03*
X4827422Y6037021D02*
D03*
X4774082Y6030824D02*
D03*
X4740656Y4401312D02*
D03*
Y3337966D02*
D03*
X4731639Y4029862D02*
D03*
X4728337Y3619627D02*
D03*
X4727372Y3869639D02*
D03*
X4711802Y5366334D02*
D03*
X4710125Y5419649D02*
D03*
X4707865Y5929376D02*
D03*
Y5526278D02*
D03*
X4707712Y5472938D02*
D03*
X4707077Y5982716D02*
D03*
X4704131Y6035980D02*
D03*
X468732Y4494378D02*
D03*
X4679467Y4080078D02*
D03*
X4656099Y657504D02*
D03*
X4653178Y448005D02*
D03*
X4649953Y602386D02*
D03*
X4648937Y4144924D02*
D03*
X4647667Y6034126D02*
D03*
X464439Y5782310D02*
D03*
X4627829Y2465553D02*
D03*
X4627220Y2863698D02*
D03*
Y2586457D02*
D03*
X4614469Y1224331D02*
D03*
X4612945Y560527D02*
D03*
X4606874Y416712D02*
D03*
X4591863Y955523D02*
D03*
X4590313Y5472989D02*
D03*
X4589069Y5363489D02*
D03*
X4588688Y5419649D02*
D03*
X4587850Y5929376D02*
D03*
Y5526278D02*
D03*
X4586656Y6036031D02*
D03*
X4585767Y5982691D02*
D03*
X4581576Y4182440D02*
D03*
X4565421Y244348D02*
D03*
X4563110Y368808D02*
D03*
X4542511Y1999336D02*
D03*
Y1610639D02*
D03*
X4529633Y6039714D02*
D03*
X4527398Y4247185D02*
D03*
X4509033Y368148D02*
D03*
X448234Y904265D02*
D03*
X4470806Y5366258D02*
D03*
X4470171Y6035954D02*
D03*
X4469816Y5419598D02*
D03*
X4468876Y5472938D02*
D03*
X4467860Y5929376D02*
D03*
Y5526278D02*
D03*
X4466819Y5982716D02*
D03*
X4458233Y368148D02*
D03*
X4427449Y2307895D02*
D03*
X4411980Y6035853D02*
D03*
X4374439Y442011D02*
D03*
X437439Y489458D02*
D03*
X4367657Y251689D02*
D03*
X4349852Y5419598D02*
D03*
X4348607Y5982716D02*
D03*
X4348251Y5359197D02*
D03*
X4348226Y5472938D02*
D03*
X4347845Y5929376D02*
D03*
Y5526278D02*
D03*
X4344873Y6038342D02*
D03*
X4338980Y4395876D02*
D03*
X434213Y724560D02*
D03*
Y611835D02*
D03*
X4320870Y2230679D02*
D03*
X4306545Y4475150D02*
D03*
X4296664Y3687851D02*
D03*
X4294099Y3800881D02*
D03*
X4284701Y3308477D02*
D03*
X4281576Y4183913D02*
D03*
X4278198Y4024554D02*
D03*
X4268394Y3461918D02*
D03*
X425933Y2261133D02*
D03*
Y3558438D02*
D03*
X4249242Y3543732D02*
D03*
X4248125Y3944671D02*
D03*
Y3864661D02*
D03*
X4246982Y1600708D02*
D03*
X4245788Y4360088D02*
D03*
X4241851Y4771161D02*
D03*
X423697Y152756D02*
D03*
X4217162Y4524273D02*
D03*
X4170299Y6035675D02*
D03*
X4168546Y2234692D02*
D03*
X4164178Y3657397D02*
D03*
X4161307Y3829685D02*
D03*
X4142207Y261036D02*
D03*
X414071Y5924880D02*
D03*
X4104640Y3499282D02*
D03*
X4102278Y3987927D02*
D03*
X4097858Y3658489D02*
D03*
X4097376Y3830447D02*
D03*
X4080027Y585927D02*
D03*
X4067683Y1510005D02*
D03*
X4066692Y1764132D02*
D03*
X4065448Y232918D02*
D03*
X4064051Y945134D02*
D03*
X4064025Y1911096D02*
D03*
X4062222Y1106805D02*
D03*
X4060419Y1346556D02*
D03*
X4043426Y3505048D02*
D03*
X4039387Y4219524D02*
D03*
X4038092Y4149344D02*
D03*
X4037736Y3829660D02*
D03*
X4037559Y3339516D02*
D03*
X4036771Y3910635D02*
D03*
X4036212Y3578149D02*
D03*
X4035908Y3661918D02*
D03*
X4035171Y3266211D02*
D03*
X4032580Y3990645D02*
D03*
X4031285Y2036242D02*
D03*
X4030472Y2099361D02*
D03*
X4028415Y2912720D02*
D03*
X4024071Y369392D02*
D03*
X4010812Y231038D02*
D03*
X3992499Y6035675D02*
D03*
X3991483Y1510005D02*
D03*
X3987851Y945134D02*
D03*
X3986022Y1106805D02*
D03*
X3984219Y1346556D02*
D03*
X3977183Y3984371D02*
D03*
X3976548Y3420694D02*
D03*
X3974617Y3501339D02*
D03*
X3969512Y4065727D02*
D03*
X3958336Y2098523D02*
D03*
X3957498Y2033778D02*
D03*
X3950386Y4238473D02*
D03*
X3940988Y3667862D02*
D03*
Y3254070D02*
D03*
X3940886Y3805911D02*
D03*
X391947Y1881784D02*
D03*
X3905555Y3991915D02*
D03*
X3905047Y4304995D02*
D03*
X3902913Y3501949D02*
D03*
X3902126Y2904592D02*
D03*
X3899205Y3182874D02*
D03*
X3888664Y2097710D02*
D03*
X3887013Y2030501D02*
D03*
X3871493Y5878982D02*
D03*
X3868801Y4232478D02*
D03*
X3865804Y596290D02*
D03*
X3860851Y3820617D02*
D03*
X3859860Y3664763D02*
D03*
X3852367Y745338D02*
D03*
X3847033Y3270250D02*
D03*
X3841928Y3990492D02*
D03*
X3840886Y4143273D02*
D03*
X3814699Y6035675D02*
D03*
X3813124Y598551D02*
D03*
X3801593Y747243D02*
D03*
X3792220Y3821633D02*
D03*
Y3667709D02*
D03*
X3789909Y4227601D02*
D03*
X3781476Y3271952D02*
D03*
X3780409Y3578504D02*
D03*
Y3505124D02*
D03*
X3779774Y3987876D02*
D03*
X3778428Y3908908D02*
D03*
X3777183Y3350235D02*
D03*
X3776599Y2369617D02*
D03*
X3775710Y4144747D02*
D03*
X3775456Y3426435D02*
D03*
X3769131Y2228469D02*
D03*
X3766795Y5219014D02*
D03*
X3750539Y2597760D02*
D03*
X373507Y1373480D02*
D03*
X3728136Y3823157D02*
D03*
Y3666185D02*
D03*
X3724580Y2307895D02*
D03*
X372466Y4918837D02*
D03*
X3718916Y4144620D02*
D03*
X3716274Y3583813D02*
D03*
X3715029Y3906825D02*
D03*
X3714369Y4224299D02*
D03*
X3713302Y3268802D02*
D03*
X3709365Y3350260D02*
D03*
X3709314Y2234870D02*
D03*
X3701313Y1808429D02*
D03*
X3670300Y842620D02*
D03*
X3667887Y617118D02*
D03*
X366954Y2718460D02*
D03*
X3655339Y4221124D02*
D03*
X3651504Y254991D02*
D03*
X3650894Y3831311D02*
D03*
X3650285Y3430702D02*
D03*
X3649624Y3581273D02*
D03*
X3649269Y3659657D02*
D03*
X3648227Y3509239D02*
D03*
X3647567Y3268167D02*
D03*
X3647110Y4061612D02*
D03*
X3644087Y3905428D02*
D03*
X3636899Y6035675D02*
D03*
X3636721Y1814500D02*
D03*
X363525Y1198118D02*
D03*
X3616655Y2017471D02*
D03*
X3611042Y5440045D02*
D03*
X3600704Y324079D02*
D03*
Y255930D02*
D03*
X3595141Y521132D02*
D03*
X3590696Y4229252D02*
D03*
X3590138Y4062425D02*
D03*
X3584169Y3432835D02*
D03*
X3582645Y4138016D02*
D03*
X3581298Y3269971D02*
D03*
X3581197Y3909873D02*
D03*
X3579190Y3355188D02*
D03*
X3548228Y5441671D02*
D03*
X3536544Y2940126D02*
D03*
X3535248Y5540477D02*
D03*
X3528263Y2395906D02*
D03*
X3525088Y600710D02*
D03*
X3524555Y2471166D02*
D03*
X3518332Y533806D02*
D03*
X351841Y4014114D02*
D03*
X3508527Y1702613D02*
D03*
X3497224Y5645379D02*
D03*
X3487090Y5444566D02*
D03*
X3480613Y974750D02*
D03*
X348234Y3258312D02*
D03*
X3459099Y6035675D02*
D03*
X3456864Y534492D02*
D03*
X3436264Y600710D02*
D03*
X3400019Y5072202D02*
D03*
X3388436Y4224731D02*
D03*
Y4144721D02*
D03*
Y4064711D02*
D03*
Y3984701D02*
D03*
Y3584651D02*
D03*
Y3504641D02*
D03*
Y3424631D02*
D03*
Y3264611D02*
D03*
X3371672Y2894457D02*
D03*
X3366719Y674395D02*
D03*
X3363874Y4917745D02*
D03*
X3352495Y5889117D02*
D03*
X3327451Y5105197D02*
D03*
X3323412Y4224731D02*
D03*
Y4064711D02*
D03*
Y3424631D02*
D03*
Y3264611D02*
D03*
X332461Y2446985D02*
D03*
X3318764Y1330630D02*
D03*
X3317265Y1267866D02*
D03*
X3316224Y2897124D02*
D03*
X3307791Y2377516D02*
D03*
X3305251Y668731D02*
D03*
X330505Y3398672D02*
D03*
X329387Y4569130D02*
D03*
X3281299Y6035675D02*
D03*
X3274771Y286715D02*
D03*
X3265424Y2897835D02*
D03*
X326619Y3802659D02*
D03*
X3258388Y4224731D02*
D03*
Y3904691D02*
D03*
Y3584651D02*
D03*
Y3264611D02*
D03*
X3257779Y3345713D02*
D03*
X324714Y5297754D02*
D03*
X324688Y3590950D02*
D03*
X3237128Y669417D02*
D03*
X323723Y868985D02*
D03*
X3225571Y5575706D02*
D03*
X3223895Y5645760D02*
D03*
X3218231Y5445760D02*
D03*
X3214675Y2895143D02*
D03*
X3210611Y5105197D02*
D03*
X3205607Y3179318D02*
D03*
X3193364Y4224731D02*
D03*
Y4064711D02*
D03*
Y3984701D02*
D03*
Y3904691D02*
D03*
Y3584651D02*
D03*
Y3504641D02*
D03*
Y3424631D02*
D03*
Y3264611D02*
D03*
X3181198Y1701241D02*
D03*
X3179928Y670077D02*
D03*
X3128340Y4224731D02*
D03*
Y4064711D02*
D03*
Y3904691D02*
D03*
Y3584651D02*
D03*
Y3424631D02*
D03*
Y3264611D02*
D03*
X3119222Y1798269D02*
D03*
X3112948Y334391D02*
D03*
X3105683Y452272D02*
D03*
X3103499Y6035675D02*
D03*
X3098267Y3059100D02*
D03*
X309778Y1367612D02*
D03*
X3063850Y5518861D02*
D03*
X3063316Y4224731D02*
D03*
Y3904691D02*
D03*
Y3584651D02*
D03*
Y3264611D02*
D03*
X3061259Y5456707D02*
D03*
X305257Y3120923D02*
D03*
X3047289Y4885157D02*
D03*
X3042158Y3059100D02*
D03*
X302565Y2714981D02*
D03*
X3006242Y2289327D02*
D03*
X3006217Y2168322D02*
D03*
X3004185Y5535651D02*
D03*
X2998292Y4224731D02*
D03*
Y4144721D02*
D03*
Y3984701D02*
D03*
Y3904691D02*
D03*
Y3584651D02*
D03*
Y3504641D02*
D03*
Y3344621D02*
D03*
Y3264611D02*
D03*
X300025Y1034796D02*
D03*
X2993542Y2425294D02*
D03*
X2987980Y282778D02*
D03*
X297485Y2198370D02*
D03*
X2965145Y1797025D02*
D03*
X2963596Y925601D02*
D03*
X2962021Y3059100D02*
D03*
X2951074Y4885157D02*
D03*
X2933268Y4224731D02*
D03*
Y3904691D02*
D03*
Y3584651D02*
D03*
Y3264611D02*
D03*
X293599Y96850D02*
D03*
X2925699Y6035675D02*
D03*
X2911373Y5179263D02*
D03*
X2910383Y929411D02*
D03*
X2906370Y3059938D02*
D03*
X2902382Y1798523D02*
D03*
X2897911Y2425294D02*
D03*
X2895676Y2293061D02*
D03*
Y2169058D02*
D03*
X2873731Y5125060D02*
D03*
X2868244Y4064711D02*
D03*
Y3904691D02*
D03*
Y3584651D02*
D03*
Y3424631D02*
D03*
X2857475Y936295D02*
D03*
X2812898Y5827649D02*
D03*
X2809773Y5113401D02*
D03*
Y2926359D02*
D03*
X2805100Y2863291D02*
D03*
X2803220Y4064711D02*
D03*
Y3984701D02*
D03*
Y3904691D02*
D03*
Y3584651D02*
D03*
Y3504641D02*
D03*
Y3424631D02*
D03*
X2773223Y1821485D02*
D03*
X2764028Y5638698D02*
D03*
X276123Y1879854D02*
D03*
X2747899Y6035675D02*
D03*
X2734005Y4910277D02*
D03*
X2732278Y5315661D02*
D03*
X2729789Y922172D02*
D03*
X2725725Y5138115D02*
D03*
X2720619Y1812595D02*
D03*
X271043Y5324602D02*
D03*
X2684374Y276936D02*
D03*
X2681656Y397637D02*
D03*
X2678913Y511988D02*
D03*
X2667025Y923671D02*
D03*
X2633574Y276936D02*
D03*
X2630856Y397637D02*
D03*
X2628113Y511988D02*
D03*
X2626614Y4668901D02*
D03*
X2617368Y2979090D02*
D03*
X2615717Y3039745D02*
D03*
X2570353Y2403958D02*
D03*
X2570099Y6035675D02*
D03*
X256667Y4016477D02*
D03*
X2560091Y5566461D02*
D03*
X2553868Y2979090D02*
D03*
X2552217Y3039745D02*
D03*
X2545207Y2117065D02*
D03*
D133*
X2230323Y5077536D02*
D03*
X2228418Y5167351D02*
D03*
X2157628Y5167808D02*
D03*
X2149551Y5079441D02*
D03*
X2041627Y4135526D02*
D03*
Y4023868D02*
D03*
Y3922903D02*
D03*
X1978609Y5335473D02*
D03*
X1908454Y4137101D02*
D03*
Y4031005D02*
D03*
Y3927018D02*
D03*
X1877517Y5285232D02*
D03*
X1827428Y4135730D02*
D03*
X1825422Y4031869D02*
D03*
X1823999Y3923995D02*
D03*
X735457Y1508989D02*
D03*
Y1300404D02*
D03*
X732130Y1403020D02*
D03*
X725957Y4149039D02*
D03*
Y3940454D02*
D03*
X722630Y4043070D02*
D03*
X722173Y2854655D02*
D03*
Y2646070D02*
D03*
X718845Y2748686D02*
D03*
X716458Y5454828D02*
D03*
Y5246243D02*
D03*
X713130Y5348859D02*
D03*
X660375Y1505204D02*
D03*
X659790Y1405128D02*
D03*
X657885Y1298194D02*
D03*
X651281Y2749855D02*
D03*
X649376Y2642921D02*
D03*
X646151Y2852776D02*
D03*
X621411Y4147160D02*
D03*
X620827Y4047084D02*
D03*
X618922Y3940150D02*
D03*
X611911Y5452948D02*
D03*
X611327Y5352872D02*
D03*
X609422Y5245938D02*
D03*
X576758Y1508989D02*
D03*
X575843Y2854655D02*
D03*
X574853Y2641803D02*
D03*
X574751Y1405128D02*
D03*
X573837Y2750795D02*
D03*
X573329Y1297254D02*
D03*
X515925Y4150944D02*
D03*
X513918Y4047084D02*
D03*
X512496Y3939210D02*
D03*
X506425Y5456733D02*
D03*
X504419Y5352872D02*
D03*
X502996Y5244998D02*
D03*
X3090418Y1465301D02*
D03*
X2993492Y1467180D02*
D03*
Y1258595D02*
D03*
X2990164Y1361211D02*
D03*
X2984957Y1155421D02*
D03*
X2888945Y1465301D02*
D03*
X2888361Y1365225D02*
D03*
X2886456Y1258291D02*
D03*
X2880411Y1153541D02*
D03*
X2783459Y1469085D02*
D03*
X2781452Y1365225D02*
D03*
X2780030Y1257351D02*
D03*
X2682723Y1465301D02*
D03*
X2680716Y1361440D02*
D03*
X2679294Y1253566D02*
D03*
D134*
X1441120Y3294507D02*
D03*
X1433093Y3010129D02*
D03*
X1032408Y220878D02*
D03*
X694741Y206172D02*
D03*
X3450666Y1978736D02*
D03*
X3444672Y2319807D02*
D03*
%TF.MD5,67ca0996840f1edf44424f4191fe930b*%
M02*
