%TF.GenerationSoftware,Altium Limited,Altium Designer,25.7.1 (20)*%
G04 Layer_Color=7978172*
%FSLAX45Y45*%
%MOMM*%
%TF.SameCoordinates,1AA72D45-9F13-4BD8-B423-63960E99F270*%
%TF.FilePolarity,Positive*%
%TF.FileFunction,Legend,Bot*%
%TF.Part,Single*%
G01*
G75*
%TA.AperFunction,NonConductor*%
%ADD91C,0.12700*%
%ADD92C,0.20320*%
%ADD93C,0.15000*%
%ADD94C,0.15240*%
%ADD95C,0.25400*%
%ADD96C,0.10160*%
D91*
X1296460Y4012605D02*
G03*
X1296460Y4012605I-15705J0D01*
G01*
X1477562Y4040715D02*
G03*
X1300554Y4005913I-71103J-105905D01*
G01*
X1357506Y4041754D01*
X1355740Y4051853D02*
X1357506Y4041754D01*
X1417320Y4053840D01*
X1353613Y4064024D02*
X1357506Y4041754D01*
X1417320Y4053840D02*
X1477562Y4040715D01*
X1442346Y3965050D02*
X1446938Y3938886D01*
X1353613Y4064024D02*
X1412655Y4075339D01*
X1417320Y4053840D01*
X1355740Y4051853D02*
X1415539Y4062046D01*
X1477562Y4040715D02*
X1518920Y3723640D01*
X1287216Y3982099D02*
X1498772Y4024410D01*
X1375883Y3951614D02*
X1442720Y3964940D01*
X1280444Y3887980D02*
X1337357Y3895051D01*
X1381191Y3926165D02*
X1446938Y3938886D01*
X1375883Y3951614D02*
X1381191Y3926165D01*
X1274430Y3927222D02*
X1280444Y3887980D01*
X1300554Y4005913D02*
X1394360Y3728574D01*
X1499884Y3717349D02*
X1506220Y3698240D01*
X1274430Y3927222D02*
X1323572Y3937122D01*
X1434204Y3704814D02*
X1518920Y3723640D01*
X3885970Y3845365D02*
X3888631Y3850685D01*
X3893951Y3856006D01*
X3899272Y3858667D01*
X3909913D01*
X3915234Y3856006D01*
X3920555Y3850685D01*
X3923215Y3845365D01*
X3925876Y3837383D01*
Y3824082D01*
X3923215Y3816101D01*
X3920555Y3810780D01*
X3915234Y3805459D01*
X3909913Y3802799D01*
X3899272D01*
X3893951Y3805459D01*
X3888631Y3810780D01*
X3885970Y3816101D01*
X3867614Y3845365D02*
Y3848025D01*
X3864953Y3853346D01*
X3862293Y3856006D01*
X3856972Y3858667D01*
X3846330D01*
X3841010Y3856006D01*
X3838349Y3853346D01*
X3835689Y3848025D01*
Y3842704D01*
X3838349Y3837383D01*
X3843670Y3829402D01*
X3870274Y3802799D01*
X3833029D01*
X3820525Y3848025D02*
X3815204Y3850685D01*
X3807223Y3858667D01*
Y3802799D01*
X3752951Y3858667D02*
X3779555Y3821421D01*
X3739649D01*
X3752951Y3858667D02*
Y3802799D01*
X7203440Y125718D02*
Y68580D01*
Y125718D02*
X7178952D01*
X7170790Y122997D01*
X7168069Y120276D01*
X7165348Y114834D01*
Y109393D01*
X7168069Y103951D01*
X7170790Y101230D01*
X7178952Y98509D01*
X7203440D02*
X7178952D01*
X7170790Y95788D01*
X7168069Y93068D01*
X7165348Y87626D01*
Y79463D01*
X7168069Y74022D01*
X7170790Y71301D01*
X7178952Y68580D01*
X7203440D01*
X7152560Y125718D02*
Y68580D01*
X7114468Y125718D02*
Y68580D01*
X7152560Y98509D02*
X7114468D01*
X7085083Y125718D02*
X7093246Y122997D01*
X7095967Y117555D01*
Y112114D01*
X7093246Y106672D01*
X7087804Y103951D01*
X7076921Y101230D01*
X7068758Y98509D01*
X7063317Y93068D01*
X7060596Y87626D01*
Y79463D01*
X7063317Y74022D01*
X7066037Y71301D01*
X7074200Y68580D01*
X7085083D01*
X7093246Y71301D01*
X7095967Y74022D01*
X7098688Y79463D01*
Y87626D01*
X7095967Y93068D01*
X7090525Y98509D01*
X7082363Y101230D01*
X7071479Y103951D01*
X7066037Y106672D01*
X7063317Y112114D01*
Y117555D01*
X7066037Y122997D01*
X7074200Y125718D01*
X7085083D01*
X7031483D02*
X7039645Y122997D01*
X7045087Y114834D01*
X7047808Y101230D01*
Y93068D01*
X7045087Y79463D01*
X7039645Y71301D01*
X7031483Y68580D01*
X7026041D01*
X7017879Y71301D01*
X7012437Y79463D01*
X7009716Y93068D01*
Y101230D01*
X7012437Y114834D01*
X7017879Y122997D01*
X7026041Y125718D01*
X7031483D01*
X6969720D02*
X6996928Y87626D01*
X6956115D01*
X6969720Y125718D02*
Y68580D01*
X1882140Y123178D02*
Y66040D01*
Y123178D02*
X1857652D01*
X1849490Y120457D01*
X1846769Y117736D01*
X1844048Y112294D01*
Y106853D01*
X1846769Y101411D01*
X1849490Y98690D01*
X1857652Y95969D01*
X1882140D02*
X1857652D01*
X1849490Y93248D01*
X1846769Y90528D01*
X1844048Y85086D01*
Y76923D01*
X1846769Y71482D01*
X1849490Y68761D01*
X1857652Y66040D01*
X1882140D01*
X1831260Y123178D02*
Y66040D01*
X1793168Y123178D02*
Y66040D01*
X1831260Y95969D02*
X1793168D01*
X1763783Y123178D02*
X1771946Y120457D01*
X1774667Y115015D01*
Y109574D01*
X1771946Y104132D01*
X1766504Y101411D01*
X1755621Y98690D01*
X1747458Y95969D01*
X1742017Y90528D01*
X1739296Y85086D01*
Y76923D01*
X1742017Y71482D01*
X1744737Y68761D01*
X1752900Y66040D01*
X1763783D01*
X1771946Y68761D01*
X1774667Y71482D01*
X1777388Y76923D01*
Y85086D01*
X1774667Y90528D01*
X1769225Y95969D01*
X1761063Y98690D01*
X1750179Y101411D01*
X1744737Y104132D01*
X1742017Y109574D01*
Y115015D01*
X1744737Y120457D01*
X1752900Y123178D01*
X1763783D01*
X1710183D02*
X1718345Y120457D01*
X1723787Y112294D01*
X1726508Y98690D01*
Y90528D01*
X1723787Y76923D01*
X1718345Y68761D01*
X1710183Y66040D01*
X1704741D01*
X1696579Y68761D01*
X1691137Y76923D01*
X1688416Y90528D01*
Y98690D01*
X1691137Y112294D01*
X1696579Y120457D01*
X1704741Y123178D01*
X1710183D01*
X1670186D02*
X1640257D01*
X1656582Y101411D01*
X1648420D01*
X1642978Y98690D01*
X1640257Y95969D01*
X1637536Y87807D01*
Y82365D01*
X1640257Y74203D01*
X1645699Y68761D01*
X1653861Y66040D01*
X1662024D01*
X1670186Y68761D01*
X1672907Y71482D01*
X1675628Y76923D01*
X1694180Y6056618D02*
Y5999480D01*
Y6056618D02*
X1669692D01*
X1661530Y6053897D01*
X1658809Y6051176D01*
X1656088Y6045734D01*
Y6040293D01*
X1658809Y6034851D01*
X1661530Y6032130D01*
X1669692Y6029409D01*
X1694180D02*
X1669692D01*
X1661530Y6026688D01*
X1658809Y6023968D01*
X1656088Y6018526D01*
Y6010363D01*
X1658809Y6004922D01*
X1661530Y6002201D01*
X1669692Y5999480D01*
X1694180D01*
X1643300Y6056618D02*
Y5999480D01*
X1605208Y6056618D02*
Y5999480D01*
X1643300Y6029409D02*
X1605208D01*
X1575823Y6056618D02*
X1583986Y6053897D01*
X1586707Y6048455D01*
Y6043014D01*
X1583986Y6037572D01*
X1578544Y6034851D01*
X1567661Y6032130D01*
X1559498Y6029409D01*
X1554057Y6023968D01*
X1551336Y6018526D01*
Y6010363D01*
X1554057Y6004922D01*
X1556777Y6002201D01*
X1564940Y5999480D01*
X1575823D01*
X1583986Y6002201D01*
X1586707Y6004922D01*
X1589428Y6010363D01*
Y6018526D01*
X1586707Y6023968D01*
X1581265Y6029409D01*
X1573103Y6032130D01*
X1562219Y6034851D01*
X1556777Y6037572D01*
X1554057Y6043014D01*
Y6048455D01*
X1556777Y6053897D01*
X1564940Y6056618D01*
X1575823D01*
X1522223D02*
X1530385Y6053897D01*
X1535827Y6045734D01*
X1538548Y6032130D01*
Y6023968D01*
X1535827Y6010363D01*
X1530385Y6002201D01*
X1522223Y5999480D01*
X1516781D01*
X1508619Y6002201D01*
X1503177Y6010363D01*
X1500456Y6023968D01*
Y6032130D01*
X1503177Y6045734D01*
X1508619Y6053897D01*
X1516781Y6056618D01*
X1522223D01*
X1484947Y6043014D02*
Y6045734D01*
X1482226Y6051176D01*
X1479506Y6053897D01*
X1474064Y6056618D01*
X1463180D01*
X1457739Y6053897D01*
X1455018Y6051176D01*
X1452297Y6045734D01*
Y6040293D01*
X1455018Y6034851D01*
X1460460Y6026688D01*
X1487668Y5999480D01*
X1449576D01*
X7178040Y6061698D02*
Y6004560D01*
Y6061698D02*
X7153552D01*
X7145390Y6058977D01*
X7142669Y6056256D01*
X7139948Y6050814D01*
Y6045373D01*
X7142669Y6039931D01*
X7145390Y6037210D01*
X7153552Y6034489D01*
X7178040D02*
X7153552D01*
X7145390Y6031768D01*
X7142669Y6029048D01*
X7139948Y6023606D01*
Y6015443D01*
X7142669Y6010002D01*
X7145390Y6007281D01*
X7153552Y6004560D01*
X7178040D01*
X7127160Y6061698D02*
Y6004560D01*
X7089068Y6061698D02*
Y6004560D01*
X7127160Y6034489D02*
X7089068D01*
X7059683Y6061698D02*
X7067846Y6058977D01*
X7070567Y6053535D01*
Y6048094D01*
X7067846Y6042652D01*
X7062404Y6039931D01*
X7051521Y6037210D01*
X7043358Y6034489D01*
X7037917Y6029048D01*
X7035196Y6023606D01*
Y6015443D01*
X7037917Y6010002D01*
X7040637Y6007281D01*
X7048800Y6004560D01*
X7059683D01*
X7067846Y6007281D01*
X7070567Y6010002D01*
X7073288Y6015443D01*
Y6023606D01*
X7070567Y6029048D01*
X7065125Y6034489D01*
X7056963Y6037210D01*
X7046079Y6039931D01*
X7040637Y6042652D01*
X7037917Y6048094D01*
Y6053535D01*
X7040637Y6058977D01*
X7048800Y6061698D01*
X7059683D01*
X7006083D02*
X7014245Y6058977D01*
X7019687Y6050814D01*
X7022408Y6037210D01*
Y6029048D01*
X7019687Y6015443D01*
X7014245Y6007281D01*
X7006083Y6004560D01*
X7000641D01*
X6992479Y6007281D01*
X6987037Y6015443D01*
X6984316Y6029048D01*
Y6037210D01*
X6987037Y6050814D01*
X6992479Y6058977D01*
X7000641Y6061698D01*
X7006083D01*
X6971528Y6050814D02*
X6966086Y6053535D01*
X6957924Y6061698D01*
Y6004560D01*
D92*
X2275281Y3772154D02*
G03*
X2214321Y3800094I-60960J-52532D01*
G01*
X2275281Y3772154D02*
G03*
X2293061Y3756914I59208J51084D01*
G01*
X2448001Y3665474D02*
G03*
X2470861Y3657854I14536J5509D01*
G01*
X2448001Y3665474D02*
G03*
X2384501Y3726434I-63500J-2593D01*
G01*
X2318461Y3876294D02*
G03*
X2381961Y3886454I-13437J287500D01*
G01*
X2280361Y3876294D02*
G03*
X2318461Y3876294I19050J407954D01*
G01*
X2481021Y3866134D02*
G03*
X2381961Y3886454I-69381J-86613D01*
G01*
X2493721Y3848354D02*
G03*
X2511501Y3828034I34493J12243D01*
G01*
X2493721Y3848354D02*
G03*
X2481021Y3866134I-37775J-13556D01*
G01*
X2493721Y3767074D02*
G03*
X2506421Y3761994I17953J26467D01*
G01*
X2514041Y3739134D02*
G03*
X2521661Y3759454I-345437J141128D01*
G01*
X2455621Y3795014D02*
G03*
X2493721Y3767074I432968J550464D01*
G01*
X2265121Y3878834D02*
G03*
X2280361Y3876294I18284J62715D01*
G01*
X2265121Y3878834D02*
G03*
X2247341Y3881374I-17780J-60960D01*
G01*
X2554681Y3777234D02*
G03*
X2539441Y3805174I-42926J-5288D01*
G01*
X6559753Y4924374D02*
G03*
X6572453Y4987874I50800J22860D01*
G01*
X2455621Y3795014D02*
G03*
X2493721Y3767074I432968J550464D01*
G01*
X6559753Y4924374D02*
G03*
X6572453Y4987874I50800J22860D01*
G01*
X6709613Y4949774D02*
G03*
X6709613Y4949774I-99060J0D01*
G01*
D02*
G03*
X6709613Y4949774I-99060J0D01*
G01*
X2508961Y3668014D02*
G03*
X2529281Y3652774I11429J-5928D01*
G01*
D02*
G03*
X2547061Y3695954I-43543J43180D01*
G01*
X2514041Y3739134D02*
G03*
X2511501Y3718814I35844J-14799D01*
G01*
X2493721Y3767074D02*
G03*
X2506421Y3761994I17953J26467D01*
G01*
X2514041Y3739134D02*
G03*
X2521661Y3759454I-345437J141128D01*
G01*
X2448001Y3665474D02*
G03*
X2470861Y3657854I14536J5509D01*
G01*
X2448001Y3665474D02*
G03*
X2384501Y3726434I-63500J-2593D01*
G01*
X2473401Y3662934D02*
G03*
X2470861Y3706114I-38865J19378D01*
G01*
X2453081Y3731514D02*
G03*
X2402281Y3761994I-62461J-46528D01*
G01*
X2470861Y3706114D02*
G03*
X2453081Y3731514I-443542J-291556D01*
G01*
X2470861Y3706114D02*
G03*
X2453081Y3731514I-443542J-291556D01*
G01*
X2473401Y3662934D02*
G03*
X2470861Y3706114I-38865J19378D01*
G01*
X2453081Y3731514D02*
G03*
X2402281Y3761994I-62461J-46528D01*
G01*
X2275281Y3772154D02*
G03*
X2293061Y3756914I59208J51084D01*
G01*
X2275281Y3772154D02*
G03*
X2214321Y3800094I-60960J-52532D01*
G01*
X2265121Y3878834D02*
G03*
X2247341Y3881374I-17780J-60960D01*
G01*
X2554681Y3777234D02*
G03*
X2539441Y3805174I-42926J-5288D01*
G01*
X2493721Y3848354D02*
G03*
X2511501Y3828034I34493J12243D01*
G01*
X2529281Y3652774D02*
G03*
X2547061Y3695954I-43543J43180D01*
G01*
X2514041Y3739134D02*
G03*
X2511501Y3718814I35844J-14799D01*
G01*
X2508961Y3668014D02*
G03*
X2529281Y3652774I11429J-5928D01*
G01*
X2280361Y3876294D02*
G03*
X2318461Y3876294I19050J407954D01*
G01*
X2265121Y3878834D02*
G03*
X2280361Y3876294I18284J62715D01*
G01*
X2318461D02*
G03*
X2381961Y3886454I-13437J287500D01*
G01*
X2493721Y3848354D02*
G03*
X2481021Y3866134I-37775J-13556D01*
G01*
D02*
G03*
X2381961Y3886454I-69381J-86613D01*
G01*
X667309Y4378223D02*
Y4886223D01*
Y4378223D02*
X2699309D01*
X675488Y4981169D02*
Y5489169D01*
Y4981169D02*
X2707488D01*
X2699309Y4378223D02*
Y4886223D01*
X667309D02*
X2699309D01*
X2707488Y4981169D02*
Y5489169D01*
X675488D02*
X2707488D01*
X2549601Y3749294D02*
X2552141Y3764534D01*
X2554681Y3774694D01*
X2547061Y3695954D02*
Y3728974D01*
X2549601Y3749294D01*
X2506421Y3761994D02*
X2521661Y3759454D01*
X2511501Y3718814D02*
X2516581Y3683254D01*
X2524201Y3817874D02*
X2539441Y3805174D01*
X2511501Y3828034D02*
X2524201Y3817874D01*
X4240911Y152146D02*
Y660146D01*
X2488311D02*
X4240911D01*
X2488311Y152146D02*
Y660146D01*
Y152146D02*
X4240911D01*
X2511501Y3718814D02*
X2516581Y3683254D01*
X2508961Y3668014D02*
X2516581Y3683254D01*
X2506421Y3761994D02*
X2521661Y3759454D01*
X2293061Y3756914D02*
X2384501Y3726434D01*
X2293061Y3756914D02*
X2384501Y3726434D01*
X2547061Y3728974D02*
X2549601Y3749294D01*
X2552141Y3764534D01*
X2508961Y3668014D02*
X2516581Y3683254D01*
X2547061Y3695954D02*
Y3728974D01*
X2552141Y3764534D02*
X2554681Y3774694D01*
X2511501Y3828034D02*
X2524201Y3817874D01*
X2539441Y3805174D01*
X4522061Y424158D02*
X4531735Y433833D01*
X4546246Y438669D01*
X4565595D01*
X4580106Y433833D01*
X4589780Y424158D01*
Y414484D01*
X4584943Y404810D01*
X4580106Y399973D01*
X4570432Y395136D01*
X4541410Y385462D01*
X4531735Y380625D01*
X4526898Y375788D01*
X4522061Y366114D01*
Y351603D01*
X4531735Y341928D01*
X4546246Y337091D01*
X4565595D01*
X4580106Y341928D01*
X4589780Y351603D01*
X4499327Y322580D02*
X4431608Y438669D01*
X4424836D02*
Y337091D01*
Y438669D02*
X4357117Y337091D01*
Y438669D02*
Y337091D01*
X2617901Y5186658D02*
Y5085080D01*
X2651760Y5186658D02*
X2584041D01*
X2571949D02*
Y5085080D01*
Y5186658D02*
X2528415D01*
X2513904Y5181821D01*
X2509067Y5176984D01*
X2504230Y5167310D01*
Y5157636D01*
X2509067Y5147962D01*
X2513904Y5143125D01*
X2528415Y5138288D01*
X2571949D01*
X2538089D02*
X2504230Y5085080D01*
X2404103D02*
X2442799Y5186658D01*
X2481496Y5085080D01*
X2466984Y5118939D02*
X2418614D01*
X2380401Y5186658D02*
Y5085080D01*
Y5186658D02*
X2312682Y5085080D01*
Y5186658D02*
Y5085080D01*
X2216908Y5172147D02*
X2226583Y5181821D01*
X2241094Y5186658D01*
X2260442D01*
X2274953Y5181821D01*
X2284627Y5172147D01*
Y5162473D01*
X2279790Y5152799D01*
X2274953Y5147962D01*
X2265279Y5143125D01*
X2236257Y5133450D01*
X2226583Y5128614D01*
X2221746Y5123776D01*
X2216908Y5114102D01*
Y5099591D01*
X2226583Y5089917D01*
X2241094Y5085080D01*
X2260442D01*
X2274953Y5089917D01*
X2284627Y5099591D01*
X2194174Y5186658D02*
Y5085080D01*
X2136130D01*
X2047611D02*
X2086308Y5186658D01*
X2125004Y5085080D01*
X2110493Y5118939D02*
X2062123D01*
X1990050Y5186658D02*
Y5085080D01*
X2023910Y5186658D02*
X1956191D01*
X1881217D02*
X1944098D01*
Y5085080D01*
X1881217D01*
X1944098Y5138288D02*
X1905402D01*
X1864287Y5186658D02*
Y5085080D01*
Y5186658D02*
X1830428D01*
X1815917Y5181821D01*
X1806243Y5172147D01*
X1801405Y5162473D01*
X1796568Y5147962D01*
Y5123776D01*
X1801405Y5109265D01*
X1806243Y5099591D01*
X1815917Y5089917D01*
X1830428Y5085080D01*
X1864287D01*
X1660163Y5186658D02*
Y5085080D01*
X1694023Y5186658D02*
X1626304D01*
X1585189D02*
X1594863Y5181821D01*
X1604537Y5172147D01*
X1609374Y5162473D01*
X1614211Y5147962D01*
Y5123776D01*
X1609374Y5109265D01*
X1604537Y5099591D01*
X1594863Y5089917D01*
X1585189Y5085080D01*
X1565841D01*
X1556167Y5089917D01*
X1546492Y5099591D01*
X1541656Y5109265D01*
X1536818Y5123776D01*
Y5147962D01*
X1541656Y5162473D01*
X1546492Y5172147D01*
X1556167Y5181821D01*
X1565841Y5186658D01*
X1585189D01*
X1355912Y5085080D02*
X1394609Y5186658D01*
X1433305Y5085080D01*
X1418794Y5118939D02*
X1370424D01*
X1332211Y5186658D02*
Y5085080D01*
X1274166D01*
X1229181Y5186658D02*
Y5085080D01*
X1263041Y5186658D02*
X1195322D01*
X1183230D02*
Y5085080D01*
X1161946Y5186658D02*
Y5114102D01*
X1157109Y5099591D01*
X1147435Y5089917D01*
X1132924Y5085080D01*
X1123250D01*
X1108739Y5089917D01*
X1099065Y5099591D01*
X1094227Y5114102D01*
Y5186658D01*
X1066173D02*
Y5085080D01*
Y5186658D02*
X1027476Y5085080D01*
X988780Y5186658D02*
X1027476Y5085080D01*
X988780Y5186658D02*
Y5085080D01*
X2576421Y5390587D02*
X2586095Y5400261D01*
X2600606Y5405098D01*
X2619955D01*
X2634466Y5400261D01*
X2644140Y5390587D01*
Y5380913D01*
X2639303Y5371239D01*
X2634466Y5366402D01*
X2624792Y5361565D01*
X2595770Y5351890D01*
X2586095Y5347054D01*
X2581258Y5342216D01*
X2576421Y5332542D01*
Y5318031D01*
X2586095Y5308357D01*
X2600606Y5303520D01*
X2619955D01*
X2634466Y5308357D01*
X2644140Y5318031D01*
X2481131Y5380913D02*
X2485968Y5390587D01*
X2495642Y5400261D01*
X2505317Y5405098D01*
X2524665D01*
X2534339Y5400261D01*
X2544013Y5390587D01*
X2548850Y5380913D01*
X2553687Y5366402D01*
Y5342216D01*
X2548850Y5327705D01*
X2544013Y5318031D01*
X2534339Y5308357D01*
X2524665Y5303520D01*
X2505317D01*
X2495642Y5308357D01*
X2485968Y5318031D01*
X2481131Y5327705D01*
X2452593Y5405098D02*
Y5303520D01*
X2384874Y5405098D02*
Y5303520D01*
X2452593Y5356728D02*
X2384874D01*
X2356819Y5347054D02*
X2269752D01*
X2181717Y5405098D02*
X2230088D01*
X2234925Y5361565D01*
X2230088Y5366402D01*
X2215576Y5371239D01*
X2201065D01*
X2186554Y5366402D01*
X2176880Y5356728D01*
X2172043Y5342216D01*
Y5332542D01*
X2176880Y5318031D01*
X2186554Y5308357D01*
X2201065Y5303520D01*
X2215576D01*
X2230088Y5308357D01*
X2234925Y5313194D01*
X2239762Y5322868D01*
X2149309Y5385750D02*
X2139635Y5390587D01*
X2125124Y5405098D01*
Y5303520D01*
X2011936Y5371239D02*
X2016773Y5356728D01*
X2026448Y5347054D01*
X2040959Y5342216D01*
X2045796D01*
X2060307Y5347054D01*
X2069981Y5356728D01*
X2074818Y5371239D01*
Y5376076D01*
X2069981Y5390587D01*
X2060307Y5400261D01*
X2045796Y5405098D01*
X2040959D01*
X2026448Y5400261D01*
X2016773Y5390587D01*
X2011936Y5371239D01*
Y5347054D01*
X2016773Y5322868D01*
X2026448Y5308357D01*
X2040959Y5303520D01*
X2050633D01*
X2065144Y5308357D01*
X2069981Y5318031D01*
X1935995Y5405098D02*
X1984365Y5337379D01*
X1911809D01*
X1935995Y5405098D02*
Y5303520D01*
X1884238Y5405098D02*
X1831030D01*
X1860053Y5366402D01*
X1845542D01*
X1835868Y5361565D01*
X1831030Y5356728D01*
X1826193Y5342216D01*
Y5332542D01*
X1831030Y5318031D01*
X1840704Y5308357D01*
X1855216Y5303520D01*
X1869727D01*
X1884238Y5308357D01*
X1889075Y5313194D01*
X1893912Y5322868D01*
X1723648Y5405098D02*
Y5303520D01*
Y5405098D02*
X1680114D01*
X1665603Y5400261D01*
X1660766Y5395424D01*
X1655929Y5385750D01*
Y5376076D01*
X1660766Y5366402D01*
X1665603Y5361565D01*
X1680114Y5356728D01*
X1723648D01*
X1689788D02*
X1655929Y5303520D01*
X1570313Y5405098D02*
X1633195D01*
Y5303520D01*
X1570313D01*
X1633195Y5356728D02*
X1594498D01*
X1553383Y5405098D02*
X1514687Y5303520D01*
X1475990Y5405098D02*
X1514687Y5303520D01*
X1383119Y5405098D02*
Y5303520D01*
Y5405098D02*
X1339586D01*
X1325075Y5400261D01*
X1320237Y5395424D01*
X1315400Y5385750D01*
Y5376076D01*
X1320237Y5366402D01*
X1325075Y5361565D01*
X1339586Y5356728D01*
X1383119D02*
X1339586D01*
X1325075Y5351890D01*
X1320237Y5347054D01*
X1315400Y5337379D01*
Y5322868D01*
X1320237Y5313194D01*
X1325075Y5308357D01*
X1339586Y5303520D01*
X1383119D01*
X1287829Y5313194D02*
X1292666Y5308357D01*
X1287829Y5303520D01*
X1282992Y5308357D01*
X1287829Y5313194D01*
X1260742Y5405098D02*
Y5303520D01*
Y5405098D02*
X1222045Y5303520D01*
X1183349Y5405098D02*
X1222045Y5303520D01*
X1183349Y5405098D02*
Y5303520D01*
X2626603Y4485154D02*
X2631440Y4480317D01*
X2626603Y4475480D01*
X2621766Y4480317D01*
X2626603Y4485154D01*
X2599516Y4577058D02*
Y4475480D01*
X2563721Y4577058D02*
Y4494828D01*
X2558884Y4480317D01*
X2549210Y4475480D01*
X2539536D01*
X2578232Y4543199D02*
X2544373D01*
X2525025Y4514176D02*
X2466980D01*
Y4523850D01*
X2471817Y4533525D01*
X2476654Y4538362D01*
X2486328Y4543199D01*
X2500839D01*
X2510513Y4538362D01*
X2520187Y4528688D01*
X2525025Y4514176D01*
Y4504502D01*
X2520187Y4489991D01*
X2510513Y4480317D01*
X2500839Y4475480D01*
X2486328D01*
X2476654Y4480317D01*
X2466980Y4489991D01*
X2445213Y4543199D02*
Y4475480D01*
Y4523850D02*
X2430702Y4538362D01*
X2421028Y4543199D01*
X2406517D01*
X2396843Y4538362D01*
X2392006Y4523850D01*
Y4475480D01*
Y4523850D02*
X2377494Y4538362D01*
X2367820Y4543199D01*
X2353309D01*
X2343635Y4538362D01*
X2338798Y4523850D01*
Y4475480D01*
X2229480D02*
X2268177Y4577058D01*
X2306873Y4475480D01*
X2292362Y4509339D02*
X2243992D01*
X2205779Y4543199D02*
Y4475480D01*
Y4523850D02*
X2191268Y4538362D01*
X2181594Y4543199D01*
X2167083D01*
X2157408Y4538362D01*
X2152571Y4523850D01*
Y4475480D01*
X2067923Y4577058D02*
Y4475480D01*
Y4528688D02*
X2077597Y4538362D01*
X2087271Y4543199D01*
X2101782D01*
X2111456Y4538362D01*
X2121130Y4528688D01*
X2125968Y4514176D01*
Y4504502D01*
X2121130Y4489991D01*
X2111456Y4480317D01*
X2101782Y4475480D01*
X2087271D01*
X2077597Y4480317D01*
X2067923Y4489991D01*
X2040835Y4577058D02*
Y4475480D01*
Y4577058D02*
X1997302D01*
X1982791Y4572221D01*
X1977954Y4567384D01*
X1973116Y4557710D01*
Y4548036D01*
X1977954Y4538362D01*
X1982791Y4533525D01*
X1997302Y4528688D01*
X2040835D01*
X2006976D02*
X1973116Y4475480D01*
X1950382Y4514176D02*
X1892338D01*
Y4523850D01*
X1897175Y4533525D01*
X1902012Y4538362D01*
X1911686Y4543199D01*
X1926197D01*
X1935871Y4538362D01*
X1945545Y4528688D01*
X1950382Y4514176D01*
Y4504502D01*
X1945545Y4489991D01*
X1935871Y4480317D01*
X1926197Y4475480D01*
X1911686D01*
X1902012Y4480317D01*
X1892338Y4489991D01*
X1870571Y4543199D02*
X1841549Y4475480D01*
X1812526Y4543199D02*
X1841549Y4475480D01*
X1786406Y4577058D02*
X1781569Y4572221D01*
X1776732Y4577058D01*
X1781569Y4581895D01*
X1786406Y4577058D01*
X1781569Y4543199D02*
Y4475480D01*
X1705627Y4528688D02*
X1710464Y4538362D01*
X1724975Y4543199D01*
X1739487D01*
X1753998Y4538362D01*
X1758835Y4528688D01*
X1753998Y4519014D01*
X1744324Y4514176D01*
X1720139Y4509339D01*
X1710464Y4504502D01*
X1705627Y4494828D01*
Y4489991D01*
X1710464Y4480317D01*
X1724975Y4475480D01*
X1739487D01*
X1753998Y4480317D01*
X1758835Y4489991D01*
X1674670Y4577058D02*
X1669833Y4572221D01*
X1664996Y4577058D01*
X1669833Y4581895D01*
X1674670Y4577058D01*
X1669833Y4543199D02*
Y4475480D01*
X1622913Y4543199D02*
X1632588Y4538362D01*
X1642262Y4528688D01*
X1647099Y4514176D01*
Y4504502D01*
X1642262Y4489991D01*
X1632588Y4480317D01*
X1622913Y4475480D01*
X1608402D01*
X1598728Y4480317D01*
X1589054Y4489991D01*
X1584217Y4504502D01*
Y4514176D01*
X1589054Y4528688D01*
X1598728Y4538362D01*
X1608402Y4543199D01*
X1622913D01*
X1561967D02*
Y4475480D01*
Y4523850D02*
X1547455Y4538362D01*
X1537781Y4543199D01*
X1523270D01*
X1513596Y4538362D01*
X1508759Y4523850D01*
Y4475480D01*
X2561181Y4787878D02*
X2609552Y4686300D01*
X2628900Y4787878D02*
X2561181D01*
X2509425D02*
X2523936Y4783041D01*
X2533610Y4768530D01*
X2538447Y4744345D01*
Y4729834D01*
X2533610Y4705648D01*
X2523936Y4691137D01*
X2509425Y4686300D01*
X2499751D01*
X2485239Y4691137D01*
X2475565Y4705648D01*
X2470728Y4729834D01*
Y4744345D01*
X2475565Y4768530D01*
X2485239Y4783041D01*
X2499751Y4787878D01*
X2509425D01*
X2418972D02*
X2433483Y4783041D01*
X2443157Y4768530D01*
X2447994Y4744345D01*
Y4729834D01*
X2443157Y4705648D01*
X2433483Y4691137D01*
X2418972Y4686300D01*
X2409298D01*
X2394786Y4691137D01*
X2385112Y4705648D01*
X2380275Y4729834D01*
Y4744345D01*
X2385112Y4768530D01*
X2394786Y4783041D01*
X2409298Y4787878D01*
X2418972D01*
X2357541Y4729834D02*
X2270474D01*
X2182440Y4787878D02*
X2230810D01*
X2235647Y4744345D01*
X2230810Y4749182D01*
X2216299Y4754019D01*
X2201788D01*
X2187277Y4749182D01*
X2177602Y4739508D01*
X2172765Y4724996D01*
Y4715322D01*
X2177602Y4700811D01*
X2187277Y4691137D01*
X2201788Y4686300D01*
X2216299D01*
X2230810Y4691137D01*
X2235647Y4695974D01*
X2240484Y4705648D01*
X2150031Y4768530D02*
X2140357Y4773367D01*
X2125846Y4787878D01*
Y4686300D01*
X2012659Y4754019D02*
X2017496Y4739508D01*
X2027170Y4729834D01*
X2041681Y4724996D01*
X2046518D01*
X2061029Y4729834D01*
X2070703Y4739508D01*
X2075540Y4754019D01*
Y4758856D01*
X2070703Y4773367D01*
X2061029Y4783041D01*
X2046518Y4787878D01*
X2041681D01*
X2027170Y4783041D01*
X2017496Y4773367D01*
X2012659Y4754019D01*
Y4729834D01*
X2017496Y4705648D01*
X2027170Y4691137D01*
X2041681Y4686300D01*
X2051355D01*
X2065866Y4691137D01*
X2070703Y4700811D01*
X1936717Y4787878D02*
X1985087Y4720159D01*
X1912532D01*
X1936717Y4787878D02*
Y4686300D01*
X1884960Y4787878D02*
X1831753D01*
X1860775Y4749182D01*
X1846264D01*
X1836590Y4744345D01*
X1831753Y4739508D01*
X1826916Y4724996D01*
Y4715322D01*
X1831753Y4700811D01*
X1841427Y4691137D01*
X1855938Y4686300D01*
X1870449D01*
X1884960Y4691137D01*
X1889797Y4695974D01*
X1894635Y4705648D01*
X1724370Y4787878D02*
Y4686300D01*
Y4787878D02*
X1680837D01*
X1666326Y4783041D01*
X1661488Y4778204D01*
X1656651Y4768530D01*
Y4758856D01*
X1661488Y4749182D01*
X1666326Y4744345D01*
X1680837Y4739508D01*
X1724370D01*
X1690511D02*
X1656651Y4686300D01*
X1571035Y4787878D02*
X1633917D01*
Y4686300D01*
X1571035D01*
X1633917Y4739508D02*
X1595221D01*
X1554106Y4787878D02*
X1515409Y4686300D01*
X1476713Y4787878D02*
X1515409Y4686300D01*
X1383842Y4787878D02*
Y4686300D01*
Y4787878D02*
X1340308D01*
X1325797Y4783041D01*
X1320960Y4778204D01*
X1316123Y4768530D01*
Y4758856D01*
X1320960Y4749182D01*
X1325797Y4744345D01*
X1340308Y4739508D01*
X1383842D02*
X1340308D01*
X1325797Y4734670D01*
X1320960Y4729834D01*
X1316123Y4720159D01*
Y4705648D01*
X1320960Y4695974D01*
X1325797Y4691137D01*
X1340308Y4686300D01*
X1383842D01*
X1288551Y4695974D02*
X1293389Y4691137D01*
X1288551Y4686300D01*
X1283714Y4691137D01*
X1288551Y4695974D01*
X1261464Y4787878D02*
Y4686300D01*
Y4787878D02*
X1222768Y4686300D01*
X1184071Y4787878D02*
X1222768Y4686300D01*
X1184071Y4787878D02*
Y4686300D01*
X6441683Y4979593D02*
Y4984430D01*
X6436846Y4994104D01*
X6432009Y4998941D01*
X6422335Y5003778D01*
X6402986D01*
X6393312Y4998941D01*
X6388475Y4994104D01*
X6383638Y4984430D01*
Y4974756D01*
X6388475Y4965082D01*
X6398150Y4950570D01*
X6446520Y4902200D01*
X6378801D01*
X6327045Y5003778D02*
X6341556Y4998941D01*
X6351230Y4984430D01*
X6356067Y4960245D01*
Y4945734D01*
X6351230Y4921548D01*
X6341556Y4907037D01*
X6327045Y4902200D01*
X6317371D01*
X6302859Y4907037D01*
X6293185Y4921548D01*
X6288348Y4945734D01*
Y4960245D01*
X6293185Y4984430D01*
X6302859Y4998941D01*
X6317371Y5003778D01*
X6327045D01*
X6260777Y4979593D02*
Y4984430D01*
X6255940Y4994104D01*
X6251103Y4998941D01*
X6241429Y5003778D01*
X6222081D01*
X6212406Y4998941D01*
X6207569Y4994104D01*
X6202732Y4984430D01*
Y4974756D01*
X6207569Y4965082D01*
X6217244Y4950570D01*
X6265614Y4902200D01*
X6197895D01*
X6126791Y5003778D02*
X6175161Y4936059D01*
X6102605D01*
X6126791Y5003778D02*
Y4902200D01*
X6004897Y5003778D02*
Y4902200D01*
Y5003778D02*
X5937178Y4902200D01*
Y5003778D02*
Y4902200D01*
X5909123Y5003778D02*
X5841404Y4902200D01*
Y5003778D02*
X5909123Y4902200D01*
X5818670Y4950570D02*
X5775137D01*
X5760626Y4955408D01*
X5755788Y4960245D01*
X5750951Y4969919D01*
Y4984430D01*
X5755788Y4994104D01*
X5760626Y4998941D01*
X5775137Y5003778D01*
X5818670D01*
Y4902200D01*
X5580687Y4989267D02*
X5590361Y4998941D01*
X5604872Y5003778D01*
X5624220D01*
X5638732Y4998941D01*
X5648406Y4989267D01*
Y4979593D01*
X5643569Y4969919D01*
X5638732Y4965082D01*
X5629058Y4960245D01*
X5600035Y4950570D01*
X5590361Y4945734D01*
X5585524Y4940896D01*
X5580687Y4931222D01*
Y4916711D01*
X5590361Y4907037D01*
X5604872Y4902200D01*
X5624220D01*
X5638732Y4907037D01*
X5648406Y4916711D01*
X5495071Y5003778D02*
X5557953D01*
Y4902200D01*
X5495071D01*
X5557953Y4955408D02*
X5519256D01*
X5478141Y5003778D02*
Y4902200D01*
Y5003778D02*
X5439445Y4902200D01*
X5400748Y5003778D02*
X5439445Y4902200D01*
X5400748Y5003778D02*
Y4902200D01*
X5371726Y5003778D02*
Y4902200D01*
X5277887Y4979593D02*
X5282724Y4989267D01*
X5292398Y4998941D01*
X5302072Y5003778D01*
X5321421D01*
X5331095Y4998941D01*
X5340769Y4989267D01*
X5345606Y4979593D01*
X5350443Y4965082D01*
Y4940896D01*
X5345606Y4926385D01*
X5340769Y4916711D01*
X5331095Y4907037D01*
X5321421Y4902200D01*
X5302072D01*
X5292398Y4907037D01*
X5282724Y4916711D01*
X5277887Y4926385D01*
X5220326Y5003778D02*
X5230000Y4998941D01*
X5239674Y4989267D01*
X5244511Y4979593D01*
X5249348Y4965082D01*
Y4940896D01*
X5244511Y4926385D01*
X5239674Y4916711D01*
X5230000Y4907037D01*
X5220326Y4902200D01*
X5200978D01*
X5191304Y4907037D01*
X5181629Y4916711D01*
X5176793Y4926385D01*
X5171955Y4940896D01*
Y4965082D01*
X5176793Y4979593D01*
X5181629Y4989267D01*
X5191304Y4998941D01*
X5200978Y5003778D01*
X5220326D01*
X5148254D02*
Y4902200D01*
Y5003778D02*
X5080535Y4902200D01*
Y5003778D02*
Y4902200D01*
X5052480Y5003778D02*
Y4902200D01*
Y5003778D02*
X5018621D01*
X5004110Y4998941D01*
X4994436Y4989267D01*
X4989598Y4979593D01*
X4984761Y4965082D01*
Y4940896D01*
X4989598Y4926385D01*
X4994436Y4916711D01*
X5004110Y4907037D01*
X5018621Y4902200D01*
X5052480D01*
X4962027Y5003778D02*
Y4931222D01*
X4957190Y4916711D01*
X4947516Y4907037D01*
X4933005Y4902200D01*
X4923331D01*
X4908819Y4907037D01*
X4899145Y4916711D01*
X4894308Y4931222D01*
Y5003778D01*
X4793698Y4979593D02*
X4798534Y4989267D01*
X4808209Y4998941D01*
X4817883Y5003778D01*
X4837231D01*
X4846905Y4998941D01*
X4856579Y4989267D01*
X4861416Y4979593D01*
X4866253Y4965082D01*
Y4940896D01*
X4861416Y4926385D01*
X4856579Y4916711D01*
X4846905Y4907037D01*
X4837231Y4902200D01*
X4817883D01*
X4808209Y4907037D01*
X4798534Y4916711D01*
X4793698Y4926385D01*
X4731299Y5003778D02*
Y4902200D01*
X4765159Y5003778D02*
X4697440D01*
X4656325D02*
X4665999Y4998941D01*
X4675673Y4989267D01*
X4680510Y4979593D01*
X4685348Y4965082D01*
Y4940896D01*
X4680510Y4926385D01*
X4675673Y4916711D01*
X4665999Y4907037D01*
X4656325Y4902200D01*
X4636977D01*
X4627303Y4907037D01*
X4617629Y4916711D01*
X4612792Y4926385D01*
X4607954Y4940896D01*
Y4965082D01*
X4612792Y4979593D01*
X4617629Y4989267D01*
X4627303Y4998941D01*
X4636977Y5003778D01*
X4656325D01*
X4584253D02*
Y4902200D01*
Y5003778D02*
X4540719D01*
X4526208Y4998941D01*
X4521371Y4994104D01*
X4516534Y4984430D01*
Y4974756D01*
X4521371Y4965082D01*
X4526208Y4960245D01*
X4540719Y4955408D01*
X4584253D01*
X4550393D02*
X4516534Y4902200D01*
X4426081Y4989267D02*
X4435755Y4998941D01*
X4450266Y5003778D01*
X4469615D01*
X4484126Y4998941D01*
X4493800Y4989267D01*
Y4979593D01*
X4488963Y4969919D01*
X4484126Y4965082D01*
X4474452Y4960245D01*
X4445430Y4950570D01*
X4435755Y4945734D01*
X4430918Y4940896D01*
X4426081Y4931222D01*
Y4916711D01*
X4435755Y4907037D01*
X4450266Y4902200D01*
X4469615D01*
X4484126Y4907037D01*
X4493800Y4916711D01*
D93*
X1433018Y3698240D02*
G03*
X1433018Y3698240I-28398J0D01*
G01*
X1411118D02*
G03*
X1411118Y3698240I-6498J0D01*
G01*
D94*
X3165272Y5769534D02*
X3405810D01*
X3165272Y5740756D02*
Y5769534D01*
Y5321986D02*
Y5350764D01*
X3405810Y5740756D02*
Y5769534D01*
Y5321986D02*
Y5350764D01*
X6694729Y848639D02*
X6723507D01*
X4915941Y1089177D02*
X4944720D01*
X6694729D02*
X6723507D01*
Y848639D02*
Y1089177D01*
X2706395Y953059D02*
X2838475D01*
Y1025449D01*
X2445614Y950087D02*
Y1055091D01*
X2706395Y953059D02*
Y1025449D01*
X2838475Y1152449D02*
Y1224839D01*
Y1262939D01*
X3165272Y5321986D02*
X3405810D01*
X2706395Y1224839D02*
X2838475D01*
X2706395Y1152449D02*
Y1224839D01*
X6936867Y2260651D02*
Y2289429D01*
X6696329Y4439437D02*
Y4468216D01*
X4915941Y848639D02*
X4944720D01*
X4915941D02*
Y1089177D01*
X6696329Y4468216D02*
X6936867D01*
X6696329Y2260651D02*
X6936867D01*
Y4439437D02*
Y4468216D01*
X6696329Y2260651D02*
Y2289429D01*
X5998820Y1955216D02*
X6103823D01*
X5998820Y2045792D02*
X6103823D01*
X3557219Y4013810D02*
X3662223D01*
X3557219Y3923233D02*
X3662223D01*
X2902966Y4245839D02*
X3007970D01*
X3562045Y3256686D02*
X3667049D01*
X3753333Y3164027D02*
X3858336D01*
X2902966Y4336415D02*
X3007970D01*
X3562045Y3166110D02*
X3667049D01*
X4930597Y3924122D02*
X5035601D01*
X3299028Y4255922D02*
X3404032D01*
X5173421Y3817874D02*
X5278425D01*
X4930597Y4014699D02*
X5035601D01*
X3299028Y4346499D02*
X3404032D01*
X3623031Y3564661D02*
Y3669665D01*
X3532454Y3564661D02*
Y3669665D01*
X3558311Y3730727D02*
X3663315D01*
X3558311Y3821303D02*
X3663315D01*
X3551199Y1658468D02*
X3656203D01*
X3551199Y1749044D02*
X3656203D01*
X3658692Y2055292D02*
X3763696D01*
X3658692Y1964715D02*
X3763696D01*
X2859303Y971169D02*
Y1076173D01*
X2499182Y1375131D02*
X2604186D01*
X2536190Y950087D02*
Y1055091D01*
X2949880Y971169D02*
Y1076173D01*
X2499182Y1465707D02*
X2604186D01*
X3111094Y4348099D02*
X3216097D01*
X4930902Y3724224D02*
X5035906D01*
X3753333Y3254604D02*
X3858336D01*
X3111094Y4257523D02*
X3216097D01*
X4930902Y3814801D02*
X5035906D01*
X3658718Y1853997D02*
X3763721D01*
X3658718Y1944573D02*
X3763721D01*
X5107280Y4010939D02*
X5212283D01*
X5107280Y3920363D02*
X5167681D01*
X2967584Y968223D02*
Y1088212D01*
X4224071Y5607558D02*
X4252849D01*
X5664479Y1963547D02*
X5784469D01*
X3073146Y968223D02*
Y1088212D01*
X4224071Y5607558D02*
Y5848096D01*
X6002858D02*
X6031636D01*
Y5607558D02*
Y5848096D01*
X4224071D02*
X4252849D01*
X6002858Y5607558D02*
X6031636D01*
X5664479Y1857985D02*
X5784469D01*
X3021152Y1309294D02*
X3093542D01*
X2983052Y1441374D02*
X3021152D01*
X3093542D01*
X3021152Y1309294D02*
Y1441374D01*
X886866Y3954221D02*
Y4059225D01*
X1015568Y3949929D02*
Y4054932D01*
X689483Y3487852D02*
Y3592855D01*
X796290Y3954221D02*
Y4059225D01*
X924992Y3949929D02*
Y4054932D01*
X3023184Y1289888D02*
X3095574D01*
X3023184Y1157808D02*
Y1289888D01*
X3294964Y1157808D02*
Y1289888D01*
X3222574D02*
X3294964D01*
X3023184Y1157808D02*
X3095574D01*
X3292932Y1309294D02*
Y1441374D01*
X3220542D02*
X3292932D01*
X2985084Y1289888D02*
X3023184D01*
X3220542Y1309294D02*
X3292932D01*
X4787646Y4389222D02*
X4892650D01*
X4787646Y4298645D02*
X4892650D01*
X5629580Y5268976D02*
Y5373980D01*
X5539003Y5268976D02*
Y5373980D01*
X3721938Y4331437D02*
X3826942D01*
X5519928Y5268697D02*
Y5373700D01*
X5173421Y3727298D02*
X5278425D01*
X3721938Y4240860D02*
X3826942D01*
X5429352Y5268697D02*
Y5373700D01*
X797382Y3484118D02*
Y3589122D01*
X5738089Y5269789D02*
Y5374792D01*
X598907Y3487852D02*
Y3592855D01*
X706806Y3484118D02*
Y3589122D01*
X5647512Y5269789D02*
Y5374792D01*
X3297250Y3323336D02*
X3402254D01*
X3297250Y3413912D02*
X3402254D01*
X5806186Y5268189D02*
Y5373192D01*
X5896762Y5268189D02*
Y5373192D01*
X2557272Y1224864D02*
X2689352D01*
X2557272Y1152474D02*
Y1224864D01*
X2689352Y953084D02*
Y1025474D01*
Y1152474D02*
Y1224864D01*
Y1262964D01*
X2674849Y1697533D02*
Y1769923D01*
Y1498143D02*
Y1570533D01*
X2806929Y1697533D02*
Y1769923D01*
X2674849D02*
X2806929D01*
X2656256Y1494434D02*
Y1566824D01*
Y1693824D02*
Y1766214D01*
X2524176Y1494434D02*
Y1566824D01*
Y1494434D02*
X2656256D01*
X2524176Y1766214D02*
X2656256D01*
X2557272Y953084D02*
Y1025474D01*
Y953084D02*
X2689352D01*
X2524176Y1693824D02*
Y1766214D01*
X2656256D02*
Y1804314D01*
X2970225Y1771091D02*
X3102305D01*
X2970225Y1698701D02*
Y1771091D01*
X2823235Y1460525D02*
Y1498625D01*
X3102305Y1698701D02*
Y1771091D01*
X2970225Y1499311D02*
Y1571701D01*
Y1461211D02*
Y1499311D01*
X3222574Y1157808D02*
X3294964D01*
X2970225Y1499311D02*
X3102305D01*
Y1571701D01*
X2674849Y1460043D02*
Y1498143D01*
X2955315Y1698015D02*
Y1770405D01*
X2674849Y1498143D02*
X2806929D01*
Y1570533D01*
X2823235Y1770405D02*
X2955315D01*
X2823235Y1498625D02*
X2955315D01*
Y1571015D01*
X2823235Y1698015D02*
Y1770405D01*
Y1498625D02*
Y1571015D01*
D95*
X1163320Y4130040D02*
X1671320Y3622040D01*
X1163320D02*
X1671320Y4130040D01*
X1734820Y3558540D02*
Y4193540D01*
X1099820D02*
X1734820D01*
X1099820Y3558540D02*
X1734820D01*
X1099820D02*
Y4193540D01*
X2077161Y3563874D02*
X2559761Y3873754D01*
X2077161Y3563874D02*
X2559761Y3873754D01*
X2397201Y4196334D02*
X2717241Y3563874D01*
X2084781D02*
X2397201Y4196334D01*
X2084781Y3563874D02*
X2397201Y4196334D01*
X2084781Y3563874D02*
X2714701D01*
X2084781D02*
X2714701D01*
X2397201Y4196334D02*
X2717241Y3563874D01*
D96*
X5080559Y4130243D02*
X5452897D01*
X5395976Y3893464D02*
X5452897D01*
Y4130243D01*
X5044415Y3823894D02*
Y3908831D01*
X5080559D02*
Y4130243D01*
X5044415Y3908831D02*
X5080559D01*
X5053457Y3747973D02*
Y3823894D01*
X5348935Y3733521D02*
X5395646D01*
X5149240D02*
X5303215D01*
X5395976Y3736289D02*
Y3893464D01*
X5053457Y3747973D02*
X5149240D01*
Y3733521D02*
Y3747973D01*
X5044415Y1818488D02*
Y2610155D01*
X3921989Y1818488D02*
X5044415D01*
X3921989D02*
Y2613787D01*
X5048047D01*
Y3736492D01*
X6613398Y4360470D02*
X6609770Y4362283D01*
X6604328Y4367725D01*
Y4329633D01*
X7056084Y4358655D02*
Y4360470D01*
X7054270Y4364097D01*
X7052456Y4365911D01*
X7048828Y4367725D01*
X7041573D01*
X7037945Y4365911D01*
X7036131Y4364097D01*
X7034317Y4360470D01*
Y4356842D01*
X7036131Y4353214D01*
X7039759Y4347772D01*
X7057898Y4329633D01*
X7032503D01*
X6573053Y2375555D02*
X6574867Y2370113D01*
X6578495Y2366485D01*
X6583937Y2364672D01*
X6585751D01*
X6591192Y2366485D01*
X6594820Y2370113D01*
X6596634Y2375555D01*
Y2377369D01*
X6594820Y2382811D01*
X6591192Y2386438D01*
X6585751Y2388252D01*
X6583937D01*
X6578495Y2386438D01*
X6574867Y2382811D01*
X6573053Y2375555D01*
Y2366485D01*
X6574867Y2357416D01*
X6578495Y2351974D01*
X6583937Y2350160D01*
X6587564D01*
X6593006Y2351974D01*
X6594820Y2355602D01*
X6539133Y2375555D02*
X6540947Y2370113D01*
X6544575Y2366485D01*
X6550017Y2364672D01*
X6551831D01*
X6557272Y2366485D01*
X6560900Y2370113D01*
X6562714Y2375555D01*
Y2377369D01*
X6560900Y2382811D01*
X6557272Y2386438D01*
X6551831Y2388252D01*
X6550017D01*
X6544575Y2386438D01*
X6540947Y2382811D01*
X6539133Y2375555D01*
Y2366485D01*
X6540947Y2357416D01*
X6544575Y2351974D01*
X6550017Y2350160D01*
X6553645D01*
X6559086Y2351974D01*
X6560900Y2355602D01*
X7108698Y2391970D02*
X7105070Y2393783D01*
X7099628Y2399225D01*
Y2361133D01*
X7069881Y2399225D02*
X7075322Y2397411D01*
X7078950Y2391970D01*
X7080764Y2382900D01*
Y2377458D01*
X7078950Y2368389D01*
X7075322Y2362947D01*
X7069881Y2361133D01*
X7066253D01*
X7060811Y2362947D01*
X7057183Y2368389D01*
X7055369Y2377458D01*
Y2382900D01*
X7057183Y2391970D01*
X7060811Y2397411D01*
X7066253Y2399225D01*
X7069881D01*
X7035961D02*
X7041402Y2397411D01*
X7045030Y2391970D01*
X7046844Y2382900D01*
Y2377458D01*
X7045030Y2368389D01*
X7041402Y2362947D01*
X7035961Y2361133D01*
X7032333D01*
X7026891Y2362947D01*
X7023264Y2368389D01*
X7021450Y2377458D01*
Y2382900D01*
X7023264Y2391970D01*
X7026891Y2397411D01*
X7032333Y2399225D01*
X7035961D01*
X6607124Y1202945D02*
X6603496Y1204759D01*
X6598055Y1210200D01*
Y1172108D01*
X6605310Y756631D02*
Y758445D01*
X6603496Y762072D01*
X6601683Y763886D01*
X6598055Y765700D01*
X6590799D01*
X6587171Y763886D01*
X6585357Y762072D01*
X6583544Y758445D01*
Y754817D01*
X6585357Y751189D01*
X6588985Y745747D01*
X6607124Y727608D01*
X6581730D01*
X5034946Y1208194D02*
X5053085Y1170102D01*
X5060340Y1208194D02*
X5034946D01*
X5002840Y1195496D02*
X5004654Y1190055D01*
X5008282Y1186427D01*
X5013723Y1184613D01*
X5015537D01*
X5020979Y1186427D01*
X5024607Y1190055D01*
X5026420Y1195496D01*
Y1197310D01*
X5024607Y1202752D01*
X5020979Y1206380D01*
X5015537Y1208194D01*
X5013723D01*
X5008282Y1206380D01*
X5004654Y1202752D01*
X5002840Y1195496D01*
Y1186427D01*
X5004654Y1177357D01*
X5008282Y1171916D01*
X5013723Y1170102D01*
X5017351D01*
X5022793Y1171916D01*
X5024607Y1175543D01*
X5048655Y740300D02*
X5054096Y738486D01*
X5055910Y734859D01*
Y731231D01*
X5054096Y727603D01*
X5050469Y725789D01*
X5043213Y723975D01*
X5037771Y722161D01*
X5034144Y718533D01*
X5032330Y714906D01*
Y709464D01*
X5034144Y705836D01*
X5035957Y704022D01*
X5041399Y702208D01*
X5048655D01*
X5054096Y704022D01*
X5055910Y705836D01*
X5057724Y709464D01*
Y714906D01*
X5055910Y718533D01*
X5052283Y722161D01*
X5046841Y723975D01*
X5039585Y725789D01*
X5035957Y727603D01*
X5034144Y731231D01*
Y734859D01*
X5035957Y738486D01*
X5041399Y740300D01*
X5048655D01*
X5012921D02*
X5018363Y738486D01*
X5021990Y733045D01*
X5023804Y723975D01*
Y718533D01*
X5021990Y709464D01*
X5018363Y704022D01*
X5012921Y702208D01*
X5009293D01*
X5003851Y704022D01*
X5000224Y709464D01*
X4998410Y718533D01*
Y723975D01*
X5000224Y733045D01*
X5003851Y738486D01*
X5009293Y740300D01*
X5012921D01*
X3539541Y5449596D02*
X3535913Y5451410D01*
X3530471Y5456852D01*
Y5418760D01*
X3509793Y5447782D02*
Y5449596D01*
X3507979Y5453224D01*
X3506165Y5455038D01*
X3502537Y5456852D01*
X3495282D01*
X3491654Y5455038D01*
X3489840Y5453224D01*
X3488026Y5449596D01*
Y5445968D01*
X3489840Y5442340D01*
X3493468Y5436899D01*
X3511607Y5418760D01*
X3486212D01*
X3082341Y5449596D02*
X3078713Y5451410D01*
X3073271Y5456852D01*
Y5418760D01*
X3054407Y5449596D02*
X3050779Y5451410D01*
X3045337Y5456852D01*
Y5418760D01*
X3512327Y5663682D02*
Y5665496D01*
X3510513Y5669124D01*
X3508699Y5670938D01*
X3505071Y5672752D01*
X3497816D01*
X3494188Y5670938D01*
X3492374Y5669124D01*
X3490560Y5665496D01*
Y5661868D01*
X3492374Y5658240D01*
X3496002Y5652799D01*
X3514141Y5634660D01*
X3488746D01*
X3073400Y5672176D02*
X3069772Y5673990D01*
X3064330Y5679432D01*
Y5641340D01*
X4338320Y5524856D02*
X4334692Y5526670D01*
X4329250Y5532112D01*
Y5494020D01*
X4346031Y5958398D02*
Y5960212D01*
X4344217Y5963840D01*
X4342403Y5965654D01*
X4338775Y5967468D01*
X4331520D01*
X4327892Y5965654D01*
X4326078Y5963840D01*
X4324264Y5960212D01*
Y5956584D01*
X4326078Y5952957D01*
X4329706Y5947515D01*
X4347845Y5929376D01*
X4322450D01*
X5951225Y5529572D02*
X5969364Y5491480D01*
X5976620Y5529572D02*
X5951225D01*
X5919119Y5516875D02*
X5920933Y5511433D01*
X5924561Y5507805D01*
X5930003Y5505991D01*
X5931817D01*
X5937258Y5507805D01*
X5940886Y5511433D01*
X5942700Y5516875D01*
Y5518688D01*
X5940886Y5524130D01*
X5937258Y5527758D01*
X5931817Y5529572D01*
X5930003D01*
X5924561Y5527758D01*
X5920933Y5524130D01*
X5919119Y5516875D01*
Y5507805D01*
X5920933Y5498736D01*
X5924561Y5493294D01*
X5930003Y5491480D01*
X5933630D01*
X5939072Y5493294D01*
X5940886Y5496922D01*
X5975170Y5971532D02*
X5980612Y5969718D01*
X5982426Y5966090D01*
Y5962462D01*
X5980612Y5958835D01*
X5976984Y5957021D01*
X5969729Y5955207D01*
X5964287Y5953393D01*
X5960659Y5949765D01*
X5958845Y5946137D01*
Y5940696D01*
X5960659Y5937068D01*
X5962473Y5935254D01*
X5967915Y5933440D01*
X5975170D01*
X5980612Y5935254D01*
X5982426Y5937068D01*
X5984240Y5940696D01*
Y5946137D01*
X5982426Y5949765D01*
X5978798Y5953393D01*
X5973357Y5955207D01*
X5966101Y5957021D01*
X5962473Y5958835D01*
X5960659Y5962462D01*
Y5966090D01*
X5962473Y5969718D01*
X5967915Y5971532D01*
X5975170D01*
X5939437D02*
X5944878Y5969718D01*
X5948506Y5964276D01*
X5950320Y5955207D01*
Y5949765D01*
X5948506Y5940696D01*
X5944878Y5935254D01*
X5939437Y5933440D01*
X5935809D01*
X5930367Y5935254D01*
X5926739Y5940696D01*
X5924925Y5949765D01*
Y5955207D01*
X5926739Y5964276D01*
X5930367Y5969718D01*
X5935809Y5971532D01*
X5939437D01*
X3154790Y896247D02*
X3160837Y893224D01*
X3166883Y887178D01*
X3169906Y881132D01*
Y869039D01*
X3166883Y862993D01*
X3160837Y856946D01*
X3154790Y853923D01*
X3145721Y850900D01*
X3130605D01*
X3121536Y853923D01*
X3115490Y856946D01*
X3109443Y862993D01*
X3106420Y869039D01*
Y881132D01*
X3109443Y887178D01*
X3115490Y893224D01*
X3121536Y896247D01*
X3169906Y956408D02*
X3106420Y926177D01*
X3169906Y914084D02*
Y956408D01*
Y988756D02*
X3166883Y979687D01*
X3157814Y973640D01*
X3142698Y970617D01*
X3133628D01*
X3118513Y973640D01*
X3109443Y979687D01*
X3106420Y988756D01*
Y994802D01*
X3109443Y1003872D01*
X3118513Y1009918D01*
X3133628Y1012941D01*
X3142698D01*
X3157814Y1009918D01*
X3166883Y1003872D01*
X3169906Y994802D01*
Y988756D01*
Y1057382D02*
X3127582Y1027150D01*
Y1072497D01*
X3169906Y1057382D02*
X3106420D01*
X2822313Y1419970D02*
X2825336Y1426017D01*
X2831382Y1432063D01*
X2837428Y1435086D01*
X2849521D01*
X2855567Y1432063D01*
X2861614Y1426017D01*
X2864637Y1419970D01*
X2867660Y1410901D01*
Y1395785D01*
X2864637Y1386716D01*
X2861614Y1380670D01*
X2855567Y1374623D01*
X2849521Y1371600D01*
X2837428D01*
X2831382Y1374623D01*
X2825336Y1380670D01*
X2822313Y1386716D01*
X2762152Y1435086D02*
X2792383Y1371600D01*
X2804476Y1435086D02*
X2762152D01*
X2729804D02*
X2738873Y1432063D01*
X2744920Y1422994D01*
X2747943Y1407878D01*
Y1398808D01*
X2744920Y1383693D01*
X2738873Y1374623D01*
X2729804Y1371600D01*
X2723758D01*
X2714688Y1374623D01*
X2708642Y1383693D01*
X2705619Y1398808D01*
Y1407878D01*
X2708642Y1422994D01*
X2714688Y1432063D01*
X2723758Y1435086D01*
X2729804D01*
X2655132Y1426017D02*
X2658155Y1432063D01*
X2667225Y1435086D01*
X2673271D01*
X2682340Y1432063D01*
X2688387Y1422994D01*
X2691410Y1407878D01*
Y1392762D01*
X2688387Y1380670D01*
X2682340Y1374623D01*
X2673271Y1371600D01*
X2670248D01*
X2661178Y1374623D01*
X2655132Y1380670D01*
X2652109Y1389739D01*
Y1392762D01*
X2655132Y1401832D01*
X2661178Y1407878D01*
X2670248Y1410901D01*
X2673271D01*
X2682340Y1407878D01*
X2688387Y1401832D01*
X2691410Y1392762D01*
X3418950Y898787D02*
X3424997Y895764D01*
X3431043Y889718D01*
X3434066Y883672D01*
Y871579D01*
X3431043Y865533D01*
X3424997Y859486D01*
X3418950Y856463D01*
X3409881Y853440D01*
X3394765D01*
X3385696Y856463D01*
X3379650Y859486D01*
X3373603Y865533D01*
X3370580Y871579D01*
Y883672D01*
X3373603Y889718D01*
X3379650Y895764D01*
X3385696Y898787D01*
X3434066Y958948D02*
X3370580Y928717D01*
X3434066Y916624D02*
Y958948D01*
X3418950Y976180D02*
X3421974D01*
X3428020Y979203D01*
X3431043Y982227D01*
X3434066Y988273D01*
Y1000366D01*
X3431043Y1006412D01*
X3428020Y1009435D01*
X3421974Y1012458D01*
X3415927D01*
X3409881Y1009435D01*
X3400812Y1003389D01*
X3370580Y973157D01*
Y1015481D01*
X3434066Y1059922D02*
X3391742Y1029690D01*
Y1075037D01*
X3434066Y1059922D02*
X3370580D01*
X3863340Y1737346D02*
Y1673860D01*
Y1737346D02*
X3836132D01*
X3827062Y1734323D01*
X3824039Y1731300D01*
X3821016Y1725254D01*
Y1719207D01*
X3824039Y1713161D01*
X3827062Y1710138D01*
X3836132Y1707115D01*
X3863340D01*
X3842178D02*
X3821016Y1673860D01*
X3764483Y1737346D02*
X3794714Y1673860D01*
X3806807Y1737346D02*
X3764483D01*
X3750274Y1725254D02*
X3744228Y1728277D01*
X3735158Y1737346D01*
Y1673860D01*
X3703717Y1725254D02*
X3697671Y1728277D01*
X3688601Y1737346D01*
Y1673860D01*
X3820160Y2235186D02*
Y2171700D01*
Y2235186D02*
X3792952D01*
X3783882Y2232163D01*
X3780859Y2229140D01*
X3777836Y2223094D01*
Y2217047D01*
X3780859Y2211001D01*
X3783882Y2207978D01*
X3792952Y2204955D01*
X3820160D01*
X3798998D02*
X3777836Y2171700D01*
X3721303Y2235186D02*
X3751534Y2171700D01*
X3763627Y2235186D02*
X3721303D01*
X3688955D02*
X3698024Y2232163D01*
X3704071Y2223094D01*
X3707094Y2207978D01*
Y2198908D01*
X3704071Y2183793D01*
X3698024Y2174723D01*
X3688955Y2171700D01*
X3682909D01*
X3673839Y2174723D01*
X3667793Y2183793D01*
X3664770Y2198908D01*
Y2207978D01*
X3667793Y2223094D01*
X3673839Y2232163D01*
X3682909Y2235186D01*
X3688955D01*
X3635445D02*
X3644515Y2232163D01*
X3647538Y2226117D01*
Y2220070D01*
X3644515Y2214024D01*
X3638468Y2211001D01*
X3626376Y2207978D01*
X3617306Y2204955D01*
X3611260Y2198908D01*
X3608237Y2192862D01*
Y2183793D01*
X3611260Y2177746D01*
X3614283Y2174723D01*
X3623352Y2171700D01*
X3635445D01*
X3644515Y2174723D01*
X3647538Y2177746D01*
X3650561Y2183793D01*
Y2192862D01*
X3647538Y2198908D01*
X3641491Y2204955D01*
X3632422Y2207978D01*
X3620329Y2211001D01*
X3614283Y2214024D01*
X3611260Y2220070D01*
Y2226117D01*
X3614283Y2232163D01*
X3623352Y2235186D01*
X3635445D01*
X3822700Y2146286D02*
Y2082800D01*
Y2146286D02*
X3795492D01*
X3786422Y2143263D01*
X3783399Y2140240D01*
X3780376Y2134194D01*
Y2128147D01*
X3783399Y2122101D01*
X3786422Y2119078D01*
X3795492Y2116055D01*
X3822700D01*
X3801538D02*
X3780376Y2082800D01*
X3723843Y2146286D02*
X3754074Y2082800D01*
X3766167Y2146286D02*
X3723843D01*
X3691495D02*
X3700564Y2143263D01*
X3706611Y2134194D01*
X3709634Y2119078D01*
Y2110008D01*
X3706611Y2094893D01*
X3700564Y2085823D01*
X3691495Y2082800D01*
X3685449D01*
X3676379Y2085823D01*
X3670333Y2094893D01*
X3667310Y2110008D01*
Y2119078D01*
X3670333Y2134194D01*
X3676379Y2143263D01*
X3685449Y2146286D01*
X3691495D01*
X3610777D02*
X3641008Y2082800D01*
X3653101Y2146286D02*
X3610777D01*
X4198993Y2303890D02*
X4202016Y2309937D01*
X4208062Y2315983D01*
X4214108Y2319006D01*
X4226201D01*
X4232247Y2315983D01*
X4238294Y2309937D01*
X4241317Y2303890D01*
X4244340Y2294821D01*
Y2279705D01*
X4241317Y2270636D01*
X4238294Y2264590D01*
X4232247Y2258543D01*
X4226201Y2255520D01*
X4214108D01*
X4208062Y2258543D01*
X4202016Y2264590D01*
X4198993Y2270636D01*
X4181156Y2306914D02*
X4175110Y2309937D01*
X4166040Y2319006D01*
Y2255520D01*
X4131576Y2303890D02*
Y2306914D01*
X4128553Y2312960D01*
X4125530Y2315983D01*
X4119484Y2319006D01*
X4107391D01*
X4101345Y2315983D01*
X4098321Y2312960D01*
X4095298Y2306914D01*
Y2300867D01*
X4098321Y2294821D01*
X4104368Y2285752D01*
X4134599Y2255520D01*
X4092275D01*
X4047835Y2319006D02*
X4078066Y2276682D01*
X4032719D01*
X4047835Y2319006D02*
Y2255520D01*
X4852653Y3784611D02*
X4855677Y3790657D01*
X4861723Y3796704D01*
X4867769Y3799727D01*
X4879862D01*
X4885908Y3796704D01*
X4891955Y3790657D01*
X4894978Y3784611D01*
X4898001Y3775542D01*
Y3760426D01*
X4894978Y3751356D01*
X4891955Y3745310D01*
X4885908Y3739264D01*
X4879862Y3736240D01*
X4867769D01*
X4861723Y3739264D01*
X4855677Y3745310D01*
X4852653Y3751356D01*
X4834817Y3787634D02*
X4828771Y3790657D01*
X4819701Y3799727D01*
Y3736240D01*
X4782214Y3799727D02*
X4748959D01*
X4767098Y3775542D01*
X4758029D01*
X4751982Y3772518D01*
X4748959Y3769495D01*
X4745936Y3760426D01*
Y3754379D01*
X4748959Y3745310D01*
X4755005Y3739264D01*
X4764075Y3736240D01*
X4773144D01*
X4782214Y3739264D01*
X4785237Y3742287D01*
X4788260Y3748333D01*
X4695449Y3790657D02*
X4698472Y3796704D01*
X4707542Y3799727D01*
X4713588D01*
X4722658Y3796704D01*
X4728704Y3787634D01*
X4731727Y3772518D01*
Y3757402D01*
X4728704Y3745310D01*
X4722658Y3739264D01*
X4713588Y3736240D01*
X4710565D01*
X4701496Y3739264D01*
X4695449Y3745310D01*
X4692426Y3754379D01*
Y3757402D01*
X4695449Y3766472D01*
X4701496Y3772518D01*
X4710565Y3775542D01*
X4713588D01*
X4722658Y3772518D01*
X4728704Y3766472D01*
X4731727Y3757402D01*
X3218553Y4208890D02*
X3221576Y4214937D01*
X3227622Y4220983D01*
X3233668Y4224006D01*
X3245761D01*
X3251807Y4220983D01*
X3257854Y4214937D01*
X3260877Y4208890D01*
X3263900Y4199821D01*
Y4184705D01*
X3260877Y4175636D01*
X3257854Y4169590D01*
X3251807Y4163543D01*
X3245761Y4160520D01*
X3233668D01*
X3227622Y4163543D01*
X3221576Y4169590D01*
X3218553Y4175636D01*
X3197693Y4208890D02*
Y4211914D01*
X3194670Y4217960D01*
X3191646Y4220983D01*
X3185600Y4224006D01*
X3173507D01*
X3167461Y4220983D01*
X3164438Y4217960D01*
X3161415Y4211914D01*
Y4205867D01*
X3164438Y4199821D01*
X3170484Y4190752D01*
X3200716Y4160520D01*
X3158392D01*
X3126044Y4224006D02*
X3135113Y4220983D01*
X3141160Y4211914D01*
X3144183Y4196798D01*
Y4187728D01*
X3141160Y4172613D01*
X3135113Y4163543D01*
X3126044Y4160520D01*
X3119998D01*
X3110928Y4163543D01*
X3104882Y4172613D01*
X3101859Y4187728D01*
Y4196798D01*
X3104882Y4211914D01*
X3110928Y4220983D01*
X3119998Y4224006D01*
X3126044D01*
X3087650Y4211914D02*
X3081604Y4214937D01*
X3072534Y4224006D01*
Y4160520D01*
X3881493Y3330050D02*
X3884516Y3336097D01*
X3890562Y3342143D01*
X3896608Y3345166D01*
X3908701D01*
X3914747Y3342143D01*
X3920794Y3336097D01*
X3923817Y3330050D01*
X3926840Y3320981D01*
Y3305865D01*
X3923817Y3296796D01*
X3920794Y3290750D01*
X3914747Y3284703D01*
X3908701Y3281680D01*
X3896608D01*
X3890562Y3284703D01*
X3884516Y3290750D01*
X3881493Y3296796D01*
X3860633Y3330050D02*
Y3333074D01*
X3857610Y3339120D01*
X3854586Y3342143D01*
X3848540Y3345166D01*
X3836447D01*
X3830401Y3342143D01*
X3827378Y3339120D01*
X3824355Y3333074D01*
Y3327027D01*
X3827378Y3320981D01*
X3833424Y3311912D01*
X3863656Y3281680D01*
X3821332D01*
X3788984Y3345166D02*
X3798053Y3342143D01*
X3804100Y3333074D01*
X3807123Y3317958D01*
Y3308888D01*
X3804100Y3293773D01*
X3798053Y3284703D01*
X3788984Y3281680D01*
X3782938D01*
X3773868Y3284703D01*
X3767822Y3293773D01*
X3764799Y3308888D01*
Y3317958D01*
X3767822Y3333074D01*
X3773868Y3342143D01*
X3782938Y3345166D01*
X3788984D01*
X3747567Y3330050D02*
Y3333074D01*
X3744544Y3339120D01*
X3741520Y3342143D01*
X3735474Y3345166D01*
X3723381D01*
X3717335Y3342143D01*
X3714312Y3339120D01*
X3711289Y3333074D01*
Y3327027D01*
X3714312Y3320981D01*
X3720358Y3311912D01*
X3750590Y3281680D01*
X3708266D01*
X3675753Y3124310D02*
X3678776Y3130357D01*
X3684822Y3136403D01*
X3690868Y3139426D01*
X3702961D01*
X3709007Y3136403D01*
X3715054Y3130357D01*
X3718077Y3124310D01*
X3721100Y3115241D01*
Y3100125D01*
X3718077Y3091056D01*
X3715054Y3085010D01*
X3709007Y3078963D01*
X3702961Y3075940D01*
X3690868D01*
X3684822Y3078963D01*
X3678776Y3085010D01*
X3675753Y3091056D01*
X3654893Y3124310D02*
Y3127334D01*
X3651870Y3133380D01*
X3648846Y3136403D01*
X3642800Y3139426D01*
X3630707D01*
X3624661Y3136403D01*
X3621638Y3133380D01*
X3618615Y3127334D01*
Y3121287D01*
X3621638Y3115241D01*
X3627684Y3106172D01*
X3657916Y3075940D01*
X3615592D01*
X3583244Y3139426D02*
X3592313Y3136403D01*
X3598360Y3127334D01*
X3601383Y3112218D01*
Y3103148D01*
X3598360Y3088033D01*
X3592313Y3078963D01*
X3583244Y3075940D01*
X3577198D01*
X3568128Y3078963D01*
X3562082Y3088033D01*
X3559059Y3103148D01*
Y3112218D01*
X3562082Y3127334D01*
X3568128Y3136403D01*
X3577198Y3139426D01*
X3583244D01*
X3508572Y3130357D02*
X3511595Y3136403D01*
X3520665Y3139426D01*
X3526711D01*
X3535780Y3136403D01*
X3541827Y3127334D01*
X3544850Y3112218D01*
Y3097102D01*
X3541827Y3085010D01*
X3535780Y3078963D01*
X3526711Y3075940D01*
X3523688D01*
X3514618Y3078963D01*
X3508572Y3085010D01*
X3505549Y3094079D01*
Y3097102D01*
X3508572Y3106172D01*
X3514618Y3112218D01*
X3523688Y3115241D01*
X3526711D01*
X3535780Y3112218D01*
X3541827Y3106172D01*
X3544850Y3097102D01*
X3025513Y4409550D02*
X3028536Y4415597D01*
X3034582Y4421643D01*
X3040628Y4424666D01*
X3052721D01*
X3058767Y4421643D01*
X3064814Y4415597D01*
X3067837Y4409550D01*
X3070860Y4400481D01*
Y4385365D01*
X3067837Y4376296D01*
X3064814Y4370250D01*
X3058767Y4364203D01*
X3052721Y4361180D01*
X3040628D01*
X3034582Y4364203D01*
X3028536Y4370250D01*
X3025513Y4376296D01*
X3004653Y4409550D02*
Y4412574D01*
X3001630Y4418620D01*
X2998606Y4421643D01*
X2992560Y4424666D01*
X2980467D01*
X2974421Y4421643D01*
X2971398Y4418620D01*
X2968375Y4412574D01*
Y4406527D01*
X2971398Y4400481D01*
X2977444Y4391412D01*
X3007676Y4361180D01*
X2965352D01*
X2951143Y4412574D02*
X2945097Y4415597D01*
X2936027Y4424666D01*
Y4361180D01*
X2868308Y4424666D02*
X2898540D01*
X2901563Y4397458D01*
X2898540Y4400481D01*
X2889470Y4403504D01*
X2880401D01*
X2871332Y4400481D01*
X2865285Y4394435D01*
X2862262Y4385365D01*
Y4379319D01*
X2865285Y4370250D01*
X2871332Y4364203D01*
X2880401Y4361180D01*
X2889470D01*
X2898540Y4364203D01*
X2901563Y4367226D01*
X2904586Y4373273D01*
X6131933Y1902570D02*
X6134956Y1908617D01*
X6141002Y1914663D01*
X6147048Y1917686D01*
X6159141D01*
X6165187Y1914663D01*
X6171234Y1908617D01*
X6174257Y1902570D01*
X6177280Y1893501D01*
Y1878385D01*
X6174257Y1869316D01*
X6171234Y1863270D01*
X6165187Y1857223D01*
X6159141Y1854200D01*
X6147048D01*
X6141002Y1857223D01*
X6134956Y1863270D01*
X6131933Y1869316D01*
X6077818Y1917686D02*
X6108050D01*
X6111073Y1890478D01*
X6108050Y1893501D01*
X6098980Y1896524D01*
X6089911D01*
X6080841Y1893501D01*
X6074795Y1887455D01*
X6071772Y1878385D01*
Y1872339D01*
X6074795Y1863270D01*
X6080841Y1857223D01*
X6089911Y1854200D01*
X6098980D01*
X6108050Y1857223D01*
X6111073Y1860246D01*
X6114096Y1866293D01*
X6039424Y1917686D02*
X6048493Y1914663D01*
X6054540Y1905594D01*
X6057563Y1890478D01*
Y1881408D01*
X6054540Y1866293D01*
X6048493Y1857223D01*
X6039424Y1854200D01*
X6033378D01*
X6024308Y1857223D01*
X6018262Y1866293D01*
X6015239Y1881408D01*
Y1890478D01*
X6018262Y1905594D01*
X6024308Y1914663D01*
X6033378Y1917686D01*
X6039424D01*
X5970798D02*
X6001030Y1875362D01*
X5955683D01*
X5970798Y1917686D02*
Y1854200D01*
X3528060Y4094466D02*
Y4030980D01*
Y4094466D02*
X3500852D01*
X3491782Y4091443D01*
X3488759Y4088420D01*
X3485736Y4082374D01*
Y4076327D01*
X3488759Y4070281D01*
X3491782Y4067258D01*
X3500852Y4064235D01*
X3528060D01*
X3506898D02*
X3485736Y4030980D01*
X3468504Y4079350D02*
Y4082374D01*
X3465481Y4088420D01*
X3462457Y4091443D01*
X3456411Y4094466D01*
X3444318D01*
X3438272Y4091443D01*
X3435249Y4088420D01*
X3432226Y4082374D01*
Y4076327D01*
X3435249Y4070281D01*
X3441295Y4061212D01*
X3471527Y4030980D01*
X3429203D01*
X3396855Y4094466D02*
X3405924Y4091443D01*
X3411971Y4082374D01*
X3414994Y4067258D01*
Y4058188D01*
X3411971Y4043073D01*
X3405924Y4034003D01*
X3396855Y4030980D01*
X3390809D01*
X3381739Y4034003D01*
X3375693Y4043073D01*
X3372670Y4058188D01*
Y4067258D01*
X3375693Y4082374D01*
X3381739Y4091443D01*
X3390809Y4094466D01*
X3396855D01*
X3316137D02*
X3346368Y4030980D01*
X3358461Y4094466D02*
X3316137D01*
X3484866Y3543300D02*
X3421380D01*
X3484866D02*
Y3570508D01*
X3481843Y3579578D01*
X3478820Y3582601D01*
X3472774Y3585624D01*
X3466727D01*
X3460681Y3582601D01*
X3457658Y3579578D01*
X3454635Y3570508D01*
Y3543300D01*
Y3564462D02*
X3421380Y3585624D01*
X3469750Y3602856D02*
X3472774D01*
X3478820Y3605879D01*
X3481843Y3608903D01*
X3484866Y3614949D01*
Y3627042D01*
X3481843Y3633088D01*
X3478820Y3636111D01*
X3472774Y3639134D01*
X3466727D01*
X3460681Y3636111D01*
X3451612Y3630065D01*
X3421380Y3599833D01*
Y3642157D01*
X3484866Y3674505D02*
X3481843Y3665436D01*
X3472774Y3659389D01*
X3457658Y3656366D01*
X3448588D01*
X3433473Y3659389D01*
X3424403Y3665436D01*
X3421380Y3674505D01*
Y3680551D01*
X3424403Y3689621D01*
X3433473Y3695667D01*
X3448588Y3698690D01*
X3457658D01*
X3472774Y3695667D01*
X3481843Y3689621D01*
X3484866Y3680551D01*
Y3674505D01*
Y3749177D02*
Y3718945D01*
X3457658Y3715922D01*
X3460681Y3718945D01*
X3463704Y3728015D01*
Y3737084D01*
X3460681Y3746154D01*
X3454635Y3752200D01*
X3445565Y3755223D01*
X3439519D01*
X3430450Y3752200D01*
X3424403Y3746154D01*
X3421380Y3737084D01*
Y3728015D01*
X3424403Y3718945D01*
X3427426Y3715922D01*
X3433473Y3712899D01*
X3531391Y3863916D02*
Y3800429D01*
Y3863916D02*
X3504183D01*
X3495113Y3860892D01*
X3492090Y3857869D01*
X3489067Y3851823D01*
Y3845777D01*
X3492090Y3839730D01*
X3495113Y3836707D01*
X3504183Y3833684D01*
X3531391D01*
X3510229D02*
X3489067Y3800429D01*
X3471835Y3848800D02*
Y3851823D01*
X3468812Y3857869D01*
X3465789Y3860892D01*
X3459743Y3863916D01*
X3447650D01*
X3441604Y3860892D01*
X3438580Y3857869D01*
X3435557Y3851823D01*
Y3845777D01*
X3438580Y3839730D01*
X3444627Y3830661D01*
X3474858Y3800429D01*
X3432534D01*
X3400186Y3863916D02*
X3409256Y3860892D01*
X3415302Y3851823D01*
X3418325Y3836707D01*
Y3827638D01*
X3415302Y3812522D01*
X3409256Y3803452D01*
X3400186Y3800429D01*
X3394140D01*
X3385071Y3803452D01*
X3379024Y3812522D01*
X3376001Y3827638D01*
Y3836707D01*
X3379024Y3851823D01*
X3385071Y3860892D01*
X3394140Y3863916D01*
X3400186D01*
X3346677D02*
X3355746Y3860892D01*
X3358769Y3854846D01*
Y3848800D01*
X3355746Y3842754D01*
X3349700Y3839730D01*
X3337607Y3836707D01*
X3328538Y3833684D01*
X3322491Y3827638D01*
X3319468Y3821591D01*
Y3812522D01*
X3322491Y3806475D01*
X3325514Y3803452D01*
X3334584Y3800429D01*
X3346677D01*
X3355746Y3803452D01*
X3358769Y3806475D01*
X3361792Y3812522D01*
Y3821591D01*
X3358769Y3827638D01*
X3352723Y3833684D01*
X3343653Y3836707D01*
X3331561Y3839730D01*
X3325514Y3842754D01*
X3322491Y3848800D01*
Y3854846D01*
X3325514Y3860892D01*
X3334584Y3863916D01*
X3346677D01*
X3411593Y4419710D02*
X3414616Y4425757D01*
X3420662Y4431803D01*
X3426708Y4434826D01*
X3438801D01*
X3444847Y4431803D01*
X3450894Y4425757D01*
X3453917Y4419710D01*
X3456940Y4410641D01*
Y4395525D01*
X3453917Y4386456D01*
X3450894Y4380410D01*
X3444847Y4374363D01*
X3438801Y4371340D01*
X3426708D01*
X3420662Y4374363D01*
X3414616Y4380410D01*
X3411593Y4386456D01*
X3390733Y4419710D02*
Y4422734D01*
X3387710Y4428780D01*
X3384686Y4431803D01*
X3378640Y4434826D01*
X3366547D01*
X3360501Y4431803D01*
X3357478Y4428780D01*
X3354455Y4422734D01*
Y4416687D01*
X3357478Y4410641D01*
X3363524Y4401572D01*
X3393756Y4371340D01*
X3351432D01*
X3319084Y4434826D02*
X3328153Y4431803D01*
X3334200Y4422734D01*
X3337223Y4407618D01*
Y4398548D01*
X3334200Y4383433D01*
X3328153Y4374363D01*
X3319084Y4371340D01*
X3313038D01*
X3303968Y4374363D01*
X3297922Y4383433D01*
X3294899Y4398548D01*
Y4407618D01*
X3297922Y4422734D01*
X3303968Y4431803D01*
X3313038Y4434826D01*
X3319084D01*
X3238366D02*
X3268597Y4371340D01*
X3280690Y4434826D02*
X3238366D01*
X4857384Y3985188D02*
X4860407Y3991234D01*
X4866453Y3997280D01*
X4872500Y4000303D01*
X4884592D01*
X4890639Y3997280D01*
X4896685Y3991234D01*
X4899708Y3985188D01*
X4902731Y3976118D01*
Y3961002D01*
X4899708Y3951933D01*
X4896685Y3945887D01*
X4890639Y3939840D01*
X4884592Y3936817D01*
X4872500D01*
X4866453Y3939840D01*
X4860407Y3945887D01*
X4857384Y3951933D01*
X4839547Y3988211D02*
X4833501Y3991234D01*
X4824432Y4000303D01*
Y3936817D01*
X4756713Y4000303D02*
X4786944D01*
X4789968Y3973095D01*
X4786944Y3976118D01*
X4777875Y3979141D01*
X4768805D01*
X4759736Y3976118D01*
X4753690Y3970072D01*
X4750666Y3961002D01*
Y3954956D01*
X4753690Y3945887D01*
X4759736Y3939840D01*
X4768805Y3936817D01*
X4777875D01*
X4786944Y3939840D01*
X4789968Y3942863D01*
X4792991Y3948910D01*
X4736458Y3988211D02*
X4730411Y3991234D01*
X4721342Y4000303D01*
Y3936817D01*
X4399653Y1933050D02*
X4402676Y1939097D01*
X4408722Y1945143D01*
X4414768Y1948166D01*
X4426861D01*
X4432907Y1945143D01*
X4438954Y1939097D01*
X4441977Y1933050D01*
X4445000Y1923981D01*
Y1908865D01*
X4441977Y1899796D01*
X4438954Y1893750D01*
X4432907Y1887703D01*
X4426861Y1884680D01*
X4414768D01*
X4408722Y1887703D01*
X4402676Y1893750D01*
X4399653Y1899796D01*
X4381816Y1936074D02*
X4375770Y1939097D01*
X4366700Y1948166D01*
Y1884680D01*
X4317120Y1948166D02*
X4326190Y1945143D01*
X4332236Y1936074D01*
X4335259Y1920958D01*
Y1911888D01*
X4332236Y1896773D01*
X4326190Y1887703D01*
X4317120Y1884680D01*
X4311074D01*
X4302005Y1887703D01*
X4295958Y1896773D01*
X4292935Y1911888D01*
Y1920958D01*
X4295958Y1936074D01*
X4302005Y1945143D01*
X4311074Y1948166D01*
X4317120D01*
X4263610D02*
X4272680Y1945143D01*
X4275703Y1939097D01*
Y1933050D01*
X4272680Y1927004D01*
X4266634Y1923981D01*
X4254541Y1920958D01*
X4245472Y1917935D01*
X4239425Y1911888D01*
X4236402Y1905842D01*
Y1896773D01*
X4239425Y1890726D01*
X4242448Y1887703D01*
X4251518Y1884680D01*
X4263610D01*
X4272680Y1887703D01*
X4275703Y1890726D01*
X4278726Y1896773D01*
Y1905842D01*
X4275703Y1911888D01*
X4269657Y1917935D01*
X4260587Y1920958D01*
X4248495Y1923981D01*
X4242448Y1927004D01*
X4239425Y1933050D01*
Y1939097D01*
X4242448Y1945143D01*
X4251518Y1948166D01*
X4263610D01*
X5981810Y5275207D02*
X5987857Y5272184D01*
X5993903Y5266138D01*
X5996926Y5260092D01*
Y5247999D01*
X5993903Y5241953D01*
X5987857Y5235906D01*
X5981810Y5232883D01*
X5972741Y5229860D01*
X5957625D01*
X5948556Y5232883D01*
X5942510Y5235906D01*
X5936463Y5241953D01*
X5933440Y5247999D01*
Y5260092D01*
X5936463Y5266138D01*
X5942510Y5272184D01*
X5948556Y5275207D01*
X5996926Y5323276D02*
X5954602Y5293044D01*
Y5338391D01*
X5996926Y5323276D02*
X5933440D01*
X5996926Y5367716D02*
X5993903Y5358647D01*
X5984834Y5352600D01*
X5969718Y5349577D01*
X5960648D01*
X5945533Y5352600D01*
X5936463Y5358647D01*
X5933440Y5367716D01*
Y5373762D01*
X5936463Y5382832D01*
X5945533Y5388878D01*
X5960648Y5391901D01*
X5969718D01*
X5984834Y5388878D01*
X5993903Y5382832D01*
X5996926Y5373762D01*
Y5367716D01*
Y5442388D02*
Y5412156D01*
X5969718Y5409133D01*
X5972741Y5412156D01*
X5975764Y5421226D01*
Y5430295D01*
X5972741Y5439365D01*
X5966695Y5445411D01*
X5957625Y5448434D01*
X5951579D01*
X5942510Y5445411D01*
X5936463Y5439365D01*
X5933440Y5430295D01*
Y5421226D01*
X5936463Y5412156D01*
X5939486Y5409133D01*
X5945533Y5406110D01*
X3865880Y4434826D02*
Y4371340D01*
Y4434826D02*
X3838672D01*
X3829602Y4431803D01*
X3826579Y4428780D01*
X3823556Y4422734D01*
Y4416687D01*
X3826579Y4410641D01*
X3829602Y4407618D01*
X3838672Y4404595D01*
X3865880D01*
X3844718D02*
X3823556Y4371340D01*
X3806324Y4419710D02*
Y4422734D01*
X3803301Y4428780D01*
X3800277Y4431803D01*
X3794231Y4434826D01*
X3782138D01*
X3776092Y4431803D01*
X3773069Y4428780D01*
X3770046Y4422734D01*
Y4416687D01*
X3773069Y4410641D01*
X3779115Y4401572D01*
X3809347Y4371340D01*
X3767023D01*
X3752814Y4422734D02*
X3746768Y4425757D01*
X3737698Y4434826D01*
Y4371340D01*
X3688118Y4434826D02*
X3697188Y4431803D01*
X3703234Y4422734D01*
X3706257Y4407618D01*
Y4398548D01*
X3703234Y4383433D01*
X3697188Y4374363D01*
X3688118Y4371340D01*
X3682072D01*
X3673003Y4374363D01*
X3666956Y4383433D01*
X3663933Y4398548D01*
Y4407618D01*
X3666956Y4422734D01*
X3673003Y4431803D01*
X3682072Y4434826D01*
X3688118D01*
X4950460Y4475466D02*
Y4411980D01*
Y4475466D02*
X4923252D01*
X4914182Y4472443D01*
X4911159Y4469420D01*
X4908136Y4463374D01*
Y4457327D01*
X4911159Y4451281D01*
X4914182Y4448258D01*
X4923252Y4445235D01*
X4950460D01*
X4929298D02*
X4908136Y4411980D01*
X4890904Y4460350D02*
Y4463374D01*
X4887881Y4469420D01*
X4884857Y4472443D01*
X4878811Y4475466D01*
X4866718D01*
X4860672Y4472443D01*
X4857649Y4469420D01*
X4854626Y4463374D01*
Y4457327D01*
X4857649Y4451281D01*
X4863695Y4442212D01*
X4893927Y4411980D01*
X4851603D01*
X4819255Y4475466D02*
X4828324Y4472443D01*
X4834371Y4463374D01*
X4837394Y4448258D01*
Y4439188D01*
X4834371Y4424073D01*
X4828324Y4415003D01*
X4819255Y4411980D01*
X4813209D01*
X4804139Y4415003D01*
X4798093Y4424073D01*
X4795070Y4439188D01*
Y4448258D01*
X4798093Y4463374D01*
X4804139Y4472443D01*
X4813209Y4475466D01*
X4819255D01*
X4750629D02*
X4780861Y4433142D01*
X4735514D01*
X4750629Y4475466D02*
Y4411980D01*
X6088366Y5242560D02*
X6024880D01*
X6088366D02*
Y5269768D01*
X6085343Y5278838D01*
X6082320Y5281861D01*
X6076274Y5284884D01*
X6070227D01*
X6064181Y5281861D01*
X6061158Y5278838D01*
X6058135Y5269768D01*
Y5242560D01*
Y5263722D02*
X6024880Y5284884D01*
X6088366Y5329325D02*
X6046042Y5299093D01*
Y5344440D01*
X6088366Y5329325D02*
X6024880D01*
X6088366Y5373765D02*
X6085343Y5364696D01*
X6076274Y5358649D01*
X6061158Y5355626D01*
X6052088D01*
X6036973Y5358649D01*
X6027903Y5364696D01*
X6024880Y5373765D01*
Y5379811D01*
X6027903Y5388881D01*
X6036973Y5394927D01*
X6052088Y5397950D01*
X6061158D01*
X6076274Y5394927D01*
X6085343Y5388881D01*
X6088366Y5379811D01*
Y5373765D01*
Y5442391D02*
X6046042Y5412159D01*
Y5457506D01*
X6088366Y5442391D02*
X6024880D01*
X3422403Y3303915D02*
Y3253126D01*
Y3303915D02*
X3400636D01*
X3393381Y3301497D01*
X3390962Y3299078D01*
X3388544Y3294241D01*
Y3289404D01*
X3390962Y3284567D01*
X3393381Y3282149D01*
X3400636Y3279730D01*
X3422403D01*
X3405474D02*
X3388544Y3253126D01*
X3374758Y3291823D02*
Y3294241D01*
X3372339Y3299078D01*
X3369921Y3301497D01*
X3365084Y3303915D01*
X3355410D01*
X3350573Y3301497D01*
X3348154Y3299078D01*
X3345736Y3294241D01*
Y3289404D01*
X3348154Y3284567D01*
X3352991Y3277312D01*
X3377177Y3253126D01*
X3343317D01*
X3317439Y3303915D02*
X3324695Y3301497D01*
X3329532Y3294241D01*
X3331950Y3282149D01*
Y3274893D01*
X3329532Y3262800D01*
X3324695Y3255545D01*
X3317439Y3253126D01*
X3312602D01*
X3305346Y3255545D01*
X3300509Y3262800D01*
X3298091Y3274893D01*
Y3282149D01*
X3300509Y3294241D01*
X3305346Y3301497D01*
X3312602Y3303915D01*
X3317439D01*
X3286724Y3294241D02*
X3281887Y3296660D01*
X3274631Y3303915D01*
Y3253126D01*
X6296646Y5250180D02*
X6233160D01*
X6296646D02*
Y5277388D01*
X6293623Y5286458D01*
X6290600Y5289481D01*
X6284554Y5292504D01*
X6278507D01*
X6272461Y5289481D01*
X6269438Y5286458D01*
X6266415Y5277388D01*
Y5250180D01*
Y5271342D02*
X6233160Y5292504D01*
X6296646Y5336945D02*
X6254322Y5306713D01*
Y5352060D01*
X6296646Y5336945D02*
X6233160D01*
X6296646Y5381385D02*
X6293623Y5372316D01*
X6284554Y5366269D01*
X6269438Y5363246D01*
X6260368D01*
X6245253Y5366269D01*
X6236183Y5372316D01*
X6233160Y5381385D01*
Y5387431D01*
X6236183Y5396501D01*
X6245253Y5402547D01*
X6260368Y5405570D01*
X6269438D01*
X6284554Y5402547D01*
X6293623Y5396501D01*
X6296646Y5387431D01*
Y5381385D01*
Y5456057D02*
Y5425825D01*
X6269438Y5422802D01*
X6272461Y5425825D01*
X6275484Y5434895D01*
Y5443964D01*
X6272461Y5453034D01*
X6266415Y5459080D01*
X6257345Y5462103D01*
X6251299D01*
X6242230Y5459080D01*
X6236183Y5453034D01*
X6233160Y5443964D01*
Y5434895D01*
X6236183Y5425825D01*
X6239206Y5422802D01*
X6245253Y5419779D01*
X6184886Y5250180D02*
X6121400D01*
X6184886D02*
Y5277388D01*
X6181863Y5286458D01*
X6178840Y5289481D01*
X6172794Y5292504D01*
X6166747D01*
X6160701Y5289481D01*
X6157678Y5286458D01*
X6154655Y5277388D01*
Y5250180D01*
Y5271342D02*
X6121400Y5292504D01*
X6184886Y5336945D02*
X6142562Y5306713D01*
Y5352060D01*
X6184886Y5336945D02*
X6121400D01*
X6184886Y5381385D02*
X6181863Y5372316D01*
X6172794Y5366269D01*
X6157678Y5363246D01*
X6148608D01*
X6133493Y5366269D01*
X6124423Y5372316D01*
X6121400Y5381385D01*
Y5387431D01*
X6124423Y5396501D01*
X6133493Y5402547D01*
X6148608Y5405570D01*
X6157678D01*
X6172794Y5402547D01*
X6181863Y5396501D01*
X6184886Y5387431D01*
Y5381385D01*
X6172794Y5419779D02*
X6175817Y5425825D01*
X6184886Y5434895D01*
X6121400D01*
X782306Y3627120D02*
X718820D01*
X782306D02*
Y3654328D01*
X779283Y3663398D01*
X776260Y3666421D01*
X770214Y3669444D01*
X764167D01*
X758121Y3666421D01*
X755098Y3663398D01*
X752075Y3654328D01*
Y3627120D01*
Y3648282D02*
X718820Y3669444D01*
X770214Y3683653D02*
X773237Y3689699D01*
X782306Y3698769D01*
X718820D01*
X782306Y3748349D02*
X779283Y3739279D01*
X770214Y3733233D01*
X755098Y3730210D01*
X746028D01*
X730913Y3733233D01*
X721843Y3739279D01*
X718820Y3748349D01*
Y3754395D01*
X721843Y3763464D01*
X730913Y3769511D01*
X746028Y3772534D01*
X755098D01*
X770214Y3769511D01*
X779283Y3763464D01*
X782306Y3754395D01*
Y3748349D01*
Y3816974D02*
X739982Y3786743D01*
Y3832090D01*
X782306Y3816974D02*
X718820D01*
X767190Y3846299D02*
X770214D01*
X776260Y3849322D01*
X779283Y3852345D01*
X782306Y3858392D01*
Y3870484D01*
X779283Y3876530D01*
X776260Y3879554D01*
X770214Y3882577D01*
X764167D01*
X758121Y3879554D01*
X749052Y3873507D01*
X718820Y3843276D01*
Y3885600D01*
X670546Y3627120D02*
X607060D01*
X670546D02*
Y3654328D01*
X667523Y3663398D01*
X664500Y3666421D01*
X658454Y3669444D01*
X652407D01*
X646361Y3666421D01*
X643338Y3663398D01*
X640315Y3654328D01*
Y3627120D01*
Y3648282D02*
X607060Y3669444D01*
X658454Y3683653D02*
X661477Y3689699D01*
X670546Y3698769D01*
X607060D01*
X670546Y3748349D02*
X667523Y3739279D01*
X658454Y3733233D01*
X643338Y3730210D01*
X634268D01*
X619153Y3733233D01*
X610083Y3739279D01*
X607060Y3748349D01*
Y3754395D01*
X610083Y3763464D01*
X619153Y3769511D01*
X634268Y3772534D01*
X643338D01*
X658454Y3769511D01*
X667523Y3763464D01*
X670546Y3754395D01*
Y3748349D01*
Y3816974D02*
X628222Y3786743D01*
Y3832090D01*
X670546Y3816974D02*
X607060D01*
X670546Y3849322D02*
Y3882577D01*
X646361Y3864438D01*
Y3873507D01*
X643338Y3879554D01*
X640315Y3882577D01*
X631245Y3885600D01*
X625199D01*
X616130Y3882577D01*
X610083Y3876530D01*
X607060Y3867461D01*
Y3858392D01*
X610083Y3849322D01*
X613106Y3846299D01*
X619153Y3843276D01*
X993126Y3652520D02*
X929640D01*
X993126D02*
Y3679728D01*
X990103Y3688798D01*
X987080Y3691821D01*
X981034Y3694844D01*
X974987D01*
X968941Y3691821D01*
X965918Y3688798D01*
X962895Y3679728D01*
Y3652520D01*
Y3673682D02*
X929640Y3694844D01*
X981034Y3709053D02*
X984057Y3715099D01*
X993126Y3724169D01*
X929640D01*
X993126Y3773749D02*
X990103Y3764679D01*
X981034Y3758633D01*
X965918Y3755610D01*
X956848D01*
X941733Y3758633D01*
X932663Y3764679D01*
X929640Y3773749D01*
Y3779795D01*
X932663Y3788864D01*
X941733Y3794911D01*
X956848Y3797934D01*
X965918D01*
X981034Y3794911D01*
X990103Y3788864D01*
X993126Y3779795D01*
Y3773749D01*
Y3842374D02*
X950802Y3812143D01*
Y3857490D01*
X993126Y3842374D02*
X929640D01*
X993126Y3898907D02*
X950802Y3868676D01*
Y3914023D01*
X993126Y3898907D02*
X929640D01*
X883906Y3652520D02*
X820420D01*
X883906D02*
Y3679728D01*
X880883Y3688798D01*
X877860Y3691821D01*
X871814Y3694844D01*
X865767D01*
X859721Y3691821D01*
X856698Y3688798D01*
X853675Y3679728D01*
Y3652520D01*
Y3673682D02*
X820420Y3694844D01*
X871814Y3709053D02*
X874837Y3715099D01*
X883906Y3724169D01*
X820420D01*
X883906Y3773749D02*
X880883Y3764679D01*
X871814Y3758633D01*
X856698Y3755610D01*
X847628D01*
X832513Y3758633D01*
X823443Y3764679D01*
X820420Y3773749D01*
Y3779795D01*
X823443Y3788864D01*
X832513Y3794911D01*
X847628Y3797934D01*
X856698D01*
X871814Y3794911D01*
X880883Y3788864D01*
X883906Y3779795D01*
Y3773749D01*
Y3842374D02*
X841582Y3812143D01*
Y3857490D01*
X883906Y3842374D02*
X820420D01*
X883906Y3904954D02*
Y3874722D01*
X856698Y3871699D01*
X859721Y3874722D01*
X862744Y3883792D01*
Y3892861D01*
X859721Y3901930D01*
X853675Y3907977D01*
X844605Y3911000D01*
X838559D01*
X829490Y3907977D01*
X823443Y3901930D01*
X820420Y3892861D01*
Y3883792D01*
X823443Y3874722D01*
X826466Y3871699D01*
X832513Y3868676D01*
X3330050Y898787D02*
X3336097Y895764D01*
X3342143Y889718D01*
X3345166Y883672D01*
Y871579D01*
X3342143Y865533D01*
X3336097Y859486D01*
X3330050Y856463D01*
X3320981Y853440D01*
X3305865D01*
X3296796Y856463D01*
X3290750Y859486D01*
X3284703Y865533D01*
X3281680Y871579D01*
Y883672D01*
X3284703Y889718D01*
X3290750Y895764D01*
X3296796Y898787D01*
X3345166Y958948D02*
X3281680Y928717D01*
X3345166Y916624D02*
Y958948D01*
Y991296D02*
X3342143Y982227D01*
X3333074Y976180D01*
X3317958Y973157D01*
X3308888D01*
X3293773Y976180D01*
X3284703Y982227D01*
X3281680Y991296D01*
Y997342D01*
X3284703Y1006412D01*
X3293773Y1012458D01*
X3308888Y1015481D01*
X3317958D01*
X3333074Y1012458D01*
X3342143Y1006412D01*
X3345166Y997342D01*
Y991296D01*
X3333074Y1029690D02*
X3336097Y1035736D01*
X3345166Y1044806D01*
X3281680D01*
X3503033Y1399650D02*
X3506056Y1405697D01*
X3512102Y1411743D01*
X3518148Y1414766D01*
X3530241D01*
X3536287Y1411743D01*
X3542334Y1405697D01*
X3545357Y1399650D01*
X3548380Y1390581D01*
Y1375465D01*
X3545357Y1366396D01*
X3542334Y1360350D01*
X3536287Y1354303D01*
X3530241Y1351280D01*
X3518148D01*
X3512102Y1354303D01*
X3506056Y1360350D01*
X3503033Y1366396D01*
X3442872Y1414766D02*
X3473103Y1351280D01*
X3485196Y1414766D02*
X3442872D01*
X3410524D02*
X3419593Y1411743D01*
X3425640Y1402674D01*
X3428663Y1387558D01*
Y1378488D01*
X3425640Y1363373D01*
X3419593Y1354303D01*
X3410524Y1351280D01*
X3404478D01*
X3395408Y1354303D01*
X3389362Y1363373D01*
X3386339Y1378488D01*
Y1387558D01*
X3389362Y1402674D01*
X3395408Y1411743D01*
X3404478Y1414766D01*
X3410524D01*
X3332829Y1393604D02*
X3335852Y1384535D01*
X3341898Y1378488D01*
X3350968Y1375465D01*
X3353991D01*
X3363060Y1378488D01*
X3369107Y1384535D01*
X3372130Y1393604D01*
Y1396627D01*
X3369107Y1405697D01*
X3363060Y1411743D01*
X3353991Y1414766D01*
X3350968D01*
X3341898Y1411743D01*
X3335852Y1405697D01*
X3332829Y1393604D01*
Y1378488D01*
X3335852Y1363373D01*
X3341898Y1354303D01*
X3350968Y1351280D01*
X3357014D01*
X3366084Y1354303D01*
X3369107Y1360350D01*
X3495413Y1234550D02*
X3498436Y1240597D01*
X3504482Y1246643D01*
X3510528Y1249666D01*
X3522621D01*
X3528667Y1246643D01*
X3534714Y1240597D01*
X3537737Y1234550D01*
X3540760Y1225481D01*
Y1210365D01*
X3537737Y1201296D01*
X3534714Y1195250D01*
X3528667Y1189203D01*
X3522621Y1186180D01*
X3510528D01*
X3504482Y1189203D01*
X3498436Y1195250D01*
X3495413Y1201296D01*
X3435252Y1249666D02*
X3465483Y1186180D01*
X3477576Y1249666D02*
X3435252D01*
X3421043Y1237574D02*
X3414997Y1240597D01*
X3405927Y1249666D01*
Y1186180D01*
X3371463Y1234550D02*
Y1237574D01*
X3368440Y1243620D01*
X3365417Y1246643D01*
X3359370Y1249666D01*
X3347278D01*
X3341232Y1246643D01*
X3338208Y1243620D01*
X3335185Y1237574D01*
Y1231527D01*
X3338208Y1225481D01*
X3344255Y1216412D01*
X3374486Y1186180D01*
X3332162D01*
X3048110Y1856367D02*
X3054157Y1853344D01*
X3060203Y1847298D01*
X3063226Y1841252D01*
Y1829159D01*
X3060203Y1823113D01*
X3054157Y1817066D01*
X3048110Y1814043D01*
X3039041Y1811020D01*
X3023925D01*
X3014856Y1814043D01*
X3008810Y1817066D01*
X3002763Y1823113D01*
X2999740Y1829159D01*
Y1841252D01*
X3002763Y1847298D01*
X3008810Y1853344D01*
X3014856Y1856367D01*
X3063226Y1916528D02*
X2999740Y1886297D01*
X3063226Y1874204D02*
Y1916528D01*
X3051134Y1930737D02*
X3054157Y1936783D01*
X3063226Y1945853D01*
X2999740D01*
X3063226Y1983340D02*
Y2016595D01*
X3039041Y1998456D01*
Y2007525D01*
X3036018Y2013572D01*
X3032995Y2016595D01*
X3023925Y2019618D01*
X3017879D01*
X3008810Y2016595D01*
X3002763Y2010548D01*
X2999740Y2001479D01*
Y1992410D01*
X3002763Y1983340D01*
X3005786Y1980317D01*
X3011833Y1977294D01*
X2905845Y1855632D02*
X2911892Y1852609D01*
X2917938Y1846562D01*
X2920961Y1840516D01*
Y1828423D01*
X2917938Y1822377D01*
X2911892Y1816331D01*
X2905845Y1813308D01*
X2896776Y1810284D01*
X2881660D01*
X2872590Y1813308D01*
X2866544Y1816331D01*
X2860498Y1822377D01*
X2857475Y1828423D01*
Y1840516D01*
X2860498Y1846562D01*
X2866544Y1852609D01*
X2872590Y1855632D01*
X2920961Y1915793D02*
X2857475Y1885561D01*
X2920961Y1873468D02*
Y1915793D01*
X2908868Y1930001D02*
X2911892Y1936048D01*
X2920961Y1945117D01*
X2857475D01*
X2920961Y1991674D02*
X2917938Y1982604D01*
X2911892Y1979581D01*
X2905845D01*
X2899799Y1982604D01*
X2896776Y1988651D01*
X2893753Y2000744D01*
X2890729Y2009813D01*
X2884683Y2015859D01*
X2878637Y2018882D01*
X2869567D01*
X2863521Y2015859D01*
X2860498Y2012836D01*
X2857475Y2003767D01*
Y1991674D01*
X2860498Y1982604D01*
X2863521Y1979581D01*
X2869567Y1976558D01*
X2878637D01*
X2884683Y1979581D01*
X2890729Y1985628D01*
X2893753Y1994697D01*
X2896776Y2006790D01*
X2899799Y2012836D01*
X2905845Y2015859D01*
X2911892D01*
X2917938Y2012836D01*
X2920961Y2003767D01*
Y1991674D01*
X2756485Y1852348D02*
X2762531Y1849325D01*
X2768578Y1843279D01*
X2771601Y1837232D01*
Y1825140D01*
X2768578Y1819093D01*
X2762531Y1813047D01*
X2756485Y1810024D01*
X2747416Y1807001D01*
X2732300D01*
X2723230Y1810024D01*
X2717184Y1813047D01*
X2711138Y1819093D01*
X2708114Y1825140D01*
Y1837232D01*
X2711138Y1843279D01*
X2717184Y1849325D01*
X2723230Y1852348D01*
X2771601Y1912509D02*
X2708114Y1882277D01*
X2771601Y1870185D02*
Y1912509D01*
X2756485Y1929741D02*
X2759508D01*
X2765555Y1932764D01*
X2768578Y1935787D01*
X2771601Y1941834D01*
Y1953926D01*
X2768578Y1959972D01*
X2765555Y1962996D01*
X2759508Y1966019D01*
X2753462D01*
X2747416Y1962996D01*
X2738346Y1956949D01*
X2708114Y1926718D01*
Y1969042D01*
X2759508Y1983251D02*
X2762531Y1989297D01*
X2771601Y1998367D01*
X2708114D01*
X3241150Y896247D02*
X3247197Y893224D01*
X3253243Y887178D01*
X3256266Y881132D01*
Y869039D01*
X3253243Y862993D01*
X3247197Y856946D01*
X3241150Y853923D01*
X3232081Y850900D01*
X3216965D01*
X3207896Y853923D01*
X3201850Y856946D01*
X3195803Y862993D01*
X3192780Y869039D01*
Y881132D01*
X3195803Y887178D01*
X3201850Y893224D01*
X3207896Y896247D01*
X3256266Y956408D02*
X3192780Y926177D01*
X3256266Y914084D02*
Y956408D01*
Y988756D02*
X3253243Y979687D01*
X3244174Y973640D01*
X3229058Y970617D01*
X3219988D01*
X3204873Y973640D01*
X3195803Y979687D01*
X3192780Y988756D01*
Y994802D01*
X3195803Y1003872D01*
X3204873Y1009918D01*
X3219988Y1012941D01*
X3229058D01*
X3244174Y1009918D01*
X3253243Y1003872D01*
X3256266Y994802D01*
Y988756D01*
X3241150Y1030173D02*
X3244174D01*
X3250220Y1033196D01*
X3253243Y1036220D01*
X3256266Y1042266D01*
Y1054359D01*
X3253243Y1060405D01*
X3250220Y1063428D01*
X3244174Y1066451D01*
X3238127D01*
X3232081Y1063428D01*
X3223012Y1057382D01*
X3192780Y1027150D01*
Y1069474D01*
X2603610Y1851287D02*
X2609657Y1848264D01*
X2615703Y1842218D01*
X2618726Y1836172D01*
Y1824079D01*
X2615703Y1818033D01*
X2609657Y1811986D01*
X2603610Y1808963D01*
X2594541Y1805940D01*
X2579425D01*
X2570356Y1808963D01*
X2564310Y1811986D01*
X2558263Y1818033D01*
X2555240Y1824079D01*
Y1836172D01*
X2558263Y1842218D01*
X2564310Y1848264D01*
X2570356Y1851287D01*
X2618726Y1911448D02*
X2555240Y1881217D01*
X2618726Y1869124D02*
Y1911448D01*
X2603610Y1928680D02*
X2606634D01*
X2612680Y1931703D01*
X2615703Y1934727D01*
X2618726Y1940773D01*
Y1952866D01*
X2615703Y1958912D01*
X2612680Y1961935D01*
X2606634Y1964958D01*
X2600587D01*
X2594541Y1961935D01*
X2585472Y1955889D01*
X2555240Y1925657D01*
Y1967981D01*
X2609657Y2018468D02*
X2615703Y2015445D01*
X2618726Y2006375D01*
Y2000329D01*
X2615703Y1991260D01*
X2606634Y1985213D01*
X2591518Y1982190D01*
X2576402D01*
X2564310Y1985213D01*
X2558263Y1991260D01*
X2555240Y2000329D01*
Y2003352D01*
X2558263Y2012422D01*
X2564310Y2018468D01*
X2573379Y2021491D01*
X2576402D01*
X2585472Y2018468D01*
X2591518Y2012422D01*
X2594541Y2003352D01*
Y2000329D01*
X2591518Y1991260D01*
X2585472Y1985213D01*
X2576402Y1982190D01*
X5682353Y2248010D02*
X5685376Y2254057D01*
X5691422Y2260103D01*
X5697468Y2263126D01*
X5709561D01*
X5715607Y2260103D01*
X5721654Y2254057D01*
X5724677Y2248010D01*
X5727700Y2238941D01*
Y2223825D01*
X5724677Y2214756D01*
X5721654Y2208710D01*
X5715607Y2202663D01*
X5709561Y2199640D01*
X5697468D01*
X5691422Y2202663D01*
X5685376Y2208710D01*
X5682353Y2214756D01*
X5628238Y2263126D02*
X5658470D01*
X5661493Y2235918D01*
X5658470Y2238941D01*
X5649400Y2241964D01*
X5640331D01*
X5631261Y2238941D01*
X5625215Y2232895D01*
X5622192Y2223825D01*
Y2217779D01*
X5625215Y2208710D01*
X5631261Y2202663D01*
X5640331Y2199640D01*
X5649400D01*
X5658470Y2202663D01*
X5661493Y2205686D01*
X5664516Y2211733D01*
X5589844Y2263126D02*
X5598913Y2260103D01*
X5604960Y2251034D01*
X5607983Y2235918D01*
Y2226848D01*
X5604960Y2211733D01*
X5598913Y2202663D01*
X5589844Y2199640D01*
X5583798D01*
X5574728Y2202663D01*
X5568682Y2211733D01*
X5565659Y2226848D01*
Y2235918D01*
X5568682Y2251034D01*
X5574728Y2260103D01*
X5583798Y2263126D01*
X5589844D01*
X5509126D02*
X5539357Y2199640D01*
X5551450Y2263126D02*
X5509126D01*
X5359510Y1889387D02*
X5365557Y1886364D01*
X5371603Y1880318D01*
X5374626Y1874272D01*
Y1862179D01*
X5371603Y1856133D01*
X5365557Y1850086D01*
X5359510Y1847063D01*
X5350441Y1844040D01*
X5335325D01*
X5326256Y1847063D01*
X5320210Y1850086D01*
X5314163Y1856133D01*
X5311140Y1862179D01*
Y1874272D01*
X5314163Y1880318D01*
X5320210Y1886364D01*
X5326256Y1889387D01*
X5374626Y1943502D02*
Y1913270D01*
X5347418Y1910247D01*
X5350441Y1913270D01*
X5353464Y1922340D01*
Y1931409D01*
X5350441Y1940479D01*
X5344395Y1946525D01*
X5335325Y1949548D01*
X5329279D01*
X5320210Y1946525D01*
X5314163Y1940479D01*
X5311140Y1931409D01*
Y1922340D01*
X5314163Y1913270D01*
X5317186Y1910247D01*
X5323233Y1907224D01*
X5374626Y1981896D02*
X5371603Y1972827D01*
X5362534Y1966780D01*
X5347418Y1963757D01*
X5338348D01*
X5323233Y1966780D01*
X5314163Y1972827D01*
X5311140Y1981896D01*
Y1987942D01*
X5314163Y1997012D01*
X5323233Y2003058D01*
X5338348Y2006081D01*
X5347418D01*
X5362534Y2003058D01*
X5371603Y1997012D01*
X5374626Y1987942D01*
Y1981896D01*
X5365557Y2056568D02*
X5371603Y2053545D01*
X5374626Y2044475D01*
Y2038429D01*
X5371603Y2029360D01*
X5362534Y2023313D01*
X5347418Y2020290D01*
X5332302D01*
X5320210Y2023313D01*
X5314163Y2029360D01*
X5311140Y2038429D01*
Y2041452D01*
X5314163Y2050522D01*
X5320210Y2056568D01*
X5329279Y2059591D01*
X5332302D01*
X5341372Y2056568D01*
X5347418Y2050522D01*
X5350441Y2041452D01*
Y2038429D01*
X5347418Y2029360D01*
X5341372Y2023313D01*
X5332302Y2020290D01*
X5354430Y2166247D02*
X5360477Y2163224D01*
X5366523Y2157178D01*
X5369546Y2151132D01*
Y2139039D01*
X5366523Y2132993D01*
X5360477Y2126946D01*
X5354430Y2123923D01*
X5345361Y2120900D01*
X5330245D01*
X5321176Y2123923D01*
X5315130Y2126946D01*
X5309083Y2132993D01*
X5306060Y2139039D01*
Y2151132D01*
X5309083Y2157178D01*
X5315130Y2163224D01*
X5321176Y2166247D01*
X5369546Y2220362D02*
Y2190130D01*
X5342338Y2187107D01*
X5345361Y2190130D01*
X5348384Y2199200D01*
Y2208269D01*
X5345361Y2217339D01*
X5339315Y2223385D01*
X5330245Y2226408D01*
X5324199D01*
X5315130Y2223385D01*
X5309083Y2217339D01*
X5306060Y2208269D01*
Y2199200D01*
X5309083Y2190130D01*
X5312106Y2187107D01*
X5318153Y2184084D01*
X5369546Y2258756D02*
X5366523Y2249687D01*
X5357454Y2243640D01*
X5342338Y2240617D01*
X5333268D01*
X5318153Y2243640D01*
X5309083Y2249687D01*
X5306060Y2258756D01*
Y2264802D01*
X5309083Y2273872D01*
X5318153Y2279918D01*
X5333268Y2282941D01*
X5342338D01*
X5357454Y2279918D01*
X5366523Y2273872D01*
X5369546Y2264802D01*
Y2258756D01*
Y2333428D02*
Y2303196D01*
X5342338Y2300173D01*
X5345361Y2303196D01*
X5348384Y2312266D01*
Y2321335D01*
X5345361Y2330405D01*
X5339315Y2336451D01*
X5330245Y2339474D01*
X5324199D01*
X5315130Y2336451D01*
X5309083Y2330405D01*
X5306060Y2321335D01*
Y2312266D01*
X5309083Y2303196D01*
X5312106Y2300173D01*
X5318153Y2297150D01*
X5499210Y1693807D02*
X5505257Y1690784D01*
X5511303Y1684738D01*
X5514326Y1678692D01*
Y1666599D01*
X5511303Y1660553D01*
X5505257Y1654506D01*
X5499210Y1651483D01*
X5490141Y1648460D01*
X5475025D01*
X5465956Y1651483D01*
X5459910Y1654506D01*
X5453863Y1660553D01*
X5450840Y1666599D01*
Y1678692D01*
X5453863Y1684738D01*
X5459910Y1690784D01*
X5465956Y1693807D01*
X5514326Y1747922D02*
Y1717690D01*
X5487118Y1714667D01*
X5490141Y1717690D01*
X5493164Y1726760D01*
Y1735829D01*
X5490141Y1744899D01*
X5484095Y1750945D01*
X5475025Y1753968D01*
X5468979D01*
X5459910Y1750945D01*
X5453863Y1744899D01*
X5450840Y1735829D01*
Y1726760D01*
X5453863Y1717690D01*
X5456886Y1714667D01*
X5462933Y1711644D01*
X5514326Y1786316D02*
X5511303Y1777247D01*
X5502234Y1771200D01*
X5487118Y1768177D01*
X5478048D01*
X5462933Y1771200D01*
X5453863Y1777247D01*
X5450840Y1786316D01*
Y1792362D01*
X5453863Y1801432D01*
X5462933Y1807478D01*
X5478048Y1810501D01*
X5487118D01*
X5502234Y1807478D01*
X5511303Y1801432D01*
X5514326Y1792362D01*
Y1786316D01*
Y1830756D02*
Y1864011D01*
X5490141Y1845872D01*
Y1854942D01*
X5487118Y1860988D01*
X5484095Y1864011D01*
X5475025Y1867034D01*
X5468979D01*
X5459910Y1864011D01*
X5453863Y1857965D01*
X5450840Y1848895D01*
Y1839826D01*
X5453863Y1830756D01*
X5456886Y1827733D01*
X5462933Y1824710D01*
X5890633Y2138790D02*
X5893656Y2144837D01*
X5899702Y2150883D01*
X5905748Y2153906D01*
X5917841D01*
X5923887Y2150883D01*
X5929934Y2144837D01*
X5932957Y2138790D01*
X5935980Y2129721D01*
Y2114605D01*
X5932957Y2105536D01*
X5929934Y2099490D01*
X5923887Y2093443D01*
X5917841Y2090420D01*
X5905748D01*
X5899702Y2093443D01*
X5893656Y2099490D01*
X5890633Y2105536D01*
X5836518Y2153906D02*
X5866750D01*
X5869773Y2126698D01*
X5866750Y2129721D01*
X5857680Y2132744D01*
X5848611D01*
X5839541Y2129721D01*
X5833495Y2123675D01*
X5830472Y2114605D01*
Y2108559D01*
X5833495Y2099490D01*
X5839541Y2093443D01*
X5848611Y2090420D01*
X5857680D01*
X5866750Y2093443D01*
X5869773Y2096466D01*
X5872796Y2102513D01*
X5798124Y2153906D02*
X5807193Y2150883D01*
X5813240Y2141814D01*
X5816263Y2126698D01*
Y2117628D01*
X5813240Y2102513D01*
X5807193Y2093443D01*
X5798124Y2090420D01*
X5792078D01*
X5783008Y2093443D01*
X5776962Y2102513D01*
X5773939Y2117628D01*
Y2126698D01*
X5776962Y2141814D01*
X5783008Y2150883D01*
X5792078Y2153906D01*
X5798124D01*
X5756707Y2138790D02*
Y2141814D01*
X5753684Y2147860D01*
X5750660Y2150883D01*
X5744614Y2153906D01*
X5732521D01*
X5726475Y2150883D01*
X5723452Y2147860D01*
X5720429Y2141814D01*
Y2135767D01*
X5723452Y2129721D01*
X5729498Y2120652D01*
X5759730Y2090420D01*
X5717406D01*
X5308973Y4544170D02*
X5311996Y4550217D01*
X5318042Y4556263D01*
X5324088Y4559286D01*
X5336181D01*
X5342227Y4556263D01*
X5348274Y4550217D01*
X5351297Y4544170D01*
X5354320Y4535101D01*
Y4519985D01*
X5351297Y4510916D01*
X5348274Y4504870D01*
X5342227Y4498823D01*
X5336181Y4495800D01*
X5324088D01*
X5318042Y4498823D01*
X5311996Y4504870D01*
X5308973Y4510916D01*
X5291136Y4547194D02*
X5285090Y4550217D01*
X5276020Y4559286D01*
Y4495800D01*
X5208301Y4559286D02*
X5238533D01*
X5241556Y4532078D01*
X5238533Y4535101D01*
X5229464Y4538124D01*
X5220394D01*
X5211325Y4535101D01*
X5205278Y4529055D01*
X5202255Y4519985D01*
Y4513939D01*
X5205278Y4504870D01*
X5211325Y4498823D01*
X5220394Y4495800D01*
X5229464D01*
X5238533Y4498823D01*
X5241556Y4501846D01*
X5244579Y4507893D01*
X5151768Y4559286D02*
X5182000D01*
X5185023Y4532078D01*
X5182000Y4535101D01*
X5172930Y4538124D01*
X5163861D01*
X5154792Y4535101D01*
X5148745Y4529055D01*
X5145722Y4519985D01*
Y4513939D01*
X5148745Y4504870D01*
X5154792Y4498823D01*
X5163861Y4495800D01*
X5172930D01*
X5182000Y4498823D01*
X5185023Y4501846D01*
X5188046Y4507893D01*
X5636370Y4297307D02*
X5642417Y4294284D01*
X5648463Y4288238D01*
X5651486Y4282192D01*
Y4270099D01*
X5648463Y4264053D01*
X5642417Y4258006D01*
X5636370Y4254983D01*
X5627301Y4251960D01*
X5612185D01*
X5603116Y4254983D01*
X5597070Y4258006D01*
X5591023Y4264053D01*
X5588000Y4270099D01*
Y4282192D01*
X5591023Y4288238D01*
X5597070Y4294284D01*
X5603116Y4297307D01*
X5639394Y4315144D02*
X5642417Y4321190D01*
X5651486Y4330260D01*
X5588000D01*
X5651486Y4391932D02*
X5609162Y4361701D01*
Y4407048D01*
X5651486Y4391932D02*
X5588000D01*
X5630324Y4457535D02*
X5621255Y4454512D01*
X5615208Y4448465D01*
X5612185Y4439396D01*
Y4436373D01*
X5615208Y4427303D01*
X5621255Y4421257D01*
X5630324Y4418234D01*
X5633347D01*
X5642417Y4421257D01*
X5648463Y4427303D01*
X5651486Y4436373D01*
Y4439396D01*
X5648463Y4448465D01*
X5642417Y4454512D01*
X5630324Y4457535D01*
X5615208D01*
X5600093Y4454512D01*
X5591023Y4448465D01*
X5588000Y4439396D01*
Y4433350D01*
X5591023Y4424280D01*
X5597070Y4421257D01*
X5796653Y4092050D02*
X5799676Y4098097D01*
X5805722Y4104143D01*
X5811768Y4107166D01*
X5823861D01*
X5829907Y4104143D01*
X5835954Y4098097D01*
X5838977Y4092050D01*
X5842000Y4082981D01*
Y4067865D01*
X5838977Y4058796D01*
X5835954Y4052750D01*
X5829907Y4046703D01*
X5823861Y4043680D01*
X5811768D01*
X5805722Y4046703D01*
X5799676Y4052750D01*
X5796653Y4058796D01*
X5778816Y4095074D02*
X5772770Y4098097D01*
X5763700Y4107166D01*
Y4043680D01*
X5702028Y4107166D02*
X5732259Y4064842D01*
X5686912D01*
X5702028Y4107166D02*
Y4043680D01*
X5660610Y4107166D02*
X5669680Y4104143D01*
X5672703Y4098097D01*
Y4092050D01*
X5669680Y4086004D01*
X5663634Y4082981D01*
X5651541Y4079958D01*
X5642472Y4076935D01*
X5636425Y4070888D01*
X5633402Y4064842D01*
Y4055773D01*
X5636425Y4049726D01*
X5639448Y4046703D01*
X5648518Y4043680D01*
X5660610D01*
X5669680Y4046703D01*
X5672703Y4049726D01*
X5675726Y4055773D01*
Y4064842D01*
X5672703Y4070888D01*
X5666657Y4076935D01*
X5657587Y4079958D01*
X5645495Y4082981D01*
X5639448Y4086004D01*
X5636425Y4092050D01*
Y4098097D01*
X5639448Y4104143D01*
X5648518Y4107166D01*
X5660610D01*
X5443206Y4318000D02*
X5379720D01*
X5443206D02*
Y4345208D01*
X5440183Y4354278D01*
X5437160Y4357301D01*
X5431114Y4360324D01*
X5425067D01*
X5419021Y4357301D01*
X5415998Y4354278D01*
X5412975Y4345208D01*
Y4318000D01*
Y4339162D02*
X5379720Y4360324D01*
X5443206Y4380579D02*
Y4413834D01*
X5419021Y4395695D01*
Y4404765D01*
X5415998Y4410811D01*
X5412975Y4413834D01*
X5403905Y4416857D01*
X5397859D01*
X5388790Y4413834D01*
X5382743Y4407788D01*
X5379720Y4398718D01*
Y4389649D01*
X5382743Y4380579D01*
X5385766Y4377556D01*
X5391813Y4374533D01*
X5443206Y4449205D02*
X5440183Y4440136D01*
X5431114Y4434089D01*
X5415998Y4431066D01*
X5406928D01*
X5391813Y4434089D01*
X5382743Y4440136D01*
X5379720Y4449205D01*
Y4455251D01*
X5382743Y4464321D01*
X5391813Y4470367D01*
X5406928Y4473390D01*
X5415998D01*
X5431114Y4470367D01*
X5440183Y4464321D01*
X5443206Y4455251D01*
Y4449205D01*
Y4493645D02*
Y4526900D01*
X5419021Y4508761D01*
Y4517831D01*
X5415998Y4523877D01*
X5412975Y4526900D01*
X5403905Y4529923D01*
X5397859D01*
X5388790Y4526900D01*
X5382743Y4520854D01*
X5379720Y4511784D01*
Y4502715D01*
X5382743Y4493645D01*
X5385766Y4490622D01*
X5391813Y4487599D01*
X5539726Y4295140D02*
X5476240D01*
X5539726D02*
Y4322348D01*
X5536703Y4331418D01*
X5533680Y4334441D01*
X5527634Y4337464D01*
X5521587D01*
X5515541Y4334441D01*
X5512518Y4331418D01*
X5509495Y4322348D01*
Y4295140D01*
Y4316302D02*
X5476240Y4337464D01*
X5539726Y4357719D02*
Y4390974D01*
X5515541Y4372835D01*
Y4381905D01*
X5512518Y4387951D01*
X5509495Y4390974D01*
X5500425Y4393997D01*
X5494379D01*
X5485310Y4390974D01*
X5479263Y4384928D01*
X5476240Y4375858D01*
Y4366789D01*
X5479263Y4357719D01*
X5482286Y4354696D01*
X5488333Y4351673D01*
X5539726Y4426345D02*
X5536703Y4417276D01*
X5527634Y4411229D01*
X5512518Y4408206D01*
X5503448D01*
X5488333Y4411229D01*
X5479263Y4417276D01*
X5476240Y4426345D01*
Y4432391D01*
X5479263Y4441461D01*
X5488333Y4447507D01*
X5503448Y4450530D01*
X5512518D01*
X5527634Y4447507D01*
X5536703Y4441461D01*
X5539726Y4432391D01*
Y4426345D01*
Y4501017D02*
Y4470785D01*
X5512518Y4467762D01*
X5515541Y4470785D01*
X5518564Y4479855D01*
Y4488924D01*
X5515541Y4497994D01*
X5509495Y4504040D01*
X5500425Y4507063D01*
X5494379D01*
X5485310Y4504040D01*
X5479263Y4497994D01*
X5476240Y4488924D01*
Y4479855D01*
X5479263Y4470785D01*
X5482286Y4467762D01*
X5488333Y4464739D01*
X5321286Y5306060D02*
X5257800D01*
X5321286D02*
Y5333268D01*
X5318263Y5342338D01*
X5315240Y5345361D01*
X5309194Y5348384D01*
X5303147D01*
X5297101Y5345361D01*
X5294078Y5342338D01*
X5291055Y5333268D01*
Y5306060D01*
Y5327222D02*
X5257800Y5348384D01*
X5321286Y5392825D02*
X5278962Y5362593D01*
Y5407940D01*
X5321286Y5392825D02*
X5257800D01*
X5321286Y5437265D02*
X5318263Y5428196D01*
X5309194Y5422149D01*
X5294078Y5419126D01*
X5285008D01*
X5269893Y5422149D01*
X5260823Y5428196D01*
X5257800Y5437265D01*
Y5443311D01*
X5260823Y5452381D01*
X5269893Y5458427D01*
X5285008Y5461450D01*
X5294078D01*
X5309194Y5458427D01*
X5318263Y5452381D01*
X5321286Y5443311D01*
Y5437265D01*
X5312217Y5511937D02*
X5318263Y5508914D01*
X5321286Y5499844D01*
Y5493798D01*
X5318263Y5484729D01*
X5309194Y5478682D01*
X5294078Y5475659D01*
X5278962D01*
X5266870Y5478682D01*
X5260823Y5484729D01*
X5257800Y5493798D01*
Y5496821D01*
X5260823Y5505891D01*
X5266870Y5511937D01*
X5275939Y5514960D01*
X5278962D01*
X5288032Y5511937D01*
X5294078Y5505891D01*
X5297101Y5496821D01*
Y5493798D01*
X5294078Y5484729D01*
X5288032Y5478682D01*
X5278962Y5475659D01*
X5138530Y4297307D02*
X5144577Y4294284D01*
X5150623Y4288238D01*
X5153646Y4282192D01*
Y4270099D01*
X5150623Y4264053D01*
X5144577Y4258006D01*
X5138530Y4254983D01*
X5129461Y4251960D01*
X5114345D01*
X5105276Y4254983D01*
X5099230Y4258006D01*
X5093183Y4264053D01*
X5090160Y4270099D01*
Y4282192D01*
X5093183Y4288238D01*
X5099230Y4294284D01*
X5105276Y4297307D01*
X5141554Y4315144D02*
X5144577Y4321190D01*
X5153646Y4330260D01*
X5090160D01*
X5153646Y4391932D02*
X5111322Y4361701D01*
Y4407048D01*
X5153646Y4391932D02*
X5090160D01*
X5153646Y4460558D02*
X5090160Y4430326D01*
X5153646Y4418234D02*
Y4460558D01*
X5290930Y3438787D02*
X5296977Y3435764D01*
X5303023Y3429718D01*
X5306046Y3423672D01*
Y3411579D01*
X5303023Y3405533D01*
X5296977Y3399486D01*
X5290930Y3396463D01*
X5281861Y3393440D01*
X5266745D01*
X5257676Y3396463D01*
X5251630Y3399486D01*
X5245583Y3405533D01*
X5242560Y3411579D01*
Y3423672D01*
X5245583Y3429718D01*
X5251630Y3435764D01*
X5257676Y3438787D01*
X5293954Y3456624D02*
X5296977Y3462670D01*
X5306046Y3471740D01*
X5242560D01*
X5306046Y3533412D02*
X5263722Y3503181D01*
Y3548528D01*
X5306046Y3533412D02*
X5242560D01*
X5296977Y3595992D02*
X5303023Y3592968D01*
X5306046Y3583899D01*
Y3577853D01*
X5303023Y3568783D01*
X5293954Y3562737D01*
X5278838Y3559714D01*
X5263722D01*
X5251630Y3562737D01*
X5245583Y3568783D01*
X5242560Y3577853D01*
Y3580876D01*
X5245583Y3589945D01*
X5251630Y3595992D01*
X5260699Y3599015D01*
X5263722D01*
X5272792Y3595992D01*
X5278838Y3589945D01*
X5281861Y3580876D01*
Y3577853D01*
X5278838Y3568783D01*
X5272792Y3562737D01*
X5263722Y3559714D01*
X5618067Y3717435D02*
X5621090Y3723482D01*
X5627137Y3729528D01*
X5633183Y3732551D01*
X5645276D01*
X5651322Y3729528D01*
X5657368Y3723482D01*
X5660392Y3717435D01*
X5663415Y3708366D01*
Y3693250D01*
X5660392Y3684180D01*
X5657368Y3678134D01*
X5651322Y3672088D01*
X5645276Y3669065D01*
X5633183D01*
X5627137Y3672088D01*
X5621090Y3678134D01*
X5618067Y3684180D01*
X5600231Y3720458D02*
X5594184Y3723482D01*
X5585115Y3732551D01*
Y3669065D01*
X5523442Y3732551D02*
X5553674Y3690227D01*
X5508327D01*
X5523442Y3732551D02*
Y3669065D01*
X5460863Y3732551D02*
X5491095D01*
X5494118Y3705343D01*
X5491095Y3708366D01*
X5482025Y3711389D01*
X5472956D01*
X5463886Y3708366D01*
X5457840Y3702319D01*
X5454817Y3693250D01*
Y3687203D01*
X5457840Y3678134D01*
X5463886Y3672088D01*
X5472956Y3669065D01*
X5482025D01*
X5491095Y3672088D01*
X5494118Y3675111D01*
X5497141Y3681157D01*
X5034390Y4299847D02*
X5040437Y4296824D01*
X5046483Y4290778D01*
X5049506Y4284732D01*
Y4272639D01*
X5046483Y4266593D01*
X5040437Y4260546D01*
X5034390Y4257523D01*
X5025321Y4254500D01*
X5010205D01*
X5001136Y4257523D01*
X4995090Y4260546D01*
X4989043Y4266593D01*
X4986020Y4272639D01*
Y4284732D01*
X4989043Y4290778D01*
X4995090Y4296824D01*
X5001136Y4299847D01*
X5037414Y4317684D02*
X5040437Y4323730D01*
X5049506Y4332800D01*
X4986020D01*
X5049506Y4394472D02*
X5007182Y4364241D01*
Y4409588D01*
X5049506Y4394472D02*
X4986020D01*
X5049506Y4451005D02*
X5007182Y4420774D01*
Y4466121D01*
X5049506Y4451005D02*
X4986020D01*
X5003910Y3372747D02*
X5009957Y3369724D01*
X5016003Y3363678D01*
X5019026Y3357632D01*
Y3345539D01*
X5016003Y3339493D01*
X5009957Y3333446D01*
X5003910Y3330423D01*
X4994841Y3327400D01*
X4979725D01*
X4970656Y3330423D01*
X4964610Y3333446D01*
X4958563Y3339493D01*
X4955540Y3345539D01*
Y3357632D01*
X4958563Y3363678D01*
X4964610Y3369724D01*
X4970656Y3372747D01*
X5006934Y3390584D02*
X5009957Y3396630D01*
X5019026Y3405700D01*
X4955540D01*
X5019026Y3467372D02*
X4976702Y3437141D01*
Y3482488D01*
X5019026Y3467372D02*
X4955540D01*
X5006934Y3493674D02*
X5009957Y3499720D01*
X5019026Y3508790D01*
X4955540D01*
X5725533Y3914250D02*
X5728556Y3920297D01*
X5734602Y3926343D01*
X5740648Y3929366D01*
X5752741D01*
X5758787Y3926343D01*
X5764834Y3920297D01*
X5767857Y3914250D01*
X5770880Y3905181D01*
Y3890065D01*
X5767857Y3880996D01*
X5764834Y3874950D01*
X5758787Y3868903D01*
X5752741Y3865880D01*
X5740648D01*
X5734602Y3868903D01*
X5728556Y3874950D01*
X5725533Y3880996D01*
X5707696Y3917274D02*
X5701650Y3920297D01*
X5692580Y3929366D01*
Y3865880D01*
X5655093Y3929366D02*
X5621838D01*
X5639977Y3905181D01*
X5630908D01*
X5624861Y3902158D01*
X5621838Y3899135D01*
X5618815Y3890065D01*
Y3884019D01*
X5621838Y3874950D01*
X5627885Y3868903D01*
X5636954Y3865880D01*
X5646024D01*
X5655093Y3868903D01*
X5658116Y3871926D01*
X5661139Y3877973D01*
X5568328Y3929366D02*
X5598560D01*
X5601583Y3902158D01*
X5598560Y3905181D01*
X5589490Y3908204D01*
X5580421D01*
X5571352Y3905181D01*
X5565305Y3899135D01*
X5562282Y3890065D01*
Y3884019D01*
X5565305Y3874950D01*
X5571352Y3868903D01*
X5580421Y3865880D01*
X5589490D01*
X5598560Y3868903D01*
X5601583Y3871926D01*
X5604606Y3877973D01*
X4483210Y2417707D02*
X4489257Y2414684D01*
X4495303Y2408638D01*
X4498326Y2402592D01*
Y2390499D01*
X4495303Y2384453D01*
X4489257Y2378406D01*
X4483210Y2375383D01*
X4474141Y2372360D01*
X4459025D01*
X4449956Y2375383D01*
X4443910Y2378406D01*
X4437863Y2384453D01*
X4434840Y2390499D01*
Y2402592D01*
X4437863Y2408638D01*
X4443910Y2414684D01*
X4449956Y2417707D01*
X4486234Y2435544D02*
X4489257Y2441590D01*
X4498326Y2450660D01*
X4434840D01*
X4498326Y2488147D02*
Y2521402D01*
X4474141Y2503263D01*
Y2512332D01*
X4471118Y2518379D01*
X4468095Y2521402D01*
X4459025Y2524425D01*
X4452979D01*
X4443910Y2521402D01*
X4437863Y2515355D01*
X4434840Y2506286D01*
Y2497216D01*
X4437863Y2488147D01*
X4440886Y2485124D01*
X4446933Y2482101D01*
X4498326Y2568865D02*
X4456002Y2538634D01*
Y2583981D01*
X4498326Y2568865D02*
X4434840D01*
X4381610Y2415167D02*
X4387657Y2412144D01*
X4393703Y2406098D01*
X4396726Y2400052D01*
Y2387959D01*
X4393703Y2381913D01*
X4387657Y2375866D01*
X4381610Y2372843D01*
X4372541Y2369820D01*
X4357425D01*
X4348356Y2372843D01*
X4342310Y2375866D01*
X4336263Y2381913D01*
X4333240Y2387959D01*
Y2400052D01*
X4336263Y2406098D01*
X4342310Y2412144D01*
X4348356Y2415167D01*
X4384634Y2433004D02*
X4387657Y2439050D01*
X4396726Y2448120D01*
X4333240D01*
X4396726Y2485607D02*
Y2518862D01*
X4372541Y2500723D01*
Y2509792D01*
X4369518Y2515839D01*
X4366495Y2518862D01*
X4357425Y2521885D01*
X4351379D01*
X4342310Y2518862D01*
X4336263Y2512815D01*
X4333240Y2503746D01*
Y2494676D01*
X4336263Y2485607D01*
X4339286Y2482584D01*
X4345333Y2479561D01*
X4381610Y2539117D02*
X4384634D01*
X4390680Y2542140D01*
X4393703Y2545163D01*
X4396726Y2551210D01*
Y2563302D01*
X4393703Y2569348D01*
X4390680Y2572372D01*
X4384634Y2575395D01*
X4378587D01*
X4372541Y2572372D01*
X4363472Y2566325D01*
X4333240Y2536094D01*
Y2578418D01*
X5450950Y3443867D02*
X5456997Y3440844D01*
X5463043Y3434798D01*
X5466066Y3428752D01*
Y3416659D01*
X5463043Y3410613D01*
X5456997Y3404566D01*
X5450950Y3401543D01*
X5441881Y3398520D01*
X5426765D01*
X5417696Y3401543D01*
X5411650Y3404566D01*
X5405603Y3410613D01*
X5402580Y3416659D01*
Y3428752D01*
X5405603Y3434798D01*
X5411650Y3440844D01*
X5417696Y3443867D01*
X5453974Y3461704D02*
X5456997Y3467750D01*
X5466066Y3476820D01*
X5402580D01*
X5466066Y3514307D02*
Y3547562D01*
X5441881Y3529423D01*
Y3538492D01*
X5438858Y3544539D01*
X5435835Y3547562D01*
X5426765Y3550585D01*
X5420719D01*
X5411650Y3547562D01*
X5405603Y3541515D01*
X5402580Y3532446D01*
Y3523376D01*
X5405603Y3514307D01*
X5408626Y3511284D01*
X5414673Y3508261D01*
X5453974Y3564794D02*
X5456997Y3570840D01*
X5466066Y3579910D01*
X5402580D01*
X5981810Y2488827D02*
X5987857Y2485804D01*
X5993903Y2479758D01*
X5996926Y2473712D01*
Y2461619D01*
X5993903Y2455573D01*
X5987857Y2449526D01*
X5981810Y2446503D01*
X5972741Y2443480D01*
X5957625D01*
X5948556Y2446503D01*
X5942510Y2449526D01*
X5936463Y2455573D01*
X5933440Y2461619D01*
Y2473712D01*
X5936463Y2479758D01*
X5942510Y2485804D01*
X5948556Y2488827D01*
X5996926Y2542942D02*
Y2512710D01*
X5969718Y2509687D01*
X5972741Y2512710D01*
X5975764Y2521780D01*
Y2530849D01*
X5972741Y2539919D01*
X5966695Y2545965D01*
X5957625Y2548988D01*
X5951579D01*
X5942510Y2545965D01*
X5936463Y2539919D01*
X5933440Y2530849D01*
Y2521780D01*
X5936463Y2512710D01*
X5939486Y2509687D01*
X5945533Y2506664D01*
X5996926Y2581336D02*
X5993903Y2572267D01*
X5984834Y2566220D01*
X5969718Y2563197D01*
X5960648D01*
X5945533Y2566220D01*
X5936463Y2572267D01*
X5933440Y2581336D01*
Y2587382D01*
X5936463Y2596452D01*
X5945533Y2602498D01*
X5960648Y2605521D01*
X5969718D01*
X5984834Y2602498D01*
X5993903Y2596452D01*
X5996926Y2587382D01*
Y2581336D01*
Y2634846D02*
X5993903Y2625776D01*
X5987857Y2622753D01*
X5981810D01*
X5975764Y2625776D01*
X5972741Y2631823D01*
X5969718Y2643915D01*
X5966695Y2652985D01*
X5960648Y2659031D01*
X5954602Y2662054D01*
X5945533D01*
X5939486Y2659031D01*
X5936463Y2656008D01*
X5933440Y2646939D01*
Y2634846D01*
X5936463Y2625776D01*
X5939486Y2622753D01*
X5945533Y2619730D01*
X5954602D01*
X5960648Y2622753D01*
X5966695Y2628800D01*
X5969718Y2637869D01*
X5972741Y2649962D01*
X5975764Y2656008D01*
X5981810Y2659031D01*
X5987857D01*
X5993903Y2656008D01*
X5996926Y2646939D01*
Y2634846D01*
X5761093Y3995530D02*
X5764116Y4001577D01*
X5770162Y4007623D01*
X5776208Y4010646D01*
X5788301D01*
X5794347Y4007623D01*
X5800394Y4001577D01*
X5803417Y3995530D01*
X5806440Y3986461D01*
Y3971345D01*
X5803417Y3962276D01*
X5800394Y3956230D01*
X5794347Y3950183D01*
X5788301Y3947160D01*
X5776208D01*
X5770162Y3950183D01*
X5764116Y3956230D01*
X5761093Y3962276D01*
X5743256Y3998554D02*
X5737210Y4001577D01*
X5728140Y4010646D01*
Y3947160D01*
X5690653Y4010646D02*
X5657398D01*
X5675537Y3986461D01*
X5666468D01*
X5660421Y3983438D01*
X5657398Y3980415D01*
X5654375Y3971345D01*
Y3965299D01*
X5657398Y3956230D01*
X5663445Y3950183D01*
X5672514Y3947160D01*
X5681584D01*
X5690653Y3950183D01*
X5693676Y3953206D01*
X5696699Y3959253D01*
X5622027Y4010646D02*
X5631097Y4007623D01*
X5637143Y3998554D01*
X5640166Y3983438D01*
Y3974368D01*
X5637143Y3959253D01*
X5631097Y3950183D01*
X5622027Y3947160D01*
X5615981D01*
X5606912Y3950183D01*
X5600865Y3959253D01*
X5597842Y3974368D01*
Y3983438D01*
X5600865Y3998554D01*
X5606912Y4007623D01*
X5615981Y4010646D01*
X5622027D01*
X4579730Y2415167D02*
X4585777Y2412144D01*
X4591823Y2406098D01*
X4594846Y2400052D01*
Y2387959D01*
X4591823Y2381913D01*
X4585777Y2375866D01*
X4579730Y2372843D01*
X4570661Y2369820D01*
X4555545D01*
X4546476Y2372843D01*
X4540430Y2375866D01*
X4534383Y2381913D01*
X4531360Y2387959D01*
Y2400052D01*
X4534383Y2406098D01*
X4540430Y2412144D01*
X4546476Y2415167D01*
X4582754Y2433004D02*
X4585777Y2439050D01*
X4594846Y2448120D01*
X4531360D01*
X4594846Y2497700D02*
X4591823Y2488630D01*
X4582754Y2482584D01*
X4567638Y2479561D01*
X4558568D01*
X4543453Y2482584D01*
X4534383Y2488630D01*
X4531360Y2497700D01*
Y2503746D01*
X4534383Y2512815D01*
X4543453Y2518862D01*
X4558568Y2521885D01*
X4567638D01*
X4582754Y2518862D01*
X4591823Y2512815D01*
X4594846Y2503746D01*
Y2497700D01*
X4582754Y2536094D02*
X4585777Y2542140D01*
X4594846Y2551210D01*
X4531360D01*
X4683870Y2410087D02*
X4689917Y2407064D01*
X4695963Y2401018D01*
X4698986Y2394972D01*
Y2382879D01*
X4695963Y2376833D01*
X4689917Y2370786D01*
X4683870Y2367763D01*
X4674801Y2364740D01*
X4659685D01*
X4650616Y2367763D01*
X4644570Y2370786D01*
X4638523Y2376833D01*
X4635500Y2382879D01*
Y2394972D01*
X4638523Y2401018D01*
X4644570Y2407064D01*
X4650616Y2410087D01*
X4686894Y2427924D02*
X4689917Y2433970D01*
X4698986Y2443040D01*
X4635500D01*
X4698986Y2492620D02*
X4695963Y2483550D01*
X4686894Y2477504D01*
X4671778Y2474481D01*
X4662708D01*
X4647593Y2477504D01*
X4638523Y2483550D01*
X4635500Y2492620D01*
Y2498666D01*
X4638523Y2507735D01*
X4647593Y2513782D01*
X4662708Y2516805D01*
X4671778D01*
X4686894Y2513782D01*
X4695963Y2507735D01*
X4698986Y2498666D01*
Y2492620D01*
X4683870Y2534037D02*
X4686894D01*
X4692940Y2537060D01*
X4695963Y2540083D01*
X4698986Y2546130D01*
Y2558222D01*
X4695963Y2564268D01*
X4692940Y2567292D01*
X4686894Y2570315D01*
X4680847D01*
X4674801Y2567292D01*
X4665732Y2561245D01*
X4635500Y2531014D01*
Y2573338D01*
X4699373Y2197210D02*
X4702396Y2203257D01*
X4708442Y2209303D01*
X4714488Y2212326D01*
X4726581D01*
X4732627Y2209303D01*
X4738674Y2203257D01*
X4741697Y2197210D01*
X4744720Y2188141D01*
Y2173025D01*
X4741697Y2163956D01*
X4738674Y2157910D01*
X4732627Y2151863D01*
X4726581Y2148840D01*
X4714488D01*
X4708442Y2151863D01*
X4702396Y2157910D01*
X4699373Y2163956D01*
X4681536Y2200234D02*
X4675490Y2203257D01*
X4666420Y2212326D01*
Y2148840D01*
X4616840Y2212326D02*
X4625910Y2209303D01*
X4631956Y2200234D01*
X4634979Y2185118D01*
Y2176048D01*
X4631956Y2160933D01*
X4625910Y2151863D01*
X4616840Y2148840D01*
X4610794D01*
X4601725Y2151863D01*
X4595678Y2160933D01*
X4592655Y2176048D01*
Y2185118D01*
X4595678Y2200234D01*
X4601725Y2209303D01*
X4610794Y2212326D01*
X4616840D01*
X4542168Y2203257D02*
X4545192Y2209303D01*
X4554261Y2212326D01*
X4560307D01*
X4569377Y2209303D01*
X4575423Y2200234D01*
X4578446Y2185118D01*
Y2170002D01*
X4575423Y2157910D01*
X4569377Y2151863D01*
X4560307Y2148840D01*
X4557284D01*
X4548215Y2151863D01*
X4542168Y2157910D01*
X4539145Y2166979D01*
Y2170002D01*
X4542168Y2179072D01*
X4548215Y2185118D01*
X4557284Y2188141D01*
X4560307D01*
X4569377Y2185118D01*
X4575423Y2179072D01*
X4578446Y2170002D01*
X4643230Y1907167D02*
X4649277Y1904144D01*
X4655323Y1898098D01*
X4658346Y1892052D01*
Y1879959D01*
X4655323Y1873913D01*
X4649277Y1867866D01*
X4643230Y1864843D01*
X4634161Y1861820D01*
X4619045D01*
X4609976Y1864843D01*
X4603930Y1867866D01*
X4597883Y1873913D01*
X4594860Y1879959D01*
Y1892052D01*
X4597883Y1898098D01*
X4603930Y1904144D01*
X4609976Y1907167D01*
X4646254Y1925004D02*
X4649277Y1931050D01*
X4658346Y1940120D01*
X4594860D01*
X4658346Y1989700D02*
X4655323Y1980630D01*
X4646254Y1974584D01*
X4631138Y1971561D01*
X4622068D01*
X4606953Y1974584D01*
X4597883Y1980630D01*
X4594860Y1989700D01*
Y1995746D01*
X4597883Y2004815D01*
X4606953Y2010862D01*
X4622068Y2013885D01*
X4631138D01*
X4646254Y2010862D01*
X4655323Y2004815D01*
X4658346Y1995746D01*
Y1989700D01*
Y2070418D02*
X4594860Y2040186D01*
X4658346Y2028094D02*
Y2070418D01*
X4696833Y2303890D02*
X4699856Y2309937D01*
X4705902Y2315983D01*
X4711948Y2319006D01*
X4724041D01*
X4730087Y2315983D01*
X4736134Y2309937D01*
X4739157Y2303890D01*
X4742180Y2294821D01*
Y2279705D01*
X4739157Y2270636D01*
X4736134Y2264590D01*
X4730087Y2258543D01*
X4724041Y2255520D01*
X4711948D01*
X4705902Y2258543D01*
X4699856Y2264590D01*
X4696833Y2270636D01*
X4678996Y2306914D02*
X4672950Y2309937D01*
X4663880Y2319006D01*
Y2255520D01*
X4632439Y2306914D02*
X4626393Y2309937D01*
X4617324Y2319006D01*
Y2255520D01*
X4567744Y2319006D02*
X4576813Y2315983D01*
X4582860Y2306914D01*
X4585883Y2291798D01*
Y2282728D01*
X4582860Y2267613D01*
X4576813Y2258543D01*
X4567744Y2255520D01*
X4561697D01*
X4552628Y2258543D01*
X4546581Y2267613D01*
X4543558Y2282728D01*
Y2291798D01*
X4546581Y2306914D01*
X4552628Y2315983D01*
X4561697Y2319006D01*
X4567744D01*
X4442833Y2303890D02*
X4445856Y2309937D01*
X4451902Y2315983D01*
X4457948Y2319006D01*
X4470041D01*
X4476087Y2315983D01*
X4482134Y2309937D01*
X4485157Y2303890D01*
X4488180Y2294821D01*
Y2279705D01*
X4485157Y2270636D01*
X4482134Y2264590D01*
X4476087Y2258543D01*
X4470041Y2255520D01*
X4457948D01*
X4451902Y2258543D01*
X4445856Y2264590D01*
X4442833Y2270636D01*
X4424996Y2306914D02*
X4418950Y2309937D01*
X4409880Y2319006D01*
Y2255520D01*
X4378439Y2306914D02*
X4372393Y2309937D01*
X4363324Y2319006D01*
Y2255520D01*
X4331883Y2306914D02*
X4325836Y2309937D01*
X4316767Y2319006D01*
Y2255520D01*
X4541630Y1907167D02*
X4547677Y1904144D01*
X4553723Y1898098D01*
X4556746Y1892052D01*
Y1879959D01*
X4553723Y1873913D01*
X4547677Y1867866D01*
X4541630Y1864843D01*
X4532561Y1861820D01*
X4517445D01*
X4508376Y1864843D01*
X4502330Y1867866D01*
X4496283Y1873913D01*
X4493260Y1879959D01*
Y1892052D01*
X4496283Y1898098D01*
X4502330Y1904144D01*
X4508376Y1907167D01*
X4544654Y1925004D02*
X4547677Y1931050D01*
X4556746Y1940120D01*
X4493260D01*
X4544654Y1971561D02*
X4547677Y1977607D01*
X4556746Y1986676D01*
X4493260D01*
X4556746Y2048349D02*
X4514422Y2018117D01*
Y2063465D01*
X4556746Y2048349D02*
X4493260D01*
X5209913Y3350370D02*
X5212936Y3356417D01*
X5218982Y3362463D01*
X5225028Y3365486D01*
X5237121D01*
X5243167Y3362463D01*
X5249214Y3356417D01*
X5252237Y3350370D01*
X5255260Y3341301D01*
Y3326185D01*
X5252237Y3317116D01*
X5249214Y3311070D01*
X5243167Y3305023D01*
X5237121Y3302000D01*
X5225028D01*
X5218982Y3305023D01*
X5212936Y3311070D01*
X5209913Y3317116D01*
X5192076Y3353394D02*
X5186030Y3356417D01*
X5176960Y3365486D01*
Y3302000D01*
X5145519Y3353394D02*
X5139473Y3356417D01*
X5130404Y3365486D01*
Y3302000D01*
X5062685Y3356417D02*
X5065708Y3362463D01*
X5074777Y3365486D01*
X5080824D01*
X5089893Y3362463D01*
X5095940Y3353394D01*
X5098963Y3338278D01*
Y3323162D01*
X5095940Y3311070D01*
X5089893Y3305023D01*
X5080824Y3302000D01*
X5077801D01*
X5068731Y3305023D01*
X5062685Y3311070D01*
X5059661Y3320139D01*
Y3323162D01*
X5062685Y3332232D01*
X5068731Y3338278D01*
X5077801Y3341301D01*
X5080824D01*
X5089893Y3338278D01*
X5095940Y3332232D01*
X5098963Y3323162D01*
X5369670Y3441327D02*
X5375717Y3438304D01*
X5381763Y3432258D01*
X5384786Y3426212D01*
Y3414119D01*
X5381763Y3408073D01*
X5375717Y3402026D01*
X5369670Y3399003D01*
X5360601Y3395980D01*
X5345485D01*
X5336416Y3399003D01*
X5330370Y3402026D01*
X5324323Y3408073D01*
X5321300Y3414119D01*
Y3426212D01*
X5324323Y3432258D01*
X5330370Y3438304D01*
X5336416Y3441327D01*
X5372694Y3459164D02*
X5375717Y3465210D01*
X5384786Y3474280D01*
X5321300D01*
X5372694Y3505721D02*
X5375717Y3511767D01*
X5384786Y3520836D01*
X5321300D01*
X5384786Y3594602D02*
X5321300Y3564370D01*
X5384786Y3552277D02*
Y3594602D01*
X5831950Y3756287D02*
X5837997Y3753264D01*
X5844043Y3747218D01*
X5847066Y3741172D01*
Y3729079D01*
X5844043Y3723033D01*
X5837997Y3716986D01*
X5831950Y3713963D01*
X5822881Y3710940D01*
X5807765D01*
X5798696Y3713963D01*
X5792650Y3716986D01*
X5786603Y3723033D01*
X5783580Y3729079D01*
Y3741172D01*
X5786603Y3747218D01*
X5792650Y3753264D01*
X5798696Y3756287D01*
X5834974Y3774124D02*
X5837997Y3780170D01*
X5847066Y3789240D01*
X5783580D01*
X5834974Y3820681D02*
X5837997Y3826727D01*
X5847066Y3835796D01*
X5783580D01*
X5825904Y3906539D02*
X5816835Y3903515D01*
X5810788Y3897469D01*
X5807765Y3888399D01*
Y3885376D01*
X5810788Y3876307D01*
X5816835Y3870260D01*
X5825904Y3867237D01*
X5828927D01*
X5837997Y3870260D01*
X5844043Y3876307D01*
X5847066Y3885376D01*
Y3888399D01*
X5844043Y3897469D01*
X5837997Y3903515D01*
X5825904Y3906539D01*
X5810788D01*
X5795673Y3903515D01*
X5786603Y3897469D01*
X5783580Y3888399D01*
Y3882353D01*
X5786603Y3873284D01*
X5792650Y3870260D01*
X5608693Y3355450D02*
X5611716Y3361497D01*
X5617762Y3367543D01*
X5623808Y3370566D01*
X5635901D01*
X5641947Y3367543D01*
X5647994Y3361497D01*
X5651017Y3355450D01*
X5654040Y3346381D01*
Y3331265D01*
X5651017Y3322196D01*
X5647994Y3316150D01*
X5641947Y3310103D01*
X5635901Y3307080D01*
X5623808D01*
X5617762Y3310103D01*
X5611716Y3316150D01*
X5608693Y3322196D01*
X5590856Y3358474D02*
X5584810Y3361497D01*
X5575740Y3370566D01*
Y3307080D01*
X5541276Y3355450D02*
Y3358474D01*
X5538253Y3364520D01*
X5535230Y3367543D01*
X5529184Y3370566D01*
X5517091D01*
X5511045Y3367543D01*
X5508021Y3364520D01*
X5504998Y3358474D01*
Y3352427D01*
X5508021Y3346381D01*
X5514068Y3337312D01*
X5544299Y3307080D01*
X5501975D01*
X5448465Y3349404D02*
X5451488Y3340335D01*
X5457535Y3334288D01*
X5466604Y3331265D01*
X5469627D01*
X5478697Y3334288D01*
X5484743Y3340335D01*
X5487766Y3349404D01*
Y3352427D01*
X5484743Y3361497D01*
X5478697Y3367543D01*
X5469627Y3370566D01*
X5466604D01*
X5457535Y3367543D01*
X5451488Y3361497D01*
X5448465Y3349404D01*
Y3334288D01*
X5451488Y3319173D01*
X5457535Y3310103D01*
X5466604Y3307080D01*
X5472650D01*
X5481720Y3310103D01*
X5484743Y3316150D01*
X5209650Y3436247D02*
X5215697Y3433224D01*
X5221743Y3427178D01*
X5224766Y3421132D01*
Y3409039D01*
X5221743Y3402993D01*
X5215697Y3396946D01*
X5209650Y3393923D01*
X5200581Y3390900D01*
X5185465D01*
X5176396Y3393923D01*
X5170350Y3396946D01*
X5164303Y3402993D01*
X5161280Y3409039D01*
Y3421132D01*
X5164303Y3427178D01*
X5170350Y3433224D01*
X5176396Y3436247D01*
X5212674Y3454084D02*
X5215697Y3460130D01*
X5224766Y3469200D01*
X5161280D01*
X5224766Y3506687D02*
Y3539942D01*
X5200581Y3521803D01*
Y3530872D01*
X5197558Y3536919D01*
X5194535Y3539942D01*
X5185465Y3542965D01*
X5179419D01*
X5170350Y3539942D01*
X5164303Y3533895D01*
X5161280Y3524826D01*
Y3515756D01*
X5164303Y3506687D01*
X5167326Y3503664D01*
X5173373Y3500641D01*
X5224766Y3599498D02*
X5161280Y3569266D01*
X5224766Y3557174D02*
Y3599498D01*
X4883877Y3685266D02*
X4886900Y3691313D01*
X4892947Y3697359D01*
X4898993Y3700382D01*
X4911086D01*
X4917132Y3697359D01*
X4923178Y3691313D01*
X4926201Y3685266D01*
X4929225Y3676197D01*
Y3661081D01*
X4926201Y3652012D01*
X4923178Y3645966D01*
X4917132Y3639919D01*
X4911086Y3636896D01*
X4898993D01*
X4892947Y3639919D01*
X4886900Y3645966D01*
X4883877Y3652012D01*
X4866041Y3688290D02*
X4859994Y3691313D01*
X4850925Y3700382D01*
Y3636896D01*
X4813438Y3700382D02*
X4780183D01*
X4798322Y3676197D01*
X4789252D01*
X4783206Y3673174D01*
X4780183Y3670151D01*
X4777160Y3661081D01*
Y3655035D01*
X4780183Y3645966D01*
X4786229Y3639919D01*
X4795299Y3636896D01*
X4804368D01*
X4813438Y3639919D01*
X4816461Y3642942D01*
X4819484Y3648989D01*
X4723650Y3679220D02*
X4726673Y3670151D01*
X4732719Y3664104D01*
X4741789Y3661081D01*
X4744812D01*
X4753881Y3664104D01*
X4759928Y3670151D01*
X4762951Y3679220D01*
Y3682243D01*
X4759928Y3691313D01*
X4753881Y3697359D01*
X4744812Y3700382D01*
X4741789D01*
X4732719Y3697359D01*
X4726673Y3691313D01*
X4723650Y3679220D01*
Y3664104D01*
X4726673Y3648989D01*
X4732719Y3639919D01*
X4741789Y3636896D01*
X4747835D01*
X4756905Y3639919D01*
X4759928Y3645966D01*
X4150733Y2037190D02*
X4153756Y2043237D01*
X4159802Y2049283D01*
X4165848Y2052306D01*
X4177941D01*
X4183987Y2049283D01*
X4190034Y2043237D01*
X4193057Y2037190D01*
X4196080Y2028121D01*
Y2013005D01*
X4193057Y2003936D01*
X4190034Y1997890D01*
X4183987Y1991843D01*
X4177941Y1988820D01*
X4165848D01*
X4159802Y1991843D01*
X4153756Y1997890D01*
X4150733Y2003936D01*
X4132896Y2040214D02*
X4126850Y2043237D01*
X4117780Y2052306D01*
Y1988820D01*
X4056108Y2052306D02*
X4086339Y2009982D01*
X4040992D01*
X4056108Y2052306D02*
Y1988820D01*
X4011667Y2052306D02*
X4020737Y2049283D01*
X4026783Y2040214D01*
X4029806Y2025098D01*
Y2016028D01*
X4026783Y2000913D01*
X4020737Y1991843D01*
X4011667Y1988820D01*
X4005621D01*
X3996552Y1991843D01*
X3990505Y2000913D01*
X3987482Y2016028D01*
Y2025098D01*
X3990505Y2040214D01*
X3996552Y2049283D01*
X4005621Y2052306D01*
X4011667D01*
X4858331Y4086424D02*
X4861354Y4092470D01*
X4867400Y4098517D01*
X4873447Y4101540D01*
X4885539D01*
X4891586Y4098517D01*
X4897632Y4092470D01*
X4900655Y4086424D01*
X4903678Y4077355D01*
Y4062239D01*
X4900655Y4053169D01*
X4897632Y4047123D01*
X4891586Y4041076D01*
X4885539Y4038053D01*
X4873447D01*
X4867400Y4041076D01*
X4861354Y4047123D01*
X4858331Y4053169D01*
X4840494Y4089447D02*
X4834448Y4092470D01*
X4825378Y4101540D01*
Y4038053D01*
X4757660Y4101540D02*
X4787891D01*
X4790914Y4074331D01*
X4787891Y4077355D01*
X4778822Y4080378D01*
X4769752D01*
X4760683Y4077355D01*
X4754636Y4071308D01*
X4751613Y4062239D01*
Y4056192D01*
X4754636Y4047123D01*
X4760683Y4041076D01*
X4769752Y4038053D01*
X4778822D01*
X4787891Y4041076D01*
X4790914Y4044100D01*
X4793938Y4050146D01*
X4734381Y4086424D02*
Y4089447D01*
X4731358Y4095493D01*
X4728335Y4098517D01*
X4722289Y4101540D01*
X4710196D01*
X4704150Y4098517D01*
X4701126Y4095493D01*
X4698103Y4089447D01*
Y4083401D01*
X4701126Y4077355D01*
X4707173Y4068285D01*
X4737405Y4038053D01*
X4695080D01*
X4857384Y3888684D02*
X4860407Y3894730D01*
X4866453Y3900777D01*
X4872500Y3903800D01*
X4884592D01*
X4890639Y3900777D01*
X4896685Y3894730D01*
X4899708Y3888684D01*
X4902731Y3879615D01*
Y3864499D01*
X4899708Y3855429D01*
X4896685Y3849383D01*
X4890639Y3843336D01*
X4884592Y3840313D01*
X4872500D01*
X4866453Y3843336D01*
X4860407Y3849383D01*
X4857384Y3855429D01*
X4839547Y3891707D02*
X4833501Y3894730D01*
X4824432Y3903800D01*
Y3840313D01*
X4756713Y3903800D02*
X4786944D01*
X4789968Y3876591D01*
X4786944Y3879615D01*
X4777875Y3882638D01*
X4768805D01*
X4759736Y3879615D01*
X4753690Y3873568D01*
X4750666Y3864499D01*
Y3858452D01*
X4753690Y3849383D01*
X4759736Y3843336D01*
X4768805Y3840313D01*
X4777875D01*
X4786944Y3843336D01*
X4789968Y3846360D01*
X4792991Y3852406D01*
X4706226Y3903800D02*
X4736458Y3861475D01*
X4691110D01*
X4706226Y3903800D02*
Y3840313D01*
X3856093Y3482450D02*
X3859116Y3488497D01*
X3865162Y3494543D01*
X3871208Y3497566D01*
X3883301D01*
X3889347Y3494543D01*
X3895394Y3488497D01*
X3898417Y3482450D01*
X3901440Y3473381D01*
Y3458265D01*
X3898417Y3449196D01*
X3895394Y3443150D01*
X3889347Y3437103D01*
X3883301Y3434080D01*
X3871208D01*
X3865162Y3437103D01*
X3859116Y3443150D01*
X3856093Y3449196D01*
X3835233Y3482450D02*
Y3485474D01*
X3832210Y3491520D01*
X3829186Y3494543D01*
X3823140Y3497566D01*
X3811047D01*
X3805001Y3494543D01*
X3801978Y3491520D01*
X3798955Y3485474D01*
Y3479427D01*
X3801978Y3473381D01*
X3808024Y3464312D01*
X3838256Y3434080D01*
X3795932D01*
X3763584Y3497566D02*
X3772653Y3494543D01*
X3778700Y3485474D01*
X3781723Y3470358D01*
Y3461288D01*
X3778700Y3446173D01*
X3772653Y3437103D01*
X3763584Y3434080D01*
X3757538D01*
X3748468Y3437103D01*
X3742422Y3446173D01*
X3739399Y3461288D01*
Y3470358D01*
X3742422Y3485474D01*
X3748468Y3494543D01*
X3757538Y3497566D01*
X3763584D01*
X3719144D02*
X3685889D01*
X3704028Y3473381D01*
X3694958D01*
X3688912Y3470358D01*
X3685889Y3467335D01*
X3682866Y3458265D01*
Y3452219D01*
X3685889Y3443150D01*
X3691935Y3437103D01*
X3701005Y3434080D01*
X3710074D01*
X3719144Y3437103D01*
X3722167Y3440126D01*
X3725190Y3446173D01*
X4033893Y4290170D02*
X4036916Y4296217D01*
X4042962Y4302263D01*
X4049008Y4305286D01*
X4061101D01*
X4067147Y4302263D01*
X4073194Y4296217D01*
X4076217Y4290170D01*
X4079240Y4281101D01*
Y4265985D01*
X4076217Y4256916D01*
X4073194Y4250870D01*
X4067147Y4244823D01*
X4061101Y4241800D01*
X4049008D01*
X4042962Y4244823D01*
X4036916Y4250870D01*
X4033893Y4256916D01*
X4013033Y4290170D02*
Y4293194D01*
X4010010Y4299240D01*
X4006986Y4302263D01*
X4000940Y4305286D01*
X3988847D01*
X3982801Y4302263D01*
X3979778Y4299240D01*
X3976755Y4293194D01*
Y4287147D01*
X3979778Y4281101D01*
X3985824Y4272032D01*
X4016056Y4241800D01*
X3973732D01*
X3941384Y4305286D02*
X3950453Y4302263D01*
X3956500Y4293194D01*
X3959523Y4278078D01*
Y4269008D01*
X3956500Y4253893D01*
X3950453Y4244823D01*
X3941384Y4241800D01*
X3935338D01*
X3926268Y4244823D01*
X3920222Y4253893D01*
X3917199Y4269008D01*
Y4278078D01*
X3920222Y4293194D01*
X3926268Y4302263D01*
X3935338Y4305286D01*
X3941384D01*
X3872758D02*
X3902990Y4262962D01*
X3857643D01*
X3872758Y4305286D02*
Y4241800D01*
X3779630Y3939167D02*
X3785677Y3936144D01*
X3791723Y3930098D01*
X3794746Y3924052D01*
Y3911959D01*
X3791723Y3905913D01*
X3785677Y3899866D01*
X3779630Y3896843D01*
X3770561Y3893820D01*
X3755445D01*
X3746376Y3896843D01*
X3740330Y3899866D01*
X3734283Y3905913D01*
X3731260Y3911959D01*
Y3924052D01*
X3734283Y3930098D01*
X3740330Y3936144D01*
X3746376Y3939167D01*
X3779630Y3960027D02*
X3782654D01*
X3788700Y3963050D01*
X3791723Y3966074D01*
X3794746Y3972120D01*
Y3984213D01*
X3791723Y3990259D01*
X3788700Y3993282D01*
X3782654Y3996305D01*
X3776607D01*
X3770561Y3993282D01*
X3761492Y3987236D01*
X3731260Y3957004D01*
Y3999328D01*
X3794746Y4031676D02*
X3791723Y4022607D01*
X3782654Y4016560D01*
X3767538Y4013537D01*
X3758468D01*
X3743353Y4016560D01*
X3734283Y4022607D01*
X3731260Y4031676D01*
Y4037722D01*
X3734283Y4046792D01*
X3743353Y4052838D01*
X3758468Y4055861D01*
X3767538D01*
X3782654Y4052838D01*
X3791723Y4046792D01*
X3794746Y4037722D01*
Y4031676D01*
Y4106348D02*
Y4076116D01*
X3767538Y4073093D01*
X3770561Y4076116D01*
X3773584Y4085186D01*
Y4094255D01*
X3770561Y4103325D01*
X3764515Y4109371D01*
X3755445Y4112394D01*
X3749399D01*
X3740330Y4109371D01*
X3734283Y4103325D01*
X3731260Y4094255D01*
Y4085186D01*
X3734283Y4076116D01*
X3737306Y4073093D01*
X3743353Y4070070D01*
X4008467Y3568040D02*
X4011490Y3574087D01*
X4017537Y3580133D01*
X4023583Y3583156D01*
X4035676D01*
X4041722Y3580133D01*
X4047768Y3574087D01*
X4050791Y3568040D01*
X4053815Y3558971D01*
Y3543855D01*
X4050791Y3534786D01*
X4047768Y3528739D01*
X4041722Y3522693D01*
X4035676Y3519670D01*
X4023583D01*
X4017537Y3522693D01*
X4011490Y3528739D01*
X4008467Y3534786D01*
X3987607Y3568040D02*
Y3571064D01*
X3984584Y3577110D01*
X3981561Y3580133D01*
X3975515Y3583156D01*
X3963422D01*
X3957376Y3580133D01*
X3954353Y3577110D01*
X3951329Y3571064D01*
Y3565017D01*
X3954353Y3558971D01*
X3960399Y3549901D01*
X3990631Y3519670D01*
X3948306D01*
X3915959Y3583156D02*
X3925028Y3580133D01*
X3931074Y3571064D01*
X3934098Y3555948D01*
Y3546878D01*
X3931074Y3531763D01*
X3925028Y3522693D01*
X3915959Y3519670D01*
X3909912D01*
X3900843Y3522693D01*
X3894796Y3531763D01*
X3891773Y3546878D01*
Y3555948D01*
X3894796Y3571064D01*
X3900843Y3580133D01*
X3909912Y3583156D01*
X3915959D01*
X3862449D02*
X3871518Y3580133D01*
X3874541Y3574087D01*
Y3568040D01*
X3871518Y3561994D01*
X3865472Y3558971D01*
X3853379Y3555948D01*
X3844310Y3552925D01*
X3838263Y3546878D01*
X3835240Y3540832D01*
Y3531763D01*
X3838263Y3525716D01*
X3841286Y3522693D01*
X3850356Y3519670D01*
X3862449D01*
X3871518Y3522693D01*
X3874541Y3525716D01*
X3877565Y3531763D01*
Y3540832D01*
X3874541Y3546878D01*
X3868495Y3552925D01*
X3859426Y3555948D01*
X3847333Y3558971D01*
X3841286Y3561994D01*
X3838263Y3568040D01*
Y3574087D01*
X3841286Y3580133D01*
X3850356Y3583156D01*
X3862449D01*
X3289673Y3944730D02*
X3292696Y3950777D01*
X3298742Y3956823D01*
X3304788Y3959846D01*
X3316881D01*
X3322927Y3956823D01*
X3328974Y3950777D01*
X3331997Y3944730D01*
X3335020Y3935661D01*
Y3920545D01*
X3331997Y3911476D01*
X3328974Y3905430D01*
X3322927Y3899383D01*
X3316881Y3896360D01*
X3304788D01*
X3298742Y3899383D01*
X3292696Y3905430D01*
X3289673Y3911476D01*
X3268813Y3944730D02*
Y3947754D01*
X3265790Y3953800D01*
X3262766Y3956823D01*
X3256720Y3959846D01*
X3244627D01*
X3238581Y3956823D01*
X3235558Y3953800D01*
X3232535Y3947754D01*
Y3941707D01*
X3235558Y3935661D01*
X3241604Y3926592D01*
X3271836Y3896360D01*
X3229512D01*
X3215303Y3947754D02*
X3209257Y3950777D01*
X3200187Y3959846D01*
Y3896360D01*
X3150607Y3959846D02*
X3159677Y3956823D01*
X3165723Y3947754D01*
X3168746Y3932638D01*
Y3923568D01*
X3165723Y3908453D01*
X3159677Y3899383D01*
X3150607Y3896360D01*
X3144561D01*
X3135492Y3899383D01*
X3129445Y3908453D01*
X3126422Y3923568D01*
Y3932638D01*
X3129445Y3947754D01*
X3135492Y3956823D01*
X3144561Y3959846D01*
X3150607D01*
X3586590Y4162687D02*
X3592637Y4159664D01*
X3598683Y4153618D01*
X3601706Y4147572D01*
Y4135479D01*
X3598683Y4129433D01*
X3592637Y4123386D01*
X3586590Y4120363D01*
X3577521Y4117340D01*
X3562405D01*
X3553336Y4120363D01*
X3547290Y4123386D01*
X3541243Y4129433D01*
X3538220Y4135479D01*
Y4147572D01*
X3541243Y4153618D01*
X3547290Y4159664D01*
X3553336Y4162687D01*
X3586590Y4183547D02*
X3589614D01*
X3595660Y4186570D01*
X3598683Y4189594D01*
X3601706Y4195640D01*
Y4207733D01*
X3598683Y4213779D01*
X3595660Y4216802D01*
X3589614Y4219825D01*
X3583567D01*
X3577521Y4216802D01*
X3568452Y4210756D01*
X3538220Y4180524D01*
Y4222848D01*
X3589614Y4237057D02*
X3592637Y4243103D01*
X3601706Y4252173D01*
X3538220D01*
X3589614Y4283614D02*
X3592637Y4289660D01*
X3601706Y4298730D01*
X3538220D01*
X3403973Y3162410D02*
X3406996Y3168457D01*
X3413042Y3174503D01*
X3419088Y3177526D01*
X3431181D01*
X3437227Y3174503D01*
X3443274Y3168457D01*
X3446297Y3162410D01*
X3449320Y3153341D01*
Y3138225D01*
X3446297Y3129156D01*
X3443274Y3123110D01*
X3437227Y3117063D01*
X3431181Y3114040D01*
X3419088D01*
X3413042Y3117063D01*
X3406996Y3123110D01*
X3403973Y3129156D01*
X3383113Y3162410D02*
Y3165434D01*
X3380090Y3171480D01*
X3377066Y3174503D01*
X3371020Y3177526D01*
X3358927D01*
X3352881Y3174503D01*
X3349858Y3171480D01*
X3346835Y3165434D01*
Y3159387D01*
X3349858Y3153341D01*
X3355904Y3144272D01*
X3386136Y3114040D01*
X3343812D01*
X3329603Y3165434D02*
X3323557Y3168457D01*
X3314487Y3177526D01*
Y3114040D01*
X3280023Y3162410D02*
Y3165434D01*
X3277000Y3171480D01*
X3273977Y3174503D01*
X3267930Y3177526D01*
X3255838D01*
X3249792Y3174503D01*
X3246768Y3171480D01*
X3243745Y3165434D01*
Y3159387D01*
X3246768Y3153341D01*
X3252815Y3144272D01*
X3283046Y3114040D01*
X3240722D01*
X3292213Y3723750D02*
X3295236Y3729797D01*
X3301282Y3735843D01*
X3307328Y3738866D01*
X3319421D01*
X3325467Y3735843D01*
X3331514Y3729797D01*
X3334537Y3723750D01*
X3337560Y3714681D01*
Y3699565D01*
X3334537Y3690496D01*
X3331514Y3684450D01*
X3325467Y3678403D01*
X3319421Y3675380D01*
X3307328D01*
X3301282Y3678403D01*
X3295236Y3684450D01*
X3292213Y3690496D01*
X3271353Y3723750D02*
Y3726774D01*
X3268330Y3732820D01*
X3265306Y3735843D01*
X3259260Y3738866D01*
X3247167D01*
X3241121Y3735843D01*
X3238098Y3732820D01*
X3235075Y3726774D01*
Y3720727D01*
X3238098Y3714681D01*
X3244144Y3705612D01*
X3274376Y3675380D01*
X3232052D01*
X3217843Y3726774D02*
X3211797Y3729797D01*
X3202727Y3738866D01*
Y3675380D01*
X3165240Y3738866D02*
X3131985D01*
X3150124Y3714681D01*
X3141055D01*
X3135008Y3711658D01*
X3131985Y3708635D01*
X3128962Y3699565D01*
Y3693519D01*
X3131985Y3684450D01*
X3138032Y3678403D01*
X3147101Y3675380D01*
X3156170D01*
X3165240Y3678403D01*
X3168263Y3681426D01*
X3171286Y3687473D01*
X4178410Y4119507D02*
X4184457Y4116484D01*
X4190503Y4110438D01*
X4193526Y4104392D01*
Y4092299D01*
X4190503Y4086253D01*
X4184457Y4080206D01*
X4178410Y4077183D01*
X4169341Y4074160D01*
X4154225D01*
X4145156Y4077183D01*
X4139110Y4080206D01*
X4133063Y4086253D01*
X4130040Y4092299D01*
Y4104392D01*
X4133063Y4110438D01*
X4139110Y4116484D01*
X4145156Y4119507D01*
X4178410Y4140367D02*
X4181434D01*
X4187480Y4143390D01*
X4190503Y4146414D01*
X4193526Y4152460D01*
Y4164553D01*
X4190503Y4170599D01*
X4187480Y4173622D01*
X4181434Y4176645D01*
X4175387D01*
X4169341Y4173622D01*
X4160272Y4167576D01*
X4130040Y4137344D01*
Y4179668D01*
X4181434Y4193877D02*
X4184457Y4199923D01*
X4193526Y4208993D01*
X4130040D01*
X4184457Y4276712D02*
X4190503Y4273688D01*
X4193526Y4264619D01*
Y4258573D01*
X4190503Y4249503D01*
X4181434Y4243457D01*
X4166318Y4240434D01*
X4151202D01*
X4139110Y4243457D01*
X4133063Y4249503D01*
X4130040Y4258573D01*
Y4261596D01*
X4133063Y4270665D01*
X4139110Y4276712D01*
X4148179Y4279735D01*
X4151202D01*
X4160272Y4276712D01*
X4166318Y4270665D01*
X4169341Y4261596D01*
Y4258573D01*
X4166318Y4249503D01*
X4160272Y4243457D01*
X4151202Y4240434D01*
X4292973Y3799950D02*
X4295996Y3805997D01*
X4302042Y3812043D01*
X4308088Y3815066D01*
X4320181D01*
X4326227Y3812043D01*
X4332274Y3805997D01*
X4335297Y3799950D01*
X4338320Y3790881D01*
Y3775765D01*
X4335297Y3766696D01*
X4332274Y3760650D01*
X4326227Y3754603D01*
X4320181Y3751580D01*
X4308088D01*
X4302042Y3754603D01*
X4295996Y3760650D01*
X4292973Y3766696D01*
X4272113Y3799950D02*
Y3802974D01*
X4269090Y3809020D01*
X4266066Y3812043D01*
X4260020Y3815066D01*
X4247927D01*
X4241881Y3812043D01*
X4238858Y3809020D01*
X4235835Y3802974D01*
Y3796927D01*
X4238858Y3790881D01*
X4244904Y3781812D01*
X4275136Y3751580D01*
X4232812D01*
X4218603Y3802974D02*
X4212557Y3805997D01*
X4203487Y3815066D01*
Y3751580D01*
X4129722Y3815066D02*
X4159954Y3751580D01*
X4172046Y3815066D02*
X4129722D01*
X4244713Y3421490D02*
X4247736Y3427537D01*
X4253782Y3433583D01*
X4259828Y3436606D01*
X4271921D01*
X4277967Y3433583D01*
X4284014Y3427537D01*
X4287037Y3421490D01*
X4290060Y3412421D01*
Y3397305D01*
X4287037Y3388236D01*
X4284014Y3382190D01*
X4277967Y3376143D01*
X4271921Y3373120D01*
X4259828D01*
X4253782Y3376143D01*
X4247736Y3382190D01*
X4244713Y3388236D01*
X4223853Y3421490D02*
Y3424514D01*
X4220830Y3430560D01*
X4217806Y3433583D01*
X4211760Y3436606D01*
X4199667D01*
X4193621Y3433583D01*
X4190598Y3430560D01*
X4187575Y3424514D01*
Y3418467D01*
X4190598Y3412421D01*
X4196644Y3403352D01*
X4226876Y3373120D01*
X4184552D01*
X4170343Y3424514D02*
X4164297Y3427537D01*
X4155227Y3436606D01*
Y3373120D01*
X4108670Y3436606D02*
X4117740Y3433583D01*
X4120763Y3427537D01*
Y3421490D01*
X4117740Y3415444D01*
X4111694Y3412421D01*
X4099601Y3409398D01*
X4090532Y3406375D01*
X4084485Y3400328D01*
X4081462Y3394282D01*
Y3385213D01*
X4084485Y3379166D01*
X4087508Y3376143D01*
X4096578Y3373120D01*
X4108670D01*
X4117740Y3376143D01*
X4120763Y3379166D01*
X4123786Y3385213D01*
Y3394282D01*
X4120763Y3400328D01*
X4114717Y3406375D01*
X4105647Y3409398D01*
X4093555Y3412421D01*
X4087508Y3415444D01*
X4084485Y3421490D01*
Y3427537D01*
X4087508Y3433583D01*
X4096578Y3436606D01*
X4108670D01*
X2901053Y4203810D02*
X2904076Y4209857D01*
X2910122Y4215903D01*
X2916168Y4218926D01*
X2928261D01*
X2934307Y4215903D01*
X2940354Y4209857D01*
X2943377Y4203810D01*
X2946400Y4194741D01*
Y4179625D01*
X2943377Y4170556D01*
X2940354Y4164510D01*
X2934307Y4158463D01*
X2928261Y4155440D01*
X2916168D01*
X2910122Y4158463D01*
X2904076Y4164510D01*
X2901053Y4170556D01*
X2880193Y4203810D02*
Y4206834D01*
X2877170Y4212880D01*
X2874146Y4215903D01*
X2868100Y4218926D01*
X2856007D01*
X2849961Y4215903D01*
X2846938Y4212880D01*
X2843915Y4206834D01*
Y4200787D01*
X2846938Y4194741D01*
X2852984Y4185672D01*
X2883216Y4155440D01*
X2840892D01*
X2826683Y4206834D02*
X2820637Y4209857D01*
X2811567Y4218926D01*
Y4155440D01*
X2740825Y4197764D02*
X2743848Y4188695D01*
X2749895Y4182648D01*
X2758964Y4179625D01*
X2761987D01*
X2771057Y4182648D01*
X2777103Y4188695D01*
X2780126Y4197764D01*
Y4200787D01*
X2777103Y4209857D01*
X2771057Y4215903D01*
X2761987Y4218926D01*
X2758964D01*
X2749895Y4215903D01*
X2743848Y4209857D01*
X2740825Y4197764D01*
Y4182648D01*
X2743848Y4167533D01*
X2749895Y4158463D01*
X2758964Y4155440D01*
X2765010D01*
X2774080Y4158463D01*
X2777103Y4164510D01*
X2979793Y3723750D02*
X2982816Y3729797D01*
X2988862Y3735843D01*
X2994908Y3738866D01*
X3007001D01*
X3013047Y3735843D01*
X3019094Y3729797D01*
X3022117Y3723750D01*
X3025140Y3714681D01*
Y3699565D01*
X3022117Y3690496D01*
X3019094Y3684450D01*
X3013047Y3678403D01*
X3007001Y3675380D01*
X2994908D01*
X2988862Y3678403D01*
X2982816Y3684450D01*
X2979793Y3690496D01*
X2958933Y3723750D02*
Y3726774D01*
X2955910Y3732820D01*
X2952886Y3735843D01*
X2946840Y3738866D01*
X2934747D01*
X2928701Y3735843D01*
X2925678Y3732820D01*
X2922655Y3726774D01*
Y3720727D01*
X2925678Y3714681D01*
X2931724Y3705612D01*
X2961956Y3675380D01*
X2919632D01*
X2902400Y3723750D02*
Y3726774D01*
X2899377Y3732820D01*
X2896353Y3735843D01*
X2890307Y3738866D01*
X2878214D01*
X2872168Y3735843D01*
X2869145Y3732820D01*
X2866122Y3726774D01*
Y3720727D01*
X2869145Y3714681D01*
X2875191Y3705612D01*
X2905423Y3675380D01*
X2863099D01*
X2830751Y3738866D02*
X2839820Y3735843D01*
X2845867Y3726774D01*
X2848890Y3711658D01*
Y3702588D01*
X2845867Y3687473D01*
X2839820Y3678403D01*
X2830751Y3675380D01*
X2824705D01*
X2815635Y3678403D01*
X2809589Y3687473D01*
X2806566Y3702588D01*
Y3711658D01*
X2809589Y3726774D01*
X2815635Y3735843D01*
X2824705Y3738866D01*
X2830751D01*
X3990713Y4137770D02*
X3993736Y4143817D01*
X3999782Y4149863D01*
X4005828Y4152886D01*
X4017921D01*
X4023967Y4149863D01*
X4030014Y4143817D01*
X4033037Y4137770D01*
X4036060Y4128701D01*
Y4113585D01*
X4033037Y4104516D01*
X4030014Y4098470D01*
X4023967Y4092423D01*
X4017921Y4089400D01*
X4005828D01*
X3999782Y4092423D01*
X3993736Y4098470D01*
X3990713Y4104516D01*
X3969853Y4137770D02*
Y4140794D01*
X3966830Y4146840D01*
X3963806Y4149863D01*
X3957760Y4152886D01*
X3945667D01*
X3939621Y4149863D01*
X3936598Y4146840D01*
X3933575Y4140794D01*
Y4134747D01*
X3936598Y4128701D01*
X3942644Y4119632D01*
X3972876Y4089400D01*
X3930552D01*
X3913320Y4137770D02*
Y4140794D01*
X3910297Y4146840D01*
X3907273Y4149863D01*
X3901227Y4152886D01*
X3889134D01*
X3883088Y4149863D01*
X3880065Y4146840D01*
X3877042Y4140794D01*
Y4134747D01*
X3880065Y4128701D01*
X3886111Y4119632D01*
X3916343Y4089400D01*
X3874019D01*
X3859810Y4140794D02*
X3853764Y4143817D01*
X3844694Y4152886D01*
Y4089400D01*
X3044173Y3302681D02*
X3047197Y3308728D01*
X3053243Y3314774D01*
X3059289Y3317797D01*
X3071382D01*
X3077428Y3314774D01*
X3083475Y3308728D01*
X3086498Y3302681D01*
X3089521Y3293612D01*
Y3278496D01*
X3086498Y3269427D01*
X3083475Y3263381D01*
X3077428Y3257334D01*
X3071382Y3254311D01*
X3059289D01*
X3053243Y3257334D01*
X3047197Y3263381D01*
X3044173Y3269427D01*
X3023314Y3302681D02*
Y3305705D01*
X3020291Y3311751D01*
X3017267Y3314774D01*
X3011221Y3317797D01*
X2999128D01*
X2993082Y3314774D01*
X2990059Y3311751D01*
X2987036Y3305705D01*
Y3299658D01*
X2990059Y3293612D01*
X2996105Y3284543D01*
X3026337Y3254311D01*
X2984013D01*
X2966781Y3302681D02*
Y3305705D01*
X2963758Y3311751D01*
X2960734Y3314774D01*
X2954688Y3317797D01*
X2942595D01*
X2936549Y3314774D01*
X2933526Y3311751D01*
X2930503Y3305705D01*
Y3299658D01*
X2933526Y3293612D01*
X2939572Y3284543D01*
X2969804Y3254311D01*
X2927480D01*
X2910248Y3302681D02*
Y3305705D01*
X2907225Y3311751D01*
X2904201Y3314774D01*
X2898155Y3317797D01*
X2886062D01*
X2880016Y3314774D01*
X2876993Y3311751D01*
X2873970Y3305705D01*
Y3299658D01*
X2876993Y3293612D01*
X2883039Y3284543D01*
X2913271Y3254311D01*
X2870947D01*
X6075790Y2491367D02*
X6081837Y2488344D01*
X6087883Y2482298D01*
X6090906Y2476252D01*
Y2464159D01*
X6087883Y2458113D01*
X6081837Y2452066D01*
X6075790Y2449043D01*
X6066721Y2446020D01*
X6051605D01*
X6042536Y2449043D01*
X6036490Y2452066D01*
X6030443Y2458113D01*
X6027420Y2464159D01*
Y2476252D01*
X6030443Y2482298D01*
X6036490Y2488344D01*
X6042536Y2491367D01*
X6090906Y2545482D02*
Y2515250D01*
X6063698Y2512227D01*
X6066721Y2515250D01*
X6069744Y2524320D01*
Y2533389D01*
X6066721Y2542459D01*
X6060675Y2548505D01*
X6051605Y2551528D01*
X6045559D01*
X6036490Y2548505D01*
X6030443Y2542459D01*
X6027420Y2533389D01*
Y2524320D01*
X6030443Y2515250D01*
X6033466Y2512227D01*
X6039513Y2509204D01*
X6090906Y2583876D02*
X6087883Y2574807D01*
X6078814Y2568760D01*
X6063698Y2565737D01*
X6054628D01*
X6039513Y2568760D01*
X6030443Y2574807D01*
X6027420Y2583876D01*
Y2589922D01*
X6030443Y2598992D01*
X6039513Y2605038D01*
X6054628Y2608061D01*
X6063698D01*
X6078814Y2605038D01*
X6087883Y2598992D01*
X6090906Y2589922D01*
Y2583876D01*
X6069744Y2661571D02*
X6060675Y2658548D01*
X6054628Y2652502D01*
X6051605Y2643432D01*
Y2640409D01*
X6054628Y2631340D01*
X6060675Y2625293D01*
X6069744Y2622270D01*
X6072767D01*
X6081837Y2625293D01*
X6087883Y2631340D01*
X6090906Y2640409D01*
Y2643432D01*
X6087883Y2652502D01*
X6081837Y2658548D01*
X6069744Y2661571D01*
X6054628D01*
X6039513Y2658548D01*
X6030443Y2652502D01*
X6027420Y2643432D01*
Y2637386D01*
X6030443Y2628316D01*
X6036490Y2625293D01*
X5834490Y3522607D02*
X5840537Y3519584D01*
X5846583Y3513538D01*
X5849606Y3507492D01*
Y3495399D01*
X5846583Y3489353D01*
X5840537Y3483306D01*
X5834490Y3480283D01*
X5825421Y3477260D01*
X5810305D01*
X5801236Y3480283D01*
X5795190Y3483306D01*
X5789143Y3489353D01*
X5786120Y3495399D01*
Y3507492D01*
X5789143Y3513538D01*
X5795190Y3519584D01*
X5801236Y3522607D01*
X5837514Y3540444D02*
X5840537Y3546490D01*
X5849606Y3555560D01*
X5786120D01*
X5837514Y3587001D02*
X5840537Y3593047D01*
X5849606Y3602116D01*
X5786120D01*
X5849606Y3648673D02*
X5846583Y3639604D01*
X5840537Y3636580D01*
X5834490D01*
X5828444Y3639604D01*
X5825421Y3645650D01*
X5822398Y3657743D01*
X5819375Y3666812D01*
X5813328Y3672859D01*
X5807282Y3675882D01*
X5798213D01*
X5792166Y3672859D01*
X5789143Y3669835D01*
X5786120Y3660766D01*
Y3648673D01*
X5789143Y3639604D01*
X5792166Y3636580D01*
X5798213Y3633557D01*
X5807282D01*
X5813328Y3636580D01*
X5819375Y3642627D01*
X5822398Y3651696D01*
X5825421Y3663789D01*
X5828444Y3669835D01*
X5834490Y3672859D01*
X5840537D01*
X5846583Y3669835D01*
X5849606Y3660766D01*
Y3648673D01*
X4153273Y1935590D02*
X4156296Y1941637D01*
X4162342Y1947683D01*
X4168388Y1950706D01*
X4180481D01*
X4186527Y1947683D01*
X4192574Y1941637D01*
X4195597Y1935590D01*
X4198620Y1926521D01*
Y1911405D01*
X4195597Y1902336D01*
X4192574Y1896290D01*
X4186527Y1890243D01*
X4180481Y1887220D01*
X4168388D01*
X4162342Y1890243D01*
X4156296Y1896290D01*
X4153273Y1902336D01*
X4135436Y1938614D02*
X4129390Y1941637D01*
X4120320Y1950706D01*
Y1887220D01*
X4082833Y1950706D02*
X4049578D01*
X4067717Y1926521D01*
X4058648D01*
X4052601Y1923498D01*
X4049578Y1920475D01*
X4046555Y1911405D01*
Y1905359D01*
X4049578Y1896290D01*
X4055625Y1890243D01*
X4064694Y1887220D01*
X4073764D01*
X4082833Y1890243D01*
X4085856Y1893266D01*
X4088879Y1899313D01*
X4017230Y1950706D02*
X4026300Y1947683D01*
X4029323Y1941637D01*
Y1935590D01*
X4026300Y1929544D01*
X4020254Y1926521D01*
X4008161Y1923498D01*
X3999092Y1920475D01*
X3993045Y1914428D01*
X3990022Y1908382D01*
Y1899313D01*
X3993045Y1893266D01*
X3996068Y1890243D01*
X4005138Y1887220D01*
X4017230D01*
X4026300Y1890243D01*
X4029323Y1893266D01*
X4032346Y1899313D01*
Y1908382D01*
X4029323Y1914428D01*
X4023277Y1920475D01*
X4014207Y1923498D01*
X4002115Y1926521D01*
X3996068Y1929544D01*
X3993045Y1935590D01*
Y1941637D01*
X3996068Y1947683D01*
X4005138Y1950706D01*
X4017230D01*
X5359386Y4211320D02*
X5295900D01*
X5359386D02*
Y4238528D01*
X5356363Y4247598D01*
X5353340Y4250621D01*
X5347294Y4253644D01*
X5341247D01*
X5335201Y4250621D01*
X5332178Y4247598D01*
X5329155Y4238528D01*
Y4211320D01*
Y4232482D02*
X5295900Y4253644D01*
X5359386Y4273899D02*
Y4307154D01*
X5335201Y4289015D01*
Y4298085D01*
X5332178Y4304131D01*
X5329155Y4307154D01*
X5320085Y4310177D01*
X5314039D01*
X5304970Y4307154D01*
X5298923Y4301108D01*
X5295900Y4292038D01*
Y4282969D01*
X5298923Y4273899D01*
X5301946Y4270876D01*
X5307993Y4267853D01*
X5359386Y4342525D02*
X5356363Y4333456D01*
X5347294Y4327409D01*
X5332178Y4324386D01*
X5323108D01*
X5307993Y4327409D01*
X5298923Y4333456D01*
X5295900Y4342525D01*
Y4348571D01*
X5298923Y4357641D01*
X5307993Y4363687D01*
X5323108Y4366710D01*
X5332178D01*
X5347294Y4363687D01*
X5356363Y4357641D01*
X5359386Y4348571D01*
Y4342525D01*
X5344270Y4383942D02*
X5347294D01*
X5353340Y4386965D01*
X5356363Y4389989D01*
X5359386Y4396035D01*
Y4408128D01*
X5356363Y4414174D01*
X5353340Y4417197D01*
X5347294Y4420220D01*
X5341247D01*
X5335201Y4417197D01*
X5326132Y4411151D01*
X5295900Y4380919D01*
Y4423243D01*
X5357597Y6044069D02*
Y5980582D01*
Y6044069D02*
X5330388D01*
X5321319Y6041046D01*
X5318295Y6038022D01*
X5315272Y6031976D01*
Y6025930D01*
X5318295Y6019884D01*
X5321319Y6016860D01*
X5330388Y6013837D01*
X5357597D01*
X5336435D02*
X5315272Y5980582D01*
X5295017Y6044069D02*
X5261762D01*
X5279902Y6019884D01*
X5270832D01*
X5264786Y6016860D01*
X5261762Y6013837D01*
X5258739Y6004768D01*
Y5998721D01*
X5261762Y5989652D01*
X5267809Y5983606D01*
X5276878Y5980582D01*
X5285948D01*
X5295017Y5983606D01*
X5298040Y5986629D01*
X5301064Y5992675D01*
X5226392Y6044069D02*
X5235461Y6041046D01*
X5241507Y6031976D01*
X5244531Y6016860D01*
Y6007791D01*
X5241507Y5992675D01*
X5235461Y5983606D01*
X5226392Y5980582D01*
X5220345D01*
X5211276Y5983606D01*
X5205229Y5992675D01*
X5202206Y6007791D01*
Y6016860D01*
X5205229Y6031976D01*
X5211276Y6041046D01*
X5220345Y6044069D01*
X5226392D01*
X5157766D02*
X5187997Y6001744D01*
X5142650D01*
X5157766Y6044069D02*
Y5980582D01*
X3192890Y3387987D02*
X3198937Y3384964D01*
X3204983Y3378918D01*
X3208006Y3372872D01*
Y3360779D01*
X3204983Y3354733D01*
X3198937Y3348686D01*
X3192890Y3345663D01*
X3183821Y3342640D01*
X3168705D01*
X3159636Y3345663D01*
X3153590Y3348686D01*
X3147543Y3354733D01*
X3144520Y3360779D01*
Y3372872D01*
X3147543Y3378918D01*
X3153590Y3384964D01*
X3159636Y3387987D01*
X3192890Y3408847D02*
X3195914D01*
X3201960Y3411870D01*
X3204983Y3414894D01*
X3208006Y3420940D01*
Y3433033D01*
X3204983Y3439079D01*
X3201960Y3442102D01*
X3195914Y3445125D01*
X3189867D01*
X3183821Y3442102D01*
X3174752Y3436056D01*
X3144520Y3405824D01*
Y3448148D01*
X3208006Y3480496D02*
X3204983Y3471427D01*
X3195914Y3465380D01*
X3180798Y3462357D01*
X3171728D01*
X3156613Y3465380D01*
X3147543Y3471427D01*
X3144520Y3480496D01*
Y3486542D01*
X3147543Y3495612D01*
X3156613Y3501658D01*
X3171728Y3504681D01*
X3180798D01*
X3195914Y3501658D01*
X3204983Y3495612D01*
X3208006Y3486542D01*
Y3480496D01*
X3186844Y3558191D02*
X3177775Y3555168D01*
X3171728Y3549122D01*
X3168705Y3540052D01*
Y3537029D01*
X3171728Y3527960D01*
X3177775Y3521913D01*
X3186844Y3518890D01*
X3189867D01*
X3198937Y3521913D01*
X3204983Y3527960D01*
X3208006Y3537029D01*
Y3540052D01*
X3204983Y3549122D01*
X3198937Y3555168D01*
X3186844Y3558191D01*
X3171728D01*
X3156613Y3555168D01*
X3147543Y3549122D01*
X3144520Y3540052D01*
Y3534006D01*
X3147543Y3524936D01*
X3153590Y3521913D01*
X4404733Y2202290D02*
X4407756Y2208337D01*
X4413802Y2214383D01*
X4419848Y2217406D01*
X4431941D01*
X4437987Y2214383D01*
X4444034Y2208337D01*
X4447057Y2202290D01*
X4450080Y2193221D01*
Y2178105D01*
X4447057Y2169036D01*
X4444034Y2162990D01*
X4437987Y2156943D01*
X4431941Y2153920D01*
X4419848D01*
X4413802Y2156943D01*
X4407756Y2162990D01*
X4404733Y2169036D01*
X4386896Y2205314D02*
X4380850Y2208337D01*
X4371780Y2217406D01*
Y2153920D01*
X4322200Y2217406D02*
X4331270Y2214383D01*
X4337316Y2205314D01*
X4340339Y2190198D01*
Y2181128D01*
X4337316Y2166013D01*
X4331270Y2156943D01*
X4322200Y2153920D01*
X4316154D01*
X4307085Y2156943D01*
X4301038Y2166013D01*
X4298015Y2181128D01*
Y2190198D01*
X4301038Y2205314D01*
X4307085Y2214383D01*
X4316154Y2217406D01*
X4322200D01*
X4244505Y2196244D02*
X4247528Y2187175D01*
X4253575Y2181128D01*
X4262644Y2178105D01*
X4265667D01*
X4274737Y2181128D01*
X4280783Y2187175D01*
X4283806Y2196244D01*
Y2199267D01*
X4280783Y2208337D01*
X4274737Y2214383D01*
X4265667Y2217406D01*
X4262644D01*
X4253575Y2214383D01*
X4247528Y2208337D01*
X4244505Y2196244D01*
Y2181128D01*
X4247528Y2166013D01*
X4253575Y2156943D01*
X4262644Y2153920D01*
X4268690D01*
X4277760Y2156943D01*
X4280783Y2162990D01*
X4338320Y3992866D02*
Y3929380D01*
Y3992866D02*
X4311112D01*
X4302042Y3989843D01*
X4299019Y3986820D01*
X4295996Y3980774D01*
Y3974727D01*
X4299019Y3968681D01*
X4302042Y3965658D01*
X4311112Y3962635D01*
X4338320D01*
X4317158D02*
X4295996Y3929380D01*
X4278764Y3977750D02*
Y3980774D01*
X4275741Y3986820D01*
X4272717Y3989843D01*
X4266671Y3992866D01*
X4254578D01*
X4248532Y3989843D01*
X4245509Y3986820D01*
X4242486Y3980774D01*
Y3974727D01*
X4245509Y3968681D01*
X4251555Y3959612D01*
X4281787Y3929380D01*
X4239463D01*
X4207115Y3992866D02*
X4216184Y3989843D01*
X4222231Y3980774D01*
X4225254Y3965658D01*
Y3956588D01*
X4222231Y3941473D01*
X4216184Y3932403D01*
X4207115Y3929380D01*
X4201069D01*
X4191999Y3932403D01*
X4185953Y3941473D01*
X4182930Y3956588D01*
Y3965658D01*
X4185953Y3980774D01*
X4191999Y3989843D01*
X4201069Y3992866D01*
X4207115D01*
X4129420Y3971704D02*
X4132443Y3962635D01*
X4138489Y3956588D01*
X4147559Y3953565D01*
X4150582D01*
X4159651Y3956588D01*
X4165698Y3962635D01*
X4168721Y3971704D01*
Y3974727D01*
X4165698Y3983797D01*
X4159651Y3989843D01*
X4150582Y3992866D01*
X4147559D01*
X4138489Y3989843D01*
X4132443Y3983797D01*
X4129420Y3971704D01*
Y3956588D01*
X4132443Y3941473D01*
X4138489Y3932403D01*
X4147559Y3929380D01*
X4153605D01*
X4162675Y3932403D01*
X4165698Y3938450D01*
X5199490Y5343787D02*
X5205537Y5340764D01*
X5211583Y5334718D01*
X5214606Y5328672D01*
Y5316579D01*
X5211583Y5310533D01*
X5205537Y5304486D01*
X5199490Y5301463D01*
X5190421Y5298440D01*
X5175305D01*
X5166236Y5301463D01*
X5160190Y5304486D01*
X5154143Y5310533D01*
X5151120Y5316579D01*
Y5328672D01*
X5154143Y5334718D01*
X5160190Y5340764D01*
X5166236Y5343787D01*
X5214606Y5376740D02*
X5211583Y5367670D01*
X5205537Y5364647D01*
X5199490D01*
X5193444Y5367670D01*
X5190421Y5373717D01*
X5187398Y5385809D01*
X5184375Y5394879D01*
X5178328Y5400925D01*
X5172282Y5403948D01*
X5163213D01*
X5157166Y5400925D01*
X5154143Y5397902D01*
X5151120Y5388833D01*
Y5376740D01*
X5154143Y5367670D01*
X5157166Y5364647D01*
X5163213Y5361624D01*
X5172282D01*
X5178328Y5364647D01*
X5184375Y5370694D01*
X5187398Y5379763D01*
X5190421Y5391856D01*
X5193444Y5397902D01*
X5199490Y5400925D01*
X5205537D01*
X5211583Y5397902D01*
X5214606Y5388833D01*
Y5376740D01*
Y5436296D02*
X5211583Y5427227D01*
X5202514Y5421180D01*
X5187398Y5418157D01*
X5178328D01*
X5163213Y5421180D01*
X5154143Y5427227D01*
X5151120Y5436296D01*
Y5442342D01*
X5154143Y5451412D01*
X5163213Y5457458D01*
X5178328Y5460481D01*
X5187398D01*
X5202514Y5457458D01*
X5211583Y5451412D01*
X5214606Y5442342D01*
Y5436296D01*
X5193444Y5513991D02*
X5184375Y5510968D01*
X5178328Y5504922D01*
X5175305Y5495852D01*
Y5492829D01*
X5178328Y5483760D01*
X5184375Y5477713D01*
X5193444Y5474690D01*
X5196467D01*
X5205537Y5477713D01*
X5211583Y5483760D01*
X5214606Y5492829D01*
Y5495852D01*
X5211583Y5504922D01*
X5205537Y5510968D01*
X5193444Y5513991D01*
X5178328D01*
X5163213Y5510968D01*
X5154143Y5504922D01*
X5151120Y5495852D01*
Y5489806D01*
X5154143Y5480736D01*
X5160190Y5477713D01*
X4866845Y3525372D02*
X4869868Y3531419D01*
X4875914Y3537465D01*
X4881961Y3540488D01*
X4894053D01*
X4900100Y3537465D01*
X4906146Y3531419D01*
X4909169Y3525372D01*
X4912192Y3516303D01*
Y3501187D01*
X4909169Y3492118D01*
X4906146Y3486072D01*
X4900100Y3480025D01*
X4894053Y3477002D01*
X4881961D01*
X4875914Y3480025D01*
X4869868Y3486072D01*
X4866845Y3492118D01*
X4849008Y3528396D02*
X4842962Y3531419D01*
X4833893Y3540488D01*
Y3477002D01*
X4766174Y3540488D02*
X4796405D01*
X4799429Y3513280D01*
X4796405Y3516303D01*
X4787336Y3519326D01*
X4778266D01*
X4769197Y3516303D01*
X4763150Y3510257D01*
X4760127Y3501187D01*
Y3495141D01*
X4763150Y3486072D01*
X4769197Y3480025D01*
X4778266Y3477002D01*
X4787336D01*
X4796405Y3480025D01*
X4799429Y3483048D01*
X4802452Y3489095D01*
X4709641Y3531419D02*
X4712664Y3537465D01*
X4721733Y3540488D01*
X4727780D01*
X4736849Y3537465D01*
X4742896Y3528396D01*
X4745919Y3513280D01*
Y3498164D01*
X4742896Y3486072D01*
X4736849Y3480025D01*
X4727780Y3477002D01*
X4724757D01*
X4715687Y3480025D01*
X4709641Y3486072D01*
X4706617Y3495141D01*
Y3498164D01*
X4709641Y3507234D01*
X4715687Y3513280D01*
X4724757Y3516303D01*
X4727780D01*
X4736849Y3513280D01*
X4742896Y3507234D01*
X4745919Y3498164D01*
X3345428Y5875006D02*
Y5826636D01*
X3348452Y5817566D01*
X3351475Y5814543D01*
X3357521Y5811520D01*
X3363567D01*
X3369614Y5814543D01*
X3372637Y5817566D01*
X3375660Y5826636D01*
Y5832682D01*
X3289802Y5853844D02*
X3292825Y5844775D01*
X3298872Y5838728D01*
X3307941Y5835705D01*
X3310964D01*
X3320034Y5838728D01*
X3326080Y5844775D01*
X3329103Y5853844D01*
Y5856867D01*
X3326080Y5865937D01*
X3320034Y5871983D01*
X3310964Y5875006D01*
X3307941D01*
X3298872Y5871983D01*
X3292825Y5865937D01*
X3289802Y5853844D01*
Y5838728D01*
X3292825Y5823613D01*
X3298872Y5814543D01*
X3307941Y5811520D01*
X3313988D01*
X3323057Y5814543D01*
X3326080Y5820590D01*
X3254431Y5875006D02*
X3263501Y5871983D01*
X3269547Y5862914D01*
X3272570Y5847798D01*
Y5838728D01*
X3269547Y5823613D01*
X3263501Y5814543D01*
X3254431Y5811520D01*
X3248385D01*
X3239316Y5814543D01*
X3233269Y5823613D01*
X3230246Y5838728D01*
Y5847798D01*
X3233269Y5862914D01*
X3239316Y5871983D01*
X3248385Y5875006D01*
X3254431D01*
X3216037Y5862914D02*
X3209991Y5865937D01*
X3200921Y5875006D01*
Y5811520D01*
X5889492Y1236941D02*
Y1188570D01*
X5892516Y1179501D01*
X5895539Y1176478D01*
X5901585Y1173455D01*
X5907631D01*
X5913678Y1176478D01*
X5916701Y1179501D01*
X5919724Y1188570D01*
Y1194617D01*
X5858052Y1236941D02*
X5867121Y1233918D01*
X5870144Y1227872D01*
Y1221825D01*
X5867121Y1215779D01*
X5861075Y1212756D01*
X5848982Y1209733D01*
X5839913Y1206709D01*
X5833866Y1200663D01*
X5830843Y1194617D01*
Y1185547D01*
X5833866Y1179501D01*
X5836889Y1176478D01*
X5845959Y1173455D01*
X5858052D01*
X5867121Y1176478D01*
X5870144Y1179501D01*
X5873167Y1185547D01*
Y1194617D01*
X5870144Y1200663D01*
X5864098Y1206709D01*
X5855028Y1209733D01*
X5842936Y1212756D01*
X5836889Y1215779D01*
X5833866Y1221825D01*
Y1227872D01*
X5836889Y1233918D01*
X5845959Y1236941D01*
X5858052D01*
X5798495D02*
X5807565Y1233918D01*
X5813611Y1224848D01*
X5816634Y1209733D01*
Y1200663D01*
X5813611Y1185547D01*
X5807565Y1176478D01*
X5798495Y1173455D01*
X5792449D01*
X5783380Y1176478D01*
X5777333Y1185547D01*
X5774310Y1200663D01*
Y1209733D01*
X5777333Y1224848D01*
X5783380Y1233918D01*
X5792449Y1236941D01*
X5798495D01*
X5760101Y1224848D02*
X5754055Y1227872D01*
X5744985Y1236941D01*
Y1173455D01*
X4137908Y5755626D02*
Y5707256D01*
X4140932Y5698186D01*
X4143955Y5695163D01*
X4150001Y5692140D01*
X4156047D01*
X4162094Y5695163D01*
X4165117Y5698186D01*
X4168140Y5707256D01*
Y5713302D01*
X4106468Y5755626D02*
X4115537Y5752603D01*
X4118560Y5746557D01*
Y5740510D01*
X4115537Y5734464D01*
X4109491Y5731441D01*
X4097398Y5728418D01*
X4088329Y5725395D01*
X4082282Y5719348D01*
X4079259Y5713302D01*
Y5704233D01*
X4082282Y5698186D01*
X4085305Y5695163D01*
X4094375Y5692140D01*
X4106468D01*
X4115537Y5695163D01*
X4118560Y5698186D01*
X4121583Y5704233D01*
Y5713302D01*
X4118560Y5719348D01*
X4112514Y5725395D01*
X4103444Y5728418D01*
X4091352Y5731441D01*
X4085305Y5734464D01*
X4082282Y5740510D01*
Y5746557D01*
X4085305Y5752603D01*
X4094375Y5755626D01*
X4106468D01*
X4046911D02*
X4055981Y5752603D01*
X4062027Y5743534D01*
X4065050Y5728418D01*
Y5719348D01*
X4062027Y5704233D01*
X4055981Y5695163D01*
X4046911Y5692140D01*
X4040865D01*
X4031796Y5695163D01*
X4025749Y5704233D01*
X4022726Y5719348D01*
Y5728418D01*
X4025749Y5743534D01*
X4031796Y5752603D01*
X4040865Y5755626D01*
X4046911D01*
X4005494Y5740510D02*
Y5743534D01*
X4002471Y5749580D01*
X3999448Y5752603D01*
X3993401Y5755626D01*
X3981309D01*
X3975263Y5752603D01*
X3972239Y5749580D01*
X3969216Y5743534D01*
Y5737487D01*
X3972239Y5731441D01*
X3978286Y5722372D01*
X4008517Y5692140D01*
X3966193D01*
X6957308Y4597386D02*
Y4549016D01*
X6960332Y4539946D01*
X6963355Y4536923D01*
X6969401Y4533900D01*
X6975447D01*
X6981494Y4536923D01*
X6984517Y4539946D01*
X6987540Y4549016D01*
Y4555062D01*
X6925868Y4597386D02*
X6934937Y4594363D01*
X6937960Y4588317D01*
Y4582270D01*
X6934937Y4576224D01*
X6928891Y4573201D01*
X6916798Y4570178D01*
X6907729Y4567155D01*
X6901682Y4561108D01*
X6898659Y4555062D01*
Y4545993D01*
X6901682Y4539946D01*
X6904705Y4536923D01*
X6913775Y4533900D01*
X6925868D01*
X6934937Y4536923D01*
X6937960Y4539946D01*
X6940983Y4545993D01*
Y4555062D01*
X6937960Y4561108D01*
X6931914Y4567155D01*
X6922844Y4570178D01*
X6910752Y4573201D01*
X6904705Y4576224D01*
X6901682Y4582270D01*
Y4588317D01*
X6904705Y4594363D01*
X6913775Y4597386D01*
X6925868D01*
X6866311D02*
X6875381Y4594363D01*
X6881427Y4585294D01*
X6884450Y4570178D01*
Y4561108D01*
X6881427Y4545993D01*
X6875381Y4536923D01*
X6866311Y4533900D01*
X6860265D01*
X6851196Y4536923D01*
X6845149Y4545993D01*
X6842126Y4561108D01*
Y4570178D01*
X6845149Y4585294D01*
X6851196Y4594363D01*
X6860265Y4597386D01*
X6866311D01*
X6821871D02*
X6788616D01*
X6806755Y4573201D01*
X6797686D01*
X6791639Y4570178D01*
X6788616Y4567155D01*
X6785593Y4558085D01*
Y4552039D01*
X6788616Y4542970D01*
X6794663Y4536923D01*
X6803732Y4533900D01*
X6812801D01*
X6821871Y4536923D01*
X6824894Y4539946D01*
X6827917Y4545993D01*
X3505310Y906407D02*
X3511357Y903384D01*
X3517403Y897338D01*
X3520426Y891292D01*
Y879199D01*
X3517403Y873153D01*
X3511357Y867106D01*
X3505310Y864083D01*
X3496241Y861060D01*
X3481125D01*
X3472056Y864083D01*
X3466010Y867106D01*
X3459963Y873153D01*
X3456940Y879199D01*
Y891292D01*
X3459963Y897338D01*
X3466010Y903384D01*
X3472056Y906407D01*
X3520426Y966568D02*
X3456940Y936337D01*
X3520426Y924244D02*
Y966568D01*
X3505310Y983800D02*
X3508334D01*
X3514380Y986823D01*
X3517403Y989847D01*
X3520426Y995893D01*
Y1007986D01*
X3517403Y1014032D01*
X3514380Y1017055D01*
X3508334Y1020078D01*
X3502287D01*
X3496241Y1017055D01*
X3487172Y1011009D01*
X3456940Y980777D01*
Y1023101D01*
X3520426Y1073588D02*
Y1043356D01*
X3493218Y1040333D01*
X3496241Y1043356D01*
X3499264Y1052426D01*
Y1061495D01*
X3496241Y1070565D01*
X3490195Y1076611D01*
X3481125Y1079634D01*
X3475079D01*
X3466010Y1076611D01*
X3459963Y1070565D01*
X3456940Y1061495D01*
Y1052426D01*
X3459963Y1043356D01*
X3462986Y1040333D01*
X3469033Y1037310D01*
X5789033Y1795890D02*
X5792056Y1801937D01*
X5798102Y1807983D01*
X5804148Y1811006D01*
X5816241D01*
X5822287Y1807983D01*
X5828334Y1801937D01*
X5831357Y1795890D01*
X5834380Y1786821D01*
Y1771705D01*
X5831357Y1762636D01*
X5828334Y1756590D01*
X5822287Y1750543D01*
X5816241Y1747520D01*
X5804148D01*
X5798102Y1750543D01*
X5792056Y1756590D01*
X5789033Y1762636D01*
X5734918Y1811006D02*
X5765150D01*
X5768173Y1783798D01*
X5765150Y1786821D01*
X5756080Y1789844D01*
X5747011D01*
X5737941Y1786821D01*
X5731895Y1780775D01*
X5728872Y1771705D01*
Y1765659D01*
X5731895Y1756590D01*
X5737941Y1750543D01*
X5747011Y1747520D01*
X5756080D01*
X5765150Y1750543D01*
X5768173Y1753566D01*
X5771196Y1759613D01*
X5696524Y1811006D02*
X5705593Y1807983D01*
X5711640Y1798914D01*
X5714663Y1783798D01*
Y1774728D01*
X5711640Y1759613D01*
X5705593Y1750543D01*
X5696524Y1747520D01*
X5690478D01*
X5681408Y1750543D01*
X5675362Y1759613D01*
X5672339Y1774728D01*
Y1783798D01*
X5675362Y1798914D01*
X5681408Y1807983D01*
X5690478Y1811006D01*
X5696524D01*
X5658130Y1798914D02*
X5652084Y1801937D01*
X5643014Y1811006D01*
Y1747520D01*
%TF.MD5,632e4bb893d0846fbc34817ef410fbf4*%
M02*
