G04*
G04 #@! TF.GenerationSoftware,Altium Limited,Altium Designer,25.7.1 (20)*
G04*
G04 Layer_Color=11065270*
%FSLAX44Y44*%
%MOMM*%
G71*
G04*
G04 #@! TF.SameCoordinates,73AB98AC-F87E-4787-825B-23B2420A13CA*
G04*
G04*
G04 #@! TF.FilePolarity,Positive*
G04*
G01*
G75*
%ADD98C,0.0254*%
D98*
X691909Y227843D02*
Y445044D01*
X671411D02*
X691909D01*
X671411Y227843D02*
Y445044D01*
Y227843D02*
X691909D01*
X493372Y86642D02*
X670573D01*
Y107140D01*
X493372D02*
X670573D01*
X493372Y86642D02*
Y107140D01*
X318305Y533977D02*
Y575175D01*
X338803D01*
Y533977D02*
Y575175D01*
X318305Y533977D02*
X338803D01*
X282069Y100132D02*
Y121468D01*
X272418Y100132D02*
X282069D01*
X272418D02*
Y117658D01*
X282069D01*
X246339Y95009D02*
X251841D01*
X246339D02*
Y105509D01*
X251841D01*
Y95009D02*
Y105509D01*
X249918Y139291D02*
X260419D01*
Y144793D01*
X249918D02*
X260419D01*
X249918Y139291D02*
Y144793D01*
X287708Y107617D02*
X293210D01*
Y97117D02*
Y107617D01*
X287708Y97117D02*
X293210D01*
X287708D02*
Y107617D01*
X355120Y167625D02*
Y173126D01*
X365620D01*
Y167625D02*
Y173126D01*
X355120Y167625D02*
X365620D01*
X376370Y198249D02*
Y203751D01*
X365869Y198249D02*
X376370D01*
X365869D02*
Y203751D01*
X376370D01*
X365872Y192679D02*
X376372D01*
X365872Y187178D02*
Y192679D01*
Y187178D02*
X376372D01*
Y192679D01*
X521228Y393814D02*
Y399316D01*
X510728Y393814D02*
X521228D01*
X510728D02*
Y399316D01*
X521228D01*
X493090Y379702D02*
X503591D01*
X493090Y374200D02*
Y379702D01*
Y374200D02*
X503591D01*
Y379702D01*
X311109Y427530D02*
Y433032D01*
X321610D01*
Y427530D02*
Y433032D01*
X311109Y427530D02*
X321610D01*
X375333Y323682D02*
X385834D01*
X375333Y318181D02*
Y323682D01*
Y318181D02*
X385834D01*
Y323682D01*
X356204Y318389D02*
Y323891D01*
X366705D01*
Y318389D02*
Y323891D01*
X356204Y318389D02*
X366705D01*
X290297Y431864D02*
X300797D01*
X290297Y426362D02*
Y431864D01*
Y426362D02*
X300797D01*
Y431864D01*
X599882Y197300D02*
Y202801D01*
X610382D01*
Y197300D02*
Y202801D01*
X599882Y197300D02*
X610382D01*
X355722Y394101D02*
X366222D01*
Y399603D01*
X355722D02*
X366222D01*
X355722Y394101D02*
Y399603D01*
X355023Y356466D02*
Y366967D01*
Y356466D02*
X360525D01*
Y366967D01*
X355023D02*
X360525D01*
X355831Y374851D02*
Y380352D01*
X366331D01*
Y374851D02*
Y380352D01*
X355831Y374851D02*
X366331D01*
X329903Y432872D02*
X340403D01*
X329903Y427370D02*
Y432872D01*
Y427370D02*
X340403D01*
Y432872D01*
X503560Y394190D02*
Y399692D01*
X493060Y394190D02*
X503560D01*
X493060D02*
Y399692D01*
X503560D01*
X517342Y380009D02*
X527842D01*
X517342Y374508D02*
Y380009D01*
Y374508D02*
X527842D01*
Y380009D01*
X544713Y537370D02*
X550215D01*
Y526870D02*
Y537370D01*
X544713Y526870D02*
X550215D01*
X544713D02*
Y537370D01*
X372194Y425864D02*
X382694D01*
Y431366D01*
X372194D02*
X382694D01*
X372194Y425864D02*
Y431366D01*
X489265Y431642D02*
Y437144D01*
X478765Y431642D02*
X489265D01*
X478765D02*
Y437144D01*
X489265D01*
X555678Y526898D02*
X561180D01*
X555678D02*
Y537398D01*
X561180D01*
Y526898D02*
Y537398D01*
X329725Y334112D02*
Y339613D01*
X340225D01*
Y334112D02*
Y339613D01*
X329725Y334112D02*
X340225D01*
X587898Y526819D02*
Y537319D01*
X582397D02*
X587898D01*
X582397Y526819D02*
Y537319D01*
Y526819D02*
X587898D01*
X566529Y526979D02*
X572031D01*
X566529D02*
Y537479D01*
X572031D01*
Y526979D02*
Y537479D01*
X77960Y348412D02*
Y358912D01*
X72459D02*
X77960D01*
X72459Y348412D02*
Y358912D01*
Y348412D02*
X77960D01*
X61669Y348785D02*
X67170D01*
X61669D02*
Y359286D01*
X67170D01*
Y348785D02*
Y359286D01*
X99779Y394993D02*
Y405493D01*
X94277D02*
X99779D01*
X94277Y394993D02*
Y405493D01*
Y394993D02*
X99779D01*
X81407Y395422D02*
X86909D01*
X81407D02*
Y405923D01*
X86909D01*
Y395422D02*
Y405923D01*
X303131Y142359D02*
X324467D01*
Y132707D02*
Y142359D01*
X306941Y132707D02*
X324467D01*
X306941D02*
Y142359D01*
X303334Y127211D02*
X324670D01*
Y117559D02*
Y127211D01*
X307144Y117559D02*
X324670D01*
X307144D02*
Y127211D01*
X298801Y150947D02*
Y172283D01*
X308452D01*
Y154757D02*
Y172283D01*
X298801Y154757D02*
X308452D01*
X284102Y150878D02*
Y172215D01*
X293754D01*
Y154689D02*
Y172215D01*
X284102Y154689D02*
X293754D01*
X269263Y150830D02*
Y172166D01*
X278915D01*
Y154640D02*
Y172166D01*
X269263Y154640D02*
X278915D01*
X267157Y100134D02*
Y121470D01*
X257505Y100134D02*
X267157D01*
X257505D02*
Y117660D01*
X267157D01*
X263848Y154269D02*
Y175605D01*
X254196Y154269D02*
X263848D01*
X254196D02*
Y171795D01*
X263848D01*
X560301Y213063D02*
X566600D01*
Y216365D01*
X560301D02*
X566600D01*
X560301Y213063D02*
Y216365D01*
X544223Y198661D02*
Y204960D01*
Y198661D02*
X547525D01*
Y204960D01*
X544223D02*
X547525D01*
X544302Y209235D02*
Y215534D01*
Y209235D02*
X547604D01*
Y215534D01*
X544302D02*
X547604D01*
X556895Y184501D02*
Y190800D01*
X553593D02*
X556895D01*
X553593Y184501D02*
Y190800D01*
Y184501D02*
X556895D01*
X579463Y206459D02*
X585762D01*
X579463Y203157D02*
Y206459D01*
Y203157D02*
X585762D01*
Y206459D01*
X521035Y435310D02*
X527335D01*
X521035Y432008D02*
Y435310D01*
Y432008D02*
X527335D01*
Y435310D01*
X563712Y415867D02*
Y422166D01*
X560410D02*
X563712D01*
X560410Y415867D02*
Y422166D01*
Y415867D02*
X563712D01*
X554365Y404929D02*
X560664D01*
Y408231D01*
X554365D02*
X560664D01*
X554365Y404929D02*
Y408231D01*
X544167Y422488D02*
Y428788D01*
X540865D02*
X544167D01*
X540865Y422488D02*
Y428788D01*
Y422488D02*
X544167D01*
X554157Y420213D02*
Y426512D01*
X550855D02*
X554157D01*
X550855Y420213D02*
Y426512D01*
Y420213D02*
X554157D01*
X545577Y541449D02*
Y547748D01*
Y541449D02*
X548879D01*
Y547748D01*
X545577D02*
X548879D01*
X513329Y415211D02*
Y421511D01*
X510027D02*
X513329D01*
X510027Y415211D02*
Y421511D01*
Y415211D02*
X513329D01*
X523750Y363286D02*
Y369585D01*
X520448D02*
X523750D01*
X520448Y363286D02*
Y369585D01*
Y363286D02*
X523750D01*
X542089Y379070D02*
X548388D01*
X542089Y375768D02*
Y379070D01*
Y375768D02*
X548388D01*
Y379070D01*
X502900Y415087D02*
Y421386D01*
X499598D02*
X502900D01*
X499598Y415087D02*
Y421386D01*
Y415087D02*
X502900D01*
X500370Y355704D02*
Y362003D01*
Y355704D02*
X503672D01*
Y362003D01*
X500370D02*
X503672D01*
X547863Y385714D02*
X554162D01*
Y389016D01*
X547863D02*
X554162D01*
X547863Y385714D02*
Y389016D01*
X520675Y404124D02*
Y410423D01*
Y404124D02*
X523977D01*
Y410423D01*
X520675D02*
X523977D01*
X510027Y404050D02*
Y410350D01*
Y404050D02*
X513329D01*
Y410350D01*
X510027D02*
X513329D01*
X543502Y365524D02*
Y371823D01*
X540200D02*
X543502D01*
X540200Y365524D02*
Y371823D01*
Y365524D02*
X543502D01*
X599016Y233131D02*
Y239431D01*
X595714D02*
X599016D01*
X595714Y233131D02*
Y239431D01*
Y233131D02*
X599016D01*
X551155Y395224D02*
X557454D01*
Y398526D01*
X551155D02*
X557454D01*
X551155Y395224D02*
Y398526D01*
X530997Y401129D02*
Y407429D01*
Y401129D02*
X534299D01*
Y407429D01*
X530997D02*
X534299D01*
X540845Y401683D02*
Y407982D01*
Y401683D02*
X544147D01*
Y407982D01*
X540845D02*
X544147D01*
X529648Y392831D02*
X535948D01*
X529648Y389529D02*
Y392831D01*
Y389529D02*
X535948D01*
Y392831D01*
X535381Y376382D02*
Y382682D01*
Y376382D02*
X538683D01*
Y382682D01*
X535381D02*
X538683D01*
X536524Y395135D02*
X542823D01*
Y398437D01*
X536524D02*
X542823D01*
X536524Y395135D02*
Y398437D01*
X525678Y394874D02*
X531978D01*
Y398176D01*
X525678D02*
X531978D01*
X525678Y394874D02*
Y398176D01*
X530443Y376408D02*
Y382707D01*
Y376408D02*
X533745D01*
Y382707D01*
X530443D02*
X533745D01*
X507053Y339611D02*
X513352D01*
Y342913D01*
X507053D02*
X513352D01*
X507053Y339611D02*
Y342913D01*
X534258Y365846D02*
Y372146D01*
X530956D02*
X534258D01*
X530956Y365846D02*
Y372146D01*
Y365846D02*
X534258D01*
X574198Y378259D02*
Y384558D01*
X570896D02*
X574198D01*
X570896Y378259D02*
Y384558D01*
Y378259D02*
X574198D01*
X552684Y340436D02*
X558983D01*
Y343738D01*
X552684D02*
X558983D01*
X552684Y340436D02*
Y343738D01*
X514027Y366418D02*
Y372717D01*
X510725D02*
X514027D01*
X510725Y366418D02*
Y372717D01*
Y366418D02*
X514027D01*
X495938Y368757D02*
X502237D01*
X495938Y365455D02*
Y368757D01*
Y365455D02*
X502237D01*
Y368757D01*
X506491Y385079D02*
X512790D01*
Y388381D01*
X506491D02*
X512790D01*
X506491Y385079D02*
Y388381D01*
X496161Y408579D02*
X502460D01*
X496161Y405277D02*
Y408579D01*
Y405277D02*
X502460D01*
Y408579D01*
X495567Y389016D02*
X501866D01*
X495567Y385714D02*
Y389016D01*
Y385714D02*
X501866D01*
Y389016D01*
X368135Y355366D02*
X374434D01*
X368135Y352064D02*
Y355366D01*
Y352064D02*
X374434D01*
Y355366D01*
X389227Y417604D02*
X395526D01*
Y420906D01*
X389227D02*
X395526D01*
X389227Y417604D02*
Y420906D01*
X385211Y388346D02*
Y394645D01*
X381909D02*
X385211D01*
X381909Y388346D02*
Y394645D01*
Y388346D02*
X385211D01*
X380490Y363822D02*
X386789D01*
X380490Y360520D02*
Y363822D01*
Y360520D02*
X386789D01*
Y363822D01*
X319623Y386954D02*
X325923D01*
X319623Y383652D02*
Y386954D01*
Y383652D02*
X325923D01*
Y386954D01*
X364619Y411556D02*
Y417855D01*
Y411556D02*
X367921D01*
Y417855D01*
X364619D02*
X367921D01*
X332577Y323530D02*
X338877D01*
X332577Y320228D02*
Y323530D01*
Y320228D02*
X338877D01*
Y323530D01*
X319400Y364810D02*
X325699D01*
X319400Y361508D02*
Y364810D01*
Y361508D02*
X325699D01*
Y364810D01*
X378998Y378826D02*
X385298D01*
X378998Y375524D02*
Y378826D01*
Y375524D02*
X385298D01*
Y378826D01*
X410207Y414947D02*
Y421246D01*
X406906D02*
X410207D01*
X406906Y414947D02*
Y421246D01*
Y414947D02*
X410207D01*
X404170Y376522D02*
X410469D01*
Y379824D01*
X404170D02*
X410469D01*
X404170Y376522D02*
Y379824D01*
X414160Y345344D02*
X420459D01*
Y348646D01*
X414160D02*
X420459D01*
X414160Y345344D02*
Y348646D01*
X280396Y413619D02*
X286695D01*
X280396Y410317D02*
Y413619D01*
Y410317D02*
X286695D01*
Y413619D01*
X293545Y365176D02*
X299844D01*
X293545Y361874D02*
Y365176D01*
Y361874D02*
X299844D01*
Y365176D01*
X383941Y405948D02*
X390241D01*
X383941Y402646D02*
Y405948D01*
Y402646D02*
X390241D01*
Y405948D01*
X293703Y323167D02*
X300002D01*
X293703Y319865D02*
Y323167D01*
Y319865D02*
X300002D01*
Y323167D01*
X605572Y233119D02*
Y239418D01*
X602270D02*
X605572D01*
X602270Y233119D02*
Y239418D01*
Y233119D02*
X605572D01*
X573644Y366509D02*
Y372808D01*
X570342D02*
X573644D01*
X570342Y366509D02*
Y372808D01*
Y366509D02*
X573644D01*
X507380Y375727D02*
X513679D01*
Y379029D01*
X507380D02*
X513679D01*
X507380Y375727D02*
Y379029D01*
X520852Y421526D02*
Y427825D01*
Y421526D02*
X524154D01*
Y427825D01*
X520852D02*
X524154D01*
X543667Y596692D02*
Y602991D01*
Y596692D02*
X546969D01*
Y602991D01*
X543667D02*
X546969D01*
X322570Y342522D02*
Y348821D01*
Y342522D02*
X325872D01*
Y348821D01*
X322570D02*
X325872D01*
X518828Y388704D02*
X525127D01*
Y392006D01*
X518828D02*
X525127D01*
X518828Y388704D02*
Y392006D01*
X414911Y387657D02*
X421211D01*
Y390959D01*
X414911D02*
X421211D01*
X414911Y387657D02*
Y390959D01*
X536539Y541383D02*
Y547682D01*
Y541383D02*
X539841D01*
Y547682D01*
X536539D02*
X539841D01*
X486347Y358696D02*
X492646D01*
X486347Y355394D02*
Y358696D01*
Y355394D02*
X492646D01*
Y358696D01*
X424185Y583032D02*
X601386D01*
X424185Y562534D02*
Y583032D01*
Y562534D02*
X601386D01*
Y583032D01*
X305288Y97071D02*
Y108572D01*
X298785D02*
X305288D01*
X298785Y97071D02*
Y108572D01*
Y97071D02*
X305288D01*
X566697Y187825D02*
X578198D01*
Y194328D01*
X566697D02*
X578198D01*
X566697Y187825D02*
Y194328D01*
M02*
