G04*
G04 #@! TF.GenerationSoftware,Altium Limited,Altium Designer,25.7.1 (20)*
G04*
G04 Layer_Color=9339205*
%FSLAX44Y44*%
%MOMM*%
G71*
G04*
G04 #@! TF.SameCoordinates,73AB98AC-F87E-4787-825B-23B2420A13CA*
G04*
G04*
G04 #@! TF.FilePolarity,Positive*
G04*
G01*
G75*
%ADD85C,0.1016*%
%ADD98C,0.0254*%
%ADD101C,0.0508*%
D85*
X164478Y386588D02*
Y381509D01*
Y386588D02*
X162785D01*
X162060Y386346D01*
X161576Y385862D01*
X161334Y385379D01*
X161092Y384653D01*
Y383444D01*
X161334Y382718D01*
X161576Y382235D01*
X162060Y381751D01*
X162785Y381509D01*
X164478D01*
X158746Y384895D02*
X159230Y384653D01*
X159714Y384170D01*
X159956Y383444D01*
Y382960D01*
X159714Y382235D01*
X159230Y381751D01*
X158746Y381509D01*
X158021D01*
X157537Y381751D01*
X157053Y382235D01*
X156812Y382960D01*
Y383444D01*
X157053Y384170D01*
X157537Y384653D01*
X158021Y384895D01*
X158746D01*
X151708Y386588D02*
Y381509D01*
Y386588D02*
X148322Y381509D01*
Y386588D02*
Y381509D01*
X145710Y384895D02*
X146194Y384653D01*
X146678Y384170D01*
X146920Y383444D01*
Y382960D01*
X146678Y382235D01*
X146194Y381751D01*
X145710Y381509D01*
X144985D01*
X144501Y381751D01*
X144017Y382235D01*
X143776Y382960D01*
Y383444D01*
X144017Y384170D01*
X144501Y384653D01*
X144985Y384895D01*
X145710D01*
X141938Y386588D02*
Y382477D01*
X141696Y381751D01*
X141212Y381509D01*
X140728D01*
X142663Y384895D02*
X140970D01*
X134319Y386588D02*
Y381509D01*
X136012Y386588D02*
X132626D01*
X132022Y384895D02*
Y381509D01*
Y383444D02*
X131780Y384170D01*
X131296Y384653D01*
X130812Y384895D01*
X130087D01*
X126725D02*
Y381509D01*
Y384170D02*
X127209Y384653D01*
X127692Y384895D01*
X128418D01*
X128902Y384653D01*
X129385Y384170D01*
X129627Y383444D01*
Y382960D01*
X129385Y382235D01*
X128902Y381751D01*
X128418Y381509D01*
X127692D01*
X127209Y381751D01*
X126725Y382235D01*
X122710Y384170D02*
X122952Y384653D01*
X123678Y384895D01*
X124403D01*
X125129Y384653D01*
X125371Y384170D01*
X125129Y383686D01*
X124645Y383444D01*
X123436Y383202D01*
X122952Y382960D01*
X122710Y382477D01*
Y382235D01*
X122952Y381751D01*
X123678Y381509D01*
X124403D01*
X125129Y381751D01*
X125371Y382235D01*
X121646Y386588D02*
Y381509D01*
Y383928D02*
X120921Y384653D01*
X120437Y384895D01*
X119711D01*
X119228Y384653D01*
X118986Y383928D01*
Y381509D01*
D98*
X311447Y533977D02*
Y575175D01*
X345661D01*
Y533977D02*
Y575175D01*
X311447Y533977D02*
X345661D01*
D101*
X683837Y305081D02*
X680027D01*
X683837D02*
Y306351D01*
X683655Y306895D01*
X683292Y307258D01*
X682930Y307439D01*
X682385Y307621D01*
X681478D01*
X680934Y307439D01*
X680571Y307258D01*
X680209Y306895D01*
X680027Y306351D01*
Y305081D01*
X683837Y308473D02*
X680027D01*
X683837D02*
Y310831D01*
X682023Y308473D02*
Y309924D01*
X683837Y313080D02*
X681297Y311266D01*
Y313987D01*
X683837Y313080D02*
X680027D01*
X683837Y315747D02*
X683655Y315203D01*
X683111Y314840D01*
X682204Y314658D01*
X681660D01*
X680753Y314840D01*
X680209Y315203D01*
X680027Y315747D01*
Y316110D01*
X680209Y316654D01*
X680753Y317016D01*
X681660Y317198D01*
X682204D01*
X683111Y317016D01*
X683655Y316654D01*
X683837Y316110D01*
Y315747D01*
X682930Y320771D02*
X683292Y320590D01*
X683655Y320227D01*
X683837Y319864D01*
Y319139D01*
X683655Y318776D01*
X683292Y318413D01*
X682930Y318232D01*
X682385Y318050D01*
X681478D01*
X680934Y318232D01*
X680571Y318413D01*
X680209Y318776D01*
X680027Y319139D01*
Y319864D01*
X680209Y320227D01*
X680571Y320590D01*
X680934Y320771D01*
X681660Y321841D02*
Y325106D01*
X683111Y326231D02*
X683292Y326594D01*
X683837Y327138D01*
X680027D01*
X683837Y330113D02*
X683655Y329569D01*
X683111Y329206D01*
X682204Y329024D01*
X681660D01*
X680753Y329206D01*
X680209Y329569D01*
X680027Y330113D01*
Y330476D01*
X680209Y331020D01*
X680753Y331382D01*
X681660Y331564D01*
X682204D01*
X683111Y331382D01*
X683655Y331020D01*
X683837Y330476D01*
Y330113D01*
Y333505D02*
X683655Y332961D01*
X683111Y332598D01*
X682204Y332416D01*
X681660D01*
X680753Y332598D01*
X680209Y332961D01*
X680027Y333505D01*
Y333868D01*
X680209Y334412D01*
X680753Y334775D01*
X681660Y334956D01*
X682204D01*
X683111Y334775D01*
X683655Y334412D01*
X683837Y333868D01*
Y333505D01*
Y335808D02*
X680027D01*
X683837D02*
Y337078D01*
X683655Y337622D01*
X683292Y337985D01*
X682930Y338167D01*
X682385Y338348D01*
X681478D01*
X680934Y338167D01*
X680571Y337985D01*
X680209Y337622D01*
X680027Y337078D01*
Y335808D01*
X681841Y339200D02*
Y340833D01*
X682023Y341377D01*
X682204Y341558D01*
X682567Y341740D01*
X683111D01*
X683474Y341558D01*
X683655Y341377D01*
X683837Y340833D01*
Y339200D01*
X680027D01*
X681660Y342592D02*
Y345857D01*
X683837Y348070D02*
X683655Y347526D01*
X683111Y347163D01*
X682204Y346982D01*
X681660D01*
X680753Y347163D01*
X680209Y347526D01*
X680027Y348070D01*
Y348433D01*
X680209Y348977D01*
X680753Y349340D01*
X681660Y349521D01*
X682204D01*
X683111Y349340D01*
X683655Y348977D01*
X683837Y348433D01*
Y348070D01*
X680390Y350555D02*
X680209Y350374D01*
X680027Y350555D01*
X680209Y350737D01*
X680390Y350555D01*
X683837Y353385D02*
X681297Y351571D01*
Y354292D01*
X683837Y353385D02*
X680027D01*
X683837Y354963D02*
X680027Y356414D01*
X683837Y357865D02*
X680027Y356414D01*
X684562Y359625D02*
X684199Y359262D01*
X683655Y358899D01*
X682930Y358537D01*
X682023Y358355D01*
X681297D01*
X680390Y358537D01*
X679665Y358899D01*
X679120Y359262D01*
X678757Y359625D01*
X684199Y359262D02*
X683474Y358899D01*
X682930Y358718D01*
X682023Y358537D01*
X681297D01*
X680390Y358718D01*
X679846Y358899D01*
X679120Y359262D01*
X683837Y362527D02*
Y360713D01*
X682204Y360532D01*
X682385Y360713D01*
X682567Y361257D01*
Y361802D01*
X682385Y362346D01*
X682023Y362709D01*
X681478Y362890D01*
X681116D01*
X680571Y362709D01*
X680209Y362346D01*
X680027Y361802D01*
Y361257D01*
X680209Y360713D01*
X680390Y360532D01*
X680753Y360350D01*
X683111Y363742D02*
X683292Y364105D01*
X683837Y364649D01*
X680027D01*
X684562Y366536D02*
X684199Y366899D01*
X683655Y367261D01*
X682930Y367624D01*
X682023Y367806D01*
X681297D01*
X680390Y367624D01*
X679665Y367261D01*
X679120Y366899D01*
X678757Y366536D01*
X684199Y366899D02*
X683474Y367261D01*
X682930Y367443D01*
X682023Y367624D01*
X681297D01*
X680390Y367443D01*
X679846Y367261D01*
X679120Y366899D01*
X571252Y95893D02*
X571071Y95530D01*
X570708Y95168D01*
X570345Y94986D01*
X569620D01*
X569257Y95168D01*
X568894Y95530D01*
X568713Y95893D01*
X568531Y96437D01*
Y97344D01*
X568713Y97888D01*
X568894Y98251D01*
X569257Y98614D01*
X569620Y98795D01*
X570345D01*
X570708Y98614D01*
X571071Y98251D01*
X571252Y97888D01*
X573411Y94986D02*
X573048Y95168D01*
X572685Y95530D01*
X572504Y95893D01*
X572322Y96437D01*
Y97344D01*
X572504Y97888D01*
X572685Y98251D01*
X573048Y98614D01*
X573411Y98795D01*
X574136D01*
X574499Y98614D01*
X574862Y98251D01*
X575043Y97888D01*
X575225Y97344D01*
Y96437D01*
X575043Y95893D01*
X574862Y95530D01*
X574499Y95168D01*
X574136Y94986D01*
X573411D01*
X576114D02*
Y98795D01*
Y94986D02*
X578653Y98795D01*
Y94986D02*
Y98795D01*
X582879Y95893D02*
Y95712D01*
X583061Y95349D01*
X583242Y95168D01*
X583605Y94986D01*
X584330D01*
X584693Y95168D01*
X584875Y95349D01*
X585056Y95712D01*
Y96075D01*
X584875Y96437D01*
X584512Y96981D01*
X582698Y98795D01*
X585237D01*
X586090Y94986D02*
X588629Y98795D01*
Y94986D02*
X586090Y98795D01*
X591296Y94986D02*
X589482Y97526D01*
X592203D01*
X591296Y94986D02*
Y98795D01*
X593962Y94986D02*
X593418Y95168D01*
X593055Y95712D01*
X592874Y96619D01*
Y97163D01*
X593055Y98070D01*
X593418Y98614D01*
X593962Y98795D01*
X594325D01*
X594869Y98614D01*
X595232Y98070D01*
X595413Y97163D01*
Y96619D01*
X595232Y95712D01*
X594869Y95168D01*
X594325Y94986D01*
X593962D01*
X329552Y545643D02*
X329915Y545461D01*
X330277Y545098D01*
X330459Y544736D01*
Y544010D01*
X330277Y543647D01*
X329915Y543284D01*
X329552Y543103D01*
X329007Y542922D01*
X328101D01*
X327556Y543103D01*
X327194Y543284D01*
X326831Y543647D01*
X326650Y544010D01*
Y544736D01*
X326831Y545098D01*
X327194Y545461D01*
X327556Y545643D01*
X330459Y547801D02*
X330277Y547438D01*
X329915Y547076D01*
X329552Y546894D01*
X329007Y546713D01*
X328101D01*
X327556Y546894D01*
X327194Y547076D01*
X326831Y547438D01*
X326650Y547801D01*
Y548527D01*
X326831Y548889D01*
X327194Y549252D01*
X327556Y549434D01*
X328101Y549615D01*
X329007D01*
X329552Y549434D01*
X329915Y549252D01*
X330277Y548889D01*
X330459Y548527D01*
Y547801D01*
Y550504D02*
X326650D01*
X330459D02*
X326650Y553043D01*
X330459D02*
X326650D01*
X329552Y557270D02*
X329733D01*
X330096Y557451D01*
X330277Y557632D01*
X330459Y557995D01*
Y558721D01*
X330277Y559084D01*
X330096Y559265D01*
X329733Y559446D01*
X329370D01*
X329007Y559265D01*
X328463Y558902D01*
X326650Y557088D01*
Y559628D01*
X330459Y560480D02*
X326650Y563020D01*
X330459D02*
X326650Y560480D01*
X329915Y566049D02*
X330277Y565868D01*
X330459Y565323D01*
Y564961D01*
X330277Y564416D01*
X329733Y564054D01*
X328826Y563872D01*
X327919D01*
X327194Y564054D01*
X326831Y564416D01*
X326650Y564961D01*
Y565142D01*
X326831Y565686D01*
X327194Y566049D01*
X327738Y566230D01*
X327919D01*
X328463Y566049D01*
X328826Y565686D01*
X329007Y565142D01*
Y564961D01*
X328826Y564416D01*
X328463Y564054D01*
X327919Y563872D01*
X276064Y114962D02*
X275883Y114600D01*
X275339Y114055D01*
X279148D01*
X275339Y111081D02*
X275520Y111625D01*
X276064Y111988D01*
X276971Y112169D01*
X277516D01*
X278423Y111988D01*
X278967Y111625D01*
X279148Y111081D01*
Y110718D01*
X278967Y110174D01*
X278423Y109811D01*
X277516Y109629D01*
X276971D01*
X276064Y109811D01*
X275520Y110174D01*
X275339Y110718D01*
Y111081D01*
Y108777D02*
X278060D01*
X278604Y108596D01*
X278967Y108233D01*
X279148Y107689D01*
Y107326D01*
X278967Y106782D01*
X278604Y106419D01*
X278060Y106237D01*
X275339D01*
Y105185D02*
X279148D01*
X275339D02*
Y102827D01*
X277153Y105185D02*
Y103734D01*
X250269Y95887D02*
X250451Y96250D01*
X250995Y96794D01*
X247186D01*
X250995Y98681D02*
X248274D01*
X247730Y98862D01*
X247367Y99225D01*
X247186Y99769D01*
Y100132D01*
X247367Y100676D01*
X247730Y101039D01*
X248274Y101220D01*
X250995D01*
Y102272D02*
X247186D01*
X250995D02*
Y104630D01*
X249181Y102272D02*
Y103723D01*
X250797Y140863D02*
X251160Y140681D01*
X251704Y140137D01*
Y143947D01*
X253590Y140137D02*
Y142858D01*
X253772Y143402D01*
X254135Y143765D01*
X254679Y143947D01*
X255042D01*
X255586Y143765D01*
X255948Y143402D01*
X256130Y142858D01*
Y140137D01*
X257182D02*
Y143947D01*
Y140137D02*
X259540D01*
X257182Y141951D02*
X258633D01*
X289280Y106739D02*
X289099Y106376D01*
X288554Y105832D01*
X292364D01*
X288554Y103945D02*
X291275D01*
X291820Y103764D01*
X292182Y103401D01*
X292364Y102857D01*
Y102494D01*
X292182Y101950D01*
X291820Y101587D01*
X291275Y101406D01*
X288554D01*
Y100354D02*
X292364D01*
X288554D02*
Y97996D01*
X290368Y100354D02*
Y98903D01*
X360189Y168471D02*
X359645Y168652D01*
X359282Y169196D01*
X359100Y170103D01*
Y170648D01*
X359282Y171555D01*
X359645Y172099D01*
X360189Y172280D01*
X360551D01*
X361096Y172099D01*
X361459Y171555D01*
X361640Y170648D01*
Y170103D01*
X361459Y169196D01*
X361096Y168652D01*
X360551Y168471D01*
X360189D01*
X371301Y202905D02*
X371845Y202724D01*
X372208Y202179D01*
X372389Y201272D01*
Y200728D01*
X372208Y199821D01*
X371845Y199277D01*
X371301Y199096D01*
X370938D01*
X370394Y199277D01*
X370031Y199821D01*
X369850Y200728D01*
Y201272D01*
X370031Y202179D01*
X370394Y202724D01*
X370938Y202905D01*
X371301D01*
X371303Y191833D02*
X371847Y191652D01*
X372210Y191108D01*
X372392Y190201D01*
Y189656D01*
X372210Y188750D01*
X371847Y188205D01*
X371303Y188024D01*
X370941D01*
X370396Y188205D01*
X370034Y188750D01*
X369852Y189656D01*
Y190201D01*
X370034Y191108D01*
X370396Y191652D01*
X370941Y191833D01*
X371303D01*
X522046Y397744D02*
X521683Y397925D01*
X521139Y398470D01*
Y394660D01*
X518164Y398470D02*
X518708Y398288D01*
X519071Y397744D01*
X519252Y396837D01*
Y396293D01*
X519071Y395386D01*
X518708Y394842D01*
X518164Y394660D01*
X517801D01*
X517257Y394842D01*
X516894Y395386D01*
X516713Y396293D01*
Y396837D01*
X516894Y397744D01*
X517257Y398288D01*
X517801Y398470D01*
X518164D01*
X515860D02*
Y395749D01*
X515679Y395205D01*
X515316Y394842D01*
X514772Y394660D01*
X514409D01*
X513865Y394842D01*
X513502Y395205D01*
X513321Y395749D01*
Y398470D01*
X512269D02*
Y394660D01*
Y398470D02*
X509911D01*
X512269Y396656D02*
X510818D01*
X504408Y378130D02*
X504045Y378312D01*
X503501Y378856D01*
Y375047D01*
X500526Y378856D02*
X501070Y378675D01*
X501433Y378130D01*
X501614Y377223D01*
Y376679D01*
X501433Y375772D01*
X501070Y375228D01*
X500526Y375047D01*
X500163D01*
X499619Y375228D01*
X499256Y375772D01*
X499075Y376679D01*
Y377223D01*
X499256Y378130D01*
X499619Y378675D01*
X500163Y378856D01*
X500526D01*
X498223D02*
Y376135D01*
X498041Y375591D01*
X497678Y375228D01*
X497134Y375047D01*
X496771D01*
X496227Y375228D01*
X495864Y375591D01*
X495683Y376135D01*
Y378856D01*
X494631D02*
Y375047D01*
Y378856D02*
X492273D01*
X494631Y377042D02*
X493180D01*
X310292Y429102D02*
X310655Y428921D01*
X311199Y428377D01*
Y432186D01*
X314174Y428377D02*
X313630Y428558D01*
X313267Y429102D01*
X313085Y430009D01*
Y430553D01*
X313267Y431460D01*
X313630Y432004D01*
X314174Y432186D01*
X314536D01*
X315081Y432004D01*
X315443Y431460D01*
X315625Y430553D01*
Y430009D01*
X315443Y429102D01*
X315081Y428558D01*
X314536Y428377D01*
X314174D01*
X316477D02*
Y431097D01*
X316659Y431642D01*
X317022Y432004D01*
X317566Y432186D01*
X317929D01*
X318473Y432004D01*
X318836Y431642D01*
X319017Y431097D01*
Y428377D01*
X320069D02*
Y432186D01*
Y428377D02*
X322427D01*
X320069Y430190D02*
X321520D01*
X386651Y322111D02*
X386288Y322292D01*
X385744Y322836D01*
Y319027D01*
X382769Y322836D02*
X383313Y322655D01*
X383676Y322111D01*
X383857Y321204D01*
Y320659D01*
X383676Y319753D01*
X383313Y319208D01*
X382769Y319027D01*
X382406D01*
X381862Y319208D01*
X381499Y319753D01*
X381318Y320659D01*
Y321204D01*
X381499Y322111D01*
X381862Y322655D01*
X382406Y322836D01*
X382769D01*
X380466D02*
Y320115D01*
X380284Y319571D01*
X379921Y319208D01*
X379377Y319027D01*
X379014D01*
X378470Y319208D01*
X378107Y319571D01*
X377926Y320115D01*
Y322836D01*
X376874D02*
Y319027D01*
Y322836D02*
X374516D01*
X376874Y321022D02*
X375423D01*
X355387Y319961D02*
X355750Y319779D01*
X356294Y319235D01*
Y323044D01*
X359269Y319235D02*
X358725Y319417D01*
X358362Y319961D01*
X358181Y320868D01*
Y321412D01*
X358362Y322319D01*
X358725Y322863D01*
X359269Y323044D01*
X359632D01*
X360176Y322863D01*
X360539Y322319D01*
X360720Y321412D01*
Y320868D01*
X360539Y319961D01*
X360176Y319417D01*
X359632Y319235D01*
X359269D01*
X361573D02*
Y321956D01*
X361754Y322500D01*
X362117Y322863D01*
X362661Y323044D01*
X363024D01*
X363568Y322863D01*
X363931Y322500D01*
X364112Y321956D01*
Y319235D01*
X365164D02*
Y323044D01*
Y319235D02*
X367522D01*
X365164Y321049D02*
X366615D01*
X301614Y430292D02*
X301252Y430473D01*
X300707Y431017D01*
Y427208D01*
X297733Y431017D02*
X298277Y430836D01*
X298640Y430292D01*
X298821Y429385D01*
Y428841D01*
X298640Y427934D01*
X298277Y427389D01*
X297733Y427208D01*
X297370D01*
X296826Y427389D01*
X296463Y427934D01*
X296281Y428841D01*
Y429385D01*
X296463Y430292D01*
X296826Y430836D01*
X297370Y431017D01*
X297733D01*
X295429D02*
Y428296D01*
X295247Y427752D01*
X294885Y427389D01*
X294340Y427208D01*
X293978D01*
X293434Y427389D01*
X293071Y427752D01*
X292889Y428296D01*
Y431017D01*
X291837D02*
Y427208D01*
Y431017D02*
X289479D01*
X291837Y429203D02*
X290386D01*
X599065Y198871D02*
X599427Y198690D01*
X599972Y198146D01*
Y201955D01*
X602946Y198146D02*
X602402Y198327D01*
X602039Y198871D01*
X601858Y199778D01*
Y200322D01*
X602039Y201229D01*
X602402Y201774D01*
X602946Y201955D01*
X603309D01*
X603853Y201774D01*
X604216Y201229D01*
X604398Y200322D01*
Y199778D01*
X604216Y198871D01*
X603853Y198327D01*
X603309Y198146D01*
X602946D01*
X605250D02*
Y200867D01*
X605431Y201411D01*
X605794Y201774D01*
X606338Y201955D01*
X606701D01*
X607245Y201774D01*
X607608Y201411D01*
X607789Y200867D01*
Y198146D01*
X608842D02*
Y201955D01*
Y198146D02*
X611200D01*
X608842Y199960D02*
X610293D01*
X356610Y395673D02*
X356972Y395492D01*
X357517Y394948D01*
Y398757D01*
X360491Y394948D02*
X359947Y395129D01*
X359584Y395673D01*
X359403Y396580D01*
Y397124D01*
X359584Y398031D01*
X359947Y398575D01*
X360491Y398757D01*
X360854D01*
X361398Y398575D01*
X361761Y398031D01*
X361942Y397124D01*
Y396580D01*
X361761Y395673D01*
X361398Y395129D01*
X360854Y394948D01*
X360491D01*
X362795D02*
Y398757D01*
X365335Y394948D02*
X362795Y397487D01*
X363702Y396580D02*
X365335Y398757D01*
X356595Y366079D02*
X356414Y365716D01*
X355870Y365172D01*
X359679D01*
X355870Y361109D02*
Y362923D01*
X357502Y363104D01*
X357321Y362923D01*
X357139Y362378D01*
Y361834D01*
X357321Y361290D01*
X357683Y360927D01*
X358228Y360746D01*
X358591D01*
X359135Y360927D01*
X359497Y361290D01*
X359679Y361834D01*
Y362378D01*
X359497Y362923D01*
X359316Y363104D01*
X358953Y363285D01*
X355870Y358805D02*
X356051Y359349D01*
X356595Y359712D01*
X357502Y359893D01*
X358046D01*
X358953Y359712D01*
X359497Y359349D01*
X359679Y358805D01*
Y358442D01*
X359497Y357898D01*
X358953Y357535D01*
X358046Y357354D01*
X357502D01*
X356595Y357535D01*
X356051Y357898D01*
X355870Y358442D01*
Y358805D01*
X356719Y376422D02*
X357082Y376241D01*
X357626Y375697D01*
Y379506D01*
X360601Y375697D02*
X360056Y375878D01*
X359694Y376422D01*
X359512Y377329D01*
Y377874D01*
X359694Y378781D01*
X360056Y379325D01*
X360601Y379506D01*
X360963D01*
X361507Y379325D01*
X361870Y378781D01*
X362052Y377874D01*
Y377329D01*
X361870Y376422D01*
X361507Y375878D01*
X360963Y375697D01*
X360601D01*
X362904D02*
Y379506D01*
X365444Y375697D02*
X362904Y378236D01*
X363811Y377329D02*
X365444Y379506D01*
X341221Y431300D02*
X340858Y431482D01*
X340313Y432026D01*
Y428217D01*
X337339Y432026D02*
X337883Y431844D01*
X338246Y431300D01*
X338427Y430393D01*
Y429849D01*
X338246Y428942D01*
X337883Y428398D01*
X337339Y428217D01*
X336976D01*
X336432Y428398D01*
X336069Y428942D01*
X335888Y429849D01*
Y430393D01*
X336069Y431300D01*
X336432Y431844D01*
X336976Y432026D01*
X337339D01*
X335035D02*
Y429305D01*
X334854Y428761D01*
X334491Y428398D01*
X333947Y428217D01*
X333584D01*
X333040Y428398D01*
X332677Y428761D01*
X332496Y429305D01*
Y432026D01*
X331444D02*
Y428217D01*
Y432026D02*
X329086D01*
X331444Y430212D02*
X329992D01*
X504377Y398120D02*
X504015Y398302D01*
X503470Y398846D01*
Y395036D01*
X500496Y398846D02*
X501040Y398664D01*
X501403Y398120D01*
X501584Y397213D01*
Y396669D01*
X501403Y395762D01*
X501040Y395218D01*
X500496Y395036D01*
X500133D01*
X499589Y395218D01*
X499226Y395762D01*
X499044Y396669D01*
Y397213D01*
X499226Y398120D01*
X499589Y398664D01*
X500133Y398846D01*
X500496D01*
X498192D02*
Y396125D01*
X498011Y395581D01*
X497648Y395218D01*
X497104Y395036D01*
X496741D01*
X496197Y395218D01*
X495834Y395581D01*
X495653Y396125D01*
Y398846D01*
X494600D02*
Y395036D01*
Y398846D02*
X492242D01*
X494600Y397032D02*
X493149D01*
X528660Y378438D02*
X528297Y378619D01*
X527753Y379163D01*
Y375354D01*
X524778Y379163D02*
X525322Y378982D01*
X525685Y378438D01*
X525866Y377531D01*
Y376987D01*
X525685Y376079D01*
X525322Y375535D01*
X524778Y375354D01*
X524415D01*
X523871Y375535D01*
X523508Y376079D01*
X523327Y376987D01*
Y377531D01*
X523508Y378438D01*
X523871Y378982D01*
X524415Y379163D01*
X524778D01*
X522474D02*
Y376442D01*
X522293Y375898D01*
X521930Y375535D01*
X521386Y375354D01*
X521023D01*
X520479Y375535D01*
X520116Y375898D01*
X519935Y376442D01*
Y379163D01*
X518883D02*
Y375354D01*
Y379163D02*
X516525D01*
X518883Y377349D02*
X517432D01*
X545559Y537697D02*
X545741Y538242D01*
X546285Y538605D01*
X547192Y538786D01*
X547736D01*
X548643Y538605D01*
X549187Y538242D01*
X549369Y537697D01*
Y537335D01*
X549187Y536791D01*
X548643Y536428D01*
X547736Y536246D01*
X547192D01*
X546285Y536428D01*
X545741Y536791D01*
X545559Y537335D01*
Y537697D01*
X549006Y535213D02*
X549187Y535394D01*
X549369Y535213D01*
X549187Y535031D01*
X549006Y535213D01*
X546285Y534197D02*
X546104Y533834D01*
X545559Y533290D01*
X549369D01*
X545559Y531403D02*
X548280D01*
X548824Y531222D01*
X549187Y530859D01*
X549369Y530315D01*
Y529952D01*
X549187Y529408D01*
X548824Y529045D01*
X548280Y528864D01*
X545559D01*
Y527812D02*
X549369D01*
X545559D02*
Y525454D01*
X547373Y527812D02*
Y526361D01*
X377263Y426710D02*
X376718Y426892D01*
X376356Y427436D01*
X376174Y428343D01*
Y428887D01*
X376356Y429794D01*
X376718Y430338D01*
X377263Y430519D01*
X377625D01*
X378170Y430338D01*
X378532Y429794D01*
X378714Y428887D01*
Y428343D01*
X378532Y427436D01*
X378170Y426892D01*
X377625Y426710D01*
X377263D01*
X488377Y435572D02*
X488014Y435754D01*
X487470Y436298D01*
Y432489D01*
X485402Y435391D02*
Y435572D01*
X485221Y435935D01*
X485040Y436117D01*
X484677Y436298D01*
X483951D01*
X483588Y436117D01*
X483407Y435935D01*
X483226Y435572D01*
Y435210D01*
X483407Y434847D01*
X483770Y434303D01*
X485584Y432489D01*
X483044D01*
X481104Y436298D02*
X481648Y436117D01*
X482010Y435572D01*
X482192Y434665D01*
Y434121D01*
X482010Y433214D01*
X481648Y432670D01*
X481104Y432489D01*
X480741D01*
X480196Y432670D01*
X479834Y433214D01*
X479652Y434121D01*
Y434665D01*
X479834Y435572D01*
X480196Y436117D01*
X480741Y436298D01*
X481104D01*
X559608Y526089D02*
X559790Y526452D01*
X560334Y526996D01*
X556525D01*
X560334Y529971D02*
X560152Y529427D01*
X559608Y529064D01*
X558701Y528883D01*
X558157D01*
X557250Y529064D01*
X556706Y529427D01*
X556525Y529971D01*
Y530334D01*
X556706Y530878D01*
X557250Y531241D01*
X558157Y531422D01*
X558701D01*
X559608Y531241D01*
X560152Y530878D01*
X560334Y530334D01*
Y529971D01*
Y533363D02*
X560152Y532819D01*
X559608Y532456D01*
X558701Y532275D01*
X558157D01*
X557250Y532456D01*
X556706Y532819D01*
X556525Y533363D01*
Y533726D01*
X556706Y534270D01*
X557250Y534633D01*
X558157Y534814D01*
X558701D01*
X559608Y534633D01*
X560152Y534270D01*
X560334Y533726D01*
Y533363D01*
Y535667D02*
X556525D01*
X560334Y538206D02*
X557794Y535667D01*
X558701Y536574D02*
X556525Y538206D01*
X330613Y335683D02*
X330975Y335502D01*
X331520Y334958D01*
Y338767D01*
X334495Y334958D02*
X333950Y335139D01*
X333587Y335683D01*
X333406Y336590D01*
Y337135D01*
X333587Y338041D01*
X333950Y338586D01*
X334495Y338767D01*
X334857D01*
X335401Y338586D01*
X335764Y338041D01*
X335946Y337135D01*
Y336590D01*
X335764Y335683D01*
X335401Y335139D01*
X334857Y334958D01*
X334495D01*
X336798D02*
Y338767D01*
X339338Y334958D02*
X336798Y337497D01*
X337705Y336590D02*
X339338Y338767D01*
X586326Y526011D02*
X586508Y526373D01*
X587052Y526918D01*
X583243D01*
X587052Y529892D02*
X586871Y529348D01*
X586326Y528985D01*
X585420Y528804D01*
X584875D01*
X583968Y528985D01*
X583424Y529348D01*
X583243Y529892D01*
Y530255D01*
X583424Y530799D01*
X583968Y531162D01*
X584875Y531343D01*
X585420D01*
X586326Y531162D01*
X586871Y530799D01*
X587052Y530255D01*
Y529892D01*
Y533284D02*
X586871Y532740D01*
X586326Y532377D01*
X585420Y532196D01*
X584875D01*
X583968Y532377D01*
X583424Y532740D01*
X583243Y533284D01*
Y533647D01*
X583424Y534191D01*
X583968Y534554D01*
X584875Y534735D01*
X585420D01*
X586326Y534554D01*
X586871Y534191D01*
X587052Y533647D01*
Y533284D01*
Y535588D02*
X583243D01*
X587052Y538128D02*
X584512Y535588D01*
X585420Y536495D02*
X583243Y538128D01*
X570459Y526171D02*
X570640Y526533D01*
X571185Y527078D01*
X567375D01*
X571185Y530052D02*
X571003Y529508D01*
X570459Y529145D01*
X569552Y528964D01*
X569008D01*
X568101Y529145D01*
X567557Y529508D01*
X567375Y530052D01*
Y530415D01*
X567557Y530959D01*
X568101Y531322D01*
X569008Y531503D01*
X569552D01*
X570459Y531322D01*
X571003Y530959D01*
X571185Y530415D01*
Y530052D01*
Y533444D02*
X571003Y532900D01*
X570459Y532537D01*
X569552Y532356D01*
X569008D01*
X568101Y532537D01*
X567557Y532900D01*
X567375Y533444D01*
Y533807D01*
X567557Y534351D01*
X568101Y534714D01*
X569008Y534896D01*
X569552D01*
X570459Y534714D01*
X571003Y534351D01*
X571185Y533807D01*
Y533444D01*
Y535748D02*
X567375D01*
X571185Y538288D02*
X568645Y535748D01*
X569552Y536655D02*
X567375Y538288D01*
X77114Y353481D02*
X76933Y352936D01*
X76389Y352574D01*
X75482Y352392D01*
X74937D01*
X74030Y352574D01*
X73486Y352936D01*
X73305Y353481D01*
Y353843D01*
X73486Y354388D01*
X74030Y354750D01*
X74937Y354932D01*
X75482D01*
X76389Y354750D01*
X76933Y354388D01*
X77114Y353843D01*
Y353481D01*
X66324Y353854D02*
X66143Y353310D01*
X65599Y352947D01*
X64692Y352766D01*
X64147D01*
X63240Y352947D01*
X62696Y353310D01*
X62515Y353854D01*
Y354217D01*
X62696Y354761D01*
X63240Y355124D01*
X64147Y355305D01*
X64692D01*
X65599Y355124D01*
X66143Y354761D01*
X66324Y354217D01*
Y353854D01*
X98933Y400062D02*
X98751Y399518D01*
X98207Y399155D01*
X97300Y398973D01*
X96756D01*
X95849Y399155D01*
X95305Y399518D01*
X95123Y400062D01*
Y400424D01*
X95305Y400969D01*
X95849Y401331D01*
X96756Y401513D01*
X97300D01*
X98207Y401331D01*
X98751Y400969D01*
X98933Y400424D01*
Y400062D01*
X86062Y400491D02*
X85881Y399947D01*
X85337Y399584D01*
X84430Y399403D01*
X83886D01*
X82979Y399584D01*
X82435Y399947D01*
X82253Y400491D01*
Y400854D01*
X82435Y401398D01*
X82979Y401761D01*
X83886Y401942D01*
X84430D01*
X85337Y401761D01*
X85881Y401398D01*
X86062Y400854D01*
Y400491D01*
X309637Y136354D02*
X310000Y136173D01*
X310544Y135629D01*
Y139438D01*
X313518Y135629D02*
X312974Y135810D01*
X312612Y136354D01*
X312430Y137261D01*
Y137806D01*
X312612Y138712D01*
X312974Y139257D01*
X313518Y139438D01*
X313881D01*
X314425Y139257D01*
X314788Y138712D01*
X314970Y137806D01*
Y137261D01*
X314788Y136354D01*
X314425Y135810D01*
X313881Y135629D01*
X313518D01*
X315822D02*
Y138350D01*
X316003Y138894D01*
X316366Y139257D01*
X316910Y139438D01*
X317273D01*
X317817Y139257D01*
X318180Y138894D01*
X318361Y138350D01*
Y135629D01*
X319414D02*
Y139438D01*
Y135629D02*
X321772D01*
X319414Y137443D02*
X320865D01*
X309840Y121206D02*
X310203Y121024D01*
X310747Y120480D01*
Y124289D01*
X313722Y120480D02*
X313178Y120662D01*
X312815Y121206D01*
X312633Y122113D01*
Y122657D01*
X312815Y123564D01*
X313178Y124108D01*
X313722Y124289D01*
X314084D01*
X314629Y124108D01*
X314991Y123564D01*
X315173Y122657D01*
Y122113D01*
X314991Y121206D01*
X314629Y120662D01*
X314084Y120480D01*
X313722D01*
X316025D02*
Y123201D01*
X316207Y123745D01*
X316569Y124108D01*
X317114Y124289D01*
X317476D01*
X318021Y124108D01*
X318383Y123745D01*
X318565Y123201D01*
Y120480D01*
X319617D02*
Y124289D01*
Y120480D02*
X321975D01*
X319617Y122294D02*
X321068D01*
X304806Y157453D02*
X304987Y157815D01*
X305531Y158360D01*
X301722D01*
X305531Y161334D02*
X305350Y160790D01*
X304806Y160427D01*
X303899Y160246D01*
X303354D01*
X302447Y160427D01*
X301903Y160790D01*
X301722Y161334D01*
Y161697D01*
X301903Y162241D01*
X302447Y162604D01*
X303354Y162785D01*
X303899D01*
X304806Y162604D01*
X305350Y162241D01*
X305531Y161697D01*
Y161334D01*
Y163638D02*
X302810D01*
X302266Y163819D01*
X301903Y164182D01*
X301722Y164726D01*
Y165089D01*
X301903Y165633D01*
X302266Y165996D01*
X302810Y166178D01*
X305531D01*
Y167229D02*
X301722D01*
X305531D02*
Y169588D01*
X303717Y167229D02*
Y168681D01*
X290107Y157384D02*
X290288Y157747D01*
X290832Y158291D01*
X287023D01*
X290832Y161266D02*
X290651Y160722D01*
X290107Y160359D01*
X289200Y160177D01*
X288655D01*
X287749Y160359D01*
X287204Y160722D01*
X287023Y161266D01*
Y161629D01*
X287204Y162173D01*
X287749Y162535D01*
X288655Y162717D01*
X289200D01*
X290107Y162535D01*
X290651Y162173D01*
X290832Y161629D01*
Y161266D01*
Y163569D02*
X288111D01*
X287567Y163751D01*
X287204Y164114D01*
X287023Y164658D01*
Y165021D01*
X287204Y165565D01*
X287567Y165928D01*
X288111Y166109D01*
X290832D01*
Y167161D02*
X287023D01*
X290832D02*
Y169519D01*
X289018Y167161D02*
Y168612D01*
X275268Y157336D02*
X275449Y157699D01*
X275993Y158243D01*
X272184D01*
X275993Y161217D02*
X275812Y160673D01*
X275268Y160311D01*
X274361Y160129D01*
X273817D01*
X272910Y160311D01*
X272366Y160673D01*
X272184Y161217D01*
Y161580D01*
X272366Y162125D01*
X272910Y162487D01*
X273817Y162669D01*
X274361D01*
X275268Y162487D01*
X275812Y162125D01*
X275993Y161580D01*
Y161217D01*
Y163521D02*
X273273D01*
X272728Y163703D01*
X272366Y164065D01*
X272184Y164610D01*
Y164972D01*
X272366Y165516D01*
X272728Y165879D01*
X273273Y166061D01*
X275993D01*
Y167113D02*
X272184D01*
X275993D02*
Y169471D01*
X274179Y167113D02*
Y168564D01*
X261152Y114965D02*
X260971Y114602D01*
X260427Y114058D01*
X264236D01*
X260427Y111083D02*
X260608Y111627D01*
X261152Y111990D01*
X262059Y112171D01*
X262603D01*
X263510Y111990D01*
X264054Y111627D01*
X264236Y111083D01*
Y110720D01*
X264054Y110176D01*
X263510Y109813D01*
X262603Y109632D01*
X262059D01*
X261152Y109813D01*
X260608Y110176D01*
X260427Y110720D01*
Y111083D01*
Y108779D02*
X263147D01*
X263692Y108598D01*
X264054Y108235D01*
X264236Y107691D01*
Y107328D01*
X264054Y106784D01*
X263692Y106421D01*
X263147Y106240D01*
X260427D01*
Y105188D02*
X264236D01*
X260427D02*
Y102830D01*
X262241Y105188D02*
Y103737D01*
X257843Y169100D02*
X257661Y168737D01*
X257117Y168193D01*
X260926D01*
X257117Y165218D02*
X257298Y165762D01*
X257843Y166125D01*
X258750Y166307D01*
X259294D01*
X260201Y166125D01*
X260745Y165762D01*
X260926Y165218D01*
Y164855D01*
X260745Y164311D01*
X260201Y163948D01*
X259294Y163767D01*
X258750D01*
X257843Y163948D01*
X257298Y164311D01*
X257117Y164855D01*
Y165218D01*
Y162915D02*
X259838D01*
X260382Y162733D01*
X260745Y162370D01*
X260926Y161826D01*
Y161463D01*
X260745Y160919D01*
X260382Y160557D01*
X259838Y160375D01*
X257117D01*
Y159323D02*
X260926D01*
X257117D02*
Y156965D01*
X258931Y159323D02*
Y157872D01*
X555878Y212809D02*
X555334Y212991D01*
X554971Y213535D01*
X554789Y214442D01*
Y214986D01*
X554971Y215893D01*
X555334Y216437D01*
X555878Y216618D01*
X556241D01*
X556785Y216437D01*
X557147Y215893D01*
X557329Y214986D01*
Y214442D01*
X557147Y213535D01*
X556785Y212991D01*
X556241Y212809D01*
X555878D01*
X558363Y216256D02*
X558181Y216437D01*
X558363Y216618D01*
X558544Y216437D01*
X558363Y216256D01*
X559560Y213716D02*
Y213535D01*
X559741Y213172D01*
X559923Y212991D01*
X560285Y212809D01*
X561011D01*
X561374Y212991D01*
X561555Y213172D01*
X561737Y213535D01*
Y213898D01*
X561555Y214260D01*
X561193Y214804D01*
X559379Y216618D01*
X561918D01*
X562952Y213716D02*
Y213535D01*
X563133Y213172D01*
X563315Y212991D01*
X563677Y212809D01*
X564403D01*
X564766Y212991D01*
X564947Y213172D01*
X565129Y213535D01*
Y213898D01*
X564947Y214260D01*
X564584Y214804D01*
X562771Y216618D01*
X565310D01*
X566162Y212809D02*
Y215530D01*
X566344Y216074D01*
X566707Y216437D01*
X567251Y216618D01*
X567614D01*
X568158Y216437D01*
X568521Y216074D01*
X568702Y215530D01*
Y212809D01*
X569754D02*
Y216618D01*
Y212809D02*
X572112D01*
X569754Y214623D02*
X571205D01*
X543969Y209384D02*
X544151Y209928D01*
X544695Y210291D01*
X545602Y210472D01*
X546146D01*
X547053Y210291D01*
X547597Y209928D01*
X547779Y209384D01*
Y209021D01*
X547597Y208477D01*
X547053Y208114D01*
X546146Y207932D01*
X545602D01*
X544695Y208114D01*
X544151Y208477D01*
X543969Y209021D01*
Y209384D01*
X547416Y206899D02*
X547597Y207080D01*
X547779Y206899D01*
X547597Y206717D01*
X547416Y206899D01*
X544876Y205701D02*
X544695D01*
X544332Y205520D01*
X544151Y205339D01*
X543969Y204976D01*
Y204250D01*
X544151Y203888D01*
X544332Y203706D01*
X544695Y203525D01*
X545058D01*
X545420Y203706D01*
X545965Y204069D01*
X547779Y205883D01*
Y203343D01*
X544876Y202309D02*
X544695D01*
X544332Y202128D01*
X544151Y201947D01*
X543969Y201584D01*
Y200858D01*
X544151Y200495D01*
X544332Y200314D01*
X544695Y200133D01*
X545058D01*
X545420Y200314D01*
X545965Y200677D01*
X547779Y202491D01*
Y199951D01*
X543969Y199099D02*
X546690D01*
X547234Y198917D01*
X547597Y198555D01*
X547779Y198011D01*
Y197648D01*
X547597Y197104D01*
X547234Y196741D01*
X546690Y196559D01*
X543969D01*
Y195507D02*
X547779D01*
X543969D02*
Y193149D01*
X545783Y195507D02*
Y194056D01*
X544048Y219958D02*
X544230Y220502D01*
X544774Y220865D01*
X545681Y221046D01*
X546225D01*
X547132Y220865D01*
X547676Y220502D01*
X547857Y219958D01*
Y219595D01*
X547676Y219051D01*
X547132Y218688D01*
X546225Y218507D01*
X545681D01*
X544774Y218688D01*
X544230Y219051D01*
X544048Y219595D01*
Y219958D01*
X547495Y217473D02*
X547676Y217654D01*
X547857Y217473D01*
X547676Y217291D01*
X547495Y217473D01*
X544955Y216275D02*
X544774D01*
X544411Y216094D01*
X544230Y215913D01*
X544048Y215550D01*
Y214824D01*
X544230Y214461D01*
X544411Y214280D01*
X544774Y214099D01*
X545136D01*
X545499Y214280D01*
X546043Y214643D01*
X547857Y216457D01*
Y213917D01*
X544955Y212883D02*
X544774D01*
X544411Y212702D01*
X544230Y212521D01*
X544048Y212158D01*
Y211432D01*
X544230Y211070D01*
X544411Y210888D01*
X544774Y210707D01*
X545136D01*
X545499Y210888D01*
X546043Y211251D01*
X547857Y213065D01*
Y210525D01*
X544048Y209673D02*
X546769D01*
X547313Y209492D01*
X547676Y209129D01*
X547857Y208584D01*
Y208222D01*
X547676Y207677D01*
X547313Y207315D01*
X546769Y207133D01*
X544048D01*
Y206081D02*
X547857D01*
X544048D02*
Y203723D01*
X545862Y206081D02*
Y204630D01*
X557149Y180077D02*
X556967Y179533D01*
X556423Y179170D01*
X555516Y178989D01*
X554972D01*
X554065Y179170D01*
X553521Y179533D01*
X553339Y180077D01*
Y180440D01*
X553521Y180984D01*
X554065Y181347D01*
X554972Y181528D01*
X555516D01*
X556423Y181347D01*
X556967Y180984D01*
X557149Y180440D01*
Y180077D01*
X553702Y182562D02*
X553521Y182381D01*
X553339Y182562D01*
X553521Y182744D01*
X553702Y182562D01*
X556242Y183759D02*
X556423D01*
X556786Y183941D01*
X556967Y184122D01*
X557149Y184485D01*
Y185210D01*
X556967Y185573D01*
X556786Y185755D01*
X556423Y185936D01*
X556060D01*
X555698Y185755D01*
X555153Y185392D01*
X553339Y183578D01*
Y186117D01*
X556242Y187151D02*
X556423D01*
X556786Y187333D01*
X556967Y187514D01*
X557149Y187877D01*
Y188602D01*
X556967Y188965D01*
X556786Y189147D01*
X556423Y189328D01*
X556060D01*
X555698Y189147D01*
X555153Y188784D01*
X553339Y186970D01*
Y189509D01*
X557149Y190362D02*
X554428D01*
X553884Y190543D01*
X553521Y190906D01*
X553339Y191450D01*
Y191813D01*
X553521Y192357D01*
X553884Y192720D01*
X554428Y192901D01*
X557149D01*
Y193953D02*
X553339D01*
X557149D02*
Y196311D01*
X555335Y193953D02*
Y195405D01*
X590186Y206712D02*
X590730Y206531D01*
X591092Y205987D01*
X591274Y205080D01*
Y204536D01*
X591092Y203629D01*
X590730Y203085D01*
X590186Y202903D01*
X589823D01*
X589279Y203085D01*
X588916Y203629D01*
X588734Y204536D01*
Y205080D01*
X588916Y205987D01*
X589279Y206531D01*
X589823Y206712D01*
X590186D01*
X587701Y203266D02*
X587882Y203085D01*
X587701Y202903D01*
X587519Y203085D01*
X587701Y203266D01*
X586503Y205805D02*
Y205987D01*
X586322Y206350D01*
X586141Y206531D01*
X585778Y206712D01*
X585052D01*
X584689Y206531D01*
X584508Y206350D01*
X584327Y205987D01*
Y205624D01*
X584508Y205261D01*
X584871Y204717D01*
X586685Y202903D01*
X584145D01*
X583111Y205805D02*
Y205987D01*
X582930Y206350D01*
X582748Y206531D01*
X582386Y206712D01*
X581660D01*
X581297Y206531D01*
X581116Y206350D01*
X580935Y205987D01*
Y205624D01*
X581116Y205261D01*
X581479Y204717D01*
X583293Y202903D01*
X580753D01*
X579901Y206712D02*
Y203992D01*
X579719Y203447D01*
X579356Y203085D01*
X578812Y202903D01*
X578450D01*
X577905Y203085D01*
X577543Y203447D01*
X577361Y203992D01*
Y206712D01*
X576309D02*
Y202903D01*
Y206712D02*
X573951D01*
X576309Y204898D02*
X574858D01*
X528556Y434838D02*
X528194Y435020D01*
X527649Y435564D01*
Y431755D01*
X525763Y435564D02*
Y432843D01*
X525582Y432299D01*
X525219Y431936D01*
X524675Y431755D01*
X524312D01*
X523768Y431936D01*
X523405Y432299D01*
X523223Y432843D01*
Y435564D01*
X522171D02*
Y431755D01*
Y435564D02*
X519813D01*
X522171Y433750D02*
X520720D01*
X563240Y414645D02*
X563422Y415008D01*
X563966Y415552D01*
X560157D01*
X563966Y417438D02*
X561245D01*
X560701Y417620D01*
X560338Y417982D01*
X560157Y418526D01*
Y418889D01*
X560338Y419433D01*
X560701Y419796D01*
X561245Y419977D01*
X563966D01*
Y421030D02*
X560157D01*
X563966D02*
Y423388D01*
X562152Y421030D02*
Y422481D01*
X553143Y405401D02*
X553506Y405220D01*
X554050Y404676D01*
Y408485D01*
X555937Y404676D02*
Y407397D01*
X556118Y407941D01*
X556481Y408304D01*
X557025Y408485D01*
X557388D01*
X557932Y408304D01*
X558295Y407941D01*
X558476Y407397D01*
Y404676D01*
X559528D02*
Y408485D01*
Y404676D02*
X561886D01*
X559528Y406490D02*
X560979D01*
X543514Y421158D02*
X543695D01*
X544058Y421339D01*
X544239Y421520D01*
X544421Y421883D01*
Y422609D01*
X544239Y422971D01*
X544058Y423153D01*
X543695Y423334D01*
X543332D01*
X542970Y423153D01*
X542425Y422790D01*
X540611Y420976D01*
Y423516D01*
X544421Y425457D02*
X544239Y424912D01*
X543695Y424550D01*
X542788Y424368D01*
X542244D01*
X541337Y424550D01*
X540793Y424912D01*
X540611Y425457D01*
Y425819D01*
X540793Y426363D01*
X541337Y426726D01*
X542244Y426908D01*
X542788D01*
X543695Y426726D01*
X544239Y426363D01*
X544421Y425819D01*
Y425457D01*
Y428849D02*
X544239Y428304D01*
X543695Y427942D01*
X542788Y427760D01*
X542244D01*
X541337Y427942D01*
X540793Y428304D01*
X540611Y428849D01*
Y429211D01*
X540793Y429756D01*
X541337Y430118D01*
X542244Y430300D01*
X542788D01*
X543695Y430118D01*
X544239Y429756D01*
X544421Y429211D01*
Y428849D01*
X553503Y418882D02*
X553685D01*
X554048Y419063D01*
X554229Y419245D01*
X554411Y419607D01*
Y420333D01*
X554229Y420696D01*
X554048Y420877D01*
X553685Y421059D01*
X553322D01*
X552959Y420877D01*
X552415Y420514D01*
X550601Y418700D01*
Y421240D01*
X554411Y423181D02*
X554229Y422637D01*
X553685Y422274D01*
X552778Y422092D01*
X552234D01*
X551327Y422274D01*
X550783Y422637D01*
X550601Y423181D01*
Y423544D01*
X550783Y424088D01*
X551327Y424450D01*
X552234Y424632D01*
X552778D01*
X553685Y424450D01*
X554229Y424088D01*
X554411Y423544D01*
Y423181D01*
Y426573D02*
X554229Y426029D01*
X553685Y425666D01*
X552778Y425484D01*
X552234D01*
X551327Y425666D01*
X550783Y426029D01*
X550601Y426573D01*
Y426936D01*
X550783Y427480D01*
X551327Y427842D01*
X552234Y428024D01*
X552778D01*
X553685Y427842D01*
X554229Y427480D01*
X554411Y426936D01*
Y426573D01*
X545323Y544780D02*
X545504Y545324D01*
X546049Y545687D01*
X546956Y545869D01*
X547500D01*
X548407Y545687D01*
X548951Y545324D01*
X549132Y544780D01*
Y544417D01*
X548951Y543873D01*
X548407Y543511D01*
X547500Y543329D01*
X546956D01*
X546049Y543511D01*
X545504Y543873D01*
X545323Y544417D01*
Y544780D01*
X512857Y413989D02*
X513038Y414352D01*
X513582Y414896D01*
X509773D01*
X513582Y416783D02*
X510862D01*
X510317Y416964D01*
X509955Y417327D01*
X509773Y417871D01*
Y418234D01*
X509955Y418778D01*
X510317Y419141D01*
X510862Y419322D01*
X513582D01*
Y420374D02*
X509773D01*
X513582D02*
Y422732D01*
X511769Y420374D02*
Y421825D01*
X523279Y362064D02*
X523460Y362427D01*
X524004Y362971D01*
X520195D01*
X524004Y364857D02*
X521283D01*
X520739Y365039D01*
X520376Y365402D01*
X520195Y365946D01*
Y366309D01*
X520376Y366853D01*
X520739Y367216D01*
X521283Y367397D01*
X524004D01*
Y368449D02*
X520195D01*
X524004D02*
Y370807D01*
X522190Y368449D02*
Y369900D01*
X549610Y378598D02*
X549248Y378779D01*
X548703Y379323D01*
Y375514D01*
X546817Y379323D02*
Y376602D01*
X546636Y376058D01*
X546273Y375695D01*
X545729Y375514D01*
X545366D01*
X544822Y375695D01*
X544459Y376058D01*
X544277Y376602D01*
Y379323D01*
X543226D02*
Y375514D01*
Y379323D02*
X540867D01*
X543226Y377509D02*
X541774D01*
X502428Y413865D02*
X502609Y414228D01*
X503153Y414772D01*
X499344D01*
X503153Y416658D02*
X500433D01*
X499888Y416840D01*
X499525Y417202D01*
X499344Y417747D01*
Y418109D01*
X499525Y418654D01*
X499888Y419016D01*
X500433Y419198D01*
X503153D01*
Y420250D02*
X499344D01*
X503153D02*
Y422608D01*
X501339Y420250D02*
Y421701D01*
X500842Y363225D02*
X500660Y362862D01*
X500116Y362318D01*
X503925D01*
X500116Y360432D02*
X502837D01*
X503381Y360250D01*
X503744Y359888D01*
X503925Y359343D01*
Y358981D01*
X503744Y358437D01*
X503381Y358074D01*
X502837Y357892D01*
X500116D01*
Y356840D02*
X503925D01*
X500116D02*
Y354482D01*
X501930Y356840D02*
Y355389D01*
X546641Y386186D02*
X547004Y386005D01*
X547548Y385461D01*
Y389270D01*
X549434Y385461D02*
Y388181D01*
X549616Y388726D01*
X549978Y389089D01*
X550523Y389270D01*
X550885D01*
X551430Y389089D01*
X551792Y388726D01*
X551974Y388181D01*
Y385461D01*
X553026D02*
Y389270D01*
Y385461D02*
X555384D01*
X553026Y387275D02*
X554477D01*
X521147Y411645D02*
X520965Y411282D01*
X520421Y410738D01*
X524230D01*
X520421Y408852D02*
X523142D01*
X523686Y408670D01*
X524049Y408308D01*
X524230Y407763D01*
Y407401D01*
X524049Y406856D01*
X523686Y406494D01*
X523142Y406312D01*
X520421D01*
Y405260D02*
X524230D01*
X520421D02*
Y402902D01*
X522235Y405260D02*
Y403809D01*
X510499Y411572D02*
X510317Y411209D01*
X509773Y410665D01*
X513582D01*
X509773Y408778D02*
X512494D01*
X513038Y408597D01*
X513401Y408234D01*
X513582Y407690D01*
Y407327D01*
X513401Y406783D01*
X513038Y406420D01*
X512494Y406239D01*
X509773D01*
Y405187D02*
X513582D01*
X509773D02*
Y402829D01*
X511587Y405187D02*
Y403736D01*
X543030Y364302D02*
X543211Y364665D01*
X543755Y365209D01*
X539946D01*
X543755Y367095D02*
X541034D01*
X540490Y367277D01*
X540127Y367639D01*
X539946Y368184D01*
Y368546D01*
X540127Y369091D01*
X540490Y369453D01*
X541034Y369635D01*
X543755D01*
Y370687D02*
X539946D01*
X543755D02*
Y373045D01*
X541941Y370687D02*
Y372138D01*
X599269Y228708D02*
X599088Y228164D01*
X598544Y227801D01*
X597637Y227620D01*
X597093D01*
X596186Y227801D01*
X595642Y228164D01*
X595460Y228708D01*
Y229071D01*
X595642Y229615D01*
X596186Y229978D01*
X597093Y230159D01*
X597637D01*
X598544Y229978D01*
X599088Y229615D01*
X599269Y229071D01*
Y228708D01*
X595823Y231193D02*
X595642Y231012D01*
X595460Y231193D01*
X595642Y231374D01*
X595823Y231193D01*
X598363Y232390D02*
X598544D01*
X598907Y232572D01*
X599088Y232753D01*
X599269Y233116D01*
Y233841D01*
X599088Y234204D01*
X598907Y234386D01*
X598544Y234567D01*
X598181D01*
X597818Y234386D01*
X597274Y234023D01*
X595460Y232209D01*
Y234748D01*
X598363Y235782D02*
X598544D01*
X598907Y235964D01*
X599088Y236145D01*
X599269Y236508D01*
Y237233D01*
X599088Y237596D01*
X598907Y237778D01*
X598544Y237959D01*
X598181D01*
X597818Y237778D01*
X597274Y237415D01*
X595460Y235601D01*
Y238140D01*
X599269Y238993D02*
X596549D01*
X596004Y239174D01*
X595642Y239537D01*
X595460Y240081D01*
Y240444D01*
X595642Y240988D01*
X596004Y241351D01*
X596549Y241532D01*
X599269D01*
Y242584D02*
X595460D01*
X599269D02*
Y244942D01*
X597455Y242584D02*
Y244035D01*
X549933Y395696D02*
X550295Y395515D01*
X550840Y394970D01*
Y398780D01*
X552726Y394970D02*
Y397691D01*
X552907Y398235D01*
X553270Y398598D01*
X553815Y398780D01*
X554177D01*
X554721Y398598D01*
X555084Y398235D01*
X555266Y397691D01*
Y394970D01*
X556318D02*
Y398780D01*
Y394970D02*
X558676D01*
X556318Y396784D02*
X557769D01*
X531469Y408651D02*
X531288Y408288D01*
X530743Y407744D01*
X534553D01*
X530743Y405857D02*
X533464D01*
X534009Y405676D01*
X534371Y405313D01*
X534553Y404769D01*
Y404406D01*
X534371Y403862D01*
X534009Y403499D01*
X533464Y403318D01*
X530743D01*
Y402266D02*
X534553D01*
X530743D02*
Y399908D01*
X532557Y402266D02*
Y400815D01*
X540591Y412406D02*
X540773Y412950D01*
X541317Y413313D01*
X542224Y413494D01*
X542768D01*
X543675Y413313D01*
X544219Y412950D01*
X544400Y412406D01*
Y412043D01*
X544219Y411499D01*
X543675Y411136D01*
X542768Y410955D01*
X542224D01*
X541317Y411136D01*
X540773Y411499D01*
X540591Y412043D01*
Y412406D01*
X544038Y409921D02*
X544219Y410102D01*
X544400Y409921D01*
X544219Y409739D01*
X544038Y409921D01*
X541498Y408724D02*
X541317D01*
X540954Y408542D01*
X540773Y408361D01*
X540591Y407998D01*
Y407272D01*
X540773Y406910D01*
X540954Y406728D01*
X541317Y406547D01*
X541679D01*
X542042Y406728D01*
X542586Y407091D01*
X544400Y408905D01*
Y406366D01*
X541498Y405332D02*
X541317D01*
X540954Y405150D01*
X540773Y404969D01*
X540591Y404606D01*
Y403881D01*
X540773Y403518D01*
X540954Y403336D01*
X541317Y403155D01*
X541679D01*
X542042Y403336D01*
X542586Y403699D01*
X544400Y405513D01*
Y402974D01*
X540591Y402121D02*
X543312D01*
X543856Y401940D01*
X544219Y401577D01*
X544400Y401033D01*
Y400670D01*
X544219Y400126D01*
X543856Y399763D01*
X543312Y399581D01*
X540591D01*
Y398530D02*
X544400D01*
X540591D02*
Y396171D01*
X542405Y398530D02*
Y397078D01*
X537169Y392359D02*
X536807Y392541D01*
X536263Y393085D01*
Y389276D01*
X534376Y393085D02*
Y390364D01*
X534195Y389820D01*
X533832Y389457D01*
X533288Y389276D01*
X532925D01*
X532381Y389457D01*
X532018Y389820D01*
X531837Y390364D01*
Y393085D01*
X530785D02*
Y389276D01*
Y393085D02*
X528427D01*
X530785Y391271D02*
X529333D01*
X535853Y383903D02*
X535672Y383540D01*
X535128Y382996D01*
X538937D01*
X535128Y381110D02*
X537848D01*
X538393Y380928D01*
X538755Y380566D01*
X538937Y380022D01*
Y379659D01*
X538755Y379115D01*
X538393Y378752D01*
X537848Y378571D01*
X535128D01*
Y377518D02*
X538937D01*
X535128D02*
Y375160D01*
X536941Y377518D02*
Y376067D01*
X535302Y395607D02*
X535665Y395426D01*
X536209Y394882D01*
Y398691D01*
X538096Y394882D02*
Y397602D01*
X538277Y398147D01*
X538640Y398509D01*
X539184Y398691D01*
X539547D01*
X540091Y398509D01*
X540454Y398147D01*
X540635Y397602D01*
Y394882D01*
X541687D02*
Y398691D01*
Y394882D02*
X544045D01*
X541687Y396695D02*
X543138D01*
X524456Y395345D02*
X524819Y395164D01*
X525364Y394620D01*
Y398429D01*
X527250Y394620D02*
Y397341D01*
X527431Y397885D01*
X527794Y398248D01*
X528338Y398429D01*
X528701D01*
X529245Y398248D01*
X529608Y397885D01*
X529789Y397341D01*
Y394620D01*
X530841D02*
Y398429D01*
Y394620D02*
X533200D01*
X530841Y396434D02*
X532293D01*
X530915Y383929D02*
X530734Y383566D01*
X530190Y383022D01*
X533999D01*
X530190Y381135D02*
X532911D01*
X533455Y380954D01*
X533818Y380591D01*
X533999Y380047D01*
Y379684D01*
X533818Y379140D01*
X533455Y378777D01*
X532911Y378596D01*
X530190D01*
Y377544D02*
X533999D01*
X530190D02*
Y375186D01*
X532004Y377544D02*
Y376093D01*
X505831Y340083D02*
X506194Y339901D01*
X506738Y339357D01*
Y343166D01*
X508624Y339357D02*
Y342078D01*
X508806Y342622D01*
X509168Y342985D01*
X509712Y343166D01*
X510075D01*
X510619Y342985D01*
X510982Y342622D01*
X511164Y342078D01*
Y339357D01*
X512216D02*
Y343166D01*
Y339357D02*
X514574D01*
X512216Y341171D02*
X513667D01*
X533787Y364624D02*
X533968Y364987D01*
X534512Y365531D01*
X530703D01*
X534512Y367418D02*
X531791D01*
X531247Y367599D01*
X530884Y367962D01*
X530703Y368506D01*
Y368869D01*
X530884Y369413D01*
X531247Y369776D01*
X531791Y369957D01*
X534512D01*
Y371009D02*
X530703D01*
X534512D02*
Y373367D01*
X532698Y371009D02*
Y372461D01*
X573726Y377037D02*
X573907Y377400D01*
X574451Y377944D01*
X570642D01*
X574451Y379831D02*
X571730D01*
X571186Y380012D01*
X570823Y380375D01*
X570642Y380919D01*
Y381282D01*
X570823Y381826D01*
X571186Y382189D01*
X571730Y382370D01*
X574451D01*
Y383422D02*
X570642D01*
X574451D02*
Y385780D01*
X572637Y383422D02*
Y384874D01*
X551462Y340908D02*
X551825Y340727D01*
X552369Y340183D01*
Y343992D01*
X554255Y340183D02*
Y342904D01*
X554437Y343448D01*
X554799Y343810D01*
X555344Y343992D01*
X555706D01*
X556250Y343810D01*
X556613Y343448D01*
X556795Y342904D01*
Y340183D01*
X557847D02*
Y343992D01*
Y340183D02*
X560205D01*
X557847Y341996D02*
X559298D01*
X513555Y365196D02*
X513737Y365559D01*
X514281Y366103D01*
X510472D01*
X514281Y367989D02*
X511560D01*
X511016Y368171D01*
X510653Y368534D01*
X510472Y369078D01*
Y369440D01*
X510653Y369985D01*
X511016Y370347D01*
X511560Y370529D01*
X514281D01*
Y371581D02*
X510472D01*
X514281D02*
Y373939D01*
X512467Y371581D02*
Y373032D01*
X503459Y368285D02*
X503096Y368467D01*
X502552Y369011D01*
Y365202D01*
X500665Y369011D02*
Y366290D01*
X500484Y365746D01*
X500121Y365383D01*
X499577Y365202D01*
X499214D01*
X498670Y365383D01*
X498307Y365746D01*
X498126Y366290D01*
Y369011D01*
X497074D02*
Y365202D01*
Y369011D02*
X494716D01*
X497074Y367197D02*
X495623D01*
X505269Y385551D02*
X505632Y385370D01*
X506176Y384826D01*
Y388635D01*
X508063Y384826D02*
Y387547D01*
X508244Y388091D01*
X508607Y388453D01*
X509151Y388635D01*
X509514D01*
X510058Y388453D01*
X510421Y388091D01*
X510602Y387547D01*
Y384826D01*
X511654D02*
Y388635D01*
Y384826D02*
X514012D01*
X511654Y386640D02*
X513105D01*
X503682Y408107D02*
X503319Y408289D01*
X502775Y408833D01*
Y405024D01*
X500889Y408833D02*
Y406112D01*
X500707Y405568D01*
X500345Y405205D01*
X499800Y405024D01*
X499438D01*
X498893Y405205D01*
X498531Y405568D01*
X498349Y406112D01*
Y408833D01*
X497297D02*
Y405024D01*
Y408833D02*
X494939D01*
X497297Y407019D02*
X495846D01*
X503088Y388544D02*
X502725Y388726D01*
X502181Y389270D01*
Y385461D01*
X500294Y389270D02*
Y386549D01*
X500113Y386005D01*
X499750Y385642D01*
X499206Y385461D01*
X498843D01*
X498299Y385642D01*
X497936Y386005D01*
X497755Y386549D01*
Y389270D01*
X496703D02*
Y385461D01*
Y389270D02*
X494345D01*
X496703Y387456D02*
X495252D01*
X375656Y354894D02*
X375293Y355076D01*
X374749Y355620D01*
Y351811D01*
X372863Y355620D02*
Y352899D01*
X372681Y352355D01*
X372318Y351992D01*
X371774Y351811D01*
X371411D01*
X370867Y351992D01*
X370504Y352355D01*
X370323Y352899D01*
Y355620D01*
X369271D02*
Y351811D01*
Y355620D02*
X366913D01*
X369271Y353806D02*
X367820D01*
X388005Y418076D02*
X388368Y417895D01*
X388912Y417350D01*
Y421160D01*
X390799Y417350D02*
Y420071D01*
X390980Y420615D01*
X391343Y420978D01*
X391887Y421160D01*
X392250D01*
X392794Y420978D01*
X393157Y420615D01*
X393338Y420071D01*
Y417350D01*
X394390D02*
Y421160D01*
Y417350D02*
X396748D01*
X394390Y419164D02*
X395841D01*
X384739Y387124D02*
X384921Y387487D01*
X385465Y388031D01*
X381656D01*
X385465Y389917D02*
X382744D01*
X382200Y390099D01*
X381837Y390461D01*
X381656Y391006D01*
Y391368D01*
X381837Y391912D01*
X382200Y392275D01*
X382744Y392457D01*
X385465D01*
Y393509D02*
X381656D01*
X385465D02*
Y395867D01*
X383651Y393509D02*
Y394960D01*
X388010Y363350D02*
X387648Y363531D01*
X387104Y364076D01*
Y360266D01*
X385217Y364076D02*
Y361355D01*
X385036Y360811D01*
X384673Y360448D01*
X384129Y360266D01*
X383766D01*
X383222Y360448D01*
X382859Y360811D01*
X382678Y361355D01*
Y364076D01*
X381626D02*
Y360266D01*
Y364076D02*
X379268D01*
X381626Y362262D02*
X380174D01*
X327145Y386482D02*
X326782Y386663D01*
X326237Y387207D01*
Y383398D01*
X324351Y387207D02*
Y384487D01*
X324170Y383942D01*
X323807Y383579D01*
X323263Y383398D01*
X322900D01*
X322356Y383579D01*
X321993Y383942D01*
X321812Y384487D01*
Y387207D01*
X320760D02*
Y383398D01*
Y387207D02*
X318402D01*
X320760Y385393D02*
X319308D01*
X365092Y419077D02*
X364910Y418714D01*
X364366Y418170D01*
X368175D01*
X364366Y416284D02*
X367087D01*
X367631Y416102D01*
X367994Y415740D01*
X368175Y415196D01*
Y414833D01*
X367994Y414289D01*
X367631Y413926D01*
X367087Y413744D01*
X364366D01*
Y412692D02*
X368175D01*
X364366D02*
Y410334D01*
X366180Y412692D02*
Y411241D01*
X340098Y323058D02*
X339736Y323239D01*
X339192Y323784D01*
Y319974D01*
X337305Y323784D02*
Y321063D01*
X337124Y320518D01*
X336761Y320156D01*
X336217Y319974D01*
X335854D01*
X335310Y320156D01*
X334947Y320518D01*
X334766Y321063D01*
Y323784D01*
X333714D02*
Y319974D01*
Y323784D02*
X331356D01*
X333714Y321970D02*
X332262D01*
X326921Y364338D02*
X326558Y364520D01*
X326014Y365064D01*
Y361254D01*
X324128Y365064D02*
Y362343D01*
X323946Y361799D01*
X323583Y361436D01*
X323039Y361254D01*
X322677D01*
X322132Y361436D01*
X321769Y361799D01*
X321588Y362343D01*
Y365064D01*
X320536D02*
Y361254D01*
Y365064D02*
X318178D01*
X320536Y363250D02*
X319085D01*
X386520Y378354D02*
X386157Y378535D01*
X385613Y379079D01*
Y375270D01*
X383726Y379079D02*
Y376358D01*
X383545Y375814D01*
X383182Y375452D01*
X382638Y375270D01*
X382275D01*
X381731Y375452D01*
X381368Y375814D01*
X381187Y376358D01*
Y379079D01*
X380135D02*
Y375270D01*
Y379079D02*
X377777D01*
X380135Y377266D02*
X378684D01*
X409735Y413725D02*
X409917Y414088D01*
X410461Y414632D01*
X406652D01*
X410461Y416519D02*
X407740D01*
X407196Y416700D01*
X406833Y417063D01*
X406652Y417607D01*
Y417970D01*
X406833Y418514D01*
X407196Y418877D01*
X407740Y419058D01*
X410461D01*
Y420110D02*
X406652D01*
X410461D02*
Y422468D01*
X408647Y420110D02*
Y421561D01*
X402948Y376994D02*
X403311Y376813D01*
X403855Y376268D01*
Y380078D01*
X405741Y376268D02*
Y378989D01*
X405923Y379533D01*
X406286Y379896D01*
X406830Y380078D01*
X407192D01*
X407737Y379896D01*
X408100Y379533D01*
X408281Y378989D01*
Y376268D01*
X409333D02*
Y380078D01*
Y376268D02*
X411691D01*
X409333Y378082D02*
X410784D01*
X412938Y345815D02*
X413301Y345634D01*
X413845Y345090D01*
Y348899D01*
X415731Y345090D02*
Y347811D01*
X415913Y348355D01*
X416275Y348718D01*
X416820Y348899D01*
X417182D01*
X417727Y348718D01*
X418089Y348355D01*
X418271Y347811D01*
Y345090D01*
X419323D02*
Y348899D01*
Y345090D02*
X421681D01*
X419323Y346904D02*
X420774D01*
X287917Y413147D02*
X287554Y413328D01*
X287010Y413872D01*
Y410063D01*
X285123Y413872D02*
Y411151D01*
X284942Y410607D01*
X284579Y410244D01*
X284035Y410063D01*
X283672D01*
X283128Y410244D01*
X282765Y410607D01*
X282584Y411151D01*
Y413872D01*
X281532D02*
Y410063D01*
Y413872D02*
X279174D01*
X281532Y412058D02*
X280081D01*
X301066Y364704D02*
X300704Y364885D01*
X300159Y365429D01*
Y361620D01*
X298273Y365429D02*
Y362709D01*
X298092Y362164D01*
X297729Y361802D01*
X297185Y361620D01*
X296822D01*
X296278Y361802D01*
X295915Y362164D01*
X295734Y362709D01*
Y365429D01*
X294681D02*
Y361620D01*
Y365429D02*
X292323D01*
X294681Y363615D02*
X293230D01*
X391462Y405476D02*
X391100Y405657D01*
X390555Y406202D01*
Y402392D01*
X388669Y406202D02*
Y403481D01*
X388488Y402937D01*
X388125Y402574D01*
X387581Y402392D01*
X387218D01*
X386674Y402574D01*
X386311Y402937D01*
X386129Y403481D01*
Y406202D01*
X385078D02*
Y402392D01*
Y406202D02*
X382719D01*
X385078Y404388D02*
X383626D01*
X301224Y322695D02*
X300861Y322876D01*
X300317Y323420D01*
Y319611D01*
X298430Y323420D02*
Y320700D01*
X298249Y320155D01*
X297886Y319792D01*
X297342Y319611D01*
X296979D01*
X296435Y319792D01*
X296072Y320155D01*
X295891Y320700D01*
Y323420D01*
X294839D02*
Y319611D01*
Y323420D02*
X292481D01*
X294839Y321606D02*
X293388D01*
X605100Y231897D02*
X605281Y232260D01*
X605825Y232804D01*
X602016D01*
X605825Y234690D02*
X603104D01*
X602560Y234872D01*
X602197Y235234D01*
X602016Y235779D01*
Y236141D01*
X602197Y236686D01*
X602560Y237048D01*
X603104Y237230D01*
X605825D01*
Y238282D02*
X602016D01*
X605825D02*
Y240640D01*
X604011Y238282D02*
Y239733D01*
X573172Y365287D02*
X573353Y365650D01*
X573897Y366194D01*
X570088D01*
X573897Y368081D02*
X571176D01*
X570632Y368262D01*
X570270Y368625D01*
X570088Y369169D01*
Y369532D01*
X570270Y370076D01*
X570632Y370439D01*
X571176Y370620D01*
X573897D01*
Y371672D02*
X570088D01*
X573897D02*
Y374030D01*
X572084Y371672D02*
Y373123D01*
X506158Y376199D02*
X506521Y376017D01*
X507065Y375473D01*
Y379283D01*
X508952Y375473D02*
Y378194D01*
X509133Y378738D01*
X509496Y379101D01*
X510040Y379283D01*
X510403D01*
X510947Y379101D01*
X511310Y378738D01*
X511491Y378194D01*
Y375473D01*
X512543D02*
Y379283D01*
Y375473D02*
X514901D01*
X512543Y377287D02*
X513994D01*
X521506Y429156D02*
X521324D01*
X520962Y428974D01*
X520780Y428793D01*
X520599Y428430D01*
Y427705D01*
X520780Y427342D01*
X520962Y427160D01*
X521324Y426979D01*
X521687D01*
X522050Y427160D01*
X522594Y427523D01*
X524408Y429337D01*
Y426797D01*
X520599Y424857D02*
X520780Y425401D01*
X521324Y425764D01*
X522231Y425945D01*
X522775D01*
X523682Y425764D01*
X524227Y425401D01*
X524408Y424857D01*
Y424494D01*
X524227Y423950D01*
X523682Y423587D01*
X522775Y423406D01*
X522231D01*
X521324Y423587D01*
X520780Y423950D01*
X520599Y424494D01*
Y424857D01*
Y421465D02*
X520780Y422009D01*
X521324Y422372D01*
X522231Y422553D01*
X522775D01*
X523682Y422372D01*
X524227Y422009D01*
X524408Y421465D01*
Y421102D01*
X524227Y420558D01*
X523682Y420195D01*
X522775Y420014D01*
X522231D01*
X521324Y420195D01*
X520780Y420558D01*
X520599Y421102D01*
Y421465D01*
X543413Y600023D02*
X543595Y600567D01*
X544139Y600930D01*
X545046Y601111D01*
X545590D01*
X546497Y600930D01*
X547041Y600567D01*
X547222Y600023D01*
Y599660D01*
X547041Y599116D01*
X546497Y598753D01*
X545590Y598572D01*
X545046D01*
X544139Y598753D01*
X543595Y599116D01*
X543413Y599660D01*
Y600023D01*
X323042Y350043D02*
X322860Y349680D01*
X322316Y349136D01*
X326125D01*
X322316Y347249D02*
X325037D01*
X325581Y347068D01*
X325944Y346705D01*
X326125Y346161D01*
Y345798D01*
X325944Y345254D01*
X325581Y344891D01*
X325037Y344710D01*
X322316D01*
Y343658D02*
X326125D01*
X322316D02*
Y341300D01*
X324130Y343658D02*
Y342207D01*
X517606Y389176D02*
X517969Y388994D01*
X518513Y388450D01*
Y392259D01*
X520400Y388450D02*
Y391171D01*
X520581Y391715D01*
X520944Y392078D01*
X521488Y392259D01*
X521851D01*
X522395Y392078D01*
X522758Y391715D01*
X522939Y391171D01*
Y388450D01*
X523991D02*
Y392259D01*
Y388450D02*
X526349D01*
X523991Y390264D02*
X525442D01*
X406516Y388311D02*
Y388129D01*
X406697Y387766D01*
X406878Y387585D01*
X407241Y387404D01*
X407967D01*
X408330Y387585D01*
X408511Y387766D01*
X408692Y388129D01*
Y388492D01*
X408511Y388855D01*
X408148Y389399D01*
X406334Y391213D01*
X408874D01*
X411540Y387404D02*
X409726Y389943D01*
X412447D01*
X411540Y387404D02*
Y391213D01*
X414207Y387404D02*
X413662Y387585D01*
X413300Y388129D01*
X413118Y389036D01*
Y389580D01*
X413300Y390487D01*
X413662Y391032D01*
X414207Y391213D01*
X414569D01*
X415113Y391032D01*
X415476Y390487D01*
X415658Y389580D01*
Y389036D01*
X415476Y388129D01*
X415113Y387585D01*
X414569Y387404D01*
X414207D01*
X420592D02*
X420229Y387585D01*
X419866Y387948D01*
X419684Y388311D01*
X419503Y388855D01*
Y389762D01*
X419684Y390306D01*
X419866Y390669D01*
X420229Y391032D01*
X420592Y391213D01*
X421317D01*
X421680Y391032D01*
X422043Y390669D01*
X422224Y390306D01*
X422405Y389762D01*
Y388855D01*
X422224Y388311D01*
X422043Y387948D01*
X421680Y387585D01*
X421317Y387404D01*
X420592D01*
X423294D02*
Y391213D01*
X425834Y387404D02*
Y391213D01*
X423294Y389218D02*
X425834D01*
X426886Y387404D02*
Y391213D01*
Y387404D02*
X428337Y391213D01*
X429788Y387404D02*
X428337Y391213D01*
X429788Y387404D02*
Y391213D01*
X537011Y548904D02*
X536830Y548541D01*
X536286Y547997D01*
X540095D01*
X536286Y546111D02*
X539007D01*
X539551Y545929D01*
X539914Y545567D01*
X540095Y545023D01*
Y544660D01*
X539914Y544116D01*
X539551Y543753D01*
X539007Y543571D01*
X536286D01*
Y542519D02*
X540095D01*
X536286D02*
Y540161D01*
X538100Y542519D02*
Y541068D01*
X493868Y358224D02*
X493505Y358406D01*
X492961Y358950D01*
Y355141D01*
X491074Y358950D02*
Y356229D01*
X490893Y355685D01*
X490530Y355322D01*
X489986Y355141D01*
X489623D01*
X489079Y355322D01*
X488716Y355685D01*
X488535Y356229D01*
Y358950D01*
X487483D02*
Y355141D01*
Y358950D02*
X485125D01*
X487483Y357136D02*
X486031D01*
X523506Y573780D02*
X523687Y574143D01*
X524050Y574506D01*
X524412Y574687D01*
X525138D01*
X525501Y574506D01*
X525864Y574143D01*
X526045Y573780D01*
X526226Y573236D01*
Y572329D01*
X526045Y571785D01*
X525864Y571422D01*
X525501Y571059D01*
X525138Y570878D01*
X524412D01*
X524050Y571059D01*
X523687Y571422D01*
X523506Y571785D01*
X521347Y574687D02*
X521710Y574506D01*
X522072Y574143D01*
X522254Y573780D01*
X522435Y573236D01*
Y572329D01*
X522254Y571785D01*
X522072Y571422D01*
X521710Y571059D01*
X521347Y570878D01*
X520621D01*
X520259Y571059D01*
X519896Y571422D01*
X519715Y571785D01*
X519533Y572329D01*
Y573236D01*
X519715Y573780D01*
X519896Y574143D01*
X520259Y574506D01*
X520621Y574687D01*
X521347D01*
X518644D02*
Y570878D01*
Y574687D02*
X516105Y570878D01*
Y574687D02*
Y570878D01*
X511878Y573780D02*
Y573962D01*
X511697Y574324D01*
X511516Y574506D01*
X511153Y574687D01*
X510427D01*
X510065Y574506D01*
X509883Y574324D01*
X509702Y573962D01*
Y573599D01*
X509883Y573236D01*
X510246Y572692D01*
X512060Y570878D01*
X509520D01*
X508668Y574687D02*
X506128Y570878D01*
Y574687D02*
X508668Y570878D01*
X503462Y574687D02*
X505276Y572148D01*
X502555D01*
X503462Y574687D02*
Y570878D01*
X500796Y574687D02*
X501340Y574506D01*
X501702Y573962D01*
X501884Y573055D01*
Y572511D01*
X501702Y571604D01*
X501340Y571059D01*
X500796Y570878D01*
X500433D01*
X499888Y571059D01*
X499526Y571604D01*
X499344Y572511D01*
Y573055D01*
X499526Y573962D01*
X499888Y574506D01*
X500433Y574687D01*
X500796D01*
X303941Y97670D02*
X301402Y95856D01*
Y98577D01*
X303941Y97670D02*
X300132D01*
X300495Y99430D02*
X300313Y99248D01*
X300132Y99430D01*
X300313Y99611D01*
X300495Y99430D01*
X303941Y102985D02*
X300132Y101171D01*
X303941Y100445D02*
Y102985D01*
Y103837D02*
X301220D01*
X300676Y104019D01*
X300313Y104382D01*
X300132Y104926D01*
Y105289D01*
X300313Y105833D01*
X300676Y106196D01*
X301220Y106377D01*
X303941D01*
Y107429D02*
X300132D01*
X303941D02*
Y109787D01*
X302127Y107429D02*
Y108880D01*
X567296Y189172D02*
X565482Y191712D01*
X568203D01*
X567296Y189172D02*
Y192981D01*
X569055Y192618D02*
X568874Y192800D01*
X569055Y192981D01*
X569237Y192800D01*
X569055Y192618D01*
X572611Y189172D02*
X570797Y192981D01*
X570071Y189172D02*
X572611D01*
X573463D02*
Y191893D01*
X573644Y192437D01*
X574007Y192800D01*
X574552Y192981D01*
X574914D01*
X575458Y192800D01*
X575821Y192437D01*
X576003Y191893D01*
Y189172D01*
X577055D02*
Y192981D01*
Y189172D02*
X579413D01*
X577055Y190986D02*
X578506D01*
M02*
