G04*
G04 #@! TF.GenerationSoftware,Altium Limited,Altium Designer,25.7.1 (20)*
G04*
G04 Layer_Physical_Order=5*
G04 Layer_Color=16737945*
%FSLAX44Y44*%
%MOMM*%
G71*
G04*
G04 #@! TF.SameCoordinates,73AB98AC-F87E-4787-825B-23B2420A13CA*
G04*
G04*
G04 #@! TF.FilePolarity,Positive*
G04*
G01*
G75*
%ADD66C,0.5080*%
%ADD87C,0.4064*%
%ADD88C,1.4224*%
%ADD89C,3.9624*%
G36*
X732284Y599732D02*
X732290Y599730D01*
Y552633D01*
X732284Y552628D01*
Y80023D01*
Y26485D01*
X732287Y26482D01*
X732284Y26479D01*
Y5090D01*
X4956D01*
Y605993D01*
X431340D01*
X431767Y605231D01*
X431439Y604440D01*
Y603228D01*
X431903Y602108D01*
X432647Y601364D01*
X432761Y601245D01*
X432721Y600442D01*
X432277Y599998D01*
X431813Y598878D01*
Y597665D01*
X432277Y596545D01*
X433134Y595688D01*
X434254Y595224D01*
X435467D01*
X436587Y595688D01*
X437445Y596545D01*
X437909Y597665D01*
Y598878D01*
X437445Y599998D01*
X436701Y600742D01*
X436587Y600860D01*
X436627Y601664D01*
X437071Y602108D01*
X437535Y603228D01*
Y604440D01*
X437208Y605231D01*
X437635Y605993D01*
X444109D01*
X444396Y605231D01*
X443969Y604202D01*
Y602989D01*
X444433Y601869D01*
X444719Y601583D01*
X444955Y600856D01*
X444703Y600603D01*
X444098Y599998D01*
X443634Y598878D01*
Y597665D01*
X444098Y596545D01*
X444955Y595688D01*
X446076Y595224D01*
X447288D01*
X448408Y595688D01*
X449266Y596545D01*
X449730Y597665D01*
Y598878D01*
X449266Y599998D01*
X448980Y600284D01*
X448744Y601011D01*
X448996Y601264D01*
X449601Y601869D01*
X450065Y602989D01*
Y604202D01*
X449639Y605231D01*
X449925Y605993D01*
X455750D01*
X456041Y605231D01*
X455618Y604209D01*
Y602997D01*
X456082Y601876D01*
X456480Y601478D01*
X456828Y600890D01*
X456480Y600483D01*
X455993Y599996D01*
X455529Y598875D01*
Y597663D01*
X455993Y596543D01*
X456850Y595685D01*
X457970Y595221D01*
X459183D01*
X460303Y595685D01*
X461161Y596543D01*
X461625Y597663D01*
Y598875D01*
X461161Y599996D01*
X460762Y600394D01*
X460414Y600982D01*
X460762Y601389D01*
X461250Y601876D01*
X461714Y602997D01*
Y604209D01*
X461290Y605231D01*
X461582Y605993D01*
X467502D01*
X467790Y605231D01*
X467365Y604204D01*
Y602992D01*
X467829Y601871D01*
X468415Y601285D01*
X468686Y601014D01*
X468424Y600298D01*
X468124Y599998D01*
X467660Y598878D01*
Y597665D01*
X468124Y596545D01*
X468981Y595688D01*
X470101Y595224D01*
X471314D01*
X472434Y595688D01*
X473292Y596545D01*
X473756Y597665D01*
Y598878D01*
X473292Y599998D01*
X472706Y600584D01*
X472434Y600856D01*
X472697Y601572D01*
X472997Y601871D01*
X473461Y602992D01*
Y604204D01*
X473036Y605231D01*
X473324Y605993D01*
X479727D01*
X480076Y605231D01*
X479694Y604308D01*
Y603096D01*
X480158Y601976D01*
X480628Y601506D01*
X480980Y601063D01*
X480628Y600511D01*
X480212Y600095D01*
X479748Y598974D01*
Y597762D01*
X480212Y596642D01*
X481069Y595784D01*
X482189Y595320D01*
X483402D01*
X484522Y595784D01*
X485379Y596642D01*
X485844Y597762D01*
Y598974D01*
X485379Y600095D01*
X484910Y600564D01*
X484557Y601007D01*
X484910Y601560D01*
X485326Y601976D01*
X485790Y603096D01*
Y604308D01*
X485408Y605231D01*
X485757Y605993D01*
X732284D01*
Y599732D01*
D02*
G37*
%LPC*%
G36*
X512716Y603730D02*
X511503D01*
X510383Y603266D01*
X509802Y602685D01*
X509526Y602409D01*
X508813Y602679D01*
X508507Y602984D01*
X507387Y603448D01*
X506175D01*
X505054Y602984D01*
X504417Y602347D01*
X504197Y602127D01*
X503451Y602318D01*
X503161Y602608D01*
X502040Y603072D01*
X500828D01*
X499707Y602608D01*
X499237Y602138D01*
X498763Y601806D01*
X498241Y602138D01*
X497794Y602585D01*
X496673Y603049D01*
X495461D01*
X494341Y602585D01*
X493483Y601728D01*
X493019Y600608D01*
Y599395D01*
X493483Y598275D01*
X494341Y597417D01*
X495461Y596953D01*
X496673D01*
X497794Y597417D01*
X498264Y597888D01*
X498738Y598219D01*
X499260Y597888D01*
X499707Y597440D01*
X500828Y596976D01*
X502040D01*
X503161Y597440D01*
X503798Y598077D01*
X504018Y598298D01*
X504764Y598107D01*
X505054Y597816D01*
X506175Y597352D01*
X507387D01*
X508507Y597816D01*
X509088Y598397D01*
X509365Y598674D01*
X510078Y598404D01*
X510383Y598098D01*
X511503Y597634D01*
X512716D01*
X513494Y597956D01*
X514207Y597629D01*
X514290Y597524D01*
X514720Y596487D01*
X515578Y595629D01*
X516698Y595165D01*
X517910D01*
X519031Y595629D01*
X519888Y596487D01*
X520352Y597607D01*
Y598820D01*
X519888Y599940D01*
X519031Y600797D01*
X517910Y601261D01*
X516698D01*
X515920Y600939D01*
X515207Y601266D01*
X515123Y601371D01*
X514694Y602409D01*
X513836Y603266D01*
X512716Y603730D01*
D02*
G37*
G36*
X541385Y603092D02*
X540172D01*
X539052Y602629D01*
X538195Y601771D01*
X537961Y601208D01*
X537535Y600701D01*
X537041Y600826D01*
X536366Y601106D01*
X535153D01*
X534033Y600642D01*
X533176Y599785D01*
X533129Y599671D01*
X532304D01*
X532189Y599947D01*
X531332Y600805D01*
X530211Y601269D01*
X528999D01*
X527879Y600805D01*
X527021Y599947D01*
X526557Y598827D01*
Y597615D01*
X527021Y596494D01*
X527879Y595637D01*
X528999Y595173D01*
X530211D01*
X531332Y595637D01*
X532189Y596494D01*
X532236Y596608D01*
X533061D01*
X533176Y596332D01*
X534033Y595474D01*
X535153Y595010D01*
X536366D01*
X537486Y595474D01*
X538344Y596332D01*
X538577Y596895D01*
X539003Y597402D01*
X539497Y597276D01*
X540172Y596996D01*
X541385D01*
X542505Y597461D01*
X543363Y598318D01*
X543827Y599438D01*
Y600651D01*
X543363Y601771D01*
X542505Y602629D01*
X541385Y603092D01*
D02*
G37*
G36*
X554453Y601952D02*
X553241D01*
X552120Y601488D01*
X551263Y600631D01*
X550799Y599510D01*
Y598298D01*
X551263Y597178D01*
X552120Y596320D01*
X553241Y595856D01*
X554453D01*
X555574Y596320D01*
X556297Y597044D01*
X556902Y597030D01*
X557161Y596950D01*
X557336Y596527D01*
X558194Y595670D01*
X559314Y595206D01*
X560526D01*
X561647Y595670D01*
X562504Y596527D01*
X562968Y597648D01*
Y598860D01*
X562504Y599980D01*
X561647Y600838D01*
X560526Y601302D01*
X559314D01*
X558194Y600838D01*
X557470Y600114D01*
X556865Y600128D01*
X556606Y600208D01*
X556431Y600631D01*
X555574Y601488D01*
X554453Y601952D01*
D02*
G37*
G36*
X23187Y597113D02*
X21974D01*
X20854Y596649D01*
X19997Y595792D01*
X19533Y594672D01*
Y593459D01*
X19997Y592339D01*
X20854Y591481D01*
X21974Y591017D01*
X23187D01*
X24307Y591481D01*
X25165Y592339D01*
X25629Y593459D01*
Y594672D01*
X25165Y595792D01*
X24307Y596649D01*
X23187Y597113D01*
D02*
G37*
G36*
X66875Y597139D02*
X65662D01*
X64542Y596675D01*
X63685Y595817D01*
X63221Y594697D01*
Y593484D01*
X63685Y592364D01*
X64542Y591507D01*
X65662Y591043D01*
X66875D01*
X67995Y591507D01*
X68465Y591977D01*
X69289Y591963D01*
X69371Y591887D01*
X70153Y591105D01*
X71273Y590641D01*
X72486D01*
X73606Y591105D01*
X74463Y591963D01*
X74928Y593083D01*
Y594296D01*
X74463Y595416D01*
X73606Y596273D01*
X72486Y596737D01*
X71273D01*
X70153Y596273D01*
X69683Y595804D01*
X68859Y595817D01*
X68777Y595893D01*
X67995Y596675D01*
X66875Y597139D01*
D02*
G37*
G36*
X580318Y599928D02*
X579105D01*
X577985Y599464D01*
X577128Y598606D01*
X576664Y597486D01*
Y597002D01*
X576409Y596298D01*
X575196D01*
X574076Y595834D01*
X573219Y594977D01*
X572755Y593856D01*
Y592644D01*
X573219Y591524D01*
X574076Y590666D01*
X575196Y590202D01*
X576409D01*
X577529Y590666D01*
X578387Y591524D01*
X578851Y592644D01*
Y593128D01*
X579106Y593832D01*
X580318D01*
X581438Y594296D01*
X582296Y595153D01*
X582760Y596273D01*
Y597486D01*
X582296Y598606D01*
X581438Y599464D01*
X580318Y599928D01*
D02*
G37*
G36*
X589086Y599524D02*
X587874D01*
X586753Y599060D01*
X585896Y598202D01*
X585432Y597082D01*
Y595869D01*
X585896Y594749D01*
X586753Y593892D01*
X587874Y593428D01*
X588711D01*
X589086Y593428D01*
X589415Y592739D01*
Y592321D01*
X589879Y591201D01*
X590736Y590344D01*
X591856Y589879D01*
X593069D01*
X594189Y590344D01*
X595047Y591201D01*
X595511Y592321D01*
Y593534D01*
X595047Y594654D01*
X594189Y595511D01*
X593069Y595975D01*
X592232D01*
X591856Y595975D01*
X591528Y596664D01*
Y597082D01*
X591064Y598202D01*
X590206Y599060D01*
X589086Y599524D01*
D02*
G37*
G36*
X42013Y595536D02*
X40801D01*
X39681Y595072D01*
X38823Y594215D01*
X38359Y593094D01*
Y591882D01*
X38823Y590761D01*
X39681Y589904D01*
X40801Y589440D01*
X42013D01*
X43134Y589904D01*
X43991Y590761D01*
X44455Y591882D01*
Y593094D01*
X43991Y594215D01*
X43134Y595072D01*
X42013Y595536D01*
D02*
G37*
G36*
X335856Y591960D02*
X334643D01*
X333523Y591496D01*
X332666Y590638D01*
X332201Y589518D01*
Y588305D01*
X332666Y587185D01*
X333523Y586328D01*
X334643Y585864D01*
X335856D01*
X336976Y586328D01*
X337834Y587185D01*
X338298Y588305D01*
Y589518D01*
X337834Y590638D01*
X336976Y591496D01*
X335856Y591960D01*
D02*
G37*
G36*
X443819Y589923D02*
X437789D01*
Y583055D01*
X443819D01*
Y589923D01*
D02*
G37*
G36*
X479852Y589905D02*
X473822D01*
Y583037D01*
X479852D01*
Y589905D01*
D02*
G37*
G36*
X467792D02*
X461762D01*
Y583037D01*
X467792D01*
Y589905D01*
D02*
G37*
G36*
X455798Y589882D02*
X449768D01*
Y583014D01*
X455798D01*
Y589882D01*
D02*
G37*
G36*
X491790Y589864D02*
X485760D01*
Y582996D01*
X491790D01*
Y589864D01*
D02*
G37*
G36*
X281896Y585813D02*
X280683D01*
X279563Y585349D01*
X278706Y584492D01*
X278242Y583371D01*
Y582159D01*
X278706Y581038D01*
X279563Y580181D01*
X280683Y579717D01*
X281896D01*
X283016Y580181D01*
X283874Y581038D01*
X284338Y582159D01*
Y583371D01*
X283874Y584492D01*
X283016Y585349D01*
X281896Y585813D01*
D02*
G37*
G36*
X228111Y583753D02*
X226899D01*
X225779Y583289D01*
X224921Y582431D01*
X224457Y581311D01*
Y580099D01*
X224921Y578978D01*
X225779Y578121D01*
X226899Y577657D01*
X228111D01*
X229232Y578121D01*
X230089Y578978D01*
X230553Y580099D01*
Y581311D01*
X230089Y582431D01*
X229232Y583289D01*
X228111Y583753D01*
D02*
G37*
G36*
X524291Y582963D02*
X523078D01*
X521958Y582499D01*
X521101Y581642D01*
X520636Y580521D01*
Y579309D01*
X521101Y578189D01*
X521958Y577331D01*
X523078Y576867D01*
X524291D01*
X525411Y577331D01*
X526269Y578189D01*
X526732Y579309D01*
Y580521D01*
X526269Y581642D01*
X525411Y582499D01*
X524291Y582963D01*
D02*
G37*
G36*
X546760Y581952D02*
X545547D01*
X544427Y581488D01*
X543569Y580631D01*
X543105Y579510D01*
Y578298D01*
X543569Y577178D01*
X544427Y576320D01*
X545547Y575856D01*
X546760D01*
X547880Y576320D01*
X548737Y577178D01*
X549201Y578298D01*
Y579510D01*
X548737Y580631D01*
X547880Y581488D01*
X546760Y581952D01*
D02*
G37*
G36*
X47050Y581279D02*
X45838D01*
X44717Y580815D01*
X43860Y579958D01*
X43396Y578837D01*
Y577625D01*
X43860Y576504D01*
X44717Y575647D01*
X45838Y575183D01*
X47050D01*
X48170Y575647D01*
X49028Y576504D01*
X49492Y577625D01*
Y578837D01*
X49028Y579958D01*
X48170Y580815D01*
X47050Y581279D01*
D02*
G37*
G36*
X495726Y580695D02*
X494513D01*
X493393Y580231D01*
X492536Y579373D01*
X492072Y578253D01*
Y577040D01*
X492536Y575920D01*
X493393Y575063D01*
X494513Y574599D01*
X495726D01*
X496846Y575063D01*
X497704Y575920D01*
X498168Y577040D01*
Y578253D01*
X497704Y579373D01*
X496846Y580231D01*
X495726Y580695D01*
D02*
G37*
G36*
X570209Y572849D02*
X568996D01*
X567876Y572385D01*
X567019Y571527D01*
X566555Y570407D01*
Y569194D01*
X567019Y568074D01*
X567876Y567217D01*
X568996Y566753D01*
X570209D01*
X571329Y567217D01*
X572187Y568074D01*
X572651Y569194D01*
Y570407D01*
X572187Y571527D01*
X571329Y572385D01*
X570209Y572849D01*
D02*
G37*
G36*
X492556Y571619D02*
X491343D01*
X490223Y571155D01*
X489366Y570298D01*
X488902Y569178D01*
Y567965D01*
X489366Y566845D01*
X490223Y565987D01*
X491343Y565523D01*
X492556D01*
X493676Y565987D01*
X494534Y566845D01*
X494998Y567965D01*
Y569178D01*
X494534Y570298D01*
X493676Y571155D01*
X492556Y571619D01*
D02*
G37*
G36*
X20812Y570060D02*
X19599D01*
X18479Y569596D01*
X17622Y568738D01*
X17158Y567618D01*
Y566405D01*
X17622Y565285D01*
X18479Y564428D01*
X19599Y563964D01*
X20812D01*
X21932Y564428D01*
X22790Y565285D01*
X23254Y566405D01*
Y567618D01*
X22790Y568738D01*
X21932Y569596D01*
X20812Y570060D01*
D02*
G37*
G36*
X322996Y567624D02*
X321783D01*
X320663Y567160D01*
X319806Y566302D01*
X319342Y565182D01*
Y563970D01*
X319806Y562849D01*
X320663Y561992D01*
X321783Y561528D01*
X322996D01*
X324116Y561992D01*
X324973Y562849D01*
X325438Y563970D01*
Y565182D01*
X324973Y566302D01*
X324116Y567160D01*
X322996Y567624D01*
D02*
G37*
G36*
X277009Y566918D02*
X275797D01*
X274676Y566454D01*
X273819Y565596D01*
X273355Y564476D01*
Y563264D01*
X273819Y562143D01*
X274676Y561286D01*
X275797Y560822D01*
X277009D01*
X278129Y561286D01*
X278987Y562143D01*
X279451Y563264D01*
Y564476D01*
X278987Y565596D01*
X278129Y566454D01*
X277009Y566918D01*
D02*
G37*
G36*
X211551Y559636D02*
X210338D01*
X209218Y559172D01*
X208361Y558314D01*
X208020Y557491D01*
X207241Y557272D01*
X207170Y557281D01*
X206611Y557841D01*
X205490Y558305D01*
X204278D01*
X203158Y557841D01*
X202300Y556983D01*
X201836Y555863D01*
Y554650D01*
X202300Y553530D01*
X203158Y552673D01*
X204278Y552209D01*
X205490D01*
X206611Y552673D01*
X207468Y553530D01*
X207809Y554353D01*
X208588Y554572D01*
X208658Y554563D01*
X209218Y554004D01*
X210338Y553540D01*
X211551D01*
X212671Y554004D01*
X213528Y554861D01*
X213993Y555981D01*
Y557194D01*
X213528Y558314D01*
X212671Y559172D01*
X211551Y559636D01*
D02*
G37*
G36*
X491627Y562673D02*
X485597D01*
Y555805D01*
X491627D01*
Y562673D01*
D02*
G37*
G36*
X479730Y562633D02*
X473700D01*
Y555765D01*
X479730D01*
Y562633D01*
D02*
G37*
G36*
X527814Y562592D02*
X521785D01*
Y555724D01*
X527814D01*
Y562592D01*
D02*
G37*
G36*
X515755D02*
X509725D01*
Y555724D01*
X515755D01*
Y562592D01*
D02*
G37*
G36*
X503773Y562552D02*
X497743D01*
Y555683D01*
X503773D01*
Y562552D01*
D02*
G37*
G36*
X467792D02*
X461762D01*
Y555683D01*
X467792D01*
Y562552D01*
D02*
G37*
G36*
X455729D02*
X449699D01*
Y555683D01*
X455729D01*
Y562552D01*
D02*
G37*
G36*
X443748D02*
X437718D01*
Y555683D01*
X443748D01*
Y562552D01*
D02*
G37*
G36*
X323163Y560619D02*
X321951D01*
X320831Y560155D01*
X319973Y559297D01*
X319509Y558177D01*
Y556964D01*
X319973Y555844D01*
X320831Y554987D01*
X321951Y554523D01*
X323163D01*
X324284Y554987D01*
X325141Y555844D01*
X325605Y556964D01*
Y558177D01*
X325141Y559297D01*
X324284Y560155D01*
X323163Y560619D01*
D02*
G37*
G36*
X233550Y559742D02*
X232337D01*
X231217Y559278D01*
X230359Y558421D01*
X229895Y557301D01*
Y556088D01*
X230359Y554968D01*
X231217Y554110D01*
X232337Y553646D01*
X233550D01*
X234670Y554110D01*
X235527Y554968D01*
X235991Y556088D01*
Y557301D01*
X235527Y558421D01*
X234670Y559278D01*
X233550Y559742D01*
D02*
G37*
G36*
X220271Y558980D02*
X219058D01*
X217938Y558516D01*
X217080Y557659D01*
X216616Y556539D01*
Y555326D01*
X217080Y554206D01*
X217938Y553348D01*
X219058Y552884D01*
X220271D01*
X221391Y553348D01*
X222248Y554206D01*
X222712Y555326D01*
Y556539D01*
X222248Y557659D01*
X221391Y558516D01*
X220271Y558980D01*
D02*
G37*
G36*
X612787Y558556D02*
X611574D01*
X610454Y558092D01*
X609597Y557235D01*
X609133Y556114D01*
Y554902D01*
X609597Y553782D01*
X610454Y552924D01*
X611574Y552460D01*
X612787D01*
X613907Y552924D01*
X614765Y553782D01*
X614977Y554294D01*
X615784Y554251D01*
X616145Y553380D01*
X617002Y552523D01*
X618122Y552059D01*
X619335D01*
X620455Y552523D01*
X621313Y553380D01*
X621777Y554501D01*
Y555713D01*
X621313Y556833D01*
X620455Y557691D01*
X619335Y558155D01*
X618122D01*
X617002Y557691D01*
X616145Y556833D01*
X615933Y556321D01*
X615125Y556364D01*
X614765Y557235D01*
X613907Y558092D01*
X612787Y558556D01*
D02*
G37*
G36*
X354131Y557096D02*
X352919D01*
X351798Y556632D01*
X350941Y555774D01*
X350477Y554654D01*
Y553441D01*
X350941Y552321D01*
X351798Y551464D01*
X352919Y551000D01*
X354131D01*
X355251Y551464D01*
X356109Y552321D01*
X356573Y553441D01*
Y554654D01*
X356109Y555774D01*
X355251Y556632D01*
X354131Y557096D01*
D02*
G37*
G36*
X574471Y553184D02*
X573259D01*
X572138Y552720D01*
X571281Y551863D01*
X570817Y550742D01*
Y549530D01*
X571281Y548410D01*
X572138Y547552D01*
X573259Y547088D01*
X574471D01*
X575591Y547552D01*
X576449Y548410D01*
X576913Y549530D01*
Y550742D01*
X576449Y551863D01*
X575591Y552720D01*
X574471Y553184D01*
D02*
G37*
G36*
X581931Y552209D02*
X580718D01*
X579598Y551745D01*
X578741Y550887D01*
X578277Y549767D01*
Y548554D01*
X578741Y547434D01*
X579598Y546577D01*
X580718Y546113D01*
X581931D01*
X583051Y546577D01*
X583909Y547434D01*
X584373Y548554D01*
Y549767D01*
X583909Y550887D01*
X583051Y551745D01*
X581931Y552209D01*
D02*
G37*
G36*
X301025Y556613D02*
X299812D01*
X298692Y556149D01*
X297834Y555292D01*
X297370Y554171D01*
Y552959D01*
X297834Y551838D01*
X298692Y550981D01*
X299812Y550517D01*
X301025D01*
X302145Y550981D01*
X302575Y551411D01*
X302905Y551354D01*
X303391Y551149D01*
X303801Y550160D01*
X304658Y549302D01*
X304798Y549244D01*
Y548420D01*
X304399Y548255D01*
X303542Y547397D01*
X303078Y546277D01*
Y545065D01*
X303542Y543944D01*
X304399Y543087D01*
X305520Y542623D01*
X306732D01*
X307852Y543087D01*
X308710Y543944D01*
X309174Y545065D01*
Y546277D01*
X308710Y547397D01*
X307852Y548255D01*
X307713Y548312D01*
Y549137D01*
X308111Y549302D01*
X308969Y550160D01*
X309433Y551280D01*
Y552492D01*
X308969Y553613D01*
X308111Y554470D01*
X306991Y554934D01*
X305779D01*
X304658Y554470D01*
X304228Y554040D01*
X303898Y554097D01*
X303412Y554302D01*
X303002Y555292D01*
X302145Y556149D01*
X301025Y556613D01*
D02*
G37*
G36*
X322429Y547624D02*
X321217D01*
X320097Y547160D01*
X319239Y546303D01*
X318775Y545182D01*
Y543970D01*
X319239Y542849D01*
X320097Y541992D01*
X321217Y541528D01*
X322429D01*
X323550Y541992D01*
X324407Y542849D01*
X324871Y543970D01*
Y545182D01*
X324407Y546303D01*
X323550Y547160D01*
X322429Y547624D01*
D02*
G37*
G36*
X355429Y547215D02*
X354216D01*
X353096Y546751D01*
X352239Y545894D01*
X351775Y544773D01*
Y543561D01*
X352239Y542440D01*
X353096Y541583D01*
X354216Y541119D01*
X355429D01*
X356549Y541583D01*
X357407Y542440D01*
X357517Y542708D01*
X358342D01*
X358520Y542278D01*
X359378Y541421D01*
X360498Y540956D01*
X361711D01*
X362831Y541421D01*
X363688Y542278D01*
X364152Y543398D01*
Y544611D01*
X363688Y545731D01*
X362831Y546589D01*
X361711Y547052D01*
X360498D01*
X359378Y546589D01*
X358520Y545731D01*
X358410Y545464D01*
X357585D01*
X357407Y545894D01*
X356549Y546751D01*
X355429Y547215D01*
D02*
G37*
G36*
X495670Y550347D02*
X494458D01*
X493337Y549883D01*
X492480Y549025D01*
X492016Y547905D01*
Y546693D01*
X492480Y545572D01*
X493041Y545012D01*
X493337Y544715D01*
X493041Y544016D01*
X492721Y543697D01*
X492257Y542576D01*
Y541364D01*
X492721Y540243D01*
X493578Y539386D01*
X494699Y538922D01*
X495911D01*
X497032Y539386D01*
X497889Y540243D01*
X498353Y541364D01*
Y542576D01*
X497889Y543697D01*
X497328Y544257D01*
X497032Y544554D01*
X497328Y545253D01*
X497648Y545572D01*
X498112Y546693D01*
Y547905D01*
X497648Y549025D01*
X496790Y549883D01*
X495670Y550347D01*
D02*
G37*
G36*
X483686Y550349D02*
X482474D01*
X481353Y549885D01*
X480496Y549028D01*
X480032Y547908D01*
Y546695D01*
X480496Y545575D01*
X480979Y545092D01*
X481329Y544677D01*
X480979Y544096D01*
X480577Y543694D01*
X480113Y542574D01*
Y541361D01*
X480577Y540241D01*
X481435Y539384D01*
X482555Y538919D01*
X483768D01*
X484888Y539384D01*
X485745Y540241D01*
X486209Y541361D01*
Y542574D01*
X485745Y543694D01*
X485262Y544177D01*
X484912Y544592D01*
X485262Y545173D01*
X485664Y545575D01*
X486128Y546695D01*
Y547908D01*
X485664Y549028D01*
X484807Y549885D01*
X483686Y550349D01*
D02*
G37*
G36*
X471377Y550342D02*
X470165D01*
X469045Y549878D01*
X468187Y549020D01*
X467723Y547900D01*
Y546688D01*
X468187Y545567D01*
X468748Y545006D01*
X469045Y544710D01*
X468748Y544011D01*
X468429Y543691D01*
X467965Y542571D01*
Y541359D01*
X468429Y540238D01*
X469286Y539381D01*
X470406Y538917D01*
X471619D01*
X472739Y539381D01*
X473596Y540238D01*
X474061Y541359D01*
Y542571D01*
X473596Y543691D01*
X473036Y544252D01*
X472739Y544549D01*
X473036Y545248D01*
X473355Y545567D01*
X473819Y546688D01*
Y547900D01*
X473355Y549020D01*
X472498Y549878D01*
X471377Y550342D01*
D02*
G37*
G36*
X459638Y550347D02*
X458425D01*
X457305Y549883D01*
X456447Y549025D01*
X455983Y547905D01*
Y546693D01*
X456447Y545572D01*
X456809Y545211D01*
X457141Y544550D01*
X456809Y544215D01*
X456285Y543691D01*
X455821Y542571D01*
Y541359D01*
X456285Y540238D01*
X457142Y539381D01*
X458262Y538917D01*
X459475D01*
X460595Y539381D01*
X461453Y540238D01*
X461917Y541359D01*
Y542571D01*
X461453Y543691D01*
X461091Y544053D01*
X460759Y544713D01*
X461091Y545048D01*
X461615Y545572D01*
X462079Y546693D01*
Y547905D01*
X461615Y549025D01*
X460758Y549883D01*
X459638Y550347D01*
D02*
G37*
G36*
X447494Y550342D02*
X446281D01*
X445161Y549878D01*
X444304Y549020D01*
X443840Y547900D01*
Y546688D01*
X444304Y545567D01*
X444793Y545078D01*
X445141Y544676D01*
X444793Y544082D01*
X444398Y543686D01*
X443934Y542566D01*
Y541353D01*
X444398Y540233D01*
X445255Y539376D01*
X446375Y538912D01*
X447588D01*
X448708Y539376D01*
X449566Y540233D01*
X450030Y541353D01*
Y542566D01*
X449566Y543686D01*
X449076Y544176D01*
X448728Y544578D01*
X449076Y545172D01*
X449472Y545567D01*
X449936Y546688D01*
Y547900D01*
X449472Y549020D01*
X448614Y549878D01*
X447494Y550342D01*
D02*
G37*
G36*
X435429D02*
X434216D01*
X433096Y549878D01*
X432239Y549020D01*
X431775Y547900D01*
Y546688D01*
X432239Y545567D01*
X432762Y545043D01*
X433095Y544708D01*
X432762Y544048D01*
X432401Y543686D01*
X431937Y542566D01*
Y541353D01*
X432401Y540233D01*
X433259Y539376D01*
X434379Y538912D01*
X435591D01*
X436712Y539376D01*
X437569Y540233D01*
X438033Y541353D01*
Y542566D01*
X437569Y543686D01*
X437045Y544210D01*
X436712Y544545D01*
X437045Y545206D01*
X437407Y545567D01*
X437871Y546688D01*
Y547900D01*
X437407Y549020D01*
X436549Y549878D01*
X435429Y550342D01*
D02*
G37*
G36*
X519394Y550294D02*
X518181D01*
X517061Y549829D01*
X516203Y548972D01*
X515739Y547852D01*
Y546639D01*
X516203Y545519D01*
X516765Y544957D01*
X517061Y544662D01*
X516765Y543961D01*
X516447Y543643D01*
X515983Y542523D01*
Y541310D01*
X516447Y540190D01*
X517305Y539333D01*
X518425Y538869D01*
X519637D01*
X520758Y539333D01*
X521615Y540190D01*
X522079Y541310D01*
Y542523D01*
X521615Y543643D01*
X521053Y544205D01*
X520758Y544501D01*
X521053Y545201D01*
X521371Y545519D01*
X521835Y546639D01*
Y547852D01*
X521371Y548972D01*
X520514Y549829D01*
X519394Y550294D01*
D02*
G37*
G36*
X507654Y550212D02*
X506441D01*
X505321Y549748D01*
X504464Y548891D01*
X503999Y547771D01*
Y546558D01*
X504464Y545438D01*
X504865Y545036D01*
X505215Y544455D01*
X504865Y544040D01*
X504382Y543557D01*
X503918Y542436D01*
Y541224D01*
X504382Y540104D01*
X505240Y539246D01*
X506360Y538782D01*
X507573D01*
X508693Y539246D01*
X509550Y540104D01*
X510014Y541224D01*
Y542436D01*
X509550Y543557D01*
X509148Y543959D01*
X508799Y544540D01*
X509148Y544954D01*
X509632Y545438D01*
X510095Y546558D01*
Y547771D01*
X509632Y548891D01*
X508774Y549748D01*
X507654Y550212D01*
D02*
G37*
G36*
X563277Y549928D02*
X562065D01*
X560944Y549464D01*
X560087Y548606D01*
X559623Y547486D01*
Y546273D01*
X560087Y545153D01*
X560799Y544441D01*
X560943Y544281D01*
X560859Y543506D01*
X560412Y543059D01*
X559948Y541939D01*
Y540726D01*
X560412Y539606D01*
X561269Y538749D01*
X562390Y538284D01*
X563602D01*
X564723Y538749D01*
X565580Y539606D01*
X566044Y540726D01*
Y541939D01*
X565580Y543059D01*
X564868Y543771D01*
X564724Y543931D01*
X564808Y544706D01*
X565255Y545153D01*
X565719Y546273D01*
Y547486D01*
X565255Y548606D01*
X564398Y549464D01*
X563277Y549928D01*
D02*
G37*
G36*
X122102Y548307D02*
X120890D01*
X119769Y547843D01*
X118912Y546986D01*
X118448Y545866D01*
Y544653D01*
X118912Y543533D01*
X119224Y543220D01*
X119297Y542425D01*
X119160Y542289D01*
X118439Y541568D01*
X117975Y540448D01*
Y539235D01*
X118439Y538115D01*
X119297Y537257D01*
X120417Y536793D01*
X121630D01*
X122750Y537257D01*
X123607Y538115D01*
X124071Y539235D01*
Y540448D01*
X123607Y541568D01*
X123295Y541880D01*
X123222Y542675D01*
X123359Y542812D01*
X124080Y543533D01*
X124544Y544653D01*
Y545866D01*
X124080Y546986D01*
X123222Y547843D01*
X122102Y548307D01*
D02*
G37*
G36*
X574857Y545757D02*
X573644D01*
X572524Y545293D01*
X571667Y544436D01*
X571203Y543315D01*
Y542103D01*
X571667Y540983D01*
X572524Y540125D01*
X573644Y539661D01*
X574691Y539661D01*
X574752Y538924D01*
X573632Y538461D01*
X572774Y537603D01*
X572310Y536483D01*
Y535270D01*
X572774Y534150D01*
X573632Y533293D01*
X574752Y532828D01*
X575965D01*
X577085Y533293D01*
X577942Y534150D01*
X578406Y535270D01*
Y536483D01*
X577942Y537603D01*
X577085Y538461D01*
X575965Y538924D01*
X574919Y538925D01*
X574857Y539661D01*
X575977Y540125D01*
X576835Y540983D01*
X577299Y542103D01*
Y543315D01*
X576835Y544436D01*
X575977Y545293D01*
X574857Y545757D01*
D02*
G37*
G36*
X591342Y538866D02*
X590129D01*
X589009Y538402D01*
X588152Y537545D01*
X587687Y536424D01*
Y535212D01*
X588152Y534091D01*
X589009Y533234D01*
X590129Y532770D01*
X591342D01*
X592462Y533234D01*
X593319Y534091D01*
X593783Y535212D01*
Y536424D01*
X593319Y537545D01*
X592462Y538402D01*
X591342Y538866D01*
D02*
G37*
G36*
X147020Y537162D02*
X145807D01*
X144687Y536698D01*
X143829Y535840D01*
X143365Y534720D01*
Y533507D01*
X143829Y532387D01*
X144687Y531530D01*
X145807Y531066D01*
X147020D01*
X148140Y531530D01*
X148997Y532387D01*
X149461Y533507D01*
Y534720D01*
X148997Y535840D01*
X148140Y536698D01*
X147020Y537162D01*
D02*
G37*
G36*
X198568Y537103D02*
X197154D01*
X195847Y536562D01*
X194846Y535562D01*
X194305Y534255D01*
Y532840D01*
X194846Y531533D01*
X195847Y530533D01*
X197154Y529991D01*
X198568D01*
X199875Y530533D01*
X200875Y531533D01*
X201417Y532840D01*
Y534255D01*
X200875Y535562D01*
X199875Y536562D01*
X198568Y537103D01*
D02*
G37*
G36*
X27711Y535508D02*
X26498D01*
X25378Y535044D01*
X24520Y534187D01*
X24056Y533066D01*
Y531854D01*
X24520Y530734D01*
X25378Y529876D01*
X26498Y529412D01*
X27711D01*
X28831Y529876D01*
X29688Y530734D01*
X30152Y531854D01*
Y533066D01*
X29688Y534187D01*
X28831Y535044D01*
X27711Y535508D01*
D02*
G37*
G36*
X273834Y534614D02*
X272621D01*
X271501Y534150D01*
X270644Y533293D01*
X270180Y532172D01*
Y530960D01*
X270644Y529840D01*
X271501Y528982D01*
X272621Y528518D01*
X273834D01*
X274954Y528982D01*
X275812Y529840D01*
X276276Y530960D01*
Y532172D01*
X275812Y533293D01*
X274954Y534150D01*
X273834Y534614D01*
D02*
G37*
G36*
X249488Y534319D02*
X248276D01*
X247155Y533855D01*
X246298Y532998D01*
X245834Y531878D01*
Y530665D01*
X246298Y529545D01*
X247155Y528688D01*
X248276Y528223D01*
X249488D01*
X250609Y528688D01*
X251466Y529545D01*
X251930Y530665D01*
Y531878D01*
X251466Y532998D01*
X250609Y533855D01*
X249488Y534319D01*
D02*
G37*
G36*
X495866Y533296D02*
X494653D01*
X493533Y532832D01*
X492675Y531974D01*
X492211Y530854D01*
Y529642D01*
X492675Y528521D01*
X493533Y527664D01*
X494653Y527200D01*
X495866D01*
X496986Y527664D01*
X497843Y528521D01*
X498307Y529642D01*
Y530854D01*
X497843Y531974D01*
X496986Y532832D01*
X495866Y533296D01*
D02*
G37*
G36*
X121787Y532945D02*
X120575D01*
X119454Y532481D01*
X118597Y531624D01*
X118133Y530504D01*
Y529291D01*
X118597Y528171D01*
X119454Y527313D01*
X120575Y526849D01*
X121787D01*
X122907Y527313D01*
X123765Y528171D01*
X124229Y529291D01*
Y530504D01*
X123765Y531624D01*
X122907Y532481D01*
X121787Y532945D01*
D02*
G37*
G36*
X525553Y531785D02*
X524341D01*
X523220Y531320D01*
X522363Y530463D01*
X521899Y529343D01*
Y528130D01*
X522363Y527010D01*
X523220Y526153D01*
X524341Y525689D01*
X525553D01*
X526673Y526153D01*
X527531Y527010D01*
X527995Y528130D01*
Y529343D01*
X527531Y530463D01*
X526673Y531320D01*
X525553Y531785D01*
D02*
G37*
G36*
X182468Y534619D02*
X181255D01*
X180135Y534155D01*
X179277Y533298D01*
X178813Y532178D01*
Y530965D01*
X179277Y529845D01*
X180135Y528987D01*
X181255Y528523D01*
X182468D01*
X183434Y528923D01*
X183960Y528699D01*
X184196Y528517D01*
Y527816D01*
X184737Y526509D01*
X185737Y525509D01*
X187044Y524967D01*
X188459D01*
X189766Y525509D01*
X190766Y526509D01*
X191308Y527816D01*
Y529230D01*
X190766Y530537D01*
X189766Y531538D01*
X188459Y532079D01*
X187044D01*
X185737Y531538D01*
X185672Y531472D01*
X184909Y531787D01*
Y532178D01*
X184445Y533298D01*
X183588Y534155D01*
X182468Y534619D01*
D02*
G37*
G36*
X14180Y526385D02*
X12967D01*
X11847Y525920D01*
X10990Y525063D01*
X10526Y523943D01*
Y522730D01*
X10990Y521610D01*
X11847Y520753D01*
X12967Y520289D01*
X14180D01*
X15300Y520753D01*
X16158Y521610D01*
X16622Y522730D01*
Y523943D01*
X16158Y525063D01*
X15300Y525920D01*
X14180Y526385D01*
D02*
G37*
G36*
X536963Y524706D02*
X535750D01*
X534630Y524241D01*
X533773Y523384D01*
X533309Y522264D01*
Y521051D01*
X533773Y519931D01*
X534630Y519074D01*
X535750Y518610D01*
X536963D01*
X538083Y519074D01*
X538941Y519931D01*
X539405Y521051D01*
Y522264D01*
X538941Y523384D01*
X538083Y524241D01*
X536963Y524706D01*
D02*
G37*
G36*
X120723Y521787D02*
X119510D01*
X118390Y521323D01*
X117533Y520466D01*
X117069Y519345D01*
Y518133D01*
X117533Y517013D01*
X118390Y516155D01*
X119510Y515691D01*
X120723D01*
X121843Y516155D01*
X122701Y517013D01*
X123165Y518133D01*
Y519345D01*
X122701Y520466D01*
X121843Y521323D01*
X120723Y521787D01*
D02*
G37*
G36*
X291744Y520974D02*
X290531D01*
X289411Y520510D01*
X288553Y519653D01*
X288089Y518533D01*
Y517320D01*
X288553Y516200D01*
X288654Y516099D01*
X288222Y515453D01*
X287979Y515554D01*
X286767D01*
X285646Y515090D01*
X284789Y514232D01*
X284346Y513163D01*
X284160Y513102D01*
X283563Y513062D01*
X283561Y513067D01*
X282704Y513924D01*
X281584Y514388D01*
X280371D01*
X279251Y513924D01*
X278393Y513067D01*
X277929Y511946D01*
Y510734D01*
X278393Y509613D01*
X279251Y508756D01*
X280371Y508292D01*
X281584D01*
X282704Y508756D01*
X283561Y509613D01*
X284004Y510683D01*
X284190Y510745D01*
X284787Y510784D01*
X284789Y510779D01*
X285646Y509922D01*
X286767Y509458D01*
X287979D01*
X289100Y509922D01*
X289957Y510779D01*
X290421Y511900D01*
Y513112D01*
X289957Y514232D01*
X289857Y514333D01*
X290288Y514979D01*
X290531Y514878D01*
X291744D01*
X292864Y515342D01*
X293721Y516200D01*
X294185Y517320D01*
Y518533D01*
X293721Y519653D01*
X292864Y520510D01*
X291744Y520974D01*
D02*
G37*
G36*
X273179Y516860D02*
X271966D01*
X270846Y516395D01*
X269988Y515538D01*
X269524Y514418D01*
Y513205D01*
X269988Y512085D01*
X270846Y511228D01*
X271966Y510764D01*
X273179D01*
X274299Y511228D01*
X275156Y512085D01*
X275620Y513205D01*
Y514418D01*
X275156Y515538D01*
X274299Y516395D01*
X273179Y516860D01*
D02*
G37*
G36*
X333351Y513568D02*
X332139D01*
X331018Y513104D01*
X330161Y512246D01*
X329697Y511126D01*
Y509913D01*
X330161Y508793D01*
X331018Y507936D01*
X332139Y507472D01*
X333351D01*
X334472Y507936D01*
X335329Y508793D01*
X335793Y509913D01*
Y511126D01*
X335329Y512246D01*
X334472Y513104D01*
X333351Y513568D01*
D02*
G37*
G36*
X321667D02*
X320455D01*
X319335Y513104D01*
X318477Y512246D01*
X318013Y511126D01*
Y509913D01*
X318477Y508793D01*
X319335Y507936D01*
X320455Y507472D01*
X321667D01*
X322788Y507936D01*
X323645Y508793D01*
X324109Y509913D01*
Y511126D01*
X323645Y512246D01*
X322788Y513104D01*
X321667Y513568D01*
D02*
G37*
G36*
X340608Y510268D02*
X339396D01*
X338275Y509804D01*
X337418Y508947D01*
X336954Y507826D01*
Y506614D01*
X337418Y505494D01*
X338275Y504636D01*
X339396Y504172D01*
X340608D01*
X341728Y504636D01*
X342586Y505494D01*
X343050Y506614D01*
Y507826D01*
X342586Y508947D01*
X341728Y509804D01*
X340608Y510268D01*
D02*
G37*
G36*
X610928Y506527D02*
X609715D01*
X608595Y506063D01*
X607737Y505205D01*
X607273Y504085D01*
Y502873D01*
X607737Y501752D01*
X608595Y500895D01*
X609715Y500431D01*
X610928D01*
X612048Y500895D01*
X612905Y501752D01*
X613086Y502188D01*
X613910D01*
X614113Y501699D01*
X614970Y500841D01*
X616091Y500378D01*
X617303D01*
X618423Y500841D01*
X619281Y501699D01*
X619745Y502819D01*
Y504032D01*
X619281Y505152D01*
X618423Y506009D01*
X617303Y506474D01*
X616091D01*
X614970Y506009D01*
X614113Y505152D01*
X613932Y504717D01*
X613108D01*
X612905Y505205D01*
X612048Y506063D01*
X610928Y506527D01*
D02*
G37*
G36*
X37853Y494932D02*
X36640D01*
X35520Y494468D01*
X34663Y493610D01*
X34199Y492490D01*
Y491277D01*
X34663Y490157D01*
X35520Y489300D01*
X36640Y488836D01*
X37853D01*
X38973Y489300D01*
X39831Y490157D01*
X40295Y491277D01*
Y492490D01*
X39831Y493610D01*
X38973Y494468D01*
X37853Y494932D01*
D02*
G37*
G36*
X274007Y494076D02*
X272794D01*
X271674Y493612D01*
X270817Y492754D01*
X270352Y491634D01*
Y490421D01*
X270817Y489301D01*
X271674Y488444D01*
X272794Y487980D01*
X274007D01*
X275127Y488444D01*
X275984Y489301D01*
X276448Y490421D01*
Y491634D01*
X275984Y492754D01*
X275127Y493612D01*
X274007Y494076D01*
D02*
G37*
G36*
X305335Y491564D02*
X304123D01*
X303002Y491100D01*
X302145Y490242D01*
X301681Y489122D01*
Y487909D01*
X302145Y486789D01*
X303002Y485932D01*
X304123Y485468D01*
X305335D01*
X306455Y485932D01*
X307313Y486789D01*
X307777Y487909D01*
Y489122D01*
X307313Y490242D01*
X306455Y491100D01*
X305335Y491564D01*
D02*
G37*
G36*
X295714D02*
X294501D01*
X293381Y491100D01*
X292523Y490242D01*
X292059Y489122D01*
Y487909D01*
X292523Y486789D01*
X293381Y485932D01*
X294501Y485468D01*
X295714D01*
X296834Y485932D01*
X297691Y486789D01*
X298155Y487909D01*
Y489122D01*
X297691Y490242D01*
X296834Y491100D01*
X295714Y491564D01*
D02*
G37*
G36*
X239795Y491132D02*
X238583D01*
X237463Y490668D01*
X236605Y489810D01*
X236141Y488690D01*
Y487478D01*
X236605Y486357D01*
X237463Y485500D01*
X238583Y485036D01*
X239795D01*
X240916Y485500D01*
X241773Y486357D01*
X242237Y487478D01*
Y488690D01*
X241773Y489810D01*
X240916Y490668D01*
X239795Y491132D01*
D02*
G37*
G36*
X619429Y492115D02*
X618217D01*
X617096Y491651D01*
X616239Y490793D01*
X615775Y489673D01*
Y488461D01*
X616239Y487340D01*
X617096Y486483D01*
X617346Y486380D01*
Y485555D01*
X617015Y485418D01*
X616157Y484560D01*
X615694Y483440D01*
Y482227D01*
X616157Y481107D01*
X617015Y480250D01*
X618135Y479786D01*
X619348D01*
X620468Y480250D01*
X621325Y481107D01*
X621790Y482227D01*
Y483440D01*
X621325Y484560D01*
X620468Y485418D01*
X620218Y485521D01*
Y486346D01*
X620549Y486483D01*
X621407Y487340D01*
X621871Y488461D01*
Y489673D01*
X621407Y490793D01*
X620549Y491651D01*
X619429Y492115D01*
D02*
G37*
G36*
X683986Y485597D02*
X682773D01*
X681653Y485133D01*
X680795Y484276D01*
X680331Y483156D01*
Y481943D01*
X680795Y480823D01*
X681653Y479965D01*
X682773Y479501D01*
X683986D01*
X685106Y479965D01*
X685963Y480823D01*
X686427Y481943D01*
Y483156D01*
X685963Y484276D01*
X685106Y485133D01*
X683986Y485597D01*
D02*
G37*
G36*
X424791Y480164D02*
X423579D01*
X422458Y479700D01*
X421601Y478843D01*
X421137Y477722D01*
Y476510D01*
X421601Y475390D01*
X422458Y474532D01*
X423579Y474068D01*
X424791D01*
X425912Y474532D01*
X426769Y475390D01*
X427233Y476510D01*
Y477722D01*
X426769Y478843D01*
X425912Y479700D01*
X424791Y480164D01*
D02*
G37*
G36*
X228368Y470698D02*
X227155D01*
X226035Y470233D01*
X225178Y469376D01*
X224714Y468256D01*
Y467043D01*
X225178Y465923D01*
X226035Y465066D01*
X227155Y464602D01*
X228368D01*
X229488Y465066D01*
X230346Y465923D01*
X230810Y467043D01*
Y468256D01*
X230346Y469376D01*
X229488Y470233D01*
X228368Y470698D01*
D02*
G37*
G36*
X208980Y470319D02*
X207768D01*
X206647Y469855D01*
X205790Y468998D01*
X205326Y467877D01*
Y466665D01*
X205790Y465545D01*
X206647Y464687D01*
X207768Y464223D01*
X208980D01*
X210100Y464687D01*
X210958Y465545D01*
X211422Y466665D01*
Y467877D01*
X210958Y468998D01*
X210100Y469855D01*
X208980Y470319D01*
D02*
G37*
G36*
X263268Y469938D02*
X262055D01*
X260935Y469474D01*
X260077Y468617D01*
X259613Y467496D01*
Y466284D01*
X260077Y465163D01*
X260935Y464306D01*
X262055Y463842D01*
X263268D01*
X264388Y464306D01*
X265245Y465163D01*
X265709Y466284D01*
Y467496D01*
X265245Y468617D01*
X264388Y469474D01*
X263268Y469938D01*
D02*
G37*
G36*
X69148Y467942D02*
X67936D01*
X66815Y467478D01*
X65958Y466620D01*
X65494Y465500D01*
Y464287D01*
X65958Y463167D01*
X66815Y462310D01*
X67936Y461846D01*
X69148D01*
X70269Y462310D01*
X70660Y462701D01*
X71559Y462523D01*
X71569Y462499D01*
X72426Y461642D01*
X73547Y461178D01*
X74759D01*
X75879Y461642D01*
X76737Y462499D01*
X77201Y463619D01*
Y464832D01*
X76737Y465952D01*
X75879Y466810D01*
X74759Y467274D01*
X73547D01*
X72426Y466810D01*
X72035Y466418D01*
X71136Y466597D01*
X71126Y466620D01*
X70269Y467478D01*
X69148Y467942D01*
D02*
G37*
G36*
X694616Y464271D02*
X693403D01*
X692283Y463807D01*
X691425Y462950D01*
X690961Y461830D01*
Y460617D01*
X691425Y459497D01*
X692283Y458639D01*
X693403Y458175D01*
X694616D01*
X695736Y458639D01*
X696593Y459497D01*
X697057Y460617D01*
Y461830D01*
X696593Y462950D01*
X695736Y463807D01*
X694616Y464271D01*
D02*
G37*
G36*
X683986Y463824D02*
X682773D01*
X681653Y463360D01*
X680795Y462503D01*
X680331Y461383D01*
Y460170D01*
X680795Y459050D01*
X681653Y458192D01*
X682773Y457728D01*
X683986D01*
X685106Y458192D01*
X685963Y459050D01*
X686427Y460170D01*
Y461383D01*
X685963Y462503D01*
X685106Y463360D01*
X683986Y463824D01*
D02*
G37*
G36*
X227918Y462145D02*
X226706D01*
X225586Y461681D01*
X224728Y460824D01*
X224264Y459704D01*
Y458491D01*
X224728Y457371D01*
X225586Y456513D01*
X226706Y456049D01*
X227918D01*
X229039Y456513D01*
X229896Y457371D01*
X230360Y458491D01*
Y459704D01*
X229896Y460824D01*
X229039Y461681D01*
X227918Y462145D01*
D02*
G37*
G36*
X196044Y461769D02*
X194832D01*
X193711Y461305D01*
X192854Y460448D01*
X192390Y459328D01*
Y458115D01*
X192854Y456995D01*
X193711Y456138D01*
X194832Y455673D01*
X196044D01*
X197164Y456138D01*
X198022Y456995D01*
X198070Y457111D01*
X198337Y457136D01*
X198863Y457035D01*
X199267Y456060D01*
X200125Y455203D01*
X201245Y454739D01*
X202458D01*
X203578Y455203D01*
X204435Y456060D01*
X204899Y457180D01*
Y458393D01*
X204435Y459513D01*
X203578Y460371D01*
X202458Y460835D01*
X201245D01*
X200125Y460371D01*
X199267Y459513D01*
X199219Y459397D01*
X198952Y459372D01*
X198426Y459473D01*
X198022Y460448D01*
X197164Y461305D01*
X196044Y461769D01*
D02*
G37*
G36*
X33545Y459961D02*
X32332D01*
X31212Y459497D01*
X30355Y458639D01*
X29891Y457519D01*
Y456307D01*
X30355Y455186D01*
X31212Y454329D01*
X32332Y453865D01*
X33545D01*
X34665Y454329D01*
X35523Y455186D01*
X35987Y456307D01*
Y457519D01*
X35523Y458639D01*
X34665Y459497D01*
X33545Y459961D01*
D02*
G37*
G36*
X214637Y457515D02*
X213424D01*
X212304Y457051D01*
X211447Y456194D01*
X210983Y455073D01*
Y453861D01*
X211447Y452740D01*
X212304Y451883D01*
X213424Y451419D01*
X214637D01*
X215757Y451883D01*
X216614Y452740D01*
X217079Y453861D01*
Y455073D01*
X216614Y456194D01*
X215757Y457051D01*
X214637Y457515D01*
D02*
G37*
G36*
X422323Y455475D02*
X421110D01*
X419990Y455011D01*
X419132Y454154D01*
X418668Y453034D01*
Y451821D01*
X419132Y450701D01*
X419990Y449843D01*
X421110Y449379D01*
X422323D01*
X423443Y449843D01*
X424300Y450701D01*
X424764Y451821D01*
Y453034D01*
X424300Y454154D01*
X423443Y455011D01*
X422323Y455475D01*
D02*
G37*
G36*
X177606Y455298D02*
X176394D01*
X175273Y454833D01*
X174416Y453976D01*
X173952Y452856D01*
Y451643D01*
X174416Y450523D01*
X175273Y449666D01*
X176394Y449202D01*
X177606D01*
X178727Y449666D01*
X179584Y450523D01*
X180048Y451643D01*
Y452856D01*
X179584Y453976D01*
X178727Y454833D01*
X177606Y455298D01*
D02*
G37*
G36*
X696998Y451401D02*
X695786D01*
X694665Y450937D01*
X693808Y450080D01*
X693456Y449230D01*
X692897Y448943D01*
X692582Y448932D01*
X691623Y449328D01*
X690411D01*
X689291Y448865D01*
X688433Y448007D01*
X687969Y446887D01*
Y446680D01*
X687222Y446643D01*
X686758Y447763D01*
X685901Y448621D01*
X684781Y449085D01*
X683568D01*
X682448Y448621D01*
X681737Y447910D01*
X681487Y447775D01*
X680802Y447850D01*
X680234Y448418D01*
X679114Y448881D01*
X677901D01*
X676781Y448418D01*
X675924Y447560D01*
X675460Y446440D01*
Y445227D01*
X675924Y444107D01*
X676781Y443250D01*
X677901Y442785D01*
X679114D01*
X680234Y443250D01*
X680945Y443960D01*
X681195Y444096D01*
X681880Y444020D01*
X682448Y443453D01*
X683568Y442989D01*
X684781D01*
X685901Y443453D01*
X686758Y444310D01*
X687222Y445430D01*
Y445638D01*
X687969Y445674D01*
X688433Y444554D01*
X689291Y443697D01*
X690411Y443232D01*
X691623D01*
X692744Y443697D01*
X693601Y444554D01*
X693953Y445404D01*
X694512Y445691D01*
X694827Y445702D01*
X695786Y445305D01*
X696998D01*
X698118Y445769D01*
X698976Y446627D01*
X699440Y447747D01*
Y448960D01*
X698976Y450080D01*
X698118Y450937D01*
X696998Y451401D01*
D02*
G37*
G36*
X47479Y452486D02*
X46267D01*
X45147Y452022D01*
X44289Y451164D01*
X43825Y450044D01*
Y448831D01*
X44289Y447711D01*
X45147Y446854D01*
X46267Y446390D01*
X47479D01*
X48600Y446854D01*
X49457Y447711D01*
X49921Y448831D01*
Y450044D01*
X49457Y451164D01*
X48600Y452022D01*
X47479Y452486D01*
D02*
G37*
G36*
X484370Y461196D02*
X482529Y461068D01*
X480765Y460528D01*
X479169Y459604D01*
X477822Y458342D01*
X477309Y457576D01*
Y448605D01*
X477963Y447628D01*
X479775Y446129D01*
X481939Y445210D01*
X484275Y444948D01*
X485432Y445155D01*
X490022Y449745D01*
X490022Y458457D01*
X489408Y459146D01*
X487900Y460209D01*
X486191Y460904D01*
X484370Y461196D01*
D02*
G37*
G36*
X431261Y450563D02*
X430048D01*
X428928Y450099D01*
X428070Y449241D01*
X427607Y448121D01*
Y446909D01*
X428070Y445788D01*
X428928Y444931D01*
X430048Y444467D01*
X431261D01*
X432381Y444931D01*
X433238Y445788D01*
X433703Y446909D01*
Y448121D01*
X433238Y449241D01*
X432381Y450099D01*
X431261Y450563D01*
D02*
G37*
G36*
X177682Y447197D02*
X176470D01*
X175350Y446733D01*
X174492Y445876D01*
X174028Y444756D01*
Y443543D01*
X174492Y442423D01*
X175350Y441566D01*
X176470Y441101D01*
X177682D01*
X178803Y441566D01*
X179660Y442423D01*
X180124Y443543D01*
Y444756D01*
X179660Y445876D01*
X178803Y446733D01*
X177682Y447197D01*
D02*
G37*
G36*
X460110Y465413D02*
X456887Y465386D01*
X453779Y464529D01*
X450996Y462901D01*
X448726Y460612D01*
X447122Y457816D01*
X446292Y454701D01*
Y451477D01*
X447122Y448362D01*
X448726Y445566D01*
X450996Y443276D01*
X453779Y441649D01*
X456887Y440793D01*
X460110Y440765D01*
X463232Y441569D01*
X466042Y443149D01*
X468350Y445399D01*
X469176Y446783D01*
X469176Y446783D01*
X469176Y459395D01*
X468350Y460779D01*
X466042Y463029D01*
X463232Y464609D01*
X460110Y465413D01*
D02*
G37*
G36*
X595863Y465505D02*
X592649Y465082D01*
X589655Y463842D01*
X587084Y461869D01*
X585110Y459297D01*
X583870Y456303D01*
X583447Y453090D01*
X583870Y449876D01*
X585110Y446882D01*
X587084Y444310D01*
X589655Y442337D01*
X592649Y441097D01*
X595863Y440674D01*
X599076Y441097D01*
X602071Y442337D01*
X604642Y444310D01*
X606615Y446882D01*
X607856Y449876D01*
X608279Y453090D01*
X607856Y456303D01*
X606615Y459297D01*
X604642Y461869D01*
X602071Y463842D01*
X599076Y465082D01*
X595863Y465505D01*
D02*
G37*
G36*
X434504Y442636D02*
X433292D01*
X432172Y442172D01*
X431314Y441314D01*
X430850Y440194D01*
Y438981D01*
X431314Y437861D01*
X432172Y437004D01*
X433292Y436540D01*
X434504D01*
X435625Y437004D01*
X436482Y437861D01*
X436946Y438981D01*
Y440194D01*
X436482Y441314D01*
X435625Y442172D01*
X434504Y442636D01*
D02*
G37*
G36*
X624623Y442567D02*
X623411D01*
X622290Y442103D01*
X621433Y441246D01*
X620969Y440125D01*
Y438913D01*
X621433Y437793D01*
X622290Y436935D01*
X623411Y436471D01*
X624623D01*
X625744Y436935D01*
X626601Y437793D01*
X627065Y438913D01*
Y440125D01*
X626601Y441246D01*
X625744Y442103D01*
X624623Y442567D01*
D02*
G37*
G36*
X18701Y439677D02*
X17489D01*
X16368Y439212D01*
X15511Y438355D01*
X15047Y437235D01*
Y436022D01*
X15511Y434902D01*
X16368Y434045D01*
X17489Y433581D01*
X18701D01*
X19821Y434045D01*
X20679Y434902D01*
X21143Y436022D01*
Y437235D01*
X20679Y438355D01*
X19821Y439212D01*
X18701Y439677D01*
D02*
G37*
G36*
X150514Y439217D02*
X149302D01*
X148182Y438753D01*
X147324Y437895D01*
X146860Y436775D01*
Y435563D01*
X147324Y434442D01*
X148182Y433585D01*
X149302Y433121D01*
X150514D01*
X151635Y433585D01*
X152492Y434442D01*
X152956Y435563D01*
Y436775D01*
X152492Y437895D01*
X151635Y438753D01*
X150514Y439217D01*
D02*
G37*
G36*
X425185Y439057D02*
X423973D01*
X422852Y438593D01*
X421995Y437735D01*
X421531Y436615D01*
Y435402D01*
X421995Y434282D01*
X422852Y433425D01*
X423973Y432961D01*
X425185D01*
X426305Y433425D01*
X427163Y434282D01*
X427627Y435402D01*
Y436615D01*
X427163Y437735D01*
X426305Y438593D01*
X425185Y439057D01*
D02*
G37*
G36*
X607240Y426588D02*
X606027D01*
X604907Y426124D01*
X604049Y425266D01*
X603585Y424146D01*
X602879Y424024D01*
X602415Y425145D01*
X601558Y426002D01*
X600437Y426466D01*
X599225D01*
X598105Y426002D01*
X597247Y425145D01*
X596783Y424024D01*
Y422812D01*
X597247Y421691D01*
X598105Y420834D01*
X599225Y420370D01*
X600437D01*
X601558Y420834D01*
X602415Y421691D01*
X602879Y422812D01*
X603585Y422934D01*
X604049Y421813D01*
X604907Y420956D01*
X606027Y420492D01*
X607240D01*
X608360Y420956D01*
X609217Y421813D01*
X609681Y422934D01*
Y424146D01*
X609217Y425266D01*
X608360Y426124D01*
X607240Y426588D01*
D02*
G37*
G36*
X453346Y427766D02*
X452133D01*
X451013Y427302D01*
X450156Y426445D01*
X449692Y425325D01*
Y424112D01*
X450156Y422992D01*
X451013Y422135D01*
X452133Y421670D01*
X453346D01*
X454466Y422135D01*
X455324Y422992D01*
X455788Y424112D01*
Y425325D01*
X455324Y426445D01*
X454466Y427302D01*
X453346Y427766D01*
D02*
G37*
G36*
X387486Y426296D02*
X386274D01*
X385154Y425832D01*
X384296Y424974D01*
X383832Y423854D01*
Y422641D01*
X384296Y421521D01*
X385154Y420664D01*
X386274Y420200D01*
X387486D01*
X388607Y420664D01*
X389464Y421521D01*
X389928Y422641D01*
Y423854D01*
X389464Y424974D01*
X388607Y425832D01*
X387486Y426296D01*
D02*
G37*
G36*
X359676Y425973D02*
X358463D01*
X357343Y425509D01*
X356486Y424652D01*
X356022Y423531D01*
Y422319D01*
X356486Y421199D01*
X357343Y420341D01*
X358463Y419877D01*
X359676D01*
X360796Y420341D01*
X361654Y421199D01*
X362118Y422319D01*
Y423531D01*
X361654Y424652D01*
X360796Y425509D01*
X359676Y425973D01*
D02*
G37*
G36*
X517997Y425633D02*
X516784D01*
X515664Y425169D01*
X514806Y424311D01*
X514342Y423191D01*
Y421979D01*
X514806Y420858D01*
X515664Y420001D01*
X516784Y419537D01*
X517997D01*
X519117Y420001D01*
X519974Y420858D01*
X520438Y421979D01*
Y423191D01*
X519974Y424311D01*
X519117Y425169D01*
X517997Y425633D01*
D02*
G37*
G36*
X339450Y425521D02*
X338237D01*
X337117Y425057D01*
X336260Y424200D01*
X335796Y423079D01*
Y421867D01*
X336260Y420747D01*
X337117Y419889D01*
X338237Y419425D01*
X339450D01*
X340570Y419889D01*
X341428Y420747D01*
X341892Y421867D01*
Y423079D01*
X341428Y424200D01*
X340570Y425057D01*
X339450Y425521D01*
D02*
G37*
G36*
X326445D02*
X325233D01*
X324112Y425057D01*
X323255Y424200D01*
X322791Y423079D01*
Y421867D01*
X323255Y420747D01*
X324112Y419889D01*
X325233Y419425D01*
X326445D01*
X327565Y419889D01*
X328423Y420747D01*
X328887Y421867D01*
Y423079D01*
X328423Y424200D01*
X327565Y425057D01*
X326445Y425521D01*
D02*
G37*
G36*
X313440D02*
X312228D01*
X311108Y425057D01*
X310250Y424200D01*
X309786Y423079D01*
Y421867D01*
X310250Y420747D01*
X311108Y419889D01*
X312228Y419425D01*
X313440D01*
X314561Y419889D01*
X315418Y420747D01*
X315882Y421867D01*
Y423079D01*
X315418Y424200D01*
X314561Y425057D01*
X313440Y425521D01*
D02*
G37*
G36*
X300436D02*
X299223D01*
X298103Y425057D01*
X297245Y424200D01*
X296781Y423079D01*
Y421867D01*
X297245Y420747D01*
X298103Y419889D01*
X299223Y419425D01*
X300436D01*
X301556Y419889D01*
X302413Y420747D01*
X302877Y421867D01*
Y423079D01*
X302413Y424200D01*
X301556Y425057D01*
X300436Y425521D01*
D02*
G37*
G36*
X372043Y425478D02*
X370831D01*
X369710Y425014D01*
X368853Y424156D01*
X368389Y423036D01*
Y421824D01*
X368853Y420703D01*
X369710Y419846D01*
X370831Y419382D01*
X372043D01*
X373163Y419846D01*
X374021Y420703D01*
X374485Y421824D01*
Y423036D01*
X374021Y424156D01*
X373163Y425014D01*
X372043Y425478D01*
D02*
G37*
G36*
X567443Y424490D02*
X566230D01*
X565110Y424026D01*
X564253Y423168D01*
X563789Y422048D01*
Y420836D01*
X564253Y419715D01*
X565110Y418858D01*
X566230Y418394D01*
X567443D01*
X568563Y418858D01*
X569421Y419715D01*
X569885Y420836D01*
Y422048D01*
X569421Y423168D01*
X568563Y424026D01*
X567443Y424490D01*
D02*
G37*
G36*
X378177Y417523D02*
X376965D01*
X375844Y417059D01*
X375205Y416419D01*
X374741Y416272D01*
X374250Y416414D01*
X373618Y417046D01*
X372498Y417510D01*
X371285D01*
X370165Y417046D01*
X369308Y416189D01*
X368844Y415068D01*
Y413856D01*
X369308Y412735D01*
X370165Y411878D01*
X371285Y411414D01*
X372498D01*
X373618Y411878D01*
X374258Y412518D01*
X374722Y412664D01*
X375212Y412523D01*
X375844Y411891D01*
X376965Y411427D01*
X378177D01*
X379298Y411891D01*
X380155Y412748D01*
X380387Y413308D01*
X381212D01*
X381505Y412601D01*
X382362Y411743D01*
X383482Y411279D01*
X384695D01*
X385815Y411743D01*
X386673Y412601D01*
X387137Y413721D01*
Y414934D01*
X386673Y416054D01*
X385815Y416911D01*
X384695Y417375D01*
X383482D01*
X382362Y416911D01*
X381505Y416054D01*
X381273Y415494D01*
X380448D01*
X380155Y416201D01*
X379298Y417059D01*
X378177Y417523D01*
D02*
G37*
G36*
X458764Y421292D02*
X457551D01*
X456431Y420828D01*
X455574Y419971D01*
X455110Y418850D01*
Y417638D01*
X455574Y416517D01*
X456431Y415660D01*
X457551Y415196D01*
X458764D01*
X459884Y415660D01*
X460742Y416517D01*
X461206Y417638D01*
Y418850D01*
X460742Y419971D01*
X459884Y420828D01*
X458764Y421292D01*
D02*
G37*
G36*
X649035Y421206D02*
X647823D01*
X646702Y420742D01*
X645845Y419884D01*
X645381Y418764D01*
Y417551D01*
X645845Y416431D01*
X646702Y415574D01*
X647823Y415110D01*
X649035D01*
X650155Y415574D01*
X650535Y415953D01*
X651161Y416294D01*
X651530Y415953D01*
X652036Y415447D01*
X653157Y414983D01*
X654369D01*
X655490Y415447D01*
X656347Y416304D01*
X656811Y417424D01*
Y418637D01*
X656347Y419757D01*
X655490Y420615D01*
X654369Y421079D01*
X653157D01*
X652036Y420615D01*
X651657Y420235D01*
X651031Y419894D01*
X650662Y420235D01*
X650155Y420742D01*
X649035Y421206D01*
D02*
G37*
G36*
X632330Y421546D02*
X631117D01*
X629997Y421082D01*
X629139Y420225D01*
X628675Y419104D01*
Y417892D01*
X629139Y416772D01*
X629997Y415914D01*
X631117Y415450D01*
X632330D01*
X633450Y415914D01*
X633735Y416199D01*
X634685Y416072D01*
X635311Y415447D01*
X636431Y414983D01*
X637643D01*
X638764Y415447D01*
X639621Y416304D01*
X640085Y417424D01*
Y418637D01*
X639621Y419757D01*
X638764Y420615D01*
X637643Y421079D01*
X636431D01*
X635311Y420615D01*
X635026Y420330D01*
X634075Y420457D01*
X633450Y421082D01*
X632330Y421546D01*
D02*
G37*
G36*
X707747Y421190D02*
X706535D01*
X705415Y420726D01*
X704557Y419869D01*
X704093Y418749D01*
Y417536D01*
X704557Y416416D01*
X705415Y415559D01*
X706535Y415094D01*
X707747D01*
X708868Y415559D01*
X709101Y415792D01*
X710004Y415617D01*
X710710Y414911D01*
X711831Y414447D01*
X713043D01*
X714164Y414911D01*
X715021Y415768D01*
X715485Y416888D01*
Y418101D01*
X715021Y419221D01*
X714164Y420079D01*
X713043Y420543D01*
X711831D01*
X710710Y420079D01*
X710477Y419846D01*
X709681Y419913D01*
X708868Y420726D01*
X707747Y421190D01*
D02*
G37*
G36*
X496651Y425501D02*
X495438D01*
X494318Y425037D01*
X493460Y424179D01*
X492996Y423059D01*
Y421847D01*
X493460Y420726D01*
X493839Y420347D01*
X494292Y419842D01*
X493839Y419352D01*
X493453Y418965D01*
X492989Y417845D01*
Y416632D01*
X493453Y415512D01*
X494265Y414699D01*
X494308Y414605D01*
X494278Y413843D01*
X494065Y413728D01*
X493933Y413861D01*
X492813Y414325D01*
X491600D01*
X490480Y413861D01*
X489622Y413003D01*
X489158Y411883D01*
Y410671D01*
X489622Y409550D01*
X490480Y408693D01*
X491600Y408229D01*
X492813D01*
X493933Y408693D01*
X494790Y409550D01*
X495223Y409636D01*
X495649Y409211D01*
X496769Y408747D01*
X497981D01*
X499102Y409211D01*
X499959Y410068D01*
X500423Y411189D01*
Y412401D01*
X499959Y413521D01*
X499102Y414379D01*
X498723Y414536D01*
X498544Y415435D01*
X498621Y415512D01*
X499085Y416632D01*
Y417845D01*
X498621Y418965D01*
X498241Y419344D01*
X497788Y419849D01*
X498241Y420340D01*
X498628Y420726D01*
X499092Y421847D01*
Y423059D01*
X498628Y424179D01*
X497771Y425037D01*
X496651Y425501D01*
D02*
G37*
G36*
X659640Y413560D02*
X658427D01*
X657307Y413096D01*
X656788Y412577D01*
X656290Y412321D01*
X655792Y412577D01*
X655274Y413096D01*
X654153Y413560D01*
X652941D01*
X651821Y413096D01*
X650963Y412239D01*
X650499Y411119D01*
Y409906D01*
X650963Y408786D01*
X651821Y407928D01*
X652941Y407464D01*
X654153D01*
X655274Y407928D01*
X655792Y408447D01*
X656290Y408704D01*
X656788Y408447D01*
X657307Y407928D01*
X658427Y407464D01*
X659640D01*
X660760Y407928D01*
X661617Y408786D01*
X662082Y409906D01*
Y411119D01*
X661617Y412239D01*
X660760Y413096D01*
X659640Y413560D01*
D02*
G37*
G36*
X404416Y417982D02*
X403203D01*
X402083Y417518D01*
X401225Y416661D01*
X400761Y415541D01*
Y414328D01*
X401225Y413208D01*
X402083Y412350D01*
X403203Y411886D01*
X404416D01*
X405536Y412350D01*
X406393Y413208D01*
X406857Y414328D01*
Y415541D01*
X406393Y416661D01*
X405536Y417518D01*
X404416Y417982D01*
D02*
G37*
G36*
X465500Y417540D02*
X464287D01*
X463167Y417076D01*
X462310Y416219D01*
X461846Y415099D01*
Y413886D01*
X462310Y412766D01*
X463167Y411908D01*
X464287Y411444D01*
X465500D01*
X466620Y411908D01*
X467478Y412766D01*
X467942Y413886D01*
Y415099D01*
X467478Y416219D01*
X466620Y417076D01*
X465500Y417540D01*
D02*
G37*
G36*
X557727Y425092D02*
X556515D01*
X555395Y424628D01*
X554537Y423770D01*
X554073Y422650D01*
Y421438D01*
X554537Y420317D01*
X555350Y419504D01*
X554537Y418690D01*
X554073Y417570D01*
Y416358D01*
X554537Y415237D01*
X555074Y414701D01*
X555328Y414240D01*
X555074Y413705D01*
X554570Y413201D01*
X554106Y412081D01*
Y410869D01*
X554570Y409748D01*
X555428Y408891D01*
X556548Y408427D01*
X557760D01*
X558881Y408891D01*
X559667Y409678D01*
X560508Y408838D01*
X561628Y408374D01*
X562840D01*
X563961Y408838D01*
X564818Y409695D01*
X565282Y410815D01*
Y412028D01*
X564818Y413148D01*
X563961Y414006D01*
X562840Y414470D01*
X561628D01*
X560508Y414006D01*
X559721Y413219D01*
X559201Y413738D01*
X558947Y414199D01*
X559201Y414734D01*
X559705Y415237D01*
X560169Y416358D01*
Y417570D01*
X559705Y418690D01*
X558892Y419504D01*
X559705Y420317D01*
X560169Y421438D01*
Y422650D01*
X559705Y423770D01*
X558848Y424628D01*
X557727Y425092D01*
D02*
G37*
G36*
X121559Y419367D02*
X120346D01*
X119226Y418903D01*
X118368Y418045D01*
X117904Y416925D01*
Y415712D01*
X118368Y414592D01*
X118915Y414045D01*
X119164Y413599D01*
X118915Y413050D01*
X118414Y412549D01*
X117950Y411428D01*
Y410216D01*
X118414Y409096D01*
X119271Y408238D01*
X120392Y407774D01*
X121604D01*
X122725Y408238D01*
X123582Y409096D01*
X124046Y410216D01*
Y411428D01*
X123582Y412549D01*
X123035Y413096D01*
X122786Y413542D01*
X123035Y414091D01*
X123536Y414592D01*
X124000Y415712D01*
Y416925D01*
X123536Y418045D01*
X122679Y418903D01*
X121559Y419367D01*
D02*
G37*
G36*
X506699Y425356D02*
X505486D01*
X504366Y424892D01*
X503508Y424035D01*
X503045Y422914D01*
Y421702D01*
X503508Y420582D01*
X503852Y420238D01*
X503855Y419174D01*
X503635Y418955D01*
X503172Y417834D01*
Y416622D01*
X503635Y415502D01*
X504493Y414644D01*
X504503Y414640D01*
X504652Y413893D01*
X504611Y413852D01*
X504147Y412731D01*
Y411519D01*
X504611Y410399D01*
X504930Y410079D01*
X504930Y409002D01*
X504679Y408751D01*
X504215Y407631D01*
Y406419D01*
X504571Y405561D01*
X504017Y404965D01*
X503270Y405275D01*
X502057D01*
X500937Y404811D01*
X500079Y403953D01*
X499616Y402833D01*
Y401620D01*
X500079Y400500D01*
X500937Y399643D01*
X502057Y399179D01*
X503270D01*
X504390Y399643D01*
X505247Y400500D01*
X505712Y401620D01*
Y402833D01*
X505356Y403691D01*
X505910Y404286D01*
X506657Y403977D01*
X507870D01*
X508990Y404441D01*
X509847Y405298D01*
X510311Y406419D01*
Y407631D01*
X509847Y408751D01*
X509528Y409071D01*
X509528Y410148D01*
X509779Y410399D01*
X510243Y411519D01*
Y412731D01*
X509779Y413852D01*
X508921Y414709D01*
X508911Y414713D01*
X508763Y415461D01*
X508803Y415502D01*
X509268Y416622D01*
Y417834D01*
X508803Y418955D01*
X508460Y419298D01*
X508457Y420362D01*
X508676Y420582D01*
X509141Y421702D01*
Y422914D01*
X508676Y424035D01*
X507819Y424892D01*
X506699Y425356D01*
D02*
G37*
G36*
X468553Y411056D02*
X467341D01*
X466220Y410592D01*
X465363Y409734D01*
X464899Y408614D01*
Y407402D01*
X465363Y406281D01*
X466220Y405424D01*
X467341Y404960D01*
X468553D01*
X469673Y405424D01*
X470531Y406281D01*
X470995Y407402D01*
Y408614D01*
X470531Y409734D01*
X469673Y410592D01*
X468553Y411056D01*
D02*
G37*
G36*
X91663Y417462D02*
X90450D01*
X89330Y416998D01*
X88472Y416140D01*
X88008Y415020D01*
Y413807D01*
X88472Y412687D01*
X89330Y411830D01*
X90004Y411550D01*
Y410726D01*
X89454Y410498D01*
X88597Y409640D01*
X88133Y408520D01*
Y407308D01*
X88597Y406187D01*
X89454Y405330D01*
X90575Y404866D01*
X91787D01*
X92907Y405330D01*
X93765Y406187D01*
X94229Y407308D01*
Y408520D01*
X93765Y409640D01*
X92907Y410498D01*
X92233Y410777D01*
Y411602D01*
X92783Y411830D01*
X93640Y412687D01*
X94104Y413807D01*
Y415020D01*
X93640Y416140D01*
X92783Y416998D01*
X91663Y417462D01*
D02*
G37*
G36*
X518454Y415270D02*
X517241D01*
X516121Y414806D01*
X515264Y413948D01*
X514800Y412828D01*
Y411615D01*
X515264Y410495D01*
X515892Y409866D01*
X515852Y409662D01*
X514994Y408805D01*
X514530Y407685D01*
Y406472D01*
X514994Y405352D01*
X515852Y404494D01*
X516972Y404030D01*
X518185D01*
X519305Y404494D01*
X520162Y405352D01*
X520626Y406472D01*
Y407685D01*
X520162Y408805D01*
X519534Y409434D01*
X519574Y409638D01*
X520432Y410495D01*
X520896Y411615D01*
Y412828D01*
X520432Y413948D01*
X519574Y414806D01*
X518454Y415270D01*
D02*
G37*
G36*
X538512Y425211D02*
X537300D01*
X536179Y424747D01*
X535322Y423890D01*
X534858Y422770D01*
Y421557D01*
X535322Y420437D01*
X536124Y419635D01*
X535299Y418810D01*
X534835Y417690D01*
Y416477D01*
X535299Y415357D01*
X535848Y414808D01*
X535806Y414597D01*
X534949Y413740D01*
X534485Y412620D01*
Y411407D01*
X534949Y410287D01*
X535157Y410079D01*
X535054Y409104D01*
X534489Y408538D01*
X534025Y407418D01*
Y406205D01*
X534489Y405085D01*
X535346Y404227D01*
X536467Y403764D01*
X537679D01*
X538799Y404227D01*
X539657Y405085D01*
X540121Y406205D01*
Y407418D01*
X539657Y408538D01*
X539449Y408746D01*
X539551Y409721D01*
X540117Y410287D01*
X540581Y411407D01*
Y412620D01*
X540117Y413740D01*
X539568Y414289D01*
X539610Y414499D01*
X540467Y415357D01*
X540931Y416477D01*
Y417690D01*
X540467Y418810D01*
X539665Y419612D01*
X540490Y420437D01*
X540954Y421557D01*
Y422770D01*
X540490Y423890D01*
X539632Y424747D01*
X538512Y425211D01*
D02*
G37*
G36*
X677577Y409837D02*
X676365D01*
X675244Y409373D01*
X674387Y408515D01*
X673923Y407395D01*
Y406182D01*
X674387Y405062D01*
X675244Y404205D01*
X676365Y403741D01*
X677577D01*
X678698Y404205D01*
X679005Y404512D01*
X679716Y404788D01*
X679996Y404508D01*
X680573Y403930D01*
X681694Y403466D01*
X682906D01*
X684026Y403930D01*
X684884Y404788D01*
X685348Y405908D01*
Y407121D01*
X684884Y408241D01*
X684026Y409098D01*
X682906Y409562D01*
X681694D01*
X680573Y409098D01*
X680266Y408791D01*
X679555Y408515D01*
X679275Y408795D01*
X678698Y409373D01*
X677577Y409837D01*
D02*
G37*
G36*
X339450Y409519D02*
X338237D01*
X337117Y409055D01*
X336260Y408198D01*
X335796Y407077D01*
Y405865D01*
X336260Y404745D01*
X337117Y403887D01*
X338237Y403423D01*
X339450D01*
X340570Y403887D01*
X341428Y404745D01*
X341892Y405865D01*
Y407077D01*
X341428Y408198D01*
X340570Y409055D01*
X339450Y409519D01*
D02*
G37*
G36*
X313440D02*
X312228D01*
X311108Y409055D01*
X310250Y408198D01*
X309786Y407077D01*
Y405865D01*
X310250Y404745D01*
X311108Y403887D01*
X312228Y403423D01*
X313440D01*
X314561Y403887D01*
X315418Y404745D01*
X315882Y405865D01*
Y407077D01*
X315418Y408198D01*
X314561Y409055D01*
X313440Y409519D01*
D02*
G37*
G36*
X287431D02*
X286218D01*
X285098Y409055D01*
X284240Y408198D01*
X283776Y407077D01*
Y405865D01*
X284240Y404745D01*
X285098Y403887D01*
X286218Y403423D01*
X287431D01*
X288551Y403887D01*
X289408Y404745D01*
X289872Y405865D01*
Y407077D01*
X289408Y408198D01*
X288551Y409055D01*
X287431Y409519D01*
D02*
G37*
G36*
X359620Y409291D02*
X358408D01*
X357287Y408826D01*
X356430Y407969D01*
X355966Y406849D01*
Y405636D01*
X356430Y404516D01*
X357287Y403659D01*
X358408Y403195D01*
X359620D01*
X360740Y403659D01*
X361598Y404516D01*
X362062Y405636D01*
Y406849D01*
X361598Y407969D01*
X360740Y408826D01*
X359620Y409291D01*
D02*
G37*
G36*
X703719Y409491D02*
X702506D01*
X701386Y409027D01*
X700529Y408170D01*
X700065Y407049D01*
Y405837D01*
X700529Y404717D01*
X701386Y403859D01*
X702506Y403395D01*
X703719D01*
X704839Y403859D01*
X705238Y404258D01*
X705858Y404135D01*
X706715Y403278D01*
X707835Y402813D01*
X709048D01*
X710168Y403278D01*
X711025Y404135D01*
X711490Y405255D01*
Y406468D01*
X711025Y407588D01*
X710168Y408446D01*
X709048Y408909D01*
X707835D01*
X706715Y408446D01*
X706316Y408046D01*
X705697Y408170D01*
X704839Y409027D01*
X703719Y409491D01*
D02*
G37*
G36*
X403864Y402113D02*
X402652D01*
X401531Y401648D01*
X400674Y400791D01*
X399798Y400668D01*
X399445Y401021D01*
X398325Y401485D01*
X397112D01*
X395992Y401021D01*
X395134Y400164D01*
X394670Y399043D01*
Y397831D01*
X395134Y396711D01*
X395992Y395853D01*
X397112Y395389D01*
X398325D01*
X399445Y395853D01*
X400302Y396711D01*
X401178Y396834D01*
X401531Y396480D01*
X402652Y396017D01*
X403864D01*
X404985Y396480D01*
X405842Y397338D01*
X406306Y398458D01*
Y399671D01*
X405842Y400791D01*
X404985Y401648D01*
X403864Y402113D01*
D02*
G37*
G36*
X473770Y406034D02*
X472558D01*
X471437Y405570D01*
X470580Y404713D01*
X470116Y403592D01*
Y402380D01*
X470580Y401260D01*
X471437Y400402D01*
X472558Y399938D01*
X473770D01*
X474891Y400402D01*
X475748Y401260D01*
X476212Y402380D01*
Y403592D01*
X475748Y404713D01*
X474891Y405570D01*
X473770Y406034D01*
D02*
G37*
G36*
X492985Y405577D02*
X491773D01*
X490652Y405113D01*
X489795Y404256D01*
X489331Y403135D01*
Y401923D01*
X489795Y400802D01*
X490652Y399945D01*
X491773Y399481D01*
X492985D01*
X494106Y399945D01*
X494963Y400802D01*
X495427Y401923D01*
Y403135D01*
X494963Y404256D01*
X494106Y405113D01*
X492985Y405577D01*
D02*
G37*
G36*
X547953Y425092D02*
X546741D01*
X545621Y424628D01*
X544763Y423770D01*
X544299Y422650D01*
Y421438D01*
X544763Y420317D01*
X545147Y419933D01*
X545154Y418891D01*
X544956Y418693D01*
X544492Y417573D01*
Y416360D01*
X544956Y415240D01*
X545370Y414826D01*
X545783Y414344D01*
X545370Y413831D01*
X544972Y413433D01*
X544507Y412312D01*
Y411100D01*
X544972Y409980D01*
X545305Y409646D01*
X545737Y409083D01*
X544880Y408226D01*
X544416Y407105D01*
Y405893D01*
X544880Y404772D01*
X545737Y403915D01*
X546858Y403451D01*
X548070D01*
X548682Y403704D01*
X549265Y403121D01*
X549026Y402543D01*
Y401331D01*
X549490Y400211D01*
X550348Y399353D01*
X551468Y398889D01*
X552680D01*
X553801Y399353D01*
X554574Y400126D01*
X554649Y400112D01*
X555506Y399254D01*
X556627Y398790D01*
X557839D01*
X558959Y399254D01*
X559802Y400097D01*
X560586Y399313D01*
X561707Y398849D01*
X562919D01*
X564039Y399313D01*
X564897Y400170D01*
X565361Y401290D01*
Y402503D01*
X564897Y403623D01*
X564039Y404481D01*
X562919Y404945D01*
X561707D01*
X560586Y404481D01*
X559744Y403638D01*
X558959Y404422D01*
X557839Y404886D01*
X556627D01*
X555506Y404422D01*
X554733Y403649D01*
X554658Y403664D01*
X553801Y404521D01*
X552680Y404985D01*
X551468D01*
X550856Y404732D01*
X550273Y405315D01*
X550512Y405893D01*
Y407105D01*
X550048Y408226D01*
X549715Y408559D01*
X549282Y409122D01*
X550139Y409980D01*
X550603Y411100D01*
Y412312D01*
X550139Y413433D01*
X549726Y413846D01*
X549313Y414328D01*
X549726Y414842D01*
X550124Y415240D01*
X550588Y416360D01*
Y417573D01*
X550124Y418693D01*
X549754Y419063D01*
X549733Y420119D01*
X549931Y420317D01*
X550395Y421438D01*
Y422650D01*
X549931Y423770D01*
X549074Y424628D01*
X547953Y425092D01*
D02*
G37*
G36*
X26273Y404696D02*
X25060D01*
X23940Y404232D01*
X23083Y403374D01*
X22619Y402254D01*
Y401041D01*
X23083Y399921D01*
X23940Y399064D01*
X25060Y398600D01*
X26273D01*
X27393Y399064D01*
X28251Y399921D01*
X28715Y401041D01*
Y402254D01*
X28251Y403374D01*
X27393Y404232D01*
X26273Y404696D01*
D02*
G37*
G36*
X527799Y425640D02*
X526586D01*
X525466Y425177D01*
X524608Y424319D01*
X524144Y423199D01*
Y421986D01*
X524608Y420866D01*
X524902Y420573D01*
X524831Y419566D01*
X524342Y419076D01*
X523877Y417956D01*
Y416744D01*
X524342Y415623D01*
X524888Y415077D01*
X525187Y414740D01*
X524888Y414081D01*
X524499Y413692D01*
X524035Y412571D01*
Y411359D01*
X524499Y410239D01*
X525004Y409734D01*
X525080Y408733D01*
X524799Y408452D01*
X524335Y407331D01*
Y406119D01*
X524799Y404999D01*
X525234Y404563D01*
X525483Y403911D01*
X525229Y403573D01*
X524649Y402993D01*
X524185Y401873D01*
Y400660D01*
X524649Y399540D01*
X525506Y398683D01*
X526627Y398219D01*
X527839D01*
X528959Y398683D01*
X529817Y399540D01*
X530281Y400660D01*
Y401873D01*
X529817Y402993D01*
X529381Y403429D01*
X529132Y404081D01*
X529387Y404419D01*
X529967Y404999D01*
X530431Y406119D01*
Y407331D01*
X529967Y408452D01*
X529462Y408956D01*
X529385Y409957D01*
X529667Y410239D01*
X530131Y411359D01*
Y412571D01*
X529667Y413692D01*
X529120Y414239D01*
X528821Y414575D01*
X529120Y415234D01*
X529510Y415623D01*
X529973Y416744D01*
Y417956D01*
X529510Y419076D01*
X529216Y419370D01*
X529240Y420330D01*
X529776Y420866D01*
X530240Y421986D01*
Y423199D01*
X529776Y424319D01*
X528919Y425177D01*
X527799Y425640D01*
D02*
G37*
G36*
X155117Y402745D02*
X153904D01*
X152784Y402281D01*
X151927Y401423D01*
X151463Y400303D01*
Y399091D01*
X151927Y397970D01*
X152784Y397113D01*
X153904Y396649D01*
X155117D01*
X156237Y397113D01*
X157095Y397970D01*
X157559Y399091D01*
Y400303D01*
X157095Y401423D01*
X156237Y402281D01*
X155117Y402745D01*
D02*
G37*
G36*
X391162Y402239D02*
X389949D01*
X388829Y401775D01*
X387971Y400918D01*
X387508Y399798D01*
Y398585D01*
X387971Y397465D01*
X388829Y396608D01*
X389949Y396143D01*
X391162D01*
X392282Y396608D01*
X393139Y397465D01*
X393604Y398585D01*
Y399798D01*
X393139Y400918D01*
X392282Y401775D01*
X391162Y402239D01*
D02*
G37*
G36*
X410834Y401841D02*
X409622D01*
X408501Y401377D01*
X407644Y400519D01*
X407180Y399399D01*
Y398186D01*
X407644Y397066D01*
X408501Y396209D01*
X409622Y395745D01*
X410834D01*
X411954Y396209D01*
X412812Y397066D01*
X413276Y398186D01*
Y399399D01*
X412812Y400519D01*
X411954Y401377D01*
X410834Y401841D01*
D02*
G37*
G36*
X378584Y401836D02*
X377371D01*
X376251Y401372D01*
X375393Y400514D01*
X374929Y399394D01*
Y398181D01*
X375393Y397061D01*
X376251Y396204D01*
X377371Y395740D01*
X378584D01*
X379704Y396204D01*
X380561Y397061D01*
X381025Y398181D01*
Y399394D01*
X380561Y400514D01*
X379704Y401372D01*
X378584Y401836D01*
D02*
G37*
G36*
X319943Y401518D02*
X318730D01*
X317610Y401054D01*
X316752Y400197D01*
X316288Y399076D01*
Y397864D01*
X316752Y396744D01*
X317610Y395886D01*
X318730Y395422D01*
X319943D01*
X321063Y395886D01*
X321920Y396744D01*
X322384Y397864D01*
Y399076D01*
X321920Y400197D01*
X321063Y401054D01*
X319943Y401518D01*
D02*
G37*
G36*
X280928D02*
X279716D01*
X278596Y401054D01*
X277738Y400197D01*
X277274Y399076D01*
Y397864D01*
X277738Y396744D01*
X278596Y395886D01*
X279716Y395422D01*
X280928D01*
X282049Y395886D01*
X282906Y396744D01*
X283370Y397864D01*
Y399076D01*
X282906Y400197D01*
X282049Y401054D01*
X280928Y401518D01*
D02*
G37*
G36*
X708862Y401310D02*
X707650D01*
X706530Y400846D01*
X705672Y399988D01*
X705208Y398868D01*
Y397656D01*
X705672Y396535D01*
X706530Y395678D01*
X707650Y395214D01*
X708862D01*
X709983Y395678D01*
X710840Y396535D01*
X711304Y397656D01*
Y398868D01*
X710840Y399988D01*
X709983Y400846D01*
X708862Y401310D01*
D02*
G37*
G36*
X680399Y401632D02*
X679187D01*
X678066Y401168D01*
X677209Y400311D01*
X676745Y399191D01*
Y397978D01*
X677209Y396858D01*
X678066Y396001D01*
X679187Y395536D01*
X680399D01*
X681519Y396001D01*
X681888Y396369D01*
X682678Y396454D01*
X683535Y395597D01*
X684655Y395133D01*
X685868D01*
X686988Y395597D01*
X687846Y396454D01*
X688309Y397574D01*
Y398787D01*
X687846Y399907D01*
X686988Y400765D01*
X685868Y401229D01*
X684655D01*
X683535Y400765D01*
X683167Y400396D01*
X682377Y400311D01*
X681519Y401168D01*
X680399Y401632D01*
D02*
G37*
G36*
X562785Y395531D02*
X561572D01*
X560452Y395067D01*
X559594Y394210D01*
X559346Y394160D01*
X558667Y394839D01*
X557547Y395303D01*
X556334D01*
X555214Y394839D01*
X554825Y394450D01*
X553777Y394421D01*
X553592Y394605D01*
X552472Y395069D01*
X551259D01*
X550139Y394605D01*
X549359Y393825D01*
X549314Y393834D01*
X548456Y394691D01*
X547336Y395155D01*
X546124D01*
X545003Y394691D01*
X544146Y393834D01*
X543682Y392714D01*
Y391501D01*
X544146Y390381D01*
X545003Y389524D01*
X546124Y389059D01*
X547336D01*
X548456Y389524D01*
X549236Y390303D01*
X549282Y390294D01*
X550139Y389437D01*
X551259Y388973D01*
X552472D01*
X553592Y389437D01*
X554001Y389846D01*
X555030Y389855D01*
X555214Y389671D01*
X556334Y389207D01*
X557547D01*
X558667Y389671D01*
X559525Y390528D01*
X559773Y390578D01*
X560452Y389899D01*
X561572Y389435D01*
X562785D01*
X563905Y389899D01*
X564762Y390757D01*
X565226Y391877D01*
Y393090D01*
X564762Y394210D01*
X563905Y395067D01*
X562785Y395531D01*
D02*
G37*
G36*
X378449Y393939D02*
X377237D01*
X376116Y393475D01*
X375259Y392617D01*
X375042Y392094D01*
X374217D01*
X374087Y392409D01*
X373229Y393266D01*
X372109Y393731D01*
X370897D01*
X369776Y393266D01*
X368919Y392409D01*
X368455Y391289D01*
Y390076D01*
X368919Y388956D01*
X369776Y388098D01*
X370897Y387635D01*
X372109D01*
X373229Y388098D01*
X374087Y388956D01*
X374304Y389479D01*
X375128D01*
X375259Y389164D01*
X376116Y388307D01*
X377237Y387843D01*
X378449D01*
X379569Y388307D01*
X380427Y389164D01*
X380891Y390285D01*
Y391497D01*
X380427Y392617D01*
X379569Y393475D01*
X378449Y393939D01*
D02*
G37*
G36*
X708944Y393537D02*
X707731D01*
X706611Y393073D01*
X705753Y392216D01*
X705662Y391996D01*
X705397Y391916D01*
X704799Y391904D01*
X704072Y392631D01*
X702952Y393096D01*
X701739D01*
X700619Y392631D01*
X699762Y391774D01*
X699298Y390654D01*
Y389441D01*
X699762Y388321D01*
X700619Y387463D01*
X701739Y387000D01*
X702952D01*
X704072Y387463D01*
X704930Y388321D01*
X705021Y388541D01*
X705286Y388621D01*
X705883Y388633D01*
X706611Y387906D01*
X707731Y387441D01*
X708944D01*
X710064Y387906D01*
X710921Y388763D01*
X711385Y389883D01*
Y391096D01*
X710921Y392216D01*
X710064Y393073D01*
X708944Y393537D01*
D02*
G37*
G36*
X425419Y397515D02*
X424206D01*
X423086Y397051D01*
X422229Y396194D01*
X421764Y395073D01*
Y393861D01*
X422229Y392741D01*
X423086Y391883D01*
X424206Y391419D01*
X425419D01*
X426539Y391883D01*
X427396Y392741D01*
X427860Y393861D01*
Y395073D01*
X427396Y396194D01*
X426539Y397051D01*
X425419Y397515D01*
D02*
G37*
G36*
X538246Y389948D02*
X537033D01*
X535913Y389484D01*
X535055Y388627D01*
X534696Y388556D01*
X534111Y389142D01*
X532990Y389605D01*
X531778D01*
X530657Y389142D01*
X529800Y388284D01*
X529336Y387164D01*
Y385951D01*
X529800Y384831D01*
X530657Y383974D01*
X531778Y383509D01*
X532990D01*
X534111Y383974D01*
X534968Y384831D01*
X535327Y384902D01*
X535913Y384316D01*
X537033Y383852D01*
X538246D01*
X539366Y384316D01*
X540223Y385174D01*
X540687Y386294D01*
Y387507D01*
X540223Y388627D01*
X539366Y389484D01*
X538246Y389948D01*
D02*
G37*
G36*
X492840Y394371D02*
X491628D01*
X490508Y393907D01*
X489650Y393049D01*
X489186Y391929D01*
Y390716D01*
X489650Y389596D01*
X490508Y388739D01*
X491628Y388275D01*
X492840D01*
X493961Y388739D01*
X494818Y389596D01*
X495282Y390716D01*
Y391929D01*
X494818Y393049D01*
X493961Y393907D01*
X492840Y394371D01*
D02*
G37*
G36*
X503265Y394660D02*
X502052D01*
X500932Y394196D01*
X500074Y393339D01*
X499610Y392218D01*
Y391006D01*
X500074Y389886D01*
X500932Y389028D01*
X502052Y388564D01*
X503265D01*
X504385Y389028D01*
X504914Y389557D01*
X505142Y389512D01*
X505999Y388655D01*
X507119Y388191D01*
X508332D01*
X509452Y388655D01*
X510310Y389512D01*
X510774Y390633D01*
Y391845D01*
X510310Y392965D01*
X509452Y393823D01*
X508332Y394287D01*
X507119D01*
X505999Y393823D01*
X505470Y393293D01*
X505242Y393339D01*
X504385Y394196D01*
X503265Y394660D01*
D02*
G37*
G36*
X522713Y388823D02*
X521501D01*
X520381Y388359D01*
X519552Y387531D01*
X518728Y388354D01*
X517608Y388818D01*
X516395D01*
X515275Y388354D01*
X514418Y387497D01*
X513954Y386376D01*
Y385164D01*
X514418Y384044D01*
X515275Y383186D01*
X516395Y382722D01*
X517608D01*
X518728Y383186D01*
X519557Y384015D01*
X520381Y383191D01*
X521501Y382727D01*
X522713D01*
X523834Y383191D01*
X524691Y384049D01*
X525155Y385169D01*
Y386381D01*
X524691Y387502D01*
X523834Y388359D01*
X522713Y388823D01*
D02*
G37*
G36*
X365015Y393591D02*
X363802D01*
X362682Y393127D01*
X361825Y392269D01*
X361361Y391149D01*
Y389936D01*
X361825Y388816D01*
X362682Y387959D01*
X363802Y387495D01*
X365015D01*
X366135Y387959D01*
X366993Y388816D01*
X367457Y389936D01*
Y391149D01*
X366993Y392269D01*
X366135Y393127D01*
X365015Y393591D01*
D02*
G37*
G36*
X326445Y393517D02*
X325233D01*
X324112Y393053D01*
X323255Y392196D01*
X322791Y391075D01*
Y389863D01*
X323255Y388743D01*
X324112Y387885D01*
X325233Y387421D01*
X326445D01*
X327565Y387885D01*
X328423Y388743D01*
X328887Y389863D01*
Y391075D01*
X328423Y392196D01*
X327565Y393053D01*
X326445Y393517D01*
D02*
G37*
G36*
X313440D02*
X312228D01*
X311108Y393053D01*
X310250Y392196D01*
X309786Y391075D01*
Y389863D01*
X310250Y388743D01*
X311108Y387885D01*
X312228Y387421D01*
X313440D01*
X314561Y387885D01*
X315418Y388743D01*
X315882Y389863D01*
Y391075D01*
X315418Y392196D01*
X314561Y393053D01*
X313440Y393517D01*
D02*
G37*
G36*
X300436D02*
X299223D01*
X298103Y393053D01*
X297245Y392196D01*
X296781Y391075D01*
Y389863D01*
X297245Y388743D01*
X298103Y387885D01*
X299223Y387421D01*
X300436D01*
X301556Y387885D01*
X302413Y388743D01*
X302877Y389863D01*
Y391075D01*
X302413Y392196D01*
X301556Y393053D01*
X300436Y393517D01*
D02*
G37*
G36*
X287431D02*
X286218D01*
X285098Y393053D01*
X284240Y392196D01*
X283776Y391075D01*
Y389863D01*
X284240Y388743D01*
X285098Y387885D01*
X286218Y387421D01*
X287431D01*
X288551Y387885D01*
X289408Y388743D01*
X289872Y389863D01*
Y391075D01*
X289408Y392196D01*
X288551Y393053D01*
X287431Y393517D01*
D02*
G37*
G36*
X689467Y393492D02*
X688254D01*
X687134Y393028D01*
X686277Y392170D01*
X685813Y391050D01*
Y389837D01*
X686277Y388717D01*
X687134Y387860D01*
X688254Y387396D01*
X689467D01*
X690587Y387860D01*
X691445Y388717D01*
X691909Y389837D01*
Y391050D01*
X691445Y392170D01*
X690587Y393028D01*
X689467Y393492D01*
D02*
G37*
G36*
X121917Y397744D02*
X120704D01*
X119584Y397280D01*
X118726Y396422D01*
X118262Y395302D01*
Y394089D01*
X118726Y392969D01*
X119116Y392580D01*
X119417Y391924D01*
X119116Y391584D01*
X118572Y391040D01*
X118108Y389920D01*
Y388707D01*
X118572Y387587D01*
X119429Y386730D01*
X120549Y386265D01*
X121762D01*
X122882Y386730D01*
X123739Y387587D01*
X124204Y388707D01*
Y389920D01*
X123739Y391040D01*
X123350Y391429D01*
X123049Y392085D01*
X123350Y392425D01*
X123894Y392969D01*
X124358Y394089D01*
Y395302D01*
X123894Y396422D01*
X123037Y397280D01*
X121917Y397744D01*
D02*
G37*
G36*
X425419Y389514D02*
X424206D01*
X423086Y389050D01*
X422229Y388193D01*
X421764Y387072D01*
Y385860D01*
X422229Y384739D01*
X423086Y383882D01*
X424206Y383418D01*
X425419D01*
X426539Y383882D01*
X427396Y384739D01*
X427860Y385860D01*
Y387072D01*
X427396Y388193D01*
X426539Y389050D01*
X425419Y389514D01*
D02*
G37*
G36*
X639650Y386885D02*
X638437D01*
X637317Y386421D01*
X636460Y385564D01*
X635996Y384444D01*
Y383231D01*
X636460Y382111D01*
X637317Y381253D01*
X638437Y380789D01*
X639650D01*
X640770Y381253D01*
X641628Y382111D01*
X642092Y383231D01*
Y384444D01*
X641628Y385564D01*
X640770Y386421D01*
X639650Y386885D01*
D02*
G37*
G36*
X713315Y381795D02*
X712103D01*
X710982Y381331D01*
X710306Y380655D01*
X710073Y380483D01*
X709356Y380609D01*
X708875Y381090D01*
X707755Y381554D01*
X706542D01*
X705422Y381090D01*
X704565Y380232D01*
X704101Y379112D01*
Y377899D01*
X704565Y376779D01*
X705422Y375922D01*
X706542Y375458D01*
X707755D01*
X708875Y375922D01*
X709552Y376598D01*
X709785Y376770D01*
X710501Y376644D01*
X710982Y376163D01*
X712103Y375699D01*
X713315D01*
X714435Y376163D01*
X715293Y377020D01*
X715757Y378141D01*
Y379353D01*
X715293Y380474D01*
X714435Y381331D01*
X713315Y381795D01*
D02*
G37*
G36*
X682027Y381472D02*
X680815D01*
X679695Y381008D01*
X679060Y380374D01*
X678659Y380197D01*
X678093Y380346D01*
X677511Y380927D01*
X676391Y381391D01*
X675179D01*
X674058Y380927D01*
X673201Y380070D01*
X672737Y378949D01*
Y377737D01*
X673201Y376617D01*
X674058Y375759D01*
X675179Y375295D01*
X676391D01*
X677511Y375759D01*
X678146Y376394D01*
X678547Y376570D01*
X679113Y376422D01*
X679695Y375840D01*
X680815Y375376D01*
X682027D01*
X683148Y375840D01*
X683487Y376180D01*
X684169Y376495D01*
X685026Y375637D01*
X686146Y375173D01*
X687359D01*
X688479Y375637D01*
X689336Y376495D01*
X689800Y377615D01*
Y378828D01*
X689336Y379948D01*
X688479Y380805D01*
X687359Y381269D01*
X686146D01*
X685026Y380805D01*
X684686Y380466D01*
X684005Y380151D01*
X683148Y381008D01*
X682027Y381472D01*
D02*
G37*
G36*
X365696Y386179D02*
X364483D01*
X363363Y385715D01*
X362505Y384858D01*
X362041Y383737D01*
Y382525D01*
X362505Y381404D01*
X363363Y380547D01*
X364483Y380083D01*
X365696D01*
X366816Y380547D01*
X367673Y381404D01*
X368137Y382525D01*
Y383737D01*
X367673Y384858D01*
X366816Y385715D01*
X365696Y386179D01*
D02*
G37*
G36*
X416737Y386017D02*
X415524D01*
X414404Y385552D01*
X413547Y384695D01*
X413083Y383575D01*
Y382362D01*
X413547Y381242D01*
X414404Y380384D01*
X415524Y379921D01*
X416737D01*
X417857Y380384D01*
X418715Y381242D01*
X419179Y382362D01*
Y383575D01*
X418715Y384695D01*
X417857Y385552D01*
X416737Y386017D01*
D02*
G37*
G36*
X404380Y386014D02*
X403167D01*
X402047Y385550D01*
X401190Y384692D01*
X400726Y383572D01*
Y382360D01*
X401190Y381239D01*
X402047Y380382D01*
X403167Y379918D01*
X404380D01*
X405500Y380382D01*
X406358Y381239D01*
X406822Y382360D01*
Y383572D01*
X406358Y384692D01*
X405500Y385550D01*
X404380Y386014D01*
D02*
G37*
G36*
X493161Y385704D02*
X491948D01*
X490828Y385240D01*
X489970Y384383D01*
X489506Y383262D01*
Y382050D01*
X489970Y380929D01*
X490828Y380072D01*
X491948Y379608D01*
X493161D01*
X494281Y380072D01*
X495138Y380929D01*
X495602Y382050D01*
Y383262D01*
X495138Y384383D01*
X494281Y385240D01*
X493161Y385704D01*
D02*
G37*
G36*
X373420Y385364D02*
X372207D01*
X371087Y384900D01*
X370230Y384042D01*
X369766Y382922D01*
Y381709D01*
X370230Y380589D01*
X371087Y379732D01*
X372207Y379268D01*
X373420D01*
X374540Y379732D01*
X375397Y380589D01*
X375862Y381709D01*
Y382922D01*
X375397Y384042D01*
X374540Y384900D01*
X373420Y385364D01*
D02*
G37*
G36*
X386691Y385110D02*
X385479D01*
X384358Y384646D01*
X383501Y383788D01*
X383037Y382668D01*
Y381455D01*
X383501Y380335D01*
X384358Y379478D01*
X385479Y379014D01*
X386691D01*
X387812Y379478D01*
X388669Y380335D01*
X389133Y381455D01*
Y382668D01*
X388669Y383788D01*
X387812Y384646D01*
X386691Y385110D01*
D02*
G37*
G36*
X547529Y385478D02*
X546317D01*
X545196Y385014D01*
X544339Y384157D01*
X543875Y383036D01*
Y381824D01*
X544339Y380704D01*
X545196Y379846D01*
X546317Y379382D01*
X547529D01*
X548649Y379846D01*
X549152Y380348D01*
X549409Y380297D01*
X550266Y379440D01*
X551386Y378976D01*
X552599D01*
X553719Y379440D01*
X554092Y379812D01*
X555140Y379818D01*
X555359Y379600D01*
X556479Y379136D01*
X557692D01*
X558812Y379600D01*
X558926Y379713D01*
X559886Y379690D01*
X560421Y379155D01*
X561541Y378691D01*
X562754D01*
X563874Y379155D01*
X564732Y380013D01*
X565196Y381133D01*
Y382345D01*
X564732Y383466D01*
X563874Y384323D01*
X562754Y384787D01*
X561541D01*
X560421Y384323D01*
X560308Y384210D01*
X559347Y384233D01*
X558812Y384768D01*
X557692Y385232D01*
X556479D01*
X555359Y384768D01*
X554986Y384395D01*
X553938Y384389D01*
X553719Y384608D01*
X552599Y385072D01*
X551386D01*
X550266Y384608D01*
X549764Y384105D01*
X549507Y384157D01*
X548649Y385014D01*
X547529Y385478D01*
D02*
G37*
G36*
X503275Y385122D02*
X502062D01*
X500942Y384658D01*
X500085Y383801D01*
X499621Y382681D01*
Y381468D01*
X500085Y380348D01*
X500942Y379491D01*
X502062Y379026D01*
X503275D01*
X504395Y379491D01*
X504510Y379605D01*
X505471Y379582D01*
X506004Y379049D01*
X507124Y378585D01*
X508337D01*
X509457Y379049D01*
X510315Y379906D01*
X510779Y381026D01*
Y382239D01*
X510315Y383359D01*
X509457Y384216D01*
X508337Y384680D01*
X507124D01*
X506004Y384216D01*
X505890Y384102D01*
X504928Y384125D01*
X504395Y384658D01*
X503275Y385122D01*
D02*
G37*
G36*
X651075Y382039D02*
X649862D01*
X648742Y381575D01*
X647885Y380717D01*
X647421Y379597D01*
Y378385D01*
X647885Y377264D01*
X648742Y376407D01*
X649862Y375943D01*
X651075D01*
X652195Y376407D01*
X652502Y376714D01*
X653465Y376599D01*
X654061Y376003D01*
X655181Y375539D01*
X656394D01*
X657514Y376003D01*
X658371Y376860D01*
X658835Y377981D01*
Y379193D01*
X658371Y380314D01*
X657514Y381171D01*
X656394Y381635D01*
X655181D01*
X654061Y381171D01*
X653754Y380864D01*
X652791Y380979D01*
X652195Y381575D01*
X651075Y382039D01*
D02*
G37*
G36*
X562538Y375331D02*
X561325D01*
X560205Y374867D01*
X559741Y374403D01*
X558724Y374343D01*
X558594Y374473D01*
X557473Y374937D01*
X556261D01*
X555140Y374473D01*
X554594Y373927D01*
X554346Y373976D01*
X553488Y374834D01*
X552368Y375298D01*
X551155D01*
X550035Y374834D01*
X549178Y373976D01*
X548714Y372856D01*
Y371643D01*
X549178Y370523D01*
X550035Y369666D01*
X551155Y369202D01*
X552368D01*
X553488Y369666D01*
X554034Y370212D01*
X554283Y370162D01*
X555140Y369305D01*
X556261Y368841D01*
X557473D01*
X558594Y369305D01*
X559098Y369809D01*
X560075Y369829D01*
X560205Y369699D01*
X561325Y369235D01*
X562538D01*
X563658Y369699D01*
X564516Y370556D01*
X564980Y371676D01*
Y372889D01*
X564516Y374009D01*
X563658Y374867D01*
X562538Y375331D01*
D02*
G37*
G36*
X219742Y371051D02*
X218530D01*
X217409Y370587D01*
X216707Y369885D01*
X216320Y369768D01*
X215780Y369857D01*
X215117Y370521D01*
X213997Y370985D01*
X212784D01*
X211664Y370521D01*
X210807Y369663D01*
X210343Y368543D01*
Y367331D01*
X210807Y366210D01*
X211442Y365574D01*
X211587Y365097D01*
X211442Y364620D01*
X210807Y363984D01*
X210343Y362864D01*
Y361651D01*
X210807Y360531D01*
X211664Y359673D01*
X211713Y359653D01*
X211676Y358844D01*
X210873Y358040D01*
X210408Y356920D01*
Y355708D01*
X210873Y354587D01*
X211730Y353730D01*
X212850Y353266D01*
X214063D01*
X215183Y353730D01*
X215885Y354432D01*
X216272Y354549D01*
X216812Y354459D01*
X217475Y353796D01*
X218596Y353332D01*
X219808D01*
X220929Y353796D01*
X221786Y354653D01*
X222250Y355774D01*
Y356986D01*
X221786Y358106D01*
X220929Y358964D01*
X220879Y358984D01*
X220917Y359794D01*
X221720Y360597D01*
X222184Y361717D01*
Y362930D01*
X221720Y364050D01*
X221084Y364686D01*
X220940Y365163D01*
X221084Y365640D01*
X221720Y366276D01*
X222184Y367397D01*
Y368609D01*
X221720Y369729D01*
X220863Y370587D01*
X219742Y371051D01*
D02*
G37*
G36*
X492840Y374127D02*
X491628D01*
X490508Y373663D01*
X489650Y372805D01*
X489186Y371685D01*
Y370472D01*
X489650Y369352D01*
X490508Y368495D01*
X491628Y368031D01*
X492840D01*
X493961Y368495D01*
X494818Y369352D01*
X495282Y370472D01*
Y371685D01*
X494818Y372805D01*
X493961Y373663D01*
X492840Y374127D01*
D02*
G37*
G36*
X373420Y369666D02*
X372207D01*
X371087Y369202D01*
X370230Y368345D01*
X369766Y367225D01*
Y366012D01*
X370230Y364892D01*
X371087Y364035D01*
X372207Y363571D01*
X373420D01*
X374540Y364035D01*
X375397Y364892D01*
X375862Y366012D01*
Y367225D01*
X375397Y368345D01*
X374540Y369202D01*
X373420Y369666D01*
D02*
G37*
G36*
X386592Y369524D02*
X385380D01*
X384259Y369060D01*
X383402Y368203D01*
X382938Y367083D01*
Y365870D01*
X383402Y364750D01*
X384259Y363892D01*
X385380Y363428D01*
X386592D01*
X387713Y363892D01*
X388570Y364750D01*
X389034Y365870D01*
Y367083D01*
X388570Y368203D01*
X387713Y369060D01*
X386592Y369524D01*
D02*
G37*
G36*
X702789Y369631D02*
X701577D01*
X700456Y369167D01*
X699599Y368310D01*
X699135Y367189D01*
Y365977D01*
X699599Y364856D01*
X700456Y363999D01*
X701577Y363535D01*
X702789D01*
X703910Y363999D01*
X704545Y364635D01*
X705319Y364596D01*
X705443Y364537D01*
X706245Y363735D01*
X707365Y363271D01*
X708578D01*
X709698Y363735D01*
X710556Y364592D01*
X711020Y365713D01*
Y366925D01*
X710556Y368045D01*
X709698Y368903D01*
X708578Y369367D01*
X707365D01*
X706245Y368903D01*
X705609Y368267D01*
X704836Y368306D01*
X704712Y368365D01*
X703910Y369167D01*
X702789Y369631D01*
D02*
G37*
G36*
X404197Y369240D02*
X402985D01*
X401864Y368776D01*
X401007Y367918D01*
X400543Y366798D01*
Y365586D01*
X401007Y364465D01*
X401864Y363608D01*
X402985Y363144D01*
X404197D01*
X405317Y363608D01*
X406175Y364465D01*
X406639Y365586D01*
Y366798D01*
X406175Y367918D01*
X405317Y368776D01*
X404197Y369240D01*
D02*
G37*
G36*
X365533Y369014D02*
X364321D01*
X363200Y368550D01*
X362343Y367692D01*
X361879Y366572D01*
Y365359D01*
X362343Y364239D01*
X363200Y363382D01*
X364321Y362918D01*
X365533D01*
X366653Y363382D01*
X367511Y364239D01*
X367975Y365359D01*
Y366572D01*
X367511Y367692D01*
X366653Y368550D01*
X365533Y369014D01*
D02*
G37*
G36*
X417024Y368788D02*
X415812D01*
X414691Y368324D01*
X413834Y367466D01*
X413370Y366346D01*
Y365133D01*
X413834Y364013D01*
X414691Y363156D01*
X415812Y362692D01*
X417024D01*
X418144Y363156D01*
X419002Y364013D01*
X419466Y365133D01*
Y366346D01*
X419002Y367466D01*
X418144Y368324D01*
X417024Y368788D01*
D02*
G37*
G36*
X64957Y367675D02*
X63745D01*
X62624Y367211D01*
X61767Y366354D01*
X61303Y365233D01*
Y364021D01*
X61767Y362901D01*
X62624Y362043D01*
X63745Y361579D01*
X64957D01*
X66077Y362043D01*
X66935Y362901D01*
X67399Y364021D01*
Y365233D01*
X66935Y366354D01*
X66077Y367211D01*
X64957Y367675D01*
D02*
G37*
G36*
X75813Y367576D02*
X74601D01*
X73480Y367112D01*
X72623Y366255D01*
X72159Y365134D01*
Y363922D01*
X72623Y362802D01*
X73480Y361944D01*
X74601Y361480D01*
X75813D01*
X76933Y361944D01*
X77791Y362802D01*
X78255Y363922D01*
Y365134D01*
X77791Y366255D01*
X76933Y367112D01*
X75813Y367576D01*
D02*
G37*
G36*
X687727Y362364D02*
X686515D01*
X685394Y361900D01*
X684537Y361043D01*
X684469Y360878D01*
X684341Y360817D01*
X683594Y360758D01*
X682939Y361412D01*
X681819Y361876D01*
X680607D01*
X679486Y361412D01*
X678963Y360889D01*
X678313Y360741D01*
X678002Y360924D01*
X677351Y361575D01*
X676231Y362039D01*
X675018D01*
X673898Y361575D01*
X673041Y360718D01*
X672577Y359597D01*
Y358385D01*
X673041Y357264D01*
X673898Y356407D01*
X675018Y355943D01*
X676231D01*
X677351Y356407D01*
X677875Y356931D01*
X678525Y357078D01*
X678835Y356895D01*
X679486Y356244D01*
X680607Y355780D01*
X681819D01*
X682939Y356244D01*
X683797Y357102D01*
X683865Y357266D01*
X683993Y357328D01*
X684740Y357387D01*
X685394Y356732D01*
X686515Y356268D01*
X687727D01*
X688847Y356732D01*
X689705Y357589D01*
X690169Y358710D01*
Y359922D01*
X689705Y361043D01*
X688847Y361900D01*
X687727Y362364D01*
D02*
G37*
G36*
X557222Y365684D02*
X556009D01*
X554889Y365220D01*
X554032Y364362D01*
X553568Y363242D01*
Y362029D01*
X554032Y360909D01*
X554643Y360298D01*
X554674Y359379D01*
X554611Y359315D01*
X554147Y358195D01*
Y356982D01*
X554611Y355862D01*
X555468Y355005D01*
X555555Y354969D01*
X555733Y354070D01*
X555332Y353669D01*
X554868Y352549D01*
Y351336D01*
X555332Y350216D01*
X556189Y349358D01*
X557310Y348894D01*
X558522D01*
X559643Y349358D01*
X560500Y350216D01*
X560964Y351336D01*
Y352549D01*
X560500Y353669D01*
X559643Y354526D01*
X559556Y354562D01*
X559377Y355461D01*
X559779Y355862D01*
X560243Y356982D01*
Y358195D01*
X559827Y359200D01*
X560050Y359559D01*
X560334Y359814D01*
X561089Y359501D01*
X562302D01*
X563422Y359966D01*
X564280Y360823D01*
X564744Y361943D01*
Y363156D01*
X564280Y364276D01*
X563422Y365133D01*
X562302Y365597D01*
X561089D01*
X559969Y365133D01*
X559199Y364363D01*
X558342Y365220D01*
X557222Y365684D01*
D02*
G37*
G36*
X372234Y361429D02*
X371021D01*
X369901Y360965D01*
X369043Y360108D01*
X368655Y359169D01*
X367986Y359075D01*
X367861Y359094D01*
X367546Y359854D01*
X366689Y360711D01*
X365569Y361175D01*
X364356D01*
X363236Y360711D01*
X362379Y359854D01*
X361914Y358734D01*
Y357521D01*
X362379Y356401D01*
X363236Y355543D01*
X364356Y355079D01*
X365569D01*
X366689Y355543D01*
X367546Y356401D01*
X367935Y357339D01*
X368604Y357433D01*
X368728Y357415D01*
X369043Y356655D01*
X369901Y355797D01*
X371021Y355333D01*
X372234D01*
X373354Y355797D01*
X374211Y356655D01*
X374312Y356897D01*
X375137D01*
X375457Y356124D01*
X376314Y355266D01*
X377435Y354802D01*
X378647D01*
X379767Y355266D01*
X380625Y356124D01*
X381089Y357244D01*
Y358457D01*
X380625Y359577D01*
X379767Y360434D01*
X378647Y360898D01*
X377435D01*
X376314Y360434D01*
X375457Y359577D01*
X375356Y359334D01*
X374532D01*
X374211Y360108D01*
X373354Y360965D01*
X372234Y361429D01*
D02*
G37*
G36*
X175409Y364302D02*
X174196D01*
X173076Y363838D01*
X172219Y362981D01*
X171755Y361860D01*
Y360648D01*
X172219Y359528D01*
X173076Y358670D01*
X174196Y358206D01*
X175409D01*
X176529Y358670D01*
X177387Y359528D01*
X177851Y360648D01*
Y361860D01*
X177387Y362981D01*
X176529Y363838D01*
X175409Y364302D01*
D02*
G37*
G36*
X651001Y361892D02*
X649789D01*
X648668Y361427D01*
X647811Y360570D01*
X647347Y359450D01*
Y358237D01*
X647811Y357117D01*
X648668Y356260D01*
X649789Y355796D01*
X651001D01*
X652122Y356260D01*
X652741Y356879D01*
X653535Y356831D01*
X653636Y356778D01*
X654444Y355970D01*
X655565Y355506D01*
X656777D01*
X657897Y355970D01*
X658755Y356828D01*
X659219Y357948D01*
Y359160D01*
X658755Y360281D01*
X657897Y361138D01*
X656777Y361602D01*
X655565D01*
X654444Y361138D01*
X653825Y360519D01*
X653031Y360567D01*
X652930Y360619D01*
X652122Y361427D01*
X651001Y361892D01*
D02*
G37*
G36*
X326445Y361513D02*
X325233D01*
X324112Y361049D01*
X323255Y360192D01*
X322791Y359071D01*
Y357859D01*
X323255Y356739D01*
X324112Y355881D01*
X325233Y355417D01*
X326445D01*
X327565Y355881D01*
X328423Y356739D01*
X328887Y357859D01*
Y359071D01*
X328423Y360192D01*
X327565Y361049D01*
X326445Y361513D01*
D02*
G37*
G36*
X313440D02*
X312228D01*
X311108Y361049D01*
X310250Y360192D01*
X309786Y359071D01*
Y357859D01*
X310250Y356739D01*
X311108Y355881D01*
X312228Y355417D01*
X313440D01*
X314561Y355881D01*
X315418Y356739D01*
X315882Y357859D01*
Y359071D01*
X315418Y360192D01*
X314561Y361049D01*
X313440Y361513D01*
D02*
G37*
G36*
X300436D02*
X299223D01*
X298103Y361049D01*
X297245Y360192D01*
X296781Y359071D01*
Y357859D01*
X297245Y356739D01*
X298103Y355881D01*
X299223Y355417D01*
X300436D01*
X301556Y355881D01*
X302413Y356739D01*
X302877Y357859D01*
Y359071D01*
X302413Y360192D01*
X301556Y361049D01*
X300436Y361513D01*
D02*
G37*
G36*
X287431D02*
X286218D01*
X285098Y361049D01*
X284240Y360192D01*
X283776Y359071D01*
Y357859D01*
X284240Y356739D01*
X285098Y355881D01*
X286218Y355417D01*
X287431D01*
X288551Y355881D01*
X289408Y356739D01*
X289872Y357859D01*
Y359071D01*
X289408Y360192D01*
X288551Y361049D01*
X287431Y361513D01*
D02*
G37*
G36*
X43200Y358892D02*
X41987D01*
X40867Y358428D01*
X40009Y357570D01*
X39545Y356450D01*
Y355238D01*
X40009Y354117D01*
X40867Y353260D01*
X41987Y352796D01*
X43200D01*
X44320Y353260D01*
X45177Y354117D01*
X45641Y355238D01*
Y356450D01*
X45177Y357570D01*
X44320Y358428D01*
X43200Y358892D01*
D02*
G37*
G36*
X425531Y357421D02*
X424318D01*
X423198Y356957D01*
X422340Y356100D01*
X421876Y354980D01*
Y353767D01*
X422340Y352647D01*
X423198Y351789D01*
X424318Y351325D01*
X425531D01*
X426651Y351789D01*
X427508Y352647D01*
X427972Y353767D01*
Y354980D01*
X427508Y356100D01*
X426651Y356957D01*
X425531Y357421D01*
D02*
G37*
G36*
X492592Y365699D02*
X491379D01*
X490259Y365235D01*
X489401Y364378D01*
X488937Y363257D01*
Y362045D01*
X489401Y360924D01*
X490259Y360067D01*
X491379Y359603D01*
X492592D01*
X493712Y360067D01*
X494103Y360458D01*
X494946Y360414D01*
X495295Y360065D01*
X495687Y359462D01*
X495295Y359070D01*
X494829Y358604D01*
X494365Y357484D01*
Y356271D01*
X494829Y355151D01*
X495048Y354933D01*
X495045Y353869D01*
X494700Y353524D01*
X494236Y352404D01*
Y351191D01*
X494700Y350071D01*
X495557Y349214D01*
X496678Y348750D01*
X497890D01*
X499010Y349214D01*
X499868Y350071D01*
X500332Y351191D01*
Y352404D01*
X499868Y353524D01*
X499649Y353743D01*
X499652Y354806D01*
X499997Y355151D01*
X500461Y356271D01*
Y357484D01*
X499997Y358604D01*
X499649Y358953D01*
X499257Y359557D01*
X499649Y359949D01*
X500114Y360414D01*
X500578Y361534D01*
Y362747D01*
X500114Y363867D01*
X499257Y364725D01*
X498136Y365188D01*
X496924D01*
X495804Y364725D01*
X495412Y364333D01*
X494569Y364378D01*
X493712Y365235D01*
X492592Y365699D01*
D02*
G37*
G36*
X547862Y370012D02*
X546649D01*
X545529Y369548D01*
X544672Y368690D01*
X544208Y367570D01*
Y366358D01*
X544672Y365237D01*
X545104Y364805D01*
X545151Y363775D01*
X544888Y363512D01*
X544424Y362391D01*
Y361179D01*
X544888Y360058D01*
X544898Y360048D01*
X544777Y359091D01*
X544169Y358482D01*
X543705Y357362D01*
Y356149D01*
X544169Y355029D01*
X545026Y354172D01*
X545118Y353709D01*
X544852Y353443D01*
X544388Y352323D01*
Y351110D01*
X544852Y349990D01*
X545709Y349132D01*
X546830Y348668D01*
X548042D01*
X549163Y349132D01*
X550020Y349990D01*
X550484Y351110D01*
Y352323D01*
X550020Y353443D01*
X549163Y354300D01*
X549071Y354763D01*
X549337Y355029D01*
X549801Y356149D01*
Y357362D01*
X549337Y358482D01*
X549327Y358492D01*
X549447Y359450D01*
X550056Y360058D01*
X550520Y361179D01*
Y362391D01*
X550056Y363512D01*
X549623Y363943D01*
X549576Y364974D01*
X549840Y365237D01*
X550304Y366358D01*
Y367570D01*
X549840Y368690D01*
X548982Y369548D01*
X547862Y370012D01*
D02*
G37*
G36*
X537854Y369931D02*
X536642D01*
X535522Y369467D01*
X534664Y368609D01*
X534200Y367489D01*
Y366276D01*
X534664Y365156D01*
X535478Y364343D01*
X534664Y363529D01*
X534200Y362409D01*
Y361196D01*
X534664Y360076D01*
X535522Y359219D01*
X535667Y358489D01*
X535360Y358182D01*
X534896Y357062D01*
Y355850D01*
X535360Y354729D01*
X535816Y354273D01*
X535758Y353980D01*
X534900Y353123D01*
X534436Y352003D01*
Y350790D01*
X534900Y349670D01*
X535758Y348812D01*
X536878Y348348D01*
X538091D01*
X539211Y348812D01*
X540068Y349670D01*
X540532Y350790D01*
Y352003D01*
X540068Y353123D01*
X539612Y353579D01*
X539671Y353872D01*
X540528Y354729D01*
X540992Y355850D01*
Y357062D01*
X540528Y358182D01*
X539671Y359040D01*
X539525Y359770D01*
X539832Y360076D01*
X540296Y361196D01*
Y362409D01*
X539832Y363529D01*
X539019Y364343D01*
X539832Y365156D01*
X540296Y366276D01*
Y367489D01*
X539832Y368609D01*
X538975Y369467D01*
X537854Y369931D01*
D02*
G37*
G36*
X517842D02*
X516629D01*
X515509Y369467D01*
X514651Y368609D01*
X514187Y367489D01*
Y366276D01*
X514651Y365156D01*
X514946Y364861D01*
X514897Y364029D01*
X514126Y363257D01*
X513662Y362137D01*
Y360925D01*
X514126Y359804D01*
X514983Y358947D01*
X515019Y358768D01*
X514392Y358142D01*
X513928Y357022D01*
Y355809D01*
X514392Y354689D01*
X514897Y354184D01*
X514974Y353184D01*
X514873Y353082D01*
X514408Y351962D01*
Y350749D01*
X514873Y349629D01*
X515730Y348772D01*
X516850Y348308D01*
X518063D01*
X519183Y348772D01*
X520040Y349629D01*
X520504Y350749D01*
Y351962D01*
X520040Y353082D01*
X519183Y353940D01*
X519121Y354250D01*
X519560Y354689D01*
X520024Y355809D01*
Y357022D01*
X519560Y358142D01*
X518703Y358999D01*
X518667Y359178D01*
X519294Y359804D01*
X519758Y360925D01*
Y362137D01*
X519294Y363257D01*
X518999Y363552D01*
X519048Y364384D01*
X519819Y365156D01*
X520283Y366276D01*
Y367489D01*
X519819Y368609D01*
X518962Y369467D01*
X517842Y369931D01*
D02*
G37*
G36*
X527839Y375011D02*
X526627D01*
X525506Y374547D01*
X524649Y373689D01*
X524185Y372569D01*
Y371356D01*
X524649Y370236D01*
X525441Y369444D01*
X524606Y368609D01*
X524142Y367489D01*
Y366276D01*
X524606Y365156D01*
X525463Y364299D01*
X525477Y363468D01*
X525142Y363133D01*
X524678Y362013D01*
Y360800D01*
X525142Y359680D01*
X525933Y358888D01*
X525098Y358053D01*
X524635Y356933D01*
Y355720D01*
X525098Y354600D01*
X525956Y353742D01*
X525961Y353718D01*
X525215Y352973D01*
X524751Y351853D01*
Y350640D01*
X525215Y349520D01*
X526073Y348662D01*
X527193Y348198D01*
X528406D01*
X529526Y348662D01*
X530383Y349520D01*
X530847Y350640D01*
Y351853D01*
X530383Y352973D01*
X529526Y353830D01*
X529521Y353854D01*
X530266Y354600D01*
X530731Y355720D01*
Y356933D01*
X530266Y358053D01*
X529475Y358845D01*
X530310Y359680D01*
X530774Y360800D01*
Y362013D01*
X530310Y363133D01*
X529452Y363990D01*
X529439Y364821D01*
X529774Y365156D01*
X530238Y366276D01*
Y367489D01*
X529774Y368609D01*
X528982Y369401D01*
X529817Y370236D01*
X530281Y371356D01*
Y372569D01*
X529817Y373689D01*
X528959Y374547D01*
X527839Y375011D01*
D02*
G37*
G36*
X718466Y354084D02*
X717254D01*
X716133Y353620D01*
X715276Y352762D01*
X714812Y351642D01*
Y350429D01*
X715276Y349309D01*
X716133Y348452D01*
X717254Y347988D01*
X718466D01*
X719586Y348452D01*
X720444Y349309D01*
X720908Y350429D01*
Y351642D01*
X720444Y352762D01*
X719586Y353620D01*
X718466Y354084D01*
D02*
G37*
G36*
X703112Y355155D02*
X701899D01*
X700779Y354692D01*
X699922Y353834D01*
X699458Y352714D01*
Y351501D01*
X699922Y350381D01*
X700779Y349524D01*
X701899Y349059D01*
X703112D01*
X704122Y349478D01*
X704452Y349488D01*
X704986Y349382D01*
X705167Y348946D01*
X706024Y348088D01*
X707144Y347624D01*
X708357D01*
X709477Y348088D01*
X710335Y348946D01*
X710799Y350066D01*
Y351279D01*
X710335Y352399D01*
X709477Y353256D01*
X708357Y353720D01*
X707144D01*
X706135Y353302D01*
X705804Y353292D01*
X705270Y353398D01*
X705089Y353834D01*
X704232Y354692D01*
X703112Y355155D01*
D02*
G37*
G36*
X378647Y353560D02*
X377435D01*
X376314Y353096D01*
X375457Y352239D01*
X374993Y351119D01*
Y349906D01*
X375457Y348786D01*
X376314Y347928D01*
X377435Y347464D01*
X378647D01*
X379767Y347928D01*
X380625Y348786D01*
X381089Y349906D01*
Y351119D01*
X380625Y352239D01*
X379767Y353096D01*
X378647Y353560D01*
D02*
G37*
G36*
X339450Y353512D02*
X338237D01*
X337117Y353048D01*
X336260Y352191D01*
X335796Y351070D01*
Y349858D01*
X336260Y348738D01*
X337117Y347880D01*
X338237Y347416D01*
X339450D01*
X340570Y347880D01*
X341428Y348738D01*
X341892Y349858D01*
Y351070D01*
X341428Y352191D01*
X340570Y353048D01*
X339450Y353512D01*
D02*
G37*
G36*
X319943D02*
X318730D01*
X317610Y353048D01*
X316752Y352191D01*
X316288Y351070D01*
Y349858D01*
X316752Y348738D01*
X317610Y347880D01*
X318730Y347416D01*
X319943D01*
X321063Y347880D01*
X321920Y348738D01*
X322384Y349858D01*
Y351070D01*
X321920Y352191D01*
X321063Y353048D01*
X319943Y353512D01*
D02*
G37*
G36*
X280928D02*
X279716D01*
X278596Y353048D01*
X277738Y352191D01*
X277274Y351070D01*
Y349858D01*
X277738Y348738D01*
X278596Y347880D01*
X279716Y347416D01*
X280928D01*
X282049Y347880D01*
X282906Y348738D01*
X283370Y349858D01*
Y351070D01*
X282906Y352191D01*
X282049Y353048D01*
X280928Y353512D01*
D02*
G37*
G36*
X390898Y353243D02*
X389685D01*
X388565Y352779D01*
X387707Y351921D01*
X387243Y350801D01*
Y349589D01*
X387707Y348468D01*
X388565Y347611D01*
X389685Y347147D01*
X390898D01*
X392018Y347611D01*
X392875Y348468D01*
X393339Y349589D01*
Y350801D01*
X392875Y351921D01*
X392018Y352779D01*
X390898Y353243D01*
D02*
G37*
G36*
X398068Y353182D02*
X396856D01*
X395735Y352718D01*
X394878Y351861D01*
X394414Y350740D01*
Y349528D01*
X394878Y348407D01*
X395735Y347550D01*
X396856Y347086D01*
X398068D01*
X399188Y347550D01*
X400046Y348407D01*
X400510Y349528D01*
Y350740D01*
X400046Y351861D01*
X399188Y352718D01*
X398068Y353182D01*
D02*
G37*
G36*
X404949Y353553D02*
X403736D01*
X402616Y353089D01*
X401759Y352231D01*
X401295Y351111D01*
Y349898D01*
X401759Y348778D01*
X402616Y347921D01*
X403736Y347457D01*
X404949D01*
X406069Y347921D01*
X406849Y348700D01*
X407310Y348712D01*
X407696Y348645D01*
X407880Y348202D01*
X408737Y347344D01*
X409858Y346880D01*
X411070D01*
X412191Y347344D01*
X413048Y348202D01*
X413512Y349322D01*
Y350535D01*
X413048Y351655D01*
X412191Y352512D01*
X411070Y352976D01*
X409858D01*
X408737Y352512D01*
X407958Y351733D01*
X407497Y351721D01*
X407110Y351788D01*
X406927Y352231D01*
X406069Y353089D01*
X404949Y353553D01*
D02*
G37*
G36*
X567323Y355724D02*
X566111D01*
X564991Y355260D01*
X564133Y354403D01*
X563669Y353283D01*
Y352070D01*
X564133Y350950D01*
X564991Y350093D01*
X565073Y350059D01*
X565229Y349169D01*
X564700Y348640D01*
X564236Y347519D01*
Y346307D01*
X564700Y345187D01*
X565557Y344329D01*
X566677Y343865D01*
X567890D01*
X569010Y344329D01*
X569868Y345187D01*
X570332Y346307D01*
Y347519D01*
X569868Y348640D01*
X569010Y349497D01*
X568928Y349531D01*
X568772Y350421D01*
X569301Y350950D01*
X569765Y352070D01*
Y353283D01*
X569301Y354403D01*
X568444Y355260D01*
X567323Y355724D01*
D02*
G37*
G36*
X503013Y374919D02*
X501801D01*
X500680Y374455D01*
X499823Y373598D01*
X499359Y372477D01*
Y371265D01*
X499823Y370145D01*
X500680Y369287D01*
X501801Y368823D01*
X503013D01*
X503720Y369116D01*
X504304Y368533D01*
X503969Y367725D01*
Y366513D01*
X504433Y365392D01*
X505290Y364535D01*
X505401Y363981D01*
X505045Y363626D01*
X504581Y362505D01*
Y361293D01*
X505045Y360173D01*
X505903Y359315D01*
X505933Y359160D01*
X505327Y358553D01*
X504863Y357433D01*
Y356221D01*
X505327Y355100D01*
X506101Y354326D01*
X505248Y353473D01*
X504784Y352353D01*
Y351141D01*
X505248Y350020D01*
X505611Y349657D01*
X505689Y348865D01*
X504832Y348007D01*
X504368Y346887D01*
Y345675D01*
X504832Y344554D01*
X505689Y343697D01*
X506810Y343233D01*
X508022D01*
X509142Y343697D01*
X510000Y344554D01*
X510464Y345675D01*
Y346887D01*
X510000Y348007D01*
X509637Y348370D01*
X509559Y349163D01*
X510416Y350020D01*
X510880Y351141D01*
Y352353D01*
X510416Y353473D01*
X509642Y354248D01*
X510495Y355100D01*
X510959Y356221D01*
Y357433D01*
X510495Y358553D01*
X509638Y359411D01*
X509607Y359566D01*
X510213Y360173D01*
X510677Y361293D01*
Y362505D01*
X510213Y363626D01*
X509356Y364483D01*
X509246Y365037D01*
X509601Y365392D01*
X510065Y366513D01*
Y367725D01*
X509601Y368845D01*
X508744Y369703D01*
X507623Y370167D01*
X506411D01*
X505704Y369874D01*
X505120Y370457D01*
X505455Y371265D01*
Y372477D01*
X504991Y373598D01*
X504133Y374455D01*
X503013Y374919D01*
D02*
G37*
G36*
X359023Y346331D02*
X357811D01*
X356690Y345868D01*
X355833Y345010D01*
X355369Y343890D01*
Y342677D01*
X355833Y341557D01*
X356690Y340700D01*
X357811Y340235D01*
X359023D01*
X360143Y340700D01*
X361001Y341557D01*
X361465Y342677D01*
Y343890D01*
X361001Y345010D01*
X360143Y345868D01*
X359023Y346331D01*
D02*
G37*
G36*
X713086Y341539D02*
X711874D01*
X710754Y341074D01*
X709896Y340217D01*
X709215Y340532D01*
X708875Y340871D01*
X707755Y341335D01*
X706542D01*
X705422Y340871D01*
X704565Y340014D01*
X704101Y338894D01*
Y337681D01*
X704565Y336561D01*
X705422Y335703D01*
X706542Y335239D01*
X707755D01*
X708875Y335703D01*
X709733Y336561D01*
X710414Y336246D01*
X710754Y335907D01*
X711874Y335443D01*
X713086D01*
X714207Y335907D01*
X715064Y336764D01*
X715528Y337884D01*
Y339097D01*
X715064Y340217D01*
X714207Y341074D01*
X713086Y341539D01*
D02*
G37*
G36*
X313440Y345511D02*
X312228D01*
X311108Y345047D01*
X310250Y344190D01*
X309786Y343069D01*
Y341857D01*
X310250Y340737D01*
X311108Y339879D01*
X312228Y339415D01*
X313440D01*
X314561Y339879D01*
X315418Y340737D01*
X315882Y341857D01*
Y343069D01*
X315418Y344190D01*
X314561Y345047D01*
X313440Y345511D01*
D02*
G37*
G36*
X287431D02*
X286218D01*
X285098Y345047D01*
X284240Y344190D01*
X283776Y343069D01*
Y341857D01*
X284240Y340737D01*
X285098Y339879D01*
X286218Y339415D01*
X287431D01*
X288551Y339879D01*
X289408Y340737D01*
X289872Y341857D01*
Y343069D01*
X289408Y344190D01*
X288551Y345047D01*
X287431Y345511D01*
D02*
G37*
G36*
X61449Y343367D02*
X60237D01*
X59117Y342903D01*
X58259Y342046D01*
X57795Y340926D01*
Y339713D01*
X58259Y338593D01*
X59117Y337735D01*
X60237Y337271D01*
X61449D01*
X62524Y337716D01*
X62752Y337771D01*
X63377Y337647D01*
X63466Y337432D01*
X64324Y336575D01*
X65444Y336111D01*
X66656D01*
X67777Y336575D01*
X68634Y337432D01*
X69098Y338552D01*
Y339765D01*
X68634Y340885D01*
X67777Y341743D01*
X66656Y342207D01*
X65444D01*
X64370Y341762D01*
X64141Y341707D01*
X63516Y341831D01*
X63427Y342046D01*
X62570Y342903D01*
X61449Y343367D01*
D02*
G37*
G36*
X656777Y341554D02*
X655565D01*
X654444Y341090D01*
X653587Y340232D01*
X653123Y339112D01*
Y337900D01*
X653587Y336779D01*
X654444Y335922D01*
X655565Y335458D01*
X656777D01*
X657897Y335922D01*
X658755Y336779D01*
X659219Y337900D01*
Y339112D01*
X658755Y340232D01*
X657897Y341090D01*
X656777Y341554D01*
D02*
G37*
G36*
X675990Y341310D02*
X674777D01*
X673657Y340846D01*
X672800Y339989D01*
X672336Y338868D01*
Y337656D01*
X672800Y336535D01*
X673657Y335678D01*
X674777Y335214D01*
X675990D01*
X677110Y335678D01*
X677476Y336044D01*
X678127Y336380D01*
X678472Y336044D01*
X678991Y335526D01*
X680111Y335062D01*
X681324D01*
X682444Y335526D01*
X683301Y336383D01*
X683765Y337503D01*
Y338716D01*
X683301Y339836D01*
X682444Y340694D01*
X681324Y341158D01*
X680111D01*
X678991Y340694D01*
X678624Y340327D01*
X677974Y339992D01*
X677629Y340327D01*
X677110Y340846D01*
X675990Y341310D01*
D02*
G37*
G36*
X371543Y338074D02*
X370330D01*
X369210Y337610D01*
X368353Y336753D01*
X367888Y335632D01*
Y334420D01*
X368353Y333299D01*
X369210Y332442D01*
X370330Y331978D01*
X371543D01*
X372663Y332442D01*
X373521Y333299D01*
X373946Y334327D01*
X374330Y334375D01*
X374335Y334375D01*
X374708Y334327D01*
X375134Y333297D01*
X375992Y332439D01*
X377112Y331976D01*
X378325D01*
X379445Y332439D01*
X380302Y333297D01*
X380766Y334417D01*
Y335630D01*
X380302Y336750D01*
X379445Y337607D01*
X378325Y338072D01*
X377112D01*
X375992Y337607D01*
X375134Y336750D01*
X374709Y335723D01*
X374325Y335675D01*
X374319Y335675D01*
X373947Y335723D01*
X373521Y336753D01*
X372663Y337610D01*
X371543Y338074D01*
D02*
G37*
G36*
X326384Y337619D02*
X325172D01*
X324051Y337155D01*
X323194Y336298D01*
X322730Y335178D01*
Y333965D01*
X323194Y332845D01*
X324051Y331987D01*
X325172Y331523D01*
X326384D01*
X327504Y331987D01*
X328362Y332845D01*
X328826Y333965D01*
Y335178D01*
X328362Y336298D01*
X327504Y337155D01*
X326384Y337619D01*
D02*
G37*
G36*
X404362Y337000D02*
X403150D01*
X402029Y336535D01*
X401172Y335678D01*
X400708Y334558D01*
Y333345D01*
X401172Y332225D01*
X402029Y331368D01*
X403150Y330904D01*
X404362D01*
X405482Y331368D01*
X406340Y332225D01*
X406804Y333345D01*
Y334558D01*
X406340Y335678D01*
X405482Y336535D01*
X404362Y337000D01*
D02*
G37*
G36*
X163446Y340855D02*
X162233D01*
X161113Y340391D01*
X160255Y339534D01*
X159791Y338414D01*
Y337201D01*
X160255Y336081D01*
X160897Y335439D01*
X161113Y335223D01*
X160929Y334475D01*
X160644Y334190D01*
X160180Y333069D01*
Y331857D01*
X160644Y330737D01*
X161502Y329879D01*
X162622Y329415D01*
X163834D01*
X164955Y329879D01*
X165812Y330737D01*
X166276Y331857D01*
Y333069D01*
X165812Y334190D01*
X165170Y334832D01*
X164955Y335047D01*
X165138Y335796D01*
X165423Y336081D01*
X165887Y337201D01*
Y338414D01*
X165423Y339534D01*
X164566Y340391D01*
X163446Y340855D01*
D02*
G37*
G36*
X124695D02*
X123483D01*
X122363Y340391D01*
X121505Y339534D01*
X121041Y338414D01*
Y337201D01*
X121505Y336081D01*
X122363Y335223D01*
X122846Y335023D01*
Y334198D01*
X122363Y333998D01*
X121505Y333141D01*
X121041Y332020D01*
Y330808D01*
X121505Y329688D01*
X122363Y328830D01*
X123483Y328366D01*
X124695D01*
X125816Y328830D01*
X126673Y329688D01*
X127137Y330808D01*
Y332020D01*
X126673Y333141D01*
X125816Y333998D01*
X125332Y334198D01*
Y335023D01*
X125816Y335223D01*
X126673Y336081D01*
X127137Y337201D01*
Y338414D01*
X126673Y339534D01*
X125816Y340391D01*
X124695Y340855D01*
D02*
G37*
G36*
X702421Y333492D02*
X701208D01*
X700088Y333028D01*
X699231Y332170D01*
X698767Y331050D01*
Y329838D01*
X699231Y328717D01*
X700088Y327860D01*
X701208Y327396D01*
X702421D01*
X703541Y327860D01*
X703863Y328182D01*
X704560Y328481D01*
X704859Y328182D01*
X705417Y327624D01*
X706537Y327160D01*
X707750D01*
X708870Y327624D01*
X709463Y328216D01*
X709953Y328398D01*
X710443Y328216D01*
X711036Y327624D01*
X712156Y327160D01*
X713368D01*
X714489Y327624D01*
X715346Y328481D01*
X715810Y329601D01*
Y330814D01*
X715346Y331934D01*
X714489Y332792D01*
X713368Y333256D01*
X712156D01*
X711036Y332792D01*
X710443Y332199D01*
X709953Y332018D01*
X709463Y332199D01*
X708870Y332792D01*
X707750Y333256D01*
X706537D01*
X705417Y332792D01*
X705095Y332470D01*
X704399Y332170D01*
X704100Y332470D01*
X703541Y333028D01*
X702421Y333492D01*
D02*
G37*
G36*
X72897Y338760D02*
X71685D01*
X70564Y338296D01*
X69707Y337438D01*
X69243Y336318D01*
Y335106D01*
X69707Y333985D01*
X70564Y333128D01*
X70687Y333077D01*
Y332252D01*
X70554Y332197D01*
X69697Y331340D01*
X69233Y330219D01*
Y329007D01*
X69697Y327887D01*
X70554Y327029D01*
X71674Y326565D01*
X72887D01*
X74007Y327029D01*
X74865Y327887D01*
X75329Y329007D01*
Y330219D01*
X74865Y331340D01*
X74007Y332197D01*
X73885Y332248D01*
Y333073D01*
X74018Y333128D01*
X74875Y333985D01*
X75339Y335106D01*
Y336318D01*
X74875Y337438D01*
X74018Y338296D01*
X72897Y338760D01*
D02*
G37*
G36*
X385310Y330073D02*
X384097D01*
X382977Y329609D01*
X382119Y328752D01*
X381655Y327631D01*
Y326419D01*
X382119Y325298D01*
X382977Y324441D01*
X384097Y323977D01*
X385310D01*
X386430Y324441D01*
X387287Y325298D01*
X387751Y326419D01*
Y327631D01*
X387287Y328752D01*
X386430Y329609D01*
X385310Y330073D01*
D02*
G37*
G36*
X358736Y330045D02*
X357524D01*
X356403Y329581D01*
X355546Y328724D01*
X355082Y327603D01*
Y326391D01*
X355546Y325271D01*
X356403Y324413D01*
X357524Y323949D01*
X358736D01*
X359856Y324413D01*
X360714Y325271D01*
X361178Y326391D01*
Y327603D01*
X360714Y328724D01*
X359856Y329581D01*
X358736Y330045D01*
D02*
G37*
G36*
X371936Y329928D02*
X370724D01*
X369604Y329464D01*
X368746Y328607D01*
X368282Y327486D01*
Y326274D01*
X368746Y325154D01*
X369604Y324296D01*
X370724Y323832D01*
X371936D01*
X373057Y324296D01*
X373914Y325154D01*
X374378Y326274D01*
Y327486D01*
X373914Y328607D01*
X373057Y329464D01*
X371936Y329928D01*
D02*
G37*
G36*
X339450Y329509D02*
X338237D01*
X337117Y329045D01*
X336260Y328188D01*
X335796Y327067D01*
Y325855D01*
X336260Y324735D01*
X337117Y323877D01*
X338237Y323413D01*
X339450D01*
X340570Y323877D01*
X341428Y324735D01*
X341892Y325855D01*
Y327067D01*
X341428Y328188D01*
X340570Y329045D01*
X339450Y329509D01*
D02*
G37*
G36*
X326445D02*
X325233D01*
X324112Y329045D01*
X323255Y328188D01*
X322791Y327067D01*
Y325855D01*
X323255Y324735D01*
X324112Y323877D01*
X325233Y323413D01*
X326445D01*
X327565Y323877D01*
X328423Y324735D01*
X328887Y325855D01*
Y327067D01*
X328423Y328188D01*
X327565Y329045D01*
X326445Y329509D01*
D02*
G37*
G36*
X313440D02*
X312228D01*
X311108Y329045D01*
X310250Y328188D01*
X309786Y327067D01*
Y325855D01*
X310250Y324735D01*
X311108Y323877D01*
X312228Y323413D01*
X313440D01*
X314561Y323877D01*
X315418Y324735D01*
X315882Y325855D01*
Y327067D01*
X315418Y328188D01*
X314561Y329045D01*
X313440Y329509D01*
D02*
G37*
G36*
X300436D02*
X299223D01*
X298103Y329045D01*
X297245Y328188D01*
X296781Y327067D01*
Y325855D01*
X297245Y324735D01*
X298103Y323877D01*
X299223Y323413D01*
X300436D01*
X301556Y323877D01*
X302413Y324735D01*
X302877Y325855D01*
Y327067D01*
X302413Y328188D01*
X301556Y329045D01*
X300436Y329509D01*
D02*
G37*
G36*
X35430Y328879D02*
X34217D01*
X33097Y328415D01*
X32239Y327558D01*
X31775Y326437D01*
Y325225D01*
X32239Y324105D01*
X33097Y323247D01*
X34217Y322783D01*
X35430D01*
X36550Y323247D01*
X37407Y324105D01*
X37871Y325225D01*
Y326437D01*
X37407Y327558D01*
X36550Y328415D01*
X35430Y328879D01*
D02*
G37*
G36*
X218637Y321968D02*
X217425D01*
X216304Y321504D01*
X215756Y320956D01*
X215259Y320731D01*
X214761Y320956D01*
X214213Y321504D01*
X213092Y321968D01*
X211880D01*
X210760Y321504D01*
X209902Y320646D01*
X209438Y319526D01*
Y318314D01*
X209902Y317193D01*
X210760Y316336D01*
X211880Y315872D01*
X213092D01*
X214213Y316336D01*
X214761Y316884D01*
X215259Y317108D01*
X215756Y316884D01*
X215895Y316746D01*
X216289Y316314D01*
X215895Y315750D01*
X215513Y315368D01*
X215049Y314248D01*
Y313036D01*
X215513Y311915D01*
X216371Y311058D01*
X217491Y310594D01*
X218703D01*
X219824Y311058D01*
X220681Y311915D01*
X221145Y313036D01*
Y314248D01*
X220681Y315368D01*
X220233Y315816D01*
X219839Y316247D01*
X220233Y316812D01*
X220615Y317193D01*
X221079Y318314D01*
Y319526D01*
X220615Y320646D01*
X219758Y321504D01*
X218637Y321968D01*
D02*
G37*
G36*
X708111Y321666D02*
X706898D01*
X705778Y321202D01*
X704920Y320344D01*
X704456Y319224D01*
Y318011D01*
X704920Y316891D01*
X705778Y316034D01*
X706898Y315570D01*
X708111D01*
X709231Y316034D01*
X709624Y316427D01*
X710223Y316774D01*
X710620Y316427D01*
X711112Y315935D01*
X712232Y315471D01*
X713445D01*
X714565Y315935D01*
X715422Y316792D01*
X715886Y317912D01*
Y319125D01*
X715422Y320245D01*
X714565Y321102D01*
X713445Y321567D01*
X712232D01*
X711112Y321102D01*
X710719Y320709D01*
X710120Y320363D01*
X709723Y320709D01*
X709231Y321202D01*
X708111Y321666D01*
D02*
G37*
G36*
X678774Y319649D02*
X677561D01*
X676441Y319185D01*
X675583Y318327D01*
X675119Y317207D01*
Y315995D01*
X675583Y314874D01*
X676441Y314017D01*
X677561Y313553D01*
X678774D01*
X679894Y314017D01*
X680751Y314874D01*
X681215Y315995D01*
Y317207D01*
X680751Y318327D01*
X679894Y319185D01*
X678774Y319649D01*
D02*
G37*
G36*
X619576Y316057D02*
X618364D01*
X617243Y315593D01*
X616386Y314736D01*
X615922Y313616D01*
Y312403D01*
X616386Y311283D01*
X617243Y310425D01*
X618364Y309961D01*
X619576D01*
X620697Y310425D01*
X621554Y311283D01*
X622018Y312403D01*
Y313616D01*
X621554Y314736D01*
X620697Y315593D01*
X619576Y316057D01*
D02*
G37*
G36*
X310433Y308958D02*
X309220D01*
X308100Y308494D01*
X307513Y307907D01*
X307021Y307720D01*
X306530Y307907D01*
X305942Y308494D01*
X304822Y308958D01*
X303610D01*
X302489Y308494D01*
X301632Y307637D01*
X301168Y306516D01*
Y305304D01*
X301632Y304183D01*
X302489Y303326D01*
X303610Y302862D01*
X304822D01*
X305942Y303326D01*
X306530Y303913D01*
X307021Y304100D01*
X307513Y303913D01*
X308100Y303326D01*
X309220Y302862D01*
X310433D01*
X311553Y303326D01*
X312411Y304183D01*
X312875Y305304D01*
Y306516D01*
X312411Y307637D01*
X311553Y308494D01*
X310433Y308958D01*
D02*
G37*
G36*
X545058Y323969D02*
X542954Y323692D01*
X540993Y322880D01*
X539309Y321588D01*
X538017Y319904D01*
X537205Y317944D01*
X536928Y315840D01*
X537205Y313735D01*
X538017Y311775D01*
X539309Y310091D01*
X540993Y308799D01*
X542954Y307987D01*
X545058Y307710D01*
X547162Y307987D01*
X549123Y308799D01*
X550806Y310091D01*
X552098Y311775D01*
X552911Y313735D01*
X553188Y315840D01*
X552911Y317944D01*
X552098Y319904D01*
X550806Y321588D01*
X549123Y322880D01*
X547162Y323692D01*
X545058Y323969D01*
D02*
G37*
G36*
X644585Y320987D02*
X643373D01*
X642252Y320523D01*
X641395Y319666D01*
X640931Y318546D01*
Y317333D01*
X641395Y316213D01*
X642252Y315355D01*
X643373Y314891D01*
X644585D01*
X645705Y315355D01*
X645785Y315435D01*
X646547Y315119D01*
Y314707D01*
X647011Y313587D01*
X647321Y313277D01*
X647601Y312568D01*
X647318Y312284D01*
X646744Y311711D01*
X646280Y310590D01*
Y309378D01*
X646744Y308258D01*
X647602Y307400D01*
X648722Y306936D01*
X649934D01*
X651055Y307400D01*
X651912Y308258D01*
X652376Y309378D01*
Y310590D01*
X651912Y311711D01*
X651602Y312021D01*
X651321Y312729D01*
X651605Y313013D01*
X652179Y313587D01*
X652643Y314707D01*
Y315919D01*
X652179Y317040D01*
X651321Y317897D01*
X650201Y318361D01*
X648989D01*
X647868Y317897D01*
X647789Y317818D01*
X647027Y318133D01*
Y318546D01*
X646563Y319666D01*
X645705Y320523D01*
X644585Y320987D01*
D02*
G37*
G36*
X713086Y305349D02*
X711874D01*
X710754Y304885D01*
X710279Y304410D01*
X709846Y304058D01*
X709284Y304410D01*
X708873Y304821D01*
X707752Y305285D01*
X706540D01*
X705420Y304821D01*
X704562Y303964D01*
X704098Y302843D01*
Y301631D01*
X704562Y300511D01*
X705420Y299653D01*
X706540Y299189D01*
X707752D01*
X708873Y299653D01*
X709347Y300128D01*
X709780Y300480D01*
X710343Y300128D01*
X710754Y299717D01*
X711874Y299253D01*
X713086D01*
X714207Y299717D01*
X715064Y300574D01*
X715528Y301694D01*
Y302907D01*
X715064Y304027D01*
X714207Y304885D01*
X713086Y305349D01*
D02*
G37*
G36*
X656777Y305524D02*
X655565D01*
X654444Y305060D01*
X653587Y304202D01*
X653542Y304094D01*
X652701Y304054D01*
X652007Y304747D01*
X650887Y305212D01*
X649674D01*
X648554Y304747D01*
X647697Y303890D01*
X647233Y302770D01*
Y301557D01*
X647697Y300437D01*
X648554Y299580D01*
X649674Y299116D01*
X650887D01*
X652007Y299580D01*
X652865Y300437D01*
X652909Y300545D01*
X653751Y300585D01*
X654444Y299892D01*
X655565Y299428D01*
X656777D01*
X657897Y299892D01*
X658755Y300749D01*
X659219Y301870D01*
Y303082D01*
X658755Y304202D01*
X657897Y305060D01*
X656777Y305524D01*
D02*
G37*
G36*
X595863Y328255D02*
X592649Y327832D01*
X589655Y326592D01*
X587084Y324619D01*
X585110Y322048D01*
X583870Y319053D01*
X583447Y315840D01*
X583870Y312626D01*
X585110Y309632D01*
X587084Y307060D01*
X589655Y305087D01*
X592649Y303847D01*
X595863Y303424D01*
X599076Y303847D01*
X602071Y305087D01*
X604642Y307060D01*
X606615Y309632D01*
X607856Y312626D01*
X608279Y315840D01*
X607856Y319053D01*
X606615Y322048D01*
X604642Y324619D01*
X602071Y326592D01*
X599076Y327832D01*
X595863Y328255D01*
D02*
G37*
G36*
X458603Y328256D02*
X455389Y327833D01*
X452394Y326593D01*
X449823Y324619D01*
X447850Y322048D01*
X446609Y319053D01*
X446186Y315840D01*
X446609Y312626D01*
X447850Y309631D01*
X449823Y307060D01*
X452394Y305086D01*
X455389Y303846D01*
X458603Y303423D01*
X461817Y303846D01*
X464811Y305086D01*
X467383Y307060D01*
X469356Y309631D01*
X470597Y312626D01*
X471020Y315840D01*
X470597Y319053D01*
X469356Y322048D01*
X467383Y324619D01*
X464811Y326593D01*
X461817Y327833D01*
X458603Y328256D01*
D02*
G37*
G36*
X23337Y309240D02*
X22124D01*
X21004Y308776D01*
X20147Y307918D01*
X19683Y306798D01*
Y305586D01*
X20147Y304465D01*
X21004Y303608D01*
X22124Y303144D01*
X23337D01*
X24457Y303608D01*
X25314Y304465D01*
X25779Y305586D01*
Y306798D01*
X25314Y307918D01*
X24457Y308776D01*
X23337Y309240D01*
D02*
G37*
G36*
X291243Y309042D02*
X290031D01*
X288910Y308578D01*
X288053Y307720D01*
X287589Y306600D01*
Y305387D01*
X288053Y304267D01*
X288910Y303410D01*
X290031Y302946D01*
X291243D01*
X292363Y303410D01*
X292894Y303940D01*
X293474Y304135D01*
X293875Y303926D01*
X294475Y303326D01*
X295596Y302862D01*
X296808D01*
X297929Y303326D01*
X298786Y304183D01*
X299250Y305304D01*
Y306516D01*
X298786Y307637D01*
X297929Y308494D01*
X296808Y308958D01*
X295596D01*
X294475Y308494D01*
X293945Y307963D01*
X293365Y307769D01*
X292964Y307978D01*
X292363Y308578D01*
X291243Y309042D01*
D02*
G37*
G36*
X192374Y305735D02*
X191161D01*
X190041Y305271D01*
X189184Y304413D01*
X188720Y303293D01*
Y302080D01*
X189184Y300960D01*
X190041Y300103D01*
X191161Y299639D01*
X192374D01*
X193494Y300103D01*
X194351Y300960D01*
X194816Y302080D01*
Y303293D01*
X194351Y304413D01*
X193494Y305271D01*
X192374Y305735D01*
D02*
G37*
G36*
X249435Y307104D02*
X248222D01*
X247102Y306640D01*
X246245Y305782D01*
X245781Y304662D01*
Y303449D01*
X246245Y302329D01*
X247102Y301472D01*
X247528Y301295D01*
Y300471D01*
X247183Y300328D01*
X246326Y299470D01*
X245862Y298350D01*
Y297138D01*
X246326Y296017D01*
X247183Y295160D01*
X248304Y294696D01*
X249516D01*
X250636Y295160D01*
X251494Y296017D01*
X251770Y296684D01*
X252595D01*
X252803Y296182D01*
X253660Y295325D01*
X254781Y294861D01*
X255993D01*
X257113Y295325D01*
X257971Y296182D01*
X258149Y296614D01*
X258974D01*
X259153Y296182D01*
X260010Y295325D01*
X261131Y294861D01*
X262343D01*
X263463Y295325D01*
X264321Y296182D01*
X264785Y297303D01*
Y298515D01*
X264321Y299636D01*
X263463Y300493D01*
X263293Y300564D01*
Y301388D01*
X263298Y301390D01*
X264156Y302248D01*
X264620Y303368D01*
Y304581D01*
X264156Y305701D01*
X263298Y306558D01*
X262178Y307022D01*
X260965D01*
X259845Y306558D01*
X258988Y305701D01*
X258809Y305270D01*
X257984D01*
X257806Y305701D01*
X256948Y306558D01*
X255828Y307022D01*
X254615D01*
X253495Y306558D01*
X252638Y305701D01*
X252454Y305258D01*
X251630D01*
X251413Y305782D01*
X250555Y306640D01*
X249435Y307104D01*
D02*
G37*
G36*
X222173Y294912D02*
X220961D01*
X219840Y294448D01*
X219447Y294055D01*
X218965Y293606D01*
X218451Y294055D01*
X218074Y294433D01*
X216953Y294897D01*
X215741D01*
X214620Y294433D01*
X214173Y293985D01*
X213675Y293637D01*
X213177Y293985D01*
X212729Y294433D01*
X211609Y294897D01*
X210397D01*
X209276Y294433D01*
X208419Y293575D01*
X207955Y292455D01*
Y291242D01*
X208419Y290122D01*
X209276Y289265D01*
X210397Y288801D01*
X211609D01*
X212729Y289265D01*
X213177Y289712D01*
X213675Y290060D01*
X214173Y289712D01*
X214620Y289265D01*
X215741Y288801D01*
X216953D01*
X218074Y289265D01*
X218467Y289658D01*
X218949Y290106D01*
X219462Y289658D01*
X219840Y289280D01*
X220961Y288816D01*
X222173D01*
X223293Y289280D01*
X224151Y290137D01*
X224615Y291257D01*
Y292470D01*
X224151Y293590D01*
X223293Y294448D01*
X222173Y294912D01*
D02*
G37*
G36*
X144379Y309141D02*
X142239D01*
X140172Y308587D01*
X138319Y307517D01*
X136805Y306004D01*
X135735Y304150D01*
X135181Y302083D01*
Y299943D01*
X135735Y297876D01*
X136805Y296022D01*
X138319Y294509D01*
X140172Y293439D01*
X142239Y292885D01*
X144379D01*
X146447Y293439D01*
X148300Y294509D01*
X149813Y296022D01*
X150883Y297876D01*
X151437Y299943D01*
Y302083D01*
X150883Y304150D01*
X149813Y306004D01*
X148300Y307517D01*
X146447Y308587D01*
X144379Y309141D01*
D02*
G37*
G36*
X327149Y292831D02*
X325936D01*
X324816Y292367D01*
X323959Y291510D01*
X323811Y291481D01*
X323194Y292098D01*
X322074Y292562D01*
X320861D01*
X319741Y292098D01*
X318883Y291241D01*
X318419Y290121D01*
Y288908D01*
X318883Y287788D01*
X319741Y286930D01*
X320861Y286466D01*
X322074D01*
X323194Y286930D01*
X324051Y287788D01*
X324198Y287817D01*
X324816Y287200D01*
X325936Y286735D01*
X327149D01*
X328269Y287200D01*
X329047Y287977D01*
X329896Y287128D01*
X331016Y286664D01*
X332229D01*
X333349Y287128D01*
X333811Y287591D01*
X334547Y287713D01*
X334759Y287543D01*
X335441Y286862D01*
X336561Y286398D01*
X337774D01*
X338894Y286862D01*
X339751Y287719D01*
X340215Y288839D01*
Y290052D01*
X339751Y291172D01*
X338894Y292030D01*
X337774Y292494D01*
X336561D01*
X335441Y292030D01*
X334978Y291567D01*
X334243Y291445D01*
X334030Y291615D01*
X333349Y292296D01*
X332229Y292760D01*
X331016D01*
X329896Y292296D01*
X329118Y291518D01*
X328269Y292367D01*
X327149Y292831D01*
D02*
G37*
G36*
X354261Y297061D02*
X353048D01*
X351928Y296597D01*
X351070Y295739D01*
X350606Y294619D01*
Y293406D01*
X351070Y292286D01*
X351928Y291429D01*
X353048Y290965D01*
X354261D01*
X355381Y291429D01*
X356238Y292286D01*
X356702Y293406D01*
Y294619D01*
X356238Y295739D01*
X355381Y296597D01*
X354261Y297061D01*
D02*
G37*
G36*
X713089Y289590D02*
X711876D01*
X710756Y289126D01*
X710306Y288676D01*
X709824Y288321D01*
X709310Y288676D01*
X708875Y289111D01*
X707755Y289575D01*
X706542D01*
X705422Y289111D01*
X704565Y288254D01*
X704101Y287134D01*
Y285921D01*
X704565Y284801D01*
X705422Y283943D01*
X706542Y283479D01*
X707755D01*
X708875Y283943D01*
X709325Y284394D01*
X709808Y284749D01*
X710321Y284394D01*
X710756Y283958D01*
X711876Y283494D01*
X713089D01*
X714209Y283958D01*
X715067Y284816D01*
X715531Y285936D01*
Y287149D01*
X715067Y288269D01*
X714209Y289126D01*
X713089Y289590D01*
D02*
G37*
G36*
X403448Y294320D02*
X402235D01*
X401115Y293856D01*
X400257Y292999D01*
X399794Y291878D01*
Y290666D01*
X400257Y289545D01*
X401115Y288688D01*
X402235Y288224D01*
X403448D01*
X404568Y288688D01*
X405425Y289545D01*
X405890Y290666D01*
Y291878D01*
X405425Y292999D01*
X404568Y293856D01*
X403448Y294320D01*
D02*
G37*
G36*
X123631Y292356D02*
X122419D01*
X121298Y291893D01*
X120441Y291035D01*
X119977Y289915D01*
Y288702D01*
X120441Y287582D01*
X121298Y286725D01*
X122419Y286261D01*
X123631D01*
X124752Y286725D01*
X125609Y287582D01*
X126073Y288702D01*
Y289915D01*
X125609Y291035D01*
X124752Y291893D01*
X123631Y292356D01*
D02*
G37*
G36*
X651453Y290142D02*
X650241D01*
X649120Y289678D01*
X648263Y288820D01*
X647799Y287700D01*
Y286487D01*
X648263Y285367D01*
X649120Y284510D01*
X650241Y284046D01*
X651453D01*
X652574Y284510D01*
X653007Y284943D01*
X653572Y284831D01*
X654429Y283974D01*
X655549Y283510D01*
X656762D01*
X657882Y283974D01*
X658740Y284831D01*
X659204Y285951D01*
Y287164D01*
X658740Y288284D01*
X657882Y289142D01*
X656762Y289606D01*
X655549D01*
X654429Y289142D01*
X653995Y288708D01*
X653431Y288820D01*
X652574Y289678D01*
X651453Y290142D01*
D02*
G37*
G36*
X463328Y289418D02*
X462116D01*
X460995Y288954D01*
X460138Y288096D01*
X459674Y286976D01*
Y285763D01*
X460138Y284643D01*
X460995Y283786D01*
X462116Y283322D01*
X463328D01*
X464449Y283786D01*
X465306Y284643D01*
X465770Y285763D01*
Y286976D01*
X465306Y288096D01*
X464449Y288954D01*
X463328Y289418D01*
D02*
G37*
G36*
X281584Y295684D02*
X280371D01*
X279251Y295220D01*
X278393Y294363D01*
X277929Y293242D01*
Y292030D01*
X278393Y290909D01*
X279251Y290052D01*
X279396Y289992D01*
Y289167D01*
X278783Y288913D01*
X277926Y288056D01*
X277462Y286935D01*
Y285723D01*
X277926Y284603D01*
X278783Y283745D01*
X279904Y283281D01*
X281116D01*
X282236Y283745D01*
X283094Y284603D01*
X283558Y285723D01*
Y286935D01*
X283094Y288056D01*
X282236Y288913D01*
X282091Y288973D01*
Y289798D01*
X282704Y290052D01*
X283561Y290909D01*
X284025Y292030D01*
Y293242D01*
X283561Y294363D01*
X282704Y295220D01*
X281584Y295684D01*
D02*
G37*
G36*
X608355Y286212D02*
X607142D01*
X606022Y285748D01*
X605164Y284891D01*
X604700Y283771D01*
Y282558D01*
X605164Y281438D01*
X606022Y280580D01*
X607142Y280116D01*
X608355D01*
X609475Y280580D01*
X610332Y281438D01*
X610796Y282558D01*
Y283771D01*
X610332Y284891D01*
X609475Y285748D01*
X608355Y286212D01*
D02*
G37*
G36*
X123466Y284841D02*
X122254D01*
X121133Y284377D01*
X120276Y283519D01*
X119812Y282399D01*
Y281186D01*
X120276Y280066D01*
X121133Y279209D01*
X122254Y278745D01*
X123466D01*
X124586Y279209D01*
X125444Y280066D01*
X125908Y281186D01*
Y282399D01*
X125444Y283519D01*
X124586Y284377D01*
X123466Y284841D01*
D02*
G37*
G36*
X675017Y283337D02*
X673804D01*
X672684Y282873D01*
X671827Y282016D01*
X671363Y280895D01*
Y279683D01*
X671827Y278562D01*
X672684Y277705D01*
X673804Y277241D01*
X675017D01*
X676137Y277705D01*
X676995Y278562D01*
X677459Y279683D01*
Y280895D01*
X676995Y282016D01*
X676137Y282873D01*
X675017Y283337D01*
D02*
G37*
G36*
X682142Y283256D02*
X680929D01*
X679809Y282792D01*
X678951Y281934D01*
X678487Y280814D01*
Y279601D01*
X678951Y278481D01*
X679809Y277624D01*
X680929Y277160D01*
X682142D01*
X683262Y277624D01*
X684119Y278481D01*
X684583Y279601D01*
Y280814D01*
X684119Y281934D01*
X683262Y282792D01*
X682142Y283256D01*
D02*
G37*
G36*
X689023Y283093D02*
X687810D01*
X686690Y282629D01*
X685832Y281772D01*
X685368Y280651D01*
Y279439D01*
X685832Y278319D01*
X686690Y277461D01*
X687810Y276997D01*
X689023D01*
X690143Y277461D01*
X691000Y278319D01*
X691464Y279439D01*
Y280651D01*
X691000Y281772D01*
X690143Y282629D01*
X689023Y283093D01*
D02*
G37*
G36*
X161297Y274658D02*
X160084D01*
X158964Y274194D01*
X158107Y273336D01*
X157643Y272216D01*
Y271003D01*
X158107Y269883D01*
X158964Y269026D01*
X160084Y268562D01*
X161297D01*
X162417Y269026D01*
X163274Y269883D01*
X163739Y271003D01*
Y272216D01*
X163274Y273336D01*
X162417Y274194D01*
X161297Y274658D01*
D02*
G37*
G36*
X30863Y274546D02*
X29650D01*
X28530Y274082D01*
X27673Y273225D01*
X27208Y272104D01*
Y270892D01*
X27673Y269771D01*
X28530Y268914D01*
X29650Y268450D01*
X30863D01*
X31983Y268914D01*
X32840Y269771D01*
X33305Y270892D01*
Y272104D01*
X32840Y273225D01*
X31983Y274082D01*
X30863Y274546D01*
D02*
G37*
G36*
X550318Y270886D02*
X549106D01*
X547985Y270422D01*
X547128Y269564D01*
X546664Y268444D01*
Y267232D01*
X547128Y266111D01*
X547985Y265254D01*
X549106Y264790D01*
X550318D01*
X551438Y265254D01*
X552296Y266111D01*
X552760Y267232D01*
Y268444D01*
X552296Y269564D01*
X551438Y270422D01*
X550318Y270886D01*
D02*
G37*
G36*
X573511Y269738D02*
X572298D01*
X571178Y269274D01*
X570321Y268416D01*
X569857Y267296D01*
Y266084D01*
X570321Y264963D01*
X571178Y264106D01*
X572298Y263642D01*
X573511D01*
X574631Y264106D01*
X575489Y264963D01*
X575953Y266084D01*
Y267296D01*
X575489Y268416D01*
X574631Y269274D01*
X573511Y269738D01*
D02*
G37*
G36*
X193989Y270609D02*
X192777D01*
X191656Y270145D01*
X190799Y269288D01*
X190335Y268167D01*
Y266955D01*
X190386Y266831D01*
X189963Y266197D01*
X189520D01*
X188400Y265733D01*
X187543Y264876D01*
X187079Y263755D01*
Y262543D01*
X187543Y261423D01*
X188400Y260565D01*
X189520Y260101D01*
X190733D01*
X191853Y260565D01*
X192711Y261423D01*
X193175Y262543D01*
Y263755D01*
X193123Y263880D01*
X193547Y264513D01*
X193989D01*
X195110Y264977D01*
X195967Y265835D01*
X196431Y266955D01*
Y268167D01*
X195967Y269288D01*
X195110Y270145D01*
X193989Y270609D01*
D02*
G37*
G36*
X463328Y261694D02*
X462116D01*
X460995Y261230D01*
X460138Y260372D01*
X459674Y259252D01*
Y258039D01*
X460138Y256919D01*
X460995Y256062D01*
X462116Y255598D01*
X463328D01*
X464449Y256062D01*
X465306Y256919D01*
X465770Y258039D01*
Y259252D01*
X465306Y260372D01*
X464449Y261230D01*
X463328Y261694D01*
D02*
G37*
G36*
X702421Y261490D02*
X701208D01*
X700088Y261026D01*
X699231Y260169D01*
X698767Y259049D01*
Y257836D01*
X699231Y256716D01*
X700088Y255858D01*
X701208Y255394D01*
X702421D01*
X703541Y255858D01*
X704399Y256716D01*
X704863Y257836D01*
Y259049D01*
X704399Y260169D01*
X703541Y261026D01*
X702421Y261490D01*
D02*
G37*
G36*
X661789D02*
X660576D01*
X659456Y261026D01*
X658598Y260169D01*
X658134Y259049D01*
Y257836D01*
X658598Y256716D01*
X659456Y255858D01*
X660576Y255394D01*
X661789D01*
X662909Y255858D01*
X663766Y256716D01*
X664230Y257836D01*
Y259049D01*
X663766Y260169D01*
X662909Y261026D01*
X661789Y261490D01*
D02*
G37*
G36*
X167588Y256685D02*
X166376D01*
X165256Y256221D01*
X164398Y255363D01*
X163934Y254243D01*
Y253030D01*
X164398Y251910D01*
X165256Y251053D01*
X166376Y250589D01*
X167588D01*
X168709Y251053D01*
X169566Y251910D01*
X170030Y253030D01*
Y254243D01*
X169566Y255363D01*
X168709Y256221D01*
X167588Y256685D01*
D02*
G37*
G36*
X353062Y250165D02*
X351849D01*
X350729Y249701D01*
X349871Y248843D01*
X349408Y247723D01*
Y246510D01*
X349871Y245390D01*
X350729Y244533D01*
X351849Y244069D01*
X353062D01*
X354182Y244533D01*
X355039Y245390D01*
X355504Y246510D01*
Y247723D01*
X355039Y248843D01*
X354182Y249701D01*
X353062Y250165D01*
D02*
G37*
G36*
X463389Y249603D02*
X462177D01*
X461056Y249139D01*
X460199Y248282D01*
X459735Y247162D01*
Y245949D01*
X460199Y244829D01*
X461056Y243971D01*
X462177Y243507D01*
X463389D01*
X464510Y243971D01*
X465367Y244829D01*
X465831Y245949D01*
Y247162D01*
X465367Y248282D01*
X464510Y249139D01*
X463389Y249603D01*
D02*
G37*
G36*
X682368Y249250D02*
X681155D01*
X680035Y248786D01*
X679177Y247929D01*
X678713Y246808D01*
Y245596D01*
X679177Y244476D01*
X680035Y243618D01*
X681155Y243154D01*
X681158Y242425D01*
X680037Y241961D01*
X679180Y241104D01*
X678716Y239984D01*
Y238771D01*
X679180Y237651D01*
X680037Y236793D01*
X681158Y236329D01*
X682370D01*
X683491Y236793D01*
X683695Y236997D01*
X684744Y236992D01*
X685115Y236621D01*
X686235Y236157D01*
X687448D01*
X688568Y236621D01*
X689425Y237478D01*
X689889Y238598D01*
Y239811D01*
X689425Y240931D01*
X688568Y241789D01*
X687448Y242253D01*
X686235D01*
X685115Y241789D01*
X684911Y241584D01*
X683862Y241590D01*
X683491Y241961D01*
X682370Y242425D01*
X682368Y243154D01*
X683488Y243618D01*
X684286Y244416D01*
X685115Y243588D01*
X686235Y243124D01*
X687448D01*
X688568Y243588D01*
X689425Y244445D01*
X689889Y245565D01*
Y246778D01*
X689425Y247898D01*
X688568Y248756D01*
X687448Y249220D01*
X686235D01*
X685115Y248756D01*
X684317Y247957D01*
X683488Y248786D01*
X682368Y249250D01*
D02*
G37*
G36*
X257642Y243444D02*
X256429D01*
X255309Y242980D01*
X254451Y242122D01*
X253987Y241002D01*
Y239790D01*
X254451Y238669D01*
X255309Y237812D01*
X256429Y237348D01*
X257642D01*
X258762Y237812D01*
X259619Y238669D01*
X260083Y239790D01*
Y241002D01*
X259619Y242122D01*
X258762Y242980D01*
X257642Y243444D01*
D02*
G37*
G36*
X702380Y247975D02*
X701168D01*
X700048Y247511D01*
X699190Y246654D01*
X698726Y245533D01*
Y244321D01*
X699190Y243201D01*
X700048Y242343D01*
X700177Y242290D01*
Y241465D01*
X700088Y241428D01*
X699231Y240570D01*
X698767Y239450D01*
Y238237D01*
X699231Y237117D01*
X700088Y236260D01*
X701208Y235796D01*
X702421D01*
X703541Y236260D01*
X704399Y237117D01*
X704863Y238237D01*
Y239450D01*
X704399Y240570D01*
X703541Y241428D01*
X703412Y241481D01*
Y242306D01*
X703501Y242343D01*
X704358Y243201D01*
X704822Y244321D01*
Y245533D01*
X704358Y246654D01*
X703501Y247511D01*
X702380Y247975D01*
D02*
G37*
G36*
X331385Y240800D02*
X330173D01*
X329053Y240336D01*
X328195Y239478D01*
X327731Y238358D01*
Y237145D01*
X328195Y236025D01*
X329053Y235168D01*
X330173Y234704D01*
X331385D01*
X332506Y235168D01*
X333363Y236025D01*
X333827Y237145D01*
Y238358D01*
X333363Y239478D01*
X332506Y240336D01*
X331385Y240800D01*
D02*
G37*
G36*
X443351Y233838D02*
X442139D01*
X441018Y233373D01*
X440161Y232516D01*
X439697Y231396D01*
Y230183D01*
X440161Y229063D01*
X441018Y228206D01*
X442139Y227742D01*
X443351D01*
X444471Y228206D01*
X445329Y229063D01*
X445793Y230183D01*
Y231396D01*
X445329Y232516D01*
X444471Y233373D01*
X443351Y233838D01*
D02*
G37*
G36*
X373064D02*
X371852D01*
X370731Y233373D01*
X369874Y232516D01*
X369410Y231396D01*
Y230183D01*
X369874Y229063D01*
X370731Y228206D01*
X371852Y227742D01*
X373064D01*
X374184Y228206D01*
X375042Y229063D01*
X375506Y230183D01*
Y231396D01*
X375042Y232516D01*
X374184Y233373D01*
X373064Y233838D01*
D02*
G37*
G36*
X600397Y232674D02*
X599184D01*
X598064Y232210D01*
X597207Y231353D01*
X596743Y230232D01*
Y229020D01*
X597207Y227900D01*
X598064Y227042D01*
X599184Y226578D01*
X600397D01*
X601517Y227042D01*
X602374Y227900D01*
X602839Y229020D01*
Y230232D01*
X602374Y231353D01*
X601517Y232210D01*
X600397Y232674D01*
D02*
G37*
G36*
X217316Y230523D02*
X216104D01*
X214984Y230059D01*
X214126Y229201D01*
X213662Y228081D01*
Y226868D01*
X214126Y225748D01*
X214984Y224891D01*
X216104Y224427D01*
X217316D01*
X218437Y224891D01*
X219294Y225748D01*
X219758Y226868D01*
Y228081D01*
X219294Y229201D01*
X218437Y230059D01*
X217316Y230523D01*
D02*
G37*
G36*
X43200Y229161D02*
X41987D01*
X40867Y228697D01*
X40009Y227840D01*
X39545Y226720D01*
Y225507D01*
X40009Y224387D01*
X40867Y223529D01*
X41987Y223065D01*
X43200D01*
X44320Y223529D01*
X45177Y224387D01*
X45641Y225507D01*
Y226720D01*
X45177Y227840D01*
X44320Y228697D01*
X43200Y229161D01*
D02*
G37*
G36*
X178650Y222011D02*
X177438D01*
X176317Y221547D01*
X175583Y220813D01*
X175134Y220741D01*
X174686Y220813D01*
X173951Y221547D01*
X172831Y222011D01*
X171618D01*
X170498Y221547D01*
X169641Y220690D01*
X169177Y219569D01*
Y218357D01*
X169641Y217237D01*
X170498Y216379D01*
X171618Y215915D01*
X171537Y215207D01*
X170417Y214743D01*
X169559Y213885D01*
X169095Y212765D01*
Y211552D01*
X169559Y210432D01*
X170417Y209575D01*
X171537Y209111D01*
X172750D01*
X173870Y209575D01*
X174650Y210355D01*
X175466Y210376D01*
X175544Y210188D01*
X176401Y209331D01*
X177521Y208867D01*
X178734D01*
X179854Y209331D01*
X180712Y210188D01*
X181176Y211308D01*
Y212521D01*
X180712Y213641D01*
X179854Y214499D01*
X178734Y214963D01*
X177521D01*
X176401Y214499D01*
X175621Y213719D01*
X174805Y213698D01*
X174727Y213885D01*
X173870Y214743D01*
X172750Y215207D01*
X172831Y215915D01*
X173951Y216379D01*
X174686Y217114D01*
X175134Y217185D01*
X175583Y217114D01*
X176317Y216379D01*
X177438Y215915D01*
X178650D01*
X179770Y216379D01*
X180628Y217237D01*
X181092Y218357D01*
Y219569D01*
X180628Y220690D01*
X179770Y221547D01*
X178650Y222011D01*
D02*
G37*
G36*
X417461Y226517D02*
X416248D01*
X415128Y226053D01*
X414271Y225196D01*
X413807Y224076D01*
Y222863D01*
X414271Y221743D01*
X415128Y220885D01*
X416248Y220421D01*
X417461D01*
X418581Y220885D01*
X419439Y221743D01*
X419903Y222863D01*
Y224076D01*
X419439Y225196D01*
X418581Y226053D01*
X417461Y226517D01*
D02*
G37*
G36*
X432693Y226116D02*
X431481D01*
X430360Y225652D01*
X429503Y224794D01*
X429039Y223674D01*
Y222462D01*
X429503Y221341D01*
X430360Y220484D01*
X431481Y220020D01*
X432693D01*
X433814Y220484D01*
X434671Y221341D01*
X435135Y222462D01*
Y223674D01*
X434671Y224794D01*
X433814Y225652D01*
X432693Y226116D01*
D02*
G37*
G36*
X371538Y226535D02*
X370325D01*
X369205Y226071D01*
X368348Y225214D01*
X367883Y224093D01*
Y222881D01*
X368348Y221760D01*
X369205Y220903D01*
X370325Y220439D01*
X371538D01*
X372658Y220903D01*
X373320Y221565D01*
X374050Y221512D01*
X374195Y221444D01*
X374329Y221120D01*
X375187Y220263D01*
X376307Y219799D01*
X377519D01*
X378640Y220263D01*
X379497Y221120D01*
X379961Y222241D01*
Y223453D01*
X379497Y224573D01*
X378640Y225431D01*
X377519Y225895D01*
X376307D01*
X375187Y225431D01*
X374524Y224769D01*
X373794Y224822D01*
X373650Y224890D01*
X373515Y225214D01*
X372658Y226071D01*
X371538Y226535D01*
D02*
G37*
G36*
X541634Y218625D02*
X540421D01*
X539301Y218161D01*
X538444Y217304D01*
X537980Y216184D01*
Y214971D01*
X538444Y213851D01*
X539301Y212994D01*
X540421Y212529D01*
X541634D01*
X542754Y212994D01*
X543612Y213851D01*
X544076Y214971D01*
Y216184D01*
X543612Y217304D01*
X542754Y218161D01*
X541634Y218625D01*
D02*
G37*
G36*
X94962Y223002D02*
X93750D01*
X92629Y222538D01*
X91772Y221680D01*
X91308Y220560D01*
Y219348D01*
X91772Y218227D01*
X92629Y217370D01*
X92711Y216511D01*
X92293Y216092D01*
X91829Y214972D01*
Y213760D01*
X92293Y212639D01*
X93150Y211782D01*
X94270Y211318D01*
X95483D01*
X96603Y211782D01*
X97461Y212639D01*
X97925Y213760D01*
Y214972D01*
X97461Y216092D01*
X96603Y216950D01*
X96521Y217809D01*
X96940Y218227D01*
X97404Y219348D01*
Y220560D01*
X96940Y221680D01*
X96082Y222538D01*
X94962Y223002D01*
D02*
G37*
G36*
X255127Y214755D02*
X253914D01*
X252794Y214290D01*
X251937Y213433D01*
X251473Y212313D01*
Y211100D01*
X251937Y209980D01*
X252794Y209123D01*
X253914Y208659D01*
X255127D01*
X256247Y209123D01*
X257105Y209980D01*
X257569Y211100D01*
Y212313D01*
X257105Y213433D01*
X256247Y214290D01*
X255127Y214755D01*
D02*
G37*
G36*
X559940Y212994D02*
X558727D01*
X557607Y212530D01*
X556749Y211673D01*
X556285Y210553D01*
Y209340D01*
X556749Y208220D01*
X557607Y207362D01*
X558727Y206898D01*
X559940D01*
X561060Y207362D01*
X561917Y208220D01*
X562381Y209340D01*
Y210553D01*
X561917Y211673D01*
X561060Y212530D01*
X559940Y212994D01*
D02*
G37*
G36*
X541893Y207813D02*
X540680D01*
X539560Y207349D01*
X538703Y206491D01*
X538239Y205371D01*
Y204158D01*
X538703Y203038D01*
X539560Y202181D01*
X540680Y201717D01*
X541893D01*
X543013Y202181D01*
X543871Y203038D01*
X544335Y204158D01*
Y205371D01*
X543871Y206491D01*
X543013Y207349D01*
X541893Y207813D01*
D02*
G37*
G36*
X403653Y212984D02*
X402441D01*
X401321Y212520D01*
X400463Y211663D01*
X399999Y210542D01*
Y209330D01*
X400463Y208209D01*
X401321Y207352D01*
X401747Y207176D01*
Y206351D01*
X401402Y206208D01*
X400545Y205351D01*
X400080Y204230D01*
Y203018D01*
X400545Y201898D01*
X401402Y201040D01*
X402522Y200576D01*
X403735D01*
X404855Y201040D01*
X405712Y201898D01*
X406176Y203018D01*
Y204230D01*
X405712Y205351D01*
X404855Y206208D01*
X404429Y206385D01*
Y207209D01*
X404774Y207352D01*
X405631Y208209D01*
X406095Y209330D01*
Y210542D01*
X405631Y211663D01*
X404774Y212520D01*
X403653Y212984D01*
D02*
G37*
G36*
X396440Y212900D02*
X395227D01*
X394107Y212436D01*
X393250Y211579D01*
X392786Y210459D01*
Y209246D01*
X393250Y208126D01*
X394107Y207268D01*
X394647Y207045D01*
Y206220D01*
X394023Y205962D01*
X393166Y205104D01*
X392702Y203984D01*
Y202771D01*
X393166Y201651D01*
X394023Y200794D01*
X395144Y200330D01*
X396356D01*
X397476Y200794D01*
X398334Y201651D01*
X398798Y202771D01*
Y203984D01*
X398334Y205104D01*
X397476Y205962D01*
X396937Y206185D01*
Y207010D01*
X397560Y207268D01*
X398418Y208126D01*
X398882Y209246D01*
Y210459D01*
X398418Y211579D01*
X397560Y212436D01*
X396440Y212900D01*
D02*
G37*
G36*
X389473Y212819D02*
X388260D01*
X387140Y212355D01*
X386282Y211497D01*
X385818Y210377D01*
Y209165D01*
X386282Y208044D01*
X387140Y207187D01*
X388012Y206826D01*
X388036Y206613D01*
X387936Y206032D01*
X386975Y205634D01*
X386117Y204777D01*
X385653Y203656D01*
Y202444D01*
X386117Y201324D01*
X386975Y200466D01*
X388095Y200002D01*
X389308D01*
X390428Y200466D01*
X391285Y201324D01*
X391749Y202444D01*
Y203656D01*
X391285Y204777D01*
X390428Y205634D01*
X389556Y205995D01*
X389531Y206208D01*
X389632Y206789D01*
X390593Y207187D01*
X391450Y208044D01*
X391914Y209165D01*
Y210377D01*
X391450Y211497D01*
X390593Y212355D01*
X389473Y212819D01*
D02*
G37*
G36*
X362272Y204795D02*
X361059D01*
X359939Y204331D01*
X359082Y203474D01*
X358618Y202353D01*
Y201141D01*
X359082Y200021D01*
X359939Y199163D01*
X361059Y198699D01*
X362272D01*
X363392Y199163D01*
X364249Y200021D01*
X364714Y201141D01*
Y202353D01*
X364249Y203474D01*
X363392Y204331D01*
X362272Y204795D01*
D02*
G37*
G36*
X585700Y203380D02*
X584488D01*
X583368Y202916D01*
X582510Y202059D01*
X582046Y200939D01*
Y199726D01*
X582510Y198606D01*
X583368Y197748D01*
X584488Y197284D01*
X585700D01*
X586821Y197748D01*
X587678Y198606D01*
X588142Y199726D01*
Y200939D01*
X587678Y202059D01*
X586821Y202916D01*
X585700Y203380D01*
D02*
G37*
G36*
X596574Y203098D02*
X595362D01*
X594241Y202634D01*
X593384Y201777D01*
X592920Y200657D01*
Y199444D01*
X593384Y198324D01*
X594241Y197466D01*
X595362Y197002D01*
X596574D01*
X597694Y197466D01*
X598552Y198324D01*
X599016Y199444D01*
Y200657D01*
X598552Y201777D01*
X597694Y202634D01*
X596574Y203098D01*
D02*
G37*
G36*
X682225Y201442D02*
X681013D01*
X679893Y200978D01*
X679035Y200121D01*
X678571Y199001D01*
Y197788D01*
X679035Y196668D01*
X679893Y195810D01*
X681013Y195346D01*
X682225D01*
X683346Y195810D01*
X684203Y196668D01*
X684667Y197788D01*
Y199001D01*
X684203Y200121D01*
X683346Y200978D01*
X682225Y201442D01*
D02*
G37*
G36*
X346137Y206002D02*
X343997D01*
X341929Y205448D01*
X340076Y204378D01*
X338563Y202864D01*
X337492Y201011D01*
X336939Y198944D01*
Y196803D01*
X337492Y194736D01*
X338563Y192883D01*
X340076Y191370D01*
X341929Y190299D01*
X343997Y189746D01*
X346137D01*
X348204Y190299D01*
X350057Y191370D01*
X351571Y192883D01*
X352641Y194736D01*
X353195Y196803D01*
Y198944D01*
X352641Y201011D01*
X351571Y202864D01*
X350057Y204378D01*
X348204Y205448D01*
X346137Y206002D01*
D02*
G37*
G36*
X407009Y194158D02*
X405796D01*
X404676Y193694D01*
X403819Y192836D01*
X403354Y191716D01*
Y190503D01*
X403819Y189383D01*
X404676Y188526D01*
X405796Y188062D01*
X407009D01*
X408129Y188526D01*
X408987Y189383D01*
X409450Y190503D01*
Y191716D01*
X408987Y192836D01*
X408129Y193694D01*
X407009Y194158D01*
D02*
G37*
G36*
X721029Y199484D02*
X719817D01*
X718696Y199020D01*
X717839Y198162D01*
X717375Y197042D01*
Y195830D01*
X717839Y194709D01*
X718347Y194201D01*
X718688Y193836D01*
X718347Y193205D01*
X717971Y192829D01*
X717507Y191708D01*
Y190496D01*
X717971Y189375D01*
X718828Y188518D01*
X719949Y188054D01*
X721161D01*
X722281Y188518D01*
X723139Y189375D01*
X723603Y190496D01*
Y191708D01*
X723139Y192829D01*
X722630Y193337D01*
X722290Y193702D01*
X722630Y194333D01*
X723007Y194709D01*
X723471Y195830D01*
Y197042D01*
X723007Y198162D01*
X722149Y199020D01*
X721029Y199484D01*
D02*
G37*
G36*
X164149Y191412D02*
X162937D01*
X161816Y190948D01*
X160959Y190090D01*
X160495Y188970D01*
Y187758D01*
X160959Y186637D01*
X161816Y185780D01*
X162937Y185316D01*
X164149D01*
X165270Y185780D01*
X166127Y186637D01*
X166591Y187758D01*
Y188970D01*
X166127Y190090D01*
X165270Y190948D01*
X164149Y191412D01*
D02*
G37*
G36*
X39801Y191226D02*
X38589D01*
X37468Y190762D01*
X36611Y189905D01*
X36147Y188785D01*
Y187572D01*
X36611Y186452D01*
X37468Y185595D01*
X38589Y185130D01*
X39801D01*
X40921Y185595D01*
X41779Y186452D01*
X42243Y187572D01*
Y188785D01*
X41779Y189905D01*
X40921Y190762D01*
X39801Y191226D01*
D02*
G37*
G36*
X147863Y190972D02*
X146650D01*
X145530Y190508D01*
X144672Y189651D01*
X144208Y188531D01*
Y187318D01*
X144672Y186198D01*
X145530Y185340D01*
X146650Y184876D01*
X147863D01*
X148983Y185340D01*
X149840Y186198D01*
X150304Y187318D01*
Y188531D01*
X149840Y189651D01*
X148983Y190508D01*
X147863Y190972D01*
D02*
G37*
G36*
X277929Y185196D02*
X276716D01*
X275596Y184732D01*
X274738Y183875D01*
X274713Y183815D01*
X273966Y183666D01*
X273789Y183843D01*
X272668Y184307D01*
X271456D01*
X270335Y183843D01*
X269478Y182986D01*
X269014Y181866D01*
Y180653D01*
X269478Y179533D01*
X270335Y178675D01*
X271456Y178211D01*
X272668D01*
X273789Y178675D01*
X274646Y179533D01*
X274671Y179593D01*
X275418Y179742D01*
X275596Y179564D01*
X276716Y179100D01*
X277929D01*
X279049Y179564D01*
X279906Y180422D01*
X280370Y181542D01*
Y182755D01*
X279906Y183875D01*
X279049Y184732D01*
X277929Y185196D01*
D02*
G37*
G36*
X561050Y187993D02*
X559837D01*
X558717Y187529D01*
X557859Y186672D01*
X557395Y185551D01*
Y184339D01*
X557859Y183218D01*
X558717Y182361D01*
X559837Y181897D01*
X561050D01*
X562170Y182361D01*
X563027Y183218D01*
X563491Y184339D01*
Y185551D01*
X563027Y186672D01*
X562170Y187529D01*
X561050Y187993D01*
D02*
G37*
G36*
X570699Y187663D02*
X569487D01*
X568366Y187199D01*
X567509Y186341D01*
X567045Y185221D01*
Y184009D01*
X567509Y182888D01*
X568366Y182031D01*
X569487Y181567D01*
X570699D01*
X571819Y182031D01*
X572677Y182888D01*
X573141Y184009D01*
Y185221D01*
X572677Y186341D01*
X571819Y187199D01*
X570699Y187663D01*
D02*
G37*
G36*
X364278Y184498D02*
X363066D01*
X361946Y184034D01*
X361088Y183176D01*
X360624Y182056D01*
Y180844D01*
X361088Y179723D01*
X361946Y178866D01*
X363066Y178402D01*
X364278D01*
X365399Y178866D01*
X366256Y179723D01*
X366379Y180021D01*
X367188Y179983D01*
X367547Y179116D01*
X368405Y178259D01*
X369525Y177795D01*
X370738D01*
X371858Y178259D01*
X372715Y179116D01*
X373179Y180237D01*
Y181449D01*
X372715Y182570D01*
X371858Y183427D01*
X370738Y183891D01*
X369525D01*
X368405Y183427D01*
X367547Y182570D01*
X367424Y182272D01*
X366615Y182310D01*
X366256Y183176D01*
X365399Y184034D01*
X364278Y184498D01*
D02*
G37*
G36*
X312528Y182875D02*
X311316D01*
X310196Y182411D01*
X309338Y181553D01*
X308874Y180433D01*
Y179221D01*
X309338Y178100D01*
X310196Y177243D01*
X311316Y176779D01*
X312528D01*
X313649Y177243D01*
X314506Y178100D01*
X314970Y179221D01*
Y180433D01*
X314506Y181553D01*
X313649Y182411D01*
X312528Y182875D01*
D02*
G37*
G36*
X290844Y182900D02*
X289632D01*
X288512Y182436D01*
X287654Y181579D01*
X287190Y180459D01*
Y179246D01*
X287654Y178126D01*
X288512Y177268D01*
X289632Y176804D01*
X290844D01*
X291965Y177268D01*
X292822Y178126D01*
X292933Y178393D01*
X293758D01*
X293931Y177976D01*
X294788Y177118D01*
X295908Y176654D01*
X297121D01*
X298241Y177118D01*
X299098Y177976D01*
X299562Y179096D01*
Y180309D01*
X299098Y181429D01*
X298241Y182286D01*
X297121Y182750D01*
X295908D01*
X294788Y182286D01*
X293931Y181429D01*
X293820Y181162D01*
X292995D01*
X292822Y181579D01*
X291965Y182436D01*
X290844Y182900D01*
D02*
G37*
G36*
X407276Y179461D02*
X406063D01*
X404943Y178997D01*
X404085Y178140D01*
X403621Y177019D01*
Y175807D01*
X404085Y174687D01*
X404943Y173829D01*
X406063Y173365D01*
X407276D01*
X408396Y173829D01*
X409253Y174687D01*
X409717Y175807D01*
Y177019D01*
X409253Y178140D01*
X408396Y178997D01*
X407276Y179461D01*
D02*
G37*
G36*
X24020Y175148D02*
X22807D01*
X21687Y174684D01*
X20830Y173827D01*
X20366Y172707D01*
Y171494D01*
X20830Y170374D01*
X21687Y169516D01*
X22807Y169052D01*
X24020D01*
X25140Y169516D01*
X25998Y170374D01*
X26462Y171494D01*
Y172707D01*
X25998Y173827D01*
X25140Y174684D01*
X24020Y175148D01*
D02*
G37*
G36*
X252516Y174460D02*
X251303D01*
X250183Y173996D01*
X249326Y173139D01*
X248862Y172018D01*
Y170806D01*
X249326Y169685D01*
X250183Y168828D01*
X251303Y168364D01*
X252516D01*
X253636Y168828D01*
X254494Y169685D01*
X254958Y170806D01*
Y172018D01*
X254494Y173139D01*
X253636Y173996D01*
X252516Y174460D01*
D02*
G37*
G36*
X351459Y173309D02*
X350247D01*
X349126Y172845D01*
X348269Y171988D01*
X347805Y170868D01*
Y169655D01*
X348269Y168535D01*
X349126Y167677D01*
X350247Y167213D01*
X351459D01*
X352579Y167677D01*
X353437Y168535D01*
X353901Y169655D01*
Y170868D01*
X353437Y171988D01*
X352579Y172845D01*
X351459Y173309D01*
D02*
G37*
G36*
X454857Y164112D02*
X453645D01*
X452524Y163648D01*
X451667Y162791D01*
X451203Y161670D01*
Y160458D01*
X451667Y159337D01*
X452524Y158480D01*
X453645Y158016D01*
X454857D01*
X455978Y158480D01*
X456835Y159337D01*
X457299Y160458D01*
Y161670D01*
X456835Y162791D01*
X455978Y163648D01*
X454857Y164112D01*
D02*
G37*
G36*
X191132Y168262D02*
X189919D01*
X188799Y167798D01*
X187941Y166941D01*
X187477Y165821D01*
Y164608D01*
X187941Y163488D01*
X188799Y162630D01*
X189919Y162166D01*
X190269D01*
X190318Y161425D01*
X189198Y160961D01*
X188340Y160103D01*
X187876Y158983D01*
Y157770D01*
X188340Y156650D01*
X189198Y155793D01*
X190318Y155329D01*
X191530D01*
X192651Y155793D01*
X193508Y156650D01*
X193972Y157770D01*
Y158983D01*
X193508Y160103D01*
X192651Y160961D01*
X191530Y161425D01*
X191181D01*
X191132Y162166D01*
X192252Y162630D01*
X193109Y163488D01*
X193573Y164608D01*
Y165821D01*
X193109Y166941D01*
X192252Y167798D01*
X191132Y168262D01*
D02*
G37*
G36*
X711329Y155588D02*
X710116D01*
X708996Y155124D01*
X708139Y154266D01*
X707674Y153146D01*
Y151933D01*
X708139Y150813D01*
X708996Y149956D01*
X710116Y149492D01*
X711329D01*
X712449Y149956D01*
X713306Y150813D01*
X713771Y151933D01*
Y153146D01*
X713306Y154266D01*
X712449Y155124D01*
X711329Y155588D01*
D02*
G37*
G36*
X246120Y152989D02*
X244908D01*
X243787Y152525D01*
X242930Y151668D01*
X242466Y150548D01*
Y149335D01*
X242930Y148215D01*
X243787Y147357D01*
X244908Y146893D01*
X246120D01*
X247240Y147357D01*
X248098Y148215D01*
X248562Y149335D01*
Y150548D01*
X248098Y151668D01*
X247240Y152525D01*
X246120Y152989D01*
D02*
G37*
G36*
X603836Y152011D02*
X602623D01*
X601503Y151547D01*
X600646Y150690D01*
X600182Y149570D01*
Y148357D01*
X600646Y147237D01*
X601503Y146379D01*
X602623Y145915D01*
X603836D01*
X604956Y146379D01*
X605814Y147237D01*
X606278Y148357D01*
Y149570D01*
X605814Y150690D01*
X604956Y151547D01*
X603836Y152011D01*
D02*
G37*
G36*
X126466Y155301D02*
X125253D01*
X124133Y154837D01*
X123276Y153979D01*
X122811Y152859D01*
Y151646D01*
X123276Y150526D01*
X123577Y150225D01*
X123843Y149510D01*
X123570Y149236D01*
X122986Y148653D01*
X122522Y147533D01*
Y146320D01*
X122986Y145200D01*
X123843Y144342D01*
X124964Y143878D01*
X126176D01*
X127296Y144342D01*
X128154Y145200D01*
X128618Y146320D01*
Y147533D01*
X128154Y148653D01*
X127852Y148954D01*
X127586Y149669D01*
X127860Y149943D01*
X128443Y150526D01*
X128907Y151646D01*
Y152859D01*
X128443Y153979D01*
X127586Y154837D01*
X126466Y155301D01*
D02*
G37*
G36*
X669784Y145920D02*
X668572D01*
X667452Y145456D01*
X666594Y144599D01*
X666130Y143479D01*
Y142266D01*
X666594Y141146D01*
X667452Y140288D01*
X668572Y139824D01*
X669784D01*
X670905Y140288D01*
X671762Y141146D01*
X672226Y142266D01*
Y143479D01*
X671762Y144599D01*
X670905Y145456D01*
X669784Y145920D01*
D02*
G37*
G36*
X245201Y140604D02*
X243988D01*
X242868Y140140D01*
X242010Y139283D01*
X241546Y138162D01*
Y136950D01*
X242010Y135830D01*
X242868Y134972D01*
X243988Y134508D01*
X245201D01*
X246321Y134972D01*
X247178Y135830D01*
X247642Y136950D01*
Y138162D01*
X247178Y139283D01*
X246321Y140140D01*
X245201Y140604D01*
D02*
G37*
G36*
X31584Y139809D02*
X30372D01*
X29251Y139345D01*
X28394Y138488D01*
X27930Y137367D01*
Y136155D01*
X28394Y135035D01*
X29251Y134177D01*
X30372Y133713D01*
X31584D01*
X32704Y134177D01*
X33562Y135035D01*
X34026Y136155D01*
Y137367D01*
X33562Y138488D01*
X32704Y139345D01*
X31584Y139809D01*
D02*
G37*
G36*
X205389Y139103D02*
X204176D01*
X203056Y138639D01*
X202199Y137782D01*
X201734Y136661D01*
Y135449D01*
X202199Y134328D01*
X203056Y133471D01*
X204176Y133007D01*
X205389D01*
X206509Y133471D01*
X207366Y134328D01*
X207830Y135449D01*
Y136661D01*
X207366Y137782D01*
X206509Y138639D01*
X205389Y139103D01*
D02*
G37*
G36*
X222214Y133667D02*
X221001D01*
X219881Y133203D01*
X219023Y132346D01*
X218559Y131226D01*
Y130013D01*
X219023Y128893D01*
X219881Y128035D01*
X221001Y127571D01*
X222214D01*
X223334Y128035D01*
X224191Y128893D01*
X224655Y130013D01*
Y131226D01*
X224191Y132346D01*
X223334Y133203D01*
X222214Y133667D01*
D02*
G37*
G36*
X587882Y132375D02*
X586670D01*
X585549Y131911D01*
X584692Y131053D01*
X584228Y129933D01*
Y128720D01*
X584692Y127600D01*
X585549Y126743D01*
X586670Y126279D01*
X587882D01*
X589002Y126743D01*
X589860Y127600D01*
X590324Y128720D01*
Y129933D01*
X589860Y131053D01*
X589002Y131911D01*
X587882Y132375D01*
D02*
G37*
G36*
X245406Y131968D02*
X244194D01*
X243074Y131504D01*
X242216Y130647D01*
X241752Y129527D01*
Y128314D01*
X242216Y127194D01*
X243074Y126336D01*
X244194Y125872D01*
X245406D01*
X246527Y126336D01*
X247384Y127194D01*
X247848Y128314D01*
Y129527D01*
X247384Y130647D01*
X246527Y131504D01*
X245406Y131968D01*
D02*
G37*
G36*
X484011Y131907D02*
X482799D01*
X481679Y131443D01*
X480821Y130586D01*
X480357Y129466D01*
Y128253D01*
X480821Y127133D01*
X481679Y126275D01*
X482799Y125811D01*
X484011D01*
X485132Y126275D01*
X485989Y127133D01*
X486453Y128253D01*
Y129466D01*
X485989Y130586D01*
X485132Y131443D01*
X484011Y131907D01*
D02*
G37*
G36*
X332483Y136111D02*
X331270D01*
X330150Y135647D01*
X329292Y134789D01*
X328828Y133669D01*
Y132457D01*
X329292Y131336D01*
X330150Y130479D01*
X330417Y130368D01*
Y129544D01*
X330000Y129371D01*
X329143Y128513D01*
X328679Y127393D01*
Y126180D01*
X329143Y125060D01*
X330000Y124203D01*
X331120Y123739D01*
X332333D01*
X333453Y124203D01*
X334310Y125060D01*
X334775Y126180D01*
Y127393D01*
X334310Y128513D01*
X333453Y129371D01*
X333186Y129481D01*
Y130306D01*
X333603Y130479D01*
X334460Y131336D01*
X334924Y132457D01*
Y133669D01*
X334460Y134789D01*
X333603Y135647D01*
X332483Y136111D01*
D02*
G37*
G36*
X164449Y129824D02*
X163236D01*
X162116Y129360D01*
X161259Y128503D01*
X160795Y127383D01*
Y126170D01*
X161259Y125050D01*
X162116Y124192D01*
X163236Y123729D01*
X164449D01*
X165569Y124192D01*
X166427Y125050D01*
X166891Y126170D01*
Y127383D01*
X166427Y128503D01*
X165569Y129360D01*
X164449Y129824D01*
D02*
G37*
G36*
X172737Y129682D02*
X171524D01*
X170404Y129218D01*
X169547Y128361D01*
X169083Y127240D01*
Y126028D01*
X169547Y124908D01*
X170404Y124050D01*
X171524Y123586D01*
X172737D01*
X173857Y124050D01*
X174715Y124908D01*
X175179Y126028D01*
Y127240D01*
X174715Y128361D01*
X173857Y129218D01*
X172737Y129682D01*
D02*
G37*
G36*
X25308Y129154D02*
X24095D01*
X22975Y128690D01*
X22118Y127832D01*
X21653Y126712D01*
Y125500D01*
X22118Y124379D01*
X22975Y123522D01*
X24095Y123058D01*
X25308D01*
X26428Y123522D01*
X27285Y124379D01*
X27750Y125500D01*
Y126712D01*
X27285Y127832D01*
X26428Y128690D01*
X25308Y129154D01*
D02*
G37*
G36*
X564270Y132083D02*
X563058D01*
X561937Y131618D01*
X561080Y130761D01*
X560616Y129641D01*
Y128428D01*
X561080Y127308D01*
X561608Y126780D01*
X561851Y126277D01*
X561608Y125785D01*
X561075Y125252D01*
X560611Y124132D01*
Y122919D01*
X561075Y121799D01*
X561932Y120941D01*
X563053Y120477D01*
X564265D01*
X565386Y120941D01*
X566243Y121799D01*
X566707Y122919D01*
Y124132D01*
X566243Y125252D01*
X565715Y125780D01*
X565472Y126283D01*
X565715Y126775D01*
X566248Y127308D01*
X566712Y128428D01*
Y129641D01*
X566248Y130761D01*
X565391Y131618D01*
X564270Y132083D01*
D02*
G37*
G36*
X552269Y126520D02*
X551056D01*
X549936Y126056D01*
X549079Y125198D01*
X548615Y124078D01*
Y122866D01*
X549079Y121745D01*
X549936Y120888D01*
X551056Y120424D01*
X552269D01*
X553389Y120888D01*
X554247Y121745D01*
X554711Y122866D01*
Y124078D01*
X554247Y125198D01*
X553389Y126056D01*
X552269Y126520D01*
D02*
G37*
G36*
X150939Y121620D02*
X149726D01*
X148606Y121156D01*
X147904Y120454D01*
X147517Y120337D01*
X146977Y120427D01*
X146313Y121090D01*
X145193Y121554D01*
X143981D01*
X142860Y121090D01*
X142003Y120233D01*
X141539Y119113D01*
Y117900D01*
X142003Y116780D01*
X142639Y116144D01*
X142783Y115667D01*
X142639Y115189D01*
X142003Y114553D01*
X141539Y113433D01*
Y112220D01*
X142003Y111100D01*
X142860Y110243D01*
X142910Y110222D01*
X142872Y109413D01*
X142069Y108610D01*
X141605Y107490D01*
Y106277D01*
X142069Y105157D01*
X142926Y104299D01*
X144047Y103835D01*
X145259D01*
X146380Y104299D01*
X147081Y105001D01*
X147469Y105118D01*
X148009Y105028D01*
X148672Y104365D01*
X149792Y103901D01*
X151005D01*
X152125Y104365D01*
X152982Y105223D01*
X153447Y106343D01*
Y107556D01*
X152982Y108676D01*
X152125Y109533D01*
X152076Y109554D01*
X152113Y110363D01*
X152916Y111166D01*
X153380Y112287D01*
Y113499D01*
X152916Y114619D01*
X152281Y115255D01*
X152136Y115733D01*
X152281Y116210D01*
X152916Y116846D01*
X153380Y117966D01*
Y119179D01*
X152916Y120299D01*
X152059Y121156D01*
X150939Y121620D01*
D02*
G37*
G36*
X592729Y126088D02*
X591516D01*
X590396Y125624D01*
X589538Y124767D01*
X589074Y123646D01*
Y122434D01*
X589538Y121314D01*
X590396Y120456D01*
X591516Y119992D01*
X592729D01*
X593849Y120456D01*
X594706Y121314D01*
X595170Y122434D01*
Y123646D01*
X594706Y124767D01*
X593849Y125624D01*
X592729Y126088D01*
D02*
G37*
G36*
X572353Y131648D02*
X571140D01*
X570020Y131184D01*
X569162Y130327D01*
X568698Y129206D01*
Y127994D01*
X569162Y126874D01*
X569915Y126121D01*
X570015Y125886D01*
X569992Y125203D01*
X569356Y124566D01*
X568891Y123446D01*
Y122233D01*
X569356Y121113D01*
X570213Y120255D01*
X571333Y119791D01*
X572546D01*
X573666Y120255D01*
X574523Y121113D01*
X574987Y122233D01*
Y123446D01*
X574523Y124566D01*
X573771Y125318D01*
X573670Y125554D01*
X573694Y126237D01*
X574330Y126874D01*
X574794Y127994D01*
Y129206D01*
X574330Y130327D01*
X573473Y131184D01*
X572353Y131648D01*
D02*
G37*
G36*
X462053Y125481D02*
X460841D01*
X459720Y125017D01*
X458863Y124160D01*
X458399Y123039D01*
Y121827D01*
X458863Y120707D01*
X459720Y119849D01*
X460841Y119385D01*
X462053D01*
X463173Y119849D01*
X464031Y120707D01*
X464495Y121827D01*
Y123039D01*
X464031Y124160D01*
X463173Y125017D01*
X462053Y125481D01*
D02*
G37*
G36*
X520267Y130774D02*
X519055D01*
X517935Y130310D01*
X517077Y129453D01*
X516613Y128333D01*
Y127120D01*
X517077Y126000D01*
X517460Y125617D01*
X517803Y124998D01*
X517460Y124621D01*
X516958Y124119D01*
X516494Y122999D01*
Y121786D01*
X516958Y120666D01*
X517815Y119809D01*
X518936Y119344D01*
X520148D01*
X521268Y119809D01*
X522126Y120666D01*
X522590Y121786D01*
Y122999D01*
X522126Y124119D01*
X521743Y124502D01*
X521400Y125121D01*
X521743Y125498D01*
X522245Y126000D01*
X522709Y127120D01*
Y128333D01*
X522245Y129453D01*
X521388Y130310D01*
X520267Y130774D01*
D02*
G37*
G36*
X580161Y131630D02*
X578948D01*
X577828Y131166D01*
X576970Y130309D01*
X576506Y129189D01*
Y127976D01*
X576970Y126856D01*
X577828Y125998D01*
X578542Y125702D01*
Y124878D01*
X578247Y124755D01*
X577389Y123898D01*
X576925Y122778D01*
Y121565D01*
X577389Y120445D01*
X578247Y119587D01*
X579367Y119123D01*
X580580D01*
X581700Y119587D01*
X582557Y120445D01*
X583021Y121565D01*
Y122778D01*
X582557Y123898D01*
X581700Y124755D01*
X580986Y125051D01*
Y125876D01*
X581281Y125998D01*
X582138Y126856D01*
X582602Y127976D01*
Y129189D01*
X582138Y130309D01*
X581281Y131166D01*
X580161Y131630D01*
D02*
G37*
G36*
X536015Y124783D02*
X534803D01*
X533683Y124319D01*
X532825Y123461D01*
X532361Y122341D01*
Y121128D01*
X532825Y120008D01*
X533683Y119151D01*
X534803Y118687D01*
X536015D01*
X537136Y119151D01*
X537993Y120008D01*
X538457Y121128D01*
Y122341D01*
X537993Y123461D01*
X537136Y124319D01*
X536015Y124783D01*
D02*
G37*
G36*
X501543Y137846D02*
X500330D01*
X499210Y137382D01*
X498352Y136524D01*
X497888Y135404D01*
Y134192D01*
X498352Y133071D01*
X498926Y132498D01*
X499210Y132214D01*
X498929Y131505D01*
X498619Y131195D01*
X498155Y130075D01*
Y128863D01*
X498619Y127742D01*
X499320Y127042D01*
X499438Y126656D01*
X499348Y126113D01*
X498688Y125452D01*
X498223Y124332D01*
Y123120D01*
X498688Y121999D01*
X499360Y121327D01*
X499347Y120614D01*
X499277Y120428D01*
X498487Y119638D01*
X498023Y118518D01*
Y117306D01*
X498487Y116185D01*
X499344Y115328D01*
X500465Y114864D01*
X501677D01*
X502797Y115328D01*
X503655Y116185D01*
X504119Y117306D01*
Y118518D01*
X503655Y119638D01*
X502983Y120311D01*
X502996Y121024D01*
X503066Y121209D01*
X503856Y121999D01*
X504319Y123120D01*
Y124332D01*
X503856Y125452D01*
X503155Y126153D01*
X503036Y126539D01*
X503126Y127082D01*
X503787Y127742D01*
X504251Y128863D01*
Y130075D01*
X503787Y131195D01*
X503214Y131769D01*
X502930Y132053D01*
X503210Y132761D01*
X503520Y133071D01*
X503984Y134192D01*
Y135404D01*
X503520Y136524D01*
X502663Y137382D01*
X501543Y137846D01*
D02*
G37*
G36*
X544362Y126571D02*
X543149D01*
X542029Y126107D01*
X541172Y125249D01*
X540708Y124129D01*
Y122916D01*
X541172Y121796D01*
X542029Y120939D01*
X542178Y120877D01*
X542161Y120059D01*
X541387Y119285D01*
X540924Y118165D01*
Y116952D01*
X541387Y115832D01*
X542245Y114975D01*
X543365Y114511D01*
X544578D01*
X545698Y114975D01*
X546555Y115832D01*
X547020Y116952D01*
Y118165D01*
X546555Y119285D01*
X545698Y120143D01*
X545549Y120204D01*
X545566Y121022D01*
X546339Y121796D01*
X546804Y122916D01*
Y124129D01*
X546339Y125249D01*
X545482Y126107D01*
X544362Y126571D01*
D02*
G37*
G36*
X186702Y121328D02*
X185489D01*
X184369Y120864D01*
X183512Y120007D01*
X183048Y118886D01*
Y117674D01*
X183512Y116554D01*
X184369Y115696D01*
X185489Y115232D01*
X186702D01*
X187822Y115696D01*
X187833Y115707D01*
X188694Y115490D01*
X189001Y114750D01*
X189858Y113893D01*
X190978Y113429D01*
X192191D01*
X193311Y113893D01*
X194168Y114750D01*
X194633Y115871D01*
Y117083D01*
X194168Y118203D01*
X193311Y119061D01*
X192191Y119525D01*
X190978D01*
X189858Y119061D01*
X189848Y119050D01*
X188986Y119267D01*
X188680Y120007D01*
X187822Y120864D01*
X186702Y121328D01*
D02*
G37*
G36*
X244888Y115283D02*
X243676D01*
X242555Y114819D01*
X241698Y113961D01*
X241234Y112841D01*
Y111629D01*
X241698Y110508D01*
X242555Y109651D01*
X243676Y109187D01*
X244888D01*
X246008Y109651D01*
X246866Y110508D01*
X247330Y111629D01*
Y112841D01*
X246866Y113961D01*
X246008Y114819D01*
X244888Y115283D01*
D02*
G37*
G36*
X652794Y106571D02*
X651582D01*
X650462Y106107D01*
X649604Y105249D01*
X649140Y104129D01*
Y102916D01*
X649604Y101796D01*
X650462Y100939D01*
X651582Y100475D01*
X652794D01*
X653915Y100939D01*
X654722Y101746D01*
X655542Y100926D01*
X656662Y100462D01*
X657875D01*
X658995Y100926D01*
X659237Y101168D01*
X660259Y101157D01*
X660680Y100736D01*
X661800Y100272D01*
X663013D01*
X664133Y100736D01*
X664991Y101593D01*
X665455Y102713D01*
Y103926D01*
X664991Y105046D01*
X664133Y105904D01*
X663013Y106368D01*
X661800D01*
X660680Y105904D01*
X660438Y105662D01*
X659416Y105673D01*
X658995Y106094D01*
X657875Y106558D01*
X656662D01*
X655542Y106094D01*
X654734Y105287D01*
X653915Y106107D01*
X652794Y106571D01*
D02*
G37*
G36*
X348668Y100523D02*
X347455D01*
X346335Y100059D01*
X345477Y99202D01*
X345013Y98081D01*
Y96869D01*
X345477Y95749D01*
X346335Y94891D01*
X347455Y94427D01*
X348668D01*
X349788Y94891D01*
X350645Y95749D01*
X351109Y96869D01*
Y98081D01*
X350645Y99202D01*
X349788Y100059D01*
X348668Y100523D01*
D02*
G37*
G36*
X572894Y105527D02*
X571681D01*
X570561Y105063D01*
X569703Y104205D01*
X569239Y103085D01*
Y101873D01*
X569703Y100752D01*
X570401Y100055D01*
X570363Y99215D01*
X570292Y99185D01*
X569434Y98328D01*
X568970Y97208D01*
Y95995D01*
X569434Y94875D01*
X570292Y94017D01*
X571412Y93553D01*
X572624D01*
X573745Y94017D01*
X574602Y94875D01*
X575066Y95995D01*
Y97208D01*
X574602Y98328D01*
X573905Y99025D01*
X573943Y99865D01*
X574014Y99895D01*
X574871Y100752D01*
X575335Y101873D01*
Y103085D01*
X574871Y104205D01*
X574014Y105063D01*
X572894Y105527D01*
D02*
G37*
G36*
X539947Y104374D02*
X538735D01*
X537615Y103910D01*
X536757Y103052D01*
X536293Y101932D01*
Y100719D01*
X536757Y99599D01*
X537407Y98949D01*
X537584Y98611D01*
X537441Y97989D01*
X536892Y97439D01*
X536428Y96319D01*
Y95106D01*
X536892Y93986D01*
X537749Y93128D01*
X538869Y92664D01*
X540082D01*
X541202Y93128D01*
X542060Y93986D01*
X542524Y95106D01*
Y96319D01*
X542060Y97439D01*
X541410Y98089D01*
X541232Y98427D01*
X541375Y99049D01*
X541925Y99599D01*
X542389Y100719D01*
Y101932D01*
X541925Y103052D01*
X541068Y103910D01*
X539947Y104374D01*
D02*
G37*
G36*
X561199Y104661D02*
X559987D01*
X558867Y104197D01*
X558009Y103339D01*
X557545Y102219D01*
Y101006D01*
X558009Y99886D01*
X558736Y99160D01*
X558719Y98328D01*
X558531Y98251D01*
X557674Y97393D01*
X557210Y96273D01*
Y95060D01*
X557674Y93940D01*
X558531Y93083D01*
X559652Y92619D01*
X560864D01*
X561984Y93083D01*
X562842Y93940D01*
X563306Y95060D01*
Y96273D01*
X562842Y97393D01*
X562116Y98119D01*
X562133Y98951D01*
X562320Y99029D01*
X563177Y99886D01*
X563641Y101006D01*
Y102219D01*
X563177Y103339D01*
X562320Y104197D01*
X561199Y104661D01*
D02*
G37*
G36*
X459793Y98600D02*
X458580D01*
X457460Y98136D01*
X456602Y97279D01*
X456138Y96159D01*
Y94946D01*
X456602Y93826D01*
X457460Y92968D01*
X458580Y92504D01*
X459793D01*
X460913Y92968D01*
X461770Y93826D01*
X462234Y94946D01*
Y96159D01*
X461770Y97279D01*
X460913Y98136D01*
X459793Y98600D01*
D02*
G37*
G36*
X592660Y103591D02*
X591447D01*
X590327Y103127D01*
X589470Y102270D01*
X589006Y101150D01*
Y99937D01*
X589470Y98817D01*
X590072Y98214D01*
X590295Y97863D01*
X590088Y97234D01*
X589602Y96748D01*
X589138Y95628D01*
Y94415D01*
X589602Y93295D01*
X590459Y92437D01*
X591580Y91973D01*
X592792D01*
X593912Y92437D01*
X594770Y93295D01*
X595234Y94415D01*
Y95628D01*
X594770Y96748D01*
X594167Y97351D01*
X593944Y97702D01*
X594152Y98331D01*
X594638Y98817D01*
X595102Y99937D01*
Y101150D01*
X594638Y102270D01*
X593780Y103127D01*
X592660Y103591D01*
D02*
G37*
G36*
X238581Y96721D02*
X237369D01*
X236249Y96257D01*
X235391Y95399D01*
X234927Y94279D01*
Y93066D01*
X235391Y91946D01*
X236249Y91089D01*
X237369Y90625D01*
X238581D01*
X239702Y91089D01*
X240559Y91946D01*
X241023Y93066D01*
Y94279D01*
X240559Y95399D01*
X239702Y96257D01*
X238581Y96721D01*
D02*
G37*
G36*
X187210Y101763D02*
X185997D01*
X184877Y101299D01*
X184020Y100441D01*
X183556Y99321D01*
Y98108D01*
X184020Y96988D01*
X184824Y96183D01*
X184002Y95361D01*
X183538Y94241D01*
Y93028D01*
X184002Y91908D01*
X184859Y91051D01*
X185980Y90587D01*
X187192D01*
X188312Y91051D01*
X188987Y91726D01*
X189219Y91679D01*
X190077Y90822D01*
X191197Y90358D01*
X192409D01*
X193530Y90822D01*
X194387Y91679D01*
X194851Y92800D01*
Y94012D01*
X194387Y95133D01*
X194047Y95473D01*
X194044Y96539D01*
X194265Y96759D01*
X194729Y97880D01*
Y99092D01*
X194265Y100212D01*
X193408Y101070D01*
X192287Y101534D01*
X191075D01*
X189954Y101070D01*
X189303Y100418D01*
X189188Y100441D01*
X188330Y101299D01*
X187210Y101763D01*
D02*
G37*
G36*
X286354Y96678D02*
X285141D01*
X284021Y96213D01*
X283164Y95356D01*
X282700Y94236D01*
Y93023D01*
X283164Y91903D01*
X284021Y91046D01*
X285141Y90582D01*
X286354D01*
X287474Y91046D01*
X287727Y91299D01*
X288587Y91081D01*
X289312Y90357D01*
X290432Y89893D01*
X291645D01*
X292765Y90357D01*
X293330Y90922D01*
X293776Y90834D01*
X294633Y89976D01*
X295753Y89512D01*
X296966D01*
X298086Y89976D01*
X298944Y90834D01*
X299408Y91954D01*
Y93166D01*
X298944Y94287D01*
X298086Y95144D01*
X296966Y95608D01*
X295753D01*
X294633Y95144D01*
X294068Y94579D01*
X293622Y94668D01*
X292765Y95525D01*
X291645Y95989D01*
X290432D01*
X289312Y95525D01*
X289059Y95272D01*
X288198Y95489D01*
X287474Y96213D01*
X286354Y96678D01*
D02*
G37*
G36*
X267309Y95415D02*
X266096D01*
X264976Y94951D01*
X264119Y94094D01*
X263654Y92973D01*
Y91761D01*
X264119Y90640D01*
X264976Y89783D01*
X266096Y89319D01*
X267309D01*
X268429Y89783D01*
X269286Y90640D01*
X269397Y90908D01*
X270222D01*
X270395Y90491D01*
X271252Y89633D01*
X272373Y89169D01*
X273585D01*
X274705Y89633D01*
X275563Y90491D01*
X276027Y91611D01*
Y92823D01*
X275563Y93944D01*
X274705Y94801D01*
X273585Y95265D01*
X272373D01*
X271252Y94801D01*
X270395Y93944D01*
X270284Y93676D01*
X269459D01*
X269286Y94094D01*
X268429Y94951D01*
X267309Y95415D01*
D02*
G37*
G36*
X17119Y94183D02*
X15906D01*
X14786Y93719D01*
X13929Y92862D01*
X13464Y91742D01*
Y90529D01*
X13929Y89409D01*
X14786Y88551D01*
X15906Y88087D01*
X17119D01*
X18239Y88551D01*
X19096Y89409D01*
X19561Y90529D01*
Y91742D01*
X19096Y92862D01*
X18239Y93719D01*
X17119Y94183D01*
D02*
G37*
G36*
X520643Y105428D02*
X519431D01*
X518311Y104964D01*
X517453Y104106D01*
X516989Y102986D01*
Y101774D01*
X517453Y100653D01*
X517761Y100345D01*
X518039Y99635D01*
X517757Y99353D01*
X517181Y98777D01*
X516717Y97657D01*
Y96445D01*
X517181Y95324D01*
X518039Y94467D01*
X518221Y94391D01*
Y93630D01*
X518039Y93554D01*
X517181Y92697D01*
X516717Y91576D01*
Y90364D01*
X517181Y89243D01*
X518039Y88386D01*
X519159Y87922D01*
X520372D01*
X521492Y88386D01*
X522349Y89243D01*
X522813Y90364D01*
Y91576D01*
X522349Y92697D01*
X521492Y93554D01*
X521310Y93630D01*
Y94391D01*
X521492Y94467D01*
X522349Y95324D01*
X522813Y96445D01*
Y97657D01*
X522349Y98777D01*
X522041Y99086D01*
X521764Y99796D01*
X522045Y100077D01*
X522621Y100653D01*
X523085Y101774D01*
Y102986D01*
X522621Y104106D01*
X521764Y104964D01*
X520643Y105428D01*
D02*
G37*
G36*
X613582Y106568D02*
X612369D01*
X611249Y106104D01*
X610392Y105247D01*
X609928Y104127D01*
Y102914D01*
X610392Y101794D01*
X611249Y100936D01*
X611636Y100776D01*
Y99951D01*
X611282Y99805D01*
X610425Y98948D01*
X609961Y97827D01*
Y96615D01*
X610425Y95494D01*
X611282Y94637D01*
X611616Y94499D01*
Y93674D01*
X610982Y93412D01*
X610125Y92554D01*
X609661Y91434D01*
Y90222D01*
X610125Y89101D01*
X610982Y88244D01*
X612103Y87780D01*
X613315D01*
X614436Y88244D01*
X615293Y89101D01*
X615701Y90087D01*
X615728Y90092D01*
X616436D01*
X616463Y90087D01*
X616871Y89101D01*
X617729Y88244D01*
X618849Y87780D01*
X620061D01*
X621182Y88244D01*
X622039Y89101D01*
X622503Y90222D01*
Y91434D01*
X622039Y92554D01*
X621182Y93412D01*
X620848Y93550D01*
Y94375D01*
X621482Y94637D01*
X622339Y95494D01*
X622803Y96615D01*
Y97827D01*
X622339Y98948D01*
X621482Y99805D01*
X621391Y99843D01*
X621432Y100650D01*
X622240Y101458D01*
X622704Y102579D01*
Y103791D01*
X622240Y104911D01*
X621382Y105769D01*
X620262Y106233D01*
X619050D01*
X617929Y105769D01*
X617072Y104911D01*
X616766Y104173D01*
X616412Y104151D01*
X615973Y104249D01*
X615560Y105247D01*
X614702Y106104D01*
X613582Y106568D01*
D02*
G37*
G36*
X600061Y93695D02*
X598849D01*
X597729Y93231D01*
X596871Y92374D01*
X596407Y91254D01*
Y90041D01*
X596871Y88921D01*
X597729Y88064D01*
X598849Y87599D01*
X600061D01*
X601182Y88064D01*
X602039Y88921D01*
X602503Y90041D01*
Y91254D01*
X602039Y92374D01*
X601182Y93231D01*
X600061Y93695D01*
D02*
G37*
G36*
X652728Y93812D02*
X651516D01*
X650396Y93348D01*
X649538Y92491D01*
X649074Y91371D01*
Y90158D01*
X649538Y89038D01*
X650396Y88180D01*
X651516Y87716D01*
X652728D01*
X653849Y88180D01*
X654656Y88988D01*
X655476Y88168D01*
X656596Y87704D01*
X657808D01*
X658929Y88168D01*
X659171Y88410D01*
X660193Y88399D01*
X660614Y87977D01*
X661734Y87513D01*
X662947D01*
X664067Y87977D01*
X664924Y88835D01*
X665389Y89955D01*
Y91167D01*
X664924Y92288D01*
X664067Y93145D01*
X662947Y93609D01*
X661734D01*
X660614Y93145D01*
X660372Y92903D01*
X659350Y92914D01*
X658929Y93336D01*
X657808Y93800D01*
X656596D01*
X655476Y93336D01*
X654669Y92528D01*
X653849Y93348D01*
X652728Y93812D01*
D02*
G37*
G36*
X45430Y93475D02*
X44217D01*
X43097Y93011D01*
X42239Y92153D01*
X41775Y91033D01*
Y89820D01*
X42239Y88700D01*
X43097Y87843D01*
X44217Y87379D01*
X45430D01*
X46550Y87843D01*
X47407Y88700D01*
X47871Y89820D01*
Y91033D01*
X47407Y92153D01*
X46550Y93011D01*
X45430Y93475D01*
D02*
G37*
G36*
X548974Y105059D02*
X547762D01*
X546642Y104595D01*
X545784Y103738D01*
X545320Y102618D01*
Y101405D01*
X545784Y100285D01*
X546139Y99930D01*
X546172Y99119D01*
X545314Y98262D01*
X544850Y97142D01*
Y95929D01*
X545314Y94809D01*
X546172Y93951D01*
X546514Y93809D01*
Y92985D01*
X546245Y92873D01*
X545388Y92016D01*
X544924Y90896D01*
Y89683D01*
X545388Y88563D01*
X546245Y87705D01*
X547366Y87241D01*
X548578D01*
X549698Y87705D01*
X550556Y88563D01*
X551020Y89683D01*
Y90896D01*
X550556Y92016D01*
X549698Y92873D01*
X549356Y93015D01*
Y93840D01*
X549625Y93951D01*
X550482Y94809D01*
X550946Y95929D01*
Y97142D01*
X550482Y98262D01*
X550128Y98616D01*
X550095Y99427D01*
X550952Y100285D01*
X551416Y101405D01*
Y102618D01*
X550952Y103738D01*
X550095Y104595D01*
X548974Y105059D01*
D02*
G37*
G36*
X505314Y103919D02*
X504102D01*
X502982Y103455D01*
X502124Y102598D01*
X501660Y101477D01*
Y100265D01*
X502124Y99144D01*
X502421Y98848D01*
X502677Y98129D01*
X502411Y97862D01*
X501819Y97271D01*
X501355Y96151D01*
Y94938D01*
X501819Y93818D01*
X502151Y93486D01*
X502458Y92797D01*
X501601Y91940D01*
X501137Y90820D01*
Y89607D01*
X501601Y88487D01*
X502458Y87629D01*
X503579Y87165D01*
X504791D01*
X505911Y87629D01*
X506769Y88487D01*
X507233Y89607D01*
Y90820D01*
X506769Y91940D01*
X506437Y92272D01*
X506130Y92961D01*
X506987Y93818D01*
X507451Y94938D01*
Y96151D01*
X506987Y97271D01*
X506690Y97568D01*
X506435Y98287D01*
X506701Y98553D01*
X507292Y99144D01*
X507756Y100265D01*
Y101477D01*
X507292Y102598D01*
X506435Y103455D01*
X505314Y103919D01*
D02*
G37*
G36*
X32979Y89946D02*
X31766D01*
X30646Y89482D01*
X29788Y88625D01*
X29324Y87505D01*
Y86292D01*
X29788Y85172D01*
X30646Y84314D01*
X31766Y83850D01*
X32979D01*
X34099Y84314D01*
X34956Y85172D01*
X35420Y86292D01*
Y87505D01*
X34956Y88625D01*
X34099Y89482D01*
X32979Y89946D01*
D02*
G37*
G36*
X69831Y88892D02*
X68619D01*
X67499Y88428D01*
X66641Y87571D01*
X66177Y86451D01*
Y85238D01*
X66641Y84118D01*
X67499Y83260D01*
X68619Y82796D01*
X69831D01*
X70952Y83260D01*
X71339Y83648D01*
X72033Y83913D01*
X72329Y83642D01*
X72909Y83062D01*
X74029Y82598D01*
X75242D01*
X76362Y83062D01*
X77219Y83920D01*
X77683Y85040D01*
Y86252D01*
X77219Y87373D01*
X76362Y88230D01*
X75242Y88694D01*
X74029D01*
X72909Y88230D01*
X72521Y87843D01*
X71827Y87578D01*
X71532Y87849D01*
X70952Y88428D01*
X69831Y88892D01*
D02*
G37*
G36*
X205081Y87579D02*
X203869D01*
X202749Y87115D01*
X201891Y86258D01*
X201427Y85138D01*
Y83925D01*
X201891Y82805D01*
X202749Y81947D01*
X203869Y81483D01*
X205081D01*
X206202Y81947D01*
X207059Y82805D01*
X207523Y83925D01*
Y85138D01*
X207059Y86258D01*
X206202Y87115D01*
X205081Y87579D01*
D02*
G37*
G36*
X238757Y87480D02*
X237544D01*
X236424Y87016D01*
X235566Y86159D01*
X235102Y85038D01*
Y83826D01*
X235566Y82706D01*
X236424Y81848D01*
X237544Y81384D01*
X238757D01*
X239877Y81848D01*
X240734Y82706D01*
X241198Y83826D01*
Y85038D01*
X240734Y86159D01*
X239877Y87016D01*
X238757Y87480D01*
D02*
G37*
G36*
X504156Y79784D02*
X502944D01*
X501823Y79320D01*
X500966Y78463D01*
X500502Y77342D01*
Y76130D01*
X500966Y75009D01*
X501823Y74152D01*
X502944Y73688D01*
X504156D01*
X505276Y74152D01*
X506134Y75009D01*
X506598Y76130D01*
Y77342D01*
X506134Y78463D01*
X505276Y79320D01*
X504156Y79784D01*
D02*
G37*
G36*
X380765Y77772D02*
X379553D01*
X378433Y77308D01*
X377575Y76451D01*
X377111Y75331D01*
Y74118D01*
X377575Y72998D01*
X378433Y72140D01*
X379553Y71676D01*
X380765D01*
X381886Y72140D01*
X382085Y72339D01*
X383128Y72332D01*
X383510Y71950D01*
X384630Y71486D01*
X385843D01*
X386963Y71950D01*
X387821Y72807D01*
X388285Y73927D01*
Y75140D01*
X387821Y76260D01*
X386963Y77118D01*
X385843Y77582D01*
X384630D01*
X383510Y77118D01*
X383311Y76919D01*
X382268Y76926D01*
X381886Y77308D01*
X380765Y77772D01*
D02*
G37*
G36*
X337278Y70487D02*
X336066D01*
X334945Y70023D01*
X334088Y69166D01*
X333894Y68697D01*
X333434Y68640D01*
X333052Y68657D01*
X332252Y69457D01*
X331131Y69921D01*
X329919D01*
X328799Y69457D01*
X327941Y68600D01*
X327477Y67479D01*
X326761Y67548D01*
X326297Y68668D01*
X325439Y69526D01*
X324319Y69990D01*
X323107D01*
X321986Y69526D01*
X321341Y68880D01*
X320800Y68777D01*
X320403Y68908D01*
X319719Y69592D01*
X318599Y70056D01*
X317386D01*
X316266Y69592D01*
X315409Y68734D01*
X314945Y67614D01*
Y66402D01*
X315409Y65281D01*
X316266Y64424D01*
X317386Y63960D01*
X318599D01*
X319719Y64424D01*
X320365Y65069D01*
X320906Y65173D01*
X321302Y65042D01*
X321986Y64358D01*
X323107Y63894D01*
X324319D01*
X325439Y64358D01*
X326297Y65215D01*
X326761Y66335D01*
X327477Y66267D01*
X327941Y65147D01*
X328799Y64289D01*
X329919Y63825D01*
X331131D01*
X332252Y64289D01*
X333109Y65147D01*
X333303Y65616D01*
X333763Y65673D01*
X334145Y65656D01*
X334945Y64856D01*
X336066Y64391D01*
X337278D01*
X338399Y64856D01*
X339256Y65713D01*
X339720Y66833D01*
Y68046D01*
X339256Y69166D01*
X338399Y70023D01*
X337278Y70487D01*
D02*
G37*
G36*
X126837Y78486D02*
X125624D01*
X124504Y78022D01*
X123646Y77165D01*
X123182Y76044D01*
Y74832D01*
X123646Y73711D01*
X124112Y73246D01*
X124454Y72777D01*
X124112Y72250D01*
X123674Y71813D01*
X123210Y70693D01*
Y69480D01*
X123674Y68360D01*
X124532Y67502D01*
X125652Y67038D01*
X126865D01*
X127985Y67502D01*
X128842Y68360D01*
X129306Y69480D01*
Y70693D01*
X128842Y71813D01*
X128377Y72278D01*
X128035Y72747D01*
X128377Y73274D01*
X128814Y73711D01*
X129278Y74832D01*
Y76044D01*
X128814Y77165D01*
X127957Y78022D01*
X126837Y78486D01*
D02*
G37*
G36*
X107357Y78113D02*
X106145D01*
X105025Y77649D01*
X104167Y76791D01*
X103703Y75671D01*
Y74458D01*
X104167Y73338D01*
X105025Y72481D01*
X105564Y72257D01*
Y71432D01*
X104971Y71187D01*
X104114Y70329D01*
X103650Y69209D01*
Y67997D01*
X104114Y66876D01*
X104971Y66019D01*
X106091Y65555D01*
X107304D01*
X108424Y66019D01*
X109282Y66876D01*
X109746Y67997D01*
Y69209D01*
X109282Y70329D01*
X108424Y71187D01*
X107885Y71410D01*
Y72235D01*
X108478Y72481D01*
X109335Y73338D01*
X109799Y74458D01*
Y75671D01*
X109335Y76791D01*
X108478Y77649D01*
X107357Y78113D01*
D02*
G37*
G36*
X114317Y78196D02*
X113104D01*
X111984Y77732D01*
X111127Y76875D01*
X110663Y75755D01*
Y74542D01*
X111127Y73422D01*
X111984Y72565D01*
X112802Y72226D01*
Y71401D01*
X112119Y71118D01*
X111261Y70261D01*
X110797Y69141D01*
Y67928D01*
X111261Y66808D01*
X112119Y65950D01*
X113239Y65486D01*
X114452D01*
X115572Y65950D01*
X116429Y66808D01*
X116893Y67928D01*
Y69141D01*
X116429Y70261D01*
X115572Y71118D01*
X114754Y71457D01*
Y72282D01*
X115437Y72565D01*
X116295Y73422D01*
X116759Y74542D01*
Y75755D01*
X116295Y76875D01*
X115437Y77732D01*
X114317Y78196D01*
D02*
G37*
G36*
X367395Y64760D02*
X366182D01*
X365062Y64296D01*
X364205Y63438D01*
X363741Y62318D01*
Y61106D01*
X364205Y59985D01*
X365062Y59128D01*
X366182Y58664D01*
X367395D01*
X368515Y59128D01*
X369373Y59985D01*
X369837Y61106D01*
Y62318D01*
X369373Y63438D01*
X368515Y64296D01*
X367395Y64760D01*
D02*
G37*
G36*
X344233Y63119D02*
X343020D01*
X341900Y62655D01*
X341043Y61798D01*
X340578Y60677D01*
Y59465D01*
X341043Y58344D01*
X341900Y57487D01*
X343020Y57023D01*
X344233D01*
X345353Y57487D01*
X346210Y58344D01*
X346674Y59465D01*
Y60677D01*
X346210Y61798D01*
X345353Y62655D01*
X344233Y63119D01*
D02*
G37*
G36*
X381919Y62903D02*
X380706D01*
X379586Y62439D01*
X378728Y61582D01*
X378264Y60461D01*
Y59249D01*
X378728Y58128D01*
X379586Y57271D01*
X380706Y56807D01*
X381919D01*
X383039Y57271D01*
X383336Y57568D01*
X383996Y57902D01*
X384331Y57568D01*
X384854Y57045D01*
X385974Y56581D01*
X387187D01*
X388307Y57045D01*
X389164Y57902D01*
X389628Y59023D01*
Y60235D01*
X389164Y61356D01*
X388307Y62213D01*
X387187Y62677D01*
X385974D01*
X384854Y62213D01*
X384557Y61916D01*
X383896Y61582D01*
X383562Y61916D01*
X383039Y62439D01*
X381919Y62903D01*
D02*
G37*
G36*
X408609Y61641D02*
X407397D01*
X406276Y61177D01*
X405419Y60319D01*
X404955Y59199D01*
Y57986D01*
X405419Y56866D01*
X406276Y56009D01*
X407397Y55545D01*
X408609D01*
X409729Y56009D01*
X410587Y56866D01*
X411051Y57986D01*
Y59199D01*
X410587Y60319D01*
X409729Y61177D01*
X408609Y61641D01*
D02*
G37*
G36*
X353115Y63119D02*
X351903D01*
X350782Y62655D01*
X349925Y61798D01*
X349461Y60677D01*
Y59465D01*
X349925Y58344D01*
X350782Y57487D01*
X351498Y57191D01*
X351346Y56429D01*
X351227D01*
X350107Y55965D01*
X349249Y55107D01*
X349186Y54956D01*
X348362D01*
X348270Y55176D01*
X347413Y56033D01*
X346293Y56497D01*
X345080D01*
X343960Y56033D01*
X343102Y55176D01*
X342638Y54056D01*
Y52843D01*
X343102Y51723D01*
X343960Y50865D01*
X345080Y50401D01*
X346293D01*
X347413Y50865D01*
X348270Y51723D01*
X348333Y51874D01*
X349158D01*
X349249Y51654D01*
X350107Y50797D01*
X351227Y50333D01*
X352439D01*
X353560Y50797D01*
X354417Y51654D01*
X354881Y52774D01*
Y53987D01*
X354417Y55107D01*
X353560Y55965D01*
X352844Y56261D01*
X352996Y57023D01*
X353115D01*
X354235Y57487D01*
X355093Y58344D01*
X355557Y59465D01*
Y60677D01*
X355093Y61798D01*
X354235Y62655D01*
X353115Y63119D01*
D02*
G37*
G36*
X465602Y63287D02*
X464389D01*
X463269Y62823D01*
X462411Y61965D01*
X461947Y60845D01*
Y59805D01*
X461935Y59622D01*
X461343Y59101D01*
X460688D01*
X459568Y58637D01*
X458711Y57779D01*
X458246Y56659D01*
Y55446D01*
X458711Y54326D01*
X459568Y53469D01*
X460688Y53005D01*
X461901D01*
X463021Y53469D01*
X463878Y54326D01*
X464342Y55446D01*
Y56487D01*
X464355Y56670D01*
X464947Y57191D01*
X465602D01*
X466722Y57655D01*
X467579Y58512D01*
X468043Y59632D01*
Y60845D01*
X467579Y61965D01*
X466722Y62823D01*
X465602Y63287D01*
D02*
G37*
G36*
X203857Y56764D02*
X202645D01*
X201524Y56300D01*
X200667Y55443D01*
X200203Y54322D01*
Y53110D01*
X200667Y51989D01*
X201524Y51132D01*
X202645Y50668D01*
X203857D01*
X204977Y51132D01*
X205835Y51989D01*
X206299Y53110D01*
Y54322D01*
X205835Y55443D01*
X204977Y56300D01*
X203857Y56764D01*
D02*
G37*
G36*
X360120Y55161D02*
X358908D01*
X357788Y54697D01*
X356930Y53840D01*
X356466Y52719D01*
Y51507D01*
X356930Y50387D01*
X357788Y49529D01*
X358908Y49065D01*
X360120D01*
X361241Y49529D01*
X362098Y50387D01*
X362562Y51507D01*
Y52719D01*
X362098Y53840D01*
X361241Y54697D01*
X360120Y55161D01*
D02*
G37*
G36*
X531885Y52616D02*
X530673D01*
X529552Y52152D01*
X528695Y51295D01*
X528231Y50174D01*
Y48962D01*
X528695Y47842D01*
X529552Y46984D01*
X530673Y46520D01*
X531885D01*
X533006Y46984D01*
X533863Y47842D01*
X534327Y48962D01*
Y50174D01*
X533863Y51295D01*
X533006Y52152D01*
X531885Y52616D01*
D02*
G37*
G36*
X311175Y48275D02*
X309962D01*
X308842Y47811D01*
X307984Y46954D01*
X307520Y45834D01*
Y44621D01*
X307984Y43501D01*
X308842Y42643D01*
X309962Y42179D01*
X311175D01*
X312295Y42643D01*
X313152Y43501D01*
X313616Y44621D01*
Y45834D01*
X313152Y46954D01*
X312295Y47811D01*
X311175Y48275D01*
D02*
G37*
G36*
X465924Y47849D02*
X464712D01*
X463591Y47385D01*
X462734Y46527D01*
X462270Y45407D01*
Y44194D01*
X462734Y43074D01*
X463591Y42217D01*
X464712Y41753D01*
X465924D01*
X467044Y42217D01*
X467902Y43074D01*
X468366Y44194D01*
Y45407D01*
X467902Y46527D01*
X467044Y47385D01*
X465924Y47849D01*
D02*
G37*
G36*
X456917Y39929D02*
X455705D01*
X454584Y39465D01*
X454072Y38952D01*
X453644Y38651D01*
X453076Y38952D01*
X452630Y39399D01*
X451510Y39863D01*
X450297D01*
X449177Y39399D01*
X448363Y38585D01*
X447550Y39399D01*
X446430Y39863D01*
X445217D01*
X444097Y39399D01*
X443239Y38541D01*
X442775Y37421D01*
Y36209D01*
X443239Y35088D01*
X444097Y34231D01*
X445217Y33767D01*
X446430D01*
X447550Y34231D01*
X448363Y35044D01*
X449177Y34231D01*
X450297Y33767D01*
X451510D01*
X452630Y34231D01*
X453142Y34743D01*
X453570Y35044D01*
X454138Y34743D01*
X454584Y34297D01*
X455705Y33833D01*
X456917D01*
X458038Y34297D01*
X458895Y35154D01*
X459359Y36274D01*
Y37487D01*
X458895Y38607D01*
X458038Y39465D01*
X456917Y39929D01*
D02*
G37*
G36*
X141988Y42316D02*
X140775D01*
X139655Y41852D01*
X138798Y40995D01*
X138334Y39875D01*
Y38662D01*
X138798Y37542D01*
X139655Y36684D01*
X140775Y36220D01*
X141988D01*
X143108Y36684D01*
X143965Y37542D01*
X144430Y38662D01*
Y39875D01*
X143965Y40995D01*
X143108Y41852D01*
X141988Y42316D01*
D02*
G37*
G36*
X506485Y40803D02*
X505273D01*
X504152Y40339D01*
X503295Y39481D01*
X502831Y38361D01*
Y37148D01*
X503295Y36028D01*
X504152Y35171D01*
X505273Y34707D01*
X506485D01*
X507606Y35171D01*
X508463Y36028D01*
X508927Y37148D01*
Y38361D01*
X508463Y39481D01*
X507606Y40339D01*
X506485Y40803D01*
D02*
G37*
G36*
X403013Y39987D02*
X401801D01*
X400681Y39523D01*
X399823Y38666D01*
X399359Y37545D01*
Y36333D01*
X399823Y35213D01*
X400681Y34355D01*
X401801Y33891D01*
X403013D01*
X404134Y34355D01*
X404991Y35213D01*
X405455Y36333D01*
Y37545D01*
X404991Y38666D01*
X404134Y39523D01*
X403013Y39987D01*
D02*
G37*
G36*
X311901Y36487D02*
X310688D01*
X309568Y36023D01*
X308711Y35166D01*
X308247Y34045D01*
Y32833D01*
X308711Y31713D01*
X309568Y30855D01*
X310688Y30391D01*
X311901D01*
X313021Y30855D01*
X313879Y31713D01*
X314343Y32833D01*
Y34045D01*
X313879Y35166D01*
X313021Y36023D01*
X311901Y36487D01*
D02*
G37*
G36*
X233100Y35514D02*
X231887D01*
X230767Y35050D01*
X229910Y34193D01*
X229446Y33073D01*
Y31860D01*
X229910Y30740D01*
X230767Y29882D01*
X231887Y29418D01*
X233100D01*
X234220Y29882D01*
X235078Y30740D01*
X235542Y31860D01*
Y33073D01*
X235078Y34193D01*
X234220Y35050D01*
X233100Y35514D01*
D02*
G37*
G36*
X328083Y31720D02*
X326871D01*
X325751Y31256D01*
X324893Y30398D01*
X324429Y29278D01*
Y28065D01*
X324893Y26945D01*
X325751Y26088D01*
X326871Y25624D01*
X328083D01*
X329204Y26088D01*
X330061Y26945D01*
X330525Y28065D01*
Y29278D01*
X330061Y30398D01*
X329204Y31256D01*
X328083Y31720D01*
D02*
G37*
G36*
X203987Y31460D02*
X202774D01*
X201654Y30996D01*
X200796Y30139D01*
X200332Y29019D01*
Y27806D01*
X200796Y26686D01*
X201654Y25828D01*
X202774Y25364D01*
X203987D01*
X205107Y25828D01*
X205964Y26686D01*
X206428Y27806D01*
Y29019D01*
X205964Y30139D01*
X205107Y30996D01*
X203987Y31460D01*
D02*
G37*
G36*
X299404Y31326D02*
X298192D01*
X297071Y30862D01*
X296214Y30004D01*
X295750Y28884D01*
Y27671D01*
X296214Y26551D01*
X297071Y25694D01*
X298192Y25230D01*
X299404D01*
X300525Y25694D01*
X301382Y26551D01*
X301846Y27671D01*
Y28884D01*
X301382Y30004D01*
X300525Y30862D01*
X299404Y31326D01*
D02*
G37*
G36*
X407151Y26340D02*
X405938D01*
X404818Y25876D01*
X404217Y25274D01*
X403917Y25033D01*
X403236Y25260D01*
X402808Y25688D01*
X401688Y26152D01*
X400475D01*
X399355Y25688D01*
X398497Y24830D01*
X398033Y23710D01*
Y22498D01*
X398497Y21377D01*
X399355Y20520D01*
X400475Y20056D01*
X401688D01*
X402808Y20520D01*
X403409Y21121D01*
X403709Y21363D01*
X404390Y21136D01*
X404818Y20708D01*
X405938Y20244D01*
X407151D01*
X408271Y20708D01*
X409129Y21565D01*
X409593Y22685D01*
Y23898D01*
X409129Y25018D01*
X408271Y25876D01*
X407151Y26340D01*
D02*
G37*
G36*
X51945Y30160D02*
X50732D01*
X49612Y29696D01*
X48755Y28839D01*
X48291Y27718D01*
Y26506D01*
X48755Y25385D01*
X49612Y24528D01*
X50732Y24064D01*
X51945D01*
X53065Y24528D01*
X53922Y25385D01*
X54387Y26506D01*
Y27718D01*
X53922Y28839D01*
X53065Y29696D01*
X51945Y30160D01*
D02*
G37*
G36*
X414827Y29152D02*
X413614D01*
X412494Y28688D01*
X411637Y27830D01*
X411173Y26710D01*
Y25497D01*
X411637Y24377D01*
X412494Y23520D01*
X413614Y23056D01*
X414827D01*
X415947Y23520D01*
X416805Y24377D01*
X417269Y25497D01*
Y26710D01*
X416805Y27830D01*
X415947Y28688D01*
X414827Y29152D01*
D02*
G37*
G36*
X360677Y35456D02*
X359464D01*
X358344Y34992D01*
X357486Y34134D01*
X357022Y33014D01*
Y31802D01*
X357486Y30681D01*
X358344Y29824D01*
X359464Y29360D01*
Y28641D01*
X358344Y28177D01*
X357486Y27320D01*
X357022Y26199D01*
Y24987D01*
X357486Y23867D01*
X358344Y23009D01*
X359464Y22545D01*
X360677D01*
X361797Y23009D01*
X362026Y23238D01*
X363102Y23237D01*
X363424Y22915D01*
X364544Y22451D01*
X365757D01*
X366877Y22915D01*
X367734Y23772D01*
X368198Y24893D01*
Y26105D01*
X367734Y27226D01*
X366877Y28083D01*
X365757Y28547D01*
X364544D01*
X363424Y28083D01*
X363195Y27854D01*
X362119Y27855D01*
X361797Y28177D01*
X360677Y28641D01*
Y29360D01*
X361797Y29824D01*
X362654Y30681D01*
X363118Y31802D01*
Y33014D01*
X362654Y34134D01*
X361797Y34992D01*
X360677Y35456D01*
D02*
G37*
G36*
X437372Y28217D02*
X436159D01*
X435039Y27753D01*
X434182Y26895D01*
X433718Y25775D01*
Y24563D01*
X434182Y23442D01*
X435039Y22585D01*
X436159Y22121D01*
X437372D01*
X438492Y22585D01*
X439350Y23442D01*
X439814Y24563D01*
Y25775D01*
X439350Y26895D01*
X438492Y27753D01*
X437372Y28217D01*
D02*
G37*
G36*
X457148Y27483D02*
X455936D01*
X454816Y27019D01*
X453958Y26161D01*
X453494Y25041D01*
Y23828D01*
X453958Y22708D01*
X454816Y21851D01*
X455936Y21387D01*
X457148D01*
X458269Y21851D01*
X459126Y22708D01*
X459590Y23828D01*
Y25041D01*
X459126Y26161D01*
X458269Y27019D01*
X457148Y27483D01*
D02*
G37*
G36*
X492614Y27308D02*
X491402D01*
X490282Y26844D01*
X489424Y25986D01*
X488960Y24866D01*
Y23653D01*
X489424Y22533D01*
X490282Y21676D01*
X491402Y21212D01*
X492614D01*
X493735Y21676D01*
X494592Y22533D01*
X495056Y23653D01*
Y24866D01*
X494592Y25986D01*
X493735Y26844D01*
X492614Y27308D01*
D02*
G37*
G36*
X23413Y24930D02*
X22200D01*
X21080Y24466D01*
X20223Y23609D01*
X19759Y22488D01*
Y21276D01*
X20223Y20155D01*
X21080Y19298D01*
X22200Y18834D01*
X23413D01*
X24533Y19298D01*
X25391Y20155D01*
X25855Y21276D01*
Y22488D01*
X25391Y23609D01*
X24533Y24466D01*
X23413Y24930D01*
D02*
G37*
G36*
X11828Y24232D02*
X10615D01*
X9495Y23768D01*
X8638Y22910D01*
X8174Y21790D01*
Y20577D01*
X8638Y19457D01*
X9495Y18600D01*
X10615Y18136D01*
X11828D01*
X12948Y18600D01*
X13806Y19457D01*
X14270Y20577D01*
Y21790D01*
X13806Y22910D01*
X12948Y23768D01*
X11828Y24232D01*
D02*
G37*
G36*
X91508Y15451D02*
X90295D01*
X89175Y14987D01*
X88318Y14129D01*
X87618Y13990D01*
X87342Y14265D01*
X86222Y14729D01*
X85009D01*
X83889Y14265D01*
X83032Y13408D01*
X82568Y12288D01*
Y11075D01*
X83032Y9955D01*
X83889Y9097D01*
X85009Y8633D01*
X86222D01*
X87342Y9097D01*
X88200Y9955D01*
X88900Y10094D01*
X89175Y9819D01*
X90295Y9355D01*
X91508D01*
X92628Y9819D01*
X93485Y10676D01*
X93949Y11796D01*
Y13009D01*
X93485Y14129D01*
X92628Y14987D01*
X91508Y15451D01*
D02*
G37*
G36*
X104311Y30216D02*
X102171D01*
X100104Y29662D01*
X98250Y28592D01*
X96737Y27078D01*
X95667Y25225D01*
X95113Y23158D01*
Y21018D01*
X95667Y18951D01*
X96737Y17097D01*
X98250Y15584D01*
X100104Y14514D01*
X102171Y13960D01*
X104311D01*
X106378Y14514D01*
X108231Y15584D01*
X109745Y17097D01*
X110815Y18951D01*
X111369Y21018D01*
Y23158D01*
X110815Y25225D01*
X109745Y27078D01*
X108231Y28592D01*
X106378Y29662D01*
X104311Y30216D01*
D02*
G37*
%LPD*%
D66*
X223032Y507754D02*
D03*
X222842Y516735D02*
D03*
X215763Y516781D02*
D03*
X214955Y507944D02*
D03*
X204163Y413553D02*
D03*
Y402387D02*
D03*
Y392290D02*
D03*
X190845Y413710D02*
D03*
Y403101D02*
D03*
Y392702D02*
D03*
X182743Y413573D02*
D03*
X182542Y403187D02*
D03*
X182400Y392399D02*
D03*
X73546Y150899D02*
D03*
Y130040D02*
D03*
X73213Y140302D02*
D03*
X72596Y414904D02*
D03*
Y394045D02*
D03*
X72263Y404307D02*
D03*
X72217Y285466D02*
D03*
Y264607D02*
D03*
X71884Y274869D02*
D03*
X71646Y545483D02*
D03*
Y524624D02*
D03*
X71313Y534886D02*
D03*
X66038Y150520D02*
D03*
X65979Y140513D02*
D03*
X65788Y129819D02*
D03*
X65128Y274986D02*
D03*
X64938Y264292D02*
D03*
X64615Y285278D02*
D03*
X62141Y414716D02*
D03*
X62083Y404708D02*
D03*
X61892Y394015D02*
D03*
X61191Y545295D02*
D03*
X61133Y535287D02*
D03*
X60942Y524594D02*
D03*
X57676Y150899D02*
D03*
X57584Y285466D02*
D03*
X57485Y264180D02*
D03*
X57475Y140513D02*
D03*
X57384Y275079D02*
D03*
X57333Y129725D02*
D03*
X51592Y415094D02*
D03*
X51392Y404708D02*
D03*
X51250Y393921D02*
D03*
X50642Y545673D02*
D03*
X50442Y535287D02*
D03*
X50300Y524500D02*
D03*
X309042Y146530D02*
D03*
X299349Y146718D02*
D03*
Y125859D02*
D03*
X299016Y136121D02*
D03*
X298496Y115542D02*
D03*
X288895Y146530D02*
D03*
X288836Y136523D02*
D03*
X288646Y125829D02*
D03*
X288041Y115354D02*
D03*
X278346Y146909D02*
D03*
X278145Y136523D02*
D03*
X278003Y125735D02*
D03*
X268272Y146530D02*
D03*
X268072Y136144D02*
D03*
X267929Y125357D02*
D03*
D87*
X250429Y202187D02*
D03*
X243596Y557080D02*
D03*
X240779Y147424D02*
D03*
X239230Y603568D02*
D03*
X235481Y202059D02*
D03*
X234742Y120531D02*
D03*
X23480Y137602D02*
D03*
X232024Y527324D02*
D03*
X22984Y104808D02*
D03*
X228018Y83061D02*
D03*
X223604Y163078D02*
D03*
X223566Y152855D02*
D03*
X222842Y175291D02*
D03*
X221450Y603568D02*
D03*
X21275Y602635D02*
D03*
X20472Y9937D02*
D03*
X204173Y295176D02*
D03*
X203670Y603568D02*
D03*
X20231Y332489D02*
D03*
X20211Y532440D02*
D03*
X198443Y467815D02*
D03*
X19375Y68268D02*
D03*
X19159Y58070D02*
D03*
X185936Y603971D02*
D03*
X185555Y351142D02*
D03*
X183190Y457525D02*
D03*
X18169Y402003D02*
D03*
X17424Y278407D02*
D03*
X17292Y289354D02*
D03*
X17003Y109276D02*
D03*
X168013Y603971D02*
D03*
X167894Y245580D02*
D03*
X167521Y462669D02*
D03*
X166449Y399905D02*
D03*
X165824Y262567D02*
D03*
X163137Y206591D02*
D03*
X160431Y528699D02*
D03*
X156136Y175519D02*
D03*
X154041Y498478D02*
D03*
X153561Y603908D02*
D03*
X152723Y206367D02*
D03*
X148968Y399763D02*
D03*
X141757Y575724D02*
D03*
X139690Y144127D02*
D03*
X132550Y603568D02*
D03*
X13241Y381432D02*
D03*
X13045Y361620D02*
D03*
X12852Y250718D02*
D03*
X114770Y603568D02*
D03*
X11394Y601566D02*
D03*
X11128Y235852D02*
D03*
X109515Y226317D02*
D03*
X10132Y10074D02*
D03*
X96990Y603568D02*
D03*
X93876Y106378D02*
D03*
X93660Y96180D02*
D03*
X8966Y219837D02*
D03*
X86256Y106378D02*
D03*
X86040Y96180D02*
D03*
X8324Y370576D02*
D03*
X8189Y326659D02*
D03*
Y304714D02*
D03*
X79210Y603568D02*
D03*
X7925Y558975D02*
D03*
X7922Y288994D02*
D03*
X7790Y537345D02*
D03*
Y515579D02*
D03*
X7658Y585546D02*
D03*
X7656Y264960D02*
D03*
X7521Y499156D02*
D03*
Y461104D02*
D03*
Y442410D02*
D03*
X7389Y396347D02*
D03*
X7361Y174970D02*
D03*
Y155473D02*
D03*
Y93762D02*
D03*
Y32233D02*
D03*
X729732Y12990D02*
D03*
X728762Y137681D02*
D03*
X726806Y168961D02*
D03*
X726539Y150533D02*
D03*
X726237Y111656D02*
D03*
X724487Y72616D02*
D03*
X722280Y603301D02*
D03*
X720946Y545089D02*
D03*
Y527309D02*
D03*
X7257Y341470D02*
D03*
X7254Y480329D02*
D03*
Y415973D02*
D03*
X712869Y92639D02*
D03*
X711670Y12019D02*
D03*
X711281Y123891D02*
D03*
X710496Y440251D02*
D03*
X7120Y127701D02*
D03*
Y54397D02*
D03*
X704500Y603301D02*
D03*
X703166Y545089D02*
D03*
Y527309D02*
D03*
X702183Y358442D02*
D03*
X702173Y318442D02*
D03*
X701815Y418442D02*
D03*
Y398442D02*
D03*
Y378442D02*
D03*
Y338442D02*
D03*
Y302443D02*
D03*
Y286443D02*
D03*
X697080Y218427D02*
D03*
X697078Y209359D02*
D03*
X696907Y73586D02*
D03*
X695356Y112044D02*
D03*
X693412Y137876D02*
D03*
X69342Y8867D02*
D03*
X6977Y203291D02*
D03*
X690603Y218509D02*
D03*
X690601Y209441D02*
D03*
X689945Y589151D02*
D03*
X689343Y603169D02*
D03*
X688175Y265389D02*
D03*
X687931Y272839D02*
D03*
X687586Y12990D02*
D03*
X682224Y569389D02*
D03*
X676191Y272839D02*
D03*
X676029Y266362D02*
D03*
X675394Y589417D02*
D03*
X674459Y398442D02*
D03*
X671609Y485783D02*
D03*
Y472808D02*
D03*
X671563Y603169D02*
D03*
X670281Y226040D02*
D03*
X670199Y218752D02*
D03*
X669254Y498051D02*
D03*
X669003Y461996D02*
D03*
X664444Y569389D02*
D03*
X661505Y418442D02*
D03*
Y378442D02*
D03*
Y358442D02*
D03*
Y338442D02*
D03*
Y302443D02*
D03*
Y286443D02*
D03*
X657667Y318783D02*
D03*
X657167Y499537D02*
D03*
X653783Y603169D02*
D03*
X652727Y270015D02*
D03*
X648995Y443931D02*
D03*
X648553Y515887D02*
D03*
X644428Y546473D02*
D03*
X644258Y55923D02*
D03*
X638561Y103787D02*
D03*
X637893Y90962D02*
D03*
X636003Y603169D02*
D03*
X633090Y590484D02*
D03*
X632821Y579537D02*
D03*
X631388Y564043D02*
D03*
X630144Y90962D02*
D03*
X629877Y103721D02*
D03*
X625340Y58075D02*
D03*
X622000Y468963D02*
D03*
X621647Y603303D02*
D03*
X618843Y496794D02*
D03*
X618355Y452029D02*
D03*
X615546Y472234D02*
D03*
X615434Y198410D02*
D03*
X615310Y590484D02*
D03*
X615041Y579537D02*
D03*
X614561Y546334D02*
D03*
X609158Y516722D02*
D03*
X605358Y90437D02*
D03*
X603971Y76578D02*
D03*
X603867Y603303D02*
D03*
X595173Y205069D02*
D03*
X592549Y566110D02*
D03*
X591972Y117346D02*
D03*
Y89690D02*
D03*
X591932Y238951D02*
D03*
X589069Y73665D02*
D03*
X588592Y431137D02*
D03*
X586087Y603303D02*
D03*
X584972Y193332D02*
D03*
X583979Y593032D02*
D03*
X583174Y334790D02*
D03*
X58235Y332463D02*
D03*
X580596Y440327D02*
D03*
X579986Y49929D02*
D03*
X579697Y200279D02*
D03*
X575846Y184305D02*
D03*
X574784Y565582D02*
D03*
X57254Y193365D02*
D03*
X571972Y117046D02*
D03*
Y90726D02*
D03*
X57191Y82006D02*
D03*
X569524Y593161D02*
D03*
X568734Y210099D02*
D03*
X568307Y603303D02*
D03*
X567931Y402328D02*
D03*
X56838Y223375D02*
D03*
X567848Y411317D02*
D03*
X567233Y391975D02*
D03*
Y382166D02*
D03*
Y371986D02*
D03*
Y361904D02*
D03*
X567192Y426964D02*
D03*
X564484Y567954D02*
D03*
X562595Y592950D02*
D03*
X560149Y190271D02*
D03*
X559973Y89880D02*
D03*
X558305Y346875D02*
D03*
X557121Y427124D02*
D03*
X551693Y117988D02*
D03*
X551439Y594015D02*
D03*
X547472Y427124D02*
D03*
X547093Y346646D02*
D03*
X546893Y401269D02*
D03*
X546656Y372542D02*
D03*
X544698Y565747D02*
D03*
X541693Y381988D02*
D03*
X541571Y391937D02*
D03*
X541284Y209946D02*
D03*
X541028Y199304D02*
D03*
X540812Y221297D02*
D03*
X539973Y89802D02*
D03*
X538785Y593616D02*
D03*
X537848Y427690D02*
D03*
X537489Y346276D02*
D03*
X537248Y371963D02*
D03*
X537167Y401731D02*
D03*
X53754Y462333D02*
D03*
X536407Y527776D02*
D03*
X536163Y537007D02*
D03*
X532338Y117046D02*
D03*
X527723Y593230D02*
D03*
X527185Y385961D02*
D03*
X52598Y592203D02*
D03*
X524825Y542023D02*
D03*
X52299Y352427D02*
D03*
X52278Y8326D02*
D03*
X519974Y76705D02*
D03*
X519913Y117058D02*
D03*
X518917Y536583D02*
D03*
X518785Y552592D02*
D03*
X517573Y579803D02*
D03*
X517515Y346276D02*
D03*
X517235Y371963D02*
D03*
X517197Y603547D02*
D03*
X517015Y427652D02*
D03*
X516730Y402069D02*
D03*
X51445Y480687D02*
D03*
X512828Y381792D02*
D03*
X512818Y391305D02*
D03*
X510027Y76164D02*
D03*
X508058Y372582D02*
D03*
X507738Y401965D02*
D03*
X507695Y427190D02*
D03*
X506786Y552628D02*
D03*
X506661Y536504D02*
D03*
X506067Y595071D02*
D03*
X497589Y401965D02*
D03*
Y391965D02*
D03*
Y381965D02*
D03*
X497294Y371539D02*
D03*
X497291Y346707D02*
D03*
X496552Y427533D02*
D03*
X495079Y536638D02*
D03*
X494784Y592938D02*
D03*
Y552628D02*
D03*
X489745Y602356D02*
D03*
X487307Y346487D02*
D03*
X487289Y351831D02*
D03*
X487233Y427218D02*
D03*
Y421711D02*
D03*
X486877Y391965D02*
D03*
Y381965D02*
D03*
Y371965D02*
D03*
Y361886D02*
D03*
X486852Y411490D02*
D03*
X486550Y401810D02*
D03*
X482867Y536641D02*
D03*
X482785Y592938D02*
D03*
Y552628D02*
D03*
X477408Y603082D02*
D03*
X474066Y440131D02*
D03*
Y333797D02*
D03*
X472834Y361963D02*
D03*
X472737Y386964D02*
D03*
X471180Y536633D02*
D03*
X470787Y592938D02*
D03*
Y552628D02*
D03*
X465610Y65750D02*
D03*
X464767Y603413D02*
D03*
X460687Y41671D02*
D03*
X458907Y536349D02*
D03*
X458785Y592938D02*
D03*
Y552628D02*
D03*
X454251Y199934D02*
D03*
X452963Y603971D02*
D03*
X447081Y536626D02*
D03*
X446786Y592938D02*
D03*
Y552628D02*
D03*
X441198Y603585D02*
D03*
X437444Y44201D02*
D03*
X43744Y48946D02*
D03*
X434825Y535920D02*
D03*
X434785Y592938D02*
D03*
Y552628D02*
D03*
X43421Y72456D02*
D03*
Y61184D02*
D03*
X429666Y368785D02*
D03*
X429410Y380088D02*
D03*
X428470Y330848D02*
D03*
X428158Y418391D02*
D03*
X427820Y402455D02*
D03*
X426839Y346192D02*
D03*
X424698Y160071D02*
D03*
X42370Y15276D02*
D03*
X417030Y603568D02*
D03*
X409786Y365849D02*
D03*
X409738Y383045D02*
D03*
X406768Y151000D02*
D03*
X406405Y94513D02*
D03*
X406222Y110681D02*
D03*
X406042Y134656D02*
D03*
X403939Y421952D02*
D03*
X403677Y391063D02*
D03*
X403621Y357815D02*
D03*
X403517Y326621D02*
D03*
X399250Y603568D02*
D03*
X399148Y151000D02*
D03*
X398785Y94513D02*
D03*
X398602Y110681D02*
D03*
X398422Y134656D02*
D03*
X397655Y342069D02*
D03*
X396951Y406573D02*
D03*
X395039Y423847D02*
D03*
X394099Y366786D02*
D03*
Y325407D02*
D03*
X394089Y380591D02*
D03*
X390505Y430499D02*
D03*
X390213Y290459D02*
D03*
X389921Y318287D02*
D03*
X387149Y587898D02*
D03*
X384193Y399049D02*
D03*
X381470Y603568D02*
D03*
X379222Y382163D02*
D03*
Y366771D02*
D03*
X378991Y422760D02*
D03*
X378148Y327195D02*
D03*
X377660Y236962D02*
D03*
X377546Y342644D02*
D03*
X376679Y521901D02*
D03*
X375054Y259776D02*
D03*
X37351Y137348D02*
D03*
X367030Y84262D02*
D03*
X36695Y271846D02*
D03*
X365534Y422112D02*
D03*
X365028Y343070D02*
D03*
X364823Y350924D02*
D03*
X364757Y326817D02*
D03*
X364711Y406161D02*
D03*
X363690Y603568D02*
D03*
X36353Y119812D02*
D03*
X358265Y413802D02*
D03*
X358120Y390987D02*
D03*
X357919Y335519D02*
D03*
X352826Y239591D02*
D03*
X35184Y401411D02*
D03*
X349722Y564538D02*
D03*
X348709Y544457D02*
D03*
X345910Y603568D02*
D03*
X338844Y414472D02*
D03*
Y398470D02*
D03*
Y358465D02*
D03*
Y342463D02*
D03*
X336387Y491774D02*
D03*
X332341Y422473D02*
D03*
Y406471D02*
D03*
Y342463D02*
D03*
Y326461D02*
D03*
X33246Y244699D02*
D03*
X33050Y339867D02*
D03*
X328130Y603568D02*
D03*
X32662Y380266D02*
D03*
X32471Y529775D02*
D03*
X32469Y359095D02*
D03*
X320561Y317932D02*
D03*
X319336Y422473D02*
D03*
Y406471D02*
D03*
Y390469D02*
D03*
Y358465D02*
D03*
Y342463D02*
D03*
Y326461D02*
D03*
X318120Y170124D02*
D03*
X310350Y603568D02*
D03*
X306332Y422473D02*
D03*
Y390469D02*
D03*
Y358465D02*
D03*
Y326461D02*
D03*
X30526Y312092D02*
D03*
X300624Y228933D02*
D03*
X300622Y216832D02*
D03*
X299829Y414472D02*
D03*
Y398470D02*
D03*
Y350464D02*
D03*
Y334462D02*
D03*
X30003Y103480D02*
D03*
X299354Y242529D02*
D03*
X29748Y219837D02*
D03*
X293327Y422473D02*
D03*
Y390469D02*
D03*
Y358465D02*
D03*
Y326461D02*
D03*
X29360Y9685D02*
D03*
X292570Y603568D02*
D03*
X289791Y242529D02*
D03*
X289568Y229306D02*
D03*
Y216906D02*
D03*
X280322Y406471D02*
D03*
Y390469D02*
D03*
Y358465D02*
D03*
Y342463D02*
D03*
X27612Y187985D02*
D03*
X274790Y603568D02*
D03*
X268437Y27694D02*
D03*
X268166Y39764D02*
D03*
X267891Y51199D02*
D03*
X263357Y27694D02*
D03*
X263086Y39764D02*
D03*
X262811Y51199D02*
D03*
X257010Y603568D02*
D03*
X256009Y556646D02*
D03*
D88*
X144112Y329451D02*
D03*
X69474Y20617D02*
D03*
X344467Y231981D02*
D03*
D89*
X711952Y40099D02*
D03*
X178552D02*
D03*
Y573499D02*
D03*
X711952D02*
D03*
M02*
