G04*
G04 #@! TF.GenerationSoftware,Altium Limited,Altium Designer,25.7.1 (20)*
G04*
G04 Layer_Color=7978172*
%FSLAX44Y44*%
%MOMM*%
G71*
G04*
G04 #@! TF.SameCoordinates,73AB98AC-F87E-4787-825B-23B2420A13CA*
G04*
G04*
G04 #@! TF.FilePolarity,Positive*
G04*
G01*
G75*
%ADD10C,0.1524*%
%ADD12C,0.1270*%
%ADD13C,0.2032*%
%ADD74C,0.2540*%
%ADD85C,0.1016*%
%ADD97C,0.1500*%
D10*
X316527Y576953D02*
X340581D01*
X316527Y574076D02*
Y576953D01*
Y532199D02*
Y535076D01*
X340581Y574076D02*
Y576953D01*
Y532199D02*
Y535076D01*
X669473Y84864D02*
X672351D01*
X491594Y108918D02*
X494472D01*
X669473D02*
X672351D01*
Y84864D02*
Y108918D01*
X270639Y95306D02*
X283848D01*
Y102545D01*
X244561Y95009D02*
Y105509D01*
X270639Y95306D02*
Y102545D01*
X283848Y115245D02*
Y122484D01*
Y126294D01*
X316527Y532199D02*
X340581D01*
X270639Y122484D02*
X283848D01*
X270639Y115245D02*
Y122484D01*
X693687Y226065D02*
Y228943D01*
X669633Y443944D02*
Y446822D01*
X491594Y84864D02*
X494472D01*
X491594D02*
Y108918D01*
X669633Y446822D02*
X693687D01*
X669633Y226065D02*
X693687D01*
Y443944D02*
Y446822D01*
X669633Y226065D02*
Y228943D01*
X599882Y195522D02*
X610382D01*
X599882Y204579D02*
X610382D01*
X355722Y401381D02*
X366222D01*
X355722Y392323D02*
X366222D01*
X290297Y424584D02*
X300797D01*
X356204Y325669D02*
X366705D01*
X375333Y316403D02*
X385834D01*
X290297Y433642D02*
X300797D01*
X356204Y316611D02*
X366705D01*
X493060Y392412D02*
X503560D01*
X329903Y425592D02*
X340403D01*
X517342Y381787D02*
X527842D01*
X493060Y401470D02*
X503560D01*
X329903Y434650D02*
X340403D01*
X362303Y356466D02*
Y366967D01*
X353245Y356466D02*
Y366967D01*
X355831Y373073D02*
X366331D01*
X355831Y382130D02*
X366331D01*
X355120Y165847D02*
X365620D01*
X355120Y174904D02*
X365620D01*
X365869Y205529D02*
X376370D01*
X365869Y196472D02*
X376370D01*
X285930Y97117D02*
Y107617D01*
X249918Y137513D02*
X260419D01*
X253619Y95009D02*
Y105509D01*
X294988Y97117D02*
Y107617D01*
X249918Y146571D02*
X260419D01*
X311109Y434810D02*
X321610D01*
X493090Y372422D02*
X503591D01*
X375333Y325460D02*
X385834D01*
X311109Y425752D02*
X321610D01*
X493090Y381480D02*
X503591D01*
X365872Y185400D02*
X376372D01*
X365872Y194457D02*
X376372D01*
X510728Y401094D02*
X521228D01*
X510728Y392036D02*
X516768D01*
X296758Y96822D02*
Y108821D01*
X422407Y560756D02*
X425285D01*
X566448Y196355D02*
X578447D01*
X307315Y96822D02*
Y108821D01*
X422407Y560756D02*
Y584810D01*
X600286D02*
X603164D01*
Y560756D02*
Y584810D01*
X422407D02*
X425285D01*
X600286Y560756D02*
X603164D01*
X566448Y185798D02*
X578447D01*
X302115Y130929D02*
X309354D01*
X298305Y144137D02*
X302115D01*
X309354D01*
X302115Y130929D02*
Y144137D01*
X88687Y395422D02*
Y405923D01*
X101557Y394993D02*
Y405493D01*
X68948Y348785D02*
Y359286D01*
X79629Y395422D02*
Y405923D01*
X92499Y394993D02*
Y405493D01*
X302318Y128989D02*
X309557D01*
X302318Y115781D02*
Y128989D01*
X329496Y115781D02*
Y128989D01*
X322257D02*
X329496D01*
X302318Y115781D02*
X309557D01*
X329293Y130929D02*
Y144137D01*
X322054D02*
X329293D01*
X298508Y128989D02*
X302318D01*
X322054Y130929D02*
X329293D01*
X478765Y438922D02*
X489265D01*
X478765Y429865D02*
X489265D01*
X562958Y526898D02*
Y537398D01*
X553900Y526898D02*
Y537398D01*
X372194Y433144D02*
X382694D01*
X551993Y526870D02*
Y537370D01*
X517342Y372730D02*
X527842D01*
X372194Y424086D02*
X382694D01*
X542935Y526870D02*
Y537370D01*
X79738Y348412D02*
Y358912D01*
X573809Y526979D02*
Y537479D01*
X59891Y348785D02*
Y359286D01*
X70681Y348412D02*
Y358912D01*
X564751Y526979D02*
Y537479D01*
X329725Y332334D02*
X340225D01*
X329725Y341391D02*
X340225D01*
X580619Y526819D02*
Y537319D01*
X589676Y526819D02*
Y537319D01*
X255727Y122486D02*
X268935D01*
X255727Y115247D02*
Y122486D01*
X268935Y95308D02*
Y102547D01*
Y115247D02*
Y122486D01*
Y126296D01*
X267485Y169753D02*
Y176992D01*
Y149814D02*
Y157053D01*
X280693Y169753D02*
Y176992D01*
X267485D02*
X280693D01*
X265626Y149443D02*
Y156682D01*
Y169382D02*
Y176621D01*
X252418Y149443D02*
Y156682D01*
Y149443D02*
X265626D01*
X252418Y176621D02*
X265626D01*
X255727Y95308D02*
Y102547D01*
Y95308D02*
X268935D01*
X252418Y169382D02*
Y176621D01*
X265626D02*
Y180431D01*
X297022Y177109D02*
X310231D01*
X297022Y169870D02*
Y177109D01*
X282323Y146053D02*
Y149862D01*
X310231Y169870D02*
Y177109D01*
X297022Y149931D02*
Y157170D01*
Y146121D02*
Y149931D01*
X322257Y115781D02*
X329496D01*
X297022Y149931D02*
X310231D01*
Y157170D01*
X267485Y146004D02*
Y149814D01*
X295532Y169802D02*
Y177041D01*
X267485Y149814D02*
X280693D01*
Y157053D01*
X282323Y177041D02*
X295532D01*
X282323Y149862D02*
X295532D01*
Y157101D01*
X282323Y169802D02*
Y177041D01*
Y149862D02*
Y157101D01*
D12*
X129646Y401260D02*
G03*
X129646Y401260I-1570J0D01*
G01*
X147756Y404072D02*
G03*
X130055Y400591I-7110J-10590D01*
G01*
X135751Y404175D01*
X135574Y405185D02*
X135751Y404175D01*
X141732Y405384D01*
X135361Y406402D02*
X135751Y404175D01*
X141732Y405384D02*
X147756Y404072D01*
X144235Y396505D02*
X144694Y393889D01*
X135361Y406402D02*
X141265Y407534D01*
X141732Y405384D01*
X135574Y405185D02*
X141554Y406205D01*
X147756Y404072D02*
X151892Y372364D01*
X128722Y398210D02*
X149877Y402441D01*
X137588Y395161D02*
X144272Y396494D01*
X128044Y388798D02*
X133736Y389505D01*
X138119Y392617D02*
X144694Y393889D01*
X137588Y395161D02*
X138119Y392617D01*
X127443Y392722D02*
X128044Y388798D01*
X130055Y400591D02*
X139436Y372857D01*
X149988Y371735D02*
X150622Y369824D01*
X127443Y392722D02*
X132357Y393712D01*
X143420Y370481D02*
X151892Y372364D01*
X388597Y384537D02*
X388863Y385069D01*
X389395Y385601D01*
X389927Y385867D01*
X390991D01*
X391523Y385601D01*
X392056Y385069D01*
X392322Y384537D01*
X392588Y383738D01*
Y382408D01*
X392322Y381610D01*
X392056Y381078D01*
X391523Y380546D01*
X390991Y380280D01*
X389927D01*
X389395Y380546D01*
X388863Y381078D01*
X388597Y381610D01*
X386761Y384537D02*
Y384803D01*
X386495Y385335D01*
X386229Y385601D01*
X385697Y385867D01*
X384633D01*
X384101Y385601D01*
X383835Y385335D01*
X383569Y384803D01*
Y384270D01*
X383835Y383738D01*
X384367Y382940D01*
X387027Y380280D01*
X383303D01*
X382052Y384803D02*
X381520Y385069D01*
X380722Y385867D01*
Y380280D01*
X375295Y385867D02*
X377956Y382142D01*
X373965D01*
X375295Y385867D02*
Y380280D01*
X720344Y12572D02*
Y6858D01*
Y12572D02*
X717895D01*
X717079Y12300D01*
X716807Y12028D01*
X716535Y11483D01*
Y10939D01*
X716807Y10395D01*
X717079Y10123D01*
X717895Y9851D01*
X720344D02*
X717895D01*
X717079Y9579D01*
X716807Y9307D01*
X716535Y8763D01*
Y7946D01*
X716807Y7402D01*
X717079Y7130D01*
X717895Y6858D01*
X720344D01*
X715256Y12572D02*
Y6858D01*
X711447Y12572D02*
Y6858D01*
X715256Y9851D02*
X711447D01*
X708508Y12572D02*
X709325Y12300D01*
X709597Y11755D01*
Y11211D01*
X709325Y10667D01*
X708780Y10395D01*
X707692Y10123D01*
X706876Y9851D01*
X706332Y9307D01*
X706060Y8763D01*
Y7946D01*
X706332Y7402D01*
X706604Y7130D01*
X707420Y6858D01*
X708508D01*
X709325Y7130D01*
X709597Y7402D01*
X709869Y7946D01*
Y8763D01*
X709597Y9307D01*
X709053Y9851D01*
X708236Y10123D01*
X707148Y10395D01*
X706604Y10667D01*
X706332Y11211D01*
Y11755D01*
X706604Y12300D01*
X707420Y12572D01*
X708508D01*
X703148D02*
X703964Y12300D01*
X704509Y11483D01*
X704781Y10123D01*
Y9307D01*
X704509Y7946D01*
X703964Y7130D01*
X703148Y6858D01*
X702604D01*
X701788Y7130D01*
X701244Y7946D01*
X700972Y9307D01*
Y10123D01*
X701244Y11483D01*
X701788Y12300D01*
X702604Y12572D01*
X703148D01*
X696972D02*
X699693Y8763D01*
X695611D01*
X696972Y12572D02*
Y6858D01*
X188214Y12318D02*
Y6604D01*
Y12318D02*
X185765D01*
X184949Y12046D01*
X184677Y11774D01*
X184405Y11229D01*
Y10685D01*
X184677Y10141D01*
X184949Y9869D01*
X185765Y9597D01*
X188214D02*
X185765D01*
X184949Y9325D01*
X184677Y9053D01*
X184405Y8509D01*
Y7692D01*
X184677Y7148D01*
X184949Y6876D01*
X185765Y6604D01*
X188214D01*
X183126Y12318D02*
Y6604D01*
X179317Y12318D02*
Y6604D01*
X183126Y9597D02*
X179317D01*
X176378Y12318D02*
X177195Y12046D01*
X177467Y11501D01*
Y10957D01*
X177195Y10413D01*
X176650Y10141D01*
X175562Y9869D01*
X174746Y9597D01*
X174202Y9053D01*
X173930Y8509D01*
Y7692D01*
X174202Y7148D01*
X174474Y6876D01*
X175290Y6604D01*
X176378D01*
X177195Y6876D01*
X177467Y7148D01*
X177739Y7692D01*
Y8509D01*
X177467Y9053D01*
X176922Y9597D01*
X176106Y9869D01*
X175018Y10141D01*
X174474Y10413D01*
X174202Y10957D01*
Y11501D01*
X174474Y12046D01*
X175290Y12318D01*
X176378D01*
X171018D02*
X171835Y12046D01*
X172379Y11229D01*
X172651Y9869D01*
Y9053D01*
X172379Y7692D01*
X171835Y6876D01*
X171018Y6604D01*
X170474D01*
X169658Y6876D01*
X169114Y7692D01*
X168842Y9053D01*
Y9869D01*
X169114Y11229D01*
X169658Y12046D01*
X170474Y12318D01*
X171018D01*
X167019D02*
X164026D01*
X165658Y10141D01*
X164842D01*
X164298Y9869D01*
X164026Y9597D01*
X163754Y8781D01*
Y8237D01*
X164026Y7420D01*
X164570Y6876D01*
X165386Y6604D01*
X166202D01*
X167019Y6876D01*
X167291Y7148D01*
X167563Y7692D01*
X169418Y605662D02*
Y599948D01*
Y605662D02*
X166969D01*
X166153Y605390D01*
X165881Y605118D01*
X165609Y604573D01*
Y604029D01*
X165881Y603485D01*
X166153Y603213D01*
X166969Y602941D01*
X169418D02*
X166969D01*
X166153Y602669D01*
X165881Y602397D01*
X165609Y601853D01*
Y601036D01*
X165881Y600492D01*
X166153Y600220D01*
X166969Y599948D01*
X169418D01*
X164330Y605662D02*
Y599948D01*
X160521Y605662D02*
Y599948D01*
X164330Y602941D02*
X160521D01*
X157582Y605662D02*
X158399Y605390D01*
X158671Y604846D01*
Y604301D01*
X158399Y603757D01*
X157854Y603485D01*
X156766Y603213D01*
X155950Y602941D01*
X155406Y602397D01*
X155134Y601853D01*
Y601036D01*
X155406Y600492D01*
X155678Y600220D01*
X156494Y599948D01*
X157582D01*
X158399Y600220D01*
X158671Y600492D01*
X158943Y601036D01*
Y601853D01*
X158671Y602397D01*
X158126Y602941D01*
X157310Y603213D01*
X156222Y603485D01*
X155678Y603757D01*
X155406Y604301D01*
Y604846D01*
X155678Y605390D01*
X156494Y605662D01*
X157582D01*
X152222D02*
X153039Y605390D01*
X153583Y604573D01*
X153855Y603213D01*
Y602397D01*
X153583Y601036D01*
X153039Y600220D01*
X152222Y599948D01*
X151678D01*
X150862Y600220D01*
X150318Y601036D01*
X150046Y602397D01*
Y603213D01*
X150318Y604573D01*
X150862Y605390D01*
X151678Y605662D01*
X152222D01*
X148495Y604301D02*
Y604573D01*
X148223Y605118D01*
X147951Y605390D01*
X147406Y605662D01*
X146318D01*
X145774Y605390D01*
X145502Y605118D01*
X145230Y604573D01*
Y604029D01*
X145502Y603485D01*
X146046Y602669D01*
X148767Y599948D01*
X144958D01*
X717804Y606170D02*
Y600456D01*
Y606170D02*
X715355D01*
X714539Y605898D01*
X714267Y605626D01*
X713995Y605081D01*
Y604537D01*
X714267Y603993D01*
X714539Y603721D01*
X715355Y603449D01*
X717804D02*
X715355D01*
X714539Y603177D01*
X714267Y602905D01*
X713995Y602361D01*
Y601544D01*
X714267Y601000D01*
X714539Y600728D01*
X715355Y600456D01*
X717804D01*
X712716Y606170D02*
Y600456D01*
X708907Y606170D02*
Y600456D01*
X712716Y603449D02*
X708907D01*
X705968Y606170D02*
X706785Y605898D01*
X707057Y605354D01*
Y604809D01*
X706785Y604265D01*
X706240Y603993D01*
X705152Y603721D01*
X704336Y603449D01*
X703792Y602905D01*
X703520Y602361D01*
Y601544D01*
X703792Y601000D01*
X704064Y600728D01*
X704880Y600456D01*
X705968D01*
X706785Y600728D01*
X707057Y601000D01*
X707329Y601544D01*
Y602361D01*
X707057Y602905D01*
X706513Y603449D01*
X705696Y603721D01*
X704608Y603993D01*
X704064Y604265D01*
X703792Y604809D01*
Y605354D01*
X704064Y605898D01*
X704880Y606170D01*
X705968D01*
X700608D02*
X701424Y605898D01*
X701969Y605081D01*
X702241Y603721D01*
Y602905D01*
X701969Y601544D01*
X701424Y600728D01*
X700608Y600456D01*
X700064D01*
X699248Y600728D01*
X698704Y601544D01*
X698432Y602905D01*
Y603721D01*
X698704Y605081D01*
X699248Y605898D01*
X700064Y606170D01*
X700608D01*
X697153Y605081D02*
X696609Y605354D01*
X695792Y606170D01*
Y600456D01*
D13*
X227528Y377215D02*
G03*
X221432Y380009I-6096J-5253D01*
G01*
X227528Y377215D02*
G03*
X229306Y375691I5921J5108D01*
G01*
X244800Y366547D02*
G03*
X247086Y365785I1454J551D01*
G01*
X244800Y366547D02*
G03*
X238450Y372643I-6350J-259D01*
G01*
X231846Y387629D02*
G03*
X238196Y388645I-1344J28750D01*
G01*
X228036Y387629D02*
G03*
X231846Y387629I1905J40795D01*
G01*
X248102Y386613D02*
G03*
X238196Y388645I-6938J-8661D01*
G01*
X249372Y384835D02*
G03*
X251150Y382803I3449J1224D01*
G01*
X249372Y384835D02*
G03*
X248102Y386613I-3778J-1356D01*
G01*
X249372Y376707D02*
G03*
X250642Y376199I1795J2647D01*
G01*
X251404Y373913D02*
G03*
X252166Y375945I-34544J14113D01*
G01*
X245562Y379501D02*
G03*
X249372Y376707I43297J55046D01*
G01*
X226512Y387883D02*
G03*
X228036Y387629I1828J6271D01*
G01*
X226512Y387883D02*
G03*
X224734Y388137I-1778J-6096D01*
G01*
X255468Y377723D02*
G03*
X253944Y380517I-4293J-529D01*
G01*
X655975Y492437D02*
G03*
X657245Y498787I5080J2286D01*
G01*
X245562Y379501D02*
G03*
X249372Y376707I43297J55046D01*
G01*
X655975Y492437D02*
G03*
X657245Y498787I5080J2286D01*
G01*
X670961Y494977D02*
G03*
X670961Y494977I-9906J0D01*
G01*
D02*
G03*
X670961Y494977I-9906J0D01*
G01*
X250896Y366801D02*
G03*
X252928Y365277I1143J-593D01*
G01*
D02*
G03*
X254706Y369595I-4354J4318D01*
G01*
X251404Y373913D02*
G03*
X251150Y371881I3584J-1480D01*
G01*
X249372Y376707D02*
G03*
X250642Y376199I1795J2647D01*
G01*
X251404Y373913D02*
G03*
X252166Y375945I-34544J14113D01*
G01*
X244800Y366547D02*
G03*
X247086Y365785I1454J551D01*
G01*
X244800Y366547D02*
G03*
X238450Y372643I-6350J-259D01*
G01*
X247340Y366293D02*
G03*
X247086Y370611I-3887J1938D01*
G01*
X245308Y373151D02*
G03*
X240228Y376199I-6246J-4653D01*
G01*
X247086Y370611D02*
G03*
X245308Y373151I-44354J-29156D01*
G01*
X247086Y370611D02*
G03*
X245308Y373151I-44354J-29156D01*
G01*
X247340Y366293D02*
G03*
X247086Y370611I-3887J1938D01*
G01*
X245308Y373151D02*
G03*
X240228Y376199I-6246J-4653D01*
G01*
X227528Y377215D02*
G03*
X229306Y375691I5921J5108D01*
G01*
X227528Y377215D02*
G03*
X221432Y380009I-6096J-5253D01*
G01*
X226512Y387883D02*
G03*
X224734Y388137I-1778J-6096D01*
G01*
X255468Y377723D02*
G03*
X253944Y380517I-4293J-529D01*
G01*
X249372Y384835D02*
G03*
X251150Y382803I3449J1224D01*
G01*
X252928Y365277D02*
G03*
X254706Y369595I-4354J4318D01*
G01*
X251404Y373913D02*
G03*
X251150Y371881I3584J-1480D01*
G01*
X250896Y366801D02*
G03*
X252928Y365277I1143J-593D01*
G01*
X228036Y387629D02*
G03*
X231846Y387629I1905J40795D01*
G01*
X226512Y387883D02*
G03*
X228036Y387629I1828J6271D01*
G01*
X231846D02*
G03*
X238196Y388645I-1344J28750D01*
G01*
X249372Y384835D02*
G03*
X248102Y386613I-3778J-1356D01*
G01*
D02*
G03*
X238196Y388645I-6938J-8661D01*
G01*
X66731Y437822D02*
Y488622D01*
Y437822D02*
X269931D01*
X67549Y498117D02*
Y548917D01*
Y498117D02*
X270749D01*
X269931Y437822D02*
Y488622D01*
X66731D02*
X269931D01*
X270749Y498117D02*
Y548917D01*
X67549D02*
X270749D01*
X254960Y374929D02*
X255214Y376453D01*
X255468Y377469D01*
X254706Y369595D02*
Y372897D01*
X254960Y374929D01*
X250642Y376199D02*
X252166Y375945D01*
X251150Y371881D02*
X251658Y368325D01*
X252420Y381787D02*
X253944Y380517D01*
X251150Y382803D02*
X252420Y381787D01*
X424091Y15215D02*
Y66015D01*
X248831D02*
X424091D01*
X248831Y15215D02*
Y66015D01*
Y15215D02*
X424091D01*
X251150Y371881D02*
X251658Y368325D01*
X250896Y366801D02*
X251658Y368325D01*
X250642Y376199D02*
X252166Y375945D01*
X229306Y375691D02*
X238450Y372643D01*
X229306Y375691D02*
X238450Y372643D01*
X254706Y372897D02*
X254960Y374929D01*
X255214Y376453D01*
X250896Y366801D02*
X251658Y368325D01*
X254706Y369595D02*
Y372897D01*
X255214Y376453D02*
X255468Y377469D01*
X251150Y382803D02*
X252420Y381787D01*
X253944Y380517D01*
X452206Y42416D02*
X453173Y43383D01*
X454625Y43867D01*
X456559D01*
X458011Y43383D01*
X458978Y42416D01*
Y41448D01*
X458494Y40481D01*
X458011Y39997D01*
X457043Y39514D01*
X454141Y38546D01*
X453173Y38063D01*
X452690Y37579D01*
X452206Y36611D01*
Y35160D01*
X453173Y34193D01*
X454625Y33709D01*
X456559D01*
X458011Y34193D01*
X458978Y35160D01*
X449933Y32258D02*
X443161Y43867D01*
X442484D02*
Y33709D01*
Y43867D02*
X435712Y33709D01*
Y43867D02*
Y33709D01*
X261790Y518666D02*
Y508508D01*
X265176Y518666D02*
X258404D01*
X257195D02*
Y508508D01*
Y518666D02*
X252841D01*
X251390Y518182D01*
X250907Y517698D01*
X250423Y516731D01*
Y515764D01*
X250907Y514796D01*
X251390Y514313D01*
X252841Y513829D01*
X257195D01*
X253809D02*
X250423Y508508D01*
X240410D02*
X244280Y518666D01*
X248150Y508508D01*
X246698Y511894D02*
X241861D01*
X238040Y518666D02*
Y508508D01*
Y518666D02*
X231268Y508508D01*
Y518666D02*
Y508508D01*
X221691Y517215D02*
X222658Y518182D01*
X224109Y518666D01*
X226044D01*
X227495Y518182D01*
X228463Y517215D01*
Y516247D01*
X227979Y515280D01*
X227495Y514796D01*
X226528Y514313D01*
X223626Y513345D01*
X222658Y512861D01*
X222175Y512378D01*
X221691Y511410D01*
Y509959D01*
X222658Y508992D01*
X224109Y508508D01*
X226044D01*
X227495Y508992D01*
X228463Y509959D01*
X219417Y518666D02*
Y508508D01*
X213613D01*
X204761D02*
X208631Y518666D01*
X212500Y508508D01*
X211049Y511894D02*
X206212D01*
X199005Y518666D02*
Y508508D01*
X202391Y518666D02*
X195619D01*
X188122D02*
X194410D01*
Y508508D01*
X188122D01*
X194410Y513829D02*
X190540D01*
X186429Y518666D02*
Y508508D01*
Y518666D02*
X183043D01*
X181592Y518182D01*
X180624Y517215D01*
X180140Y516247D01*
X179657Y514796D01*
Y512378D01*
X180140Y510927D01*
X180624Y509959D01*
X181592Y508992D01*
X183043Y508508D01*
X186429D01*
X166016Y518666D02*
Y508508D01*
X169402Y518666D02*
X162630D01*
X158519D02*
X159486Y518182D01*
X160454Y517215D01*
X160937Y516247D01*
X161421Y514796D01*
Y512378D01*
X160937Y510927D01*
X160454Y509959D01*
X159486Y508992D01*
X158519Y508508D01*
X156584D01*
X155617Y508992D01*
X154649Y509959D01*
X154166Y510927D01*
X153682Y512378D01*
Y514796D01*
X154166Y516247D01*
X154649Y517215D01*
X155617Y518182D01*
X156584Y518666D01*
X158519D01*
X135591Y508508D02*
X139461Y518666D01*
X143330Y508508D01*
X141879Y511894D02*
X137042D01*
X133221Y518666D02*
Y508508D01*
X127417D01*
X122918Y518666D02*
Y508508D01*
X126304Y518666D02*
X119532D01*
X118323D02*
Y508508D01*
X116195Y518666D02*
Y511410D01*
X115711Y509959D01*
X114743Y508992D01*
X113292Y508508D01*
X112325D01*
X110874Y508992D01*
X109907Y509959D01*
X109423Y511410D01*
Y518666D01*
X106617D02*
Y508508D01*
Y518666D02*
X102748Y508508D01*
X98878Y518666D02*
X102748Y508508D01*
X98878Y518666D02*
Y508508D01*
X257642Y539059D02*
X258610Y540026D01*
X260061Y540510D01*
X261996D01*
X263447Y540026D01*
X264414Y539059D01*
Y538091D01*
X263930Y537124D01*
X263447Y536640D01*
X262479Y536157D01*
X259577Y535189D01*
X258610Y534705D01*
X258126Y534222D01*
X257642Y533254D01*
Y531803D01*
X258610Y530836D01*
X260061Y530352D01*
X261996D01*
X263447Y530836D01*
X264414Y531803D01*
X248113Y538091D02*
X248597Y539059D01*
X249564Y540026D01*
X250532Y540510D01*
X252467D01*
X253434Y540026D01*
X254401Y539059D01*
X254885Y538091D01*
X255369Y536640D01*
Y534222D01*
X254885Y532771D01*
X254401Y531803D01*
X253434Y530836D01*
X252467Y530352D01*
X250532D01*
X249564Y530836D01*
X248597Y531803D01*
X248113Y532771D01*
X245259Y540510D02*
Y530352D01*
X238487Y540510D02*
Y530352D01*
X245259Y535673D02*
X238487D01*
X235682Y534705D02*
X226975D01*
X218172Y540510D02*
X223009D01*
X223493Y536157D01*
X223009Y536640D01*
X221558Y537124D01*
X220107D01*
X218655Y536640D01*
X217688Y535673D01*
X217204Y534222D01*
Y533254D01*
X217688Y531803D01*
X218655Y530836D01*
X220107Y530352D01*
X221558D01*
X223009Y530836D01*
X223493Y531319D01*
X223976Y532287D01*
X214931Y538575D02*
X213964Y539059D01*
X212512Y540510D01*
Y530352D01*
X201194Y537124D02*
X201677Y535673D01*
X202645Y534705D01*
X204096Y534222D01*
X204580D01*
X206031Y534705D01*
X206998Y535673D01*
X207482Y537124D01*
Y537608D01*
X206998Y539059D01*
X206031Y540026D01*
X204580Y540510D01*
X204096D01*
X202645Y540026D01*
X201677Y539059D01*
X201194Y537124D01*
Y534705D01*
X201677Y532287D01*
X202645Y530836D01*
X204096Y530352D01*
X205063D01*
X206514Y530836D01*
X206998Y531803D01*
X193599Y540510D02*
X198437Y533738D01*
X191181D01*
X193599Y540510D02*
Y530352D01*
X188424Y540510D02*
X183103D01*
X186005Y536640D01*
X184554D01*
X183587Y536157D01*
X183103Y535673D01*
X182619Y534222D01*
Y533254D01*
X183103Y531803D01*
X184070Y530836D01*
X185522Y530352D01*
X186973D01*
X188424Y530836D01*
X188908Y531319D01*
X189391Y532287D01*
X172365Y540510D02*
Y530352D01*
Y540510D02*
X168011D01*
X166560Y540026D01*
X166077Y539542D01*
X165593Y538575D01*
Y537608D01*
X166077Y536640D01*
X166560Y536157D01*
X168011Y535673D01*
X172365D01*
X168979D02*
X165593Y530352D01*
X157031Y540510D02*
X163319D01*
Y530352D01*
X157031D01*
X163319Y535673D02*
X159450D01*
X155338Y540510D02*
X151469Y530352D01*
X147599Y540510D02*
X151469Y530352D01*
X138312Y540510D02*
Y530352D01*
Y540510D02*
X133959D01*
X132507Y540026D01*
X132024Y539542D01*
X131540Y538575D01*
Y537608D01*
X132024Y536640D01*
X132507Y536157D01*
X133959Y535673D01*
X138312D02*
X133959D01*
X132507Y535189D01*
X132024Y534705D01*
X131540Y533738D01*
Y532287D01*
X132024Y531319D01*
X132507Y530836D01*
X133959Y530352D01*
X138312D01*
X128783Y531319D02*
X129267Y530836D01*
X128783Y530352D01*
X128299Y530836D01*
X128783Y531319D01*
X126074Y540510D02*
Y530352D01*
Y540510D02*
X122205Y530352D01*
X118335Y540510D02*
X122205Y530352D01*
X118335Y540510D02*
Y530352D01*
X262660Y448515D02*
X263144Y448032D01*
X262660Y447548D01*
X262177Y448032D01*
X262660Y448515D01*
X259952Y457706D02*
Y447548D01*
X256372Y457706D02*
Y449483D01*
X255888Y448032D01*
X254921Y447548D01*
X253954D01*
X257823Y454320D02*
X254437D01*
X252502Y451418D02*
X246698D01*
Y452385D01*
X247182Y453353D01*
X247665Y453836D01*
X248633Y454320D01*
X250084D01*
X251051Y453836D01*
X252019Y452869D01*
X252502Y451418D01*
Y450450D01*
X252019Y448999D01*
X251051Y448032D01*
X250084Y447548D01*
X248633D01*
X247665Y448032D01*
X246698Y448999D01*
X244521Y454320D02*
Y447548D01*
Y452385D02*
X243070Y453836D01*
X242103Y454320D01*
X240652D01*
X239684Y453836D01*
X239201Y452385D01*
Y447548D01*
Y452385D02*
X237749Y453836D01*
X236782Y454320D01*
X235331D01*
X234363Y453836D01*
X233880Y452385D01*
Y447548D01*
X222948D02*
X226818Y457706D01*
X230687Y447548D01*
X229236Y450934D02*
X224399D01*
X220578Y454320D02*
Y447548D01*
Y452385D02*
X219127Y453836D01*
X218159Y454320D01*
X216708D01*
X215741Y453836D01*
X215257Y452385D01*
Y447548D01*
X206792Y457706D02*
Y447548D01*
Y452869D02*
X207760Y453836D01*
X208727Y454320D01*
X210178D01*
X211146Y453836D01*
X212113Y452869D01*
X212597Y451418D01*
Y450450D01*
X212113Y448999D01*
X211146Y448032D01*
X210178Y447548D01*
X208727D01*
X207760Y448032D01*
X206792Y448999D01*
X204083Y457706D02*
Y447548D01*
Y457706D02*
X199730D01*
X198279Y457222D01*
X197795Y456738D01*
X197312Y455771D01*
Y454804D01*
X197795Y453836D01*
X198279Y453353D01*
X199730Y452869D01*
X204083D01*
X200698D02*
X197312Y447548D01*
X195038Y451418D02*
X189234D01*
Y452385D01*
X189718Y453353D01*
X190201Y453836D01*
X191169Y454320D01*
X192620D01*
X193587Y453836D01*
X194555Y452869D01*
X195038Y451418D01*
Y450450D01*
X194555Y448999D01*
X193587Y448032D01*
X192620Y447548D01*
X191169D01*
X190201Y448032D01*
X189234Y448999D01*
X187057Y454320D02*
X184155Y447548D01*
X181253Y454320D02*
X184155Y447548D01*
X178641Y457706D02*
X178157Y457222D01*
X177673Y457706D01*
X178157Y458190D01*
X178641Y457706D01*
X178157Y454320D02*
Y447548D01*
X170563Y452869D02*
X171046Y453836D01*
X172498Y454320D01*
X173949D01*
X175400Y453836D01*
X175884Y452869D01*
X175400Y451901D01*
X174432Y451418D01*
X172014Y450934D01*
X171046Y450450D01*
X170563Y449483D01*
Y448999D01*
X171046Y448032D01*
X172498Y447548D01*
X173949D01*
X175400Y448032D01*
X175884Y448999D01*
X167467Y457706D02*
X166983Y457222D01*
X166500Y457706D01*
X166983Y458190D01*
X167467Y457706D01*
X166983Y454320D02*
Y447548D01*
X162291Y454320D02*
X163259Y453836D01*
X164226Y452869D01*
X164710Y451418D01*
Y450450D01*
X164226Y448999D01*
X163259Y448032D01*
X162291Y447548D01*
X160840D01*
X159873Y448032D01*
X158905Y448999D01*
X158422Y450450D01*
Y451418D01*
X158905Y452869D01*
X159873Y453836D01*
X160840Y454320D01*
X162291D01*
X156197D02*
Y447548D01*
Y452385D02*
X154746Y453836D01*
X153778Y454320D01*
X152327D01*
X151360Y453836D01*
X150876Y452385D01*
Y447548D01*
X256118Y478788D02*
X260955Y468630D01*
X262890Y478788D02*
X256118D01*
X250942D02*
X252394Y478304D01*
X253361Y476853D01*
X253845Y474435D01*
Y472983D01*
X253361Y470565D01*
X252394Y469114D01*
X250942Y468630D01*
X249975D01*
X248524Y469114D01*
X247556Y470565D01*
X247073Y472983D01*
Y474435D01*
X247556Y476853D01*
X248524Y478304D01*
X249975Y478788D01*
X250942D01*
X241897D02*
X243348Y478304D01*
X244316Y476853D01*
X244799Y474435D01*
Y472983D01*
X244316Y470565D01*
X243348Y469114D01*
X241897Y468630D01*
X240930D01*
X239479Y469114D01*
X238511Y470565D01*
X238027Y472983D01*
Y474435D01*
X238511Y476853D01*
X239479Y478304D01*
X240930Y478788D01*
X241897D01*
X235754Y472983D02*
X227047D01*
X218244Y478788D02*
X223081D01*
X223565Y474435D01*
X223081Y474918D01*
X221630Y475402D01*
X220179D01*
X218728Y474918D01*
X217760Y473951D01*
X217276Y472500D01*
Y471532D01*
X217760Y470081D01*
X218728Y469114D01*
X220179Y468630D01*
X221630D01*
X223081Y469114D01*
X223565Y469597D01*
X224048Y470565D01*
X215003Y476853D02*
X214036Y477337D01*
X212585Y478788D01*
Y468630D01*
X201266Y475402D02*
X201750Y473951D01*
X202717Y472983D01*
X204168Y472500D01*
X204652D01*
X206103Y472983D01*
X207070Y473951D01*
X207554Y475402D01*
Y475886D01*
X207070Y477337D01*
X206103Y478304D01*
X204652Y478788D01*
X204168D01*
X202717Y478304D01*
X201750Y477337D01*
X201266Y475402D01*
Y472983D01*
X201750Y470565D01*
X202717Y469114D01*
X204168Y468630D01*
X205135D01*
X206587Y469114D01*
X207070Y470081D01*
X193672Y478788D02*
X198509Y472016D01*
X191253D01*
X193672Y478788D02*
Y468630D01*
X188496Y478788D02*
X183175D01*
X186077Y474918D01*
X184626D01*
X183659Y474435D01*
X183175Y473951D01*
X182692Y472500D01*
Y471532D01*
X183175Y470081D01*
X184143Y469114D01*
X185594Y468630D01*
X187045D01*
X188496Y469114D01*
X188980Y469597D01*
X189464Y470565D01*
X172437Y478788D02*
Y468630D01*
Y478788D02*
X168084D01*
X166633Y478304D01*
X166149Y477820D01*
X165665Y476853D01*
Y475886D01*
X166149Y474918D01*
X166633Y474435D01*
X168084Y473951D01*
X172437D01*
X169051D02*
X165665Y468630D01*
X157104Y478788D02*
X163392D01*
Y468630D01*
X157104D01*
X163392Y473951D02*
X159522D01*
X155411Y478788D02*
X151541Y468630D01*
X147671Y478788D02*
X151541Y468630D01*
X138384Y478788D02*
Y468630D01*
Y478788D02*
X134031D01*
X132580Y478304D01*
X132096Y477820D01*
X131612Y476853D01*
Y475886D01*
X132096Y474918D01*
X132580Y474435D01*
X134031Y473951D01*
X138384D02*
X134031D01*
X132580Y473467D01*
X132096Y472983D01*
X131612Y472016D01*
Y470565D01*
X132096Y469597D01*
X132580Y469114D01*
X134031Y468630D01*
X138384D01*
X128855Y469597D02*
X129339Y469114D01*
X128855Y468630D01*
X128371Y469114D01*
X128855Y469597D01*
X126146Y478788D02*
Y468630D01*
Y478788D02*
X122277Y468630D01*
X118407Y478788D02*
X122277Y468630D01*
X118407Y478788D02*
Y468630D01*
X644168Y497959D02*
Y498443D01*
X643685Y499410D01*
X643201Y499894D01*
X642234Y500378D01*
X640299D01*
X639331Y499894D01*
X638848Y499410D01*
X638364Y498443D01*
Y497476D01*
X638848Y496508D01*
X639815Y495057D01*
X644652Y490220D01*
X637880D01*
X632705Y500378D02*
X634156Y499894D01*
X635123Y498443D01*
X635607Y496025D01*
Y494573D01*
X635123Y492155D01*
X634156Y490704D01*
X632705Y490220D01*
X631737D01*
X630286Y490704D01*
X629319Y492155D01*
X628835Y494573D01*
Y496025D01*
X629319Y498443D01*
X630286Y499894D01*
X631737Y500378D01*
X632705D01*
X626078Y497959D02*
Y498443D01*
X625594Y499410D01*
X625110Y499894D01*
X624143Y500378D01*
X622208D01*
X621241Y499894D01*
X620757Y499410D01*
X620273Y498443D01*
Y497476D01*
X620757Y496508D01*
X621724Y495057D01*
X626561Y490220D01*
X619790D01*
X612679Y500378D02*
X617516Y493606D01*
X610261D01*
X612679Y500378D02*
Y490220D01*
X600490Y500378D02*
Y490220D01*
Y500378D02*
X593718Y490220D01*
Y500378D02*
Y490220D01*
X590912Y500378D02*
X584140Y490220D01*
Y500378D02*
X590912Y490220D01*
X581867Y495057D02*
X577514D01*
X576063Y495541D01*
X575579Y496025D01*
X575095Y496992D01*
Y498443D01*
X575579Y499410D01*
X576063Y499894D01*
X577514Y500378D01*
X581867D01*
Y490220D01*
X558069Y498927D02*
X559036Y499894D01*
X560487Y500378D01*
X562422D01*
X563873Y499894D01*
X564841Y498927D01*
Y497959D01*
X564357Y496992D01*
X563873Y496508D01*
X562906Y496025D01*
X560004Y495057D01*
X559036Y494573D01*
X558552Y494090D01*
X558069Y493122D01*
Y491671D01*
X559036Y490704D01*
X560487Y490220D01*
X562422D01*
X563873Y490704D01*
X564841Y491671D01*
X549507Y500378D02*
X555795D01*
Y490220D01*
X549507D01*
X555795Y495541D02*
X551926D01*
X547814Y500378D02*
Y490220D01*
Y500378D02*
X543945Y490220D01*
X540075Y500378D02*
X543945Y490220D01*
X540075Y500378D02*
Y490220D01*
X537173Y500378D02*
Y490220D01*
X527789Y497959D02*
X528272Y498927D01*
X529240Y499894D01*
X530207Y500378D01*
X532142D01*
X533110Y499894D01*
X534077Y498927D01*
X534561Y497959D01*
X535044Y496508D01*
Y494090D01*
X534561Y492639D01*
X534077Y491671D01*
X533110Y490704D01*
X532142Y490220D01*
X530207D01*
X529240Y490704D01*
X528272Y491671D01*
X527789Y492639D01*
X522033Y500378D02*
X523000Y499894D01*
X523967Y498927D01*
X524451Y497959D01*
X524935Y496508D01*
Y494090D01*
X524451Y492639D01*
X523967Y491671D01*
X523000Y490704D01*
X522033Y490220D01*
X520098D01*
X519130Y490704D01*
X518163Y491671D01*
X517679Y492639D01*
X517196Y494090D01*
Y496508D01*
X517679Y497959D01*
X518163Y498927D01*
X519130Y499894D01*
X520098Y500378D01*
X522033D01*
X514825D02*
Y490220D01*
Y500378D02*
X508054Y490220D01*
Y500378D02*
Y490220D01*
X505248Y500378D02*
Y490220D01*
Y500378D02*
X501862D01*
X500411Y499894D01*
X499444Y498927D01*
X498960Y497959D01*
X498476Y496508D01*
Y494090D01*
X498960Y492639D01*
X499444Y491671D01*
X500411Y490704D01*
X501862Y490220D01*
X505248D01*
X496203Y500378D02*
Y493122D01*
X495719Y491671D01*
X494752Y490704D01*
X493301Y490220D01*
X492333D01*
X490882Y490704D01*
X489915Y491671D01*
X489431Y493122D01*
Y500378D01*
X479370Y497959D02*
X479853Y498927D01*
X480821Y499894D01*
X481788Y500378D01*
X483723D01*
X484691Y499894D01*
X485658Y498927D01*
X486142Y497959D01*
X486625Y496508D01*
Y494090D01*
X486142Y492639D01*
X485658Y491671D01*
X484691Y490704D01*
X483723Y490220D01*
X481788D01*
X480821Y490704D01*
X479853Y491671D01*
X479370Y492639D01*
X473130Y500378D02*
Y490220D01*
X476516Y500378D02*
X469744D01*
X465633D02*
X466600Y499894D01*
X467567Y498927D01*
X468051Y497959D01*
X468535Y496508D01*
Y494090D01*
X468051Y492639D01*
X467567Y491671D01*
X466600Y490704D01*
X465633Y490220D01*
X463698D01*
X462730Y490704D01*
X461763Y491671D01*
X461279Y492639D01*
X460795Y494090D01*
Y496508D01*
X461279Y497959D01*
X461763Y498927D01*
X462730Y499894D01*
X463698Y500378D01*
X465633D01*
X458425D02*
Y490220D01*
Y500378D02*
X454072D01*
X452621Y499894D01*
X452137Y499410D01*
X451653Y498443D01*
Y497476D01*
X452137Y496508D01*
X452621Y496025D01*
X454072Y495541D01*
X458425D01*
X455039D02*
X451653Y490220D01*
X442608Y498927D02*
X443576Y499894D01*
X445027Y500378D01*
X446962D01*
X448413Y499894D01*
X449380Y498927D01*
Y497959D01*
X448896Y496992D01*
X448413Y496508D01*
X447445Y496025D01*
X444543Y495057D01*
X443576Y494573D01*
X443092Y494090D01*
X442608Y493122D01*
Y491671D01*
X443576Y490704D01*
X445027Y490220D01*
X446962D01*
X448413Y490704D01*
X449380Y491671D01*
D74*
X116332Y413004D02*
X167132Y362204D01*
X116332D02*
X167132Y413004D01*
X173482Y355854D02*
Y419354D01*
X109982D02*
X173482D01*
X109982Y355854D02*
X173482D01*
X109982D02*
Y419354D01*
X207716Y356387D02*
X255976Y387375D01*
X207716Y356387D02*
X255976Y387375D01*
X239720Y419633D02*
X271724Y356387D01*
X208478D02*
X239720Y419633D01*
X208478Y356387D02*
X239720Y419633D01*
X208478Y356387D02*
X271470D01*
X208478D02*
X271470D01*
X239720Y419633D02*
X271724Y356387D01*
D85*
X508056Y413024D02*
X545290D01*
X539598Y389346D02*
X545290D01*
Y413024D01*
X504441Y382389D02*
Y390883D01*
X508056D02*
Y413024D01*
X504441Y390883D02*
X508056D01*
X505346Y374797D02*
Y382389D01*
X534893Y373352D02*
X539565D01*
X514924D02*
X530322D01*
X539598Y373629D02*
Y389346D01*
X505346Y374797D02*
X514924D01*
Y373352D02*
Y374797D01*
X504441Y181849D02*
Y261015D01*
X392199Y181849D02*
X504441D01*
X392199D02*
Y261379D01*
X504805D01*
Y373649D01*
X661340Y436047D02*
X660977Y436228D01*
X660433Y436772D01*
Y432963D01*
X705608Y435866D02*
Y436047D01*
X705427Y436410D01*
X705246Y436591D01*
X704883Y436772D01*
X704157D01*
X703794Y436591D01*
X703613Y436410D01*
X703432Y436047D01*
Y435684D01*
X703613Y435321D01*
X703976Y434777D01*
X705790Y432963D01*
X703250D01*
X657305Y237556D02*
X657487Y237011D01*
X657850Y236649D01*
X658394Y236467D01*
X658575D01*
X659119Y236649D01*
X659482Y237011D01*
X659663Y237556D01*
Y237737D01*
X659482Y238281D01*
X659119Y238644D01*
X658575Y238825D01*
X658394D01*
X657850Y238644D01*
X657487Y238281D01*
X657305Y237556D01*
Y236649D01*
X657487Y235742D01*
X657850Y235197D01*
X658394Y235016D01*
X658756D01*
X659301Y235197D01*
X659482Y235560D01*
X653913Y237556D02*
X654095Y237011D01*
X654457Y236649D01*
X655002Y236467D01*
X655183D01*
X655727Y236649D01*
X656090Y237011D01*
X656271Y237556D01*
Y237737D01*
X656090Y238281D01*
X655727Y238644D01*
X655183Y238825D01*
X655002D01*
X654457Y238644D01*
X654095Y238281D01*
X653913Y237556D01*
Y236649D01*
X654095Y235742D01*
X654457Y235197D01*
X655002Y235016D01*
X655365D01*
X655909Y235197D01*
X656090Y235560D01*
X710870Y239197D02*
X710507Y239378D01*
X709963Y239923D01*
Y236113D01*
X706988Y239923D02*
X707532Y239741D01*
X707895Y239197D01*
X708076Y238290D01*
Y237746D01*
X707895Y236839D01*
X707532Y236295D01*
X706988Y236113D01*
X706625D01*
X706081Y236295D01*
X705718Y236839D01*
X705537Y237746D01*
Y238290D01*
X705718Y239197D01*
X706081Y239741D01*
X706625Y239923D01*
X706988D01*
X703596D02*
X704140Y239741D01*
X704503Y239197D01*
X704684Y238290D01*
Y237746D01*
X704503Y236839D01*
X704140Y236295D01*
X703596Y236113D01*
X703233D01*
X702689Y236295D01*
X702326Y236839D01*
X702145Y237746D01*
Y238290D01*
X702326Y239197D01*
X702689Y239741D01*
X703233Y239923D01*
X703596D01*
X660712Y120295D02*
X660350Y120476D01*
X659806Y121020D01*
Y117211D01*
X660531Y75663D02*
Y75844D01*
X660350Y76207D01*
X660168Y76389D01*
X659806Y76570D01*
X659080D01*
X658717Y76389D01*
X658536Y76207D01*
X658354Y75844D01*
Y75482D01*
X658536Y75119D01*
X658898Y74575D01*
X660712Y72761D01*
X658173D01*
X503495Y120819D02*
X505308Y117010D01*
X506034Y120819D02*
X503495D01*
X500284Y119550D02*
X500465Y119005D01*
X500828Y118643D01*
X501372Y118461D01*
X501554D01*
X502098Y118643D01*
X502461Y119005D01*
X502642Y119550D01*
Y119731D01*
X502461Y120275D01*
X502098Y120638D01*
X501554Y120819D01*
X501372D01*
X500828Y120638D01*
X500465Y120275D01*
X500284Y119550D01*
Y118643D01*
X500465Y117736D01*
X500828Y117192D01*
X501372Y117010D01*
X501735D01*
X502279Y117192D01*
X502461Y117554D01*
X504865Y74030D02*
X505410Y73849D01*
X505591Y73486D01*
Y73123D01*
X505410Y72760D01*
X505047Y72579D01*
X504321Y72397D01*
X503777Y72216D01*
X503414Y71853D01*
X503233Y71491D01*
Y70946D01*
X503414Y70584D01*
X503596Y70402D01*
X504140Y70221D01*
X504865D01*
X505410Y70402D01*
X505591Y70584D01*
X505772Y70946D01*
Y71491D01*
X505591Y71853D01*
X505228Y72216D01*
X504684Y72397D01*
X503959Y72579D01*
X503596Y72760D01*
X503414Y73123D01*
Y73486D01*
X503596Y73849D01*
X504140Y74030D01*
X504865D01*
X501292D02*
X501836Y73849D01*
X502199Y73305D01*
X502380Y72397D01*
Y71853D01*
X502199Y70946D01*
X501836Y70402D01*
X501292Y70221D01*
X500929D01*
X500385Y70402D01*
X500022Y70946D01*
X499841Y71853D01*
Y72397D01*
X500022Y73305D01*
X500385Y73849D01*
X500929Y74030D01*
X501292D01*
X353954Y544960D02*
X353591Y545141D01*
X353047Y545685D01*
Y541876D01*
X350979Y544778D02*
Y544960D01*
X350798Y545322D01*
X350616Y545504D01*
X350254Y545685D01*
X349528D01*
X349165Y545504D01*
X348984Y545322D01*
X348803Y544960D01*
Y544597D01*
X348984Y544234D01*
X349347Y543690D01*
X351161Y541876D01*
X348621D01*
X308234Y544960D02*
X307871Y545141D01*
X307327Y545685D01*
Y541876D01*
X305441Y544960D02*
X305078Y545141D01*
X304534Y545685D01*
Y541876D01*
X351233Y566368D02*
Y566550D01*
X351051Y566912D01*
X350870Y567094D01*
X350507Y567275D01*
X349782D01*
X349419Y567094D01*
X349237Y566912D01*
X349056Y566550D01*
Y566187D01*
X349237Y565824D01*
X349600Y565280D01*
X351414Y563466D01*
X348875D01*
X307340Y567218D02*
X306977Y567399D01*
X306433Y567943D01*
Y564134D01*
X433832Y552486D02*
X433469Y552667D01*
X432925Y553211D01*
Y549402D01*
X434603Y595840D02*
Y596021D01*
X434422Y596384D01*
X434240Y596565D01*
X433877Y596747D01*
X433152D01*
X432789Y596565D01*
X432608Y596384D01*
X432426Y596021D01*
Y595658D01*
X432608Y595296D01*
X432971Y594752D01*
X434785Y592938D01*
X432245D01*
X595122Y552957D02*
X596936Y549148D01*
X597662Y552957D02*
X595122D01*
X591912Y551688D02*
X592093Y551143D01*
X592456Y550780D01*
X593000Y550599D01*
X593182D01*
X593726Y550780D01*
X594089Y551143D01*
X594270Y551688D01*
Y551869D01*
X594089Y552413D01*
X593726Y552776D01*
X593182Y552957D01*
X593000D01*
X592456Y552776D01*
X592093Y552413D01*
X591912Y551688D01*
Y550780D01*
X592093Y549874D01*
X592456Y549329D01*
X593000Y549148D01*
X593363D01*
X593907Y549329D01*
X594089Y549692D01*
X597517Y597153D02*
X598061Y596972D01*
X598243Y596609D01*
Y596246D01*
X598061Y595883D01*
X597698Y595702D01*
X596973Y595521D01*
X596429Y595339D01*
X596066Y594977D01*
X595885Y594614D01*
Y594070D01*
X596066Y593707D01*
X596247Y593525D01*
X596791Y593344D01*
X597517D01*
X598061Y593525D01*
X598243Y593707D01*
X598424Y594070D01*
Y594614D01*
X598243Y594977D01*
X597880Y595339D01*
X597336Y595521D01*
X596610Y595702D01*
X596247Y595883D01*
X596066Y596246D01*
Y596609D01*
X596247Y596972D01*
X596791Y597153D01*
X597517D01*
X593944D02*
X594488Y596972D01*
X594851Y596428D01*
X595032Y595521D01*
Y594977D01*
X594851Y594070D01*
X594488Y593525D01*
X593944Y593344D01*
X593581D01*
X593037Y593525D01*
X592674Y594070D01*
X592492Y594977D01*
Y595521D01*
X592674Y596428D01*
X593037Y596972D01*
X593581Y597153D01*
X593944D01*
X315479Y89625D02*
X316084Y89322D01*
X316688Y88718D01*
X316991Y88113D01*
Y86904D01*
X316688Y86299D01*
X316084Y85695D01*
X315479Y85392D01*
X314572Y85090D01*
X313060D01*
X312154Y85392D01*
X311549Y85695D01*
X310944Y86299D01*
X310642Y86904D01*
Y88113D01*
X310944Y88718D01*
X311549Y89322D01*
X312154Y89625D01*
X316991Y95641D02*
X310642Y92618D01*
X316991Y91408D02*
Y95641D01*
Y98876D02*
X316688Y97969D01*
X315781Y97364D01*
X314270Y97062D01*
X313363D01*
X311851Y97364D01*
X310944Y97969D01*
X310642Y98876D01*
Y99480D01*
X310944Y100387D01*
X311851Y100992D01*
X313363Y101294D01*
X314270D01*
X315781Y100992D01*
X316688Y100387D01*
X316991Y99480D01*
Y98876D01*
Y105738D02*
X312758Y102715D01*
Y107250D01*
X316991Y105738D02*
X310642D01*
X282231Y141997D02*
X282534Y142602D01*
X283138Y143206D01*
X283743Y143509D01*
X284952D01*
X285557Y143206D01*
X286161Y142602D01*
X286464Y141997D01*
X286766Y141090D01*
Y139579D01*
X286464Y138672D01*
X286161Y138067D01*
X285557Y137462D01*
X284952Y137160D01*
X283743D01*
X283138Y137462D01*
X282534Y138067D01*
X282231Y138672D01*
X276215Y143509D02*
X279238Y137160D01*
X280448Y143509D02*
X276215D01*
X272980D02*
X273887Y143206D01*
X274492Y142299D01*
X274794Y140788D01*
Y139881D01*
X274492Y138369D01*
X273887Y137462D01*
X272980Y137160D01*
X272376D01*
X271469Y137462D01*
X270864Y138369D01*
X270562Y139881D01*
Y140788D01*
X270864Y142299D01*
X271469Y143206D01*
X272376Y143509D01*
X272980D01*
X265513Y142602D02*
X265816Y143206D01*
X266723Y143509D01*
X267327D01*
X268234Y143206D01*
X268839Y142299D01*
X269141Y140788D01*
Y139276D01*
X268839Y138067D01*
X268234Y137462D01*
X267327Y137160D01*
X267025D01*
X266118Y137462D01*
X265513Y138067D01*
X265211Y138974D01*
Y139276D01*
X265513Y140183D01*
X266118Y140788D01*
X267025Y141090D01*
X267327D01*
X268234Y140788D01*
X268839Y140183D01*
X269141Y139276D01*
X341895Y89879D02*
X342500Y89576D01*
X343104Y88972D01*
X343407Y88367D01*
Y87158D01*
X343104Y86553D01*
X342500Y85949D01*
X341895Y85646D01*
X340988Y85344D01*
X339477D01*
X338570Y85646D01*
X337965Y85949D01*
X337360Y86553D01*
X337058Y87158D01*
Y88367D01*
X337360Y88972D01*
X337965Y89576D01*
X338570Y89879D01*
X343407Y95895D02*
X337058Y92872D01*
X343407Y91662D02*
Y95895D01*
X341895Y97618D02*
X342197D01*
X342802Y97920D01*
X343104Y98223D01*
X343407Y98827D01*
Y100037D01*
X343104Y100641D01*
X342802Y100943D01*
X342197Y101246D01*
X341593D01*
X340988Y100943D01*
X340081Y100339D01*
X337058Y97316D01*
Y101548D01*
X343407Y105992D02*
X339174Y102969D01*
Y107504D01*
X343407Y105992D02*
X337058D01*
X386334Y173735D02*
Y167386D01*
Y173735D02*
X383613D01*
X382706Y173432D01*
X382404Y173130D01*
X382102Y172525D01*
Y171921D01*
X382404Y171316D01*
X382706Y171014D01*
X383613Y170711D01*
X386334D01*
X384218D02*
X382102Y167386D01*
X376448Y173735D02*
X379471Y167386D01*
X380681Y173735D02*
X376448D01*
X375027Y172525D02*
X374423Y172828D01*
X373516Y173735D01*
Y167386D01*
X370372Y172525D02*
X369767Y172828D01*
X368860Y173735D01*
Y167386D01*
X382016Y223519D02*
Y217170D01*
Y223519D02*
X379295D01*
X378388Y223216D01*
X378086Y222914D01*
X377784Y222309D01*
Y221705D01*
X378086Y221100D01*
X378388Y220798D01*
X379295Y220495D01*
X382016D01*
X379900D02*
X377784Y217170D01*
X372130Y223519D02*
X375153Y217170D01*
X376363Y223519D02*
X372130D01*
X368895D02*
X369802Y223216D01*
X370407Y222309D01*
X370709Y220798D01*
Y219891D01*
X370407Y218379D01*
X369802Y217472D01*
X368895Y217170D01*
X368291D01*
X367384Y217472D01*
X366779Y218379D01*
X366477Y219891D01*
Y220798D01*
X366779Y222309D01*
X367384Y223216D01*
X368291Y223519D01*
X368895D01*
X363545D02*
X364451Y223216D01*
X364754Y222612D01*
Y222007D01*
X364451Y221402D01*
X363847Y221100D01*
X362638Y220798D01*
X361731Y220495D01*
X361126Y219891D01*
X360824Y219286D01*
Y218379D01*
X361126Y217775D01*
X361428Y217472D01*
X362335Y217170D01*
X363545D01*
X364451Y217472D01*
X364754Y217775D01*
X365056Y218379D01*
Y219286D01*
X364754Y219891D01*
X364149Y220495D01*
X363242Y220798D01*
X362033Y221100D01*
X361428Y221402D01*
X361126Y222007D01*
Y222612D01*
X361428Y223216D01*
X362335Y223519D01*
X363545D01*
X382270Y214629D02*
Y208280D01*
Y214629D02*
X379549D01*
X378642Y214326D01*
X378340Y214024D01*
X378038Y213419D01*
Y212815D01*
X378340Y212210D01*
X378642Y211908D01*
X379549Y211605D01*
X382270D01*
X380154D02*
X378038Y208280D01*
X372384Y214629D02*
X375407Y208280D01*
X376617Y214629D02*
X372384D01*
X369150D02*
X370056Y214326D01*
X370661Y213419D01*
X370963Y211908D01*
Y211001D01*
X370661Y209489D01*
X370056Y208582D01*
X369150Y208280D01*
X368545D01*
X367638Y208582D01*
X367033Y209489D01*
X366731Y211001D01*
Y211908D01*
X367033Y213419D01*
X367638Y214326D01*
X368545Y214629D01*
X369150D01*
X361078D02*
X364101Y208280D01*
X365310Y214629D02*
X361078D01*
X419899Y230389D02*
X420202Y230994D01*
X420806Y231598D01*
X421411Y231901D01*
X422620D01*
X423225Y231598D01*
X423829Y230994D01*
X424132Y230389D01*
X424434Y229482D01*
Y227971D01*
X424132Y227064D01*
X423829Y226459D01*
X423225Y225854D01*
X422620Y225552D01*
X421411D01*
X420806Y225854D01*
X420202Y226459D01*
X419899Y227064D01*
X418116Y230691D02*
X417511Y230994D01*
X416604Y231901D01*
Y225552D01*
X413158Y230389D02*
Y230691D01*
X412855Y231296D01*
X412553Y231598D01*
X411948Y231901D01*
X410739D01*
X410135Y231598D01*
X409832Y231296D01*
X409530Y230691D01*
Y230087D01*
X409832Y229482D01*
X410437Y228575D01*
X413460Y225552D01*
X409227D01*
X404784Y231901D02*
X407807Y227668D01*
X403272D01*
X404784Y231901D02*
Y225552D01*
X485265Y378461D02*
X485568Y379066D01*
X486172Y379670D01*
X486777Y379973D01*
X487986D01*
X488591Y379670D01*
X489196Y379066D01*
X489498Y378461D01*
X489800Y377554D01*
Y376043D01*
X489498Y375136D01*
X489196Y374531D01*
X488591Y373926D01*
X487986Y373624D01*
X486777D01*
X486172Y373926D01*
X485568Y374531D01*
X485265Y375136D01*
X483482Y378763D02*
X482877Y379066D01*
X481970Y379973D01*
Y373624D01*
X478221Y379973D02*
X474896D01*
X476710Y377554D01*
X475803D01*
X475198Y377252D01*
X474896Y376950D01*
X474594Y376043D01*
Y375438D01*
X474896Y374531D01*
X475500Y373926D01*
X476408Y373624D01*
X477314D01*
X478221Y373926D01*
X478524Y374229D01*
X478826Y374833D01*
X469545Y379066D02*
X469847Y379670D01*
X470754Y379973D01*
X471359D01*
X472266Y379670D01*
X472870Y378763D01*
X473173Y377252D01*
Y375740D01*
X472870Y374531D01*
X472266Y373926D01*
X471359Y373624D01*
X471057D01*
X470150Y373926D01*
X469545Y374531D01*
X469243Y375438D01*
Y375740D01*
X469545Y376647D01*
X470150Y377252D01*
X471057Y377554D01*
X471359D01*
X472266Y377252D01*
X472870Y376647D01*
X473173Y375740D01*
X321855Y420889D02*
X322158Y421494D01*
X322762Y422098D01*
X323367Y422401D01*
X324576D01*
X325181Y422098D01*
X325785Y421494D01*
X326088Y420889D01*
X326390Y419982D01*
Y418470D01*
X326088Y417564D01*
X325785Y416959D01*
X325181Y416354D01*
X324576Y416052D01*
X323367D01*
X322762Y416354D01*
X322158Y416959D01*
X321855Y417564D01*
X319769Y420889D02*
Y421191D01*
X319467Y421796D01*
X319165Y422098D01*
X318560Y422401D01*
X317351D01*
X316746Y422098D01*
X316444Y421796D01*
X316141Y421191D01*
Y420587D01*
X316444Y419982D01*
X317048Y419075D01*
X320072Y416052D01*
X315839D01*
X312604Y422401D02*
X313511Y422098D01*
X314116Y421191D01*
X314418Y419680D01*
Y418773D01*
X314116Y417261D01*
X313511Y416354D01*
X312604Y416052D01*
X312000D01*
X311093Y416354D01*
X310488Y417261D01*
X310186Y418773D01*
Y419680D01*
X310488Y421191D01*
X311093Y422098D01*
X312000Y422401D01*
X312604D01*
X308765Y421191D02*
X308160Y421494D01*
X307253Y422401D01*
Y416052D01*
X388149Y333005D02*
X388452Y333610D01*
X389056Y334214D01*
X389661Y334517D01*
X390870D01*
X391475Y334214D01*
X392079Y333610D01*
X392382Y333005D01*
X392684Y332098D01*
Y330587D01*
X392382Y329680D01*
X392079Y329075D01*
X391475Y328470D01*
X390870Y328168D01*
X389661D01*
X389056Y328470D01*
X388452Y329075D01*
X388149Y329680D01*
X386063Y333005D02*
Y333307D01*
X385761Y333912D01*
X385459Y334214D01*
X384854Y334517D01*
X383645D01*
X383040Y334214D01*
X382738Y333912D01*
X382435Y333307D01*
Y332703D01*
X382738Y332098D01*
X383342Y331191D01*
X386366Y328168D01*
X382133D01*
X378898Y334517D02*
X379805Y334214D01*
X380410Y333307D01*
X380712Y331796D01*
Y330889D01*
X380410Y329377D01*
X379805Y328470D01*
X378898Y328168D01*
X378294D01*
X377387Y328470D01*
X376782Y329377D01*
X376480Y330889D01*
Y331796D01*
X376782Y333307D01*
X377387Y334214D01*
X378294Y334517D01*
X378898D01*
X374757Y333005D02*
Y333307D01*
X374454Y333912D01*
X374152Y334214D01*
X373547Y334517D01*
X372338D01*
X371734Y334214D01*
X371431Y333912D01*
X371129Y333307D01*
Y332703D01*
X371431Y332098D01*
X372036Y331191D01*
X375059Y328168D01*
X370827D01*
X367575Y312431D02*
X367878Y313036D01*
X368482Y313640D01*
X369087Y313943D01*
X370296D01*
X370901Y313640D01*
X371505Y313036D01*
X371808Y312431D01*
X372110Y311524D01*
Y310012D01*
X371808Y309106D01*
X371505Y308501D01*
X370901Y307896D01*
X370296Y307594D01*
X369087D01*
X368482Y307896D01*
X367878Y308501D01*
X367575Y309106D01*
X365489Y312431D02*
Y312733D01*
X365187Y313338D01*
X364885Y313640D01*
X364280Y313943D01*
X363071D01*
X362466Y313640D01*
X362164Y313338D01*
X361861Y312733D01*
Y312129D01*
X362164Y311524D01*
X362768Y310617D01*
X365792Y307594D01*
X361559D01*
X358324Y313943D02*
X359231Y313640D01*
X359836Y312733D01*
X360138Y311222D01*
Y310315D01*
X359836Y308803D01*
X359231Y307896D01*
X358324Y307594D01*
X357720D01*
X356813Y307896D01*
X356208Y308803D01*
X355906Y310315D01*
Y311222D01*
X356208Y312733D01*
X356813Y313640D01*
X357720Y313943D01*
X358324D01*
X350857Y313036D02*
X351160Y313640D01*
X352066Y313943D01*
X352671D01*
X353578Y313640D01*
X354183Y312733D01*
X354485Y311222D01*
Y309710D01*
X354183Y308501D01*
X353578Y307896D01*
X352671Y307594D01*
X352369D01*
X351462Y307896D01*
X350857Y308501D01*
X350555Y309408D01*
Y309710D01*
X350857Y310617D01*
X351462Y311222D01*
X352369Y311524D01*
X352671D01*
X353578Y311222D01*
X354183Y310617D01*
X354485Y309710D01*
X302551Y440955D02*
X302854Y441560D01*
X303458Y442164D01*
X304063Y442467D01*
X305272D01*
X305877Y442164D01*
X306481Y441560D01*
X306784Y440955D01*
X307086Y440048D01*
Y438536D01*
X306784Y437630D01*
X306481Y437025D01*
X305877Y436420D01*
X305272Y436118D01*
X304063D01*
X303458Y436420D01*
X302854Y437025D01*
X302551Y437630D01*
X300465Y440955D02*
Y441257D01*
X300163Y441862D01*
X299861Y442164D01*
X299256Y442467D01*
X298047D01*
X297442Y442164D01*
X297140Y441862D01*
X296838Y441257D01*
Y440653D01*
X297140Y440048D01*
X297744Y439141D01*
X300768Y436118D01*
X296535D01*
X295114Y441257D02*
X294510Y441560D01*
X293603Y442467D01*
Y436118D01*
X286831Y442467D02*
X289854D01*
X290156Y439746D01*
X289854Y440048D01*
X288947Y440350D01*
X288040D01*
X287133Y440048D01*
X286528Y439444D01*
X286226Y438536D01*
Y437932D01*
X286528Y437025D01*
X287133Y436420D01*
X288040Y436118D01*
X288947D01*
X289854Y436420D01*
X290156Y436723D01*
X290459Y437327D01*
X613193Y190257D02*
X613496Y190862D01*
X614100Y191466D01*
X614705Y191769D01*
X615914D01*
X616519Y191466D01*
X617123Y190862D01*
X617426Y190257D01*
X617728Y189350D01*
Y187838D01*
X617426Y186932D01*
X617123Y186327D01*
X616519Y185722D01*
X615914Y185420D01*
X614705D01*
X614100Y185722D01*
X613496Y186327D01*
X613193Y186932D01*
X607782Y191769D02*
X610805D01*
X611107Y189048D01*
X610805Y189350D01*
X609898Y189652D01*
X608991D01*
X608084Y189350D01*
X607480Y188745D01*
X607177Y187838D01*
Y187234D01*
X607480Y186327D01*
X608084Y185722D01*
X608991Y185420D01*
X609898D01*
X610805Y185722D01*
X611107Y186025D01*
X611410Y186629D01*
X603942Y191769D02*
X604849Y191466D01*
X605454Y190559D01*
X605756Y189048D01*
Y188141D01*
X605454Y186629D01*
X604849Y185722D01*
X603942Y185420D01*
X603338D01*
X602431Y185722D01*
X601826Y186629D01*
X601524Y188141D01*
Y189048D01*
X601826Y190559D01*
X602431Y191466D01*
X603338Y191769D01*
X603942D01*
X597080D02*
X600103Y187536D01*
X595568D01*
X597080Y191769D02*
Y185420D01*
X352806Y409447D02*
Y403098D01*
Y409447D02*
X350085D01*
X349178Y409144D01*
X348876Y408842D01*
X348574Y408237D01*
Y407633D01*
X348876Y407028D01*
X349178Y406726D01*
X350085Y406423D01*
X352806D01*
X350690D02*
X348574Y403098D01*
X346850Y407935D02*
Y408237D01*
X346548Y408842D01*
X346246Y409144D01*
X345641Y409447D01*
X344432D01*
X343827Y409144D01*
X343525Y408842D01*
X343223Y408237D01*
Y407633D01*
X343525Y407028D01*
X344129Y406121D01*
X347153Y403098D01*
X342920D01*
X339686Y409447D02*
X340592Y409144D01*
X341197Y408237D01*
X341499Y406726D01*
Y405819D01*
X341197Y404307D01*
X340592Y403400D01*
X339686Y403098D01*
X339081D01*
X338174Y403400D01*
X337569Y404307D01*
X337267Y405819D01*
Y406726D01*
X337569Y408237D01*
X338174Y409144D01*
X339081Y409447D01*
X339686D01*
X331614D02*
X334637Y403098D01*
X335846Y409447D02*
X331614D01*
X348487Y354330D02*
X342138D01*
X348487D02*
Y357051D01*
X348184Y357958D01*
X347882Y358260D01*
X347277Y358562D01*
X346673D01*
X346068Y358260D01*
X345766Y357958D01*
X345463Y357051D01*
Y354330D01*
Y356446D02*
X342138Y358562D01*
X346975Y360286D02*
X347277D01*
X347882Y360588D01*
X348184Y360890D01*
X348487Y361495D01*
Y362704D01*
X348184Y363309D01*
X347882Y363611D01*
X347277Y363913D01*
X346673D01*
X346068Y363611D01*
X345161Y363007D01*
X342138Y359983D01*
Y364216D01*
X348487Y367450D02*
X348184Y366544D01*
X347277Y365939D01*
X345766Y365637D01*
X344859D01*
X343347Y365939D01*
X342440Y366544D01*
X342138Y367450D01*
Y368055D01*
X342440Y368962D01*
X343347Y369567D01*
X344859Y369869D01*
X345766D01*
X347277Y369567D01*
X348184Y368962D01*
X348487Y368055D01*
Y367450D01*
Y374918D02*
Y371894D01*
X345766Y371592D01*
X346068Y371894D01*
X346370Y372802D01*
Y373708D01*
X346068Y374615D01*
X345463Y375220D01*
X344557Y375522D01*
X343952D01*
X343045Y375220D01*
X342440Y374615D01*
X342138Y373708D01*
Y372802D01*
X342440Y371894D01*
X342743Y371592D01*
X343347Y371290D01*
X353139Y386392D02*
Y380043D01*
Y386392D02*
X350418D01*
X349511Y386089D01*
X349209Y385787D01*
X348907Y385182D01*
Y384578D01*
X349209Y383973D01*
X349511Y383671D01*
X350418Y383368D01*
X353139D01*
X351023D02*
X348907Y380043D01*
X347183Y384880D02*
Y385182D01*
X346881Y385787D01*
X346579Y386089D01*
X345974Y386392D01*
X344765D01*
X344160Y386089D01*
X343858Y385787D01*
X343556Y385182D01*
Y384578D01*
X343858Y383973D01*
X344463Y383066D01*
X347486Y380043D01*
X343253D01*
X340019Y386392D02*
X340926Y386089D01*
X341530Y385182D01*
X341833Y383671D01*
Y382764D01*
X341530Y381252D01*
X340926Y380345D01*
X340019Y380043D01*
X339414D01*
X338507Y380345D01*
X337902Y381252D01*
X337600Y382764D01*
Y383671D01*
X337902Y385182D01*
X338507Y386089D01*
X339414Y386392D01*
X340019D01*
X334668D02*
X335575Y386089D01*
X335877Y385485D01*
Y384880D01*
X335575Y384275D01*
X334970Y383973D01*
X333761Y383671D01*
X332854Y383368D01*
X332249Y382764D01*
X331947Y382159D01*
Y381252D01*
X332249Y380648D01*
X332551Y380345D01*
X333458Y380043D01*
X334668D01*
X335575Y380345D01*
X335877Y380648D01*
X336179Y381252D01*
Y382159D01*
X335877Y382764D01*
X335272Y383368D01*
X334365Y383671D01*
X333156Y383973D01*
X332551Y384275D01*
X332249Y384880D01*
Y385485D01*
X332551Y386089D01*
X333458Y386392D01*
X334668D01*
X341159Y441971D02*
X341462Y442576D01*
X342066Y443180D01*
X342671Y443483D01*
X343880D01*
X344485Y443180D01*
X345089Y442576D01*
X345392Y441971D01*
X345694Y441064D01*
Y439552D01*
X345392Y438646D01*
X345089Y438041D01*
X344485Y437436D01*
X343880Y437134D01*
X342671D01*
X342066Y437436D01*
X341462Y438041D01*
X341159Y438646D01*
X339073Y441971D02*
Y442273D01*
X338771Y442878D01*
X338469Y443180D01*
X337864Y443483D01*
X336655D01*
X336050Y443180D01*
X335748Y442878D01*
X335446Y442273D01*
Y441669D01*
X335748Y441064D01*
X336352Y440157D01*
X339376Y437134D01*
X335143D01*
X331908Y443483D02*
X332815Y443180D01*
X333420Y442273D01*
X333722Y440762D01*
Y439855D01*
X333420Y438343D01*
X332815Y437436D01*
X331908Y437134D01*
X331304D01*
X330397Y437436D01*
X329792Y438343D01*
X329490Y439855D01*
Y440762D01*
X329792Y442273D01*
X330397Y443180D01*
X331304Y443483D01*
X331908D01*
X323837D02*
X326860Y437134D01*
X328069Y443483D02*
X323837D01*
X485738Y398519D02*
X486041Y399123D01*
X486645Y399728D01*
X487250Y400030D01*
X488459D01*
X489064Y399728D01*
X489669Y399123D01*
X489971Y398519D01*
X490273Y397612D01*
Y396100D01*
X489971Y395193D01*
X489669Y394589D01*
X489064Y393984D01*
X488459Y393682D01*
X487250D01*
X486645Y393984D01*
X486041Y394589D01*
X485738Y395193D01*
X483955Y398821D02*
X483350Y399123D01*
X482443Y400030D01*
Y393682D01*
X475671Y400030D02*
X478694D01*
X478997Y397309D01*
X478694Y397612D01*
X477788Y397914D01*
X476880D01*
X475974Y397612D01*
X475369Y397007D01*
X475067Y396100D01*
Y395496D01*
X475369Y394589D01*
X475974Y393984D01*
X476880Y393682D01*
X477788D01*
X478694Y393984D01*
X478997Y394286D01*
X479299Y394891D01*
X473646Y398821D02*
X473041Y399123D01*
X472134Y400030D01*
Y393682D01*
X439965Y193305D02*
X440268Y193910D01*
X440872Y194514D01*
X441477Y194817D01*
X442686D01*
X443291Y194514D01*
X443895Y193910D01*
X444198Y193305D01*
X444500Y192398D01*
Y190886D01*
X444198Y189980D01*
X443895Y189375D01*
X443291Y188770D01*
X442686Y188468D01*
X441477D01*
X440872Y188770D01*
X440268Y189375D01*
X439965Y189980D01*
X438182Y193607D02*
X437577Y193910D01*
X436670Y194817D01*
Y188468D01*
X431712Y194817D02*
X432619Y194514D01*
X433224Y193607D01*
X433526Y192096D01*
Y191189D01*
X433224Y189677D01*
X432619Y188770D01*
X431712Y188468D01*
X431107D01*
X430201Y188770D01*
X429596Y189677D01*
X429294Y191189D01*
Y192096D01*
X429596Y193607D01*
X430201Y194514D01*
X431107Y194817D01*
X431712D01*
X426361D02*
X427268Y194514D01*
X427570Y193910D01*
Y193305D01*
X427268Y192700D01*
X426663Y192398D01*
X425454Y192096D01*
X424547Y191793D01*
X423942Y191189D01*
X423640Y190584D01*
Y189677D01*
X423942Y189073D01*
X424245Y188770D01*
X425152Y188468D01*
X426361D01*
X427268Y188770D01*
X427570Y189073D01*
X427873Y189677D01*
Y190584D01*
X427570Y191189D01*
X426966Y191793D01*
X426059Y192096D01*
X424850Y192398D01*
X424245Y192700D01*
X423942Y193305D01*
Y193910D01*
X424245Y194514D01*
X425152Y194817D01*
X426361D01*
X598181Y527521D02*
X598786Y527218D01*
X599390Y526614D01*
X599693Y526009D01*
Y524800D01*
X599390Y524195D01*
X598786Y523591D01*
X598181Y523288D01*
X597274Y522986D01*
X595762D01*
X594856Y523288D01*
X594251Y523591D01*
X593646Y524195D01*
X593344Y524800D01*
Y526009D01*
X593646Y526614D01*
X594251Y527218D01*
X594856Y527521D01*
X599693Y532328D02*
X595460Y529304D01*
Y533839D01*
X599693Y532328D02*
X593344D01*
X599693Y536772D02*
X599390Y535865D01*
X598483Y535260D01*
X596972Y534958D01*
X596065D01*
X594553Y535260D01*
X593646Y535865D01*
X593344Y536772D01*
Y537376D01*
X593646Y538283D01*
X594553Y538888D01*
X596065Y539190D01*
X596972D01*
X598483Y538888D01*
X599390Y538283D01*
X599693Y537376D01*
Y536772D01*
Y544239D02*
Y541216D01*
X596972Y540913D01*
X597274Y541216D01*
X597576Y542123D01*
Y543030D01*
X597274Y543937D01*
X596670Y544541D01*
X595762Y544843D01*
X595158D01*
X594251Y544541D01*
X593646Y543937D01*
X593344Y543030D01*
Y542123D01*
X593646Y541216D01*
X593949Y540913D01*
X594553Y540611D01*
X386588Y443483D02*
Y437134D01*
Y443483D02*
X383867D01*
X382960Y443180D01*
X382658Y442878D01*
X382356Y442273D01*
Y441669D01*
X382658Y441064D01*
X382960Y440762D01*
X383867Y440460D01*
X386588D01*
X384472D02*
X382356Y437134D01*
X380632Y441971D02*
Y442273D01*
X380330Y442878D01*
X380028Y443180D01*
X379423Y443483D01*
X378214D01*
X377609Y443180D01*
X377307Y442878D01*
X377005Y442273D01*
Y441669D01*
X377307Y441064D01*
X377911Y440157D01*
X380935Y437134D01*
X376702D01*
X375281Y442273D02*
X374677Y442576D01*
X373770Y443483D01*
Y437134D01*
X368812Y443483D02*
X369719Y443180D01*
X370323Y442273D01*
X370626Y440762D01*
Y439855D01*
X370323Y438343D01*
X369719Y437436D01*
X368812Y437134D01*
X368207D01*
X367300Y437436D01*
X366696Y438343D01*
X366393Y439855D01*
Y440762D01*
X366696Y442273D01*
X367300Y443180D01*
X368207Y443483D01*
X368812D01*
X495046Y447547D02*
Y441198D01*
Y447547D02*
X492325D01*
X491418Y447244D01*
X491116Y446942D01*
X490814Y446337D01*
Y445733D01*
X491116Y445128D01*
X491418Y444826D01*
X492325Y444524D01*
X495046D01*
X492930D02*
X490814Y441198D01*
X489090Y446035D02*
Y446337D01*
X488788Y446942D01*
X488486Y447244D01*
X487881Y447547D01*
X486672D01*
X486067Y447244D01*
X485765Y446942D01*
X485463Y446337D01*
Y445733D01*
X485765Y445128D01*
X486370Y444221D01*
X489393Y441198D01*
X485160D01*
X481926Y447547D02*
X482832Y447244D01*
X483437Y446337D01*
X483739Y444826D01*
Y443919D01*
X483437Y442407D01*
X482832Y441500D01*
X481926Y441198D01*
X481321D01*
X480414Y441500D01*
X479809Y442407D01*
X479507Y443919D01*
Y444826D01*
X479809Y446337D01*
X480414Y447244D01*
X481321Y447547D01*
X481926D01*
X475063D02*
X478086Y443314D01*
X473551D01*
X475063Y447547D02*
Y441198D01*
X608837Y524256D02*
X602488D01*
X608837D02*
Y526977D01*
X608534Y527884D01*
X608232Y528186D01*
X607627Y528488D01*
X607023D01*
X606418Y528186D01*
X606116Y527884D01*
X605813Y526977D01*
Y524256D01*
Y526372D02*
X602488Y528488D01*
X608837Y532933D02*
X604604Y529909D01*
Y534444D01*
X608837Y532933D02*
X602488D01*
X608837Y537377D02*
X608534Y536470D01*
X607627Y535865D01*
X606116Y535563D01*
X605209D01*
X603697Y535865D01*
X602790Y536470D01*
X602488Y537377D01*
Y537981D01*
X602790Y538888D01*
X603697Y539493D01*
X605209Y539795D01*
X606116D01*
X607627Y539493D01*
X608534Y538888D01*
X608837Y537981D01*
Y537377D01*
Y544239D02*
X604604Y541216D01*
Y545751D01*
X608837Y544239D02*
X602488D01*
X342240Y330392D02*
Y325313D01*
Y330392D02*
X340064D01*
X339338Y330150D01*
X339096Y329908D01*
X338854Y329424D01*
Y328940D01*
X339096Y328457D01*
X339338Y328215D01*
X340064Y327973D01*
X342240D01*
X340547D02*
X338854Y325313D01*
X337476Y329182D02*
Y329424D01*
X337234Y329908D01*
X336992Y330150D01*
X336508Y330392D01*
X335541D01*
X335057Y330150D01*
X334815Y329908D01*
X334574Y329424D01*
Y328940D01*
X334815Y328457D01*
X335299Y327731D01*
X337718Y325313D01*
X334332D01*
X331744Y330392D02*
X332469Y330150D01*
X332953Y329424D01*
X333195Y328215D01*
Y327489D01*
X332953Y326280D01*
X332469Y325555D01*
X331744Y325313D01*
X331260D01*
X330535Y325555D01*
X330051Y326280D01*
X329809Y327489D01*
Y328215D01*
X330051Y329424D01*
X330535Y330150D01*
X331260Y330392D01*
X331744D01*
X328672Y329424D02*
X328189Y329666D01*
X327463Y330392D01*
Y325313D01*
X629665Y525018D02*
X623316D01*
X629665D02*
Y527739D01*
X629362Y528646D01*
X629060Y528948D01*
X628455Y529250D01*
X627851D01*
X627246Y528948D01*
X626944Y528646D01*
X626642Y527739D01*
Y525018D01*
Y527134D02*
X623316Y529250D01*
X629665Y533694D02*
X625432Y530671D01*
Y535206D01*
X629665Y533694D02*
X623316D01*
X629665Y538139D02*
X629362Y537232D01*
X628455Y536627D01*
X626944Y536325D01*
X626037D01*
X624525Y536627D01*
X623618Y537232D01*
X623316Y538139D01*
Y538743D01*
X623618Y539650D01*
X624525Y540255D01*
X626037Y540557D01*
X626944D01*
X628455Y540255D01*
X629362Y539650D01*
X629665Y538743D01*
Y538139D01*
Y545606D02*
Y542583D01*
X626944Y542280D01*
X627246Y542583D01*
X627548Y543489D01*
Y544396D01*
X627246Y545303D01*
X626642Y545908D01*
X625734Y546210D01*
X625130D01*
X624223Y545908D01*
X623618Y545303D01*
X623316Y544396D01*
Y543489D01*
X623618Y542583D01*
X623921Y542280D01*
X624525Y541978D01*
X618489Y525018D02*
X612140D01*
X618489D02*
Y527739D01*
X618186Y528646D01*
X617884Y528948D01*
X617279Y529250D01*
X616675D01*
X616070Y528948D01*
X615768Y528646D01*
X615466Y527739D01*
Y525018D01*
Y527134D02*
X612140Y529250D01*
X618489Y533694D02*
X614256Y530671D01*
Y535206D01*
X618489Y533694D02*
X612140D01*
X618489Y538139D02*
X618186Y537232D01*
X617279Y536627D01*
X615768Y536325D01*
X614861D01*
X613349Y536627D01*
X612442Y537232D01*
X612140Y538139D01*
Y538743D01*
X612442Y539650D01*
X613349Y540255D01*
X614861Y540557D01*
X615768D01*
X617279Y540255D01*
X618186Y539650D01*
X618489Y538743D01*
Y538139D01*
X617279Y541978D02*
X617582Y542583D01*
X618489Y543489D01*
X612140D01*
X78231Y362712D02*
X71882D01*
X78231D02*
Y365433D01*
X77928Y366340D01*
X77626Y366642D01*
X77021Y366944D01*
X76417D01*
X75812Y366642D01*
X75510Y366340D01*
X75208Y365433D01*
Y362712D01*
Y364828D02*
X71882Y366944D01*
X77021Y368365D02*
X77324Y368970D01*
X78231Y369877D01*
X71882D01*
X78231Y374835D02*
X77928Y373928D01*
X77021Y373323D01*
X75510Y373021D01*
X74603D01*
X73091Y373323D01*
X72184Y373928D01*
X71882Y374835D01*
Y375439D01*
X72184Y376346D01*
X73091Y376951D01*
X74603Y377253D01*
X75510D01*
X77021Y376951D01*
X77928Y376346D01*
X78231Y375439D01*
Y374835D01*
Y381697D02*
X73998Y378674D01*
Y383209D01*
X78231Y381697D02*
X71882D01*
X76719Y384630D02*
X77021D01*
X77626Y384932D01*
X77928Y385234D01*
X78231Y385839D01*
Y387048D01*
X77928Y387653D01*
X77626Y387955D01*
X77021Y388258D01*
X76417D01*
X75812Y387955D01*
X74905Y387351D01*
X71882Y384328D01*
Y388560D01*
X67055Y362712D02*
X60706D01*
X67055D02*
Y365433D01*
X66752Y366340D01*
X66450Y366642D01*
X65845Y366944D01*
X65241D01*
X64636Y366642D01*
X64334Y366340D01*
X64032Y365433D01*
Y362712D01*
Y364828D02*
X60706Y366944D01*
X65845Y368365D02*
X66148Y368970D01*
X67055Y369877D01*
X60706D01*
X67055Y374835D02*
X66752Y373928D01*
X65845Y373323D01*
X64334Y373021D01*
X63427D01*
X61915Y373323D01*
X61008Y373928D01*
X60706Y374835D01*
Y375439D01*
X61008Y376346D01*
X61915Y376951D01*
X63427Y377253D01*
X64334D01*
X65845Y376951D01*
X66752Y376346D01*
X67055Y375439D01*
Y374835D01*
Y381697D02*
X62822Y378674D01*
Y383209D01*
X67055Y381697D02*
X60706D01*
X67055Y384932D02*
Y388258D01*
X64636Y386444D01*
Y387351D01*
X64334Y387955D01*
X64032Y388258D01*
X63124Y388560D01*
X62520D01*
X61613Y388258D01*
X61008Y387653D01*
X60706Y386746D01*
Y385839D01*
X61008Y384932D01*
X61311Y384630D01*
X61915Y384328D01*
X99313Y365252D02*
X92964D01*
X99313D02*
Y367973D01*
X99010Y368880D01*
X98708Y369182D01*
X98103Y369484D01*
X97499D01*
X96894Y369182D01*
X96592Y368880D01*
X96290Y367973D01*
Y365252D01*
Y367368D02*
X92964Y369484D01*
X98103Y370905D02*
X98406Y371510D01*
X99313Y372417D01*
X92964D01*
X99313Y377375D02*
X99010Y376468D01*
X98103Y375863D01*
X96592Y375561D01*
X95685D01*
X94173Y375863D01*
X93266Y376468D01*
X92964Y377375D01*
Y377980D01*
X93266Y378886D01*
X94173Y379491D01*
X95685Y379793D01*
X96592D01*
X98103Y379491D01*
X99010Y378886D01*
X99313Y377980D01*
Y377375D01*
Y384237D02*
X95080Y381214D01*
Y385749D01*
X99313Y384237D02*
X92964D01*
X99313Y389891D02*
X95080Y386868D01*
Y391402D01*
X99313Y389891D02*
X92964D01*
X88391Y365252D02*
X82042D01*
X88391D02*
Y367973D01*
X88088Y368880D01*
X87786Y369182D01*
X87181Y369484D01*
X86577D01*
X85972Y369182D01*
X85670Y368880D01*
X85367Y367973D01*
Y365252D01*
Y367368D02*
X82042Y369484D01*
X87181Y370905D02*
X87484Y371510D01*
X88391Y372417D01*
X82042D01*
X88391Y377375D02*
X88088Y376468D01*
X87181Y375863D01*
X85670Y375561D01*
X84763D01*
X83251Y375863D01*
X82344Y376468D01*
X82042Y377375D01*
Y377980D01*
X82344Y378886D01*
X83251Y379491D01*
X84763Y379793D01*
X85670D01*
X87181Y379491D01*
X88088Y378886D01*
X88391Y377980D01*
Y377375D01*
Y384237D02*
X84158Y381214D01*
Y385749D01*
X88391Y384237D02*
X82042D01*
X88391Y390495D02*
Y387472D01*
X85670Y387170D01*
X85972Y387472D01*
X86274Y388379D01*
Y389286D01*
X85972Y390193D01*
X85367Y390798D01*
X84460Y391100D01*
X83856D01*
X82949Y390798D01*
X82344Y390193D01*
X82042Y389286D01*
Y388379D01*
X82344Y387472D01*
X82647Y387170D01*
X83251Y386868D01*
X333005Y89879D02*
X333610Y89576D01*
X334214Y88972D01*
X334517Y88367D01*
Y87158D01*
X334214Y86553D01*
X333610Y85949D01*
X333005Y85646D01*
X332098Y85344D01*
X330587D01*
X329680Y85646D01*
X329075Y85949D01*
X328470Y86553D01*
X328168Y87158D01*
Y88367D01*
X328470Y88972D01*
X329075Y89576D01*
X329680Y89879D01*
X334517Y95895D02*
X328168Y92872D01*
X334517Y91662D02*
Y95895D01*
Y99130D02*
X334214Y98223D01*
X333307Y97618D01*
X331796Y97316D01*
X330889D01*
X329377Y97618D01*
X328470Y98223D01*
X328168Y99130D01*
Y99734D01*
X328470Y100641D01*
X329377Y101246D01*
X330889Y101548D01*
X331796D01*
X333307Y101246D01*
X334214Y100641D01*
X334517Y99734D01*
Y99130D01*
X333307Y102969D02*
X333610Y103574D01*
X334517Y104481D01*
X328168D01*
X350303Y139965D02*
X350606Y140570D01*
X351210Y141174D01*
X351815Y141477D01*
X353024D01*
X353629Y141174D01*
X354233Y140570D01*
X354536Y139965D01*
X354838Y139058D01*
Y137547D01*
X354536Y136640D01*
X354233Y136035D01*
X353629Y135430D01*
X353024Y135128D01*
X351815D01*
X351210Y135430D01*
X350606Y136035D01*
X350303Y136640D01*
X344287Y141477D02*
X347310Y135128D01*
X348520Y141477D02*
X344287D01*
X341052D02*
X341959Y141174D01*
X342564Y140267D01*
X342866Y138756D01*
Y137849D01*
X342564Y136337D01*
X341959Y135430D01*
X341052Y135128D01*
X340448D01*
X339541Y135430D01*
X338936Y136337D01*
X338634Y137849D01*
Y138756D01*
X338936Y140267D01*
X339541Y141174D01*
X340448Y141477D01*
X341052D01*
X333283Y139360D02*
X333585Y138454D01*
X334190Y137849D01*
X335097Y137547D01*
X335399D01*
X336306Y137849D01*
X336911Y138454D01*
X337213Y139360D01*
Y139663D01*
X336911Y140570D01*
X336306Y141174D01*
X335399Y141477D01*
X335097D01*
X334190Y141174D01*
X333585Y140570D01*
X333283Y139360D01*
Y137849D01*
X333585Y136337D01*
X334190Y135430D01*
X335097Y135128D01*
X335701D01*
X336608Y135430D01*
X336911Y136035D01*
X349541Y123455D02*
X349844Y124060D01*
X350448Y124664D01*
X351053Y124967D01*
X352262D01*
X352867Y124664D01*
X353471Y124060D01*
X353774Y123455D01*
X354076Y122548D01*
Y121037D01*
X353774Y120130D01*
X353471Y119525D01*
X352867Y118920D01*
X352262Y118618D01*
X351053D01*
X350448Y118920D01*
X349844Y119525D01*
X349541Y120130D01*
X343525Y124967D02*
X346548Y118618D01*
X347758Y124967D02*
X343525D01*
X342104Y123757D02*
X341500Y124060D01*
X340593Y124967D01*
Y118618D01*
X337146Y123455D02*
Y123757D01*
X336844Y124362D01*
X336542Y124664D01*
X335937Y124967D01*
X334728D01*
X334123Y124664D01*
X333821Y124362D01*
X333518Y123757D01*
Y123153D01*
X333821Y122548D01*
X334426Y121641D01*
X337449Y118618D01*
X333216D01*
X304811Y185637D02*
X305416Y185334D01*
X306020Y184730D01*
X306323Y184125D01*
Y182916D01*
X306020Y182311D01*
X305416Y181707D01*
X304811Y181404D01*
X303904Y181102D01*
X302393D01*
X301486Y181404D01*
X300881Y181707D01*
X300276Y182311D01*
X299974Y182916D01*
Y184125D01*
X300276Y184730D01*
X300881Y185334D01*
X301486Y185637D01*
X306323Y191653D02*
X299974Y188630D01*
X306323Y187420D02*
Y191653D01*
X305113Y193074D02*
X305416Y193678D01*
X306323Y194585D01*
X299974D01*
X306323Y198334D02*
Y201660D01*
X303904Y199846D01*
Y200753D01*
X303602Y201357D01*
X303300Y201660D01*
X302393Y201962D01*
X301788D01*
X300881Y201660D01*
X300276Y201055D01*
X299974Y200148D01*
Y199241D01*
X300276Y198334D01*
X300579Y198032D01*
X301183Y197729D01*
X290585Y185563D02*
X291189Y185261D01*
X291794Y184656D01*
X292096Y184052D01*
Y182842D01*
X291794Y182238D01*
X291189Y181633D01*
X290585Y181331D01*
X289678Y181028D01*
X288166D01*
X287259Y181331D01*
X286654Y181633D01*
X286050Y182238D01*
X285748Y182842D01*
Y184052D01*
X286050Y184656D01*
X286654Y185261D01*
X287259Y185563D01*
X292096Y191579D02*
X285748Y188556D01*
X292096Y187347D02*
Y191579D01*
X290887Y193000D02*
X291189Y193605D01*
X292096Y194512D01*
X285748D01*
X292096Y199167D02*
X291794Y198260D01*
X291189Y197958D01*
X290585D01*
X289980Y198260D01*
X289678Y198865D01*
X289375Y200074D01*
X289073Y200981D01*
X288468Y201586D01*
X287864Y201888D01*
X286957D01*
X286352Y201586D01*
X286050Y201284D01*
X285748Y200377D01*
Y199167D01*
X286050Y198260D01*
X286352Y197958D01*
X286957Y197656D01*
X287864D01*
X288468Y197958D01*
X289073Y198563D01*
X289375Y199470D01*
X289678Y200679D01*
X289980Y201284D01*
X290585Y201586D01*
X291189D01*
X291794Y201284D01*
X292096Y200377D01*
Y199167D01*
X275648Y185235D02*
X276253Y184932D01*
X276858Y184328D01*
X277160Y183723D01*
Y182514D01*
X276858Y181909D01*
X276253Y181305D01*
X275648Y181002D01*
X274742Y180700D01*
X273230D01*
X272323Y181002D01*
X271718Y181305D01*
X271114Y181909D01*
X270811Y182514D01*
Y183723D01*
X271114Y184328D01*
X271718Y184932D01*
X272323Y185235D01*
X277160Y191251D02*
X270811Y188228D01*
X277160Y187019D02*
Y191251D01*
X275648Y192974D02*
X275951D01*
X276556Y193276D01*
X276858Y193579D01*
X277160Y194183D01*
Y195393D01*
X276858Y195997D01*
X276556Y196300D01*
X275951Y196602D01*
X275346D01*
X274742Y196300D01*
X273835Y195695D01*
X270811Y192672D01*
Y196904D01*
X275951Y198325D02*
X276253Y198930D01*
X277160Y199837D01*
X270811D01*
X324115Y89625D02*
X324720Y89322D01*
X325324Y88718D01*
X325627Y88113D01*
Y86904D01*
X325324Y86299D01*
X324720Y85695D01*
X324115Y85392D01*
X323208Y85090D01*
X321697D01*
X320790Y85392D01*
X320185Y85695D01*
X319580Y86299D01*
X319278Y86904D01*
Y88113D01*
X319580Y88718D01*
X320185Y89322D01*
X320790Y89625D01*
X325627Y95641D02*
X319278Y92618D01*
X325627Y91408D02*
Y95641D01*
Y98876D02*
X325324Y97969D01*
X324417Y97364D01*
X322906Y97062D01*
X321999D01*
X320487Y97364D01*
X319580Y97969D01*
X319278Y98876D01*
Y99480D01*
X319580Y100387D01*
X320487Y100992D01*
X321999Y101294D01*
X322906D01*
X324417Y100992D01*
X325324Y100387D01*
X325627Y99480D01*
Y98876D01*
X324115Y103017D02*
X324417D01*
X325022Y103320D01*
X325324Y103622D01*
X325627Y104227D01*
Y105436D01*
X325324Y106040D01*
X325022Y106343D01*
X324417Y106645D01*
X323813D01*
X323208Y106343D01*
X322301Y105738D01*
X319278Y102715D01*
Y106947D01*
X260361Y185129D02*
X260966Y184826D01*
X261570Y184222D01*
X261873Y183617D01*
Y182408D01*
X261570Y181803D01*
X260966Y181199D01*
X260361Y180896D01*
X259454Y180594D01*
X257943D01*
X257036Y180896D01*
X256431Y181199D01*
X255826Y181803D01*
X255524Y182408D01*
Y183617D01*
X255826Y184222D01*
X256431Y184826D01*
X257036Y185129D01*
X261873Y191145D02*
X255524Y188122D01*
X261873Y186912D02*
Y191145D01*
X260361Y192868D02*
X260663D01*
X261268Y193170D01*
X261570Y193473D01*
X261873Y194077D01*
Y195287D01*
X261570Y195891D01*
X261268Y196194D01*
X260663Y196496D01*
X260059D01*
X259454Y196194D01*
X258547Y195589D01*
X255524Y192566D01*
Y196798D01*
X260966Y201847D02*
X261570Y201544D01*
X261873Y200637D01*
Y200033D01*
X261570Y199126D01*
X260663Y198521D01*
X259152Y198219D01*
X257640D01*
X256431Y198521D01*
X255826Y199126D01*
X255524Y200033D01*
Y200335D01*
X255826Y201242D01*
X256431Y201847D01*
X257338Y202149D01*
X257640D01*
X258547Y201847D01*
X259152Y201242D01*
X259454Y200335D01*
Y200033D01*
X259152Y199126D01*
X258547Y198521D01*
X257640Y198219D01*
X568235Y224801D02*
X568538Y225406D01*
X569142Y226010D01*
X569747Y226313D01*
X570956D01*
X571561Y226010D01*
X572165Y225406D01*
X572468Y224801D01*
X572770Y223894D01*
Y222383D01*
X572468Y221476D01*
X572165Y220871D01*
X571561Y220266D01*
X570956Y219964D01*
X569747D01*
X569142Y220266D01*
X568538Y220871D01*
X568235Y221476D01*
X562824Y226313D02*
X565847D01*
X566149Y223592D01*
X565847Y223894D01*
X564940Y224196D01*
X564033D01*
X563126Y223894D01*
X562522Y223290D01*
X562219Y222383D01*
Y221778D01*
X562522Y220871D01*
X563126Y220266D01*
X564033Y219964D01*
X564940D01*
X565847Y220266D01*
X566149Y220569D01*
X566452Y221173D01*
X558984Y226313D02*
X559891Y226010D01*
X560496Y225103D01*
X560798Y223592D01*
Y222685D01*
X560496Y221173D01*
X559891Y220266D01*
X558984Y219964D01*
X558380D01*
X557473Y220266D01*
X556868Y221173D01*
X556566Y222685D01*
Y223592D01*
X556868Y225103D01*
X557473Y226010D01*
X558380Y226313D01*
X558984D01*
X550913D02*
X553936Y219964D01*
X555145Y226313D02*
X550913D01*
X535951Y188939D02*
X536556Y188636D01*
X537160Y188032D01*
X537463Y187427D01*
Y186218D01*
X537160Y185613D01*
X536556Y185009D01*
X535951Y184706D01*
X535044Y184404D01*
X533532D01*
X532626Y184706D01*
X532021Y185009D01*
X531416Y185613D01*
X531114Y186218D01*
Y187427D01*
X531416Y188032D01*
X532021Y188636D01*
X532626Y188939D01*
X537463Y194350D02*
Y191327D01*
X534742Y191025D01*
X535044Y191327D01*
X535346Y192234D01*
Y193141D01*
X535044Y194048D01*
X534440Y194653D01*
X533532Y194955D01*
X532928D01*
X532021Y194653D01*
X531416Y194048D01*
X531114Y193141D01*
Y192234D01*
X531416Y191327D01*
X531719Y191025D01*
X532323Y190722D01*
X537463Y198190D02*
X537160Y197283D01*
X536253Y196678D01*
X534742Y196376D01*
X533835D01*
X532323Y196678D01*
X531416Y197283D01*
X531114Y198190D01*
Y198794D01*
X531416Y199701D01*
X532323Y200306D01*
X533835Y200608D01*
X534742D01*
X536253Y200306D01*
X537160Y199701D01*
X537463Y198794D01*
Y198190D01*
X536556Y205657D02*
X537160Y205354D01*
X537463Y204447D01*
Y203843D01*
X537160Y202936D01*
X536253Y202331D01*
X534742Y202029D01*
X533230D01*
X532021Y202331D01*
X531416Y202936D01*
X531114Y203843D01*
Y204145D01*
X531416Y205052D01*
X532021Y205657D01*
X532928Y205959D01*
X533230D01*
X534137Y205657D01*
X534742Y205052D01*
X535044Y204145D01*
Y203843D01*
X534742Y202936D01*
X534137Y202331D01*
X533230Y202029D01*
X535443Y216625D02*
X536048Y216322D01*
X536652Y215718D01*
X536955Y215113D01*
Y213904D01*
X536652Y213299D01*
X536048Y212695D01*
X535443Y212392D01*
X534536Y212090D01*
X533024D01*
X532118Y212392D01*
X531513Y212695D01*
X530908Y213299D01*
X530606Y213904D01*
Y215113D01*
X530908Y215718D01*
X531513Y216322D01*
X532118Y216625D01*
X536955Y222036D02*
Y219013D01*
X534234Y218711D01*
X534536Y219013D01*
X534838Y219920D01*
Y220827D01*
X534536Y221734D01*
X533932Y222339D01*
X533024Y222641D01*
X532420D01*
X531513Y222339D01*
X530908Y221734D01*
X530606Y220827D01*
Y219920D01*
X530908Y219013D01*
X531211Y218711D01*
X531815Y218408D01*
X536955Y225876D02*
X536652Y224969D01*
X535745Y224364D01*
X534234Y224062D01*
X533327D01*
X531815Y224364D01*
X530908Y224969D01*
X530606Y225876D01*
Y226480D01*
X530908Y227387D01*
X531815Y227992D01*
X533327Y228294D01*
X534234D01*
X535745Y227992D01*
X536652Y227387D01*
X536955Y226480D01*
Y225876D01*
Y233343D02*
Y230320D01*
X534234Y230017D01*
X534536Y230320D01*
X534838Y231227D01*
Y232134D01*
X534536Y233041D01*
X533932Y233645D01*
X533024Y233947D01*
X532420D01*
X531513Y233645D01*
X530908Y233041D01*
X530606Y232134D01*
Y231227D01*
X530908Y230320D01*
X531211Y230017D01*
X531815Y229715D01*
X549921Y169381D02*
X550526Y169078D01*
X551130Y168474D01*
X551433Y167869D01*
Y166660D01*
X551130Y166055D01*
X550526Y165451D01*
X549921Y165148D01*
X549014Y164846D01*
X547503D01*
X546596Y165148D01*
X545991Y165451D01*
X545386Y166055D01*
X545084Y166660D01*
Y167869D01*
X545386Y168474D01*
X545991Y169078D01*
X546596Y169381D01*
X551433Y174792D02*
Y171769D01*
X548712Y171467D01*
X549014Y171769D01*
X549316Y172676D01*
Y173583D01*
X549014Y174490D01*
X548410Y175095D01*
X547503Y175397D01*
X546898D01*
X545991Y175095D01*
X545386Y174490D01*
X545084Y173583D01*
Y172676D01*
X545386Y171769D01*
X545689Y171467D01*
X546293Y171164D01*
X551433Y178632D02*
X551130Y177725D01*
X550223Y177120D01*
X548712Y176818D01*
X547805D01*
X546293Y177120D01*
X545386Y177725D01*
X545084Y178632D01*
Y179236D01*
X545386Y180143D01*
X546293Y180748D01*
X547805Y181050D01*
X548712D01*
X550223Y180748D01*
X551130Y180143D01*
X551433Y179236D01*
Y178632D01*
Y183076D02*
Y186401D01*
X549014Y184587D01*
Y185494D01*
X548712Y186099D01*
X548410Y186401D01*
X547503Y186703D01*
X546898D01*
X545991Y186401D01*
X545386Y185797D01*
X545084Y184890D01*
Y183983D01*
X545386Y183076D01*
X545689Y182773D01*
X546293Y182471D01*
X589063Y213879D02*
X589366Y214484D01*
X589970Y215088D01*
X590575Y215391D01*
X591784D01*
X592389Y215088D01*
X592993Y214484D01*
X593296Y213879D01*
X593598Y212972D01*
Y211460D01*
X593296Y210554D01*
X592993Y209949D01*
X592389Y209344D01*
X591784Y209042D01*
X590575D01*
X589970Y209344D01*
X589366Y209949D01*
X589063Y210554D01*
X583652Y215391D02*
X586675D01*
X586977Y212670D01*
X586675Y212972D01*
X585768Y213274D01*
X584861D01*
X583954Y212972D01*
X583349Y212367D01*
X583047Y211460D01*
Y210856D01*
X583349Y209949D01*
X583954Y209344D01*
X584861Y209042D01*
X585768D01*
X586675Y209344D01*
X586977Y209647D01*
X587280Y210251D01*
X579812Y215391D02*
X580719Y215088D01*
X581324Y214181D01*
X581626Y212670D01*
Y211763D01*
X581324Y210251D01*
X580719Y209344D01*
X579812Y209042D01*
X579208D01*
X578301Y209344D01*
X577696Y210251D01*
X577394Y211763D01*
Y212670D01*
X577696Y214181D01*
X578301Y215088D01*
X579208Y215391D01*
X579812D01*
X575671Y213879D02*
Y214181D01*
X575368Y214786D01*
X575066Y215088D01*
X574461Y215391D01*
X573252D01*
X572648Y215088D01*
X572345Y214786D01*
X572043Y214181D01*
Y213577D01*
X572345Y212972D01*
X572950Y212065D01*
X575973Y209042D01*
X571741D01*
X530897Y454417D02*
X531200Y455022D01*
X531804Y455626D01*
X532409Y455929D01*
X533618D01*
X534223Y455626D01*
X534827Y455022D01*
X535130Y454417D01*
X535432Y453510D01*
Y451998D01*
X535130Y451092D01*
X534827Y450487D01*
X534223Y449882D01*
X533618Y449580D01*
X532409D01*
X531804Y449882D01*
X531200Y450487D01*
X530897Y451092D01*
X529114Y454719D02*
X528509Y455022D01*
X527602Y455929D01*
Y449580D01*
X520830Y455929D02*
X523853D01*
X524156Y453208D01*
X523853Y453510D01*
X522946Y453812D01*
X522039D01*
X521133Y453510D01*
X520528Y452906D01*
X520225Y451998D01*
Y451394D01*
X520528Y450487D01*
X521133Y449882D01*
X522039Y449580D01*
X522946D01*
X523853Y449882D01*
X524156Y450185D01*
X524458Y450789D01*
X515177Y455929D02*
X518200D01*
X518502Y453208D01*
X518200Y453510D01*
X517293Y453812D01*
X516386D01*
X515479Y453510D01*
X514874Y452906D01*
X514572Y451998D01*
Y451394D01*
X514874Y450487D01*
X515479Y449882D01*
X516386Y449580D01*
X517293D01*
X518200Y449882D01*
X518502Y450185D01*
X518805Y450789D01*
X563637Y429731D02*
X564242Y429428D01*
X564846Y428824D01*
X565149Y428219D01*
Y427010D01*
X564846Y426405D01*
X564242Y425801D01*
X563637Y425498D01*
X562730Y425196D01*
X561218D01*
X560312Y425498D01*
X559707Y425801D01*
X559102Y426405D01*
X558800Y427010D01*
Y428219D01*
X559102Y428824D01*
X559707Y429428D01*
X560312Y429731D01*
X563939Y431514D02*
X564242Y432119D01*
X565149Y433026D01*
X558800D01*
X565149Y439193D02*
X560916Y436170D01*
Y440705D01*
X565149Y439193D02*
X558800D01*
X563032Y445754D02*
X562126Y445451D01*
X561521Y444846D01*
X561218Y443940D01*
Y443637D01*
X561521Y442730D01*
X562126Y442126D01*
X563032Y441823D01*
X563335D01*
X564242Y442126D01*
X564846Y442730D01*
X565149Y443637D01*
Y443940D01*
X564846Y444846D01*
X564242Y445451D01*
X563032Y445754D01*
X561521D01*
X560009Y445451D01*
X559102Y444846D01*
X558800Y443940D01*
Y443335D01*
X559102Y442428D01*
X559707Y442126D01*
X579665Y409205D02*
X579968Y409810D01*
X580572Y410414D01*
X581177Y410717D01*
X582386D01*
X582991Y410414D01*
X583595Y409810D01*
X583898Y409205D01*
X584200Y408298D01*
Y406786D01*
X583898Y405880D01*
X583595Y405275D01*
X582991Y404670D01*
X582386Y404368D01*
X581177D01*
X580572Y404670D01*
X579968Y405275D01*
X579665Y405880D01*
X577882Y409507D02*
X577277Y409810D01*
X576370Y410717D01*
Y404368D01*
X570203Y410717D02*
X573226Y406484D01*
X568691D01*
X570203Y410717D02*
Y404368D01*
X566061Y410717D02*
X566968Y410414D01*
X567270Y409810D01*
Y409205D01*
X566968Y408600D01*
X566363Y408298D01*
X565154Y407996D01*
X564247Y407693D01*
X563643Y407089D01*
X563340Y406484D01*
Y405577D01*
X563643Y404973D01*
X563945Y404670D01*
X564852Y404368D01*
X566061D01*
X566968Y404670D01*
X567270Y404973D01*
X567573Y405577D01*
Y406484D01*
X567270Y407089D01*
X566666Y407693D01*
X565759Y407996D01*
X564549Y408298D01*
X563945Y408600D01*
X563643Y409205D01*
Y409810D01*
X563945Y410414D01*
X564852Y410717D01*
X566061D01*
X544321Y431800D02*
X537972D01*
X544321D02*
Y434521D01*
X544018Y435428D01*
X543716Y435730D01*
X543111Y436032D01*
X542507D01*
X541902Y435730D01*
X541600Y435428D01*
X541297Y434521D01*
Y431800D01*
Y433916D02*
X537972Y436032D01*
X544321Y438058D02*
Y441383D01*
X541902Y439570D01*
Y440476D01*
X541600Y441081D01*
X541297Y441383D01*
X540391Y441686D01*
X539786D01*
X538879Y441383D01*
X538274Y440779D01*
X537972Y439872D01*
Y438965D01*
X538274Y438058D01*
X538577Y437756D01*
X539181Y437453D01*
X544321Y444921D02*
X544018Y444014D01*
X543111Y443409D01*
X541600Y443107D01*
X540693D01*
X539181Y443409D01*
X538274Y444014D01*
X537972Y444921D01*
Y445525D01*
X538274Y446432D01*
X539181Y447037D01*
X540693Y447339D01*
X541600D01*
X543111Y447037D01*
X544018Y446432D01*
X544321Y445525D01*
Y444921D01*
Y449365D02*
Y452690D01*
X541902Y450876D01*
Y451783D01*
X541600Y452388D01*
X541297Y452690D01*
X540391Y452992D01*
X539786D01*
X538879Y452690D01*
X538274Y452085D01*
X537972Y451178D01*
Y450271D01*
X538274Y449365D01*
X538577Y449062D01*
X539181Y448760D01*
X553973Y429514D02*
X547624D01*
X553973D02*
Y432235D01*
X553670Y433142D01*
X553368Y433444D01*
X552763Y433746D01*
X552159D01*
X551554Y433444D01*
X551252Y433142D01*
X550950Y432235D01*
Y429514D01*
Y431630D02*
X547624Y433746D01*
X553973Y435772D02*
Y439097D01*
X551554Y437284D01*
Y438190D01*
X551252Y438795D01*
X550950Y439097D01*
X550042Y439400D01*
X549438D01*
X548531Y439097D01*
X547926Y438493D01*
X547624Y437586D01*
Y436679D01*
X547926Y435772D01*
X548229Y435470D01*
X548833Y435167D01*
X553973Y442635D02*
X553670Y441728D01*
X552763Y441123D01*
X551252Y440821D01*
X550345D01*
X548833Y441123D01*
X547926Y441728D01*
X547624Y442635D01*
Y443239D01*
X547926Y444146D01*
X548833Y444751D01*
X550345Y445053D01*
X551252D01*
X552763Y444751D01*
X553670Y444146D01*
X553973Y443239D01*
Y442635D01*
Y450102D02*
Y447079D01*
X551252Y446776D01*
X551554Y447079D01*
X551856Y447985D01*
Y448892D01*
X551554Y449799D01*
X550950Y450404D01*
X550042Y450706D01*
X549438D01*
X548531Y450404D01*
X547926Y449799D01*
X547624Y448892D01*
Y447985D01*
X547926Y447079D01*
X548229Y446776D01*
X548833Y446474D01*
X532129Y530606D02*
X525780D01*
X532129D02*
Y533327D01*
X531826Y534234D01*
X531524Y534536D01*
X530919Y534838D01*
X530315D01*
X529710Y534536D01*
X529408Y534234D01*
X529105Y533327D01*
Y530606D01*
Y532722D02*
X525780Y534838D01*
X532129Y539282D02*
X527896Y536259D01*
Y540794D01*
X532129Y539282D02*
X525780D01*
X532129Y543727D02*
X531826Y542820D01*
X530919Y542215D01*
X529408Y541913D01*
X528501D01*
X526989Y542215D01*
X526082Y542820D01*
X525780Y543727D01*
Y544331D01*
X526082Y545238D01*
X526989Y545843D01*
X528501Y546145D01*
X529408D01*
X530919Y545843D01*
X531826Y545238D01*
X532129Y544331D01*
Y543727D01*
X531222Y551194D02*
X531826Y550891D01*
X532129Y549984D01*
Y549380D01*
X531826Y548473D01*
X530919Y547868D01*
X529408Y547566D01*
X527896D01*
X526687Y547868D01*
X526082Y548473D01*
X525780Y549380D01*
Y549682D01*
X526082Y550589D01*
X526687Y551194D01*
X527594Y551496D01*
X527896D01*
X528803Y551194D01*
X529408Y550589D01*
X529710Y549682D01*
Y549380D01*
X529408Y548473D01*
X528803Y547868D01*
X527896Y547566D01*
X513853Y429731D02*
X514458Y429428D01*
X515062Y428824D01*
X515365Y428219D01*
Y427010D01*
X515062Y426405D01*
X514458Y425801D01*
X513853Y425498D01*
X512946Y425196D01*
X511435D01*
X510528Y425498D01*
X509923Y425801D01*
X509318Y426405D01*
X509016Y427010D01*
Y428219D01*
X509318Y428824D01*
X509923Y429428D01*
X510528Y429731D01*
X514155Y431514D02*
X514458Y432119D01*
X515365Y433026D01*
X509016D01*
X515365Y439193D02*
X511132Y436170D01*
Y440705D01*
X515365Y439193D02*
X509016D01*
X515365Y446056D02*
X509016Y443033D01*
X515365Y441823D02*
Y446056D01*
X529093Y343879D02*
X529698Y343576D01*
X530302Y342972D01*
X530605Y342367D01*
Y341158D01*
X530302Y340553D01*
X529698Y339949D01*
X529093Y339646D01*
X528186Y339344D01*
X526674D01*
X525768Y339646D01*
X525163Y339949D01*
X524558Y340553D01*
X524256Y341158D01*
Y342367D01*
X524558Y342972D01*
X525163Y343576D01*
X525768Y343879D01*
X529395Y345662D02*
X529698Y346267D01*
X530605Y347174D01*
X524256D01*
X530605Y353341D02*
X526372Y350318D01*
Y354853D01*
X530605Y353341D02*
X524256D01*
X529698Y359599D02*
X530302Y359297D01*
X530605Y358390D01*
Y357785D01*
X530302Y356878D01*
X529395Y356274D01*
X527884Y355971D01*
X526372D01*
X525163Y356274D01*
X524558Y356878D01*
X524256Y357785D01*
Y358088D01*
X524558Y358994D01*
X525163Y359599D01*
X526070Y359902D01*
X526372D01*
X527279Y359599D01*
X527884Y358994D01*
X528186Y358088D01*
Y357785D01*
X527884Y356878D01*
X527279Y356274D01*
X526372Y355971D01*
X561807Y371744D02*
X562109Y372348D01*
X562714Y372953D01*
X563318Y373255D01*
X564528D01*
X565132Y372953D01*
X565737Y372348D01*
X566039Y371744D01*
X566342Y370837D01*
Y369325D01*
X566039Y368418D01*
X565737Y367813D01*
X565132Y367209D01*
X564528Y366907D01*
X563318D01*
X562714Y367209D01*
X562109Y367813D01*
X561807Y368418D01*
X560023Y372046D02*
X559418Y372348D01*
X558512Y373255D01*
Y366907D01*
X552344Y373255D02*
X555367Y369023D01*
X550833D01*
X552344Y373255D02*
Y366907D01*
X546086Y373255D02*
X549109D01*
X549412Y370534D01*
X549109Y370837D01*
X548203Y371139D01*
X547296D01*
X546389Y370837D01*
X545784Y370232D01*
X545482Y369325D01*
Y368720D01*
X545784Y367813D01*
X546389Y367209D01*
X547296Y366907D01*
X548203D01*
X549109Y367209D01*
X549412Y367511D01*
X549714Y368116D01*
X503439Y429985D02*
X504044Y429682D01*
X504648Y429078D01*
X504951Y428473D01*
Y427264D01*
X504648Y426659D01*
X504044Y426055D01*
X503439Y425752D01*
X502532Y425450D01*
X501021D01*
X500114Y425752D01*
X499509Y426055D01*
X498904Y426659D01*
X498602Y427264D01*
Y428473D01*
X498904Y429078D01*
X499509Y429682D01*
X500114Y429985D01*
X503741Y431768D02*
X504044Y432373D01*
X504951Y433280D01*
X498602D01*
X504951Y439447D02*
X500718Y436424D01*
Y440959D01*
X504951Y439447D02*
X498602D01*
X504951Y445101D02*
X500718Y442077D01*
Y446612D01*
X504951Y445101D02*
X498602D01*
X500391Y337275D02*
X500996Y336972D01*
X501600Y336368D01*
X501903Y335763D01*
Y334554D01*
X501600Y333949D01*
X500996Y333345D01*
X500391Y333042D01*
X499484Y332740D01*
X497972D01*
X497066Y333042D01*
X496461Y333345D01*
X495856Y333949D01*
X495554Y334554D01*
Y335763D01*
X495856Y336368D01*
X496461Y336972D01*
X497066Y337275D01*
X500693Y339058D02*
X500996Y339663D01*
X501903Y340570D01*
X495554D01*
X501903Y346737D02*
X497670Y343714D01*
Y348249D01*
X501903Y346737D02*
X495554D01*
X500693Y349367D02*
X500996Y349972D01*
X501903Y350879D01*
X495554D01*
X572553Y391425D02*
X572856Y392030D01*
X573460Y392634D01*
X574065Y392937D01*
X575274D01*
X575879Y392634D01*
X576483Y392030D01*
X576786Y391425D01*
X577088Y390518D01*
Y389007D01*
X576786Y388100D01*
X576483Y387495D01*
X575879Y386890D01*
X575274Y386588D01*
X574065D01*
X573460Y386890D01*
X572856Y387495D01*
X572553Y388100D01*
X570770Y391727D02*
X570165Y392030D01*
X569258Y392937D01*
Y386588D01*
X565509Y392937D02*
X562184D01*
X563998Y390518D01*
X563091D01*
X562486Y390216D01*
X562184Y389913D01*
X561881Y389007D01*
Y388402D01*
X562184Y387495D01*
X562789Y386890D01*
X563695Y386588D01*
X564602D01*
X565509Y386890D01*
X565812Y387193D01*
X566114Y387797D01*
X556833Y392937D02*
X559856D01*
X560158Y390216D01*
X559856Y390518D01*
X558949Y390820D01*
X558042D01*
X557135Y390518D01*
X556530Y389913D01*
X556228Y389007D01*
Y388402D01*
X556530Y387495D01*
X557135Y386890D01*
X558042Y386588D01*
X558949D01*
X559856Y386890D01*
X560158Y387193D01*
X560461Y387797D01*
X448321Y241771D02*
X448926Y241468D01*
X449530Y240864D01*
X449833Y240259D01*
Y239050D01*
X449530Y238445D01*
X448926Y237841D01*
X448321Y237538D01*
X447414Y237236D01*
X445902D01*
X444996Y237538D01*
X444391Y237841D01*
X443786Y238445D01*
X443484Y239050D01*
Y240259D01*
X443786Y240864D01*
X444391Y241468D01*
X444996Y241771D01*
X448623Y243554D02*
X448926Y244159D01*
X449833Y245066D01*
X443484D01*
X449833Y248815D02*
Y252140D01*
X447414Y250326D01*
Y251233D01*
X447112Y251838D01*
X446810Y252140D01*
X445902Y252442D01*
X445298D01*
X444391Y252140D01*
X443786Y251535D01*
X443484Y250629D01*
Y249722D01*
X443786Y248815D01*
X444089Y248512D01*
X444693Y248210D01*
X449833Y256887D02*
X445600Y253863D01*
Y258398D01*
X449833Y256887D02*
X443484D01*
X438161Y241517D02*
X438766Y241214D01*
X439370Y240610D01*
X439673Y240005D01*
Y238796D01*
X439370Y238191D01*
X438766Y237587D01*
X438161Y237284D01*
X437254Y236982D01*
X435742D01*
X434836Y237284D01*
X434231Y237587D01*
X433626Y238191D01*
X433324Y238796D01*
Y240005D01*
X433626Y240610D01*
X434231Y241214D01*
X434836Y241517D01*
X438463Y243300D02*
X438766Y243905D01*
X439673Y244812D01*
X433324D01*
X439673Y248561D02*
Y251886D01*
X437254Y250072D01*
Y250979D01*
X436952Y251584D01*
X436650Y251886D01*
X435742Y252188D01*
X435138D01*
X434231Y251886D01*
X433626Y251282D01*
X433324Y250375D01*
Y249468D01*
X433626Y248561D01*
X433929Y248258D01*
X434533Y247956D01*
X438161Y253912D02*
X438463D01*
X439068Y254214D01*
X439370Y254516D01*
X439673Y255121D01*
Y256330D01*
X439370Y256935D01*
X439068Y257237D01*
X438463Y257540D01*
X437859D01*
X437254Y257237D01*
X436347Y256632D01*
X433324Y253609D01*
Y257842D01*
X545095Y344387D02*
X545700Y344084D01*
X546304Y343480D01*
X546607Y342875D01*
Y341666D01*
X546304Y341061D01*
X545700Y340457D01*
X545095Y340154D01*
X544188Y339852D01*
X542677D01*
X541770Y340154D01*
X541165Y340457D01*
X540560Y341061D01*
X540258Y341666D01*
Y342875D01*
X540560Y343480D01*
X541165Y344084D01*
X541770Y344387D01*
X545397Y346170D02*
X545700Y346775D01*
X546607Y347682D01*
X540258D01*
X546607Y351431D02*
Y354756D01*
X544188Y352942D01*
Y353849D01*
X543886Y354454D01*
X543583Y354756D01*
X542677Y355059D01*
X542072D01*
X541165Y354756D01*
X540560Y354151D01*
X540258Y353245D01*
Y352338D01*
X540560Y351431D01*
X540863Y351128D01*
X541467Y350826D01*
X545397Y356479D02*
X545700Y357084D01*
X546607Y357991D01*
X540258D01*
X598181Y248883D02*
X598786Y248580D01*
X599390Y247976D01*
X599693Y247371D01*
Y246162D01*
X599390Y245557D01*
X598786Y244953D01*
X598181Y244650D01*
X597274Y244348D01*
X595762D01*
X594856Y244650D01*
X594251Y244953D01*
X593646Y245557D01*
X593344Y246162D01*
Y247371D01*
X593646Y247976D01*
X594251Y248580D01*
X594856Y248883D01*
X599693Y254294D02*
Y251271D01*
X596972Y250969D01*
X597274Y251271D01*
X597576Y252178D01*
Y253085D01*
X597274Y253992D01*
X596670Y254597D01*
X595762Y254899D01*
X595158D01*
X594251Y254597D01*
X593646Y253992D01*
X593344Y253085D01*
Y252178D01*
X593646Y251271D01*
X593949Y250969D01*
X594553Y250666D01*
X599693Y258134D02*
X599390Y257227D01*
X598483Y256622D01*
X596972Y256320D01*
X596065D01*
X594553Y256622D01*
X593646Y257227D01*
X593344Y258134D01*
Y258738D01*
X593646Y259645D01*
X594553Y260250D01*
X596065Y260552D01*
X596972D01*
X598483Y260250D01*
X599390Y259645D01*
X599693Y258738D01*
Y258134D01*
Y263485D02*
X599390Y262578D01*
X598786Y262275D01*
X598181D01*
X597576Y262578D01*
X597274Y263182D01*
X596972Y264391D01*
X596670Y265299D01*
X596065Y265903D01*
X595460Y266205D01*
X594553D01*
X593949Y265903D01*
X593646Y265601D01*
X593344Y264694D01*
Y263485D01*
X593646Y262578D01*
X593949Y262275D01*
X594553Y261973D01*
X595460D01*
X596065Y262275D01*
X596670Y262880D01*
X596972Y263787D01*
X597274Y264996D01*
X597576Y265601D01*
X598181Y265903D01*
X598786D01*
X599390Y265601D01*
X599693Y264694D01*
Y263485D01*
X576109Y399553D02*
X576412Y400158D01*
X577016Y400762D01*
X577621Y401065D01*
X578830D01*
X579435Y400762D01*
X580039Y400158D01*
X580342Y399553D01*
X580644Y398646D01*
Y397135D01*
X580342Y396228D01*
X580039Y395623D01*
X579435Y395018D01*
X578830Y394716D01*
X577621D01*
X577016Y395018D01*
X576412Y395623D01*
X576109Y396228D01*
X574326Y399855D02*
X573721Y400158D01*
X572814Y401065D01*
Y394716D01*
X569065Y401065D02*
X565740D01*
X567554Y398646D01*
X566647D01*
X566042Y398344D01*
X565740Y398041D01*
X565438Y397135D01*
Y396530D01*
X565740Y395623D01*
X566344Y395018D01*
X567251Y394716D01*
X568158D01*
X569065Y395018D01*
X569368Y395321D01*
X569670Y395925D01*
X562203Y401065D02*
X563110Y400762D01*
X563714Y399855D01*
X564017Y398344D01*
Y397437D01*
X563714Y395925D01*
X563110Y395018D01*
X562203Y394716D01*
X561598D01*
X560691Y395018D01*
X560087Y395925D01*
X559784Y397437D01*
Y398344D01*
X560087Y399855D01*
X560691Y400762D01*
X561598Y401065D01*
X562203D01*
X457973Y241517D02*
X458578Y241214D01*
X459182Y240610D01*
X459485Y240005D01*
Y238796D01*
X459182Y238191D01*
X458578Y237587D01*
X457973Y237284D01*
X457066Y236982D01*
X455555D01*
X454648Y237284D01*
X454043Y237587D01*
X453438Y238191D01*
X453136Y238796D01*
Y240005D01*
X453438Y240610D01*
X454043Y241214D01*
X454648Y241517D01*
X458275Y243300D02*
X458578Y243905D01*
X459485Y244812D01*
X453136D01*
X459485Y249770D02*
X459182Y248863D01*
X458275Y248258D01*
X456764Y247956D01*
X455857D01*
X454345Y248258D01*
X453438Y248863D01*
X453136Y249770D01*
Y250375D01*
X453438Y251282D01*
X454345Y251886D01*
X455857Y252188D01*
X456764D01*
X458275Y251886D01*
X459182Y251282D01*
X459485Y250375D01*
Y249770D01*
X458275Y253609D02*
X458578Y254214D01*
X459485Y255121D01*
X453136D01*
X468387Y241009D02*
X468992Y240706D01*
X469596Y240102D01*
X469899Y239497D01*
Y238288D01*
X469596Y237683D01*
X468992Y237079D01*
X468387Y236776D01*
X467480Y236474D01*
X465969D01*
X465062Y236776D01*
X464457Y237079D01*
X463852Y237683D01*
X463550Y238288D01*
Y239497D01*
X463852Y240102D01*
X464457Y240706D01*
X465062Y241009D01*
X468689Y242792D02*
X468992Y243397D01*
X469899Y244304D01*
X463550D01*
X469899Y249262D02*
X469596Y248355D01*
X468689Y247750D01*
X467178Y247448D01*
X466271D01*
X464759Y247750D01*
X463852Y248355D01*
X463550Y249262D01*
Y249867D01*
X463852Y250774D01*
X464759Y251378D01*
X466271Y251681D01*
X467178D01*
X468689Y251378D01*
X469596Y250774D01*
X469899Y249867D01*
Y249262D01*
X468387Y253404D02*
X468689D01*
X469294Y253706D01*
X469596Y254008D01*
X469899Y254613D01*
Y255822D01*
X469596Y256427D01*
X469294Y256729D01*
X468689Y257031D01*
X468085D01*
X467480Y256729D01*
X466573Y256124D01*
X463550Y253101D01*
Y257334D01*
X469937Y219721D02*
X470240Y220326D01*
X470844Y220930D01*
X471449Y221233D01*
X472658D01*
X473263Y220930D01*
X473867Y220326D01*
X474170Y219721D01*
X474472Y218814D01*
Y217302D01*
X474170Y216396D01*
X473867Y215791D01*
X473263Y215186D01*
X472658Y214884D01*
X471449D01*
X470844Y215186D01*
X470240Y215791D01*
X469937Y216396D01*
X468154Y220023D02*
X467549Y220326D01*
X466642Y221233D01*
Y214884D01*
X461684Y221233D02*
X462591Y220930D01*
X463196Y220023D01*
X463498Y218512D01*
Y217605D01*
X463196Y216093D01*
X462591Y215186D01*
X461684Y214884D01*
X461079D01*
X460173Y215186D01*
X459568Y216093D01*
X459266Y217605D01*
Y218512D01*
X459568Y220023D01*
X460173Y220930D01*
X461079Y221233D01*
X461684D01*
X454217Y220326D02*
X454519Y220930D01*
X455426Y221233D01*
X456031D01*
X456938Y220930D01*
X457542Y220023D01*
X457845Y218512D01*
Y217000D01*
X457542Y215791D01*
X456938Y215186D01*
X456031Y214884D01*
X455728D01*
X454822Y215186D01*
X454217Y215791D01*
X453914Y216698D01*
Y217000D01*
X454217Y217907D01*
X454822Y218512D01*
X455728Y218814D01*
X456031D01*
X456938Y218512D01*
X457542Y217907D01*
X457845Y217000D01*
X464323Y190717D02*
X464928Y190414D01*
X465532Y189810D01*
X465835Y189205D01*
Y187996D01*
X465532Y187391D01*
X464928Y186787D01*
X464323Y186484D01*
X463416Y186182D01*
X461904D01*
X460998Y186484D01*
X460393Y186787D01*
X459788Y187391D01*
X459486Y187996D01*
Y189205D01*
X459788Y189810D01*
X460393Y190414D01*
X460998Y190717D01*
X464625Y192500D02*
X464928Y193105D01*
X465835Y194012D01*
X459486D01*
X465835Y198970D02*
X465532Y198063D01*
X464625Y197458D01*
X463114Y197156D01*
X462207D01*
X460695Y197458D01*
X459788Y198063D01*
X459486Y198970D01*
Y199575D01*
X459788Y200481D01*
X460695Y201086D01*
X462207Y201388D01*
X463114D01*
X464625Y201086D01*
X465532Y200481D01*
X465835Y199575D01*
Y198970D01*
Y207042D02*
X459486Y204019D01*
X465835Y202809D02*
Y207042D01*
X469683Y230389D02*
X469986Y230994D01*
X470590Y231598D01*
X471195Y231901D01*
X472404D01*
X473009Y231598D01*
X473613Y230994D01*
X473916Y230389D01*
X474218Y229482D01*
Y227971D01*
X473916Y227064D01*
X473613Y226459D01*
X473009Y225854D01*
X472404Y225552D01*
X471195D01*
X470590Y225854D01*
X469986Y226459D01*
X469683Y227064D01*
X467900Y230691D02*
X467295Y230994D01*
X466388Y231901D01*
Y225552D01*
X463244Y230691D02*
X462639Y230994D01*
X461732Y231901D01*
Y225552D01*
X456774Y231901D02*
X457681Y231598D01*
X458286Y230691D01*
X458588Y229180D01*
Y228273D01*
X458286Y226761D01*
X457681Y225854D01*
X456774Y225552D01*
X456170D01*
X455263Y225854D01*
X454658Y226761D01*
X454356Y228273D01*
Y229180D01*
X454658Y230691D01*
X455263Y231598D01*
X456170Y231901D01*
X456774D01*
X444283Y230389D02*
X444586Y230994D01*
X445190Y231598D01*
X445795Y231901D01*
X447004D01*
X447609Y231598D01*
X448213Y230994D01*
X448516Y230389D01*
X448818Y229482D01*
Y227971D01*
X448516Y227064D01*
X448213Y226459D01*
X447609Y225854D01*
X447004Y225552D01*
X445795D01*
X445190Y225854D01*
X444586Y226459D01*
X444283Y227064D01*
X442500Y230691D02*
X441895Y230994D01*
X440988Y231901D01*
Y225552D01*
X437844Y230691D02*
X437239Y230994D01*
X436332Y231901D01*
Y225552D01*
X433188Y230691D02*
X432584Y230994D01*
X431677Y231901D01*
Y225552D01*
X454163Y190717D02*
X454768Y190414D01*
X455372Y189810D01*
X455675Y189205D01*
Y187996D01*
X455372Y187391D01*
X454768Y186787D01*
X454163Y186484D01*
X453256Y186182D01*
X451744D01*
X450838Y186484D01*
X450233Y186787D01*
X449628Y187391D01*
X449326Y187996D01*
Y189205D01*
X449628Y189810D01*
X450233Y190414D01*
X450838Y190717D01*
X454465Y192500D02*
X454768Y193105D01*
X455675Y194012D01*
X449326D01*
X454465Y197156D02*
X454768Y197761D01*
X455675Y198668D01*
X449326D01*
X455675Y204835D02*
X451442Y201812D01*
Y206346D01*
X455675Y204835D02*
X449326D01*
X520991Y335037D02*
X521294Y335642D01*
X521898Y336246D01*
X522503Y336549D01*
X523712D01*
X524317Y336246D01*
X524921Y335642D01*
X525224Y335037D01*
X525526Y334130D01*
Y332618D01*
X525224Y331712D01*
X524921Y331107D01*
X524317Y330502D01*
X523712Y330200D01*
X522503D01*
X521898Y330502D01*
X521294Y331107D01*
X520991Y331712D01*
X519208Y335339D02*
X518603Y335642D01*
X517696Y336549D01*
Y330200D01*
X514552Y335339D02*
X513947Y335642D01*
X513040Y336549D01*
Y330200D01*
X506269Y335642D02*
X506571Y336246D01*
X507478Y336549D01*
X508082D01*
X508989Y336246D01*
X509594Y335339D01*
X509896Y333828D01*
Y332316D01*
X509594Y331107D01*
X508989Y330502D01*
X508082Y330200D01*
X507780D01*
X506873Y330502D01*
X506269Y331107D01*
X505966Y332014D01*
Y332316D01*
X506269Y333223D01*
X506873Y333828D01*
X507780Y334130D01*
X508082D01*
X508989Y333828D01*
X509594Y333223D01*
X509896Y332316D01*
X536967Y344133D02*
X537572Y343830D01*
X538176Y343226D01*
X538479Y342621D01*
Y341412D01*
X538176Y340807D01*
X537572Y340203D01*
X536967Y339900D01*
X536060Y339598D01*
X534548D01*
X533642Y339900D01*
X533037Y340203D01*
X532432Y340807D01*
X532130Y341412D01*
Y342621D01*
X532432Y343226D01*
X533037Y343830D01*
X533642Y344133D01*
X537269Y345916D02*
X537572Y346521D01*
X538479Y347428D01*
X532130D01*
X537269Y350572D02*
X537572Y351177D01*
X538479Y352084D01*
X532130D01*
X538479Y359460D02*
X532130Y356437D01*
X538479Y355228D02*
Y359460D01*
X583195Y375629D02*
X583800Y375326D01*
X584404Y374722D01*
X584707Y374117D01*
Y372908D01*
X584404Y372303D01*
X583800Y371699D01*
X583195Y371396D01*
X582288Y371094D01*
X580776D01*
X579870Y371396D01*
X579265Y371699D01*
X578660Y372303D01*
X578358Y372908D01*
Y374117D01*
X578660Y374722D01*
X579265Y375326D01*
X579870Y375629D01*
X583497Y377412D02*
X583800Y378017D01*
X584707Y378924D01*
X578358D01*
X583497Y382068D02*
X583800Y382673D01*
X584707Y383580D01*
X578358D01*
X582590Y390654D02*
X581684Y390351D01*
X581079Y389747D01*
X580776Y388840D01*
Y388538D01*
X581079Y387631D01*
X581684Y387026D01*
X582590Y386724D01*
X582893D01*
X583800Y387026D01*
X584404Y387631D01*
X584707Y388538D01*
Y388840D01*
X584404Y389747D01*
X583800Y390351D01*
X582590Y390654D01*
X581079D01*
X579567Y390351D01*
X578660Y389747D01*
X578358Y388840D01*
Y388235D01*
X578660Y387328D01*
X579265Y387026D01*
X560869Y335545D02*
X561172Y336150D01*
X561776Y336754D01*
X562381Y337057D01*
X563590D01*
X564195Y336754D01*
X564799Y336150D01*
X565102Y335545D01*
X565404Y334638D01*
Y333126D01*
X565102Y332220D01*
X564799Y331615D01*
X564195Y331010D01*
X563590Y330708D01*
X562381D01*
X561776Y331010D01*
X561172Y331615D01*
X560869Y332220D01*
X559086Y335847D02*
X558481Y336150D01*
X557574Y337057D01*
Y330708D01*
X554128Y335545D02*
Y335847D01*
X553825Y336452D01*
X553523Y336754D01*
X552918Y337057D01*
X551709D01*
X551105Y336754D01*
X550802Y336452D01*
X550500Y335847D01*
Y335243D01*
X550802Y334638D01*
X551407Y333731D01*
X554430Y330708D01*
X550197D01*
X544846Y334940D02*
X545149Y334034D01*
X545754Y333429D01*
X546660Y333126D01*
X546963D01*
X547870Y333429D01*
X548474Y334034D01*
X548777Y334940D01*
Y335243D01*
X548474Y336150D01*
X547870Y336754D01*
X546963Y337057D01*
X546660D01*
X545754Y336754D01*
X545149Y336150D01*
X544846Y334940D01*
Y333429D01*
X545149Y331917D01*
X545754Y331010D01*
X546660Y330708D01*
X547265D01*
X548172Y331010D01*
X548474Y331615D01*
X520965Y343625D02*
X521570Y343322D01*
X522174Y342718D01*
X522477Y342113D01*
Y340904D01*
X522174Y340299D01*
X521570Y339695D01*
X520965Y339392D01*
X520058Y339090D01*
X518546D01*
X517640Y339392D01*
X517035Y339695D01*
X516430Y340299D01*
X516128Y340904D01*
Y342113D01*
X516430Y342718D01*
X517035Y343322D01*
X517640Y343625D01*
X521267Y345408D02*
X521570Y346013D01*
X522477Y346920D01*
X516128D01*
X522477Y350669D02*
Y353994D01*
X520058Y352180D01*
Y353087D01*
X519756Y353692D01*
X519454Y353994D01*
X518546Y354296D01*
X517942D01*
X517035Y353994D01*
X516430Y353390D01*
X516128Y352483D01*
Y351576D01*
X516430Y350669D01*
X516733Y350366D01*
X517337Y350064D01*
X522477Y359950D02*
X516128Y356927D01*
X522477Y355717D02*
Y359950D01*
X488388Y368527D02*
X488690Y369131D01*
X489295Y369736D01*
X489899Y370038D01*
X491109D01*
X491713Y369736D01*
X492318Y369131D01*
X492620Y368527D01*
X492923Y367620D01*
Y366108D01*
X492620Y365201D01*
X492318Y364597D01*
X491713Y363992D01*
X491109Y363690D01*
X489899D01*
X489295Y363992D01*
X488690Y364597D01*
X488388Y365201D01*
X486604Y368829D02*
X485999Y369131D01*
X485093Y370038D01*
Y363690D01*
X481344Y370038D02*
X478018D01*
X479832Y367620D01*
X478925D01*
X478321Y367317D01*
X478018Y367015D01*
X477716Y366108D01*
Y365504D01*
X478018Y364597D01*
X478623Y363992D01*
X479530Y363690D01*
X480437D01*
X481344Y363992D01*
X481646Y364294D01*
X481948Y364899D01*
X472365Y367922D02*
X472667Y367015D01*
X473272Y366410D01*
X474179Y366108D01*
X474481D01*
X475388Y366410D01*
X475993Y367015D01*
X476295Y367922D01*
Y368224D01*
X475993Y369131D01*
X475388Y369736D01*
X474481Y370038D01*
X474179D01*
X473272Y369736D01*
X472667Y369131D01*
X472365Y367922D01*
Y366410D01*
X472667Y364899D01*
X473272Y363992D01*
X474179Y363690D01*
X474784D01*
X475690Y363992D01*
X475993Y364597D01*
X415073Y203719D02*
X415376Y204324D01*
X415980Y204928D01*
X416585Y205231D01*
X417794D01*
X418399Y204928D01*
X419003Y204324D01*
X419306Y203719D01*
X419608Y202812D01*
Y201301D01*
X419306Y200394D01*
X419003Y199789D01*
X418399Y199184D01*
X417794Y198882D01*
X416585D01*
X415980Y199184D01*
X415376Y199789D01*
X415073Y200394D01*
X413290Y204021D02*
X412685Y204324D01*
X411778Y205231D01*
Y198882D01*
X405611Y205231D02*
X408634Y200998D01*
X404099D01*
X405611Y205231D02*
Y198882D01*
X401167Y205231D02*
X402074Y204928D01*
X402678Y204021D01*
X402981Y202510D01*
Y201603D01*
X402678Y200091D01*
X402074Y199184D01*
X401167Y198882D01*
X400562D01*
X399655Y199184D01*
X399050Y200091D01*
X398748Y201603D01*
Y202510D01*
X399050Y204021D01*
X399655Y204928D01*
X400562Y205231D01*
X401167D01*
X485833Y408642D02*
X486135Y409247D01*
X486740Y409852D01*
X487345Y410154D01*
X488554D01*
X489159Y409852D01*
X489763Y409247D01*
X490065Y408642D01*
X490368Y407735D01*
Y406224D01*
X490065Y405317D01*
X489763Y404712D01*
X489159Y404108D01*
X488554Y403805D01*
X487345D01*
X486740Y404108D01*
X486135Y404712D01*
X485833Y405317D01*
X484049Y408945D02*
X483445Y409247D01*
X482538Y410154D01*
Y403805D01*
X475766Y410154D02*
X478789D01*
X479091Y407433D01*
X478789Y407735D01*
X477882Y408038D01*
X476975D01*
X476068Y407735D01*
X475464Y407131D01*
X475161Y406224D01*
Y405619D01*
X475464Y404712D01*
X476068Y404108D01*
X476975Y403805D01*
X477882D01*
X478789Y404108D01*
X479091Y404410D01*
X479394Y405015D01*
X473438Y408642D02*
Y408945D01*
X473136Y409549D01*
X472834Y409852D01*
X472229Y410154D01*
X471020D01*
X470415Y409852D01*
X470113Y409549D01*
X469810Y408945D01*
Y408340D01*
X470113Y407735D01*
X470717Y406828D01*
X473741Y403805D01*
X469508D01*
X485738Y388868D02*
X486041Y389473D01*
X486645Y390078D01*
X487250Y390380D01*
X488459D01*
X489064Y390078D01*
X489669Y389473D01*
X489971Y388868D01*
X490273Y387962D01*
Y386450D01*
X489971Y385543D01*
X489669Y384938D01*
X489064Y384334D01*
X488459Y384031D01*
X487250D01*
X486645Y384334D01*
X486041Y384938D01*
X485738Y385543D01*
X483955Y389171D02*
X483350Y389473D01*
X482443Y390380D01*
Y384031D01*
X475671Y390380D02*
X478694D01*
X478997Y387659D01*
X478694Y387962D01*
X477788Y388264D01*
X476880D01*
X475974Y387962D01*
X475369Y387357D01*
X475067Y386450D01*
Y385845D01*
X475369Y384938D01*
X475974Y384334D01*
X476880Y384031D01*
X477788D01*
X478694Y384334D01*
X478997Y384636D01*
X479299Y385241D01*
X470623Y390380D02*
X473646Y386147D01*
X469111D01*
X470623Y390380D02*
Y384031D01*
X385609Y348245D02*
X385912Y348850D01*
X386516Y349454D01*
X387121Y349757D01*
X388330D01*
X388935Y349454D01*
X389539Y348850D01*
X389842Y348245D01*
X390144Y347338D01*
Y345826D01*
X389842Y344920D01*
X389539Y344315D01*
X388935Y343710D01*
X388330Y343408D01*
X387121D01*
X386516Y343710D01*
X385912Y344315D01*
X385609Y344920D01*
X383523Y348245D02*
Y348547D01*
X383221Y349152D01*
X382919Y349454D01*
X382314Y349757D01*
X381105D01*
X380500Y349454D01*
X380198Y349152D01*
X379896Y348547D01*
Y347943D01*
X380198Y347338D01*
X380802Y346431D01*
X383826Y343408D01*
X379593D01*
X376358Y349757D02*
X377265Y349454D01*
X377870Y348547D01*
X378172Y347036D01*
Y346129D01*
X377870Y344617D01*
X377265Y343710D01*
X376358Y343408D01*
X375754D01*
X374847Y343710D01*
X374242Y344617D01*
X373940Y346129D01*
Y347036D01*
X374242Y348547D01*
X374847Y349454D01*
X375754Y349757D01*
X376358D01*
X371914D02*
X368589D01*
X370403Y347338D01*
X369496D01*
X368891Y347036D01*
X368589Y346734D01*
X368287Y345826D01*
Y345222D01*
X368589Y344315D01*
X369193Y343710D01*
X370101Y343408D01*
X371007D01*
X371914Y343710D01*
X372217Y344013D01*
X372519Y344617D01*
X403389Y429017D02*
X403692Y429622D01*
X404296Y430226D01*
X404901Y430529D01*
X406110D01*
X406715Y430226D01*
X407319Y429622D01*
X407622Y429017D01*
X407924Y428110D01*
Y426599D01*
X407622Y425692D01*
X407319Y425087D01*
X406715Y424482D01*
X406110Y424180D01*
X404901D01*
X404296Y424482D01*
X403692Y425087D01*
X403389Y425692D01*
X401303Y429017D02*
Y429319D01*
X401001Y429924D01*
X400699Y430226D01*
X400094Y430529D01*
X398885D01*
X398280Y430226D01*
X397978Y429924D01*
X397676Y429319D01*
Y428715D01*
X397978Y428110D01*
X398582Y427203D01*
X401606Y424180D01*
X397373D01*
X394138Y430529D02*
X395045Y430226D01*
X395650Y429319D01*
X395952Y427808D01*
Y426901D01*
X395650Y425389D01*
X395045Y424482D01*
X394138Y424180D01*
X393534D01*
X392627Y424482D01*
X392022Y425389D01*
X391720Y426901D01*
Y427808D01*
X392022Y429319D01*
X392627Y430226D01*
X393534Y430529D01*
X394138D01*
X387276D02*
X390299Y426296D01*
X385764D01*
X387276Y430529D02*
Y424180D01*
X377963Y393917D02*
X378568Y393614D01*
X379172Y393010D01*
X379475Y392405D01*
Y391196D01*
X379172Y390591D01*
X378568Y389987D01*
X377963Y389684D01*
X377056Y389382D01*
X375545D01*
X374638Y389684D01*
X374033Y389987D01*
X373428Y390591D01*
X373126Y391196D01*
Y392405D01*
X373428Y393010D01*
X374033Y393614D01*
X374638Y393917D01*
X377963Y396003D02*
X378265D01*
X378870Y396305D01*
X379172Y396607D01*
X379475Y397212D01*
Y398421D01*
X379172Y399026D01*
X378870Y399328D01*
X378265Y399631D01*
X377661D01*
X377056Y399328D01*
X376149Y398724D01*
X373126Y395700D01*
Y399933D01*
X379475Y403168D02*
X379172Y402261D01*
X378265Y401656D01*
X376754Y401354D01*
X375847D01*
X374335Y401656D01*
X373428Y402261D01*
X373126Y403168D01*
Y403772D01*
X373428Y404679D01*
X374335Y405284D01*
X375847Y405586D01*
X376754D01*
X378265Y405284D01*
X379172Y404679D01*
X379475Y403772D01*
Y403168D01*
Y410635D02*
Y407612D01*
X376754Y407309D01*
X377056Y407612D01*
X377358Y408519D01*
Y409426D01*
X377056Y410332D01*
X376451Y410937D01*
X375545Y411239D01*
X374940D01*
X374033Y410937D01*
X373428Y410332D01*
X373126Y409426D01*
Y408519D01*
X373428Y407612D01*
X373731Y407309D01*
X374335Y407007D01*
X400847Y356804D02*
X401149Y357409D01*
X401754Y358013D01*
X402358Y358316D01*
X403568D01*
X404172Y358013D01*
X404777Y357409D01*
X405079Y356804D01*
X405382Y355897D01*
Y354385D01*
X405079Y353479D01*
X404777Y352874D01*
X404172Y352269D01*
X403568Y351967D01*
X402358D01*
X401754Y352269D01*
X401149Y352874D01*
X400847Y353479D01*
X398761Y356804D02*
Y357106D01*
X398458Y357711D01*
X398156Y358013D01*
X397551Y358316D01*
X396342D01*
X395738Y358013D01*
X395435Y357711D01*
X395133Y357106D01*
Y356502D01*
X395435Y355897D01*
X396040Y354990D01*
X399063Y351967D01*
X394831D01*
X391596Y358316D02*
X392503Y358013D01*
X393107Y357106D01*
X393410Y355595D01*
Y354688D01*
X393107Y353176D01*
X392503Y352269D01*
X391596Y351967D01*
X390991D01*
X390084Y352269D01*
X389480Y353176D01*
X389177Y354688D01*
Y355595D01*
X389480Y357106D01*
X390084Y358013D01*
X390991Y358316D01*
X391596D01*
X386245D02*
X387152Y358013D01*
X387454Y357409D01*
Y356804D01*
X387152Y356199D01*
X386547Y355897D01*
X385338Y355595D01*
X384431Y355293D01*
X383826Y354688D01*
X383524Y354083D01*
Y353176D01*
X383826Y352572D01*
X384129Y352269D01*
X385036Y351967D01*
X386245D01*
X387152Y352269D01*
X387454Y352572D01*
X387757Y353176D01*
Y354083D01*
X387454Y354688D01*
X386850Y355293D01*
X385943Y355595D01*
X384733Y355897D01*
X384129Y356199D01*
X383826Y356804D01*
Y357409D01*
X384129Y358013D01*
X385036Y358316D01*
X386245D01*
X328967Y394473D02*
X329270Y395078D01*
X329874Y395682D01*
X330479Y395985D01*
X331688D01*
X332293Y395682D01*
X332897Y395078D01*
X333200Y394473D01*
X333502Y393566D01*
Y392054D01*
X333200Y391148D01*
X332897Y390543D01*
X332293Y389938D01*
X331688Y389636D01*
X330479D01*
X329874Y389938D01*
X329270Y390543D01*
X328967Y391148D01*
X326881Y394473D02*
Y394775D01*
X326579Y395380D01*
X326277Y395682D01*
X325672Y395985D01*
X324463D01*
X323858Y395682D01*
X323556Y395380D01*
X323254Y394775D01*
Y394171D01*
X323556Y393566D01*
X324160Y392659D01*
X327184Y389636D01*
X322951D01*
X321530Y394775D02*
X320926Y395078D01*
X320019Y395985D01*
Y389636D01*
X315061Y395985D02*
X315968Y395682D01*
X316572Y394775D01*
X316875Y393264D01*
Y392357D01*
X316572Y390845D01*
X315968Y389938D01*
X315061Y389636D01*
X314456D01*
X313549Y389938D01*
X312945Y390845D01*
X312642Y392357D01*
Y393264D01*
X312945Y394775D01*
X313549Y395682D01*
X314456Y395985D01*
X315061D01*
X358659Y416269D02*
X359264Y415966D01*
X359868Y415362D01*
X360171Y414757D01*
Y413548D01*
X359868Y412943D01*
X359264Y412339D01*
X358659Y412036D01*
X357752Y411734D01*
X356241D01*
X355334Y412036D01*
X354729Y412339D01*
X354124Y412943D01*
X353822Y413548D01*
Y414757D01*
X354124Y415362D01*
X354729Y415966D01*
X355334Y416269D01*
X358659Y418355D02*
X358961D01*
X359566Y418657D01*
X359868Y418959D01*
X360171Y419564D01*
Y420773D01*
X359868Y421378D01*
X359566Y421680D01*
X358961Y421982D01*
X358357D01*
X357752Y421680D01*
X356845Y421076D01*
X353822Y418052D01*
Y422285D01*
X358961Y423706D02*
X359264Y424310D01*
X360171Y425217D01*
X353822D01*
X358961Y428361D02*
X359264Y428966D01*
X360171Y429873D01*
X353822D01*
X340397Y316241D02*
X340700Y316846D01*
X341304Y317450D01*
X341909Y317753D01*
X343118D01*
X343723Y317450D01*
X344327Y316846D01*
X344630Y316241D01*
X344932Y315334D01*
Y313822D01*
X344630Y312916D01*
X344327Y312311D01*
X343723Y311706D01*
X343118Y311404D01*
X341909D01*
X341304Y311706D01*
X340700Y312311D01*
X340397Y312916D01*
X338311Y316241D02*
Y316543D01*
X338009Y317148D01*
X337707Y317450D01*
X337102Y317753D01*
X335893D01*
X335288Y317450D01*
X334986Y317148D01*
X334683Y316543D01*
Y315939D01*
X334986Y315334D01*
X335590Y314427D01*
X338614Y311404D01*
X334381D01*
X332960Y316543D02*
X332356Y316846D01*
X331449Y317753D01*
Y311404D01*
X328002Y316241D02*
Y316543D01*
X327700Y317148D01*
X327398Y317450D01*
X326793Y317753D01*
X325584D01*
X324979Y317450D01*
X324677Y317148D01*
X324375Y316543D01*
Y315939D01*
X324677Y315334D01*
X325281Y314427D01*
X328305Y311404D01*
X324072D01*
X329221Y372375D02*
X329524Y372980D01*
X330128Y373584D01*
X330733Y373887D01*
X331942D01*
X332547Y373584D01*
X333151Y372980D01*
X333454Y372375D01*
X333756Y371468D01*
Y369957D01*
X333454Y369050D01*
X333151Y368445D01*
X332547Y367840D01*
X331942Y367538D01*
X330733D01*
X330128Y367840D01*
X329524Y368445D01*
X329221Y369050D01*
X327135Y372375D02*
Y372677D01*
X326833Y373282D01*
X326531Y373584D01*
X325926Y373887D01*
X324717D01*
X324112Y373584D01*
X323810Y373282D01*
X323507Y372677D01*
Y372073D01*
X323810Y371468D01*
X324414Y370561D01*
X327438Y367538D01*
X323205D01*
X321784Y372677D02*
X321180Y372980D01*
X320273Y373887D01*
Y367538D01*
X316524Y373887D02*
X313199D01*
X315012Y371468D01*
X314105D01*
X313501Y371166D01*
X313199Y370863D01*
X312896Y369957D01*
Y369352D01*
X313199Y368445D01*
X313803Y367840D01*
X314710Y367538D01*
X315617D01*
X316524Y367840D01*
X316826Y368143D01*
X317129Y368747D01*
X417841Y411951D02*
X418446Y411648D01*
X419050Y411044D01*
X419353Y410439D01*
Y409230D01*
X419050Y408625D01*
X418446Y408021D01*
X417841Y407718D01*
X416934Y407416D01*
X415423D01*
X414516Y407718D01*
X413911Y408021D01*
X413306Y408625D01*
X413004Y409230D01*
Y410439D01*
X413306Y411044D01*
X413911Y411648D01*
X414516Y411951D01*
X417841Y414037D02*
X418143D01*
X418748Y414339D01*
X419050Y414641D01*
X419353Y415246D01*
Y416455D01*
X419050Y417060D01*
X418748Y417362D01*
X418143Y417664D01*
X417539D01*
X416934Y417362D01*
X416027Y416758D01*
X413004Y413734D01*
Y417967D01*
X418143Y419388D02*
X418446Y419992D01*
X419353Y420899D01*
X413004D01*
X418446Y427671D02*
X419050Y427369D01*
X419353Y426462D01*
Y425857D01*
X419050Y424950D01*
X418143Y424346D01*
X416632Y424043D01*
X415120D01*
X413911Y424346D01*
X413306Y424950D01*
X413004Y425857D01*
Y426160D01*
X413306Y427066D01*
X413911Y427671D01*
X414818Y427974D01*
X415120D01*
X416027Y427671D01*
X416632Y427066D01*
X416934Y426160D01*
Y425857D01*
X416632Y424950D01*
X416027Y424346D01*
X415120Y424043D01*
X429297Y379995D02*
X429600Y380600D01*
X430204Y381204D01*
X430809Y381507D01*
X432018D01*
X432623Y381204D01*
X433227Y380600D01*
X433530Y379995D01*
X433832Y379088D01*
Y377576D01*
X433530Y376670D01*
X433227Y376065D01*
X432623Y375460D01*
X432018Y375158D01*
X430809D01*
X430204Y375460D01*
X429600Y376065D01*
X429297Y376670D01*
X427211Y379995D02*
Y380297D01*
X426909Y380902D01*
X426607Y381204D01*
X426002Y381507D01*
X424793D01*
X424188Y381204D01*
X423886Y380902D01*
X423583Y380297D01*
Y379693D01*
X423886Y379088D01*
X424490Y378181D01*
X427514Y375158D01*
X423281D01*
X421860Y380297D02*
X421256Y380600D01*
X420349Y381507D01*
Y375158D01*
X412972Y381507D02*
X415995Y375158D01*
X417205Y381507D02*
X412972D01*
X424471Y342149D02*
X424774Y342754D01*
X425378Y343358D01*
X425983Y343661D01*
X427192D01*
X427797Y343358D01*
X428401Y342754D01*
X428704Y342149D01*
X429006Y341242D01*
Y339730D01*
X428704Y338824D01*
X428401Y338219D01*
X427797Y337614D01*
X427192Y337312D01*
X425983D01*
X425378Y337614D01*
X424774Y338219D01*
X424471Y338824D01*
X422385Y342149D02*
Y342451D01*
X422083Y343056D01*
X421781Y343358D01*
X421176Y343661D01*
X419967D01*
X419362Y343358D01*
X419060Y343056D01*
X418758Y342451D01*
Y341847D01*
X419060Y341242D01*
X419664Y340335D01*
X422688Y337312D01*
X418455D01*
X417034Y342451D02*
X416430Y342754D01*
X415523Y343661D01*
Y337312D01*
X410867Y343661D02*
X411774Y343358D01*
X412076Y342754D01*
Y342149D01*
X411774Y341544D01*
X411169Y341242D01*
X409960Y340940D01*
X409053Y340638D01*
X408448Y340033D01*
X408146Y339428D01*
Y338521D01*
X408448Y337917D01*
X408751Y337614D01*
X409658Y337312D01*
X410867D01*
X411774Y337614D01*
X412076Y337917D01*
X412379Y338521D01*
Y339428D01*
X412076Y340033D01*
X411472Y340638D01*
X410565Y340940D01*
X409356Y341242D01*
X408751Y341544D01*
X408448Y342149D01*
Y342754D01*
X408751Y343358D01*
X409658Y343661D01*
X410867D01*
X290105Y420381D02*
X290408Y420986D01*
X291012Y421590D01*
X291617Y421893D01*
X292826D01*
X293431Y421590D01*
X294035Y420986D01*
X294338Y420381D01*
X294640Y419474D01*
Y417962D01*
X294338Y417056D01*
X294035Y416451D01*
X293431Y415846D01*
X292826Y415544D01*
X291617D01*
X291012Y415846D01*
X290408Y416451D01*
X290105Y417056D01*
X288019Y420381D02*
Y420683D01*
X287717Y421288D01*
X287415Y421590D01*
X286810Y421893D01*
X285601D01*
X284996Y421590D01*
X284694Y421288D01*
X284391Y420683D01*
Y420079D01*
X284694Y419474D01*
X285298Y418567D01*
X288322Y415544D01*
X284089D01*
X282668Y420683D02*
X282064Y420986D01*
X281157Y421893D01*
Y415544D01*
X274083Y419776D02*
X274385Y418870D01*
X274989Y418265D01*
X275896Y417962D01*
X276199D01*
X277106Y418265D01*
X277710Y418870D01*
X278013Y419776D01*
Y420079D01*
X277710Y420986D01*
X277106Y421590D01*
X276199Y421893D01*
X275896D01*
X274989Y421590D01*
X274385Y420986D01*
X274083Y419776D01*
Y418265D01*
X274385Y416753D01*
X274989Y415846D01*
X275896Y415544D01*
X276501D01*
X277408Y415846D01*
X277710Y416451D01*
X297979Y372375D02*
X298282Y372980D01*
X298886Y373584D01*
X299491Y373887D01*
X300700D01*
X301305Y373584D01*
X301909Y372980D01*
X302212Y372375D01*
X302514Y371468D01*
Y369957D01*
X302212Y369050D01*
X301909Y368445D01*
X301305Y367840D01*
X300700Y367538D01*
X299491D01*
X298886Y367840D01*
X298282Y368445D01*
X297979Y369050D01*
X295893Y372375D02*
Y372677D01*
X295591Y373282D01*
X295289Y373584D01*
X294684Y373887D01*
X293475D01*
X292870Y373584D01*
X292568Y373282D01*
X292265Y372677D01*
Y372073D01*
X292568Y371468D01*
X293172Y370561D01*
X296196Y367538D01*
X291963D01*
X290240Y372375D02*
Y372677D01*
X289938Y373282D01*
X289635Y373584D01*
X289031Y373887D01*
X287821D01*
X287217Y373584D01*
X286915Y373282D01*
X286612Y372677D01*
Y372073D01*
X286915Y371468D01*
X287519Y370561D01*
X290542Y367538D01*
X286310D01*
X283075Y373887D02*
X283982Y373584D01*
X284587Y372677D01*
X284889Y371166D01*
Y370259D01*
X284587Y368747D01*
X283982Y367840D01*
X283075Y367538D01*
X282470D01*
X281563Y367840D01*
X280959Y368747D01*
X280657Y370259D01*
Y371166D01*
X280959Y372677D01*
X281563Y373584D01*
X282470Y373887D01*
X283075D01*
X399071Y413777D02*
X399374Y414382D01*
X399978Y414986D01*
X400583Y415289D01*
X401792D01*
X402397Y414986D01*
X403001Y414382D01*
X403304Y413777D01*
X403606Y412870D01*
Y411358D01*
X403304Y410452D01*
X403001Y409847D01*
X402397Y409242D01*
X401792Y408940D01*
X400583D01*
X399978Y409242D01*
X399374Y409847D01*
X399071Y410452D01*
X396985Y413777D02*
Y414079D01*
X396683Y414684D01*
X396381Y414986D01*
X395776Y415289D01*
X394567D01*
X393962Y414986D01*
X393660Y414684D01*
X393358Y414079D01*
Y413475D01*
X393660Y412870D01*
X394264Y411963D01*
X397288Y408940D01*
X393055D01*
X391332Y413777D02*
Y414079D01*
X391030Y414684D01*
X390727Y414986D01*
X390123Y415289D01*
X388913D01*
X388309Y414986D01*
X388007Y414684D01*
X387704Y414079D01*
Y413475D01*
X388007Y412870D01*
X388611Y411963D01*
X391634Y408940D01*
X387402D01*
X385981Y414079D02*
X385376Y414382D01*
X384469Y415289D01*
Y408940D01*
X304417Y330268D02*
X304720Y330873D01*
X305324Y331477D01*
X305929Y331780D01*
X307138D01*
X307743Y331477D01*
X308347Y330873D01*
X308650Y330268D01*
X308952Y329361D01*
Y327850D01*
X308650Y326943D01*
X308347Y326338D01*
X307743Y325733D01*
X307138Y325431D01*
X305929D01*
X305324Y325733D01*
X304720Y326338D01*
X304417Y326943D01*
X302331Y330268D02*
Y330570D01*
X302029Y331175D01*
X301727Y331477D01*
X301122Y331780D01*
X299913D01*
X299308Y331477D01*
X299006Y331175D01*
X298704Y330570D01*
Y329966D01*
X299006Y329361D01*
X299611Y328454D01*
X302634Y325431D01*
X298401D01*
X296678Y330268D02*
Y330570D01*
X296376Y331175D01*
X296073Y331477D01*
X295469Y331780D01*
X294259D01*
X293655Y331477D01*
X293353Y331175D01*
X293050Y330570D01*
Y329966D01*
X293353Y329361D01*
X293957Y328454D01*
X296980Y325431D01*
X292748D01*
X291025Y330268D02*
Y330570D01*
X290723Y331175D01*
X290420Y331477D01*
X289816Y331780D01*
X288606D01*
X288002Y331477D01*
X287699Y331175D01*
X287397Y330570D01*
Y329966D01*
X287699Y329361D01*
X288304Y328454D01*
X291327Y325431D01*
X287095D01*
X607579Y249137D02*
X608184Y248834D01*
X608788Y248230D01*
X609091Y247625D01*
Y246416D01*
X608788Y245811D01*
X608184Y245207D01*
X607579Y244904D01*
X606672Y244602D01*
X605160D01*
X604254Y244904D01*
X603649Y245207D01*
X603044Y245811D01*
X602742Y246416D01*
Y247625D01*
X603044Y248230D01*
X603649Y248834D01*
X604254Y249137D01*
X609091Y254548D02*
Y251525D01*
X606370Y251223D01*
X606672Y251525D01*
X606974Y252432D01*
Y253339D01*
X606672Y254246D01*
X606068Y254851D01*
X605160Y255153D01*
X604556D01*
X603649Y254851D01*
X603044Y254246D01*
X602742Y253339D01*
Y252432D01*
X603044Y251525D01*
X603347Y251223D01*
X603951Y250920D01*
X609091Y258388D02*
X608788Y257481D01*
X607881Y256876D01*
X606370Y256574D01*
X605463D01*
X603951Y256876D01*
X603044Y257481D01*
X602742Y258388D01*
Y258992D01*
X603044Y259899D01*
X603951Y260504D01*
X605463Y260806D01*
X606370D01*
X607881Y260504D01*
X608788Y259899D01*
X609091Y258992D01*
Y258388D01*
X606974Y266157D02*
X606068Y265855D01*
X605463Y265250D01*
X605160Y264343D01*
Y264041D01*
X605463Y263134D01*
X606068Y262529D01*
X606974Y262227D01*
X607277D01*
X608184Y262529D01*
X608788Y263134D01*
X609091Y264041D01*
Y264343D01*
X608788Y265250D01*
X608184Y265855D01*
X606974Y266157D01*
X605463D01*
X603951Y265855D01*
X603044Y265250D01*
X602742Y264343D01*
Y263739D01*
X603044Y262832D01*
X603649Y262529D01*
X583449Y352261D02*
X584054Y351958D01*
X584658Y351354D01*
X584961Y350749D01*
Y349540D01*
X584658Y348935D01*
X584054Y348331D01*
X583449Y348028D01*
X582542Y347726D01*
X581031D01*
X580124Y348028D01*
X579519Y348331D01*
X578914Y348935D01*
X578612Y349540D01*
Y350749D01*
X578914Y351354D01*
X579519Y351958D01*
X580124Y352261D01*
X583751Y354044D02*
X584054Y354649D01*
X584961Y355556D01*
X578612D01*
X583751Y358700D02*
X584054Y359305D01*
X584961Y360212D01*
X578612D01*
X584961Y364867D02*
X584658Y363960D01*
X584054Y363658D01*
X583449D01*
X582844Y363960D01*
X582542Y364565D01*
X582240Y365774D01*
X581937Y366681D01*
X581333Y367286D01*
X580728Y367588D01*
X579821D01*
X579217Y367286D01*
X578914Y366983D01*
X578612Y366077D01*
Y364867D01*
X578914Y363960D01*
X579217Y363658D01*
X579821Y363356D01*
X580728D01*
X581333Y363658D01*
X581937Y364263D01*
X582240Y365170D01*
X582542Y366379D01*
X582844Y366983D01*
X583449Y367286D01*
X584054D01*
X584658Y366983D01*
X584961Y366077D01*
Y364867D01*
X415327Y193559D02*
X415630Y194164D01*
X416234Y194768D01*
X416839Y195071D01*
X418048D01*
X418653Y194768D01*
X419257Y194164D01*
X419560Y193559D01*
X419862Y192652D01*
Y191140D01*
X419560Y190234D01*
X419257Y189629D01*
X418653Y189024D01*
X418048Y188722D01*
X416839D01*
X416234Y189024D01*
X415630Y189629D01*
X415327Y190234D01*
X413544Y193861D02*
X412939Y194164D01*
X412032Y195071D01*
Y188722D01*
X408283Y195071D02*
X404958D01*
X406772Y192652D01*
X405865D01*
X405260Y192350D01*
X404958Y192048D01*
X404655Y191140D01*
Y190536D01*
X404958Y189629D01*
X405563Y189024D01*
X406469Y188722D01*
X407376D01*
X408283Y189024D01*
X408586Y189327D01*
X408888Y189931D01*
X401723Y195071D02*
X402630Y194768D01*
X402932Y194164D01*
Y193559D01*
X402630Y192954D01*
X402025Y192652D01*
X400816Y192350D01*
X399909Y192048D01*
X399305Y191443D01*
X399002Y190838D01*
Y189931D01*
X399305Y189327D01*
X399607Y189024D01*
X400514Y188722D01*
X401723D01*
X402630Y189024D01*
X402932Y189327D01*
X403235Y189931D01*
Y190838D01*
X402932Y191443D01*
X402328Y192048D01*
X401421Y192350D01*
X400211Y192652D01*
X399607Y192954D01*
X399305Y193559D01*
Y194164D01*
X399607Y194768D01*
X400514Y195071D01*
X401723D01*
X535939Y421132D02*
X529590D01*
X535939D02*
Y423853D01*
X535636Y424760D01*
X535334Y425062D01*
X534729Y425364D01*
X534125D01*
X533520Y425062D01*
X533218Y424760D01*
X532915Y423853D01*
Y421132D01*
Y423248D02*
X529590Y425364D01*
X535939Y427390D02*
Y430715D01*
X533520Y428901D01*
Y429809D01*
X533218Y430413D01*
X532915Y430715D01*
X532009Y431018D01*
X531404D01*
X530497Y430715D01*
X529892Y430111D01*
X529590Y429204D01*
Y428297D01*
X529892Y427390D01*
X530195Y427088D01*
X530799Y426785D01*
X535939Y434253D02*
X535636Y433346D01*
X534729Y432741D01*
X533218Y432439D01*
X532311D01*
X530799Y432741D01*
X529892Y433346D01*
X529590Y434253D01*
Y434857D01*
X529892Y435764D01*
X530799Y436369D01*
X532311Y436671D01*
X533218D01*
X534729Y436369D01*
X535636Y435764D01*
X535939Y434857D01*
Y434253D01*
X534427Y438394D02*
X534729D01*
X535334Y438697D01*
X535636Y438999D01*
X535939Y439604D01*
Y440813D01*
X535636Y441417D01*
X535334Y441720D01*
X534729Y442022D01*
X534125D01*
X533520Y441720D01*
X532613Y441115D01*
X529590Y438092D01*
Y442324D01*
X535760Y604407D02*
Y598058D01*
Y604407D02*
X533039D01*
X532132Y604105D01*
X531829Y603802D01*
X531527Y603198D01*
Y602593D01*
X531829Y601988D01*
X532132Y601686D01*
X533039Y601384D01*
X535760D01*
X533643D02*
X531527Y598058D01*
X529502Y604407D02*
X526176D01*
X527990Y601988D01*
X527083D01*
X526479Y601686D01*
X526176Y601384D01*
X525874Y600477D01*
Y599872D01*
X526176Y598965D01*
X526781Y598361D01*
X527688Y598058D01*
X528595D01*
X529502Y598361D01*
X529804Y598663D01*
X530106Y599268D01*
X522639Y604407D02*
X523546Y604105D01*
X524151Y603198D01*
X524453Y601686D01*
Y600779D01*
X524151Y599268D01*
X523546Y598361D01*
X522639Y598058D01*
X522034D01*
X521128Y598361D01*
X520523Y599268D01*
X520221Y600779D01*
Y601686D01*
X520523Y603198D01*
X521128Y604105D01*
X522034Y604407D01*
X522639D01*
X515777D02*
X518800Y600174D01*
X514265D01*
X515777Y604407D02*
Y598058D01*
X319289Y338799D02*
X319894Y338496D01*
X320498Y337892D01*
X320801Y337287D01*
Y336078D01*
X320498Y335473D01*
X319894Y334869D01*
X319289Y334566D01*
X318382Y334264D01*
X316870D01*
X315964Y334566D01*
X315359Y334869D01*
X314754Y335473D01*
X314452Y336078D01*
Y337287D01*
X314754Y337892D01*
X315359Y338496D01*
X315964Y338799D01*
X319289Y340885D02*
X319591D01*
X320196Y341187D01*
X320498Y341489D01*
X320801Y342094D01*
Y343303D01*
X320498Y343908D01*
X320196Y344210D01*
X319591Y344512D01*
X318987D01*
X318382Y344210D01*
X317475Y343606D01*
X314452Y340582D01*
Y344815D01*
X320801Y348050D02*
X320498Y347143D01*
X319591Y346538D01*
X318080Y346236D01*
X317173D01*
X315661Y346538D01*
X314754Y347143D01*
X314452Y348050D01*
Y348654D01*
X314754Y349561D01*
X315661Y350166D01*
X317173Y350468D01*
X318080D01*
X319591Y350166D01*
X320498Y349561D01*
X320801Y348654D01*
Y348050D01*
X318684Y355819D02*
X317778Y355517D01*
X317173Y354912D01*
X316870Y354005D01*
Y353703D01*
X317173Y352796D01*
X317778Y352191D01*
X318684Y351889D01*
X318987D01*
X319894Y352191D01*
X320498Y352796D01*
X320801Y353703D01*
Y354005D01*
X320498Y354912D01*
X319894Y355517D01*
X318684Y355819D01*
X317173D01*
X315661Y355517D01*
X314754Y354912D01*
X314452Y354005D01*
Y353401D01*
X314754Y352494D01*
X315359Y352191D01*
X440473Y220229D02*
X440776Y220834D01*
X441380Y221438D01*
X441985Y221741D01*
X443194D01*
X443799Y221438D01*
X444403Y220834D01*
X444706Y220229D01*
X445008Y219322D01*
Y217810D01*
X444706Y216904D01*
X444403Y216299D01*
X443799Y215694D01*
X443194Y215392D01*
X441985D01*
X441380Y215694D01*
X440776Y216299D01*
X440473Y216904D01*
X438690Y220531D02*
X438085Y220834D01*
X437178Y221741D01*
Y215392D01*
X432220Y221741D02*
X433127Y221438D01*
X433732Y220531D01*
X434034Y219020D01*
Y218113D01*
X433732Y216601D01*
X433127Y215694D01*
X432220Y215392D01*
X431615D01*
X430709Y215694D01*
X430104Y216601D01*
X429801Y218113D01*
Y219020D01*
X430104Y220531D01*
X430709Y221438D01*
X431615Y221741D01*
X432220D01*
X424450Y219624D02*
X424753Y218717D01*
X425358Y218113D01*
X426264Y217810D01*
X426567D01*
X427474Y218113D01*
X428078Y218717D01*
X428381Y219624D01*
Y219927D01*
X428078Y220834D01*
X427474Y221438D01*
X426567Y221741D01*
X426264D01*
X425358Y221438D01*
X424753Y220834D01*
X424450Y219624D01*
Y218113D01*
X424753Y216601D01*
X425358Y215694D01*
X426264Y215392D01*
X426869D01*
X427776Y215694D01*
X428078Y216299D01*
X433832Y399287D02*
Y392938D01*
Y399287D02*
X431111D01*
X430204Y398984D01*
X429902Y398682D01*
X429600Y398077D01*
Y397473D01*
X429902Y396868D01*
X430204Y396566D01*
X431111Y396264D01*
X433832D01*
X431716D02*
X429600Y392938D01*
X427876Y397775D02*
Y398077D01*
X427574Y398682D01*
X427272Y398984D01*
X426667Y399287D01*
X425458D01*
X424853Y398984D01*
X424551Y398682D01*
X424249Y398077D01*
Y397473D01*
X424551Y396868D01*
X425155Y395961D01*
X428179Y392938D01*
X423946D01*
X420712Y399287D02*
X421618Y398984D01*
X422223Y398077D01*
X422525Y396566D01*
Y395659D01*
X422223Y394147D01*
X421618Y393240D01*
X420712Y392938D01*
X420107D01*
X419200Y393240D01*
X418595Y394147D01*
X418293Y395659D01*
Y396566D01*
X418595Y398077D01*
X419200Y398984D01*
X420107Y399287D01*
X420712D01*
X412942Y397170D02*
X413244Y396264D01*
X413849Y395659D01*
X414756Y395356D01*
X415058D01*
X415965Y395659D01*
X416570Y396264D01*
X416872Y397170D01*
Y397473D01*
X416570Y398380D01*
X415965Y398984D01*
X415058Y399287D01*
X414756D01*
X413849Y398984D01*
X413244Y398380D01*
X412942Y397170D01*
Y395659D01*
X413244Y394147D01*
X413849Y393240D01*
X414756Y392938D01*
X415360D01*
X416268Y393240D01*
X416570Y393845D01*
X519949Y534379D02*
X520554Y534076D01*
X521158Y533472D01*
X521461Y532867D01*
Y531658D01*
X521158Y531053D01*
X520554Y530449D01*
X519949Y530146D01*
X519042Y529844D01*
X517531D01*
X516624Y530146D01*
X516019Y530449D01*
X515414Y531053D01*
X515112Y531658D01*
Y532867D01*
X515414Y533472D01*
X516019Y534076D01*
X516624Y534379D01*
X521461Y537674D02*
X521158Y536767D01*
X520554Y536465D01*
X519949D01*
X519344Y536767D01*
X519042Y537372D01*
X518740Y538581D01*
X518438Y539488D01*
X517833Y540093D01*
X517228Y540395D01*
X516321D01*
X515717Y540093D01*
X515414Y539790D01*
X515112Y538883D01*
Y537674D01*
X515414Y536767D01*
X515717Y536465D01*
X516321Y536162D01*
X517228D01*
X517833Y536465D01*
X518438Y537069D01*
X518740Y537976D01*
X519042Y539186D01*
X519344Y539790D01*
X519949Y540093D01*
X520554D01*
X521158Y539790D01*
X521461Y538883D01*
Y537674D01*
Y543630D02*
X521158Y542723D01*
X520251Y542118D01*
X518740Y541816D01*
X517833D01*
X516321Y542118D01*
X515414Y542723D01*
X515112Y543630D01*
Y544234D01*
X515414Y545141D01*
X516321Y545746D01*
X517833Y546048D01*
X518740D01*
X520251Y545746D01*
X521158Y545141D01*
X521461Y544234D01*
Y543630D01*
X519344Y551399D02*
X518438Y551097D01*
X517833Y550492D01*
X517531Y549585D01*
Y549283D01*
X517833Y548376D01*
X518438Y547771D01*
X519344Y547469D01*
X519647D01*
X520554Y547771D01*
X521158Y548376D01*
X521461Y549283D01*
Y549585D01*
X521158Y550492D01*
X520554Y551097D01*
X519344Y551399D01*
X517833D01*
X516321Y551097D01*
X515414Y550492D01*
X515112Y549585D01*
Y548981D01*
X515414Y548074D01*
X516019Y547771D01*
X486684Y352537D02*
X486987Y353142D01*
X487591Y353746D01*
X488196Y354049D01*
X489405D01*
X490010Y353746D01*
X490615Y353142D01*
X490917Y352537D01*
X491219Y351630D01*
Y350119D01*
X490917Y349212D01*
X490615Y348607D01*
X490010Y348003D01*
X489405Y347700D01*
X488196D01*
X487591Y348003D01*
X486987Y348607D01*
X486684Y349212D01*
X484901Y352840D02*
X484296Y353142D01*
X483389Y354049D01*
Y347700D01*
X476617Y354049D02*
X479641D01*
X479943Y351328D01*
X479641Y351630D01*
X478734Y351933D01*
X477827D01*
X476920Y351630D01*
X476315Y351026D01*
X476013Y350119D01*
Y349514D01*
X476315Y348607D01*
X476920Y348003D01*
X477827Y347700D01*
X478734D01*
X479641Y348003D01*
X479943Y348305D01*
X480245Y348909D01*
X470964Y353142D02*
X471266Y353746D01*
X472173Y354049D01*
X472778D01*
X473685Y353746D01*
X474290Y352840D01*
X474592Y351328D01*
Y349816D01*
X474290Y348607D01*
X473685Y348003D01*
X472778Y347700D01*
X472476D01*
X471569Y348003D01*
X470964Y348607D01*
X470662Y349514D01*
Y349816D01*
X470964Y350723D01*
X471569Y351328D01*
X472476Y351630D01*
X472778D01*
X473685Y351328D01*
X474290Y350723D01*
X474592Y349816D01*
X334543Y587501D02*
Y582664D01*
X334845Y581757D01*
X335148Y581454D01*
X335752Y581152D01*
X336357D01*
X336961Y581454D01*
X337264Y581757D01*
X337566Y582664D01*
Y583268D01*
X328980Y585384D02*
X329282Y584478D01*
X329887Y583873D01*
X330794Y583571D01*
X331096D01*
X332003Y583873D01*
X332608Y584478D01*
X332910Y585384D01*
Y585687D01*
X332608Y586594D01*
X332003Y587198D01*
X331096Y587501D01*
X330794D01*
X329887Y587198D01*
X329282Y586594D01*
X328980Y585384D01*
Y583873D01*
X329282Y582361D01*
X329887Y581454D01*
X330794Y581152D01*
X331399D01*
X332306Y581454D01*
X332608Y582059D01*
X325443Y587501D02*
X326350Y587198D01*
X326955Y586291D01*
X327257Y584780D01*
Y583873D01*
X326955Y582361D01*
X326350Y581454D01*
X325443Y581152D01*
X324838D01*
X323932Y581454D01*
X323327Y582361D01*
X323025Y583873D01*
Y584780D01*
X323327Y586291D01*
X323932Y587198D01*
X324838Y587501D01*
X325443D01*
X321604Y586291D02*
X320999Y586594D01*
X320092Y587501D01*
Y581152D01*
X588949Y123694D02*
Y118857D01*
X589252Y117950D01*
X589554Y117648D01*
X590159Y117346D01*
X590763D01*
X591368Y117648D01*
X591670Y117950D01*
X591972Y118857D01*
Y119462D01*
X585805Y123694D02*
X586712Y123392D01*
X587014Y122787D01*
Y122183D01*
X586712Y121578D01*
X586107Y121276D01*
X584898Y120973D01*
X583991Y120671D01*
X583387Y120066D01*
X583084Y119462D01*
Y118555D01*
X583387Y117950D01*
X583689Y117648D01*
X584596Y117346D01*
X585805D01*
X586712Y117648D01*
X587014Y117950D01*
X587317Y118555D01*
Y119462D01*
X587014Y120066D01*
X586410Y120671D01*
X585503Y120973D01*
X584294Y121276D01*
X583689Y121578D01*
X583387Y122183D01*
Y122787D01*
X583689Y123392D01*
X584596Y123694D01*
X585805D01*
X579850D02*
X580756Y123392D01*
X581361Y122485D01*
X581663Y120973D01*
Y120066D01*
X581361Y118555D01*
X580756Y117648D01*
X579850Y117346D01*
X579245D01*
X578338Y117648D01*
X577733Y118555D01*
X577431Y120066D01*
Y120973D01*
X577733Y122485D01*
X578338Y123392D01*
X579245Y123694D01*
X579850D01*
X576010Y122485D02*
X575406Y122787D01*
X574498Y123694D01*
Y117346D01*
X413791Y575563D02*
Y570726D01*
X414093Y569819D01*
X414395Y569516D01*
X415000Y569214D01*
X415605D01*
X416209Y569516D01*
X416512Y569819D01*
X416814Y570726D01*
Y571330D01*
X410647Y575563D02*
X411554Y575260D01*
X411856Y574656D01*
Y574051D01*
X411554Y573446D01*
X410949Y573144D01*
X409740Y572842D01*
X408833Y572539D01*
X408228Y571935D01*
X407926Y571330D01*
Y570423D01*
X408228Y569819D01*
X408531Y569516D01*
X409437Y569214D01*
X410647D01*
X411554Y569516D01*
X411856Y569819D01*
X412158Y570423D01*
Y571330D01*
X411856Y571935D01*
X411251Y572539D01*
X410344Y572842D01*
X409135Y573144D01*
X408531Y573446D01*
X408228Y574051D01*
Y574656D01*
X408531Y575260D01*
X409437Y575563D01*
X410647D01*
X404691D02*
X405598Y575260D01*
X406203Y574353D01*
X406505Y572842D01*
Y571935D01*
X406203Y570423D01*
X405598Y569516D01*
X404691Y569214D01*
X404086D01*
X403180Y569516D01*
X402575Y570423D01*
X402273Y571935D01*
Y572842D01*
X402575Y574353D01*
X403180Y575260D01*
X404086Y575563D01*
X404691D01*
X400549Y574051D02*
Y574353D01*
X400247Y574958D01*
X399945Y575260D01*
X399340Y575563D01*
X398131D01*
X397526Y575260D01*
X397224Y574958D01*
X396922Y574353D01*
Y573749D01*
X397224Y573144D01*
X397829Y572237D01*
X400852Y569214D01*
X396619D01*
X695731Y459739D02*
Y454902D01*
X696033Y453995D01*
X696336Y453692D01*
X696940Y453390D01*
X697545D01*
X698149Y453692D01*
X698452Y453995D01*
X698754Y454902D01*
Y455506D01*
X692587Y459739D02*
X693494Y459436D01*
X693796Y458832D01*
Y458227D01*
X693494Y457622D01*
X692889Y457320D01*
X691680Y457018D01*
X690773Y456716D01*
X690168Y456111D01*
X689866Y455506D01*
Y454599D01*
X690168Y453995D01*
X690471Y453692D01*
X691377Y453390D01*
X692587D01*
X693494Y453692D01*
X693796Y453995D01*
X694098Y454599D01*
Y455506D01*
X693796Y456111D01*
X693191Y456716D01*
X692284Y457018D01*
X691075Y457320D01*
X690471Y457622D01*
X690168Y458227D01*
Y458832D01*
X690471Y459436D01*
X691377Y459739D01*
X692587D01*
X686631D02*
X687538Y459436D01*
X688143Y458529D01*
X688445Y457018D01*
Y456111D01*
X688143Y454599D01*
X687538Y453692D01*
X686631Y453390D01*
X686027D01*
X685120Y453692D01*
X684515Y454599D01*
X684213Y456111D01*
Y457018D01*
X684515Y458529D01*
X685120Y459436D01*
X686027Y459739D01*
X686631D01*
X682187D02*
X678862D01*
X680676Y457320D01*
X679769D01*
X679164Y457018D01*
X678862Y456716D01*
X678559Y455808D01*
Y455204D01*
X678862Y454297D01*
X679466Y453692D01*
X680373Y453390D01*
X681280D01*
X682187Y453692D01*
X682489Y453995D01*
X682792Y454599D01*
X350531Y90641D02*
X351136Y90338D01*
X351740Y89734D01*
X352043Y89129D01*
Y87920D01*
X351740Y87315D01*
X351136Y86711D01*
X350531Y86408D01*
X349624Y86106D01*
X348112D01*
X347206Y86408D01*
X346601Y86711D01*
X345996Y87315D01*
X345694Y87920D01*
Y89129D01*
X345996Y89734D01*
X346601Y90338D01*
X347206Y90641D01*
X352043Y96657D02*
X345694Y93634D01*
X352043Y92424D02*
Y96657D01*
X350531Y98380D02*
X350833D01*
X351438Y98682D01*
X351740Y98985D01*
X352043Y99589D01*
Y100799D01*
X351740Y101403D01*
X351438Y101706D01*
X350833Y102008D01*
X350229D01*
X349624Y101706D01*
X348717Y101101D01*
X345694Y98078D01*
Y102310D01*
X352043Y107359D02*
Y104336D01*
X349322Y104033D01*
X349624Y104336D01*
X349926Y105243D01*
Y106150D01*
X349624Y107057D01*
X349020Y107661D01*
X348112Y107963D01*
X347508D01*
X346601Y107661D01*
X345996Y107057D01*
X345694Y106150D01*
Y105243D01*
X345996Y104336D01*
X346299Y104033D01*
X346903Y103731D01*
X578903Y179589D02*
X579206Y180194D01*
X579810Y180798D01*
X580415Y181101D01*
X581624D01*
X582229Y180798D01*
X582833Y180194D01*
X583136Y179589D01*
X583438Y178682D01*
Y177171D01*
X583136Y176264D01*
X582833Y175659D01*
X582229Y175054D01*
X581624Y174752D01*
X580415D01*
X579810Y175054D01*
X579206Y175659D01*
X578903Y176264D01*
X573492Y181101D02*
X576515D01*
X576817Y178380D01*
X576515Y178682D01*
X575608Y178984D01*
X574701D01*
X573794Y178682D01*
X573190Y178078D01*
X572887Y177171D01*
Y176566D01*
X573190Y175659D01*
X573794Y175054D01*
X574701Y174752D01*
X575608D01*
X576515Y175054D01*
X576817Y175357D01*
X577120Y175961D01*
X569652Y181101D02*
X570559Y180798D01*
X571164Y179891D01*
X571466Y178380D01*
Y177473D01*
X571164Y175961D01*
X570559Y175054D01*
X569652Y174752D01*
X569048D01*
X568141Y175054D01*
X567536Y175961D01*
X567234Y177473D01*
Y178380D01*
X567536Y179891D01*
X568141Y180798D01*
X569048Y181101D01*
X569652D01*
X565813Y179891D02*
X565208Y180194D01*
X564301Y181101D01*
Y174752D01*
D97*
X143302Y369824D02*
G03*
X143302Y369824I-2840J0D01*
G01*
X141112D02*
G03*
X141112Y369824I-650J0D01*
G01*
M02*
