G04*
G04 #@! TF.GenerationSoftware,Altium Limited,Altium Designer,25.7.1 (20)*
G04*
G04 Layer_Color=16777215*
%FSLAX44Y44*%
%MOMM*%
G71*
G04*
G04 #@! TF.SameCoordinates,73AB98AC-F87E-4787-825B-23B2420A13CA*
G04*
G04*
G04 #@! TF.FilePolarity,Positive*
G04*
G01*
G75*
%ADD98C,0.0254*%
D98*
X216304Y512260D02*
X221384D01*
X218844Y509720D02*
Y514800D01*
X447053Y105755D02*
X452133D01*
X449593Y103215D02*
Y108295D01*
X193469Y207124D02*
Y212204D01*
X190929Y209664D02*
X196009D01*
X430997Y72032D02*
Y77112D01*
X428457Y74572D02*
X433537D01*
X347970Y30734D02*
X353050D01*
X350510Y28194D02*
Y33274D01*
X347970Y273129D02*
Y278209D01*
X345430Y275669D02*
X350510D01*
X160271Y290175D02*
X165352D01*
X162812Y287635D02*
Y292715D01*
X228498Y236411D02*
X233578D01*
X231038Y233871D02*
Y238951D01*
X416032Y181633D02*
X421112D01*
X418572Y179093D02*
Y184173D01*
X165717Y136025D02*
X170797D01*
X168257Y133485D02*
Y138565D01*
X175722Y161140D02*
X180802D01*
X178262Y158600D02*
Y163680D01*
X213975Y41252D02*
Y46332D01*
X211435Y43792D02*
X216515D01*
X313571Y15037D02*
Y20117D01*
X311031Y17577D02*
X316111D01*
X213916Y41295D02*
Y46375D01*
X211376Y43835D02*
X216456D01*
X313799Y15037D02*
Y20117D01*
X311259Y17577D02*
X316339D01*
X471465Y31570D02*
X476545D01*
X474005Y29030D02*
Y34110D01*
X316581Y48966D02*
X321660D01*
X319121Y46426D02*
Y51506D01*
X141574Y66878D02*
X146655D01*
X144115Y64338D02*
Y69418D01*
X388051Y30757D02*
X393131D01*
X390591Y28217D02*
Y33297D01*
X353032Y305796D02*
X358112D01*
X355572Y303256D02*
Y308336D01*
X259464Y278308D02*
X264543D01*
X262003Y275768D02*
Y280848D01*
X291683Y275666D02*
Y280746D01*
X289143Y278206D02*
X294223D01*
X92192Y54000D02*
X97272D01*
X94732Y51460D02*
Y56540D01*
X182875Y317492D02*
X187955D01*
X185415Y314952D02*
Y320032D01*
X169436Y109911D02*
Y114991D01*
X166896Y112451D02*
X171976D01*
X422338Y211836D02*
X427419D01*
X424879Y209296D02*
Y214376D01*
X404175Y66929D02*
Y72009D01*
X401635Y69469D02*
X406715D01*
X395745Y180899D02*
Y185979D01*
X393205Y183439D02*
X398285D01*
X711952Y37559D02*
Y42639D01*
X709412Y40099D02*
X714492D01*
X178552Y37559D02*
Y42639D01*
X176012Y40099D02*
X181092D01*
X178552Y570959D02*
Y576039D01*
X176012Y573499D02*
X181092D01*
X711952Y570959D02*
Y576039D01*
X709412Y573499D02*
X714492D01*
X411930Y479125D02*
X417010D01*
X414470Y476585D02*
Y481665D01*
X626448Y529003D02*
X631528D01*
X628988Y526463D02*
Y531543D01*
X247371Y67645D02*
Y72725D01*
X244831Y70185D02*
X249911D01*
X314173Y199372D02*
X319253D01*
X316713Y196832D02*
Y201912D01*
X614589Y509968D02*
X619669D01*
X617129Y507429D02*
Y512509D01*
X560906Y56817D02*
Y61897D01*
X558366Y59357D02*
X563446D01*
X635239Y543933D02*
Y549013D01*
X632699Y546473D02*
X637779D01*
X243505Y276022D02*
Y281102D01*
X240965Y278562D02*
X246045D01*
X285227Y584025D02*
X290307D01*
X287767Y581485D02*
Y586565D01*
X638053Y479963D02*
X643133D01*
X640593Y477424D02*
Y482504D01*
X621096Y55535D02*
Y60615D01*
X618556Y58075D02*
X623636D01*
X59545Y404663D02*
X64625D01*
X62085Y402123D02*
Y407203D01*
X285206Y135623D02*
X290286D01*
X287746Y133083D02*
Y138163D01*
X577593Y189906D02*
Y194986D01*
X575053Y192446D02*
X580134D01*
X454147Y80990D02*
X459227D01*
X456687Y78450D02*
Y83530D01*
X375237Y278168D02*
Y283248D01*
X372697Y280708D02*
X377777D01*
X527233Y381925D02*
Y387005D01*
X524693Y384465D02*
X529773D01*
X527233Y381925D02*
Y387005D01*
X524693Y384465D02*
X529773D01*
X330421Y544457D02*
X335501D01*
X332961Y541917D02*
Y546997D01*
X140244Y45801D02*
Y50881D01*
X137704Y48341D02*
X142784D01*
X691705Y192453D02*
X696786D01*
X694246Y189913D02*
Y194993D01*
X338191Y493776D02*
X343271D01*
X340731Y491236D02*
Y496316D01*
X30859Y60736D02*
Y65816D01*
X28319Y63277D02*
X33398D01*
X349308Y374467D02*
X354388D01*
X351848Y371927D02*
Y377007D01*
X93226Y543438D02*
X98306D01*
X95766Y540898D02*
Y545978D01*
X141757Y583273D02*
Y588353D01*
X139217Y585813D02*
X144297D01*
X645480Y503781D02*
Y508861D01*
X642940Y506321D02*
X648020D01*
X64402Y272557D02*
Y277637D01*
X61862Y275097D02*
X66942D01*
X58539Y534866D02*
X63619D01*
X61079Y532326D02*
Y537406D01*
X64569Y138059D02*
Y143139D01*
X62029Y140599D02*
X67109D01*
X190645Y403156D02*
X195725D01*
X193185Y400616D02*
Y405696D01*
X357398Y92489D02*
Y97569D01*
X354858Y95029D02*
X359938D01*
X358079Y223487D02*
X363159D01*
X360619Y220947D02*
Y226027D01*
X360530Y210185D02*
Y215265D01*
X357990Y212725D02*
X363070D01*
X369334Y70388D02*
X374414D01*
X371874Y67849D02*
Y72929D01*
X230800Y129604D02*
X235880D01*
X233340Y127064D02*
Y132143D01*
X360439Y167721D02*
Y172801D01*
X357899Y170261D02*
X362979D01*
X215641Y78417D02*
X220721D01*
X218181Y75877D02*
Y80957D01*
X661208Y480743D02*
X666288D01*
X663748Y478203D02*
Y483283D01*
X68760Y181773D02*
Y186853D01*
X66220Y184313D02*
X71300D01*
X21918Y416141D02*
Y421221D01*
X19378Y418681D02*
X24458D01*
X75207Y351894D02*
Y356974D01*
X72667Y354434D02*
X77747D01*
X23960Y536009D02*
Y541089D01*
X21420Y538549D02*
X26500D01*
X330015Y564538D02*
X335095D01*
X332555Y561998D02*
Y567078D01*
X21844Y426855D02*
Y431935D01*
X19304Y429395D02*
X24384D01*
X471416Y45786D02*
Y50866D01*
X468876Y48326D02*
X473956D01*
X77295Y184262D02*
X82375D01*
X79835Y181722D02*
Y186802D01*
X679277Y186014D02*
Y191094D01*
X676737Y188554D02*
X681817D01*
X357398Y81722D02*
Y86802D01*
X354858Y84262D02*
X359938D01*
X163543Y194907D02*
Y199987D01*
X161003Y197447D02*
X166083D01*
X440492Y47950D02*
X445572D01*
X443032Y45410D02*
Y50490D01*
X19378Y407657D02*
X24458D01*
X21918Y405117D02*
Y410197D01*
X50058Y581980D02*
X55138D01*
X52598Y579440D02*
Y584520D01*
X152723Y194744D02*
Y199824D01*
X150183Y197284D02*
X155263D01*
X51214Y453187D02*
X56294D01*
X53754Y450647D02*
Y455727D01*
X454160Y45443D02*
Y50523D01*
X451620Y47983D02*
X456700D01*
X183190Y445359D02*
Y450438D01*
X180650Y447898D02*
X185730D01*
X241056Y547103D02*
X246136D01*
X243596Y544563D02*
Y549643D01*
X185809Y246799D02*
Y251879D01*
X183269Y249339D02*
X188349D01*
X368295Y243330D02*
X373375D01*
X370835Y240790D02*
Y245870D01*
X441894Y146215D02*
Y151295D01*
X439354Y148755D02*
X444434D01*
X372930Y512994D02*
Y518074D01*
X370390Y515534D02*
X375470D01*
X23967Y278407D02*
X29047D01*
X26507Y275867D02*
Y280947D01*
X27229Y140650D02*
Y145730D01*
X24689Y143190D02*
X29769D01*
X258463Y475176D02*
Y480256D01*
X255923Y477716D02*
X261003D01*
X225222Y477528D02*
X230302D01*
X227762Y474988D02*
Y480068D01*
X208374Y475082D02*
Y480162D01*
X205834Y477622D02*
X210914D01*
X170152Y526158D02*
Y531239D01*
X167612Y528699D02*
X172692D01*
X167612Y508551D02*
X172692D01*
X170152Y506011D02*
Y511091D01*
Y495938D02*
Y501017D01*
X167612Y498478D02*
X172692D01*
X167612Y468257D02*
X172692D01*
X170152Y465717D02*
Y470797D01*
X195903Y477538D02*
X200983D01*
X198443Y474998D02*
Y480078D01*
X375862Y26497D02*
Y31577D01*
X373322Y29037D02*
X378402D01*
X75344Y322151D02*
X80424D01*
X77884Y319611D02*
Y324691D01*
X167612Y538772D02*
X172692D01*
X170152Y536232D02*
Y541312D01*
X63167Y96190D02*
X68247D01*
X65707Y93650D02*
Y98730D01*
X430820Y146103D02*
Y151183D01*
X428280Y148643D02*
X433360D01*
X151117Y403873D02*
Y408953D01*
X148577Y406413D02*
X153657D01*
X256009Y544563D02*
Y549643D01*
X253469Y547103D02*
X258549D01*
X172402Y249329D02*
X177482D01*
X174942Y246789D02*
Y251869D01*
X56286Y319623D02*
Y324703D01*
X53746Y322163D02*
X58826D01*
X357246Y243340D02*
X362326D01*
X359786Y240800D02*
Y245880D01*
X22984Y92344D02*
Y97424D01*
X20445Y94884D02*
X25524D01*
X55479Y184282D02*
X60559D01*
X58019Y181742D02*
Y186822D01*
X650639Y61229D02*
Y66309D01*
X648099Y63769D02*
X653179D01*
X113777Y257307D02*
Y262387D01*
X111237Y259847D02*
X116317D01*
X113134Y144259D02*
X118214D01*
X115674Y141719D02*
Y146799D01*
Y152641D02*
Y157721D01*
X113134Y155181D02*
X118214D01*
X76032Y450756D02*
Y455836D01*
X73492Y453296D02*
X78572D01*
X195163Y161956D02*
X200243D01*
X197703Y159416D02*
Y164496D01*
X307211Y479013D02*
X312290D01*
X309750Y476474D02*
Y481553D01*
X372930Y480405D02*
Y485485D01*
X370390Y482945D02*
X375470D01*
X370390Y493867D02*
X375470D01*
X372930Y491327D02*
Y496407D01*
X62393Y453189D02*
X67473D01*
X64933Y450649D02*
Y455729D01*
X240596Y396138D02*
X245676D01*
X243136Y393598D02*
Y398678D01*
X243207Y382473D02*
Y387553D01*
X240667Y385013D02*
X245748D01*
X113134Y133083D02*
X118214D01*
X115674Y130543D02*
Y135623D01*
Y119418D02*
Y124498D01*
X113134Y121958D02*
X118214D01*
X22715Y28425D02*
Y33505D01*
X20175Y30965D02*
X25255D01*
X31453Y30782D02*
X36533D01*
X33993Y28242D02*
Y33322D01*
X336481Y25126D02*
Y30206D01*
X333941Y27666D02*
X339021D01*
X143279Y78135D02*
Y83216D01*
X140739Y80675D02*
X145819D01*
X221838Y544309D02*
Y549389D01*
X219298Y546849D02*
X224379D01*
X229474Y220856D02*
Y225935D01*
X226934Y223396D02*
X232014D01*
X109375Y409189D02*
X114455D01*
X111915Y406649D02*
Y411729D01*
X112006Y417225D02*
Y422305D01*
X109466Y419766D02*
X114546D01*
X64351Y352011D02*
Y357091D01*
X61811Y354551D02*
X66891D01*
X112006Y395153D02*
Y400233D01*
X109466Y397693D02*
X114546D01*
X109466Y386669D02*
X114546D01*
X112006Y384129D02*
Y389209D01*
X110236Y536499D02*
Y541579D01*
X107696Y539039D02*
X112776D01*
X107696Y549961D02*
X112776D01*
X110236Y547421D02*
Y552501D01*
X72278Y581983D02*
X77358D01*
X74818Y579443D02*
Y584523D01*
X63871Y579590D02*
Y584670D01*
X61331Y582130D02*
X66411D01*
X71227Y483745D02*
X76307D01*
X73767Y481205D02*
Y486286D01*
X63022Y481160D02*
Y486240D01*
X60483Y483700D02*
X65563D01*
X110236Y525374D02*
Y530454D01*
X107696Y527914D02*
X112776D01*
X107696Y517017D02*
X112776D01*
X110236Y514477D02*
Y519557D01*
X243139Y404386D02*
Y409466D01*
X240599Y406926D02*
X245679D01*
X240569Y417670D02*
X245648D01*
X243109Y415130D02*
Y420210D01*
X202545Y447898D02*
X207625D01*
X205085Y445359D02*
Y450438D01*
X194137Y445359D02*
Y450438D01*
X191597Y447898D02*
X196677D01*
X201767Y353126D02*
X206847D01*
X204307Y350586D02*
Y355666D01*
X76756Y93457D02*
Y98537D01*
X74216Y95997D02*
X79296D01*
X190668Y353212D02*
X195748D01*
X193208Y350672D02*
Y355752D01*
X188369Y474998D02*
Y480078D01*
X185829Y477538D02*
X190909D01*
X197686Y546849D02*
X202766D01*
X200226Y544309D02*
Y549389D01*
X167612Y478330D02*
X172692D01*
X170152Y475790D02*
Y480870D01*
Y485864D02*
Y490944D01*
X167612Y488404D02*
X172692D01*
X167612Y518625D02*
X172692D01*
X170152Y516085D02*
Y521165D01*
X230403Y547085D02*
X235483D01*
X232943Y544546D02*
Y549626D01*
X137554Y194572D02*
Y199652D01*
X135014Y197112D02*
X140094D01*
X26479Y298018D02*
Y303098D01*
X23939Y300558D02*
X29019D01*
X218590Y474998D02*
Y480078D01*
X216050Y477538D02*
X221130D01*
X236197D02*
X241277D01*
X238737Y474998D02*
Y480078D01*
X248811Y474998D02*
Y480078D01*
X246271Y477538D02*
X251351D01*
X113777Y279253D02*
Y284333D01*
X111237Y281793D02*
X116317D01*
X111237Y292766D02*
X116317D01*
X113777Y290226D02*
Y295306D01*
X64524Y322120D02*
X69604D01*
X67064Y319580D02*
Y324660D01*
X76492Y228412D02*
Y233492D01*
X73952Y230952D02*
X79032D01*
X63106Y231084D02*
X68186D01*
X65646Y228544D02*
Y233624D01*
X111237Y270871D02*
X116317D01*
X113777Y268331D02*
Y273411D01*
X310835Y507980D02*
Y513060D01*
X308295Y510520D02*
X313375D01*
X370390Y471820D02*
X375470D01*
X372930Y469280D02*
Y474360D01*
Y502224D02*
Y507304D01*
X370390Y504764D02*
X375470D01*
X24633Y154214D02*
X29713D01*
X27173Y151674D02*
Y156754D01*
X27163Y162631D02*
Y167711D01*
X24623Y165171D02*
X29703D01*
X46132Y181889D02*
Y186969D01*
X43591Y184429D02*
X48671D01*
X37302Y453164D02*
X42382D01*
X39842Y450624D02*
Y455704D01*
X42657Y319542D02*
Y324622D01*
X40117Y322082D02*
X45197D01*
X24031Y547149D02*
Y552229D01*
X21491Y549689D02*
X26571D01*
X21415Y560403D02*
X26495D01*
X23955Y557863D02*
Y562943D01*
X36637Y581823D02*
X41717D01*
X39177Y579283D02*
Y584363D01*
X458653Y145885D02*
Y150965D01*
X456113Y148425D02*
X461193D01*
X197289Y249481D02*
X202369D01*
X199829Y246941D02*
Y252021D01*
X259905Y533296D02*
X264986D01*
X262446Y530756D02*
Y535836D01*
X208405Y546849D02*
X213484D01*
X210944Y544309D02*
Y549389D01*
X148552Y417538D02*
X153632D01*
X151092Y414998D02*
Y420078D01*
X151120Y426060D02*
Y431140D01*
X148580Y428600D02*
X153660D01*
X167902Y445961D02*
Y451040D01*
X165362Y448501D02*
X170442D01*
X287388Y558759D02*
Y563839D01*
X284848Y561299D02*
X289928D01*
X386222Y240825D02*
Y245905D01*
X383682Y243365D02*
X388762D01*
X26375Y286814D02*
Y291894D01*
X23835Y289354D02*
X28915D01*
X340218Y70490D02*
X345298D01*
X342758Y67950D02*
Y73030D01*
X352509Y67884D02*
Y72964D01*
X349969Y70424D02*
X355049D01*
X701977Y431856D02*
X707057D01*
X704517Y429316D02*
Y434396D01*
X693631Y429123D02*
Y434203D01*
X691091Y431663D02*
X696171D01*
X627954Y440256D02*
X633034D01*
X630494Y437716D02*
Y442796D01*
X595655Y282859D02*
X600735D01*
X598195Y280319D02*
Y285399D01*
X680839Y471363D02*
X685919D01*
X683379Y468823D02*
Y473903D01*
X694009Y468820D02*
Y473900D01*
X691469Y471361D02*
X696549D01*
X714530Y471614D02*
X719610D01*
X717070Y469075D02*
Y474155D01*
X706316Y468874D02*
Y473954D01*
X703776Y471414D02*
X708856D01*
X664560Y440314D02*
X669641D01*
X667101Y437774D02*
Y442854D01*
X543423Y274531D02*
X548503D01*
X545963Y271991D02*
Y277071D01*
X580243Y257640D02*
Y262720D01*
X577703Y260180D02*
X582783D01*
X508833Y92044D02*
X513913D01*
X511373Y89504D02*
Y94585D01*
X656245Y310733D02*
X661325D01*
X658785Y308193D02*
Y313273D01*
X654334Y293515D02*
Y298595D01*
X651795Y296055D02*
X656874D01*
X359794Y70422D02*
X364874D01*
X362333Y67881D02*
Y72962D01*
X227393Y140272D02*
X232474D01*
X229933Y137732D02*
Y142811D01*
X712523Y431935D02*
X717603D01*
X715063Y429395D02*
Y434475D01*
X682742Y429059D02*
Y434139D01*
X680202Y431599D02*
X685282D01*
X653829Y440159D02*
X658909D01*
X656369Y437619D02*
Y442699D01*
X641698Y437642D02*
Y442722D01*
X639158Y440182D02*
X644238D01*
X42141Y30861D02*
X47221D01*
X44681Y28321D02*
Y33401D01*
X259905Y503075D02*
X264986D01*
X262446Y500535D02*
Y505615D01*
Y520682D02*
Y525762D01*
X259905Y523222D02*
X264986D01*
X259913Y513811D02*
X264993D01*
X262453Y511272D02*
Y516352D01*
X262600Y490792D02*
Y495872D01*
X260060Y493331D02*
X265140D01*
X689402Y258150D02*
X694482D01*
X691942Y255610D02*
Y260690D01*
X670768Y255560D02*
Y260640D01*
X668228Y258100D02*
X673308D01*
X568503Y556443D02*
Y561523D01*
X565963Y558983D02*
X571043D01*
X578731Y559676D02*
X583811D01*
X581271Y557136D02*
Y562216D01*
X517065Y585762D02*
X522145D01*
X519605Y583222D02*
Y588302D01*
X641769Y561503D02*
Y566583D01*
X639229Y564043D02*
X644309D01*
X617403Y563867D02*
X622483D01*
X619943Y561327D02*
Y566407D01*
X312799Y236987D02*
X317878D01*
X315338Y234447D02*
Y239527D01*
X312986Y221722D02*
X318066D01*
X315526Y219182D02*
Y224262D01*
X392052Y142652D02*
X397132D01*
X394591Y140112D02*
Y145191D01*
X392052Y158907D02*
X397132D01*
X394591Y156368D02*
Y161448D01*
X391902Y86705D02*
X396982D01*
X394442Y84165D02*
Y89245D01*
X391902Y102961D02*
X396982D01*
X394442Y100421D02*
Y105501D01*
X281231Y47498D02*
X286311D01*
X283771Y44958D02*
Y50038D01*
X281257Y32471D02*
X286337D01*
X283797Y29931D02*
Y35011D01*
X245107Y32045D02*
X250187D01*
X247647Y29505D02*
Y34585D01*
X245412Y48402D02*
X250492D01*
X247952Y45862D02*
Y50942D01*
X271981Y221402D02*
X277061D01*
X274521Y218862D02*
Y223942D01*
X271854Y237429D02*
X276934D01*
X274394Y234889D02*
Y239969D01*
X100922Y88936D02*
Y94016D01*
X98382Y91476D02*
X103462D01*
X115788Y88859D02*
Y93939D01*
X113248Y91399D02*
X118328D01*
X647555Y111046D02*
X652635D01*
X650095Y108506D02*
Y113586D01*
X647725Y82118D02*
X652805D01*
X650265Y79578D02*
Y84658D01*
X693953Y232054D02*
Y237134D01*
X691413Y234594D02*
X696493D01*
X618086Y111028D02*
X623166D01*
X620626Y108489D02*
Y113568D01*
X317561Y253660D02*
X322641D01*
X320101Y251120D02*
Y256200D01*
X268618Y252974D02*
X273698D01*
X271158Y250434D02*
Y255514D01*
X307652Y272410D02*
Y277490D01*
X305112Y274950D02*
X310192D01*
X166723Y95644D02*
X171803D01*
X169263Y93104D02*
Y98184D01*
X191264Y194153D02*
X196345D01*
X193804Y191612D02*
Y196693D01*
X116225Y51138D02*
Y56218D01*
X113685Y53678D02*
X118765D01*
X220980Y276118D02*
Y281198D01*
X218440Y278658D02*
X223520D01*
X332298Y272740D02*
Y277820D01*
X329758Y275280D02*
X334838D01*
X126680Y29304D02*
X131760D01*
X129220Y26764D02*
Y31844D01*
X335493Y46845D02*
Y51925D01*
X332953Y49385D02*
X338033D01*
X386956Y120221D02*
Y125301D01*
X384416Y122761D02*
X389496D01*
X623504Y543794D02*
Y548874D01*
X620964Y546334D02*
X626044D01*
X227480Y117861D02*
X232560D01*
X230020Y115321D02*
Y120401D01*
X227465Y93076D02*
X232545D01*
X230005Y90536D02*
Y95616D01*
X661246Y495381D02*
X666326D01*
X663786Y492841D02*
Y497921D01*
X661190Y464665D02*
X666270D01*
X663730Y462125D02*
Y467205D01*
X519100Y590972D02*
Y596052D01*
X516560Y593512D02*
X521640D01*
X636191Y508912D02*
X641271D01*
X638731Y506372D02*
Y511452D01*
X629361Y508932D02*
X634441D01*
X631901Y506392D02*
Y511472D01*
X313621Y74234D02*
X318701D01*
X316161Y71694D02*
Y76774D01*
X227493Y105583D02*
X232573D01*
X230033Y103043D02*
Y108123D01*
X320398Y310751D02*
X325478D01*
X322938Y308211D02*
Y313291D01*
X232181Y160538D02*
Y165618D01*
X229641Y163078D02*
X234721D01*
X40851Y364820D02*
X45931D01*
X43391Y362280D02*
Y367360D01*
X24905Y392267D02*
Y397347D01*
X22365Y394807D02*
X27445D01*
X324780Y74297D02*
X329860D01*
X327320Y71757D02*
Y76838D01*
X232199Y151265D02*
Y156345D01*
X229659Y153805D02*
X234739D01*
X666585Y315651D02*
Y320731D01*
X664045Y318191D02*
X669125D01*
X654759Y267345D02*
X659839D01*
X657299Y264805D02*
Y269885D01*
X693240Y269100D02*
X698320D01*
X695780Y266560D02*
Y271640D01*
X30224Y95115D02*
X35303D01*
X32764Y92575D02*
Y97655D01*
X26098Y260690D02*
Y265770D01*
X23558Y263230D02*
X28639D01*
X40665Y234079D02*
X45745D01*
X43205Y231539D02*
Y236619D01*
X43597Y97676D02*
X48677D01*
X46137Y95136D02*
Y100216D01*
X24026Y520703D02*
Y525783D01*
X21486Y523242D02*
X26566D01*
X27371Y128138D02*
Y133218D01*
X24831Y130678D02*
X29911D01*
X40142Y494162D02*
X45222D01*
X42682Y491622D02*
Y496702D01*
X156616Y390365D02*
Y395445D01*
X154076Y392905D02*
X159156D01*
X167691Y363924D02*
X172771D01*
X170231Y361384D02*
Y366464D01*
X591739Y65014D02*
Y70094D01*
X589199Y67554D02*
X594279D01*
X331061Y74259D02*
X336141D01*
X333601Y71719D02*
Y76799D01*
X319052Y74270D02*
X324132D01*
X321592Y71730D02*
Y76810D01*
X543110Y597238D02*
X548190D01*
X545650Y594698D02*
Y599778D01*
X518579Y56812D02*
Y61892D01*
X516039Y59352D02*
X521119D01*
X224534Y581241D02*
X229613D01*
X227073Y578701D02*
Y583781D01*
X258562Y581241D02*
X263642D01*
X261102Y578701D02*
Y583781D01*
X51951Y361183D02*
Y366263D01*
X49411Y363723D02*
X54491D01*
X312522Y492661D02*
Y497741D01*
X309982Y495201D02*
X315062D01*
X181074Y359956D02*
Y365036D01*
X178534Y362496D02*
X183614D01*
X52019Y230734D02*
Y235814D01*
X49479Y233274D02*
X54559D01*
X54671Y93005D02*
Y98085D01*
X52131Y95545D02*
X57211D01*
X51445Y489862D02*
Y494942D01*
X48905Y492402D02*
X53985D01*
X353822Y150696D02*
X358902D01*
X356362Y148156D02*
Y153236D01*
X353581Y115405D02*
X358661D01*
X356121Y112865D02*
Y117945D01*
X285245Y69731D02*
X290324D01*
X287785Y67191D02*
Y72271D01*
X275999Y196634D02*
Y201714D01*
X273459Y199174D02*
X278539D01*
X211673Y104331D02*
Y109410D01*
X209133Y106870D02*
X214213D01*
X588663Y524426D02*
X593743D01*
X591203Y521886D02*
Y526966D01*
X480812Y87320D02*
X485892D01*
X483352Y84780D02*
Y89860D01*
X480403Y98862D02*
X485483D01*
X482943Y96322D02*
Y101402D01*
X480367Y110340D02*
X485447D01*
X482907Y107800D02*
Y112880D01*
X480080Y121811D02*
X485160D01*
X482620Y119271D02*
Y124351D01*
X572259Y501350D02*
X577340D01*
X574799Y498810D02*
Y503890D01*
X563783Y528671D02*
Y533750D01*
X561244Y531211D02*
X566324D01*
X586265Y513085D02*
X591345D01*
X588805Y510545D02*
Y515625D01*
X566014Y519867D02*
X571094D01*
X568554Y517327D02*
Y522407D01*
X564040Y574726D02*
X569120D01*
X566580Y572186D02*
Y577266D01*
X564162Y585661D02*
X569242D01*
X566702Y583120D02*
Y588200D01*
X575704Y585384D02*
X580784D01*
X578244Y582844D02*
Y587924D01*
X587329Y585709D02*
X592409D01*
X589869Y583169D02*
Y588249D01*
X599036Y585465D02*
X604116D01*
X601576Y582925D02*
Y588005D01*
X576641Y512854D02*
X581721D01*
X579181Y510314D02*
Y515394D01*
X582681Y502166D02*
X587761D01*
X585221Y499626D02*
Y504706D01*
X594482Y260571D02*
X599562D01*
X597022Y258031D02*
Y263111D01*
X539661Y262514D02*
X544741D01*
X542201Y259974D02*
Y265054D01*
X527634Y262540D02*
X532714D01*
X530174Y260000D02*
Y265079D01*
X558297Y262743D02*
X563377D01*
X560837Y260203D02*
Y265283D01*
X671467Y490537D02*
Y495617D01*
X668927Y493078D02*
X674007D01*
X550441Y255374D02*
Y260454D01*
X547901Y257914D02*
X552981D01*
X433713Y344363D02*
Y349443D01*
X431173Y346903D02*
X436253D01*
X430860Y349852D02*
Y354932D01*
X428320Y352392D02*
X433400D01*
X431648Y361384D02*
Y366464D01*
X429108Y363924D02*
X434188D01*
X434901Y367068D02*
Y372148D01*
X432361Y369608D02*
X437441D01*
X434901Y376778D02*
Y381858D01*
X432361Y379319D02*
X437441D01*
X431648Y382463D02*
Y387543D01*
X429108Y385003D02*
X434188D01*
X432059Y334228D02*
Y339308D01*
X429519Y336768D02*
X434599D01*
X434147Y328524D02*
Y333604D01*
X431607Y331064D02*
X436687D01*
X430860Y393995D02*
Y399075D01*
X428320Y396535D02*
X433400D01*
X432059Y409618D02*
Y414698D01*
X429519Y412158D02*
X434599D01*
X434147Y415323D02*
Y420403D01*
X431607Y417863D02*
X436687D01*
X395956Y428620D02*
Y433700D01*
X393415Y431160D02*
X398495D01*
X395956Y315227D02*
Y320307D01*
X393415Y317767D02*
X398495D01*
X433713Y399484D02*
Y404564D01*
X431173Y402024D02*
X436253D01*
X396494Y586372D02*
Y591452D01*
X393954Y588912D02*
X399034D01*
X109515Y214015D02*
Y219095D01*
X106975Y216555D02*
X112055D01*
X712869Y80005D02*
Y85085D01*
X710329Y82545D02*
X715409D01*
X95260Y393479D02*
X100340D01*
X97800Y390939D02*
Y396019D01*
X69634Y368308D02*
Y373388D01*
X67094Y370848D02*
X72174D01*
X74191Y168989D02*
Y174069D01*
X71651Y171529D02*
X76731D01*
X95517Y413741D02*
X100597D01*
X98057Y411201D02*
Y416281D01*
X71034Y240921D02*
Y246001D01*
X68494Y243461D02*
X73574D01*
X97589Y265610D02*
X102669D01*
X100129Y263070D02*
Y268150D01*
X99060Y148483D02*
X104140D01*
X101600Y145943D02*
Y151023D01*
X71628Y435516D02*
Y440596D01*
X69088Y438056D02*
X74168D01*
X227805Y391622D02*
X232885D01*
X230345Y389082D02*
Y394162D01*
X72466Y305979D02*
Y311059D01*
X69926Y308519D02*
X75006D01*
X99131Y127950D02*
X104211D01*
X101671Y125410D02*
Y130490D01*
X97488Y286418D02*
X102568D01*
X100028Y283878D02*
Y288958D01*
X70635Y106660D02*
Y111740D01*
X68095Y109200D02*
X73175D01*
X199387Y364660D02*
Y369740D01*
X196847Y367200D02*
X201928D01*
X200812Y432229D02*
Y437309D01*
X198272Y434769D02*
X203352D01*
X227604Y411739D02*
X232684D01*
X230144Y409199D02*
Y414279D01*
X93157Y522806D02*
X98237D01*
X95697Y520266D02*
Y525346D01*
X68400Y494965D02*
Y500045D01*
X65860Y497505D02*
X70940D01*
X69090Y566760D02*
Y571840D01*
X66550Y569300D02*
X71631D01*
X588005Y49929D02*
X593085D01*
X590545Y47389D02*
Y52469D01*
X667527Y272118D02*
Y277198D01*
X664987Y274658D02*
X670067D01*
X235481Y189329D02*
Y194409D01*
X232941Y191869D02*
X238021D01*
X230538Y175291D02*
X235618D01*
X233078Y172750D02*
Y177831D01*
X250429Y189563D02*
Y194643D01*
X247889Y192103D02*
X252969D01*
X185974Y286626D02*
X191054D01*
X188514Y284086D02*
Y289166D01*
X444251Y182131D02*
Y187211D01*
X441711Y184671D02*
X446791D01*
X147150Y159212D02*
X152230D01*
X149690Y156672D02*
Y161752D01*
X365021Y254927D02*
Y260007D01*
X362481Y257467D02*
X367561D01*
X172367Y263200D02*
X177447D01*
X174907Y260660D02*
Y265740D01*
X433883Y160195D02*
Y165275D01*
X431343Y162735D02*
X436423D01*
X157345Y181107D02*
X162425D01*
X159885Y178567D02*
Y183647D01*
M02*
