G04*
G04 #@! TF.GenerationSoftware,Altium Limited,Altium Designer,25.7.1 (20)*
G04*
G04 Layer_Physical_Order=6*
G04 Layer_Color=16711680*
%FSLAX44Y44*%
%MOMM*%
G71*
G04*
G04 #@! TF.SameCoordinates,73AB98AC-F87E-4787-825B-23B2420A13CA*
G04*
G04*
G04 #@! TF.FilePolarity,Positive*
G04*
G01*
G75*
%ADD10C,0.1524*%
%ADD12C,0.1270*%
%ADD13C,0.2032*%
%ADD25R,0.3048X0.3048*%
%ADD38R,0.4572X0.6096*%
%ADD43R,0.4572X0.5080*%
%ADD44R,0.5080X0.4572*%
%ADD45R,0.9906X0.8128*%
%ADD46R,0.8128X0.9906*%
%ADD48R,0.3048X0.3048*%
%ADD51R,0.6096X0.4572*%
%ADD63C,4.4000*%
%ADD66C,0.5080*%
%ADD72C,0.0813*%
%ADD73C,0.1118*%
%ADD74C,0.2540*%
%ADD75C,0.3810*%
%ADD76C,0.3048*%
%ADD77C,0.0864*%
%ADD79C,0.1041*%
%ADD80C,0.5080*%
%ADD81C,0.0914*%
%ADD83C,0.1168*%
%ADD85C,0.1016*%
%ADD86C,0.4572*%
%ADD87C,0.4064*%
%ADD88C,1.4224*%
%ADD92R,0.6858X0.2032*%
%ADD93R,0.6858X0.3556*%
%ADD94R,0.3556X0.6858*%
%ADD95R,0.2032X0.6858*%
%ADD96C,1.5240*%
G36*
X542614Y605252D02*
X542618Y604916D01*
X542467Y603885D01*
X542110Y603646D01*
X541506Y603042D01*
X541385Y603092D01*
X540172D01*
X539052Y602629D01*
X538195Y601771D01*
X538141Y601641D01*
X537533Y600713D01*
X536608Y601006D01*
X536366Y601106D01*
X535153D01*
X534033Y600642D01*
X533489Y600098D01*
X532039D01*
X531332Y600805D01*
X530211Y601269D01*
X528999D01*
X527879Y600805D01*
X527172Y600098D01*
X519730D01*
X519031Y600797D01*
X517910Y601261D01*
X516698D01*
X516428Y601149D01*
X515277Y601275D01*
X514944Y601805D01*
X514694Y602409D01*
X513836Y603266D01*
X512716Y603730D01*
X511503D01*
X510383Y603266D01*
X509526Y602409D01*
X508507Y602984D01*
X507387Y603448D01*
X506175D01*
X505054Y602984D01*
X504197Y602127D01*
X503161Y602608D01*
X502040Y603072D01*
X500828D01*
X499707Y602608D01*
X499569Y602469D01*
X498762Y601818D01*
X497910Y602469D01*
X497794Y602585D01*
X496673Y603049D01*
X495461D01*
X494341Y602585D01*
X493483Y601728D01*
X493019Y600608D01*
Y600098D01*
X488563D01*
X485724Y602936D01*
X485790Y603096D01*
Y604308D01*
X485615Y604731D01*
X486413Y606001D01*
X542005D01*
X542614Y605252D01*
D02*
G37*
G36*
X732292Y588352D02*
X731022Y587898D01*
X728916Y590463D01*
X725281Y593447D01*
X721133Y595664D01*
X716632Y597029D01*
X711952Y597491D01*
X707271Y597029D01*
X702771Y595664D01*
X698623Y593447D01*
X694987Y590463D01*
X692004Y586828D01*
X689787Y582680D01*
X688421Y578180D01*
X687960Y573499D01*
X688421Y568819D01*
X689787Y564318D01*
X692004Y560170D01*
X694987Y556534D01*
X698623Y553551D01*
X702771Y551334D01*
X707271Y549968D01*
X711952Y549507D01*
X716632Y549968D01*
X721133Y551334D01*
X725281Y553551D01*
X728916Y556534D01*
X731022Y559100D01*
X732292Y558646D01*
Y458927D01*
X697683D01*
X696883Y460197D01*
X697057Y460617D01*
Y461830D01*
X696593Y462950D01*
X695736Y463807D01*
X694616Y464271D01*
X693403D01*
X692283Y463807D01*
X691425Y462950D01*
X690961Y461830D01*
Y460617D01*
X691135Y460197D01*
X690336Y458927D01*
X687287D01*
X686427Y460170D01*
Y461383D01*
X685963Y462503D01*
X685106Y463360D01*
X683986Y463824D01*
X682773D01*
X681653Y463360D01*
X680795Y462503D01*
X680331Y461383D01*
Y460170D01*
X679472Y458927D01*
X668551D01*
X654180Y444556D01*
Y441836D01*
X641749D01*
X633202Y450383D01*
X613625D01*
X612772Y451324D01*
X612946Y453090D01*
X612618Y456422D01*
X611646Y459627D01*
X610067Y462580D01*
X607943Y465169D01*
X605354Y467294D01*
X602400Y468872D01*
X599196Y469845D01*
X595863Y470173D01*
X592530Y469845D01*
X589325Y468872D01*
X586372Y467294D01*
X583783Y465169D01*
X581659Y462580D01*
X580080Y459627D01*
X579108Y456422D01*
X578780Y453090D01*
X579108Y449757D01*
X580080Y446552D01*
X581659Y443599D01*
X583783Y441010D01*
X586372Y438885D01*
X589325Y437307D01*
X592530Y436334D01*
X595863Y436006D01*
X596523Y436071D01*
X597464Y435218D01*
Y432902D01*
X591249Y426687D01*
X580761D01*
X568333Y439115D01*
X554347D01*
X540751Y452712D01*
Y505539D01*
X552016Y516804D01*
X585033D01*
X605622Y537393D01*
Y585084D01*
X590608Y600098D01*
X562387D01*
X561647Y600838D01*
X560526Y601302D01*
X559314D01*
X558194Y600838D01*
X557825Y600469D01*
X556431Y600631D01*
X555574Y601488D01*
X554453Y601952D01*
X553241D01*
X552120Y601488D01*
X551263Y600631D01*
X551042Y600098D01*
X547858D01*
Y605051D01*
X548630Y606001D01*
X732292D01*
Y588352D01*
D02*
G37*
G36*
X431560Y604731D02*
X431439Y604440D01*
Y603228D01*
X431903Y602108D01*
X432315Y601696D01*
X432758Y601242D01*
X432376Y600098D01*
X430383D01*
X407152Y576867D01*
X391663D01*
X389951Y578579D01*
X330604D01*
X327883Y581299D01*
X284912D01*
X284338Y582159D01*
Y583371D01*
X283874Y584492D01*
X283016Y585349D01*
X281896Y585813D01*
X280683D01*
X279563Y585349D01*
X278706Y584492D01*
X278242Y583371D01*
Y582159D01*
X277668Y581299D01*
X230553D01*
Y581311D01*
X230089Y582431D01*
X229232Y583289D01*
X228111Y583753D01*
X226899D01*
X225779Y583289D01*
X224921Y582431D01*
X224457Y581311D01*
Y581299D01*
X219898D01*
X201285Y562687D01*
X200254Y563451D01*
X200717Y564318D01*
X202082Y568819D01*
X202543Y573499D01*
X202082Y578180D01*
X200717Y582680D01*
X198500Y586828D01*
X195516Y590463D01*
X191881Y593447D01*
X187733Y595664D01*
X183232Y597029D01*
X178552Y597491D01*
X173871Y597029D01*
X169371Y595664D01*
X165223Y593447D01*
X161587Y590463D01*
X158604Y586828D01*
X156387Y582680D01*
X155021Y578180D01*
X154560Y573499D01*
X155021Y568819D01*
X156387Y564318D01*
X158604Y560170D01*
X161587Y556534D01*
X165223Y553551D01*
X169371Y551334D01*
X173871Y549968D01*
X178552Y549507D01*
X183232Y549968D01*
X187733Y551334D01*
X188599Y551797D01*
X189364Y550765D01*
X184549Y545950D01*
X136848D01*
X83711Y599087D01*
X83190Y599435D01*
X82575Y599557D01*
X37734D01*
X37120Y599435D01*
X36599Y599087D01*
X12438Y574926D01*
X12090Y574406D01*
X11968Y573791D01*
Y525971D01*
X11847Y525920D01*
X10990Y525063D01*
X10526Y523943D01*
Y522730D01*
X10990Y521610D01*
X11847Y520753D01*
X12967Y520289D01*
X14180D01*
X15300Y520753D01*
X16158Y521610D01*
X16622Y522730D01*
Y523943D01*
X16158Y525063D01*
X15300Y525920D01*
X15179Y525971D01*
Y573126D01*
X38202Y596148D01*
X38960Y596044D01*
X39320Y594712D01*
X38823Y594215D01*
X38359Y593094D01*
Y591882D01*
X38823Y590761D01*
X39681Y589904D01*
X40801Y589440D01*
X42013D01*
X43134Y589904D01*
X43991Y590761D01*
X44455Y591882D01*
Y593094D01*
X43991Y594215D01*
X43134Y595072D01*
X43124Y595076D01*
X43377Y596346D01*
X62554D01*
X63377Y595076D01*
X63221Y594697D01*
Y593484D01*
X63685Y592364D01*
X64542Y591507D01*
X65304Y591191D01*
Y584360D01*
X65304Y584360D01*
X65462Y583567D01*
X65911Y582895D01*
X71327Y577480D01*
Y552011D01*
X71327Y552011D01*
X71484Y551218D01*
X71933Y550546D01*
X86269Y536210D01*
Y533717D01*
X132690Y487296D01*
Y461660D01*
X128417Y457388D01*
X74032D01*
X73916Y457505D01*
Y461059D01*
X74035Y461178D01*
X74759D01*
X75879Y461642D01*
X76737Y462499D01*
X77201Y463619D01*
Y464832D01*
X76737Y465952D01*
X75879Y466810D01*
X74759Y467274D01*
X73547D01*
X72426Y466810D01*
X72423Y466807D01*
X71126Y466620D01*
X70269Y467478D01*
X69148Y467942D01*
X67936D01*
X66815Y467478D01*
X65958Y466620D01*
X65494Y465500D01*
Y464287D01*
X65958Y463167D01*
X66470Y462655D01*
Y455277D01*
X66470Y455277D01*
X66628Y454484D01*
X67077Y453812D01*
X67507Y453382D01*
X53640Y439514D01*
X22951D01*
X4948Y457518D01*
Y606001D01*
X430711D01*
X431560Y604731D01*
D02*
G37*
G36*
X331396Y434536D02*
Y433423D01*
X328356D01*
Y426819D01*
X329332D01*
Y423996D01*
X328570Y423844D01*
X328423Y424200D01*
X327565Y425057D01*
X326445Y425521D01*
X325233D01*
X324112Y425057D01*
X323255Y424200D01*
X323233Y424147D01*
X322333Y423965D01*
X322180Y424115D01*
Y426979D01*
X323157D01*
Y433583D01*
X317061D01*
Y432821D01*
X314899D01*
Y427741D01*
X317061D01*
Y426979D01*
X318037D01*
Y425234D01*
X317610Y425057D01*
X316752Y424200D01*
X316288Y423079D01*
Y421867D01*
X316752Y420747D01*
X317610Y419889D01*
X318730Y419425D01*
X319943D01*
X321063Y419889D01*
X321920Y420747D01*
X322175Y421362D01*
X323000D01*
X323255Y420747D01*
X324112Y419889D01*
X325233Y419425D01*
X326445D01*
X327565Y419889D01*
X328423Y420747D01*
X328678Y421362D01*
X329502D01*
X329757Y420747D01*
X330615Y419889D01*
X331396Y419565D01*
Y409379D01*
X330615Y409055D01*
X329757Y408198D01*
X329293Y407077D01*
Y405865D01*
X329757Y404745D01*
X330615Y403887D01*
X331396Y403563D01*
Y363609D01*
X335836Y359169D01*
X335796Y359071D01*
Y357859D01*
X336260Y356739D01*
X337117Y355881D01*
X338237Y355417D01*
X339450D01*
X339547Y355457D01*
X339608Y355397D01*
X344995D01*
X349364Y351028D01*
X361775D01*
Y350318D01*
X362239Y349197D01*
X363096Y348340D01*
X364216Y347876D01*
X365429D01*
X366549Y348340D01*
X367407Y349197D01*
X367871Y350318D01*
Y351042D01*
X368258Y351429D01*
X370901D01*
Y351716D01*
X371955D01*
Y355333D01*
X372234D01*
X373354Y355797D01*
X374211Y356655D01*
X374675Y357775D01*
Y358988D01*
X374211Y360108D01*
X373354Y360965D01*
X372679Y361245D01*
Y363571D01*
X373420D01*
X374540Y364035D01*
X375397Y364892D01*
X375637Y365470D01*
X376462D01*
X376638Y365044D01*
X377495Y364187D01*
X378616Y363723D01*
X378684D01*
Y359885D01*
X383256D01*
Y360172D01*
X384023D01*
Y359885D01*
X388595D01*
Y364457D01*
X388595Y364457D01*
X388740Y365159D01*
X389034Y365870D01*
Y367083D01*
X388570Y368203D01*
X387713Y369060D01*
X386592Y369524D01*
X385380D01*
X384259Y369060D01*
X383402Y368203D01*
X383032Y367309D01*
X382410Y367365D01*
X382253Y367419D01*
X381806Y368498D01*
X380949Y369355D01*
X379828Y369819D01*
X378616D01*
X377495Y369355D01*
X376638Y368498D01*
X376399Y367920D01*
X375574D01*
X375397Y368345D01*
X374540Y369202D01*
X373420Y369666D01*
X372679D01*
Y379268D01*
X373420D01*
X374540Y379732D01*
X375397Y380589D01*
X375574Y381015D01*
X376399D01*
X376638Y380437D01*
X376952Y380123D01*
X377192Y379461D01*
X377192Y379461D01*
X377192D01*
X377192Y379461D01*
Y374889D01*
X381764D01*
Y375176D01*
X382532D01*
Y374889D01*
X387104D01*
Y379184D01*
X387812Y379478D01*
X388669Y380335D01*
X389133Y381455D01*
Y382668D01*
X388669Y383788D01*
X387812Y384646D01*
X386691Y385110D01*
X385479D01*
X384358Y384646D01*
X383501Y383788D01*
X383037Y382668D01*
Y382574D01*
X383032Y382570D01*
X382733Y382649D01*
X382212Y382911D01*
X381806Y383890D01*
X380949Y384747D01*
X379828Y385211D01*
X378616D01*
X377495Y384747D01*
X376638Y383890D01*
X376462Y383464D01*
X375637D01*
X375397Y384042D01*
X374540Y384900D01*
X373420Y385364D01*
X372679D01*
Y387870D01*
X373229Y388098D01*
X374087Y388956D01*
X374551Y390076D01*
Y391289D01*
X374087Y392409D01*
X373229Y393266D01*
X372679Y393494D01*
Y411489D01*
X373618Y411878D01*
X374258Y412518D01*
X374722Y412664D01*
X375212Y412523D01*
X375844Y411891D01*
X376965Y411427D01*
X378177D01*
X379298Y411891D01*
X380155Y412748D01*
X380387Y413308D01*
X381212D01*
X381505Y412601D01*
X382362Y411743D01*
X383482Y411279D01*
X384695D01*
X385815Y411743D01*
X386673Y412601D01*
X387137Y413721D01*
Y414934D01*
X386673Y416054D01*
X385815Y416911D01*
X384695Y417375D01*
X384332D01*
Y426740D01*
X384241Y426960D01*
Y429654D01*
X387556D01*
X387921Y428773D01*
X388778Y427916D01*
X389898Y427452D01*
X391111D01*
X391660Y426854D01*
Y410134D01*
X394112Y407682D01*
X393903Y407179D01*
Y405966D01*
X394367Y404846D01*
X395225Y403989D01*
X396345Y403525D01*
X396542D01*
Y401249D01*
X395992Y401021D01*
X395134Y400164D01*
X394670Y399043D01*
Y397831D01*
X395134Y396711D01*
X395992Y395853D01*
X396542Y395625D01*
Y389527D01*
X400517Y385552D01*
Y362775D01*
X393649Y355907D01*
Y352044D01*
X392887Y351893D01*
X392875Y351921D01*
X392018Y352779D01*
X390898Y353243D01*
X389685D01*
X388565Y352779D01*
X387707Y351921D01*
X387243Y350801D01*
Y349589D01*
X387707Y348468D01*
X388565Y347611D01*
X389685Y347147D01*
X390898D01*
X392018Y347611D01*
X392875Y348468D01*
X392887Y348497D01*
X393649Y348345D01*
Y328455D01*
X393493D01*
X392372Y327991D01*
X391515Y327134D01*
X391051Y326013D01*
Y324801D01*
X391515Y323680D01*
X392372Y322823D01*
X393493Y322359D01*
X393649D01*
Y319463D01*
X393563Y319423D01*
X392593Y319801D01*
X392504Y320014D01*
X391647Y320871D01*
X390527Y321335D01*
X389314D01*
X388194Y320871D01*
X387337Y320014D01*
X386872Y318894D01*
Y317681D01*
X387003Y317367D01*
X386579Y316733D01*
X380425D01*
X380136Y317376D01*
X380136Y317495D01*
Y318391D01*
X382044D01*
Y323471D01*
X380136D01*
Y324487D01*
X380136Y324487D01*
X380136D01*
X380136Y324488D01*
X380402Y325139D01*
X380732Y325469D01*
X381196Y326589D01*
Y327802D01*
X380732Y328922D01*
X379874Y329779D01*
X378754Y330243D01*
X377541D01*
X376421Y329779D01*
X375564Y328922D01*
X375100Y327802D01*
X374362Y327861D01*
X374209Y327896D01*
X373914Y328607D01*
X373057Y329464D01*
X371936Y329928D01*
X370724D01*
X369604Y329464D01*
X368746Y328607D01*
X368443Y327874D01*
X367618D01*
X367341Y328543D01*
X366483Y329401D01*
X365363Y329865D01*
X364150D01*
X363030Y329401D01*
X362173Y328543D01*
X361882Y327841D01*
X361068Y327868D01*
X360714Y328724D01*
X359856Y329581D01*
X358736Y330045D01*
X357524D01*
X356403Y329581D01*
X355546Y328724D01*
X355082Y327603D01*
Y326391D01*
X355375Y325683D01*
Y324696D01*
X354404D01*
Y317584D01*
X361008D01*
Y318600D01*
X361902D01*
Y317584D01*
X368506D01*
Y324316D01*
X369268Y324632D01*
X369604Y324296D01*
X370724Y323832D01*
X371936D01*
X372770Y324178D01*
X373464Y323812D01*
X373532Y323731D01*
Y317495D01*
X373532Y317376D01*
X373244Y316733D01*
X324005D01*
X323609Y317326D01*
Y318538D01*
X323145Y319658D01*
X322287Y320516D01*
X321167Y320980D01*
X319954D01*
X318834Y320516D01*
X317977Y319658D01*
X317513Y318538D01*
Y317326D01*
X317117Y316733D01*
X233928D01*
X210127Y340534D01*
Y368414D01*
X212054Y370342D01*
X251864D01*
X261666Y380144D01*
Y426004D01*
X277967Y442305D01*
X323627D01*
X331396Y434536D01*
D02*
G37*
G36*
X626610Y443260D02*
Y419054D01*
X582694Y375138D01*
X563004D01*
X562538Y375331D01*
X561325D01*
X560859Y375138D01*
X552851D01*
X550314Y377675D01*
Y384134D01*
X550817Y384637D01*
X551396Y385079D01*
X554593D01*
X554909Y384317D01*
X554501Y383910D01*
X554038Y382790D01*
Y381577D01*
X554501Y380457D01*
X555359Y379600D01*
X556479Y379136D01*
X557692D01*
X558812Y379600D01*
X558926Y379713D01*
X559933Y379643D01*
X560421Y379155D01*
X561541Y378691D01*
X562754D01*
X563874Y379155D01*
X564412Y379693D01*
X565371Y379717D01*
X565506Y379582D01*
X566627Y379118D01*
X567839D01*
X568959Y379582D01*
X569817Y380439D01*
X569845Y380507D01*
X570548Y380738D01*
X570547Y380738D01*
X570548Y380738D01*
X574546D01*
Y381792D01*
X574832D01*
Y386365D01*
X570261D01*
Y386150D01*
X569145D01*
X568353Y385993D01*
X567932Y385711D01*
X567446Y386303D01*
X603244Y422102D01*
X603992Y421953D01*
X604049Y421813D01*
X604907Y420956D01*
X606027Y420492D01*
X607240D01*
X608360Y420956D01*
X609217Y421813D01*
X609681Y422934D01*
Y424146D01*
X609217Y425266D01*
X608360Y426124D01*
X607240Y426588D01*
X606027D01*
X605654Y426433D01*
X605020Y426857D01*
Y438707D01*
X605354Y438885D01*
X607943Y441010D01*
X610067Y443599D01*
X611110Y445549D01*
X624322D01*
X626610Y443260D01*
D02*
G37*
G36*
X529351Y402656D02*
Y398811D01*
X529212D01*
Y398523D01*
X528157D01*
Y394525D01*
X529212D01*
Y394239D01*
X529299D01*
Y393466D01*
X527842D01*
Y390692D01*
X527695Y390560D01*
X526933Y390899D01*
Y392641D01*
X522361D01*
Y392354D01*
X521307D01*
Y388356D01*
X522361D01*
Y388069D01*
X523859D01*
Y387637D01*
X524219Y386766D01*
X524137Y386567D01*
Y385354D01*
X524601Y384234D01*
X525458Y383377D01*
X526578Y382913D01*
X527791D01*
X528911Y383377D01*
X529769Y384234D01*
X530233Y385354D01*
Y386567D01*
X530038Y387037D01*
X531410Y388410D01*
X531734Y388894D01*
X532415D01*
Y389181D01*
X533469D01*
Y393179D01*
X533966Y393735D01*
X534764Y394533D01*
Y397934D01*
X535394Y398564D01*
X538605D01*
X539003Y398165D01*
Y394787D01*
X539003D01*
X538983Y394033D01*
X538289Y393339D01*
Y390256D01*
X539486Y389059D01*
Y384091D01*
X539109Y383715D01*
X538974Y383389D01*
X538856Y383271D01*
Y383103D01*
X538645Y382594D01*
Y381382D01*
X538781Y381054D01*
X537929Y380202D01*
X535033D01*
Y379872D01*
X534093D01*
Y380228D01*
X530095D01*
Y379872D01*
X529918D01*
X528912Y378866D01*
Y370558D01*
X528141Y369788D01*
X527796Y369931D01*
X526583D01*
X525823Y369616D01*
X524947Y370492D01*
Y373324D01*
X524238Y374033D01*
X524053Y374719D01*
X524053Y374719D01*
X524053D01*
X524053Y374719D01*
Y379799D01*
X523446D01*
X522366Y380878D01*
X517017D01*
X515877Y382019D01*
Y382399D01*
X515412Y383519D01*
X515127Y383804D01*
Y389186D01*
X516638Y390698D01*
Y394025D01*
X517439D01*
Y399064D01*
X518456Y399485D01*
X518544Y399572D01*
X521988D01*
X525574Y403159D01*
X528848D01*
X529351Y402656D01*
D02*
G37*
G36*
X509613Y392811D02*
Y388729D01*
X508970D01*
Y384731D01*
X509613D01*
Y376161D01*
X509171Y375719D01*
X507695D01*
X507647Y375768D01*
X506174D01*
X505043Y374637D01*
Y373268D01*
X505010Y373189D01*
Y371976D01*
X505043Y371896D01*
Y370954D01*
X506763Y369235D01*
X510377D01*
Y368897D01*
X513682D01*
X514180Y368399D01*
Y365453D01*
X513199Y364472D01*
X509367D01*
X509356Y364483D01*
X508235Y364947D01*
X507023D01*
X505993Y364520D01*
X505389D01*
X503768Y362900D01*
Y360002D01*
X503425Y359659D01*
X498663D01*
X498020Y359926D01*
X496807D01*
X495687Y359462D01*
X494829Y358604D01*
X494365Y357484D01*
Y356271D01*
X494546Y355836D01*
X493702Y354993D01*
X491244D01*
X490555Y355681D01*
Y358577D01*
X491439Y359461D01*
X492618D01*
X492879Y359722D01*
X493712Y360067D01*
X494569Y360924D01*
X495033Y362045D01*
Y363257D01*
X494878Y363631D01*
Y363931D01*
X495767Y364820D01*
X498704D01*
Y364962D01*
X499397D01*
X499542Y365107D01*
X499758D01*
Y365323D01*
X499839Y365404D01*
Y369773D01*
X499878Y369812D01*
X500342Y370932D01*
Y372145D01*
X499878Y373265D01*
X499839Y373304D01*
Y373665D01*
X499839Y373949D01*
X499801Y374411D01*
X499801Y374411D01*
Y379491D01*
X499801Y379491D01*
X499801D01*
X500239Y380048D01*
X500380Y380190D01*
Y380740D01*
X500636Y381359D01*
Y382571D01*
X500380Y383191D01*
Y383825D01*
X501165Y384609D01*
X504162D01*
X505341Y385788D01*
Y390123D01*
X505706Y391006D01*
Y392218D01*
X505382Y393002D01*
X505978Y393598D01*
X508825D01*
X509613Y392811D01*
D02*
G37*
G36*
X639041Y320596D02*
Y279215D01*
X656539Y261716D01*
X660794D01*
X662427Y260083D01*
X671502D01*
X672404Y259182D01*
Y256476D01*
X663537D01*
Y255994D01*
X641652D01*
X622849Y274797D01*
Y316098D01*
X580408Y358539D01*
X569064D01*
X568912Y359301D01*
X568959Y359320D01*
X569817Y360178D01*
X570281Y361298D01*
Y362511D01*
X569817Y363631D01*
X568959Y364488D01*
X567839Y364952D01*
X566627D01*
X565506Y364488D01*
X565160Y364142D01*
X564280Y364276D01*
X563422Y365133D01*
X562302Y365597D01*
X561089D01*
X559969Y365133D01*
X559199Y364363D01*
X558342Y365220D01*
X557222Y365684D01*
X556009D01*
X554889Y365220D01*
X554617Y364947D01*
X550723Y368841D01*
Y373256D01*
X551238Y373771D01*
X551879Y374166D01*
X552851Y373763D01*
X552851Y373763D01*
X553519D01*
X554029Y373001D01*
X553819Y372495D01*
Y371283D01*
X554283Y370163D01*
X555140Y369305D01*
X556261Y368841D01*
X557473D01*
X558594Y369305D01*
X559058Y369769D01*
X560075Y369829D01*
X560205Y369699D01*
X561325Y369235D01*
X562538D01*
X563658Y369699D01*
X563940Y369980D01*
X564649Y370259D01*
X564931Y369976D01*
X565506Y369402D01*
X566627Y368937D01*
X567839D01*
X568959Y369402D01*
X569232Y369674D01*
X569994Y369358D01*
Y368988D01*
X573992D01*
Y370042D01*
X574279D01*
Y373763D01*
X582694D01*
X583666Y374166D01*
X583666Y374166D01*
X583739Y374239D01*
X585399D01*
X639041Y320596D01*
D02*
G37*
G36*
X530608Y368325D02*
X532760D01*
X534200Y366885D01*
Y366276D01*
X534664Y365156D01*
X534858Y364962D01*
Y363723D01*
X534664Y363529D01*
X534200Y362409D01*
Y361196D01*
X534664Y360076D01*
X534858Y359882D01*
Y353021D01*
X534436Y352003D01*
Y350790D01*
X534858Y349772D01*
Y347888D01*
X534441Y346882D01*
Y345669D01*
X534858Y344664D01*
Y290175D01*
X482521Y237838D01*
X440652D01*
X405653Y272837D01*
X211677D01*
X160593Y323921D01*
Y343270D01*
X161305Y343982D01*
X164904D01*
X214179Y294707D01*
X214076Y294286D01*
X213240Y293941D01*
X213177Y293985D01*
X212729Y294433D01*
X211609Y294897D01*
X210397D01*
X209276Y294433D01*
X208419Y293575D01*
X207955Y292455D01*
Y291242D01*
X208419Y290122D01*
X209276Y289265D01*
X210397Y288801D01*
X211609D01*
X212729Y289265D01*
X213177Y289712D01*
X213675Y290060D01*
X214173Y289712D01*
X214620Y289265D01*
X215741Y288801D01*
X216953D01*
X218074Y289265D01*
X218848Y290039D01*
X226400Y282486D01*
X436722D01*
X453776Y299540D01*
X455270Y299086D01*
X458603Y298758D01*
X461935Y299086D01*
X465140Y300058D01*
X468093Y301637D01*
X470681Y303761D01*
X472806Y306350D01*
X474384Y309303D01*
X475356Y312507D01*
X475685Y315840D01*
X475356Y319172D01*
X474903Y320667D01*
X497896Y343660D01*
X497898D01*
X499018Y344123D01*
X499875Y344981D01*
X500339Y346101D01*
Y346103D01*
X502635Y348399D01*
X510090D01*
Y348285D01*
X512176Y346199D01*
Y344799D01*
X511407Y344030D01*
X511085Y343548D01*
X510586D01*
Y343261D01*
X509532D01*
Y339263D01*
X510586D01*
Y338976D01*
X512176D01*
Y331127D01*
X451264Y270215D01*
Y248031D01*
X456535Y242761D01*
X464622D01*
X466339Y244478D01*
Y249377D01*
X460088Y255628D01*
Y260779D01*
X526760Y327452D01*
Y347909D01*
X527193Y348198D01*
X528406D01*
X529526Y348662D01*
X530383Y349520D01*
X530847Y350640D01*
Y351853D01*
X530383Y352973D01*
X529526Y353830D01*
X529521Y353854D01*
X530266Y354600D01*
X530731Y355720D01*
Y356933D01*
X530266Y358053D01*
X529475Y358845D01*
X530310Y359680D01*
X530774Y360800D01*
Y362013D01*
X530310Y363133D01*
X529452Y363990D01*
X528332Y364454D01*
X527119D01*
X526542Y364215D01*
X525780Y364725D01*
Y367454D01*
X525697Y367537D01*
X525998Y368314D01*
X526076Y368346D01*
X526349D01*
X526857Y368556D01*
X527523D01*
X527615Y368518D01*
X527889Y368518D01*
X528141Y368413D01*
X528394Y368518D01*
X528667Y368518D01*
X528861Y368711D01*
X528985Y368762D01*
X530608D01*
Y368325D01*
D02*
G37*
G36*
X549751Y367869D02*
X549751Y367869D01*
X553644Y363975D01*
X553838Y363895D01*
X553568Y363242D01*
Y362029D01*
X554032Y360909D01*
X554643Y360298D01*
X554674Y359379D01*
X554611Y359315D01*
X554147Y358195D01*
Y356982D01*
X554611Y355862D01*
X555468Y355005D01*
X555555Y354969D01*
X555733Y354070D01*
X555332Y353669D01*
X554868Y352549D01*
Y351336D01*
X555332Y350216D01*
X556189Y349358D01*
X556237Y349118D01*
X555721Y348602D01*
X555257Y347481D01*
Y346269D01*
X555721Y345149D01*
X555875Y344994D01*
X555993Y344780D01*
X555705Y344086D01*
X555163D01*
Y340088D01*
X556217D01*
Y339801D01*
X560789D01*
Y344373D01*
X560789D01*
X560850Y345110D01*
X560889Y345149D01*
X561353Y346269D01*
Y347481D01*
X560889Y348602D01*
X560031Y349459D01*
X559983Y349699D01*
X560500Y350216D01*
X560964Y351336D01*
Y352549D01*
X560500Y353669D01*
X559643Y354526D01*
X559556Y354562D01*
X559377Y355461D01*
X559779Y355862D01*
X560134Y356719D01*
X560947Y356984D01*
X562008Y355923D01*
X564657D01*
X564803Y355632D01*
X564891Y355161D01*
X564133Y354403D01*
X563669Y353283D01*
Y352070D01*
X564133Y350950D01*
X564991Y350093D01*
X565073Y350059D01*
X565229Y349169D01*
X564700Y348640D01*
X564236Y347519D01*
Y346307D01*
X564700Y345187D01*
X565557Y344329D01*
X566677Y343865D01*
X567890D01*
X569010Y344329D01*
X569868Y345187D01*
X570332Y346307D01*
Y347519D01*
X569868Y348640D01*
X569010Y349497D01*
X568928Y349531D01*
X568772Y350421D01*
X569301Y350950D01*
X569765Y352070D01*
Y353283D01*
X569301Y354403D01*
X568544Y355161D01*
X568631Y355632D01*
X568777Y355923D01*
X581080D01*
X621048Y315955D01*
Y269403D01*
X599133Y247487D01*
X541233D01*
X515394Y221648D01*
X441467D01*
X437299Y225816D01*
Y231948D01*
X439344Y233992D01*
X490121D01*
X493476Y237348D01*
X545488Y289359D01*
Y307766D01*
X547162Y307987D01*
X549123Y308799D01*
X550806Y310091D01*
X552098Y311775D01*
X552911Y313735D01*
X553188Y315840D01*
X552911Y317944D01*
X552098Y319904D01*
X550806Y321588D01*
X549123Y322880D01*
X547162Y323692D01*
X545488Y323913D01*
Y343326D01*
X546121Y343750D01*
X546487Y343599D01*
X547699D01*
X548820Y344062D01*
X549677Y344920D01*
X550141Y346040D01*
Y347253D01*
X549677Y348373D01*
X549122Y348928D01*
X549163Y349132D01*
X550020Y349990D01*
X550484Y351110D01*
Y352323D01*
X550020Y353443D01*
X549163Y354300D01*
X549071Y354763D01*
X549337Y355029D01*
X549801Y356149D01*
Y357362D01*
X549337Y358482D01*
X549327Y358492D01*
X549447Y359450D01*
X550056Y360058D01*
X550520Y361179D01*
Y362391D01*
X550056Y363512D01*
X549198Y364369D01*
X548078Y364833D01*
X546865D01*
X546250Y364578D01*
X545488Y365087D01*
Y367536D01*
X546141Y368188D01*
X549618D01*
X549751Y367869D01*
D02*
G37*
G36*
X699915Y282392D02*
Y278425D01*
X698619Y277129D01*
X663964D01*
X663235Y277858D01*
Y282230D01*
X664611Y283606D01*
X698701D01*
X699915Y282392D01*
D02*
G37*
G36*
X701777Y273568D02*
Y264013D01*
X699267Y261503D01*
X663722D01*
X661698Y263528D01*
Y273647D01*
X663481Y275430D01*
X699915D01*
X701777Y273568D01*
D02*
G37*
G36*
X702102Y253406D02*
Y238590D01*
X700644Y237132D01*
X688718D01*
X686313Y234727D01*
Y196474D01*
X669211Y179372D01*
X555112D01*
X552173Y182311D01*
Y186870D01*
X552839Y187374D01*
X553131Y187279D01*
X553245Y187146D01*
Y186980D01*
X557243D01*
Y187289D01*
X558005Y187742D01*
X558495Y187657D01*
X559543Y187223D01*
X560755D01*
X561875Y187687D01*
X562733Y188545D01*
X563197Y189665D01*
Y190878D01*
X562733Y191998D01*
X561875Y192855D01*
X560755Y193319D01*
X559543D01*
X558529Y192900D01*
X557784Y192860D01*
X557784Y192860D01*
X557784Y192860D01*
X553644D01*
X553329Y193622D01*
X555912Y196205D01*
X562059D01*
X575955Y210101D01*
Y218651D01*
X579163Y221859D01*
X622719D01*
X655480Y254619D01*
X663537D01*
X664509Y255022D01*
X664542Y255102D01*
X672404D01*
X673376Y255504D01*
X673413Y255593D01*
X699915D01*
X702102Y253406D01*
D02*
G37*
G36*
X340172Y180825D02*
Y103993D01*
X345327Y98838D01*
X345013Y98081D01*
Y96869D01*
X345477Y95749D01*
X346335Y94891D01*
X347455Y94427D01*
X348668D01*
X349424Y94740D01*
X350345Y93820D01*
X376502D01*
X391213Y79108D01*
Y60627D01*
X387777Y57191D01*
X366501D01*
X365620Y58072D01*
X366052Y58718D01*
X366182Y58664D01*
X367395D01*
X368515Y59128D01*
X369373Y59985D01*
X369837Y61106D01*
Y62318D01*
X369373Y63438D01*
X368515Y64296D01*
X367395Y64760D01*
X366182D01*
X365062Y64296D01*
X364205Y63438D01*
X363741Y62318D01*
Y61106D01*
X363795Y60975D01*
X363149Y60544D01*
X348869Y74823D01*
X348348Y75171D01*
X347734Y75294D01*
X344518D01*
X343880Y75931D01*
X294016D01*
Y89515D01*
X294265Y89701D01*
X294778Y89916D01*
X295753Y89512D01*
X296966D01*
X298086Y89976D01*
X298944Y90834D01*
X299260Y91597D01*
X302433Y94770D01*
X306101D01*
Y98438D01*
X317106Y109444D01*
Y118321D01*
X317685D01*
Y126449D01*
X317106D01*
Y133469D01*
X317482D01*
Y141597D01*
X317106D01*
Y162387D01*
X314018Y165476D01*
X252260D01*
X247449Y170287D01*
Y184008D01*
X248991Y185550D01*
X275577D01*
X275729Y184788D01*
X275596Y184732D01*
X274738Y183875D01*
X274274Y182755D01*
Y181542D01*
X274738Y180422D01*
X275596Y179564D01*
X276716Y179100D01*
X277929D01*
X279049Y179564D01*
X279906Y180422D01*
X280370Y181542D01*
Y182755D01*
X279906Y183875D01*
X279049Y184732D01*
X278916Y184788D01*
X279067Y185550D01*
X335448D01*
X340172Y180825D01*
D02*
G37*
G36*
X314198Y157574D02*
Y141597D01*
X313926D01*
Y133469D01*
X314198D01*
Y126449D01*
X314129D01*
Y118321D01*
X314198D01*
Y110714D01*
X307660Y104176D01*
X287124D01*
X285191Y106109D01*
Y108575D01*
X283599Y110167D01*
X281308D01*
Y110673D01*
X273179D01*
Y110167D01*
X266395D01*
Y110675D01*
X258267D01*
Y110167D01*
X256255D01*
X252623Y106535D01*
Y103266D01*
X251170Y101813D01*
X246085D01*
X244815Y103083D01*
Y104879D01*
X250177Y110241D01*
X250525Y110762D01*
X250648Y111376D01*
Y127808D01*
X256167Y133327D01*
Y139502D01*
X256629D01*
Y144582D01*
X256167D01*
Y147404D01*
X252534Y151036D01*
Y159664D01*
X254196Y161326D01*
X254958Y161254D01*
Y161254D01*
X263086D01*
Y161752D01*
X270025D01*
Y161625D01*
X278153D01*
Y161752D01*
X284863D01*
Y161674D01*
X292992D01*
Y161752D01*
X299562D01*
Y161742D01*
X307691D01*
Y161752D01*
X310020D01*
X314198Y157574D01*
D02*
G37*
G36*
X273179Y107117D02*
X281196D01*
X282141Y106172D01*
Y100993D01*
X281960Y100813D01*
Y97544D01*
X283656Y95848D01*
X283164Y95356D01*
X282700Y94236D01*
Y93023D01*
X283164Y91903D01*
X283417Y91650D01*
Y75931D01*
X254079D01*
X247043Y82967D01*
X246831Y83178D01*
Y87147D01*
X246654Y88039D01*
X246148Y88795D01*
X244635Y90309D01*
Y90609D01*
Y97363D01*
X245871Y98599D01*
X245874Y98600D01*
X246065Y98791D01*
X246524D01*
X246550Y98798D01*
X246550Y98798D01*
Y98798D01*
X246550Y98798D01*
X251630D01*
Y99179D01*
X255440D01*
X257711Y101450D01*
Y106623D01*
Y107112D01*
X258259D01*
X258267Y107119D01*
X266395D01*
Y107262D01*
X273179D01*
Y107117D01*
D02*
G37*
G36*
X625127Y114076D02*
Y79606D01*
X624058Y78537D01*
X611835D01*
X610766Y79606D01*
Y115613D01*
X610966Y115814D01*
X623390D01*
X625127Y114076D01*
D02*
G37*
G36*
X640832Y114409D02*
Y79073D01*
X640230Y78471D01*
X627738D01*
X626996Y79212D01*
Y115077D01*
X628000Y116081D01*
X639160D01*
X640832Y114409D01*
D02*
G37*
G36*
X660941Y114676D02*
Y106576D01*
X662010Y105506D01*
X663674D01*
X665610Y103571D01*
Y88539D01*
X664941Y87871D01*
X662008D01*
X660941Y86805D01*
Y78941D01*
X659536Y77536D01*
X644708D01*
X642704Y79540D01*
Y115146D01*
X642770Y115212D01*
Y116413D01*
X659204D01*
X660941Y114676D01*
D02*
G37*
G36*
X75004Y413286D02*
Y382405D01*
X55192Y362593D01*
Y342199D01*
X57878Y339512D01*
X58259Y338593D01*
X59117Y337735D01*
X60036Y337355D01*
X75001Y322389D01*
Y88694D01*
X74029D01*
X72909Y88230D01*
X72521Y87843D01*
X71827Y87578D01*
X71532Y87849D01*
X70952Y88428D01*
X69831Y88892D01*
X68619D01*
X67499Y88428D01*
X66641Y87571D01*
X66177Y86451D01*
Y85238D01*
X66641Y84118D01*
X67499Y83260D01*
X68619Y82796D01*
X69831D01*
X70952Y83260D01*
X71339Y83648D01*
X72033Y83913D01*
X72329Y83642D01*
X72909Y83062D01*
X74029Y82598D01*
X75001D01*
Y40594D01*
X85802Y29793D01*
Y17861D01*
X84151Y16210D01*
X83702Y15538D01*
X83544Y14745D01*
X83544Y14745D01*
Y13920D01*
X83032Y13408D01*
X82568Y12288D01*
Y11075D01*
X83032Y9955D01*
X83889Y9097D01*
X85009Y8633D01*
X86222D01*
X87342Y9097D01*
X88200Y9955D01*
X88900Y10094D01*
X89175Y9819D01*
X90295Y9355D01*
X91508D01*
X92628Y9819D01*
X93485Y10676D01*
X93949Y11796D01*
Y13009D01*
X93485Y14129D01*
X92973Y14642D01*
Y14992D01*
X93090Y15166D01*
X93248Y15959D01*
X93248Y15959D01*
Y21352D01*
X93952Y21644D01*
X95309Y20287D01*
X95667Y18951D01*
X96737Y17097D01*
X98250Y15584D01*
X100104Y14514D01*
X101440Y14156D01*
X108331Y7264D01*
X567642D01*
X592798Y32421D01*
Y33198D01*
X624261Y64661D01*
X660390D01*
X680976Y85247D01*
Y138468D01*
X684472Y141963D01*
X732292D01*
Y54151D01*
X731530Y53879D01*
X728916Y57063D01*
X725281Y60047D01*
X721133Y62264D01*
X716632Y63629D01*
X711952Y64090D01*
X707271Y63629D01*
X702771Y62264D01*
X698623Y60047D01*
X694987Y57063D01*
X692004Y53428D01*
X689787Y49280D01*
X688421Y44780D01*
X687960Y40099D01*
X688421Y35419D01*
X689787Y30918D01*
X692004Y26770D01*
X694987Y23134D01*
X698623Y20151D01*
X702771Y17934D01*
X707271Y16568D01*
X711952Y16107D01*
X716632Y16568D01*
X721133Y17934D01*
X725281Y20151D01*
X728916Y23134D01*
X731530Y26319D01*
X732292Y26047D01*
Y5082D01*
X4948D01*
Y419113D01*
X69177D01*
X75004Y413286D01*
D02*
G37*
%LPC*%
G36*
X652729Y598000D02*
X651856D01*
X651725Y597946D01*
X651585Y597973D01*
X650122Y597679D01*
X650004Y597600D01*
X649862Y597599D01*
X648486Y597023D01*
X648386Y596922D01*
X648246Y596893D01*
X647011Y596056D01*
X646933Y595937D01*
X646802Y595882D01*
X645755Y594818D01*
X645702Y594686D01*
X645585Y594606D01*
X644769Y593356D01*
X644743Y593217D01*
X644643Y593115D01*
X644090Y591729D01*
X644091Y591587D01*
X644014Y591468D01*
X643745Y590000D01*
X643774Y589861D01*
X643722Y589729D01*
X643735Y588995D01*
Y588255D01*
X643788Y588125D01*
X643761Y587987D01*
X644054Y586515D01*
X644132Y586398D01*
Y586257D01*
X644706Y584870D01*
X644806Y584771D01*
X644834Y584632D01*
X645667Y583385D01*
X645784Y583306D01*
X645838Y583176D01*
X646900Y582115D01*
X647030Y582061D01*
X647108Y581944D01*
X648356Y581110D01*
X648494Y581082D01*
X648594Y580983D01*
X649980Y580409D01*
X650121D01*
X650238Y580330D01*
X651711Y580037D01*
X651849Y580065D01*
X651979Y580011D01*
X653480D01*
X653610Y580065D01*
X653748Y580037D01*
X655220Y580330D01*
X655337Y580409D01*
X655478D01*
X656865Y580983D01*
X656964Y581082D01*
X657102Y581110D01*
X658350Y581944D01*
X658429Y582061D01*
X658559Y582115D01*
X659620Y583176D01*
X659674Y583306D01*
X659791Y583385D01*
X660625Y584632D01*
X660652Y584771D01*
X660752Y584870D01*
X661326Y586257D01*
Y586398D01*
X661405Y586515D01*
X661697Y587987D01*
X661670Y588125D01*
X661724Y588255D01*
Y589740D01*
X661671Y589868D01*
X661699Y590003D01*
X661418Y591445D01*
X661342Y591560D01*
X661343Y591698D01*
X660792Y593060D01*
X660696Y593158D01*
X660670Y593294D01*
X659870Y594526D01*
X659756Y594604D01*
X659706Y594732D01*
X658684Y595788D01*
X658558Y595843D01*
X658484Y595960D01*
X657280Y596801D01*
X657145Y596831D01*
X657050Y596931D01*
X655707Y597528D01*
X655570Y597531D01*
X655457Y597611D01*
X654025Y597940D01*
X653889Y597918D01*
X653764Y597975D01*
X653030Y597999D01*
X653006Y597991D01*
X652983Y598000D01*
X652856Y597948D01*
X652729Y598000D01*
D02*
G37*
G36*
X612787Y558556D02*
X611574D01*
X610454Y558092D01*
X609597Y557235D01*
X609133Y556114D01*
Y554902D01*
X609597Y553782D01*
X610454Y552924D01*
X611574Y552460D01*
X612787D01*
X613907Y552924D01*
X614651Y553668D01*
X615362Y553692D01*
X616059Y553588D01*
X616145Y553380D01*
X617002Y552523D01*
X618122Y552059D01*
X619335D01*
X620455Y552523D01*
X621313Y553380D01*
X621777Y554501D01*
Y555713D01*
X621313Y556833D01*
X620455Y557691D01*
X619335Y558155D01*
X618122D01*
X617002Y557691D01*
X616258Y556947D01*
X615547Y556923D01*
X614851Y557027D01*
X614765Y557235D01*
X613907Y558092D01*
X612787Y558556D01*
D02*
G37*
G36*
X610928Y506527D02*
X609715D01*
X608595Y506063D01*
X607737Y505205D01*
X607273Y504085D01*
Y502873D01*
X607737Y501752D01*
X608595Y500895D01*
X609715Y500431D01*
X610928D01*
X612048Y500895D01*
X612771Y501618D01*
X613608Y501669D01*
X614215Y501596D01*
X614970Y500841D01*
X616091Y500378D01*
X617303D01*
X618423Y500841D01*
X619281Y501699D01*
X619745Y502819D01*
Y504032D01*
X619281Y505152D01*
X618423Y506009D01*
X617303Y506474D01*
X616091D01*
X614970Y506009D01*
X614247Y505286D01*
X613410Y505236D01*
X612803Y505308D01*
X612048Y506063D01*
X610928Y506527D01*
D02*
G37*
G36*
X619429Y492115D02*
X618217D01*
X617096Y491651D01*
X616239Y490793D01*
X615775Y489673D01*
Y488461D01*
X616239Y487340D01*
X616854Y486726D01*
X616960Y485862D01*
X616820Y485223D01*
X616157Y484560D01*
X615694Y483440D01*
Y482227D01*
X616157Y481107D01*
X617015Y480250D01*
X618135Y479786D01*
X619348D01*
X620468Y480250D01*
X621325Y481107D01*
X621790Y482227D01*
Y483440D01*
X621325Y484560D01*
X620711Y485175D01*
X620604Y486039D01*
X620744Y486678D01*
X621407Y487340D01*
X621871Y488461D01*
Y489673D01*
X621407Y490793D01*
X620549Y491651D01*
X619429Y492115D01*
D02*
G37*
G36*
X683986Y485597D02*
X682773D01*
X681653Y485133D01*
X680795Y484276D01*
X680331Y483156D01*
Y481943D01*
X680795Y480823D01*
X681653Y479965D01*
X682773Y479501D01*
X683986D01*
X685106Y479965D01*
X685963Y480823D01*
X686427Y481943D01*
Y483156D01*
X685963Y484276D01*
X685106Y485133D01*
X683986Y485597D01*
D02*
G37*
G36*
X23187Y597113D02*
X21974D01*
X20854Y596649D01*
X19997Y595792D01*
X19533Y594672D01*
Y593459D01*
X19997Y592339D01*
X20854Y591481D01*
X21974Y591017D01*
X23187D01*
X24307Y591481D01*
X25165Y592339D01*
X25629Y593459D01*
Y594672D01*
X25165Y595792D01*
X24307Y596649D01*
X23187Y597113D01*
D02*
G37*
G36*
X335856Y591960D02*
X334643D01*
X333523Y591496D01*
X332666Y590638D01*
X332201Y589518D01*
Y588305D01*
X332666Y587185D01*
X333523Y586328D01*
X334643Y585864D01*
X335856D01*
X336976Y586328D01*
X337834Y587185D01*
X338298Y588305D01*
Y589518D01*
X337834Y590638D01*
X336976Y591496D01*
X335856Y591960D01*
D02*
G37*
G36*
X47050Y581279D02*
X45838D01*
X44717Y580815D01*
X43860Y579958D01*
X43396Y578837D01*
Y577625D01*
X43860Y576504D01*
X44717Y575647D01*
X45838Y575183D01*
X47050D01*
X48170Y575647D01*
X49028Y576504D01*
X49492Y577625D01*
Y578837D01*
X49028Y579958D01*
X48170Y580815D01*
X47050Y581279D01*
D02*
G37*
G36*
X20812Y570060D02*
X19599D01*
X18479Y569596D01*
X17622Y568738D01*
X17158Y567618D01*
Y566405D01*
X17622Y565285D01*
X18479Y564428D01*
X19599Y563964D01*
X20812D01*
X21932Y564428D01*
X22790Y565285D01*
X23254Y566405D01*
Y567618D01*
X22790Y568738D01*
X21932Y569596D01*
X20812Y570060D01*
D02*
G37*
G36*
X27711Y535508D02*
X26498D01*
X25378Y535044D01*
X24520Y534187D01*
X24056Y533066D01*
Y531854D01*
X24520Y530734D01*
X25378Y529876D01*
X26498Y529412D01*
X27711D01*
X28831Y529876D01*
X29688Y530734D01*
X30152Y531854D01*
Y533066D01*
X29688Y534187D01*
X28831Y535044D01*
X27711Y535508D01*
D02*
G37*
G36*
X37853Y494932D02*
X36640D01*
X35520Y494468D01*
X34663Y493610D01*
X34199Y492490D01*
Y491277D01*
X34663Y490157D01*
X35520Y489300D01*
X36640Y488836D01*
X37853D01*
X38973Y489300D01*
X39831Y490157D01*
X40295Y491277D01*
Y492490D01*
X39831Y493610D01*
X38973Y494468D01*
X37853Y494932D01*
D02*
G37*
G36*
X27742Y484452D02*
X26869D01*
X26737Y484398D01*
X26598Y484425D01*
X25135Y484131D01*
X25017Y484052D01*
X24875Y484051D01*
X23498Y483474D01*
X23398Y483373D01*
X23259Y483345D01*
X22024Y482508D01*
X21945Y482389D01*
X21814Y482334D01*
X20768Y481270D01*
X20715Y481138D01*
X20597Y481058D01*
X19782Y479808D01*
X19755Y479669D01*
X19656Y479567D01*
X19102Y478181D01*
X19104Y478039D01*
X19027Y477919D01*
X18757Y476452D01*
X18787Y476313D01*
X18735Y476180D01*
X18747Y475447D01*
Y474707D01*
X18801Y474577D01*
X18774Y474439D01*
X19066Y472967D01*
X19145Y472850D01*
Y472709D01*
X19719Y471322D01*
X19819Y471222D01*
X19846Y471084D01*
X20680Y469836D01*
X20797Y469758D01*
X20851Y469628D01*
X21912Y468567D01*
X22043Y468513D01*
X22121Y468396D01*
X23369Y467562D01*
X23507Y467534D01*
X23606Y467435D01*
X24993Y466860D01*
X25134D01*
X25251Y466782D01*
X26723Y466489D01*
X26861Y466517D01*
X26991Y466463D01*
X28492D01*
X28623Y466517D01*
X28760Y466489D01*
X30233Y466782D01*
X30350Y466860D01*
X30491D01*
X31877Y467435D01*
X31977Y467534D01*
X32115Y467562D01*
X33363Y468396D01*
X33441Y468513D01*
X33571Y468567D01*
X34633Y469628D01*
X34687Y469758D01*
X34804Y469836D01*
X35638Y471084D01*
X35665Y471222D01*
X35765Y471322D01*
X36339Y472709D01*
Y472850D01*
X36417Y472967D01*
X36710Y474439D01*
X36683Y474577D01*
X36737Y474707D01*
Y476192D01*
X36684Y476320D01*
X36711Y476455D01*
X36431Y477897D01*
X36355Y478012D01*
X36356Y478150D01*
X35805Y479512D01*
X35708Y479610D01*
X35683Y479746D01*
X34883Y480978D01*
X34769Y481056D01*
X34718Y481184D01*
X33697Y482240D01*
X33571Y482295D01*
X33496Y482411D01*
X32292Y483253D01*
X32158Y483283D01*
X32063Y483383D01*
X30720Y483980D01*
X30582Y483983D01*
X30470Y484063D01*
X29038Y484392D01*
X28902Y484369D01*
X28777Y484426D01*
X28042Y484451D01*
X28019Y484442D01*
X27996Y484452D01*
X27869Y484400D01*
X27742Y484452D01*
D02*
G37*
G36*
X33545Y459961D02*
X32332D01*
X31212Y459497D01*
X30355Y458639D01*
X29891Y457519D01*
Y456307D01*
X30355Y455186D01*
X31212Y454329D01*
X32332Y453865D01*
X33545D01*
X34665Y454329D01*
X35523Y455186D01*
X35987Y456307D01*
Y457519D01*
X35523Y458639D01*
X34665Y459497D01*
X33545Y459961D01*
D02*
G37*
G36*
X47479Y452486D02*
X46267D01*
X45147Y452022D01*
X44289Y451164D01*
X43825Y450044D01*
Y448831D01*
X44289Y447711D01*
X45147Y446854D01*
X46267Y446390D01*
X47479D01*
X48600Y446854D01*
X49457Y447711D01*
X49921Y448831D01*
Y450044D01*
X49457Y451164D01*
X48600Y452022D01*
X47479Y452486D01*
D02*
G37*
G36*
X302344Y432415D02*
X296248D01*
Y431653D01*
X294846D01*
Y432415D01*
X288750D01*
Y425811D01*
X289726D01*
Y424002D01*
X289726Y424002D01*
X289884Y423209D01*
X290279Y422618D01*
Y421867D01*
X290743Y420747D01*
X291600Y419889D01*
X292721Y419425D01*
X293933D01*
X295053Y419889D01*
X295911Y420747D01*
X296166Y421362D01*
X296990D01*
X297245Y420747D01*
X298103Y419889D01*
X299223Y419425D01*
X300436D01*
X301556Y419889D01*
X302413Y420747D01*
X302668Y421362D01*
X303493D01*
X303748Y420747D01*
X304605Y419889D01*
X305725Y419425D01*
X306938D01*
X308058Y419889D01*
X308916Y420747D01*
X309380Y421867D01*
Y423079D01*
X308916Y424200D01*
X308058Y425057D01*
X306938Y425521D01*
X305725D01*
X304605Y425057D01*
X303748Y424200D01*
X303493Y423584D01*
X302668D01*
X302413Y424200D01*
X301564Y425049D01*
X301565Y425097D01*
X301728Y425811D01*
X302344D01*
Y432415D01*
D02*
G37*
G36*
X288501Y414254D02*
X283929D01*
Y413967D01*
X283162D01*
Y414254D01*
X278590D01*
Y409682D01*
X278590Y409682D01*
X278498Y408958D01*
X277738Y408198D01*
X277274Y407077D01*
Y405865D01*
X277738Y404745D01*
X278596Y403887D01*
X279716Y403423D01*
X280928D01*
X282049Y403887D01*
X282906Y404745D01*
X283161Y405360D01*
X283986D01*
X284240Y404745D01*
X285098Y403887D01*
X286218Y403423D01*
X287431D01*
X288551Y403887D01*
X289408Y404745D01*
X289872Y405865D01*
Y407077D01*
X289408Y408198D01*
X288632Y408974D01*
X288501Y409682D01*
X288501Y409682D01*
X288501Y409682D01*
Y414254D01*
D02*
G37*
G36*
X300436Y417520D02*
X299223D01*
X298103Y417056D01*
X297245Y416199D01*
X296781Y415078D01*
Y413866D01*
X297245Y412746D01*
X298103Y411888D01*
X299223Y411424D01*
X300436D01*
X301556Y411888D01*
X302413Y412746D01*
X302877Y413866D01*
Y415078D01*
X302413Y416199D01*
X301556Y417056D01*
X300436Y417520D01*
D02*
G37*
G36*
X319943Y409519D02*
X318730D01*
X317610Y409055D01*
X316752Y408198D01*
X316498Y407582D01*
X315673D01*
X315418Y408198D01*
X314561Y409055D01*
X313440Y409519D01*
X312228D01*
X311108Y409055D01*
X310250Y408198D01*
X309786Y407077D01*
Y405865D01*
X310250Y404745D01*
X311108Y403887D01*
X312228Y403423D01*
X313440D01*
X314561Y403887D01*
X315418Y404745D01*
X315673Y405360D01*
X316498D01*
X316752Y404745D01*
X317610Y403887D01*
X318730Y403423D01*
X319943D01*
X321063Y403887D01*
X321920Y404745D01*
X322384Y405865D01*
Y407077D01*
X321920Y408198D01*
X321063Y409055D01*
X319943Y409519D01*
D02*
G37*
G36*
X392047Y406583D02*
X387475D01*
Y406296D01*
X386707D01*
Y406583D01*
X382135D01*
Y402011D01*
X382135D01*
X382098Y401264D01*
X381609Y400776D01*
X381443Y400376D01*
X380619D01*
X380561Y400514D01*
X379704Y401372D01*
X378584Y401836D01*
X377371D01*
X376251Y401372D01*
X375393Y400514D01*
X374929Y399394D01*
Y398181D01*
X375393Y397061D01*
X376251Y396204D01*
X377371Y395740D01*
X378584D01*
X379704Y396204D01*
X380561Y397061D01*
X380727Y397460D01*
X381488Y397308D01*
Y396451D01*
X381274D01*
Y391879D01*
X381561D01*
Y390825D01*
X385559D01*
Y391879D01*
X385846D01*
Y396435D01*
X385919Y396465D01*
X386777Y397323D01*
X386991Y397840D01*
X387816D01*
X387971Y397465D01*
X388829Y396608D01*
X389949Y396143D01*
X391162D01*
X392282Y396608D01*
X393139Y397465D01*
X393604Y398585D01*
Y399798D01*
X393139Y400918D01*
X392282Y401775D01*
X392047Y402011D01*
Y406583D01*
D02*
G37*
G36*
X300436Y401518D02*
X299223D01*
X298103Y401054D01*
X297245Y400197D01*
X296781Y399076D01*
Y397864D01*
X297245Y396744D01*
X298103Y395886D01*
X299223Y395422D01*
X300436D01*
X301556Y395886D01*
X302413Y396744D01*
X302877Y397864D01*
Y399076D01*
X302413Y400197D01*
X301556Y401054D01*
X300436Y401518D01*
D02*
G37*
G36*
X280928D02*
X279716D01*
X278596Y401054D01*
X277738Y400197D01*
X277274Y399076D01*
Y397864D01*
X277738Y396744D01*
X278596Y395886D01*
X279716Y395422D01*
X280928D01*
X282049Y395886D01*
X282906Y396744D01*
X283370Y397864D01*
Y399076D01*
X282906Y400197D01*
X282049Y401054D01*
X280928Y401518D01*
D02*
G37*
G36*
X326445Y393517D02*
X325233D01*
X324112Y393053D01*
X323255Y392196D01*
X323000Y391580D01*
X322175D01*
X321920Y392196D01*
X321063Y393053D01*
X319943Y393517D01*
X318730D01*
X317610Y393053D01*
X316752Y392196D01*
X316498Y391580D01*
X315673D01*
X315418Y392196D01*
X314561Y393053D01*
X313440Y393517D01*
X312228D01*
X311108Y393053D01*
X310250Y392196D01*
X309995Y391580D01*
X309170D01*
X308916Y392196D01*
X308058Y393053D01*
X306938Y393517D01*
X305725D01*
X304605Y393053D01*
X303748Y392196D01*
X303493Y391580D01*
X302668D01*
X302413Y392196D01*
X301556Y393053D01*
X300436Y393517D01*
X299223D01*
X298103Y393053D01*
X297245Y392196D01*
X296990Y391580D01*
X296166D01*
X295911Y392196D01*
X295053Y393053D01*
X293933Y393517D01*
X292721D01*
X291600Y393053D01*
X290743Y392196D01*
X290488Y391580D01*
X289663D01*
X289408Y392196D01*
X288551Y393053D01*
X287431Y393517D01*
X286218D01*
X285098Y393053D01*
X284240Y392196D01*
X283986Y391580D01*
X283161D01*
X282906Y392196D01*
X282049Y393053D01*
X280928Y393517D01*
X279716D01*
X278596Y393053D01*
X277738Y392196D01*
X277274Y391075D01*
Y389863D01*
X277738Y388743D01*
X278596Y387885D01*
X279716Y387421D01*
X280928D01*
X282049Y387885D01*
X282906Y388743D01*
X283161Y389358D01*
X283986D01*
X284240Y388743D01*
X285098Y387885D01*
X286218Y387421D01*
X287431D01*
X288551Y387885D01*
X289408Y388743D01*
X289663Y389358D01*
X290488D01*
X290743Y388743D01*
X291600Y387885D01*
X292721Y387421D01*
X293933D01*
X295053Y387885D01*
X295911Y388743D01*
X296166Y389358D01*
X296990D01*
X297245Y388743D01*
X298103Y387885D01*
X299223Y387421D01*
X300436D01*
X301556Y387885D01*
X302413Y388743D01*
X302668Y389358D01*
X303493D01*
X303748Y388743D01*
X304605Y387885D01*
X305725Y387421D01*
X306938D01*
X308058Y387885D01*
X308916Y388743D01*
X309170Y389358D01*
X309995D01*
X310250Y388743D01*
X311108Y387885D01*
X312228Y387421D01*
X313440D01*
X314561Y387885D01*
X315418Y388743D01*
X315673Y389358D01*
X316498D01*
X316752Y388743D01*
X317341Y388154D01*
X317817Y387589D01*
Y383017D01*
X322389D01*
Y383304D01*
X323157D01*
Y383017D01*
X327729D01*
Y387589D01*
X327729Y387589D01*
X327729D01*
X327729Y387589D01*
X327942Y388262D01*
X328423Y388743D01*
X328887Y389863D01*
Y391075D01*
X328423Y392196D01*
X327565Y393053D01*
X326445Y393517D01*
D02*
G37*
G36*
X394695Y383639D02*
X393482D01*
X392362Y383175D01*
X391505Y382318D01*
X391041Y381197D01*
Y379985D01*
X391505Y378865D01*
X392362Y378007D01*
X393482Y377543D01*
X394695D01*
X395815Y378007D01*
X396673Y378865D01*
X397137Y379985D01*
Y381197D01*
X396673Y382318D01*
X395815Y383175D01*
X394695Y383639D01*
D02*
G37*
G36*
X301650Y365811D02*
X297078D01*
Y365524D01*
X296311D01*
Y365811D01*
X291739D01*
Y361239D01*
X291236Y360685D01*
X290743Y360192D01*
X290488Y359576D01*
X289663D01*
X289408Y360192D01*
X288551Y361049D01*
X287431Y361513D01*
X286218D01*
X285098Y361049D01*
X284240Y360192D01*
X283986Y359576D01*
X283161D01*
X282906Y360192D01*
X282049Y361049D01*
X280928Y361513D01*
X279716D01*
X278596Y361049D01*
X277738Y360192D01*
X277274Y359071D01*
Y357859D01*
X277738Y356739D01*
X278596Y355881D01*
X279716Y355417D01*
X280928D01*
X282049Y355881D01*
X282906Y356739D01*
X283161Y357354D01*
X283986D01*
X284240Y356739D01*
X285098Y355881D01*
X286218Y355417D01*
X287431D01*
X288551Y355881D01*
X289408Y356739D01*
X289663Y357354D01*
X290488D01*
X290743Y356739D01*
X291600Y355881D01*
X292721Y355417D01*
X293933D01*
X295053Y355881D01*
X295911Y356739D01*
X296166Y357354D01*
X296990D01*
X297245Y356739D01*
X298103Y355881D01*
X299223Y355417D01*
X300436D01*
X301556Y355881D01*
X302413Y356739D01*
X302668Y357354D01*
X303493D01*
X303748Y356739D01*
X304605Y355881D01*
X305725Y355417D01*
X306938D01*
X308058Y355881D01*
X308916Y356739D01*
X309170Y357354D01*
X309995D01*
X310250Y356739D01*
X311108Y355881D01*
X312228Y355417D01*
X313440D01*
X314561Y355881D01*
X315418Y356739D01*
X315673Y357354D01*
X316498D01*
X316752Y356739D01*
X317610Y355881D01*
X318730Y355417D01*
X319943D01*
X321063Y355881D01*
X321920Y356739D01*
X322175Y357354D01*
X323000D01*
X323255Y356739D01*
X324112Y355881D01*
X325233Y355417D01*
X326445D01*
X327565Y355881D01*
X328423Y356739D01*
X328887Y357859D01*
Y359071D01*
X328423Y360192D01*
X327565Y361049D01*
X327505Y361074D01*
Y365445D01*
X322933D01*
Y365158D01*
X322166D01*
Y365445D01*
X317594D01*
Y361033D01*
X316752Y360192D01*
X316498Y359576D01*
X315673D01*
X315418Y360192D01*
X314561Y361049D01*
X313440Y361513D01*
X312228D01*
X311108Y361049D01*
X310250Y360192D01*
X309995Y359576D01*
X309170D01*
X308916Y360192D01*
X308058Y361049D01*
X306938Y361513D01*
X305725D01*
X304605Y361049D01*
X303748Y360192D01*
X303493Y359576D01*
X302668D01*
X302413Y360192D01*
X301988Y360617D01*
X301650Y361239D01*
Y365811D01*
D02*
G37*
G36*
X394705Y369834D02*
X393493D01*
X392372Y369370D01*
X391515Y368513D01*
X391051Y367392D01*
Y366180D01*
X391515Y365060D01*
X392372Y364202D01*
X393493Y363738D01*
X394705D01*
X395825Y364202D01*
X396683Y365060D01*
X397147Y366180D01*
Y367392D01*
X396683Y368513D01*
X395825Y369370D01*
X394705Y369834D01*
D02*
G37*
G36*
X378647Y353560D02*
X377435D01*
X376314Y353096D01*
X375457Y352239D01*
X374993Y351119D01*
Y349906D01*
X375457Y348786D01*
X376314Y347928D01*
X377435Y347464D01*
X378647D01*
X379767Y347928D01*
X380625Y348786D01*
X381089Y349906D01*
Y351119D01*
X380625Y352239D01*
X379767Y353096D01*
X378647Y353560D01*
D02*
G37*
G36*
X339450Y353512D02*
X338237D01*
X337117Y353048D01*
X336260Y352191D01*
X335796Y351070D01*
Y349858D01*
X336260Y348738D01*
X337117Y347880D01*
X338237Y347416D01*
X339450D01*
X340570Y347880D01*
X341428Y348738D01*
X341892Y349858D01*
Y351070D01*
X341428Y352191D01*
X340570Y353048D01*
X339450Y353512D01*
D02*
G37*
G36*
X300436D02*
X299223D01*
X298103Y353048D01*
X297245Y352191D01*
X296781Y351070D01*
Y349858D01*
X297245Y348738D01*
X298103Y347880D01*
X299223Y347416D01*
X300436D01*
X301556Y347880D01*
X302413Y348738D01*
X302877Y349858D01*
Y351070D01*
X302413Y352191D01*
X301556Y353048D01*
X300436Y353512D01*
D02*
G37*
G36*
X280928D02*
X279716D01*
X278596Y353048D01*
X277738Y352191D01*
X277274Y351070D01*
Y349858D01*
X277738Y348738D01*
X278596Y347880D01*
X279716Y347416D01*
X280928D01*
X282049Y347880D01*
X282906Y348738D01*
X283370Y349858D01*
Y351070D01*
X282906Y352191D01*
X282049Y353048D01*
X280928Y353512D01*
D02*
G37*
G36*
X326220Y346342D02*
X322222D01*
Y345288D01*
X321935D01*
Y345073D01*
X320999D01*
X319943Y345511D01*
X318730D01*
X317610Y345047D01*
X316752Y344190D01*
X316498Y343574D01*
X315673D01*
X315418Y344190D01*
X314561Y345047D01*
X313440Y345511D01*
X312228D01*
X311108Y345047D01*
X310250Y344190D01*
X309786Y343069D01*
Y341857D01*
X310250Y340737D01*
X311108Y339879D01*
X312228Y339415D01*
X313440D01*
X314561Y339879D01*
X315418Y340737D01*
X315673Y341352D01*
X316498D01*
X316752Y340737D01*
X317610Y339879D01*
X318730Y339415D01*
X319943D01*
X321063Y339879D01*
X321386Y340202D01*
X321935Y340716D01*
X326507D01*
Y345288D01*
X326220D01*
Y346342D01*
D02*
G37*
G36*
X339450Y345511D02*
X338237D01*
X337117Y345047D01*
X336260Y344190D01*
X336005Y343574D01*
X335180D01*
X334925Y344190D01*
X334068Y345047D01*
X332948Y345511D01*
X331735D01*
X330615Y345047D01*
X329757Y344190D01*
X329293Y343069D01*
Y341857D01*
X329679Y340926D01*
X329334Y340164D01*
X328178D01*
Y338292D01*
X328069D01*
X327058Y337873D01*
X326681Y337496D01*
X326384Y337619D01*
X325172D01*
X324051Y337155D01*
X323194Y336298D01*
X322730Y335178D01*
Y333965D01*
X323194Y332845D01*
X324051Y331987D01*
X325172Y331523D01*
X326384D01*
X327504Y331987D01*
X328362Y332845D01*
X328658Y333560D01*
X334274D01*
Y334322D01*
X335676D01*
Y333560D01*
X341772D01*
Y340164D01*
X341772D01*
X341506Y340926D01*
X341892Y341857D01*
Y343069D01*
X341428Y344190D01*
X340570Y345047D01*
X339450Y345511D01*
D02*
G37*
G36*
X287431D02*
X286218D01*
X285098Y345047D01*
X284240Y344190D01*
X283986Y343574D01*
X283161D01*
X282906Y344190D01*
X282049Y345047D01*
X280928Y345511D01*
X279716D01*
X278596Y345047D01*
X277738Y344190D01*
X277274Y343069D01*
Y341857D01*
X277738Y340737D01*
X278596Y339879D01*
X279716Y339415D01*
X280928D01*
X282049Y339879D01*
X282906Y340737D01*
X283161Y341352D01*
X283986D01*
X284240Y340737D01*
X285098Y339879D01*
X286218Y339415D01*
X287431D01*
X288551Y339879D01*
X289408Y340737D01*
X289872Y341857D01*
Y343069D01*
X289408Y344190D01*
X288551Y345047D01*
X287431Y345511D01*
D02*
G37*
G36*
X359023Y346331D02*
X357811D01*
X356690Y345868D01*
X355833Y345010D01*
X355369Y343890D01*
Y342677D01*
X355833Y341557D01*
X356690Y340700D01*
X357811Y340235D01*
X359023D01*
X360143Y340700D01*
X361001Y341557D01*
X361277Y342223D01*
X362091Y342197D01*
X362444Y341344D01*
X363302Y340486D01*
X364422Y340022D01*
X365635D01*
X366755Y340486D01*
X367612Y341344D01*
X368077Y342464D01*
Y343676D01*
X367612Y344797D01*
X366755Y345654D01*
X365635Y346118D01*
X364422D01*
X363302Y345654D01*
X362444Y344797D01*
X362169Y344131D01*
X361354Y344156D01*
X361001Y345010D01*
X360143Y345868D01*
X359023Y346331D01*
D02*
G37*
G36*
X378152Y345691D02*
X376939D01*
X375819Y345227D01*
X374962Y344370D01*
X374498Y343250D01*
Y342037D01*
X374962Y340917D01*
X375819Y340060D01*
X376939Y339595D01*
X378152D01*
X379272Y340060D01*
X380130Y340917D01*
X380594Y342037D01*
Y343250D01*
X380130Y344370D01*
X379272Y345227D01*
X378152Y345691D01*
D02*
G37*
G36*
X358525Y338567D02*
X357313D01*
X356193Y338103D01*
X355335Y337245D01*
X354871Y336125D01*
Y334912D01*
X355335Y333792D01*
X356193Y332935D01*
X357313Y332471D01*
X358525D01*
X359646Y332935D01*
X360503Y333792D01*
X360967Y334912D01*
Y336125D01*
X360503Y337245D01*
X359646Y338103D01*
X358525Y338567D01*
D02*
G37*
G36*
X371543Y338074D02*
X370330D01*
X369210Y337610D01*
X368353Y336753D01*
X367888Y335632D01*
Y334420D01*
X368353Y333299D01*
X369210Y332442D01*
X370330Y331978D01*
X371543D01*
X372663Y332442D01*
X373521Y333299D01*
X373946Y334327D01*
X374330Y334375D01*
X374335Y334375D01*
X374708Y334327D01*
X375134Y333297D01*
X375992Y332439D01*
X377112Y331976D01*
X378325D01*
X379445Y332439D01*
X380302Y333297D01*
X380766Y334417D01*
Y335630D01*
X380302Y336750D01*
X379445Y337607D01*
X378325Y338072D01*
X377112D01*
X375992Y337607D01*
X375134Y336750D01*
X374709Y335723D01*
X374325Y335675D01*
X374319Y335675D01*
X373947Y335723D01*
X373521Y336753D01*
X372663Y337610D01*
X371543Y338074D01*
D02*
G37*
G36*
X300436Y337510D02*
X299223D01*
X298103Y337046D01*
X297245Y336189D01*
X296781Y335068D01*
Y333856D01*
X297245Y332736D01*
X298103Y331878D01*
X299223Y331414D01*
X300436D01*
X301556Y331878D01*
X302413Y332736D01*
X302877Y333856D01*
Y335068D01*
X302413Y336189D01*
X301556Y337046D01*
X300436Y337510D01*
D02*
G37*
G36*
X306938Y329509D02*
X305725D01*
X304605Y329045D01*
X303748Y328188D01*
X303493Y327572D01*
X302668D01*
X302413Y328188D01*
X301556Y329045D01*
X300436Y329509D01*
X299223D01*
X298103Y329045D01*
X297245Y328188D01*
X296990Y327572D01*
X296166D01*
X295911Y328188D01*
X295053Y329045D01*
X293933Y329509D01*
X292721D01*
X291600Y329045D01*
X290743Y328188D01*
X290279Y327067D01*
Y325855D01*
X290743Y324735D01*
X291600Y323877D01*
X291643Y323859D01*
Y318976D01*
X296723D01*
Y318976D01*
X296982D01*
Y318976D01*
X302062D01*
Y324056D01*
X302369Y324691D01*
X302413Y324735D01*
X302668Y325350D01*
X303493D01*
X303748Y324735D01*
X304605Y323877D01*
X305725Y323413D01*
X306938D01*
X308058Y323877D01*
X308916Y324735D01*
X309380Y325855D01*
Y327067D01*
X308916Y328188D01*
X308058Y329045D01*
X306938Y329509D01*
D02*
G37*
G36*
X339450D02*
X338237D01*
X337117Y329045D01*
X336260Y328188D01*
X336005Y327572D01*
X335180D01*
X334925Y328188D01*
X334068Y329045D01*
X332948Y329509D01*
X331735D01*
X330615Y329045D01*
X329757Y328188D01*
X329502Y327572D01*
X328678D01*
X328423Y328188D01*
X327565Y329045D01*
X326445Y329509D01*
X325233D01*
X324112Y329045D01*
X323255Y328188D01*
X323000Y327572D01*
X322175D01*
X321920Y328188D01*
X321063Y329045D01*
X319943Y329509D01*
X318730D01*
X317610Y329045D01*
X316752Y328188D01*
X316288Y327067D01*
Y325855D01*
X316752Y324735D01*
X317610Y323877D01*
X318730Y323413D01*
X319943D01*
X321063Y323877D01*
X321920Y324735D01*
X322175Y325350D01*
X323000D01*
X323255Y324735D01*
X324112Y323877D01*
X325233Y323413D01*
X326445D01*
X327565Y323877D01*
X328423Y324735D01*
X328678Y325350D01*
X329502D01*
X329757Y324735D01*
X330518Y323974D01*
Y319339D01*
X335597D01*
Y319339D01*
X335857D01*
Y319339D01*
X340937D01*
Y324244D01*
X341428Y324735D01*
X341892Y325855D01*
Y327067D01*
X341428Y328188D01*
X340570Y329045D01*
X339450Y329509D01*
D02*
G37*
G36*
X192374Y305735D02*
X191161D01*
X190041Y305271D01*
X189184Y304413D01*
X188720Y303293D01*
Y302080D01*
X189184Y300960D01*
X190041Y300103D01*
X191161Y299639D01*
X192374D01*
X193494Y300103D01*
X194351Y300960D01*
X194816Y302080D01*
Y303293D01*
X194351Y304413D01*
X193494Y305271D01*
X192374Y305735D01*
D02*
G37*
G36*
X204779Y298224D02*
X203566D01*
X202446Y297760D01*
X201589Y296903D01*
X201125Y295782D01*
Y294570D01*
X201589Y293449D01*
X202446Y292592D01*
X203566Y292128D01*
X204779D01*
X205899Y292592D01*
X206757Y293449D01*
X207221Y294570D01*
Y295782D01*
X206757Y296903D01*
X205899Y297760D01*
X204779Y298224D01*
D02*
G37*
G36*
X583780Y337838D02*
X582568D01*
X581447Y337374D01*
X580590Y336516D01*
X580126Y335396D01*
Y334184D01*
X580590Y333063D01*
X581447Y332206D01*
X582568Y331742D01*
X583780D01*
X584900Y332206D01*
X585758Y333063D01*
X586222Y334184D01*
Y335396D01*
X585758Y336516D01*
X584900Y337374D01*
X583780Y337838D01*
D02*
G37*
G36*
X595863Y332920D02*
X592531Y332592D01*
X589326Y331620D01*
X587359Y330569D01*
X586373Y330042D01*
X583785Y327918D01*
X581661Y325329D01*
X580082Y322376D01*
X579110Y319172D01*
X578782Y315840D01*
X579110Y312507D01*
X580082Y309303D01*
X581661Y306350D01*
X583785Y303762D01*
X586373Y301637D01*
X587359Y301110D01*
X589326Y300059D01*
X592531Y299087D01*
X595863Y298759D01*
X599195Y299087D01*
X602399Y300059D01*
X605352Y301637D01*
X607941Y303762D01*
X610065Y306350D01*
X611643Y309303D01*
X612615Y312507D01*
X612944Y315840D01*
X612615Y319172D01*
X611643Y322376D01*
X610065Y325329D01*
X607941Y327918D01*
X605352Y330042D01*
X602399Y331620D01*
X599195Y332592D01*
X595863Y332920D01*
D02*
G37*
G36*
X550318Y270886D02*
X549106D01*
X547985Y270422D01*
X547128Y269564D01*
X546664Y268444D01*
Y267232D01*
X547128Y266111D01*
X547985Y265254D01*
X549106Y264790D01*
X550318D01*
X551438Y265254D01*
X552296Y266111D01*
X552760Y267232D01*
Y268444D01*
X552296Y269564D01*
X551438Y270422D01*
X550318Y270886D01*
D02*
G37*
G36*
X573511Y269738D02*
X572298D01*
X571178Y269274D01*
X570321Y268416D01*
X569857Y267296D01*
Y266084D01*
X570321Y264963D01*
X571178Y264106D01*
X572298Y263642D01*
X573511D01*
X574631Y264106D01*
X575489Y264963D01*
X575953Y266084D01*
Y267296D01*
X575489Y268416D01*
X574631Y269274D01*
X573511Y269738D01*
D02*
G37*
G36*
X672427Y236487D02*
X663537D01*
Y230899D01*
X672427D01*
Y236487D01*
D02*
G37*
G36*
X670887Y229088D02*
X669674D01*
X668554Y228624D01*
X667697Y227766D01*
X667233Y226646D01*
Y225433D01*
X667697Y224313D01*
X668554Y223456D01*
X669674Y222992D01*
X670887D01*
X672007Y223456D01*
X672865Y224313D01*
X673329Y225433D01*
Y226646D01*
X672865Y227766D01*
X672007Y228624D01*
X670887Y229088D01*
D02*
G37*
G36*
X670806Y221800D02*
X669593D01*
X668473Y221336D01*
X667615Y220479D01*
X667151Y219359D01*
Y218146D01*
X667615Y217026D01*
X668473Y216168D01*
X669593Y215704D01*
X670806D01*
X671926Y216168D01*
X672783Y217026D01*
X673247Y218146D01*
Y219359D01*
X672783Y220479D01*
X671926Y221336D01*
X670806Y221800D01*
D02*
G37*
G36*
X582229Y207094D02*
X577657D01*
Y202550D01*
X577113Y202006D01*
X576649Y200885D01*
Y199673D01*
X577113Y198552D01*
X577970Y197695D01*
X579090Y197231D01*
X580303D01*
X581423Y197695D01*
X582281Y198552D01*
X582745Y199673D01*
Y200885D01*
X582360Y201814D01*
X582297Y202154D01*
X582702Y202809D01*
X583283D01*
Y206807D01*
X582229D01*
Y207094D01*
D02*
G37*
G36*
X595779Y208117D02*
X594566D01*
X593446Y207653D01*
X592589Y206796D01*
X592125Y205676D01*
Y204463D01*
X592589Y203343D01*
X593446Y202486D01*
X593553Y201947D01*
X593384Y201777D01*
X592920Y200657D01*
Y199444D01*
X593384Y198324D01*
X594241Y197466D01*
X595362Y197002D01*
X596574D01*
X597573Y197416D01*
X598044Y197228D01*
X598335Y197029D01*
Y196748D01*
X604431D01*
Y197510D01*
X605833D01*
Y196748D01*
X609351D01*
X609729Y196495D01*
X610522Y196338D01*
X613196D01*
X613708Y195826D01*
X614828Y195362D01*
X616041D01*
X617161Y195826D01*
X618018Y196683D01*
X618482Y197803D01*
Y199016D01*
X618018Y200136D01*
X617161Y200993D01*
X616041Y201458D01*
X614828D01*
X613708Y200993D01*
X613196Y200481D01*
X611929D01*
Y203352D01*
X605833D01*
Y202590D01*
X604431D01*
Y203352D01*
X598586D01*
X598023Y203985D01*
X598221Y204463D01*
Y205676D01*
X597757Y206796D01*
X596899Y207653D01*
X595779Y208117D01*
D02*
G37*
G36*
X580499Y195141D02*
X573895D01*
Y193519D01*
X573133Y193203D01*
X572974Y193363D01*
X571921D01*
X571177Y192619D01*
Y189534D01*
X571921Y188791D01*
X572974D01*
X573133Y188950D01*
X573895Y188635D01*
Y187013D01*
X573602Y186372D01*
X573262Y186031D01*
X572798Y184911D01*
Y183699D01*
X573262Y182578D01*
X574119Y181721D01*
X575240Y181257D01*
X576452D01*
X577573Y181721D01*
X578430Y182578D01*
X578894Y183699D01*
Y184081D01*
X579351Y184764D01*
X579528Y185656D01*
Y187013D01*
X580499D01*
Y195141D01*
D02*
G37*
G36*
X585578Y196380D02*
X584366D01*
X583246Y195916D01*
X582388Y195059D01*
X581924Y193938D01*
Y192726D01*
X582388Y191605D01*
X583246Y190748D01*
X584366Y190284D01*
X585578D01*
X586699Y190748D01*
X587556Y191605D01*
X588020Y192726D01*
Y193938D01*
X587556Y195059D01*
X586699Y195916D01*
X585578Y196380D01*
D02*
G37*
G36*
X312528Y182875D02*
X311316D01*
X310196Y182411D01*
X309338Y181553D01*
X308874Y180433D01*
Y179221D01*
X309338Y178100D01*
X310196Y177243D01*
X311316Y176779D01*
X312528D01*
X313649Y177243D01*
X314506Y178100D01*
X314970Y179221D01*
Y180433D01*
X314506Y181553D01*
X313649Y182411D01*
X312528Y182875D01*
D02*
G37*
G36*
X318726Y173172D02*
X317514D01*
X316393Y172708D01*
X315536Y171851D01*
X315072Y170730D01*
Y169518D01*
X315536Y168398D01*
X316393Y167540D01*
X317514Y167076D01*
X318726D01*
X319846Y167540D01*
X320704Y168398D01*
X321168Y169518D01*
Y170730D01*
X320704Y171851D01*
X319846Y172708D01*
X318726Y173172D01*
D02*
G37*
G36*
X367636Y87310D02*
X366424D01*
X365303Y86846D01*
X364446Y85989D01*
X363982Y84868D01*
Y83656D01*
X364446Y82535D01*
X365303Y81678D01*
X366424Y81214D01*
X367636D01*
X368757Y81678D01*
X369614Y82535D01*
X370078Y83656D01*
Y84868D01*
X369614Y85989D01*
X368757Y86846D01*
X367636Y87310D01*
D02*
G37*
G36*
X26273Y404696D02*
X25060D01*
X23940Y404232D01*
X23083Y403374D01*
X22619Y402254D01*
Y401041D01*
X23083Y399921D01*
X23940Y399064D01*
X25060Y398600D01*
X26273D01*
X27393Y399064D01*
X28251Y399921D01*
X28715Y401041D01*
Y402254D01*
X28251Y403374D01*
X27393Y404232D01*
X26273Y404696D01*
D02*
G37*
G36*
X43200Y358892D02*
X41987D01*
X40867Y358428D01*
X40009Y357570D01*
X39545Y356450D01*
Y355238D01*
X40009Y354117D01*
X40867Y353260D01*
X41987Y352796D01*
X43200D01*
X44320Y353260D01*
X45177Y354117D01*
X45641Y355238D01*
Y356450D01*
X45177Y357570D01*
X44320Y358428D01*
X43200Y358892D01*
D02*
G37*
G36*
X35430Y328879D02*
X34217D01*
X33097Y328415D01*
X32239Y327558D01*
X31775Y326437D01*
Y325225D01*
X32239Y324105D01*
X33097Y323247D01*
X34217Y322783D01*
X35430D01*
X36550Y323247D01*
X37407Y324105D01*
X37871Y325225D01*
Y326437D01*
X37407Y327558D01*
X36550Y328415D01*
X35430Y328879D01*
D02*
G37*
G36*
X23337Y309240D02*
X22124D01*
X21004Y308776D01*
X20147Y307918D01*
X19683Y306798D01*
Y305586D01*
X20147Y304465D01*
X21004Y303608D01*
X22124Y303144D01*
X23337D01*
X24457Y303608D01*
X25314Y304465D01*
X25779Y305586D01*
Y306798D01*
X25314Y307918D01*
X24457Y308776D01*
X23337Y309240D01*
D02*
G37*
G36*
X30863Y274546D02*
X29650D01*
X28530Y274082D01*
X27673Y273225D01*
X27208Y272104D01*
Y270892D01*
X27673Y269771D01*
X28530Y268914D01*
X29650Y268450D01*
X30863D01*
X31983Y268914D01*
X32840Y269771D01*
X33305Y270892D01*
Y272104D01*
X32840Y273225D01*
X31983Y274082D01*
X30863Y274546D01*
D02*
G37*
G36*
X43200Y229161D02*
X41987D01*
X40867Y228697D01*
X40009Y227840D01*
X39545Y226720D01*
Y225507D01*
X40009Y224387D01*
X40867Y223529D01*
X41987Y223065D01*
X43200D01*
X44320Y223529D01*
X45177Y224387D01*
X45641Y225507D01*
Y226720D01*
X45177Y227840D01*
X44320Y228697D01*
X43200Y229161D01*
D02*
G37*
G36*
X39801Y191226D02*
X38589D01*
X37468Y190762D01*
X36611Y189905D01*
X36147Y188785D01*
Y187572D01*
X36611Y186452D01*
X37468Y185595D01*
X38589Y185130D01*
X39801D01*
X40921Y185595D01*
X41779Y186452D01*
X42243Y187572D01*
Y188785D01*
X41779Y189905D01*
X40921Y190762D01*
X39801Y191226D01*
D02*
G37*
G36*
X24020Y175148D02*
X22807D01*
X21687Y174684D01*
X20830Y173827D01*
X20366Y172707D01*
Y171494D01*
X20830Y170374D01*
X21687Y169516D01*
X22807Y169052D01*
X24020D01*
X25140Y169516D01*
X25998Y170374D01*
X26462Y171494D01*
Y172707D01*
X25998Y173827D01*
X25140Y174684D01*
X24020Y175148D01*
D02*
G37*
G36*
X31584Y139809D02*
X30372D01*
X29251Y139345D01*
X28394Y138488D01*
X27930Y137367D01*
Y136155D01*
X28394Y135035D01*
X29251Y134177D01*
X30372Y133713D01*
X31584D01*
X32704Y134177D01*
X33562Y135035D01*
X34026Y136155D01*
Y137367D01*
X33562Y138488D01*
X32704Y139345D01*
X31584Y139809D01*
D02*
G37*
G36*
X25308Y129154D02*
X24095D01*
X22975Y128690D01*
X22118Y127832D01*
X21653Y126712D01*
Y125500D01*
X22118Y124379D01*
X22975Y123522D01*
X24095Y123058D01*
X25308D01*
X26428Y123522D01*
X27285Y124379D01*
X27750Y125500D01*
Y126712D01*
X27285Y127832D01*
X26428Y128690D01*
X25308Y129154D01*
D02*
G37*
G36*
X17119Y94183D02*
X15906D01*
X14786Y93719D01*
X13929Y92862D01*
X13464Y91742D01*
Y90529D01*
X13929Y89409D01*
X14786Y88551D01*
X15906Y88087D01*
X17119D01*
X18239Y88551D01*
X19096Y89409D01*
X19561Y90529D01*
Y91742D01*
X19096Y92862D01*
X18239Y93719D01*
X17119Y94183D01*
D02*
G37*
G36*
X45430Y93475D02*
X44217D01*
X43097Y93011D01*
X42239Y92153D01*
X41775Y91033D01*
Y89820D01*
X42239Y88700D01*
X43097Y87843D01*
X44217Y87379D01*
X45430D01*
X46550Y87843D01*
X47407Y88700D01*
X47871Y89820D01*
Y91033D01*
X47407Y92153D01*
X46550Y93011D01*
X45430Y93475D01*
D02*
G37*
G36*
X32979Y89946D02*
X31766D01*
X30646Y89482D01*
X29788Y88625D01*
X29324Y87505D01*
Y86292D01*
X29788Y85172D01*
X30646Y84314D01*
X31766Y83850D01*
X32979D01*
X34099Y84314D01*
X34956Y85172D01*
X35420Y86292D01*
Y87505D01*
X34956Y88625D01*
X34099Y89482D01*
X32979Y89946D01*
D02*
G37*
G36*
X51945Y30160D02*
X50732D01*
X49612Y29696D01*
X48755Y28839D01*
X48291Y27718D01*
Y26506D01*
X48755Y25385D01*
X49612Y24528D01*
X50732Y24064D01*
X51945D01*
X53065Y24528D01*
X53922Y25385D01*
X54387Y26506D01*
Y27718D01*
X53922Y28839D01*
X53065Y29696D01*
X51945Y30160D01*
D02*
G37*
G36*
X23413Y24930D02*
X22200D01*
X21080Y24466D01*
X20223Y23609D01*
X19759Y22488D01*
Y21276D01*
X20223Y20155D01*
X21080Y19298D01*
X22200Y18834D01*
X23413D01*
X24533Y19298D01*
X25391Y20155D01*
X25855Y21276D01*
Y22488D01*
X25391Y23609D01*
X24533Y24466D01*
X23413Y24930D01*
D02*
G37*
G36*
X11828Y24232D02*
X10615D01*
X9495Y23768D01*
X8638Y22910D01*
X8174Y21790D01*
Y20577D01*
X8638Y19457D01*
X9495Y18600D01*
X10615Y18136D01*
X11828D01*
X12948Y18600D01*
X13806Y19457D01*
X14270Y20577D01*
Y21790D01*
X13806Y22910D01*
X12948Y23768D01*
X11828Y24232D01*
D02*
G37*
%LPD*%
D10*
X511678Y409870D02*
X512714Y408833D01*
X514233D01*
X515938Y407129D01*
X517528D01*
X517578Y407078D01*
X527383Y406725D02*
Y407233D01*
X530918Y410769D01*
Y425737D01*
X526854Y429801D02*
X530918Y425737D01*
X526854Y429801D02*
Y433659D01*
X547347Y422044D02*
X548698Y420693D01*
X552506D01*
X525508Y387637D02*
X527185Y385961D01*
X525508Y387637D02*
Y389494D01*
X524647Y390355D02*
X525508Y389494D01*
X557154Y411475D02*
X562026Y416347D01*
X562061D01*
D12*
X124150Y427947D02*
X123425Y428310D01*
X122336Y429398D01*
Y421780D01*
X113484Y429398D02*
X117112Y421780D01*
X118563Y429398D02*
X113484D01*
X109603D02*
X110691Y429035D01*
X111417Y427947D01*
X111779Y426133D01*
Y425045D01*
X111417Y423231D01*
X110691Y422142D01*
X109603Y421780D01*
X108877D01*
X107789Y422142D01*
X107063Y423231D01*
X106700Y425045D01*
Y426133D01*
X107063Y427947D01*
X107789Y429035D01*
X108877Y429398D01*
X109603D01*
X104995Y425045D02*
X98465D01*
X91863Y429398D02*
X95491D01*
X95853Y426133D01*
X95491Y426496D01*
X94402Y426859D01*
X93314D01*
X92226Y426496D01*
X91500Y425770D01*
X91137Y424682D01*
Y423956D01*
X91500Y422868D01*
X92226Y422142D01*
X93314Y421780D01*
X94402D01*
X95491Y422142D01*
X95853Y422505D01*
X96216Y423231D01*
X89432Y427947D02*
X88707Y428310D01*
X87618Y429398D01*
Y421780D01*
X79129Y426859D02*
X79492Y425770D01*
X80218Y425045D01*
X81306Y424682D01*
X81669D01*
X82757Y425045D01*
X83483Y425770D01*
X83845Y426859D01*
Y427221D01*
X83483Y428310D01*
X82757Y429035D01*
X81669Y429398D01*
X81306D01*
X80218Y429035D01*
X79492Y428310D01*
X79129Y426859D01*
Y425045D01*
X79492Y423231D01*
X80218Y422142D01*
X81306Y421780D01*
X82031D01*
X83120Y422142D01*
X83483Y422868D01*
X73433Y429398D02*
X77061Y424319D01*
X71620D01*
X73433Y429398D02*
Y421780D01*
X69552Y429398D02*
X65561D01*
X67738Y426496D01*
X66649D01*
X65924Y426133D01*
X65561Y425770D01*
X65198Y424682D01*
Y423956D01*
X65561Y422868D01*
X66287Y422142D01*
X67375Y421780D01*
X68463D01*
X69552Y422142D01*
X69914Y422505D01*
X70277Y423231D01*
X57508Y429398D02*
Y421780D01*
Y429398D02*
X54243D01*
X53154Y429035D01*
X52791Y428672D01*
X52429Y427947D01*
Y427221D01*
X52791Y426496D01*
X53154Y426133D01*
X54243Y425770D01*
X57508D01*
X54968D02*
X52429Y421780D01*
X46007Y429398D02*
X50724D01*
Y421780D01*
X46007D01*
X50724Y425770D02*
X47821D01*
X44738Y429398D02*
X41835Y421780D01*
X38933Y429398D02*
X41835Y421780D01*
X31968Y429398D02*
Y421780D01*
Y429398D02*
X28703D01*
X27614Y429035D01*
X27252Y428672D01*
X26889Y427947D01*
Y427221D01*
X27252Y426496D01*
X27614Y426133D01*
X28703Y425770D01*
X31968D02*
X28703D01*
X27614Y425407D01*
X27252Y425045D01*
X26889Y424319D01*
Y423231D01*
X27252Y422505D01*
X27614Y422142D01*
X28703Y421780D01*
X31968D01*
D13*
X590786Y564347D02*
X592549Y566110D01*
X590786Y559105D02*
Y564347D01*
X446786Y586461D02*
Y592938D01*
X494784Y552628D02*
Y559105D01*
X89708Y389174D02*
X97028Y396494D01*
X89708Y192153D02*
Y389174D01*
Y192153D02*
X101496Y180365D01*
Y62814D02*
Y180365D01*
Y62814D02*
X150112Y14199D01*
X200307D01*
X209329Y23221D01*
Y36472D01*
X207297Y38504D02*
X209329Y36472D01*
X204881Y38504D02*
X207297D01*
X203302Y36924D02*
X204881Y38504D01*
X203302Y28491D02*
Y36924D01*
Y28491D02*
X203380Y28412D01*
X352826Y239281D02*
Y239591D01*
X345526Y231981D02*
X352826Y239281D01*
X344467Y231981D02*
X345526D01*
X349684Y564576D02*
X349722Y564538D01*
X342232Y564576D02*
X349684D01*
X279842Y286329D02*
X280510D01*
X276837Y289334D02*
X279842Y286329D01*
X230205Y289334D02*
X276837D01*
X158829Y360710D02*
X230205Y289334D01*
X158829Y360710D02*
Y509092D01*
X127843Y540078D02*
X158829Y509092D01*
X121260Y540078D02*
X127843D01*
X121023Y539841D02*
X121260Y540078D01*
X695338Y378442D02*
X701815D01*
X695338Y286443D02*
X701815D01*
X532648Y406949D02*
Y408785D01*
X533618Y409755D01*
Y430649D01*
X661505Y286443D02*
X667982D01*
X120998Y410822D02*
X122436D01*
X125628Y407629D01*
Y382057D02*
Y407629D01*
X112365Y368793D02*
X125628Y382057D01*
X112365Y232019D02*
Y368793D01*
Y232019D02*
X148003Y196380D01*
X175532D01*
X197642Y174269D01*
Y167246D02*
Y174269D01*
X194506Y164109D02*
X197642Y167246D01*
X191630Y164109D02*
X194506D01*
X190525Y165214D02*
X191630Y164109D01*
X497589Y381965D02*
Y384386D01*
X496047Y385928D02*
X497589Y384386D01*
X496047Y385928D02*
Y387365D01*
X571972Y110569D02*
Y117046D01*
X695338Y358442D02*
X702183D01*
X470787Y586461D02*
Y592938D01*
X519974Y76705D02*
Y83213D01*
X562785Y559105D02*
Y566255D01*
X564484Y567954D01*
X494591Y378968D02*
X497589Y381965D01*
X494591Y376951D02*
Y378968D01*
X496418Y370662D02*
X497294Y371539D01*
X496418Y367106D02*
Y370662D01*
X661505Y338442D02*
X667982D01*
X458785Y586461D02*
Y592938D01*
X314876Y564576D02*
X322389D01*
X591972Y110569D02*
Y117346D01*
X91181Y407914D02*
X95103Y403992D01*
X97028D01*
X434785Y586461D02*
Y592938D01*
X591972Y83213D02*
Y89690D01*
X695338Y338442D02*
X701815D01*
X518785Y552592D02*
Y559105D01*
X160691Y271610D02*
X181488D01*
X189949Y263149D01*
X190127D01*
X84158Y404421D02*
Y407005D01*
X91056Y413903D01*
Y414414D01*
X526786Y586461D02*
Y591787D01*
X527723Y592724D01*
Y593230D01*
X524347Y411965D02*
X527083D01*
X522326Y409943D02*
X524347Y411965D01*
X559973Y83213D02*
Y89880D01*
X537248Y366883D02*
X540972D01*
X541851Y366004D01*
X512310Y382311D02*
X512828Y381792D01*
X512310Y382311D02*
Y386730D01*
X482785Y586461D02*
Y592938D01*
X661505Y418442D02*
X667982D01*
X515745Y412222D02*
X517848D01*
X512275Y415691D02*
X515745Y412222D01*
X511678Y415691D02*
X512275D01*
X667982Y398442D02*
X674459D01*
X574784Y559105D02*
Y565582D01*
X416855Y223469D02*
X420888D01*
X423001Y225583D01*
Y240563D01*
X398976Y264589D02*
X423001Y240563D01*
X212324Y264589D02*
X398976D01*
X155219Y321693D02*
X212324Y264589D01*
X155219Y321693D02*
Y346705D01*
X141348Y360576D02*
X155219Y346705D01*
X141348Y360576D02*
Y484061D01*
X73398Y552011D02*
X141348Y484061D01*
X73398Y552011D02*
Y578338D01*
X67376Y584360D02*
X73398Y578338D01*
X67376Y584360D02*
Y592983D01*
X66269Y594091D02*
X67376Y592983D01*
X538785Y586461D02*
Y593616D01*
X75209Y344168D02*
Y349913D01*
Y344168D02*
X81722Y337655D01*
Y90678D02*
Y337655D01*
Y90678D02*
X91176Y81224D01*
Y15959D02*
Y81224D01*
X90901Y15684D02*
X91176Y15959D01*
X90901Y12403D02*
Y15684D01*
X661505Y358442D02*
X667982D01*
X198973Y454909D02*
X201851Y457787D01*
X198973Y348757D02*
Y454909D01*
Y348757D02*
X234117Y313614D01*
X341003D01*
X346141Y308475D01*
Y297030D02*
Y308475D01*
Y297030D02*
X349159Y294013D01*
X353654D01*
X582785Y591838D02*
X583979Y593032D01*
X582785Y586461D02*
Y591838D01*
X501249Y415567D02*
X504690Y412125D01*
X507195D01*
X494591Y374962D02*
Y376951D01*
Y374962D02*
X497294Y372260D01*
Y371539D02*
Y372260D01*
X532770Y401731D02*
X537167D01*
X532648Y401610D02*
X532770Y401731D01*
X571972Y83213D02*
Y90726D01*
X530786Y547985D02*
Y559105D01*
X524825Y542023D02*
X530786Y547985D01*
X532648Y397675D02*
Y401610D01*
X531497Y396525D02*
X532648Y397675D01*
X569524Y593161D02*
X570786Y591899D01*
Y586461D02*
Y591899D01*
X506786Y552628D02*
Y559105D01*
X337167Y289446D02*
X338399D01*
X342707Y293754D01*
Y307236D01*
X339631Y310312D02*
X342707Y307236D01*
X232748Y310312D02*
X339631D01*
X195671Y347388D02*
X232748Y310312D01*
X195671Y347388D02*
Y458488D01*
X195438Y458722D02*
X195671Y458488D01*
X661505Y302443D02*
X667982D01*
X348590Y544576D02*
X348709Y544457D01*
X342232Y544576D02*
X348590D01*
X494561Y398937D02*
X497589Y401965D01*
X494561Y396941D02*
Y398937D01*
X434785Y552628D02*
Y559105D01*
X661678Y322443D02*
X667982D01*
X658018Y318783D02*
X661678Y322443D01*
X657667Y318783D02*
X658018D01*
X522785Y580814D02*
Y586461D01*
Y580814D02*
X523685Y579915D01*
X64351Y364627D02*
X64419Y364559D01*
Y357784D02*
Y364559D01*
X84158Y391706D02*
Y396923D01*
Y391706D02*
X86406Y389458D01*
Y190784D02*
Y389458D01*
Y190784D02*
X98194Y178996D01*
Y61445D02*
Y178996D01*
Y61445D02*
X148742Y10897D01*
X201676D01*
X212631Y21852D01*
Y37843D01*
X203251Y47224D02*
X212631Y37843D01*
X203251Y47224D02*
Y53716D01*
X695338Y418442D02*
X701815D01*
X507695Y427190D02*
X511678Y423207D01*
Y421030D02*
Y423207D01*
X531973Y116680D02*
X532338Y117046D01*
X531973Y110569D02*
Y116680D01*
X562595Y592950D02*
X562785Y592760D01*
Y586461D02*
Y592760D01*
X125859Y152253D02*
X127686D01*
X135372Y144567D01*
Y103993D02*
Y144567D01*
Y103993D02*
X140820Y98544D01*
X159662D01*
X167544Y106426D01*
Y116540D01*
X165511Y118572D02*
X167544Y116540D01*
X150332Y118572D02*
X165511D01*
X506067Y595071D02*
X506786Y594352D01*
Y586461D02*
Y594352D01*
X530129Y389692D02*
Y391180D01*
X527233Y386796D02*
X530129Y389692D01*
X527233Y386009D02*
Y386796D01*
X527185Y385961D02*
X527233Y386009D01*
X121181Y529895D02*
Y529897D01*
X120592Y529305D02*
X121181Y529895D01*
X120592Y519214D02*
Y529305D01*
X120117Y518739D02*
X120592Y519214D01*
X517235Y371963D02*
X519242D01*
X522099Y369105D01*
X539973Y83213D02*
Y89802D01*
X512310Y390797D02*
X512818Y391305D01*
X512310Y386730D02*
Y390797D01*
X494784Y586461D02*
Y592938D01*
X314876Y544576D02*
X321823D01*
X603971Y76578D02*
Y83213D01*
X496047Y390423D02*
X497589Y391965D01*
X496047Y387365D02*
Y390423D01*
X75207Y364528D02*
X75209Y364526D01*
Y357411D02*
Y364526D01*
X458785Y552628D02*
Y559105D01*
X64419Y350286D02*
X78420Y336286D01*
Y89309D02*
Y336286D01*
Y89309D02*
X87874Y79855D01*
Y17003D02*
Y79855D01*
X85616Y14745D02*
X87874Y17003D01*
X85616Y11681D02*
Y14745D01*
X530129Y391180D02*
X531111Y392163D01*
Y396138D01*
X531497Y396525D01*
X406669Y176413D02*
Y179989D01*
X408701Y182022D01*
X420167D01*
X424312Y186167D01*
Y201463D01*
X368143Y257632D02*
X424312Y201463D01*
X214091Y257632D02*
X368143D01*
X154094Y317630D02*
X214091Y257632D01*
X138526Y317630D02*
X154094D01*
X131709Y324447D02*
X138526Y317630D01*
X131709Y324447D02*
Y354226D01*
X136507Y359024D01*
Y430411D01*
X116492Y450426D02*
X136507Y430411D01*
X78064Y450426D02*
X116492D01*
X71844Y456646D02*
X78064Y450426D01*
X71844Y456646D02*
Y461917D01*
X74153Y464226D01*
X538190Y547202D02*
X538785Y547797D01*
Y559105D01*
X121496Y545259D02*
X127874D01*
X162131Y511002D01*
Y362080D02*
Y511002D01*
Y362080D02*
X231574Y292636D01*
X280977D01*
X550786Y593362D02*
X551439Y594015D01*
X550786Y586461D02*
Y593362D01*
X695338Y398442D02*
X701815D01*
X163843Y126777D02*
X167848Y130782D01*
Y139037D01*
X99804Y207081D02*
X167848Y139037D01*
X99804Y207081D02*
Y381119D01*
X112192Y393507D01*
X120122D01*
X121310Y394696D01*
X120952Y416319D02*
X121613D01*
X128930Y409001D01*
Y380685D02*
Y409001D01*
X115667Y367421D02*
X128930Y380685D01*
X115667Y233388D02*
Y367421D01*
Y233388D02*
X149372Y199682D01*
X176901D01*
X200944Y175639D01*
Y165877D02*
Y175639D01*
X195872Y160805D02*
X200944Y165877D01*
X193352Y160805D02*
X195872D01*
X190924Y158377D02*
X193352Y160805D01*
X542785Y559105D02*
Y563834D01*
X544698Y565747D01*
X517235Y366883D02*
X517545D01*
X520662Y363766D01*
X522099D01*
X605358Y90437D02*
X607972Y87823D01*
Y83213D02*
Y87823D01*
X494561Y394993D02*
X497589Y391965D01*
X494561Y394993D02*
Y396941D01*
X120287Y390182D02*
X121156Y389313D01*
X113538Y390182D02*
X120287D01*
X103106Y379750D02*
X113538Y390182D01*
X103106Y208453D02*
Y379750D01*
Y208453D02*
X171150Y140409D01*
Y129624D02*
Y140409D01*
Y129624D02*
X172131Y128643D01*
Y126634D02*
Y128643D01*
X517573Y579803D02*
X518785Y581015D01*
Y586461D01*
X70678Y592488D02*
X71880Y593689D01*
X70678Y585729D02*
Y592488D01*
Y585729D02*
X76700Y579707D01*
Y553380D02*
Y579707D01*
Y553380D02*
X144650Y485430D01*
Y361948D02*
Y485430D01*
Y361948D02*
X158521Y348077D01*
Y323063D02*
Y348077D01*
Y323063D02*
X213693Y267891D01*
X400345D01*
X426303Y241933D01*
Y225102D02*
Y241933D01*
Y225102D02*
X428338Y223068D01*
X432087D01*
X185867Y118052D02*
X186096Y118280D01*
X172880Y118052D02*
X185867D01*
X170846Y116017D02*
X172880Y118052D01*
X170846Y105057D02*
Y116017D01*
X161031Y95242D02*
X170846Y105057D01*
X139448Y95242D02*
X161031D01*
X132070Y102621D02*
X139448Y95242D01*
X132070Y102621D02*
Y143195D01*
X128339Y146926D02*
X132070Y143195D01*
X125570Y146926D02*
X128339D01*
X519974Y110569D02*
Y116329D01*
X519913Y116390D02*
X519974Y116329D01*
X519913Y116390D02*
Y117058D01*
X482785Y552628D02*
Y559105D01*
X459186Y66048D02*
Y95552D01*
Y66048D02*
X464995Y60239D01*
X470787Y552628D02*
Y559105D01*
X695338Y302443D02*
X701815D01*
X695338Y318442D02*
X702173D01*
X661505Y378442D02*
X667982D01*
X68542Y455277D02*
Y464894D01*
Y455277D02*
X76695Y447124D01*
X115120D01*
X133205Y429039D01*
Y360393D02*
Y429039D01*
X128407Y355595D02*
X133205Y360393D01*
X128407Y323075D02*
Y355595D01*
Y323075D02*
X137155Y314328D01*
X152725D01*
X212722Y254330D01*
X366771D01*
X420703Y200398D01*
Y187663D02*
Y200398D01*
X418671Y185631D02*
X420703Y187663D01*
X408798Y185631D02*
X418671D01*
X406403Y188026D02*
X408798Y185631D01*
X406403Y188026D02*
Y191110D01*
X551693Y117988D02*
X551973Y117709D01*
Y110569D02*
Y117709D01*
X446786Y552628D02*
Y559105D01*
D25*
X560781Y214714D02*
D03*
X566120D02*
D03*
X585282Y204808D02*
D03*
X579943D02*
D03*
X526854Y433659D02*
D03*
X521515D02*
D03*
X554845Y406580D02*
D03*
X560184D02*
D03*
X547909Y377419D02*
D03*
X542569D02*
D03*
X548343Y387365D02*
D03*
X553682D02*
D03*
X551635Y396875D02*
D03*
X556974D02*
D03*
X535468Y391180D02*
D03*
X530129D02*
D03*
X537004Y396786D02*
D03*
X542343D02*
D03*
X526158Y396525D02*
D03*
X531497D02*
D03*
X507533Y341262D02*
D03*
X512872D02*
D03*
X553164Y342087D02*
D03*
X558503D02*
D03*
X501757Y367106D02*
D03*
X496418D02*
D03*
X506971Y386730D02*
D03*
X512310D02*
D03*
X501980Y406928D02*
D03*
X496641D02*
D03*
X501386Y387365D02*
D03*
X496047D02*
D03*
X373954Y353715D02*
D03*
X368615D02*
D03*
X389707Y419255D02*
D03*
X395046D02*
D03*
X386309Y362171D02*
D03*
X380970D02*
D03*
X325443Y385303D02*
D03*
X320103D02*
D03*
X338397Y321879D02*
D03*
X333058D02*
D03*
X325219Y363159D02*
D03*
X319880D02*
D03*
X384818Y377175D02*
D03*
X379478D02*
D03*
X404650Y378173D02*
D03*
X409989D02*
D03*
X414640Y346995D02*
D03*
X419979D02*
D03*
X286215Y411968D02*
D03*
X280876D02*
D03*
X299364Y363525D02*
D03*
X294025D02*
D03*
X389761Y404297D02*
D03*
X384421D02*
D03*
X299522Y321516D02*
D03*
X294183D02*
D03*
X507860Y377378D02*
D03*
X513199D02*
D03*
X519308Y390355D02*
D03*
X524647D02*
D03*
X415392Y389308D02*
D03*
X420731D02*
D03*
X492166Y357045D02*
D03*
X486827D02*
D03*
D38*
X577197Y191077D02*
D03*
X567698D02*
D03*
D43*
X251419Y142042D02*
D03*
X258917D02*
D03*
X364119Y170376D02*
D03*
X356621D02*
D03*
X367370Y201000D02*
D03*
X374868D02*
D03*
X374871Y189928D02*
D03*
X367373D02*
D03*
X512229Y396565D02*
D03*
X519727D02*
D03*
X502089Y376951D02*
D03*
X494591D02*
D03*
X320109Y430281D02*
D03*
X312610D02*
D03*
X384333Y320932D02*
D03*
X376834D02*
D03*
X365204Y321140D02*
D03*
X357706D02*
D03*
X299296Y429113D02*
D03*
X291798D02*
D03*
X608881Y200050D02*
D03*
X601383D02*
D03*
X357223Y396852D02*
D03*
X364721D02*
D03*
X364830Y377602D02*
D03*
X357332D02*
D03*
X338902Y430121D02*
D03*
X331404D02*
D03*
X494561Y396941D02*
D03*
X502059D02*
D03*
X526341Y377259D02*
D03*
X518843D02*
D03*
X373695Y428615D02*
D03*
X381193D02*
D03*
X480266Y434393D02*
D03*
X487764D02*
D03*
X338724Y336862D02*
D03*
X331226D02*
D03*
D44*
X249090Y104008D02*
D03*
Y96510D02*
D03*
X290459Y98618D02*
D03*
Y106116D02*
D03*
X357774Y365465D02*
D03*
Y357967D02*
D03*
X547464Y528371D02*
D03*
Y535869D02*
D03*
X558429Y535897D02*
D03*
Y528399D02*
D03*
X585147Y528320D02*
D03*
Y535818D02*
D03*
X569280Y535978D02*
D03*
Y528480D02*
D03*
X75209Y349913D02*
D03*
Y357411D02*
D03*
X64419Y357784D02*
D03*
Y350286D02*
D03*
X97028Y396494D02*
D03*
Y403992D02*
D03*
X84158Y404421D02*
D03*
Y396923D02*
D03*
D45*
X308846Y137533D02*
D03*
X322562D02*
D03*
X309049Y122385D02*
D03*
X322765D02*
D03*
D46*
X277243Y115753D02*
D03*
Y102037D02*
D03*
X303626Y156662D02*
D03*
Y170378D02*
D03*
X288927Y156594D02*
D03*
Y170310D02*
D03*
X274089Y156545D02*
D03*
Y170261D02*
D03*
X262331Y115755D02*
D03*
Y102039D02*
D03*
X259022Y169890D02*
D03*
Y156174D02*
D03*
D48*
X545874Y204480D02*
D03*
Y199141D02*
D03*
X545953Y215054D02*
D03*
Y209715D02*
D03*
X555244Y184981D02*
D03*
Y190320D02*
D03*
X562061Y416347D02*
D03*
Y421686D02*
D03*
X542516Y422968D02*
D03*
Y428307D02*
D03*
X552506Y420693D02*
D03*
Y426032D02*
D03*
X547228Y547268D02*
D03*
Y541929D02*
D03*
X511678Y415691D02*
D03*
Y421030D02*
D03*
X522099Y363766D02*
D03*
Y369105D02*
D03*
X501249Y415567D02*
D03*
Y420906D02*
D03*
X502021Y361523D02*
D03*
Y356184D02*
D03*
X522326Y409943D02*
D03*
Y404604D02*
D03*
X511678Y409870D02*
D03*
Y404531D02*
D03*
X541851Y366004D02*
D03*
Y371343D02*
D03*
X597365Y233611D02*
D03*
Y238951D02*
D03*
X532648Y406949D02*
D03*
Y401610D02*
D03*
X542496Y407502D02*
D03*
Y402163D02*
D03*
X537032Y382201D02*
D03*
Y376862D02*
D03*
X532094Y382227D02*
D03*
Y376888D02*
D03*
X532607Y366326D02*
D03*
Y371665D02*
D03*
X572547Y378739D02*
D03*
Y384078D02*
D03*
X512376Y366898D02*
D03*
Y372237D02*
D03*
X383560Y388826D02*
D03*
Y394165D02*
D03*
X366270Y417375D02*
D03*
Y412036D02*
D03*
X408557Y415427D02*
D03*
Y420766D02*
D03*
X603921Y233599D02*
D03*
Y238938D02*
D03*
X571993Y366989D02*
D03*
Y372328D02*
D03*
X522503Y427345D02*
D03*
Y422006D02*
D03*
X545318Y602511D02*
D03*
Y597172D02*
D03*
X324221Y348341D02*
D03*
Y343002D02*
D03*
X538190Y547202D02*
D03*
Y541863D02*
D03*
D51*
X302036Y107571D02*
D03*
Y98072D02*
D03*
D63*
X711952Y40099D02*
D03*
X178552D02*
D03*
Y573499D02*
D03*
X711952D02*
D03*
D66*
X223032Y507754D02*
D03*
X222842Y516735D02*
D03*
X215763Y516781D02*
D03*
X214955Y507944D02*
D03*
X204163Y413553D02*
D03*
Y402387D02*
D03*
Y392290D02*
D03*
X197861Y533547D02*
D03*
X190845Y413710D02*
D03*
Y403101D02*
D03*
Y392702D02*
D03*
X187752Y528523D02*
D03*
X182743Y413573D02*
D03*
X182542Y403187D02*
D03*
X182400Y392399D02*
D03*
X73546Y150899D02*
D03*
Y130040D02*
D03*
X73213Y140302D02*
D03*
X72596Y414904D02*
D03*
Y394045D02*
D03*
X72263Y404307D02*
D03*
X72217Y285466D02*
D03*
Y264607D02*
D03*
X71884Y274869D02*
D03*
X71646Y545483D02*
D03*
Y524624D02*
D03*
X71313Y534886D02*
D03*
X66038Y150520D02*
D03*
X65979Y140513D02*
D03*
X65788Y129819D02*
D03*
X65128Y274986D02*
D03*
X64938Y264292D02*
D03*
X64615Y285278D02*
D03*
X62141Y414716D02*
D03*
X62083Y404708D02*
D03*
X61892Y394015D02*
D03*
X61191Y545295D02*
D03*
X61133Y535287D02*
D03*
X60942Y524594D02*
D03*
X57676Y150899D02*
D03*
X57584Y285466D02*
D03*
X57485Y264180D02*
D03*
X57475Y140513D02*
D03*
X57384Y275079D02*
D03*
X57333Y129725D02*
D03*
X51592Y415094D02*
D03*
X51392Y404708D02*
D03*
X51250Y393921D02*
D03*
X50642Y545673D02*
D03*
X50442Y535287D02*
D03*
X50300Y524500D02*
D03*
X309042Y146530D02*
D03*
X299349Y146718D02*
D03*
Y125859D02*
D03*
X299016Y136121D02*
D03*
X298496Y115542D02*
D03*
X288895Y146530D02*
D03*
X288836Y136523D02*
D03*
X288646Y125829D02*
D03*
X288041Y115354D02*
D03*
X278346Y146909D02*
D03*
X278145Y136523D02*
D03*
X278003Y125735D02*
D03*
X268272Y146530D02*
D03*
X268072Y136144D02*
D03*
X267929Y125357D02*
D03*
D72*
X487764Y434393D02*
X490433Y431724D01*
Y422841D02*
Y431724D01*
Y422841D02*
X496037Y417238D01*
X381808Y428000D02*
X383068Y426740D01*
Y415348D02*
Y426740D01*
Y415348D02*
X384089Y414327D01*
X423573Y386466D02*
X424813D01*
X420731Y389308D02*
X423573Y386466D01*
X494523Y422453D02*
X496044D01*
X492537Y424439D02*
X494523Y422453D01*
X492537Y424439D02*
Y433253D01*
X492631Y433347D01*
Y446159D01*
D73*
X595973Y110569D02*
Y121138D01*
X596623Y121788D01*
Y134851D01*
X591193Y140282D02*
X596623Y134851D01*
X471411Y140282D02*
X591193D01*
X453509Y122380D02*
X471411Y140282D01*
X453509Y88504D02*
Y122380D01*
X405897Y40891D02*
X453509Y88504D01*
X349402Y40891D02*
X405897D01*
X323713Y66581D02*
X349402Y40891D01*
X323713Y66581D02*
Y66942D01*
X660042Y306443D02*
X667982D01*
X656171Y302572D02*
X660042Y306443D01*
X656171Y302476D02*
Y302572D01*
X695338Y426443D02*
X714367D01*
X719178Y421632D01*
Y365999D02*
Y421632D01*
X713999Y360820D02*
X719178Y365999D01*
X713999Y345813D02*
Y360820D01*
Y345813D02*
X719178Y340634D01*
Y200652D02*
Y340634D01*
X688226Y169700D02*
X719178Y200652D01*
X399550Y169700D02*
X688226D01*
X382453Y186797D02*
X399550Y169700D01*
X382453Y186797D02*
Y204722D01*
X370931Y216243D02*
X382453Y204722D01*
X370931Y216243D02*
Y223487D01*
X523971Y110569D02*
Y118461D01*
X520040Y122392D02*
X523971Y118461D01*
X519542Y122392D02*
X520040D01*
X659643Y382443D02*
X667982D01*
X655787Y378587D02*
X659643Y382443D01*
X695338Y394444D02*
X704438D01*
X708256Y398262D01*
X707146Y148963D02*
X710723Y152540D01*
X603230Y148963D02*
X707146D01*
X517390Y422585D02*
X517970Y422006D01*
X522503D01*
X539973Y110569D02*
Y119741D01*
X543756Y123523D01*
X646293Y434444D02*
X667982D01*
X631723Y419875D02*
X646293Y434444D01*
X631723Y418498D02*
Y419875D01*
X695338Y410444D02*
X706275D01*
X712437Y416606D01*
Y417495D01*
X691200Y422443D02*
X695338D01*
X678508Y435135D02*
X691200Y422443D01*
X678508Y435135D02*
Y445834D01*
X654820Y354444D02*
X667982D01*
X650420Y358844D02*
X654820Y354444D01*
X650395Y358844D02*
X650420D01*
X575973Y110569D02*
Y125001D01*
X579554Y128582D01*
X587972Y110569D02*
Y119759D01*
X590591Y122377D01*
X591459D01*
X592122Y123040D01*
X361104Y539526D02*
Y544005D01*
X352834Y531256D02*
X361104Y539526D01*
X296489Y531256D02*
X352834D01*
X288191Y539554D02*
X296489Y531256D01*
X216682Y539554D02*
X288191D01*
X204884Y551353D02*
X216682Y539554D01*
X204884Y551353D02*
Y555257D01*
X204475Y84531D02*
X216192Y72814D01*
Y23548D02*
Y72814D01*
Y23548D02*
X229697Y10043D01*
X564807D01*
X628353Y73589D01*
X665058D01*
X674995Y83525D01*
Y139990D01*
X672112Y142872D02*
X674995Y139990D01*
X669178Y142872D02*
X672112D01*
X342232Y560575D02*
X354932D01*
X361104Y554403D01*
Y544005D02*
Y554403D01*
X667982Y394444D02*
X675922D01*
X679793Y398315D01*
Y398584D01*
X595973Y51966D02*
Y83213D01*
X576961Y32954D02*
X595973Y51966D01*
X428343Y32954D02*
X576961D01*
X412595Y17206D02*
X428343Y32954D01*
X233136Y17206D02*
X412595D01*
X223553Y26789D02*
X233136Y17206D01*
X223553Y26789D02*
Y85888D01*
X249042Y111376D01*
Y133109D01*
X244594Y137556D02*
X249042Y133109D01*
X667982Y402443D02*
X679277D01*
X682300Y405465D01*
Y406514D01*
X667982Y370444D02*
X673392D01*
X681373Y378424D01*
X681421D01*
X503972Y77158D02*
Y83213D01*
X503550Y76736D02*
X503972Y77158D01*
X511973Y83213D02*
Y87975D01*
X504403Y95545D02*
X511973Y87975D01*
X695338Y370444D02*
X706590D01*
X712709Y376563D01*
Y378747D01*
X586786Y559105D02*
Y569057D01*
X581183Y574660D02*
X586786Y569057D01*
X548676Y574660D02*
X581183D01*
X547126Y573110D02*
X548676Y574660D01*
X420052Y573110D02*
X547126D01*
X373342Y526400D02*
X420052Y573110D01*
X292931Y526400D02*
X373342D01*
X283385Y535945D02*
X292931Y526400D01*
X216914Y535945D02*
X283385D01*
X210873Y541985D02*
X216914Y535945D01*
X193319Y541985D02*
X210873D01*
X182905Y531571D02*
X193319Y541985D01*
X181861Y531571D02*
X182905D01*
X695338Y366443D02*
X702043D01*
X702183Y366583D01*
X531973Y83213D02*
Y90305D01*
X520037Y102240D02*
X531973Y90305D01*
X520037Y102240D02*
Y102380D01*
X652775Y298442D02*
X667982D01*
X650281Y300937D02*
X652775Y298442D01*
X650281Y300937D02*
Y302164D01*
X690375Y354444D02*
X695338D01*
X687690Y357129D02*
X690375Y354444D01*
X687690Y357129D02*
Y358747D01*
X687121Y359316D02*
X687690Y358747D01*
X667982Y410444D02*
X673316D01*
X676971Y406789D01*
X172860Y363197D02*
X174803Y361254D01*
X172860Y363197D02*
Y529003D01*
X204414Y560558D01*
X229080D01*
X232943Y556694D01*
X547228Y536105D02*
X547464Y535869D01*
X547228Y536105D02*
Y541929D01*
X695338Y350444D02*
X700842D01*
X702506Y352108D01*
X555973Y83213D02*
Y94407D01*
X548368Y102011D02*
X555973Y94407D01*
X551973Y83213D02*
Y92461D01*
X547898Y96535D02*
X551973Y92461D01*
X695338Y386443D02*
X700568D01*
X702346Y388221D01*
Y390047D01*
X667982Y334444D02*
X671566D01*
X675384Y338262D01*
X350998Y556575D02*
X353525Y554048D01*
X342232Y556575D02*
X350998D01*
X535973Y110569D02*
Y114165D01*
X536989Y115181D01*
Y120437D01*
X535691Y121735D02*
X536989Y120437D01*
X535409Y121735D02*
X535691D01*
X579712Y596880D02*
X579801Y596791D01*
Y591434D02*
Y596791D01*
X578785Y590418D02*
X579801Y591434D01*
X578785Y586461D02*
Y590418D01*
X695338Y362443D02*
X704096D01*
X707972Y366319D01*
X667982Y390444D02*
X678739D01*
X685262Y396966D01*
Y398181D01*
X546786Y551795D02*
Y559105D01*
Y551795D02*
X547228Y551353D01*
Y547268D02*
Y551353D01*
X695338Y330444D02*
X701815D01*
X691142Y426443D02*
X695338D01*
X684174Y433410D02*
X691142Y426443D01*
X684174Y433410D02*
Y446037D01*
X558401Y535869D02*
X558429Y535897D01*
X547464Y535869D02*
X558401D01*
X545048Y547268D02*
X547228D01*
X542481Y544701D02*
X545048Y547268D01*
X542481Y535308D02*
Y544701D01*
X540050Y532877D02*
X542481Y535308D01*
X534627Y532877D02*
X540050D01*
X518432Y516682D02*
X534627Y532877D01*
X292382Y516682D02*
X518432D01*
X291137Y517926D02*
X292382Y516682D01*
X574784Y586461D02*
Y592231D01*
X575803Y593250D01*
X582785Y554421D02*
Y559105D01*
Y554421D02*
X586397Y550809D01*
Y542859D02*
Y550809D01*
X585147Y541609D02*
X586397Y542859D01*
X585147Y535818D02*
Y541609D01*
X607972Y110569D02*
Y136774D01*
X596600Y148146D02*
X607972Y136774D01*
X468089Y148146D02*
X596600D01*
X446347Y126403D02*
X468089Y148146D01*
X446347Y91476D02*
Y126403D01*
X402925Y48054D02*
X446347Y91476D01*
X355221Y48054D02*
X402925D01*
X351833Y51443D02*
X355221Y48054D01*
X351833Y51443D02*
Y53381D01*
X364830Y382872D02*
X365089Y383131D01*
X364830Y377602D02*
Y382872D01*
X554784Y555216D02*
Y559105D01*
Y555216D02*
X562671Y547329D01*
Y546880D02*
Y547329D01*
X567972Y83213D02*
Y94234D01*
X560593Y101613D02*
X567972Y94234D01*
X662965Y414444D02*
X667982D01*
X659034Y410512D02*
X662965Y414444D01*
X667982Y350444D02*
X673877D01*
X675625Y352191D01*
Y358991D01*
X507972Y83213D02*
Y86426D01*
X504185Y90213D02*
X507972Y86426D01*
X295107Y488516D02*
X304729D01*
X567972Y110569D02*
Y118506D01*
X571939Y122474D01*
Y122839D01*
X694378Y164925D02*
X720555Y191102D01*
X395155Y164925D02*
X694378D01*
X374871Y185209D02*
X395155Y164925D01*
X374871Y185209D02*
Y189928D01*
X695338Y290444D02*
X704550D01*
X707149Y287845D01*
Y286527D02*
Y287845D01*
X663694Y318442D02*
X667982D01*
X660080Y314828D02*
X663694Y318442D01*
X656029Y314828D02*
X660080D01*
X651601Y319255D02*
X656029Y314828D01*
X645295Y319255D02*
X651601D01*
X643979Y317939D02*
X645295Y319255D01*
X695338Y322443D02*
X706615D01*
X712762Y328590D01*
Y330208D01*
X587972Y83213D02*
Y91453D01*
X591541Y95021D01*
X592186D01*
X667982Y330444D02*
X673052D01*
X680717Y338110D01*
X695338Y374444D02*
X704517D01*
X707149Y377076D01*
Y378506D01*
X232943Y556694D02*
X236852Y552785D01*
X299639D01*
X300418Y553565D01*
X303428Y556575D01*
X314876D01*
X550786Y559105D02*
Y567421D01*
X555597Y572231D01*
X567172D01*
X569603Y569801D01*
X583971Y83213D02*
Y92461D01*
X592054Y100543D01*
X563971Y83213D02*
Y91953D01*
X560258Y95667D02*
X563971Y91953D01*
X659928Y422443D02*
X667982D01*
X655516Y418031D02*
X659928Y422443D01*
X653763Y418031D02*
X655516D01*
X695338Y310444D02*
X704794D01*
X712838Y318488D01*
Y318519D01*
X527972Y110569D02*
Y120871D01*
X521117Y127726D02*
X527972Y120871D01*
X519661Y127726D02*
X521117D01*
X599973Y52588D02*
Y83213D01*
X577952Y30566D02*
X599973Y52588D01*
X430228Y30566D02*
X577952D01*
X414480Y14818D02*
X430228Y30566D01*
X232146Y14818D02*
X414480D01*
X220967Y25997D02*
X232146Y14818D01*
X220967Y25997D02*
Y86680D01*
X244282Y109995D01*
Y112235D01*
X695338Y402443D02*
X705592D01*
X708442Y405293D01*
Y405862D01*
X689681Y444944D02*
X691017Y446281D01*
X689681Y431561D02*
Y444944D01*
Y431561D02*
X690799Y430444D01*
X695338D01*
X540779Y600045D02*
X543245Y602511D01*
X545318D01*
X691017Y446281D02*
Y448912D01*
X694319Y452214D01*
X709785D01*
X729234Y432765D01*
Y184960D02*
Y432765D01*
X699958Y155684D02*
X729234Y184960D01*
X465262Y155684D02*
X699958D01*
X441406Y131828D02*
X465262Y155684D01*
X441406Y104557D02*
Y131828D01*
X389763Y52913D02*
X441406Y104557D01*
X365130Y52913D02*
X389763D01*
X346743Y71300D02*
X365130Y52913D01*
X333530Y71300D02*
X346743D01*
X330525Y68295D02*
X333530Y71300D01*
X330525Y66873D02*
Y68295D01*
X667982Y366443D02*
X678381D01*
X686717Y374780D01*
Y378186D01*
X686752Y378221D01*
X546786Y586461D02*
Y591081D01*
X545318Y592549D02*
X546786Y591081D01*
X545318Y592549D02*
Y597172D01*
X695338Y406443D02*
X703113D01*
X559973Y110569D02*
Y119451D01*
X563659Y123137D01*
Y123525D01*
X219664Y555932D02*
X232034Y543563D01*
X289855D01*
X299730Y533687D01*
X320215D01*
X326403Y539874D01*
Y553725D01*
X322557Y557571D02*
X326403Y553725D01*
X542785Y581967D02*
Y586461D01*
X536760Y575942D02*
X542785Y581967D01*
X496824Y575942D02*
X536760D01*
X495120Y577647D02*
X496824Y575942D01*
X664233Y310444D02*
X667982D01*
X663217Y309428D02*
X664233Y310444D01*
X649884Y309428D02*
X663217D01*
X649328Y309984D02*
X649884Y309428D01*
X583971Y110569D02*
Y124739D01*
X587276Y128044D01*
Y129327D01*
X558785Y555722D02*
Y559105D01*
Y555722D02*
X562254Y552252D01*
X562803D01*
X569280Y545775D01*
Y535978D02*
Y545775D01*
X695338Y334444D02*
X703306D01*
X707149Y338287D01*
X652158Y294444D02*
X667982D01*
X650847Y293134D02*
X652158Y294444D01*
X650847Y287094D02*
Y293134D01*
X578785Y552514D02*
Y559105D01*
Y552514D02*
X581325Y549973D01*
Y549161D02*
Y549973D01*
X306126Y545671D02*
X309032Y548577D01*
X314876D01*
X309550Y552577D02*
X314876D01*
X308859Y551886D02*
X309550Y552577D01*
X306385Y551886D02*
X308859D01*
X547972Y110569D02*
Y115268D01*
X547832Y115407D02*
X547972Y115268D01*
X547832Y115407D02*
Y120051D01*
X551254Y123472D01*
X551663D01*
X515973Y110569D02*
Y120912D01*
X502087Y134798D02*
X515973Y120912D01*
X500936Y134798D02*
X502087D01*
X695338Y414444D02*
X703443D01*
X707141Y418142D01*
X511973Y110569D02*
Y118699D01*
X501203Y129469D02*
X511973Y118699D01*
X356507Y170261D02*
X356621Y170376D01*
X350853Y170261D02*
X356507D01*
X319552Y560575D02*
X322557Y557571D01*
X314876Y560575D02*
X319552D01*
X334650Y556575D02*
X342232D01*
X329763Y561462D02*
X334650Y556575D01*
X329763Y561462D02*
Y569521D01*
X322036Y577248D02*
X329763Y569521D01*
X230962Y577248D02*
X322036D01*
X227505Y580705D02*
X230962Y577248D01*
X535973Y83213D02*
Y92210D01*
X539476Y95712D01*
X695338Y422443D02*
X714990D01*
X716790Y420642D01*
Y368003D02*
Y420642D01*
X711611Y362824D02*
X716790Y368003D01*
X711611Y344820D02*
Y362824D01*
Y344820D02*
X716790Y339641D01*
Y202674D02*
Y339641D01*
X686204Y172087D02*
X716790Y202674D01*
X400540Y172087D02*
X686204D01*
X384841Y187787D02*
X400540Y172087D01*
X384841Y187787D02*
Y205715D01*
X376913Y213642D02*
X384841Y205715D01*
X376913Y213642D02*
Y222847D01*
X695338Y342443D02*
X709178D01*
X712480Y339141D01*
Y338491D02*
Y339141D01*
X695338Y434444D02*
X698386D01*
X700595Y436654D01*
Y441731D01*
X696392Y445935D02*
X700595Y441731D01*
X696392Y445935D02*
Y448353D01*
X569280Y535978D02*
X571754D01*
X571856Y535877D01*
X575358D01*
X566786Y582453D02*
Y586461D01*
X562930Y578597D02*
X566786Y582453D01*
X546461Y578597D02*
X562930D01*
X546153Y578904D02*
X546461Y578597D01*
X695338Y294444D02*
X704693D01*
X712483Y286654D01*
Y286542D02*
Y286654D01*
X543971Y83213D02*
Y96695D01*
X539341Y101326D02*
X543971Y96695D01*
X695338Y346443D02*
X703318D01*
X707548Y350672D01*
X707751D01*
X590786Y586461D02*
Y591251D01*
X592463Y592927D01*
X663552Y314444D02*
X667982D01*
X661347Y312240D02*
X663552Y314444D01*
X653915Y312240D02*
X661347D01*
X650842Y315313D02*
X653915Y312240D01*
X649595Y315313D02*
X650842D01*
X566786Y551754D02*
Y559105D01*
Y551754D02*
X574251Y544289D01*
Y542709D02*
Y544289D01*
X667982Y374444D02*
X671886D01*
X675785Y378343D01*
X657921Y386443D02*
X667982D01*
X650469Y378991D02*
X657921Y386443D01*
X359514Y52113D02*
X361185Y50442D01*
X390672D01*
X443794Y103563D01*
Y127231D01*
X469859Y153297D01*
X700949D01*
X731622Y183970D01*
Y435666D01*
X712686Y454602D02*
X731622Y435666D01*
X680281Y454602D02*
X712686D01*
X674037Y448358D02*
X680281Y454602D01*
X674037Y423342D02*
Y448358D01*
Y423342D02*
X682300Y415079D01*
Y406514D02*
Y415079D01*
X364409Y390543D02*
X364721Y390855D01*
Y396852D01*
X563971Y110569D02*
Y117884D01*
X568079Y121991D01*
Y124932D01*
X571746Y128600D01*
X595973Y83213D02*
Y87165D01*
X599455Y90647D01*
X13574Y523336D02*
Y573791D01*
X37734Y597952D01*
X82575D01*
X146413Y534114D01*
X527972Y83213D02*
Y88844D01*
X519765Y97051D02*
X527972Y88844D01*
X342232Y548577D02*
X346926D01*
X347718Y549369D01*
X351081D01*
X354823Y545628D01*
Y544167D02*
Y545628D01*
X649450Y430444D02*
X667982D01*
X637037Y418031D02*
X649450Y430444D01*
X317993Y67008D02*
X324673Y73688D01*
X347734D01*
X365836Y55585D01*
X388442D01*
X438066Y105209D01*
Y131892D01*
X464246Y158072D01*
X698967D01*
X726846Y185951D01*
Y431772D01*
X708792Y449826D02*
X726846Y431772D01*
X697865Y449826D02*
X708792D01*
X696392Y448353D02*
X697865Y449826D01*
X503972Y110569D02*
Y115011D01*
X501071Y117912D02*
X503972Y115011D01*
X579973Y83213D02*
Y94793D01*
X572287Y102479D02*
X579973Y94793D01*
Y110569D02*
Y122171D01*
X695338Y298442D02*
X704913D01*
X707146Y300675D01*
Y302237D01*
X585147Y535818D02*
X590735D01*
X695338Y382443D02*
X703207D01*
X708337Y387574D01*
Y390489D01*
X558429Y535897D02*
Y536199D01*
X562996Y540766D01*
Y541332D01*
X603971Y110569D02*
Y136380D01*
X594594Y145758D02*
X603971Y136380D01*
X469080Y145758D02*
X594594D01*
X448734Y125413D02*
X469080Y145758D01*
X448734Y90485D02*
Y125413D01*
X403916Y45667D02*
X448734Y90485D01*
X353469Y45667D02*
X403916D01*
X345686Y53449D02*
X353469Y45667D01*
X507972Y110569D02*
Y117025D01*
X501272Y123726D02*
X507972Y117025D01*
X523971Y83213D02*
Y86764D01*
X519765Y90970D02*
X523971Y86764D01*
X515953Y83233D02*
X515973Y83213D01*
X515953Y83233D02*
Y89456D01*
X504708Y100701D02*
X515953Y89456D01*
X504708Y100701D02*
Y100871D01*
X424028Y12431D02*
X436766Y25169D01*
X231155Y12431D02*
X424028D01*
X218580Y25006D02*
X231155Y12431D01*
X218580Y25006D02*
Y87673D01*
X228450Y97544D01*
Y123777D01*
X221607Y130619D02*
X228450Y123777D01*
X656620Y406443D02*
X667982D01*
X653682Y409382D02*
X656620Y406443D01*
X653682Y409382D02*
Y410378D01*
X653547Y410512D02*
X653682Y410378D01*
X667982Y346443D02*
X673847D01*
X681213Y353809D01*
Y358828D01*
X555973Y110569D02*
Y121300D01*
X563397Y128725D01*
Y128768D01*
X563664Y129035D01*
X374868Y201000D02*
X380065Y195804D01*
Y185359D02*
Y195804D01*
Y185359D02*
X398112Y167312D01*
X691299D01*
X720423Y196436D01*
X575973Y83213D02*
Y92647D01*
X572018Y96601D02*
X575973Y92647D01*
X660042Y290444D02*
X667982D01*
X656156Y286558D02*
X660042Y290444D01*
X688861Y390444D02*
X695338D01*
Y306443D02*
X708632D01*
X712480Y302595D01*
Y302301D02*
Y302595D01*
X586786Y586461D02*
Y590205D01*
X588480Y591899D01*
Y596476D01*
X570786Y553702D02*
Y559105D01*
Y553702D02*
X573865Y550624D01*
Y550136D02*
Y550624D01*
X348061Y97475D02*
X373230Y122644D01*
X425008D01*
X462824Y160459D01*
X697974D01*
X724416Y186901D01*
Y344480D01*
X717860Y351036D02*
X724416Y344480D01*
X363672Y181450D02*
Y186228D01*
X367373Y189928D01*
X658188Y342443D02*
X667982D01*
X656171Y340426D02*
X658188Y342443D01*
X656171Y338506D02*
Y340426D01*
X547972Y83213D02*
Y90289D01*
X695338Y326443D02*
X704624D01*
X707144Y328963D01*
Y330208D01*
X361665Y201747D02*
X362412Y201000D01*
X367370D01*
X599973Y110569D02*
Y136093D01*
X592963Y143104D02*
X599973Y136093D01*
X469804Y143104D02*
X592963D01*
X451122Y124422D02*
X469804Y143104D01*
X451122Y89494D02*
Y124422D01*
X404907Y43279D02*
X451122Y89494D01*
X350396Y43279D02*
X404907D01*
X336672Y57003D02*
X350396Y43279D01*
X336672Y57003D02*
Y67439D01*
X325778Y334571D02*
X328069Y336862D01*
X331226D01*
X492631Y446159D02*
Y461838D01*
X477352Y477116D02*
X492631Y461838D01*
X424185Y477116D02*
X477352D01*
X652808Y426443D02*
X667982D01*
X648429Y422064D02*
X652808Y426443D01*
X648429Y418158D02*
Y422064D01*
X660044Y362443D02*
X667982D01*
X656171Y358569D02*
X660044Y362443D01*
X656171Y358554D02*
Y358569D01*
X543971Y110569D02*
Y117559D01*
X695338Y314444D02*
X704609D01*
X707504Y317340D01*
Y318618D01*
X534784Y559105D02*
Y565216D01*
X531429Y568571D02*
X534784Y565216D01*
X491950Y568571D02*
X531429D01*
D74*
X535262Y547202D02*
X538190D01*
X531741Y543682D02*
X535262Y547202D01*
X531741Y541251D02*
Y543682D01*
X524947Y534457D02*
X531741Y541251D01*
X524947Y528737D02*
Y534457D01*
X514269Y404531D02*
X516730Y402069D01*
X511678Y404531D02*
X514269D01*
X389761Y399986D02*
X390555Y399192D01*
X389761Y399986D02*
Y404297D01*
X377843Y390891D02*
X379908Y388826D01*
X383560D01*
X379222Y382163D02*
X379478Y381907D01*
Y377175D02*
Y381907D01*
X290459Y93520D02*
X291038Y92941D01*
X290459Y93520D02*
Y98618D01*
X542496Y407502D02*
X543192Y406806D01*
X547157D01*
X547464Y406499D01*
X502658Y388638D02*
Y391612D01*
X501386Y387365D02*
X502658Y388638D01*
X409738Y383045D02*
X409989Y382793D01*
Y378173D02*
Y382793D01*
X299364Y358930D02*
X299829Y358465D01*
X299364Y358930D02*
Y363525D01*
X545457Y371343D02*
X546656Y372542D01*
X541851Y371343D02*
X545457D01*
X325443Y390073D02*
X325839Y390469D01*
X325443Y385303D02*
Y390073D01*
X299522Y326154D02*
X299829Y326461D01*
X299522Y321516D02*
Y326154D01*
X552074Y401937D02*
Y403809D01*
X554845Y406580D01*
X357332Y390200D02*
X358120Y390987D01*
X357332Y377602D02*
Y390200D01*
X541231Y371963D02*
X541851Y371343D01*
X537248Y371963D02*
X541231D01*
X319336Y422473D02*
X320109Y423245D01*
Y430281D01*
X373954Y353764D02*
X378041Y357850D01*
X373954Y353715D02*
Y353764D01*
X537007Y376888D02*
X537032Y376862D01*
X532094Y376888D02*
X537007D01*
X386880Y423248D02*
X389707Y420421D01*
Y419255D02*
Y420421D01*
X541693Y381988D02*
X542577Y382872D01*
Y390931D01*
X541571Y391937D02*
X542577Y390931D01*
X338397Y326014D02*
X338844Y326461D01*
X338397Y321879D02*
Y326014D01*
X383560Y398417D02*
X384193Y399049D01*
X383560Y394165D02*
Y398417D01*
X556974Y396875D02*
X565511D01*
X567931Y399296D01*
Y402328D01*
X567698Y187010D02*
X570093Y184615D01*
X567698Y187010D02*
Y191077D01*
X285748Y41328D02*
X298798Y28278D01*
X285748Y41328D02*
Y93630D01*
X551762Y369659D02*
Y372250D01*
Y369659D02*
X554431Y366989D01*
X571993D01*
X426037Y346995D02*
X426839Y346192D01*
X419979Y346995D02*
X426037D01*
X384818Y380794D02*
X386085Y382062D01*
X384818Y377175D02*
Y380794D01*
X395039Y423847D02*
X395046Y423840D01*
Y419255D02*
Y423840D01*
X403809Y414934D02*
X404302Y415427D01*
X408557D01*
X541693Y381988D02*
X542569Y381112D01*
Y377419D02*
Y381112D01*
X537167Y401731D02*
X537599Y402163D01*
X542496D01*
X517235Y371963D02*
X518843Y373571D01*
Y377259D01*
X551866Y392021D02*
Y396644D01*
X551635Y396875D02*
X551866Y396644D01*
X501249Y420906D02*
Y423774D01*
X497490Y427533D02*
X501249Y423774D01*
X496552Y427533D02*
X497490D01*
X546288Y428307D02*
X547472Y427124D01*
X542516Y428307D02*
X546288D01*
X537032Y372179D02*
X537248Y371963D01*
X537032Y372179D02*
Y376862D01*
X486827Y357045D02*
X486877Y357096D01*
Y361886D01*
X542343Y402011D02*
X542496Y402163D01*
X542343Y396786D02*
Y402011D01*
X237975Y93673D02*
X244500Y87147D01*
Y44473D02*
Y87147D01*
X232494Y32466D02*
X244500Y44473D01*
X319336Y342463D02*
X319875Y343002D01*
X324221D01*
X545998Y402163D02*
X546893Y401269D01*
X542496Y402163D02*
X545998D01*
X541551Y215054D02*
X545953D01*
X541028Y215577D02*
X541551Y215054D01*
X479804Y434393D02*
X480266D01*
X474066Y440131D02*
X479804Y434393D01*
X507738Y401965D02*
X509113D01*
X511678Y404531D01*
X522503Y427345D02*
Y429832D01*
X521515Y430820D02*
X522503Y429832D01*
X521515Y430820D02*
Y433659D01*
X542343Y393240D02*
Y396786D01*
X541792Y392689D02*
X542343Y393240D01*
X541792Y392158D02*
Y392689D01*
X541571Y391937D02*
X541792Y392158D01*
X517015Y427652D02*
X517322Y427345D01*
X522503D01*
X553682Y387365D02*
X565064D01*
X567233Y389534D01*
Y391975D01*
X527190Y366883D02*
X527746Y366326D01*
X532607D01*
X546730Y388978D02*
Y392107D01*
Y388978D02*
X548343Y387365D01*
X615094Y430596D02*
X624017Y439519D01*
X615094Y415038D02*
Y430596D01*
X578795Y378739D02*
X615094Y415038D01*
X572547Y378739D02*
X578795D01*
X385986Y366476D02*
X386309Y366154D01*
Y362171D02*
Y366154D01*
X332341Y326461D02*
X333058Y325745D01*
Y321879D02*
Y325745D01*
X553598Y427124D02*
X557121D01*
X552506Y426032D02*
X553598Y427124D01*
X501980Y402910D02*
X502663Y402227D01*
X501980Y402910D02*
Y406928D01*
X362692Y417375D02*
X366270D01*
X359070Y420997D02*
X362692Y417375D01*
X359070Y420997D02*
Y422925D01*
X558305Y346875D02*
X558503Y346677D01*
Y342087D02*
Y346677D01*
X536936Y406949D02*
X537073Y406811D01*
X532648Y406949D02*
X536936D01*
X512872Y341262D02*
Y342565D01*
X516583Y346276D01*
X517515D01*
X338724Y342344D02*
X338844Y342463D01*
X338724Y336862D02*
Y342344D01*
X570829Y377022D02*
X572547Y378739D01*
X554642Y377022D02*
X570829D01*
X551993Y379672D02*
X554642Y377022D01*
X551993Y379672D02*
Y382024D01*
X541284Y209946D02*
X541515Y209715D01*
X545953D01*
X371437Y422430D02*
X373695Y424688D01*
Y428615D01*
X364823Y350924D02*
X367614Y353715D01*
X368615D01*
X667982Y326443D02*
X673047D01*
X678167Y321323D01*
Y316601D02*
Y321323D01*
X357223Y391884D02*
X358120Y390987D01*
X357223Y391884D02*
Y396852D01*
X695338Y258442D02*
X701815D01*
X559333Y209946D02*
X560781Y211394D01*
Y214714D01*
X560408Y184981D02*
X560443Y184945D01*
X555244Y184981D02*
X560408D01*
X319336Y350464D02*
X321460Y348341D01*
X324221D01*
X507416Y346281D02*
X507533Y346164D01*
Y341262D02*
Y346164D01*
X536951Y371665D02*
X537248Y371963D01*
X532607Y371665D02*
X536951D01*
X562061Y421686D02*
Y425201D01*
X563824Y426964D01*
X567192D01*
X552331Y342920D02*
X553164Y342087D01*
X552331Y342920D02*
Y363888D01*
X549255Y366964D02*
X552331Y363888D01*
X547256Y366964D02*
X549255D01*
X325219Y359085D02*
X325839Y358465D01*
X325219Y359085D02*
Y363159D01*
X501980Y406928D02*
X501983Y406926D01*
X507164D01*
X507263Y407025D01*
X293327Y326461D02*
X294183Y325605D01*
Y321516D02*
Y325605D01*
X379222Y366771D02*
X380970Y365023D01*
Y362171D02*
Y365023D01*
X513199Y377378D02*
X518724D01*
X518843Y377259D01*
X299296Y423007D02*
X299829Y422473D01*
X299296Y423007D02*
Y429113D01*
X364711Y406161D02*
X366270Y407721D01*
Y412036D01*
X364757Y326817D02*
X365204Y326370D01*
Y321140D02*
Y326370D01*
X512376Y372237D02*
X512651Y371963D01*
X517235D01*
X516730Y402069D02*
X519791D01*
X522326Y404604D01*
X291798Y424002D02*
X293327Y422473D01*
X291798Y424002D02*
Y429113D01*
X410464Y349928D02*
X413398Y346995D01*
X414640D01*
X595968Y200050D02*
X601383D01*
X403774Y382966D02*
X404650Y382090D01*
Y378173D02*
Y382090D01*
X312610Y422697D02*
X312834Y422473D01*
X312610Y422697D02*
Y430281D01*
X338844Y422473D02*
X338902Y422532D01*
Y430121D01*
X541028Y199304D02*
X541190Y199141D01*
X545874D01*
X508058Y372582D02*
X508404Y372237D01*
X512376D01*
X384193Y399049D02*
X384421Y399278D01*
Y404297D01*
X507738Y401965D02*
X512229Y397474D01*
Y396565D02*
Y397474D01*
X512818Y391305D02*
Y395976D01*
X512229Y396565D02*
X512818Y395976D01*
X512828Y377749D02*
Y381792D01*
Y377749D02*
X513199Y377378D01*
X502658Y391612D02*
Y396342D01*
X502059Y396941D02*
X502658Y396342D01*
X296360Y92560D02*
X301871Y98072D01*
X302036D01*
X286215Y407081D02*
X286824Y406471D01*
X286215Y407081D02*
Y411968D01*
X566120Y212712D02*
X568734Y210099D01*
X566120Y212712D02*
Y214714D01*
X319336Y390469D02*
X320103Y389702D01*
Y385303D02*
Y389702D01*
X280322Y406471D02*
X280876Y407025D01*
Y411968D01*
X560184Y406580D02*
X565681D01*
X567848Y408747D01*
Y411317D01*
X496641Y402913D02*
X497589Y401965D01*
X496641Y402913D02*
Y406928D01*
X610522Y198410D02*
X615434D01*
X608881Y200050D02*
X610522Y198410D01*
X542013Y376862D02*
X542569Y377419D01*
X537032Y376862D02*
X542013D01*
X415392Y383708D02*
X416131Y382968D01*
X415392Y383708D02*
Y389308D01*
X502021Y350787D02*
Y356184D01*
X497942Y346707D02*
X502021Y350787D01*
X497291Y346707D02*
X497942D01*
X357706Y326573D02*
X358130Y326997D01*
X357706Y321140D02*
Y326573D01*
X575846Y184305D02*
X577197Y185656D01*
Y191077D01*
X579697Y200279D02*
X579943Y200525D01*
Y204808D01*
X597365Y238951D02*
X597378Y238938D01*
X603921D01*
X512376Y372237D02*
Y373461D01*
X513199Y374284D01*
Y377378D01*
X661182Y258442D02*
X667982D01*
X567233Y382166D02*
X569145Y384078D01*
X572547D01*
X560101Y190320D02*
X560149Y190271D01*
X555244Y190320D02*
X560101D01*
X546923Y382430D02*
X547909Y381445D01*
Y377419D02*
Y381445D01*
X541287Y204765D02*
X541571Y204480D01*
X545874D01*
X319336Y358465D02*
X319880Y359009D01*
Y363159D01*
X567233Y371986D02*
X567576Y372328D01*
X571993D01*
X331404Y423410D02*
X332341Y422473D01*
X331404Y423410D02*
Y430121D01*
X585094Y200332D02*
X585282Y200520D01*
Y204808D01*
X591932Y238951D02*
X597365D01*
X403939Y421952D02*
X405125Y420766D01*
X408557D01*
X293327Y358465D02*
X294025Y359164D01*
Y363525D01*
D75*
X227287Y73569D02*
X238150Y84432D01*
X227287Y28781D02*
Y73569D01*
Y28781D02*
X234650Y21417D01*
X320223D01*
X327477Y28672D01*
X536163Y537007D02*
X538190Y539034D01*
Y541863D01*
X465310Y44808D02*
X465318Y44801D01*
X465310Y44808D02*
Y52738D01*
X471259Y58687D01*
Y112621D01*
X461447Y122433D02*
X471259Y112621D01*
X536407Y527776D02*
X537002Y528371D01*
X547464D01*
X571993Y366989D02*
X581167D01*
X625518Y322638D01*
Y279154D02*
Y322638D01*
Y279154D02*
X646229Y258442D01*
X661182D01*
X584987Y528480D02*
X585147Y528320D01*
X569280Y528480D02*
X584987D01*
X456258Y253081D02*
X462783Y246555D01*
X456258Y253081D02*
Y265809D01*
X494480Y304030D01*
X166982Y253637D02*
X177668D01*
X181166Y250139D01*
X349433D01*
X352455Y247117D01*
X551688Y521658D02*
X558429Y528399D01*
X536357Y521658D02*
X551688D01*
X251419Y142042D02*
Y143835D01*
X245514Y149741D02*
X251419Y143835D01*
X245514Y149741D02*
Y149941D01*
X569199Y528399D02*
X569280Y528480D01*
X558429Y528399D02*
X569199D01*
X352585Y25593D02*
X360070D01*
X327040Y51138D02*
X352585Y25593D01*
X300200Y51138D02*
X327040D01*
X291038Y60300D02*
X300200Y51138D01*
X291038Y60300D02*
Y92941D01*
X370131Y176388D02*
Y180843D01*
X364119Y170376D02*
X370131Y176388D01*
X340002Y507220D02*
X342986Y510205D01*
X524904D01*
X536357Y521658D01*
D76*
X597365Y232052D02*
X599790Y229626D01*
X597365Y232052D02*
Y233611D01*
X533618Y430649D02*
Y432839D01*
X533169Y433288D02*
X533618Y432839D01*
X526854Y438656D02*
X526938Y438739D01*
X526854Y433659D02*
Y438656D01*
X494480Y304030D02*
X522099Y331650D01*
Y363766D01*
X437342Y56053D02*
X461295D01*
X410548Y29258D02*
X437342Y56053D01*
X391323Y29258D02*
X410548D01*
X382623Y20559D02*
X391323Y29258D01*
X347581Y20559D02*
X382623D01*
X332991Y35148D02*
X347581Y20559D01*
X313004Y35148D02*
X332991D01*
X311295Y33439D02*
X313004Y35148D01*
X376834Y325882D02*
X378148Y327195D01*
X376834Y320932D02*
Y325882D01*
X553164Y335506D02*
Y342087D01*
Y335506D02*
X567822Y320848D01*
Y303182D02*
Y320848D01*
Y303182D02*
X587840Y283164D01*
X607748D01*
X599790Y229626D02*
X603763Y233599D01*
X603921D01*
D77*
X510786Y550903D02*
Y559105D01*
X507048Y547164D02*
X510786Y550903D01*
X450787Y586461D02*
Y589310D01*
X452499Y591022D01*
Y594878D01*
X449105Y598272D02*
X452499Y594878D01*
X446682Y598272D02*
X449105D01*
X502785Y556255D02*
Y559105D01*
X501071Y554540D02*
X502785Y556255D01*
X501071Y543022D02*
Y554540D01*
X500019Y541970D02*
X501071Y543022D01*
X495305Y541970D02*
X500019D01*
X490786Y549526D02*
Y559105D01*
X483227Y541967D02*
X490786Y549526D01*
X483161Y541967D02*
X483227D01*
X466786Y586461D02*
Y595483D01*
X458666Y603603D02*
X466786Y595483D01*
X474784Y556313D02*
Y559105D01*
Y556313D02*
X476329Y554769D01*
Y550804D02*
Y554769D01*
X472818Y547294D02*
X476329Y550804D01*
X470771Y547294D02*
X472818D01*
X498785Y551020D02*
Y559105D01*
X495064Y547299D02*
X498785Y551020D01*
X478785Y550024D02*
Y559105D01*
X471012Y542252D02*
X478785Y550024D01*
X471012Y541965D02*
Y542252D01*
X486786Y556268D02*
Y559105D01*
Y556268D02*
X488429Y554624D01*
Y550405D02*
Y554624D01*
X485325Y547301D02*
X488429Y550405D01*
X483080Y547301D02*
X485325D01*
X438785Y586461D02*
Y589397D01*
X440499Y591111D01*
Y594680D01*
X436908Y598272D02*
X440499Y594680D01*
X434861Y598272D02*
X436908D01*
X454785Y549069D02*
Y559105D01*
X447675Y541960D02*
X454785Y549069D01*
X446982Y541960D02*
X447675D01*
X478785Y586461D02*
Y595676D01*
X470863Y603598D02*
X478785Y595676D01*
X470413Y603598D02*
X470863D01*
X450787Y556252D02*
Y559105D01*
Y556252D02*
X452499Y554540D01*
Y550019D02*
Y554540D01*
X448942Y546463D02*
X452499Y550019D01*
X447718Y546463D02*
X448942D01*
X446888Y547294D02*
X447718Y546463D01*
X514784Y556252D02*
Y559105D01*
X513072Y554540D02*
X514784Y556252D01*
X513072Y543705D02*
Y554540D01*
X511198Y541830D02*
X513072Y543705D01*
X506966Y541830D02*
X511198D01*
X526786Y556255D02*
Y559105D01*
X525071Y554540D02*
X526786Y556255D01*
X525071Y548246D02*
Y554540D01*
X519031Y542206D02*
X525071Y548246D01*
X519031Y541917D02*
Y542206D01*
X462785Y586461D02*
Y589371D01*
X464500Y591086D01*
Y594535D01*
X460477Y598559D02*
X464500Y594535D01*
X458866Y598559D02*
X460477D01*
X458577Y598269D02*
X458866Y598559D01*
X442785Y586461D02*
Y595628D01*
X434579Y603834D02*
X442785Y595628D01*
X434487Y603834D02*
X434579D01*
X466786Y549773D02*
Y559105D01*
X458978Y541965D02*
X466786Y549773D01*
X458869Y541965D02*
X458978D01*
X442785Y548066D02*
Y559105D01*
X436679Y541960D02*
X442785Y548066D01*
X434985Y541960D02*
X436679D01*
X482742Y603702D02*
X490786Y595658D01*
Y586461D02*
Y595658D01*
X438785Y554220D02*
Y559105D01*
Y554220D02*
X439971Y553034D01*
X440210Y552460D01*
Y548726D02*
Y552460D01*
X437457Y545973D02*
X440210Y548726D01*
X436143Y545973D02*
X437457D01*
X434823Y547294D02*
X436143Y545973D01*
X486786Y586461D02*
Y589415D01*
X488500Y591129D01*
Y594711D01*
X484939Y598272D02*
X488500Y594711D01*
X482892Y598272D02*
X484939D01*
X482796Y598368D02*
X482892Y598272D01*
X454785Y586461D02*
Y595828D01*
X447017Y603595D02*
X454785Y595828D01*
X474784Y586461D02*
Y589308D01*
X476499Y591022D01*
Y594728D01*
X472956Y598272D02*
X476499Y594728D01*
X470708Y598272D02*
X472956D01*
X522785Y551244D02*
Y559105D01*
X518787Y547245D02*
X522785Y551244D01*
X462785Y556258D02*
Y559105D01*
Y556258D02*
X464500Y554543D01*
Y550723D02*
Y554543D01*
X461076Y547299D02*
X464500Y550723D01*
X459031Y547299D02*
X461076D01*
D79*
X381193Y428615D02*
X381808Y428000D01*
D80*
X533169Y433288D02*
Y453845D01*
X487855Y499158D02*
X533169Y453845D01*
X249456Y499158D02*
X487855D01*
X223474Y525140D02*
X249456Y499158D01*
X206268Y525140D02*
X223474D01*
X197861Y533547D02*
X206268Y525140D01*
X187752Y525635D02*
Y528523D01*
Y525635D02*
X233756Y479631D01*
X363954D01*
X370980Y486656D01*
X483004D01*
X526938Y442722D01*
Y438739D02*
Y442722D01*
X607748Y266055D02*
Y283164D01*
X596557Y254864D02*
X607748Y266055D01*
X519092Y254864D02*
X596557D01*
X495018Y230790D02*
X519092Y254864D01*
X442745Y230790D02*
X495018D01*
X248618Y211707D02*
X254521D01*
X241323Y204412D02*
X248618Y211707D01*
X241323Y161699D02*
Y204412D01*
X210162Y130538D02*
X241323Y161699D01*
X210162Y115728D02*
Y130538D01*
X200457Y106022D02*
X210162Y115728D01*
X185646Y106022D02*
X200457D01*
X141382Y61758D02*
X185646Y106022D01*
X141382Y39268D02*
Y61758D01*
D81*
X541591Y422044D02*
X542516Y422968D01*
X538025Y422044D02*
X541591D01*
X537906Y422163D02*
X538025Y422044D01*
D83*
X357774Y365465D02*
X359479Y363761D01*
X362722D01*
X364927Y365966D01*
X496466Y411795D02*
X497375D01*
X490573Y417688D02*
X496466Y411795D01*
X476161Y417688D02*
X490573D01*
X462958Y430891D02*
X476161Y417688D01*
X424200Y430891D02*
X462958D01*
X418145Y436946D02*
X424200Y430891D01*
X364264Y436946D02*
X418145D01*
X346822Y419504D02*
X364264Y436946D01*
X346822Y360477D02*
Y419504D01*
Y360477D02*
X349329Y357970D01*
X353423D01*
X353426Y357967D01*
X357774D01*
X402646Y350505D02*
X404343D01*
X401475Y349334D02*
X402646Y350505D01*
X401475Y346265D02*
Y349334D01*
Y346265D02*
X402384Y345356D01*
X405305D01*
X406474Y344188D01*
Y341267D02*
Y344188D01*
Y341267D02*
X407525Y340215D01*
X431320D01*
X458991Y367886D01*
X491066D01*
X492234Y369054D01*
Y371079D01*
X489361Y388226D02*
X492234Y391323D01*
X480515Y388226D02*
X489361D01*
X457736Y411005D02*
X480515Y388226D01*
X406164Y411005D02*
X457736D01*
X398899Y403741D02*
X406164Y411005D01*
X398899Y399618D02*
Y403741D01*
X397718Y398437D02*
X398899Y399618D01*
X397462Y350134D02*
X397472D01*
X399189Y348417D01*
Y345316D02*
Y348417D01*
Y345316D02*
X406575Y337929D01*
X432267D01*
X459938Y365600D01*
X488658D01*
X491607Y362651D01*
X491985D01*
X354813Y365465D02*
X357774D01*
X353644Y364297D02*
X354813Y365465D01*
X353644Y361424D02*
Y364297D01*
X352476Y360256D02*
X353644Y361424D01*
X350276Y360256D02*
X352476D01*
X349108Y361424D02*
X350276Y360256D01*
X349108Y361424D02*
Y418556D01*
X365211Y434660D01*
X417197D01*
X423253Y428605D01*
X462011D01*
X475214Y415402D01*
X478798D01*
X479966Y414233D01*
Y411668D02*
Y414233D01*
Y411668D02*
X480794Y410840D01*
X482445D01*
X483248Y411643D01*
Y414688D01*
X483961Y415402D01*
X489542D01*
X492206Y412737D01*
Y411277D02*
Y412737D01*
X357934Y358127D02*
X364962D01*
X357774Y357967D02*
X357934Y358127D01*
X492511Y383865D02*
X492554Y382656D01*
X490360Y385940D02*
X492511Y383865D01*
X479567Y385940D02*
X490360D01*
X456788Y408719D02*
X479567Y385940D01*
X407111Y408719D02*
X456788D01*
X405676Y407284D02*
X407111Y408719D01*
X405676Y404917D02*
Y407284D01*
X404891Y404132D02*
X405676Y404917D01*
X402527Y404132D02*
X404891D01*
X401185Y402791D02*
X402527Y404132D01*
X401185Y401137D02*
Y402791D01*
Y401137D02*
X403258Y399064D01*
D85*
X514784Y586461D02*
Y594149D01*
X513865Y596369D02*
X514784Y594149D01*
X512087Y600659D02*
X513865Y596369D01*
X512087Y600659D02*
X512110Y600682D01*
X534784Y586461D02*
Y597083D01*
X535760Y598058D01*
X558785Y586461D02*
Y597118D01*
X559920Y598254D01*
X498785Y586461D02*
Y589509D01*
X500098Y590822D01*
Y595970D01*
X496067Y600001D02*
X500098Y595970D01*
X510786Y586461D02*
Y589549D01*
X512036Y590799D01*
Y595142D01*
X506781Y600398D02*
X512036Y595142D01*
X506781Y600398D02*
Y600400D01*
X530786Y586461D02*
Y589514D01*
X532562Y591289D01*
Y595264D01*
X529605Y598221D02*
X532562Y595264D01*
X554784Y586461D02*
Y589600D01*
X556448Y591264D01*
Y596303D01*
X553847Y598904D02*
X556448Y596303D01*
X502785Y586461D02*
Y591508D01*
X502257Y592036D02*
X502785Y591508D01*
X502257Y592036D02*
Y599201D01*
X501434Y600024D02*
X502257Y599201D01*
D86*
X607748Y283164D02*
X618970Y294386D01*
Y313009D01*
X465318Y44801D02*
X526511D01*
X531279Y49568D01*
X216710Y227475D02*
X267853D01*
X272131Y223197D01*
X319202D01*
X324104Y218295D01*
X355453D01*
X367947Y230790D01*
X372458D01*
D87*
X251910Y171412D02*
D03*
X250429Y202187D02*
D03*
X248910Y297744D02*
D03*
X248882Y531272D02*
D03*
X248829Y304056D02*
D03*
X24701Y126106D02*
D03*
X245514Y149941D02*
D03*
X244800Y128920D02*
D03*
X244594Y137556D02*
D03*
X244282Y112235D02*
D03*
X243596Y557080D02*
D03*
X240779Y147424D02*
D03*
X239230Y603568D02*
D03*
X239189Y488084D02*
D03*
X238150Y84432D02*
D03*
X237975Y93673D02*
D03*
X235481Y202059D02*
D03*
X234742Y120531D02*
D03*
X23480Y137602D02*
D03*
X23414Y172100D02*
D03*
X232943Y556694D02*
D03*
X232494Y32466D02*
D03*
X232024Y527324D02*
D03*
X22984Y104808D02*
D03*
X228018Y83061D02*
D03*
X227762Y467650D02*
D03*
X22807Y21882D02*
D03*
X227505Y580705D02*
D03*
X227312Y459097D02*
D03*
X22731Y306192D02*
D03*
X22581Y594065D02*
D03*
X223604Y163078D02*
D03*
X223566Y152855D02*
D03*
X222842Y175291D02*
D03*
X221607Y130619D02*
D03*
X221567Y291864D02*
D03*
X221450Y603568D02*
D03*
X219664Y555932D02*
D03*
X219202Y356380D02*
D03*
X219136Y368003D02*
D03*
Y362323D02*
D03*
X218097Y313642D02*
D03*
X218031Y318920D02*
D03*
X216710Y227475D02*
D03*
X216347Y291849D02*
D03*
X214031Y454467D02*
D03*
X213456Y356314D02*
D03*
X213391Y367937D02*
D03*
Y362257D02*
D03*
X212486Y318920D02*
D03*
X21275Y602635D02*
D03*
X211003Y291849D02*
D03*
X210944Y556588D02*
D03*
X208374Y467271D02*
D03*
X204884Y555257D02*
D03*
X204782Y136055D02*
D03*
X204475Y84531D02*
D03*
X20472Y9937D02*
D03*
X204173Y295176D02*
D03*
X203670Y603568D02*
D03*
X203380Y28412D02*
D03*
X203251Y53716D02*
D03*
X201851Y457787D02*
D03*
X20231Y332489D02*
D03*
X20211Y532440D02*
D03*
X20206Y567012D02*
D03*
X198443Y467815D02*
D03*
X195438Y458722D02*
D03*
X193383Y267561D02*
D03*
X19375Y68268D02*
D03*
X191803Y93406D02*
D03*
X191768Y302687D02*
D03*
X191681Y98486D02*
D03*
X191585Y116477D02*
D03*
X19159Y58070D02*
D03*
X190924Y158377D02*
D03*
X190525Y165214D02*
D03*
X190127Y263149D02*
D03*
X186604Y98715D02*
D03*
X186586Y93635D02*
D03*
X186096Y118280D02*
D03*
X185936Y603971D02*
D03*
X185555Y351142D02*
D03*
X183190Y457525D02*
D03*
X181861Y531571D02*
D03*
X18169Y402003D02*
D03*
X18095Y436628D02*
D03*
X178128Y211915D02*
D03*
X178044Y218963D02*
D03*
X177076Y444150D02*
D03*
X177000Y452249D02*
D03*
X174803Y361254D02*
D03*
X17424Y278407D02*
D03*
X17292Y289354D02*
D03*
X172225Y218963D02*
D03*
X172143Y212159D02*
D03*
X172131Y126634D02*
D03*
X17003Y109276D02*
D03*
X168013Y603971D02*
D03*
X167894Y245580D02*
D03*
X167521Y462669D02*
D03*
X166982Y253637D02*
D03*
X166449Y399905D02*
D03*
X165824Y262567D02*
D03*
X16513Y91135D02*
D03*
X163843Y126777D02*
D03*
X163543Y188364D02*
D03*
X163228Y332463D02*
D03*
X163137Y206591D02*
D03*
X162839Y337807D02*
D03*
X160691Y271610D02*
D03*
X160431Y528699D02*
D03*
X156136Y175519D02*
D03*
X154511Y399697D02*
D03*
X154041Y498478D02*
D03*
X153561Y603908D02*
D03*
X152723Y206367D02*
D03*
X150399Y106949D02*
D03*
X150332Y118572D02*
D03*
Y112893D02*
D03*
X149908Y436169D02*
D03*
X148968Y399763D02*
D03*
X147256Y187924D02*
D03*
X146413Y534114D02*
D03*
X144653Y106883D02*
D03*
X144587Y118506D02*
D03*
Y112827D02*
D03*
X141757Y575724D02*
D03*
X141382Y39268D02*
D03*
X139690Y144127D02*
D03*
X13574Y523336D02*
D03*
X132550Y603568D02*
D03*
X13241Y381432D02*
D03*
X13045Y361620D02*
D03*
X12852Y250718D02*
D03*
X126258Y70086D02*
D03*
X126230Y75438D02*
D03*
X125859Y152253D02*
D03*
X125570Y146926D02*
D03*
X124089Y337807D02*
D03*
Y331414D02*
D03*
X123025Y289308D02*
D03*
X122860Y281793D02*
D03*
X121496Y545259D02*
D03*
X121310Y394696D02*
D03*
X121181Y529897D02*
D03*
X121156Y389313D02*
D03*
X121023Y539841D02*
D03*
X120998Y410822D02*
D03*
X120952Y416319D02*
D03*
X120117Y518739D02*
D03*
X114770Y603568D02*
D03*
X113845Y68534D02*
D03*
X113711Y75148D02*
D03*
X11394Y601566D02*
D03*
X11222Y21184D02*
D03*
X11128Y235852D02*
D03*
X109515Y226317D02*
D03*
X106751Y75065D02*
D03*
X106698Y68603D02*
D03*
X10132Y10074D02*
D03*
X96990Y603568D02*
D03*
X94877Y214366D02*
D03*
X94356Y219954D02*
D03*
X93876Y106378D02*
D03*
X93660Y96180D02*
D03*
X91181Y407914D02*
D03*
X91056Y414414D02*
D03*
X90901Y12403D02*
D03*
X8966Y219837D02*
D03*
X86256Y106378D02*
D03*
X86040Y96180D02*
D03*
X85616Y11681D02*
D03*
X8324Y370576D02*
D03*
X8189Y326659D02*
D03*
Y304714D02*
D03*
X79210Y603568D02*
D03*
X7925Y558975D02*
D03*
X7922Y288994D02*
D03*
X7790Y537345D02*
D03*
Y515579D02*
D03*
X7658Y585546D02*
D03*
X7656Y264960D02*
D03*
X75207Y364528D02*
D03*
X7521Y499156D02*
D03*
Y461104D02*
D03*
Y442410D02*
D03*
X74635Y85646D02*
D03*
X74153Y464226D02*
D03*
X7389Y396347D02*
D03*
X7361Y174970D02*
D03*
Y155473D02*
D03*
Y93762D02*
D03*
Y32233D02*
D03*
X729732Y12990D02*
D03*
X728762Y137681D02*
D03*
X726806Y168961D02*
D03*
X726539Y150533D02*
D03*
X726237Y111656D02*
D03*
X724487Y72616D02*
D03*
X72291Y335712D02*
D03*
X72281Y329613D02*
D03*
X722280Y603301D02*
D03*
X720946Y545089D02*
D03*
Y527309D02*
D03*
X720555Y191102D02*
D03*
X720423Y196436D02*
D03*
X7257Y341470D02*
D03*
X7254Y480329D02*
D03*
Y415973D02*
D03*
X71880Y593689D02*
D03*
X717860Y351036D02*
D03*
X712869Y92639D02*
D03*
X712838Y318519D02*
D03*
X712762Y330208D02*
D03*
X712709Y378747D02*
D03*
X712483Y286542D02*
D03*
X712480Y338491D02*
D03*
Y302301D02*
D03*
X712437Y417495D02*
D03*
X711670Y12019D02*
D03*
X711281Y123891D02*
D03*
X710723Y152540D02*
D03*
X710496Y440251D02*
D03*
X708442Y405862D02*
D03*
X708337Y390489D02*
D03*
X708256Y398262D02*
D03*
X707972Y366319D02*
D03*
X707751Y350672D02*
D03*
X707504Y318618D02*
D03*
X707149Y378506D02*
D03*
Y338287D02*
D03*
Y286527D02*
D03*
X707146Y302237D02*
D03*
X707144Y330208D02*
D03*
X707141Y418142D02*
D03*
X7120Y127701D02*
D03*
Y54397D02*
D03*
X704500Y603301D02*
D03*
X703166Y545089D02*
D03*
Y527309D02*
D03*
X703113Y406443D02*
D03*
X702506Y352108D02*
D03*
X702346Y390047D02*
D03*
X702183Y366583D02*
D03*
Y358442D02*
D03*
X702173Y318442D02*
D03*
X701815Y238844D02*
D03*
Y418442D02*
D03*
Y398442D02*
D03*
Y378442D02*
D03*
Y338442D02*
D03*
Y330444D02*
D03*
Y302443D02*
D03*
Y286443D02*
D03*
Y258442D02*
D03*
X701774Y244927D02*
D03*
X697080Y218427D02*
D03*
X697078Y209359D02*
D03*
X696907Y73586D02*
D03*
X696392Y448353D02*
D03*
X695356Y112044D02*
D03*
X694009Y461223D02*
D03*
X693412Y137876D02*
D03*
X69342Y8867D02*
D03*
X6977Y203291D02*
D03*
X69225Y85844D02*
D03*
X691017Y446281D02*
D03*
X690603Y218509D02*
D03*
X690601Y209441D02*
D03*
X689945Y589151D02*
D03*
X689343Y603169D02*
D03*
X688861Y390444D02*
D03*
X688416Y280045D02*
D03*
X688175Y265389D02*
D03*
X687931Y272839D02*
D03*
X687586Y12990D02*
D03*
X687121Y359316D02*
D03*
X686841Y246172D02*
D03*
Y239205D02*
D03*
X686752Y378221D02*
D03*
X685262Y398181D02*
D03*
X68542Y464894D02*
D03*
X684174Y446037D02*
D03*
X683379Y482549D02*
D03*
Y460776D02*
D03*
X682300Y406514D02*
D03*
X682224Y569389D02*
D03*
X681764Y239377D02*
D03*
X681761Y246202D02*
D03*
X681619Y198394D02*
D03*
X681535Y280208D02*
D03*
X681421Y378424D02*
D03*
X681213Y358828D02*
D03*
X680717Y338110D02*
D03*
X679793Y398584D02*
D03*
X678508Y445834D02*
D03*
X678167Y316601D02*
D03*
X676971Y406789D02*
D03*
X676191Y272839D02*
D03*
X676029Y266362D02*
D03*
X675785Y378343D02*
D03*
X675625Y358991D02*
D03*
X675394Y589417D02*
D03*
X675384Y338262D02*
D03*
X674459Y398442D02*
D03*
X674411Y280289D02*
D03*
X671609Y485783D02*
D03*
Y472808D02*
D03*
X671563Y603169D02*
D03*
X670281Y226040D02*
D03*
X670199Y218752D02*
D03*
X669254Y498051D02*
D03*
X669178Y142872D02*
D03*
X669003Y461996D02*
D03*
X664444Y569389D02*
D03*
X662407Y103320D02*
D03*
X662341Y90561D02*
D03*
X66269Y594091D02*
D03*
X661505Y418442D02*
D03*
Y378442D02*
D03*
Y358442D02*
D03*
Y338442D02*
D03*
Y302443D02*
D03*
Y286443D02*
D03*
X661182Y258442D02*
D03*
X66050Y339159D02*
D03*
X659034Y410512D02*
D03*
X657667Y318783D02*
D03*
X657268Y103510D02*
D03*
X657202Y90752D02*
D03*
X657167Y499537D02*
D03*
X656171Y358554D02*
D03*
Y338506D02*
D03*
Y302476D02*
D03*
X656156Y286558D02*
D03*
X655787Y378587D02*
D03*
X653783Y603169D02*
D03*
X653763Y418031D02*
D03*
X653547Y410512D02*
D03*
X652727Y270015D02*
D03*
X652188Y103523D02*
D03*
X652122Y90764D02*
D03*
X650847Y287094D02*
D03*
X650469Y378991D02*
D03*
X650395Y358844D02*
D03*
X650281Y302164D02*
D03*
X649595Y315313D02*
D03*
X649328Y309984D02*
D03*
X648995Y443931D02*
D03*
X648553Y515887D02*
D03*
X648429Y418158D02*
D03*
X644428Y546473D02*
D03*
X644258Y55923D02*
D03*
X643979Y317939D02*
D03*
X64351Y364627D02*
D03*
X639044Y383837D02*
D03*
X638561Y103787D02*
D03*
X637893Y90962D02*
D03*
X637037Y418031D02*
D03*
X636003Y603169D02*
D03*
X633090Y590484D02*
D03*
X632821Y579537D02*
D03*
X631723Y418498D02*
D03*
X631388Y564043D02*
D03*
X630144Y90962D02*
D03*
X629877Y103721D02*
D03*
X625340Y58075D02*
D03*
X624017Y439519D02*
D03*
X622000Y468963D02*
D03*
X621647Y603303D02*
D03*
X619755Y97221D02*
D03*
X619656Y103185D02*
D03*
X619455Y90828D02*
D03*
X618970Y313009D02*
D03*
X618843Y496794D02*
D03*
X618823Y489067D02*
D03*
X618741Y482834D02*
D03*
X618729Y555107D02*
D03*
X618355Y452029D02*
D03*
X616697Y503425D02*
D03*
X615546Y472234D02*
D03*
X615434Y198410D02*
D03*
X615310Y590484D02*
D03*
X615041Y579537D02*
D03*
X614561Y546334D02*
D03*
X613009Y97221D02*
D03*
X612976Y103520D02*
D03*
X612709Y90828D02*
D03*
X612181Y555508D02*
D03*
X610321Y503479D02*
D03*
X609158Y516722D02*
D03*
X60843Y340319D02*
D03*
X607748Y283164D02*
D03*
X606633Y423540D02*
D03*
X605358Y90437D02*
D03*
X603971Y76578D02*
D03*
X603867Y603303D02*
D03*
X603230Y148963D02*
D03*
X599831Y423418D02*
D03*
X599790Y229626D02*
D03*
X599455Y90647D02*
D03*
X595968Y200050D02*
D03*
X595173Y205069D02*
D03*
X592549Y566110D02*
D03*
X592463Y592927D02*
D03*
X592186Y95021D02*
D03*
X592122Y123040D02*
D03*
X592054Y100543D02*
D03*
X591972Y117346D02*
D03*
Y89690D02*
D03*
X591932Y238951D02*
D03*
X590735Y535818D02*
D03*
X589069Y73665D02*
D03*
X588592Y431137D02*
D03*
X588480Y596476D02*
D03*
X587276Y129327D02*
D03*
X586087Y603303D02*
D03*
X585094Y200332D02*
D03*
X584972Y193332D02*
D03*
X583979Y593032D02*
D03*
X583174Y334790D02*
D03*
X58235Y332463D02*
D03*
X581325Y549161D02*
D03*
X580596Y440327D02*
D03*
X579986Y49929D02*
D03*
X579973Y122171D02*
D03*
X579712Y596880D02*
D03*
X579697Y200279D02*
D03*
X579554Y128582D02*
D03*
X575846Y184305D02*
D03*
X575803Y593250D02*
D03*
X575358Y535877D02*
D03*
X574784Y565582D02*
D03*
X574251Y542709D02*
D03*
X573865Y550136D02*
D03*
X572905Y266690D02*
D03*
X572287Y102479D02*
D03*
X572018Y96601D02*
D03*
X57254Y193365D02*
D03*
X571972Y117046D02*
D03*
Y90726D02*
D03*
X571939Y122839D02*
D03*
X571746Y128600D02*
D03*
X57191Y82006D02*
D03*
X570093Y184615D02*
D03*
X569603Y569801D02*
D03*
X569524Y593161D02*
D03*
X568734Y210099D02*
D03*
X568307Y603303D02*
D03*
X567931Y402328D02*
D03*
X56838Y223375D02*
D03*
X567848Y411317D02*
D03*
X567284Y346913D02*
D03*
X567233Y391975D02*
D03*
Y382166D02*
D03*
Y371986D02*
D03*
Y361904D02*
D03*
X567192Y426964D02*
D03*
X566837Y421442D02*
D03*
X566717Y352677D02*
D03*
X564484Y567954D02*
D03*
X563664Y129035D02*
D03*
X563659Y123525D02*
D03*
X562996Y541332D02*
D03*
X562671Y546880D02*
D03*
X562595Y592950D02*
D03*
X562313Y401897D02*
D03*
X562234Y411422D02*
D03*
X562178Y392483D02*
D03*
X562148Y381739D02*
D03*
X561932Y372283D02*
D03*
X561696Y362549D02*
D03*
X560593Y101613D02*
D03*
X560443Y184945D02*
D03*
X560258Y95667D02*
D03*
X560149Y190271D02*
D03*
X559973Y89880D02*
D03*
X559920Y598254D02*
D03*
X559333Y209946D02*
D03*
X558305Y346875D02*
D03*
X557916Y351942D02*
D03*
X557233Y401838D02*
D03*
X557195Y357589D02*
D03*
X557154Y411475D02*
D03*
X557121Y427124D02*
D03*
Y422044D02*
D03*
Y416964D02*
D03*
X557085Y382184D02*
D03*
X556941Y392255D02*
D03*
X556867Y371889D02*
D03*
X556616Y362636D02*
D03*
X553847Y598904D02*
D03*
X552074Y401937D02*
D03*
X551993Y382024D02*
D03*
X551866Y392021D02*
D03*
X551762Y372250D02*
D03*
X551693Y117988D02*
D03*
X551663Y123472D02*
D03*
X551439Y594015D02*
D03*
X549712Y267838D02*
D03*
X548368Y102011D02*
D03*
X547972Y90289D02*
D03*
X547898Y96535D02*
D03*
X547555Y411706D02*
D03*
X547540Y416966D02*
D03*
X547472Y427124D02*
D03*
Y361785D02*
D03*
X547464Y406499D02*
D03*
X547436Y351716D02*
D03*
X547347Y422044D02*
D03*
X547256Y366964D02*
D03*
X547093Y346646D02*
D03*
X546923Y382430D02*
D03*
X546893Y401269D02*
D03*
X546753Y356756D02*
D03*
X546730Y392107D02*
D03*
X546656Y372542D02*
D03*
X546153Y578904D02*
D03*
X544698Y565747D02*
D03*
X543971Y117559D02*
D03*
X543756Y123523D02*
D03*
X541693Y381988D02*
D03*
X541571Y391937D02*
D03*
X541287Y204765D02*
D03*
X541284Y209946D02*
D03*
X541028Y215577D02*
D03*
Y199304D02*
D03*
X540812Y221297D02*
D03*
X540779Y600045D02*
D03*
X539973Y89802D02*
D03*
X539476Y95712D02*
D03*
X539341Y101326D02*
D03*
X538785Y593616D02*
D03*
X537944Y356456D02*
D03*
X537906Y422163D02*
D03*
X537883Y417083D02*
D03*
X537848Y427690D02*
D03*
X537639Y386900D02*
D03*
X537533Y412013D02*
D03*
X537489Y346276D02*
D03*
X537484Y351396D02*
D03*
X537248Y371963D02*
D03*
Y366883D02*
D03*
Y361803D02*
D03*
X537167Y401731D02*
D03*
X537073Y406811D02*
D03*
X53754Y462333D02*
D03*
X536407Y527776D02*
D03*
X536357Y521658D02*
D03*
X536163Y537007D02*
D03*
X535760Y598058D02*
D03*
X535409Y121735D02*
D03*
X532384Y386558D02*
D03*
X532338Y117046D02*
D03*
X531279Y49568D02*
D03*
X529605Y598221D02*
D03*
X527799Y351246D02*
D03*
X527726Y361406D02*
D03*
X527723Y593230D02*
D03*
X527682Y356326D02*
D03*
X527383Y406725D02*
D03*
X527233Y401267D02*
D03*
Y371963D02*
D03*
X527192Y422593D02*
D03*
X527190Y366883D02*
D03*
X527185Y385961D02*
D03*
X527083Y411965D02*
D03*
X526926Y417350D02*
D03*
X52598Y592203D02*
D03*
X524947Y528737D02*
D03*
X524825Y542023D02*
D03*
X523685Y579915D02*
D03*
X52299Y352427D02*
D03*
X52278Y8326D02*
D03*
X522107Y385775D02*
D03*
X520037Y102380D02*
D03*
X519974Y76705D02*
D03*
X519913Y117058D02*
D03*
X519765Y97051D02*
D03*
Y90970D02*
D03*
X519661Y127726D02*
D03*
X519542Y122392D02*
D03*
X519031Y541917D02*
D03*
X518917Y536583D02*
D03*
X518787Y547245D02*
D03*
X518785Y552592D02*
D03*
X517848Y412222D02*
D03*
X517578Y407078D02*
D03*
X517573Y579803D02*
D03*
X517515Y346276D02*
D03*
X517456Y351356D02*
D03*
X517390Y422585D02*
D03*
X517304Y598213D02*
D03*
X517235Y371963D02*
D03*
Y366883D02*
D03*
X517197Y603547D02*
D03*
X517015Y427652D02*
D03*
X517002Y385770D02*
D03*
X516976Y356415D02*
D03*
X516730Y402069D02*
D03*
X516710Y361531D02*
D03*
X51445Y480687D02*
D03*
X51339Y27112D02*
D03*
X512828Y381792D02*
D03*
X512818Y391305D02*
D03*
X512110Y600682D02*
D03*
X510027Y76164D02*
D03*
X508058Y372582D02*
D03*
X507911Y356827D02*
D03*
X507832Y351747D02*
D03*
X507738Y401965D02*
D03*
X507731Y381632D02*
D03*
X507726Y391239D02*
D03*
X507695Y427190D02*
D03*
X507629Y361899D02*
D03*
X507416Y346281D02*
D03*
X507263Y407025D02*
D03*
X507195Y412125D02*
D03*
X507048Y547164D02*
D03*
X507017Y367119D02*
D03*
X506966Y541830D02*
D03*
X506786Y552628D02*
D03*
X506781Y600400D02*
D03*
X506661Y536504D02*
D03*
X506219Y417228D02*
D03*
X506092Y422308D02*
D03*
X506067Y595071D02*
D03*
X505879Y37755D02*
D03*
X504708Y100871D02*
D03*
X504403Y95545D02*
D03*
X504185Y90213D02*
D03*
X503550Y76736D02*
D03*
X502668Y382074D02*
D03*
X502663Y402227D02*
D03*
X502658Y391612D02*
D03*
X502407Y371871D02*
D03*
X501434Y600024D02*
D03*
X501272Y123726D02*
D03*
X501203Y129469D02*
D03*
X501071Y117912D02*
D03*
X500936Y134798D02*
D03*
X497589Y401965D02*
D03*
Y391965D02*
D03*
Y381965D02*
D03*
X497530Y362141D02*
D03*
X497413Y356878D02*
D03*
X497375Y411795D02*
D03*
X497294Y371539D02*
D03*
X497291Y346707D02*
D03*
X497284Y351798D02*
D03*
X496552Y427533D02*
D03*
X496067Y600001D02*
D03*
X496044Y422453D02*
D03*
X496037Y417238D02*
D03*
X495305Y541970D02*
D03*
X495259Y530248D02*
D03*
X495120Y577647D02*
D03*
X495079Y536638D02*
D03*
X495064Y547299D02*
D03*
X494784Y592938D02*
D03*
Y552628D02*
D03*
X492554Y382656D02*
D03*
X492379Y402529D02*
D03*
X492234Y391323D02*
D03*
Y371079D02*
D03*
X492206Y411277D02*
D03*
X492008Y24260D02*
D03*
X491985Y362651D02*
D03*
X491950Y568571D02*
D03*
X489745Y602356D02*
D03*
X487307Y346487D02*
D03*
X487289Y351831D02*
D03*
X487233Y427218D02*
D03*
Y421711D02*
D03*
X486877Y391965D02*
D03*
Y381965D02*
D03*
Y371965D02*
D03*
Y361886D02*
D03*
X486852Y411490D02*
D03*
X486550Y401810D02*
D03*
X483405Y128859D02*
D03*
X483161Y541967D02*
D03*
X483080Y547301D02*
D03*
X482867Y536641D02*
D03*
X482796Y598368D02*
D03*
X482785Y592938D02*
D03*
Y552628D02*
D03*
X482742Y603702D02*
D03*
X477408Y603082D02*
D03*
X474066Y440131D02*
D03*
Y333797D02*
D03*
X473164Y402986D02*
D03*
X472834Y361963D02*
D03*
X472737Y386964D02*
D03*
X471180Y536633D02*
D03*
X471012Y541965D02*
D03*
X470787Y592938D02*
D03*
Y552628D02*
D03*
X470771Y547294D02*
D03*
X470708Y598272D02*
D03*
X470413Y603598D02*
D03*
X46873Y449438D02*
D03*
X467947Y408008D02*
D03*
X465610Y65750D02*
D03*
X465318Y44801D02*
D03*
X464995Y60239D02*
D03*
X464894Y414492D02*
D03*
X464767Y603413D02*
D03*
X46444Y578231D02*
D03*
X462783Y246555D02*
D03*
X462722Y286370D02*
D03*
Y258646D02*
D03*
X461447Y122433D02*
D03*
X461295Y56053D02*
D03*
X460687Y41671D02*
D03*
X459186Y95552D02*
D03*
X459031Y547299D02*
D03*
X458907Y536349D02*
D03*
X458869Y541965D02*
D03*
X458785Y592938D02*
D03*
Y552628D02*
D03*
X458666Y603603D02*
D03*
X458577Y598269D02*
D03*
X458158Y418244D02*
D03*
X456542Y24435D02*
D03*
X456311Y36881D02*
D03*
X454251Y199934D02*
D03*
Y161064D02*
D03*
X452963Y603971D02*
D03*
X452740Y424719D02*
D03*
X450903Y36815D02*
D03*
X44823Y90427D02*
D03*
X447081Y536626D02*
D03*
X447017Y603595D02*
D03*
X446982Y541960D02*
D03*
X446888Y547294D02*
D03*
X446786Y592938D02*
D03*
Y552628D02*
D03*
X446682Y598272D02*
D03*
X445823Y36815D02*
D03*
X442745Y230790D02*
D03*
X441198Y603585D02*
D03*
X437444Y44201D02*
D03*
X43744Y48946D02*
D03*
X436766Y25169D02*
D03*
X434985Y541960D02*
D03*
X434861Y598272D02*
D03*
X434825Y535920D02*
D03*
X434823Y547294D02*
D03*
X434785Y592938D02*
D03*
Y552628D02*
D03*
X434487Y603834D02*
D03*
X433898Y439588D02*
D03*
X43421Y72456D02*
D03*
Y61184D02*
D03*
X432087Y223068D02*
D03*
X430654Y447515D02*
D03*
X429666Y368785D02*
D03*
X429410Y380088D02*
D03*
X428470Y330848D02*
D03*
X428158Y418391D02*
D03*
X427820Y402455D02*
D03*
X426839Y346192D02*
D03*
X42593Y226113D02*
D03*
Y355844D02*
D03*
X424924Y354373D02*
D03*
X424813Y394467D02*
D03*
Y386466D02*
D03*
X424698Y160071D02*
D03*
X424579Y436009D02*
D03*
X424185Y477116D02*
D03*
X42370Y15276D02*
D03*
X421716Y452427D02*
D03*
X417030Y603568D02*
D03*
X416855Y223469D02*
D03*
X416418Y365740D02*
D03*
X416131Y382968D02*
D03*
X414221Y26104D02*
D03*
X41407Y592488D02*
D03*
X410464Y349928D02*
D03*
X410228Y398793D02*
D03*
X409786Y365849D02*
D03*
X409738Y383045D02*
D03*
X408003Y58593D02*
D03*
X406768Y151000D02*
D03*
X406669Y176413D02*
D03*
X406545Y23292D02*
D03*
X406405Y94513D02*
D03*
X406403Y191110D02*
D03*
X406222Y110681D02*
D03*
X406042Y134656D02*
D03*
X404343Y350505D02*
D03*
X403939Y421952D02*
D03*
X403809Y414934D02*
D03*
X403774Y382966D02*
D03*
X403756Y333952D02*
D03*
X403677Y391063D02*
D03*
X403621Y357815D02*
D03*
X403591Y366192D02*
D03*
X403517Y326621D02*
D03*
X403258Y399064D02*
D03*
X403129Y203624D02*
D03*
X403047Y209936D02*
D03*
X402841Y291272D02*
D03*
X402407Y36939D02*
D03*
X401081Y23104D02*
D03*
X399250Y603568D02*
D03*
X399148Y151000D02*
D03*
X398785Y94513D02*
D03*
X398602Y110681D02*
D03*
X398422Y134656D02*
D03*
X397718Y398437D02*
D03*
X397655Y342069D02*
D03*
X397462Y350134D02*
D03*
X396951Y406573D02*
D03*
X395834Y209852D02*
D03*
X395750Y203378D02*
D03*
X395039Y423847D02*
D03*
X394099Y366786D02*
D03*
Y325407D02*
D03*
X394089Y380591D02*
D03*
X39195Y188178D02*
D03*
X390555Y399192D02*
D03*
X390505Y430499D02*
D03*
X390291Y350195D02*
D03*
X390213Y290459D02*
D03*
X389921Y318287D02*
D03*
X388866Y209771D02*
D03*
X388701Y203050D02*
D03*
X387149Y587898D02*
D03*
X386880Y423248D02*
D03*
X386580Y59629D02*
D03*
X386085Y382062D02*
D03*
X385986Y366476D02*
D03*
X385237Y74534D02*
D03*
X384703Y327025D02*
D03*
X384193Y399049D02*
D03*
X384089Y414327D02*
D03*
X381470Y603568D02*
D03*
X381312Y59855D02*
D03*
X380159Y74724D02*
D03*
X379222Y382163D02*
D03*
Y366771D02*
D03*
X378991Y422760D02*
D03*
X378148Y327195D02*
D03*
X378041Y357850D02*
D03*
Y350512D02*
D03*
X377977Y398788D02*
D03*
X377843Y390891D02*
D03*
X377718Y335023D02*
D03*
X377660Y236962D02*
D03*
X377571Y414475D02*
D03*
X377546Y342644D02*
D03*
X376913Y222847D02*
D03*
X376679Y521901D02*
D03*
X375054Y259776D02*
D03*
X37351Y137348D02*
D03*
X372814Y382316D02*
D03*
Y366618D02*
D03*
X372458Y230790D02*
D03*
X37247Y491884D02*
D03*
X371892Y414462D02*
D03*
X371627Y358381D02*
D03*
X371503Y390682D02*
D03*
X371437Y422430D02*
D03*
X371330Y326880D02*
D03*
X370937Y335026D02*
D03*
X370931Y223487D02*
D03*
X370131Y180843D02*
D03*
X367030Y84262D02*
D03*
X366789Y61712D02*
D03*
X36695Y271846D02*
D03*
X365534Y422112D02*
D03*
X365150Y25499D02*
D03*
X365089Y383131D02*
D03*
X365028Y343070D02*
D03*
X364962Y358127D02*
D03*
X364927Y365966D02*
D03*
X364823Y350924D02*
D03*
X364757Y326817D02*
D03*
X364711Y406161D02*
D03*
X364409Y390543D02*
D03*
X363690Y603568D02*
D03*
X363672Y181450D02*
D03*
X36353Y119812D02*
D03*
X361665Y201747D02*
D03*
X361104Y544005D02*
D03*
X360070Y32408D02*
D03*
Y25593D02*
D03*
X359514Y52113D02*
D03*
X359070Y422925D02*
D03*
X359014Y406242D02*
D03*
X358417Y343284D02*
D03*
X358265Y413802D02*
D03*
X358130Y326997D02*
D03*
X358120Y390987D02*
D03*
X357919Y335519D02*
D03*
X354823Y544167D02*
D03*
X353654Y294013D02*
D03*
X353525Y554048D02*
D03*
X352826Y239591D02*
D03*
X352509Y60071D02*
D03*
X352455Y247117D02*
D03*
X351833Y53381D02*
D03*
X35184Y401411D02*
D03*
X350853Y170261D02*
D03*
X349722Y564538D02*
D03*
X348709Y544457D02*
D03*
X348061Y97475D02*
D03*
X34823Y325831D02*
D03*
X345910Y603568D02*
D03*
X345686Y53449D02*
D03*
X343626Y60071D02*
D03*
X340002Y507220D02*
D03*
X338844Y422473D02*
D03*
Y414472D02*
D03*
Y406471D02*
D03*
Y398470D02*
D03*
Y358465D02*
D03*
Y350464D02*
D03*
Y342463D02*
D03*
Y326461D02*
D03*
X337167Y289446D02*
D03*
X336672Y67439D02*
D03*
X336387Y491774D02*
D03*
X335249Y588912D02*
D03*
X332745Y510520D02*
D03*
X332341Y422473D02*
D03*
Y406471D02*
D03*
Y342463D02*
D03*
Y326461D02*
D03*
X33246Y244699D02*
D03*
X331876Y133063D02*
D03*
X331726Y126787D02*
D03*
X331622Y289712D02*
D03*
X330779Y237752D02*
D03*
X330525Y66873D02*
D03*
X33050Y339867D02*
D03*
X32939Y456913D02*
D03*
X328130Y603568D02*
D03*
X327477Y28672D02*
D03*
X326542Y289783D02*
D03*
X32662Y380266D02*
D03*
X325839Y422473D02*
D03*
Y390469D02*
D03*
Y358465D02*
D03*
Y326461D02*
D03*
X325778Y334571D02*
D03*
X32471Y529775D02*
D03*
X32469Y359095D02*
D03*
X323713Y66942D02*
D03*
X32372Y86898D02*
D03*
X322557Y557571D02*
D03*
X322389Y564576D02*
D03*
X321823Y544576D02*
D03*
X321468Y289514D02*
D03*
X321061Y510520D02*
D03*
X320561Y317932D02*
D03*
X319336Y422473D02*
D03*
Y406471D02*
D03*
Y398470D02*
D03*
Y390469D02*
D03*
Y358465D02*
D03*
Y350464D02*
D03*
Y342463D02*
D03*
Y326461D02*
D03*
X318120Y170124D02*
D03*
X317993Y67008D02*
D03*
X312834Y422473D02*
D03*
Y406471D02*
D03*
Y390469D02*
D03*
Y358465D02*
D03*
Y342463D02*
D03*
Y326461D02*
D03*
X311922Y179827D02*
D03*
X311295Y33439D02*
D03*
X310568Y45227D02*
D03*
X310350Y603568D02*
D03*
X309827Y305910D02*
D03*
X30978Y136761D02*
D03*
X306385Y551886D02*
D03*
X306332Y422473D02*
D03*
Y390469D02*
D03*
Y358465D02*
D03*
Y326461D02*
D03*
X306126Y545671D02*
D03*
X30526Y312092D02*
D03*
X304729Y488516D02*
D03*
X304216Y305910D02*
D03*
X30257Y271498D02*
D03*
X300624Y228933D02*
D03*
X300622Y216832D02*
D03*
X300418Y553565D02*
D03*
X299829Y422473D02*
D03*
Y414472D02*
D03*
Y398470D02*
D03*
Y390469D02*
D03*
Y358465D02*
D03*
Y350464D02*
D03*
Y334462D02*
D03*
Y326461D02*
D03*
X30003Y103480D02*
D03*
X299354Y242529D02*
D03*
X298798Y28278D02*
D03*
X29748Y219837D02*
D03*
X296514Y179702D02*
D03*
X296360Y92560D02*
D03*
X296202Y305910D02*
D03*
X295107Y488516D02*
D03*
X293327Y422473D02*
D03*
Y390469D02*
D03*
Y358465D02*
D03*
Y326461D02*
D03*
X29360Y9685D02*
D03*
X292570Y603568D02*
D03*
X291137Y517926D02*
D03*
X291038Y92941D02*
D03*
X290637Y305994D02*
D03*
X290238Y179852D02*
D03*
X289791Y242529D02*
D03*
X289568Y229306D02*
D03*
Y216906D02*
D03*
X287373Y512506D02*
D03*
X286824Y406471D02*
D03*
Y390469D02*
D03*
Y358465D02*
D03*
Y342463D02*
D03*
X285748Y93630D02*
D03*
X281290Y582765D02*
D03*
X280977Y511340D02*
D03*
Y292636D02*
D03*
X280510Y286329D02*
D03*
X280322Y406471D02*
D03*
Y398470D02*
D03*
Y390469D02*
D03*
Y358465D02*
D03*
Y350464D02*
D03*
Y342463D02*
D03*
X277322Y182148D02*
D03*
X276403Y563870D02*
D03*
X27612Y187985D02*
D03*
X274790Y603568D02*
D03*
X273400Y491028D02*
D03*
X273228Y531566D02*
D03*
X272979Y92217D02*
D03*
X272572Y513811D02*
D03*
X272062Y181259D02*
D03*
X27104Y532460D02*
D03*
X268437Y27694D02*
D03*
X268166Y39764D02*
D03*
X267891Y51199D02*
D03*
X266702Y92367D02*
D03*
X263357Y27694D02*
D03*
X263086Y39764D02*
D03*
X262811Y51199D02*
D03*
X262661Y466890D02*
D03*
X261737Y297909D02*
D03*
X261572Y303974D02*
D03*
X257035Y240396D02*
D03*
X257010Y603568D02*
D03*
X25667Y401648D02*
D03*
X256009Y556646D02*
D03*
X255387Y297909D02*
D03*
X255222Y303974D02*
D03*
X254521Y211707D02*
D03*
D88*
X144112Y329451D02*
D03*
X143309Y301013D02*
D03*
X103241Y22088D02*
D03*
X69474Y20617D02*
D03*
X345067Y197874D02*
D03*
X344467Y231981D02*
D03*
D92*
X667982Y254445D02*
D03*
Y258442D02*
D03*
Y262443D02*
D03*
Y266444D02*
D03*
Y270444D02*
D03*
Y274445D02*
D03*
Y278442D02*
D03*
Y282443D02*
D03*
Y286443D02*
D03*
Y290444D02*
D03*
Y294444D02*
D03*
Y298442D02*
D03*
Y302443D02*
D03*
Y306443D02*
D03*
Y310444D02*
D03*
Y314444D02*
D03*
Y318442D02*
D03*
Y322443D02*
D03*
Y326443D02*
D03*
Y330444D02*
D03*
Y334444D02*
D03*
Y338442D02*
D03*
Y342443D02*
D03*
Y346443D02*
D03*
Y350444D02*
D03*
Y354444D02*
D03*
Y358442D02*
D03*
Y362443D02*
D03*
Y366443D02*
D03*
Y370444D02*
D03*
Y374444D02*
D03*
Y378442D02*
D03*
Y382443D02*
D03*
Y386443D02*
D03*
Y390444D02*
D03*
Y394444D02*
D03*
Y398442D02*
D03*
Y402443D02*
D03*
Y406443D02*
D03*
Y410444D02*
D03*
Y414444D02*
D03*
Y418442D02*
D03*
Y422443D02*
D03*
Y426443D02*
D03*
Y430444D02*
D03*
Y434444D02*
D03*
Y238442D02*
D03*
Y242443D02*
D03*
Y246444D02*
D03*
Y250444D02*
D03*
X695338Y254445D02*
D03*
Y258442D02*
D03*
Y262443D02*
D03*
Y266444D02*
D03*
Y270444D02*
D03*
Y274445D02*
D03*
Y278442D02*
D03*
Y282443D02*
D03*
Y286443D02*
D03*
Y290444D02*
D03*
Y294444D02*
D03*
Y298442D02*
D03*
Y302443D02*
D03*
Y306443D02*
D03*
Y310444D02*
D03*
Y314444D02*
D03*
Y318442D02*
D03*
Y322443D02*
D03*
Y326443D02*
D03*
Y330444D02*
D03*
Y334444D02*
D03*
Y338442D02*
D03*
Y342443D02*
D03*
Y346443D02*
D03*
Y350444D02*
D03*
Y354444D02*
D03*
Y358442D02*
D03*
Y362443D02*
D03*
Y366443D02*
D03*
Y370444D02*
D03*
Y374444D02*
D03*
Y378442D02*
D03*
Y382443D02*
D03*
Y386443D02*
D03*
Y390444D02*
D03*
Y394444D02*
D03*
Y398442D02*
D03*
Y402443D02*
D03*
Y406443D02*
D03*
Y410444D02*
D03*
Y414444D02*
D03*
Y418442D02*
D03*
Y422443D02*
D03*
Y426443D02*
D03*
Y430444D02*
D03*
Y434444D02*
D03*
Y238442D02*
D03*
Y242443D02*
D03*
Y246444D02*
D03*
Y250444D02*
D03*
X342232Y564576D02*
D03*
Y560575D02*
D03*
Y556575D02*
D03*
Y552577D02*
D03*
Y548577D02*
D03*
Y544576D02*
D03*
X314876Y564576D02*
D03*
Y560575D02*
D03*
Y556575D02*
D03*
Y552577D02*
D03*
Y548577D02*
D03*
Y544576D02*
D03*
D93*
X667982Y439194D02*
D03*
Y233693D02*
D03*
X695338Y439194D02*
D03*
Y233693D02*
D03*
X342232Y569326D02*
D03*
Y539826D02*
D03*
X314876Y569326D02*
D03*
Y539826D02*
D03*
D94*
X499222Y83213D02*
D03*
Y110569D02*
D03*
X664723Y83213D02*
D03*
Y110569D02*
D03*
X595536Y586461D02*
D03*
Y559105D02*
D03*
X430035Y586461D02*
D03*
Y559105D02*
D03*
D95*
X503972Y83213D02*
D03*
Y110569D02*
D03*
X507972Y83213D02*
D03*
Y110569D02*
D03*
X511973Y83213D02*
D03*
Y110569D02*
D03*
X515973Y83213D02*
D03*
Y110569D02*
D03*
X519974Y83213D02*
D03*
Y110569D02*
D03*
X523971Y83213D02*
D03*
Y110569D02*
D03*
X527972Y83213D02*
D03*
Y110569D02*
D03*
X531973Y83213D02*
D03*
Y110569D02*
D03*
X535973Y83213D02*
D03*
Y110569D02*
D03*
X539973Y83213D02*
D03*
Y110569D02*
D03*
X543971Y83213D02*
D03*
Y110569D02*
D03*
X547972Y83213D02*
D03*
Y110569D02*
D03*
X551973Y83213D02*
D03*
Y110569D02*
D03*
X555973Y83213D02*
D03*
Y110569D02*
D03*
X559973Y83213D02*
D03*
Y110569D02*
D03*
X563971Y83213D02*
D03*
Y110569D02*
D03*
X567972Y83213D02*
D03*
Y110569D02*
D03*
X571972Y83213D02*
D03*
Y110569D02*
D03*
X575973Y83213D02*
D03*
Y110569D02*
D03*
X579973Y83213D02*
D03*
Y110569D02*
D03*
X583971Y83213D02*
D03*
Y110569D02*
D03*
X587972Y83213D02*
D03*
Y110569D02*
D03*
X591972Y83213D02*
D03*
Y110569D02*
D03*
X595973Y83213D02*
D03*
Y110569D02*
D03*
X599973Y83213D02*
D03*
Y110569D02*
D03*
X603971Y83213D02*
D03*
Y110569D02*
D03*
X607972Y83213D02*
D03*
Y110569D02*
D03*
X611972Y83213D02*
D03*
Y110569D02*
D03*
X615973Y83213D02*
D03*
Y110569D02*
D03*
X619973Y83213D02*
D03*
Y110569D02*
D03*
X623971Y83213D02*
D03*
Y110569D02*
D03*
X627972Y83213D02*
D03*
Y110569D02*
D03*
X631972Y83213D02*
D03*
Y110569D02*
D03*
X635973Y83213D02*
D03*
Y110569D02*
D03*
X639973Y83213D02*
D03*
Y110569D02*
D03*
X643971Y83213D02*
D03*
Y110569D02*
D03*
X647972Y83213D02*
D03*
Y110569D02*
D03*
X651972Y83213D02*
D03*
Y110569D02*
D03*
X655973Y83213D02*
D03*
Y110569D02*
D03*
X659973Y83213D02*
D03*
Y110569D02*
D03*
X590786Y586461D02*
D03*
Y559105D02*
D03*
X586786Y586461D02*
D03*
Y559105D02*
D03*
X582785Y586461D02*
D03*
Y559105D02*
D03*
X578785Y586461D02*
D03*
Y559105D02*
D03*
X574784Y586461D02*
D03*
Y559105D02*
D03*
X570786Y586461D02*
D03*
Y559105D02*
D03*
X566786Y586461D02*
D03*
Y559105D02*
D03*
X562785Y586461D02*
D03*
Y559105D02*
D03*
X558785Y586461D02*
D03*
Y559105D02*
D03*
X554784Y586461D02*
D03*
Y559105D02*
D03*
X550786Y586461D02*
D03*
Y559105D02*
D03*
X546786Y586461D02*
D03*
Y559105D02*
D03*
X542785Y586461D02*
D03*
Y559105D02*
D03*
X538785Y586461D02*
D03*
Y559105D02*
D03*
X534784Y586461D02*
D03*
Y559105D02*
D03*
X530786Y586461D02*
D03*
Y559105D02*
D03*
X526786Y586461D02*
D03*
Y559105D02*
D03*
X522785Y586461D02*
D03*
Y559105D02*
D03*
X518785Y586461D02*
D03*
Y559105D02*
D03*
X514784Y586461D02*
D03*
Y559105D02*
D03*
X510786Y586461D02*
D03*
Y559105D02*
D03*
X506786Y586461D02*
D03*
Y559105D02*
D03*
X502785Y586461D02*
D03*
Y559105D02*
D03*
X498785Y586461D02*
D03*
Y559105D02*
D03*
X494784Y586461D02*
D03*
Y559105D02*
D03*
X490786Y586461D02*
D03*
Y559105D02*
D03*
X486786Y586461D02*
D03*
Y559105D02*
D03*
X482785Y586461D02*
D03*
Y559105D02*
D03*
X478785Y586461D02*
D03*
Y559105D02*
D03*
X474784Y586461D02*
D03*
Y559105D02*
D03*
X470787Y586461D02*
D03*
Y559105D02*
D03*
X466786Y586461D02*
D03*
Y559105D02*
D03*
X462785Y586461D02*
D03*
Y559105D02*
D03*
X458785Y586461D02*
D03*
Y559105D02*
D03*
X454785Y586461D02*
D03*
Y559105D02*
D03*
X450787Y586461D02*
D03*
Y559105D02*
D03*
X446786Y586461D02*
D03*
Y559105D02*
D03*
X442785Y586461D02*
D03*
Y559105D02*
D03*
X438785Y586461D02*
D03*
Y559105D02*
D03*
X434785Y586461D02*
D03*
Y559105D02*
D03*
D96*
X169372Y169266D02*
D03*
X652729Y589006D02*
D03*
X27742Y475457D02*
D03*
M02*
