G04*
G04 #@! TF.GenerationSoftware,Altium Limited,Altium Designer,25.7.1 (20)*
G04*
G04 Layer_Color=8366762*
%FSLAX44Y44*%
%MOMM*%
G71*
G04*
G04 #@! TF.SameCoordinates,73AB98AC-F87E-4787-825B-23B2420A13CA*
G04*
G04*
G04 #@! TF.FilePolarity,Positive*
G04*
G01*
G75*
%ADD85C,0.1016*%
%ADD101C,0.0508*%
D85*
X147391Y393699D02*
Y388620D01*
Y393699D02*
X145456Y388620D01*
X143522Y393699D02*
X145456Y388620D01*
X143522Y393699D02*
Y388620D01*
X138443Y392490D02*
X138685Y392973D01*
X139168Y393457D01*
X139652Y393699D01*
X140619D01*
X141103Y393457D01*
X141587Y392973D01*
X141829Y392490D01*
X142071Y391764D01*
Y390555D01*
X141829Y389829D01*
X141587Y389346D01*
X141103Y388862D01*
X140619Y388620D01*
X139652D01*
X139168Y388862D01*
X138685Y389346D01*
X138443Y389829D01*
Y390555D01*
X139652D02*
X138443D01*
X137282Y392732D02*
X136798Y392973D01*
X136073Y393699D01*
Y388620D01*
D101*
X683564Y332199D02*
X680662D01*
X680118Y332017D01*
X679937Y331836D01*
X679755Y331473D01*
Y331110D01*
X679937Y330748D01*
X680118Y330566D01*
X680662Y330385D01*
X681025D01*
X683564Y334085D02*
X683383Y333541D01*
X683020Y333360D01*
X682657D01*
X682295Y333541D01*
X682113Y333904D01*
X681932Y334629D01*
X681750Y335174D01*
X681388Y335536D01*
X681025Y335718D01*
X680481D01*
X680118Y335536D01*
X679937Y335355D01*
X679755Y334811D01*
Y334085D01*
X679937Y333541D01*
X680118Y333360D01*
X680481Y333178D01*
X681025D01*
X681388Y333360D01*
X681750Y333722D01*
X681932Y334267D01*
X682113Y334992D01*
X682295Y335355D01*
X682657Y335536D01*
X683020D01*
X683383Y335355D01*
X683564Y334811D01*
Y334085D01*
Y337659D02*
X683383Y337114D01*
X682839Y336752D01*
X681932Y336570D01*
X681388D01*
X680481Y336752D01*
X679937Y337114D01*
X679755Y337659D01*
Y338021D01*
X679937Y338566D01*
X680481Y338928D01*
X681388Y339110D01*
X681932D01*
X682839Y338928D01*
X683383Y338566D01*
X683564Y338021D01*
Y337659D01*
Y340325D02*
Y342320D01*
X682113Y341232D01*
Y341776D01*
X681932Y342139D01*
X681750Y342320D01*
X681206Y342502D01*
X680844D01*
X680299Y342320D01*
X679937Y341958D01*
X679755Y341413D01*
Y340869D01*
X679937Y340325D01*
X680118Y340144D01*
X680481Y339962D01*
X578544Y94986D02*
Y97888D01*
X578363Y98433D01*
X578181Y98614D01*
X577819Y98795D01*
X577456D01*
X577093Y98614D01*
X576912Y98433D01*
X576730Y97888D01*
Y97526D01*
X580431Y94986D02*
X579887Y95168D01*
X579705Y95531D01*
Y95893D01*
X579887Y96256D01*
X580249Y96437D01*
X580975Y96619D01*
X581519Y96800D01*
X581882Y97163D01*
X582063Y97526D01*
Y98070D01*
X581882Y98433D01*
X581700Y98614D01*
X581156Y98795D01*
X580431D01*
X579887Y98614D01*
X579705Y98433D01*
X579524Y98070D01*
Y97526D01*
X579705Y97163D01*
X580068Y96800D01*
X580612Y96619D01*
X581338Y96437D01*
X581700Y96256D01*
X581882Y95893D01*
Y95531D01*
X581700Y95168D01*
X581156Y94986D01*
X580431D01*
X584004D02*
X583460Y95168D01*
X583097Y95712D01*
X582916Y96619D01*
Y97163D01*
X583097Y98070D01*
X583460Y98614D01*
X584004Y98795D01*
X584367D01*
X584911Y98614D01*
X585274Y98070D01*
X585455Y97163D01*
Y96619D01*
X585274Y95712D01*
X584911Y95168D01*
X584367Y94986D01*
X584004D01*
X586308Y95712D02*
X586670Y95531D01*
X587215Y94986D01*
Y98795D01*
X330459Y551148D02*
X327556D01*
X327012Y550966D01*
X326831Y550785D01*
X326650Y550422D01*
Y550059D01*
X326831Y549697D01*
X327012Y549515D01*
X327556Y549334D01*
X327919D01*
X329189Y554485D02*
X328645Y554304D01*
X328282Y553941D01*
X328101Y553397D01*
Y553216D01*
X328282Y552671D01*
X328645Y552309D01*
X329189Y552127D01*
X329370D01*
X329915Y552309D01*
X330277Y552671D01*
X330459Y553216D01*
Y553397D01*
X330277Y553941D01*
X329915Y554304D01*
X329189Y554485D01*
X328282D01*
X327375Y554304D01*
X326831Y553941D01*
X326650Y553397D01*
Y553034D01*
X326831Y552490D01*
X327194Y552309D01*
X330459Y556608D02*
X330277Y556063D01*
X329733Y555701D01*
X328826Y555519D01*
X328282D01*
X327375Y555701D01*
X326831Y556063D01*
X326650Y556608D01*
Y556970D01*
X326831Y557514D01*
X327375Y557877D01*
X328282Y558059D01*
X328826D01*
X329733Y557877D01*
X330277Y557514D01*
X330459Y556970D01*
Y556608D01*
X329733Y558911D02*
X329915Y559274D01*
X330459Y559818D01*
X326650D01*
X276246Y111915D02*
X275883Y112096D01*
X275520Y112459D01*
X275339Y112822D01*
Y113547D01*
X275520Y113910D01*
X275883Y114273D01*
X276246Y114454D01*
X276790Y114636D01*
X277697D01*
X278241Y114454D01*
X278604Y114273D01*
X278967Y113910D01*
X279148Y113547D01*
Y112822D01*
X278967Y112459D01*
X278604Y112096D01*
X278241Y111915D01*
X275339Y108305D02*
X279148Y110119D01*
X275339Y110845D02*
Y108305D01*
Y106364D02*
X275520Y106909D01*
X276064Y107271D01*
X276971Y107453D01*
X277516D01*
X278423Y107271D01*
X278967Y106909D01*
X279148Y106364D01*
Y106002D01*
X278967Y105457D01*
X278423Y105095D01*
X277516Y104913D01*
X276971D01*
X276064Y105095D01*
X275520Y105457D01*
X275339Y106002D01*
Y106364D01*
X276064Y104061D02*
X275883Y103698D01*
X275339Y103154D01*
X279148D01*
X250088Y96332D02*
X250451Y96150D01*
X250813Y95788D01*
X250995Y95425D01*
Y94699D01*
X250813Y94337D01*
X250451Y93974D01*
X250088Y93792D01*
X249544Y93611D01*
X248637D01*
X248092Y93792D01*
X247730Y93974D01*
X247367Y94337D01*
X247186Y94699D01*
Y95425D01*
X247367Y95788D01*
X247730Y96150D01*
X248092Y96332D01*
X250995Y99942D02*
X247186Y98127D01*
X250995Y97402D02*
Y99942D01*
Y101882D02*
X250813Y101338D01*
X250269Y100975D01*
X249362Y100794D01*
X248818D01*
X247911Y100975D01*
X247367Y101338D01*
X247186Y101882D01*
Y102245D01*
X247367Y102789D01*
X247911Y103152D01*
X248818Y103333D01*
X249362D01*
X250269Y103152D01*
X250813Y102789D01*
X250995Y102245D01*
Y101882D01*
Y106000D02*
X248455Y104186D01*
Y106907D01*
X250995Y106000D02*
X247186D01*
X251423Y141044D02*
X251241Y140681D01*
X250879Y140319D01*
X250516Y140137D01*
X249790D01*
X249427Y140319D01*
X249065Y140681D01*
X248883Y141044D01*
X248702Y141588D01*
Y142495D01*
X248883Y143040D01*
X249065Y143402D01*
X249427Y143765D01*
X249790Y143947D01*
X250516D01*
X250879Y143765D01*
X251241Y143402D01*
X251423Y143040D01*
X255032Y140137D02*
X253218Y143947D01*
X252493Y140137D02*
X255032D01*
X256973D02*
X256429Y140319D01*
X256066Y140863D01*
X255885Y141770D01*
Y142314D01*
X256066Y143221D01*
X256429Y143765D01*
X256973Y143947D01*
X257336D01*
X257880Y143765D01*
X258243Y143221D01*
X258424Y142314D01*
Y141770D01*
X258243Y140863D01*
X257880Y140319D01*
X257336Y140137D01*
X256973D01*
X261453Y140681D02*
X261272Y140319D01*
X260728Y140137D01*
X260365D01*
X259821Y140319D01*
X259458Y140863D01*
X259277Y141770D01*
Y142677D01*
X259458Y143402D01*
X259821Y143765D01*
X260365Y143947D01*
X260547D01*
X261091Y143765D01*
X261453Y143402D01*
X261635Y142858D01*
Y142677D01*
X261453Y142133D01*
X261091Y141770D01*
X260547Y141588D01*
X260365D01*
X259821Y141770D01*
X259458Y142133D01*
X259277Y142677D01*
X289461Y106294D02*
X289099Y106476D01*
X288736Y106838D01*
X288555Y107201D01*
Y107927D01*
X288736Y108289D01*
X289099Y108652D01*
X289461Y108834D01*
X290006Y109015D01*
X290913D01*
X291457Y108834D01*
X291820Y108652D01*
X292182Y108289D01*
X292364Y107927D01*
Y107201D01*
X292182Y106838D01*
X291820Y106476D01*
X291457Y106294D01*
X288555Y102684D02*
X292364Y104498D01*
X288555Y105224D02*
Y102684D01*
X289461Y101651D02*
X289280D01*
X288917Y101469D01*
X288736Y101288D01*
X288555Y100925D01*
Y100199D01*
X288736Y99837D01*
X288917Y99655D01*
X289280Y99474D01*
X289643D01*
X290006Y99655D01*
X290550Y100018D01*
X292364Y101832D01*
Y99292D01*
X288555Y96626D02*
X291094Y98440D01*
Y95719D01*
X288555Y96626D02*
X292364D01*
X355128Y168471D02*
Y172280D01*
Y168471D02*
X356760D01*
X357305Y168652D01*
X357486Y168834D01*
X357667Y169196D01*
Y169559D01*
X357486Y169922D01*
X357305Y170103D01*
X356760Y170285D01*
X355128D01*
X356398D02*
X357667Y172280D01*
X361059Y168471D02*
X359245Y172280D01*
X358520Y168471D02*
X361059D01*
X361912Y169196D02*
X362275Y169015D01*
X362819Y168471D01*
Y172280D01*
X364705Y169196D02*
X365068Y169015D01*
X365612Y168471D01*
Y172280D01*
X377477Y202905D02*
Y199096D01*
Y202905D02*
X375845D01*
X375300Y202724D01*
X375119Y202542D01*
X374938Y202179D01*
Y201817D01*
X375119Y201454D01*
X375300Y201272D01*
X375845Y201091D01*
X377477D01*
X376208D02*
X374938Y199096D01*
X371546Y202905D02*
X373360Y199096D01*
X374085Y202905D02*
X371546D01*
X369605D02*
X370149Y202724D01*
X370512Y202179D01*
X370693Y201272D01*
Y200728D01*
X370512Y199821D01*
X370149Y199277D01*
X369605Y199096D01*
X369242D01*
X368698Y199277D01*
X368335Y199821D01*
X368154Y200728D01*
Y201272D01*
X368335Y202179D01*
X368698Y202724D01*
X369242Y202905D01*
X369605D01*
X366394D02*
X366938Y202724D01*
X367120Y202361D01*
Y201998D01*
X366938Y201635D01*
X366576Y201454D01*
X365850Y201272D01*
X365306Y201091D01*
X364943Y200728D01*
X364762Y200366D01*
Y199821D01*
X364943Y199459D01*
X365125Y199277D01*
X365669Y199096D01*
X366394D01*
X366938Y199277D01*
X367120Y199459D01*
X367301Y199821D01*
Y200366D01*
X367120Y200728D01*
X366757Y201091D01*
X366213Y201272D01*
X365487Y201454D01*
X365125Y201635D01*
X364943Y201998D01*
Y202361D01*
X365125Y202724D01*
X365669Y202905D01*
X366394D01*
X377480Y191833D02*
Y188024D01*
Y191833D02*
X375847D01*
X375303Y191652D01*
X375122Y191470D01*
X374940Y191108D01*
Y190745D01*
X375122Y190382D01*
X375303Y190201D01*
X375847Y190019D01*
X377480D01*
X376210D02*
X374940Y188024D01*
X371548Y191833D02*
X373362Y188024D01*
X374088Y191833D02*
X371548D01*
X369607D02*
X370152Y191652D01*
X370514Y191108D01*
X370696Y190201D01*
Y189656D01*
X370514Y188750D01*
X370152Y188205D01*
X369607Y188024D01*
X369245D01*
X368700Y188205D01*
X368338Y188750D01*
X368156Y189656D01*
Y190201D01*
X368338Y191108D01*
X368700Y191652D01*
X369245Y191833D01*
X369607D01*
X364764D02*
X366578Y188024D01*
X367304Y191833D02*
X364764D01*
X519606Y397563D02*
X519787Y397925D01*
X520150Y398288D01*
X520513Y398470D01*
X521239D01*
X521601Y398288D01*
X521964Y397925D01*
X522145Y397563D01*
X522327Y397019D01*
Y396112D01*
X522145Y395568D01*
X521964Y395205D01*
X521601Y394842D01*
X521239Y394660D01*
X520513D01*
X520150Y394842D01*
X519787Y395205D01*
X519606Y395568D01*
X518536Y397744D02*
X518173Y397925D01*
X517629Y398470D01*
Y394660D01*
X515561Y397563D02*
Y397744D01*
X515380Y398107D01*
X515198Y398288D01*
X514835Y398470D01*
X514110D01*
X513747Y398288D01*
X513566Y398107D01*
X513384Y397744D01*
Y397381D01*
X513566Y397019D01*
X513928Y396474D01*
X515742Y394660D01*
X513203D01*
X510536Y398470D02*
X512350Y395930D01*
X509630D01*
X510536Y398470D02*
Y394660D01*
X501787Y377949D02*
X501968Y378312D01*
X502331Y378675D01*
X502694Y378856D01*
X503419D01*
X503782Y378675D01*
X504145Y378312D01*
X504326Y377949D01*
X504508Y377405D01*
Y376498D01*
X504326Y375954D01*
X504145Y375591D01*
X503782Y375228D01*
X503419Y375047D01*
X502694D01*
X502331Y375228D01*
X501968Y375591D01*
X501787Y375954D01*
X500717Y378130D02*
X500354Y378312D01*
X499810Y378856D01*
Y375047D01*
X497560Y378856D02*
X495565D01*
X496654Y377405D01*
X496109D01*
X495747Y377223D01*
X495565Y377042D01*
X495384Y376498D01*
Y376135D01*
X495565Y375591D01*
X495928Y375228D01*
X496472Y375047D01*
X497016D01*
X497560Y375228D01*
X497742Y375409D01*
X497923Y375772D01*
X492355Y378312D02*
X492536Y378675D01*
X493080Y378856D01*
X493443D01*
X493987Y378675D01*
X494350Y378130D01*
X494531Y377223D01*
Y376316D01*
X494350Y375591D01*
X493987Y375228D01*
X493443Y375047D01*
X493261D01*
X492717Y375228D01*
X492355Y375591D01*
X492173Y376135D01*
Y376316D01*
X492355Y376861D01*
X492717Y377223D01*
X493261Y377405D01*
X493443D01*
X493987Y377223D01*
X494350Y376861D01*
X494531Y376316D01*
X313339Y429283D02*
X313158Y428921D01*
X312795Y428558D01*
X312432Y428377D01*
X311707D01*
X311344Y428558D01*
X310981Y428921D01*
X310800Y429283D01*
X310618Y429828D01*
Y430734D01*
X310800Y431279D01*
X310981Y431642D01*
X311344Y432004D01*
X311707Y432186D01*
X312432D01*
X312795Y432004D01*
X313158Y431642D01*
X313339Y431279D01*
X314591Y429283D02*
Y429102D01*
X314772Y428739D01*
X314954Y428558D01*
X315317Y428377D01*
X316042D01*
X316405Y428558D01*
X316586Y428739D01*
X316768Y429102D01*
Y429465D01*
X316586Y429828D01*
X316223Y430372D01*
X314410Y432186D01*
X316949D01*
X318890Y428377D02*
X318346Y428558D01*
X317983Y429102D01*
X317801Y430009D01*
Y430553D01*
X317983Y431460D01*
X318346Y432004D01*
X318890Y432186D01*
X319253D01*
X319797Y432004D01*
X320160Y431460D01*
X320341Y430553D01*
Y430009D01*
X320160Y429102D01*
X319797Y428558D01*
X319253Y428377D01*
X318890D01*
X321194Y429102D02*
X321556Y428921D01*
X322100Y428377D01*
Y432186D01*
X384420Y321929D02*
X384601Y322292D01*
X384964Y322655D01*
X385327Y322836D01*
X386052D01*
X386415Y322655D01*
X386778Y322292D01*
X386959Y321929D01*
X387141Y321385D01*
Y320478D01*
X386959Y319934D01*
X386778Y319571D01*
X386415Y319208D01*
X386052Y319027D01*
X385327D01*
X384964Y319208D01*
X384601Y319571D01*
X384420Y319934D01*
X383168Y321929D02*
Y322111D01*
X382987Y322473D01*
X382805Y322655D01*
X382443Y322836D01*
X381717D01*
X381354Y322655D01*
X381173Y322473D01*
X380992Y322111D01*
Y321748D01*
X381173Y321385D01*
X381536Y320841D01*
X383350Y319027D01*
X380810D01*
X378869Y322836D02*
X379413Y322655D01*
X379776Y322111D01*
X379958Y321204D01*
Y320659D01*
X379776Y319753D01*
X379413Y319208D01*
X378869Y319027D01*
X378507D01*
X377962Y319208D01*
X377600Y319753D01*
X377418Y320659D01*
Y321204D01*
X377600Y322111D01*
X377962Y322655D01*
X378507Y322836D01*
X378869D01*
X376384Y321929D02*
Y322111D01*
X376203Y322473D01*
X376021Y322655D01*
X375659Y322836D01*
X374933D01*
X374570Y322655D01*
X374389Y322473D01*
X374208Y322111D01*
Y321748D01*
X374389Y321385D01*
X374752Y320841D01*
X376566Y319027D01*
X374026D01*
X357709Y320142D02*
X357528Y319779D01*
X357165Y319417D01*
X356802Y319235D01*
X356077D01*
X355714Y319417D01*
X355351Y319779D01*
X355169Y320142D01*
X354988Y320686D01*
Y321593D01*
X355169Y322137D01*
X355351Y322500D01*
X355714Y322863D01*
X356077Y323044D01*
X356802D01*
X357165Y322863D01*
X357528Y322500D01*
X357709Y322137D01*
X358960Y320142D02*
Y319961D01*
X359142Y319598D01*
X359323Y319417D01*
X359686Y319235D01*
X360412D01*
X360774Y319417D01*
X360956Y319598D01*
X361137Y319961D01*
Y320324D01*
X360956Y320686D01*
X360593Y321231D01*
X358779Y323044D01*
X361319D01*
X363260Y319235D02*
X362715Y319417D01*
X362352Y319961D01*
X362171Y320868D01*
Y321412D01*
X362352Y322319D01*
X362715Y322863D01*
X363260Y323044D01*
X363622D01*
X364166Y322863D01*
X364529Y322319D01*
X364711Y321412D01*
Y320868D01*
X364529Y319961D01*
X364166Y319417D01*
X363622Y319235D01*
X363260D01*
X367740Y319779D02*
X367558Y319417D01*
X367014Y319235D01*
X366651D01*
X366107Y319417D01*
X365745Y319961D01*
X365563Y320868D01*
Y321775D01*
X365745Y322500D01*
X366107Y322863D01*
X366651Y323044D01*
X366833D01*
X367377Y322863D01*
X367740Y322500D01*
X367921Y321956D01*
Y321775D01*
X367740Y321231D01*
X367377Y320868D01*
X366833Y320686D01*
X366651D01*
X366107Y320868D01*
X365745Y321231D01*
X365563Y321775D01*
X299084Y430110D02*
X299265Y430473D01*
X299628Y430836D01*
X299991Y431017D01*
X300716D01*
X301079Y430836D01*
X301442Y430473D01*
X301623Y430110D01*
X301805Y429566D01*
Y428659D01*
X301623Y428115D01*
X301442Y427752D01*
X301079Y427389D01*
X300716Y427208D01*
X299991D01*
X299628Y427389D01*
X299265Y427752D01*
X299084Y428115D01*
X297832Y430110D02*
Y430292D01*
X297651Y430654D01*
X297470Y430836D01*
X297107Y431017D01*
X296381D01*
X296018Y430836D01*
X295837Y430654D01*
X295656Y430292D01*
Y429929D01*
X295837Y429566D01*
X296200Y429022D01*
X298014Y427208D01*
X295474D01*
X294622Y430292D02*
X294259Y430473D01*
X293715Y431017D01*
Y427208D01*
X289652Y431017D02*
X291466D01*
X291647Y429385D01*
X291466Y429566D01*
X290921Y429748D01*
X290377D01*
X289833Y429566D01*
X289470Y429203D01*
X289289Y428659D01*
Y428296D01*
X289470Y427752D01*
X289833Y427389D01*
X290377Y427208D01*
X290921D01*
X291466Y427389D01*
X291647Y427571D01*
X291828Y427934D01*
X601205Y199053D02*
X601024Y198690D01*
X600661Y198327D01*
X600298Y198146D01*
X599572D01*
X599210Y198327D01*
X598847Y198690D01*
X598666Y199053D01*
X598484Y199597D01*
Y200504D01*
X598666Y201048D01*
X598847Y201411D01*
X599210Y201774D01*
X599572Y201955D01*
X600298D01*
X600661Y201774D01*
X601024Y201411D01*
X601205Y201048D01*
X604452Y198146D02*
X602638D01*
X602457Y199778D01*
X602638Y199597D01*
X603182Y199415D01*
X603726D01*
X604271Y199597D01*
X604633Y199960D01*
X604815Y200504D01*
Y200867D01*
X604633Y201411D01*
X604271Y201774D01*
X603726Y201955D01*
X603182D01*
X602638Y201774D01*
X602457Y201592D01*
X602275Y201229D01*
X606755Y198146D02*
X606211Y198327D01*
X605849Y198871D01*
X605667Y199778D01*
Y200322D01*
X605849Y201229D01*
X606211Y201774D01*
X606755Y201955D01*
X607118D01*
X607663Y201774D01*
X608025Y201229D01*
X608207Y200322D01*
Y199778D01*
X608025Y198871D01*
X607663Y198327D01*
X607118Y198146D01*
X606755D01*
X610873D02*
X609059Y200685D01*
X611780D01*
X610873Y198146D02*
Y201955D01*
X354614Y394948D02*
Y398757D01*
Y394948D02*
X356247D01*
X356791Y395129D01*
X356972Y395310D01*
X357154Y395673D01*
Y396036D01*
X356972Y396399D01*
X356791Y396580D01*
X356247Y396761D01*
X354614D01*
X355884D02*
X357154Y398757D01*
X358188Y395854D02*
Y395673D01*
X358369Y395310D01*
X358550Y395129D01*
X358913Y394948D01*
X359639D01*
X360002Y395129D01*
X360183Y395310D01*
X360364Y395673D01*
Y396036D01*
X360183Y396399D01*
X359820Y396943D01*
X358006Y398757D01*
X360546D01*
X362487Y394948D02*
X361942Y395129D01*
X361580Y395673D01*
X361398Y396580D01*
Y397124D01*
X361580Y398031D01*
X361942Y398575D01*
X362487Y398757D01*
X362849D01*
X363394Y398575D01*
X363756Y398031D01*
X363938Y397124D01*
Y396580D01*
X363756Y395673D01*
X363394Y395129D01*
X362849Y394948D01*
X362487D01*
X367330D02*
X365516Y398757D01*
X364790Y394948D02*
X367330D01*
X355870Y368074D02*
X359679D01*
X355870D02*
Y366441D01*
X356051Y365897D01*
X356232Y365716D01*
X356595Y365535D01*
X356958D01*
X357321Y365716D01*
X357502Y365897D01*
X357683Y366441D01*
Y368074D01*
Y366804D02*
X359679Y365535D01*
X356777Y364501D02*
X356595D01*
X356232Y364319D01*
X356051Y364138D01*
X355870Y363775D01*
Y363050D01*
X356051Y362687D01*
X356232Y362505D01*
X356595Y362324D01*
X356958D01*
X357321Y362505D01*
X357865Y362868D01*
X359679Y364682D01*
Y362143D01*
X355870Y360202D02*
X356051Y360746D01*
X356595Y361109D01*
X357502Y361290D01*
X358046D01*
X358953Y361109D01*
X359497Y360746D01*
X359679Y360202D01*
Y359839D01*
X359497Y359295D01*
X358953Y358932D01*
X358046Y358751D01*
X357502D01*
X356595Y358932D01*
X356051Y359295D01*
X355870Y359839D01*
Y360202D01*
Y355721D02*
Y357535D01*
X357502Y357717D01*
X357321Y357535D01*
X357139Y356991D01*
Y356447D01*
X357321Y355903D01*
X357683Y355540D01*
X358228Y355359D01*
X358591D01*
X359135Y355540D01*
X359497Y355903D01*
X359679Y356447D01*
Y356991D01*
X359497Y357535D01*
X359316Y357717D01*
X358953Y357898D01*
X354724Y375697D02*
Y379506D01*
Y375697D02*
X356356D01*
X356900Y375878D01*
X357082Y376060D01*
X357263Y376422D01*
Y376785D01*
X357082Y377148D01*
X356900Y377329D01*
X356356Y377511D01*
X354724D01*
X355993D02*
X357263Y379506D01*
X358297Y376604D02*
Y376422D01*
X358478Y376060D01*
X358660Y375878D01*
X359022Y375697D01*
X359748D01*
X360111Y375878D01*
X360292Y376060D01*
X360474Y376422D01*
Y376785D01*
X360292Y377148D01*
X359929Y377692D01*
X358116Y379506D01*
X360655D01*
X362596Y375697D02*
X362052Y375878D01*
X361689Y376422D01*
X361507Y377329D01*
Y377874D01*
X361689Y378781D01*
X362052Y379325D01*
X362596Y379506D01*
X362959D01*
X363503Y379325D01*
X363866Y378781D01*
X364047Y377874D01*
Y377329D01*
X363866Y376422D01*
X363503Y375878D01*
X362959Y375697D01*
X362596D01*
X365807D02*
X365262Y375878D01*
X365081Y376241D01*
Y376604D01*
X365262Y376967D01*
X365625Y377148D01*
X366351Y377329D01*
X366895Y377511D01*
X367258Y377874D01*
X367439Y378236D01*
Y378781D01*
X367258Y379143D01*
X367076Y379325D01*
X366532Y379506D01*
X365807D01*
X365262Y379325D01*
X365081Y379143D01*
X364899Y378781D01*
Y378236D01*
X365081Y377874D01*
X365444Y377511D01*
X365988Y377329D01*
X366713Y377148D01*
X367076Y376967D01*
X367258Y376604D01*
Y376241D01*
X367076Y375878D01*
X366532Y375697D01*
X365807D01*
X338989Y431119D02*
X339171Y431482D01*
X339534Y431844D01*
X339896Y432026D01*
X340622D01*
X340985Y431844D01*
X341348Y431482D01*
X341529Y431119D01*
X341710Y430574D01*
Y429668D01*
X341529Y429123D01*
X341348Y428761D01*
X340985Y428398D01*
X340622Y428217D01*
X339896D01*
X339534Y428398D01*
X339171Y428761D01*
X338989Y429123D01*
X337738Y431119D02*
Y431300D01*
X337556Y431663D01*
X337375Y431844D01*
X337012Y432026D01*
X336287D01*
X335924Y431844D01*
X335743Y431663D01*
X335561Y431300D01*
Y430937D01*
X335743Y430574D01*
X336105Y430030D01*
X337919Y428217D01*
X335380D01*
X333439Y432026D02*
X333983Y431844D01*
X334346Y431300D01*
X334527Y430393D01*
Y429849D01*
X334346Y428942D01*
X333983Y428398D01*
X333439Y428217D01*
X333076D01*
X332532Y428398D01*
X332169Y428942D01*
X331988Y429849D01*
Y430393D01*
X332169Y431300D01*
X332532Y431844D01*
X333076Y432026D01*
X333439D01*
X328596D02*
X330410Y428217D01*
X331135Y432026D02*
X328596D01*
X501031Y397939D02*
X501212Y398302D01*
X501575Y398664D01*
X501938Y398846D01*
X502663D01*
X503026Y398664D01*
X503389Y398302D01*
X503570Y397939D01*
X503752Y397394D01*
Y396488D01*
X503570Y395943D01*
X503389Y395581D01*
X503026Y395218D01*
X502663Y395036D01*
X501938D01*
X501575Y395218D01*
X501212Y395581D01*
X501031Y395943D01*
X499961Y398120D02*
X499598Y398302D01*
X499054Y398846D01*
Y395036D01*
X494991Y398846D02*
X496804D01*
X496986Y397213D01*
X496804Y397394D01*
X496260Y397576D01*
X495716D01*
X495172Y397394D01*
X494809Y397032D01*
X494628Y396488D01*
Y396125D01*
X494809Y395581D01*
X495172Y395218D01*
X495716Y395036D01*
X496260D01*
X496804Y395218D01*
X496986Y395399D01*
X497167Y395762D01*
X493775Y398120D02*
X493412Y398302D01*
X492868Y398846D01*
Y395036D01*
X526129Y378256D02*
X526311Y378619D01*
X526674Y378982D01*
X527036Y379163D01*
X527762D01*
X528125Y378982D01*
X528488Y378619D01*
X528669Y378256D01*
X528850Y377712D01*
Y376805D01*
X528669Y376261D01*
X528488Y375898D01*
X528125Y375535D01*
X527762Y375354D01*
X527036D01*
X526674Y375535D01*
X526311Y375898D01*
X526129Y376261D01*
X525059Y378438D02*
X524697Y378619D01*
X524152Y379163D01*
Y375354D01*
X521177Y379163D02*
X521722Y378982D01*
X522085Y378438D01*
X522266Y377531D01*
Y376987D01*
X522085Y376079D01*
X521722Y375535D01*
X521177Y375354D01*
X520815D01*
X520271Y375535D01*
X519908Y376079D01*
X519726Y376987D01*
Y377531D01*
X519908Y378438D01*
X520271Y378982D01*
X520815Y379163D01*
X521177D01*
X517967D02*
X518511Y378982D01*
X518693Y378619D01*
Y378256D01*
X518511Y377893D01*
X518148Y377712D01*
X517423Y377531D01*
X516879Y377349D01*
X516516Y376987D01*
X516334Y376624D01*
Y376079D01*
X516516Y375717D01*
X516697Y375535D01*
X517241Y375354D01*
X517967D01*
X518511Y375535D01*
X518693Y375717D01*
X518874Y376079D01*
Y376624D01*
X518693Y376987D01*
X518330Y377349D01*
X517785Y377531D01*
X517060Y377712D01*
X516697Y377893D01*
X516516Y378256D01*
Y378619D01*
X516697Y378982D01*
X517241Y379163D01*
X517967D01*
X546466Y535956D02*
X546104Y536138D01*
X545741Y536500D01*
X545559Y536863D01*
Y537589D01*
X545741Y537952D01*
X546104Y538314D01*
X546466Y538496D01*
X547010Y538677D01*
X547917D01*
X548462Y538496D01*
X548824Y538314D01*
X549187Y537952D01*
X549369Y537589D01*
Y536863D01*
X549187Y536500D01*
X548824Y536138D01*
X548462Y535956D01*
X545559Y533072D02*
X548099Y534886D01*
Y532165D01*
X545559Y533072D02*
X549369D01*
X545559Y530406D02*
X545741Y530950D01*
X546285Y531313D01*
X547192Y531494D01*
X547736D01*
X548643Y531313D01*
X549187Y530950D01*
X549369Y530406D01*
Y530043D01*
X549187Y529499D01*
X548643Y529136D01*
X547736Y528955D01*
X547192D01*
X546285Y529136D01*
X545741Y529499D01*
X545559Y530043D01*
Y530406D01*
Y525925D02*
Y527739D01*
X547192Y527921D01*
X547010Y527739D01*
X546829Y527195D01*
Y526651D01*
X547010Y526107D01*
X547373Y525744D01*
X547917Y525563D01*
X548280D01*
X548824Y525744D01*
X549187Y526107D01*
X549369Y526651D01*
Y527195D01*
X549187Y527739D01*
X549006Y527921D01*
X548643Y528102D01*
X371385Y426710D02*
Y430519D01*
Y426710D02*
X373018D01*
X373562Y426892D01*
X373744Y427073D01*
X373925Y427436D01*
Y427799D01*
X373744Y428161D01*
X373562Y428343D01*
X373018Y428524D01*
X371385D01*
X372655D02*
X373925Y430519D01*
X374959Y427617D02*
Y427436D01*
X375140Y427073D01*
X375322Y426892D01*
X375685Y426710D01*
X376410D01*
X376773Y426892D01*
X376954Y427073D01*
X377136Y427436D01*
Y427799D01*
X376954Y428161D01*
X376591Y428705D01*
X374777Y430519D01*
X377317D01*
X378170Y427436D02*
X378532Y427254D01*
X379076Y426710D01*
Y430519D01*
X382051Y426710D02*
X381507Y426892D01*
X381144Y427436D01*
X380963Y428343D01*
Y428887D01*
X381144Y429794D01*
X381507Y430338D01*
X382051Y430519D01*
X382414D01*
X382958Y430338D01*
X383321Y429794D01*
X383502Y428887D01*
Y428343D01*
X383321Y427436D01*
X382958Y426892D01*
X382414Y426710D01*
X382051D01*
X490463Y436298D02*
Y432489D01*
Y436298D02*
X488831D01*
X488287Y436117D01*
X488105Y435935D01*
X487924Y435572D01*
Y435210D01*
X488105Y434847D01*
X488287Y434665D01*
X488831Y434484D01*
X490463D01*
X489193D02*
X487924Y432489D01*
X486890Y435391D02*
Y435572D01*
X486708Y435935D01*
X486527Y436117D01*
X486164Y436298D01*
X485439D01*
X485076Y436117D01*
X484895Y435935D01*
X484713Y435572D01*
Y435210D01*
X484895Y434847D01*
X485257Y434303D01*
X487071Y432489D01*
X484532D01*
X482591Y436298D02*
X483135Y436117D01*
X483498Y435572D01*
X483679Y434665D01*
Y434121D01*
X483498Y433214D01*
X483135Y432670D01*
X482591Y432489D01*
X482228D01*
X481684Y432670D01*
X481321Y433214D01*
X481140Y434121D01*
Y434665D01*
X481321Y435572D01*
X481684Y436117D01*
X482228Y436298D01*
X482591D01*
X478473D02*
X480287Y433759D01*
X477566D01*
X478473Y436298D02*
Y432489D01*
X560334Y525699D02*
X556525D01*
X560334D02*
Y527332D01*
X560152Y527876D01*
X559971Y528057D01*
X559608Y528239D01*
X559245D01*
X558883Y528057D01*
X558701Y527876D01*
X558520Y527332D01*
Y525699D01*
Y526969D02*
X556525Y528239D01*
X560334Y530905D02*
X557794Y529091D01*
Y531812D01*
X560334Y530905D02*
X556525D01*
X560334Y533572D02*
X560152Y533027D01*
X559608Y532665D01*
X558701Y532483D01*
X558157D01*
X557250Y532665D01*
X556706Y533027D01*
X556525Y533572D01*
Y533935D01*
X556706Y534479D01*
X557250Y534841D01*
X558157Y535023D01*
X558701D01*
X559608Y534841D01*
X560152Y534479D01*
X560334Y533935D01*
Y533572D01*
Y537689D02*
X557794Y535875D01*
Y538596D01*
X560334Y537689D02*
X556525D01*
X329434Y334958D02*
Y338767D01*
Y334958D02*
X331066D01*
X331610Y335139D01*
X331792Y335321D01*
X331973Y335683D01*
Y336046D01*
X331792Y336409D01*
X331610Y336590D01*
X331066Y336772D01*
X329434D01*
X330703D02*
X331973Y338767D01*
X333007Y335865D02*
Y335683D01*
X333189Y335321D01*
X333370Y335139D01*
X333733Y334958D01*
X334458D01*
X334821Y335139D01*
X335002Y335321D01*
X335184Y335683D01*
Y336046D01*
X335002Y336409D01*
X334640Y336953D01*
X332826Y338767D01*
X335365D01*
X337306Y334958D02*
X336762Y335139D01*
X336399Y335683D01*
X336218Y336590D01*
Y337135D01*
X336399Y338041D01*
X336762Y338586D01*
X337306Y338767D01*
X337669D01*
X338213Y338586D01*
X338576Y338041D01*
X338757Y337135D01*
Y336590D01*
X338576Y335683D01*
X338213Y335139D01*
X337669Y334958D01*
X337306D01*
X339610Y335683D02*
X339972Y335502D01*
X340517Y334958D01*
Y338767D01*
X587052Y525711D02*
X583243D01*
X587052D02*
Y527344D01*
X586871Y527888D01*
X586689Y528069D01*
X586326Y528251D01*
X585964D01*
X585601Y528069D01*
X585420Y527888D01*
X585238Y527344D01*
Y525711D01*
Y526981D02*
X583243Y528251D01*
X587052Y530917D02*
X584512Y529103D01*
Y531824D01*
X587052Y530917D02*
X583243D01*
X587052Y533584D02*
X586871Y533040D01*
X586326Y532677D01*
X585420Y532495D01*
X584875D01*
X583968Y532677D01*
X583424Y533040D01*
X583243Y533584D01*
Y533946D01*
X583424Y534491D01*
X583968Y534853D01*
X584875Y535035D01*
X585420D01*
X586326Y534853D01*
X586871Y534491D01*
X587052Y533946D01*
Y533584D01*
Y538064D02*
Y536250D01*
X585420Y536069D01*
X585601Y536250D01*
X585782Y536794D01*
Y537338D01*
X585601Y537883D01*
X585238Y538245D01*
X584694Y538427D01*
X584331D01*
X583787Y538245D01*
X583424Y537883D01*
X583243Y537338D01*
Y536794D01*
X583424Y536250D01*
X583606Y536069D01*
X583968Y535887D01*
X571185Y526688D02*
X567375D01*
X571185D02*
Y528320D01*
X571003Y528864D01*
X570822Y529046D01*
X570459Y529227D01*
X570096D01*
X569734Y529046D01*
X569552Y528864D01*
X569371Y528320D01*
Y526688D01*
Y527957D02*
X567375Y529227D01*
X571185Y531894D02*
X568645Y530080D01*
Y532800D01*
X571185Y531894D02*
X567375D01*
X571185Y534560D02*
X571003Y534016D01*
X570459Y533653D01*
X569552Y533472D01*
X569008D01*
X568101Y533653D01*
X567557Y534016D01*
X567375Y534560D01*
Y534923D01*
X567557Y535467D01*
X568101Y535830D01*
X569008Y536011D01*
X569552D01*
X570459Y535830D01*
X571003Y535467D01*
X571185Y534923D01*
Y534560D01*
X570459Y536864D02*
X570640Y537226D01*
X571185Y537771D01*
X567375D01*
X77114Y345908D02*
X73305D01*
X77114D02*
Y347540D01*
X76933Y348084D01*
X76751Y348266D01*
X76388Y348447D01*
X76026D01*
X75663Y348266D01*
X75482Y348084D01*
X75300Y347540D01*
Y345908D01*
Y347177D02*
X73305Y348447D01*
X76388Y349300D02*
X76570Y349662D01*
X77114Y350206D01*
X73305D01*
X77114Y353181D02*
X76933Y352637D01*
X76388Y352274D01*
X75482Y352093D01*
X74937D01*
X74030Y352274D01*
X73486Y352637D01*
X73305Y353181D01*
Y353544D01*
X73486Y354088D01*
X74030Y354451D01*
X74937Y354632D01*
X75482D01*
X76388Y354451D01*
X76933Y354088D01*
X77114Y353544D01*
Y353181D01*
Y357299D02*
X74574Y355485D01*
Y358206D01*
X77114Y357299D02*
X73305D01*
X76207Y359058D02*
X76388D01*
X76751Y359240D01*
X76933Y359421D01*
X77114Y359784D01*
Y360509D01*
X76933Y360872D01*
X76751Y361054D01*
X76388Y361235D01*
X76026D01*
X75663Y361054D01*
X75119Y360691D01*
X73305Y358877D01*
Y361416D01*
X66324Y346281D02*
X62515D01*
X66324D02*
Y347914D01*
X66143Y348458D01*
X65961Y348639D01*
X65599Y348820D01*
X65236D01*
X64873Y348639D01*
X64692Y348458D01*
X64510Y347914D01*
Y346281D01*
Y347551D02*
X62515Y348820D01*
X65599Y349673D02*
X65780Y350036D01*
X66324Y350580D01*
X62515D01*
X66324Y353555D02*
X66143Y353010D01*
X65599Y352648D01*
X64692Y352466D01*
X64147D01*
X63240Y352648D01*
X62696Y353010D01*
X62515Y353555D01*
Y353918D01*
X62696Y354462D01*
X63240Y354824D01*
X64147Y355006D01*
X64692D01*
X65599Y354824D01*
X66143Y354462D01*
X66324Y353918D01*
Y353555D01*
Y357672D02*
X63785Y355858D01*
Y358579D01*
X66324Y357672D02*
X62515D01*
X66324Y359613D02*
Y361608D01*
X64873Y360520D01*
Y361064D01*
X64692Y361427D01*
X64510Y361608D01*
X63966Y361790D01*
X63603D01*
X63059Y361608D01*
X62696Y361246D01*
X62515Y360701D01*
Y360157D01*
X62696Y359613D01*
X62878Y359432D01*
X63240Y359250D01*
X98933Y392398D02*
X95123D01*
X98933D02*
Y394030D01*
X98751Y394575D01*
X98570Y394756D01*
X98207Y394937D01*
X97844D01*
X97481Y394756D01*
X97300Y394575D01*
X97119Y394030D01*
Y392398D01*
Y393668D02*
X95123Y394937D01*
X98207Y395790D02*
X98388Y396153D01*
X98933Y396697D01*
X95123D01*
X98933Y399672D02*
X98751Y399128D01*
X98207Y398765D01*
X97300Y398583D01*
X96756D01*
X95849Y398765D01*
X95305Y399128D01*
X95123Y399672D01*
Y400034D01*
X95305Y400579D01*
X95849Y400941D01*
X96756Y401123D01*
X97300D01*
X98207Y400941D01*
X98751Y400579D01*
X98933Y400034D01*
Y399672D01*
Y403789D02*
X96393Y401975D01*
Y404696D01*
X98933Y403789D02*
X95123D01*
X98933Y407181D02*
X96393Y405367D01*
Y408088D01*
X98933Y407181D02*
X95123D01*
X86062Y392918D02*
X82253D01*
X86062D02*
Y394550D01*
X85881Y395095D01*
X85700Y395276D01*
X85337Y395457D01*
X84974D01*
X84611Y395276D01*
X84430Y395095D01*
X84249Y394550D01*
Y392918D01*
Y394188D02*
X82253Y395457D01*
X85337Y396310D02*
X85518Y396673D01*
X86062Y397217D01*
X82253D01*
X86062Y400192D02*
X85881Y399647D01*
X85337Y399285D01*
X84430Y399103D01*
X83886D01*
X82979Y399285D01*
X82435Y399647D01*
X82253Y400192D01*
Y400554D01*
X82435Y401099D01*
X82979Y401461D01*
X83886Y401643D01*
X84430D01*
X85337Y401461D01*
X85881Y401099D01*
X86062Y400554D01*
Y400192D01*
Y404309D02*
X83523Y402495D01*
Y405216D01*
X86062Y404309D02*
X82253D01*
X86062Y408064D02*
Y406250D01*
X84430Y406069D01*
X84611Y406250D01*
X84793Y406794D01*
Y407338D01*
X84611Y407882D01*
X84249Y408245D01*
X83704Y408427D01*
X83342D01*
X82797Y408245D01*
X82435Y407882D01*
X82253Y407338D01*
Y406794D01*
X82435Y406250D01*
X82616Y406069D01*
X82979Y405887D01*
X311959Y136536D02*
X311777Y136173D01*
X311414Y135810D01*
X311052Y135629D01*
X310326D01*
X309963Y135810D01*
X309601Y136173D01*
X309419Y136536D01*
X309238Y137080D01*
Y137987D01*
X309419Y138531D01*
X309601Y138894D01*
X309963Y139257D01*
X310326Y139438D01*
X311052D01*
X311414Y139257D01*
X311777Y138894D01*
X311959Y138531D01*
X315568Y135629D02*
X313754Y139438D01*
X313029Y135629D02*
X315568D01*
X317509D02*
X316965Y135810D01*
X316602Y136354D01*
X316421Y137261D01*
Y137806D01*
X316602Y138713D01*
X316965Y139257D01*
X317509Y139438D01*
X317872D01*
X318416Y139257D01*
X318779Y138713D01*
X318960Y137806D01*
Y137261D01*
X318779Y136354D01*
X318416Y135810D01*
X317872Y135629D01*
X317509D01*
X322171Y136899D02*
X321990Y137443D01*
X321627Y137806D01*
X321082Y137987D01*
X320901D01*
X320357Y137806D01*
X319994Y137443D01*
X319813Y136899D01*
Y136717D01*
X319994Y136173D01*
X320357Y135810D01*
X320901Y135629D01*
X321082D01*
X321627Y135810D01*
X321990Y136173D01*
X322171Y136899D01*
Y137806D01*
X321990Y138713D01*
X321627Y139257D01*
X321082Y139438D01*
X320720D01*
X320176Y139257D01*
X319994Y138894D01*
X312370Y121387D02*
X312189Y121024D01*
X311826Y120662D01*
X311463Y120480D01*
X310738D01*
X310375Y120662D01*
X310012Y121024D01*
X309831Y121387D01*
X309650Y121931D01*
Y122838D01*
X309831Y123383D01*
X310012Y123745D01*
X310375Y124108D01*
X310738Y124290D01*
X311463D01*
X311826Y124108D01*
X312189Y123745D01*
X312370Y123383D01*
X315980Y120480D02*
X314166Y124290D01*
X313441Y120480D02*
X315980D01*
X316833Y121206D02*
X317195Y121024D01*
X317740Y120480D01*
Y124290D01*
X319807Y121387D02*
Y121206D01*
X319989Y120843D01*
X320170Y120662D01*
X320533Y120480D01*
X321259D01*
X321621Y120662D01*
X321803Y120843D01*
X321984Y121206D01*
Y121569D01*
X321803Y121931D01*
X321440Y122476D01*
X319626Y124290D01*
X322165D01*
X304624Y159983D02*
X304987Y159802D01*
X305350Y159439D01*
X305531Y159076D01*
Y158351D01*
X305350Y157988D01*
X304987Y157625D01*
X304624Y157444D01*
X304080Y157262D01*
X303173D01*
X302629Y157444D01*
X302266Y157625D01*
X301903Y157988D01*
X301722Y158351D01*
Y159076D01*
X301903Y159439D01*
X302266Y159802D01*
X302629Y159983D01*
X305531Y163593D02*
X301722Y161779D01*
X305531Y161053D02*
Y163593D01*
X304806Y164445D02*
X304987Y164808D01*
X305531Y165352D01*
X301722D01*
X305531Y167601D02*
Y169597D01*
X304080Y168508D01*
Y169053D01*
X303899Y169415D01*
X303717Y169597D01*
X303173Y169778D01*
X302810D01*
X302266Y169597D01*
X301903Y169234D01*
X301722Y168690D01*
Y168146D01*
X301903Y167601D01*
X302085Y167420D01*
X302447Y167239D01*
X289925Y159915D02*
X290288Y159733D01*
X290651Y159370D01*
X290832Y159008D01*
Y158282D01*
X290651Y157919D01*
X290288Y157556D01*
X289925Y157375D01*
X289381Y157194D01*
X288474D01*
X287930Y157375D01*
X287567Y157556D01*
X287204Y157919D01*
X287023Y158282D01*
Y159008D01*
X287204Y159370D01*
X287567Y159733D01*
X287930Y159915D01*
X290832Y163524D02*
X287023Y161710D01*
X290832Y160985D02*
Y163524D01*
X290107Y164377D02*
X290288Y164739D01*
X290832Y165284D01*
X287023D01*
X290832Y168077D02*
X290651Y167533D01*
X290288Y167351D01*
X289925D01*
X289562Y167533D01*
X289381Y167896D01*
X289200Y168621D01*
X289018Y169165D01*
X288655Y169528D01*
X288293Y169709D01*
X287749D01*
X287386Y169528D01*
X287204Y169347D01*
X287023Y168803D01*
Y168077D01*
X287204Y167533D01*
X287386Y167351D01*
X287749Y167170D01*
X288293D01*
X288655Y167351D01*
X289018Y167714D01*
X289200Y168258D01*
X289381Y168984D01*
X289562Y169347D01*
X289925Y169528D01*
X290288D01*
X290651Y169347D01*
X290832Y168803D01*
Y168077D01*
X275086Y160383D02*
X275449Y160202D01*
X275812Y159839D01*
X275993Y159476D01*
Y158751D01*
X275812Y158388D01*
X275449Y158025D01*
X275086Y157844D01*
X274542Y157662D01*
X273635D01*
X273091Y157844D01*
X272729Y158025D01*
X272366Y158388D01*
X272184Y158751D01*
Y159476D01*
X272366Y159839D01*
X272729Y160202D01*
X273091Y160383D01*
X275993Y163993D02*
X272184Y162179D01*
X275993Y161453D02*
Y163993D01*
X275086Y165027D02*
X275268D01*
X275631Y165208D01*
X275812Y165389D01*
X275993Y165752D01*
Y166478D01*
X275812Y166841D01*
X275631Y167022D01*
X275268Y167203D01*
X274905D01*
X274542Y167022D01*
X273998Y166659D01*
X272184Y164845D01*
Y167385D01*
X275268Y168237D02*
X275449Y168600D01*
X275993Y169144D01*
X272184D01*
X261334Y112734D02*
X260971Y112915D01*
X260608Y113278D01*
X260427Y113641D01*
Y114366D01*
X260608Y114729D01*
X260971Y115092D01*
X261334Y115273D01*
X261878Y115455D01*
X262785D01*
X263329Y115273D01*
X263692Y115092D01*
X264054Y114729D01*
X264236Y114366D01*
Y113641D01*
X264054Y113278D01*
X263692Y112915D01*
X263329Y112734D01*
X260427Y109124D02*
X264236Y110938D01*
X260427Y111664D02*
Y109124D01*
Y107183D02*
X260608Y107727D01*
X261152Y108090D01*
X262059Y108272D01*
X262603D01*
X263510Y108090D01*
X264054Y107727D01*
X264236Y107183D01*
Y106820D01*
X264054Y106276D01*
X263510Y105913D01*
X262603Y105732D01*
X262059D01*
X261152Y105913D01*
X260608Y106276D01*
X260427Y106820D01*
Y107183D01*
X261334Y104698D02*
X261152D01*
X260789Y104517D01*
X260608Y104335D01*
X260427Y103973D01*
Y103247D01*
X260608Y102884D01*
X260789Y102703D01*
X261152Y102521D01*
X261515D01*
X261878Y102703D01*
X262422Y103066D01*
X264236Y104880D01*
Y102340D01*
X258024Y166778D02*
X257661Y166959D01*
X257298Y167322D01*
X257117Y167685D01*
Y168411D01*
X257298Y168773D01*
X257661Y169136D01*
X258024Y169318D01*
X258568Y169499D01*
X259475D01*
X260019Y169318D01*
X260382Y169136D01*
X260745Y168773D01*
X260926Y168411D01*
Y167685D01*
X260745Y167322D01*
X260382Y166959D01*
X260019Y166778D01*
X257117Y163169D02*
X260926Y164982D01*
X257117Y165708D02*
Y163169D01*
X258024Y162134D02*
X257843D01*
X257480Y161953D01*
X257298Y161772D01*
X257117Y161409D01*
Y160683D01*
X257298Y160321D01*
X257480Y160139D01*
X257843Y159958D01*
X258205D01*
X258568Y160139D01*
X259112Y160502D01*
X260926Y162316D01*
Y159776D01*
X257661Y156747D02*
X257298Y156929D01*
X257117Y157473D01*
Y157836D01*
X257298Y158380D01*
X257843Y158743D01*
X258750Y158924D01*
X259657D01*
X260382Y158743D01*
X260745Y158380D01*
X260926Y157836D01*
Y157654D01*
X260745Y157110D01*
X260382Y156747D01*
X259838Y156566D01*
X259657D01*
X259112Y156747D01*
X258750Y157110D01*
X258568Y157654D01*
Y157836D01*
X258750Y158380D01*
X259112Y158743D01*
X259657Y158924D01*
X559614Y213716D02*
X559433Y213353D01*
X559070Y212991D01*
X558707Y212809D01*
X557982D01*
X557619Y212991D01*
X557256Y213353D01*
X557075Y213716D01*
X556894Y214260D01*
Y215167D01*
X557075Y215711D01*
X557256Y216074D01*
X557619Y216437D01*
X557982Y216618D01*
X558707D01*
X559070Y216437D01*
X559433Y216074D01*
X559614Y215711D01*
X562861Y212809D02*
X561047D01*
X560866Y214442D01*
X561047Y214260D01*
X561592Y214079D01*
X562136D01*
X562680Y214260D01*
X563043Y214623D01*
X563224Y215167D01*
Y215530D01*
X563043Y216074D01*
X562680Y216437D01*
X562136Y216618D01*
X561592D01*
X561047Y216437D01*
X560866Y216256D01*
X560685Y215893D01*
X565165Y212809D02*
X564621Y212991D01*
X564258Y213535D01*
X564077Y214442D01*
Y214986D01*
X564258Y215893D01*
X564621Y216437D01*
X565165Y216618D01*
X565528D01*
X566072Y216437D01*
X566435Y215893D01*
X566616Y214986D01*
Y214442D01*
X566435Y213535D01*
X566072Y212991D01*
X565528Y212809D01*
X565165D01*
X570008D02*
X568194Y216618D01*
X567469Y212809D02*
X570008D01*
X544876Y205556D02*
X544514Y205738D01*
X544151Y206101D01*
X543969Y206463D01*
Y207189D01*
X544151Y207552D01*
X544514Y207914D01*
X544876Y208096D01*
X545420Y208277D01*
X546327D01*
X546872Y208096D01*
X547234Y207914D01*
X547597Y207552D01*
X547779Y207189D01*
Y206463D01*
X547597Y206101D01*
X547234Y205738D01*
X546872Y205556D01*
X543969Y202309D02*
Y204123D01*
X545602Y204305D01*
X545420Y204123D01*
X545239Y203579D01*
Y203035D01*
X545420Y202491D01*
X545783Y202128D01*
X546327Y201947D01*
X546690D01*
X547234Y202128D01*
X547597Y202491D01*
X547779Y203035D01*
Y203579D01*
X547597Y204123D01*
X547416Y204305D01*
X547053Y204486D01*
X543969Y200006D02*
X544151Y200550D01*
X544695Y200913D01*
X545602Y201094D01*
X546146D01*
X547053Y200913D01*
X547597Y200550D01*
X547779Y200006D01*
Y199643D01*
X547597Y199099D01*
X547053Y198736D01*
X546146Y198555D01*
X545602D01*
X544695Y198736D01*
X544151Y199099D01*
X543969Y199643D01*
Y200006D01*
X544514Y195525D02*
X544151Y195707D01*
X543969Y196251D01*
Y196614D01*
X544151Y197158D01*
X544695Y197521D01*
X545602Y197702D01*
X546509D01*
X547234Y197521D01*
X547597Y197158D01*
X547779Y196614D01*
Y196432D01*
X547597Y195888D01*
X547234Y195525D01*
X546690Y195344D01*
X546509D01*
X545965Y195525D01*
X545602Y195888D01*
X545420Y196432D01*
Y196614D01*
X545602Y197158D01*
X545965Y197521D01*
X546509Y197702D01*
X544955Y216221D02*
X544592Y216402D01*
X544229Y216765D01*
X544048Y217128D01*
Y217854D01*
X544229Y218216D01*
X544592Y218579D01*
X544955Y218761D01*
X545499Y218942D01*
X546406D01*
X546950Y218761D01*
X547313Y218579D01*
X547676Y218216D01*
X547857Y217854D01*
Y217128D01*
X547676Y216765D01*
X547313Y216402D01*
X546950Y216221D01*
X544048Y212974D02*
Y214788D01*
X545681Y214969D01*
X545499Y214788D01*
X545318Y214244D01*
Y213700D01*
X545499Y213155D01*
X545862Y212793D01*
X546406Y212611D01*
X546769D01*
X547313Y212793D01*
X547676Y213155D01*
X547857Y213700D01*
Y214244D01*
X547676Y214788D01*
X547495Y214969D01*
X547132Y215151D01*
X544048Y210671D02*
X544229Y211215D01*
X544774Y211577D01*
X545681Y211759D01*
X546225D01*
X547132Y211577D01*
X547676Y211215D01*
X547857Y210671D01*
Y210308D01*
X547676Y209764D01*
X547132Y209401D01*
X546225Y209219D01*
X545681D01*
X544774Y209401D01*
X544229Y209764D01*
X544048Y210308D01*
Y210671D01*
Y206190D02*
Y208004D01*
X545681Y208185D01*
X545499Y208004D01*
X545318Y207460D01*
Y206916D01*
X545499Y206371D01*
X545862Y206009D01*
X546406Y205827D01*
X546769D01*
X547313Y206009D01*
X547676Y206371D01*
X547857Y206916D01*
Y207460D01*
X547676Y208004D01*
X547495Y208185D01*
X547132Y208367D01*
X556242Y183814D02*
X556604Y183632D01*
X556967Y183270D01*
X557149Y182907D01*
Y182181D01*
X556967Y181818D01*
X556604Y181456D01*
X556242Y181274D01*
X555698Y181093D01*
X554791D01*
X554246Y181274D01*
X553884Y181456D01*
X553521Y181818D01*
X553339Y182181D01*
Y182907D01*
X553521Y183270D01*
X553884Y183632D01*
X554246Y183814D01*
X557149Y187061D02*
Y185247D01*
X555516Y185065D01*
X555698Y185247D01*
X555879Y185791D01*
Y186335D01*
X555698Y186879D01*
X555335Y187242D01*
X554791Y187423D01*
X554428D01*
X553884Y187242D01*
X553521Y186879D01*
X553339Y186335D01*
Y185791D01*
X553521Y185247D01*
X553702Y185065D01*
X554065Y184884D01*
X557149Y189364D02*
X556967Y188820D01*
X556423Y188457D01*
X555516Y188276D01*
X554972D01*
X554065Y188457D01*
X553521Y188820D01*
X553339Y189364D01*
Y189727D01*
X553521Y190271D01*
X554065Y190634D01*
X554972Y190815D01*
X555516D01*
X556423Y190634D01*
X556967Y190271D01*
X557149Y189727D01*
Y189364D01*
Y192031D02*
Y194026D01*
X555698Y192938D01*
Y193482D01*
X555516Y193845D01*
X555335Y194026D01*
X554791Y194207D01*
X554428D01*
X553884Y194026D01*
X553521Y193663D01*
X553339Y193119D01*
Y192575D01*
X553521Y192031D01*
X553702Y191849D01*
X554065Y191668D01*
X586449Y205805D02*
X586630Y206168D01*
X586993Y206531D01*
X587356Y206712D01*
X588081D01*
X588444Y206531D01*
X588807Y206168D01*
X588988Y205805D01*
X589170Y205261D01*
Y204354D01*
X588988Y203810D01*
X588807Y203447D01*
X588444Y203085D01*
X588081Y202903D01*
X587356D01*
X586993Y203085D01*
X586630Y203447D01*
X586449Y203810D01*
X583202Y206712D02*
X585016D01*
X585197Y205080D01*
X585016Y205261D01*
X584472Y205443D01*
X583927D01*
X583383Y205261D01*
X583021Y204898D01*
X582839Y204354D01*
Y203992D01*
X583021Y203447D01*
X583383Y203085D01*
X583927Y202903D01*
X584472D01*
X585016Y203085D01*
X585197Y203266D01*
X585379Y203629D01*
X580898Y206712D02*
X581442Y206531D01*
X581805Y205987D01*
X581987Y205080D01*
Y204536D01*
X581805Y203629D01*
X581442Y203085D01*
X580898Y202903D01*
X580536D01*
X579991Y203085D01*
X579629Y203629D01*
X579447Y204536D01*
Y205080D01*
X579629Y205987D01*
X579991Y206531D01*
X580536Y206712D01*
X580898D01*
X578413Y205805D02*
Y205987D01*
X578232Y206350D01*
X578050Y206531D01*
X577688Y206712D01*
X576962D01*
X576599Y206531D01*
X576418Y206350D01*
X576237Y205987D01*
Y205624D01*
X576418Y205261D01*
X576781Y204717D01*
X578595Y202903D01*
X576055D01*
X527722Y434657D02*
X527903Y435020D01*
X528266Y435382D01*
X528629Y435564D01*
X529354D01*
X529717Y435382D01*
X530080Y435020D01*
X530261Y434657D01*
X530443Y434113D01*
Y433206D01*
X530261Y432662D01*
X530080Y432299D01*
X529717Y431936D01*
X529354Y431755D01*
X528629D01*
X528266Y431936D01*
X527903Y432299D01*
X527722Y432662D01*
X526652Y434838D02*
X526289Y435020D01*
X525745Y435564D01*
Y431755D01*
X521682Y435564D02*
X523495D01*
X523677Y433931D01*
X523495Y434113D01*
X522951Y434294D01*
X522407D01*
X521863Y434113D01*
X521500Y433750D01*
X521319Y433206D01*
Y432843D01*
X521500Y432299D01*
X521863Y431936D01*
X522407Y431755D01*
X522951D01*
X523495Y431936D01*
X523677Y432117D01*
X523858Y432480D01*
X518290Y435564D02*
X520104D01*
X520285Y433931D01*
X520104Y434113D01*
X519559Y434294D01*
X519015D01*
X518471Y434113D01*
X518108Y433750D01*
X517927Y433206D01*
Y432843D01*
X518108Y432299D01*
X518471Y431936D01*
X519015Y431755D01*
X519559D01*
X520104Y431936D01*
X520285Y432117D01*
X520466Y432480D01*
X563059Y415570D02*
X563422Y415388D01*
X563784Y415026D01*
X563966Y414663D01*
Y413937D01*
X563784Y413574D01*
X563422Y413212D01*
X563059Y413030D01*
X562515Y412849D01*
X561608D01*
X561064Y413030D01*
X560701Y413212D01*
X560338Y413574D01*
X560157Y413937D01*
Y414663D01*
X560338Y415026D01*
X560701Y415388D01*
X561064Y415570D01*
X563240Y416640D02*
X563422Y417003D01*
X563966Y417547D01*
X560157D01*
X563966Y421247D02*
X561427Y419433D01*
Y422154D01*
X563966Y421247D02*
X560157D01*
X562696Y425183D02*
X562152Y425002D01*
X561789Y424639D01*
X561608Y424095D01*
Y423914D01*
X561789Y423369D01*
X562152Y423007D01*
X562696Y422825D01*
X562878D01*
X563422Y423007D01*
X563784Y423369D01*
X563966Y423914D01*
Y424095D01*
X563784Y424639D01*
X563422Y425002D01*
X562696Y425183D01*
X561789D01*
X560882Y425002D01*
X560338Y424639D01*
X560157Y424095D01*
Y423732D01*
X560338Y423188D01*
X560701Y423007D01*
X553978Y405583D02*
X553796Y405220D01*
X553433Y404857D01*
X553071Y404676D01*
X552345D01*
X551982Y404857D01*
X551620Y405220D01*
X551438Y405583D01*
X551257Y406127D01*
Y407034D01*
X551438Y407578D01*
X551620Y407941D01*
X551982Y408304D01*
X552345Y408485D01*
X553071D01*
X553433Y408304D01*
X553796Y407941D01*
X553978Y407578D01*
X555048Y405401D02*
X555411Y405220D01*
X555955Y404676D01*
Y408485D01*
X559655Y404676D02*
X557841Y407215D01*
X560562D01*
X559655Y404676D02*
Y408485D01*
X562140Y404676D02*
X561596Y404857D01*
X561415Y405220D01*
Y405583D01*
X561596Y405946D01*
X561959Y406127D01*
X562684Y406308D01*
X563229Y406490D01*
X563591Y406852D01*
X563773Y407215D01*
Y407759D01*
X563591Y408122D01*
X563410Y408304D01*
X562866Y408485D01*
X562140D01*
X561596Y408304D01*
X561415Y408122D01*
X561233Y407759D01*
Y407215D01*
X561415Y406852D01*
X561777Y406490D01*
X562322Y406308D01*
X563047Y406127D01*
X563410Y405946D01*
X563591Y405583D01*
Y405220D01*
X563410Y404857D01*
X562866Y404676D01*
X562140D01*
X544421Y419280D02*
X540611D01*
X544421D02*
Y420913D01*
X544239Y421457D01*
X544058Y421638D01*
X543695Y421820D01*
X543332D01*
X542970Y421638D01*
X542788Y421457D01*
X542607Y420913D01*
Y419280D01*
Y420550D02*
X540611Y421820D01*
X544421Y423035D02*
Y425030D01*
X542970Y423942D01*
Y424486D01*
X542788Y424849D01*
X542607Y425030D01*
X542063Y425212D01*
X541700D01*
X541156Y425030D01*
X540793Y424668D01*
X540611Y424123D01*
Y423579D01*
X540793Y423035D01*
X540974Y422854D01*
X541337Y422672D01*
X544421Y427153D02*
X544239Y426608D01*
X543695Y426246D01*
X542788Y426064D01*
X542244D01*
X541337Y426246D01*
X540793Y426608D01*
X540611Y427153D01*
Y427515D01*
X540793Y428060D01*
X541337Y428422D01*
X542244Y428604D01*
X542788D01*
X543695Y428422D01*
X544239Y428060D01*
X544421Y427515D01*
Y427153D01*
Y429819D02*
Y431814D01*
X542970Y430726D01*
Y431270D01*
X542788Y431633D01*
X542607Y431814D01*
X542063Y431996D01*
X541700D01*
X541156Y431814D01*
X540793Y431451D01*
X540611Y430907D01*
Y430363D01*
X540793Y429819D01*
X540974Y429638D01*
X541337Y429456D01*
X554411Y417004D02*
X550601D01*
X554411D02*
Y418637D01*
X554229Y419181D01*
X554048Y419362D01*
X553685Y419544D01*
X553322D01*
X552959Y419362D01*
X552778Y419181D01*
X552597Y418637D01*
Y417004D01*
Y418274D02*
X550601Y419544D01*
X554411Y420759D02*
Y422755D01*
X552959Y421666D01*
Y422210D01*
X552778Y422573D01*
X552597Y422755D01*
X552052Y422936D01*
X551690D01*
X551146Y422755D01*
X550783Y422392D01*
X550601Y421847D01*
Y421303D01*
X550783Y420759D01*
X550964Y420578D01*
X551327Y420396D01*
X554411Y424877D02*
X554229Y424333D01*
X553685Y423970D01*
X552778Y423788D01*
X552234D01*
X551327Y423970D01*
X550783Y424333D01*
X550601Y424877D01*
Y425239D01*
X550783Y425784D01*
X551327Y426146D01*
X552234Y426328D01*
X552778D01*
X553685Y426146D01*
X554229Y425784D01*
X554411Y425239D01*
Y424877D01*
Y429357D02*
Y427543D01*
X552778Y427362D01*
X552959Y427543D01*
X553141Y428087D01*
Y428632D01*
X552959Y429176D01*
X552597Y429538D01*
X552052Y429720D01*
X551690D01*
X551146Y429538D01*
X550783Y429176D01*
X550601Y428632D01*
Y428087D01*
X550783Y427543D01*
X550964Y427362D01*
X551327Y427180D01*
X545323Y550866D02*
X549132D01*
X545323D02*
Y549233D01*
X545504Y548689D01*
X545686Y548508D01*
X546049Y548326D01*
X546412D01*
X546774Y548508D01*
X546956Y548689D01*
X547137Y549233D01*
Y550866D01*
Y549596D02*
X549132Y548326D01*
X545323Y545660D02*
X547863Y547474D01*
Y544753D01*
X545323Y545660D02*
X549132D01*
X545323Y542994D02*
X545504Y543538D01*
X546049Y543900D01*
X546956Y544082D01*
X547500D01*
X548407Y543900D01*
X548951Y543538D01*
X549132Y542994D01*
Y542631D01*
X548951Y542087D01*
X548407Y541724D01*
X547500Y541543D01*
X546956D01*
X546049Y541724D01*
X545504Y542087D01*
X545323Y542631D01*
Y542994D01*
X545867Y538513D02*
X545504Y538695D01*
X545323Y539239D01*
Y539602D01*
X545504Y540146D01*
X546049Y540508D01*
X546956Y540690D01*
X547863D01*
X548588Y540508D01*
X548951Y540146D01*
X549132Y539602D01*
Y539420D01*
X548951Y538876D01*
X548588Y538513D01*
X548044Y538332D01*
X547863D01*
X547318Y538513D01*
X546956Y538876D01*
X546774Y539420D01*
Y539602D01*
X546956Y540146D01*
X547318Y540508D01*
X547863Y540690D01*
X512676Y414824D02*
X513038Y414642D01*
X513401Y414280D01*
X513582Y413917D01*
Y413191D01*
X513401Y412828D01*
X513038Y412466D01*
X512676Y412284D01*
X512131Y412103D01*
X511225D01*
X510680Y412284D01*
X510317Y412466D01*
X509955Y412828D01*
X509773Y413191D01*
Y413917D01*
X509955Y414280D01*
X510317Y414642D01*
X510680Y414824D01*
X512857Y415894D02*
X513038Y416257D01*
X513582Y416801D01*
X509773D01*
X513582Y420501D02*
X511043Y418687D01*
Y421408D01*
X513582Y420501D02*
X509773D01*
X513582Y424619D02*
X509773Y422805D01*
X513582Y422079D02*
Y424619D01*
X523097Y362989D02*
X523460Y362808D01*
X523823Y362445D01*
X524004Y362082D01*
Y361357D01*
X523823Y360994D01*
X523460Y360631D01*
X523097Y360450D01*
X522553Y360268D01*
X521646D01*
X521102Y360450D01*
X520739Y360631D01*
X520376Y360994D01*
X520195Y361357D01*
Y362082D01*
X520376Y362445D01*
X520739Y362808D01*
X521102Y362989D01*
X523279Y364059D02*
X523460Y364422D01*
X524004Y364966D01*
X520195D01*
X524004Y368667D02*
X521465Y366853D01*
Y369574D01*
X524004Y368667D02*
X520195D01*
X523460Y372421D02*
X523823Y372240D01*
X524004Y371696D01*
Y371333D01*
X523823Y370789D01*
X523279Y370426D01*
X522372Y370245D01*
X521465D01*
X520739Y370426D01*
X520376Y370789D01*
X520195Y371333D01*
Y371515D01*
X520376Y372059D01*
X520739Y372421D01*
X521283Y372603D01*
X521465D01*
X522009Y372421D01*
X522372Y372059D01*
X522553Y371515D01*
Y371333D01*
X522372Y370789D01*
X522009Y370426D01*
X521465Y370245D01*
X548776Y378416D02*
X548957Y378779D01*
X549320Y379142D01*
X549683Y379323D01*
X550409D01*
X550771Y379142D01*
X551134Y378779D01*
X551315Y378416D01*
X551497Y377872D01*
Y376965D01*
X551315Y376421D01*
X551134Y376058D01*
X550771Y375695D01*
X550409Y375514D01*
X549683D01*
X549320Y375695D01*
X548957Y376058D01*
X548776Y376421D01*
X547706Y378598D02*
X547343Y378779D01*
X546799Y379323D01*
Y375514D01*
X543098Y379323D02*
X544912Y376784D01*
X542192D01*
X543098Y379323D02*
Y375514D01*
X539344Y379323D02*
X541158D01*
X541339Y377691D01*
X541158Y377872D01*
X540613Y378053D01*
X540069D01*
X539525Y377872D01*
X539162Y377509D01*
X538981Y376965D01*
Y376602D01*
X539162Y376058D01*
X539525Y375695D01*
X540069Y375514D01*
X540613D01*
X541158Y375695D01*
X541339Y375877D01*
X541520Y376240D01*
X502246Y414609D02*
X502609Y414427D01*
X502972Y414064D01*
X503153Y413702D01*
Y412976D01*
X502972Y412613D01*
X502609Y412251D01*
X502246Y412069D01*
X501702Y411888D01*
X500795D01*
X500251Y412069D01*
X499888Y412251D01*
X499525Y412613D01*
X499344Y412976D01*
Y413702D01*
X499525Y414064D01*
X499888Y414427D01*
X500251Y414609D01*
X502428Y415679D02*
X502609Y416042D01*
X503153Y416586D01*
X499344D01*
X503153Y420286D02*
X500614Y418472D01*
Y421193D01*
X503153Y420286D02*
X499344D01*
X503153Y423678D02*
X500614Y421864D01*
Y424585D01*
X503153Y423678D02*
X499344D01*
X501023Y361575D02*
X500660Y361756D01*
X500298Y362119D01*
X500116Y362481D01*
Y363207D01*
X500298Y363570D01*
X500660Y363933D01*
X501023Y364114D01*
X501567Y364295D01*
X502474D01*
X503018Y364114D01*
X503381Y363933D01*
X503744Y363570D01*
X503925Y363207D01*
Y362481D01*
X503744Y362119D01*
X503381Y361756D01*
X503018Y361575D01*
X500842Y360504D02*
X500660Y360142D01*
X500116Y359597D01*
X503925D01*
X500116Y355897D02*
X502656Y357711D01*
Y354990D01*
X500116Y355897D02*
X503925D01*
X500842Y354319D02*
X500660Y353956D01*
X500116Y353412D01*
X503925D01*
X547475Y386368D02*
X547294Y386005D01*
X546931Y385642D01*
X546568Y385461D01*
X545843D01*
X545480Y385642D01*
X545117Y386005D01*
X544936Y386368D01*
X544754Y386912D01*
Y387819D01*
X544936Y388363D01*
X545117Y388726D01*
X545480Y389089D01*
X545843Y389270D01*
X546568D01*
X546931Y389089D01*
X547294Y388726D01*
X547475Y388363D01*
X548545Y386186D02*
X548908Y386005D01*
X549453Y385461D01*
Y389270D01*
X551702Y385461D02*
X553697D01*
X552609Y386912D01*
X553153D01*
X553516Y387093D01*
X553697Y387275D01*
X553878Y387819D01*
Y388181D01*
X553697Y388726D01*
X553334Y389089D01*
X552790Y389270D01*
X552246D01*
X551702Y389089D01*
X551520Y388907D01*
X551339Y388544D01*
X556908Y385461D02*
X555094D01*
X554912Y387093D01*
X555094Y386912D01*
X555638Y386730D01*
X556182D01*
X556726Y386912D01*
X557089Y387275D01*
X557270Y387819D01*
Y388181D01*
X557089Y388726D01*
X556726Y389089D01*
X556182Y389270D01*
X555638D01*
X555094Y389089D01*
X554912Y388907D01*
X554731Y388544D01*
X521328Y410901D02*
X520965Y411083D01*
X520602Y411446D01*
X520421Y411809D01*
Y412534D01*
X520602Y412897D01*
X520965Y413260D01*
X521328Y413441D01*
X521872Y413622D01*
X522779D01*
X523323Y413441D01*
X523686Y413260D01*
X524049Y412897D01*
X524230Y412534D01*
Y411809D01*
X524049Y411446D01*
X523686Y411083D01*
X523323Y410901D01*
X521147Y409831D02*
X520965Y409468D01*
X520421Y408924D01*
X524230D01*
X520421Y406675D02*
Y404680D01*
X521872Y405768D01*
Y405224D01*
X522053Y404861D01*
X522235Y404680D01*
X522779Y404498D01*
X523142D01*
X523686Y404680D01*
X524049Y405043D01*
X524230Y405587D01*
Y406131D01*
X524049Y406675D01*
X523867Y406857D01*
X523505Y407038D01*
X520421Y401832D02*
X522961Y403646D01*
Y400925D01*
X520421Y401832D02*
X524230D01*
X510680Y410737D02*
X510317Y410919D01*
X509955Y411281D01*
X509773Y411644D01*
Y412370D01*
X509955Y412733D01*
X510317Y413095D01*
X510680Y413277D01*
X511225Y413458D01*
X512131D01*
X512676Y413277D01*
X513038Y413095D01*
X513401Y412733D01*
X513582Y412370D01*
Y411644D01*
X513401Y411281D01*
X513038Y410919D01*
X512676Y410737D01*
X510499Y409667D02*
X510317Y409304D01*
X509773Y408760D01*
X513582D01*
X509773Y406511D02*
Y404515D01*
X511225Y405604D01*
Y405060D01*
X511406Y404697D01*
X511587Y404515D01*
X512131Y404334D01*
X512494D01*
X513038Y404515D01*
X513401Y404878D01*
X513582Y405423D01*
Y405967D01*
X513401Y406511D01*
X513220Y406692D01*
X512857Y406874D01*
X510680Y403300D02*
X510499D01*
X510136Y403119D01*
X509955Y402937D01*
X509773Y402575D01*
Y401849D01*
X509955Y401486D01*
X510136Y401305D01*
X510499Y401124D01*
X510862D01*
X511225Y401305D01*
X511769Y401668D01*
X513582Y403482D01*
Y400942D01*
X542848Y365952D02*
X543211Y365771D01*
X543574Y365408D01*
X543755Y365046D01*
Y364320D01*
X543574Y363957D01*
X543211Y363595D01*
X542848Y363413D01*
X542304Y363232D01*
X541397D01*
X540853Y363413D01*
X540490Y363595D01*
X540127Y363957D01*
X539946Y364320D01*
Y365046D01*
X540127Y365408D01*
X540490Y365771D01*
X540853Y365952D01*
X543030Y367023D02*
X543211Y367385D01*
X543755Y367930D01*
X539946D01*
X543755Y370179D02*
Y372174D01*
X542304Y371086D01*
Y371630D01*
X542123Y371993D01*
X541941Y372174D01*
X541397Y372356D01*
X541034D01*
X540490Y372174D01*
X540127Y371811D01*
X539946Y371267D01*
Y370723D01*
X540127Y370179D01*
X540309Y369997D01*
X540672Y369816D01*
X543030Y373208D02*
X543211Y373571D01*
X543755Y374115D01*
X539946D01*
X598363Y232444D02*
X598725Y232263D01*
X599088Y231900D01*
X599269Y231538D01*
Y230812D01*
X599088Y230449D01*
X598725Y230086D01*
X598363Y229905D01*
X597818Y229724D01*
X596911D01*
X596367Y229905D01*
X596004Y230086D01*
X595642Y230449D01*
X595460Y230812D01*
Y231538D01*
X595642Y231900D01*
X596004Y232263D01*
X596367Y232444D01*
X599269Y235691D02*
Y233878D01*
X597637Y233696D01*
X597818Y233878D01*
X598000Y234422D01*
Y234966D01*
X597818Y235510D01*
X597455Y235873D01*
X596911Y236054D01*
X596549D01*
X596004Y235873D01*
X595642Y235510D01*
X595460Y234966D01*
Y234422D01*
X595642Y233878D01*
X595823Y233696D01*
X596186Y233515D01*
X599269Y237995D02*
X599088Y237451D01*
X598544Y237088D01*
X597637Y236907D01*
X597093D01*
X596186Y237088D01*
X595642Y237451D01*
X595460Y237995D01*
Y238358D01*
X595642Y238902D01*
X596186Y239265D01*
X597093Y239446D01*
X597637D01*
X598544Y239265D01*
X599088Y238902D01*
X599269Y238358D01*
Y237995D01*
Y241206D02*
X599088Y240662D01*
X598725Y240480D01*
X598363D01*
X598000Y240662D01*
X597818Y241024D01*
X597637Y241750D01*
X597455Y242294D01*
X597093Y242657D01*
X596730Y242838D01*
X596186D01*
X595823Y242657D01*
X595642Y242475D01*
X595460Y241931D01*
Y241206D01*
X595642Y240662D01*
X595823Y240480D01*
X596186Y240299D01*
X596730D01*
X597093Y240480D01*
X597455Y240843D01*
X597637Y241387D01*
X597818Y242113D01*
X598000Y242475D01*
X598363Y242657D01*
X598725D01*
X599088Y242475D01*
X599269Y241931D01*
Y241206D01*
X550767Y395877D02*
X550586Y395515D01*
X550223Y395152D01*
X549860Y394971D01*
X549135D01*
X548772Y395152D01*
X548409Y395515D01*
X548228Y395877D01*
X548046Y396422D01*
Y397328D01*
X548228Y397873D01*
X548409Y398236D01*
X548772Y398598D01*
X549135Y398780D01*
X549860D01*
X550223Y398598D01*
X550586Y398236D01*
X550767Y397873D01*
X551837Y395696D02*
X552200Y395515D01*
X552744Y394971D01*
Y398780D01*
X554994Y394971D02*
X556989D01*
X555900Y396422D01*
X556445D01*
X556807Y396603D01*
X556989Y396784D01*
X557170Y397328D01*
Y397691D01*
X556989Y398236D01*
X556626Y398598D01*
X556082Y398780D01*
X555538D01*
X554994Y398598D01*
X554812Y398417D01*
X554631Y398054D01*
X559111Y394971D02*
X558567Y395152D01*
X558204Y395696D01*
X558023Y396603D01*
Y397147D01*
X558204Y398054D01*
X558567Y398598D01*
X559111Y398780D01*
X559474D01*
X560018Y398598D01*
X560381Y398054D01*
X560562Y397147D01*
Y396603D01*
X560381Y395696D01*
X560018Y395152D01*
X559474Y394971D01*
X559111D01*
X531651Y407000D02*
X531288Y407181D01*
X530925Y407544D01*
X530744Y407907D01*
Y408633D01*
X530925Y408995D01*
X531288Y409358D01*
X531651Y409539D01*
X532195Y409721D01*
X533102D01*
X533646Y409539D01*
X534009Y409358D01*
X534371Y408995D01*
X534553Y408633D01*
Y407907D01*
X534371Y407544D01*
X534009Y407181D01*
X533646Y407000D01*
X531469Y405930D02*
X531288Y405567D01*
X530744Y405023D01*
X534553D01*
X530744Y402048D02*
X530925Y402592D01*
X531469Y402955D01*
X532376Y403136D01*
X532920D01*
X533827Y402955D01*
X534371Y402592D01*
X534553Y402048D01*
Y401685D01*
X534371Y401141D01*
X533827Y400778D01*
X532920Y400597D01*
X532376D01*
X531469Y400778D01*
X530925Y401141D01*
X530744Y401685D01*
Y402048D01*
X531469Y399744D02*
X531288Y399382D01*
X530744Y398837D01*
X534553D01*
X541498Y408370D02*
X541135Y408551D01*
X540773Y408914D01*
X540591Y409277D01*
Y410002D01*
X540773Y410365D01*
X541135Y410728D01*
X541498Y410909D01*
X542042Y411091D01*
X542949D01*
X543493Y410909D01*
X543856Y410728D01*
X544219Y410365D01*
X544400Y410002D01*
Y409277D01*
X544219Y408914D01*
X543856Y408551D01*
X543493Y408370D01*
X541317Y407300D02*
X541135Y406937D01*
X540591Y406393D01*
X544400D01*
X540591Y403418D02*
X540773Y403962D01*
X541317Y404325D01*
X542224Y404506D01*
X542768D01*
X543675Y404325D01*
X544219Y403962D01*
X544400Y403418D01*
Y403055D01*
X544219Y402511D01*
X543675Y402148D01*
X542768Y401967D01*
X542224D01*
X541317Y402148D01*
X540773Y402511D01*
X540591Y403055D01*
Y403418D01*
X541498Y400933D02*
X541317D01*
X540954Y400751D01*
X540773Y400570D01*
X540591Y400207D01*
Y399482D01*
X540773Y399119D01*
X540954Y398938D01*
X541317Y398756D01*
X541679D01*
X542042Y398938D01*
X542586Y399300D01*
X544400Y401114D01*
Y398575D01*
X536244Y392178D02*
X536426Y392541D01*
X536788Y392904D01*
X537151Y393085D01*
X537877D01*
X538240Y392904D01*
X538602Y392541D01*
X538784Y392178D01*
X538965Y391634D01*
Y390727D01*
X538784Y390183D01*
X538602Y389820D01*
X538240Y389457D01*
X537877Y389276D01*
X537151D01*
X536788Y389457D01*
X536426Y389820D01*
X536244Y390183D01*
X535174Y392359D02*
X534811Y392541D01*
X534267Y393085D01*
Y389276D01*
X531292Y393085D02*
X531837Y392904D01*
X532199Y392359D01*
X532381Y391452D01*
Y390908D01*
X532199Y390001D01*
X531837Y389457D01*
X531292Y389276D01*
X530930D01*
X530386Y389457D01*
X530023Y390001D01*
X529841Y390908D01*
Y391452D01*
X530023Y392359D01*
X530386Y392904D01*
X530930Y393085D01*
X531292D01*
X526812Y392541D02*
X526993Y392904D01*
X527538Y393085D01*
X527900D01*
X528445Y392904D01*
X528807Y392359D01*
X528989Y391452D01*
Y390545D01*
X528807Y389820D01*
X528445Y389457D01*
X527900Y389276D01*
X527719D01*
X527175Y389457D01*
X526812Y389820D01*
X526631Y390364D01*
Y390545D01*
X526812Y391090D01*
X527175Y391452D01*
X527719Y391634D01*
X527900D01*
X528445Y391452D01*
X528807Y391090D01*
X528989Y390545D01*
X536035Y383069D02*
X535672Y383250D01*
X535309Y383613D01*
X535128Y383976D01*
Y384701D01*
X535309Y385064D01*
X535672Y385427D01*
X536035Y385608D01*
X536579Y385790D01*
X537486D01*
X538030Y385608D01*
X538393Y385427D01*
X538755Y385064D01*
X538937Y384701D01*
Y383976D01*
X538755Y383613D01*
X538393Y383250D01*
X538030Y383069D01*
X535853Y381999D02*
X535672Y381636D01*
X535128Y381092D01*
X538937D01*
X535128Y378117D02*
X535309Y378661D01*
X535853Y379024D01*
X536760Y379205D01*
X537304D01*
X538211Y379024D01*
X538755Y378661D01*
X538937Y378117D01*
Y377754D01*
X538755Y377210D01*
X538211Y376847D01*
X537304Y376666D01*
X536760D01*
X535853Y376847D01*
X535309Y377210D01*
X535128Y377754D01*
Y378117D01*
Y373274D02*
X538937Y375088D01*
X535128Y375813D02*
Y373274D01*
X536436Y395788D02*
X536255Y395426D01*
X535892Y395063D01*
X535529Y394882D01*
X534804D01*
X534441Y395063D01*
X534078Y395426D01*
X533897Y395788D01*
X533715Y396333D01*
Y397240D01*
X533897Y397784D01*
X534078Y398147D01*
X534441Y398509D01*
X534804Y398691D01*
X535529D01*
X535892Y398509D01*
X536255Y398147D01*
X536436Y397784D01*
X537506Y395607D02*
X537869Y395426D01*
X538413Y394882D01*
Y398691D01*
X540300Y395607D02*
X540662Y395426D01*
X541207Y394882D01*
Y398691D01*
X544181Y394882D02*
X543637Y395063D01*
X543274Y395607D01*
X543093Y396514D01*
Y397058D01*
X543274Y397965D01*
X543637Y398509D01*
X544181Y398691D01*
X544544D01*
X545088Y398509D01*
X545451Y397965D01*
X545633Y397058D01*
Y396514D01*
X545451Y395607D01*
X545088Y395063D01*
X544544Y394882D01*
X544181D01*
X526407Y395527D02*
X526225Y395164D01*
X525862Y394801D01*
X525500Y394620D01*
X524774D01*
X524411Y394801D01*
X524049Y395164D01*
X523867Y395527D01*
X523686Y396071D01*
Y396978D01*
X523867Y397522D01*
X524049Y397885D01*
X524411Y398248D01*
X524774Y398429D01*
X525500D01*
X525862Y398248D01*
X526225Y397885D01*
X526407Y397522D01*
X527477Y395345D02*
X527840Y395164D01*
X528384Y394620D01*
Y398429D01*
X530270Y395345D02*
X530633Y395164D01*
X531177Y394620D01*
Y398429D01*
X533064Y395345D02*
X533426Y395164D01*
X533970Y394620D01*
Y398429D01*
X531097Y382886D02*
X530734Y383067D01*
X530371Y383430D01*
X530190Y383793D01*
Y384518D01*
X530371Y384881D01*
X530734Y385244D01*
X531097Y385425D01*
X531641Y385607D01*
X532548D01*
X533092Y385425D01*
X533455Y385244D01*
X533818Y384881D01*
X533999Y384518D01*
Y383793D01*
X533818Y383430D01*
X533455Y383067D01*
X533092Y382886D01*
X530915Y381816D02*
X530734Y381453D01*
X530190Y380909D01*
X533999D01*
X530915Y379022D02*
X530734Y378659D01*
X530190Y378115D01*
X533999D01*
X530190Y374415D02*
X532729Y376229D01*
Y373508D01*
X530190Y374415D02*
X533999D01*
X507055Y340264D02*
X506874Y339901D01*
X506511Y339538D01*
X506148Y339357D01*
X505423D01*
X505060Y339538D01*
X504697Y339901D01*
X504516Y340264D01*
X504334Y340808D01*
Y341715D01*
X504516Y342259D01*
X504697Y342622D01*
X505060Y342985D01*
X505423Y343166D01*
X506148D01*
X506511Y342985D01*
X506874Y342622D01*
X507055Y342259D01*
X508125Y340083D02*
X508488Y339901D01*
X509032Y339357D01*
Y343166D01*
X510919Y340083D02*
X511282Y339901D01*
X511826Y339357D01*
Y343166D01*
X515889Y339901D02*
X515707Y339538D01*
X515163Y339357D01*
X514800D01*
X514256Y339538D01*
X513894Y340083D01*
X513712Y340990D01*
Y341897D01*
X513894Y342622D01*
X514256Y342985D01*
X514800Y343166D01*
X514982D01*
X515526Y342985D01*
X515889Y342622D01*
X516070Y342078D01*
Y341897D01*
X515889Y341353D01*
X515526Y340990D01*
X514982Y340808D01*
X514800D01*
X514256Y340990D01*
X513894Y341353D01*
X513712Y341897D01*
X533605Y365758D02*
X533968Y365577D01*
X534331Y365214D01*
X534512Y364851D01*
Y364126D01*
X534331Y363763D01*
X533968Y363400D01*
X533605Y363219D01*
X533061Y363037D01*
X532154D01*
X531610Y363219D01*
X531247Y363400D01*
X530884Y363763D01*
X530703Y364126D01*
Y364851D01*
X530884Y365214D01*
X531247Y365577D01*
X531610Y365758D01*
X533787Y366828D02*
X533968Y367191D01*
X534512Y367735D01*
X530703D01*
X533787Y369622D02*
X533968Y369985D01*
X534512Y370529D01*
X530703D01*
X534512Y374955D02*
X530703Y373141D01*
X534512Y372415D02*
Y374955D01*
X573544Y378262D02*
X573907Y378080D01*
X574270Y377718D01*
X574451Y377355D01*
Y376629D01*
X574270Y376267D01*
X573907Y375904D01*
X573544Y375722D01*
X573000Y375541D01*
X572093D01*
X571549Y375722D01*
X571186Y375904D01*
X570823Y376267D01*
X570642Y376629D01*
Y377355D01*
X570823Y377718D01*
X571186Y378080D01*
X571549Y378262D01*
X573726Y379332D02*
X573907Y379695D01*
X574451Y380239D01*
X570642D01*
X573726Y382125D02*
X573907Y382488D01*
X574451Y383032D01*
X570642D01*
X573181Y387277D02*
X572637Y387095D01*
X572274Y386733D01*
X572093Y386189D01*
Y386007D01*
X572274Y385463D01*
X572637Y385100D01*
X573181Y384919D01*
X573363D01*
X573907Y385100D01*
X574270Y385463D01*
X574451Y386007D01*
Y386189D01*
X574270Y386733D01*
X573907Y387095D01*
X573181Y387277D01*
X572274D01*
X571367Y387095D01*
X570823Y386733D01*
X570642Y386189D01*
Y385826D01*
X570823Y385282D01*
X571186Y385100D01*
X552387Y341090D02*
X552206Y340727D01*
X551843Y340364D01*
X551480Y340183D01*
X550754D01*
X550392Y340364D01*
X550029Y340727D01*
X549847Y341090D01*
X549666Y341634D01*
Y342541D01*
X549847Y343085D01*
X550029Y343448D01*
X550392Y343811D01*
X550754Y343992D01*
X551480D01*
X551843Y343811D01*
X552206Y343448D01*
X552387Y343085D01*
X553457Y340908D02*
X553820Y340727D01*
X554364Y340183D01*
Y343992D01*
X556432Y341090D02*
Y340908D01*
X556613Y340545D01*
X556795Y340364D01*
X557157Y340183D01*
X557883D01*
X558246Y340364D01*
X558427Y340545D01*
X558609Y340908D01*
Y341271D01*
X558427Y341634D01*
X558064Y342178D01*
X556250Y343992D01*
X558790D01*
X562001Y341452D02*
X561819Y341996D01*
X561456Y342359D01*
X560912Y342541D01*
X560731D01*
X560187Y342359D01*
X559824Y341996D01*
X559642Y341452D01*
Y341271D01*
X559824Y340727D01*
X560187Y340364D01*
X560731Y340183D01*
X560912D01*
X561456Y340364D01*
X561819Y340727D01*
X562001Y341452D01*
Y342359D01*
X561819Y343266D01*
X561456Y343811D01*
X560912Y343992D01*
X560549D01*
X560005Y343811D01*
X559824Y343448D01*
X513374Y366030D02*
X513737Y365849D01*
X514100Y365486D01*
X514281Y365123D01*
Y364398D01*
X514100Y364035D01*
X513737Y363672D01*
X513374Y363491D01*
X512830Y363310D01*
X511923D01*
X511379Y363491D01*
X511016Y363672D01*
X510653Y364035D01*
X510472Y364398D01*
Y365123D01*
X510653Y365486D01*
X511016Y365849D01*
X511379Y366030D01*
X513555Y367101D02*
X513737Y367463D01*
X514281Y368008D01*
X510472D01*
X514281Y370257D02*
Y372252D01*
X512830Y371164D01*
Y371708D01*
X512649Y372071D01*
X512467Y372252D01*
X511923Y372433D01*
X511560D01*
X511016Y372252D01*
X510653Y371889D01*
X510472Y371345D01*
Y370801D01*
X510653Y370257D01*
X510835Y370075D01*
X511197Y369894D01*
X514281Y375825D02*
X510472Y374011D01*
X514281Y373286D02*
Y375825D01*
X502533Y368104D02*
X502715Y368467D01*
X503078Y368829D01*
X503440Y369011D01*
X504166D01*
X504529Y368829D01*
X504892Y368467D01*
X505073Y368104D01*
X505254Y367560D01*
Y366653D01*
X505073Y366109D01*
X504892Y365746D01*
X504529Y365383D01*
X504166Y365202D01*
X503440D01*
X503078Y365383D01*
X502715Y365746D01*
X502533Y366109D01*
X501463Y368285D02*
X501101Y368467D01*
X500556Y369011D01*
Y365202D01*
X498307Y369011D02*
X496312D01*
X497400Y367560D01*
X496856D01*
X496493Y367378D01*
X496312Y367197D01*
X496130Y366653D01*
Y366290D01*
X496312Y365746D01*
X496675Y365383D01*
X497219Y365202D01*
X497763D01*
X498307Y365383D01*
X498489Y365564D01*
X498670Y365927D01*
X492920Y367741D02*
X493101Y367197D01*
X493464Y366834D01*
X494008Y366653D01*
X494190D01*
X494734Y366834D01*
X495097Y367197D01*
X495278Y367741D01*
Y367922D01*
X495097Y368467D01*
X494734Y368829D01*
X494190Y369011D01*
X494008D01*
X493464Y368829D01*
X493101Y368467D01*
X492920Y367741D01*
Y366834D01*
X493101Y365927D01*
X493464Y365383D01*
X494008Y365202D01*
X494371D01*
X494915Y365383D01*
X495097Y365746D01*
X506104Y385733D02*
X505922Y385370D01*
X505560Y385007D01*
X505197Y384826D01*
X504471D01*
X504109Y385007D01*
X503746Y385370D01*
X503564Y385733D01*
X503383Y386277D01*
Y387184D01*
X503564Y387728D01*
X503746Y388091D01*
X504109Y388453D01*
X504471Y388635D01*
X505197D01*
X505560Y388453D01*
X505922Y388091D01*
X506104Y387728D01*
X507174Y385551D02*
X507537Y385370D01*
X508081Y384826D01*
Y388635D01*
X511781Y384826D02*
X509967Y387365D01*
X512688D01*
X511781Y384826D02*
Y388635D01*
X514448Y384826D02*
X513904Y385007D01*
X513541Y385551D01*
X513359Y386458D01*
Y387002D01*
X513541Y387909D01*
X513904Y388453D01*
X514448Y388635D01*
X514810D01*
X515355Y388453D01*
X515717Y387909D01*
X515899Y387002D01*
Y386458D01*
X515717Y385551D01*
X515355Y385007D01*
X514810Y384826D01*
X514448D01*
X502848Y407926D02*
X503029Y408289D01*
X503392Y408652D01*
X503755Y408833D01*
X504480D01*
X504843Y408652D01*
X505206Y408289D01*
X505387Y407926D01*
X505569Y407382D01*
Y406475D01*
X505387Y405931D01*
X505206Y405568D01*
X504843Y405205D01*
X504480Y405024D01*
X503755D01*
X503392Y405205D01*
X503029Y405568D01*
X502848Y405931D01*
X501777Y408107D02*
X501415Y408289D01*
X500871Y408833D01*
Y405024D01*
X496807Y408833D02*
X498621D01*
X498803Y407200D01*
X498621Y407382D01*
X498077Y407563D01*
X497533D01*
X496989Y407382D01*
X496626Y407019D01*
X496445Y406475D01*
Y406112D01*
X496626Y405568D01*
X496989Y405205D01*
X497533Y405024D01*
X498077D01*
X498621Y405205D01*
X498803Y405387D01*
X498984Y405749D01*
X495411Y407926D02*
Y408107D01*
X495229Y408470D01*
X495048Y408652D01*
X494685Y408833D01*
X493960D01*
X493597Y408652D01*
X493415Y408470D01*
X493234Y408107D01*
Y407744D01*
X493415Y407382D01*
X493778Y406838D01*
X495592Y405024D01*
X493053D01*
X502344Y388363D02*
X502525Y388726D01*
X502888Y389088D01*
X503251Y389270D01*
X503977D01*
X504339Y389088D01*
X504702Y388726D01*
X504883Y388363D01*
X505065Y387819D01*
Y386912D01*
X504883Y386368D01*
X504702Y386005D01*
X504339Y385642D01*
X503977Y385461D01*
X503251D01*
X502888Y385642D01*
X502525Y386005D01*
X502344Y386368D01*
X501274Y388544D02*
X500911Y388726D01*
X500367Y389270D01*
Y385461D01*
X496304Y389270D02*
X498118D01*
X498299Y387637D01*
X498118Y387819D01*
X497574Y388000D01*
X497029D01*
X496485Y387819D01*
X496122Y387456D01*
X495941Y386912D01*
Y386549D01*
X496122Y386005D01*
X496485Y385642D01*
X497029Y385461D01*
X497574D01*
X498118Y385642D01*
X498299Y385823D01*
X498480Y386186D01*
X493275Y389270D02*
X495088Y386730D01*
X492368D01*
X493275Y389270D02*
Y385461D01*
X375121Y354713D02*
X375302Y355076D01*
X375665Y355438D01*
X376028Y355620D01*
X376753D01*
X377116Y355438D01*
X377479Y355076D01*
X377660Y354713D01*
X377842Y354169D01*
Y353262D01*
X377660Y352718D01*
X377479Y352355D01*
X377116Y351992D01*
X376753Y351811D01*
X376028D01*
X375665Y351992D01*
X375302Y352355D01*
X375121Y352718D01*
X373869Y354713D02*
Y354894D01*
X373688Y355257D01*
X373507Y355438D01*
X373144Y355620D01*
X372418D01*
X372055Y355438D01*
X371874Y355257D01*
X371693Y354894D01*
Y354532D01*
X371874Y354169D01*
X372237Y353625D01*
X374051Y351811D01*
X371511D01*
X369570Y355620D02*
X370115Y355438D01*
X370477Y354894D01*
X370659Y353987D01*
Y353443D01*
X370477Y352536D01*
X370115Y351992D01*
X369570Y351811D01*
X369207D01*
X368663Y351992D01*
X368301Y352536D01*
X368119Y353443D01*
Y353987D01*
X368301Y354894D01*
X368663Y355438D01*
X369207Y355620D01*
X369570D01*
X366904D02*
X364909D01*
X365997Y354169D01*
X365453D01*
X365090Y353987D01*
X364909Y353806D01*
X364727Y353262D01*
Y352899D01*
X364909Y352355D01*
X365271Y351992D01*
X365816Y351811D01*
X366360D01*
X366904Y351992D01*
X367085Y352174D01*
X367267Y352536D01*
X388450Y418257D02*
X388268Y417895D01*
X387905Y417532D01*
X387543Y417350D01*
X386817D01*
X386454Y417532D01*
X386092Y417895D01*
X385910Y418257D01*
X385729Y418801D01*
Y419709D01*
X385910Y420253D01*
X386092Y420615D01*
X386454Y420978D01*
X386817Y421160D01*
X387543D01*
X387905Y420978D01*
X388268Y420615D01*
X388450Y420253D01*
X389701Y418257D02*
Y418076D01*
X389883Y417713D01*
X390064Y417532D01*
X390427Y417350D01*
X391152D01*
X391515Y417532D01*
X391697Y417713D01*
X391878Y418076D01*
Y418439D01*
X391697Y418801D01*
X391334Y419346D01*
X389520Y421160D01*
X392059D01*
X394000Y417350D02*
X393456Y417532D01*
X393093Y418076D01*
X392912Y418983D01*
Y419527D01*
X393093Y420434D01*
X393456Y420978D01*
X394000Y421160D01*
X394363D01*
X394907Y420978D01*
X395270Y420434D01*
X395451Y419527D01*
Y418983D01*
X395270Y418076D01*
X394907Y417532D01*
X394363Y417350D01*
X394000D01*
X398118D02*
X396304Y419890D01*
X399025D01*
X398118Y417350D02*
Y421160D01*
X384558Y387659D02*
X384921Y387477D01*
X385284Y387115D01*
X385465Y386752D01*
Y386026D01*
X385284Y385664D01*
X384921Y385301D01*
X384558Y385119D01*
X384014Y384938D01*
X383107D01*
X382563Y385119D01*
X382200Y385301D01*
X381837Y385664D01*
X381656Y386026D01*
Y386752D01*
X381837Y387115D01*
X382200Y387477D01*
X382563Y387659D01*
X384558Y388910D02*
X384739D01*
X385102Y389092D01*
X385284Y389273D01*
X385465Y389636D01*
Y390362D01*
X385284Y390724D01*
X385102Y390906D01*
X384739Y391087D01*
X384377D01*
X384014Y390906D01*
X383470Y390543D01*
X381656Y388729D01*
Y391269D01*
X385465Y393209D02*
X385284Y392665D01*
X384739Y392302D01*
X383832Y392121D01*
X383288D01*
X382381Y392302D01*
X381837Y392665D01*
X381656Y393209D01*
Y393572D01*
X381837Y394116D01*
X382381Y394479D01*
X383288Y394660D01*
X383832D01*
X384739Y394479D01*
X385284Y394116D01*
X385465Y393572D01*
Y393209D01*
Y397690D02*
Y395876D01*
X383832Y395694D01*
X384014Y395876D01*
X384195Y396420D01*
Y396964D01*
X384014Y397508D01*
X383651Y397871D01*
X383107Y398052D01*
X382744D01*
X382200Y397871D01*
X381837Y397508D01*
X381656Y396964D01*
Y396420D01*
X381837Y395876D01*
X382019Y395694D01*
X382381Y395513D01*
X387475Y363169D02*
X387657Y363531D01*
X388020Y363894D01*
X388382Y364076D01*
X389108D01*
X389471Y363894D01*
X389833Y363531D01*
X390015Y363169D01*
X390196Y362624D01*
Y361717D01*
X390015Y361173D01*
X389833Y360811D01*
X389471Y360448D01*
X389108Y360266D01*
X388382D01*
X388020Y360448D01*
X387657Y360811D01*
X387475Y361173D01*
X386224Y363169D02*
Y363350D01*
X386042Y363713D01*
X385861Y363894D01*
X385498Y364076D01*
X384773D01*
X384410Y363894D01*
X384229Y363713D01*
X384047Y363350D01*
Y362987D01*
X384229Y362624D01*
X384591Y362080D01*
X386405Y360266D01*
X383866D01*
X381925Y364076D02*
X382469Y363894D01*
X382832Y363350D01*
X383013Y362443D01*
Y361899D01*
X382832Y360992D01*
X382469Y360448D01*
X381925Y360266D01*
X381562D01*
X381018Y360448D01*
X380655Y360992D01*
X380474Y361899D01*
Y362443D01*
X380655Y363350D01*
X381018Y363894D01*
X381562Y364076D01*
X381925D01*
X378714D02*
X379258Y363894D01*
X379440Y363531D01*
Y363169D01*
X379258Y362806D01*
X378896Y362624D01*
X378170Y362443D01*
X377626Y362262D01*
X377263Y361899D01*
X377082Y361536D01*
Y360992D01*
X377263Y360629D01*
X377444Y360448D01*
X377989Y360266D01*
X378714D01*
X379258Y360448D01*
X379440Y360629D01*
X379621Y360992D01*
Y361536D01*
X379440Y361899D01*
X379077Y362262D01*
X378533Y362443D01*
X377807Y362624D01*
X377444Y362806D01*
X377263Y363169D01*
Y363531D01*
X377444Y363894D01*
X377989Y364076D01*
X378714D01*
X326310Y386300D02*
X326492Y386663D01*
X326854Y387026D01*
X327217Y387207D01*
X327943D01*
X328305Y387026D01*
X328668Y386663D01*
X328850Y386300D01*
X329031Y385756D01*
Y384849D01*
X328850Y384305D01*
X328668Y383942D01*
X328305Y383579D01*
X327943Y383398D01*
X327217D01*
X326854Y383579D01*
X326492Y383942D01*
X326310Y384305D01*
X325059Y386300D02*
Y386482D01*
X324877Y386844D01*
X324696Y387026D01*
X324333Y387207D01*
X323607D01*
X323245Y387026D01*
X323063Y386844D01*
X322882Y386482D01*
Y386119D01*
X323063Y385756D01*
X323426Y385212D01*
X325240Y383398D01*
X322700D01*
X321848Y386482D02*
X321485Y386663D01*
X320941Y387207D01*
Y383398D01*
X317966Y387207D02*
X318510Y387026D01*
X318873Y386482D01*
X319055Y385575D01*
Y385031D01*
X318873Y384124D01*
X318510Y383579D01*
X317966Y383398D01*
X317603D01*
X317059Y383579D01*
X316696Y384124D01*
X316515Y385031D01*
Y385575D01*
X316696Y386482D01*
X317059Y387026D01*
X317603Y387207D01*
X317966D01*
X365273Y417427D02*
X364910Y417608D01*
X364547Y417971D01*
X364366Y418334D01*
Y419059D01*
X364547Y419422D01*
X364910Y419785D01*
X365273Y419966D01*
X365817Y420148D01*
X366724D01*
X367268Y419966D01*
X367631Y419785D01*
X367994Y419422D01*
X368175Y419059D01*
Y418334D01*
X367994Y417971D01*
X367631Y417608D01*
X367268Y417427D01*
X365273Y416175D02*
X365092D01*
X364729Y415994D01*
X364547Y415812D01*
X364366Y415449D01*
Y414724D01*
X364547Y414361D01*
X364729Y414180D01*
X365092Y413998D01*
X365454D01*
X365817Y414180D01*
X366361Y414543D01*
X368175Y416356D01*
Y413817D01*
X365092Y412965D02*
X364910Y412602D01*
X364366Y412057D01*
X368175D01*
X365092Y410171D02*
X364910Y409808D01*
X364366Y409264D01*
X368175D01*
X339264Y322877D02*
X339445Y323239D01*
X339808Y323602D01*
X340171Y323783D01*
X340897D01*
X341259Y323602D01*
X341622Y323239D01*
X341804Y322877D01*
X341985Y322332D01*
Y321425D01*
X341804Y320881D01*
X341622Y320518D01*
X341259Y320156D01*
X340897Y319974D01*
X340171D01*
X339808Y320156D01*
X339445Y320518D01*
X339264Y320881D01*
X338013Y322877D02*
Y323058D01*
X337831Y323421D01*
X337650Y323602D01*
X337287Y323783D01*
X336561D01*
X336199Y323602D01*
X336017Y323421D01*
X335836Y323058D01*
Y322695D01*
X336017Y322332D01*
X336380Y321788D01*
X338194Y319974D01*
X335654D01*
X334802Y323058D02*
X334439Y323239D01*
X333895Y323783D01*
Y319974D01*
X331827Y322877D02*
Y323058D01*
X331646Y323421D01*
X331464Y323602D01*
X331101Y323783D01*
X330376D01*
X330013Y323602D01*
X329832Y323421D01*
X329650Y323058D01*
Y322695D01*
X329832Y322332D01*
X330195Y321788D01*
X332009Y319974D01*
X329469D01*
X326087Y364157D02*
X326268Y364519D01*
X326631Y364882D01*
X326993Y365064D01*
X327719D01*
X328082Y364882D01*
X328445Y364519D01*
X328626Y364157D01*
X328807Y363613D01*
Y362705D01*
X328626Y362161D01*
X328445Y361799D01*
X328082Y361436D01*
X327719Y361254D01*
X326993D01*
X326631Y361436D01*
X326268Y361799D01*
X326087Y362161D01*
X324835Y364157D02*
Y364338D01*
X324654Y364701D01*
X324472Y364882D01*
X324109Y365064D01*
X323384D01*
X323021Y364882D01*
X322840Y364701D01*
X322658Y364338D01*
Y363975D01*
X322840Y363613D01*
X323203Y363068D01*
X325016Y361254D01*
X322477D01*
X321624Y364338D02*
X321262Y364519D01*
X320717Y365064D01*
Y361254D01*
X318468Y365064D02*
X316473D01*
X317561Y363613D01*
X317017D01*
X316654Y363431D01*
X316473Y363250D01*
X316292Y362705D01*
Y362343D01*
X316473Y361799D01*
X316836Y361436D01*
X317380Y361254D01*
X317924D01*
X318468Y361436D01*
X318650Y361617D01*
X318831Y361980D01*
X385776Y378172D02*
X385957Y378535D01*
X386320Y378898D01*
X386683Y379079D01*
X387408D01*
X387771Y378898D01*
X388134Y378535D01*
X388315Y378172D01*
X388497Y377628D01*
Y376721D01*
X388315Y376177D01*
X388134Y375814D01*
X387771Y375452D01*
X387408Y375270D01*
X386683D01*
X386320Y375452D01*
X385957Y375814D01*
X385776Y376177D01*
X384524Y378172D02*
Y378354D01*
X384343Y378717D01*
X384161Y378898D01*
X383799Y379079D01*
X383073D01*
X382710Y378898D01*
X382529Y378717D01*
X382347Y378354D01*
Y377991D01*
X382529Y377628D01*
X382892Y377084D01*
X384706Y375270D01*
X382166D01*
X381314Y378354D02*
X380951Y378535D01*
X380407Y379079D01*
Y375270D01*
X376706Y379079D02*
X378520Y376540D01*
X375799D01*
X376706Y379079D02*
Y375270D01*
X409554Y414650D02*
X409917Y414469D01*
X410280Y414106D01*
X410461Y413743D01*
Y413018D01*
X410280Y412655D01*
X409917Y412292D01*
X409554Y412111D01*
X409010Y411929D01*
X408103D01*
X407559Y412111D01*
X407196Y412292D01*
X406833Y412655D01*
X406652Y413018D01*
Y413743D01*
X406833Y414106D01*
X407196Y414469D01*
X407559Y414650D01*
X409554Y415902D02*
X409735D01*
X410098Y416083D01*
X410280Y416265D01*
X410461Y416627D01*
Y417353D01*
X410280Y417716D01*
X410098Y417897D01*
X409735Y418078D01*
X409373D01*
X409010Y417897D01*
X408466Y417534D01*
X406652Y415720D01*
Y418260D01*
X409735Y419113D02*
X409917Y419475D01*
X410461Y420019D01*
X406652D01*
X409917Y424082D02*
X410280Y423901D01*
X410461Y423357D01*
Y422994D01*
X410280Y422450D01*
X409735Y422087D01*
X408829Y421906D01*
X407922D01*
X407196Y422087D01*
X406833Y422450D01*
X406652Y422994D01*
Y423176D01*
X406833Y423720D01*
X407196Y424082D01*
X407740Y424264D01*
X407922D01*
X408466Y424082D01*
X408829Y423720D01*
X409010Y423176D01*
Y422994D01*
X408829Y422450D01*
X408466Y422087D01*
X407922Y421906D01*
X403782Y377175D02*
X403601Y376813D01*
X403238Y376450D01*
X402876Y376268D01*
X402150D01*
X401787Y376450D01*
X401424Y376813D01*
X401243Y377175D01*
X401062Y377720D01*
Y378627D01*
X401243Y379171D01*
X401424Y379534D01*
X401787Y379896D01*
X402150Y380078D01*
X402876D01*
X403238Y379896D01*
X403601Y379534D01*
X403782Y379171D01*
X405034Y377175D02*
Y376994D01*
X405215Y376631D01*
X405397Y376450D01*
X405760Y376268D01*
X406485D01*
X406848Y376450D01*
X407029Y376631D01*
X407211Y376994D01*
Y377357D01*
X407029Y377720D01*
X406666Y378264D01*
X404853Y380078D01*
X407392D01*
X408245Y376994D02*
X408607Y376813D01*
X409152Y376268D01*
Y380078D01*
X413577Y376268D02*
X411764Y380078D01*
X411038Y376268D02*
X413577D01*
X413772Y345997D02*
X413591Y345634D01*
X413228Y345271D01*
X412865Y345090D01*
X412140D01*
X411777Y345271D01*
X411414Y345634D01*
X411233Y345997D01*
X411051Y346541D01*
Y347448D01*
X411233Y347992D01*
X411414Y348355D01*
X411777Y348718D01*
X412140Y348899D01*
X412865D01*
X413228Y348718D01*
X413591Y348355D01*
X413772Y347992D01*
X415024Y345997D02*
Y345816D01*
X415205Y345453D01*
X415387Y345271D01*
X415749Y345090D01*
X416475D01*
X416838Y345271D01*
X417019Y345453D01*
X417201Y345816D01*
Y346178D01*
X417019Y346541D01*
X416656Y347085D01*
X414842Y348899D01*
X417382D01*
X418234Y345816D02*
X418597Y345634D01*
X419141Y345090D01*
Y348899D01*
X421935Y345090D02*
X421391Y345271D01*
X421209Y345634D01*
Y345997D01*
X421391Y346360D01*
X421753Y346541D01*
X422479Y346722D01*
X423023Y346904D01*
X423386Y347267D01*
X423567Y347629D01*
Y348174D01*
X423386Y348536D01*
X423204Y348718D01*
X422660Y348899D01*
X421935D01*
X421391Y348718D01*
X421209Y348536D01*
X421028Y348174D01*
Y347629D01*
X421209Y347267D01*
X421572Y346904D01*
X422116Y346722D01*
X422842Y346541D01*
X423204Y346360D01*
X423386Y345997D01*
Y345634D01*
X423204Y345271D01*
X422660Y345090D01*
X421935D01*
X286992Y412965D02*
X287173Y413328D01*
X287536Y413691D01*
X287899Y413872D01*
X288624D01*
X288987Y413691D01*
X289350Y413328D01*
X289531Y412965D01*
X289713Y412421D01*
Y411514D01*
X289531Y410970D01*
X289350Y410607D01*
X288987Y410244D01*
X288624Y410063D01*
X287899D01*
X287536Y410244D01*
X287173Y410607D01*
X286992Y410970D01*
X285740Y412965D02*
Y413147D01*
X285559Y413509D01*
X285377Y413691D01*
X285014Y413872D01*
X284289D01*
X283926Y413691D01*
X283745Y413509D01*
X283563Y413147D01*
Y412784D01*
X283745Y412421D01*
X284107Y411877D01*
X285921Y410063D01*
X283382D01*
X282529Y413147D02*
X282167Y413328D01*
X281623Y413872D01*
Y410063D01*
X277378Y412603D02*
X277559Y412058D01*
X277922Y411696D01*
X278466Y411514D01*
X278648D01*
X279192Y411696D01*
X279555Y412058D01*
X279736Y412603D01*
Y412784D01*
X279555Y413328D01*
X279192Y413691D01*
X278648Y413872D01*
X278466D01*
X277922Y413691D01*
X277559Y413328D01*
X277378Y412603D01*
Y411696D01*
X277559Y410789D01*
X277922Y410244D01*
X278466Y410063D01*
X278829D01*
X279373Y410244D01*
X279555Y410607D01*
X300531Y364522D02*
X300713Y364885D01*
X301075Y365248D01*
X301438Y365429D01*
X302164D01*
X302526Y365248D01*
X302889Y364885D01*
X303071Y364522D01*
X303252Y363978D01*
Y363071D01*
X303071Y362527D01*
X302889Y362164D01*
X302526Y361801D01*
X302164Y361620D01*
X301438D01*
X301075Y361801D01*
X300713Y362164D01*
X300531Y362527D01*
X299280Y364522D02*
Y364704D01*
X299098Y365067D01*
X298917Y365248D01*
X298554Y365429D01*
X297829D01*
X297466Y365248D01*
X297284Y365067D01*
X297103Y364704D01*
Y364341D01*
X297284Y363978D01*
X297647Y363434D01*
X299461Y361620D01*
X296922D01*
X295888Y364522D02*
Y364704D01*
X295706Y365067D01*
X295525Y365248D01*
X295162Y365429D01*
X294436D01*
X294074Y365248D01*
X293892Y365067D01*
X293711Y364704D01*
Y364341D01*
X293892Y363978D01*
X294255Y363434D01*
X296069Y361620D01*
X293529D01*
X291589Y365429D02*
X292133Y365248D01*
X292496Y364704D01*
X292677Y363797D01*
Y363253D01*
X292496Y362346D01*
X292133Y361801D01*
X291589Y361620D01*
X291226D01*
X290682Y361801D01*
X290319Y362346D01*
X290138Y363253D01*
Y363797D01*
X290319Y364704D01*
X290682Y365248D01*
X291226Y365429D01*
X291589D01*
X390111Y405294D02*
X390292Y405657D01*
X390655Y406020D01*
X391018Y406201D01*
X391744D01*
X392106Y406020D01*
X392469Y405657D01*
X392650Y405294D01*
X392832Y404750D01*
Y403843D01*
X392650Y403299D01*
X392469Y402936D01*
X392106Y402574D01*
X391744Y402392D01*
X391018D01*
X390655Y402574D01*
X390292Y402936D01*
X390111Y403299D01*
X388859Y405294D02*
Y405476D01*
X388678Y405839D01*
X388497Y406020D01*
X388134Y406201D01*
X387408D01*
X387046Y406020D01*
X386864Y405839D01*
X386683Y405476D01*
Y405113D01*
X386864Y404750D01*
X387227Y404206D01*
X389041Y402392D01*
X386501D01*
X385467Y405294D02*
Y405476D01*
X385286Y405839D01*
X385105Y406020D01*
X384742Y406201D01*
X384016D01*
X383653Y406020D01*
X383472Y405839D01*
X383291Y405476D01*
Y405113D01*
X383472Y404750D01*
X383835Y404206D01*
X385649Y402392D01*
X383109D01*
X382257Y405476D02*
X381894Y405657D01*
X381350Y406201D01*
Y402392D01*
X300689Y322513D02*
X300870Y322876D01*
X301233Y323239D01*
X301596Y323420D01*
X302321D01*
X302684Y323239D01*
X303047Y322876D01*
X303228Y322513D01*
X303410Y321969D01*
Y321062D01*
X303228Y320518D01*
X303047Y320155D01*
X302684Y319792D01*
X302321Y319611D01*
X301596D01*
X301233Y319792D01*
X300870Y320155D01*
X300689Y320518D01*
X299437Y322513D02*
Y322695D01*
X299256Y323058D01*
X299074Y323239D01*
X298711Y323420D01*
X297986D01*
X297623Y323239D01*
X297442Y323058D01*
X297260Y322695D01*
Y322332D01*
X297442Y321969D01*
X297805Y321425D01*
X299618Y319611D01*
X297079D01*
X296045Y322513D02*
Y322695D01*
X295864Y323058D01*
X295682Y323239D01*
X295319Y323420D01*
X294594D01*
X294231Y323239D01*
X294050Y323058D01*
X293868Y322695D01*
Y322332D01*
X294050Y321969D01*
X294413Y321425D01*
X296227Y319611D01*
X293687D01*
X292653Y322513D02*
Y322695D01*
X292472Y323058D01*
X292290Y323239D01*
X291928Y323420D01*
X291202D01*
X290839Y323239D01*
X290658Y323058D01*
X290476Y322695D01*
Y322332D01*
X290658Y321969D01*
X291021Y321425D01*
X292834Y319611D01*
X290295D01*
X604918Y232523D02*
X605281Y232341D01*
X605644Y231978D01*
X605825Y231616D01*
Y230890D01*
X605644Y230527D01*
X605281Y230165D01*
X604918Y229983D01*
X604374Y229802D01*
X603467D01*
X602923Y229983D01*
X602560Y230165D01*
X602197Y230527D01*
X602016Y230890D01*
Y231616D01*
X602197Y231978D01*
X602560Y232341D01*
X602923Y232523D01*
X605825Y235770D02*
Y233956D01*
X604193Y233774D01*
X604374Y233956D01*
X604555Y234500D01*
Y235044D01*
X604374Y235588D01*
X604011Y235951D01*
X603467Y236132D01*
X603104D01*
X602560Y235951D01*
X602197Y235588D01*
X602016Y235044D01*
Y234500D01*
X602197Y233956D01*
X602379Y233774D01*
X602742Y233593D01*
X605825Y238073D02*
X605644Y237529D01*
X605100Y237166D01*
X604193Y236985D01*
X603648D01*
X602742Y237166D01*
X602197Y237529D01*
X602016Y238073D01*
Y238436D01*
X602197Y238980D01*
X602742Y239343D01*
X603648Y239524D01*
X604193D01*
X605100Y239343D01*
X605644Y238980D01*
X605825Y238436D01*
Y238073D01*
X604555Y242735D02*
X604011Y242553D01*
X603648Y242191D01*
X603467Y241646D01*
Y241465D01*
X603648Y240921D01*
X604011Y240558D01*
X604555Y240377D01*
X604737D01*
X605281Y240558D01*
X605644Y240921D01*
X605825Y241465D01*
Y241646D01*
X605644Y242191D01*
X605281Y242553D01*
X604555Y242735D01*
X603648D01*
X602742Y242553D01*
X602197Y242191D01*
X602016Y241646D01*
Y241284D01*
X602197Y240739D01*
X602560Y240558D01*
X572990Y366421D02*
X573353Y366240D01*
X573716Y365877D01*
X573897Y365514D01*
Y364789D01*
X573716Y364426D01*
X573353Y364063D01*
X572990Y363882D01*
X572446Y363700D01*
X571539D01*
X570995Y363882D01*
X570632Y364063D01*
X570270Y364426D01*
X570088Y364789D01*
Y365514D01*
X570270Y365877D01*
X570632Y366240D01*
X570995Y366421D01*
X573172Y367491D02*
X573353Y367854D01*
X573897Y368398D01*
X570088D01*
X573172Y370285D02*
X573353Y370648D01*
X573897Y371192D01*
X570088D01*
X573897Y373985D02*
X573716Y373441D01*
X573353Y373260D01*
X572990D01*
X572628Y373441D01*
X572446Y373804D01*
X572265Y374529D01*
X572084Y375073D01*
X571721Y375436D01*
X571358Y375618D01*
X570814D01*
X570451Y375436D01*
X570270Y375255D01*
X570088Y374711D01*
Y373985D01*
X570270Y373441D01*
X570451Y373260D01*
X570814Y373078D01*
X571358D01*
X571721Y373260D01*
X572084Y373622D01*
X572265Y374166D01*
X572446Y374892D01*
X572628Y375255D01*
X572990Y375436D01*
X573353D01*
X573716Y375255D01*
X573897Y374711D01*
Y373985D01*
X506993Y376380D02*
X506811Y376018D01*
X506449Y375655D01*
X506086Y375473D01*
X505360D01*
X504997Y375655D01*
X504635Y376018D01*
X504453Y376380D01*
X504272Y376925D01*
Y377831D01*
X504453Y378376D01*
X504635Y378738D01*
X504997Y379101D01*
X505360Y379283D01*
X506086D01*
X506449Y379101D01*
X506811Y378738D01*
X506993Y378376D01*
X508063Y376199D02*
X508426Y376018D01*
X508970Y375473D01*
Y379283D01*
X511219Y375473D02*
X513214D01*
X512126Y376925D01*
X512670D01*
X513033Y377106D01*
X513214Y377287D01*
X513396Y377831D01*
Y378194D01*
X513214Y378738D01*
X512852Y379101D01*
X512308Y379283D01*
X511763D01*
X511219Y379101D01*
X511038Y378920D01*
X510856Y378557D01*
X515155Y375473D02*
X514611Y375655D01*
X514430Y376018D01*
Y376380D01*
X514611Y376743D01*
X514974Y376925D01*
X515700Y377106D01*
X516244Y377287D01*
X516606Y377650D01*
X516788Y378013D01*
Y378557D01*
X516606Y378920D01*
X516425Y379101D01*
X515881Y379283D01*
X515155D01*
X514611Y379101D01*
X514430Y378920D01*
X514248Y378557D01*
Y378013D01*
X514430Y377650D01*
X514793Y377287D01*
X515337Y377106D01*
X516062Y376925D01*
X516425Y376743D01*
X516606Y376380D01*
Y376018D01*
X516425Y375655D01*
X515881Y375473D01*
X515155D01*
X520599Y431033D02*
X524408D01*
X520599D02*
Y429400D01*
X520780Y428856D01*
X520962Y428675D01*
X521324Y428494D01*
X521687D01*
X522050Y428675D01*
X522231Y428856D01*
X522413Y429400D01*
Y431033D01*
Y429763D02*
X524408Y428494D01*
X520599Y427278D02*
Y425283D01*
X522050Y426371D01*
Y425827D01*
X522231Y425464D01*
X522413Y425283D01*
X522957Y425102D01*
X523320D01*
X523864Y425283D01*
X524227Y425646D01*
X524408Y426190D01*
Y426734D01*
X524227Y427278D01*
X524045Y427460D01*
X523682Y427641D01*
X520599Y423161D02*
X520780Y423705D01*
X521324Y424068D01*
X522231Y424249D01*
X522775D01*
X523682Y424068D01*
X524227Y423705D01*
X524408Y423161D01*
Y422798D01*
X524227Y422254D01*
X523682Y421891D01*
X522775Y421710D01*
X522231D01*
X521324Y421891D01*
X520780Y422254D01*
X520599Y422798D01*
Y423161D01*
X521506Y420676D02*
X521324D01*
X520962Y420494D01*
X520780Y420313D01*
X520599Y419950D01*
Y419225D01*
X520780Y418862D01*
X520962Y418680D01*
X521324Y418499D01*
X521687D01*
X522050Y418680D01*
X522594Y419043D01*
X524408Y420857D01*
Y418318D01*
X543413Y606290D02*
X547222D01*
X543413D02*
Y604657D01*
X543595Y604113D01*
X543776Y603932D01*
X544139Y603750D01*
X544501D01*
X544864Y603932D01*
X545046Y604113D01*
X545227Y604657D01*
Y606290D01*
Y605020D02*
X547222Y603750D01*
X543413Y602535D02*
Y600540D01*
X544864Y601628D01*
Y601084D01*
X545046Y600721D01*
X545227Y600540D01*
X545771Y600358D01*
X546134D01*
X546678Y600540D01*
X547041Y600902D01*
X547222Y601447D01*
Y601991D01*
X547041Y602535D01*
X546860Y602716D01*
X546497Y602898D01*
X543413Y598417D02*
X543595Y598962D01*
X544139Y599324D01*
X545046Y599506D01*
X545590D01*
X546497Y599324D01*
X547041Y598962D01*
X547222Y598417D01*
Y598055D01*
X547041Y597510D01*
X546497Y597148D01*
X545590Y596966D01*
X545046D01*
X544139Y597148D01*
X543595Y597510D01*
X543413Y598055D01*
Y598417D01*
Y594300D02*
X545953Y596114D01*
Y593393D01*
X543413Y594300D02*
X547222D01*
X323223Y349417D02*
X322860Y349598D01*
X322498Y349961D01*
X322316Y350324D01*
Y351049D01*
X322498Y351412D01*
X322860Y351775D01*
X323223Y351956D01*
X323767Y352138D01*
X324674D01*
X325219Y351956D01*
X325581Y351775D01*
X325944Y351412D01*
X326125Y351049D01*
Y350324D01*
X325944Y349961D01*
X325581Y349598D01*
X325219Y349417D01*
X323223Y348165D02*
X323042D01*
X322679Y347984D01*
X322498Y347803D01*
X322316Y347440D01*
Y346714D01*
X322498Y346351D01*
X322679Y346170D01*
X323042Y345989D01*
X323405D01*
X323767Y346170D01*
X324311Y346533D01*
X326125Y348347D01*
Y345807D01*
X322316Y343866D02*
X322498Y344411D01*
X323042Y344773D01*
X323949Y344955D01*
X324493D01*
X325400Y344773D01*
X325944Y344411D01*
X326125Y343866D01*
Y343503D01*
X325944Y342959D01*
X325400Y342597D01*
X324493Y342415D01*
X323949D01*
X323042Y342597D01*
X322498Y342959D01*
X322316Y343503D01*
Y343866D01*
X323586Y339205D02*
X324130Y339386D01*
X324493Y339749D01*
X324674Y340293D01*
Y340474D01*
X324493Y341018D01*
X324130Y341381D01*
X323586Y341563D01*
X323405D01*
X322860Y341381D01*
X322498Y341018D01*
X322316Y340474D01*
Y340293D01*
X322498Y339749D01*
X322860Y339386D01*
X323586Y339205D01*
X324493D01*
X325400Y339386D01*
X325944Y339749D01*
X326125Y340293D01*
Y340656D01*
X325944Y341200D01*
X325581Y341381D01*
X518531Y389357D02*
X518350Y388994D01*
X517987Y388632D01*
X517624Y388450D01*
X516899D01*
X516536Y388632D01*
X516173Y388994D01*
X515992Y389357D01*
X515810Y389901D01*
Y390808D01*
X515992Y391353D01*
X516173Y391715D01*
X516536Y392078D01*
X516899Y392259D01*
X517624D01*
X517987Y392078D01*
X518350Y391715D01*
X518531Y391353D01*
X519601Y389176D02*
X519964Y388994D01*
X520508Y388450D01*
Y392259D01*
X523483Y388450D02*
X522939Y388632D01*
X522576Y389176D01*
X522395Y390083D01*
Y390627D01*
X522576Y391534D01*
X522939Y392078D01*
X523483Y392259D01*
X523846D01*
X524390Y392078D01*
X524753Y391534D01*
X524934Y390627D01*
Y390083D01*
X524753Y389176D01*
X524390Y388632D01*
X523846Y388450D01*
X523483D01*
X528145Y389720D02*
X527963Y390264D01*
X527601Y390627D01*
X527057Y390808D01*
X526875D01*
X526331Y390627D01*
X525968Y390264D01*
X525787Y389720D01*
Y389539D01*
X525968Y388994D01*
X526331Y388632D01*
X526875Y388450D01*
X527057D01*
X527601Y388632D01*
X527963Y388994D01*
X528145Y389720D01*
Y390627D01*
X527963Y391534D01*
X527601Y392078D01*
X527057Y392259D01*
X526694D01*
X526150Y392078D01*
X525968Y391715D01*
X411794Y387404D02*
Y391213D01*
Y387404D02*
X413427D01*
X413971Y387585D01*
X414152Y387767D01*
X414334Y388129D01*
Y388492D01*
X414152Y388855D01*
X413971Y389036D01*
X413427Y389218D01*
X411794D01*
X413064D02*
X414334Y391213D01*
X415368Y388311D02*
Y388129D01*
X415549Y387767D01*
X415730Y387585D01*
X416093Y387404D01*
X416819D01*
X417181Y387585D01*
X417363Y387767D01*
X417544Y388129D01*
Y388492D01*
X417363Y388855D01*
X417000Y389399D01*
X415186Y391213D01*
X417726D01*
X419666Y387404D02*
X419122Y387585D01*
X418759Y388129D01*
X418578Y389036D01*
Y389580D01*
X418759Y390487D01*
X419122Y391032D01*
X419666Y391213D01*
X420029D01*
X420573Y391032D01*
X420936Y390487D01*
X421118Y389580D01*
Y389036D01*
X420936Y388129D01*
X420573Y387585D01*
X420029Y387404D01*
X419666D01*
X424328Y388674D02*
X424147Y389218D01*
X423784Y389580D01*
X423240Y389762D01*
X423058D01*
X422514Y389580D01*
X422151Y389218D01*
X421970Y388674D01*
Y388492D01*
X422151Y387948D01*
X422514Y387585D01*
X423058Y387404D01*
X423240D01*
X423784Y387585D01*
X424147Y387948D01*
X424328Y388674D01*
Y389580D01*
X424147Y390487D01*
X423784Y391032D01*
X423240Y391213D01*
X422877D01*
X422333Y391032D01*
X422151Y390669D01*
X537193Y548279D02*
X536830Y548460D01*
X536467Y548823D01*
X536286Y549185D01*
Y549911D01*
X536467Y550274D01*
X536830Y550637D01*
X537193Y550818D01*
X537737Y550999D01*
X538644D01*
X539188Y550818D01*
X539551Y550637D01*
X539914Y550274D01*
X540095Y549911D01*
Y549185D01*
X539914Y548823D01*
X539551Y548460D01*
X539188Y548279D01*
X536286Y546301D02*
X536467Y546846D01*
X536830Y547027D01*
X537193D01*
X537556Y546846D01*
X537737Y546483D01*
X537918Y545757D01*
X538100Y545213D01*
X538462Y544850D01*
X538825Y544669D01*
X539370D01*
X539732Y544850D01*
X539914Y545032D01*
X540095Y545576D01*
Y546301D01*
X539914Y546846D01*
X539732Y547027D01*
X539370Y547208D01*
X538825D01*
X538462Y547027D01*
X538100Y546664D01*
X537918Y546120D01*
X537737Y545394D01*
X537556Y545032D01*
X537193Y544850D01*
X536830D01*
X536467Y545032D01*
X536286Y545576D01*
Y546301D01*
Y542728D02*
X536467Y543272D01*
X537011Y543635D01*
X537918Y543816D01*
X538462D01*
X539370Y543635D01*
X539914Y543272D01*
X540095Y542728D01*
Y542365D01*
X539914Y541821D01*
X539370Y541458D01*
X538462Y541277D01*
X537918D01*
X537011Y541458D01*
X536467Y541821D01*
X536286Y542365D01*
Y542728D01*
X537556Y538066D02*
X538100Y538248D01*
X538462Y538610D01*
X538644Y539155D01*
Y539336D01*
X538462Y539880D01*
X538100Y540243D01*
X537556Y540424D01*
X537374D01*
X536830Y540243D01*
X536467Y539880D01*
X536286Y539336D01*
Y539155D01*
X536467Y538610D01*
X536830Y538248D01*
X537556Y538066D01*
X538462D01*
X539370Y538248D01*
X539914Y538610D01*
X540095Y539155D01*
Y539517D01*
X539914Y540061D01*
X539551Y540243D01*
X492942Y358043D02*
X493124Y358406D01*
X493487Y358768D01*
X493849Y358950D01*
X494575D01*
X494938Y358768D01*
X495300Y358406D01*
X495482Y358043D01*
X495663Y357499D01*
Y356592D01*
X495482Y356048D01*
X495300Y355685D01*
X494938Y355322D01*
X494575Y355141D01*
X493849D01*
X493487Y355322D01*
X493124Y355685D01*
X492942Y356048D01*
X491872Y358224D02*
X491510Y358406D01*
X490965Y358950D01*
Y355141D01*
X486902Y358950D02*
X488716D01*
X488898Y357317D01*
X488716Y357499D01*
X488172Y357680D01*
X487628D01*
X487084Y357499D01*
X486721Y357136D01*
X486539Y356592D01*
Y356229D01*
X486721Y355685D01*
X487084Y355322D01*
X487628Y355141D01*
X488172D01*
X488716Y355322D01*
X488898Y355503D01*
X489079Y355866D01*
X483510Y358406D02*
X483692Y358768D01*
X484236Y358950D01*
X484599D01*
X485143Y358768D01*
X485505Y358224D01*
X485687Y357317D01*
Y356410D01*
X485505Y355685D01*
X485143Y355322D01*
X484599Y355141D01*
X484417D01*
X483873Y355322D01*
X483510Y355685D01*
X483329Y356229D01*
Y356410D01*
X483510Y356954D01*
X483873Y357317D01*
X484417Y357499D01*
X484599D01*
X485143Y357317D01*
X485505Y356954D01*
X485687Y356410D01*
X517030Y574687D02*
Y571785D01*
X517211Y571241D01*
X517393Y571059D01*
X517755Y570878D01*
X518118D01*
X518481Y571059D01*
X518662Y571241D01*
X518844Y571785D01*
Y572148D01*
X515143Y574687D02*
X515687Y574506D01*
X515869Y574143D01*
Y573780D01*
X515687Y573418D01*
X515325Y573236D01*
X514599Y573055D01*
X514055Y572873D01*
X513692Y572511D01*
X513511Y572148D01*
Y571604D01*
X513692Y571241D01*
X513874Y571059D01*
X514418Y570878D01*
X515143D01*
X515687Y571059D01*
X515869Y571241D01*
X516050Y571604D01*
Y572148D01*
X515869Y572511D01*
X515506Y572873D01*
X514962Y573055D01*
X514236Y573236D01*
X513874Y573418D01*
X513692Y573780D01*
Y574143D01*
X513874Y574506D01*
X514418Y574687D01*
X515143D01*
X511570D02*
X512114Y574506D01*
X512477Y573962D01*
X512658Y573055D01*
Y572511D01*
X512477Y571604D01*
X512114Y571059D01*
X511570Y570878D01*
X511207D01*
X510663Y571059D01*
X510300Y571604D01*
X510119Y572511D01*
Y573055D01*
X510300Y573962D01*
X510663Y574506D01*
X511207Y574687D01*
X511570D01*
X509085Y573780D02*
Y573962D01*
X508904Y574324D01*
X508722Y574506D01*
X508359Y574687D01*
X507634D01*
X507271Y574506D01*
X507090Y574324D01*
X506908Y573962D01*
Y573599D01*
X507090Y573236D01*
X507453Y572692D01*
X509266Y570878D01*
X506727D01*
X303034Y98985D02*
X303397Y98804D01*
X303760Y98441D01*
X303941Y98078D01*
Y97353D01*
X303760Y96990D01*
X303397Y96627D01*
X303034Y96446D01*
X302490Y96264D01*
X301583D01*
X301039Y96446D01*
X300676Y96627D01*
X300313Y96990D01*
X300132Y97353D01*
Y98078D01*
X300313Y98441D01*
X300676Y98804D01*
X301039Y98985D01*
X303941Y102595D02*
X300132Y100781D01*
X303941Y100056D02*
Y102595D01*
X303034Y103629D02*
X303216D01*
X303578Y103810D01*
X303760Y103992D01*
X303941Y104354D01*
Y105080D01*
X303760Y105443D01*
X303578Y105624D01*
X303216Y105806D01*
X302853D01*
X302490Y105624D01*
X301946Y105261D01*
X300132Y103448D01*
Y105987D01*
X303941Y109016D02*
Y107202D01*
X302309Y107021D01*
X302490Y107202D01*
X302671Y107746D01*
Y108291D01*
X302490Y108835D01*
X302127Y109198D01*
X301583Y109379D01*
X301220D01*
X300676Y109198D01*
X300313Y108835D01*
X300132Y108291D01*
Y107746D01*
X300313Y107202D01*
X300495Y107021D01*
X300858Y106840D01*
X569427Y190079D02*
X569246Y189716D01*
X568883Y189353D01*
X568520Y189172D01*
X567795D01*
X567432Y189353D01*
X567069Y189716D01*
X566888Y190079D01*
X566707Y190623D01*
Y191530D01*
X566888Y192074D01*
X567069Y192437D01*
X567432Y192800D01*
X567795Y192981D01*
X568520D01*
X568883Y192800D01*
X569246Y192437D01*
X569427Y192074D01*
X572674Y189172D02*
X570860D01*
X570679Y190805D01*
X570860Y190623D01*
X571404Y190442D01*
X571949D01*
X572493Y190623D01*
X572856Y190986D01*
X573037Y191530D01*
Y191893D01*
X572856Y192437D01*
X572493Y192800D01*
X571949Y192981D01*
X571404D01*
X570860Y192800D01*
X570679Y192618D01*
X570498Y192256D01*
X574978Y189172D02*
X574434Y189353D01*
X574071Y189898D01*
X573890Y190805D01*
Y191349D01*
X574071Y192256D01*
X574434Y192800D01*
X574978Y192981D01*
X575341D01*
X575885Y192800D01*
X576248Y192256D01*
X576429Y191349D01*
Y190805D01*
X576248Y189898D01*
X575885Y189353D01*
X575341Y189172D01*
X574978D01*
X577281Y189898D02*
X577644Y189716D01*
X578189Y189172D01*
Y192981D01*
M02*
