G04*
G04 #@! TF.GenerationSoftware,Altium Limited,Altium Designer,25.7.1 (20)*
G04*
G04 Layer_Color=10063769*
%FSLAX44Y44*%
%MOMM*%
G71*
G04*
G04 #@! TF.SameCoordinates,73AB98AC-F87E-4787-825B-23B2420A13CA*
G04*
G04*
G04 #@! TF.FilePolarity,Positive*
G04*
G01*
G75*
%ADD98C,0.0254*%
G36*
X574360Y540019D02*
X574571D01*
Y524439D01*
X574360D01*
Y523649D01*
X564200D01*
Y524439D01*
X563989D01*
Y540019D01*
X564200D01*
Y540809D01*
X574360D01*
Y540019D01*
D02*
G37*
G36*
X563509Y539938D02*
X563720D01*
Y524358D01*
X563509D01*
Y523568D01*
X553349D01*
Y524358D01*
X553138D01*
Y539938D01*
X553349D01*
Y540728D01*
X563509D01*
Y539938D01*
D02*
G37*
G36*
X549359Y605531D02*
X549509D01*
Y602590D01*
X610014D01*
Y595732D01*
X614086D01*
Y549834D01*
X610014D01*
Y542976D01*
X551419D01*
Y540700D01*
X552544D01*
Y539910D01*
X552755D01*
Y524330D01*
X552544D01*
Y523540D01*
X542384D01*
Y524330D01*
X542173D01*
Y537822D01*
X534149D01*
Y538843D01*
X533999D01*
Y542976D01*
X415557D01*
Y549834D01*
X411485D01*
Y595732D01*
X415557D01*
Y602590D01*
X541127D01*
Y605531D01*
X541277D01*
Y606552D01*
X549359D01*
Y605531D01*
D02*
G37*
G36*
X590227Y539859D02*
X590438D01*
Y524279D01*
X590227D01*
Y523489D01*
X580067D01*
Y524279D01*
X579857D01*
Y539859D01*
X580067D01*
Y540649D01*
X590227D01*
Y539859D01*
D02*
G37*
G36*
X491805Y439473D02*
X492595D01*
Y429313D01*
X491805D01*
Y429103D01*
X476225D01*
Y429313D01*
X475435D01*
Y439473D01*
X476225D01*
Y439684D01*
X491805D01*
Y439473D01*
D02*
G37*
G36*
X324150Y435361D02*
X324940D01*
Y425201D01*
X324150D01*
Y424990D01*
X308569D01*
Y425201D01*
X307779D01*
Y435361D01*
X308569D01*
Y435572D01*
X324150D01*
Y435361D01*
D02*
G37*
G36*
X342943Y435201D02*
X343733D01*
Y425041D01*
X342943D01*
Y424830D01*
X327363D01*
Y425041D01*
X326573D01*
Y435201D01*
X327363D01*
Y435412D01*
X342943D01*
Y435201D01*
D02*
G37*
G36*
X303337Y434193D02*
X304127D01*
Y424033D01*
X303337D01*
Y423822D01*
X287757D01*
Y424033D01*
X286967D01*
Y434193D01*
X287757D01*
Y434403D01*
X303337D01*
Y434193D01*
D02*
G37*
G36*
X385234Y433695D02*
X386024D01*
Y423535D01*
X385234D01*
Y423324D01*
X369654D01*
Y423535D01*
X368864D01*
Y433695D01*
X369654D01*
Y433906D01*
X385234D01*
Y433695D01*
D02*
G37*
G36*
X546557Y431328D02*
X546707D01*
Y419948D01*
X546557D01*
Y418927D01*
X538475D01*
Y419948D01*
X538325D01*
Y431328D01*
X538475D01*
Y432349D01*
X546557D01*
Y431328D01*
D02*
G37*
G36*
X529874Y437700D02*
X530896D01*
Y429618D01*
X529874D01*
Y429468D01*
X526694D01*
Y418986D01*
X526544D01*
Y417965D01*
X518462D01*
Y418986D01*
X518312D01*
Y429618D01*
X517474D01*
Y437700D01*
X518495D01*
Y437850D01*
X529874D01*
Y437700D01*
D02*
G37*
G36*
X556547Y429052D02*
X556697D01*
Y417673D01*
X556547D01*
Y416651D01*
X548465D01*
Y417673D01*
X548315D01*
Y429052D01*
X548465D01*
Y430073D01*
X556547D01*
Y429052D01*
D02*
G37*
G36*
X398066Y423296D02*
X399087D01*
Y415214D01*
X398066D01*
Y415064D01*
X386687D01*
Y415214D01*
X385666D01*
Y423296D01*
X386687D01*
Y423446D01*
X398066D01*
Y423296D01*
D02*
G37*
G36*
X566102Y424706D02*
X566252D01*
Y413327D01*
X566102D01*
Y412305D01*
X558020D01*
Y413327D01*
X557870D01*
Y424706D01*
X558020D01*
Y425727D01*
X566102D01*
Y424706D01*
D02*
G37*
G36*
X505290Y423926D02*
X505440D01*
Y412547D01*
X505290D01*
Y411526D01*
X497207D01*
Y412547D01*
X497058D01*
Y423926D01*
X497207D01*
Y424947D01*
X505290D01*
Y423926D01*
D02*
G37*
G36*
X412598Y423786D02*
X412747D01*
Y412407D01*
X412598D01*
Y411386D01*
X404515D01*
Y412407D01*
X404366D01*
Y423786D01*
X404515D01*
Y424807D01*
X412598D01*
Y423786D01*
D02*
G37*
G36*
X370312Y420395D02*
X370462D01*
Y409016D01*
X370312D01*
Y407995D01*
X362229D01*
Y409016D01*
X362080D01*
Y420395D01*
X362229D01*
Y421417D01*
X370312D01*
Y420395D01*
D02*
G37*
G36*
X289235Y416009D02*
X290256D01*
Y407926D01*
X289235D01*
Y407777D01*
X277856D01*
Y407926D01*
X276835D01*
Y416009D01*
X277856D01*
Y416159D01*
X289235D01*
Y416009D01*
D02*
G37*
G36*
X505000Y410970D02*
X506021D01*
Y402887D01*
X505000D01*
Y402737D01*
X493621D01*
Y402887D01*
X492600D01*
Y410970D01*
X493621D01*
Y411119D01*
X505000D01*
Y410970D01*
D02*
G37*
G36*
X563204Y410621D02*
X564225D01*
Y402539D01*
X563204D01*
Y402389D01*
X551825D01*
Y402539D01*
X550804D01*
Y410621D01*
X551825D01*
Y410771D01*
X563204D01*
Y410621D01*
D02*
G37*
G36*
X392780Y408338D02*
X393802D01*
Y400256D01*
X392780D01*
Y400106D01*
X381401D01*
Y400256D01*
X380380D01*
Y408338D01*
X381401D01*
Y408488D01*
X392780D01*
Y408338D01*
D02*
G37*
G36*
X559994Y400916D02*
X561015D01*
Y392834D01*
X559994D01*
Y392684D01*
X548615D01*
Y392834D01*
X547593D01*
Y400916D01*
X548615D01*
Y401066D01*
X559994D01*
Y400916D01*
D02*
G37*
G36*
X89238Y408462D02*
X89449D01*
Y392882D01*
X89238D01*
Y392092D01*
X79078D01*
Y392882D01*
X78867D01*
Y408462D01*
X79078D01*
Y409252D01*
X89238D01*
Y408462D01*
D02*
G37*
G36*
X102108Y408033D02*
X102319D01*
Y392453D01*
X102108D01*
Y391663D01*
X91948D01*
Y392453D01*
X91737D01*
Y408033D01*
X91948D01*
Y408823D01*
X102108D01*
Y408033D01*
D02*
G37*
G36*
X506100Y402021D02*
X506890D01*
Y391861D01*
X506100D01*
Y391650D01*
X490520D01*
Y391861D01*
X489730D01*
Y402021D01*
X490520D01*
Y402232D01*
X506100D01*
Y402021D01*
D02*
G37*
G36*
X368762Y401932D02*
X369552D01*
Y391772D01*
X368762D01*
Y391561D01*
X353182D01*
Y391772D01*
X352392D01*
Y401932D01*
X353182D01*
Y402143D01*
X368762D01*
Y401932D01*
D02*
G37*
G36*
X515719Y424050D02*
X515869D01*
Y412671D01*
Y401856D01*
X518135D01*
Y412963D01*
X518284D01*
Y413984D01*
X526367D01*
Y412963D01*
X526517D01*
Y401584D01*
X526367D01*
Y400715D01*
X528457D01*
Y409969D01*
X528607D01*
Y410990D01*
X536689D01*
Y409969D01*
X536839D01*
Y400977D01*
X538305D01*
Y410522D01*
X538455D01*
Y411544D01*
X546537D01*
Y410522D01*
X546687D01*
Y399143D01*
X546537D01*
Y398122D01*
X546385D01*
Y392745D01*
X545363D01*
Y392595D01*
X539509D01*
Y387139D01*
X538488D01*
Y386989D01*
X528688D01*
Y386314D01*
X527667D01*
Y386164D01*
X516352D01*
Y382689D01*
X515330D01*
Y382549D01*
X527903D01*
Y385247D01*
X528053D01*
Y386268D01*
X536136D01*
Y386243D01*
X541073D01*
Y385221D01*
X541223D01*
Y381610D01*
X550928D01*
Y381460D01*
X551950D01*
Y373377D01*
X550928D01*
Y373228D01*
X546042D01*
Y362984D01*
X545892D01*
Y361963D01*
X537809D01*
Y362984D01*
X537660D01*
Y372821D01*
X536799D01*
Y363306D01*
X536649D01*
Y362285D01*
X528566D01*
Y363306D01*
X528416D01*
Y371968D01*
X526291D01*
Y360746D01*
X526141D01*
Y359725D01*
X518058D01*
Y360746D01*
X517909D01*
Y371968D01*
X516567D01*
Y363878D01*
X516418D01*
Y362857D01*
X508335D01*
Y363878D01*
X508185D01*
Y373187D01*
X506921D01*
Y371871D01*
X506131D01*
Y371660D01*
X490550D01*
Y371871D01*
X489760D01*
Y382031D01*
X490550D01*
Y382242D01*
X506131D01*
Y382031D01*
X506921D01*
Y381569D01*
X514012D01*
Y382339D01*
X514802D01*
Y382539D01*
X503951D01*
Y382689D01*
X502930D01*
Y383174D01*
X493027D01*
Y383324D01*
X492006D01*
Y391406D01*
X493027D01*
Y391556D01*
X504406D01*
Y391406D01*
X505427D01*
Y390921D01*
X515267D01*
Y391274D01*
X508188D01*
Y391485D01*
X507398D01*
Y401645D01*
X507487D01*
Y412671D01*
Y424050D01*
X507637D01*
Y425071D01*
X515719D01*
Y424050D01*
D02*
G37*
G36*
X423751Y393349D02*
X424772D01*
Y385267D01*
X423751D01*
Y385117D01*
X412371D01*
Y385267D01*
X411351D01*
Y393349D01*
X412371D01*
Y393499D01*
X423751D01*
Y393349D01*
D02*
G37*
G36*
X387602Y397185D02*
X387751D01*
Y385806D01*
X387602D01*
Y384785D01*
X379519D01*
Y385806D01*
X379369D01*
Y397185D01*
X379519D01*
Y398206D01*
X387602D01*
Y397185D01*
D02*
G37*
G36*
X556702Y391406D02*
X557723D01*
Y383324D01*
X556702D01*
Y383174D01*
X545323D01*
Y383324D01*
X544302D01*
Y391406D01*
X545323D01*
Y391556D01*
X556702D01*
Y391406D01*
D02*
G37*
G36*
X328463Y389344D02*
X329484D01*
Y381262D01*
X328463D01*
Y381112D01*
X317083D01*
Y381262D01*
X316062D01*
Y389344D01*
X317083D01*
Y389494D01*
X328463D01*
Y389344D01*
D02*
G37*
G36*
X413009Y382214D02*
X414030D01*
Y374132D01*
X413009D01*
Y373982D01*
X401630D01*
Y374132D01*
X400609D01*
Y382214D01*
X401630D01*
Y382364D01*
X413009D01*
Y382214D01*
D02*
G37*
G36*
X387838Y381216D02*
X388859D01*
Y373134D01*
X387838D01*
Y372984D01*
X376459D01*
Y373134D01*
X375437D01*
Y381216D01*
X376459D01*
Y381366D01*
X387838D01*
Y381216D01*
D02*
G37*
G36*
X368871Y382682D02*
X369661D01*
Y372522D01*
X368871D01*
Y372311D01*
X353291D01*
Y372522D01*
X352501D01*
Y382682D01*
X353291D01*
Y382892D01*
X368871D01*
Y382682D01*
D02*
G37*
G36*
X576588Y387099D02*
X576738D01*
Y375719D01*
X576588D01*
Y374698D01*
X576184D01*
Y363969D01*
X576034D01*
Y362948D01*
X567952D01*
Y363969D01*
X567802D01*
Y375349D01*
X567952D01*
Y376370D01*
X568355D01*
Y387099D01*
X568505D01*
Y388120D01*
X576588D01*
Y387099D01*
D02*
G37*
G36*
X302384Y367566D02*
X303405D01*
Y359484D01*
X302384D01*
Y359334D01*
X291005D01*
Y359484D01*
X289984D01*
Y367566D01*
X291005D01*
Y367716D01*
X302384D01*
Y367566D01*
D02*
G37*
G36*
X328239Y367200D02*
X329260D01*
Y359118D01*
X328239D01*
Y358968D01*
X316860D01*
Y359118D01*
X315839D01*
Y367200D01*
X316860D01*
Y367350D01*
X328239D01*
Y367200D01*
D02*
G37*
G36*
X389329Y366212D02*
X390350D01*
Y358130D01*
X389329D01*
Y357980D01*
X377949D01*
Y358130D01*
X376928D01*
Y366212D01*
X377949D01*
Y366362D01*
X389329D01*
Y366212D01*
D02*
G37*
G36*
X362854Y369506D02*
X363065D01*
Y353926D01*
X362854D01*
Y353136D01*
X352694D01*
Y353926D01*
X352483D01*
Y369506D01*
X352694D01*
Y370296D01*
X362854D01*
Y369506D01*
D02*
G37*
G36*
X495186Y361086D02*
X496207D01*
Y353004D01*
X495186D01*
Y352854D01*
X483806D01*
Y353004D01*
X482785D01*
Y361086D01*
X483806D01*
Y361236D01*
X495186D01*
Y361086D01*
D02*
G37*
G36*
X504777Y371147D02*
X505798D01*
Y365564D01*
X506062D01*
Y364543D01*
X506212D01*
Y353164D01*
X506062D01*
Y352143D01*
X497980D01*
Y353164D01*
X497830D01*
Y362915D01*
X493397D01*
Y363065D01*
X492377D01*
Y371147D01*
X493397D01*
Y371297D01*
X504777D01*
Y371147D01*
D02*
G37*
G36*
X376974Y357757D02*
X377995D01*
Y349674D01*
X376974D01*
Y349524D01*
X365595D01*
Y349674D01*
X364574D01*
Y357757D01*
X365595D01*
Y357906D01*
X376974D01*
Y357757D01*
D02*
G37*
G36*
X69500Y361825D02*
X69710D01*
Y346245D01*
X69500D01*
Y345455D01*
X59339D01*
Y346245D01*
X59129D01*
Y361825D01*
X59339D01*
Y362616D01*
X69500D01*
Y361825D01*
D02*
G37*
G36*
X80289Y361452D02*
X80500D01*
Y345872D01*
X80289D01*
Y345082D01*
X70129D01*
Y345872D01*
X69919D01*
Y361452D01*
X70129D01*
Y362242D01*
X80289D01*
Y361452D01*
D02*
G37*
G36*
X422999Y351036D02*
X424020D01*
Y342953D01*
X422999D01*
Y342803D01*
X411620D01*
Y342953D01*
X410599D01*
Y351036D01*
X411620D01*
Y351185D01*
X422999D01*
Y351036D01*
D02*
G37*
G36*
X561523Y346128D02*
X562544D01*
Y338046D01*
X561523D01*
Y337896D01*
X550144D01*
Y338046D01*
X549123D01*
Y346128D01*
X550144D01*
Y346278D01*
X561523D01*
Y346128D01*
D02*
G37*
G36*
X515892Y345303D02*
X516913D01*
Y337221D01*
X515892D01*
Y337071D01*
X504513D01*
Y337221D01*
X503492D01*
Y345303D01*
X504513D01*
Y345453D01*
X515892D01*
Y345303D01*
D02*
G37*
G36*
X328262Y351361D02*
X328412D01*
Y342153D01*
X342765D01*
Y341942D01*
X343555D01*
Y331782D01*
X342765D01*
Y331572D01*
X327185D01*
Y331782D01*
X326395D01*
Y338960D01*
X320180D01*
Y339981D01*
X320030D01*
Y351361D01*
X320180D01*
Y352382D01*
X328262D01*
Y351361D01*
D02*
G37*
G36*
X341417Y325920D02*
X342438D01*
Y317838D01*
X341417D01*
Y317688D01*
X330037D01*
Y317838D01*
X329016D01*
Y325920D01*
X330037D01*
Y326070D01*
X341417D01*
Y325920D01*
D02*
G37*
G36*
X302542Y325557D02*
X303563D01*
Y317475D01*
X302542D01*
Y317325D01*
X291163D01*
Y317475D01*
X290142D01*
Y325557D01*
X291163D01*
Y325707D01*
X302542D01*
Y325557D01*
D02*
G37*
G36*
X369245Y326220D02*
X370035D01*
Y316060D01*
X369245D01*
Y315849D01*
X353665D01*
Y316060D01*
X352875D01*
Y326220D01*
X353665D01*
Y326431D01*
X369245D01*
Y326220D01*
D02*
G37*
G36*
X388374Y326012D02*
X389164D01*
Y315851D01*
X388374D01*
Y315641D01*
X372793D01*
Y315851D01*
X372003D01*
Y326012D01*
X372793D01*
Y326222D01*
X388374D01*
Y326012D01*
D02*
G37*
G36*
X601406Y242979D02*
X607962D01*
Y241958D01*
X608112D01*
Y230579D01*
X607962D01*
Y229558D01*
X599879D01*
Y229570D01*
X593324D01*
Y230591D01*
X593174D01*
Y241971D01*
X593324D01*
Y242992D01*
X601406D01*
Y242979D01*
D02*
G37*
G36*
X704609Y453672D02*
X711467D01*
Y219215D01*
X704609D01*
Y215143D01*
X658711D01*
Y219215D01*
X651853D01*
Y453672D01*
X658711D01*
Y457744D01*
X704609D01*
Y453672D01*
D02*
G37*
G36*
X569140Y218755D02*
X570161D01*
Y210673D01*
X569140D01*
Y210523D01*
X557761D01*
Y210673D01*
X556740D01*
Y218755D01*
X557761D01*
Y218905D01*
X569140D01*
Y218755D01*
D02*
G37*
G36*
X588302Y208849D02*
X589323D01*
Y200767D01*
X588302D01*
Y200617D01*
X576923D01*
Y200767D01*
X575902D01*
Y208849D01*
X576923D01*
Y208999D01*
X588302D01*
Y208849D01*
D02*
G37*
G36*
X378910Y206080D02*
X379700D01*
Y195920D01*
X378910D01*
Y195709D01*
X363329D01*
Y195920D01*
X362539D01*
Y206080D01*
X363329D01*
Y206291D01*
X378910D01*
Y206080D01*
D02*
G37*
G36*
X549994Y218074D02*
X550144D01*
Y206695D01*
X550065D01*
Y196121D01*
X549915D01*
Y195100D01*
X541833D01*
Y196121D01*
X541683D01*
Y207500D01*
X541762D01*
Y218074D01*
X541912D01*
Y219095D01*
X549994D01*
Y218074D01*
D02*
G37*
G36*
X612922Y205130D02*
X613712D01*
Y194970D01*
X612922D01*
Y194760D01*
X597342D01*
Y194970D01*
X596552D01*
Y205130D01*
X597342D01*
Y205341D01*
X612922D01*
Y205130D01*
D02*
G37*
G36*
X378912Y195009D02*
X379702D01*
Y184848D01*
X378912D01*
Y184638D01*
X363332D01*
Y184848D01*
X362542D01*
Y195009D01*
X363332D01*
Y195219D01*
X378912D01*
Y195009D01*
D02*
G37*
G36*
X559285Y193340D02*
X559435D01*
Y181961D01*
X559285D01*
Y180939D01*
X551203D01*
Y181961D01*
X551053D01*
Y193340D01*
X551203D01*
Y194361D01*
X559285D01*
Y193340D01*
D02*
G37*
G36*
X368160Y175456D02*
X368950D01*
Y165296D01*
X368160D01*
Y165085D01*
X352580D01*
Y165296D01*
X351790D01*
Y175456D01*
X352580D01*
Y175666D01*
X368160D01*
Y175456D01*
D02*
G37*
G36*
X310993Y149169D02*
X296294D01*
Y149101D01*
X281562D01*
Y177803D01*
X296261D01*
Y177871D01*
X310993D01*
Y149169D01*
D02*
G37*
G36*
X281455Y149052D02*
X266723D01*
Y177754D01*
X281455D01*
Y149052D01*
D02*
G37*
G36*
X266388Y148681D02*
X251656D01*
Y177383D01*
X266388D01*
Y148681D01*
D02*
G37*
G36*
X262959Y147122D02*
X263748D01*
Y136962D01*
X262959D01*
Y136751D01*
X247378D01*
Y136962D01*
X246588D01*
Y147122D01*
X247378D01*
Y147333D01*
X262959D01*
Y147122D01*
D02*
G37*
G36*
X330055Y130167D02*
X301353D01*
Y144899D01*
X330055D01*
Y130167D01*
D02*
G37*
G36*
X330258Y115019D02*
X301556D01*
Y129751D01*
X330258D01*
Y115019D01*
D02*
G37*
G36*
X269697Y94546D02*
X254965D01*
Y123248D01*
X269697D01*
Y94546D01*
D02*
G37*
G36*
X284610Y94544D02*
X269877D01*
Y123246D01*
X284610D01*
Y94544D01*
D02*
G37*
G36*
X295539Y110157D02*
X295750D01*
Y94577D01*
X295539D01*
Y93787D01*
X285379D01*
Y94577D01*
X285168D01*
Y110157D01*
X285379D01*
Y110947D01*
X295539D01*
Y110157D01*
D02*
G37*
G36*
X254170Y108049D02*
X254381D01*
Y92469D01*
X254170D01*
Y91679D01*
X244010D01*
Y92469D01*
X243799D01*
Y108049D01*
X244010D01*
Y108839D01*
X254170D01*
Y108049D01*
D02*
G37*
G36*
X679201Y119840D02*
X683273D01*
Y73942D01*
X679201D01*
Y67084D01*
X484744D01*
Y73942D01*
X480672D01*
Y119840D01*
X484744D01*
Y126698D01*
X679201D01*
Y119840D01*
D02*
G37*
%LPC*%
G36*
X543037Y542976D02*
X542381D01*
Y539910D01*
X542384D01*
Y540700D01*
X543037D01*
Y542976D01*
D02*
G37*
%LPD*%
D98*
X296245Y93246D02*
Y112397D01*
Y93246D02*
X307828D01*
Y112397D01*
X296245D02*
X307828D01*
X562872Y196868D02*
X582023D01*
X562872Y185285D02*
Y196868D01*
Y185285D02*
X582023D01*
Y196868D01*
M02*
