G04*
G04 #@! TF.GenerationSoftware,Altium Limited,Altium Designer,25.7.1 (20)*
G04*
G04 Layer_Color=16711935*
%FSLAX44Y44*%
%MOMM*%
G71*
G04*
G04 #@! TF.SameCoordinates,73AB98AC-F87E-4787-825B-23B2420A13CA*
G04*
G04*
G04 #@! TF.FilePolarity,Positive*
G04*
G01*
G75*
G36*
X471020Y315840D02*
X470597Y319053D01*
X469356Y322048D01*
X467383Y324619D01*
X464811Y326593D01*
X461817Y327833D01*
X458603Y328256D01*
X455389Y327833D01*
X452394Y326593D01*
D01*
X449823Y324619D01*
X447850Y322048D01*
X446609Y319053D01*
X446186Y315840D01*
X446609Y312626D01*
X447850Y309631D01*
X449823Y307060D01*
X452394Y305086D01*
D01*
X455389Y303846D01*
X458603Y303423D01*
X461817Y303846D01*
X464811Y305086D01*
X467383Y307060D01*
X469356Y309631D01*
X470597Y312626D01*
X471020Y315840D01*
D01*
D02*
G37*
G36*
X469176Y459395D02*
X468350Y460779D01*
X466042Y463029D01*
X463232Y464609D01*
X460110Y465413D01*
X456887Y465386D01*
X453779Y464529D01*
X450996Y462901D01*
X448726Y460612D01*
X447122Y457816D01*
X446292Y454701D01*
Y451477D01*
X447122Y448362D01*
X448726Y445566D01*
X450996Y443276D01*
X453779Y441649D01*
X456887Y440793D01*
X460110Y440765D01*
X463232Y441569D01*
X466042Y443149D01*
X468350Y445399D01*
X469176Y446783D01*
X469176Y446783D01*
X469176Y459395D01*
D02*
G37*
G36*
X490022Y458457D02*
X489408Y459146D01*
X487900Y460209D01*
X486191Y460904D01*
X484370Y461196D01*
X482529Y461068D01*
X480765Y460528D01*
X479169Y459604D01*
X477822Y458342D01*
X477309Y457576D01*
D01*
Y448605D01*
X477963Y447628D01*
X479775Y446129D01*
X481939Y445210D01*
X484275Y444948D01*
X485432Y445155D01*
D01*
X490022Y449745D01*
X490022Y458457D01*
D02*
G37*
G36*
X553188Y315840D02*
X552911Y317944D01*
X552098Y319904D01*
X550806Y321588D01*
X549123Y322880D01*
X547162Y323692D01*
X545058Y323969D01*
X542954Y323692D01*
X540993Y322880D01*
D01*
X539309Y321588D01*
X538017Y319904D01*
X537205Y317944D01*
X536928Y315840D01*
X537205Y313735D01*
X538017Y311775D01*
X539309Y310091D01*
X540993Y308799D01*
D01*
X542954Y307987D01*
X545058Y307710D01*
X547162Y307987D01*
X549123Y308799D01*
X550806Y310091D01*
X552098Y311775D01*
X552911Y313735D01*
X553188Y315840D01*
D01*
D02*
G37*
G36*
X608279D02*
X607856Y319053D01*
X606615Y322048D01*
X604642Y324619D01*
X602071Y326592D01*
X599076Y327832D01*
X595863Y328255D01*
X592649Y327832D01*
X589655Y326592D01*
D01*
X587084Y324619D01*
X585110Y322048D01*
X583870Y319053D01*
X583447Y315840D01*
X583870Y312626D01*
X585110Y309632D01*
X587084Y307060D01*
X589655Y305087D01*
D01*
X592649Y303847D01*
X595863Y303424D01*
X599076Y303847D01*
X602071Y305087D01*
X604642Y307060D01*
X606615Y309632D01*
X607856Y312626D01*
X608279Y315840D01*
D01*
D02*
G37*
G36*
Y453090D02*
X607856Y456303D01*
X606615Y459297D01*
X604642Y461869D01*
X602071Y463842D01*
X599076Y465082D01*
X595863Y465505D01*
X592649Y465082D01*
X589655Y463842D01*
D01*
X587084Y461869D01*
X585110Y459297D01*
X583870Y456303D01*
X583447Y453090D01*
X583870Y449876D01*
X585110Y446882D01*
X587084Y444310D01*
X589655Y442337D01*
D01*
X592649Y441097D01*
X595863Y440674D01*
X599076Y441097D01*
X602071Y442337D01*
X604642Y444310D01*
X606615Y446882D01*
X607856Y449876D01*
X608279Y453090D01*
D01*
D02*
G37*
M02*
