G04*
G04 #@! TF.GenerationSoftware,Altium Limited,Altium Designer,25.7.1 (20)*
G04*
G04 Layer_Color=11065270*
%FSLAX44Y44*%
%MOMM*%
G71*
G04*
G04 #@! TF.SameCoordinates,73AB98AC-F87E-4787-825B-23B2420A13CA*
G04*
G04*
G04 #@! TF.FilePolarity,Positive*
G04*
G01*
G75*
%ADD10C,0.1524*%
%ADD98C,0.0254*%
%ADD99C,0.2000*%
G36*
X549692Y602927D02*
X549841D01*
Y591548D01*
X549692D01*
Y590527D01*
X541609D01*
Y591548D01*
X541459D01*
Y602927D01*
X541609D01*
Y603949D01*
X549692D01*
Y602927D01*
D02*
G37*
G36*
X375531Y595593D02*
X377199Y594902D01*
X378632Y593803D01*
X379731Y592370D01*
X380422Y590702D01*
X380658Y588912D01*
X380422Y587121D01*
X379731Y585453D01*
X378632Y584021D01*
X377199Y582921D01*
X375531Y582230D01*
X373741Y581995D01*
X371950Y582230D01*
X370282Y582921D01*
X368849Y584021D01*
X367750Y585453D01*
X367059Y587121D01*
X366824Y588912D01*
X367059Y590702D01*
X367750Y592370D01*
X368849Y593803D01*
X370282Y594902D01*
X371950Y595593D01*
X373741Y595829D01*
X375531Y595593D01*
D02*
G37*
G36*
X351614D02*
X353283Y594902D01*
X354715Y593803D01*
X355815Y592370D01*
X356506Y590702D01*
X356741Y588912D01*
X356506Y587121D01*
X355815Y585453D01*
X354715Y584021D01*
X353283Y582921D01*
X351614Y582230D01*
X349824Y581995D01*
X348034Y582230D01*
X346365Y582921D01*
X344933Y584021D01*
X343834Y585453D01*
X343143Y587121D01*
X342907Y588912D01*
X343143Y590702D01*
X343834Y592370D01*
X344933Y593803D01*
X346365Y594902D01*
X348034Y595593D01*
X349824Y595829D01*
X351614Y595593D01*
D02*
G37*
G36*
X327698D02*
X329366Y594902D01*
X330799Y593803D01*
X331898Y592370D01*
X332589Y590702D01*
X332825Y588912D01*
X332589Y587121D01*
X331898Y585453D01*
X330799Y584021D01*
X329366Y582921D01*
X327698Y582230D01*
X325907Y581995D01*
X324117Y582230D01*
X322449Y582921D01*
X321016Y584021D01*
X319917Y585453D01*
X319226Y587121D01*
X318990Y588912D01*
X319226Y590702D01*
X319917Y592370D01*
X321016Y593803D01*
X322449Y594902D01*
X324117Y595593D01*
X325907Y595829D01*
X327698Y595593D01*
D02*
G37*
G36*
X404089Y592696D02*
Y585127D01*
X400279Y581317D01*
X392709D01*
X388899Y585127D01*
Y592696D01*
X392709Y596506D01*
X400279D01*
X404089Y592696D01*
D02*
G37*
G36*
X524789Y597553D02*
X525811D01*
Y591053D01*
X527395D01*
Y590842D01*
X528185D01*
Y580682D01*
X527395D01*
Y580471D01*
X511815D01*
Y580682D01*
X511025D01*
Y590842D01*
X511815D01*
Y591053D01*
X512389D01*
Y597553D01*
X513410D01*
Y597703D01*
X524789D01*
Y597553D01*
D02*
G37*
G36*
X149352Y589598D02*
Y582028D01*
X145542Y578218D01*
X137973D01*
X134163Y582028D01*
Y589598D01*
X137973Y593408D01*
X145542D01*
X149352Y589598D01*
D02*
G37*
G36*
X554037Y578766D02*
X555705Y578075D01*
X557138Y576975D01*
X558237Y575543D01*
X558928Y573875D01*
X559164Y572084D01*
X558928Y570294D01*
X558237Y568626D01*
X557138Y567193D01*
X555705Y566094D01*
X554037Y565403D01*
X552247Y565167D01*
X550457Y565403D01*
X548788Y566094D01*
X547356Y567193D01*
X546256Y568626D01*
X545897Y569494D01*
X545537Y568626D01*
X544438Y567193D01*
X543005Y566094D01*
X541337Y565403D01*
X539547Y565167D01*
X537757Y565403D01*
X536088Y566094D01*
X534656Y567193D01*
X533556Y568626D01*
X533197Y569494D01*
X532837Y568626D01*
X531738Y567193D01*
X530305Y566094D01*
X528637Y565403D01*
X526847Y565167D01*
X525056Y565403D01*
X523388Y566094D01*
X521956Y567193D01*
X520856Y568626D01*
X520497Y569494D01*
X520137Y568626D01*
X519038Y567193D01*
X517605Y566094D01*
X515937Y565403D01*
X514147Y565167D01*
X512356Y565403D01*
X510688Y566094D01*
X509256Y567193D01*
X508156Y568626D01*
X507465Y570294D01*
X507230Y572084D01*
X507465Y573875D01*
X508156Y575543D01*
X509256Y576975D01*
X510688Y578075D01*
X512356Y578766D01*
X514147Y579001D01*
X515937Y578766D01*
X517605Y578075D01*
X519038Y576975D01*
X520137Y575543D01*
X520497Y574675D01*
X520856Y575543D01*
X521956Y576975D01*
X523388Y578075D01*
X525056Y578766D01*
X526847Y579001D01*
X528637Y578766D01*
X530305Y578075D01*
X531738Y576975D01*
X532837Y575543D01*
X533197Y574675D01*
X533556Y575543D01*
X534656Y576975D01*
X536088Y578075D01*
X537757Y578766D01*
X539547Y579001D01*
X541337Y578766D01*
X543005Y578075D01*
X544438Y576975D01*
X545537Y575543D01*
X545897Y574675D01*
X546256Y575543D01*
X547356Y576975D01*
X548788Y578075D01*
X550457Y578766D01*
X552247Y579001D01*
X554037Y578766D01*
D02*
G37*
G36*
X57678Y589770D02*
X57889D01*
Y574190D01*
X57678D01*
Y573400D01*
X47518D01*
Y574190D01*
X47308D01*
Y589770D01*
X47518D01*
Y590560D01*
X57678D01*
Y589770D01*
D02*
G37*
G36*
X44257Y589613D02*
X44468D01*
Y574032D01*
X44257D01*
Y573242D01*
X34097D01*
Y574032D01*
X33886D01*
Y589613D01*
X34097D01*
Y590403D01*
X44257D01*
Y589613D01*
D02*
G37*
G36*
X293863Y593324D02*
X301305D01*
Y567522D01*
X274229D01*
Y593324D01*
X281671D01*
Y600527D01*
X293863D01*
Y593324D01*
D02*
G37*
G36*
X68951Y589920D02*
X69162D01*
Y575015D01*
X69527D01*
Y589773D01*
X69738D01*
Y590563D01*
X79898D01*
Y589773D01*
X80109D01*
Y574192D01*
X79898D01*
Y573402D01*
X78146D01*
X78895Y572691D01*
X79811Y570699D01*
X79924Y568508D01*
X79216Y566432D01*
X77789Y564766D01*
X75846Y563749D01*
X74755Y563636D01*
Y563636D01*
X74704Y563585D01*
X62874D01*
X60773Y564455D01*
X59166Y566063D01*
X58295Y568164D01*
Y570437D01*
X59166Y572538D01*
X60178Y573550D01*
X58791D01*
Y574340D01*
X58580D01*
Y589920D01*
X58791D01*
Y590710D01*
X68951D01*
Y589920D01*
D02*
G37*
G36*
X270500Y559905D02*
X251704D01*
Y602577D01*
X270500D01*
Y559905D01*
D02*
G37*
G36*
X236472D02*
X217675D01*
Y602577D01*
X236472D01*
Y559905D01*
D02*
G37*
G36*
X340345Y569618D02*
X341135D01*
Y559458D01*
X340345D01*
Y559247D01*
X324764D01*
Y559458D01*
X323974D01*
Y569618D01*
X324764D01*
Y569829D01*
X340345D01*
Y569618D01*
D02*
G37*
G36*
X649559Y569123D02*
X650349D01*
Y558963D01*
X649559D01*
Y558752D01*
X633979D01*
Y558963D01*
X633189D01*
Y569123D01*
X633979D01*
Y569333D01*
X649559D01*
Y569123D01*
D02*
G37*
G36*
X627733Y568947D02*
X628523D01*
Y558787D01*
X627733D01*
Y558577D01*
X612153D01*
Y558787D01*
X611363D01*
Y568947D01*
X612153D01*
Y569158D01*
X627733D01*
Y568947D01*
D02*
G37*
G36*
X295179Y566379D02*
X295968D01*
Y556219D01*
X295179D01*
Y556008D01*
X279598D01*
Y556219D01*
X278808D01*
Y566379D01*
X279598D01*
Y566590D01*
X295179D01*
Y566379D01*
D02*
G37*
G36*
X31745Y565483D02*
X32535D01*
Y555323D01*
X31745D01*
Y555112D01*
X16165D01*
Y555323D01*
X15375D01*
Y565483D01*
X16165D01*
Y565694D01*
X31745D01*
Y565483D01*
D02*
G37*
G36*
X489453Y567026D02*
X491121Y566335D01*
X492553Y565235D01*
X493653Y563803D01*
X494344Y562135D01*
X494579Y560344D01*
X494344Y558554D01*
X493653Y556886D01*
X492553Y555453D01*
X491121Y554354D01*
X489453Y553663D01*
X487662Y553427D01*
X485872Y553663D01*
X484204Y554354D01*
X482771Y555453D01*
X481672Y556886D01*
X480981Y558554D01*
X480745Y560344D01*
X480981Y562135D01*
X481672Y563803D01*
X482771Y565235D01*
X484204Y566335D01*
X485872Y567026D01*
X487662Y567262D01*
X489453Y567026D01*
D02*
G37*
G36*
X383481Y566322D02*
X385149Y565631D01*
X386582Y564532D01*
X387681Y563099D01*
X388372Y561431D01*
X388608Y559641D01*
X388372Y557850D01*
X387681Y556182D01*
X386582Y554750D01*
X385149Y553650D01*
X383481Y552959D01*
X381691Y552724D01*
X379901Y552959D01*
X378232Y553650D01*
X376800Y554750D01*
X375700Y556182D01*
X375009Y557850D01*
X374774Y559641D01*
X375009Y561431D01*
X375700Y563099D01*
X376800Y564532D01*
X378232Y565631D01*
X379901Y566322D01*
X381691Y566558D01*
X383481Y566322D01*
D02*
G37*
G36*
X586351Y567467D02*
X586562D01*
Y551886D01*
X586351D01*
Y551096D01*
X576191D01*
Y551886D01*
X575981D01*
Y567467D01*
X576191D01*
Y568256D01*
X586351D01*
Y567467D01*
D02*
G37*
G36*
X640928Y550514D02*
X641949D01*
Y542432D01*
X640928D01*
Y542282D01*
X629549D01*
Y542293D01*
X629194D01*
Y542143D01*
X617814D01*
Y542293D01*
X616793D01*
Y550375D01*
X617814D01*
Y550525D01*
X629194D01*
Y550514D01*
X629549D01*
Y550664D01*
X640928D01*
Y550514D01*
D02*
G37*
G36*
X573583Y566773D02*
X573794D01*
Y551193D01*
X573583D01*
Y550403D01*
X563423D01*
Y551193D01*
X563212D01*
Y566773D01*
X563423D01*
Y567563D01*
X573583D01*
Y566773D01*
D02*
G37*
G36*
X716097Y599670D02*
X720140Y598700D01*
X723981Y597109D01*
X727527Y594936D01*
X730688Y592236D01*
X733389Y589074D01*
X735561Y585529D01*
X737153Y581687D01*
X738123Y577644D01*
X738449Y573499D01*
X738123Y569354D01*
X737153Y565311D01*
X735561Y561469D01*
X733389Y557924D01*
X730688Y554762D01*
X727527Y552062D01*
X723981Y549889D01*
X720140Y548298D01*
X716097Y547327D01*
X711952Y547001D01*
X707807Y547327D01*
X703764Y548298D01*
X699922Y549889D01*
X698739Y550614D01*
X696377Y552062D01*
X693215Y554762D01*
X690515Y557924D01*
X688342Y561469D01*
X686751Y565311D01*
X685780Y569354D01*
X685454Y573499D01*
X685780Y577644D01*
X686751Y581687D01*
X688342Y585529D01*
X690515Y589074D01*
X693215Y592236D01*
X696377Y594936D01*
X698739Y596384D01*
X699922Y597109D01*
X703764Y598700D01*
X707807Y599670D01*
X711952Y599997D01*
X716097Y599670D01*
D02*
G37*
G36*
X118026Y555041D02*
X118816D01*
Y544881D01*
X118026D01*
Y544670D01*
X102446D01*
Y544881D01*
X101656D01*
Y555041D01*
X102446D01*
Y555252D01*
X118026D01*
Y555041D01*
D02*
G37*
G36*
X31821Y554769D02*
X32611D01*
Y544609D01*
X31821D01*
Y544398D01*
X16241D01*
Y544609D01*
X15451D01*
Y554769D01*
X16241D01*
Y554980D01*
X31821D01*
Y554769D01*
D02*
G37*
G36*
X248676Y554893D02*
X248887D01*
Y539313D01*
X248676D01*
Y538523D01*
X238516D01*
Y539313D01*
X238305D01*
Y554893D01*
X238516D01*
Y555683D01*
X248676D01*
Y554893D01*
D02*
G37*
G36*
X238023Y554876D02*
X238234D01*
Y539295D01*
X238023D01*
Y538505D01*
X227863D01*
Y539295D01*
X227653D01*
Y554876D01*
X227863D01*
Y555666D01*
X238023D01*
Y554876D01*
D02*
G37*
G36*
X226919Y554640D02*
X227129D01*
Y539059D01*
X226919D01*
Y538269D01*
X216758D01*
Y539059D01*
X216548D01*
Y554640D01*
X216758D01*
Y555429D01*
X226919D01*
Y554640D01*
D02*
G37*
G36*
X216024D02*
X216235D01*
Y539059D01*
X216024D01*
Y538269D01*
X205865D01*
Y539059D01*
X205654D01*
Y554640D01*
X205865D01*
Y555429D01*
X216024D01*
Y554640D01*
D02*
G37*
G36*
X182697Y599670D02*
X186740Y598700D01*
X190581Y597109D01*
X194127Y594936D01*
X197288Y592236D01*
X199989Y589074D01*
X202161Y585529D01*
X203753Y581687D01*
X204723Y577644D01*
X205049Y573499D01*
X204723Y569354D01*
X203753Y565311D01*
X202161Y561469D01*
X199989Y557924D01*
X197858Y555429D01*
X205306D01*
Y554640D01*
X205516D01*
Y539059D01*
X205306D01*
Y538269D01*
X195146D01*
Y539059D01*
X194935D01*
Y552752D01*
X194127Y552062D01*
X190581Y549889D01*
X186740Y548298D01*
X182697Y547327D01*
X178552Y547001D01*
X174407Y547327D01*
X170364Y548298D01*
X166522Y549889D01*
X165339Y550614D01*
X162977Y552062D01*
X159815Y554762D01*
X157115Y557924D01*
X154942Y561469D01*
X153351Y565311D01*
X152380Y569354D01*
X152054Y573499D01*
X152380Y577644D01*
X153351Y581687D01*
X154942Y585529D01*
X157115Y589074D01*
X159815Y592236D01*
X162977Y594936D01*
X165339Y596384D01*
X166522Y597109D01*
X170364Y598700D01*
X174407Y599670D01*
X178552Y599997D01*
X182697Y599670D01*
D02*
G37*
G36*
X118026Y544119D02*
X118816D01*
Y533959D01*
X118026D01*
Y533748D01*
X102446D01*
Y533959D01*
X101656D01*
Y544119D01*
X102446D01*
Y544330D01*
X118026D01*
Y544119D01*
D02*
G37*
G36*
X31750Y543629D02*
X32540D01*
Y533469D01*
X31750D01*
Y533258D01*
X16170D01*
Y533469D01*
X15380D01*
Y543629D01*
X16170D01*
Y543839D01*
X31750D01*
Y543629D01*
D02*
G37*
G36*
X155227Y546355D02*
X156895Y545664D01*
X158328Y544565D01*
X159427Y543132D01*
X160118Y541464D01*
X160354Y539674D01*
X160118Y537883D01*
X159427Y536215D01*
X158328Y534783D01*
X156895Y533683D01*
X155227Y532992D01*
X153436Y532757D01*
X151646Y532992D01*
X149978Y533683D01*
X148545Y534783D01*
X147446Y536215D01*
X146755Y537883D01*
X146519Y539674D01*
X146755Y541464D01*
X147446Y543132D01*
X148545Y544565D01*
X149978Y545664D01*
X151646Y546355D01*
X153436Y546591D01*
X155227Y546355D01*
D02*
G37*
G36*
X384015Y544758D02*
X385683Y544067D01*
X387116Y542967D01*
X388215Y541535D01*
X388906Y539866D01*
X389142Y538076D01*
X388906Y536286D01*
X388215Y534618D01*
X387116Y533185D01*
X385683Y532086D01*
X384015Y531395D01*
X382224Y531159D01*
X380434Y531395D01*
X378766Y532086D01*
X377333Y533185D01*
X376234Y534618D01*
X375543Y536286D01*
X375307Y538076D01*
X375543Y539866D01*
X376234Y541535D01*
X377333Y542967D01*
X378766Y544067D01*
X380434Y544758D01*
X382224Y544993D01*
X384015Y544758D01*
D02*
G37*
G36*
X118026Y532994D02*
X118816D01*
Y522834D01*
X118026D01*
Y522623D01*
X102446D01*
Y522834D01*
X101656D01*
Y532994D01*
X102446D01*
Y533204D01*
X118026D01*
Y532994D01*
D02*
G37*
G36*
X284561Y533511D02*
X286229Y532820D01*
X287662Y531720D01*
X288761Y530288D01*
X289452Y528619D01*
X289688Y526829D01*
X289452Y525039D01*
X288761Y523370D01*
X287662Y521938D01*
X286229Y520839D01*
X284561Y520148D01*
X282771Y519912D01*
X280980Y520148D01*
X279312Y520839D01*
X277879Y521938D01*
X276780Y523370D01*
X276089Y525039D01*
X275853Y526829D01*
X276089Y528619D01*
X276780Y530288D01*
X277879Y531720D01*
X279312Y532820D01*
X280980Y533511D01*
X282771Y533746D01*
X284561Y533511D01*
D02*
G37*
G36*
X29715Y527284D02*
X30736D01*
Y519201D01*
X29715D01*
Y519052D01*
X18336D01*
Y519201D01*
X17315D01*
Y527284D01*
X18336D01*
Y527434D01*
X29715D01*
Y527284D01*
D02*
G37*
G36*
X99003Y553363D02*
X100611Y551755D01*
X101481Y549655D01*
Y548518D01*
Y538358D01*
Y537261D01*
X100667Y535224D01*
X99157Y533634D01*
X98027Y533115D01*
X98566Y532931D01*
X100231Y531504D01*
X101249Y529561D01*
X101361Y528470D01*
X101361D01*
X101412Y528419D01*
Y517726D01*
Y516589D01*
X100542Y514488D01*
X98934Y512881D01*
X96834Y512011D01*
X94560D01*
X92460Y512881D01*
X90852Y514488D01*
X89982Y516589D01*
Y517726D01*
Y527886D01*
Y528982D01*
X90795Y531020D01*
X92306Y532610D01*
X93435Y533129D01*
X92897Y533313D01*
X91231Y534740D01*
X90214Y536683D01*
X90101Y537774D01*
X90101D01*
X90051Y537825D01*
Y548518D01*
Y549655D01*
X90921Y551755D01*
X92528Y553363D01*
X94629Y554233D01*
X96902D01*
X99003Y553363D01*
D02*
G37*
G36*
X118026Y522097D02*
X118816D01*
Y511937D01*
X118026D01*
Y511726D01*
X102446D01*
Y511937D01*
X101656D01*
Y522097D01*
X102446D01*
Y522308D01*
X118026D01*
Y522097D01*
D02*
G37*
G36*
X155034Y523795D02*
X156702Y523104D01*
X158134Y522005D01*
X159234Y520572D01*
X159925Y518904D01*
X160161Y517113D01*
X159925Y515323D01*
X159234Y513655D01*
X158134Y512222D01*
X156702Y511123D01*
X155034Y510432D01*
X153243Y510196D01*
X151453Y510432D01*
X149785Y511123D01*
X148352Y512222D01*
X147253Y513655D01*
X146562Y515323D01*
X146326Y517113D01*
X146562Y518904D01*
X147253Y520572D01*
X148352Y522005D01*
X149785Y523104D01*
X151453Y523795D01*
X153243Y524031D01*
X155034Y523795D01*
D02*
G37*
G36*
X380721Y520614D02*
X381511D01*
Y511101D01*
X381700Y511558D01*
X382799Y512990D01*
X384232Y514090D01*
X385900Y514781D01*
X387690Y515016D01*
X389481Y514781D01*
X391149Y514090D01*
X392581Y512990D01*
X393681Y511558D01*
X394372Y509889D01*
X394608Y508099D01*
X394372Y506309D01*
X393681Y504641D01*
X392581Y503208D01*
X391149Y502109D01*
X389481Y501418D01*
X387690Y501182D01*
X385900Y501418D01*
X384232Y502109D01*
X382799Y503208D01*
X381700Y504641D01*
X381511Y505098D01*
Y499684D01*
X380721D01*
Y499473D01*
X365140D01*
Y499684D01*
X364350D01*
Y509844D01*
X365140D01*
Y510055D01*
X380721D01*
Y509844D01*
X381003D01*
X381009Y509889D01*
X381243Y510454D01*
X380721D01*
Y510243D01*
X365140D01*
Y510454D01*
X364350D01*
Y520614D01*
X365140D01*
Y520825D01*
X380721D01*
Y520614D01*
D02*
G37*
G36*
X75146Y558152D02*
X84369D01*
Y548930D01*
X87305D01*
Y520797D01*
X84369D01*
Y511574D01*
X75654D01*
Y508635D01*
X47010D01*
Y511574D01*
X37788D01*
Y520797D01*
X34851D01*
Y548930D01*
X37788D01*
Y558152D01*
X47010D01*
Y561094D01*
X75146D01*
Y558152D01*
D02*
G37*
G36*
X261089Y554893D02*
X261300D01*
Y539313D01*
X261089D01*
Y538587D01*
X270236D01*
Y538376D01*
X271026D01*
Y528216D01*
Y518891D01*
X271033D01*
Y508731D01*
X270243D01*
Y508521D01*
X254663D01*
Y508731D01*
X253873D01*
Y518142D01*
X253865D01*
Y528216D01*
Y538376D01*
X254655D01*
Y538523D01*
X250929D01*
Y539313D01*
X250718D01*
Y554893D01*
X250929D01*
Y555683D01*
X261089D01*
Y554893D01*
D02*
G37*
G36*
X625446Y514813D02*
X627053Y513206D01*
X627710Y511620D01*
Y514622D01*
X627860D01*
Y515643D01*
X635942D01*
Y515622D01*
X642772D01*
Y514602D01*
X642922D01*
Y506482D01*
X643087Y507312D01*
X643649Y508152D01*
X644207Y508526D01*
X644489Y508714D01*
X645480Y508911D01*
X646471Y508714D01*
X647311Y508152D01*
X647873Y507312D01*
X648070Y506321D01*
X647873Y505330D01*
X647311Y504490D01*
X646471Y503928D01*
X645480Y503731D01*
X644489Y503928D01*
X644207Y504117D01*
X643649Y504490D01*
X643087Y505330D01*
X642922Y506160D01*
Y503222D01*
X642772D01*
Y502201D01*
X634690D01*
Y502221D01*
X627860D01*
Y503243D01*
X627710D01*
Y508317D01*
X627053Y506731D01*
X625446Y505124D01*
X623345Y504254D01*
X610912D01*
X608811Y505124D01*
X607204Y506731D01*
X606334Y508832D01*
Y511105D01*
X607204Y513206D01*
X608811Y514813D01*
X610912Y515684D01*
X623345D01*
X625446Y514813D01*
D02*
G37*
G36*
X54682Y502327D02*
X56290Y500719D01*
X57160Y498619D01*
Y497482D01*
Y487322D01*
Y486185D01*
X56290Y484085D01*
X54682Y482477D01*
X52582Y481607D01*
X50308D01*
X48208Y482477D01*
X46600Y484085D01*
X45730Y486185D01*
Y487322D01*
Y487451D01*
X38641D01*
Y488473D01*
X38491D01*
Y499852D01*
X38641D01*
Y500873D01*
X46723D01*
Y500842D01*
X48208Y502327D01*
X50308Y503197D01*
X52582D01*
X54682Y502327D01*
D02*
G37*
G36*
X282768Y509754D02*
X284436Y509063D01*
X285868Y507964D01*
X286968Y506531D01*
X287659Y504863D01*
X287894Y503072D01*
X287659Y501282D01*
X286968Y499614D01*
X285868Y498181D01*
X284436Y497082D01*
X282768Y496391D01*
X280977Y496155D01*
X279187Y496391D01*
X277519Y497082D01*
X276086Y498181D01*
X274987Y499614D01*
X274296Y501282D01*
X274060Y503072D01*
X274296Y504863D01*
X274987Y506531D01*
X276086Y507964D01*
X277519Y509063D01*
X279187Y509754D01*
X280977Y509990D01*
X282768Y509754D01*
D02*
G37*
G36*
X672458Y495470D02*
X673298Y494909D01*
X673859Y494069D01*
X674056Y493078D01*
X673859Y492086D01*
X673298Y491246D01*
X672458Y490685D01*
X671467Y490488D01*
X670476Y490685D01*
X670194Y490873D01*
X669635Y491246D01*
X669074Y492086D01*
X668877Y493078D01*
X669074Y494069D01*
X669635Y494909D01*
X670194Y495282D01*
X670476Y495470D01*
X671467Y495667D01*
X672458Y495470D01*
D02*
G37*
G36*
X380721Y498947D02*
X381511D01*
Y488787D01*
X380721D01*
Y488577D01*
X365140D01*
Y488787D01*
X364350D01*
Y498947D01*
X365140D01*
Y499158D01*
X380721D01*
Y498947D01*
D02*
G37*
G36*
X270236Y508155D02*
X271026D01*
Y498411D01*
X271181D01*
Y488251D01*
X270391D01*
Y488041D01*
X254810D01*
Y488251D01*
X254020D01*
Y497995D01*
X253865D01*
Y508155D01*
X254655D01*
Y508366D01*
X270236D01*
Y508155D01*
D02*
G37*
G36*
X150378Y499238D02*
X152046Y498547D01*
X153479Y497448D01*
X154578Y496015D01*
X155269Y494347D01*
X155505Y492557D01*
X155269Y490766D01*
X154578Y489098D01*
X153479Y487666D01*
X152046Y486566D01*
X150378Y485875D01*
X148588Y485640D01*
X146797Y485875D01*
X145129Y486566D01*
X143696Y487666D01*
X142597Y489098D01*
X141906Y490766D01*
X141670Y492557D01*
X141906Y494347D01*
X142597Y496015D01*
X143696Y497448D01*
X145129Y498547D01*
X146797Y499238D01*
X148588Y499474D01*
X150378Y499238D01*
D02*
G37*
G36*
X380721Y488025D02*
X381511D01*
Y477865D01*
X380721D01*
Y477655D01*
X365140D01*
Y477865D01*
X364350D01*
Y488025D01*
X365140D01*
Y488236D01*
X380721D01*
Y488025D01*
D02*
G37*
G36*
X389478Y481491D02*
X391146Y480800D01*
X392579Y479701D01*
X393678Y478268D01*
X394369Y476600D01*
X394605Y474810D01*
X394369Y473019D01*
X393678Y471351D01*
X392579Y469919D01*
X391146Y468819D01*
X389478Y468128D01*
X387688Y467893D01*
X385897Y468128D01*
X384229Y468819D01*
X382797Y469919D01*
X381697Y471351D01*
X381511Y471802D01*
Y466740D01*
X380721D01*
Y466529D01*
X365140D01*
Y466740D01*
X364350D01*
Y476900D01*
X365140D01*
Y477111D01*
X380721D01*
Y476900D01*
X381131D01*
X381697Y478268D01*
X382797Y479701D01*
X384229Y480800D01*
X385897Y481491D01*
X387688Y481727D01*
X389478Y481491D01*
D02*
G37*
G36*
X318625Y515600D02*
X319415D01*
Y508866D01*
X329440D01*
Y511556D01*
X352021D01*
Y508866D01*
X362072D01*
Y478686D01*
X352021D01*
Y475996D01*
X329440D01*
Y478686D01*
X319390D01*
Y505440D01*
X318625D01*
Y505229D01*
X315510D01*
X315759Y505126D01*
X317367Y503518D01*
X318237Y501418D01*
Y500281D01*
Y490121D01*
Y488984D01*
X317367Y486884D01*
X315759Y485276D01*
X313658Y484406D01*
X311385D01*
X309284Y485276D01*
X307677Y486884D01*
X306807Y488984D01*
Y490121D01*
Y500281D01*
Y501418D01*
X307677Y503518D01*
X309284Y505126D01*
X309533Y505229D01*
X303045D01*
Y505440D01*
X302255D01*
Y515600D01*
X303045D01*
Y515811D01*
X318625D01*
Y515600D01*
D02*
G37*
G36*
X76613Y502406D02*
X78204Y500896D01*
X79120Y498903D01*
X79233Y496712D01*
X78525Y494636D01*
X77098Y492971D01*
X75867Y492326D01*
X78847D01*
Y491536D01*
X79057D01*
Y475955D01*
X78847D01*
Y475165D01*
X68687D01*
Y475955D01*
X68476D01*
Y491536D01*
X68687D01*
Y491790D01*
X68102D01*
Y491490D01*
X68313D01*
Y475910D01*
X68102D01*
Y475120D01*
X57943D01*
Y475910D01*
X57732D01*
Y491490D01*
X57943D01*
Y492280D01*
X60999D01*
X60082Y492660D01*
X58475Y494267D01*
X57605Y496368D01*
Y498642D01*
X58475Y500742D01*
X60082Y502350D01*
X62183Y503220D01*
X74576D01*
X76613Y502406D01*
D02*
G37*
G36*
X667827Y501071D02*
X667977D01*
Y489692D01*
X667827D01*
Y489323D01*
X668828D01*
Y488533D01*
X669038D01*
Y472953D01*
X668828D01*
Y472163D01*
X658668D01*
Y472953D01*
X658457D01*
Y488533D01*
X658668D01*
Y489323D01*
X659745D01*
Y489692D01*
X659595D01*
Y501071D01*
X659745D01*
Y502092D01*
X667827D01*
Y501071D01*
D02*
G37*
G36*
X213454Y485412D02*
X213510D01*
Y486118D01*
X223670D01*
Y486108D01*
X232842D01*
Y485318D01*
X233053D01*
Y469737D01*
X232842D01*
Y468947D01*
X222682D01*
Y468958D01*
X222478D01*
X223631Y468073D01*
X224730Y466640D01*
X225421Y464972D01*
X225657Y463182D01*
X225421Y461391D01*
X224730Y459723D01*
X223631Y458290D01*
X222198Y457191D01*
X220530Y456500D01*
X218740Y456264D01*
X216949Y456500D01*
X215281Y457191D01*
X213848Y458290D01*
X212749Y459723D01*
X212058Y461391D01*
X211822Y463182D01*
X212058Y464972D01*
X212749Y466640D01*
X213848Y468073D01*
X215002Y468958D01*
X213510D01*
Y469748D01*
X213454D01*
Y469041D01*
X203523D01*
Y468958D01*
X183289D01*
Y469748D01*
X183078D01*
Y485328D01*
X183289D01*
Y486118D01*
X203294D01*
Y486202D01*
X213454D01*
Y485412D01*
D02*
G37*
G36*
X150472Y477724D02*
X152140Y477034D01*
X153573Y475934D01*
X154672Y474502D01*
X155363Y472833D01*
X155599Y471043D01*
X155363Y469253D01*
X154672Y467584D01*
X153573Y466152D01*
X152140Y465052D01*
X150472Y464361D01*
X148681Y464126D01*
X146891Y464361D01*
X145223Y465052D01*
X143790Y466152D01*
X142691Y467584D01*
X142000Y469253D01*
X141764Y471043D01*
X142000Y472833D01*
X142691Y474502D01*
X143790Y475934D01*
X145223Y477034D01*
X146891Y477724D01*
X148681Y477960D01*
X150472Y477724D01*
D02*
G37*
G36*
X722150Y479405D02*
X722361D01*
Y463824D01*
X722150D01*
Y463034D01*
X711990D01*
Y463824D01*
X711779D01*
Y479405D01*
X711990D01*
Y480195D01*
X722150D01*
Y479405D01*
D02*
G37*
G36*
X317541Y484094D02*
X318331D01*
Y475063D01*
X319452Y475924D01*
X321120Y476614D01*
X322910Y476850D01*
X324701Y476614D01*
X326369Y475924D01*
X327801Y474824D01*
X328901Y473392D01*
X329592Y471723D01*
X329827Y469933D01*
X329592Y468143D01*
X328901Y466474D01*
X327801Y465042D01*
X326369Y463943D01*
X324701Y463251D01*
X322910Y463016D01*
X321120Y463251D01*
X319452Y463943D01*
X318019Y465042D01*
X316920Y466474D01*
X316229Y468143D01*
X315993Y469933D01*
X316229Y471723D01*
X316920Y473392D01*
X317174Y473723D01*
X301960D01*
Y473933D01*
X301170D01*
Y484094D01*
X301960D01*
Y484304D01*
X317541D01*
Y484094D01*
D02*
G37*
G36*
X177942Y543852D02*
X178732D01*
Y533692D01*
Y523619D01*
Y513545D01*
Y503471D01*
Y493397D01*
Y483324D01*
Y473250D01*
Y463177D01*
X177942D01*
Y462966D01*
X162362D01*
Y463177D01*
X161572D01*
Y473250D01*
Y483324D01*
Y493397D01*
Y503471D01*
Y513545D01*
Y523619D01*
Y533692D01*
Y543852D01*
X162362D01*
Y544063D01*
X177942D01*
Y543852D01*
D02*
G37*
G36*
X711396Y479204D02*
X711606D01*
Y463624D01*
X711396D01*
Y462834D01*
X701236D01*
Y463624D01*
X701025D01*
Y479204D01*
X701236D01*
Y479994D01*
X711396D01*
Y479204D01*
D02*
G37*
G36*
X688459Y479153D02*
X688670D01*
Y463573D01*
X688459D01*
Y462783D01*
X678299D01*
Y463573D01*
X678089D01*
Y479153D01*
X678299D01*
Y479943D01*
X688459D01*
Y479153D01*
D02*
G37*
G36*
X699089Y479151D02*
X699300D01*
Y463570D01*
X699089D01*
Y462780D01*
X688929D01*
Y463570D01*
X688718D01*
Y479151D01*
X688929D01*
Y479941D01*
X699089D01*
Y479151D01*
D02*
G37*
G36*
X667771Y470355D02*
X667921D01*
Y458975D01*
X667771D01*
Y457954D01*
X659689D01*
Y458975D01*
X659539D01*
Y470355D01*
X659689D01*
Y471376D01*
X667771D01*
Y470355D01*
D02*
G37*
G36*
X263543Y485506D02*
X263754D01*
Y469925D01*
X263543D01*
Y469136D01*
X256248D01*
X257626Y468078D01*
X258725Y466645D01*
X259417Y464977D01*
X259652Y463187D01*
X259417Y461396D01*
X258725Y459728D01*
X257626Y458296D01*
X256194Y457196D01*
X254525Y456505D01*
X252735Y456270D01*
X250945Y456505D01*
X249277Y457196D01*
X247844Y458296D01*
X246745Y459728D01*
X246054Y461396D01*
X245818Y463187D01*
X246054Y464977D01*
X246745Y466645D01*
X247844Y468078D01*
X248990Y468958D01*
X241762D01*
X243001Y468007D01*
X244100Y466574D01*
X244791Y464906D01*
X245027Y463116D01*
X244791Y461325D01*
X244100Y459657D01*
X243001Y458224D01*
X241568Y457125D01*
X239900Y456434D01*
X238110Y456199D01*
X236320Y456434D01*
X234651Y457125D01*
X233219Y458224D01*
X232119Y459657D01*
X231428Y461325D01*
X231193Y463116D01*
X231428Y464906D01*
X232119Y466574D01*
X233219Y468007D01*
X234458Y468958D01*
X233657D01*
Y469748D01*
X233446D01*
Y485328D01*
X233657D01*
Y486118D01*
X253383D01*
Y486296D01*
X263543D01*
Y485506D01*
D02*
G37*
G36*
X150472Y462010D02*
X152140Y461319D01*
X153573Y460219D01*
X154672Y458787D01*
X155363Y457118D01*
X155599Y455328D01*
X155363Y453538D01*
X154672Y451869D01*
X153573Y450437D01*
X152140Y449338D01*
X150472Y448647D01*
X148681Y448411D01*
X146891Y448647D01*
X145223Y449338D01*
X143790Y450437D01*
X142691Y451869D01*
X142000Y453538D01*
X141764Y455328D01*
X142000Y457118D01*
X142691Y458787D01*
X143790Y460219D01*
X145223Y461319D01*
X146891Y462010D01*
X148681Y462245D01*
X150472Y462010D01*
D02*
G37*
G36*
X81112Y461086D02*
X81323D01*
Y445506D01*
X81112D01*
Y444716D01*
X70952D01*
Y445506D01*
X70742D01*
Y461086D01*
X70952D01*
Y461876D01*
X81112D01*
Y461086D01*
D02*
G37*
G36*
X70013Y460979D02*
X70223D01*
Y445399D01*
X70013D01*
Y444609D01*
X59853D01*
Y445399D01*
X59642D01*
Y460979D01*
X59853D01*
Y461769D01*
X70013D01*
Y460979D01*
D02*
G37*
G36*
X58834Y460977D02*
X59045D01*
Y445397D01*
X58834D01*
Y444607D01*
X48674D01*
Y445397D01*
X48463D01*
Y460977D01*
X48674D01*
Y461767D01*
X58834D01*
Y460977D01*
D02*
G37*
G36*
X44922Y460954D02*
X45133D01*
Y445374D01*
X44922D01*
Y444584D01*
X34762D01*
Y445374D01*
X34552D01*
Y460954D01*
X34762D01*
Y461744D01*
X44922D01*
Y460954D01*
D02*
G37*
G36*
X210165Y455689D02*
X210375D01*
Y440108D01*
X210165D01*
Y439318D01*
X209397D01*
X210616Y438160D01*
X211533Y436167D01*
X211646Y433977D01*
X210938Y431901D01*
X209511Y430235D01*
X207568Y429217D01*
X207251Y429185D01*
Y426443D01*
X216474D01*
Y417220D01*
X219410D01*
Y389087D01*
X216474D01*
Y379865D01*
X207759D01*
Y376926D01*
X179116D01*
Y379865D01*
X169893D01*
Y389087D01*
X166957D01*
Y417220D01*
X169893D01*
Y426443D01*
X179116D01*
Y429384D01*
X193799D01*
X192495Y429924D01*
X190888Y431532D01*
X190017Y433633D01*
Y435906D01*
X190888Y438007D01*
X192199Y439318D01*
X189057D01*
Y440108D01*
X188846D01*
Y455689D01*
X189057D01*
Y456479D01*
X199217D01*
Y455689D01*
X199428D01*
Y440484D01*
X199794D01*
Y455689D01*
X200005D01*
Y456479D01*
X210165D01*
Y455689D01*
D02*
G37*
G36*
X172982Y456291D02*
X173192D01*
Y440710D01*
X172982D01*
Y439920D01*
X162822D01*
Y440710D01*
X162611D01*
Y456291D01*
X162822D01*
Y457081D01*
X172982D01*
Y456291D01*
D02*
G37*
G36*
X720143Y439725D02*
X720354D01*
Y424144D01*
X720143D01*
Y423354D01*
X709983D01*
Y424144D01*
X709808D01*
Y424066D01*
X709597D01*
Y423276D01*
X699437D01*
Y424066D01*
X699226D01*
Y439646D01*
X699437D01*
Y440436D01*
X709597D01*
Y439646D01*
X709772D01*
Y439725D01*
X709983D01*
Y440515D01*
X720143D01*
Y439725D01*
D02*
G37*
G36*
X188270Y455689D02*
X188481D01*
Y440108D01*
X188270D01*
Y439318D01*
X178110D01*
Y440108D01*
X177899D01*
Y455689D01*
X178110D01*
Y456479D01*
X188270D01*
Y455689D01*
D02*
G37*
G36*
X672180Y448104D02*
X672391D01*
Y433376D01*
X672759Y433328D01*
X674427Y432637D01*
X675860Y431538D01*
X676959Y430105D01*
X677451Y428918D01*
Y439389D01*
X677662D01*
Y440179D01*
X687822D01*
Y439389D01*
X688033D01*
Y423809D01*
X687822D01*
Y423019D01*
X677662D01*
Y423809D01*
X677451D01*
Y424375D01*
X676959Y423188D01*
X675860Y421755D01*
X674427Y420656D01*
X672759Y419965D01*
X670969Y419729D01*
X669179Y419965D01*
X667510Y420656D01*
X666078Y421755D01*
X665508Y422498D01*
X664938Y421755D01*
X663505Y420656D01*
X661837Y419965D01*
X660047Y419729D01*
X658257Y419965D01*
X656588Y420656D01*
X655156Y421755D01*
X654586Y422498D01*
X654016Y421755D01*
X652583Y420656D01*
X650915Y419965D01*
X649125Y419729D01*
X647335Y419965D01*
X645666Y420656D01*
X644234Y421755D01*
X643664Y422498D01*
X643094Y421755D01*
X641662Y420656D01*
X639993Y419965D01*
X638203Y419729D01*
X636413Y419965D01*
X634744Y420656D01*
X633312Y421755D01*
X632742Y422498D01*
X632172Y421755D01*
X630740Y420656D01*
X629071Y419965D01*
X627281Y419729D01*
X625491Y419965D01*
X623822Y420656D01*
X622390Y421755D01*
X621820Y422498D01*
X621250Y421755D01*
X619818Y420656D01*
X618149Y419965D01*
X616359Y419729D01*
X614569Y419965D01*
X612900Y420656D01*
X611468Y421755D01*
X610368Y423188D01*
X609677Y424856D01*
X609442Y426646D01*
X609677Y428437D01*
X610368Y430105D01*
X611468Y431538D01*
X612900Y432637D01*
X614569Y433328D01*
X616359Y433563D01*
X618149Y433328D01*
X619818Y432637D01*
X621250Y431538D01*
X621820Y430795D01*
X622390Y431538D01*
X623822Y432637D01*
X625203Y433209D01*
Y448046D01*
X625414D01*
Y448836D01*
X635574D01*
Y448046D01*
X635785D01*
Y433068D01*
X636407Y433326D01*
Y447972D01*
X636618D01*
Y448762D01*
X646778D01*
Y447972D01*
X646989D01*
Y433185D01*
X647335Y433328D01*
X649125Y433563D01*
X650915Y433328D01*
X651078Y433260D01*
Y447949D01*
X651289D01*
Y448739D01*
X661449D01*
Y447949D01*
X661660D01*
Y433351D01*
X661810Y433331D01*
Y448104D01*
X662020D01*
Y448894D01*
X672180D01*
Y448104D01*
D02*
G37*
G36*
X79842Y442958D02*
X81432Y441447D01*
X82349Y439454D01*
X82461Y437264D01*
X81754Y435187D01*
X80326Y433522D01*
X78383Y432504D01*
X77292Y432392D01*
Y432392D01*
X77241Y432341D01*
X65411D01*
X63311Y433211D01*
X61703Y434819D01*
X60833Y436919D01*
Y439193D01*
X61703Y441293D01*
X63311Y442901D01*
X65411Y443771D01*
X77805D01*
X79842Y442958D01*
D02*
G37*
G36*
X396947Y433553D02*
X397787Y432991D01*
X398348Y432151D01*
X398545Y431160D01*
X398348Y430169D01*
X397787Y429329D01*
X396947Y428767D01*
X395956Y428570D01*
X394964Y428767D01*
X394683Y428955D01*
X394124Y429329D01*
X393563Y430169D01*
X393366Y431160D01*
X393563Y432151D01*
X394124Y432991D01*
X394683Y433364D01*
X394964Y433553D01*
X395956Y433750D01*
X396947Y433553D01*
D02*
G37*
G36*
X29634Y434475D02*
X30424D01*
Y424315D01*
X29634D01*
Y424104D01*
X14054D01*
Y424315D01*
X13264D01*
Y434475D01*
X14054D01*
Y434685D01*
X29634D01*
Y434475D01*
D02*
G37*
G36*
X158910Y433680D02*
X159700D01*
Y423520D01*
X158910D01*
Y423309D01*
X143330D01*
Y423520D01*
X142540D01*
Y433680D01*
X143330D01*
Y433890D01*
X158910D01*
Y433680D01*
D02*
G37*
G36*
X698711Y439453D02*
X698922D01*
Y423873D01*
X698711D01*
Y423083D01*
X688551D01*
Y423873D01*
X688340D01*
Y439453D01*
X688551D01*
Y440243D01*
X698711D01*
Y439453D01*
D02*
G37*
G36*
X119797Y424846D02*
X120587D01*
Y414686D01*
X119797D01*
Y414475D01*
X119705D01*
Y414269D01*
X120495D01*
Y404109D01*
X119705D01*
Y403898D01*
X104125D01*
Y404109D01*
X103335D01*
Y406470D01*
X102958Y405527D01*
X101448Y403937D01*
X100689Y403587D01*
X102334Y402177D01*
X103352Y400234D01*
X103426Y399513D01*
Y402773D01*
X104216D01*
Y402984D01*
X119797D01*
Y402773D01*
X120587D01*
Y392613D01*
X119797D01*
Y392402D01*
X104216D01*
Y392613D01*
X103515D01*
Y391749D01*
X104216D01*
Y391960D01*
X119797D01*
Y391749D01*
X120587D01*
Y381589D01*
X119797D01*
Y381379D01*
X104216D01*
Y381589D01*
X103426D01*
Y387048D01*
X102645Y385162D01*
X101037Y383554D01*
X98937Y382684D01*
X96663D01*
X94563Y383554D01*
X92955Y385162D01*
X92085Y387262D01*
Y388399D01*
Y398559D01*
Y399656D01*
X92899Y401693D01*
X94409Y403283D01*
X95168Y403632D01*
X93523Y405042D01*
X92505Y406985D01*
X92393Y408076D01*
X92393D01*
X92342Y408127D01*
Y418821D01*
Y419957D01*
X93212Y422058D01*
X94819Y423666D01*
X96920Y424536D01*
X99193D01*
X101294Y423666D01*
X102902Y422058D01*
X103426Y420791D01*
Y424846D01*
X104216D01*
Y425056D01*
X119797D01*
Y424846D01*
D02*
G37*
G36*
X250899Y422750D02*
X251689D01*
Y412590D01*
X250899D01*
Y412379D01*
X235859D01*
Y412217D01*
X250929D01*
Y412006D01*
X251719D01*
Y401846D01*
X250929D01*
Y401635D01*
X235349D01*
Y401846D01*
X234559D01*
Y403012D01*
X233535Y401935D01*
X233165Y401764D01*
X233214Y401748D01*
X234556Y400597D01*
Y401218D01*
X235346D01*
Y401429D01*
X250927D01*
Y401218D01*
X251716D01*
Y391058D01*
X250927D01*
Y390848D01*
X236060D01*
Y390304D01*
X250998D01*
Y390093D01*
X251788D01*
Y379933D01*
X250998D01*
Y379722D01*
X235417D01*
Y379933D01*
X234627D01*
Y382743D01*
X233582Y381697D01*
X231482Y380827D01*
X229208D01*
X227108Y381697D01*
X225500Y383305D01*
X224630Y385406D01*
Y386542D01*
Y396702D01*
Y397799D01*
X225443Y399836D01*
X226954Y401426D01*
X227325Y401597D01*
X227276Y401614D01*
X225610Y403041D01*
X224592Y404984D01*
X224480Y406075D01*
X224480D01*
X224429Y406126D01*
Y416819D01*
Y417956D01*
X225299Y420056D01*
X226907Y421664D01*
X229007Y422534D01*
X231281D01*
X233382Y421664D01*
X234528Y420517D01*
Y422750D01*
X235318D01*
Y422961D01*
X250899D01*
Y422750D01*
D02*
G37*
G36*
X435138Y420256D02*
X435978Y419694D01*
X436540Y418854D01*
X436737Y417863D01*
X436540Y416872D01*
X435978Y416032D01*
X435138Y415470D01*
X434147Y415273D01*
X433156Y415470D01*
X432874Y415659D01*
X432316Y416032D01*
X431754Y416872D01*
X431557Y417863D01*
X431754Y418854D01*
X432316Y419694D01*
X432874Y420067D01*
X433156Y420256D01*
X434147Y420453D01*
X435138Y420256D01*
D02*
G37*
G36*
X29708Y423761D02*
X30498D01*
Y413601D01*
X29708D01*
Y413390D01*
X14128D01*
Y413601D01*
X13338D01*
Y423761D01*
X14128D01*
Y423972D01*
X29708D01*
Y423761D01*
D02*
G37*
G36*
X158882Y422618D02*
X159672D01*
Y412458D01*
X158882D01*
Y412247D01*
X143302D01*
Y412458D01*
X142512D01*
Y422618D01*
X143302D01*
Y422829D01*
X158882D01*
Y422618D01*
D02*
G37*
G36*
X433050Y414551D02*
X433890Y413989D01*
X434452Y413149D01*
X434649Y412158D01*
X434452Y411167D01*
X433890Y410327D01*
X433050Y409766D01*
X432059Y409568D01*
X431068Y409766D01*
X430786Y409954D01*
X430228Y410327D01*
X429666Y411167D01*
X429469Y412158D01*
X429666Y413149D01*
X430228Y413989D01*
X430786Y414363D01*
X431068Y414551D01*
X432059Y414748D01*
X433050Y414551D01*
D02*
G37*
G36*
X694728Y422607D02*
X696396Y421916D01*
X697829Y420816D01*
X698928Y419384D01*
X699619Y417715D01*
X699855Y415925D01*
X699619Y414135D01*
X698928Y412466D01*
X697829Y411034D01*
X696396Y409935D01*
X694728Y409244D01*
X692937Y409008D01*
X691147Y409244D01*
X689479Y409935D01*
X688046Y411034D01*
X686947Y412466D01*
X686256Y414135D01*
X686020Y415925D01*
X686256Y417715D01*
X686947Y419384D01*
X688046Y420816D01*
X689479Y421916D01*
X691147Y422607D01*
X692937Y422842D01*
X694728Y422607D01*
D02*
G37*
G36*
X717877Y416129D02*
X719546Y415438D01*
X720978Y414339D01*
X722077Y412907D01*
X722768Y411238D01*
X723004Y409448D01*
X722768Y407658D01*
X722077Y405989D01*
X720978Y404557D01*
X719546Y403457D01*
X717877Y402766D01*
X716087Y402531D01*
X714297Y402766D01*
X712628Y403457D01*
X711196Y404557D01*
X710097Y405989D01*
X709406Y407658D01*
X709170Y409448D01*
X709406Y411238D01*
X710097Y412907D01*
X711196Y414339D01*
X712628Y415438D01*
X714297Y416129D01*
X716087Y416365D01*
X717877Y416129D01*
D02*
G37*
G36*
X29708Y412737D02*
X30498D01*
Y402577D01*
X29708D01*
Y402366D01*
X14128D01*
Y402577D01*
X13338D01*
Y412737D01*
X14128D01*
Y412948D01*
X29708D01*
Y412737D01*
D02*
G37*
G36*
X158907Y411493D02*
X159697D01*
Y401333D01*
X158907D01*
Y401122D01*
X143327D01*
Y401333D01*
X142537D01*
Y411493D01*
X143327D01*
Y411703D01*
X158907D01*
Y411493D01*
D02*
G37*
G36*
X434704Y404416D02*
X435544Y403855D01*
X436105Y403015D01*
X436302Y402024D01*
X436105Y401032D01*
X435544Y400192D01*
X434704Y399631D01*
X433713Y399434D01*
X432722Y399631D01*
X432440Y399819D01*
X431881Y400192D01*
X431320Y401032D01*
X431123Y402024D01*
X431320Y403015D01*
X431881Y403855D01*
X432440Y404228D01*
X432722Y404416D01*
X433713Y404613D01*
X434704Y404416D01*
D02*
G37*
G36*
X431851Y398927D02*
X432691Y398366D01*
X433253Y397526D01*
X433450Y396535D01*
X433253Y395544D01*
X432691Y394703D01*
X431851Y394142D01*
X430860Y393945D01*
X429869Y394142D01*
X429588Y394330D01*
X429029Y394703D01*
X428468Y395544D01*
X428270Y396535D01*
X428468Y397526D01*
X429029Y398366D01*
X429588Y398739D01*
X429869Y398927D01*
X430860Y399124D01*
X431851Y398927D01*
D02*
G37*
G36*
X30594Y398849D02*
X31615D01*
Y390766D01*
X30594D01*
Y390616D01*
X19215D01*
Y390766D01*
X18194D01*
Y398849D01*
X19215D01*
Y398998D01*
X30594D01*
Y398849D01*
D02*
G37*
G36*
X162306Y396946D02*
X163327D01*
Y388864D01*
X162306D01*
Y388714D01*
X150927D01*
Y388864D01*
X149906D01*
Y396946D01*
X150927D01*
Y397096D01*
X162306D01*
Y396946D01*
D02*
G37*
G36*
X432639Y387396D02*
X433479Y386834D01*
X434040Y385994D01*
X434237Y385003D01*
X434040Y384012D01*
X433479Y383172D01*
X432639Y382610D01*
X431648Y382413D01*
X430657Y382610D01*
X430375Y382799D01*
X429816Y383172D01*
X429255Y384012D01*
X429058Y385003D01*
X429255Y385994D01*
X429816Y386834D01*
X430375Y387207D01*
X430657Y387396D01*
X431648Y387593D01*
X432639Y387396D01*
D02*
G37*
G36*
X76152Y427949D02*
X85374D01*
Y418727D01*
X88311D01*
Y390594D01*
X85374D01*
Y381371D01*
X76660D01*
Y378432D01*
X48016D01*
Y381371D01*
X38793D01*
Y390594D01*
X35857D01*
Y418727D01*
X38793D01*
Y427949D01*
X48016D01*
Y430891D01*
X76152D01*
Y427949D01*
D02*
G37*
G36*
X435892Y381711D02*
X436733Y381150D01*
X437294Y380310D01*
X437491Y379319D01*
X437294Y378327D01*
X436733Y377487D01*
X435892Y376926D01*
X434901Y376729D01*
X433910Y376926D01*
X433629Y377114D01*
X433070Y377487D01*
X432509Y378327D01*
X432312Y379319D01*
X432509Y380310D01*
X433070Y381150D01*
X433629Y381523D01*
X433910Y381711D01*
X434901Y381908D01*
X435892Y381711D01*
D02*
G37*
G36*
Y372001D02*
X436733Y371439D01*
X437294Y370599D01*
X437491Y369608D01*
X437294Y368617D01*
X436733Y367777D01*
X435892Y367215D01*
X434901Y367018D01*
X433910Y367215D01*
X433629Y367404D01*
X433070Y367777D01*
X432509Y368617D01*
X432312Y369608D01*
X432509Y370599D01*
X433070Y371439D01*
X433629Y371813D01*
X433910Y372001D01*
X434901Y372198D01*
X435892Y372001D01*
D02*
G37*
G36*
X77848Y375749D02*
X79438Y374239D01*
X80355Y372246D01*
X80467Y370055D01*
X79760Y367979D01*
X78332Y366314D01*
X76389Y365296D01*
X75298Y365183D01*
Y365183D01*
X75248Y365133D01*
X63417D01*
X61317Y366003D01*
X59709Y367610D01*
X58839Y369711D01*
Y371984D01*
X59709Y374085D01*
X61317Y375693D01*
X63417Y376563D01*
X75811D01*
X77848Y375749D01*
D02*
G37*
G36*
X432639Y366316D02*
X433479Y365755D01*
X434040Y364915D01*
X434237Y363924D01*
X434040Y362933D01*
X433479Y362092D01*
X432639Y361531D01*
X431648Y361334D01*
X430657Y361531D01*
X430375Y361719D01*
X429816Y362092D01*
X429255Y362933D01*
X429058Y363924D01*
X429255Y364915D01*
X429816Y365755D01*
X430375Y366128D01*
X430657Y366316D01*
X431648Y366513D01*
X432639Y366316D01*
D02*
G37*
G36*
X174272Y369613D02*
X174422D01*
Y358234D01*
X174272D01*
Y357213D01*
X166190D01*
Y358234D01*
X166040D01*
Y369613D01*
X166190D01*
Y370634D01*
X174272D01*
Y369613D01*
D02*
G37*
G36*
X55188Y373648D02*
X56796Y372040D01*
X57666Y369940D01*
Y368803D01*
Y358643D01*
Y357506D01*
X56796Y355406D01*
X55188Y353798D01*
X53087Y352928D01*
X50814D01*
X48713Y353798D01*
X47106Y355406D01*
X46236Y357506D01*
Y358110D01*
X39350D01*
Y359131D01*
X39200D01*
Y370510D01*
X39350D01*
Y371531D01*
X46895D01*
X47106Y372040D01*
X48713Y373648D01*
X50814Y374518D01*
X53087D01*
X55188Y373648D01*
D02*
G37*
G36*
X184311Y372421D02*
X185919Y370813D01*
X186789Y368713D01*
Y367576D01*
Y357416D01*
Y356279D01*
X185919Y354179D01*
X184311Y352571D01*
X182211Y351701D01*
X179937D01*
X177837Y352571D01*
X176229Y354179D01*
X175359Y356279D01*
Y357416D01*
Y367576D01*
Y368713D01*
X176229Y370813D01*
X177837Y372421D01*
X179937Y373291D01*
X182211D01*
X184311Y372421D01*
D02*
G37*
G36*
X431851Y354785D02*
X432691Y354223D01*
X433253Y353383D01*
X433450Y352392D01*
X433253Y351401D01*
X432691Y350561D01*
X431851Y349999D01*
X430860Y349802D01*
X429869Y349999D01*
X429588Y350187D01*
X429029Y350561D01*
X428468Y351401D01*
X428270Y352392D01*
X428468Y353383D01*
X429029Y354223D01*
X429588Y354596D01*
X429869Y354785D01*
X430860Y354982D01*
X431851Y354785D01*
D02*
G37*
G36*
X69431Y362341D02*
X69642D01*
Y346761D01*
X69431D01*
Y345971D01*
X59271D01*
Y346761D01*
X59060D01*
Y362341D01*
X59271D01*
Y363131D01*
X69431D01*
Y362341D01*
D02*
G37*
G36*
X80287Y362224D02*
X80498D01*
Y346644D01*
X80287D01*
Y345854D01*
X70127D01*
Y346644D01*
X69916D01*
Y362224D01*
X70127D01*
Y363014D01*
X80287D01*
Y362224D01*
D02*
G37*
G36*
X207601Y372102D02*
X209192Y370591D01*
X210108Y368598D01*
X210221Y366408D01*
X209513Y364332D01*
X208086Y362666D01*
X206253Y361706D01*
X209387D01*
Y360916D01*
X209598D01*
Y345336D01*
X209387D01*
Y344546D01*
X199227D01*
Y345336D01*
X199017D01*
Y360916D01*
X199227D01*
Y361485D01*
X198288D01*
Y361003D01*
X198498D01*
Y345422D01*
X198288D01*
Y344632D01*
X188128D01*
Y345422D01*
X187917D01*
Y361003D01*
X188128D01*
Y361792D01*
X192429D01*
X191070Y362355D01*
X189463Y363963D01*
X188592Y366063D01*
Y368337D01*
X189463Y370438D01*
X191070Y372045D01*
X193171Y372915D01*
X205564D01*
X207601Y372102D01*
D02*
G37*
G36*
X434704Y349296D02*
X435544Y348734D01*
X436105Y347894D01*
X436302Y346903D01*
X436105Y345912D01*
X435544Y345072D01*
X434704Y344510D01*
X433713Y344313D01*
X432722Y344510D01*
X432440Y344699D01*
X431881Y345072D01*
X431320Y345912D01*
X431123Y346903D01*
X431320Y347894D01*
X431881Y348734D01*
X432440Y349108D01*
X432722Y349296D01*
X433713Y349493D01*
X434704Y349296D01*
D02*
G37*
G36*
X433050Y339161D02*
X433890Y338600D01*
X434452Y337760D01*
X434649Y336768D01*
X434452Y335777D01*
X433890Y334937D01*
X433050Y334376D01*
X432059Y334179D01*
X431068Y334376D01*
X430786Y334564D01*
X430228Y334937D01*
X429666Y335777D01*
X429469Y336768D01*
X429666Y337760D01*
X430228Y338600D01*
X430786Y338973D01*
X431068Y339161D01*
X432059Y339358D01*
X433050Y339161D01*
D02*
G37*
G36*
X435138Y333456D02*
X435978Y332895D01*
X436540Y332055D01*
X436737Y331064D01*
X436540Y330073D01*
X435978Y329232D01*
X435138Y328671D01*
X434147Y328474D01*
X433156Y328671D01*
X432874Y328859D01*
X432316Y329232D01*
X431754Y330073D01*
X431557Y331064D01*
X431754Y332055D01*
X432316Y332895D01*
X432874Y333268D01*
X433156Y333456D01*
X434147Y333653D01*
X435138Y333456D01*
D02*
G37*
G36*
X197104Y327384D02*
X198375Y326857D01*
X199520Y326093D01*
X200492Y325120D01*
X201257Y323976D01*
X201784Y322705D01*
X202052Y321355D01*
Y320667D01*
Y314317D01*
Y313629D01*
X201784Y312280D01*
X201257Y311009D01*
X200492Y309865D01*
X199520Y308892D01*
X198375Y308127D01*
X197104Y307601D01*
X195755Y307332D01*
X175075D01*
X173725Y307601D01*
X172454Y308127D01*
X171310Y308892D01*
X170337Y309865D01*
X169573Y311009D01*
X169046Y312280D01*
X168778Y313629D01*
Y314317D01*
Y318439D01*
X168556Y316751D01*
X167865Y315083D01*
X166765Y313650D01*
X165333Y312551D01*
X163664Y311860D01*
X161874Y311624D01*
X160084Y311860D01*
X158416Y312551D01*
X156983Y313650D01*
X155884Y315083D01*
X155193Y316751D01*
X154957Y318541D01*
X155193Y320332D01*
X155884Y322000D01*
X156983Y323433D01*
X158416Y324532D01*
X160084Y325223D01*
X161874Y325459D01*
X163664Y325223D01*
X165333Y324532D01*
X166765Y323433D01*
X167865Y322000D01*
X168556Y320332D01*
X168778Y318644D01*
Y320667D01*
Y321355D01*
X169046Y322705D01*
X169573Y323976D01*
X170337Y325120D01*
X171310Y326093D01*
X172454Y326857D01*
X173725Y327384D01*
X175075Y327652D01*
X195755D01*
X197104Y327384D01*
D02*
G37*
G36*
X396947Y320159D02*
X397787Y319598D01*
X398348Y318758D01*
X398545Y317767D01*
X398348Y316776D01*
X397787Y315935D01*
X396947Y315374D01*
X395956Y315177D01*
X394964Y315374D01*
X394683Y315562D01*
X394124Y315935D01*
X393563Y316776D01*
X393366Y317767D01*
X393563Y318758D01*
X394124Y319598D01*
X394683Y319971D01*
X394964Y320159D01*
X395956Y320356D01*
X396947Y320159D01*
D02*
G37*
G36*
X334985Y317806D02*
X336653Y317115D01*
X338086Y316016D01*
X339185Y314583D01*
X339876Y312915D01*
X339922Y312567D01*
X340494Y313423D01*
X341467Y314396D01*
X342611Y315161D01*
X343883Y315687D01*
X345232Y315956D01*
X365912D01*
X367262Y315687D01*
X368533Y315161D01*
X369677Y314396D01*
X370650Y313423D01*
X371414Y312279D01*
X371941Y311008D01*
X372209Y309659D01*
Y308971D01*
Y302621D01*
Y301933D01*
X371941Y300583D01*
X371414Y299312D01*
X370650Y298168D01*
X369677Y297195D01*
X368533Y296431D01*
X367262Y295904D01*
X366704Y295793D01*
X389047D01*
Y293748D01*
X393276D01*
Y280612D01*
X394341Y282000D01*
X395774Y283099D01*
X397442Y283790D01*
X399232Y284026D01*
X401022Y283790D01*
X402691Y283099D01*
X404123Y282000D01*
X405223Y280567D01*
X405914Y278899D01*
X406149Y277109D01*
X405914Y275319D01*
X405223Y273650D01*
X404123Y272218D01*
X402691Y271119D01*
X401022Y270427D01*
X399232Y270192D01*
X397442Y270427D01*
X395774Y271119D01*
X394341Y272218D01*
X393276Y273606D01*
Y267668D01*
X389047D01*
Y266131D01*
X361427D01*
Y267668D01*
X357198D01*
Y293748D01*
X359405D01*
Y295636D01*
X345232D01*
X343883Y295904D01*
X342611Y296431D01*
X341467Y297195D01*
X340494Y298168D01*
X339730Y299312D01*
X339203Y300583D01*
X338935Y301933D01*
Y302621D01*
Y307340D01*
X338086Y306233D01*
X336653Y305134D01*
X334985Y304443D01*
X333195Y304207D01*
X331404Y304443D01*
X329736Y305134D01*
X328303Y306233D01*
X327204Y307666D01*
X327129Y307847D01*
Y305062D01*
X326979D01*
Y304041D01*
X318897D01*
Y305062D01*
X318747D01*
Y316441D01*
X318897D01*
Y317462D01*
X326979D01*
Y316441D01*
X327129D01*
Y314402D01*
X327204Y314583D01*
X328303Y316016D01*
X329736Y317115D01*
X331404Y317806D01*
X333195Y318042D01*
X334985Y317806D01*
D02*
G37*
G36*
X82964Y329941D02*
X83175D01*
Y314361D01*
X82964D01*
Y313571D01*
X80303D01*
X80680Y313420D01*
X82270Y311910D01*
X83187Y309917D01*
X83300Y307726D01*
X82592Y305650D01*
X81165Y303984D01*
X79221Y302967D01*
X78130Y302854D01*
Y302854D01*
X78080Y302804D01*
X66249D01*
X64149Y303674D01*
X62541Y305281D01*
X61671Y307382D01*
Y309655D01*
X62541Y311756D01*
X64149Y313363D01*
X64575Y313540D01*
X61984D01*
Y314330D01*
X61773D01*
Y329910D01*
X61984D01*
Y330700D01*
X72144D01*
Y329910D01*
X72354D01*
Y314330D01*
X72144D01*
Y314234D01*
X72804D01*
Y314361D01*
X72593D01*
Y329941D01*
X72804D01*
Y330731D01*
X82964D01*
Y329941D01*
D02*
G37*
G36*
X61366Y329954D02*
X61577D01*
Y314373D01*
X61366D01*
Y313583D01*
X51206D01*
Y314373D01*
X50996D01*
Y329954D01*
X51206D01*
Y330744D01*
X61366D01*
Y329954D01*
D02*
G37*
G36*
X47737Y329872D02*
X47948D01*
Y314292D01*
X47737D01*
Y313502D01*
X37577D01*
Y314292D01*
X37366D01*
Y329872D01*
X37577D01*
Y330662D01*
X47737D01*
Y329872D01*
D02*
G37*
G36*
X672274Y322232D02*
X673296D01*
Y314150D01*
X672274D01*
Y314000D01*
X667365D01*
Y305653D01*
X666575D01*
Y305443D01*
X650994D01*
Y305653D01*
X650204D01*
Y315813D01*
X650994D01*
Y316024D01*
X659874D01*
Y322232D01*
X660895D01*
Y322382D01*
X672274D01*
Y322232D01*
D02*
G37*
G36*
X246674Y318225D02*
X248342Y317534D01*
X249775Y316435D01*
X250874Y315002D01*
X251565Y313334D01*
X251801Y311544D01*
X251565Y309753D01*
X250874Y308085D01*
X249775Y306653D01*
X248342Y305553D01*
X246674Y304862D01*
X244884Y304627D01*
X243094Y304862D01*
X241425Y305553D01*
X239993Y306653D01*
X238894Y308085D01*
X238202Y309753D01*
X237967Y311544D01*
X238202Y313334D01*
X238894Y315002D01*
X239993Y316435D01*
X241425Y317534D01*
X243094Y318225D01*
X244884Y318461D01*
X246674Y318225D01*
D02*
G37*
G36*
X212643D02*
X214312Y317534D01*
X215744Y316435D01*
X216843Y315002D01*
X217535Y313334D01*
X217770Y311544D01*
X217535Y309753D01*
X216843Y308085D01*
X215744Y306653D01*
X214312Y305553D01*
X212643Y304862D01*
X210853Y304627D01*
X209063Y304862D01*
X207394Y305553D01*
X205962Y306653D01*
X204863Y308085D01*
X204172Y309753D01*
X203936Y311544D01*
X204172Y313334D01*
X204863Y315002D01*
X205962Y316435D01*
X207394Y317534D01*
X209063Y318225D01*
X210853Y318461D01*
X212643Y318225D01*
D02*
G37*
G36*
X383118Y317593D02*
X384786Y316902D01*
X386219Y315802D01*
X387318Y314370D01*
X388009Y312701D01*
X388245Y310911D01*
X388009Y309121D01*
X387318Y307453D01*
X386219Y306020D01*
X384786Y304921D01*
X383118Y304230D01*
X381328Y303994D01*
X379537Y304230D01*
X377869Y304921D01*
X376437Y306020D01*
X375337Y307453D01*
X374646Y309121D01*
X374411Y310911D01*
X374646Y312701D01*
X375337Y314370D01*
X376437Y315802D01*
X377869Y316902D01*
X379537Y317593D01*
X381328Y317828D01*
X383118Y317593D01*
D02*
G37*
G36*
X34270Y305638D02*
X35060D01*
Y295478D01*
X34270D01*
Y295267D01*
X18689D01*
Y295478D01*
X17899D01*
Y305638D01*
X18689D01*
Y305849D01*
X34270D01*
Y305638D01*
D02*
G37*
G36*
X121567Y297845D02*
X122357D01*
Y287686D01*
X121567D01*
Y287475D01*
X105987D01*
Y287686D01*
X105743D01*
Y286873D01*
X105987D01*
Y287083D01*
X121567D01*
Y286873D01*
X122357D01*
Y276713D01*
X121567D01*
Y276502D01*
X105987D01*
Y276713D01*
X105197D01*
Y278874D01*
X104929Y278204D01*
X103419Y276614D01*
X102143Y276027D01*
X102998Y275736D01*
X104663Y274309D01*
X105197Y273291D01*
Y275951D01*
X105987D01*
Y276161D01*
X121567D01*
Y275951D01*
X122357D01*
Y265791D01*
X121567D01*
Y265580D01*
X105987D01*
Y265791D01*
X105844D01*
Y264927D01*
X105987D01*
Y265138D01*
X121567D01*
Y264927D01*
X122357D01*
Y254767D01*
X121567D01*
Y254556D01*
X105987D01*
Y254767D01*
X105197D01*
Y257830D01*
X104974Y257293D01*
X103367Y255685D01*
X101266Y254815D01*
X98993D01*
X96892Y255685D01*
X95284Y257293D01*
X94414Y259394D01*
Y260530D01*
Y270690D01*
Y271787D01*
X95228Y273824D01*
X96738Y275415D01*
X98014Y276001D01*
X97159Y276292D01*
X95494Y277720D01*
X94476Y279663D01*
X94364Y280754D01*
X94363D01*
X94313Y280805D01*
Y291498D01*
Y292635D01*
X95183Y294735D01*
X96791Y296343D01*
X98891Y297213D01*
X101165D01*
X103265Y296343D01*
X104873Y294735D01*
X105197Y293953D01*
Y297845D01*
X105987D01*
Y298056D01*
X121567D01*
Y297845D01*
D02*
G37*
G36*
X662125Y301135D02*
X662915D01*
Y290975D01*
X662125D01*
Y290764D01*
X646544D01*
Y290975D01*
X645754D01*
Y301135D01*
X646544D01*
Y301346D01*
X662125D01*
Y301135D01*
D02*
G37*
G36*
X310073Y304336D02*
X311741Y303645D01*
X313174Y302546D01*
X314273Y301114D01*
X314964Y299445D01*
X315200Y297655D01*
X314964Y295865D01*
X314273Y294196D01*
X313174Y292764D01*
X311741Y291665D01*
X310073Y290973D01*
X308282Y290738D01*
X306492Y290973D01*
X304824Y291665D01*
X303391Y292764D01*
X302292Y294196D01*
X301601Y295865D01*
X301365Y297655D01*
X301601Y299445D01*
X302292Y301114D01*
X303391Y302546D01*
X304824Y303645D01*
X306492Y304336D01*
X308282Y304572D01*
X310073Y304336D01*
D02*
G37*
G36*
X34165Y294434D02*
X34955D01*
Y284274D01*
X34165D01*
Y284063D01*
X18585D01*
Y284274D01*
X17795D01*
Y294434D01*
X18585D01*
Y294645D01*
X34165D01*
Y294434D01*
D02*
G37*
G36*
X605986Y287939D02*
X606776D01*
Y277780D01*
X605986D01*
Y277569D01*
X590405D01*
Y277780D01*
X589615D01*
Y287939D01*
X590405D01*
Y288150D01*
X605986D01*
Y287939D01*
D02*
G37*
G36*
X34298Y283487D02*
X35088D01*
Y273327D01*
X34298D01*
Y273116D01*
X18717D01*
Y273327D01*
X17927D01*
Y283487D01*
X18717D01*
Y283698D01*
X34298D01*
Y283487D01*
D02*
G37*
G36*
X166119Y304511D02*
X167390Y303985D01*
X168534Y303220D01*
X169507Y302247D01*
X170271Y301103D01*
X170798Y299832D01*
X170831Y299667D01*
X172682D01*
Y301711D01*
X202324D01*
Y299667D01*
X206553D01*
Y273586D01*
X202324D01*
Y272049D01*
X174704D01*
Y273586D01*
X170475D01*
Y279736D01*
X170271Y279246D01*
X169507Y278102D01*
X168534Y277129D01*
X167390Y276365D01*
X166119Y275838D01*
X164769Y275570D01*
X160854D01*
X159504Y275838D01*
X158233Y276365D01*
X157089Y277129D01*
X156116Y278102D01*
X155351Y279246D01*
X154825Y280517D01*
X154557Y281867D01*
Y282555D01*
Y297795D01*
Y298483D01*
X154825Y299832D01*
X155351Y301103D01*
X156116Y302247D01*
X157089Y303220D01*
X158233Y303985D01*
X159504Y304511D01*
X160854Y304780D01*
X164769D01*
X166119Y304511D01*
D02*
G37*
G36*
X553753Y279611D02*
X554543D01*
Y269451D01*
X553753D01*
Y269240D01*
X538173D01*
Y269451D01*
X537383D01*
Y279611D01*
X538173D01*
Y279822D01*
X553753D01*
Y279611D01*
D02*
G37*
G36*
X227721Y289697D02*
X228021D01*
Y267619D01*
X227721D01*
Y266057D01*
X214239D01*
Y267619D01*
X213939D01*
Y289697D01*
X214239D01*
Y291259D01*
X227721D01*
Y289697D01*
D02*
G37*
G36*
X250246Y289601D02*
X250546D01*
Y267523D01*
X250246D01*
Y265961D01*
X236764D01*
Y267523D01*
X236464D01*
Y289601D01*
X236764D01*
Y291163D01*
X250246D01*
Y289601D01*
D02*
G37*
G36*
X339039Y286319D02*
X339339D01*
Y264241D01*
X339039D01*
Y262679D01*
X325557D01*
Y264241D01*
X325257D01*
Y286319D01*
X325557D01*
Y287881D01*
X339039D01*
Y286319D01*
D02*
G37*
G36*
X296896Y294575D02*
X298167Y294048D01*
X299311Y293284D01*
X300284Y292311D01*
X301049Y291167D01*
X301575Y289896D01*
X301843Y288546D01*
Y287858D01*
Y287551D01*
X314394D01*
Y285989D01*
X314693D01*
Y263911D01*
X314394D01*
Y262349D01*
X300911D01*
Y263911D01*
X300611D01*
Y264592D01*
X300284Y264102D01*
X299311Y263129D01*
X298167Y262364D01*
X296896Y261838D01*
X295546Y261569D01*
X287820D01*
X286471Y261838D01*
X285200Y262364D01*
X284056Y263129D01*
X283083Y264102D01*
X282318Y265245D01*
X281792Y266517D01*
X281523Y267866D01*
Y268554D01*
Y287858D01*
Y288546D01*
X281792Y289896D01*
X282318Y291167D01*
X283083Y292311D01*
X284056Y293284D01*
X285200Y294048D01*
X286471Y294575D01*
X287820Y294843D01*
X295546D01*
X296896Y294575D01*
D02*
G37*
G36*
X267216Y294676D02*
X268487Y294150D01*
X269631Y293385D01*
X270604Y292412D01*
X271369Y291268D01*
X271895Y289997D01*
X272164Y288648D01*
Y287960D01*
Y268656D01*
Y267968D01*
X271895Y266618D01*
X271369Y265347D01*
X270604Y264203D01*
X269631Y263230D01*
X268487Y262466D01*
X267216Y261939D01*
X265867Y261671D01*
X258141D01*
X256791Y261939D01*
X255520Y262466D01*
X254376Y263230D01*
X253403Y264203D01*
X252638Y265347D01*
X252112Y266618D01*
X251843Y267968D01*
Y268656D01*
Y287960D01*
Y288648D01*
X252112Y289997D01*
X252638Y291268D01*
X253403Y292412D01*
X254376Y293385D01*
X255520Y294150D01*
X256791Y294676D01*
X258141Y294945D01*
X265867D01*
X267216Y294676D01*
D02*
G37*
G36*
X661340Y273035D02*
X661490D01*
Y261656D01*
X661340D01*
Y260634D01*
X653258D01*
Y261656D01*
X653108D01*
Y273035D01*
X653258D01*
Y274056D01*
X661340D01*
Y273035D01*
D02*
G37*
G36*
X31788Y267271D02*
X32809D01*
Y259189D01*
X31788D01*
Y259039D01*
X20409D01*
Y259189D01*
X19388D01*
Y267271D01*
X20409D01*
Y267421D01*
X31788D01*
Y267271D01*
D02*
G37*
G36*
X156987Y270308D02*
X158655Y269617D01*
X160088Y268518D01*
X161187Y267085D01*
X161878Y265417D01*
X162114Y263627D01*
X161878Y261836D01*
X161187Y260168D01*
X160088Y258735D01*
X158655Y257636D01*
X156987Y256945D01*
X155197Y256709D01*
X153406Y256945D01*
X151738Y257636D01*
X150305Y258735D01*
X149206Y260168D01*
X148515Y261836D01*
X148279Y263627D01*
X148515Y265417D01*
X149206Y267085D01*
X150305Y268518D01*
X151738Y269617D01*
X153406Y270308D01*
X155197Y270544D01*
X156987Y270308D01*
D02*
G37*
G36*
X331140Y260401D02*
X332702D01*
Y246919D01*
X331140D01*
Y246619D01*
X309062D01*
Y246919D01*
X307500D01*
Y249442D01*
X306496Y248134D01*
X305063Y247034D01*
X303395Y246343D01*
X301605Y246108D01*
X299814Y246343D01*
X298146Y247034D01*
X296714Y248134D01*
X295614Y249566D01*
X294923Y251234D01*
X294688Y253025D01*
X294923Y254815D01*
X295614Y256483D01*
X296714Y257916D01*
X298146Y259015D01*
X299814Y259706D01*
X301605Y259942D01*
X303395Y259706D01*
X305063Y259015D01*
X306496Y257916D01*
X307500Y256607D01*
Y260401D01*
X309062D01*
Y260700D01*
X331140D01*
Y260401D01*
D02*
G37*
G36*
X551432Y260307D02*
X552272Y259745D01*
X552834Y258905D01*
X553031Y257914D01*
X552834Y256923D01*
X552272Y256083D01*
X551432Y255522D01*
X550441Y255324D01*
X549450Y255522D01*
X549168Y255710D01*
X548610Y256083D01*
X548048Y256923D01*
X547851Y257914D01*
X548048Y258905D01*
X548610Y259745D01*
X549168Y260119D01*
X549450Y260307D01*
X550441Y260504D01*
X551432Y260307D01*
D02*
G37*
G36*
X588033Y265260D02*
X588823D01*
Y255100D01*
X588033D01*
Y254889D01*
X572453D01*
Y255100D01*
X571663D01*
Y265260D01*
X572453D01*
Y265471D01*
X588033D01*
Y265260D01*
D02*
G37*
G36*
X699821Y274790D02*
X699971D01*
Y263411D01*
X699821D01*
Y263230D01*
X700522D01*
Y253070D01*
X699732D01*
Y252859D01*
X684152D01*
Y253070D01*
X683362D01*
Y263230D01*
X684152D01*
Y263441D01*
X691589D01*
Y274790D01*
X691739D01*
Y275811D01*
X699821D01*
Y274790D01*
D02*
G37*
G36*
X678559Y263180D02*
X679348D01*
Y253020D01*
X678559D01*
Y252809D01*
X662978D01*
Y253020D01*
X662188D01*
Y263180D01*
X662978D01*
Y263390D01*
X678559D01*
Y263180D01*
D02*
G37*
G36*
X372811Y262547D02*
X373601D01*
Y252387D01*
X372811D01*
Y252176D01*
X357231D01*
Y252387D01*
X356441D01*
Y262547D01*
X357231D01*
Y262758D01*
X372811D01*
Y262547D01*
D02*
G37*
G36*
X224081Y265665D02*
X225749Y264974D01*
X227182Y263875D01*
X228281Y262442D01*
X228972Y260774D01*
X229208Y258983D01*
X228972Y257193D01*
X228281Y255525D01*
X227182Y254092D01*
X225749Y252993D01*
X224081Y252302D01*
X222291Y252066D01*
X220500Y252302D01*
X218832Y252993D01*
X217400Y254092D01*
X216300Y255525D01*
X215609Y257193D01*
X215373Y258983D01*
X215609Y260774D01*
X216300Y262442D01*
X217400Y263875D01*
X218832Y264974D01*
X220500Y265665D01*
X222291Y265901D01*
X224081Y265665D01*
D02*
G37*
G36*
X250502Y265198D02*
X252170Y264507D01*
X253603Y263407D01*
X254702Y261975D01*
X255393Y260306D01*
X255629Y258516D01*
X255393Y256726D01*
X254702Y255058D01*
X253603Y253625D01*
X252170Y252526D01*
X250502Y251835D01*
X248712Y251599D01*
X246921Y251835D01*
X245253Y252526D01*
X243820Y253625D01*
X242721Y255058D01*
X242030Y256726D01*
X241794Y258516D01*
X242030Y260306D01*
X242721Y261975D01*
X243820Y263407D01*
X245253Y264507D01*
X246921Y265198D01*
X248712Y265433D01*
X250502Y265198D01*
D02*
G37*
G36*
X351277Y290005D02*
X352548Y289479D01*
X353693Y288714D01*
X354665Y287741D01*
X355430Y286597D01*
X355956Y285326D01*
X356225Y283977D01*
Y283289D01*
Y268049D01*
Y267361D01*
X355956Y266011D01*
X355430Y264740D01*
X354665Y263596D01*
X353693Y262623D01*
X352548Y261859D01*
X351277Y261332D01*
X349928Y261064D01*
X349919D01*
X350425Y260405D01*
X351116Y258737D01*
X351351Y256946D01*
X351116Y255156D01*
X350425Y253488D01*
X349325Y252055D01*
X347893Y250956D01*
X346225Y250265D01*
X344434Y250029D01*
X342644Y250265D01*
X340976Y250956D01*
X339543Y252055D01*
X338444Y253488D01*
X337753Y255156D01*
X337517Y256946D01*
X337753Y258737D01*
X338444Y260405D01*
X339543Y261838D01*
X340976Y262937D01*
X341653Y263217D01*
X341274Y263596D01*
X340510Y264740D01*
X339983Y266011D01*
X339715Y267361D01*
Y268049D01*
Y283289D01*
Y283977D01*
X339983Y285326D01*
X340510Y286597D01*
X341274Y287741D01*
X342247Y288714D01*
X343391Y289479D01*
X344662Y290005D01*
X346012Y290274D01*
X349928D01*
X351277Y290005D01*
D02*
G37*
G36*
X282197Y259715D02*
X283759D01*
Y246233D01*
X282197D01*
Y245933D01*
X260119D01*
Y246233D01*
X258557D01*
Y259715D01*
X260119D01*
Y260015D01*
X282197D01*
Y259715D01*
D02*
G37*
G36*
X204909Y257271D02*
X205120D01*
Y241691D01*
X204909D01*
Y240901D01*
X194749D01*
Y241691D01*
X194539D01*
Y257271D01*
X194749D01*
Y258062D01*
X204909D01*
Y257271D01*
D02*
G37*
G36*
X182697Y268280D02*
X183487D01*
Y258120D01*
X182697D01*
Y257919D01*
X190889D01*
Y257129D01*
X191099D01*
Y241549D01*
X190889D01*
Y240759D01*
X180729D01*
Y241549D01*
X180518D01*
Y257129D01*
X180729D01*
Y257909D01*
X180023D01*
Y257119D01*
X180233D01*
Y241539D01*
X180023D01*
Y240749D01*
X169862D01*
Y241539D01*
X169652D01*
Y257119D01*
X169862D01*
Y257909D01*
X167117D01*
Y258120D01*
X166327D01*
Y268280D01*
X167117D01*
Y268491D01*
X182697D01*
Y268280D01*
D02*
G37*
G36*
X391302Y251155D02*
X391513D01*
Y235575D01*
X391302D01*
Y234785D01*
X381142D01*
Y235575D01*
X380931D01*
Y251155D01*
X381142D01*
Y251945D01*
X391302D01*
Y251155D01*
D02*
G37*
G36*
X364866Y251130D02*
X365077D01*
Y235549D01*
X364866D01*
Y234760D01*
X354706D01*
Y235549D01*
X354495D01*
Y251130D01*
X354706D01*
Y251920D01*
X364866D01*
Y251130D01*
D02*
G37*
G36*
X375915Y251120D02*
X376126D01*
Y235539D01*
X375915D01*
Y234749D01*
X365755D01*
Y235539D01*
X365544D01*
Y251120D01*
X365755D01*
Y251910D01*
X375915D01*
Y251120D01*
D02*
G37*
G36*
X672668Y248309D02*
X674336Y247618D01*
X675769Y246519D01*
X676868Y245086D01*
X677559Y243418D01*
X677795Y241628D01*
X677559Y239837D01*
X676868Y238169D01*
X675769Y236737D01*
X674336Y235637D01*
X672668Y234946D01*
X670878Y234711D01*
X669087Y234946D01*
X667419Y235637D01*
X665986Y236737D01*
X664887Y238169D01*
X664196Y239837D01*
X663960Y241628D01*
X664196Y243418D01*
X664887Y245086D01*
X665986Y246519D01*
X667419Y247618D01*
X669087Y248309D01*
X670878Y248545D01*
X672668Y248309D01*
D02*
G37*
G36*
X288745Y230063D02*
X260043D01*
Y244795D01*
X288745D01*
Y230063D01*
D02*
G37*
G36*
X329689Y229621D02*
X300987D01*
Y244353D01*
X329689D01*
Y229621D01*
D02*
G37*
G36*
X55257Y243199D02*
X56864Y241591D01*
X57734Y239490D01*
Y238354D01*
Y228194D01*
Y227057D01*
X56864Y224956D01*
X55257Y223349D01*
X53156Y222479D01*
X50882D01*
X48782Y223349D01*
X47174Y224956D01*
X46304Y227057D01*
Y227368D01*
X39164D01*
Y228389D01*
X39014D01*
Y239768D01*
X39164D01*
Y240790D01*
X46842D01*
X47174Y241591D01*
X48782Y243199D01*
X50882Y244069D01*
X53156D01*
X55257Y243199D01*
D02*
G37*
G36*
X78468Y298384D02*
X87691D01*
Y289161D01*
X90627D01*
Y261028D01*
X87691D01*
Y251805D01*
X78976D01*
Y248867D01*
X77986D01*
X79247Y248363D01*
X80838Y246852D01*
X81755Y244860D01*
X81867Y242669D01*
X81159Y240593D01*
X80250Y239532D01*
X81572D01*
Y238742D01*
X81783D01*
Y223162D01*
X81572D01*
Y222372D01*
X71412D01*
Y223162D01*
X71201D01*
Y237747D01*
X70937D01*
Y223294D01*
X70726D01*
Y222504D01*
X60566D01*
Y223294D01*
X60356D01*
Y238874D01*
X60566D01*
Y239664D01*
X61669D01*
X61109Y240224D01*
X60239Y242325D01*
Y244598D01*
X61109Y246699D01*
X62716Y248307D01*
X64069Y248867D01*
X50333D01*
Y251805D01*
X41110D01*
Y261028D01*
X38174D01*
Y289161D01*
X41110D01*
Y298384D01*
X50333D01*
Y301325D01*
X78468D01*
Y298384D01*
D02*
G37*
G36*
X446412Y229066D02*
X448080Y228375D01*
X449513Y227276D01*
X450612Y225843D01*
X451303Y224175D01*
X451539Y222385D01*
X451303Y220594D01*
X450612Y218926D01*
X449513Y217493D01*
X448080Y216394D01*
X446412Y215703D01*
X444622Y215467D01*
X442832Y215703D01*
X441396Y216298D01*
X441516Y215699D01*
Y215011D01*
Y208661D01*
Y207973D01*
X441247Y206624D01*
X440720Y205352D01*
X439956Y204208D01*
X438983Y203235D01*
X437839Y202471D01*
X436568Y201945D01*
X435219Y201676D01*
X414538D01*
X413189Y201945D01*
X411918Y202471D01*
X410774Y203235D01*
X409801Y204208D01*
X409036Y205352D01*
X408510Y206624D01*
X408242Y207973D01*
Y208661D01*
Y215011D01*
Y215699D01*
X408510Y217048D01*
X409036Y218320D01*
X409801Y219464D01*
X410774Y220437D01*
X411918Y221201D01*
X413189Y221728D01*
X414538Y221996D01*
X435219D01*
X436568Y221728D01*
X437839Y221201D01*
X437863Y221185D01*
X437705Y222385D01*
X437940Y224175D01*
X438632Y225843D01*
X439731Y227276D01*
X441163Y228375D01*
X442832Y229066D01*
X444622Y229302D01*
X446412Y229066D01*
D02*
G37*
G36*
X209997Y234055D02*
X211665Y233364D01*
X213097Y232264D01*
X214197Y230832D01*
X214888Y229163D01*
X215124Y227373D01*
X214888Y225583D01*
X214197Y223915D01*
X213097Y222482D01*
X211665Y221383D01*
X209997Y220692D01*
X208206Y220456D01*
X206416Y220692D01*
X204748Y221383D01*
X203315Y222482D01*
X202216Y223915D01*
X201525Y225583D01*
X201289Y227373D01*
X201525Y229163D01*
X202216Y230832D01*
X203315Y232264D01*
X204748Y233364D01*
X206416Y234055D01*
X208206Y234290D01*
X209997Y234055D01*
D02*
G37*
G36*
X701319Y220243D02*
X686587D01*
Y248945D01*
X701319D01*
Y220243D01*
D02*
G37*
G36*
X368409Y228567D02*
X369199D01*
Y218407D01*
X368409D01*
Y218196D01*
X352829D01*
Y218407D01*
X352039D01*
Y228567D01*
X352829D01*
Y228778D01*
X368409D01*
Y228567D01*
D02*
G37*
G36*
X240696Y244397D02*
X241967Y243871D01*
X243111Y243106D01*
X244084Y242133D01*
X244848Y240989D01*
X245375Y239718D01*
X245643Y238368D01*
Y237680D01*
Y235140D01*
Y234452D01*
X245375Y233103D01*
X244898Y231953D01*
X245735Y232063D01*
X247525Y231827D01*
X249193Y231136D01*
X250626Y230037D01*
X251725Y228604D01*
X252416Y226936D01*
X252652Y225146D01*
X252416Y223355D01*
X252416Y223354D01*
X252411Y223320D01*
X251720Y221651D01*
X250621Y220219D01*
X249188Y219120D01*
X247520Y218428D01*
X245730Y218193D01*
X243939Y218428D01*
X242271Y219120D01*
X240839Y220219D01*
X239739Y221651D01*
X239048Y223320D01*
X238813Y225110D01*
X239048Y226900D01*
X239049Y226902D01*
X239053Y226936D01*
X239578Y228202D01*
X239346Y228155D01*
X238054D01*
Y218316D01*
X237264D01*
Y218105D01*
X221684D01*
Y218316D01*
X220894D01*
Y228475D01*
X221256D01*
X220110Y228951D01*
X218966Y229715D01*
X217993Y230688D01*
X217228Y231832D01*
X216702Y233103D01*
X216433Y234452D01*
Y235140D01*
Y237680D01*
Y238368D01*
X216702Y239718D01*
X217228Y240989D01*
X217993Y242133D01*
X218966Y243106D01*
X220110Y243871D01*
X221381Y244397D01*
X222730Y244666D01*
X239346D01*
X240696Y244397D01*
D02*
G37*
G36*
X404850Y228855D02*
X406519Y228164D01*
X407951Y227065D01*
X409050Y225632D01*
X409741Y223964D01*
X409977Y222174D01*
X409741Y220383D01*
X409050Y218715D01*
X407951Y217283D01*
X406519Y216183D01*
X404850Y215492D01*
X403060Y215257D01*
X401270Y215492D01*
X399601Y216183D01*
X398169Y217283D01*
X397069Y218715D01*
X396378Y220383D01*
X396143Y222174D01*
X396378Y223964D01*
X397069Y225632D01*
X398169Y227065D01*
X399601Y228164D01*
X401270Y228855D01*
X403060Y229091D01*
X404850Y228855D01*
D02*
G37*
G36*
X329877Y214356D02*
X301175D01*
Y229088D01*
X329877D01*
Y214356D01*
D02*
G37*
G36*
X288872Y214036D02*
X260170D01*
Y228768D01*
X288872D01*
Y214036D01*
D02*
G37*
G36*
X117109Y220340D02*
Y212771D01*
X113299Y208961D01*
X105730D01*
X101920Y212771D01*
Y220340D01*
X105730Y224150D01*
X113299D01*
X117109Y220340D01*
D02*
G37*
G36*
X368320Y217805D02*
X369110D01*
Y207645D01*
X368320D01*
Y207434D01*
X352740D01*
Y207645D01*
X351950D01*
Y217805D01*
X352740D01*
Y218016D01*
X368320D01*
Y217805D01*
D02*
G37*
G36*
X203127Y217651D02*
X204398Y217124D01*
X205542Y216360D01*
X206515Y215387D01*
X207279Y214243D01*
X207616Y213429D01*
X207621Y213440D01*
X208720Y214873D01*
X210153Y215972D01*
X210158Y215974D01*
X210178Y215990D01*
X211847Y216681D01*
X213637Y216917D01*
X215427Y216681D01*
X217096Y215990D01*
X218528Y214891D01*
X219627Y213458D01*
X220318Y211790D01*
X220554Y210000D01*
X220318Y208209D01*
X219627Y206541D01*
X218528Y205108D01*
X217096Y204009D01*
X217091Y204007D01*
X217070Y203991D01*
X215402Y203300D01*
X213612Y203065D01*
X211821Y203300D01*
X210153Y203991D01*
X208720Y205091D01*
X207786Y206308D01*
X207279Y205086D01*
X206515Y203942D01*
X205542Y202969D01*
X204398Y202204D01*
X203127Y201678D01*
X201777Y201409D01*
X185161D01*
X183812Y201678D01*
X182541Y202204D01*
X181952Y202598D01*
X182152Y201077D01*
X182128Y200894D01*
X182766D01*
Y201193D01*
X204843D01*
Y200894D01*
X206406D01*
Y187411D01*
X204843D01*
Y187112D01*
X182766D01*
Y187411D01*
X181204D01*
Y197590D01*
X180126Y196185D01*
X178693Y195086D01*
X177025Y194395D01*
X175235Y194159D01*
X173444Y194395D01*
X171776Y195086D01*
X170343Y196185D01*
X169244Y197618D01*
X168834Y198609D01*
Y189657D01*
X168623D01*
Y188867D01*
X158463D01*
Y189657D01*
X158252D01*
Y205237D01*
X158463D01*
Y206027D01*
X168623D01*
Y205237D01*
X168834D01*
Y203545D01*
X169244Y204535D01*
X170343Y205968D01*
X171776Y207067D01*
X173444Y207758D01*
X175235Y207994D01*
X177025Y207758D01*
X178693Y207067D01*
X179045Y206797D01*
X178864Y207706D01*
Y208394D01*
Y210934D01*
Y211622D01*
X179133Y212972D01*
X179659Y214243D01*
X180424Y215387D01*
X181397Y216360D01*
X182541Y217124D01*
X183812Y217651D01*
X185161Y217919D01*
X201777D01*
X203127Y217651D01*
D02*
G37*
G36*
X247159Y217423D02*
X248828Y216732D01*
X250260Y215632D01*
X251360Y214200D01*
X252051Y212532D01*
X252286Y210741D01*
X252051Y208951D01*
X251360Y207283D01*
X250260Y205850D01*
X248828Y204751D01*
X247159Y204060D01*
X245369Y203824D01*
X243579Y204060D01*
X241910Y204751D01*
X240478Y205850D01*
X239379Y207283D01*
X238688Y208951D01*
X238452Y210741D01*
X238688Y212532D01*
X239379Y214200D01*
X240478Y215632D01*
X241910Y216732D01*
X243579Y217423D01*
X245369Y217658D01*
X247159Y217423D01*
D02*
G37*
G36*
X677479Y214367D02*
X679147Y213676D01*
X680579Y212577D01*
X681679Y211144D01*
X682370Y209476D01*
X682605Y207686D01*
X682370Y205895D01*
X681679Y204227D01*
X680579Y202794D01*
X679147Y201695D01*
X677479Y201004D01*
X675688Y200769D01*
X673898Y201004D01*
X672230Y201695D01*
X670797Y202794D01*
X669698Y204227D01*
X669007Y205895D01*
X668771Y207686D01*
X669007Y209476D01*
X669698Y211144D01*
X670797Y212577D01*
X672230Y213676D01*
X673898Y214367D01*
X675688Y214603D01*
X677479Y214367D01*
D02*
G37*
G36*
X458061Y197711D02*
X462290D01*
Y171630D01*
X458061D01*
Y170094D01*
X430441D01*
Y171630D01*
X426415D01*
X426032Y170704D01*
X425267Y169560D01*
X424294Y168587D01*
X423150Y167823D01*
X421879Y167296D01*
X420530Y167028D01*
X416614D01*
X415264Y167296D01*
X413993Y167823D01*
X412849Y168587D01*
X411876Y169560D01*
X411112Y170704D01*
X410585Y171975D01*
X410317Y173325D01*
Y174013D01*
Y189253D01*
Y189941D01*
X410585Y191290D01*
X411112Y192561D01*
X411876Y193706D01*
X412849Y194678D01*
X413993Y195443D01*
X415264Y195969D01*
X416614Y196238D01*
X420530D01*
X421879Y195969D01*
X423150Y195443D01*
X424294Y194678D01*
X425267Y193706D01*
X426032Y192561D01*
X426212Y192126D01*
Y197711D01*
X428419D01*
Y199756D01*
X458061D01*
Y197711D01*
D02*
G37*
G36*
X157803Y205075D02*
X158013D01*
Y189494D01*
X157803D01*
Y188704D01*
X147643D01*
Y189494D01*
X147432D01*
Y205075D01*
X147643D01*
Y205865D01*
X157803D01*
Y205075D01*
D02*
G37*
G36*
X142634Y204902D02*
X142844D01*
Y189321D01*
X142634D01*
Y188531D01*
X132474D01*
Y189321D01*
X132263D01*
Y204902D01*
X132474D01*
Y205692D01*
X142634D01*
Y204902D01*
D02*
G37*
G36*
X291206Y187615D02*
X260792D01*
Y210693D01*
X291206D01*
Y187615D01*
D02*
G37*
G36*
X380215Y181510D02*
X381883Y180819D01*
X383316Y179719D01*
X384415Y178287D01*
X385106Y176618D01*
X385342Y174828D01*
X385106Y173038D01*
X384415Y171370D01*
X383316Y169937D01*
X381883Y168838D01*
X380215Y168147D01*
X378424Y167911D01*
X378420Y167912D01*
X378396Y167908D01*
X376606Y168144D01*
X374938Y168835D01*
X373505Y169935D01*
X372406Y171367D01*
X371715Y173035D01*
X371479Y174826D01*
X371715Y176616D01*
X372406Y178284D01*
X373505Y179717D01*
X374938Y180816D01*
X376606Y181507D01*
X378396Y181743D01*
X378401Y181742D01*
X378424Y181745D01*
X380215Y181510D01*
D02*
G37*
G36*
X684357Y196345D02*
X684568D01*
Y180764D01*
X684357D01*
Y179974D01*
X674197D01*
Y180764D01*
X673987D01*
Y196345D01*
X674197D01*
Y197134D01*
X684357D01*
Y196345D01*
D02*
G37*
G36*
X51212Y192220D02*
X51422D01*
Y176639D01*
X51212D01*
Y175849D01*
X41052D01*
Y176639D01*
X40841D01*
Y192220D01*
X41052D01*
Y193009D01*
X51212D01*
Y192220D01*
D02*
G37*
G36*
X167676Y186187D02*
X168465D01*
Y176027D01*
X167676D01*
Y175816D01*
X152095D01*
Y176027D01*
X151305D01*
Y186187D01*
X152095D01*
Y186398D01*
X167676D01*
Y186187D01*
D02*
G37*
G36*
X63099Y192072D02*
X63309D01*
Y176492D01*
X63099D01*
Y175702D01*
X52939D01*
Y176492D01*
X52728D01*
Y192072D01*
X52939D01*
Y192862D01*
X63099D01*
Y192072D01*
D02*
G37*
G36*
X215656Y188256D02*
X217324Y187565D01*
X218757Y186466D01*
X219856Y185033D01*
X220547Y183365D01*
X220783Y181574D01*
X220547Y179784D01*
X219856Y178116D01*
X218757Y176683D01*
X217324Y175584D01*
X215656Y174893D01*
X213866Y174657D01*
X212075Y174893D01*
X210407Y175584D01*
X208974Y176683D01*
X207875Y178116D01*
X207184Y179784D01*
X206948Y181574D01*
X207184Y183365D01*
X207875Y185033D01*
X208974Y186466D01*
X210407Y187565D01*
X212075Y188256D01*
X213866Y188492D01*
X215656Y188256D01*
D02*
G37*
G36*
X193395Y181322D02*
X195063Y180631D01*
X196496Y179531D01*
X197595Y178099D01*
X198286Y176430D01*
X198522Y174640D01*
X198521Y174629D01*
X198522Y174617D01*
X198286Y172827D01*
X197595Y171159D01*
X197117Y170536D01*
X202783D01*
Y169746D01*
X202994D01*
Y154165D01*
X202783D01*
Y153375D01*
X192623D01*
Y154165D01*
X192413D01*
Y167806D01*
X191605Y167700D01*
X189815Y167936D01*
X188146Y168627D01*
X186714Y169726D01*
X186374Y170169D01*
X186517Y169448D01*
Y168760D01*
Y153520D01*
Y152832D01*
X186249Y151483D01*
X185722Y150211D01*
X184958Y149067D01*
X183985Y148095D01*
X182841Y147330D01*
X181570Y146804D01*
X180220Y146535D01*
X176304D01*
X174955Y146804D01*
X173684Y147330D01*
X172540Y148095D01*
X171567Y149067D01*
X170802Y150211D01*
X170276Y151483D01*
X170007Y152832D01*
Y153520D01*
Y168760D01*
Y169448D01*
X170276Y170798D01*
X170802Y172069D01*
X171567Y173213D01*
X172540Y174186D01*
X173684Y174950D01*
X174955Y175477D01*
X176304Y175745D01*
X180220D01*
X181570Y175477D01*
X182841Y174950D01*
X183985Y174186D01*
X184860Y173311D01*
X184688Y174617D01*
X184689Y174629D01*
X184688Y174640D01*
X184923Y176430D01*
X185614Y178099D01*
X186714Y179531D01*
X188146Y180631D01*
X189815Y181322D01*
X191605Y181557D01*
X193395Y181322D01*
D02*
G37*
G36*
X400957Y199807D02*
X402228Y199281D01*
X403372Y198516D01*
X404345Y197544D01*
X405110Y196399D01*
X405636Y195128D01*
X405905Y193779D01*
Y193091D01*
Y173787D01*
Y173099D01*
X405636Y171749D01*
X405110Y170478D01*
X404345Y169334D01*
X403372Y168361D01*
X402228Y167597D01*
X400957Y167070D01*
X399608Y166802D01*
X391882D01*
X390532Y167070D01*
X389261Y167597D01*
X388117Y168361D01*
X387144Y169334D01*
X386380Y170478D01*
X385853Y171749D01*
X385585Y173099D01*
Y173787D01*
Y193091D01*
Y193779D01*
X385853Y195128D01*
X386380Y196399D01*
X387144Y197544D01*
X388117Y198516D01*
X389261Y199281D01*
X390532Y199807D01*
X391882Y200076D01*
X399608D01*
X400957Y199807D01*
D02*
G37*
G36*
X368229Y175341D02*
X369019D01*
Y165181D01*
X368229D01*
Y164970D01*
X352649D01*
Y165181D01*
X351859D01*
Y175341D01*
X352649D01*
Y175552D01*
X368229D01*
Y175341D01*
D02*
G37*
G36*
X34953Y170251D02*
X35743D01*
Y160091D01*
X34953D01*
Y159880D01*
X19373D01*
Y160091D01*
X18583D01*
Y170251D01*
X19373D01*
Y170462D01*
X34953D01*
Y170251D01*
D02*
G37*
G36*
X237871Y167119D02*
X238892D01*
Y159037D01*
X237871D01*
Y158887D01*
X226492D01*
Y159037D01*
X225471D01*
Y167119D01*
X226492D01*
Y167269D01*
X237871D01*
Y167119D01*
D02*
G37*
G36*
X441673Y167815D02*
X442463D01*
Y157655D01*
X441673D01*
Y157444D01*
X426093D01*
Y157655D01*
X425303D01*
Y167815D01*
X426093D01*
Y168026D01*
X441673D01*
Y167815D01*
D02*
G37*
G36*
X123464Y160261D02*
X124254D01*
Y150101D01*
X123464D01*
Y149890D01*
X107884D01*
Y150101D01*
X107315D01*
Y149339D01*
X107884D01*
Y149550D01*
X123464D01*
Y149339D01*
X124254D01*
Y139179D01*
X123464D01*
Y138968D01*
X107884D01*
Y139179D01*
X107094D01*
Y141753D01*
X106502Y140269D01*
X104991Y138679D01*
X104045Y138244D01*
X104540Y138075D01*
X106205Y136648D01*
X107094Y134951D01*
Y138163D01*
X107884D01*
Y138374D01*
X123464D01*
Y138163D01*
X124254D01*
Y128003D01*
X123464D01*
Y127793D01*
X107884D01*
Y128003D01*
X107386D01*
Y127038D01*
X107884D01*
Y127249D01*
X123464D01*
Y127038D01*
X124254D01*
Y116878D01*
X123464D01*
Y116667D01*
X107884D01*
Y116878D01*
X107094D01*
Y121028D01*
X106516Y119633D01*
X104908Y118025D01*
X102808Y117155D01*
X100534D01*
X98434Y118025D01*
X96826Y119633D01*
X95956Y121733D01*
Y122870D01*
Y133030D01*
Y134127D01*
X96770Y136164D01*
X98280Y137754D01*
X99226Y138189D01*
X98731Y138358D01*
X97066Y139785D01*
X96048Y141728D01*
X95936Y142819D01*
X95936D01*
X95885Y142870D01*
Y153563D01*
Y154700D01*
X96755Y156801D01*
X98363Y158408D01*
X100463Y159278D01*
X102737D01*
X104837Y158408D01*
X106445Y156801D01*
X107094Y155234D01*
Y160261D01*
X107884D01*
Y160472D01*
X123464D01*
Y160261D01*
D02*
G37*
G36*
X408942Y151542D02*
X380241D01*
Y166273D01*
X408942D01*
Y151542D01*
D02*
G37*
G36*
X237889Y157846D02*
X238910D01*
Y149763D01*
X237889D01*
Y149614D01*
X226510D01*
Y149763D01*
X225488D01*
Y157846D01*
X226510D01*
Y157996D01*
X237889D01*
Y157846D01*
D02*
G37*
G36*
X34963Y159294D02*
X35753D01*
Y149134D01*
X34963D01*
Y148923D01*
X19383D01*
Y149134D01*
X18593D01*
Y159294D01*
X19383D01*
Y159504D01*
X34963D01*
Y159294D01*
D02*
G37*
G36*
X215656Y157519D02*
X217324Y156828D01*
X218757Y155729D01*
X219856Y154297D01*
X220547Y152628D01*
X220783Y150838D01*
X220547Y149048D01*
X219856Y147379D01*
X218757Y145947D01*
X217324Y144847D01*
X215656Y144156D01*
X213866Y143921D01*
X212075Y144156D01*
X210407Y144847D01*
X208974Y145947D01*
X207875Y147379D01*
X207184Y149048D01*
X206948Y150838D01*
X207184Y152628D01*
X207875Y154297D01*
X208974Y155729D01*
X210407Y156828D01*
X212075Y157519D01*
X213866Y157755D01*
X215656Y157519D01*
D02*
G37*
G36*
X446974Y156545D02*
X447185D01*
Y140965D01*
X446974D01*
Y140175D01*
X436814D01*
Y140965D01*
X436603D01*
Y156545D01*
X436814D01*
Y157335D01*
X446974D01*
Y156545D01*
D02*
G37*
G36*
X435900Y156433D02*
X436110D01*
Y140853D01*
X435900D01*
Y140063D01*
X425740D01*
Y140853D01*
X425529D01*
Y156433D01*
X425740D01*
Y157224D01*
X435900D01*
Y156433D01*
D02*
G37*
G36*
X463733Y156215D02*
X463944D01*
Y140635D01*
X463733D01*
Y139845D01*
X453573D01*
Y140635D01*
X453362D01*
Y156215D01*
X453573D01*
Y157005D01*
X463733D01*
Y156215D01*
D02*
G37*
G36*
X35019Y148270D02*
X35809D01*
Y138110D01*
X35019D01*
Y137899D01*
X19439D01*
Y138110D01*
X18649D01*
Y148270D01*
X19439D01*
Y148481D01*
X35019D01*
Y148270D01*
D02*
G37*
G36*
X237724Y145351D02*
X238514D01*
Y135191D01*
X237724D01*
Y134981D01*
X222143D01*
Y135191D01*
X221353D01*
Y145351D01*
X222143D01*
Y145562D01*
X237724D01*
Y145351D01*
D02*
G37*
G36*
X163500Y172253D02*
X167729D01*
Y146172D01*
X165522D01*
Y144280D01*
X176565D01*
X177915Y144011D01*
X179186Y143485D01*
X180330Y142720D01*
X181303Y141747D01*
X182067Y140603D01*
X182594Y139332D01*
X182862Y137983D01*
Y137295D01*
Y134755D01*
Y134067D01*
X182594Y132717D01*
X182067Y131446D01*
X181303Y130302D01*
X180330Y129329D01*
X179186Y128565D01*
X177915Y128038D01*
X176565Y127770D01*
X159949D01*
X158600Y128038D01*
X157329Y128565D01*
X156185Y129329D01*
X155756Y129758D01*
X155858Y128984D01*
X155622Y127193D01*
X154931Y125525D01*
X153832Y124093D01*
X152399Y122993D01*
X150731Y122302D01*
X148940Y122067D01*
X147150Y122302D01*
X145482Y122993D01*
X144049Y124093D01*
X142950Y125525D01*
X142259Y127193D01*
X142023Y128984D01*
X142259Y130774D01*
X142950Y132442D01*
X144049Y133875D01*
X145482Y134974D01*
X147150Y135665D01*
X148940Y135901D01*
X150731Y135665D01*
X152399Y134974D01*
X153665Y134003D01*
X153652Y134067D01*
Y134755D01*
Y137295D01*
Y137983D01*
X153921Y139332D01*
X154447Y140603D01*
X155212Y141747D01*
X156185Y142720D01*
X157329Y143485D01*
X158600Y144011D01*
X159183Y144127D01*
X135880D01*
Y146172D01*
X131651D01*
Y172253D01*
X135880D01*
Y173789D01*
X163500D01*
Y172253D01*
D02*
G37*
G36*
X646173Y131486D02*
X509013D01*
Y253406D01*
X646173D01*
Y131486D01*
D02*
G37*
G36*
X215656Y142737D02*
X217324Y142046D01*
X218757Y140946D01*
X219856Y139514D01*
X220547Y137845D01*
X220783Y136055D01*
X220547Y134265D01*
X219856Y132597D01*
X218757Y131164D01*
X217324Y130065D01*
X215656Y129374D01*
X213866Y129138D01*
X212075Y129374D01*
X210407Y130065D01*
X208974Y131164D01*
X207875Y132597D01*
X207184Y134265D01*
X206948Y136055D01*
X207184Y137845D01*
X207875Y139514D01*
X208974Y140946D01*
X210407Y142046D01*
X212075Y142737D01*
X213866Y142972D01*
X215656Y142737D01*
D02*
G37*
G36*
X33061Y134719D02*
X34082D01*
Y126637D01*
X33061D01*
Y126487D01*
X21681D01*
Y126637D01*
X20660D01*
Y134719D01*
X21681D01*
Y134869D01*
X33061D01*
Y134719D01*
D02*
G37*
G36*
X192077Y137680D02*
X193745Y136988D01*
X195178Y135889D01*
X196277Y134457D01*
X196968Y132788D01*
X197204Y130998D01*
X196968Y129208D01*
X196277Y127539D01*
X195178Y126107D01*
X193745Y125007D01*
X192077Y124317D01*
X190287Y124081D01*
X188496Y124317D01*
X186828Y125007D01*
X185396Y126107D01*
X184296Y127539D01*
X183605Y129208D01*
X183370Y130998D01*
X183605Y132788D01*
X184296Y134457D01*
X185396Y135889D01*
X186828Y136988D01*
X188496Y137680D01*
X190287Y137915D01*
X192077Y137680D01*
D02*
G37*
G36*
X57908Y105470D02*
X59516Y103862D01*
X60386Y101761D01*
Y100625D01*
Y90465D01*
Y89328D01*
X59516Y87227D01*
X57908Y85620D01*
X55808Y84750D01*
X53534D01*
X51434Y85620D01*
X49826Y87227D01*
X48956Y89328D01*
Y90465D01*
Y90965D01*
X42095D01*
Y91986D01*
X41946D01*
Y103365D01*
X42095D01*
Y104386D01*
X50178D01*
Y104214D01*
X51434Y105470D01*
X53534Y106340D01*
X55808D01*
X57908Y105470D01*
D02*
G37*
G36*
X664446Y103680D02*
X635744D01*
Y118412D01*
X664446D01*
Y103680D01*
D02*
G37*
G36*
X634977Y103663D02*
X606275D01*
Y118394D01*
X634977D01*
Y103663D01*
D02*
G37*
G36*
X181125Y122343D02*
X182396Y121816D01*
X183540Y121052D01*
X184513Y120079D01*
X185278Y118934D01*
X185804Y117663D01*
X186073Y116314D01*
Y115626D01*
Y111460D01*
X187163Y112297D01*
X188832Y112988D01*
X190622Y113224D01*
X192412Y112988D01*
X194081Y112297D01*
X195513Y111198D01*
X196612Y109765D01*
X197303Y108097D01*
X197539Y106307D01*
X197303Y104516D01*
X196612Y102848D01*
X195513Y101415D01*
X194081Y100316D01*
X192412Y99625D01*
X190622Y99389D01*
X188832Y99625D01*
X187163Y100316D01*
X185731Y101415D01*
X184632Y102848D01*
X184018Y104328D01*
X183540Y103850D01*
X182396Y103086D01*
X181125Y102559D01*
X180302Y102396D01*
Y102385D01*
X181864D01*
Y88903D01*
X180302D01*
Y88603D01*
X158224D01*
Y88903D01*
X156662D01*
Y95155D01*
X156422Y94575D01*
X155323Y93143D01*
X153890Y92043D01*
X152222Y91352D01*
X150431Y91117D01*
X148641Y91352D01*
X146973Y92043D01*
X145540Y93143D01*
X144441Y94575D01*
X143750Y96243D01*
X143514Y98034D01*
X143750Y99824D01*
X144441Y101492D01*
X145540Y102925D01*
X146973Y104024D01*
X148641Y104715D01*
X150431Y104951D01*
X152222Y104715D01*
X153890Y104024D01*
X155323Y102925D01*
X156422Y101492D01*
X156662Y100913D01*
Y102385D01*
X158224D01*
Y102464D01*
X157746Y102559D01*
X156475Y103086D01*
X155331Y103850D01*
X154358Y104823D01*
X153594Y105967D01*
X153067Y107238D01*
X152799Y108588D01*
Y109276D01*
Y115626D01*
Y116314D01*
X153067Y117663D01*
X153594Y118934D01*
X154358Y120079D01*
X155331Y121052D01*
X156475Y121816D01*
X157746Y122343D01*
X159096Y122611D01*
X179776D01*
X181125Y122343D01*
D02*
G37*
G36*
X459250Y113742D02*
X460521Y113215D01*
X461665Y112451D01*
X462638Y111478D01*
X463403Y110334D01*
X463929Y109063D01*
X464198Y107713D01*
Y107025D01*
Y104485D01*
Y103798D01*
X463929Y102448D01*
X463403Y101177D01*
X462638Y100033D01*
X461665Y99060D01*
X460521Y98295D01*
X459250Y97769D01*
X457901Y97500D01*
X441285D01*
X439935Y97769D01*
X438664Y98295D01*
X437520Y99060D01*
X436547Y100033D01*
X435783Y101177D01*
X435256Y102448D01*
X434988Y103798D01*
Y104485D01*
Y107025D01*
Y107713D01*
X435256Y109063D01*
X435783Y110334D01*
X436547Y111478D01*
X437520Y112451D01*
X438664Y113215D01*
X439935Y113742D01*
X441285Y114010D01*
X457901D01*
X459250Y113742D01*
D02*
G37*
G36*
X408942Y135286D02*
X393698D01*
Y133800D01*
X393997D01*
Y111722D01*
X393698D01*
Y110327D01*
X408793D01*
Y95595D01*
X380091D01*
Y110327D01*
X380215D01*
Y111722D01*
X379915D01*
Y133800D01*
X380215D01*
Y135362D01*
X380241D01*
Y150017D01*
X408942D01*
Y135286D01*
D02*
G37*
G36*
X317302Y173165D02*
X325288D01*
Y165179D01*
X329232D01*
Y106068D01*
X325288D01*
Y98082D01*
X317302D01*
Y94137D01*
X258191D01*
Y98082D01*
X250205D01*
Y106068D01*
X246261D01*
Y165179D01*
X250205D01*
Y173165D01*
X258191D01*
Y177109D01*
X317302D01*
Y173165D01*
D02*
G37*
G36*
X365188Y100109D02*
X365978D01*
Y89949D01*
X365188D01*
Y89738D01*
X349608D01*
Y89949D01*
X348818D01*
Y100109D01*
X349608D01*
Y100320D01*
X365188D01*
Y100109D01*
D02*
G37*
G36*
X36805Y100805D02*
X36955D01*
Y89426D01*
X36805D01*
Y88405D01*
X28722D01*
Y89426D01*
X28572D01*
Y100805D01*
X28722D01*
Y101826D01*
X36805D01*
Y100805D01*
D02*
G37*
G36*
X425099Y101848D02*
X426767Y101157D01*
X428200Y100057D01*
X429299Y98625D01*
X429990Y96957D01*
X430226Y95166D01*
X429990Y93376D01*
X429299Y91708D01*
X428200Y90275D01*
X426767Y89176D01*
X425099Y88485D01*
X423309Y88249D01*
X421519Y88485D01*
X419850Y89176D01*
X418418Y90275D01*
X417318Y91708D01*
X416627Y93376D01*
X416392Y95166D01*
X416627Y96957D01*
X417318Y98625D01*
X418418Y100057D01*
X419850Y101157D01*
X421519Y101848D01*
X423309Y102083D01*
X425099Y101848D01*
D02*
G37*
G36*
X73840Y192103D02*
X74051D01*
Y177244D01*
X74544D01*
Y192052D01*
X74755D01*
Y192842D01*
X84915D01*
Y192052D01*
X85126D01*
Y176472D01*
X84915D01*
Y175682D01*
X83193D01*
X83995Y174920D01*
X84912Y172927D01*
X85024Y170736D01*
X84316Y168660D01*
X82889Y166995D01*
X80946Y165977D01*
X79855Y165865D01*
Y165865D01*
X79804Y165814D01*
X78636D01*
Y163886D01*
X87859D01*
Y154663D01*
X90795D01*
Y126530D01*
X87859D01*
Y117307D01*
X79144D01*
Y114369D01*
X78179D01*
X78849Y114101D01*
X80439Y112591D01*
X81356Y110598D01*
X81468Y108407D01*
X80760Y106331D01*
X79333Y104665D01*
X79164Y104577D01*
X81836D01*
Y103787D01*
X82047D01*
Y88207D01*
X81836D01*
Y87417D01*
X71676D01*
Y88207D01*
X71465D01*
Y103485D01*
X70998D01*
Y88400D01*
X70787D01*
Y87610D01*
X60627D01*
Y88400D01*
X60416D01*
Y103980D01*
X60627D01*
Y104770D01*
X61902D01*
X60710Y105962D01*
X59840Y108063D01*
Y110337D01*
X60710Y112437D01*
X62318Y114045D01*
X63100Y114369D01*
X50500D01*
Y117307D01*
X41277D01*
Y126530D01*
X38341D01*
Y154663D01*
X41277D01*
Y163886D01*
X50500D01*
Y166827D01*
X65730D01*
X64266Y168291D01*
X63396Y170392D01*
Y172666D01*
X64266Y174766D01*
X65232Y175732D01*
X63680D01*
Y176522D01*
X63470D01*
Y192103D01*
X63680D01*
Y192893D01*
X73840D01*
Y192103D01*
D02*
G37*
G36*
X241130Y134684D02*
X241920D01*
Y124523D01*
X241130D01*
Y124313D01*
X234061D01*
Y123551D01*
X234211D01*
Y112171D01*
X234074D01*
Y111272D01*
X234224D01*
Y99893D01*
X234074D01*
Y98872D01*
X234046D01*
Y98765D01*
X234196D01*
Y87386D01*
X234046D01*
Y86365D01*
X225963D01*
Y87386D01*
X225814D01*
Y98765D01*
X225963D01*
Y99786D01*
X225991D01*
Y99893D01*
X225842D01*
Y111272D01*
X225979D01*
Y112171D01*
X225829D01*
Y123551D01*
X225979D01*
Y124313D01*
X225550D01*
Y124523D01*
X224760D01*
Y134684D01*
X225550D01*
Y134894D01*
X241130D01*
Y134684D01*
D02*
G37*
G36*
X28064Y102674D02*
X28275D01*
Y87094D01*
X28064D01*
Y86304D01*
X17904D01*
Y87094D01*
X17694D01*
Y102674D01*
X17904D01*
Y103464D01*
X28064D01*
Y102674D01*
D02*
G37*
G36*
X132710Y98668D02*
X134378Y97977D01*
X135810Y96877D01*
X136910Y95445D01*
X137601Y93776D01*
X137836Y91986D01*
X137601Y90196D01*
X136910Y88527D01*
X135810Y87095D01*
X134378Y85996D01*
X132710Y85305D01*
X130919Y85069D01*
X129129Y85305D01*
X127461Y85996D01*
X126028Y87095D01*
X124929Y88527D01*
X124238Y90196D01*
X124002Y91986D01*
X124238Y93776D01*
X124929Y95445D01*
X126028Y96877D01*
X127461Y97977D01*
X129129Y98668D01*
X130919Y98903D01*
X132710Y98668D01*
D02*
G37*
G36*
X516453Y99835D02*
X516664D01*
Y84254D01*
X516453D01*
Y83464D01*
X506293D01*
Y84254D01*
X506082D01*
Y99835D01*
X506293D01*
Y100625D01*
X516453D01*
Y99835D01*
D02*
G37*
G36*
X108288Y77125D02*
X95205D01*
X95510Y76388D01*
X95746Y74597D01*
X95510Y72807D01*
X94819Y71139D01*
X94435Y70637D01*
X98595D01*
X99944Y70369D01*
X101215Y69842D01*
X102360Y69078D01*
X103333Y68105D01*
X104097Y66961D01*
X104623Y65690D01*
X104892Y64340D01*
Y63652D01*
Y44348D01*
Y43660D01*
X104623Y42311D01*
X104097Y41040D01*
X103333Y39896D01*
X102360Y38923D01*
X101215Y38158D01*
X99944Y37632D01*
X98595Y37363D01*
X90869D01*
X89519Y37632D01*
X88248Y38158D01*
X87104Y38923D01*
X86131Y39896D01*
X85367Y41040D01*
X84840Y42311D01*
X84572Y43660D01*
Y44348D01*
Y63652D01*
Y64340D01*
X84840Y65690D01*
X85367Y66961D01*
X86131Y68105D01*
X86263Y68237D01*
X85370Y68607D01*
X83938Y69706D01*
X82838Y71139D01*
X82147Y72807D01*
X81912Y74597D01*
X82147Y76388D01*
X82838Y78056D01*
X83938Y79488D01*
X85370Y80588D01*
X87039Y81279D01*
X88829Y81514D01*
X90619Y81279D01*
X92288Y80588D01*
X93556Y79615D01*
Y105827D01*
X108288D01*
Y77125D01*
D02*
G37*
G36*
X123154Y77048D02*
X108422D01*
Y105750D01*
X123154D01*
Y77048D01*
D02*
G37*
G36*
X720463Y86329D02*
Y78760D01*
X716653Y74950D01*
X709084D01*
X705274Y78760D01*
Y86329D01*
X709084Y90140D01*
X716653D01*
X720463Y86329D01*
D02*
G37*
G36*
X664616Y74752D02*
X635914D01*
Y89484D01*
X664616D01*
Y74752D01*
D02*
G37*
G36*
X225971Y83497D02*
X226761D01*
Y73337D01*
X225971D01*
Y73127D01*
X210391D01*
Y73337D01*
X209601D01*
Y83497D01*
X210391D01*
Y83708D01*
X225971D01*
Y83497D01*
D02*
G37*
G36*
X563699Y86613D02*
X565368Y85922D01*
X566800Y84822D01*
X567899Y83390D01*
X568591Y81722D01*
X568826Y79931D01*
X568591Y78141D01*
X567899Y76473D01*
X566800Y75040D01*
X565368Y73941D01*
X563699Y73250D01*
X561909Y73014D01*
X560119Y73250D01*
X558450Y73941D01*
X557018Y75040D01*
X555919Y76473D01*
X555228Y78141D01*
X554992Y79931D01*
X555228Y81722D01*
X555919Y83390D01*
X557018Y84822D01*
X558450Y85922D01*
X560119Y86613D01*
X561909Y86848D01*
X563699Y86613D01*
D02*
G37*
G36*
X408793Y79629D02*
X414515D01*
X415864Y79361D01*
X417136Y78834D01*
X418280Y78070D01*
X419253Y77097D01*
X420017Y75953D01*
X420544Y74682D01*
X420812Y73332D01*
Y72644D01*
Y66294D01*
Y65606D01*
X420544Y64257D01*
X420017Y62985D01*
X419253Y61841D01*
X418280Y60868D01*
X417136Y60104D01*
X415864Y59577D01*
X414515Y59309D01*
X393835D01*
X392486Y59577D01*
X391214Y60104D01*
X390070Y60868D01*
X389097Y61841D01*
X388392Y62897D01*
X387974Y62353D01*
X386541Y61253D01*
X384873Y60563D01*
X383083Y60327D01*
X381292Y60563D01*
X379624Y61253D01*
X378192Y62353D01*
X377165Y63691D01*
Y62598D01*
X376954D01*
Y61808D01*
X366794D01*
Y61841D01*
X357253D01*
Y61844D01*
X347429D01*
Y61910D01*
X342234D01*
Y60424D01*
X342534D01*
Y40418D01*
X343050Y41663D01*
X343814Y42807D01*
X344787Y43780D01*
X345931Y44544D01*
X347202Y45071D01*
X348552Y45339D01*
X352468D01*
X353817Y45071D01*
X355089Y44544D01*
X356232Y43780D01*
X357206Y42807D01*
X357970Y41663D01*
X358141Y41250D01*
X358588Y42331D01*
X359688Y43763D01*
X361120Y44863D01*
X362789Y45554D01*
X364579Y45789D01*
X366369Y45554D01*
X368037Y44863D01*
X369470Y43763D01*
X370569Y42331D01*
X371260Y40662D01*
X371496Y38872D01*
X371331Y37617D01*
X380431D01*
Y40409D01*
Y41097D01*
X380700Y42446D01*
X381226Y43717D01*
X381990Y44861D01*
X382963Y45834D01*
X384107Y46599D01*
X385379Y47125D01*
X386728Y47394D01*
X394454D01*
X395803Y47125D01*
X397075Y46599D01*
X398219Y45834D01*
X398585Y45468D01*
X398609Y45646D01*
X399300Y47314D01*
X400399Y48747D01*
X401831Y49846D01*
X403500Y50537D01*
X405290Y50773D01*
X407080Y50537D01*
X408749Y49846D01*
X410181Y48747D01*
X411281Y47314D01*
X411972Y45646D01*
X412207Y43856D01*
X411972Y42065D01*
X411281Y40397D01*
X410181Y38965D01*
X408749Y37865D01*
X407080Y37174D01*
X405290Y36939D01*
X403500Y37174D01*
X401831Y37865D01*
X400751Y38694D01*
Y21105D01*
Y20417D01*
X400483Y19067D01*
X399956Y17796D01*
X399192Y16652D01*
X398219Y15679D01*
X397075Y14915D01*
X395803Y14388D01*
X394454Y14120D01*
X386728D01*
X385379Y14388D01*
X384107Y14915D01*
X382963Y15679D01*
X381990Y16652D01*
X381226Y17796D01*
X380700Y19067D01*
X380431Y20417D01*
Y20457D01*
X370782D01*
Y21247D01*
X370571D01*
Y35417D01*
X370569Y35414D01*
X369470Y33981D01*
X368037Y32882D01*
X366369Y32191D01*
X364579Y31955D01*
X362789Y32191D01*
X361120Y32882D01*
X359688Y33981D01*
X358765Y35184D01*
Y23114D01*
Y22426D01*
X358496Y21077D01*
X357970Y19805D01*
X357206Y18661D01*
X356232Y17688D01*
X355089Y16924D01*
X353817Y16397D01*
X352468Y16129D01*
X348552D01*
X347202Y16397D01*
X345931Y16924D01*
X344787Y17688D01*
X343814Y18661D01*
X343050Y19805D01*
X342523Y21077D01*
X342255Y22426D01*
Y23114D01*
Y38346D01*
X342234D01*
Y36784D01*
X328808D01*
X328485Y36005D01*
X327721Y34861D01*
X326748Y33888D01*
X325604Y33124D01*
X324333Y32598D01*
X322984Y32329D01*
X315257D01*
X313908Y32598D01*
X312637Y33124D01*
X311493Y33888D01*
X311005Y34376D01*
X310514Y33189D01*
X309414Y31756D01*
X307982Y30657D01*
X306313Y29966D01*
X304523Y29730D01*
X302733Y29966D01*
X301064Y30657D01*
X299632Y31756D01*
X298533Y33189D01*
X298148Y34118D01*
Y25105D01*
X269446D01*
Y39837D01*
X298148D01*
Y39176D01*
X298533Y40106D01*
X299632Y41538D01*
X301064Y42638D01*
X302524Y43242D01*
X301169Y43804D01*
X299736Y44903D01*
X298637Y46336D01*
X298122Y47578D01*
Y40132D01*
X269420D01*
Y54864D01*
X298122D01*
Y52011D01*
X298637Y53253D01*
X299736Y54685D01*
X301169Y55785D01*
X302837Y56476D01*
X304627Y56711D01*
X306418Y56476D01*
X308086Y55785D01*
X308960Y55114D01*
Y58618D01*
Y59306D01*
X309229Y60656D01*
X309755Y61927D01*
X310520Y63071D01*
X311493Y64044D01*
X312637Y64808D01*
X313908Y65335D01*
X315257Y65603D01*
X322984D01*
X324333Y65335D01*
X325604Y64808D01*
X326748Y64044D01*
X327721Y63071D01*
X328485Y61927D01*
X328752Y61283D01*
Y61986D01*
X337678D01*
Y62700D01*
X337467D01*
Y67549D01*
X329560D01*
Y67587D01*
X325633D01*
Y67559D01*
X320203D01*
Y67523D01*
X312120D01*
Y68544D01*
X311970D01*
Y79924D01*
X312120D01*
Y80945D01*
X317551D01*
Y80980D01*
X323279D01*
Y81008D01*
X331361D01*
Y80970D01*
X337642D01*
Y79949D01*
X337792D01*
Y79070D01*
X347838D01*
Y79004D01*
X349608D01*
Y79182D01*
X348818D01*
Y89342D01*
X349608D01*
Y89553D01*
X365188D01*
Y89342D01*
X365978D01*
Y79182D01*
X365188D01*
Y79002D01*
X367413D01*
Y78969D01*
X376954D01*
Y78179D01*
X377165D01*
Y70797D01*
X378192Y72135D01*
X379624Y73234D01*
X381292Y73925D01*
X383083Y74161D01*
X384873Y73925D01*
X386541Y73234D01*
X387538Y72470D01*
Y72644D01*
Y73332D01*
X387806Y74682D01*
X388333Y75953D01*
X389097Y77097D01*
X390070Y78070D01*
X391214Y78834D01*
X392435Y79339D01*
X380091D01*
Y94071D01*
X408793D01*
Y79629D01*
D02*
G37*
G36*
X467920Y93762D02*
X469271D01*
Y68184D01*
X467920D01*
Y66919D01*
X445045D01*
Y68184D01*
X443693D01*
Y93762D01*
X444691D01*
Y95027D01*
X467920D01*
Y93762D01*
D02*
G37*
G36*
X597428Y71595D02*
X598449D01*
Y63513D01*
X597428D01*
Y63363D01*
X586049D01*
Y63513D01*
X585028D01*
Y71595D01*
X586049D01*
Y71745D01*
X597428D01*
Y71595D01*
D02*
G37*
G36*
X434305Y88908D02*
X435576Y88382D01*
X436720Y87618D01*
X437693Y86644D01*
X438457Y85500D01*
X438984Y84229D01*
X439252Y82880D01*
Y82192D01*
Y66952D01*
Y66264D01*
X438984Y64914D01*
X438457Y63643D01*
X437693Y62499D01*
X436720Y61526D01*
X435576Y60762D01*
X434305Y60235D01*
X432955Y59967D01*
X429039D01*
X427690Y60235D01*
X426419Y60762D01*
X425275Y61526D01*
X424302Y62499D01*
X423537Y63643D01*
X423011Y64914D01*
X422742Y66264D01*
Y66952D01*
Y82192D01*
Y82880D01*
X423011Y84229D01*
X423537Y85500D01*
X424302Y86644D01*
X425275Y87618D01*
X426419Y88382D01*
X427690Y88908D01*
X429039Y89177D01*
X432955D01*
X434305Y88908D01*
D02*
G37*
G36*
X262578Y58626D02*
X232164D01*
Y81704D01*
X262578D01*
Y58626D01*
D02*
G37*
G36*
X151069Y85756D02*
X151859D01*
Y77038D01*
X154454D01*
X155804Y76770D01*
X157075Y76243D01*
X158219Y75479D01*
X159192Y74506D01*
X159957Y73362D01*
X160483Y72091D01*
X160751Y70741D01*
Y70053D01*
Y63703D01*
Y63015D01*
X160483Y61666D01*
X159957Y60395D01*
X159192Y59250D01*
X158219Y58278D01*
X157075Y57513D01*
X155804Y56987D01*
X154454Y56718D01*
X133775D01*
X132425Y56987D01*
X131154Y57513D01*
X130010Y58278D01*
X129037Y59250D01*
X128272Y60395D01*
X127746Y61666D01*
X127478Y63015D01*
Y63703D01*
Y70053D01*
Y70741D01*
X127746Y72091D01*
X128272Y73362D01*
X129037Y74506D01*
X130010Y75479D01*
X131154Y76243D01*
X132425Y76770D01*
X133775Y77038D01*
X134699D01*
Y85756D01*
X135489D01*
Y85966D01*
X151069D01*
Y85756D01*
D02*
G37*
G36*
X655719Y71559D02*
X655930D01*
Y55979D01*
X655719D01*
Y55189D01*
X645559D01*
Y55979D01*
X645348D01*
Y71559D01*
X645559D01*
Y72349D01*
X655719D01*
Y71559D01*
D02*
G37*
G36*
X170025Y77781D02*
X171693Y77090D01*
X173125Y75991D01*
X174225Y74558D01*
X174916Y72890D01*
X175152Y71100D01*
X174916Y69309D01*
X174225Y67641D01*
X173125Y66209D01*
X172660Y65851D01*
X174407Y66270D01*
X178552Y66597D01*
X182697Y66270D01*
X186740Y65300D01*
X190250Y63846D01*
X190177Y64402D01*
X190412Y66192D01*
X191103Y67860D01*
X192203Y69293D01*
X193635Y70392D01*
X195303Y71083D01*
X197094Y71319D01*
X198884Y71083D01*
X200552Y70392D01*
X201985Y69293D01*
X203084Y67860D01*
X203775Y66192D01*
X204011Y64402D01*
X203775Y62611D01*
X203084Y60943D01*
X201985Y59510D01*
X200552Y58411D01*
X198884Y57720D01*
X198306Y57644D01*
X199989Y55674D01*
X202161Y52129D01*
X203753Y48287D01*
X203756Y48272D01*
Y53487D01*
Y54175D01*
X204025Y55525D01*
X204551Y56796D01*
X205316Y57940D01*
X206289Y58913D01*
X207433Y59677D01*
X208704Y60204D01*
X210053Y60472D01*
X217779D01*
X219129Y60204D01*
X220400Y59677D01*
X221544Y58913D01*
X221556Y58900D01*
X221602Y58870D01*
X222575Y57897D01*
X223340Y56753D01*
X223866Y55482D01*
X224135Y54132D01*
Y53444D01*
Y34140D01*
Y33452D01*
X223866Y32103D01*
X223340Y30831D01*
X222575Y29687D01*
X221602Y28714D01*
X220458Y27950D01*
X219187Y27424D01*
X217838Y27155D01*
X210112D01*
X208762Y27424D01*
X207491Y27950D01*
X206347Y28714D01*
X206334Y28727D01*
X206289Y28758D01*
X205316Y29731D01*
X204551Y30875D01*
X204025Y32146D01*
X203927Y32637D01*
X203753Y31911D01*
X202161Y28069D01*
X199989Y24524D01*
X197288Y21362D01*
X194127Y18662D01*
X190581Y16489D01*
X186740Y14898D01*
X182697Y13928D01*
X178552Y13601D01*
X174407Y13928D01*
X170364Y14898D01*
X166522Y16489D01*
X165339Y17214D01*
X162977Y18662D01*
X159815Y21362D01*
X157115Y24524D01*
X154942Y28069D01*
X153351Y31911D01*
X152380Y35954D01*
X152054Y40099D01*
X152183Y41737D01*
X125766D01*
Y54945D01*
X154722D01*
Y51596D01*
X154942Y52129D01*
X157115Y55674D01*
X159815Y58836D01*
X162977Y61536D01*
X165339Y62984D01*
X166522Y63709D01*
X167803Y64239D01*
X166444Y64418D01*
X164776Y65109D01*
X163343Y66209D01*
X162244Y67641D01*
X161553Y69309D01*
X161317Y71100D01*
X161553Y72890D01*
X162244Y74558D01*
X163343Y75991D01*
X164776Y77090D01*
X166444Y77781D01*
X168234Y78017D01*
X170025Y77781D01*
D02*
G37*
G36*
X582242Y49959D02*
X539915D01*
Y49954D01*
X497243D01*
Y68750D01*
X539570D01*
Y68755D01*
X582242D01*
Y49959D01*
D02*
G37*
G36*
X372379Y61353D02*
X374047Y60661D01*
X375480Y59562D01*
X376579Y58130D01*
X377270Y56461D01*
X377506Y54671D01*
X377270Y52881D01*
X376579Y51212D01*
X375480Y49780D01*
X374047Y48681D01*
X372379Y47990D01*
X370588Y47754D01*
X368798Y47990D01*
X367130Y48681D01*
X365697Y49780D01*
X364598Y51212D01*
X363907Y52881D01*
X363671Y54671D01*
X363907Y56461D01*
X364598Y58130D01*
X365697Y59562D01*
X367130Y60661D01*
X368798Y61353D01*
X370588Y61588D01*
X372379Y61353D01*
D02*
G37*
G36*
X428810Y59653D02*
X430478Y58962D01*
X431911Y57863D01*
X433010Y56430D01*
X433701Y54762D01*
X433937Y52972D01*
X433701Y51181D01*
X433010Y49513D01*
X431911Y48081D01*
X430478Y46981D01*
X428810Y46290D01*
X427020Y46055D01*
X425229Y46290D01*
X423561Y46981D01*
X422128Y48081D01*
X421029Y49513D01*
X420338Y51181D01*
X420103Y52972D01*
X420338Y54762D01*
X421029Y56430D01*
X422128Y57863D01*
X423561Y58962D01*
X425229Y59653D01*
X427020Y59889D01*
X428810Y59653D01*
D02*
G37*
G36*
X42169Y81316D02*
X43899D01*
Y45237D01*
X42169D01*
Y43436D01*
X19548D01*
Y45237D01*
X17818D01*
Y81316D01*
X19548D01*
Y83116D01*
X42169D01*
Y81316D01*
D02*
G37*
G36*
X122966Y64717D02*
X123266D01*
Y42639D01*
X122966D01*
Y41077D01*
X109484D01*
Y42639D01*
X109184D01*
Y64717D01*
X109484D01*
Y66279D01*
X122966D01*
Y64717D01*
D02*
G37*
G36*
X262303Y41036D02*
X233601D01*
Y55768D01*
X262303D01*
Y41036D01*
D02*
G37*
G36*
X632389Y73162D02*
X643473D01*
Y42987D01*
X632389D01*
Y39787D01*
X609803D01*
Y42987D01*
X598719D01*
Y73162D01*
X609803D01*
Y76363D01*
X632389D01*
Y73162D01*
D02*
G37*
G36*
X476496Y56116D02*
X476707D01*
Y41730D01*
X484345D01*
X485694Y41461D01*
X486965Y40935D01*
X488109Y40170D01*
X489082Y39197D01*
X489847Y38053D01*
X490373Y36782D01*
X490642Y35433D01*
Y34745D01*
Y28395D01*
Y27707D01*
X490373Y26357D01*
X489847Y25086D01*
X489082Y23942D01*
X488109Y22969D01*
X486965Y22205D01*
X485694Y21678D01*
X484345Y21410D01*
X463665D01*
X462315Y21678D01*
X461044Y22205D01*
X459900Y22969D01*
X458927Y23942D01*
X458163Y25086D01*
X457636Y26357D01*
X457368Y27707D01*
Y28395D01*
Y34745D01*
Y35433D01*
X457636Y36782D01*
X458163Y38053D01*
X458927Y39197D01*
X459133Y39403D01*
X449080D01*
Y40193D01*
X448869D01*
Y55773D01*
X449080D01*
Y56563D01*
X459240D01*
Y55773D01*
X459450D01*
Y40193D01*
X459240D01*
Y39510D01*
X459900Y40170D01*
X461044Y40935D01*
X462315Y41461D01*
X463665Y41730D01*
X466126D01*
Y56116D01*
X466336D01*
Y56906D01*
X476496D01*
Y56116D01*
D02*
G37*
G36*
X448112Y55740D02*
X448323D01*
Y40160D01*
X448112D01*
Y39370D01*
X437952D01*
Y40160D01*
X437741D01*
Y55740D01*
X437952D01*
Y56530D01*
X448112D01*
Y55740D01*
D02*
G37*
G36*
X655401Y50911D02*
X657069Y50219D01*
X658502Y49120D01*
X659601Y47688D01*
X660292Y46019D01*
X660528Y44229D01*
X660292Y42439D01*
X659601Y40770D01*
X658502Y39338D01*
X657069Y38239D01*
X655401Y37548D01*
X653611Y37312D01*
X651820Y37548D01*
X650152Y38239D01*
X648719Y39338D01*
X647620Y40770D01*
X646929Y42439D01*
X646693Y44229D01*
X646929Y46019D01*
X647620Y47688D01*
X648719Y49120D01*
X650152Y50219D01*
X651820Y50911D01*
X653611Y51146D01*
X655401Y50911D01*
D02*
G37*
G36*
X78427Y49199D02*
X80096Y48507D01*
X81528Y47408D01*
X82627Y45976D01*
X83318Y44307D01*
X83554Y42517D01*
X83318Y40727D01*
X82627Y39058D01*
X81528Y37626D01*
X80096Y36527D01*
X78427Y35836D01*
X76637Y35600D01*
X74847Y35836D01*
X73178Y36527D01*
X71746Y37626D01*
X70646Y39058D01*
X69955Y40727D01*
X69720Y42517D01*
X69955Y44307D01*
X70646Y45976D01*
X71746Y47408D01*
X73178Y48507D01*
X74847Y49199D01*
X76637Y49434D01*
X78427Y49199D01*
D02*
G37*
G36*
X59636Y45391D02*
X61305Y44700D01*
X62737Y43601D01*
X63836Y42168D01*
X64528Y40500D01*
X64763Y38710D01*
X64528Y36919D01*
X63836Y35251D01*
X62737Y33818D01*
X61305Y32719D01*
X59636Y32028D01*
X57846Y31792D01*
X56056Y32028D01*
X54387Y32719D01*
X52955Y33818D01*
X51856Y35251D01*
X51164Y36919D01*
X50929Y38710D01*
X51164Y40500D01*
X51856Y42168D01*
X52955Y43601D01*
X54387Y44700D01*
X56056Y45391D01*
X57846Y45627D01*
X59636Y45391D01*
D02*
G37*
G36*
X209745Y25373D02*
X211413Y24682D01*
X212846Y23583D01*
X213945Y22150D01*
X214636Y20482D01*
X214872Y18692D01*
X214636Y16902D01*
X213945Y15233D01*
X212846Y13801D01*
X211413Y12701D01*
X209745Y12010D01*
X207955Y11775D01*
X207946Y11776D01*
X207937Y11775D01*
X206147Y12010D01*
X204478Y12701D01*
X203046Y13801D01*
X201947Y15233D01*
X201256Y16902D01*
X201020Y18692D01*
X201256Y20482D01*
X201947Y22150D01*
X203046Y23583D01*
X204478Y24682D01*
X206147Y25373D01*
X207937Y25609D01*
X207946Y25608D01*
X207955Y25609D01*
X209745Y25373D01*
D02*
G37*
G36*
X261999Y24679D02*
X233297D01*
Y39411D01*
X261999D01*
Y24679D01*
D02*
G37*
G36*
X27795Y38755D02*
X28006D01*
Y23175D01*
X27795D01*
Y22385D01*
X17635D01*
Y23175D01*
X17424D01*
Y38755D01*
X17635D01*
Y39545D01*
X27795D01*
Y38755D01*
D02*
G37*
G36*
X49761Y38651D02*
X49972D01*
Y23071D01*
X49761D01*
Y22281D01*
X39601D01*
Y23071D01*
X39390D01*
Y38651D01*
X39601D01*
Y39441D01*
X49761D01*
Y38651D01*
D02*
G37*
G36*
X140259Y36045D02*
X141821D01*
Y22563D01*
X140259D01*
Y22263D01*
X118181D01*
Y22563D01*
X116619D01*
Y36045D01*
X118181D01*
Y36345D01*
X140259D01*
Y36045D01*
D02*
G37*
G36*
X39073Y38572D02*
X39284D01*
Y22992D01*
X39073D01*
Y22202D01*
X28913D01*
Y22992D01*
X28702D01*
Y38572D01*
X28913D01*
Y39362D01*
X39073D01*
Y38572D01*
D02*
G37*
G36*
X449943Y33976D02*
X451611Y33285D01*
X453044Y32186D01*
X454143Y30753D01*
X454834Y29085D01*
X455070Y27295D01*
X454834Y25505D01*
X454143Y23836D01*
X453044Y22404D01*
X451611Y21304D01*
X449943Y20613D01*
X448153Y20378D01*
X446362Y20613D01*
X444694Y21304D01*
X443261Y22404D01*
X442162Y23836D01*
X441471Y25505D01*
X441235Y27295D01*
X441471Y29085D01*
X442162Y30753D01*
X443261Y32186D01*
X444694Y33285D01*
X446362Y33976D01*
X448153Y34212D01*
X449943Y33976D01*
D02*
G37*
G36*
X341561Y35456D02*
X341772D01*
Y19876D01*
X341561D01*
Y19086D01*
X331401D01*
Y19876D01*
X331191D01*
Y35456D01*
X331401D01*
Y36246D01*
X341561D01*
Y35456D01*
D02*
G37*
G36*
X716097Y66270D02*
X720140Y65300D01*
X723981Y63709D01*
X727527Y61536D01*
X730688Y58836D01*
X733389Y55674D01*
X735561Y52129D01*
X737153Y48287D01*
X738123Y44244D01*
X738449Y40099D01*
X738123Y35954D01*
X737153Y31911D01*
X735561Y28069D01*
X733389Y24524D01*
X730688Y21362D01*
X727527Y18662D01*
X723981Y16489D01*
X720140Y14898D01*
X716097Y13928D01*
X711952Y13601D01*
X707807Y13928D01*
X703764Y14898D01*
X699922Y16489D01*
X698739Y17214D01*
X696377Y18662D01*
X693215Y21362D01*
X690515Y24524D01*
X688342Y28069D01*
X686751Y31911D01*
X685780Y35954D01*
X685454Y40099D01*
X685780Y44244D01*
X686751Y48287D01*
X688342Y52129D01*
X690515Y55674D01*
X693215Y58836D01*
X696377Y61536D01*
X698739Y62984D01*
X699922Y63709D01*
X703764Y65300D01*
X707807Y66270D01*
X711952Y66597D01*
X716097Y66270D01*
D02*
G37*
G36*
X366372Y23928D02*
X368040Y23237D01*
X369473Y22138D01*
X370572Y20705D01*
X371263Y19037D01*
X371499Y17247D01*
X371263Y15456D01*
X370572Y13788D01*
X369473Y12355D01*
X368040Y11256D01*
X366372Y10565D01*
X364581Y10329D01*
X362791Y10565D01*
X361123Y11256D01*
X359690Y12355D01*
X358591Y13788D01*
X357900Y15456D01*
X357664Y17247D01*
X357900Y19037D01*
X358591Y20705D01*
X359690Y22138D01*
X361123Y23237D01*
X362791Y23928D01*
X364581Y24164D01*
X366372Y23928D01*
D02*
G37*
G36*
X291703Y22394D02*
X293372Y21703D01*
X294804Y20604D01*
X295903Y19171D01*
X296595Y17503D01*
X296600Y17464D01*
X296605Y17452D01*
X296840Y15662D01*
X296605Y13871D01*
X295914Y12203D01*
X294814Y10770D01*
X293382Y9671D01*
X291714Y8980D01*
X289923Y8745D01*
X288133Y8980D01*
X286465Y9671D01*
X285032Y10770D01*
X283933Y12203D01*
X283242Y13871D01*
X283237Y13910D01*
X283232Y13922D01*
X282996Y15712D01*
X283232Y17503D01*
X283923Y19171D01*
X285022Y20604D01*
X286455Y21703D01*
X288123Y22394D01*
X289913Y22630D01*
X291703Y22394D01*
D02*
G37*
G36*
X325489Y27468D02*
X326760Y26942D01*
X327904Y26177D01*
X328877Y25205D01*
X329641Y24060D01*
X330168Y22789D01*
X330436Y21440D01*
Y20752D01*
Y14402D01*
Y13714D01*
X330168Y12364D01*
X329641Y11093D01*
X328877Y9949D01*
X327904Y8976D01*
X326760Y8212D01*
X325489Y7685D01*
X324139Y7417D01*
X303231D01*
X301881Y7685D01*
X300610Y8212D01*
X299466Y8976D01*
X298493Y9949D01*
X297729Y11093D01*
X297202Y12364D01*
X296934Y13714D01*
Y14402D01*
Y20752D01*
Y21440D01*
X297202Y22789D01*
X297729Y24060D01*
X298493Y25205D01*
X299466Y26177D01*
X300610Y26942D01*
X301881Y27468D01*
X303231Y27737D01*
X324139D01*
X325489Y27468D01*
D02*
G37*
%LPC*%
G36*
X666334Y431734D02*
X664682D01*
X664938Y431538D01*
X665508Y430795D01*
X666078Y431538D01*
X666334Y431734D01*
D02*
G37*
G36*
X655210Y431579D02*
X653962D01*
X654016Y431538D01*
X654586Y430795D01*
X655156Y431538D01*
X655210Y431579D01*
D02*
G37*
G36*
X644318Y431602D02*
X643010D01*
X643094Y431538D01*
X643664Y430795D01*
X644234Y431538D01*
X644318Y431602D01*
D02*
G37*
G36*
X633492Y431675D02*
X631992D01*
X632172Y431538D01*
X632742Y430795D01*
X633312Y431538D01*
X633492Y431675D01*
D02*
G37*
G36*
X104216Y414686D02*
X103772D01*
Y414269D01*
X104125D01*
Y414480D01*
X104216D01*
Y414686D01*
D02*
G37*
G36*
X308960Y44475D02*
X308086Y43804D01*
X306626Y43199D01*
X307982Y42638D01*
X308960Y41887D01*
Y44475D01*
D02*
G37*
%LPD*%
D10*
X443680Y300911D02*
X610786D01*
X443680D02*
Y468018D01*
X610786D01*
Y300911D02*
Y468018D01*
D98*
X197175Y533928D02*
X240513D01*
X197175Y490591D02*
Y533928D01*
Y490591D02*
X240513D01*
Y533928D01*
X607987Y517004D02*
X649988D01*
Y541002D01*
X607987D02*
X649988D01*
X607987Y517004D02*
Y541002D01*
X611027Y519473D02*
Y538523D01*
Y519473D02*
X646948D01*
Y538523D01*
X611027D02*
X646948D01*
X342537Y538665D02*
Y550248D01*
X323385D02*
X342537D01*
X323385Y538665D02*
Y550248D01*
Y538665D02*
X342537D01*
X223672Y85870D02*
Y127871D01*
X199674D02*
X223672D01*
X199674Y85870D02*
Y127871D01*
Y85870D02*
X223672D01*
X202153Y88910D02*
X221203D01*
Y124831D01*
X202153D02*
X221203D01*
X202153Y88910D02*
Y124831D01*
X580969Y44138D02*
Y55720D01*
Y44138D02*
X600121D01*
Y55720D01*
X580969D02*
X600121D01*
X661736Y265082D02*
X673318D01*
Y284234D01*
X661736D02*
X673318D01*
X661736Y265082D02*
Y284234D01*
X229690Y201445D02*
X241272D01*
X229690Y182293D02*
Y201445D01*
Y182293D02*
X241272D01*
Y201445D01*
X223502Y169499D02*
Y181082D01*
Y169499D02*
X242654D01*
Y181082D01*
X223502D02*
X242654D01*
X244638Y201679D02*
X256220D01*
X244638Y182527D02*
Y201679D01*
Y182527D02*
X256220D01*
Y201679D01*
D99*
X277071Y322189D02*
X426626D01*
X277071D02*
Y426745D01*
X426626D01*
Y322189D02*
Y426745D01*
M02*
